<svg width="615" height="273" viewBox="0 0 615 273" fill="none" xmlns="http://www.w3.org/2000/svg">
<path d="M36.648 28.464H40.152C47.544 28.464 51.72 24.72 51.72 17.04C51.72 8.832 46.776 5.808 39.192 5.808H29.592V42H36.648V28.464ZM36.648 11.664H37.896C41.832 11.664 44.52 12.336 44.52 16.992C44.52 21.696 42.264 22.608 38.088 22.608H36.648V11.664ZM72.2074 26.736C77.0554 25.92 79.5994 21.312 79.5994 16.704C79.5994 8.976 74.6554 5.808 67.5034 5.808H57.9514V42H65.0074V27.408H65.1034L73.8874 42H82.4314L72.2074 26.736ZM65.0074 11.568H65.9674C69.7114 11.568 72.5434 12.432 72.5434 16.896C72.5434 21.312 69.8074 22.464 65.9194 22.464H65.0074V11.568ZM121.797 23.856C121.797 13.104 114.693 4.848 103.893 4.848C93.093 4.848 85.989 13.104 85.989 23.856C85.989 34.512 92.853 42.96 103.893 42.96C114.933 42.96 121.797 34.512 121.797 23.856ZM114.501 23.568C114.501 29.136 111.717 36 103.893 36C96.069 36 93.285 29.136 93.285 23.568C93.285 17.712 97.221 11.808 103.893 11.808C110.565 11.808 114.501 17.712 114.501 23.568ZM128.264 42H138.296C148.616 42 155.816 34.128 155.816 23.952C155.816 13.632 148.808 5.808 138.344 5.808H128.264V42ZM135.32 11.952H136.472C144.488 11.952 148.52 16.032 148.52 23.904C148.52 31.056 145.16 35.856 136.472 35.856H135.32V11.952ZM162.103 27.456C162.103 36.288 165.847 42.96 175.543 42.96C185.239 42.96 188.983 36.288 188.983 27.456V5.808H181.927V26.064C181.927 30.528 181.543 36.816 175.543 36.816C169.543 36.816 169.159 30.528 169.159 26.064V5.808H162.103V27.456ZM221.175 6.96C218.727 5.616 215.943 4.848 213.111 4.848C202.503 4.848 195.255 13.92 195.255 24.192C195.255 34.176 202.791 42.96 212.967 42.96C215.895 42.96 218.535 42.048 221.175 40.8V32.4C219.207 34.656 216.183 36.24 213.159 36.24C206.583 36.24 202.551 30.144 202.551 24.048C202.551 17.808 206.439 11.568 213.207 11.568C216.231 11.568 219.207 13.008 221.175 15.408V6.96ZM240.571 11.952H247.867V5.808H226.219V11.952H233.515V42H240.571V11.952ZM287.547 23.856C287.547 13.104 280.443 4.848 269.643 4.848C258.843 4.848 251.739 13.104 251.739 23.856C251.739 34.512 258.603 42.96 269.643 42.96C280.683 42.96 287.547 34.512 287.547 23.856ZM280.251 23.568C280.251 29.136 277.467 36 269.643 36C261.819 36 259.035 29.136 259.035 23.568C259.035 17.712 262.971 11.808 269.643 11.808C276.315 11.808 280.251 17.712 280.251 23.568ZM310.889 42H320.921C331.241 42 338.441 34.128 338.441 23.952C338.441 13.632 331.433 5.808 320.969 5.808H310.889V42ZM317.945 11.952H319.097C327.113 11.952 331.145 16.032 331.145 23.904C331.145 31.056 327.785 35.856 319.097 35.856H317.945V11.952ZM363.64 11.952V5.808H344.92V42H363.64V35.856H351.976V26.064H363.208V19.92H351.976V11.952H363.64ZM47.544 59.952V53.808H29.592V90H36.648V74.064H46.872V67.92H36.648V59.952H47.544ZM61.8668 53.808H54.8108V90H61.8668V53.808ZM69.9983 90H77.0543V65.424H77.1503L96.2063 90.72H101.294V53.808H94.2383V78.144H94.1423L75.0863 52.848H69.9983V90ZM129.388 82.368L132.172 90H139.708L125.98 52.848H120.508L106.396 90H113.836L116.812 82.368H129.388ZM127.42 76.608H118.828L122.812 63.456H122.908L127.42 76.608ZM144.858 90H151.914V65.424H152.01L171.066 90.72H176.154V53.808H169.098V78.144H169.002L149.946 52.848H144.858V90ZM208.472 54.96C206.024 53.616 203.24 52.848 200.408 52.848C189.8 52.848 182.552 61.92 182.552 72.192C182.552 82.176 190.088 90.96 200.264 90.96C203.192 90.96 205.832 90.048 208.472 88.8V80.4C206.504 82.656 203.48 84.24 200.456 84.24C193.88 84.24 189.848 78.144 189.848 72.048C189.848 65.808 193.736 59.568 200.504 59.568C203.528 59.568 206.504 61.008 208.472 63.408V54.96ZM223.164 53.808H216.108V90H223.164V53.808ZM251.263 82.368L254.047 90H261.583L247.855 52.848H242.383L228.271 90H235.711L238.687 82.368H251.263ZM249.295 76.608H240.703L244.687 63.456H244.783L249.295 76.608ZM296.637 90H303.741L298.317 52.848H293.229L284.685 76.704L275.757 52.848H270.765L264.669 90H271.773L274.989 67.536H275.085L283.005 90.48H285.453L293.661 67.536H293.757L296.637 90ZM316.914 53.808H309.858V90H316.914V53.808ZM343.765 59.952V53.808H325.045V90H343.765V83.856H332.101V74.064H343.333V67.92H332.101V59.952H343.765ZM351.483 90H358.539V65.424H358.635L377.691 90.72H382.779V53.808H375.723V78.144H375.627L356.571 52.848H351.483V90ZM402.665 59.952H409.961V53.808H388.312V59.952H395.609V90H402.665V59.952ZM449.641 71.856C449.641 61.104 442.537 52.848 431.737 52.848C420.937 52.848 413.833 61.104 413.833 71.856C413.833 82.512 420.697 90.96 431.737 90.96C442.777 90.96 449.641 82.512 449.641 71.856ZM442.345 71.568C442.345 77.136 439.561 84 431.737 84C423.913 84 421.129 77.136 421.129 71.568C421.129 65.712 425.065 59.808 431.737 59.808C438.409 59.808 442.345 65.712 442.345 71.568ZM36.648 124.464H40.152C47.544 124.464 51.72 120.72 51.72 113.04C51.72 104.832 46.776 101.808 39.192 101.808H29.592V138H36.648V124.464ZM36.648 107.664H37.896C41.832 107.664 44.52 108.336 44.52 112.992C44.52 117.696 42.264 118.608 38.088 118.608H36.648V107.664ZM76.6714 107.952V101.808H57.9514V138H76.6714V131.856H65.0074V122.064H76.2394V115.92H65.0074V107.952H76.6714ZM84.3889 138H91.4449V113.424H91.5409L110.597 138.72H115.685V101.808H108.629V126.144H108.533L89.4769 100.848H84.3889V138ZM144.163 104.88C141.955 102.432 137.491 100.848 134.275 100.848C128.179 100.848 123.715 105.696 123.715 111.696C123.715 117.312 127.123 119.664 131.779 121.584C134.611 122.688 138.067 123.744 138.067 127.488C138.067 130.272 136.291 132.72 133.411 132.72C130.387 132.72 127.843 130.224 126.883 127.44L122.323 131.904C124.819 136.08 128.467 138.96 133.459 138.96C140.851 138.96 145.363 133.824 145.363 126.576C145.363 114.432 131.011 116.976 131.011 110.88C131.011 108.528 133.171 106.8 135.427 106.8C137.779 106.8 139.507 107.952 140.851 109.776L144.163 104.88ZM172.044 130.368L174.828 138H182.364L168.636 100.848H163.164L149.052 138H156.492L159.468 130.368H172.044ZM170.076 124.608H161.484L165.468 111.456H165.564L170.076 124.608ZM187.514 138H197.546C207.866 138 215.066 130.128 215.066 119.952C215.066 109.632 208.058 101.808 197.594 101.808H187.514V138ZM194.57 107.952H195.722C203.738 107.952 207.77 112.032 207.77 119.904C207.77 127.056 204.41 131.856 195.722 131.856H194.57V107.952ZM255.625 119.856C255.625 109.104 248.521 100.848 237.721 100.848C226.921 100.848 219.817 109.104 219.817 119.856C219.817 130.512 226.681 138.96 237.721 138.96C248.761 138.96 255.625 130.512 255.625 119.856ZM248.329 119.568C248.329 125.136 245.545 132 237.721 132C229.897 132 227.113 125.136 227.113 119.568C227.113 113.712 231.049 107.808 237.721 107.808C244.393 107.808 248.329 113.712 248.329 119.568ZM286.023 124.464H289.527C296.919 124.464 301.095 120.72 301.095 113.04C301.095 104.832 296.151 101.808 288.567 101.808H278.967V138H286.023V124.464ZM286.023 107.664H287.271C291.207 107.664 293.895 108.336 293.895 112.992C293.895 117.696 291.639 118.608 287.463 118.608H286.023V107.664ZM323.451 130.368L326.235 138H333.771L320.043 100.848H314.571L300.459 138H307.899L310.875 130.368H323.451ZM321.483 124.608H312.891L316.875 111.456H316.971L321.483 124.608ZM353.176 122.736C358.024 121.92 360.568 117.312 360.568 112.704C360.568 104.976 355.624 101.808 348.472 101.808H338.92V138H345.976V123.408H346.072L354.856 138H363.4L353.176 122.736ZM345.976 107.568H346.936C350.68 107.568 353.512 108.432 353.512 112.896C353.512 117.312 350.776 118.464 346.888 118.464H345.976V107.568ZM388.654 130.368L391.438 138H398.974L385.246 100.848H379.774L365.662 138H373.102L376.078 130.368H388.654ZM386.686 124.608H378.094L382.078 111.456H382.174L386.686 124.608ZM428.054 116.064V101.808H420.998V138H428.054V121.824H441.11V138H448.166V101.808H441.11V116.064H428.054ZM476.31 130.368L479.094 138H486.63L472.902 100.848H467.43L453.318 138H460.758L463.734 130.368H476.31ZM474.342 124.608H465.75L469.734 111.456H469.83L474.342 124.608ZM515.972 102.96C513.524 101.616 510.74 100.848 507.908 100.848C497.3 100.848 490.052 109.92 490.052 120.192C490.052 130.176 497.588 138.96 507.764 138.96C510.692 138.96 513.332 138.048 515.972 136.8V128.4C514.004 130.656 510.98 132.24 507.956 132.24C501.38 132.24 497.348 126.144 497.348 120.048C497.348 113.808 501.236 107.568 508.004 107.568C511.028 107.568 514.004 109.008 515.972 111.408V102.96ZM542.328 107.952V101.808H523.608V138H542.328V131.856H530.664V122.064H541.896V115.92H530.664V107.952H542.328ZM564.301 122.736C569.149 121.92 571.693 117.312 571.693 112.704C571.693 104.976 566.749 101.808 559.597 101.808H550.045V138H557.101V123.408H557.197L565.981 138H574.525L564.301 122.736ZM557.101 107.568H558.061C561.805 107.568 564.637 108.432 564.637 112.896C564.637 117.312 561.901 118.464 558.013 118.464H557.101V107.568ZM53.784 150.96C51.336 149.616 48.552 148.848 45.72 148.848C35.112 148.848 27.864 157.92 27.864 168.192C27.864 178.176 35.4 186.96 45.576 186.96C48.504 186.96 51.144 186.048 53.784 184.8V176.4C51.816 178.656 48.792 180.24 45.768 180.24C39.192 180.24 35.16 174.144 35.16 168.048C35.16 161.808 39.048 155.568 45.816 155.568C48.84 155.568 51.816 157.008 53.784 159.408V150.96ZM75.6761 170.736C80.5241 169.92 83.0681 165.312 83.0681 160.704C83.0681 152.976 78.1241 149.808 70.9721 149.808H61.4201V186H68.4761V171.408H68.5721L77.3561 186H85.9001L75.6761 170.736ZM68.4761 155.568H69.4361C73.1801 155.568 76.0121 156.432 76.0121 160.896C76.0121 165.312 73.2761 166.464 69.3881 166.464H68.4761V155.568ZM109.906 155.952V149.808H91.1858V186H109.906V179.856H98.2418V170.064H109.474V163.92H98.2418V155.952H109.906ZM141.815 150.96C139.367 149.616 136.583 148.848 133.751 148.848C123.143 148.848 115.895 157.92 115.895 168.192C115.895 178.176 123.431 186.96 133.607 186.96C136.535 186.96 139.175 186.048 141.815 184.8V176.4C139.847 178.656 136.823 180.24 133.799 180.24C127.223 180.24 123.191 174.144 123.191 168.048C123.191 161.808 127.079 155.568 133.847 155.568C136.871 155.568 139.847 157.008 141.815 159.408V150.96ZM168.171 155.952V149.808H149.451V186H168.171V179.856H156.507V170.064H167.739V163.92H156.507V155.952H168.171ZM190.145 170.736C194.993 169.92 197.537 165.312 197.537 160.704C197.537 152.976 192.593 149.808 185.441 149.808H175.889V186H182.945V171.408H183.041L191.825 186H200.369L190.145 170.736ZM182.945 155.568H183.905C187.649 155.568 190.481 156.432 190.481 160.896C190.481 165.312 187.745 166.464 183.857 166.464H182.945V155.568ZM234.29 155.952H241.586V149.808H219.938V155.952H227.234V186H234.29V155.952ZM246.994 171.456C246.994 180.288 250.738 186.96 260.434 186.96C270.13 186.96 273.874 180.288 273.874 171.456V149.808H266.818V170.064C266.818 174.528 266.434 180.816 260.434 180.816C254.434 180.816 254.05 174.528 254.05 170.064V149.808H246.994V171.456ZM317.468 155.952V149.808H298.748V186H317.468V179.856H305.804V170.064H317.036V163.92H305.804V155.952H317.468ZM355.09 186H362.194L356.77 148.848H351.682L343.138 172.704L334.21 148.848H329.218L323.122 186H330.226L333.442 163.536H333.538L341.458 186.48H343.906L352.114 163.536H352.21L355.09 186ZM375.367 172.464H378.871C386.263 172.464 390.439 168.72 390.439 161.04C390.439 152.832 385.495 149.808 377.911 149.808H368.311V186H375.367V172.464ZM375.367 155.664H376.615C380.551 155.664 383.239 156.336 383.239 160.992C383.239 165.696 380.983 166.608 376.807 166.608H375.367V155.664ZM410.926 170.736C415.774 169.92 418.318 165.312 418.318 160.704C418.318 152.976 413.374 149.808 406.222 149.808H396.67V186H403.726V171.408H403.822L412.606 186H421.15L410.926 170.736ZM403.726 155.568H404.686C408.43 155.568 411.262 156.432 411.262 160.896C411.262 165.312 408.526 166.464 404.638 166.464H403.726V155.568ZM445.156 155.952V149.808H426.436V186H445.156V179.856H433.492V170.064H444.724V163.92H433.492V155.952H445.156ZM473.225 152.88C471.017 150.432 466.553 148.848 463.337 148.848C457.241 148.848 452.777 153.696 452.777 159.696C452.777 165.312 456.185 167.664 460.841 169.584C463.673 170.688 467.129 171.744 467.129 175.488C467.129 178.272 465.353 180.72 462.473 180.72C459.449 180.72 456.905 178.224 455.945 175.44L451.385 179.904C453.881 184.08 457.529 186.96 462.521 186.96C469.913 186.96 474.425 181.824 474.425 174.576C474.425 162.432 460.073 164.976 460.073 158.88C460.073 156.528 462.233 154.8 464.489 154.8C466.841 154.8 468.569 155.952 469.913 157.776L473.225 152.88ZM501.107 178.368L503.891 186H511.427L497.699 148.848H492.227L478.115 186H485.555L488.531 178.368H501.107ZM499.139 172.608H490.547L494.531 159.456H494.627L499.139 172.608Z" fill="white"/>
<path d="M26 231H14C9.58172 231 6 227.418 6 223V13" stroke="white" stroke-width="1.5"/>
<path d="M12.622 7.0784C12.622 10.6144 9.92461 13.4068 6.68598 13.4068C3.44736 13.4068 0.75 10.6144 0.75 7.0784C0.75 3.54244 3.44736 0.75 6.68598 0.75C9.92461 0.75 12.622 3.54244 12.622 7.0784Z" stroke="white" stroke-width="1.5"/>
<rect x="24" y="209" width="426" height="64" rx="16" fill="#002A61"/>
<path d="M44.5469 247V234.133H51.332V235.53H46.0762V239.222H51.332V240.646H46.0762V245.576H51.332V247H44.5469ZM53.8633 247V233.377H55.2695V247H53.8633ZM74.6582 247V242.263C74.6582 241.448 74.4941 240.845 74.166 240.452C73.8379 240.054 73.334 239.854 72.6543 239.854C72.2852 239.854 71.9424 239.931 71.626 240.083C71.3154 240.229 71.0518 240.44 70.835 240.716C70.6768 240.927 70.5625 241.173 70.4922 241.454C70.4219 241.735 70.3867 242.198 70.3867 242.843V247H69.0596V242.263C69.0596 241.448 68.8955 240.845 68.5674 240.452C68.2393 240.054 67.7354 239.854 67.0557 239.854C66.6865 239.854 66.3408 239.931 66.0186 240.083C65.7021 240.229 65.4355 240.44 65.2188 240.716C65.0664 240.921 64.9551 241.158 64.8848 241.428C64.8203 241.697 64.7881 242.169 64.7881 242.843V247H63.4609V238.958H64.8057V240.197C65.1396 239.682 65.5381 239.298 66.001 239.046C66.4639 238.794 66.9971 238.668 67.6006 238.668C68.251 238.668 68.8047 238.809 69.2617 239.09C69.7188 239.365 70.0645 239.77 70.2988 240.303C70.6445 239.752 71.0518 239.342 71.5205 239.072C71.9951 238.803 72.543 238.668 73.1641 238.668C74.0605 238.668 74.7607 238.92 75.2646 239.424C75.7686 239.928 76.0205 240.628 76.0205 241.524V247H74.6582ZM84.8887 243.054C84.8887 242.146 84.6396 241.416 84.1416 240.865C83.6494 240.309 83.0049 240.03 82.208 240.03C81.3818 240.03 80.7373 240.285 80.2744 240.795C79.8115 241.305 79.5801 242.017 79.5801 242.931C79.5801 243.903 79.8115 244.653 80.2744 245.181C80.7432 245.708 81.4053 245.972 82.2607 245.972C83.0811 245.972 83.7227 245.717 84.1855 245.207C84.6543 244.691 84.8887 243.974 84.8887 243.054ZM86.2246 238.958V247H84.8887V245.541C84.5664 246.127 84.1533 246.575 83.6494 246.886C83.1514 247.19 82.5918 247.343 81.9707 247.343C80.8164 247.343 79.8848 246.947 79.1758 246.156C78.4727 245.359 78.1211 244.308 78.1211 243.001C78.1211 241.677 78.4639 240.625 79.1494 239.846C79.835 239.061 80.752 238.668 81.9004 238.668C82.5742 238.668 83.1572 238.82 83.6494 239.125C84.1475 239.424 84.5488 239.872 84.8535 240.47V238.958H86.2246ZM88.9844 247V238.958H90.3291V240.197C90.6748 239.682 91.0908 239.298 91.5771 239.046C92.0635 238.794 92.626 238.668 93.2646 238.668C94.2139 238.668 94.9551 238.92 95.4883 239.424C96.0215 239.928 96.2881 240.628 96.2881 241.524V247H94.8818V242.263C94.8818 241.448 94.709 240.845 94.3633 240.452C94.0234 240.054 93.4961 239.854 92.7812 239.854C92.3711 239.854 91.9961 239.931 91.6562 240.083C91.3223 240.229 91.0439 240.44 90.8213 240.716C90.6514 240.927 90.5283 241.167 90.4521 241.437C90.3818 241.706 90.3467 242.175 90.3467 242.843V247H88.9844ZM104.726 242.069C104.679 241.36 104.441 240.815 104.014 240.435C103.592 240.048 103.012 239.854 102.273 239.854C101.605 239.854 101.049 240.057 100.604 240.461C100.158 240.859 99.9004 241.396 99.8301 242.069H104.726ZM106.202 243.186H99.8301V243.309C99.8301 244.17 100.076 244.867 100.568 245.4C101.061 245.928 101.702 246.191 102.493 246.191C103.032 246.191 103.519 246.048 103.952 245.761C104.386 245.468 104.77 245.028 105.104 244.442L106.149 245.146C105.745 245.872 105.229 246.42 104.603 246.789C103.976 247.158 103.249 247.343 102.423 247.343C101.198 247.343 100.208 246.938 99.4521 246.13C98.6963 245.321 98.3184 244.261 98.3184 242.948C98.3184 241.688 98.6934 240.657 99.4434 239.854C100.193 239.052 101.157 238.65 102.335 238.65C103.524 238.65 104.465 239.031 105.156 239.793C105.854 240.555 106.202 241.595 106.202 242.913V243.186ZM108.03 235.082C108.03 234.807 108.127 234.572 108.32 234.379C108.52 234.18 108.76 234.08 109.041 234.08C109.316 234.08 109.551 234.18 109.744 234.379C109.943 234.578 110.043 234.818 110.043 235.1C110.043 235.375 109.946 235.609 109.753 235.803C109.56 235.996 109.322 236.093 109.041 236.093C108.76 236.093 108.52 235.996 108.32 235.803C108.127 235.609 108.03 235.369 108.03 235.082ZM108.355 250.92V238.958H109.744V250.92H108.355ZM113.453 243.001C113.453 243.851 113.737 244.571 114.306 245.163C114.874 245.749 115.562 246.042 116.371 246.042C117.174 246.042 117.856 245.749 118.419 245.163C118.981 244.571 119.263 243.851 119.263 243.001C119.263 242.151 118.981 241.434 118.419 240.848C117.856 240.256 117.174 239.96 116.371 239.96C115.557 239.96 114.865 240.256 114.297 240.848C113.734 241.434 113.453 242.151 113.453 243.001ZM111.994 243.001C111.994 242.409 112.103 241.853 112.319 241.331C112.536 240.804 112.853 240.335 113.269 239.925C113.685 239.515 114.156 239.204 114.684 238.993C115.211 238.776 115.773 238.668 116.371 238.668C116.957 238.668 117.511 238.776 118.032 238.993C118.56 239.21 119.037 239.526 119.465 239.942C119.881 240.347 120.197 240.812 120.414 241.34C120.631 241.861 120.739 242.415 120.739 243.001C120.739 243.587 120.631 244.141 120.414 244.662C120.197 245.178 119.881 245.638 119.465 246.042C119.037 246.464 118.557 246.786 118.023 247.009C117.496 247.231 116.945 247.343 116.371 247.343C115.779 247.343 115.217 247.231 114.684 247.009C114.156 246.792 113.685 246.479 113.269 246.068C112.853 245.646 112.536 245.178 112.319 244.662C112.103 244.146 111.994 243.593 111.994 243.001ZM134.354 243.019C134.354 242.122 134.104 241.401 133.606 240.856C133.108 240.306 132.452 240.03 131.638 240.03C130.823 240.03 130.188 240.279 129.73 240.777C129.273 241.275 129.045 241.964 129.045 242.843C129.045 243.833 129.276 244.609 129.739 245.172C130.202 245.729 130.841 246.007 131.655 246.007C132.499 246.007 133.158 245.743 133.633 245.216C134.113 244.688 134.354 243.956 134.354 243.019ZM135.689 233.377V247H134.354V245.541C134.037 246.121 133.627 246.566 133.123 246.877C132.619 247.188 132.057 247.343 131.436 247.343C130.281 247.343 129.35 246.947 128.641 246.156C127.938 245.359 127.586 244.308 127.586 243.001C127.586 241.683 127.932 240.631 128.623 239.846C129.314 239.061 130.234 238.668 131.383 238.668C132.051 238.668 132.631 238.82 133.123 239.125C133.615 239.424 134.014 239.872 134.318 240.47V233.377H135.689ZM144.206 242.069C144.159 241.36 143.922 240.815 143.494 240.435C143.072 240.048 142.492 239.854 141.754 239.854C141.086 239.854 140.529 240.057 140.084 240.461C139.639 240.859 139.381 241.396 139.311 242.069H144.206ZM145.683 243.186H139.311V243.309C139.311 244.17 139.557 244.867 140.049 245.4C140.541 245.928 141.183 246.191 141.974 246.191C142.513 246.191 142.999 246.048 143.433 245.761C143.866 245.468 144.25 245.028 144.584 244.442L145.63 245.146C145.226 245.872 144.71 246.42 144.083 246.789C143.456 247.158 142.729 247.343 141.903 247.343C140.679 247.343 139.688 246.938 138.933 246.13C138.177 245.321 137.799 244.261 137.799 242.948C137.799 241.688 138.174 240.657 138.924 239.854C139.674 239.052 140.638 238.65 141.815 238.65C143.005 238.65 143.945 239.031 144.637 239.793C145.334 240.555 145.683 241.595 145.683 242.913V243.186ZM153.32 247L153.303 240.338H151.976V238.123H153.303V235.478H156.405V238.123H157.715V240.338H156.405V247H153.32ZM168.288 238.123V242.658C168.288 243.672 168.212 244.41 168.06 244.873C167.896 245.354 167.62 245.787 167.233 246.174C166.864 246.561 166.378 246.854 165.774 247.053C165.2 247.246 164.509 247.343 163.7 247.343C162.897 247.343 162.215 247.246 161.652 247.053C161.072 246.865 160.574 246.572 160.158 246.174C159.777 245.811 159.508 245.383 159.35 244.891C159.191 244.434 159.112 243.689 159.112 242.658V238.123H162.101V242.86C162.101 243.604 162.227 244.138 162.479 244.46C162.707 244.8 163.103 244.97 163.665 244.97C164.222 244.97 164.62 244.806 164.86 244.478C165.106 244.149 165.229 243.61 165.229 242.86V238.123H168.288ZM169.712 246.262L170.362 243.871C170.819 244.275 171.323 244.58 171.874 244.785C172.419 245.002 172.97 245.11 173.526 245.11C173.925 245.11 174.224 245.043 174.423 244.908C174.628 244.785 174.73 244.606 174.73 244.372C174.73 243.979 174.317 243.687 173.491 243.493C173.204 243.429 172.987 243.373 172.841 243.326C171.886 243.045 171.209 242.702 170.811 242.298C170.377 241.882 170.16 241.343 170.16 240.681C170.16 239.825 170.485 239.137 171.136 238.615C171.763 238.1 172.639 237.842 173.764 237.842C174.309 237.842 174.889 237.906 175.504 238.035C176.02 238.141 176.62 238.346 177.306 238.65L176.655 240.804C176.233 240.517 175.809 240.303 175.381 240.162C174.977 240.016 174.552 239.942 174.106 239.942C173.743 239.942 173.471 239.998 173.289 240.109C173.113 240.215 173.025 240.376 173.025 240.593C173.025 240.897 173.438 241.161 174.265 241.384C174.534 241.466 174.672 241.507 174.678 241.507C175.756 241.812 176.512 242.172 176.945 242.588C177.367 243.027 177.578 243.599 177.578 244.302C177.578 245.21 177.229 245.942 176.532 246.499C175.817 247.062 174.895 247.343 173.764 247.343C172.979 247.343 172.255 247.252 171.593 247.07C170.937 246.895 170.31 246.625 169.712 246.262ZM191.271 241.041C190.967 240.771 190.674 240.575 190.393 240.452C190.141 240.329 189.845 240.268 189.505 240.268C188.878 240.268 188.386 240.473 188.028 240.883C187.659 241.287 187.475 241.844 187.475 242.553C187.475 243.232 187.665 243.771 188.046 244.17C188.415 244.58 188.928 244.785 189.584 244.785C189.895 244.785 190.193 244.721 190.48 244.592C190.785 244.445 191.049 244.252 191.271 244.012V246.728C190.896 246.927 190.519 247.085 190.138 247.202C189.733 247.296 189.35 247.343 188.986 247.343C187.615 247.343 186.511 246.903 185.673 246.024C185.386 245.731 185.148 245.409 184.961 245.058C184.779 244.706 184.639 244.325 184.539 243.915C184.445 243.505 184.398 243.057 184.398 242.57C184.398 241.17 184.826 240.033 185.682 239.16C186.543 238.281 187.656 237.842 189.021 237.842C189.449 237.842 189.856 237.889 190.243 237.982C190.618 238.076 190.961 238.214 191.271 238.396V241.041ZM199.498 242.588C199.498 241.926 199.331 241.404 198.997 241.023C198.651 240.643 198.2 240.452 197.644 240.452C197.069 240.452 196.618 240.643 196.29 241.023C195.956 241.393 195.789 241.914 195.789 242.588C195.789 243.244 195.95 243.76 196.272 244.135C196.624 244.521 197.081 244.715 197.644 244.715C198.206 244.715 198.663 244.521 199.015 244.135C199.337 243.748 199.498 243.232 199.498 242.588ZM202.609 242.588C202.609 243.238 202.483 243.845 202.231 244.407C201.968 245.005 201.607 245.521 201.15 245.954C200.635 246.435 200.102 246.783 199.551 247C198.977 247.229 198.341 247.343 197.644 247.343C196.94 247.343 196.305 247.229 195.736 247C195.156 246.771 194.62 246.426 194.128 245.963C193.642 245.494 193.29 244.976 193.073 244.407C192.821 243.862 192.695 243.256 192.695 242.588C192.695 241.938 192.821 241.325 193.073 240.751C193.308 240.171 193.662 239.655 194.137 239.204C194.6 238.759 195.133 238.416 195.736 238.176C196.311 237.953 196.946 237.842 197.644 237.842C198.335 237.842 198.971 237.953 199.551 238.176C200.154 238.416 200.688 238.759 201.15 239.204C201.637 239.644 201.997 240.159 202.231 240.751C202.483 241.325 202.609 241.938 202.609 242.588ZM207.206 242.57C207.206 243.279 207.391 243.827 207.76 244.214C208.1 244.606 208.592 244.803 209.236 244.803C209.875 244.803 210.373 244.606 210.73 244.214C211.088 243.821 211.267 243.273 211.267 242.57C211.267 241.873 211.088 241.328 210.73 240.936C210.367 240.537 209.869 240.338 209.236 240.338C208.598 240.338 208.105 240.537 207.76 240.936C207.391 241.322 207.206 241.867 207.206 242.57ZM204.429 233.377H207.417V238.018C207.417 238.475 207.411 238.788 207.399 238.958C207.376 239.257 207.353 239.471 207.329 239.6C207.698 238.961 208.117 238.513 208.586 238.255C209.055 237.979 209.667 237.842 210.423 237.842C211.606 237.842 212.567 238.272 213.306 239.134C214.038 240.007 214.404 241.152 214.404 242.57C214.404 244.029 214.038 245.187 213.306 246.042C212.567 246.909 211.571 247.343 210.317 247.343C209.69 247.343 209.137 247.193 208.656 246.895C208.158 246.607 207.71 246.162 207.312 245.559V247H204.429V233.377ZM216.312 247V238.123H219.265V240.215C219.575 239.447 219.988 238.876 220.504 238.501C221.037 238.12 221.679 237.93 222.429 237.93C222.599 237.93 222.725 237.936 222.807 237.947C222.871 237.953 222.93 237.959 222.982 237.965C223.035 237.965 223.103 237.971 223.185 237.982L222.886 240.83C222.669 240.76 222.481 240.71 222.323 240.681C222.089 240.657 221.916 240.646 221.805 240.646C221.043 240.646 220.454 240.88 220.038 241.349C219.628 241.812 219.423 242.471 219.423 243.326V247H216.312ZM230.646 242.588C230.646 241.926 230.479 241.404 230.146 241.023C229.8 240.643 229.349 240.452 228.792 240.452C228.218 240.452 227.767 240.643 227.438 241.023C227.104 241.393 226.938 241.914 226.938 242.588C226.938 243.244 227.099 243.76 227.421 244.135C227.772 244.521 228.229 244.715 228.792 244.715C229.354 244.715 229.812 244.521 230.163 244.135C230.485 243.748 230.646 243.232 230.646 242.588ZM233.758 242.588C233.758 243.238 233.632 243.845 233.38 244.407C233.116 245.005 232.756 245.521 232.299 245.954C231.783 246.435 231.25 246.783 230.699 247C230.125 247.229 229.489 247.343 228.792 247.343C228.089 247.343 227.453 247.229 226.885 247C226.305 246.771 225.769 246.426 225.276 245.963C224.79 245.494 224.438 244.976 224.222 244.407C223.97 243.862 223.844 243.256 223.844 242.588C223.844 241.938 223.97 241.325 224.222 240.751C224.456 240.171 224.811 239.655 225.285 239.204C225.748 238.759 226.281 238.416 226.885 238.176C227.459 237.953 228.095 237.842 228.792 237.842C229.483 237.842 230.119 237.953 230.699 238.176C231.303 238.416 231.836 238.759 232.299 239.204C232.785 239.644 233.146 240.159 233.38 240.751C233.632 241.325 233.758 241.938 233.758 242.588ZM234.733 246.262L235.384 243.871C235.841 244.275 236.345 244.58 236.896 244.785C237.44 245.002 237.991 245.11 238.548 245.11C238.946 245.11 239.245 245.043 239.444 244.908C239.649 244.785 239.752 244.606 239.752 244.372C239.752 243.979 239.339 243.687 238.513 243.493C238.226 243.429 238.009 243.373 237.862 243.326C236.907 243.045 236.23 242.702 235.832 242.298C235.398 241.882 235.182 241.343 235.182 240.681C235.182 239.825 235.507 239.137 236.157 238.615C236.784 238.1 237.66 237.842 238.785 237.842C239.33 237.842 239.91 237.906 240.525 238.035C241.041 238.141 241.642 238.346 242.327 238.65L241.677 240.804C241.255 240.517 240.83 240.303 240.402 240.162C239.998 240.016 239.573 239.942 239.128 239.942C238.765 239.942 238.492 239.998 238.311 240.109C238.135 240.215 238.047 240.376 238.047 240.593C238.047 240.897 238.46 241.161 239.286 241.384C239.556 241.466 239.693 241.507 239.699 241.507C240.777 241.812 241.533 242.172 241.967 242.588C242.389 243.027 242.6 243.599 242.6 244.302C242.6 245.21 242.251 245.942 241.554 246.499C240.839 247.062 239.916 247.343 238.785 247.343C238 247.343 237.276 247.252 236.614 247.07C235.958 246.895 235.331 246.625 234.733 246.262ZM255.546 242.069C255.499 241.36 255.262 240.815 254.834 240.435C254.412 240.048 253.832 239.854 253.094 239.854C252.426 239.854 251.869 240.057 251.424 240.461C250.979 240.859 250.721 241.396 250.65 242.069H255.546ZM257.022 243.186H250.65V243.309C250.65 244.17 250.896 244.867 251.389 245.4C251.881 245.928 252.522 246.191 253.313 246.191C253.853 246.191 254.339 246.048 254.772 245.761C255.206 245.468 255.59 245.028 255.924 244.442L256.97 245.146C256.565 245.872 256.05 246.42 255.423 246.789C254.796 247.158 254.069 247.343 253.243 247.343C252.019 247.343 251.028 246.938 250.272 246.13C249.517 245.321 249.139 244.261 249.139 242.948C249.139 241.688 249.514 240.657 250.264 239.854C251.014 239.052 251.978 238.65 253.155 238.65C254.345 238.65 255.285 239.031 255.977 239.793C256.674 240.555 257.022 241.595 257.022 242.913V243.186ZM258.253 245.646L259.431 244.855C259.653 245.283 259.935 245.605 260.274 245.822C260.614 246.033 261.016 246.139 261.479 246.139C261.93 246.139 262.293 246.027 262.568 245.805C262.85 245.582 262.99 245.289 262.99 244.926C262.99 244.645 262.894 244.41 262.7 244.223C262.513 244.035 262.188 243.862 261.725 243.704C261.678 243.687 261.602 243.66 261.496 243.625C259.539 242.951 258.561 242.107 258.561 241.094C258.561 240.379 258.824 239.796 259.352 239.345C259.879 238.894 260.564 238.668 261.408 238.668C262.105 238.668 262.703 238.809 263.201 239.09C263.699 239.365 264.057 239.758 264.273 240.268L263.157 240.953C262.993 240.584 262.75 240.3 262.428 240.101C262.111 239.901 261.742 239.802 261.32 239.802C260.916 239.802 260.585 239.916 260.327 240.145C260.075 240.367 259.949 240.654 259.949 241.006C259.949 241.498 260.482 241.911 261.549 242.245C261.748 242.31 261.906 242.359 262.023 242.395C262.896 242.676 263.503 242.998 263.843 243.361C264.188 243.719 264.361 244.193 264.361 244.785C264.361 245.547 264.089 246.165 263.544 246.64C263.005 247.108 262.299 247.343 261.426 247.343C260.676 247.343 260.037 247.202 259.51 246.921C258.988 246.64 258.569 246.215 258.253 245.646ZM266.646 240.092H265.17V238.958H266.646V235.715H268.053V238.958H269.529V240.092H268.053V247H266.646V240.092ZM277.246 243.054C277.246 242.146 276.997 241.416 276.499 240.865C276.007 240.309 275.362 240.03 274.565 240.03C273.739 240.03 273.095 240.285 272.632 240.795C272.169 241.305 271.938 242.017 271.938 242.931C271.938 243.903 272.169 244.653 272.632 245.181C273.101 245.708 273.763 245.972 274.618 245.972C275.438 245.972 276.08 245.717 276.543 245.207C277.012 244.691 277.246 243.974 277.246 243.054ZM278.582 238.958V247H277.246V245.541C276.924 246.127 276.511 246.575 276.007 246.886C275.509 247.19 274.949 247.343 274.328 247.343C273.174 247.343 272.242 246.947 271.533 246.156C270.83 245.359 270.479 244.308 270.479 243.001C270.479 241.677 270.821 240.625 271.507 239.846C272.192 239.061 273.109 238.668 274.258 238.668C274.932 238.668 275.515 238.82 276.007 239.125C276.505 239.424 276.906 239.872 277.211 240.47V238.958H278.582ZM273.563 237.692L275.356 234.634H277.123L274.618 237.692H273.563ZM292.354 242.069C292.308 241.36 292.07 240.815 291.643 240.435C291.221 240.048 290.641 239.854 289.902 239.854C289.234 239.854 288.678 240.057 288.232 240.461C287.787 240.859 287.529 241.396 287.459 242.069H292.354ZM293.831 243.186H287.459V243.309C287.459 244.17 287.705 244.867 288.197 245.4C288.689 245.928 289.331 246.191 290.122 246.191C290.661 246.191 291.147 246.048 291.581 245.761C292.015 245.468 292.398 245.028 292.732 244.442L293.778 245.146C293.374 245.872 292.858 246.42 292.231 246.789C291.604 247.158 290.878 247.343 290.052 247.343C288.827 247.343 287.837 246.938 287.081 246.13C286.325 245.321 285.947 244.261 285.947 242.948C285.947 241.688 286.322 240.657 287.072 239.854C287.822 239.052 288.786 238.65 289.964 238.65C291.153 238.65 292.094 239.031 292.785 239.793C293.482 240.555 293.831 241.595 293.831 242.913V243.186ZM295.914 247V238.958H297.259V240.197C297.604 239.682 298.021 239.298 298.507 239.046C298.993 238.794 299.556 238.668 300.194 238.668C301.144 238.668 301.885 238.92 302.418 239.424C302.951 239.928 303.218 240.628 303.218 241.524V247H301.812V242.263C301.812 241.448 301.639 240.845 301.293 240.452C300.953 240.054 300.426 239.854 299.711 239.854C299.301 239.854 298.926 239.931 298.586 240.083C298.252 240.229 297.974 240.44 297.751 240.716C297.581 240.927 297.458 241.167 297.382 241.437C297.312 241.706 297.276 242.175 297.276 242.843V247H295.914ZM312.569 243.019C312.569 243.956 312.81 244.688 313.29 245.216C313.771 245.743 314.43 246.007 315.268 246.007C316.088 246.007 316.729 245.729 317.192 245.172C317.661 244.609 317.896 243.833 317.896 242.843C317.896 241.964 317.667 241.275 317.21 240.777C316.753 240.279 316.12 240.03 315.312 240.03C314.491 240.03 313.829 240.306 313.325 240.856C312.821 241.401 312.569 242.122 312.569 243.019ZM311.26 233.377H312.622V240.47C312.933 239.872 313.334 239.424 313.826 239.125C314.318 238.82 314.896 238.668 315.558 238.668C316.712 238.668 317.632 239.061 318.317 239.846C319.009 240.631 319.354 241.683 319.354 243.001C319.354 244.308 319.003 245.359 318.3 246.156C317.597 246.947 316.665 247.343 315.505 247.343C314.884 247.343 314.318 247.188 313.809 246.877C313.299 246.561 312.886 246.115 312.569 245.541V247H311.26V233.377ZM322.853 238.958V242.913C322.853 244.067 323.022 244.876 323.362 245.339C323.708 245.796 324.288 246.024 325.103 246.024C325.917 246.024 326.491 245.799 326.825 245.348C327.165 244.891 327.335 244.079 327.335 242.913V238.958H328.741V243.651C328.741 244.864 328.431 245.784 327.81 246.411C327.188 247.032 326.274 247.343 325.067 247.343C323.872 247.343 322.964 247.029 322.343 246.402C321.722 245.775 321.411 244.858 321.411 243.651V238.958H322.853ZM337.108 242.069C337.062 241.36 336.824 240.815 336.396 240.435C335.975 240.048 335.395 239.854 334.656 239.854C333.988 239.854 333.432 240.057 332.986 240.461C332.541 240.859 332.283 241.396 332.213 242.069H337.108ZM338.585 243.186H332.213V243.309C332.213 244.17 332.459 244.867 332.951 245.4C333.443 245.928 334.085 246.191 334.876 246.191C335.415 246.191 335.901 246.048 336.335 245.761C336.769 245.468 337.152 245.028 337.486 244.442L338.532 245.146C338.128 245.872 337.612 246.42 336.985 246.789C336.358 247.158 335.632 247.343 334.806 247.343C333.581 247.343 332.591 246.938 331.835 246.13C331.079 245.321 330.701 244.261 330.701 242.948C330.701 241.688 331.076 240.657 331.826 239.854C332.576 239.052 333.54 238.65 334.718 238.65C335.907 238.65 336.848 239.031 337.539 239.793C338.236 240.555 338.585 241.595 338.585 242.913V243.186ZM340.668 247V238.958H342.013V240.197C342.358 239.682 342.774 239.298 343.261 239.046C343.747 238.794 344.31 238.668 344.948 238.668C345.897 238.668 346.639 238.92 347.172 239.424C347.705 239.928 347.972 240.628 347.972 241.524V247H346.565V242.263C346.565 241.448 346.393 240.845 346.047 240.452C345.707 240.054 345.18 239.854 344.465 239.854C344.055 239.854 343.68 239.931 343.34 240.083C343.006 240.229 342.728 240.44 342.505 240.716C342.335 240.927 342.212 241.167 342.136 241.437C342.065 241.706 342.03 242.175 342.03 242.843V247H340.668ZM356.857 243.054C356.857 242.146 356.608 241.416 356.11 240.865C355.618 240.309 354.974 240.03 354.177 240.03C353.351 240.03 352.706 240.285 352.243 240.795C351.78 241.305 351.549 242.017 351.549 242.931C351.549 243.903 351.78 244.653 352.243 245.181C352.712 245.708 353.374 245.972 354.229 245.972C355.05 245.972 355.691 245.717 356.154 245.207C356.623 244.691 356.857 243.974 356.857 243.054ZM358.193 238.958V247H356.857V245.541C356.535 246.127 356.122 246.575 355.618 246.886C355.12 247.19 354.561 247.343 353.939 247.343C352.785 247.343 351.854 246.947 351.145 246.156C350.441 245.359 350.09 244.308 350.09 243.001C350.09 241.677 350.433 240.625 351.118 239.846C351.804 239.061 352.721 238.668 353.869 238.668C354.543 238.668 355.126 238.82 355.618 239.125C356.116 239.424 356.518 239.872 356.822 240.47V238.958H358.193ZM360.101 245.646L361.278 244.855C361.501 245.283 361.782 245.605 362.122 245.822C362.462 246.033 362.863 246.139 363.326 246.139C363.777 246.139 364.141 246.027 364.416 245.805C364.697 245.582 364.838 245.289 364.838 244.926C364.838 244.645 364.741 244.41 364.548 244.223C364.36 244.035 364.035 243.862 363.572 243.704C363.525 243.687 363.449 243.66 363.344 243.625C361.387 242.951 360.408 242.107 360.408 241.094C360.408 240.379 360.672 239.796 361.199 239.345C361.727 238.894 362.412 238.668 363.256 238.668C363.953 238.668 364.551 238.809 365.049 239.09C365.547 239.365 365.904 239.758 366.121 240.268L365.005 240.953C364.841 240.584 364.598 240.3 364.275 240.101C363.959 239.901 363.59 239.802 363.168 239.802C362.764 239.802 362.433 239.916 362.175 240.145C361.923 240.367 361.797 240.654 361.797 241.006C361.797 241.498 362.33 241.911 363.396 242.245C363.596 242.31 363.754 242.359 363.871 242.395C364.744 242.676 365.351 242.998 365.69 243.361C366.036 243.719 366.209 244.193 366.209 244.785C366.209 245.547 365.937 246.165 365.392 246.64C364.853 247.108 364.146 247.343 363.273 247.343C362.523 247.343 361.885 247.202 361.357 246.921C360.836 246.64 360.417 246.215 360.101 245.646ZM384.789 247V242.263C384.789 241.448 384.625 240.845 384.297 240.452C383.969 240.054 383.465 239.854 382.785 239.854C382.416 239.854 382.073 239.931 381.757 240.083C381.446 240.229 381.183 240.44 380.966 240.716C380.808 240.927 380.693 241.173 380.623 241.454C380.553 241.735 380.518 242.198 380.518 242.843V247H379.19V242.263C379.19 241.448 379.026 240.845 378.698 240.452C378.37 240.054 377.866 239.854 377.187 239.854C376.817 239.854 376.472 239.931 376.149 240.083C375.833 240.229 375.566 240.44 375.35 240.716C375.197 240.921 375.086 241.158 375.016 241.428C374.951 241.697 374.919 242.169 374.919 242.843V247H373.592V238.958H374.937V240.197C375.271 239.682 375.669 239.298 376.132 239.046C376.595 238.794 377.128 238.668 377.731 238.668C378.382 238.668 378.936 238.809 379.393 239.09C379.85 239.365 380.195 239.77 380.43 240.303C380.775 239.752 381.183 239.342 381.651 239.072C382.126 238.803 382.674 238.668 383.295 238.668C384.191 238.668 384.892 238.92 385.396 239.424C385.899 239.928 386.151 240.628 386.151 241.524V247H384.789ZM395.02 243.054C395.02 242.146 394.771 241.416 394.272 240.865C393.78 240.309 393.136 240.03 392.339 240.03C391.513 240.03 390.868 240.285 390.405 240.795C389.942 241.305 389.711 242.017 389.711 242.931C389.711 243.903 389.942 244.653 390.405 245.181C390.874 245.708 391.536 245.972 392.392 245.972C393.212 245.972 393.854 245.717 394.316 245.207C394.785 244.691 395.02 243.974 395.02 243.054ZM396.355 238.958V247H395.02V245.541C394.697 246.127 394.284 246.575 393.78 246.886C393.282 247.19 392.723 247.343 392.102 247.343C390.947 247.343 390.016 246.947 389.307 246.156C388.604 245.359 388.252 244.308 388.252 243.001C388.252 241.677 388.595 240.625 389.28 239.846C389.966 239.061 390.883 238.668 392.031 238.668C392.705 238.668 393.288 238.82 393.78 239.125C394.278 239.424 394.68 239.872 394.984 240.47V238.958H396.355ZM399.115 247V238.958H400.46V240.197C400.806 239.682 401.222 239.298 401.708 239.046C402.194 238.794 402.757 238.668 403.396 238.668C404.345 238.668 405.086 238.92 405.619 239.424C406.152 239.928 406.419 240.628 406.419 241.524V247H405.013V242.263C405.013 241.448 404.84 240.845 404.494 240.452C404.154 240.054 403.627 239.854 402.912 239.854C402.502 239.854 402.127 239.931 401.787 240.083C401.453 240.229 401.175 240.44 400.952 240.716C400.782 240.927 400.659 241.167 400.583 241.437C400.513 241.706 400.478 242.175 400.478 242.843V247H399.115ZM409.961 243.001C409.961 243.851 410.245 244.571 410.813 245.163C411.382 245.749 412.07 246.042 412.879 246.042C413.682 246.042 414.364 245.749 414.927 245.163C415.489 244.571 415.771 243.851 415.771 243.001C415.771 242.151 415.489 241.434 414.927 240.848C414.364 240.256 413.682 239.96 412.879 239.96C412.064 239.96 411.373 240.256 410.805 240.848C410.242 241.434 409.961 242.151 409.961 243.001ZM408.502 243.001C408.502 242.409 408.61 241.853 408.827 241.331C409.044 240.804 409.36 240.335 409.776 239.925C410.192 239.515 410.664 239.204 411.191 238.993C411.719 238.776 412.281 238.668 412.879 238.668C413.465 238.668 414.019 238.776 414.54 238.993C415.067 239.21 415.545 239.526 415.973 239.942C416.389 240.347 416.705 240.812 416.922 241.34C417.139 241.861 417.247 242.415 417.247 243.001C417.247 243.587 417.139 244.141 416.922 244.662C416.705 245.178 416.389 245.638 415.973 246.042C415.545 246.464 415.064 246.786 414.531 247.009C414.004 247.231 413.453 247.343 412.879 247.343C412.287 247.343 411.725 247.231 411.191 247.009C410.664 246.792 410.192 246.479 409.776 246.068C409.36 245.646 409.044 245.178 408.827 244.662C408.61 244.146 408.502 243.593 408.502 243.001ZM418.548 245.646L419.726 244.855C419.948 245.283 420.229 245.605 420.569 245.822C420.909 246.033 421.311 246.139 421.773 246.139C422.225 246.139 422.588 246.027 422.863 245.805C423.145 245.582 423.285 245.289 423.285 244.926C423.285 244.645 423.188 244.41 422.995 244.223C422.808 244.035 422.482 243.862 422.02 243.704C421.973 243.687 421.896 243.66 421.791 243.625C419.834 242.951 418.855 242.107 418.855 241.094C418.855 240.379 419.119 239.796 419.646 239.345C420.174 238.894 420.859 238.668 421.703 238.668C422.4 238.668 422.998 238.809 423.496 239.09C423.994 239.365 424.352 239.758 424.568 240.268L423.452 240.953C423.288 240.584 423.045 240.3 422.723 240.101C422.406 239.901 422.037 239.802 421.615 239.802C421.211 239.802 420.88 239.916 420.622 240.145C420.37 240.367 420.244 240.654 420.244 241.006C420.244 241.498 420.777 241.911 421.844 242.245C422.043 242.31 422.201 242.359 422.318 242.395C423.191 242.676 423.798 242.998 424.138 243.361C424.483 243.719 424.656 244.193 424.656 244.785C424.656 245.547 424.384 246.165 423.839 246.64C423.3 247.108 422.594 247.343 421.721 247.343C420.971 247.343 420.332 247.202 419.805 246.921C419.283 246.64 418.864 246.215 418.548 245.646Z" fill="white"/>
</svg>
