<svg width="406" height="193" viewBox="0 0 406 193" fill="none" xmlns="http://www.w3.org/2000/svg">
<path d="M58.4766 20.6172C56.9922 19.2891 55.4688 18.3203 53.9062 17.7109C52.3438 17.0859 50.6719 16.7734 48.8906 16.7734C45.2344 16.7734 42.3203 17.8672 40.1484 20.0547C37.9766 22.2422 36.8906 25.1797 36.8906 28.8672C36.8906 32.4766 37.8984 35.3438 39.9141 37.4688C41.9297 39.5781 44.6797 40.6328 48.1641 40.6328C50.1484 40.6328 51.9922 40.3047 53.6953 39.6484C55.3984 38.9766 56.9766 37.9766 58.4297 36.6484L58.3828 44.1719C56.8203 45.0938 55.1797 45.7812 53.4609 46.2344C51.7578 46.6875 49.9609 46.9141 48.0703 46.9141C42.6016 46.9141 38.1094 45.2188 34.5938 41.8281C31.0938 38.4219 29.3438 34.1016 29.3438 28.8672C29.3438 23.6484 31.1016 19.3438 34.6172 15.9531C38.1328 12.5625 42.6641 10.8672 48.2109 10.8672C50.0703 10.8672 51.8672 11.0625 53.6016 11.4531C55.3359 11.8438 57.0469 12.4453 58.7344 13.2578L58.4766 20.6172ZM83.0625 32.9453L79.2188 21.8594C79.1094 21.5312 78.9688 20.9688 78.7969 20.1719C78.625 19.375 78.4453 18.3984 78.2578 17.2422C78.0547 18.3516 77.8594 19.3516 77.6719 20.2422C77.4844 21.1172 77.3438 21.7031 77.25 22L73.5469 32.9453H83.0625ZM61.2188 46L74.2734 11.6875H82.6641L95.9062 46H87.5625L84.7734 38.7109H71.4844L69.0938 46H61.2188ZM106.898 27.1797H107.953C109.953 27.1797 111.406 26.7656 112.312 25.9375C113.219 25.1094 113.672 23.7812 113.672 21.9531C113.672 20.2656 113.219 19.0391 112.312 18.2734C111.406 17.4922 109.953 17.1016 107.953 17.1016H106.898V27.1797ZM99.5156 46V11.6875H107.953C112.453 11.6875 115.773 12.5469 117.914 14.2656C120.07 15.9844 121.148 18.6406 121.148 22.2344C121.148 25.5625 120.062 28.1719 117.891 30.0625C115.734 31.9531 112.742 32.8984 108.914 32.8984H106.898V46H99.5156ZM126.375 46V11.6875H133.711V46H126.375ZM154.383 17.9219V46H147.023V17.9219H138.633V11.6875H162.82V17.9219H154.383ZM182.719 32.9453L178.875 21.8594C178.766 21.5312 178.625 20.9688 178.453 20.1719C178.281 19.375 178.102 18.3984 177.914 17.2422C177.711 18.3516 177.516 19.3516 177.328 20.2422C177.141 21.1172 177 21.7031 176.906 22L173.203 32.9453H182.719ZM160.875 46L173.93 11.6875H182.32L195.562 46H187.219L184.43 38.7109H171.141L168.75 46H160.875ZM199.172 46V11.6875H206.508V39.7656H218.227V46H199.172ZM237.609 46V11.6875H244.945V39.7656H256.664V46H237.609ZM261.422 46V11.6875H268.758V46H261.422ZM283.945 40.2812H286.828C288.672 40.2812 290.07 39.8828 291.023 39.0859C291.977 38.2734 292.453 37.0938 292.453 35.5469C292.453 34.0938 291.977 32.9844 291.023 32.2188C290.086 31.4531 288.719 31.0703 286.922 31.0703H283.945V40.2812ZM283.945 25.3984H285.586C287.805 25.3984 289.375 25.0859 290.297 24.4609C291.219 23.8359 291.68 22.7891 291.68 21.3203C291.68 19.8828 291.234 18.8594 290.344 18.25C289.469 17.6406 287.93 17.3359 285.727 17.3359H283.945V25.3984ZM276.609 46V11.6875H283.031C286.359 11.6875 288.789 11.8203 290.32 12.0859C291.867 12.3359 293.203 12.7578 294.328 13.3516C295.656 14.1172 296.68 15.125 297.398 16.375C298.133 17.625 298.5 19.0391 298.5 20.6172C298.5 22.6484 297.898 24.2812 296.695 25.5156C295.492 26.7344 293.695 27.5469 291.305 27.9531C294.07 28.3594 296.156 29.2578 297.562 30.6484C298.984 32.0391 299.695 33.8906 299.695 36.2031C299.695 37.8906 299.289 39.4375 298.477 40.8438C297.664 42.2344 296.547 43.3125 295.125 44.0781C293.859 44.7656 292.375 45.2578 290.672 45.5547C288.969 45.8516 286.148 46 282.211 46H281.461H276.609ZM330.117 46H321.656L312.633 29.9688V46H305.297V11.6875H315.797C319.969 11.6875 323.094 12.5 325.172 14.125C327.25 15.7344 328.289 18.1641 328.289 21.4141C328.289 23.7734 327.578 25.7891 326.156 27.4609C324.734 29.1328 322.898 30.1094 320.648 30.3906L330.117 46ZM312.633 26.3125H313.734C316.703 26.3125 318.664 25.9922 319.617 25.3516C320.57 24.6953 321.047 23.5625 321.047 21.9531C321.047 20.2656 320.531 19.0703 319.5 18.3672C318.484 17.6484 316.562 17.2891 313.734 17.2891H312.633V26.3125ZM334.406 46V11.6875H354.609V17.875H341.742V24.9297H354.609V31.1641H341.742V39.7656H354.609V46H334.406ZM38.1797 87.8125H42.2578C46.1016 87.8125 48.8984 86.9375 50.6484 85.1875C52.4141 83.4375 53.2969 80.6641 53.2969 76.8672C53.2969 73.0859 52.4141 70.3203 50.6484 68.5703C48.8984 66.8047 46.1016 65.9219 42.2578 65.9219H38.1797V87.8125ZM30.8438 94V59.6875H40.1953C43.8828 59.6875 46.7891 59.9453 48.9141 60.4609C51.0391 60.9766 52.9062 61.8359 54.5156 63.0391C56.5938 64.5859 58.1641 66.5391 59.2266 68.8984C60.3047 71.2422 60.8438 73.9141 60.8438 76.9141C60.8438 79.9609 60.2969 82.6641 59.2031 85.0234C58.1094 87.3672 56.5078 89.3047 54.3984 90.8359C52.8359 91.9609 51.0938 92.7734 49.1719 93.2734C47.2656 93.7578 44.4688 94 40.7812 94H38.1797H30.8438ZM66.9844 94V59.6875H87.1875V65.875H74.3203V72.9297H87.1875V79.1641H74.3203V87.7656H87.1875V94H66.9844ZM121.992 65.9219V94H114.633V65.9219H106.242V59.6875H130.43V65.9219H121.992ZM160.008 94H151.547L142.523 77.9688V94H135.188V59.6875H145.688C149.859 59.6875 152.984 60.5 155.062 62.125C157.141 63.7344 158.18 66.1641 158.18 69.4141C158.18 71.7734 157.469 73.7891 156.047 75.4609C154.625 77.1328 152.789 78.1094 150.539 78.3906L160.008 94ZM142.523 74.3125H143.625C146.594 74.3125 148.555 73.9922 149.508 73.3516C150.461 72.6953 150.938 71.5625 150.938 69.9531C150.938 68.2656 150.422 67.0703 149.391 66.3672C148.375 65.6484 146.453 65.2891 143.625 65.2891H142.523V74.3125ZM182.062 80.9453L178.219 69.8594C178.109 69.5312 177.969 68.9688 177.797 68.1719C177.625 67.375 177.445 66.3984 177.258 65.2422C177.055 66.3516 176.859 67.3516 176.672 68.2422C176.484 69.1172 176.344 69.7031 176.25 70L172.547 80.9453H182.062ZM160.219 94L173.273 59.6875H181.664L194.906 94H186.562L183.773 86.7109H170.484L168.094 94H160.219ZM205.852 88.2812H208.734C210.578 88.2812 211.977 87.8828 212.93 87.0859C213.883 86.2734 214.359 85.0938 214.359 83.5469C214.359 82.0938 213.883 80.9844 212.93 80.2188C211.992 79.4531 210.625 79.0703 208.828 79.0703H205.852V88.2812ZM205.852 73.3984H207.492C209.711 73.3984 211.281 73.0859 212.203 72.4609C213.125 71.8359 213.586 70.7891 213.586 69.3203C213.586 67.8828 213.141 66.8594 212.25 66.25C211.375 65.6406 209.836 65.3359 207.633 65.3359H205.852V73.3984ZM198.516 94V59.6875H204.938C208.266 59.6875 210.695 59.8203 212.227 60.0859C213.773 60.3359 215.109 60.7578 216.234 61.3516C217.562 62.1172 218.586 63.125 219.305 64.375C220.039 65.625 220.406 67.0391 220.406 68.6172C220.406 70.6484 219.805 72.2812 218.602 73.5156C217.398 74.7344 215.602 75.5469 213.211 75.9531C215.977 76.3594 218.062 77.2578 219.469 78.6484C220.891 80.0391 221.602 81.8906 221.602 84.2031C221.602 85.8906 221.195 87.4375 220.383 88.8438C219.57 90.2344 218.453 91.3125 217.031 92.0781C215.766 92.7656 214.281 93.2578 212.578 93.5547C210.875 93.8516 208.055 94 204.117 94H203.367H198.516ZM244.969 80.9453L241.125 69.8594C241.016 69.5312 240.875 68.9688 240.703 68.1719C240.531 67.375 240.352 66.3984 240.164 65.2422C239.961 66.3516 239.766 67.3516 239.578 68.2422C239.391 69.1172 239.25 69.7031 239.156 70L235.453 80.9453H244.969ZM223.125 94L236.18 59.6875H244.57L257.812 94H249.469L246.68 86.7109H233.391L231 94H223.125ZM275.344 59.6875V82.2812C275.344 84.8594 275.242 86.75 275.039 87.9531C274.836 89.1562 274.5 90.1797 274.031 91.0234C273.344 92.3047 272.328 93.2734 270.984 93.9297C269.656 94.5859 268.039 94.9141 266.133 94.9141C263.727 94.9141 261.797 94.3125 260.344 93.1094C258.906 91.9062 257.984 90.1406 257.578 87.8125L262.898 85.2812C263.023 86.3594 263.297 87.1719 263.719 87.7188C264.156 88.2656 264.75 88.5391 265.5 88.5391C266.438 88.5391 267.086 88.2031 267.445 87.5312C267.805 86.8438 267.984 85.3203 267.984 82.9609V79.8906V59.6875H275.344ZM317.883 76.9141C317.883 79.3672 317.422 81.6875 316.5 83.875C315.594 86.0625 314.281 87.9844 312.562 89.6406C310.781 91.3438 308.773 92.6484 306.539 93.5547C304.305 94.4609 301.992 94.9141 299.602 94.9141C297.508 94.9141 295.453 94.5625 293.438 93.8594C291.438 93.1406 289.602 92.1172 287.93 90.7891C285.773 89.0703 284.117 87.0156 282.961 84.625C281.82 82.2344 281.25 79.6641 281.25 76.9141C281.25 74.4453 281.703 72.1328 282.609 69.9766C283.516 67.8047 284.844 65.875 286.594 64.1875C288.312 62.5156 290.305 61.2188 292.57 60.2969C294.852 59.375 297.195 58.9141 299.602 58.9141C301.992 58.9141 304.312 59.375 306.562 60.2969C308.828 61.2188 310.828 62.5156 312.562 64.1875C314.297 65.875 315.617 67.8047 316.523 69.9766C317.43 72.1484 317.883 74.4609 317.883 76.9141ZM299.602 88.375C302.711 88.375 305.273 87.2891 307.289 85.1172C309.32 82.9297 310.336 80.1953 310.336 76.9141C310.336 73.6641 309.312 70.9297 307.266 68.7109C305.219 66.4922 302.664 65.3828 299.602 65.3828C296.492 65.3828 293.914 66.4922 291.867 68.7109C289.82 70.9141 288.797 73.6484 288.797 76.9141C288.797 80.2266 289.805 82.9688 291.82 85.1406C293.836 87.2969 296.43 88.375 299.602 88.375Z" fill="white"/>
<path d="M26 151H14C9.58172 151 6 147.418 6 143V14" stroke="white" stroke-width="1.5"/>
<path d="M12.622 7.0784C12.622 10.6144 9.92461 13.4068 6.68598 13.4068C3.44736 13.4068 0.75 10.6144 0.75 7.0784C0.75 3.54244 3.44736 0.75 6.68598 0.75C9.92461 0.75 12.622 3.54244 12.622 7.0784Z" stroke="white" stroke-width="1.5"/>
<rect x="24" y="129" width="382" height="64" rx="16" fill="#002A61"/>
<path d="M50.144 156.416H45.95V158.684H49.91V161.672H45.95V164.012H50.144V167H42.422V153.428H50.144V156.416ZM55.6396 152.06V167H52.3816V152.06H55.6396ZM64.2532 157.766V156.056C64.2532 155.456 64.3792 154.892 64.6312 154.364C64.8952 153.824 65.2432 153.356 65.6752 152.96C66.1192 152.564 66.6292 152.252 67.2052 152.024C67.7932 151.784 68.4112 151.664 69.0592 151.664C69.7072 151.664 70.3192 151.778 70.8952 152.006C71.4832 152.234 71.9932 152.546 72.4252 152.942C72.8692 153.338 73.2172 153.806 73.4692 154.346C73.7332 154.874 73.8652 155.444 73.8652 156.056V156.47H70.6072V156.056C70.6072 155.84 70.5652 155.636 70.4812 155.444C70.4092 155.24 70.3012 155.06 70.1572 154.904C70.0252 154.748 69.8632 154.622 69.6712 154.526C69.4912 154.43 69.2872 154.382 69.0592 154.382C68.6152 154.382 68.2432 154.55 67.9432 154.886C67.6552 155.222 67.5112 155.612 67.5112 156.056V157.766H69.3832V160.484H67.5112V167H64.2532V160.484H63.0832V157.766H64.2532ZM73.8652 167H70.6072V157.766H73.8652V167ZM76.0945 157.766H79.3525V158.936C79.7965 158.396 80.2465 158.036 80.7025 157.856C81.1585 157.664 81.6925 157.568 82.3045 157.568C82.9525 157.568 83.5045 157.676 83.9605 157.892C84.4285 158.096 84.8245 158.39 85.1485 158.774C85.4125 159.086 85.5925 159.434 85.6885 159.818C85.7845 160.202 85.8325 160.64 85.8325 161.132V167H82.5745V162.338C82.5745 161.882 82.5385 161.516 82.4665 161.24C82.4065 160.952 82.2925 160.724 82.1245 160.556C81.9805 160.412 81.8185 160.31 81.6385 160.25C81.4585 160.19 81.2665 160.16 81.0625 160.16C80.5105 160.16 80.0845 160.328 79.7845 160.664C79.4965 160.988 79.3525 161.456 79.3525 162.068V167H76.0945V157.766ZM91.0716 162.356C91.0716 162.656 91.1256 162.938 91.2336 163.202C91.3416 163.454 91.4856 163.676 91.6656 163.868C91.8576 164.06 92.0796 164.21 92.3316 164.318C92.5956 164.426 92.8776 164.48 93.1776 164.48C93.4656 164.48 93.7356 164.426 93.9876 164.318C94.2516 164.21 94.4736 164.06 94.6536 163.868C94.8456 163.676 94.9956 163.454 95.1036 163.202C95.2236 162.95 95.2836 162.68 95.2836 162.392C95.2836 162.104 95.2236 161.834 95.1036 161.582C94.9956 161.318 94.8456 161.09 94.6536 160.898C94.4736 160.706 94.2516 160.556 93.9876 160.448C93.7356 160.34 93.4656 160.286 93.1776 160.286C92.8776 160.286 92.5956 160.34 92.3316 160.448C92.0796 160.556 91.8576 160.706 91.6656 160.898C91.4856 161.09 91.3416 161.312 91.2336 161.564C91.1256 161.804 91.0716 162.068 91.0716 162.356ZM95.1756 157.766H98.4516V167H95.1756V165.974C94.4796 166.85 93.5376 167.288 92.3496 167.288C91.6776 167.288 91.0596 167.168 90.4956 166.928C89.9316 166.676 89.4396 166.328 89.0196 165.884C88.5996 165.44 88.2696 164.918 88.0296 164.318C87.8016 163.718 87.6876 163.064 87.6876 162.356C87.6876 161.696 87.8016 161.072 88.0296 160.484C88.2576 159.884 88.5756 159.362 88.9836 158.918C89.3916 158.474 89.8776 158.126 90.4416 157.874C91.0056 157.61 91.6296 157.478 92.3136 157.478C93.4656 157.478 94.4196 157.88 95.1756 158.684V157.766ZM100.669 157.766H103.927V158.936C104.371 158.396 104.821 158.036 105.277 157.856C105.733 157.664 106.267 157.568 106.879 157.568C107.527 157.568 108.079 157.676 108.535 157.892C109.003 158.096 109.399 158.39 109.723 158.774C109.987 159.086 110.167 159.434 110.263 159.818C110.359 160.202 110.407 160.64 110.407 161.132V167H107.149V162.338C107.149 161.882 107.113 161.516 107.041 161.24C106.981 160.952 106.867 160.724 106.699 160.556C106.555 160.412 106.393 160.31 106.213 160.25C106.033 160.19 105.841 160.16 105.637 160.16C105.085 160.16 104.659 160.328 104.359 160.664C104.071 160.988 103.927 161.456 103.927 162.068V167H100.669V157.766ZM119.588 160.754C119.024 160.37 118.454 160.178 117.878 160.178C117.566 160.178 117.272 160.232 116.996 160.34C116.732 160.448 116.498 160.604 116.294 160.808C116.09 161 115.928 161.234 115.808 161.51C115.7 161.774 115.646 162.074 115.646 162.41C115.646 162.734 115.7 163.034 115.808 163.31C115.928 163.574 116.084 163.808 116.276 164.012C116.48 164.204 116.72 164.354 116.996 164.462C117.272 164.57 117.566 164.624 117.878 164.624C118.49 164.624 119.06 164.414 119.588 163.994V166.766C118.784 167.114 118.022 167.288 117.302 167.288C116.63 167.288 115.988 167.174 115.376 166.946C114.776 166.718 114.242 166.394 113.774 165.974C113.318 165.542 112.952 165.032 112.676 164.444C112.4 163.844 112.262 163.178 112.262 162.446C112.262 161.714 112.394 161.048 112.658 160.448C112.922 159.836 113.282 159.314 113.738 158.882C114.194 158.438 114.734 158.096 115.358 157.856C115.994 157.604 116.672 157.478 117.392 157.478C118.184 157.478 118.916 157.646 119.588 157.982V160.754ZM124.704 157.766V167H121.446V157.766H124.704ZM121.23 154.22C121.23 153.968 121.278 153.734 121.374 153.518C121.47 153.29 121.602 153.092 121.77 152.924C121.938 152.756 122.13 152.624 122.346 152.528C122.574 152.432 122.814 152.384 123.066 152.384C123.318 152.384 123.552 152.432 123.768 152.528C123.996 152.624 124.194 152.756 124.362 152.924C124.53 153.092 124.662 153.29 124.758 153.518C124.854 153.734 124.902 153.968 124.902 154.22C124.902 154.472 124.854 154.712 124.758 154.94C124.662 155.156 124.53 155.348 124.362 155.516C124.194 155.684 123.996 155.816 123.768 155.912C123.552 156.008 123.318 156.056 123.066 156.056C122.814 156.056 122.574 156.008 122.346 155.912C122.13 155.816 121.938 155.684 121.77 155.516C121.602 155.348 121.47 155.156 121.374 154.94C121.278 154.712 121.23 154.472 121.23 154.22ZM129.954 162.356C129.954 162.656 130.008 162.938 130.116 163.202C130.224 163.454 130.368 163.676 130.548 163.868C130.74 164.06 130.962 164.21 131.214 164.318C131.478 164.426 131.76 164.48 132.06 164.48C132.348 164.48 132.618 164.426 132.87 164.318C133.134 164.21 133.356 164.06 133.536 163.868C133.728 163.676 133.878 163.454 133.986 163.202C134.106 162.95 134.166 162.68 134.166 162.392C134.166 162.104 134.106 161.834 133.986 161.582C133.878 161.318 133.728 161.09 133.536 160.898C133.356 160.706 133.134 160.556 132.87 160.448C132.618 160.34 132.348 160.286 132.06 160.286C131.76 160.286 131.478 160.34 131.214 160.448C130.962 160.556 130.74 160.706 130.548 160.898C130.368 161.09 130.224 161.312 130.116 161.564C130.008 161.804 129.954 162.068 129.954 162.356ZM134.058 157.766H137.334V167H134.058V165.974C133.362 166.85 132.42 167.288 131.232 167.288C130.56 167.288 129.942 167.168 129.378 166.928C128.814 166.676 128.322 166.328 127.902 165.884C127.482 165.44 127.152 164.918 126.912 164.318C126.684 163.718 126.57 163.064 126.57 162.356C126.57 161.696 126.684 161.072 126.912 160.484C127.14 159.884 127.458 159.362 127.866 158.918C128.274 158.474 128.76 158.126 129.324 157.874C129.888 157.61 130.512 157.478 131.196 157.478C132.348 157.478 133.302 157.88 134.058 158.684V157.766ZM139.552 157.766H142.81V158.9C143.698 158.048 144.694 157.622 145.798 157.622C147.166 157.622 148.21 158.198 148.93 159.35C149.662 158.186 150.706 157.604 152.062 157.604C152.494 157.604 152.902 157.67 153.286 157.802C153.67 157.922 154 158.12 154.276 158.396C154.552 158.66 154.768 159.008 154.924 159.44C155.092 159.872 155.176 160.394 155.176 161.006V167H151.918V162.446C151.918 161.978 151.882 161.594 151.81 161.294C151.75 160.994 151.654 160.76 151.522 160.592C151.402 160.424 151.258 160.31 151.09 160.25C150.922 160.19 150.742 160.16 150.55 160.16C149.506 160.16 148.984 160.922 148.984 162.446V167H145.726V162.446C145.726 161.978 145.696 161.594 145.636 161.294C145.576 160.982 145.486 160.736 145.366 160.556C145.258 160.376 145.114 160.256 144.934 160.196C144.754 160.124 144.544 160.088 144.304 160.088C144.1 160.088 143.908 160.118 143.728 160.178C143.548 160.238 143.386 160.358 143.242 160.538C143.11 160.706 143.002 160.946 142.918 161.258C142.846 161.558 142.81 161.954 142.81 162.446V167H139.552V157.766ZM160.669 157.766V167H157.411V157.766H160.669ZM157.195 154.22C157.195 153.968 157.243 153.734 157.339 153.518C157.435 153.29 157.567 153.092 157.735 152.924C157.903 152.756 158.095 152.624 158.311 152.528C158.539 152.432 158.779 152.384 159.031 152.384C159.283 152.384 159.517 152.432 159.733 152.528C159.961 152.624 160.159 152.756 160.327 152.924C160.495 153.092 160.627 153.29 160.723 153.518C160.819 153.734 160.867 153.968 160.867 154.22C160.867 154.472 160.819 154.712 160.723 154.94C160.627 155.156 160.495 155.348 160.327 155.516C160.159 155.684 159.961 155.816 159.733 155.912C159.517 156.008 159.283 156.056 159.031 156.056C158.779 156.056 158.539 156.008 158.311 155.912C158.095 155.816 157.903 155.684 157.735 155.516C157.567 155.348 157.435 155.156 157.339 154.94C157.243 154.712 157.195 154.472 157.195 154.22ZM169.645 161.042C169.537 160.586 169.315 160.22 168.979 159.944C168.643 159.668 168.235 159.53 167.755 159.53C167.251 159.53 166.837 159.662 166.513 159.926C166.201 160.19 166.003 160.562 165.919 161.042H169.645ZM165.829 162.932C165.829 164.336 166.489 165.038 167.809 165.038C168.517 165.038 169.051 164.75 169.411 164.174H172.561C171.925 166.286 170.335 167.342 167.791 167.342C167.011 167.342 166.297 167.228 165.649 167C165.001 166.76 164.443 166.424 163.975 165.992C163.519 165.56 163.165 165.044 162.913 164.444C162.661 163.844 162.535 163.172 162.535 162.428C162.535 161.66 162.655 160.97 162.895 160.358C163.135 159.734 163.477 159.206 163.921 158.774C164.365 158.342 164.899 158.012 165.523 157.784C166.159 157.544 166.873 157.424 167.665 157.424C168.445 157.424 169.147 157.544 169.771 157.784C170.395 158.012 170.923 158.348 171.355 158.792C171.787 159.236 172.117 159.782 172.345 160.43C172.573 161.066 172.687 161.786 172.687 162.59V162.932H165.829ZM174.55 157.766H177.808V158.936C178.252 158.396 178.702 158.036 179.158 157.856C179.614 157.664 180.148 157.568 180.76 157.568C181.408 157.568 181.96 157.676 182.416 157.892C182.884 158.096 183.28 158.39 183.604 158.774C183.868 159.086 184.048 159.434 184.144 159.818C184.24 160.202 184.288 160.64 184.288 161.132V167H181.03V162.338C181.03 161.882 180.994 161.516 180.922 161.24C180.862 160.952 180.748 160.724 180.58 160.556C180.436 160.412 180.274 160.31 180.094 160.25C179.914 160.19 179.722 160.16 179.518 160.16C178.966 160.16 178.54 160.328 178.24 160.664C177.952 160.988 177.808 161.456 177.808 162.068V167H174.55V157.766ZM190.139 160.484V167H186.881V160.484H185.801V157.766H186.881V154.994H190.139V157.766H191.993V160.484H190.139ZM196.454 162.338C196.454 162.65 196.508 162.938 196.616 163.202C196.736 163.454 196.886 163.676 197.066 163.868C197.258 164.06 197.48 164.21 197.732 164.318C197.996 164.426 198.272 164.48 198.56 164.48C198.848 164.48 199.118 164.426 199.37 164.318C199.634 164.21 199.856 164.06 200.036 163.868C200.228 163.676 200.378 163.454 200.486 163.202C200.606 162.938 200.666 162.656 200.666 162.356C200.666 162.068 200.606 161.798 200.486 161.546C200.378 161.282 200.228 161.054 200.036 160.862C199.856 160.67 199.634 160.52 199.37 160.412C199.118 160.304 198.848 160.25 198.56 160.25C198.272 160.25 197.996 160.304 197.732 160.412C197.48 160.52 197.258 160.67 197.066 160.862C196.886 161.054 196.736 161.276 196.616 161.528C196.508 161.78 196.454 162.05 196.454 162.338ZM193.016 162.302C193.016 161.618 193.154 160.982 193.43 160.394C193.706 159.794 194.09 159.278 194.582 158.846C195.074 158.402 195.656 158.054 196.328 157.802C197.012 157.55 197.756 157.424 198.56 157.424C199.352 157.424 200.084 157.55 200.756 157.802C201.44 158.042 202.028 158.384 202.52 158.828C203.024 159.26 203.414 159.782 203.69 160.394C203.966 160.994 204.104 161.66 204.104 162.392C204.104 163.124 203.96 163.796 203.672 164.408C203.396 165.008 203.012 165.53 202.52 165.974C202.028 166.406 201.434 166.742 200.738 166.982C200.054 167.222 199.31 167.342 198.506 167.342C197.714 167.342 196.982 167.222 196.31 166.982C195.638 166.742 195.056 166.4 194.564 165.956C194.084 165.512 193.706 164.984 193.43 164.372C193.154 163.748 193.016 163.058 193.016 162.302ZM215.278 159.638C217.06 159.638 218.122 161.006 218.122 162.698C218.122 164.408 217.15 165.902 215.296 165.902C213.496 165.902 212.524 164.336 212.524 162.68C212.524 161.096 213.604 159.638 215.278 159.638ZM219.49 158.54H218.05V159.746H218.014C217.312 158.81 216.25 158.306 215.098 158.306C212.596 158.306 211.048 160.448 211.048 162.806C211.048 165.2 212.578 167.234 215.116 167.234C216.25 167.234 217.33 166.73 218.014 165.812H218.05V171.752H219.49V158.54ZM223.489 158.54H222.049V163.418C222.049 165.668 222.895 167.234 225.397 167.234C227.899 167.234 228.745 165.668 228.745 163.418V158.54H227.305V163.256C227.305 164.678 227.143 165.902 225.397 165.902C223.651 165.902 223.489 164.678 223.489 163.256V158.54ZM238.73 163.076C238.874 160.556 237.434 158.306 234.716 158.306C232.07 158.306 230.612 160.376 230.612 162.878C230.612 165.308 232.232 167.234 234.752 167.234C236.48 167.234 237.848 166.37 238.658 164.858L237.434 164.156C236.876 165.164 236.084 165.902 234.86 165.902C233.222 165.902 232.106 164.642 232.088 163.076H238.73ZM232.16 161.852C232.34 160.628 233.492 159.638 234.734 159.638C235.994 159.638 237.02 160.628 237.218 161.852H232.16ZM253.601 163.076C253.745 160.556 252.305 158.306 249.587 158.306C246.941 158.306 245.483 160.376 245.483 162.878C245.483 165.308 247.103 167.234 249.623 167.234C251.351 167.234 252.719 166.37 253.529 164.858L252.305 164.156C251.747 165.164 250.955 165.902 249.731 165.902C248.093 165.902 246.977 164.642 246.959 163.076H253.601ZM247.031 161.852C247.211 160.628 248.363 159.638 249.605 159.638C250.865 159.638 251.891 160.628 252.089 161.852H247.031ZM260.199 159.872C259.821 158.99 258.921 158.306 257.949 158.306C256.581 158.306 255.429 159.278 255.429 160.7C255.429 163.364 259.245 162.716 259.245 164.606C259.245 165.38 258.651 165.902 257.877 165.902C256.923 165.902 256.509 165.344 256.149 164.552L254.871 165.092C255.321 166.424 256.437 167.234 257.859 167.234C259.425 167.234 260.721 166.082 260.721 164.48C260.721 163.058 259.749 162.464 258.759 162.05C257.769 161.636 256.797 161.348 256.797 160.574C256.797 160.034 257.337 159.638 257.841 159.638C258.363 159.638 258.795 160.052 258.993 160.502L260.199 159.872ZM264.275 159.872H265.787V158.54H264.275V155.498H262.835V158.54H261.953V159.872H262.835V167H264.275V159.872ZM270.597 159.638C272.379 159.638 273.441 161.006 273.441 162.698C273.441 164.408 272.469 165.902 270.615 165.902C268.815 165.902 267.843 164.336 267.843 162.68C267.843 161.096 268.923 159.638 270.597 159.638ZM274.809 158.54H273.369V159.746H273.333C272.631 158.846 271.587 158.306 270.435 158.306C267.897 158.306 266.367 160.376 266.367 162.788C266.367 165.128 267.933 167.234 270.417 167.234C271.605 167.234 272.595 166.766 273.333 165.83H273.369V167H274.809V158.54ZM281.525 159.638C283.307 159.638 284.369 161.006 284.369 162.698C284.369 164.408 283.397 165.902 281.543 165.902C279.743 165.902 278.771 164.336 278.771 162.68C278.771 161.096 279.851 159.638 281.525 159.638ZM277.403 167H278.843V165.83H278.879C279.563 166.748 280.625 167.234 281.795 167.234C284.279 167.234 285.845 165.128 285.845 162.77C285.845 160.376 284.297 158.306 281.777 158.306C280.625 158.306 279.563 158.846 278.879 159.746H278.843V152.15H277.403V167ZM291.374 159.638C293.156 159.638 294.218 161.006 294.218 162.698C294.218 164.408 293.246 165.902 291.392 165.902C289.592 165.902 288.62 164.336 288.62 162.68C288.62 161.096 289.7 159.638 291.374 159.638ZM295.586 158.54H294.146V159.746H294.11C293.408 158.846 292.364 158.306 291.212 158.306C288.674 158.306 287.144 160.376 287.144 162.788C287.144 165.128 288.71 167.234 291.194 167.234C292.382 167.234 293.372 166.766 294.11 165.83H294.146V167H295.586V158.54ZM302.879 159.872C302.501 158.99 301.601 158.306 300.629 158.306C299.261 158.306 298.109 159.278 298.109 160.7C298.109 163.364 301.925 162.716 301.925 164.606C301.925 165.38 301.331 165.902 300.557 165.902C299.603 165.902 299.189 165.344 298.829 164.552L297.551 165.092C298.001 166.424 299.117 167.234 300.539 167.234C302.105 167.234 303.401 166.082 303.401 164.48C303.401 163.058 302.429 162.464 301.439 162.05C300.449 161.636 299.477 161.348 299.477 160.574C299.477 160.034 300.017 159.638 300.521 159.638C301.043 159.638 301.475 160.052 301.673 160.502L302.879 159.872ZM315.029 159.638C316.811 159.638 317.873 161.006 317.873 162.698C317.873 164.408 316.901 165.902 315.047 165.902C313.247 165.902 312.275 164.336 312.275 162.68C312.275 161.096 313.355 159.638 315.029 159.638ZM310.907 167H312.347V165.83H312.383C313.067 166.748 314.129 167.234 315.299 167.234C317.783 167.234 319.349 165.128 319.349 162.77C319.349 160.376 317.801 158.306 315.281 158.306C314.129 158.306 313.067 158.846 312.383 159.746H312.347V152.15H310.907V167ZM322.7 158.54H321.26V163.418C321.26 165.668 322.106 167.234 324.608 167.234C327.11 167.234 327.956 165.668 327.956 163.418V158.54H326.516V163.256C326.516 164.678 326.354 165.902 324.608 165.902C322.862 165.902 322.7 164.678 322.7 163.256V158.54ZM335.205 159.872C334.827 158.99 333.927 158.306 332.955 158.306C331.587 158.306 330.435 159.278 330.435 160.7C330.435 163.364 334.251 162.716 334.251 164.606C334.251 165.38 333.657 165.902 332.883 165.902C331.929 165.902 331.515 165.344 331.155 164.552L329.877 165.092C330.327 166.424 331.443 167.234 332.865 167.234C334.431 167.234 335.727 166.082 335.727 164.48C335.727 163.058 334.755 162.464 333.765 162.05C332.775 161.636 331.803 161.348 331.803 160.574C331.803 160.034 332.343 159.638 332.847 159.638C333.369 159.638 333.801 160.052 333.999 160.502L335.205 159.872ZM344.05 159.152C343.294 158.612 342.358 158.306 341.44 158.306C338.956 158.306 336.922 160.25 336.922 162.77C336.922 165.326 338.866 167.234 341.422 167.234C342.43 167.234 343.276 166.928 344.104 166.37V164.444H344.068C343.366 165.362 342.52 165.902 341.314 165.902C339.55 165.902 338.398 164.444 338.398 162.77C338.398 161.078 339.64 159.638 341.386 159.638C342.52 159.638 343.348 160.214 344.014 161.06H344.05V159.152ZM349.839 159.638C351.621 159.638 352.683 161.006 352.683 162.698C352.683 164.408 351.711 165.902 349.857 165.902C348.057 165.902 347.085 164.336 347.085 162.68C347.085 161.096 348.165 159.638 349.839 159.638ZM354.051 158.54H352.611V159.746H352.575C351.873 158.846 350.829 158.306 349.677 158.306C347.139 158.306 345.609 160.376 345.609 162.788C345.609 165.128 347.175 167.234 349.659 167.234C350.847 167.234 351.837 166.766 352.575 165.83H352.611V167H354.051V158.54ZM358.158 158.54H356.718V167H358.158V162.986C358.158 161.474 358.284 159.638 360.264 159.638C361.938 159.638 362.046 160.862 362.046 162.23V167H363.486V161.978C363.486 159.998 362.946 158.306 360.606 158.306C359.562 158.306 358.788 158.756 358.194 159.566H358.158V158.54ZM369.737 159.638C371.519 159.638 372.581 161.006 372.581 162.698C372.581 164.408 371.609 165.902 369.755 165.902C367.955 165.902 366.983 164.336 366.983 162.68C366.983 161.096 368.063 159.638 369.737 159.638ZM372.509 167H373.949V152.15H372.509V159.746H372.473C371.789 158.846 370.709 158.306 369.575 158.306C367.037 158.306 365.507 160.376 365.507 162.788C365.507 165.128 367.073 167.234 369.557 167.234C370.709 167.234 371.771 166.748 372.473 165.83H372.509V167ZM380.306 167.234C382.772 167.234 384.752 165.272 384.752 162.788C384.752 160.304 382.79 158.306 380.306 158.306C377.822 158.306 375.86 160.304 375.86 162.788C375.86 165.272 377.84 167.234 380.306 167.234ZM380.306 159.638C382.088 159.638 383.312 161.06 383.312 162.77C383.312 164.498 382.088 165.902 380.306 165.902C378.524 165.902 377.3 164.498 377.3 162.77C377.3 161.06 378.524 159.638 380.306 159.638Z" fill="white"/>
</svg>
