<svg width="550" height="224" viewBox="0 0 550 224" fill="none" xmlns="http://www.w3.org/2000/svg">
<path d="M26.744 183H14.686C10.2678 183 6.68604 179.418 6.68604 175V14" stroke="white" stroke-width="1.5"/>
<path d="M12.622 7.0784C12.622 10.6144 9.92461 13.4068 6.68598 13.4068C3.44736 13.4068 0.75 10.6144 0.75 7.0784C0.75 3.54244 3.44736 0.75 6.68598 0.75C9.92461 0.75 12.622 3.54244 12.622 7.0784Z" stroke="white" stroke-width="1.5"/>
<rect x="25" y="161" width="255" height="63" rx="16" fill="#002A61"/>
<path d="M65.6963 186.634V190.466C65.1924 189.921 64.7178 189.525 64.2725 189.279C63.7744 189.039 63.2588 188.919 62.7256 188.919C61.7236 188.919 60.9062 189.262 60.2734 189.947C60.0566 190.193 59.8809 190.451 59.7461 190.721C59.6113 190.984 59.5088 191.286 59.4385 191.626C59.374 191.96 59.3418 192.3 59.3418 192.646C59.3418 193.677 59.6582 194.535 60.291 195.221C60.9297 195.895 61.7412 196.231 62.7256 196.231C63.2529 196.231 63.7686 196.105 64.2725 195.854C64.7178 195.625 65.1924 195.232 65.6963 194.676V198.517C65.0459 198.821 64.4922 199.023 64.0352 199.123C63.4668 199.258 62.9102 199.325 62.3652 199.325C61.6738 199.325 61.0234 199.24 60.4141 199.07C59.8047 198.906 59.2598 198.654 58.7793 198.314C57.8184 197.658 57.0859 196.85 56.582 195.889C56.0781 194.893 55.8262 193.788 55.8262 192.575C55.8262 191.603 55.9902 190.709 56.3184 189.895C56.4648 189.502 56.6494 189.133 56.8721 188.787C57.1006 188.436 57.3936 188.072 57.751 187.697C58.3662 187.064 59.0576 186.596 59.8252 186.291C60.5869 185.98 61.4336 185.825 62.3652 185.825C62.8984 185.825 63.4551 185.89 64.0352 186.019C64.6094 186.171 65.1631 186.376 65.6963 186.634ZM73.7559 194.588C73.7559 193.926 73.5889 193.404 73.2549 193.023C72.9092 192.643 72.458 192.452 71.9014 192.452C71.3271 192.452 70.876 192.643 70.5479 193.023C70.2139 193.393 70.0469 193.914 70.0469 194.588C70.0469 195.244 70.208 195.76 70.5303 196.135C70.8818 196.521 71.3389 196.715 71.9014 196.715C72.4639 196.715 72.9209 196.521 73.2725 196.135C73.5947 195.748 73.7559 195.232 73.7559 194.588ZM76.8672 194.588C76.8672 195.238 76.7412 195.845 76.4893 196.407C76.2256 197.005 75.8652 197.521 75.4082 197.954C74.8926 198.435 74.3594 198.783 73.8086 199C73.2344 199.229 72.5986 199.343 71.9014 199.343C71.1982 199.343 70.5625 199.229 69.9941 199C69.4141 198.771 68.8779 198.426 68.3857 197.963C67.8994 197.494 67.5479 196.976 67.3311 196.407C67.0791 195.862 66.9531 195.256 66.9531 194.588C66.9531 193.938 67.0791 193.325 67.3311 192.751C67.5654 192.171 67.9199 191.655 68.3945 191.204C68.8574 190.759 69.3906 190.416 69.9941 190.176C70.5684 189.953 71.2041 189.842 71.9014 189.842C72.5928 189.842 73.2285 189.953 73.8086 190.176C74.4121 190.416 74.9453 190.759 75.4082 191.204C75.8945 191.644 76.2549 192.159 76.4893 192.751C76.7412 193.325 76.8672 193.938 76.8672 194.588ZM78.6689 199V190.123H81.5342V191.925C81.9385 191.222 82.4189 190.694 82.9756 190.343C83.5146 190.009 84.168 189.842 84.9355 189.842C85.5156 189.842 86.0312 189.93 86.4824 190.105C86.9277 190.305 87.2881 190.574 87.5635 190.914C87.8154 191.254 87.9824 191.614 88.0645 191.995C88.1641 192.481 88.2139 193.123 88.2139 193.92V199H85.0762V194.245C85.0762 193.524 84.9619 193.009 84.7334 192.698C84.5049 192.376 84.1328 192.215 83.6172 192.215C82.9727 192.215 82.498 192.455 82.1934 192.936C81.8945 193.416 81.7451 194.195 81.7451 195.273V199H78.6689ZM89.6025 198.262L90.2529 195.871C90.71 196.275 91.2139 196.58 91.7646 196.785C92.3096 197.002 92.8604 197.11 93.417 197.11C93.8154 197.11 94.1143 197.043 94.3135 196.908C94.5186 196.785 94.6211 196.606 94.6211 196.372C94.6211 195.979 94.208 195.687 93.3818 195.493C93.0947 195.429 92.8779 195.373 92.7314 195.326C91.7764 195.045 91.0996 194.702 90.7012 194.298C90.2676 193.882 90.0508 193.343 90.0508 192.681C90.0508 191.825 90.376 191.137 91.0264 190.615C91.6533 190.1 92.5293 189.842 93.6543 189.842C94.1992 189.842 94.7793 189.906 95.3945 190.035C95.9102 190.141 96.5107 190.346 97.1963 190.65L96.5459 192.804C96.124 192.517 95.6992 192.303 95.2715 192.162C94.8672 192.016 94.4424 191.942 93.9971 191.942C93.6338 191.942 93.3613 191.998 93.1797 192.109C93.0039 192.215 92.916 192.376 92.916 192.593C92.916 192.897 93.3291 193.161 94.1553 193.384C94.4248 193.466 94.5625 193.507 94.5684 193.507C95.6465 193.812 96.4023 194.172 96.8359 194.588C97.2578 195.027 97.4688 195.599 97.4688 196.302C97.4688 197.21 97.1201 197.942 96.4229 198.499C95.708 199.062 94.7852 199.343 93.6543 199.343C92.8691 199.343 92.1455 199.252 91.4834 199.07C90.8271 198.895 90.2002 198.625 89.6025 198.262ZM99.6484 199L99.6309 192.338H98.3037V190.123H99.6309V187.478H102.733V190.123H104.043V192.338H102.733V199H99.6484ZM105.528 199V190.123H108.481V192.215C108.792 191.447 109.205 190.876 109.721 190.501C110.254 190.12 110.896 189.93 111.646 189.93C111.815 189.93 111.941 189.936 112.023 189.947C112.088 189.953 112.146 189.959 112.199 189.965C112.252 189.965 112.319 189.971 112.401 189.982L112.103 192.83C111.886 192.76 111.698 192.71 111.54 192.681C111.306 192.657 111.133 192.646 111.021 192.646C110.26 192.646 109.671 192.88 109.255 193.349C108.845 193.812 108.64 194.471 108.64 195.326V199H105.528ZM122.667 190.123V194.658C122.667 195.672 122.591 196.41 122.438 196.873C122.274 197.354 121.999 197.787 121.612 198.174C121.243 198.561 120.757 198.854 120.153 199.053C119.579 199.246 118.888 199.343 118.079 199.343C117.276 199.343 116.594 199.246 116.031 199.053C115.451 198.865 114.953 198.572 114.537 198.174C114.156 197.811 113.887 197.383 113.729 196.891C113.57 196.434 113.491 195.689 113.491 194.658V190.123H116.479V194.86C116.479 195.604 116.605 196.138 116.857 196.46C117.086 196.8 117.481 196.97 118.044 196.97C118.601 196.97 118.999 196.806 119.239 196.478C119.485 196.149 119.608 195.61 119.608 194.86V190.123H122.667ZM124.847 199V190.123H127.976V199H124.847ZM125.242 187.838H125.26C125.26 187.51 125.374 187.24 125.603 187.029C125.831 186.801 126.106 186.687 126.429 186.687C126.769 186.687 127.047 186.795 127.264 187.012C127.486 187.229 127.598 187.504 127.598 187.838C127.598 188.178 127.483 188.459 127.255 188.682C127.032 188.91 126.757 189.024 126.429 189.024C126.095 189.024 125.813 188.904 125.585 188.664C125.356 188.441 125.242 188.166 125.242 187.838ZM142.275 199V194.157C142.275 193.396 142.188 192.868 142.012 192.575C141.812 192.276 141.481 192.127 141.019 192.127C140.427 192.127 140.02 192.329 139.797 192.733C139.568 193.132 139.454 193.967 139.454 195.238V199H136.431V194.157C136.431 193.366 136.334 192.833 136.141 192.558C135.965 192.271 135.64 192.127 135.165 192.127C134.573 192.127 134.16 192.323 133.926 192.716C133.697 193.114 133.583 193.955 133.583 195.238V199H130.542V190.123H133.618V191.67C133.993 191.049 134.421 190.589 134.901 190.29C135.37 189.991 135.938 189.842 136.606 189.842C137.327 189.842 137.922 189.979 138.391 190.255C138.836 190.536 139.161 190.955 139.366 191.512C139.724 190.932 140.148 190.513 140.641 190.255C141.127 189.979 141.71 189.842 142.39 189.842C142.923 189.842 143.389 189.93 143.787 190.105C144.197 190.299 144.534 190.568 144.798 190.914C145.021 191.189 145.176 191.515 145.264 191.89C145.352 192.235 145.396 192.848 145.396 193.727V193.92V199H142.275ZM153.912 194.588C153.912 193.926 153.745 193.404 153.411 193.023C153.065 192.643 152.614 192.452 152.058 192.452C151.483 192.452 151.032 192.643 150.704 193.023C150.37 193.393 150.203 193.914 150.203 194.588C150.203 195.244 150.364 195.76 150.687 196.135C151.038 196.521 151.495 196.715 152.058 196.715C152.62 196.715 153.077 196.521 153.429 196.135C153.751 195.748 153.912 195.232 153.912 194.588ZM157.023 194.588C157.023 195.238 156.897 195.845 156.646 196.407C156.382 197.005 156.021 197.521 155.564 197.954C155.049 198.435 154.516 198.783 153.965 199C153.391 199.229 152.755 199.343 152.058 199.343C151.354 199.343 150.719 199.229 150.15 199C149.57 198.771 149.034 198.426 148.542 197.963C148.056 197.494 147.704 196.976 147.487 196.407C147.235 195.862 147.109 195.256 147.109 194.588C147.109 193.938 147.235 193.325 147.487 192.751C147.722 192.171 148.076 191.655 148.551 191.204C149.014 190.759 149.547 190.416 150.15 190.176C150.725 189.953 151.36 189.842 152.058 189.842C152.749 189.842 153.385 189.953 153.965 190.176C154.568 190.416 155.102 190.759 155.564 191.204C156.051 191.644 156.411 192.159 156.646 192.751C156.897 193.325 157.023 193.938 157.023 194.588ZM157.999 198.262L158.649 195.871C159.106 196.275 159.61 196.58 160.161 196.785C160.706 197.002 161.257 197.11 161.813 197.11C162.212 197.11 162.511 197.043 162.71 196.908C162.915 196.785 163.018 196.606 163.018 196.372C163.018 195.979 162.604 195.687 161.778 195.493C161.491 195.429 161.274 195.373 161.128 195.326C160.173 195.045 159.496 194.702 159.098 194.298C158.664 193.882 158.447 193.343 158.447 192.681C158.447 191.825 158.772 191.137 159.423 190.615C160.05 190.1 160.926 189.842 162.051 189.842C162.596 189.842 163.176 189.906 163.791 190.035C164.307 190.141 164.907 190.346 165.593 190.65L164.942 192.804C164.521 192.517 164.096 192.303 163.668 192.162C163.264 192.016 162.839 191.942 162.394 191.942C162.03 191.942 161.758 191.998 161.576 192.109C161.4 192.215 161.312 192.376 161.312 192.593C161.312 192.897 161.726 193.161 162.552 193.384C162.821 193.466 162.959 193.507 162.965 193.507C164.043 193.812 164.799 194.172 165.232 194.588C165.654 195.027 165.865 195.599 165.865 196.302C165.865 197.21 165.517 197.942 164.819 198.499C164.104 199.062 163.182 199.343 162.051 199.343C161.266 199.343 160.542 199.252 159.88 199.07C159.224 198.895 158.597 198.625 157.999 198.262ZM179.611 197.093V198.692C179.248 198.909 178.838 199.07 178.381 199.176C177.93 199.287 177.44 199.343 176.913 199.343C175.671 199.343 174.669 198.95 173.907 198.165C173.151 197.374 172.773 196.337 172.773 195.054C172.773 193.765 173.166 192.713 173.951 191.898C174.736 191.078 175.741 190.668 176.966 190.668C177.411 190.668 177.845 190.715 178.267 190.809C178.694 190.902 179.096 191.04 179.471 191.222V192.698C179.119 192.47 178.756 192.297 178.381 192.18C178.006 192.057 177.625 191.995 177.238 191.995C176.336 191.995 175.612 192.279 175.067 192.848C174.522 193.41 174.25 194.16 174.25 195.098C174.25 195.924 174.522 196.615 175.067 197.172C175.618 197.729 176.307 198.007 177.133 198.007C177.549 198.007 177.956 197.934 178.354 197.787C178.753 197.641 179.172 197.409 179.611 197.093ZM182.336 195.001C182.336 195.851 182.62 196.571 183.188 197.163C183.757 197.749 184.445 198.042 185.254 198.042C186.057 198.042 186.739 197.749 187.302 197.163C187.864 196.571 188.146 195.851 188.146 195.001C188.146 194.151 187.864 193.434 187.302 192.848C186.739 192.256 186.057 191.96 185.254 191.96C184.439 191.96 183.748 192.256 183.18 192.848C182.617 193.434 182.336 194.151 182.336 195.001ZM180.877 195.001C180.877 194.409 180.985 193.853 181.202 193.331C181.419 192.804 181.735 192.335 182.151 191.925C182.567 191.515 183.039 191.204 183.566 190.993C184.094 190.776 184.656 190.668 185.254 190.668C185.84 190.668 186.394 190.776 186.915 190.993C187.442 191.21 187.92 191.526 188.348 191.942C188.764 192.347 189.08 192.812 189.297 193.34C189.514 193.861 189.622 194.415 189.622 195.001C189.622 195.587 189.514 196.141 189.297 196.662C189.08 197.178 188.764 197.638 188.348 198.042C187.92 198.464 187.439 198.786 186.906 199.009C186.379 199.231 185.828 199.343 185.254 199.343C184.662 199.343 184.1 199.231 183.566 199.009C183.039 198.792 182.567 198.479 182.151 198.068C181.735 197.646 181.419 197.178 181.202 196.662C180.985 196.146 180.877 195.593 180.877 195.001ZM191.775 199V190.958H193.12V192.197C193.466 191.682 193.882 191.298 194.368 191.046C194.854 190.794 195.417 190.668 196.056 190.668C197.005 190.668 197.746 190.92 198.279 191.424C198.812 191.928 199.079 192.628 199.079 193.524V199H197.673V194.263C197.673 193.448 197.5 192.845 197.154 192.452C196.814 192.054 196.287 191.854 195.572 191.854C195.162 191.854 194.787 191.931 194.447 192.083C194.113 192.229 193.835 192.44 193.612 192.716C193.442 192.927 193.319 193.167 193.243 193.437C193.173 193.706 193.138 194.175 193.138 194.843V199H191.775ZM202.023 192.092H200.547V190.958H202.023V187.715H203.43V190.958H204.906V192.092H203.43V199H202.023V192.092ZM206.216 187.082C206.216 186.807 206.312 186.572 206.506 186.379C206.705 186.18 206.945 186.08 207.227 186.08C207.502 186.08 207.736 186.18 207.93 186.379C208.129 186.578 208.229 186.818 208.229 187.1C208.229 187.375 208.132 187.609 207.938 187.803C207.745 187.996 207.508 188.093 207.227 188.093C206.945 188.093 206.705 187.996 206.506 187.803C206.312 187.609 206.216 187.369 206.216 187.082ZM206.541 199V190.958H207.93V199H206.541ZM216.982 195.001C216.982 194.099 216.736 193.372 216.244 192.821C215.752 192.271 215.104 191.995 214.302 191.995C213.476 191.995 212.831 192.25 212.368 192.76C211.905 193.27 211.674 193.981 211.674 194.896C211.674 195.868 211.905 196.618 212.368 197.146C212.837 197.673 213.499 197.937 214.354 197.937C215.175 197.937 215.816 197.679 216.279 197.163C216.748 196.642 216.982 195.921 216.982 195.001ZM218.318 190.958V198.859C218.318 199.732 218.26 200.354 218.143 200.723C218.025 201.092 217.832 201.423 217.562 201.716C217.188 202.12 216.728 202.422 216.183 202.621C215.644 202.82 215.022 202.92 214.319 202.92C213.101 202.92 212.148 202.642 211.463 202.085C210.783 201.528 210.429 200.74 210.399 199.721H211.946V199.826C211.946 200.43 212.154 200.896 212.57 201.224C212.986 201.552 213.575 201.716 214.337 201.716C214.888 201.716 215.356 201.625 215.743 201.443C216.136 201.268 216.435 201.004 216.64 200.652C216.763 200.453 216.851 200.222 216.903 199.958C216.956 199.694 216.982 199.316 216.982 198.824V198.191V197.471C216.672 198.045 216.265 198.487 215.761 198.798C215.257 199.103 214.691 199.255 214.064 199.255C212.91 199.255 211.979 198.862 211.27 198.077C210.566 197.292 210.215 196.249 210.215 194.948C210.215 193.636 210.558 192.596 211.243 191.828C211.929 191.055 212.846 190.668 213.994 190.668C214.662 190.668 215.248 190.82 215.752 191.125C216.256 191.424 216.654 191.866 216.947 192.452V190.958H218.318ZM221.922 195.001C221.922 195.851 222.206 196.571 222.774 197.163C223.343 197.749 224.031 198.042 224.84 198.042C225.643 198.042 226.325 197.749 226.888 197.163C227.45 196.571 227.731 195.851 227.731 195.001C227.731 194.151 227.45 193.434 226.888 192.848C226.325 192.256 225.643 191.96 224.84 191.96C224.025 191.96 223.334 192.256 222.766 192.848C222.203 193.434 221.922 194.151 221.922 195.001ZM220.463 195.001C220.463 194.409 220.571 193.853 220.788 193.331C221.005 192.804 221.321 192.335 221.737 191.925C222.153 191.515 222.625 191.204 223.152 190.993C223.68 190.776 224.242 190.668 224.84 190.668C225.426 190.668 225.979 190.776 226.501 190.993C227.028 191.21 227.506 191.526 227.934 191.942C228.35 192.347 228.666 192.812 228.883 193.34C229.1 193.861 229.208 194.415 229.208 195.001C229.208 195.587 229.1 196.141 228.883 196.662C228.666 197.178 228.35 197.638 227.934 198.042C227.506 198.464 227.025 198.786 226.492 199.009C225.965 199.231 225.414 199.343 224.84 199.343C224.248 199.343 223.686 199.231 223.152 199.009C222.625 198.792 222.153 198.479 221.737 198.068C221.321 197.646 221.005 197.178 220.788 196.662C220.571 196.146 220.463 195.593 220.463 195.001Z" fill="white"/>
<path d="M37.648 28.464H41.152C48.544 28.464 52.72 24.72 52.72 17.04C52.72 8.832 47.776 5.808 40.192 5.808H30.592V42H37.648V28.464ZM37.648 11.664H38.896C42.832 11.664 45.52 12.336 45.52 16.992C45.52 21.696 43.264 22.608 39.088 22.608H37.648V11.664ZM77.6714 11.952V5.808H58.9514V42H77.6714V35.856H66.0074V26.064H77.2394V19.92H66.0074V11.952H77.6714ZM85.3889 42H92.4449V17.424H92.5409L111.597 42.72H116.685V5.808H109.629V30.144H109.533L90.4769 4.848H85.3889V42ZM145.163 8.88C142.955 6.432 138.491 4.848 135.275 4.848C129.179 4.848 124.715 9.696 124.715 15.696C124.715 21.312 128.123 23.664 132.779 25.584C135.611 26.688 139.067 27.744 139.067 31.488C139.067 34.272 137.291 36.72 134.411 36.72C131.387 36.72 128.843 34.224 127.883 31.44L123.323 35.904C125.819 40.08 129.467 42.96 134.459 42.96C141.851 42.96 146.363 37.824 146.363 30.576C146.363 18.432 132.011 20.976 132.011 14.88C132.011 12.528 134.171 10.8 136.427 10.8C138.779 10.8 140.507 11.952 141.851 13.776L145.163 8.88ZM173.044 34.368L175.828 42H183.364L169.636 4.848H164.164L150.052 42H157.492L160.468 34.368H173.044ZM171.076 28.608H162.484L166.468 15.456H166.564L171.076 28.608ZM188.514 42H198.546C208.866 42 216.066 34.128 216.066 23.952C216.066 13.632 209.058 5.808 198.594 5.808H188.514V42ZM195.57 11.952H196.722C204.738 11.952 208.77 16.032 208.77 23.904C208.77 31.056 205.41 35.856 196.722 35.856H195.57V11.952ZM256.625 23.856C256.625 13.104 249.521 4.848 238.721 4.848C227.921 4.848 220.817 13.104 220.817 23.856C220.817 34.512 227.681 42.96 238.721 42.96C249.761 42.96 256.625 34.512 256.625 23.856ZM249.329 23.568C249.329 29.136 246.545 36 238.721 36C230.897 36 228.113 29.136 228.113 23.568C228.113 17.712 232.049 11.808 238.721 11.808C245.393 11.808 249.329 17.712 249.329 23.568ZM287.023 28.464H290.527C297.919 28.464 302.095 24.72 302.095 17.04C302.095 8.832 297.151 5.808 289.567 5.808H279.967V42H287.023V28.464ZM287.023 11.664H288.271C292.207 11.664 294.895 12.336 294.895 16.992C294.895 21.696 292.639 22.608 288.463 22.608H287.023V11.664ZM324.451 34.368L327.235 42H334.771L321.043 4.848H315.571L301.459 42H308.899L311.875 34.368H324.451ZM322.483 28.608H313.891L317.875 15.456H317.971L322.483 28.608ZM354.176 26.736C359.024 25.92 361.568 21.312 361.568 16.704C361.568 8.976 356.624 5.808 349.472 5.808H339.92V42H346.976V27.408H347.072L355.856 42H364.4L354.176 26.736ZM346.976 11.568H347.936C351.68 11.568 354.512 12.432 354.512 16.896C354.512 21.312 351.776 22.464 347.888 22.464H346.976V11.568ZM389.654 34.368L392.438 42H399.974L386.246 4.848H380.774L366.662 42H374.102L377.078 34.368H389.654ZM387.686 28.608H379.094L383.078 15.456H383.174L387.686 28.608ZM54.784 54.96C52.336 53.616 49.552 52.848 46.72 52.848C36.112 52.848 28.864 61.92 28.864 72.192C28.864 82.176 36.4 90.96 46.576 90.96C49.504 90.96 52.144 90.048 54.784 88.8V80.4C52.816 82.656 49.792 84.24 46.768 84.24C40.192 84.24 36.16 78.144 36.16 72.048C36.16 65.808 40.048 59.568 46.816 59.568C49.84 59.568 52.816 61.008 54.784 63.408V54.96ZM76.6761 74.736C81.5241 73.92 84.0681 69.312 84.0681 64.704C84.0681 56.976 79.1241 53.808 71.9721 53.808H62.4201V90H69.4761V75.408H69.5721L78.3561 90H86.9001L76.6761 74.736ZM69.4761 59.568H70.4361C74.1801 59.568 77.0121 60.432 77.0121 64.896C77.0121 69.312 74.2761 70.464 70.3881 70.464H69.4761V59.568ZM110.906 59.952V53.808H92.1858V90H110.906V83.856H99.2418V74.064H110.474V67.92H99.2418V59.952H110.906ZM138.591 82.368L141.375 90H148.911L135.183 52.848H129.711L115.599 90H123.039L126.015 82.368H138.591ZM136.623 76.608H128.031L132.015 63.456H132.111L136.623 76.608ZM168.317 74.736C173.165 73.92 175.709 69.312 175.709 64.704C175.709 56.976 170.765 53.808 163.613 53.808H154.061V90H161.117V75.408H161.213L169.997 90H178.541L168.317 74.736ZM161.117 59.568H162.077C165.821 59.568 168.653 60.432 168.653 64.896C168.653 69.312 165.917 70.464 162.029 70.464H161.117V59.568ZM207.757 76.464H211.261C218.653 76.464 222.829 72.72 222.829 65.04C222.829 56.832 217.885 53.808 210.301 53.808H200.701V90H207.757V76.464ZM207.757 59.664H209.005C212.941 59.664 215.629 60.336 215.629 64.992C215.629 69.696 213.373 70.608 209.197 70.608H207.757V59.664ZM243.317 74.736C248.165 73.92 250.709 69.312 250.709 64.704C250.709 56.976 245.765 53.808 238.613 53.808H229.061V90H236.117V75.408H236.213L244.997 90H253.541L243.317 74.736ZM236.117 59.568H237.077C240.821 59.568 243.653 60.432 243.653 64.896C243.653 69.312 240.917 70.464 237.029 70.464H236.117V59.568ZM292.906 71.856C292.906 61.104 285.802 52.848 275.002 52.848C264.202 52.848 257.098 61.104 257.098 71.856C257.098 82.512 263.962 90.96 275.002 90.96C286.042 90.96 292.906 82.512 292.906 71.856ZM285.61 71.568C285.61 77.136 282.826 84 275.002 84C267.178 84 264.394 77.136 264.394 71.568C264.394 65.712 268.33 59.808 275.002 59.808C281.674 59.808 285.61 65.712 285.61 71.568ZM307.245 73.392V90H314.301V73.392L325.725 53.808H317.469L310.557 66.384L304.221 53.808H296.013L307.245 73.392ZM349.265 59.952V53.808H330.545V90H349.265V83.856H337.601V74.064H348.833V67.92H337.601V59.952H349.265ZM381.175 54.96C378.727 53.616 375.943 52.848 373.111 52.848C362.503 52.848 355.255 61.92 355.255 72.192C355.255 82.176 362.791 90.96 372.967 90.96C375.895 90.96 378.535 90.048 381.175 88.8V80.4C379.207 82.656 376.183 84.24 373.159 84.24C366.583 84.24 362.551 78.144 362.551 72.048C362.551 65.808 366.439 59.568 373.207 59.568C376.231 59.568 379.207 61.008 381.175 63.408V54.96ZM400.571 59.952H407.867V53.808H386.219V59.952H393.515V90H400.571V59.952ZM447.547 71.856C447.547 61.104 440.443 52.848 429.643 52.848C418.843 52.848 411.739 61.104 411.739 71.856C411.739 82.512 418.603 90.96 429.643 90.96C440.683 90.96 447.547 82.512 447.547 71.856ZM440.251 71.568C440.251 77.136 437.467 84 429.643 84C421.819 84 419.035 77.136 419.035 71.568C419.035 65.712 422.971 59.808 429.643 59.808C436.315 59.808 440.251 65.712 440.251 71.568ZM474.366 56.88C472.158 54.432 467.694 52.848 464.478 52.848C458.382 52.848 453.918 57.696 453.918 63.696C453.918 69.312 457.326 71.664 461.982 73.584C464.814 74.688 468.27 75.744 468.27 79.488C468.27 82.272 466.494 84.72 463.614 84.72C460.59 84.72 458.046 82.224 457.086 79.44L452.526 83.904C455.022 88.08 458.67 90.96 463.662 90.96C471.054 90.96 475.566 85.824 475.566 78.576C475.566 66.432 461.214 68.976 461.214 62.88C461.214 60.528 463.374 58.8 465.63 58.8C467.982 58.8 469.71 59.952 471.054 61.776L474.366 56.88ZM37.648 116.064V101.808H30.592V138H37.648V121.824H50.704V138H57.76V101.808H50.704V116.064H37.648ZM85.9038 130.368L88.6877 138H96.2238L82.4958 100.848H77.0238L62.9117 138H70.3518L73.3278 130.368H85.9038ZM83.9358 124.608H75.3438L79.3278 111.456H79.4238L83.9358 124.608ZM108.429 122.256H109.581C113.133 122.256 116.973 122.448 116.973 127.152C116.973 131.856 113.709 132.336 109.917 132.336H108.429V122.256ZM101.373 138H112.461C119.037 138 124.029 134.832 124.029 127.728C124.029 123.744 122.109 119.424 117.837 118.656C120.093 117.216 121.005 114.24 121.005 111.648C121.005 104.448 116.877 101.808 110.157 101.808H101.373V138ZM108.429 107.472H109.341C112.317 107.472 114.429 108.432 114.429 112.128C114.429 115.872 112.749 116.88 109.293 116.88H108.429V107.472ZM137.961 101.808H130.905V138H137.961V101.808ZM157.852 107.952H165.148V101.808H143.5V107.952H150.796V138H157.852V107.952ZM186.873 130.368L189.656 138H197.193L183.465 100.848H177.993L163.88 138H171.321L174.297 130.368H186.873ZM184.905 124.608H176.312L180.297 111.456H180.393L184.905 124.608ZM226.534 102.96C224.086 101.616 221.302 100.848 218.47 100.848C207.862 100.848 200.614 109.92 200.614 120.192C200.614 130.176 208.15 138.96 218.326 138.96C221.254 138.96 223.894 138.048 226.534 136.8V128.4C224.566 130.656 221.542 132.24 218.518 132.24C211.942 132.24 207.91 126.144 207.91 120.048C207.91 113.808 211.798 107.568 218.566 107.568C221.59 107.568 224.566 109.008 226.534 111.408V102.96ZM241.226 101.808H234.17V138H241.226V101.808ZM283.438 119.856C283.438 109.104 276.334 100.848 265.534 100.848C254.734 100.848 247.63 109.104 247.63 119.856C247.63 130.512 254.494 138.96 265.534 138.96C276.574 138.96 283.438 130.512 283.438 119.856ZM276.142 119.568C276.142 125.136 273.358 132 265.534 132C257.71 132 254.926 125.136 254.926 119.568C254.926 113.712 258.862 107.808 265.534 107.808C272.206 107.808 276.142 113.712 276.142 119.568ZM289.905 138H296.961V113.424H297.057L316.113 138.72H321.201V101.808H314.145V126.144H314.049L294.993 100.848H289.905V138ZM349.294 130.368L352.078 138H359.614L345.886 100.848H340.414L326.302 138H333.742L336.718 130.368H349.294ZM347.326 124.608H338.734L342.718 111.456H342.814L347.326 124.608ZM371.82 101.808H364.764V138H381.804V131.856H371.82V101.808ZM405.796 107.952V101.808H387.076V138H405.796V131.856H394.132V122.064H405.364V115.92H394.132V107.952H405.796ZM433.866 104.88C431.658 102.432 427.194 100.848 423.978 100.848C417.882 100.848 413.418 105.696 413.418 111.696C413.418 117.312 416.826 119.664 421.482 121.584C424.314 122.688 427.77 123.744 427.77 127.488C427.77 130.272 425.994 132.72 423.114 132.72C420.09 132.72 417.546 130.224 416.586 127.44L412.026 131.904C414.522 136.08 418.17 138.96 423.162 138.96C430.554 138.96 435.066 133.824 435.066 126.576C435.066 114.432 420.714 116.976 420.714 110.88C420.714 108.528 422.874 106.8 425.13 106.8C427.482 106.8 429.21 107.952 430.554 109.776L433.866 104.88Z" fill="white"/>
</svg>
