<svg width="535" height="201" viewBox="0 0 535 201" fill="none" xmlns="http://www.w3.org/2000/svg">
<path d="M30.5625 31V8.125H35.4531V26.8438H43.2656V31H30.5625ZM68.6094 19.6094C68.6094 21.2448 68.3021 22.7917 67.6875 24.25C67.0833 25.7083 66.2083 26.9896 65.0625 28.0938C63.875 29.2292 62.5365 30.099 61.0469 30.7031C59.5573 31.3073 58.0156 31.6094 56.4219 31.6094C55.026 31.6094 53.6562 31.375 52.3125 30.9062C50.9792 30.4271 49.7552 29.7448 48.6406 28.8594C47.2031 27.7135 46.099 26.3438 45.3281 24.75C44.5677 23.1562 44.1875 21.4427 44.1875 19.6094C44.1875 17.9635 44.4896 16.4219 45.0938 14.9844C45.6979 13.5365 46.5833 12.25 47.75 11.125C48.8958 10.0104 50.224 9.14583 51.7344 8.53125C53.2552 7.91667 54.8177 7.60938 56.4219 7.60938C58.0156 7.60938 59.5625 7.91667 61.0625 8.53125C62.5729 9.14583 63.9062 10.0104 65.0625 11.125C66.2188 12.25 67.099 13.5365 67.7031 14.9844C68.3073 16.4323 68.6094 17.974 68.6094 19.6094ZM56.4219 27.25C58.4948 27.25 60.2031 26.526 61.5469 25.0781C62.901 23.6198 63.5781 21.7969 63.5781 19.6094C63.5781 17.4427 62.8958 15.6198 61.5312 14.1406C60.1667 12.6615 58.4635 11.9219 56.4219 11.9219C54.349 11.9219 52.6302 12.6615 51.2656 14.1406C49.901 15.6094 49.2188 17.4323 49.2188 19.6094C49.2188 21.8177 49.8906 23.6458 51.2344 25.0938C52.5781 26.5312 54.3073 27.25 56.4219 27.25ZM71.2812 28.0938L74 25.0156C74.3438 25.8594 74.8958 26.526 75.6562 27.0156C76.4167 27.4948 77.2708 27.7344 78.2188 27.7344C79.3646 27.7344 80.2708 27.4635 80.9375 26.9219C81.6042 26.3802 81.9375 25.651 81.9375 24.7344C81.9375 23.651 80.8281 22.5729 78.6094 21.5C77.8906 21.1562 77.3229 20.875 76.9062 20.6562C74.9062 19.6146 73.5208 18.599 72.75 17.6094C71.9792 16.6094 71.5938 15.4219 71.5938 14.0469C71.5938 12.1615 72.3385 10.6146 73.8281 9.40625C75.3281 8.1875 77.2708 7.57812 79.6562 7.57812C81.0417 7.57812 82.2344 7.82292 83.2344 8.3125C84.2448 8.79167 85.1354 9.54688 85.9062 10.5781L83.0156 13.3438C82.6719 12.6771 82.2135 12.1823 81.6406 11.8594C81.0781 11.526 80.3958 11.3594 79.5938 11.3594C78.625 11.3594 77.8438 11.6042 77.25 12.0938C76.6562 12.5729 76.3594 13.1979 76.3594 13.9688C76.3594 15.1771 77.5365 16.2812 79.8906 17.2812C80.3594 17.4792 80.7188 17.6354 80.9688 17.75C82.9062 18.6354 84.3385 19.6354 85.2656 20.75C86.2031 21.8646 86.6719 23.1354 86.6719 24.5625C86.6719 26.7083 85.9375 28.4219 84.4688 29.7031C83.0104 30.974 81.0469 31.6094 78.5781 31.6094C76.8281 31.6094 75.3281 31.3073 74.0781 30.7031C72.8281 30.099 71.8958 29.2292 71.2812 28.0938ZM105.422 27.1875H107.344C108.573 27.1875 109.505 26.9219 110.141 26.3906C110.776 25.849 111.094 25.0625 111.094 24.0312C111.094 23.0625 110.776 22.3229 110.141 21.8125C109.516 21.3021 108.604 21.0469 107.406 21.0469H105.422V27.1875ZM105.422 17.2656H106.516C107.995 17.2656 109.042 17.0573 109.656 16.6406C110.271 16.224 110.578 15.526 110.578 14.5469C110.578 13.5885 110.281 12.9062 109.688 12.5C109.104 12.0938 108.078 11.8906 106.609 11.8906H105.422V17.2656ZM100.531 31V8.125H104.812C107.031 8.125 108.651 8.21354 109.672 8.39062C110.703 8.55729 111.594 8.83854 112.344 9.23438C113.229 9.74479 113.911 10.4167 114.391 11.25C114.88 12.0833 115.125 13.026 115.125 14.0781C115.125 15.4323 114.724 16.5208 113.922 17.3438C113.12 18.1562 111.922 18.6979 110.328 18.9688C112.172 19.2396 113.562 19.8385 114.5 20.7656C115.448 21.6927 115.922 22.9271 115.922 24.4688C115.922 25.5938 115.651 26.625 115.109 27.5625C114.568 28.4896 113.823 29.2083 112.875 29.7188C112.031 30.1771 111.042 30.5052 109.906 30.7031C108.771 30.901 106.891 31 104.266 31H103.766H100.531ZM119.656 31V8.125H133.125V12.25H124.547V16.9531H133.125V21.1094H124.547V26.8438H133.125V31H119.656ZM137.938 31V8.125H143.016L153.141 21.4375C153.432 21.8125 153.75 22.3438 154.094 23.0312C154.448 23.7083 154.812 24.5104 155.188 25.4375C155.073 24.7604 154.99 24.0885 154.938 23.4219C154.885 22.7552 154.859 21.9219 154.859 20.9219V8.125H159.531V31H154.734L144.328 17.4375C144.036 17.0625 143.719 16.5365 143.375 15.8594C143.031 15.1719 142.667 14.3542 142.281 13.4062C142.396 14.0625 142.479 14.7292 142.531 15.4062C142.583 16.0729 142.609 16.9167 142.609 17.9375V31H137.938ZM164.625 31V8.125H178.094V12.25H169.516V16.9531H178.094V21.1094H169.516V26.8438H178.094V31H164.625ZM182.906 31V8.125H196.375V12.25H187.797V16.9531H196.375V21.1094H187.797V31H182.906ZM200.25 31V8.125H205.141V31H200.25ZM228.797 14.0781C227.807 13.1927 226.792 12.5469 225.75 12.1406C224.708 11.724 223.594 11.5156 222.406 11.5156C219.969 11.5156 218.026 12.2448 216.578 13.7031C215.13 15.1615 214.406 17.1198 214.406 19.5781C214.406 21.9844 215.078 23.8958 216.422 25.3125C217.766 26.7188 219.599 27.4219 221.922 27.4219C223.245 27.4219 224.474 27.2031 225.609 26.7656C226.745 26.3177 227.797 25.651 228.766 24.7656L228.734 29.7812C227.693 30.3958 226.599 30.8542 225.453 31.1562C224.318 31.4583 223.12 31.6094 221.859 31.6094C218.214 31.6094 215.219 30.4792 212.875 28.2188C210.542 25.9479 209.375 23.0677 209.375 19.5781C209.375 16.099 210.547 13.2292 212.891 10.9688C215.234 8.70833 218.255 7.57812 221.953 7.57812C223.193 7.57812 224.391 7.70833 225.547 7.96875C226.703 8.22917 227.844 8.63021 228.969 9.17188L228.797 14.0781ZM233.438 31V8.125H238.328V31H233.438ZM266.984 19.6094C266.984 21.2448 266.677 22.7917 266.062 24.25C265.458 25.7083 264.583 26.9896 263.438 28.0938C262.25 29.2292 260.911 30.099 259.422 30.7031C257.932 31.3073 256.391 31.6094 254.797 31.6094C253.401 31.6094 252.031 31.375 250.688 30.9062C249.354 30.4271 248.13 29.7448 247.016 28.8594C245.578 27.7135 244.474 26.3438 243.703 24.75C242.943 23.1562 242.562 21.4427 242.562 19.6094C242.562 17.9635 242.865 16.4219 243.469 14.9844C244.073 13.5365 244.958 12.25 246.125 11.125C247.271 10.0104 248.599 9.14583 250.109 8.53125C251.63 7.91667 253.193 7.60938 254.797 7.60938C256.391 7.60938 257.938 7.91667 259.438 8.53125C260.948 9.14583 262.281 10.0104 263.438 11.125C264.594 12.25 265.474 13.5365 266.078 14.9844C266.682 16.4323 266.984 17.974 266.984 19.6094ZM254.797 27.25C256.87 27.25 258.578 26.526 259.922 25.0781C261.276 23.6198 261.953 21.7969 261.953 19.6094C261.953 17.4427 261.271 15.6198 259.906 14.1406C258.542 12.6615 256.839 11.9219 254.797 11.9219C252.724 11.9219 251.005 12.6615 249.641 14.1406C248.276 15.6094 247.594 17.4323 247.594 19.6094C247.594 21.8177 248.266 23.6458 249.609 25.0938C250.953 26.5312 252.682 27.25 254.797 27.25ZM269.656 28.0938L272.375 25.0156C272.719 25.8594 273.271 26.526 274.031 27.0156C274.792 27.4948 275.646 27.7344 276.594 27.7344C277.74 27.7344 278.646 27.4635 279.312 26.9219C279.979 26.3802 280.312 25.651 280.312 24.7344C280.312 23.651 279.203 22.5729 276.984 21.5C276.266 21.1562 275.698 20.875 275.281 20.6562C273.281 19.6146 271.896 18.599 271.125 17.6094C270.354 16.6094 269.969 15.4219 269.969 14.0469C269.969 12.1615 270.714 10.6146 272.203 9.40625C273.703 8.1875 275.646 7.57812 278.031 7.57812C279.417 7.57812 280.609 7.82292 281.609 8.3125C282.62 8.79167 283.51 9.54688 284.281 10.5781L281.391 13.3438C281.047 12.6771 280.589 12.1823 280.016 11.8594C279.453 11.526 278.771 11.3594 277.969 11.3594C277 11.3594 276.219 11.6042 275.625 12.0938C275.031 12.5729 274.734 13.1979 274.734 13.9688C274.734 15.1771 275.911 16.2812 278.266 17.2812C278.734 17.4792 279.094 17.6354 279.344 17.75C281.281 18.6354 282.714 19.6354 283.641 20.75C284.578 21.8646 285.047 23.1354 285.047 24.5625C285.047 26.7083 284.312 28.4219 282.844 29.7031C281.385 30.974 279.422 31.6094 276.953 31.6094C275.203 31.6094 273.703 31.3073 272.453 30.7031C271.203 30.099 270.271 29.2292 269.656 28.0938ZM303.797 26.875H306.516C309.078 26.875 310.943 26.2917 312.109 25.125C313.286 23.9583 313.875 22.1094 313.875 19.5781C313.875 17.0573 313.286 15.2135 312.109 14.0469C310.943 12.8698 309.078 12.2812 306.516 12.2812H303.797V26.875ZM298.906 31V8.125H305.141C307.599 8.125 309.536 8.29688 310.953 8.64062C312.37 8.98438 313.615 9.55729 314.688 10.3594C316.073 11.3906 317.12 12.6927 317.828 14.2656C318.547 15.8281 318.906 17.6094 318.906 19.6094C318.906 21.6406 318.542 23.4427 317.812 25.0156C317.083 26.5781 316.016 27.8698 314.609 28.8906C313.568 29.6406 312.406 30.1823 311.125 30.5156C309.854 30.8385 307.99 31 305.531 31H303.797H298.906ZM323 31V8.125H336.469V12.25H327.891V16.9531H336.469V21.1094H327.891V26.8438H336.469V31H323ZM30.5625 69V46.125H35.4531V64.8438H43.2656V69H30.5625ZM58.1875 60.2969L55.625 52.9062C55.5521 52.6875 55.4583 52.3125 55.3438 51.7812C55.2292 51.25 55.1094 50.599 54.9844 49.8281C54.849 50.5677 54.7188 51.2344 54.5938 51.8281C54.4688 52.4115 54.375 52.8021 54.3125 53L51.8438 60.2969H58.1875ZM43.625 69L52.3281 46.125H57.9219L66.75 69H61.1875L59.3281 64.1406H50.4688L48.875 69H43.625ZM83.8906 65.1875H85.8125C87.0417 65.1875 87.974 64.9219 88.6094 64.3906C89.2448 63.849 89.5625 63.0625 89.5625 62.0312C89.5625 61.0625 89.2448 60.3229 88.6094 59.8125C87.9844 59.3021 87.0729 59.0469 85.875 59.0469H83.8906V65.1875ZM83.8906 55.2656H84.9844C86.4635 55.2656 87.5104 55.0573 88.125 54.6406C88.7396 54.224 89.0469 53.526 89.0469 52.5469C89.0469 51.5885 88.75 50.9062 88.1562 50.5C87.5729 50.0938 86.5469 49.8906 85.0781 49.8906H83.8906V55.2656ZM79 69V46.125H83.2812C85.5 46.125 87.1198 46.2135 88.1406 46.3906C89.1719 46.5573 90.0625 46.8385 90.8125 47.2344C91.6979 47.7448 92.3802 48.4167 92.8594 49.25C93.349 50.0833 93.5938 51.026 93.5938 52.0781C93.5938 53.4323 93.1927 54.5208 92.3906 55.3438C91.5885 56.1562 90.3906 56.6979 88.7969 56.9688C90.6406 57.2396 92.0312 57.8385 92.9688 58.7656C93.9167 59.6927 94.3906 60.9271 94.3906 62.4688C94.3906 63.5938 94.1198 64.625 93.5781 65.5625C93.0365 66.4896 92.2917 67.2083 91.3438 67.7188C90.5 68.1771 89.5104 68.5052 88.375 68.7031C87.2396 68.901 85.3594 69 82.7344 69H82.2344H79ZM109.969 60.2969L107.406 52.9062C107.333 52.6875 107.24 52.3125 107.125 51.7812C107.01 51.25 106.891 50.599 106.766 49.8281C106.63 50.5677 106.5 51.2344 106.375 51.8281C106.25 52.4115 106.156 52.8021 106.094 53L103.625 60.2969H109.969ZM95.4062 69L104.109 46.125H109.703L118.531 69H112.969L111.109 64.1406H102.25L100.656 69H95.4062ZM120.938 69V46.125H126.016L136.141 59.4375C136.432 59.8125 136.75 60.3438 137.094 61.0312C137.448 61.7083 137.812 62.5104 138.188 63.4375C138.073 62.7604 137.99 62.0885 137.938 61.4219C137.885 60.7552 137.859 59.9219 137.859 58.9219V46.125H142.531V69H137.734L127.328 55.4375C127.036 55.0625 126.719 54.5365 126.375 53.8594C126.031 53.1719 125.667 52.3542 125.281 51.4062C125.396 52.0625 125.479 52.7292 125.531 53.4062C125.583 54.0729 125.609 54.9167 125.609 55.9375V69H120.938ZM166.047 52.0781C165.057 51.1927 164.042 50.5469 163 50.1406C161.958 49.724 160.844 49.5156 159.656 49.5156C157.219 49.5156 155.276 50.2448 153.828 51.7031C152.38 53.1615 151.656 55.1198 151.656 57.5781C151.656 59.9844 152.328 61.8958 153.672 63.3125C155.016 64.7188 156.849 65.4219 159.172 65.4219C160.495 65.4219 161.724 65.2031 162.859 64.7656C163.995 64.3177 165.047 63.651 166.016 62.7656L165.984 67.7812C164.943 68.3958 163.849 68.8542 162.703 69.1562C161.568 69.4583 160.37 69.6094 159.109 69.6094C155.464 69.6094 152.469 68.4792 150.125 66.2188C147.792 63.9479 146.625 61.0677 146.625 57.5781C146.625 54.099 147.797 51.2292 150.141 48.9688C152.484 46.7083 155.505 45.5781 159.203 45.5781C160.443 45.5781 161.641 45.7083 162.797 45.9688C163.953 46.2292 165.094 46.6302 166.219 47.1719L166.047 52.0781ZM182.438 60.2969L179.875 52.9062C179.802 52.6875 179.708 52.3125 179.594 51.7812C179.479 51.25 179.359 50.599 179.234 49.8281C179.099 50.5677 178.969 51.2344 178.844 51.8281C178.719 52.4115 178.625 52.8021 178.562 53L176.094 60.2969H182.438ZM167.875 69L176.578 46.125H182.172L191 69H185.438L183.578 64.1406H174.719L173.125 69H167.875ZM201.781 66.0938L204.5 63.0156C204.844 63.8594 205.396 64.526 206.156 65.0156C206.917 65.4948 207.771 65.7344 208.719 65.7344C209.865 65.7344 210.771 65.4635 211.438 64.9219C212.104 64.3802 212.438 63.651 212.438 62.7344C212.438 61.651 211.328 60.5729 209.109 59.5C208.391 59.1562 207.823 58.875 207.406 58.6562C205.406 57.6146 204.021 56.599 203.25 55.6094C202.479 54.6094 202.094 53.4219 202.094 52.0469C202.094 50.1615 202.839 48.6146 204.328 47.4062C205.828 46.1875 207.771 45.5781 210.156 45.5781C211.542 45.5781 212.734 45.8229 213.734 46.3125C214.745 46.7917 215.635 47.5469 216.406 48.5781L213.516 51.3438C213.172 50.6771 212.714 50.1823 212.141 49.8594C211.578 49.526 210.896 49.3594 210.094 49.3594C209.125 49.3594 208.344 49.6042 207.75 50.0938C207.156 50.5729 206.859 51.1979 206.859 51.9688C206.859 53.1771 208.036 54.2812 210.391 55.2812C210.859 55.4792 211.219 55.6354 211.469 55.75C213.406 56.6354 214.839 57.6354 215.766 58.75C216.703 59.8646 217.172 61.1354 217.172 62.5625C217.172 64.7083 216.438 66.4219 214.969 67.7031C213.51 68.974 211.547 69.6094 209.078 69.6094C207.328 69.6094 205.828 69.3073 204.578 68.7031C203.328 68.099 202.396 67.2292 201.781 66.0938ZM221.281 69V46.125H226.172V69H221.281ZM231.406 69V46.125H236.484L246.609 59.4375C246.901 59.8125 247.219 60.3438 247.562 61.0312C247.917 61.7083 248.281 62.5104 248.656 63.4375C248.542 62.7604 248.458 62.0885 248.406 61.4219C248.354 60.7552 248.328 59.9219 248.328 58.9219V46.125H253V69H248.203L237.797 55.4375C237.505 55.0625 237.188 54.5365 236.844 53.8594C236.5 53.1719 236.135 52.3542 235.75 51.4062C235.865 52.0625 235.948 52.7292 236 53.4062C236.052 54.0729 236.078 54.9167 236.078 55.9375V69H231.406ZM266.469 66.0938L269.188 63.0156C269.531 63.8594 270.083 64.526 270.844 65.0156C271.604 65.4948 272.458 65.7344 273.406 65.7344C274.552 65.7344 275.458 65.4635 276.125 64.9219C276.792 64.3802 277.125 63.651 277.125 62.7344C277.125 61.651 276.016 60.5729 273.797 59.5C273.078 59.1562 272.51 58.875 272.094 58.6562C270.094 57.6146 268.708 56.599 267.938 55.6094C267.167 54.6094 266.781 53.4219 266.781 52.0469C266.781 50.1615 267.526 48.6146 269.016 47.4062C270.516 46.1875 272.458 45.5781 274.844 45.5781C276.229 45.5781 277.422 45.8229 278.422 46.3125C279.432 46.7917 280.323 47.5469 281.094 48.5781L278.203 51.3438C277.859 50.6771 277.401 50.1823 276.828 49.8594C276.266 49.526 275.583 49.3594 274.781 49.3594C273.812 49.3594 273.031 49.6042 272.438 50.0938C271.844 50.5729 271.547 51.1979 271.547 51.9688C271.547 53.1771 272.724 54.2812 275.078 55.2812C275.547 55.4792 275.906 55.6354 276.156 55.75C278.094 56.6354 279.526 57.6354 280.453 58.75C281.391 59.8646 281.859 61.1354 281.859 62.5625C281.859 64.7083 281.125 66.4219 279.656 67.7031C278.198 68.974 276.234 69.6094 273.766 69.6094C272.016 69.6094 270.516 69.3073 269.266 68.7031C268.016 68.099 267.083 67.2292 266.469 66.0938ZM297.719 60.2969L295.156 52.9062C295.083 52.6875 294.99 52.3125 294.875 51.7812C294.76 51.25 294.641 50.599 294.516 49.8281C294.38 50.5677 294.25 51.2344 294.125 51.8281C294 52.4115 293.906 52.8021 293.844 53L291.375 60.2969H297.719ZM283.156 69L291.859 46.125H297.453L306.281 69H300.719L298.859 64.1406H290L288.406 69H283.156ZM308.688 69V46.125H313.578V64.8438H321.391V69H308.688ZM324.562 69V46.125H329.453V69H324.562ZM351.234 69H345.594L339.578 58.3125V69H334.688V46.125H341.688C344.469 46.125 346.552 46.6667 347.938 47.75C349.323 48.8229 350.016 50.4427 350.016 52.6094C350.016 54.1823 349.542 55.526 348.594 56.6406C347.646 57.7552 346.422 58.4062 344.922 58.5938L351.234 69ZM339.578 55.875H340.312C342.292 55.875 343.599 55.6615 344.234 55.2344C344.87 54.7969 345.188 54.0417 345.188 52.9688C345.188 51.8438 344.844 51.0469 344.156 50.5781C343.479 50.099 342.198 49.8594 340.312 49.8594H339.578V55.875ZM35.4531 102.875H38.1719C40.7344 102.875 42.599 102.292 43.7656 101.125C44.9427 99.9583 45.5312 98.1094 45.5312 95.5781C45.5312 93.0573 44.9427 91.2135 43.7656 90.0469C42.599 88.8698 40.7344 88.2812 38.1719 88.2812H35.4531V102.875ZM30.5625 107V84.125H36.7969C39.2552 84.125 41.1927 84.2969 42.6094 84.6406C44.026 84.9844 45.2708 85.5573 46.3438 86.3594C47.7292 87.3906 48.776 88.6927 49.4844 90.2656C50.2031 91.8281 50.5625 93.6094 50.5625 95.6094C50.5625 97.6406 50.1979 99.4427 49.4688 101.016C48.7396 102.578 47.6719 103.87 46.2656 104.891C45.224 105.641 44.0625 106.182 42.7812 106.516C41.5104 106.839 39.6458 107 37.1875 107H35.4531H30.5625ZM54.6562 107V84.125H68.125V88.25H59.5469V92.9531H68.125V97.1094H59.5469V102.844H68.125V107H54.6562ZM101.203 90.0781C100.214 89.1927 99.1979 88.5469 98.1562 88.1406C97.1146 87.724 96 87.5156 94.8125 87.5156C92.375 87.5156 90.4323 88.2448 88.9844 89.7031C87.5365 91.1615 86.8125 93.1198 86.8125 95.5781C86.8125 97.9844 87.4844 99.8958 88.8281 101.312C90.1719 102.719 92.0052 103.422 94.3281 103.422C95.651 103.422 96.8802 103.203 98.0156 102.766C99.151 102.318 100.203 101.651 101.172 100.766L101.141 105.781C100.099 106.396 99.0052 106.854 97.8594 107.156C96.724 107.458 95.526 107.609 94.2656 107.609C90.6198 107.609 87.625 106.479 85.2812 104.219C82.9479 101.948 81.7812 99.0677 81.7812 95.5781C81.7812 92.099 82.9531 89.2292 85.2969 86.9688C87.6406 84.7083 90.6615 83.5781 94.3594 83.5781C95.599 83.5781 96.7969 83.7083 97.9531 83.9688C99.1094 84.2292 100.25 84.6302 101.375 85.1719L101.203 90.0781ZM117.594 98.2969L115.031 90.9062C114.958 90.6875 114.865 90.3125 114.75 89.7812C114.635 89.25 114.516 88.599 114.391 87.8281C114.255 88.5677 114.125 89.2344 114 89.8281C113.875 90.4115 113.781 90.8021 113.719 91L111.25 98.2969H117.594ZM103.031 107L111.734 84.125H117.328L126.156 107H120.594L118.734 102.141H109.875L108.281 107H103.031ZM127.094 104.094L129.812 101.016C130.156 101.859 130.708 102.526 131.469 103.016C132.229 103.495 133.083 103.734 134.031 103.734C135.177 103.734 136.083 103.464 136.75 102.922C137.417 102.38 137.75 101.651 137.75 100.734C137.75 99.651 136.641 98.5729 134.422 97.5C133.703 97.1562 133.135 96.875 132.719 96.6562C130.719 95.6146 129.333 94.599 128.562 93.6094C127.792 92.6094 127.406 91.4219 127.406 90.0469C127.406 88.1615 128.151 86.6146 129.641 85.4062C131.141 84.1875 133.083 83.5781 135.469 83.5781C136.854 83.5781 138.047 83.8229 139.047 84.3125C140.057 84.7917 140.948 85.5469 141.719 86.5781L138.828 89.3438C138.484 88.6771 138.026 88.1823 137.453 87.8594C136.891 87.526 136.208 87.3594 135.406 87.3594C134.438 87.3594 133.656 87.6042 133.062 88.0938C132.469 88.5729 132.172 89.1979 132.172 89.9688C132.172 91.1771 133.349 92.2812 135.703 93.2812C136.172 93.4792 136.531 93.6354 136.781 93.75C138.719 94.6354 140.151 95.6354 141.078 96.75C142.016 97.8646 142.484 99.1354 142.484 100.562C142.484 102.708 141.75 104.422 140.281 105.703C138.823 106.974 136.859 107.609 134.391 107.609C132.641 107.609 131.141 107.307 129.891 106.703C128.641 106.099 127.708 105.229 127.094 104.094ZM158.344 98.2969L155.781 90.9062C155.708 90.6875 155.615 90.3125 155.5 89.7812C155.385 89.25 155.266 88.599 155.141 87.8281C155.005 88.5677 154.875 89.2344 154.75 89.8281C154.625 90.4115 154.531 90.8021 154.469 91L152 98.2969H158.344ZM143.781 107L152.484 84.125H158.078L166.906 107H161.344L159.484 102.141H150.625L149.031 107H143.781Z" fill="white"/>
<path d="M27 160H15C10.5817 160 7 156.418 7 152V94V28" stroke="white" stroke-width="1.5"/>
<circle cx="7" cy="21" r="6.25" stroke="white" stroke-width="1.5"/>
<rect x="25" y="136" width="274" height="65" rx="10" fill="#002A61"/>
<path d="M48.378 166H49.926L51.672 156.82H51.708L56.064 166.558L60.438 156.82H60.474L62.22 166H63.768L61.014 151.654L56.064 163.048L51.132 151.654L48.378 166ZM69.0147 158.638C70.7967 158.638 71.8587 160.006 71.8587 161.698C71.8587 163.408 70.8867 164.902 69.0327 164.902C67.2327 164.902 66.2607 163.336 66.2607 161.68C66.2607 160.096 67.3407 158.638 69.0147 158.638ZM73.2267 157.54H71.7867V158.746H71.7507C71.0487 157.846 70.0047 157.306 68.8527 157.306C66.3147 157.306 64.7847 159.376 64.7847 161.788C64.7847 164.128 66.3507 166.234 68.8347 166.234C70.0227 166.234 71.0127 165.766 71.7507 164.83H71.7867V166H73.2267V157.54ZM77.3334 157.54H75.8934V166H77.3334V161.986C77.3334 160.474 77.4594 158.638 79.4394 158.638C81.1134 158.638 81.2214 159.862 81.2214 161.23V166H82.6614V160.978C82.6614 158.998 82.1214 157.306 79.7814 157.306C78.7374 157.306 77.9634 157.756 77.3694 158.566H77.3334V157.54ZM92.7652 162.076C92.9092 159.556 91.4692 157.306 88.7512 157.306C86.1052 157.306 84.6472 159.376 84.6472 161.878C84.6472 164.308 86.2672 166.234 88.7872 166.234C90.5152 166.234 91.8832 165.37 92.6932 163.858L91.4692 163.156C90.9112 164.164 90.1192 164.902 88.8952 164.902C87.2572 164.902 86.1412 163.642 86.1232 162.076H92.7652ZM86.1952 160.852C86.3752 159.628 87.5272 158.638 88.7692 158.638C90.0292 158.638 91.0552 159.628 91.2532 160.852H86.1952ZM96.4471 157.54H95.0071V170.752H96.4471V157.54ZM95.7271 153.328C95.1691 153.328 94.7011 153.796 94.7011 154.354C94.7011 154.93 95.1691 155.38 95.7271 155.38C96.2851 155.38 96.7531 154.93 96.7531 154.354C96.7531 153.796 96.2851 153.328 95.7271 153.328ZM102.958 158.638C104.74 158.638 105.802 160.006 105.802 161.698C105.802 163.408 104.83 164.902 102.976 164.902C101.176 164.902 100.204 163.336 100.204 161.68C100.204 160.096 101.284 158.638 102.958 158.638ZM107.17 157.54H105.73V158.746H105.694C104.992 157.846 103.948 157.306 102.796 157.306C100.258 157.306 98.7281 159.376 98.7281 161.788C98.7281 164.128 100.294 166.234 102.778 166.234C103.966 166.234 104.956 165.766 105.694 164.83H105.73V166H107.17V157.54ZM118.758 159.484V166H115.5V159.484H114.42V156.766H115.5V153.994H118.758V156.766H120.612V159.484H118.758ZM125.095 156.766V161.968C125.095 163.108 125.647 163.678 126.751 163.678C127.855 163.678 128.407 163.108 128.407 161.968V156.766H131.665V162.598C131.665 163.846 131.251 164.782 130.423 165.406C129.607 166.03 128.383 166.342 126.751 166.342C125.119 166.342 123.889 166.03 123.061 165.406C122.245 164.782 121.837 163.846 121.837 162.598V156.766H125.095ZM139.998 159.142C139.398 158.83 138.81 158.674 138.234 158.674C137.934 158.674 137.688 158.734 137.496 158.854C137.316 158.974 137.226 159.136 137.226 159.34C137.226 159.448 137.238 159.538 137.262 159.61C137.298 159.67 137.364 159.73 137.46 159.79C137.568 159.85 137.718 159.904 137.91 159.952C138.114 160 138.378 160.06 138.702 160.132C139.602 160.312 140.274 160.636 140.718 161.104C141.162 161.56 141.384 162.148 141.384 162.868C141.384 163.408 141.276 163.894 141.06 164.326C140.844 164.758 140.544 165.124 140.16 165.424C139.776 165.712 139.314 165.934 138.774 166.09C138.234 166.258 137.64 166.342 136.992 166.342C135.744 166.342 134.514 165.988 133.302 165.28L134.49 162.976C135.402 163.6 136.266 163.912 137.082 163.912C137.382 163.912 137.628 163.846 137.82 163.714C138.012 163.582 138.108 163.414 138.108 163.21C138.108 163.09 138.09 162.994 138.054 162.922C138.03 162.838 137.97 162.766 137.874 162.706C137.778 162.634 137.634 162.574 137.442 162.526C137.262 162.466 137.022 162.406 136.722 162.346C135.714 162.142 135.006 161.842 134.598 161.446C134.202 161.038 134.004 160.48 134.004 159.772C134.004 159.256 134.1 158.794 134.292 158.386C134.484 157.966 134.76 157.612 135.12 157.324C135.48 157.036 135.912 156.814 136.416 156.658C136.932 156.502 137.502 156.424 138.126 156.424C139.146 156.424 140.136 156.622 141.096 157.018L139.998 159.142ZM156.119 159.754C155.555 159.37 154.985 159.178 154.409 159.178C154.097 159.178 153.803 159.232 153.527 159.34C153.263 159.448 153.029 159.604 152.825 159.808C152.621 160 152.459 160.234 152.339 160.51C152.231 160.774 152.177 161.074 152.177 161.41C152.177 161.734 152.231 162.034 152.339 162.31C152.459 162.574 152.615 162.808 152.807 163.012C153.011 163.204 153.251 163.354 153.527 163.462C153.803 163.57 154.097 163.624 154.409 163.624C155.021 163.624 155.591 163.414 156.119 162.994V165.766C155.315 166.114 154.553 166.288 153.833 166.288C153.161 166.288 152.519 166.174 151.907 165.946C151.307 165.718 150.773 165.394 150.305 164.974C149.849 164.542 149.483 164.032 149.207 163.444C148.931 162.844 148.793 162.178 148.793 161.446C148.793 160.714 148.925 160.048 149.189 159.448C149.453 158.836 149.813 158.314 150.269 157.882C150.725 157.438 151.265 157.096 151.889 156.856C152.525 156.604 153.203 156.478 153.923 156.478C154.715 156.478 155.447 156.646 156.119 156.982V159.754ZM161.235 156.766V161.968C161.235 163.108 161.787 163.678 162.891 163.678C163.995 163.678 164.547 163.108 164.547 161.968V156.766H167.805V162.598C167.805 163.846 167.391 164.782 166.563 165.406C165.747 166.03 164.523 166.342 162.891 166.342C161.259 166.342 160.029 166.03 159.201 165.406C158.385 164.782 157.977 163.846 157.977 162.598V156.766H161.235ZM176.768 160.042C176.66 159.586 176.438 159.22 176.102 158.944C175.766 158.668 175.358 158.53 174.878 158.53C174.374 158.53 173.96 158.662 173.636 158.926C173.324 159.19 173.126 159.562 173.042 160.042H176.768ZM172.952 161.932C172.952 163.336 173.612 164.038 174.932 164.038C175.64 164.038 176.174 163.75 176.534 163.174H179.684C179.048 165.286 177.458 166.342 174.914 166.342C174.134 166.342 173.42 166.228 172.772 166C172.124 165.76 171.566 165.424 171.098 164.992C170.642 164.56 170.288 164.044 170.036 163.444C169.784 162.844 169.658 162.172 169.658 161.428C169.658 160.66 169.778 159.97 170.018 159.358C170.258 158.734 170.6 158.206 171.044 157.774C171.488 157.342 172.022 157.012 172.646 156.784C173.282 156.544 173.996 156.424 174.788 156.424C175.568 156.424 176.27 156.544 176.894 156.784C177.518 157.012 178.046 157.348 178.478 157.792C178.91 158.236 179.24 158.782 179.468 159.43C179.696 160.066 179.81 160.786 179.81 161.59V161.932H172.952ZM181.673 156.766H184.931V157.936C185.375 157.396 185.825 157.036 186.281 156.856C186.737 156.664 187.271 156.568 187.883 156.568C188.531 156.568 189.083 156.676 189.539 156.892C190.007 157.096 190.403 157.39 190.727 157.774C190.991 158.086 191.171 158.434 191.267 158.818C191.363 159.202 191.411 159.64 191.411 160.132V166H188.153V161.338C188.153 160.882 188.117 160.516 188.045 160.24C187.985 159.952 187.871 159.724 187.703 159.556C187.559 159.412 187.397 159.31 187.217 159.25C187.037 159.19 186.845 159.16 186.641 159.16C186.089 159.16 185.663 159.328 185.363 159.664C185.075 159.988 184.931 160.456 184.931 161.068V166H181.673V156.766ZM197.262 159.484V166H194.004V159.484H192.924V156.766H194.004V153.994H197.262V156.766H199.116V159.484H197.262ZM203.54 161.356C203.54 161.656 203.594 161.938 203.702 162.202C203.81 162.454 203.954 162.676 204.134 162.868C204.326 163.06 204.548 163.21 204.8 163.318C205.064 163.426 205.346 163.48 205.646 163.48C205.934 163.48 206.204 163.426 206.456 163.318C206.72 163.21 206.942 163.06 207.122 162.868C207.314 162.676 207.464 162.454 207.572 162.202C207.692 161.95 207.752 161.68 207.752 161.392C207.752 161.104 207.692 160.834 207.572 160.582C207.464 160.318 207.314 160.09 207.122 159.898C206.942 159.706 206.72 159.556 206.456 159.448C206.204 159.34 205.934 159.286 205.646 159.286C205.346 159.286 205.064 159.34 204.8 159.448C204.548 159.556 204.326 159.706 204.134 159.898C203.954 160.09 203.81 160.312 203.702 160.564C203.594 160.804 203.54 161.068 203.54 161.356ZM207.644 156.766H210.92V166H207.644V164.974C206.948 165.85 206.006 166.288 204.818 166.288C204.146 166.288 203.528 166.168 202.964 165.928C202.4 165.676 201.908 165.328 201.488 164.884C201.068 164.44 200.738 163.918 200.498 163.318C200.27 162.718 200.156 162.064 200.156 161.356C200.156 160.696 200.27 160.072 200.498 159.484C200.726 158.884 201.044 158.362 201.452 157.918C201.86 157.474 202.346 157.126 202.91 156.874C203.474 156.61 204.098 156.478 204.782 156.478C205.934 156.478 206.888 156.88 207.644 157.684V156.766ZM219.257 159.142C218.657 158.83 218.069 158.674 217.493 158.674C217.193 158.674 216.947 158.734 216.755 158.854C216.575 158.974 216.485 159.136 216.485 159.34C216.485 159.448 216.497 159.538 216.521 159.61C216.557 159.67 216.623 159.73 216.719 159.79C216.827 159.85 216.977 159.904 217.169 159.952C217.373 160 217.637 160.06 217.961 160.132C218.861 160.312 219.533 160.636 219.977 161.104C220.421 161.56 220.643 162.148 220.643 162.868C220.643 163.408 220.535 163.894 220.319 164.326C220.103 164.758 219.803 165.124 219.419 165.424C219.035 165.712 218.573 165.934 218.033 166.09C217.493 166.258 216.899 166.342 216.251 166.342C215.003 166.342 213.773 165.988 212.561 165.28L213.749 162.976C214.661 163.6 215.525 163.912 216.341 163.912C216.641 163.912 216.887 163.846 217.079 163.714C217.271 163.582 217.367 163.414 217.367 163.21C217.367 163.09 217.349 162.994 217.313 162.922C217.289 162.838 217.229 162.766 217.133 162.706C217.037 162.634 216.893 162.574 216.701 162.526C216.521 162.466 216.281 162.406 215.981 162.346C214.973 162.142 214.265 161.842 213.857 161.446C213.461 161.038 213.263 160.48 213.263 159.772C213.263 159.256 213.359 158.794 213.551 158.386C213.743 157.966 214.019 157.612 214.379 157.324C214.739 157.036 215.171 156.814 215.675 156.658C216.191 156.502 216.761 156.424 217.385 156.424C218.405 156.424 219.395 156.622 220.355 157.018L219.257 159.142ZM231.595 158.638C233.377 158.638 234.439 160.006 234.439 161.698C234.439 163.408 233.467 164.902 231.613 164.902C229.813 164.902 228.841 163.336 228.841 161.68C228.841 160.096 229.921 158.638 231.595 158.638ZM234.367 166H235.807V151.15H234.367V158.746H234.331C233.647 157.846 232.567 157.306 231.433 157.306C228.895 157.306 227.365 159.376 227.365 161.788C227.365 164.128 228.931 166.234 231.415 166.234C232.567 166.234 233.629 165.748 234.331 164.83H234.367V166ZM245.835 162.076C245.979 159.556 244.539 157.306 241.821 157.306C239.175 157.306 237.717 159.376 237.717 161.878C237.717 164.308 239.337 166.234 241.857 166.234C243.585 166.234 244.953 165.37 245.763 163.858L244.539 163.156C243.981 164.164 243.189 164.902 241.965 164.902C240.327 164.902 239.211 163.642 239.193 162.076H245.835ZM239.265 160.852C239.445 159.628 240.597 158.638 241.839 158.638C243.099 158.638 244.125 159.628 244.323 160.852H239.265ZM252.433 158.872C252.055 157.99 251.155 157.306 250.183 157.306C248.815 157.306 247.663 158.278 247.663 159.7C247.663 162.364 251.479 161.716 251.479 163.606C251.479 164.38 250.885 164.902 250.111 164.902C249.157 164.902 248.743 164.344 248.383 163.552L247.105 164.092C247.555 165.424 248.671 166.234 250.093 166.234C251.659 166.234 252.955 165.082 252.955 163.48C252.955 162.058 251.983 161.464 250.993 161.05C250.003 160.636 249.031 160.348 249.031 159.574C249.031 159.034 249.571 158.638 250.075 158.638C250.597 158.638 251.029 159.052 251.227 159.502L252.433 158.872ZM258.507 158.638C260.289 158.638 261.351 160.006 261.351 161.698C261.351 163.408 260.379 164.902 258.525 164.902C256.725 164.902 255.753 163.336 255.753 161.68C255.753 160.096 256.833 158.638 258.507 158.638ZM261.279 166H262.719V151.15H261.279V158.746H261.243C260.559 157.846 259.479 157.306 258.345 157.306C255.807 157.306 254.277 159.376 254.277 161.788C254.277 164.128 255.843 166.234 258.327 166.234C259.479 166.234 260.541 165.748 261.243 164.83H261.279V166ZM272.748 162.076C272.892 159.556 271.452 157.306 268.734 157.306C266.088 157.306 264.63 159.376 264.63 161.878C264.63 164.308 266.25 166.234 268.77 166.234C270.498 166.234 271.866 165.37 272.676 163.858L271.452 163.156C270.894 164.164 270.102 164.902 268.878 164.902C267.24 164.902 266.124 163.642 266.106 162.076H272.748ZM266.178 160.852C266.358 159.628 267.51 158.638 268.752 158.638C270.012 158.638 271.038 159.628 271.236 160.852H266.178ZM50.772 171.15H49.332V186H50.772V171.15ZM56.9561 178.638C58.7381 178.638 59.8001 180.006 59.8001 181.698C59.8001 183.408 58.8281 184.902 56.9741 184.902C55.1741 184.902 54.2021 183.336 54.2021 181.68C54.2021 180.096 55.2821 178.638 56.9561 178.638ZM61.1681 177.54H59.7281V178.746H59.6921C58.9901 177.846 57.9461 177.306 56.7941 177.306C54.2561 177.306 52.7261 179.376 52.7261 181.788C52.7261 184.128 54.2921 186.234 56.7761 186.234C57.9641 186.234 58.9541 185.766 59.6921 184.83H59.7281V186H61.1681V177.54ZM75.6539 178.152C74.8979 177.612 73.9619 177.306 73.0439 177.306C70.5599 177.306 68.5259 179.25 68.5259 181.77C68.5259 184.326 70.4699 186.234 73.0259 186.234C74.0339 186.234 74.8799 185.928 75.7079 185.37V183.444H75.6719C74.9699 184.362 74.1239 184.902 72.9179 184.902C71.1539 184.902 70.0019 183.444 70.0019 181.77C70.0019 180.078 71.2439 178.638 72.9899 178.638C74.1239 178.638 74.9519 179.214 75.6179 180.06H75.6539V178.152ZM81.6225 186.234C84.0885 186.234 86.0685 184.272 86.0685 181.788C86.0685 179.304 84.1065 177.306 81.6225 177.306C79.1385 177.306 77.1765 179.304 77.1765 181.788C77.1765 184.272 79.1565 186.234 81.6225 186.234ZM81.6225 178.638C83.4045 178.638 84.6285 180.06 84.6285 181.77C84.6285 183.498 83.4045 184.902 81.6225 184.902C79.8405 184.902 78.6165 183.498 78.6165 181.77C78.6165 180.06 79.8405 178.638 81.6225 178.638ZM89.4799 177.54H88.0399V186H89.4799V181.626C89.4799 180.348 89.6599 178.638 91.3519 178.638C92.7379 178.638 92.8639 180.15 92.8639 181.194V186H94.3039V181.518C94.3039 180.24 94.4839 178.638 96.1399 178.638C97.6159 178.638 97.6879 179.988 97.6879 181.086V186H99.1279V180.852C99.1279 179.07 98.5879 177.306 96.4279 177.306C95.4019 177.306 94.3939 177.774 93.8899 178.71C93.4399 177.828 92.5399 177.306 91.5499 177.306C90.6859 177.306 89.9659 177.756 89.5159 178.458H89.4799V177.54ZM105.546 186.234C108.012 186.234 109.992 184.272 109.992 181.788C109.992 179.304 108.03 177.306 105.546 177.306C103.062 177.306 101.1 179.304 101.1 181.788C101.1 184.272 103.08 186.234 105.546 186.234ZM105.546 178.638C107.328 178.638 108.552 180.06 108.552 181.77C108.552 183.498 107.328 184.902 105.546 184.902C103.764 184.902 102.54 183.498 102.54 181.77C102.54 180.06 103.764 178.638 105.546 178.638ZM115.474 178.638C117.256 178.638 118.318 180.006 118.318 181.698C118.318 183.408 117.346 184.902 115.492 184.902C113.692 184.902 112.72 183.336 112.72 181.68C112.72 180.096 113.8 178.638 115.474 178.638ZM118.246 186H119.686V171.15H118.246V178.746H118.21C117.526 177.846 116.446 177.306 115.312 177.306C112.774 177.306 111.244 179.376 111.244 181.788C111.244 184.128 112.81 186.234 115.294 186.234C116.446 186.234 117.508 185.748 118.21 184.83H118.246V186ZM124.062 177.54H122.622V186H124.062V177.54ZM123.342 173.328C122.784 173.328 122.316 173.796 122.316 174.354C122.316 174.93 122.784 175.38 123.342 175.38C123.9 175.38 124.368 174.93 124.368 174.354C124.368 173.796 123.9 173.328 123.342 173.328ZM130.573 178.638C132.355 178.638 133.417 180.006 133.417 181.698C133.417 183.408 132.445 184.902 130.591 184.902C128.791 184.902 127.819 183.336 127.819 181.68C127.819 180.096 128.899 178.638 130.573 178.638ZM133.345 186H134.785V171.15H133.345V178.746H133.309C132.625 177.846 131.545 177.306 130.411 177.306C127.873 177.306 126.343 179.376 126.343 181.788C126.343 184.128 127.909 186.234 130.393 186.234C131.545 186.234 132.607 185.748 133.309 184.83H133.345V186ZM140.962 178.638C142.744 178.638 143.806 180.006 143.806 181.698C143.806 183.408 142.834 184.902 140.98 184.902C139.18 184.902 138.208 183.336 138.208 181.68C138.208 180.096 139.288 178.638 140.962 178.638ZM145.174 177.54H143.734V178.746H143.698C142.996 177.846 141.952 177.306 140.8 177.306C138.262 177.306 136.732 179.376 136.732 181.788C136.732 184.128 138.298 186.234 140.782 186.234C141.97 186.234 142.96 185.766 143.698 184.83H143.734V186H145.174V177.54ZM151.351 178.638C153.133 178.638 154.195 180.006 154.195 181.698C154.195 183.408 153.223 184.902 151.369 184.902C149.569 184.902 148.597 183.336 148.597 181.68C148.597 180.096 149.677 178.638 151.351 178.638ZM154.123 186H155.563V171.15H154.123V178.746H154.087C153.403 177.846 152.323 177.306 151.189 177.306C148.651 177.306 147.121 179.376 147.121 181.788C147.121 184.128 148.687 186.234 151.171 186.234C152.323 186.234 153.385 185.748 154.087 184.83H154.123V186ZM167.276 178.638C169.058 178.638 170.12 180.006 170.12 181.698C170.12 183.408 169.148 184.902 167.294 184.902C165.494 184.902 164.522 183.336 164.522 181.68C164.522 180.096 165.602 178.638 167.276 178.638ZM170.048 186H171.488V171.15H170.048V178.746H170.012C169.328 177.846 168.248 177.306 167.114 177.306C164.576 177.306 163.046 179.376 163.046 181.788C163.046 184.128 164.612 186.234 167.096 186.234C168.248 186.234 169.31 185.748 170.012 184.83H170.048V186ZM181.517 182.076C181.661 179.556 180.221 177.306 177.503 177.306C174.857 177.306 173.399 179.376 173.399 181.878C173.399 184.308 175.019 186.234 177.539 186.234C179.267 186.234 180.635 185.37 181.445 183.858L180.221 183.156C179.663 184.164 178.871 184.902 177.647 184.902C176.009 184.902 174.893 183.642 174.875 182.076H181.517ZM174.947 180.852C175.127 179.628 176.279 178.638 177.521 178.638C178.781 178.638 179.807 179.628 180.005 180.852H174.947ZM192.41 179.484V186H189.152V179.484H188.072V176.766H189.152V173.994H192.41V176.766H194.264V179.484H192.41ZM198.747 176.766V181.968C198.747 183.108 199.299 183.678 200.403 183.678C201.507 183.678 202.059 183.108 202.059 181.968V176.766H205.317V182.598C205.317 183.846 204.903 184.782 204.075 185.406C203.259 186.03 202.035 186.342 200.403 186.342C198.771 186.342 197.541 186.03 196.713 185.406C195.897 184.782 195.489 183.846 195.489 182.598V176.766H198.747ZM213.647 171.06H216.905V177.936C217.349 177.396 217.799 177.036 218.255 176.856C218.711 176.664 219.245 176.568 219.857 176.568C221.021 176.568 221.897 176.892 222.485 177.54C223.085 178.176 223.385 179.04 223.385 180.132V186H220.127V181.338C220.127 180.87 220.091 180.492 220.019 180.204C219.947 179.916 219.827 179.694 219.659 179.538C219.371 179.286 219.023 179.16 218.615 179.16C218.063 179.16 217.637 179.328 217.337 179.664C217.049 179.988 216.905 180.456 216.905 181.068V186H213.647V171.06ZM228.678 181.338C228.678 181.65 228.732 181.938 228.84 182.202C228.96 182.454 229.11 182.676 229.29 182.868C229.482 183.06 229.704 183.21 229.956 183.318C230.22 183.426 230.496 183.48 230.784 183.48C231.072 183.48 231.342 183.426 231.594 183.318C231.858 183.21 232.08 183.06 232.26 182.868C232.452 182.676 232.602 182.454 232.71 182.202C232.83 181.938 232.89 181.656 232.89 181.356C232.89 181.068 232.83 180.798 232.71 180.546C232.602 180.282 232.452 180.054 232.26 179.862C232.08 179.67 231.858 179.52 231.594 179.412C231.342 179.304 231.072 179.25 230.784 179.25C230.496 179.25 230.22 179.304 229.956 179.412C229.704 179.52 229.482 179.67 229.29 179.862C229.11 180.054 228.96 180.276 228.84 180.528C228.732 180.78 228.678 181.05 228.678 181.338ZM225.24 181.302C225.24 180.618 225.378 179.982 225.654 179.394C225.93 178.794 226.314 178.278 226.806 177.846C227.298 177.402 227.88 177.054 228.552 176.802C229.236 176.55 229.98 176.424 230.784 176.424C231.576 176.424 232.308 176.55 232.98 176.802C233.664 177.042 234.252 177.384 234.744 177.828C235.248 178.26 235.638 178.782 235.914 179.394C236.19 179.994 236.328 180.66 236.328 181.392C236.328 182.124 236.184 182.796 235.896 183.408C235.62 184.008 235.236 184.53 234.744 184.974C234.252 185.406 233.658 185.742 232.962 185.982C232.278 186.222 231.534 186.342 230.73 186.342C229.938 186.342 229.206 186.222 228.534 185.982C227.862 185.742 227.28 185.4 226.788 184.956C226.308 184.512 225.93 183.984 225.654 183.372C225.378 182.748 225.24 182.058 225.24 181.302ZM241.228 181.338C241.228 181.638 241.282 181.92 241.39 182.184C241.498 182.436 241.642 182.658 241.822 182.85C242.014 183.042 242.236 183.192 242.488 183.3C242.752 183.408 243.034 183.462 243.334 183.462C243.622 183.462 243.892 183.408 244.144 183.3C244.408 183.192 244.63 183.042 244.81 182.85C245.002 182.658 245.152 182.436 245.26 182.184C245.38 181.92 245.44 181.644 245.44 181.356C245.44 181.056 245.38 180.78 245.26 180.528C245.152 180.276 245.002 180.054 244.81 179.862C244.618 179.67 244.39 179.52 244.126 179.412C243.874 179.304 243.61 179.25 243.334 179.25C243.046 179.25 242.776 179.31 242.524 179.43C242.272 179.538 242.05 179.688 241.858 179.88C241.666 180.06 241.51 180.276 241.39 180.528C241.282 180.78 241.228 181.05 241.228 181.338ZM248.536 176.766V185.37C248.536 185.886 248.506 186.348 248.446 186.756C248.386 187.164 248.302 187.524 248.194 187.836C248.05 188.232 247.822 188.598 247.51 188.934C247.21 189.282 246.844 189.582 246.412 189.834C245.98 190.086 245.488 190.284 244.936 190.428C244.396 190.572 243.808 190.644 243.172 190.644C242.452 190.644 241.792 190.554 241.192 190.374C240.592 190.194 240.064 189.942 239.608 189.618C239.164 189.306 238.798 188.934 238.51 188.502C238.222 188.082 238.03 187.62 237.934 187.116H241.606C241.834 187.728 242.35 188.034 243.154 188.034C243.838 188.034 244.36 187.842 244.72 187.458C245.092 187.074 245.278 186.54 245.278 185.856V184.974C245.038 185.202 244.804 185.394 244.576 185.55C244.36 185.694 244.138 185.814 243.91 185.91C243.682 186.006 243.442 186.072 243.19 186.108C242.938 186.156 242.662 186.18 242.362 186.18C241.702 186.18 241.096 186.066 240.544 185.838C239.992 185.61 239.512 185.292 239.104 184.884C238.708 184.476 238.396 183.99 238.168 183.426C237.952 182.85 237.844 182.214 237.844 181.518C237.844 180.81 237.964 180.156 238.204 179.556C238.444 178.944 238.768 178.416 239.176 177.972C239.596 177.516 240.088 177.162 240.652 176.91C241.228 176.646 241.852 176.514 242.524 176.514C243.616 176.514 244.534 176.922 245.278 177.738V176.766H248.536ZM253.972 181.356C253.972 181.656 254.026 181.938 254.134 182.202C254.242 182.454 254.386 182.676 254.566 182.868C254.758 183.06 254.98 183.21 255.232 183.318C255.496 183.426 255.778 183.48 256.078 183.48C256.366 183.48 256.636 183.426 256.888 183.318C257.152 183.21 257.374 183.06 257.554 182.868C257.746 182.676 257.896 182.454 258.004 182.202C258.124 181.95 258.184 181.68 258.184 181.392C258.184 181.104 258.124 180.834 258.004 180.582C257.896 180.318 257.746 180.09 257.554 179.898C257.374 179.706 257.152 179.556 256.888 179.448C256.636 179.34 256.366 179.286 256.078 179.286C255.778 179.286 255.496 179.34 255.232 179.448C254.98 179.556 254.758 179.706 254.566 179.898C254.386 180.09 254.242 180.312 254.134 180.564C254.026 180.804 253.972 181.068 253.972 181.356ZM258.076 176.766H261.352V186H258.076V184.974C257.38 185.85 256.438 186.288 255.25 186.288C254.578 186.288 253.96 186.168 253.396 185.928C252.832 185.676 252.34 185.328 251.92 184.884C251.5 184.44 251.17 183.918 250.93 183.318C250.702 182.718 250.588 182.064 250.588 181.356C250.588 180.696 250.702 180.072 250.93 179.484C251.158 178.884 251.476 178.362 251.884 177.918C252.292 177.474 252.778 177.126 253.342 176.874C253.906 176.61 254.53 176.478 255.214 176.478C256.366 176.478 257.32 176.88 258.076 177.684V176.766ZM263.569 176.766H266.827V178.278C267.175 177.726 267.601 177.306 268.105 177.018C268.609 176.718 269.197 176.568 269.869 176.568C269.953 176.568 270.043 176.568 270.139 176.568C270.247 176.568 270.367 176.58 270.499 176.604V179.718C270.067 179.502 269.599 179.394 269.095 179.394C268.339 179.394 267.769 179.622 267.385 180.078C267.013 180.522 266.827 181.176 266.827 182.04V186H263.569V176.766Z" fill="white"/>
</svg>
