<svg width="504" height="225" viewBox="0 0 504 225" fill="none" xmlns="http://www.w3.org/2000/svg">
<path d="M35.4844 18.4531H36.1875C37.5208 18.4531 38.4896 18.1771 39.0938 17.625C39.6979 17.0729 40 16.1875 40 14.9688C40 13.8438 39.6979 13.026 39.0938 12.5156C38.4896 11.9948 37.5208 11.7344 36.1875 11.7344H35.4844V18.4531ZM30.5625 31V8.125H36.1875C39.1875 8.125 41.401 8.69792 42.8281 9.84375C44.2656 10.9896 44.9844 12.7604 44.9844 15.1562C44.9844 17.375 44.2604 19.1146 42.8125 20.375C41.375 21.6354 39.3802 22.2656 36.8281 22.2656H35.4844V31H30.5625ZM64.9219 31H59.2812L53.2656 20.3125V31H48.375V8.125H55.375C58.1562 8.125 60.2396 8.66667 61.625 9.75C63.0104 10.8229 63.7031 12.4427 63.7031 14.6094C63.7031 16.1823 63.2292 17.526 62.2812 18.6406C61.3333 19.7552 60.1094 20.4062 58.6094 20.5938L64.9219 31ZM53.2656 17.875H54C55.9792 17.875 57.2865 17.6615 57.9219 17.2344C58.5573 16.7969 58.875 16.0417 58.875 14.9688C58.875 13.8438 58.5312 13.0469 57.8438 12.5781C57.1667 12.099 55.8854 11.8594 54 11.8594H53.2656V17.875ZM91.2031 19.6094C91.2031 21.2448 90.8958 22.7917 90.2812 24.25C89.6771 25.7083 88.8021 26.9896 87.6562 28.0938C86.4688 29.2292 85.1302 30.099 83.6406 30.7031C82.151 31.3073 80.6094 31.6094 79.0156 31.6094C77.6198 31.6094 76.25 31.375 74.9062 30.9062C73.5729 30.4271 72.349 29.7448 71.2344 28.8594C69.7969 27.7135 68.6927 26.3438 67.9219 24.75C67.1615 23.1562 66.7812 21.4427 66.7812 19.6094C66.7812 17.9635 67.0833 16.4219 67.6875 14.9844C68.2917 13.5365 69.1771 12.25 70.3438 11.125C71.4896 10.0104 72.8177 9.14583 74.3281 8.53125C75.849 7.91667 77.4115 7.60938 79.0156 7.60938C80.6094 7.60938 82.1562 7.91667 83.6562 8.53125C85.1667 9.14583 86.5 10.0104 87.6562 11.125C88.8125 12.25 89.6927 13.5365 90.2969 14.9844C90.901 16.4323 91.2031 17.974 91.2031 19.6094ZM79.0156 27.25C81.0885 27.25 82.7969 26.526 84.1406 25.0781C85.4948 23.6198 86.1719 21.7969 86.1719 19.6094C86.1719 17.4427 85.4896 15.6198 84.125 14.1406C82.7604 12.6615 81.0573 11.9219 79.0156 11.9219C76.9427 11.9219 75.224 12.6615 73.8594 14.1406C72.4948 15.6094 71.8125 17.4323 71.8125 19.6094C71.8125 21.8177 72.4844 23.6458 73.8281 25.0938C75.1719 26.5312 76.901 27.25 79.0156 27.25ZM100.234 26.875H102.953C105.516 26.875 107.38 26.2917 108.547 25.125C109.724 23.9583 110.312 22.1094 110.312 19.5781C110.312 17.0573 109.724 15.2135 108.547 14.0469C107.38 12.8698 105.516 12.2812 102.953 12.2812H100.234V26.875ZM95.3438 31V8.125H101.578C104.036 8.125 105.974 8.29688 107.391 8.64062C108.807 8.98438 110.052 9.55729 111.125 10.3594C112.51 11.3906 113.557 12.6927 114.266 14.2656C114.984 15.8281 115.344 17.6094 115.344 19.6094C115.344 21.6406 114.979 23.4427 114.25 25.0156C113.521 26.5781 112.453 27.8698 111.047 28.8906C110.005 29.6406 108.844 30.1823 107.562 30.5156C106.292 30.8385 104.427 31 101.969 31H100.234H95.3438ZM139.109 8.125V22.3594C139.109 25.4635 138.292 27.7812 136.656 29.3125C135.021 30.8438 132.557 31.6094 129.266 31.6094C125.922 31.6094 123.432 30.8438 121.797 29.3125C120.161 27.7812 119.344 25.4635 119.344 22.3594V8.125H124.203V21.5938C124.203 23.4792 124.62 24.901 125.453 25.8594C126.286 26.8073 127.531 27.2812 129.188 27.2812C130.854 27.2812 132.115 26.8021 132.969 25.8438C133.823 24.8854 134.25 23.4688 134.25 21.5938V8.125H139.109ZM162.609 14.0781C161.62 13.1927 160.604 12.5469 159.562 12.1406C158.521 11.724 157.406 11.5156 156.219 11.5156C153.781 11.5156 151.839 12.2448 150.391 13.7031C148.943 15.1615 148.219 17.1198 148.219 19.5781C148.219 21.9844 148.891 23.8958 150.234 25.3125C151.578 26.7188 153.411 27.4219 155.734 27.4219C157.057 27.4219 158.286 27.2031 159.422 26.7656C160.557 26.3177 161.609 25.651 162.578 24.7656L162.547 29.7812C161.505 30.3958 160.411 30.8542 159.266 31.1562C158.13 31.4583 156.932 31.6094 155.672 31.6094C152.026 31.6094 149.031 30.4792 146.688 28.2188C144.354 25.9479 143.188 23.0677 143.188 19.5781C143.188 16.099 144.359 13.2292 146.703 10.9688C149.047 8.70833 152.068 7.57812 155.766 7.57812C157.005 7.57812 158.203 7.70833 159.359 7.96875C160.516 8.22917 161.656 8.63021 162.781 9.17188L162.609 14.0781ZM175.703 12.2812V31H170.797V12.2812H165.203V8.125H181.328V12.2812H175.703ZM207.359 19.6094C207.359 21.2448 207.052 22.7917 206.438 24.25C205.833 25.7083 204.958 26.9896 203.812 28.0938C202.625 29.2292 201.286 30.099 199.797 30.7031C198.307 31.3073 196.766 31.6094 195.172 31.6094C193.776 31.6094 192.406 31.375 191.062 30.9062C189.729 30.4271 188.505 29.7448 187.391 28.8594C185.953 27.7135 184.849 26.3438 184.078 24.75C183.318 23.1562 182.938 21.4427 182.938 19.6094C182.938 17.9635 183.24 16.4219 183.844 14.9844C184.448 13.5365 185.333 12.25 186.5 11.125C187.646 10.0104 188.974 9.14583 190.484 8.53125C192.005 7.91667 193.568 7.60938 195.172 7.60938C196.766 7.60938 198.312 7.91667 199.812 8.53125C201.323 9.14583 202.656 10.0104 203.812 11.125C204.969 12.25 205.849 13.5365 206.453 14.9844C207.057 16.4323 207.359 17.974 207.359 19.6094ZM195.172 27.25C197.245 27.25 198.953 26.526 200.297 25.0781C201.651 23.6198 202.328 21.7969 202.328 19.6094C202.328 17.4427 201.646 15.6198 200.281 14.1406C198.917 12.6615 197.214 11.9219 195.172 11.9219C193.099 11.9219 191.38 12.6615 190.016 14.1406C188.651 15.6094 187.969 17.4323 187.969 19.6094C187.969 21.8177 188.641 23.6458 189.984 25.0938C191.328 26.5312 193.057 27.25 195.172 27.25ZM226.234 26.875H228.953C231.516 26.875 233.38 26.2917 234.547 25.125C235.724 23.9583 236.312 22.1094 236.312 19.5781C236.312 17.0573 235.724 15.2135 234.547 14.0469C233.38 12.8698 231.516 12.2812 228.953 12.2812H226.234V26.875ZM221.344 31V8.125H227.578C230.036 8.125 231.974 8.29688 233.391 8.64062C234.807 8.98438 236.052 9.55729 237.125 10.3594C238.51 11.3906 239.557 12.6927 240.266 14.2656C240.984 15.8281 241.344 17.6094 241.344 19.6094C241.344 21.6406 240.979 23.4427 240.25 25.0156C239.521 26.5781 238.453 27.8698 237.047 28.8906C236.005 29.6406 234.844 30.1823 233.562 30.5156C232.292 30.8385 230.427 31 227.969 31H226.234H221.344ZM245.438 31V8.125H258.906V12.25H250.328V16.9531H258.906V21.1094H250.328V26.8438H258.906V31H245.438ZM30.5625 69V46.125H44.0312V50.25H35.4531V54.9531H44.0312V59.1094H35.4531V69H30.5625ZM47.9062 69V46.125H52.7969V69H47.9062ZM58.0312 69V46.125H63.1094L73.2344 59.4375C73.526 59.8125 73.8438 60.3438 74.1875 61.0312C74.5417 61.7083 74.9062 62.5104 75.2812 63.4375C75.1667 62.7604 75.0833 62.0885 75.0312 61.4219C74.9792 60.7552 74.9531 59.9219 74.9531 58.9219V46.125H79.625V69H74.8281L64.4219 55.4375C64.1302 55.0625 63.8125 54.5365 63.4688 53.8594C63.125 53.1719 62.7604 52.3542 62.375 51.4062C62.4896 52.0625 62.5729 52.7292 62.625 53.4062C62.6771 54.0729 62.7031 54.9167 62.7031 55.9375V69H58.0312ZM96.5625 60.2969L94 52.9062C93.9271 52.6875 93.8333 52.3125 93.7188 51.7812C93.6042 51.25 93.4844 50.599 93.3594 49.8281C93.224 50.5677 93.0938 51.2344 92.9688 51.8281C92.8438 52.4115 92.75 52.8021 92.6875 53L90.2188 60.2969H96.5625ZM82 69L90.7031 46.125H96.2969L105.125 69H99.5625L97.7031 64.1406H88.8438L87.25 69H82ZM107.531 69V46.125H112.609L122.734 59.4375C123.026 59.8125 123.344 60.3438 123.688 61.0312C124.042 61.7083 124.406 62.5104 124.781 63.4375C124.667 62.7604 124.583 62.0885 124.531 61.4219C124.479 60.7552 124.453 59.9219 124.453 58.9219V46.125H129.125V69H124.328L113.922 55.4375C113.63 55.0625 113.312 54.5365 112.969 53.8594C112.625 53.1719 112.26 52.3542 111.875 51.4062C111.99 52.0625 112.073 52.7292 112.125 53.4062C112.177 54.0729 112.203 54.9167 112.203 55.9375V69H107.531ZM152.641 52.0781C151.651 51.1927 150.635 50.5469 149.594 50.1406C148.552 49.724 147.438 49.5156 146.25 49.5156C143.812 49.5156 141.87 50.2448 140.422 51.7031C138.974 53.1615 138.25 55.1198 138.25 57.5781C138.25 59.9844 138.922 61.8958 140.266 63.3125C141.609 64.7188 143.443 65.4219 145.766 65.4219C147.089 65.4219 148.318 65.2031 149.453 64.7656C150.589 64.3177 151.641 63.651 152.609 62.7656L152.578 67.7812C151.536 68.3958 150.443 68.8542 149.297 69.1562C148.161 69.4583 146.964 69.6094 145.703 69.6094C142.057 69.6094 139.062 68.4792 136.719 66.2188C134.385 63.9479 133.219 61.0677 133.219 57.5781C133.219 54.099 134.391 51.2292 136.734 48.9688C139.078 46.7083 142.099 45.5781 145.797 45.5781C147.036 45.5781 148.234 45.7083 149.391 45.9688C150.547 46.2292 151.688 46.6302 152.812 47.1719L152.641 52.0781ZM157.281 69V46.125H162.172V69H157.281ZM179.25 60.2969L176.688 52.9062C176.615 52.6875 176.521 52.3125 176.406 51.7812C176.292 51.25 176.172 50.599 176.047 49.8281C175.911 50.5677 175.781 51.2344 175.656 51.8281C175.531 52.4115 175.438 52.8021 175.375 53L172.906 60.2969H179.25ZM164.688 69L173.391 46.125H178.984L187.812 69H182.25L180.391 64.1406H171.531L169.938 69H164.688ZM188.234 69L191.719 46.125H196.844L201.25 59.5938C201.344 59.875 201.443 60.2865 201.547 60.8281C201.661 61.3698 201.766 61.9896 201.859 62.6875C201.943 61.9792 202.036 61.349 202.141 60.7969C202.245 60.2344 202.344 59.8229 202.438 59.5625L206.922 46.125H211.969L215.469 69H210.828L209.156 55.2031C209.031 54.1823 208.948 53.4115 208.906 52.8906C208.865 52.3698 208.844 51.8854 208.844 51.4375C208.844 51.1979 208.844 51.0208 208.844 50.9062C208.854 50.7812 208.865 50.6719 208.875 50.5781C208.719 51.474 208.568 52.25 208.422 52.9062C208.286 53.5521 208.161 54.0417 208.047 54.375L203.203 69H200.453L195.688 54.375C195.646 54.2396 195.552 53.8646 195.406 53.25C195.271 52.6354 195.078 51.7396 194.828 50.5625V51.2344C194.828 52.2969 194.734 53.599 194.547 55.1406L194.531 55.2031L192.875 69H188.234ZM218.75 69V46.125H223.641V69H218.75ZM228.875 69V46.125H242.344V50.25H233.766V54.9531H242.344V59.1094H233.766V64.8438H242.344V69H228.875ZM247.156 69V46.125H252.234L262.359 59.4375C262.651 59.8125 262.969 60.3438 263.312 61.0312C263.667 61.7083 264.031 62.5104 264.406 63.4375C264.292 62.7604 264.208 62.0885 264.156 61.4219C264.104 60.7552 264.078 59.9219 264.078 58.9219V46.125H268.75V69H263.953L253.547 55.4375C253.255 55.0625 252.938 54.5365 252.594 53.8594C252.25 53.1719 251.885 52.3542 251.5 51.4062C251.615 52.0625 251.698 52.7292 251.75 53.4062C251.802 54.0729 251.828 54.9167 251.828 55.9375V69H247.156ZM282.391 50.2812V69H277.484V50.2812H271.891V46.125H288.016V50.2812H282.391ZM314.047 57.6094C314.047 59.2448 313.74 60.7917 313.125 62.25C312.521 63.7083 311.646 64.9896 310.5 66.0938C309.312 67.2292 307.974 68.099 306.484 68.7031C304.995 69.3073 303.453 69.6094 301.859 69.6094C300.464 69.6094 299.094 69.375 297.75 68.9062C296.417 68.4271 295.193 67.7448 294.078 66.8594C292.641 65.7135 291.536 64.3438 290.766 62.75C290.005 61.1562 289.625 59.4427 289.625 57.6094C289.625 55.9635 289.927 54.4219 290.531 52.9844C291.135 51.5365 292.021 50.25 293.188 49.125C294.333 48.0104 295.661 47.1458 297.172 46.5312C298.693 45.9167 300.255 45.6094 301.859 45.6094C303.453 45.6094 305 45.9167 306.5 46.5312C308.01 47.1458 309.344 48.0104 310.5 49.125C311.656 50.25 312.536 51.5365 313.141 52.9844C313.745 54.4323 314.047 55.974 314.047 57.6094ZM301.859 65.25C303.932 65.25 305.641 64.526 306.984 63.0781C308.339 61.6198 309.016 59.7969 309.016 57.6094C309.016 55.4427 308.333 53.6198 306.969 52.1406C305.604 50.6615 303.901 49.9219 301.859 49.9219C299.786 49.9219 298.068 50.6615 296.703 52.1406C295.339 53.6094 294.656 55.4323 294.656 57.6094C294.656 59.8177 295.328 61.6458 296.672 63.0938C298.016 64.5312 299.745 65.25 301.859 65.25ZM332.953 56.4531H333.656C334.99 56.4531 335.958 56.1771 336.562 55.625C337.167 55.0729 337.469 54.1875 337.469 52.9688C337.469 51.8438 337.167 51.026 336.562 50.5156C335.958 49.9948 334.99 49.7344 333.656 49.7344H332.953V56.4531ZM328.031 69V46.125H333.656C336.656 46.125 338.87 46.6979 340.297 47.8438C341.734 48.9896 342.453 50.7604 342.453 53.1562C342.453 55.375 341.729 57.1146 340.281 58.375C338.844 59.6354 336.849 60.2656 334.297 60.2656H332.953V69H328.031ZM345.844 69V46.125H359.312V50.25H350.734V54.9531H359.312V59.1094H350.734V64.8438H359.312V69H345.844ZM364.125 69V46.125H369.203L379.328 59.4375C379.62 59.8125 379.938 60.3438 380.281 61.0312C380.635 61.7083 381 62.5104 381.375 63.4375C381.26 62.7604 381.177 62.0885 381.125 61.4219C381.073 60.7552 381.047 59.9219 381.047 58.9219V46.125H385.719V69H380.922L370.516 55.4375C370.224 55.0625 369.906 54.5365 369.562 53.8594C369.219 53.1719 368.854 52.3542 368.469 51.4062C368.583 52.0625 368.667 52.7292 368.719 53.4062C368.771 54.0729 368.797 54.9167 368.797 55.9375V69H364.125ZM389.344 66.0938L392.062 63.0156C392.406 63.8594 392.958 64.526 393.719 65.0156C394.479 65.4948 395.333 65.7344 396.281 65.7344C397.427 65.7344 398.333 65.4635 399 64.9219C399.667 64.3802 400 63.651 400 62.7344C400 61.651 398.891 60.5729 396.672 59.5C395.953 59.1562 395.385 58.875 394.969 58.6562C392.969 57.6146 391.583 56.599 390.812 55.6094C390.042 54.6094 389.656 53.4219 389.656 52.0469C389.656 50.1615 390.401 48.6146 391.891 47.4062C393.391 46.1875 395.333 45.5781 397.719 45.5781C399.104 45.5781 400.297 45.8229 401.297 46.3125C402.307 46.7917 403.198 47.5469 403.969 48.5781L401.078 51.3438C400.734 50.6771 400.276 50.1823 399.703 49.8594C399.141 49.526 398.458 49.3594 397.656 49.3594C396.688 49.3594 395.906 49.6042 395.312 50.0938C394.719 50.5729 394.422 51.1979 394.422 51.9688C394.422 53.1771 395.599 54.2812 397.953 55.2812C398.422 55.4792 398.781 55.6354 399.031 55.75C400.969 56.6354 402.401 57.6354 403.328 58.75C404.266 59.8646 404.734 61.1354 404.734 62.5625C404.734 64.7083 404 66.4219 402.531 67.7031C401.073 68.974 399.109 69.6094 396.641 69.6094C394.891 69.6094 393.391 69.3073 392.141 68.7031C390.891 68.099 389.958 67.2292 389.344 66.0938ZM420.594 60.2969L418.031 52.9062C417.958 52.6875 417.865 52.3125 417.75 51.7812C417.635 51.25 417.516 50.599 417.391 49.8281C417.255 50.5677 417.125 51.2344 417 51.8281C416.875 52.4115 416.781 52.8021 416.719 53L414.25 60.2969H420.594ZM406.031 69L414.734 46.125H420.328L429.156 69H423.594L421.734 64.1406H412.875L411.281 69H406.031ZM436.453 64.875H439.172C441.734 64.875 443.599 64.2917 444.766 63.125C445.943 61.9583 446.531 60.1094 446.531 57.5781C446.531 55.0573 445.943 53.2135 444.766 52.0469C443.599 50.8698 441.734 50.2812 439.172 50.2812H436.453V64.875ZM431.562 69V46.125H437.797C440.255 46.125 442.193 46.2969 443.609 46.6406C445.026 46.9844 446.271 47.5573 447.344 48.3594C448.729 49.3906 449.776 50.6927 450.484 52.2656C451.203 53.8281 451.562 55.6094 451.562 57.6094C451.562 59.6406 451.198 61.4427 450.469 63.0156C449.74 64.5781 448.672 65.8698 447.266 66.8906C446.224 67.6406 445.062 68.1823 443.781 68.5156C442.51 68.8385 440.646 69 438.188 69H436.453H431.562ZM479.078 57.6094C479.078 59.2448 478.771 60.7917 478.156 62.25C477.552 63.7083 476.677 64.9896 475.531 66.0938C474.344 67.2292 473.005 68.099 471.516 68.7031C470.026 69.3073 468.484 69.6094 466.891 69.6094C465.495 69.6094 464.125 69.375 462.781 68.9062C461.448 68.4271 460.224 67.7448 459.109 66.8594C457.672 65.7135 456.568 64.3438 455.797 62.75C455.036 61.1562 454.656 59.4427 454.656 57.6094C454.656 55.9635 454.958 54.4219 455.562 52.9844C456.167 51.5365 457.052 50.25 458.219 49.125C459.365 48.0104 460.693 47.1458 462.203 46.5312C463.724 45.9167 465.286 45.6094 466.891 45.6094C468.484 45.6094 470.031 45.9167 471.531 46.5312C473.042 47.1458 474.375 48.0104 475.531 49.125C476.688 50.25 477.568 51.5365 478.172 52.9844C478.776 54.4323 479.078 55.974 479.078 57.6094ZM466.891 65.25C468.964 65.25 470.672 64.526 472.016 63.0781C473.37 61.6198 474.047 59.7969 474.047 57.6094C474.047 55.4427 473.365 53.6198 472 52.1406C470.635 50.6615 468.932 49.9219 466.891 49.9219C464.818 49.9219 463.099 50.6615 461.734 52.1406C460.37 53.6094 459.688 55.4323 459.688 57.6094C459.688 59.8177 460.359 61.6458 461.703 63.0938C463.047 64.5312 464.776 65.25 466.891 65.25ZM35.4844 94.4531H36.1875C37.5208 94.4531 38.4896 94.1771 39.0938 93.625C39.6979 93.0729 40 92.1875 40 90.9688C40 89.8438 39.6979 89.026 39.0938 88.5156C38.4896 87.9948 37.5208 87.7344 36.1875 87.7344H35.4844V94.4531ZM30.5625 107V84.125H36.1875C39.1875 84.125 41.401 84.6979 42.8281 85.8438C44.2656 86.9896 44.9844 88.7604 44.9844 91.1562C44.9844 93.375 44.2604 95.1146 42.8125 96.375C41.375 97.6354 39.3802 98.2656 36.8281 98.2656H35.4844V107H30.5625ZM58.625 98.2969L56.0625 90.9062C55.9896 90.6875 55.8958 90.3125 55.7812 89.7812C55.6667 89.25 55.5469 88.599 55.4219 87.8281C55.2865 88.5677 55.1562 89.2344 55.0312 89.8281C54.9062 90.4115 54.8125 90.8021 54.75 91L52.2812 98.2969H58.625ZM44.0625 107L52.7656 84.125H58.3594L67.1875 107H61.625L59.7656 102.141H50.9062L49.3125 107H44.0625ZM86.1406 107H80.5L74.4844 96.3125V107H69.5938V84.125H76.5938C79.375 84.125 81.4583 84.6667 82.8438 85.75C84.2292 86.8229 84.9219 88.4427 84.9219 90.6094C84.9219 92.1823 84.4479 93.526 83.5 94.6406C82.5521 95.7552 81.3281 96.4062 79.8281 96.5938L86.1406 107ZM74.4844 93.875H75.2188C77.1979 93.875 78.5052 93.6615 79.1406 93.2344C79.776 92.7969 80.0938 92.0417 80.0938 90.9688C80.0938 89.8438 79.75 89.0469 79.0625 88.5781C78.3854 88.099 77.1042 87.8594 75.2188 87.8594H74.4844V93.875ZM100.844 98.2969L98.2812 90.9062C98.2083 90.6875 98.1146 90.3125 98 89.7812C97.8854 89.25 97.7656 88.599 97.6406 87.8281C97.5052 88.5677 97.375 89.2344 97.25 89.8281C97.125 90.4115 97.0312 90.8021 96.9688 91L94.5 98.2969H100.844ZM86.2812 107L94.9844 84.125H100.578L109.406 107H103.844L101.984 102.141H93.125L91.5312 107H86.2812ZM121.656 107V84.125H126.547V93.2969H136.469V84.125H141.359V107H136.469V97.4375H126.547V107H121.656ZM158.312 98.2969L155.75 90.9062C155.677 90.6875 155.583 90.3125 155.469 89.7812C155.354 89.25 155.234 88.599 155.109 87.8281C154.974 88.5677 154.844 89.2344 154.719 89.8281C154.594 90.4115 154.5 90.8021 154.438 91L151.969 98.2969H158.312ZM143.75 107L152.453 84.125H158.047L166.875 107H161.312L159.453 102.141H150.594L149 107H143.75ZM187.141 90.0781C186.151 89.1927 185.135 88.5469 184.094 88.1406C183.052 87.724 181.938 87.5156 180.75 87.5156C178.312 87.5156 176.37 88.2448 174.922 89.7031C173.474 91.1615 172.75 93.1198 172.75 95.5781C172.75 97.9844 173.422 99.8958 174.766 101.312C176.109 102.719 177.943 103.422 180.266 103.422C181.589 103.422 182.818 103.203 183.953 102.766C185.089 102.318 186.141 101.651 187.109 100.766L187.078 105.781C186.036 106.396 184.943 106.854 183.797 107.156C182.661 107.458 181.464 107.609 180.203 107.609C176.557 107.609 173.562 106.479 171.219 104.219C168.885 101.948 167.719 99.0677 167.719 95.5781C167.719 92.099 168.891 89.2292 171.234 86.9688C173.578 84.7083 176.599 83.5781 180.297 83.5781C181.536 83.5781 182.734 83.7083 183.891 83.9688C185.047 84.2292 186.188 84.6302 187.312 85.1719L187.141 90.0781ZM191.688 107V84.125H205.156V88.25H196.578V92.9531H205.156V97.1094H196.578V102.844H205.156V107H191.688ZM226.516 107H220.875L214.859 96.3125V107H209.969V84.125H216.969C219.75 84.125 221.833 84.6667 223.219 85.75C224.604 86.8229 225.297 88.4427 225.297 90.6094C225.297 92.1823 224.823 93.526 223.875 94.6406C222.927 95.7552 221.703 96.4062 220.203 96.5938L226.516 107ZM214.859 93.875H215.594C217.573 93.875 218.88 93.6615 219.516 93.2344C220.151 92.7969 220.469 92.0417 220.469 90.9688C220.469 89.8438 220.125 89.0469 219.438 88.5781C218.76 88.099 217.479 87.8594 215.594 87.8594H214.859V93.875ZM257.641 90.0781C256.651 89.1927 255.635 88.5469 254.594 88.1406C253.552 87.724 252.438 87.5156 251.25 87.5156C248.812 87.5156 246.87 88.2448 245.422 89.7031C243.974 91.1615 243.25 93.1198 243.25 95.5781C243.25 97.9844 243.922 99.8958 245.266 101.312C246.609 102.719 248.443 103.422 250.766 103.422C252.089 103.422 253.318 103.203 254.453 102.766C255.589 102.318 256.641 101.651 257.609 100.766L257.578 105.781C256.536 106.396 255.443 106.854 254.297 107.156C253.161 107.458 251.964 107.609 250.703 107.609C247.057 107.609 244.062 106.479 241.719 104.219C239.385 101.948 238.219 99.0677 238.219 95.5781C238.219 92.099 239.391 89.2292 241.734 86.9688C244.078 84.7083 247.099 83.5781 250.797 83.5781C252.036 83.5781 253.234 83.7083 254.391 83.9688C255.547 84.2292 256.688 84.6302 257.812 85.1719L257.641 90.0781ZM278.734 107H273.094L267.078 96.3125V107H262.188V84.125H269.188C271.969 84.125 274.052 84.6667 275.438 85.75C276.823 86.8229 277.516 88.4427 277.516 90.6094C277.516 92.1823 277.042 93.526 276.094 94.6406C275.146 95.7552 273.922 96.4062 272.422 96.5938L278.734 107ZM267.078 93.875H267.812C269.792 93.875 271.099 93.6615 271.734 93.2344C272.37 92.7969 272.688 92.0417 272.688 90.9688C272.688 89.8438 272.344 89.0469 271.656 88.5781C270.979 88.099 269.698 87.8594 267.812 87.8594H267.078V93.875ZM281.594 107V84.125H295.062V88.25H286.484V92.9531H295.062V97.1094H286.484V102.844H295.062V107H281.594ZM318.297 90.0781C317.307 89.1927 316.292 88.5469 315.25 88.1406C314.208 87.724 313.094 87.5156 311.906 87.5156C309.469 87.5156 307.526 88.2448 306.078 89.7031C304.63 91.1615 303.906 93.1198 303.906 95.5781C303.906 97.9844 304.578 99.8958 305.922 101.312C307.266 102.719 309.099 103.422 311.422 103.422C312.745 103.422 313.974 103.203 315.109 102.766C316.245 102.318 317.297 101.651 318.266 100.766L318.234 105.781C317.193 106.396 316.099 106.854 314.953 107.156C313.818 107.458 312.62 107.609 311.359 107.609C307.714 107.609 304.719 106.479 302.375 104.219C300.042 101.948 298.875 99.0677 298.875 95.5781C298.875 92.099 300.047 89.2292 302.391 86.9688C304.734 84.7083 307.755 83.5781 311.453 83.5781C312.693 83.5781 313.891 83.7083 315.047 83.9688C316.203 84.2292 317.344 84.6302 318.469 85.1719L318.297 90.0781ZM322.844 107V84.125H336.312V88.25H327.734V92.9531H336.312V97.1094H327.734V102.844H336.312V107H322.844ZM357.672 107H352.031L346.016 96.3125V107H341.125V84.125H348.125C350.906 84.125 352.99 84.6667 354.375 85.75C355.76 86.8229 356.453 88.4427 356.453 90.6094C356.453 92.1823 355.979 93.526 355.031 94.6406C354.083 95.7552 352.859 96.4062 351.359 96.5938L357.672 107ZM346.016 93.875H346.75C348.729 93.875 350.036 93.6615 350.672 93.2344C351.307 92.7969 351.625 92.0417 351.625 90.9688C351.625 89.8438 351.281 89.0469 350.594 88.5781C349.917 88.099 348.635 87.8594 346.75 87.8594H346.016V93.875ZM39.1094 126.281V145H34.2031V126.281H28.6094V122.125H44.7344V126.281H39.1094ZM67.5781 122.125V136.359C67.5781 139.464 66.7604 141.781 65.125 143.312C63.4896 144.844 61.026 145.609 57.7344 145.609C54.3906 145.609 51.901 144.844 50.2656 143.312C48.6302 141.781 47.8125 139.464 47.8125 136.359V122.125H52.6719V135.594C52.6719 137.479 53.0885 138.901 53.9219 139.859C54.7552 140.807 56 141.281 57.6562 141.281C59.3229 141.281 60.5833 140.802 61.4375 139.844C62.2917 138.885 62.7188 137.469 62.7188 135.594V122.125H67.5781ZM82.5 145V122.125H95.9688V126.25H87.3906V130.953H95.9688V135.109H87.3906V140.844H95.9688V145H82.5ZM98.7969 145L102.281 122.125H107.406L111.812 135.594C111.906 135.875 112.005 136.286 112.109 136.828C112.224 137.37 112.328 137.99 112.422 138.688C112.505 137.979 112.599 137.349 112.703 136.797C112.807 136.234 112.906 135.823 113 135.562L117.484 122.125H122.531L126.031 145H121.391L119.719 131.203C119.594 130.182 119.51 129.411 119.469 128.891C119.427 128.37 119.406 127.885 119.406 127.438C119.406 127.198 119.406 127.021 119.406 126.906C119.417 126.781 119.427 126.672 119.438 126.578C119.281 127.474 119.13 128.25 118.984 128.906C118.849 129.552 118.724 130.042 118.609 130.375L113.766 145H111.016L106.25 130.375C106.208 130.24 106.115 129.865 105.969 129.25C105.833 128.635 105.641 127.74 105.391 126.562V127.234C105.391 128.297 105.297 129.599 105.109 131.141L105.094 131.203L103.438 145H98.7969ZM134.141 132.453H134.844C136.177 132.453 137.146 132.177 137.75 131.625C138.354 131.073 138.656 130.188 138.656 128.969C138.656 127.844 138.354 127.026 137.75 126.516C137.146 125.995 136.177 125.734 134.844 125.734H134.141V132.453ZM129.219 145V122.125H134.844C137.844 122.125 140.057 122.698 141.484 123.844C142.922 124.99 143.641 126.76 143.641 129.156C143.641 131.375 142.917 133.115 141.469 134.375C140.031 135.635 138.036 136.266 135.484 136.266H134.141V145H129.219ZM163.578 145H157.938L151.922 134.312V145H147.031V122.125H154.031C156.812 122.125 158.896 122.667 160.281 123.75C161.667 124.823 162.359 126.443 162.359 128.609C162.359 130.182 161.885 131.526 160.938 132.641C159.99 133.755 158.766 134.406 157.266 134.594L163.578 145ZM151.922 131.875H152.656C154.635 131.875 155.943 131.661 156.578 131.234C157.214 130.797 157.531 130.042 157.531 128.969C157.531 127.844 157.188 127.047 156.5 126.578C155.823 126.099 154.542 125.859 152.656 125.859H151.922V131.875ZM166.438 145V122.125H179.906V126.25H171.328V130.953H179.906V135.109H171.328V140.844H179.906V145H166.438ZM183.25 142.094L185.969 139.016C186.312 139.859 186.865 140.526 187.625 141.016C188.385 141.495 189.24 141.734 190.188 141.734C191.333 141.734 192.24 141.464 192.906 140.922C193.573 140.38 193.906 139.651 193.906 138.734C193.906 137.651 192.797 136.573 190.578 135.5C189.859 135.156 189.292 134.875 188.875 134.656C186.875 133.615 185.49 132.599 184.719 131.609C183.948 130.609 183.562 129.422 183.562 128.047C183.562 126.161 184.307 124.615 185.797 123.406C187.297 122.188 189.24 121.578 191.625 121.578C193.01 121.578 194.203 121.823 195.203 122.312C196.214 122.792 197.104 123.547 197.875 124.578L194.984 127.344C194.641 126.677 194.182 126.182 193.609 125.859C193.047 125.526 192.365 125.359 191.562 125.359C190.594 125.359 189.812 125.604 189.219 126.094C188.625 126.573 188.328 127.198 188.328 127.969C188.328 129.177 189.505 130.281 191.859 131.281C192.328 131.479 192.688 131.635 192.938 131.75C194.875 132.635 196.307 133.635 197.234 134.75C198.172 135.865 198.641 137.135 198.641 138.562C198.641 140.708 197.906 142.422 196.438 143.703C194.979 144.974 193.016 145.609 190.547 145.609C188.797 145.609 187.297 145.307 186.047 144.703C184.797 144.099 183.865 143.229 183.25 142.094ZM214.5 136.297L211.938 128.906C211.865 128.688 211.771 128.312 211.656 127.781C211.542 127.25 211.422 126.599 211.297 125.828C211.161 126.568 211.031 127.234 210.906 127.828C210.781 128.411 210.688 128.802 210.625 129L208.156 136.297H214.5ZM199.938 145L208.641 122.125H214.234L223.062 145H217.5L215.641 140.141H206.781L205.188 145H199.938Z" fill="white"/>
<path d="M27 184H15C10.5817 184 7 180.418 7 176V118V23" stroke="white" stroke-width="1.5"/>
<circle cx="7" cy="17" r="6.25" stroke="white" stroke-width="1.5"/>
<rect x="25" y="160" width="294" height="65" rx="10" fill="#002A61"/>
<path d="M49.368 190H56.406V188.596H50.88V183.268H56.244V181.864H50.88V177.832H56.406V176.428H49.368V190ZM60.3872 175.15H58.9472V190H60.3872V175.15ZM70.0385 181.54H68.5985V190H70.0385V185.626C70.0385 184.348 70.2185 182.638 71.9105 182.638C73.2965 182.638 73.4225 184.15 73.4225 185.194V190H74.8625V185.518C74.8625 184.24 75.0425 182.638 76.6985 182.638C78.1745 182.638 78.2465 183.988 78.2465 185.086V190H79.6865V184.852C79.6865 183.07 79.1465 181.306 76.9865 181.306C75.9605 181.306 74.9525 181.774 74.4485 182.71C73.9985 181.828 73.0985 181.306 72.1085 181.306C71.2445 181.306 70.5245 181.756 70.0745 182.458H70.0385V181.54ZM85.9249 182.638C87.7069 182.638 88.7689 184.006 88.7689 185.698C88.7689 187.408 87.7969 188.902 85.9429 188.902C84.1429 188.902 83.1709 187.336 83.1709 185.68C83.1709 184.096 84.2509 182.638 85.9249 182.638ZM90.1369 181.54H88.6969V182.746H88.6609C87.9589 181.846 86.9149 181.306 85.7629 181.306C83.2249 181.306 81.6949 183.376 81.6949 185.788C81.6949 188.128 83.2609 190.234 85.7449 190.234C86.9329 190.234 87.9229 189.766 88.6609 188.83H88.6969V190H90.1369V181.54ZM94.2435 181.54H92.8035V190H94.2435V185.986C94.2435 184.474 94.3695 182.638 96.3495 182.638C98.0235 182.638 98.1315 183.862 98.1315 185.23V190H99.5715V184.978C99.5715 182.998 99.0315 181.306 96.6915 181.306C95.6475 181.306 94.8735 181.756 94.2795 182.566H94.2435V181.54ZM109.675 186.076C109.819 183.556 108.379 181.306 105.661 181.306C103.015 181.306 101.557 183.376 101.557 185.878C101.557 188.308 103.177 190.234 105.697 190.234C107.425 190.234 108.793 189.37 109.603 187.858L108.379 187.156C107.821 188.164 107.029 188.902 105.805 188.902C104.167 188.902 103.051 187.642 103.033 186.076H109.675ZM103.105 184.852C103.285 183.628 104.437 182.638 105.679 182.638C106.939 182.638 107.965 183.628 108.163 184.852H103.105ZM113.357 181.54H111.917V194.752H113.357V181.54ZM112.637 177.328C112.079 177.328 111.611 177.796 111.611 178.354C111.611 178.93 112.079 179.38 112.637 179.38C113.195 179.38 113.663 178.93 113.663 178.354C113.663 177.796 113.195 177.328 112.637 177.328ZM120.048 190.234C122.514 190.234 124.494 188.272 124.494 185.788C124.494 183.304 122.532 181.306 120.048 181.306C117.564 181.306 115.602 183.304 115.602 185.788C115.602 188.272 117.582 190.234 120.048 190.234ZM120.048 182.638C121.83 182.638 123.054 184.06 123.054 185.77C123.054 187.498 121.83 188.902 120.048 188.902C118.266 188.902 117.042 187.498 117.042 185.77C117.042 184.06 118.266 182.638 120.048 182.638ZM135.513 182.638C137.295 182.638 138.357 184.006 138.357 185.698C138.357 187.408 137.385 188.902 135.531 188.902C133.731 188.902 132.759 187.336 132.759 185.68C132.759 184.096 133.839 182.638 135.513 182.638ZM138.285 190H139.725V175.15H138.285V182.746H138.249C137.565 181.846 136.485 181.306 135.351 181.306C132.813 181.306 131.283 183.376 131.283 185.788C131.283 188.128 132.849 190.234 135.333 190.234C136.485 190.234 137.547 189.748 138.249 188.83H138.285V190ZM149.753 186.076C149.897 183.556 148.457 181.306 145.739 181.306C143.093 181.306 141.635 183.376 141.635 185.878C141.635 188.308 143.255 190.234 145.775 190.234C147.503 190.234 148.871 189.37 149.681 187.858L148.457 187.156C147.899 188.164 147.107 188.902 145.883 188.902C144.245 188.902 143.129 187.642 143.111 186.076H149.753ZM143.183 184.852C143.363 183.628 144.515 182.638 145.757 182.638C147.017 182.638 148.043 183.628 148.241 184.852H143.183ZM160.647 183.484V190H157.389V183.484H156.309V180.766H157.389V177.994H160.647V180.766H162.501V183.484H160.647ZM166.983 180.766V185.968C166.983 187.108 167.535 187.678 168.639 187.678C169.743 187.678 170.295 187.108 170.295 185.968V180.766H173.553V186.598C173.553 187.846 173.139 188.782 172.311 189.406C171.495 190.03 170.271 190.342 168.639 190.342C167.007 190.342 165.777 190.03 164.949 189.406C164.133 188.782 163.725 187.846 163.725 186.598V180.766H166.983ZM181.886 183.142C181.286 182.83 180.698 182.674 180.122 182.674C179.822 182.674 179.576 182.734 179.384 182.854C179.204 182.974 179.114 183.136 179.114 183.34C179.114 183.448 179.126 183.538 179.15 183.61C179.186 183.67 179.252 183.73 179.348 183.79C179.456 183.85 179.606 183.904 179.798 183.952C180.002 184 180.266 184.06 180.59 184.132C181.49 184.312 182.162 184.636 182.606 185.104C183.05 185.56 183.272 186.148 183.272 186.868C183.272 187.408 183.164 187.894 182.948 188.326C182.732 188.758 182.432 189.124 182.048 189.424C181.664 189.712 181.202 189.934 180.662 190.09C180.122 190.258 179.528 190.342 178.88 190.342C177.632 190.342 176.402 189.988 175.19 189.28L176.378 186.976C177.29 187.6 178.154 187.912 178.97 187.912C179.27 187.912 179.516 187.846 179.708 187.714C179.9 187.582 179.996 187.414 179.996 187.21C179.996 187.09 179.978 186.994 179.942 186.922C179.918 186.838 179.858 186.766 179.762 186.706C179.666 186.634 179.522 186.574 179.33 186.526C179.15 186.466 178.91 186.406 178.61 186.346C177.602 186.142 176.894 185.842 176.486 185.446C176.09 185.038 175.892 184.48 175.892 183.772C175.892 183.256 175.988 182.794 176.18 182.386C176.372 181.966 176.648 181.612 177.008 181.324C177.368 181.036 177.8 180.814 178.304 180.658C178.82 180.502 179.39 180.424 180.014 180.424C181.034 180.424 182.024 180.622 182.984 181.018L181.886 183.142ZM198.008 183.754C197.444 183.37 196.874 183.178 196.298 183.178C195.986 183.178 195.692 183.232 195.416 183.34C195.152 183.448 194.918 183.604 194.714 183.808C194.51 184 194.348 184.234 194.228 184.51C194.12 184.774 194.066 185.074 194.066 185.41C194.066 185.734 194.12 186.034 194.228 186.31C194.348 186.574 194.504 186.808 194.696 187.012C194.9 187.204 195.14 187.354 195.416 187.462C195.692 187.57 195.986 187.624 196.298 187.624C196.91 187.624 197.48 187.414 198.008 186.994V189.766C197.204 190.114 196.442 190.288 195.722 190.288C195.05 190.288 194.408 190.174 193.796 189.946C193.196 189.718 192.662 189.394 192.194 188.974C191.738 188.542 191.372 188.032 191.096 187.444C190.82 186.844 190.682 186.178 190.682 185.446C190.682 184.714 190.814 184.048 191.078 183.448C191.342 182.836 191.702 182.314 192.158 181.882C192.614 181.438 193.154 181.096 193.778 180.856C194.414 180.604 195.092 180.478 195.812 180.478C196.604 180.478 197.336 180.646 198.008 180.982V183.754ZM202.944 185.338C202.944 185.65 202.998 185.938 203.106 186.202C203.226 186.454 203.376 186.676 203.556 186.868C203.748 187.06 203.97 187.21 204.222 187.318C204.486 187.426 204.762 187.48 205.05 187.48C205.338 187.48 205.608 187.426 205.86 187.318C206.124 187.21 206.346 187.06 206.526 186.868C206.718 186.676 206.868 186.454 206.976 186.202C207.096 185.938 207.156 185.656 207.156 185.356C207.156 185.068 207.096 184.798 206.976 184.546C206.868 184.282 206.718 184.054 206.526 183.862C206.346 183.67 206.124 183.52 205.86 183.412C205.608 183.304 205.338 183.25 205.05 183.25C204.762 183.25 204.486 183.304 204.222 183.412C203.97 183.52 203.748 183.67 203.556 183.862C203.376 184.054 203.226 184.276 203.106 184.528C202.998 184.78 202.944 185.05 202.944 185.338ZM199.506 185.302C199.506 184.618 199.644 183.982 199.92 183.394C200.196 182.794 200.58 182.278 201.072 181.846C201.564 181.402 202.146 181.054 202.818 180.802C203.502 180.55 204.246 180.424 205.05 180.424C205.842 180.424 206.574 180.55 207.246 180.802C207.93 181.042 208.518 181.384 209.01 181.828C209.514 182.26 209.904 182.782 210.18 183.394C210.456 183.994 210.594 184.66 210.594 185.392C210.594 186.124 210.45 186.796 210.162 187.408C209.886 188.008 209.502 188.53 209.01 188.974C208.518 189.406 207.924 189.742 207.228 189.982C206.544 190.222 205.8 190.342 204.996 190.342C204.204 190.342 203.472 190.222 202.8 189.982C202.128 189.742 201.546 189.4 201.054 188.956C200.574 188.512 200.196 187.984 199.92 187.372C199.644 186.748 199.506 186.058 199.506 185.302ZM219.832 185.41C219.832 185.122 219.778 184.852 219.67 184.6C219.562 184.336 219.412 184.108 219.22 183.916C219.028 183.724 218.806 183.574 218.554 183.466C218.302 183.346 218.026 183.286 217.726 183.286C217.438 183.286 217.168 183.34 216.916 183.448C216.664 183.556 216.442 183.706 216.25 183.898C216.07 184.09 215.92 184.318 215.8 184.582C215.692 184.834 215.638 185.104 215.638 185.392C215.638 185.68 215.692 185.95 215.8 186.202C215.908 186.454 216.058 186.676 216.25 186.868C216.442 187.048 216.664 187.198 216.916 187.318C217.18 187.426 217.456 187.48 217.744 187.48C218.032 187.48 218.302 187.426 218.554 187.318C218.806 187.21 219.022 187.06 219.202 186.868C219.394 186.676 219.544 186.454 219.652 186.202C219.772 185.95 219.832 185.686 219.832 185.41ZM215.728 175.06V181.684C216.496 180.88 217.456 180.478 218.608 180.478C219.292 180.478 219.916 180.61 220.48 180.874C221.056 181.126 221.542 181.474 221.938 181.918C222.346 182.35 222.664 182.866 222.892 183.466C223.12 184.054 223.234 184.684 223.234 185.356C223.234 186.04 223.114 186.682 222.874 187.282C222.646 187.882 222.322 188.404 221.902 188.848C221.482 189.292 220.984 189.646 220.408 189.91C219.844 190.162 219.232 190.288 218.572 190.288C217.372 190.288 216.424 189.85 215.728 188.974V190H212.47V175.06H215.728ZM225.091 180.766H228.349V182.278C228.697 181.726 229.123 181.306 229.627 181.018C230.131 180.718 230.719 180.568 231.391 180.568C231.475 180.568 231.565 180.568 231.661 180.568C231.769 180.568 231.889 180.58 232.021 180.604V183.718C231.589 183.502 231.121 183.394 230.617 183.394C229.861 183.394 229.291 183.622 228.907 184.078C228.535 184.522 228.349 185.176 228.349 186.04V190H225.091V180.766ZM236.624 185.338C236.624 185.65 236.678 185.938 236.786 186.202C236.906 186.454 237.056 186.676 237.236 186.868C237.428 187.06 237.65 187.21 237.902 187.318C238.166 187.426 238.442 187.48 238.73 187.48C239.018 187.48 239.288 187.426 239.54 187.318C239.804 187.21 240.026 187.06 240.206 186.868C240.398 186.676 240.548 186.454 240.656 186.202C240.776 185.938 240.836 185.656 240.836 185.356C240.836 185.068 240.776 184.798 240.656 184.546C240.548 184.282 240.398 184.054 240.206 183.862C240.026 183.67 239.804 183.52 239.54 183.412C239.288 183.304 239.018 183.25 238.73 183.25C238.442 183.25 238.166 183.304 237.902 183.412C237.65 183.52 237.428 183.67 237.236 183.862C237.056 184.054 236.906 184.276 236.786 184.528C236.678 184.78 236.624 185.05 236.624 185.338ZM233.186 185.302C233.186 184.618 233.324 183.982 233.6 183.394C233.876 182.794 234.26 182.278 234.752 181.846C235.244 181.402 235.826 181.054 236.498 180.802C237.182 180.55 237.926 180.424 238.73 180.424C239.522 180.424 240.254 180.55 240.926 180.802C241.61 181.042 242.198 181.384 242.69 181.828C243.194 182.26 243.584 182.782 243.86 183.394C244.136 183.994 244.274 184.66 244.274 185.392C244.274 186.124 244.13 186.796 243.842 187.408C243.566 188.008 243.182 188.53 242.69 188.974C242.198 189.406 241.604 189.742 240.908 189.982C240.224 190.222 239.48 190.342 238.676 190.342C237.884 190.342 237.152 190.222 236.48 189.982C235.808 189.742 235.226 189.4 234.734 188.956C234.254 188.512 233.876 187.984 233.6 187.372C233.324 186.748 233.186 186.058 233.186 185.302ZM252.269 183.142C251.669 182.83 251.081 182.674 250.505 182.674C250.205 182.674 249.959 182.734 249.767 182.854C249.587 182.974 249.497 183.136 249.497 183.34C249.497 183.448 249.509 183.538 249.533 183.61C249.569 183.67 249.635 183.73 249.731 183.79C249.839 183.85 249.989 183.904 250.181 183.952C250.385 184 250.649 184.06 250.973 184.132C251.873 184.312 252.545 184.636 252.989 185.104C253.433 185.56 253.655 186.148 253.655 186.868C253.655 187.408 253.547 187.894 253.331 188.326C253.115 188.758 252.815 189.124 252.431 189.424C252.047 189.712 251.585 189.934 251.045 190.09C250.505 190.258 249.911 190.342 249.263 190.342C248.015 190.342 246.785 189.988 245.573 189.28L246.761 186.976C247.673 187.6 248.537 187.912 249.353 187.912C249.653 187.912 249.899 187.846 250.091 187.714C250.283 187.582 250.379 187.414 250.379 187.21C250.379 187.09 250.361 186.994 250.325 186.922C250.301 186.838 250.241 186.766 250.145 186.706C250.049 186.634 249.905 186.574 249.713 186.526C249.533 186.466 249.293 186.406 248.993 186.346C247.985 186.142 247.277 185.842 246.869 185.446C246.473 185.038 246.275 184.48 246.275 183.772C246.275 183.256 246.371 182.794 246.563 182.386C246.755 181.966 247.031 181.612 247.391 181.324C247.751 181.036 248.183 180.814 248.687 180.658C249.203 180.502 249.773 180.424 250.397 180.424C251.417 180.424 252.407 180.622 253.367 181.018L252.269 183.142ZM56.73 206.076C56.874 203.556 55.434 201.306 52.716 201.306C50.07 201.306 48.612 203.376 48.612 205.878C48.612 208.308 50.232 210.234 52.752 210.234C54.48 210.234 55.848 209.37 56.658 207.858L55.434 207.156C54.876 208.164 54.084 208.902 52.86 208.902C51.222 208.902 50.106 207.642 50.088 206.076H56.73ZM50.16 204.852C50.34 203.628 51.492 202.638 52.734 202.638C53.994 202.638 55.02 203.628 55.218 204.852H50.16ZM63.328 202.872C62.95 201.99 62.05 201.306 61.078 201.306C59.71 201.306 58.558 202.278 58.558 203.7C58.558 206.364 62.374 205.716 62.374 207.606C62.374 208.38 61.78 208.902 61.006 208.902C60.052 208.902 59.638 208.344 59.278 207.552L58 208.092C58.45 209.424 59.566 210.234 60.988 210.234C62.554 210.234 63.85 209.082 63.85 207.48C63.85 206.058 62.878 205.464 61.888 205.05C60.898 204.636 59.926 204.348 59.926 203.574C59.926 203.034 60.466 202.638 60.97 202.638C61.492 202.638 61.924 203.052 62.122 203.502L63.328 202.872ZM67.4034 202.872H68.9154V201.54H67.4034V198.498H65.9634V201.54H65.0814V202.872H65.9634V210H67.4034V202.872ZM73.7257 202.638C75.5077 202.638 76.5697 204.006 76.5697 205.698C76.5697 207.408 75.5977 208.902 73.7437 208.902C71.9437 208.902 70.9717 207.336 70.9717 205.68C70.9717 204.096 72.0517 202.638 73.7257 202.638ZM77.9377 201.54H76.4977V202.746H76.4617C75.7597 201.846 74.7157 201.306 73.5637 201.306C71.0257 201.306 69.4957 203.376 69.4957 205.788C69.4957 208.128 71.0617 210.234 73.5457 210.234C74.7337 210.234 75.7237 209.766 76.4617 208.83H76.4977V210H77.9377V201.54ZM75.0937 196.608L72.9517 199.56L73.8517 200.064L76.6057 197.292L75.0937 196.608ZM93.5034 206.076C93.6474 203.556 92.2074 201.306 89.4894 201.306C86.8434 201.306 85.3854 203.376 85.3854 205.878C85.3854 208.308 87.0054 210.234 89.5254 210.234C91.2534 210.234 92.6214 209.37 93.4314 207.858L92.2074 207.156C91.6494 208.164 90.8574 208.902 89.6334 208.902C87.9954 208.902 86.8794 207.642 86.8614 206.076H93.5034ZM86.9334 204.852C87.1134 203.628 88.2654 202.638 89.5074 202.638C90.7674 202.638 91.7934 203.628 91.9914 204.852H86.9334ZM96.9154 201.54H95.4754V210H96.9154V205.986C96.9154 204.474 97.0414 202.638 99.0214 202.638C100.695 202.638 100.803 203.862 100.803 205.23V210H102.243V204.978C102.243 202.998 101.703 201.306 99.3634 201.306C98.3194 201.306 97.5454 201.756 96.9514 202.566H96.9154V201.54ZM114.572 202.638C116.354 202.638 117.416 204.006 117.416 205.698C117.416 207.408 116.444 208.902 114.59 208.902C112.79 208.902 111.818 207.336 111.818 205.68C111.818 204.096 112.898 202.638 114.572 202.638ZM110.45 210H111.89V208.83H111.926C112.61 209.748 113.672 210.234 114.842 210.234C117.326 210.234 118.892 208.128 118.892 205.77C118.892 203.376 117.344 201.306 114.824 201.306C113.672 201.306 112.61 201.846 111.926 202.746H111.89V195.15H110.45V210ZM122.243 201.54H120.803V206.418C120.803 208.668 121.649 210.234 124.151 210.234C126.653 210.234 127.499 208.668 127.499 206.418V201.54H126.059V206.256C126.059 207.678 125.897 208.902 124.151 208.902C122.405 208.902 122.243 207.678 122.243 206.256V201.54ZM137.484 206.076C137.628 203.556 136.188 201.306 133.47 201.306C130.824 201.306 129.366 203.376 129.366 205.878C129.366 208.308 130.986 210.234 133.506 210.234C135.234 210.234 136.602 209.37 137.412 207.858L136.188 207.156C135.63 208.164 134.838 208.902 133.614 208.902C131.976 208.902 130.86 207.642 130.842 206.076H137.484ZM130.914 204.852C131.094 203.628 132.246 202.638 133.488 202.638C134.748 202.638 135.774 203.628 135.972 204.852H130.914ZM140.896 201.54H139.456V210H140.896V205.986C140.896 204.474 141.022 202.638 143.002 202.638C144.676 202.638 144.784 203.862 144.784 205.23V210H146.224V204.978C146.224 202.998 145.684 201.306 143.344 201.306C142.3 201.306 141.526 201.756 140.932 202.566H140.896V201.54ZM152.476 202.638C154.258 202.638 155.32 204.006 155.32 205.698C155.32 207.408 154.348 208.902 152.494 208.902C150.694 208.902 149.722 207.336 149.722 205.68C149.722 204.096 150.802 202.638 152.476 202.638ZM156.688 201.54H155.248V202.746H155.212C154.51 201.846 153.466 201.306 152.314 201.306C149.776 201.306 148.246 203.376 148.246 205.788C148.246 208.128 149.812 210.234 152.296 210.234C153.484 210.234 154.474 209.766 155.212 208.83H155.248V210H156.688V201.54ZM163.98 202.872C163.602 201.99 162.702 201.306 161.73 201.306C160.362 201.306 159.21 202.278 159.21 203.7C159.21 206.364 163.026 205.716 163.026 207.606C163.026 208.38 162.432 208.902 161.658 208.902C160.704 208.902 160.29 208.344 159.93 207.552L158.652 208.092C159.102 209.424 160.218 210.234 161.64 210.234C163.206 210.234 164.502 209.082 164.502 207.48C164.502 206.058 163.53 205.464 162.54 205.05C161.55 204.636 160.578 204.348 160.578 203.574C160.578 203.034 161.118 202.638 161.622 202.638C162.144 202.638 162.576 203.052 162.774 203.502L163.98 202.872ZM173.521 201.54H172.081V210H173.521V205.626C173.521 204.348 173.701 202.638 175.393 202.638C176.779 202.638 176.905 204.15 176.905 205.194V210H178.345V205.518C178.345 204.24 178.525 202.638 180.181 202.638C181.657 202.638 181.729 203.988 181.729 205.086V210H183.169V204.852C183.169 203.07 182.629 201.306 180.469 201.306C179.443 201.306 178.435 201.774 177.931 202.71C177.481 201.828 176.581 201.306 175.591 201.306C174.727 201.306 174.007 201.756 173.557 202.458H173.521V201.54ZM189.407 202.638C191.189 202.638 192.251 204.006 192.251 205.698C192.251 207.408 191.279 208.902 189.425 208.902C187.625 208.902 186.653 207.336 186.653 205.68C186.653 204.096 187.733 202.638 189.407 202.638ZM193.619 201.54H192.179V202.746H192.143C191.441 201.846 190.397 201.306 189.245 201.306C186.707 201.306 185.177 203.376 185.177 205.788C185.177 208.128 186.743 210.234 189.227 210.234C190.415 210.234 191.405 209.766 192.143 208.83H192.179V210H193.619V201.54ZM197.726 201.54H196.286V210H197.726V205.986C197.726 204.474 197.852 202.638 199.832 202.638C201.506 202.638 201.614 203.862 201.614 205.23V210H203.054V204.978C203.054 202.998 202.514 201.306 200.174 201.306C199.13 201.306 198.356 201.756 197.762 202.566H197.726V201.54ZM209.486 210.234C211.952 210.234 213.932 208.272 213.932 205.788C213.932 203.304 211.97 201.306 209.486 201.306C207.002 201.306 205.04 203.304 205.04 205.788C205.04 208.272 207.02 210.234 209.486 210.234ZM209.486 202.638C211.268 202.638 212.492 204.06 212.492 205.77C212.492 207.498 211.268 208.902 209.486 208.902C207.704 208.902 206.48 207.498 206.48 205.77C206.48 204.06 207.704 202.638 209.486 202.638ZM220.529 202.872C220.151 201.99 219.251 201.306 218.279 201.306C216.911 201.306 215.759 202.278 215.759 203.7C215.759 206.364 219.575 205.716 219.575 207.606C219.575 208.38 218.981 208.902 218.207 208.902C217.253 208.902 216.839 208.344 216.479 207.552L215.201 208.092C215.651 209.424 216.767 210.234 218.189 210.234C219.755 210.234 221.051 209.082 221.051 207.48C221.051 206.058 220.079 205.464 219.089 205.05C218.099 204.636 217.127 204.348 217.127 203.574C217.127 203.034 217.667 202.638 218.171 202.638C218.693 202.638 219.125 203.052 219.323 203.502L220.529 202.872Z" fill="white"/>
</svg>
