<svg width="395" height="193" viewBox="0 0 395 193" fill="none" xmlns="http://www.w3.org/2000/svg">
<path d="M53.784 11.96C51.336 10.616 48.552 9.848 45.72 9.848C35.112 9.848 27.864 18.92 27.864 29.192C27.864 39.176 35.4 47.96 45.576 47.96C48.504 47.96 51.144 47.048 53.784 45.8V37.4C51.816 39.656 48.792 41.24 45.768 41.24C39.192 41.24 35.16 35.144 35.16 29.048C35.16 22.808 39.048 16.568 45.816 16.568C48.84 16.568 51.816 18.008 53.784 20.408V11.96ZM81.3881 39.368L84.1721 47H91.7081L77.9801 9.848H72.5081L58.3961 47H65.8361L68.8121 39.368H81.3881ZM79.4201 33.608H70.8281L74.8121 20.456H74.9081L79.4201 33.608ZM103.914 33.464H107.418C114.81 33.464 118.986 29.72 118.986 22.04C118.986 13.832 114.042 10.808 106.458 10.808H96.8576V47H103.914V33.464ZM103.914 16.664H105.162C109.098 16.664 111.786 17.336 111.786 21.992C111.786 26.696 109.53 27.608 105.354 27.608H103.914V16.664ZM132.273 10.808H125.217V47H132.273V10.808ZM152.165 16.952H159.461V10.808H137.812V16.952H145.109V47H152.165V16.952ZM181.185 39.368L183.969 47H191.505L177.777 9.848H172.305L158.193 47H165.633L168.609 39.368H181.185ZM179.217 33.608H170.625L174.609 20.456H174.705L179.217 33.608ZM203.711 10.808H196.655V47H213.695V40.856H203.711V10.808ZM242.898 10.808H235.842V47H252.882V40.856H242.898V10.808ZM265.211 10.808H258.155V47H265.211V10.808ZM280.398 31.256H281.55C285.102 31.256 288.942 31.448 288.942 36.152C288.942 40.856 285.678 41.336 281.886 41.336H280.398V31.256ZM273.342 47H284.43C291.006 47 295.998 43.832 295.998 36.728C295.998 32.744 294.078 28.424 289.806 27.656C292.062 26.216 292.974 23.24 292.974 20.648C292.974 13.448 288.846 10.808 282.126 10.808H273.342V47ZM280.398 16.472H281.31C284.286 16.472 286.398 17.432 286.398 21.128C286.398 24.872 284.718 25.88 281.262 25.88H280.398V16.472ZM317.129 31.736C321.977 30.92 324.521 26.312 324.521 21.704C324.521 13.976 319.577 10.808 312.425 10.808H302.873V47H309.929V32.408H310.025L318.809 47H327.353L317.129 31.736ZM309.929 16.568H310.889C314.633 16.568 317.465 17.432 317.465 21.896C317.465 26.312 314.729 27.464 310.841 27.464H309.929V16.568ZM351.359 16.952V10.808H332.639V47H351.359V40.856H339.695V31.064H350.927V24.92H339.695V16.952H351.359ZM29.592 95H39.624C49.944 95 57.144 87.128 57.144 76.952C57.144 66.632 50.136 58.808 39.672 58.808H29.592V95ZM36.648 64.952H37.8C45.816 64.952 49.848 69.032 49.848 76.904C49.848 84.056 46.488 88.856 37.8 88.856H36.648V64.952ZM82.3433 64.952V58.808H63.6233V95H82.3433V88.856H70.6793V79.064H81.9113V72.92H70.6793V64.952H82.3433ZM118.696 64.952H125.992V58.808H104.344V64.952H111.64V95H118.696V64.952ZM145.848 79.736C150.696 78.92 153.24 74.312 153.24 69.704C153.24 61.976 148.296 58.808 141.144 58.808H131.592V95H138.648V80.408H138.744L147.528 95H156.072L145.848 79.736ZM138.648 64.568H139.608C143.352 64.568 146.184 65.432 146.184 69.896C146.184 74.312 143.448 75.464 139.56 75.464H138.648V64.568ZM181.326 87.368L184.11 95H191.646L177.918 57.848H172.446L158.334 95H165.774L168.75 87.368H181.326ZM179.358 81.608H170.766L174.75 68.456H174.846L179.358 81.608ZM203.851 79.256H205.003C208.555 79.256 212.395 79.448 212.395 84.152C212.395 88.856 209.131 89.336 205.339 89.336H203.851V79.256ZM196.795 95H207.883C214.459 95 219.451 91.832 219.451 84.728C219.451 80.744 217.531 76.424 213.259 75.656C215.515 74.216 216.427 71.24 216.427 68.648C216.427 61.448 212.299 58.808 205.579 58.808H196.795V95ZM203.851 64.472H204.763C207.739 64.472 209.851 65.432 209.851 69.128C209.851 72.872 208.171 73.88 204.715 73.88H203.851V64.472ZM246.294 87.368L249.078 95H256.614L242.886 57.848H237.414L223.302 95H230.742L233.718 87.368H246.294ZM244.326 81.608H235.734L239.718 68.456H239.814L244.326 81.608ZM275.444 58.808H268.388V81.512C268.388 83.864 268.82 89.72 265.364 89.72C264.212 89.72 262.964 88.424 262.628 87.368L258.116 92.552C259.892 94.424 262.58 95.96 265.22 95.96C268.484 95.96 271.46 94.616 273.332 91.88C275.348 88.952 275.444 86.072 275.444 82.712V58.808ZM317.5 76.856C317.5 66.104 310.396 57.848 299.596 57.848C288.796 57.848 281.692 66.104 281.692 76.856C281.692 87.512 288.556 95.96 299.596 95.96C310.636 95.96 317.5 87.512 317.5 76.856ZM310.204 76.568C310.204 82.136 307.42 89 299.596 89C291.772 89 288.988 82.136 288.988 76.568C288.988 70.712 292.924 64.808 299.596 64.808C306.268 64.808 310.204 70.712 310.204 76.568Z" fill="white"/>
<path d="M26 151H14C9.58172 151 6 147.418 6 143V14" stroke="white" stroke-width="1.5"/>
<path d="M12.622 7.0784C12.622 10.6144 9.92461 13.4068 6.68598 13.4068C3.44736 13.4068 0.75 10.6144 0.75 7.0784C0.75 3.54244 3.44736 0.75 6.68598 0.75C9.92461 0.75 12.622 3.54244 12.622 7.0784Z" stroke="white" stroke-width="1.5"/>
<rect x="24" y="129" width="371" height="64" rx="16" fill="#002A61"/>
<path d="M42.3711 167V154.133H50.2549V156.954H45.79V159.187H50V161.946H45.79V164.117H50.2549V167H42.3711ZM52.4521 167V153.377H55.5898V167H52.4521ZM63.9395 167V160.338H62.6035V158.123H63.9395V156.304C63.9395 155.278 64.2207 154.499 64.7832 153.966C65.3398 153.45 66.1807 153.192 67.3057 153.192C67.3818 153.192 67.5723 153.204 67.877 153.228C68.2051 153.28 68.4395 153.324 68.5801 153.359V155.75C68.4746 155.709 68.3428 155.668 68.1846 155.627C68.0205 155.604 67.9121 155.592 67.8594 155.592C67.5547 155.592 67.3408 155.68 67.2178 155.855C67.083 156.043 67.0156 156.327 67.0156 156.708V158.123H68.5801V160.338H67.0156V167H63.9395ZM69.8896 167V158.123H73.0186V167H69.8896ZM70.2852 155.838H70.3027C70.3027 155.51 70.417 155.24 70.6455 155.029C70.874 154.801 71.1494 154.687 71.4717 154.687C71.8115 154.687 72.0898 154.795 72.3066 155.012C72.5293 155.229 72.6406 155.504 72.6406 155.838C72.6406 156.178 72.5264 156.459 72.2979 156.682C72.0752 156.91 71.7998 157.024 71.4717 157.024C71.1377 157.024 70.8564 156.904 70.6279 156.664C70.3994 156.441 70.2852 156.166 70.2852 155.838ZM75.585 167V158.123H78.4502V159.925C78.8545 159.222 79.335 158.694 79.8916 158.343C80.4307 158.009 81.084 157.842 81.8516 157.842C82.4316 157.842 82.9473 157.93 83.3984 158.105C83.8438 158.305 84.2041 158.574 84.4795 158.914C84.7314 159.254 84.8984 159.614 84.9805 159.995C85.0801 160.481 85.1299 161.123 85.1299 161.92V167H81.9922V162.245C81.9922 161.524 81.8779 161.009 81.6494 160.698C81.4209 160.376 81.0488 160.215 80.5332 160.215C79.8887 160.215 79.4141 160.455 79.1094 160.936C78.8105 161.416 78.6611 162.195 78.6611 163.273V167H75.585ZM94.1123 162.553C94.1123 161.85 93.9277 161.305 93.5586 160.918C93.1836 160.508 92.6797 160.303 92.0469 160.303C91.4141 160.303 90.916 160.502 90.5527 160.9C90.1777 161.311 89.9902 161.861 89.9902 162.553C89.9902 163.25 90.1777 163.798 90.5527 164.196C90.9102 164.589 91.4082 164.785 92.0469 164.785C92.6797 164.785 93.1807 164.589 93.5498 164.196C93.9248 163.804 94.1123 163.256 94.1123 162.553ZM96.8633 158.123V167H93.9893V165.559C93.5732 166.174 93.1074 166.625 92.5918 166.912C92.082 167.199 91.4844 167.343 90.7988 167.343C89.6094 167.343 88.6631 166.909 87.96 166.042C87.6143 165.614 87.3506 165.11 87.1689 164.53C86.9873 163.95 86.8965 163.297 86.8965 162.57C86.8965 161.117 87.2686 159.966 88.0127 159.116C88.7568 158.267 89.7529 157.842 91.001 157.842C91.6689 157.842 92.2432 157.985 92.7236 158.272C93.21 158.548 93.626 158.984 93.9717 159.582V158.123H96.8633ZM99.2275 167V158.123H102.093V159.925C102.497 159.222 102.978 158.694 103.534 158.343C104.073 158.009 104.727 157.842 105.494 157.842C106.074 157.842 106.59 157.93 107.041 158.105C107.486 158.305 107.847 158.574 108.122 158.914C108.374 159.254 108.541 159.614 108.623 159.995C108.723 160.481 108.772 161.123 108.772 161.92V167H105.635V162.245C105.635 161.524 105.521 161.009 105.292 160.698C105.063 160.376 104.691 160.215 104.176 160.215C103.531 160.215 103.057 160.455 102.752 160.936C102.453 161.416 102.304 162.195 102.304 163.273V167H99.2275ZM117.359 161.041C117.055 160.771 116.762 160.575 116.48 160.452C116.229 160.329 115.933 160.268 115.593 160.268C114.966 160.268 114.474 160.473 114.116 160.883C113.747 161.287 113.562 161.844 113.562 162.553C113.562 163.232 113.753 163.771 114.134 164.17C114.503 164.58 115.016 164.785 115.672 164.785C115.982 164.785 116.281 164.721 116.568 164.592C116.873 164.445 117.137 164.252 117.359 164.012V166.728C116.984 166.927 116.606 167.085 116.226 167.202C115.821 167.296 115.438 167.343 115.074 167.343C113.703 167.343 112.599 166.903 111.761 166.024C111.474 165.731 111.236 165.409 111.049 165.058C110.867 164.706 110.727 164.325 110.627 163.915C110.533 163.505 110.486 163.057 110.486 162.57C110.486 161.17 110.914 160.033 111.77 159.16C112.631 158.281 113.744 157.842 115.109 157.842C115.537 157.842 115.944 157.889 116.331 157.982C116.706 158.076 117.049 158.214 117.359 158.396V161.041ZM119.214 167V158.123H122.343V167H119.214ZM119.609 155.838H119.627C119.627 155.51 119.741 155.24 119.97 155.029C120.198 154.801 120.474 154.687 120.796 154.687C121.136 154.687 121.414 154.795 121.631 155.012C121.854 155.229 121.965 155.504 121.965 155.838C121.965 156.178 121.851 156.459 121.622 156.682C121.399 156.91 121.124 157.024 120.796 157.024C120.462 157.024 120.181 156.904 119.952 156.664C119.724 156.441 119.609 156.166 119.609 155.838ZM131.677 162.553C131.677 161.85 131.492 161.305 131.123 160.918C130.748 160.508 130.244 160.303 129.611 160.303C128.979 160.303 128.48 160.502 128.117 160.9C127.742 161.311 127.555 161.861 127.555 162.553C127.555 163.25 127.742 163.798 128.117 164.196C128.475 164.589 128.973 164.785 129.611 164.785C130.244 164.785 130.745 164.589 131.114 164.196C131.489 163.804 131.677 163.256 131.677 162.553ZM134.428 158.123V167H131.554V165.559C131.138 166.174 130.672 166.625 130.156 166.912C129.646 167.199 129.049 167.343 128.363 167.343C127.174 167.343 126.228 166.909 125.524 166.042C125.179 165.614 124.915 165.11 124.733 164.53C124.552 163.95 124.461 163.297 124.461 162.57C124.461 161.117 124.833 159.966 125.577 159.116C126.321 158.267 127.317 157.842 128.565 157.842C129.233 157.842 129.808 157.985 130.288 158.272C130.774 158.548 131.19 158.984 131.536 159.582V158.123H134.428ZM148.525 167V162.157C148.525 161.396 148.438 160.868 148.262 160.575C148.062 160.276 147.731 160.127 147.269 160.127C146.677 160.127 146.27 160.329 146.047 160.733C145.818 161.132 145.704 161.967 145.704 163.238V167H142.681V162.157C142.681 161.366 142.584 160.833 142.391 160.558C142.215 160.271 141.89 160.127 141.415 160.127C140.823 160.127 140.41 160.323 140.176 160.716C139.947 161.114 139.833 161.955 139.833 163.238V167H136.792V158.123H139.868V159.67C140.243 159.049 140.671 158.589 141.151 158.29C141.62 157.991 142.188 157.842 142.856 157.842C143.577 157.842 144.172 157.979 144.641 158.255C145.086 158.536 145.411 158.955 145.616 159.512C145.974 158.932 146.398 158.513 146.891 158.255C147.377 157.979 147.96 157.842 148.64 157.842C149.173 157.842 149.639 157.93 150.037 158.105C150.447 158.299 150.784 158.568 151.048 158.914C151.271 159.189 151.426 159.515 151.514 159.89C151.602 160.235 151.646 160.848 151.646 161.727V161.92V167H148.525ZM153.79 167V158.123H156.919V167H153.79ZM154.186 155.838H154.203C154.203 155.51 154.317 155.24 154.546 155.029C154.774 154.801 155.05 154.687 155.372 154.687C155.712 154.687 155.99 154.795 156.207 155.012C156.43 155.229 156.541 155.504 156.541 155.838C156.541 156.178 156.427 156.459 156.198 156.682C155.976 156.91 155.7 157.024 155.372 157.024C155.038 157.024 154.757 156.904 154.528 156.664C154.3 156.441 154.186 156.166 154.186 155.838ZM165.603 161.419C165.55 160.927 165.359 160.525 165.031 160.215C164.703 159.904 164.302 159.749 163.827 159.749C163.329 159.749 162.925 159.887 162.614 160.162C162.292 160.473 162.09 160.892 162.008 161.419H165.603ZM168.688 163.186H161.938C161.955 163.877 162.128 164.404 162.456 164.768C162.796 165.143 163.288 165.33 163.933 165.33C164.401 165.33 164.803 165.239 165.137 165.058C165.477 164.864 165.723 164.601 165.875 164.267L168.23 165.216C167.955 165.89 167.457 166.411 166.736 166.78C166.021 167.155 165.146 167.343 164.108 167.343C162.562 167.343 161.319 166.909 160.382 166.042C159.45 165.198 158.984 164.07 158.984 162.658C158.984 161.281 159.45 160.13 160.382 159.204C161.313 158.296 162.497 157.842 163.933 157.842C165.397 157.842 166.555 158.302 167.404 159.222C167.838 159.696 168.16 160.25 168.371 160.883C168.582 161.51 168.688 162.228 168.688 163.036V163.186ZM170.489 167V158.123H173.354V159.925C173.759 159.222 174.239 158.694 174.796 158.343C175.335 158.009 175.988 157.842 176.756 157.842C177.336 157.842 177.852 157.93 178.303 158.105C178.748 158.305 179.108 158.574 179.384 158.914C179.636 159.254 179.803 159.614 179.885 159.995C179.984 160.481 180.034 161.123 180.034 161.92V167H176.896V162.245C176.896 161.524 176.782 161.009 176.554 160.698C176.325 160.376 175.953 160.215 175.438 160.215C174.793 160.215 174.318 160.455 174.014 160.936C173.715 161.416 173.565 162.195 173.565 163.273V167H170.489ZM182.75 167L182.732 160.338H181.405V158.123H182.732V155.478H185.835V158.123H187.145V160.338H185.835V167H182.75ZM194.914 162.588C194.914 161.926 194.747 161.404 194.413 161.023C194.067 160.643 193.616 160.452 193.06 160.452C192.485 160.452 192.034 160.643 191.706 161.023C191.372 161.393 191.205 161.914 191.205 162.588C191.205 163.244 191.366 163.76 191.688 164.135C192.04 164.521 192.497 164.715 193.06 164.715C193.622 164.715 194.079 164.521 194.431 164.135C194.753 163.748 194.914 163.232 194.914 162.588ZM198.025 162.588C198.025 163.238 197.899 163.845 197.647 164.407C197.384 165.005 197.023 165.521 196.566 165.954C196.051 166.435 195.518 166.783 194.967 167C194.393 167.229 193.757 167.343 193.06 167.343C192.356 167.343 191.721 167.229 191.152 167C190.572 166.771 190.036 166.426 189.544 165.963C189.058 165.494 188.706 164.976 188.489 164.407C188.237 163.862 188.111 163.256 188.111 162.588C188.111 161.938 188.237 161.325 188.489 160.751C188.724 160.171 189.078 159.655 189.553 159.204C190.016 158.759 190.549 158.416 191.152 158.176C191.727 157.953 192.362 157.842 193.06 157.842C193.751 157.842 194.387 157.953 194.967 158.176C195.57 158.416 196.104 158.759 196.566 159.204C197.053 159.644 197.413 160.159 197.647 160.751C197.899 161.325 198.025 161.938 198.025 162.588ZM211.543 163.001C211.543 162.063 211.303 161.328 210.822 160.795C210.348 160.262 209.688 159.995 208.845 159.995C208.03 159.995 207.389 160.276 206.92 160.839C206.451 161.401 206.217 162.178 206.217 163.168C206.217 164.053 206.445 164.744 206.902 165.242C207.365 165.74 208.001 165.989 208.81 165.989C209.63 165.989 210.289 165.717 210.787 165.172C211.291 164.627 211.543 163.903 211.543 163.001ZM212.879 170.92H211.508V165.541C211.203 166.139 210.805 166.59 210.312 166.895C209.82 167.193 209.24 167.343 208.572 167.343C207.418 167.343 206.495 166.953 205.804 166.174C205.118 165.389 204.775 164.331 204.775 163.001C204.775 161.694 205.127 160.646 205.83 159.854C206.533 159.063 207.465 158.668 208.625 158.668C209.252 158.668 209.817 158.823 210.321 159.134C210.825 159.444 211.232 159.89 211.543 160.47V158.958H212.879V170.92ZM216.983 158.958V162.913C216.983 164.067 217.153 164.876 217.493 165.339C217.839 165.796 218.419 166.024 219.233 166.024C220.048 166.024 220.622 165.799 220.956 165.348C221.296 164.891 221.466 164.079 221.466 162.913V158.958H222.872V163.651C222.872 164.864 222.562 165.784 221.94 166.411C221.319 167.032 220.405 167.343 219.198 167.343C218.003 167.343 217.095 167.029 216.474 166.402C215.853 165.775 215.542 164.858 215.542 163.651V158.958H216.983ZM231.239 162.069C231.192 161.36 230.955 160.815 230.527 160.435C230.105 160.048 229.525 159.854 228.787 159.854C228.119 159.854 227.562 160.057 227.117 160.461C226.672 160.859 226.414 161.396 226.344 162.069H231.239ZM232.716 163.186H226.344V163.309C226.344 164.17 226.59 164.867 227.082 165.4C227.574 165.928 228.216 166.191 229.007 166.191C229.546 166.191 230.032 166.048 230.466 165.761C230.899 165.468 231.283 165.028 231.617 164.442L232.663 165.146C232.259 165.872 231.743 166.42 231.116 166.789C230.489 167.158 229.763 167.343 228.937 167.343C227.712 167.343 226.722 166.938 225.966 166.13C225.21 165.321 224.832 164.261 224.832 162.948C224.832 161.688 225.207 160.657 225.957 159.854C226.707 159.052 227.671 158.65 228.849 158.65C230.038 158.65 230.979 159.031 231.67 159.793C232.367 160.555 232.716 161.595 232.716 162.913V163.186ZM245.812 162.069C245.765 161.36 245.527 160.815 245.1 160.435C244.678 160.048 244.098 159.854 243.359 159.854C242.691 159.854 242.135 160.057 241.689 160.461C241.244 160.859 240.986 161.396 240.916 162.069H245.812ZM247.288 163.186H240.916V163.309C240.916 164.17 241.162 164.867 241.654 165.4C242.146 165.928 242.788 166.191 243.579 166.191C244.118 166.191 244.604 166.048 245.038 165.761C245.472 165.468 245.855 165.028 246.189 164.442L247.235 165.146C246.831 165.872 246.315 166.42 245.688 166.789C245.062 167.158 244.335 167.343 243.509 167.343C242.284 167.343 241.294 166.938 240.538 166.13C239.782 165.321 239.404 164.261 239.404 162.948C239.404 161.688 239.779 160.657 240.529 159.854C241.279 159.052 242.243 158.65 243.421 158.65C244.61 158.65 245.551 159.031 246.242 159.793C246.939 160.555 247.288 161.595 247.288 162.913V163.186ZM248.519 165.646L249.696 164.855C249.919 165.283 250.2 165.605 250.54 165.822C250.88 166.033 251.281 166.139 251.744 166.139C252.195 166.139 252.559 166.027 252.834 165.805C253.115 165.582 253.256 165.289 253.256 164.926C253.256 164.645 253.159 164.41 252.966 164.223C252.778 164.035 252.453 163.862 251.99 163.704C251.943 163.687 251.867 163.66 251.762 163.625C249.805 162.951 248.826 162.107 248.826 161.094C248.826 160.379 249.09 159.796 249.617 159.345C250.145 158.894 250.83 158.668 251.674 158.668C252.371 158.668 252.969 158.809 253.467 159.09C253.965 159.365 254.322 159.758 254.539 160.268L253.423 160.953C253.259 160.584 253.016 160.3 252.693 160.101C252.377 159.901 252.008 159.802 251.586 159.802C251.182 159.802 250.851 159.916 250.593 160.145C250.341 160.367 250.215 160.654 250.215 161.006C250.215 161.498 250.748 161.911 251.814 162.245C252.014 162.31 252.172 162.359 252.289 162.395C253.162 162.676 253.769 162.998 254.108 163.361C254.454 163.719 254.627 164.193 254.627 164.785C254.627 165.547 254.354 166.165 253.81 166.64C253.271 167.108 252.564 167.343 251.691 167.343C250.941 167.343 250.303 167.202 249.775 166.921C249.254 166.64 248.835 166.215 248.519 165.646ZM256.912 160.092H255.436V158.958H256.912V155.715H258.318V158.958H259.795V160.092H258.318V167H256.912V160.092ZM267.512 163.054C267.512 162.146 267.263 161.416 266.765 160.865C266.272 160.309 265.628 160.03 264.831 160.03C264.005 160.03 263.36 160.285 262.897 160.795C262.435 161.305 262.203 162.017 262.203 162.931C262.203 163.903 262.435 164.653 262.897 165.181C263.366 165.708 264.028 165.972 264.884 165.972C265.704 165.972 266.346 165.717 266.809 165.207C267.277 164.691 267.512 163.974 267.512 163.054ZM268.848 158.958V167H267.512V165.541C267.189 166.127 266.776 166.575 266.272 166.886C265.774 167.19 265.215 167.343 264.594 167.343C263.439 167.343 262.508 166.947 261.799 166.156C261.096 165.359 260.744 164.308 260.744 163.001C260.744 161.677 261.087 160.625 261.772 159.846C262.458 159.061 263.375 158.668 264.523 158.668C265.197 158.668 265.78 158.82 266.272 159.125C266.771 159.424 267.172 159.872 267.477 160.47V158.958H268.848ZM272.917 163.019C272.917 163.956 273.157 164.688 273.638 165.216C274.118 165.743 274.777 166.007 275.615 166.007C276.436 166.007 277.077 165.729 277.54 165.172C278.009 164.609 278.243 163.833 278.243 162.843C278.243 161.964 278.015 161.275 277.558 160.777C277.101 160.279 276.468 160.03 275.659 160.03C274.839 160.03 274.177 160.306 273.673 160.856C273.169 161.401 272.917 162.122 272.917 163.019ZM271.607 153.377H272.97V160.47C273.28 159.872 273.682 159.424 274.174 159.125C274.666 158.82 275.243 158.668 275.905 158.668C277.06 158.668 277.979 159.061 278.665 159.846C279.356 160.631 279.702 161.683 279.702 163.001C279.702 164.308 279.351 165.359 278.647 166.156C277.944 166.947 277.013 167.343 275.853 167.343C275.231 167.343 274.666 167.188 274.156 166.877C273.646 166.561 273.233 166.115 272.917 165.541V167H271.607V153.377ZM288.061 163.054C288.061 162.146 287.812 161.416 287.313 160.865C286.821 160.309 286.177 160.03 285.38 160.03C284.554 160.03 283.909 160.285 283.446 160.795C282.983 161.305 282.752 162.017 282.752 162.931C282.752 163.903 282.983 164.653 283.446 165.181C283.915 165.708 284.577 165.972 285.433 165.972C286.253 165.972 286.895 165.717 287.357 165.207C287.826 164.691 288.061 163.974 288.061 163.054ZM289.396 158.958V167H288.061V165.541C287.738 166.127 287.325 166.575 286.821 166.886C286.323 167.19 285.764 167.343 285.143 167.343C283.988 167.343 283.057 166.947 282.348 166.156C281.645 165.359 281.293 164.308 281.293 163.001C281.293 161.677 281.636 160.625 282.321 159.846C283.007 159.061 283.924 158.668 285.072 158.668C285.746 158.668 286.329 158.82 286.821 159.125C287.319 159.424 287.721 159.872 288.025 160.47V158.958H289.396ZM291.304 165.646L292.481 164.855C292.704 165.283 292.985 165.605 293.325 165.822C293.665 166.033 294.066 166.139 294.529 166.139C294.98 166.139 295.344 166.027 295.619 165.805C295.9 165.582 296.041 165.289 296.041 164.926C296.041 164.645 295.944 164.41 295.751 164.223C295.563 164.035 295.238 163.862 294.775 163.704C294.729 163.687 294.652 163.66 294.547 163.625C292.59 162.951 291.611 162.107 291.611 161.094C291.611 160.379 291.875 159.796 292.402 159.345C292.93 158.894 293.615 158.668 294.459 158.668C295.156 158.668 295.754 158.809 296.252 159.09C296.75 159.365 297.107 159.758 297.324 160.268L296.208 160.953C296.044 160.584 295.801 160.3 295.479 160.101C295.162 159.901 294.793 159.802 294.371 159.802C293.967 159.802 293.636 159.916 293.378 160.145C293.126 160.367 293 160.654 293 161.006C293 161.498 293.533 161.911 294.6 162.245C294.799 162.31 294.957 162.359 295.074 162.395C295.947 162.676 296.554 162.998 296.894 163.361C297.239 163.719 297.412 164.193 297.412 164.785C297.412 165.547 297.14 166.165 296.595 166.64C296.056 167.108 295.35 167.343 294.477 167.343C293.727 167.343 293.088 167.202 292.561 166.921C292.039 166.64 291.62 166.215 291.304 165.646ZM306.104 163.019C306.104 163.956 306.345 164.688 306.825 165.216C307.306 165.743 307.965 166.007 308.803 166.007C309.623 166.007 310.265 165.729 310.728 165.172C311.196 164.609 311.431 163.833 311.431 162.843C311.431 161.964 311.202 161.275 310.745 160.777C310.288 160.279 309.655 160.03 308.847 160.03C308.026 160.03 307.364 160.306 306.86 160.856C306.356 161.401 306.104 162.122 306.104 163.019ZM304.795 153.377H306.157V160.47C306.468 159.872 306.869 159.424 307.361 159.125C307.854 158.82 308.431 158.668 309.093 158.668C310.247 158.668 311.167 159.061 311.853 159.846C312.544 160.631 312.89 161.683 312.89 163.001C312.89 164.308 312.538 165.359 311.835 166.156C311.132 166.947 310.2 167.343 309.04 167.343C308.419 167.343 307.854 167.188 307.344 166.877C306.834 166.561 306.421 166.115 306.104 165.541V167H304.795V153.377ZM316.388 158.958V162.913C316.388 164.067 316.558 164.876 316.897 165.339C317.243 165.796 317.823 166.024 318.638 166.024C319.452 166.024 320.026 165.799 320.36 165.348C320.7 164.891 320.87 164.079 320.87 162.913V158.958H322.276V163.651C322.276 164.864 321.966 165.784 321.345 166.411C320.724 167.032 319.81 167.343 318.603 167.343C317.407 167.343 316.499 167.029 315.878 166.402C315.257 165.775 314.946 164.858 314.946 163.651V158.958H316.388ZM324.087 165.646L325.265 164.855C325.487 165.283 325.769 165.605 326.108 165.822C326.448 166.033 326.85 166.139 327.312 166.139C327.764 166.139 328.127 166.027 328.402 165.805C328.684 165.582 328.824 165.289 328.824 164.926C328.824 164.645 328.728 164.41 328.534 164.223C328.347 164.035 328.021 163.862 327.559 163.704C327.512 163.687 327.436 163.66 327.33 163.625C325.373 162.951 324.395 162.107 324.395 161.094C324.395 160.379 324.658 159.796 325.186 159.345C325.713 158.894 326.398 158.668 327.242 158.668C327.939 158.668 328.537 158.809 329.035 159.09C329.533 159.365 329.891 159.758 330.107 160.268L328.991 160.953C328.827 160.584 328.584 160.3 328.262 160.101C327.945 159.901 327.576 159.802 327.154 159.802C326.75 159.802 326.419 159.916 326.161 160.145C325.909 160.367 325.783 160.654 325.783 161.006C325.783 161.498 326.316 161.911 327.383 162.245C327.582 162.31 327.74 162.359 327.857 162.395C328.73 162.676 329.337 162.998 329.677 163.361C330.022 163.719 330.195 164.193 330.195 164.785C330.195 165.547 329.923 166.165 329.378 166.64C328.839 167.108 328.133 167.343 327.26 167.343C326.51 167.343 325.871 167.202 325.344 166.921C324.822 166.64 324.403 166.215 324.087 165.646ZM338.439 165.093V166.692C338.076 166.909 337.666 167.07 337.209 167.176C336.758 167.287 336.269 167.343 335.741 167.343C334.499 167.343 333.497 166.95 332.735 166.165C331.979 165.374 331.602 164.337 331.602 163.054C331.602 161.765 331.994 160.713 332.779 159.898C333.564 159.078 334.569 158.668 335.794 158.668C336.239 158.668 336.673 158.715 337.095 158.809C337.522 158.902 337.924 159.04 338.299 159.222V160.698C337.947 160.47 337.584 160.297 337.209 160.18C336.834 160.057 336.453 159.995 336.066 159.995C335.164 159.995 334.44 160.279 333.896 160.848C333.351 161.41 333.078 162.16 333.078 163.098C333.078 163.924 333.351 164.615 333.896 165.172C334.446 165.729 335.135 166.007 335.961 166.007C336.377 166.007 336.784 165.934 337.183 165.787C337.581 165.641 338 165.409 338.439 165.093ZM346.508 163.054C346.508 162.146 346.259 161.416 345.761 160.865C345.269 160.309 344.624 160.03 343.827 160.03C343.001 160.03 342.356 160.285 341.894 160.795C341.431 161.305 341.199 162.017 341.199 162.931C341.199 163.903 341.431 164.653 341.894 165.181C342.362 165.708 343.024 165.972 343.88 165.972C344.7 165.972 345.342 165.717 345.805 165.207C346.273 164.691 346.508 163.974 346.508 163.054ZM347.844 158.958V167H346.508V165.541C346.186 166.127 345.772 166.575 345.269 166.886C344.771 167.19 344.211 167.343 343.59 167.343C342.436 167.343 341.504 166.947 340.795 166.156C340.092 165.359 339.74 164.308 339.74 163.001C339.74 161.677 340.083 160.625 340.769 159.846C341.454 159.061 342.371 158.668 343.52 158.668C344.193 158.668 344.776 158.82 345.269 159.125C345.767 159.424 346.168 159.872 346.473 160.47V158.958H347.844ZM350.604 167V158.958H351.948V160.197C352.294 159.682 352.71 159.298 353.196 159.046C353.683 158.794 354.245 158.668 354.884 158.668C355.833 158.668 356.574 158.92 357.107 159.424C357.641 159.928 357.907 160.628 357.907 161.524V167H356.501V162.263C356.501 161.448 356.328 160.845 355.982 160.452C355.643 160.054 355.115 159.854 354.4 159.854C353.99 159.854 353.615 159.931 353.275 160.083C352.941 160.229 352.663 160.44 352.44 160.716C352.271 160.927 352.147 161.167 352.071 161.437C352.001 161.706 351.966 162.175 351.966 162.843V167H350.604ZM366.793 163.019C366.793 162.122 366.544 161.401 366.046 160.856C365.548 160.306 364.892 160.03 364.077 160.03C363.263 160.03 362.627 160.279 362.17 160.777C361.713 161.275 361.484 161.964 361.484 162.843C361.484 163.833 361.716 164.609 362.179 165.172C362.642 165.729 363.28 166.007 364.095 166.007C364.938 166.007 365.598 165.743 366.072 165.216C366.553 164.688 366.793 163.956 366.793 163.019ZM368.129 153.377V167H366.793V165.541C366.477 166.121 366.066 166.566 365.562 166.877C365.059 167.188 364.496 167.343 363.875 167.343C362.721 167.343 361.789 166.947 361.08 166.156C360.377 165.359 360.025 164.308 360.025 163.001C360.025 161.683 360.371 160.631 361.062 159.846C361.754 159.061 362.674 158.668 363.822 158.668C364.49 158.668 365.07 158.82 365.562 159.125C366.055 159.424 366.453 159.872 366.758 160.47V153.377H368.129ZM371.75 163.001C371.75 163.851 372.034 164.571 372.603 165.163C373.171 165.749 373.859 166.042 374.668 166.042C375.471 166.042 376.153 165.749 376.716 165.163C377.278 164.571 377.56 163.851 377.56 163.001C377.56 162.151 377.278 161.434 376.716 160.848C376.153 160.256 375.471 159.96 374.668 159.96C373.854 159.96 373.162 160.256 372.594 160.848C372.031 161.434 371.75 162.151 371.75 163.001ZM370.291 163.001C370.291 162.409 370.399 161.853 370.616 161.331C370.833 160.804 371.149 160.335 371.565 159.925C371.981 159.515 372.453 159.204 372.98 158.993C373.508 158.776 374.07 158.668 374.668 158.668C375.254 158.668 375.808 158.776 376.329 158.993C376.856 159.21 377.334 159.526 377.762 159.942C378.178 160.347 378.494 160.812 378.711 161.34C378.928 161.861 379.036 162.415 379.036 163.001C379.036 163.587 378.928 164.141 378.711 164.662C378.494 165.178 378.178 165.638 377.762 166.042C377.334 166.464 376.854 166.786 376.32 167.009C375.793 167.231 375.242 167.343 374.668 167.343C374.076 167.343 373.514 167.231 372.98 167.009C372.453 166.792 371.981 166.479 371.565 166.068C371.149 165.646 370.833 165.178 370.616 164.662C370.399 164.146 370.291 163.593 370.291 163.001Z" fill="white"/>
</svg>
