<svg width="430" height="251" viewBox="0 0 430 251" fill="none" xmlns="http://www.w3.org/2000/svg">
<path d="M26.744 188H14.686C10.2678 188 6.68604 184.418 6.68604 180V19" stroke="white" stroke-width="1.5"/>
<path d="M12.622 12.0784C12.622 15.6144 9.92461 18.4068 6.68598 18.4068C3.44736 18.4068 0.75 15.6144 0.75 12.0784C0.75 8.54244 3.44736 5.75 6.68598 5.75C9.92461 5.75 12.622 8.54244 12.622 12.0784Z" stroke="white" stroke-width="1.5"/>
<rect x="25" y="166" width="328" height="85" rx="16" fill="#002A61"/>
<path d="M43.458 202H44.97V191.542L55.554 202.612V188.428H54.042V198.94L43.458 187.852V202ZM62.0697 202.234C64.5357 202.234 66.5157 200.272 66.5157 197.788C66.5157 195.304 64.5537 193.306 62.0697 193.306C59.5857 193.306 57.6237 195.304 57.6237 197.788C57.6237 200.272 59.6037 202.234 62.0697 202.234ZM62.0697 194.638C63.8517 194.638 65.0757 196.06 65.0757 197.77C65.0757 199.498 63.8517 200.902 62.0697 200.902C60.2877 200.902 59.0637 199.498 59.0637 197.77C59.0637 196.06 60.2877 194.638 62.0697 194.638ZM75.5363 194.872H77.0483V193.54H75.5363V190.498H74.0963V193.54H73.2143V194.872H74.0963V202H75.5363V194.872ZM85.7105 198.076C85.8545 195.556 84.4145 193.306 81.6965 193.306C79.0505 193.306 77.5925 195.376 77.5925 197.878C77.5925 200.308 79.2125 202.234 81.7325 202.234C83.4605 202.234 84.8285 201.37 85.6385 199.858L84.4145 199.156C83.8565 200.164 83.0645 200.902 81.8405 200.902C80.2025 200.902 79.0865 199.642 79.0685 198.076H85.7105ZM79.1405 196.852C79.3205 195.628 80.4725 194.638 81.7145 194.638C82.9745 194.638 84.0005 195.628 84.1985 196.852H79.1405ZM96.7296 194.638C98.5116 194.638 99.5736 196.006 99.5736 197.698C99.5736 199.408 98.6016 200.902 96.7476 200.902C94.9476 200.902 93.9756 199.336 93.9756 197.68C93.9756 196.096 95.0556 194.638 96.7296 194.638ZM100.942 193.54H99.5016V194.746H99.4656C98.7636 193.81 97.7016 193.306 96.5496 193.306C94.0476 193.306 92.4996 195.448 92.4996 197.806C92.4996 200.2 94.0296 202.234 96.5676 202.234C97.7016 202.234 98.7816 201.73 99.4656 200.812H99.5016V206.752H100.942V193.54ZM104.94 193.54H103.5V198.418C103.5 200.668 104.346 202.234 106.848 202.234C109.35 202.234 110.196 200.668 110.196 198.418V193.54H108.756V198.256C108.756 199.678 108.594 200.902 106.848 200.902C105.102 200.902 104.94 199.678 104.94 198.256V193.54ZM120.181 198.076C120.325 195.556 118.885 193.306 116.167 193.306C113.521 193.306 112.063 195.376 112.063 197.878C112.063 200.308 113.683 202.234 116.203 202.234C117.931 202.234 119.299 201.37 120.109 199.858L118.885 199.156C118.327 200.164 117.535 200.902 116.311 200.902C114.673 200.902 113.557 199.642 113.539 198.076H120.181ZM113.611 196.852C113.791 195.628 114.943 194.638 116.185 194.638C117.445 194.638 118.471 195.628 118.669 196.852H113.611ZM125.663 194.638C127.445 194.638 128.507 196.006 128.507 197.698C128.507 199.408 127.535 200.902 125.681 200.902C123.881 200.902 122.909 199.336 122.909 197.68C122.909 196.096 123.989 194.638 125.663 194.638ZM128.435 202H129.875V187.15H128.435V194.746H128.399C127.715 193.846 126.635 193.306 125.501 193.306C122.963 193.306 121.433 195.376 121.433 197.788C121.433 200.128 122.999 202.234 125.483 202.234C126.635 202.234 127.697 201.748 128.399 200.83H128.435V202ZM139.904 198.076C140.048 195.556 138.608 193.306 135.89 193.306C133.244 193.306 131.786 195.376 131.786 197.878C131.786 200.308 133.406 202.234 135.926 202.234C137.654 202.234 139.022 201.37 139.832 199.858L138.608 199.156C138.05 200.164 137.258 200.902 136.034 200.902C134.396 200.902 133.28 199.642 133.262 198.076H139.904ZM133.334 196.852C133.514 195.628 134.666 194.638 135.908 194.638C137.168 194.638 138.194 195.628 138.392 196.852H133.334ZM146.502 194.872C146.124 193.99 145.224 193.306 144.252 193.306C142.884 193.306 141.732 194.278 141.732 195.7C141.732 198.364 145.548 197.716 145.548 199.606C145.548 200.38 144.954 200.902 144.18 200.902C143.226 200.902 142.812 200.344 142.452 199.552L141.174 200.092C141.624 201.424 142.74 202.234 144.162 202.234C145.728 202.234 147.024 201.082 147.024 199.48C147.024 198.058 146.052 197.464 145.062 197.05C144.072 196.636 143.1 196.348 143.1 195.574C143.1 195.034 143.64 194.638 144.144 194.638C144.666 194.638 145.098 195.052 145.296 195.502L146.502 194.872ZM159.228 194.872C158.85 193.99 157.95 193.306 156.978 193.306C155.61 193.306 154.458 194.278 154.458 195.7C154.458 198.364 158.274 197.716 158.274 199.606C158.274 200.38 157.68 200.902 156.906 200.902C155.952 200.902 155.538 200.344 155.178 199.552L153.9 200.092C154.35 201.424 155.466 202.234 156.888 202.234C158.454 202.234 159.75 201.082 159.75 199.48C159.75 198.058 158.778 197.464 157.788 197.05C156.798 196.636 155.826 196.348 155.826 195.574C155.826 195.034 156.366 194.638 156.87 194.638C157.392 194.638 157.824 195.052 158.022 195.502L159.228 194.872ZM163.502 193.54H162.062V202H163.502V193.54ZM162.782 189.328C162.224 189.328 161.756 189.796 161.756 190.354C161.756 190.93 162.224 191.38 162.782 191.38C163.34 191.38 163.808 190.93 163.808 190.354C163.808 189.796 163.34 189.328 162.782 189.328ZM167.943 193.54H166.503V202H167.943V197.986C167.943 196.474 168.069 194.638 170.049 194.638C171.723 194.638 171.831 195.862 171.831 197.23V202H173.271V196.978C173.271 194.998 172.731 193.306 170.391 193.306C169.347 193.306 168.573 193.756 167.979 194.566H167.943V193.54ZM182.954 187.15H181.514V202H182.954V187.15ZM189.318 202.234C191.784 202.234 193.764 200.272 193.764 197.788C193.764 195.304 191.802 193.306 189.318 193.306C186.834 193.306 184.872 195.304 184.872 197.788C184.872 200.272 186.852 202.234 189.318 202.234ZM189.318 194.638C191.1 194.638 192.324 196.06 192.324 197.77C192.324 199.498 191.1 200.902 189.318 200.902C187.536 200.902 186.312 199.498 186.312 197.77C186.312 196.06 187.536 194.638 189.318 194.638ZM204.858 192.766V202H201.6V192.766H204.858ZM201.384 189.22C201.384 188.968 201.432 188.734 201.528 188.518C201.624 188.29 201.756 188.092 201.924 187.924C202.092 187.756 202.284 187.624 202.5 187.528C202.728 187.432 202.968 187.384 203.22 187.384C203.472 187.384 203.706 187.432 203.922 187.528C204.15 187.624 204.348 187.756 204.516 187.924C204.684 188.092 204.816 188.29 204.912 188.518C205.008 188.734 205.056 188.968 205.056 189.22C205.056 189.472 205.008 189.712 204.912 189.94C204.816 190.156 204.684 190.348 204.516 190.516C204.348 190.684 204.15 190.816 203.922 190.912C203.706 191.008 203.472 191.056 203.22 191.056C202.968 191.056 202.728 191.008 202.5 190.912C202.284 190.816 202.092 190.684 201.924 190.516C201.756 190.348 201.624 190.156 201.528 189.94C201.432 189.712 201.384 189.472 201.384 189.22ZM207.085 192.766H210.343V193.936C210.787 193.396 211.237 193.036 211.693 192.856C212.149 192.664 212.683 192.568 213.295 192.568C213.943 192.568 214.495 192.676 214.951 192.892C215.419 193.096 215.815 193.39 216.139 193.774C216.403 194.086 216.583 194.434 216.679 194.818C216.775 195.202 216.823 195.64 216.823 196.132V202H213.565V197.338C213.565 196.882 213.529 196.516 213.457 196.24C213.397 195.952 213.283 195.724 213.115 195.556C212.971 195.412 212.809 195.31 212.629 195.25C212.449 195.19 212.257 195.16 212.053 195.16C211.501 195.16 211.075 195.328 210.775 195.664C210.487 195.988 210.343 196.456 210.343 197.068V202H207.085V192.766ZM222.062 197.356C222.062 197.656 222.116 197.938 222.224 198.202C222.332 198.454 222.476 198.676 222.656 198.868C222.848 199.06 223.07 199.21 223.322 199.318C223.586 199.426 223.868 199.48 224.168 199.48C224.456 199.48 224.726 199.426 224.978 199.318C225.242 199.21 225.464 199.06 225.644 198.868C225.836 198.676 225.986 198.454 226.094 198.202C226.214 197.95 226.274 197.68 226.274 197.392C226.274 197.104 226.214 196.834 226.094 196.582C225.986 196.318 225.836 196.09 225.644 195.898C225.464 195.706 225.242 195.556 224.978 195.448C224.726 195.34 224.456 195.286 224.168 195.286C223.88 195.286 223.604 195.34 223.34 195.448C223.088 195.556 222.866 195.706 222.674 195.898C222.494 196.09 222.344 196.312 222.224 196.564C222.116 196.804 222.062 197.068 222.062 197.356ZM226.166 187.06H229.442V202H226.166V200.974C225.47 201.85 224.528 202.288 223.34 202.288C222.668 202.288 222.05 202.162 221.486 201.91C220.922 201.658 220.43 201.31 220.01 200.866C219.59 200.422 219.26 199.9 219.02 199.3C218.792 198.7 218.678 198.052 218.678 197.356C218.678 196.696 218.786 196.072 219.002 195.484C219.23 194.884 219.548 194.362 219.956 193.918C220.364 193.474 220.85 193.126 221.414 192.874C221.99 192.61 222.62 192.478 223.304 192.478C224.456 192.478 225.41 192.88 226.166 193.684V187.06ZM234.917 192.766V202H231.659V192.766H234.917ZM231.443 189.22C231.443 188.968 231.491 188.734 231.587 188.518C231.683 188.29 231.815 188.092 231.983 187.924C232.151 187.756 232.343 187.624 232.559 187.528C232.787 187.432 233.027 187.384 233.279 187.384C233.531 187.384 233.765 187.432 233.981 187.528C234.209 187.624 234.407 187.756 234.575 187.924C234.743 188.092 234.875 188.29 234.971 188.518C235.067 188.734 235.115 188.968 235.115 189.22C235.115 189.472 235.067 189.712 234.971 189.94C234.875 190.156 234.743 190.348 234.575 190.516C234.407 190.684 234.209 190.816 233.981 190.912C233.765 191.008 233.531 191.056 233.279 191.056C233.027 191.056 232.787 191.008 232.559 190.912C232.343 190.816 232.151 190.684 231.983 190.516C231.815 190.348 231.683 190.156 231.587 189.94C231.491 189.712 231.443 189.472 231.443 189.22ZM243.263 195.142C242.663 194.83 242.075 194.674 241.499 194.674C241.199 194.674 240.953 194.734 240.761 194.854C240.581 194.974 240.491 195.136 240.491 195.34C240.491 195.448 240.503 195.538 240.527 195.61C240.563 195.67 240.629 195.73 240.725 195.79C240.833 195.85 240.983 195.904 241.175 195.952C241.379 196 241.643 196.06 241.967 196.132C242.867 196.312 243.539 196.636 243.983 197.104C244.427 197.56 244.649 198.148 244.649 198.868C244.649 199.408 244.541 199.894 244.325 200.326C244.109 200.758 243.809 201.124 243.425 201.424C243.041 201.712 242.579 201.934 242.039 202.09C241.499 202.258 240.905 202.342 240.257 202.342C239.009 202.342 237.779 201.988 236.567 201.28L237.755 198.976C238.667 199.6 239.531 199.912 240.347 199.912C240.647 199.912 240.893 199.846 241.085 199.714C241.277 199.582 241.373 199.414 241.373 199.21C241.373 199.09 241.355 198.994 241.319 198.922C241.295 198.838 241.235 198.766 241.139 198.706C241.043 198.634 240.899 198.574 240.707 198.526C240.527 198.466 240.287 198.406 239.987 198.346C238.979 198.142 238.271 197.842 237.863 197.446C237.467 197.038 237.269 196.48 237.269 195.772C237.269 195.256 237.365 194.794 237.557 194.386C237.749 193.966 238.025 193.612 238.385 193.324C238.745 193.036 239.177 192.814 239.681 192.658C240.197 192.502 240.767 192.424 241.391 192.424C242.411 192.424 243.401 192.622 244.361 193.018L243.263 195.142ZM253.664 197.41C253.664 197.122 253.61 196.852 253.502 196.6C253.406 196.336 253.262 196.108 253.07 195.916C252.878 195.724 252.65 195.574 252.386 195.466C252.134 195.346 251.858 195.286 251.558 195.286C251.27 195.286 251 195.34 250.748 195.448C250.496 195.556 250.274 195.706 250.082 195.898C249.902 196.09 249.752 196.318 249.632 196.582C249.524 196.834 249.47 197.104 249.47 197.392C249.47 197.68 249.524 197.95 249.632 198.202C249.74 198.454 249.89 198.676 250.082 198.868C250.274 199.048 250.496 199.198 250.748 199.318C251.012 199.426 251.288 199.48 251.576 199.48C251.864 199.48 252.134 199.426 252.386 199.318C252.638 199.21 252.854 199.06 253.034 198.868C253.226 198.676 253.376 198.454 253.484 198.202C253.604 197.95 253.664 197.686 253.664 197.41ZM249.56 206.608H246.302V192.766H249.56V193.792C250.256 192.916 251.204 192.478 252.404 192.478C253.064 192.478 253.676 192.61 254.24 192.874C254.816 193.126 255.314 193.474 255.734 193.918C256.154 194.362 256.478 194.884 256.706 195.484C256.946 196.084 257.066 196.726 257.066 197.41C257.066 198.094 256.946 198.73 256.706 199.318C256.478 199.906 256.154 200.422 255.734 200.866C255.326 201.31 254.84 201.658 254.276 201.91C253.712 202.162 253.1 202.288 252.44 202.288C251.288 202.288 250.328 201.892 249.56 201.1V206.608ZM265.673 196.042C265.565 195.586 265.343 195.22 265.007 194.944C264.671 194.668 264.263 194.53 263.783 194.53C263.279 194.53 262.865 194.662 262.541 194.926C262.229 195.19 262.031 195.562 261.947 196.042H265.673ZM261.857 197.932C261.857 199.336 262.517 200.038 263.837 200.038C264.545 200.038 265.079 199.75 265.439 199.174H268.589C267.953 201.286 266.363 202.342 263.819 202.342C263.039 202.342 262.325 202.228 261.677 202C261.029 201.76 260.471 201.424 260.003 200.992C259.547 200.56 259.193 200.044 258.941 199.444C258.689 198.844 258.563 198.172 258.563 197.428C258.563 196.66 258.683 195.97 258.923 195.358C259.163 194.734 259.505 194.206 259.949 193.774C260.393 193.342 260.927 193.012 261.551 192.784C262.187 192.544 262.901 192.424 263.693 192.424C264.473 192.424 265.175 192.544 265.799 192.784C266.423 193.012 266.951 193.348 267.383 193.792C267.815 194.236 268.145 194.782 268.373 195.43C268.601 196.066 268.715 196.786 268.715 197.59V197.932H261.857ZM270.577 192.766H273.835V193.936C274.279 193.396 274.729 193.036 275.185 192.856C275.641 192.664 276.175 192.568 276.787 192.568C277.435 192.568 277.987 192.676 278.443 192.892C278.911 193.096 279.307 193.39 279.631 193.774C279.895 194.086 280.075 194.434 280.171 194.818C280.267 195.202 280.315 195.64 280.315 196.132V202H277.057V197.338C277.057 196.882 277.021 196.516 276.949 196.24C276.889 195.952 276.775 195.724 276.607 195.556C276.463 195.412 276.301 195.31 276.121 195.25C275.941 195.19 275.749 195.16 275.545 195.16C274.993 195.16 274.567 195.328 274.267 195.664C273.979 195.988 273.835 196.456 273.835 197.068V202H270.577V192.766ZM288.65 195.142C288.05 194.83 287.462 194.674 286.886 194.674C286.586 194.674 286.34 194.734 286.148 194.854C285.968 194.974 285.878 195.136 285.878 195.34C285.878 195.448 285.89 195.538 285.914 195.61C285.95 195.67 286.016 195.73 286.112 195.79C286.22 195.85 286.37 195.904 286.562 195.952C286.766 196 287.03 196.06 287.354 196.132C288.254 196.312 288.926 196.636 289.37 197.104C289.814 197.56 290.036 198.148 290.036 198.868C290.036 199.408 289.928 199.894 289.712 200.326C289.496 200.758 289.196 201.124 288.812 201.424C288.428 201.712 287.966 201.934 287.426 202.09C286.886 202.258 286.292 202.342 285.644 202.342C284.396 202.342 283.166 201.988 281.954 201.28L283.142 198.976C284.054 199.6 284.918 199.912 285.734 199.912C286.034 199.912 286.28 199.846 286.472 199.714C286.664 199.582 286.76 199.414 286.76 199.21C286.76 199.09 286.742 198.994 286.706 198.922C286.682 198.838 286.622 198.766 286.526 198.706C286.43 198.634 286.286 198.574 286.094 198.526C285.914 198.466 285.674 198.406 285.374 198.346C284.366 198.142 283.658 197.842 283.25 197.446C282.854 197.038 282.656 196.48 282.656 195.772C282.656 195.256 282.752 194.794 282.944 194.386C283.136 193.966 283.412 193.612 283.772 193.324C284.132 193.036 284.564 192.814 285.068 192.658C285.584 192.502 286.154 192.424 286.778 192.424C287.798 192.424 288.788 192.622 289.748 193.018L288.65 195.142ZM294.712 197.356C294.712 197.656 294.766 197.938 294.874 198.202C294.982 198.454 295.126 198.676 295.306 198.868C295.498 199.06 295.72 199.21 295.972 199.318C296.236 199.426 296.518 199.48 296.818 199.48C297.106 199.48 297.376 199.426 297.628 199.318C297.892 199.21 298.114 199.06 298.294 198.868C298.486 198.676 298.636 198.454 298.744 198.202C298.864 197.95 298.924 197.68 298.924 197.392C298.924 197.104 298.864 196.834 298.744 196.582C298.636 196.318 298.486 196.09 298.294 195.898C298.114 195.706 297.892 195.556 297.628 195.448C297.376 195.34 297.106 195.286 296.818 195.286C296.518 195.286 296.236 195.34 295.972 195.448C295.72 195.556 295.498 195.706 295.306 195.898C295.126 196.09 294.982 196.312 294.874 196.564C294.766 196.804 294.712 197.068 294.712 197.356ZM298.816 192.766H302.092V202H298.816V200.974C298.12 201.85 297.178 202.288 295.99 202.288C295.318 202.288 294.7 202.168 294.136 201.928C293.572 201.676 293.08 201.328 292.66 200.884C292.24 200.44 291.91 199.918 291.67 199.318C291.442 198.718 291.328 198.064 291.328 197.356C291.328 196.696 291.442 196.072 291.67 195.484C291.898 194.884 292.216 194.362 292.624 193.918C293.032 193.474 293.518 193.126 294.082 192.874C294.646 192.61 295.27 192.478 295.954 192.478C297.106 192.478 298.06 192.88 298.816 193.684V192.766ZM311.671 197.41C311.671 197.122 311.617 196.852 311.509 196.6C311.401 196.336 311.251 196.108 311.059 195.916C310.867 195.724 310.645 195.574 310.393 195.466C310.141 195.346 309.865 195.286 309.565 195.286C309.277 195.286 309.007 195.34 308.755 195.448C308.503 195.556 308.281 195.706 308.089 195.898C307.909 196.09 307.759 196.318 307.639 196.582C307.531 196.834 307.477 197.104 307.477 197.392C307.477 197.68 307.531 197.95 307.639 198.202C307.747 198.454 307.897 198.676 308.089 198.868C308.281 199.048 308.503 199.198 308.755 199.318C309.019 199.426 309.295 199.48 309.583 199.48C309.871 199.48 310.141 199.426 310.393 199.318C310.645 199.21 310.861 199.06 311.041 198.868C311.233 198.676 311.383 198.454 311.491 198.202C311.611 197.95 311.671 197.686 311.671 197.41ZM307.567 187.06V193.684C308.335 192.88 309.295 192.478 310.447 192.478C311.131 192.478 311.755 192.61 312.319 192.874C312.895 193.126 313.381 193.474 313.777 193.918C314.185 194.35 314.503 194.866 314.731 195.466C314.959 196.054 315.073 196.684 315.073 197.356C315.073 198.04 314.953 198.682 314.713 199.282C314.485 199.882 314.161 200.404 313.741 200.848C313.321 201.292 312.823 201.646 312.247 201.91C311.683 202.162 311.071 202.288 310.411 202.288C309.211 202.288 308.263 201.85 307.567 200.974V202H304.309V187.06H307.567ZM320.188 187.06V202H316.93V187.06H320.188ZM329.165 196.042C329.057 195.586 328.835 195.22 328.499 194.944C328.163 194.668 327.755 194.53 327.275 194.53C326.771 194.53 326.357 194.662 326.033 194.926C325.721 195.19 325.523 195.562 325.439 196.042H329.165ZM325.349 197.932C325.349 199.336 326.009 200.038 327.329 200.038C328.037 200.038 328.571 199.75 328.931 199.174H332.081C331.445 201.286 329.855 202.342 327.311 202.342C326.531 202.342 325.817 202.228 325.169 202C324.521 201.76 323.963 201.424 323.495 200.992C323.039 200.56 322.685 200.044 322.433 199.444C322.181 198.844 322.055 198.172 322.055 197.428C322.055 196.66 322.175 195.97 322.415 195.358C322.655 194.734 322.997 194.206 323.441 193.774C323.885 193.342 324.419 193.012 325.043 192.784C325.679 192.544 326.393 192.424 327.185 192.424C327.965 192.424 328.667 192.544 329.291 192.784C329.915 193.012 330.443 193.348 330.875 193.792C331.307 194.236 331.637 194.782 331.865 195.43C332.093 196.066 332.207 196.786 332.207 197.59V197.932H325.349ZM47.418 214.638C49.2 214.638 50.262 216.006 50.262 217.698C50.262 219.408 49.29 220.902 47.436 220.902C45.636 220.902 44.664 219.336 44.664 217.68C44.664 216.096 45.744 214.638 47.418 214.638ZM44.736 213.54H43.296V226.752H44.736V220.812H44.772C45.456 221.73 46.518 222.234 47.67 222.234C50.208 222.234 51.738 220.2 51.738 217.788C51.738 215.448 50.172 213.306 47.688 213.306C46.518 213.306 45.474 213.81 44.772 214.746H44.736V213.54ZM57.2667 214.638C59.0487 214.638 60.1107 216.006 60.1107 217.698C60.1107 219.408 59.1387 220.902 57.2847 220.902C55.4847 220.902 54.5127 219.336 54.5127 217.68C54.5127 216.096 55.5927 214.638 57.2667 214.638ZM61.4787 213.54H60.0387V214.746H60.0027C59.3007 213.846 58.2567 213.306 57.1047 213.306C54.5667 213.306 53.0367 215.376 53.0367 217.788C53.0367 220.128 54.6027 222.234 57.0867 222.234C58.2747 222.234 59.2647 221.766 60.0027 220.83H60.0387V222H61.4787V213.54ZM65.5133 213.54H64.0733V222H65.5133V217.77C65.5133 216.672 65.5853 214.638 67.1693 214.638C67.5473 214.638 67.7453 214.818 68.0333 215.016L68.7173 213.702C68.3033 213.468 67.9073 213.306 67.4213 213.306C66.4853 213.306 66.0533 213.792 65.5493 214.458H65.5133V213.54ZM73.6846 214.638C75.4666 214.638 76.5286 216.006 76.5286 217.698C76.5286 219.408 75.5566 220.902 73.7026 220.902C71.9026 220.902 70.9306 219.336 70.9306 217.68C70.9306 216.096 72.0106 214.638 73.6846 214.638ZM77.8966 213.54H76.4566V214.746H76.4206C75.7186 213.846 74.6746 213.306 73.5226 213.306C70.9846 213.306 69.4546 215.376 69.4546 217.788C69.4546 220.128 71.0206 222.234 73.5046 222.234C74.6926 222.234 75.6826 221.766 76.4206 220.83H76.4566V222H77.8966V213.54ZM90.0645 215.484V222H86.8065V215.484H85.7265V212.766H86.8065V209.994H90.0645V212.766H91.9185V215.484H90.0645ZM96.4013 212.766V217.968C96.4013 219.108 96.9533 219.678 98.0573 219.678C99.1613 219.678 99.7133 219.108 99.7133 217.968V212.766H102.971V218.598C102.971 219.846 102.557 220.782 101.729 221.406C100.913 222.03 99.6893 222.342 98.0573 222.342C96.4253 222.342 95.1953 222.03 94.3673 221.406C93.5513 220.782 93.1433 219.846 93.1433 218.598V212.766H96.4013ZM111.302 212.766H114.56V213.936C115.004 213.396 115.454 213.036 115.91 212.856C116.366 212.664 116.9 212.568 117.512 212.568C118.16 212.568 118.712 212.676 119.168 212.892C119.636 213.096 120.032 213.39 120.356 213.774C120.62 214.086 120.8 214.434 120.896 214.818C120.992 215.202 121.04 215.64 121.04 216.132V222H117.782V217.338C117.782 216.882 117.746 216.516 117.674 216.24C117.614 215.952 117.5 215.724 117.332 215.556C117.188 215.412 117.026 215.31 116.846 215.25C116.666 215.19 116.474 215.16 116.27 215.16C115.718 215.16 115.292 215.328 114.992 215.664C114.704 215.988 114.56 216.456 114.56 217.068V222H111.302V212.766ZM130.005 216.042C129.897 215.586 129.675 215.22 129.339 214.944C129.003 214.668 128.595 214.53 128.115 214.53C127.611 214.53 127.197 214.662 126.873 214.926C126.561 215.19 126.363 215.562 126.279 216.042H130.005ZM126.189 217.932C126.189 219.336 126.849 220.038 128.169 220.038C128.877 220.038 129.411 219.75 129.771 219.174H132.921C132.285 221.286 130.695 222.342 128.151 222.342C127.371 222.342 126.657 222.228 126.009 222C125.361 221.76 124.803 221.424 124.335 220.992C123.879 220.56 123.525 220.044 123.273 219.444C123.021 218.844 122.895 218.172 122.895 217.428C122.895 216.66 123.015 215.97 123.255 215.358C123.495 214.734 123.837 214.206 124.281 213.774C124.725 213.342 125.259 213.012 125.883 212.784C126.519 212.544 127.233 212.424 128.025 212.424C128.805 212.424 129.507 212.544 130.131 212.784C130.755 213.012 131.283 213.348 131.715 213.792C132.147 214.236 132.477 214.782 132.705 215.43C132.933 216.066 133.047 216.786 133.047 217.59V217.932H126.189ZM137.933 217.338C137.933 217.638 137.987 217.92 138.095 218.184C138.203 218.436 138.347 218.658 138.527 218.85C138.719 219.042 138.941 219.192 139.193 219.3C139.457 219.408 139.739 219.462 140.039 219.462C140.327 219.462 140.597 219.408 140.849 219.3C141.113 219.192 141.335 219.042 141.515 218.85C141.707 218.658 141.857 218.436 141.965 218.184C142.085 217.92 142.145 217.644 142.145 217.356C142.145 217.056 142.085 216.78 141.965 216.528C141.857 216.276 141.707 216.054 141.515 215.862C141.323 215.67 141.095 215.52 140.831 215.412C140.579 215.304 140.315 215.25 140.039 215.25C139.751 215.25 139.481 215.31 139.229 215.43C138.977 215.538 138.755 215.688 138.563 215.88C138.371 216.06 138.215 216.276 138.095 216.528C137.987 216.78 137.933 217.05 137.933 217.338ZM145.241 212.766V221.37C145.241 221.886 145.211 222.348 145.151 222.756C145.091 223.164 145.007 223.524 144.899 223.836C144.755 224.232 144.527 224.598 144.215 224.934C143.915 225.282 143.549 225.582 143.117 225.834C142.685 226.086 142.193 226.284 141.641 226.428C141.101 226.572 140.513 226.644 139.877 226.644C139.157 226.644 138.497 226.554 137.897 226.374C137.297 226.194 136.769 225.942 136.313 225.618C135.869 225.306 135.503 224.934 135.215 224.502C134.927 224.082 134.735 223.62 134.639 223.116H138.311C138.539 223.728 139.055 224.034 139.859 224.034C140.543 224.034 141.065 223.842 141.425 223.458C141.797 223.074 141.983 222.54 141.983 221.856V220.974C141.743 221.202 141.509 221.394 141.281 221.55C141.065 221.694 140.843 221.814 140.615 221.91C140.387 222.006 140.147 222.072 139.895 222.108C139.643 222.156 139.367 222.18 139.067 222.18C138.407 222.18 137.801 222.066 137.249 221.838C136.697 221.61 136.217 221.292 135.809 220.884C135.413 220.476 135.101 219.99 134.873 219.426C134.657 218.85 134.549 218.214 134.549 217.518C134.549 216.81 134.669 216.156 134.909 215.556C135.149 214.944 135.473 214.416 135.881 213.972C136.301 213.516 136.793 213.162 137.357 212.91C137.933 212.646 138.557 212.514 139.229 212.514C140.321 212.514 141.239 212.922 141.983 213.738V212.766H145.241ZM150.538 217.338C150.538 217.65 150.592 217.938 150.7 218.202C150.82 218.454 150.97 218.676 151.15 218.868C151.342 219.06 151.564 219.21 151.816 219.318C152.08 219.426 152.356 219.48 152.644 219.48C152.932 219.48 153.202 219.426 153.454 219.318C153.718 219.21 153.94 219.06 154.12 218.868C154.312 218.676 154.462 218.454 154.57 218.202C154.69 217.938 154.75 217.656 154.75 217.356C154.75 217.068 154.69 216.798 154.57 216.546C154.462 216.282 154.312 216.054 154.12 215.862C153.94 215.67 153.718 215.52 153.454 215.412C153.202 215.304 152.932 215.25 152.644 215.25C152.356 215.25 152.08 215.304 151.816 215.412C151.564 215.52 151.342 215.67 151.15 215.862C150.97 216.054 150.82 216.276 150.7 216.528C150.592 216.78 150.538 217.05 150.538 217.338ZM147.1 217.302C147.1 216.618 147.238 215.982 147.514 215.394C147.79 214.794 148.174 214.278 148.666 213.846C149.158 213.402 149.74 213.054 150.412 212.802C151.096 212.55 151.84 212.424 152.644 212.424C153.436 212.424 154.168 212.55 154.84 212.802C155.524 213.042 156.112 213.384 156.604 213.828C157.108 214.26 157.498 214.782 157.774 215.394C158.05 215.994 158.188 216.66 158.188 217.392C158.188 218.124 158.044 218.796 157.756 219.408C157.48 220.008 157.096 220.53 156.604 220.974C156.112 221.406 155.518 221.742 154.822 221.982C154.138 222.222 153.394 222.342 152.59 222.342C151.798 222.342 151.066 222.222 150.394 221.982C149.722 221.742 149.14 221.4 148.648 220.956C148.168 220.512 147.79 219.984 147.514 219.372C147.238 218.748 147.1 218.058 147.1 217.302ZM167.029 215.754C166.465 215.37 165.895 215.178 165.319 215.178C165.007 215.178 164.713 215.232 164.437 215.34C164.173 215.448 163.939 215.604 163.735 215.808C163.531 216 163.369 216.234 163.249 216.51C163.141 216.774 163.087 217.074 163.087 217.41C163.087 217.734 163.141 218.034 163.249 218.31C163.369 218.574 163.525 218.808 163.717 219.012C163.921 219.204 164.161 219.354 164.437 219.462C164.713 219.57 165.007 219.624 165.319 219.624C165.931 219.624 166.501 219.414 167.029 218.994V221.766C166.225 222.114 165.463 222.288 164.743 222.288C164.071 222.288 163.429 222.174 162.817 221.946C162.217 221.718 161.683 221.394 161.215 220.974C160.759 220.542 160.393 220.032 160.117 219.444C159.841 218.844 159.703 218.178 159.703 217.446C159.703 216.714 159.835 216.048 160.099 215.448C160.363 214.836 160.723 214.314 161.179 213.882C161.635 213.438 162.175 213.096 162.799 212.856C163.435 212.604 164.113 212.478 164.833 212.478C165.625 212.478 166.357 212.646 167.029 212.982V215.754ZM172.145 212.766V222H168.887V212.766H172.145ZM168.671 209.22C168.671 208.968 168.719 208.734 168.815 208.518C168.911 208.29 169.043 208.092 169.211 207.924C169.379 207.756 169.571 207.624 169.787 207.528C170.015 207.432 170.255 207.384 170.507 207.384C170.759 207.384 170.993 207.432 171.209 207.528C171.437 207.624 171.635 207.756 171.803 207.924C171.971 208.092 172.103 208.29 172.199 208.518C172.295 208.734 172.343 208.968 172.343 209.22C172.343 209.472 172.295 209.712 172.199 209.94C172.103 210.156 171.971 210.348 171.803 210.516C171.635 210.684 171.437 210.816 171.209 210.912C170.993 211.008 170.759 211.056 170.507 211.056C170.255 211.056 170.015 211.008 169.787 210.912C169.571 210.816 169.379 210.684 169.211 210.516C169.043 210.348 168.911 210.156 168.815 209.94C168.719 209.712 168.671 209.472 168.671 209.22ZM177.45 217.338C177.45 217.65 177.504 217.938 177.612 218.202C177.732 218.454 177.882 218.676 178.062 218.868C178.254 219.06 178.476 219.21 178.728 219.318C178.992 219.426 179.268 219.48 179.556 219.48C179.844 219.48 180.114 219.426 180.366 219.318C180.63 219.21 180.852 219.06 181.032 218.868C181.224 218.676 181.374 218.454 181.482 218.202C181.602 217.938 181.662 217.656 181.662 217.356C181.662 217.068 181.602 216.798 181.482 216.546C181.374 216.282 181.224 216.054 181.032 215.862C180.852 215.67 180.63 215.52 180.366 215.412C180.114 215.304 179.844 215.25 179.556 215.25C179.268 215.25 178.992 215.304 178.728 215.412C178.476 215.52 178.254 215.67 178.062 215.862C177.882 216.054 177.732 216.276 177.612 216.528C177.504 216.78 177.45 217.05 177.45 217.338ZM174.012 217.302C174.012 216.618 174.15 215.982 174.426 215.394C174.702 214.794 175.086 214.278 175.578 213.846C176.07 213.402 176.652 213.054 177.324 212.802C178.008 212.55 178.752 212.424 179.556 212.424C180.348 212.424 181.08 212.55 181.752 212.802C182.436 213.042 183.024 213.384 183.516 213.828C184.02 214.26 184.41 214.782 184.686 215.394C184.962 215.994 185.1 216.66 185.1 217.392C185.1 218.124 184.956 218.796 184.668 219.408C184.392 220.008 184.008 220.53 183.516 220.974C183.024 221.406 182.43 221.742 181.734 221.982C181.05 222.222 180.306 222.342 179.502 222.342C178.71 222.342 177.978 222.222 177.306 221.982C176.634 221.742 176.052 221.4 175.56 220.956C175.08 220.512 174.702 219.984 174.426 219.372C174.15 218.748 174.012 218.058 174.012 217.302Z" fill="white"/>
<path d="M39.1797 39.8125H43.2578C47.1016 39.8125 49.8984 38.9375 51.6484 37.1875C53.4141 35.4375 54.2969 32.6641 54.2969 28.8672C54.2969 25.0859 53.4141 22.3203 51.6484 20.5703C49.8984 18.8047 47.1016 17.9219 43.2578 17.9219H39.1797V39.8125ZM31.8438 46V11.6875H41.1953C44.8828 11.6875 47.7891 11.9453 49.9141 12.4609C52.0391 12.9766 53.9062 13.8359 55.5156 15.0391C57.5938 16.5859 59.1641 18.5391 60.2266 20.8984C61.3047 23.2422 61.8438 25.9141 61.8438 28.9141C61.8438 31.9609 61.2969 34.6641 60.2031 37.0234C59.1094 39.3672 57.5078 41.3047 55.3984 42.8359C53.8359 43.9609 52.0938 44.7734 50.1719 45.2734C48.2656 45.7578 45.4688 46 41.7812 46H39.1797H31.8438ZM68.125 46V11.6875H75.4609V46H68.125ZM81.1094 41.6406L85.1875 37.0234C85.7031 38.2891 86.5312 39.2891 87.6719 40.0234C88.8125 40.7422 90.0938 41.1016 91.5156 41.1016C93.2344 41.1016 94.5938 40.6953 95.5938 39.8828C96.5938 39.0703 97.0938 37.9766 97.0938 36.6016C97.0938 34.9766 95.4297 33.3594 92.1016 31.75C91.0234 31.2344 90.1719 30.8125 89.5469 30.4844C86.5469 28.9219 84.4688 27.3984 83.3125 25.9141C82.1562 24.4141 81.5781 22.6328 81.5781 20.5703C81.5781 17.7422 82.6953 15.4219 84.9297 13.6094C87.1797 11.7812 90.0938 10.8672 93.6719 10.8672C95.75 10.8672 97.5391 11.2344 99.0391 11.9688C100.555 12.6875 101.891 13.8203 103.047 15.3672L98.7109 19.5156C98.1953 18.5156 97.5078 17.7734 96.6484 17.2891C95.8047 16.7891 94.7812 16.5391 93.5781 16.5391C92.125 16.5391 90.9531 16.9062 90.0625 17.6406C89.1719 18.3594 88.7266 19.2969 88.7266 20.4531C88.7266 22.2656 90.4922 23.9219 94.0234 25.4219C94.7266 25.7188 95.2656 25.9531 95.6406 26.125C98.5469 27.4531 100.695 28.9531 102.086 30.625C103.492 32.2969 104.195 34.2031 104.195 36.3438C104.195 39.5625 103.094 42.1328 100.891 44.0547C98.7031 45.9609 95.7578 46.9141 92.0547 46.9141C89.4297 46.9141 87.1797 46.4609 85.3047 45.5547C83.4297 44.6484 82.0312 43.3438 81.1094 41.6406ZM110.219 46V11.6875H130.422V17.875H117.555V24.9297H130.422V31.1641H117.555V39.7656H130.422V46H110.219ZM137.641 46V11.6875H145.258L160.445 31.6562C160.883 32.2188 161.359 33.0156 161.875 34.0469C162.406 35.0625 162.953 36.2656 163.516 37.6562C163.344 36.6406 163.219 35.6328 163.141 34.6328C163.062 33.6328 163.023 32.3828 163.023 30.8828V11.6875H170.031V46H162.836L147.227 25.6562C146.789 25.0938 146.312 24.3047 145.797 23.2891C145.281 22.2578 144.734 21.0312 144.156 19.6094C144.328 20.5938 144.453 21.5938 144.531 22.6094C144.609 23.6094 144.648 24.875 144.648 26.4062V46H137.641ZM161.242 0.929688C160.805 2.91406 160.195 4.35937 159.414 5.26562C158.633 6.15625 157.617 6.60156 156.367 6.60156C156.039 6.60156 155.734 6.58594 155.453 6.55469C155.172 6.50781 154.891 6.4375 154.609 6.34375L152.57 5.73438C152.242 5.64062 151.961 5.57812 151.727 5.54688C151.492 5.51563 151.258 5.5 151.023 5.5C150.492 5.5 150.062 5.64844 149.734 5.94531C149.406 6.22656 149.148 6.67969 148.961 7.30469H146.383C146.789 5.39844 147.375 4.00781 148.141 3.13281C148.922 2.24219 149.93 1.79688 151.164 1.79688C151.445 1.79688 151.758 1.82812 152.102 1.89062C152.445 1.9375 152.805 2.01562 153.18 2.125L155.359 2.71094C155.547 2.77344 155.742 2.82031 155.945 2.85156C156.164 2.88281 156.398 2.89844 156.648 2.89844C157.164 2.89844 157.586 2.74219 157.914 2.42969C158.242 2.10156 158.492 1.60156 158.664 0.929688H161.242ZM195.438 32.9453L191.594 21.8594C191.484 21.5312 191.344 20.9688 191.172 20.1719C191 19.375 190.82 18.3984 190.633 17.2422C190.43 18.3516 190.234 19.3516 190.047 20.2422C189.859 21.1172 189.719 21.7031 189.625 22L185.922 32.9453H195.438ZM173.594 46L186.648 11.6875H195.039L208.281 46H199.938L197.148 38.7109H183.859L181.469 46H173.594ZM219.227 39.8125H223.305C227.148 39.8125 229.945 38.9375 231.695 37.1875C233.461 35.4375 234.344 32.6641 234.344 28.8672C234.344 25.0859 233.461 22.3203 231.695 20.5703C229.945 18.8047 227.148 17.9219 223.305 17.9219H219.227V39.8125ZM211.891 46V11.6875H221.242C224.93 11.6875 227.836 11.9453 229.961 12.4609C232.086 12.9766 233.953 13.8359 235.562 15.0391C237.641 16.5859 239.211 18.5391 240.273 20.8984C241.352 23.2422 241.891 25.9141 241.891 28.9141C241.891 31.9609 241.344 34.6641 240.25 37.0234C239.156 39.3672 237.555 41.3047 235.445 42.8359C233.883 43.9609 232.141 44.7734 230.219 45.2734C228.312 45.7578 225.516 46 221.828 46H219.227H211.891ZM283.164 28.9141C283.164 31.3672 282.703 33.6875 281.781 35.875C280.875 38.0625 279.562 39.9844 277.844 41.6406C276.062 43.3438 274.055 44.6484 271.82 45.5547C269.586 46.4609 267.273 46.9141 264.883 46.9141C262.789 46.9141 260.734 46.5625 258.719 45.8594C256.719 45.1406 254.883 44.1172 253.211 42.7891C251.055 41.0703 249.398 39.0156 248.242 36.625C247.102 34.2344 246.531 31.6641 246.531 28.9141C246.531 26.4453 246.984 24.1328 247.891 21.9766C248.797 19.8047 250.125 17.875 251.875 16.1875C253.594 14.5156 255.586 13.2187 257.852 12.2969C260.133 11.375 262.477 10.9141 264.883 10.9141C267.273 10.9141 269.594 11.375 271.844 12.2969C274.109 13.2187 276.109 14.5156 277.844 16.1875C279.578 17.875 280.898 19.8047 281.805 21.9766C282.711 24.1484 283.164 26.4609 283.164 28.9141ZM264.883 40.375C267.992 40.375 270.555 39.2891 272.57 37.1172C274.602 34.9297 275.617 32.1953 275.617 28.9141C275.617 25.6641 274.594 22.9297 272.547 20.7109C270.5 18.4922 267.945 17.3828 264.883 17.3828C261.773 17.3828 259.195 18.4922 257.148 20.7109C255.102 22.9141 254.078 25.6484 254.078 28.9141C254.078 32.2266 255.086 34.9688 257.102 37.1406C259.117 39.2969 261.711 40.375 264.883 40.375ZM311.523 27.1797H312.578C314.578 27.1797 316.031 26.7656 316.938 25.9375C317.844 25.1094 318.297 23.7812 318.297 21.9531C318.297 20.2656 317.844 19.0391 316.938 18.2734C316.031 17.4922 314.578 17.1016 312.578 17.1016H311.523V27.1797ZM304.141 46V11.6875H312.578C317.078 11.6875 320.398 12.5469 322.539 14.2656C324.695 15.9844 325.773 18.6406 325.773 22.2344C325.773 25.5625 324.688 28.1719 322.516 30.0625C320.359 31.9531 317.367 32.8984 313.539 32.8984H311.523V46H304.141ZM346.234 32.9453L342.391 21.8594C342.281 21.5312 342.141 20.9688 341.969 20.1719C341.797 19.375 341.617 18.3984 341.43 17.2422C341.227 18.3516 341.031 19.3516 340.844 20.2422C340.656 21.1172 340.516 21.7031 340.422 22L336.719 32.9453H346.234ZM324.391 46L337.445 11.6875H345.836L359.078 46H350.734L347.945 38.7109H334.656L332.266 46H324.391ZM387.508 46H379.047L370.023 29.9688V46H362.688V11.6875H373.188C377.359 11.6875 380.484 12.5 382.562 14.125C384.641 15.7344 385.68 18.1641 385.68 21.4141C385.68 23.7734 384.969 25.7891 383.547 27.4609C382.125 29.1328 380.289 30.1094 378.039 30.3906L387.508 46ZM370.023 26.3125H371.125C374.094 26.3125 376.055 25.9922 377.008 25.3516C377.961 24.6953 378.438 23.5625 378.438 21.9531C378.438 20.2656 377.922 19.0703 376.891 18.3672C375.875 17.6484 373.953 17.2891 371.125 17.2891H370.023V26.3125ZM409.562 32.9453L405.719 21.8594C405.609 21.5312 405.469 20.9688 405.297 20.1719C405.125 19.375 404.945 18.3984 404.758 17.2422C404.555 18.3516 404.359 19.3516 404.172 20.2422C403.984 21.1172 403.844 21.7031 403.75 22L400.047 32.9453H409.562ZM387.719 46L400.773 11.6875H409.164L422.406 46H414.062L411.273 38.7109H397.984L395.594 46H387.719ZM56.6641 94H48.2031L39.1797 77.9688V94H31.8438V59.6875H42.3438C46.5156 59.6875 49.6406 60.5 51.7188 62.125C53.7969 63.7344 54.8359 66.1641 54.8359 69.4141C54.8359 71.7734 54.125 73.7891 52.7031 75.4609C51.2812 77.1328 49.4453 78.1094 47.1953 78.3906L56.6641 94ZM39.1797 74.3125H40.2812C43.25 74.3125 45.2109 73.9922 46.1641 73.3516C47.1172 72.6953 47.5938 71.5625 47.5938 69.9531C47.5938 68.2656 47.0781 67.0703 46.0469 66.3672C45.0312 65.6484 43.1094 65.2891 40.2812 65.2891H39.1797V74.3125ZM60.9531 94V59.6875H81.1562V65.875H68.2891V72.9297H81.1562V79.1641H68.2891V87.7656H81.1562V94H60.9531ZM86.1719 89.6406L90.25 85.0234C90.7656 86.2891 91.5938 87.2891 92.7344 88.0234C93.875 88.7422 95.1562 89.1016 96.5781 89.1016C98.2969 89.1016 99.6562 88.6953 100.656 87.8828C101.656 87.0703 102.156 85.9766 102.156 84.6016C102.156 82.9766 100.492 81.3594 97.1641 79.75C96.0859 79.2344 95.2344 78.8125 94.6094 78.4844C91.6094 76.9219 89.5312 75.3984 88.375 73.9141C87.2188 72.4141 86.6406 70.6328 86.6406 68.5703C86.6406 65.7422 87.7578 63.4219 89.9922 61.6094C92.2422 59.7812 95.1562 58.8672 98.7344 58.8672C100.812 58.8672 102.602 59.2344 104.102 59.9688C105.617 60.6875 106.953 61.8203 108.109 63.3672L103.773 67.5156C103.258 66.5156 102.57 65.7734 101.711 65.2891C100.867 64.7891 99.8438 64.5391 98.6406 64.5391C97.1875 64.5391 96.0156 64.9062 95.125 65.6406C94.2344 66.3594 93.7891 67.2969 93.7891 68.4531C93.7891 70.2656 95.5547 71.9219 99.0859 73.4219C99.7891 73.7188 100.328 73.9531 100.703 74.125C103.609 75.4531 105.758 76.9531 107.148 78.625C108.555 80.2969 109.258 82.2031 109.258 84.3438C109.258 87.5625 108.156 90.1328 105.953 92.0547C103.766 93.9609 100.82 94.9141 97.1172 94.9141C94.4922 94.9141 92.2422 94.4609 90.3672 93.5547C88.4922 92.6484 87.0938 91.3438 86.1719 89.6406ZM150.414 76.9141C150.414 79.3672 149.953 81.6875 149.031 83.875C148.125 86.0625 146.812 87.9844 145.094 89.6406C143.312 91.3438 141.305 92.6484 139.07 93.5547C136.836 94.4609 134.523 94.9141 132.133 94.9141C130.039 94.9141 127.984 94.5625 125.969 93.8594C123.969 93.1406 122.133 92.1172 120.461 90.7891C118.305 89.0703 116.648 87.0156 115.492 84.625C114.352 82.2344 113.781 79.6641 113.781 76.9141C113.781 74.4453 114.234 72.1328 115.141 69.9766C116.047 67.8047 117.375 65.875 119.125 64.1875C120.844 62.5156 122.836 61.2188 125.102 60.2969C127.383 59.375 129.727 58.9141 132.133 58.9141C134.523 58.9141 136.844 59.375 139.094 60.2969C141.359 61.2188 143.359 62.5156 145.094 64.1875C146.828 65.875 148.148 67.8047 149.055 69.9766C149.961 72.1484 150.414 74.4609 150.414 76.9141ZM132.133 88.375C135.242 88.375 137.805 87.2891 139.82 85.1172C141.852 82.9297 142.867 80.1953 142.867 76.9141C142.867 73.6641 141.844 70.9297 139.797 68.7109C137.75 66.4922 135.195 65.3828 132.133 65.3828C129.023 65.3828 126.445 66.4922 124.398 68.7109C122.352 70.9141 121.328 73.6484 121.328 76.9141C121.328 80.2266 122.336 82.9688 124.352 85.1406C126.367 87.2969 128.961 88.375 132.133 88.375ZM156.625 94V59.6875H163.961V87.7656H175.68V94H156.625ZM186.367 94L173.688 59.6875H181.797L188.477 81.0859C188.602 81.5234 188.797 82.3359 189.062 83.5234C189.328 84.7109 189.609 86.0625 189.906 87.5781C190.109 86.1094 190.328 84.8047 190.562 83.6641C190.812 82.5234 191.055 81.5859 191.289 80.8516L198.062 59.6875H206.078L193.305 94H186.367ZM209.781 94V59.6875H229.984V65.875H217.117V72.9297H229.984V79.1641H217.117V87.7656H229.984V94H209.781ZM262.023 94H253.562L244.539 77.9688V94H237.203V59.6875H247.703C251.875 59.6875 255 60.5 257.078 62.125C259.156 63.7344 260.195 66.1641 260.195 69.4141C260.195 71.7734 259.484 73.7891 258.062 75.4609C256.641 77.1328 254.805 78.1094 252.555 78.3906L262.023 94ZM244.539 74.3125H245.641C248.609 74.3125 250.57 73.9922 251.523 73.3516C252.477 72.6953 252.953 71.5625 252.953 69.9531C252.953 68.2656 252.438 67.0703 251.406 66.3672C250.391 65.6484 248.469 65.2891 245.641 65.2891H244.539V74.3125ZM293.898 65.9219V94H286.539V65.9219H278.148V59.6875H302.336V65.9219H293.898ZM336.602 59.6875V81.0391C336.602 85.6953 335.375 89.1719 332.922 91.4688C330.469 93.7656 326.773 94.9141 321.836 94.9141C316.82 94.9141 313.086 93.7656 310.633 91.4688C308.18 89.1719 306.953 85.6953 306.953 81.0391V59.6875H314.242V79.8906C314.242 82.7188 314.867 84.8516 316.117 86.2891C317.367 87.7109 319.234 88.4219 321.719 88.4219C324.219 88.4219 326.109 87.7031 327.391 86.2656C328.672 84.8281 329.312 82.7031 329.312 79.8906V59.6875H336.602ZM342.016 89.6406L346.094 85.0234C346.609 86.2891 347.438 87.2891 348.578 88.0234C349.719 88.7422 351 89.1016 352.422 89.1016C354.141 89.1016 355.5 88.6953 356.5 87.8828C357.5 87.0703 358 85.9766 358 84.6016C358 82.9766 356.336 81.3594 353.008 79.75C351.93 79.2344 351.078 78.8125 350.453 78.4844C347.453 76.9219 345.375 75.3984 344.219 73.9141C343.062 72.4141 342.484 70.6328 342.484 68.5703C342.484 65.7422 343.602 63.4219 345.836 61.6094C348.086 59.7812 351 58.8672 354.578 58.8672C356.656 58.8672 358.445 59.2344 359.945 59.9688C361.461 60.6875 362.797 61.8203 363.953 63.3672L359.617 67.5156C359.102 66.5156 358.414 65.7734 357.555 65.2891C356.711 64.7891 355.688 64.5391 354.484 64.5391C353.031 64.5391 351.859 64.9062 350.969 65.6406C350.078 66.3594 349.633 67.2969 349.633 68.4531C349.633 70.2656 351.398 71.9219 354.93 73.4219C355.633 73.7188 356.172 73.9531 356.547 74.125C359.453 75.4531 361.602 76.9531 362.992 78.625C364.398 80.2969 365.102 82.2031 365.102 84.3438C365.102 87.5625 364 90.1328 361.797 92.0547C359.609 93.9609 356.664 94.9141 352.961 94.9141C350.336 94.9141 348.086 94.4609 346.211 93.5547C344.336 92.6484 342.938 91.3438 342.016 89.6406ZM31.9844 142V107.688H39.3203V142H31.9844ZM44.1953 142L49.4219 107.688H57.1094L63.7188 127.891C63.8594 128.312 64.0078 128.93 64.1641 129.742C64.3359 130.555 64.4922 131.484 64.6328 132.531C64.7578 131.469 64.8984 130.523 65.0547 129.695C65.2109 128.852 65.3594 128.234 65.5 127.844L72.2266 107.688H79.7969L85.0469 142H78.0859L75.5781 121.305C75.3906 119.773 75.2656 118.617 75.2031 117.836C75.1406 117.055 75.1094 116.328 75.1094 115.656C75.1094 115.297 75.1094 115.031 75.1094 114.859C75.125 114.672 75.1406 114.508 75.1562 114.367C74.9219 115.711 74.6953 116.875 74.4766 117.859C74.2734 118.828 74.0859 119.562 73.9141 120.062L66.6484 142H62.5234L55.375 120.062C55.3125 119.859 55.1719 119.297 54.9531 118.375C54.75 117.453 54.4609 116.109 54.0859 114.344V115.352C54.0859 116.945 53.9453 118.898 53.6641 121.211L53.6406 121.305L51.1562 142H44.1953ZM97.2109 123.18H98.2656C100.266 123.18 101.719 122.766 102.625 121.938C103.531 121.109 103.984 119.781 103.984 117.953C103.984 116.266 103.531 115.039 102.625 114.273C101.719 113.492 100.266 113.102 98.2656 113.102H97.2109V123.18ZM89.8281 142V107.688H98.2656C102.766 107.688 106.086 108.547 108.227 110.266C110.383 111.984 111.461 114.641 111.461 118.234C111.461 121.562 110.375 124.172 108.203 126.062C106.047 127.953 103.055 128.898 99.2266 128.898H97.2109V142H89.8281ZM141.367 142H132.906L123.883 125.969V142H116.547V107.688H127.047C131.219 107.688 134.344 108.5 136.422 110.125C138.5 111.734 139.539 114.164 139.539 117.414C139.539 119.773 138.828 121.789 137.406 123.461C135.984 125.133 134.148 126.109 131.898 126.391L141.367 142ZM123.883 122.312H124.984C127.953 122.312 129.914 121.992 130.867 121.352C131.82 120.695 132.297 119.562 132.297 117.953C132.297 116.266 131.781 115.07 130.75 114.367C129.734 113.648 127.812 113.289 124.984 113.289H123.883V122.312ZM145.656 142V107.688H165.859V113.875H152.992V120.93H165.859V127.164H152.992V135.766H165.859V142H145.656ZM181.773 142L169.094 107.688H177.203L183.883 129.086C184.008 129.523 184.203 130.336 184.469 131.523C184.734 132.711 185.016 134.062 185.312 135.578C185.516 134.109 185.734 132.805 185.969 131.664C186.219 130.523 186.461 129.586 186.695 128.852L193.469 107.688H201.484L188.711 142H181.773ZM205.328 142V107.688H212.664V142H205.328ZM218.312 137.641L222.391 133.023C222.906 134.289 223.734 135.289 224.875 136.023C226.016 136.742 227.297 137.102 228.719 137.102C230.438 137.102 231.797 136.695 232.797 135.883C233.797 135.07 234.297 133.977 234.297 132.602C234.297 130.977 232.633 129.359 229.305 127.75C228.227 127.234 227.375 126.812 226.75 126.484C223.75 124.922 221.672 123.398 220.516 121.914C219.359 120.414 218.781 118.633 218.781 116.57C218.781 113.742 219.898 111.422 222.133 109.609C224.383 107.781 227.297 106.867 230.875 106.867C232.953 106.867 234.742 107.234 236.242 107.969C237.758 108.688 239.094 109.82 240.25 111.367L235.914 115.516C235.398 114.516 234.711 113.773 233.852 113.289C233.008 112.789 231.984 112.539 230.781 112.539C229.328 112.539 228.156 112.906 227.266 113.641C226.375 114.359 225.93 115.297 225.93 116.453C225.93 118.266 227.695 119.922 231.227 121.422C231.93 121.719 232.469 121.953 232.844 122.125C235.75 123.453 237.898 124.953 239.289 126.625C240.695 128.297 241.398 130.203 241.398 132.344C241.398 135.562 240.297 138.133 238.094 140.055C235.906 141.961 232.961 142.914 229.258 142.914C226.633 142.914 224.383 142.461 222.508 141.555C220.633 140.648 219.234 139.344 218.312 137.641ZM260.242 113.922V142H252.883V113.922H244.492V107.688H268.68V113.922H260.242ZM307.727 124.914C307.727 127.367 307.266 129.688 306.344 131.875C305.438 134.062 304.125 135.984 302.406 137.641C300.625 139.344 298.617 140.648 296.383 141.555C294.148 142.461 291.836 142.914 289.445 142.914C287.352 142.914 285.297 142.562 283.281 141.859C281.281 141.141 279.445 140.117 277.773 138.789C275.617 137.07 273.961 135.016 272.805 132.625C271.664 130.234 271.094 127.664 271.094 124.914C271.094 122.445 271.547 120.133 272.453 117.977C273.359 115.805 274.688 113.875 276.438 112.188C278.156 110.516 280.148 109.219 282.414 108.297C284.695 107.375 287.039 106.914 289.445 106.914C291.836 106.914 294.156 107.375 296.406 108.297C298.672 109.219 300.672 110.516 302.406 112.188C304.141 113.875 305.461 115.805 306.367 117.977C307.273 120.148 307.727 122.461 307.727 124.914ZM289.445 136.375C292.555 136.375 295.117 135.289 297.133 133.117C299.164 130.93 300.18 128.195 300.18 124.914C300.18 121.664 299.156 118.93 297.109 116.711C295.062 114.492 292.508 113.383 289.445 113.383C286.336 113.383 283.758 114.492 281.711 116.711C279.664 118.914 278.641 121.648 278.641 124.914C278.641 128.227 279.648 130.969 281.664 133.141C283.68 135.297 286.273 136.375 289.445 136.375ZM311.734 137.641L315.812 133.023C316.328 134.289 317.156 135.289 318.297 136.023C319.438 136.742 320.719 137.102 322.141 137.102C323.859 137.102 325.219 136.695 326.219 135.883C327.219 135.07 327.719 133.977 327.719 132.602C327.719 130.977 326.055 129.359 322.727 127.75C321.648 127.234 320.797 126.812 320.172 126.484C317.172 124.922 315.094 123.398 313.938 121.914C312.781 120.414 312.203 118.633 312.203 116.57C312.203 113.742 313.32 111.422 315.555 109.609C317.805 107.781 320.719 106.867 324.297 106.867C326.375 106.867 328.164 107.234 329.664 107.969C331.18 108.688 332.516 109.82 333.672 111.367L329.336 115.516C328.82 114.516 328.133 113.773 327.273 113.289C326.43 112.789 325.406 112.539 324.203 112.539C322.75 112.539 321.578 112.906 320.688 113.641C319.797 114.359 319.352 115.297 319.352 116.453C319.352 118.266 321.117 119.922 324.648 121.422C325.352 121.719 325.891 121.953 326.266 122.125C329.172 123.453 331.32 124.953 332.711 126.625C334.117 128.297 334.82 130.203 334.82 132.344C334.82 135.562 333.719 138.133 331.516 140.055C329.328 141.961 326.383 142.914 322.68 142.914C320.055 142.914 317.805 142.461 315.93 141.555C314.055 140.648 312.656 139.344 311.734 137.641Z" fill="white"/>
</svg>
