<svg width="550" height="224" viewBox="0 0 550 224" fill="none" xmlns="http://www.w3.org/2000/svg">
<path d="M26.744 183H14.686C10.2678 183 6.68604 179.418 6.68604 175V14" stroke="white" stroke-width="1.5"/>
<path d="M12.622 7.0784C12.622 10.6144 9.92461 13.4068 6.68598 13.4068C3.44736 13.4068 0.75 10.6144 0.75 7.0784C0.75 3.54244 3.44736 0.75 6.68598 0.75C9.92461 0.75 12.622 3.54244 12.622 7.0784Z" stroke="white" stroke-width="1.5"/>
<rect x="25" y="161" width="243" height="63" rx="16" fill="#002A61"/>
<path d="M66.196 189.964C65.38 188.968 64.372 188.47 63.172 188.47C62.644 188.47 62.152 188.566 61.696 188.758C61.252 188.95 60.868 189.214 60.544 189.55C60.22 189.874 59.962 190.264 59.77 190.72C59.59 191.176 59.5 191.668 59.5 192.196C59.5 192.736 59.59 193.234 59.77 193.69C59.962 194.146 60.22 194.542 60.544 194.878C60.88 195.214 61.27 195.478 61.714 195.67C62.158 195.862 62.638 195.958 63.154 195.958C64.282 195.958 65.296 195.478 66.196 194.518V198.694L65.836 198.82C65.296 199.012 64.792 199.15 64.324 199.234C63.856 199.33 63.394 199.378 62.938 199.378C62.002 199.378 61.102 199.204 60.238 198.856C59.386 198.496 58.63 197.998 57.97 197.362C57.322 196.714 56.8 195.952 56.404 195.076C56.008 194.188 55.81 193.222 55.81 192.178C55.81 191.134 56.002 190.18 56.386 189.316C56.782 188.44 57.304 187.69 57.952 187.066C58.612 186.43 59.374 185.938 60.238 185.59C61.102 185.23 62.008 185.05 62.956 185.05C63.496 185.05 64.024 185.11 64.54 185.23C65.068 185.338 65.62 185.512 66.196 185.752V189.964ZM71.1999 194.338C71.1999 194.65 71.2539 194.938 71.3619 195.202C71.4819 195.454 71.6319 195.676 71.8119 195.868C72.0039 196.06 72.2259 196.21 72.4779 196.318C72.7419 196.426 73.0179 196.48 73.3059 196.48C73.5939 196.48 73.8639 196.426 74.1159 196.318C74.3799 196.21 74.6019 196.06 74.7819 195.868C74.9739 195.676 75.1239 195.454 75.2319 195.202C75.3519 194.938 75.4119 194.656 75.4119 194.356C75.4119 194.068 75.3519 193.798 75.2319 193.546C75.1239 193.282 74.9739 193.054 74.7819 192.862C74.6019 192.67 74.3799 192.52 74.1159 192.412C73.8639 192.304 73.5939 192.25 73.3059 192.25C73.0179 192.25 72.7419 192.304 72.4779 192.412C72.2259 192.52 72.0039 192.67 71.8119 192.862C71.6319 193.054 71.4819 193.276 71.3619 193.528C71.2539 193.78 71.1999 194.05 71.1999 194.338ZM67.7619 194.302C67.7619 193.618 67.8999 192.982 68.1759 192.394C68.4519 191.794 68.8359 191.278 69.3279 190.846C69.8199 190.402 70.4019 190.054 71.0739 189.802C71.7579 189.55 72.5019 189.424 73.3059 189.424C74.0979 189.424 74.8299 189.55 75.5019 189.802C76.1859 190.042 76.7739 190.384 77.2659 190.828C77.7699 191.26 78.1599 191.782 78.4359 192.394C78.7119 192.994 78.8499 193.66 78.8499 194.392C78.8499 195.124 78.7059 195.796 78.4179 196.408C78.1419 197.008 77.7579 197.53 77.2659 197.974C76.7739 198.406 76.1799 198.742 75.4839 198.982C74.7999 199.222 74.0559 199.342 73.2519 199.342C72.4599 199.342 71.7279 199.222 71.0559 198.982C70.3839 198.742 69.8019 198.4 69.3099 197.956C68.8299 197.512 68.4519 196.984 68.1759 196.372C67.8999 195.748 67.7619 195.058 67.7619 194.302ZM80.7254 189.766H83.9834V190.936C84.4274 190.396 84.8774 190.036 85.3334 189.856C85.7894 189.664 86.3234 189.568 86.9354 189.568C87.5834 189.568 88.1354 189.676 88.5914 189.892C89.0594 190.096 89.4554 190.39 89.7794 190.774C90.0434 191.086 90.2234 191.434 90.3194 191.818C90.4154 192.202 90.4634 192.64 90.4634 193.132V199H87.2054V194.338C87.2054 193.882 87.1694 193.516 87.0974 193.24C87.0374 192.952 86.9234 192.724 86.7554 192.556C86.6114 192.412 86.4494 192.31 86.2694 192.25C86.0894 192.19 85.8974 192.16 85.6934 192.16C85.1414 192.16 84.7154 192.328 84.4154 192.664C84.1274 192.988 83.9834 193.456 83.9834 194.068V199H80.7254V189.766ZM98.7985 192.142C98.1985 191.83 97.6105 191.674 97.0345 191.674C96.7345 191.674 96.4885 191.734 96.2965 191.854C96.1165 191.974 96.0265 192.136 96.0265 192.34C96.0265 192.448 96.0385 192.538 96.0625 192.61C96.0985 192.67 96.1645 192.73 96.2605 192.79C96.3685 192.85 96.5185 192.904 96.7105 192.952C96.9145 193 97.1785 193.06 97.5025 193.132C98.4025 193.312 99.0745 193.636 99.5185 194.104C99.9625 194.56 100.185 195.148 100.185 195.868C100.185 196.408 100.077 196.894 99.8605 197.326C99.6445 197.758 99.3445 198.124 98.9605 198.424C98.5765 198.712 98.1145 198.934 97.5745 199.09C97.0345 199.258 96.4405 199.342 95.7925 199.342C94.5445 199.342 93.3145 198.988 92.1025 198.28L93.2905 195.976C94.2025 196.6 95.0665 196.912 95.8825 196.912C96.1825 196.912 96.4285 196.846 96.6205 196.714C96.8125 196.582 96.9085 196.414 96.9085 196.21C96.9085 196.09 96.8905 195.994 96.8545 195.922C96.8305 195.838 96.7705 195.766 96.6745 195.706C96.5785 195.634 96.4345 195.574 96.2425 195.526C96.0625 195.466 95.8225 195.406 95.5225 195.346C94.5145 195.142 93.8065 194.842 93.3985 194.446C93.0025 194.038 92.8045 193.48 92.8045 192.772C92.8045 192.256 92.9005 191.794 93.0925 191.386C93.2845 190.966 93.5605 190.612 93.9205 190.324C94.2805 190.036 94.7125 189.814 95.2165 189.658C95.7325 189.502 96.3025 189.424 96.9265 189.424C97.9465 189.424 98.9365 189.622 99.8965 190.018L98.7985 192.142ZM105.719 192.484V199H102.461V192.484H101.381V189.766H102.461V186.994H105.719V189.766H107.573V192.484H105.719ZM108.798 189.766H112.056V191.278C112.404 190.726 112.83 190.306 113.334 190.018C113.838 189.718 114.426 189.568 115.098 189.568C115.182 189.568 115.272 189.568 115.368 189.568C115.476 189.568 115.596 189.58 115.728 189.604V192.718C115.296 192.502 114.828 192.394 114.324 192.394C113.568 192.394 112.998 192.622 112.614 193.078C112.242 193.522 112.056 194.176 112.056 195.04V199H108.798V189.766ZM120.44 189.766V194.968C120.44 196.108 120.992 196.678 122.096 196.678C123.2 196.678 123.752 196.108 123.752 194.968V189.766H127.01V195.598C127.01 196.846 126.596 197.782 125.768 198.406C124.952 199.03 123.728 199.342 122.096 199.342C120.464 199.342 119.234 199.03 118.406 198.406C117.59 197.782 117.182 196.846 117.182 195.598V189.766H120.44ZM132.481 189.766V199H129.223V189.766H132.481ZM129.007 186.22C129.007 185.968 129.055 185.734 129.151 185.518C129.247 185.29 129.379 185.092 129.547 184.924C129.715 184.756 129.907 184.624 130.123 184.528C130.351 184.432 130.591 184.384 130.843 184.384C131.095 184.384 131.329 184.432 131.545 184.528C131.773 184.624 131.971 184.756 132.139 184.924C132.307 185.092 132.439 185.29 132.535 185.518C132.631 185.734 132.679 185.968 132.679 186.22C132.679 186.472 132.631 186.712 132.535 186.94C132.439 187.156 132.307 187.348 132.139 187.516C131.971 187.684 131.773 187.816 131.545 187.912C131.329 188.008 131.095 188.056 130.843 188.056C130.591 188.056 130.351 188.008 130.123 187.912C129.907 187.816 129.715 187.684 129.547 187.516C129.379 187.348 129.247 187.156 129.151 186.94C129.055 186.712 129.007 186.472 129.007 186.22ZM134.708 189.766H137.966V190.9C138.854 190.048 139.85 189.622 140.954 189.622C142.322 189.622 143.366 190.198 144.086 191.35C144.818 190.186 145.862 189.604 147.218 189.604C147.65 189.604 148.058 189.67 148.442 189.802C148.826 189.922 149.156 190.12 149.432 190.396C149.708 190.66 149.924 191.008 150.08 191.44C150.248 191.872 150.332 192.394 150.332 193.006V199H147.074V194.446C147.074 193.978 147.038 193.594 146.966 193.294C146.906 192.994 146.81 192.76 146.678 192.592C146.558 192.424 146.414 192.31 146.246 192.25C146.078 192.19 145.898 192.16 145.706 192.16C144.662 192.16 144.14 192.922 144.14 194.446V199H140.882V194.446C140.882 193.978 140.852 193.594 140.792 193.294C140.732 192.982 140.642 192.736 140.522 192.556C140.414 192.376 140.27 192.256 140.09 192.196C139.91 192.124 139.7 192.088 139.46 192.088C139.256 192.088 139.064 192.118 138.884 192.178C138.704 192.238 138.542 192.358 138.398 192.538C138.266 192.706 138.158 192.946 138.074 193.258C138.002 193.558 137.966 193.954 137.966 194.446V199H134.708V189.766ZM155.645 194.338C155.645 194.65 155.699 194.938 155.807 195.202C155.927 195.454 156.077 195.676 156.257 195.868C156.449 196.06 156.671 196.21 156.923 196.318C157.187 196.426 157.463 196.48 157.751 196.48C158.039 196.48 158.309 196.426 158.561 196.318C158.825 196.21 159.047 196.06 159.227 195.868C159.419 195.676 159.569 195.454 159.677 195.202C159.797 194.938 159.857 194.656 159.857 194.356C159.857 194.068 159.797 193.798 159.677 193.546C159.569 193.282 159.419 193.054 159.227 192.862C159.047 192.67 158.825 192.52 158.561 192.412C158.309 192.304 158.039 192.25 157.751 192.25C157.463 192.25 157.187 192.304 156.923 192.412C156.671 192.52 156.449 192.67 156.257 192.862C156.077 193.054 155.927 193.276 155.807 193.528C155.699 193.78 155.645 194.05 155.645 194.338ZM152.207 194.302C152.207 193.618 152.345 192.982 152.621 192.394C152.897 191.794 153.281 191.278 153.773 190.846C154.265 190.402 154.847 190.054 155.519 189.802C156.203 189.55 156.947 189.424 157.751 189.424C158.543 189.424 159.275 189.55 159.947 189.802C160.631 190.042 161.219 190.384 161.711 190.828C162.215 191.26 162.605 191.782 162.881 192.394C163.157 192.994 163.295 193.66 163.295 194.392C163.295 195.124 163.151 195.796 162.863 196.408C162.587 197.008 162.203 197.53 161.711 197.974C161.219 198.406 160.625 198.742 159.929 198.982C159.245 199.222 158.501 199.342 157.697 199.342C156.905 199.342 156.173 199.222 155.501 198.982C154.829 198.742 154.247 198.4 153.755 197.956C153.275 197.512 152.897 196.984 152.621 196.372C152.345 195.748 152.207 195.058 152.207 194.302ZM171.291 192.142C170.691 191.83 170.103 191.674 169.527 191.674C169.227 191.674 168.981 191.734 168.789 191.854C168.609 191.974 168.519 192.136 168.519 192.34C168.519 192.448 168.531 192.538 168.555 192.61C168.591 192.67 168.657 192.73 168.753 192.79C168.861 192.85 169.011 192.904 169.203 192.952C169.407 193 169.671 193.06 169.995 193.132C170.895 193.312 171.567 193.636 172.011 194.104C172.455 194.56 172.677 195.148 172.677 195.868C172.677 196.408 172.569 196.894 172.353 197.326C172.137 197.758 171.837 198.124 171.453 198.424C171.069 198.712 170.607 198.934 170.067 199.09C169.527 199.258 168.933 199.342 168.285 199.342C167.037 199.342 165.807 198.988 164.595 198.28L165.783 195.976C166.695 196.6 167.559 196.912 168.375 196.912C168.675 196.912 168.921 196.846 169.113 196.714C169.305 196.582 169.401 196.414 169.401 196.21C169.401 196.09 169.383 195.994 169.347 195.922C169.323 195.838 169.263 195.766 169.167 195.706C169.071 195.634 168.927 195.574 168.735 195.526C168.555 195.466 168.315 195.406 168.015 195.346C167.007 195.142 166.299 194.842 165.891 194.446C165.495 194.038 165.297 193.48 165.297 192.772C165.297 192.256 165.393 191.794 165.585 191.386C165.777 190.966 166.053 190.612 166.413 190.324C166.773 190.036 167.205 189.814 167.709 189.658C168.225 189.502 168.795 189.424 169.419 189.424C170.439 189.424 171.429 189.622 172.389 190.018L171.291 192.142ZM186.98 191.152C186.224 190.612 185.288 190.306 184.37 190.306C181.886 190.306 179.852 192.25 179.852 194.77C179.852 197.326 181.796 199.234 184.352 199.234C185.36 199.234 186.206 198.928 187.034 198.37V196.444H186.998C186.296 197.362 185.45 197.902 184.244 197.902C182.48 197.902 181.328 196.444 181.328 194.77C181.328 193.078 182.57 191.638 184.316 191.638C185.45 191.638 186.278 192.214 186.944 193.06H186.98V191.152ZM192.949 199.234C195.415 199.234 197.395 197.272 197.395 194.788C197.395 192.304 195.433 190.306 192.949 190.306C190.465 190.306 188.503 192.304 188.503 194.788C188.503 197.272 190.483 199.234 192.949 199.234ZM192.949 191.638C194.731 191.638 195.955 193.06 195.955 194.77C195.955 196.498 194.731 197.902 192.949 197.902C191.167 197.902 189.943 196.498 189.943 194.77C189.943 193.06 191.167 191.638 192.949 191.638ZM200.806 190.54H199.366V199H200.806V194.986C200.806 193.474 200.932 191.638 202.912 191.638C204.586 191.638 204.694 192.862 204.694 194.23V199H206.134V193.978C206.134 191.998 205.594 190.306 203.254 190.306C202.21 190.306 201.436 190.756 200.842 191.566H200.806V190.54ZM210.388 191.872H211.9V190.54H210.388V187.498H208.948V190.54H208.066V191.872H208.948V199H210.388V191.872ZM214.91 190.54H213.47V199H214.91V190.54ZM214.19 186.328C213.632 186.328 213.164 186.796 213.164 187.354C213.164 187.93 213.632 188.38 214.19 188.38C214.748 188.38 215.216 187.93 215.216 187.354C215.216 186.796 214.748 186.328 214.19 186.328ZM221.331 191.638C223.113 191.638 224.175 193.006 224.175 194.698C224.175 196.408 223.203 197.902 221.349 197.902C219.549 197.902 218.577 196.336 218.577 194.68C218.577 193.096 219.657 191.638 221.331 191.638ZM225.543 190.54H224.103V191.746H224.067C223.383 190.828 222.357 190.306 221.187 190.306C218.685 190.306 217.101 192.43 217.101 194.806C217.101 197.164 218.667 199.234 221.133 199.234C222.267 199.234 223.383 198.712 224.067 197.83H224.103V198.838C224.103 200.746 223.617 202.384 221.385 202.384C219.837 202.384 218.703 201.394 218.685 199.828H217.245C217.299 202.222 219.045 203.716 221.403 203.716C222.663 203.716 223.887 203.23 224.679 202.222C225.543 201.106 225.543 199.936 225.543 198.586V190.54ZM232.042 199.234C234.508 199.234 236.488 197.272 236.488 194.788C236.488 192.304 234.526 190.306 232.042 190.306C229.558 190.306 227.596 192.304 227.596 194.788C227.596 197.272 229.576 199.234 232.042 199.234ZM232.042 191.638C233.824 191.638 235.048 193.06 235.048 194.77C235.048 196.498 233.824 197.902 232.042 197.902C230.26 197.902 229.036 196.498 229.036 194.77C229.036 193.06 230.26 191.638 232.042 191.638Z" fill="white"/>
<path d="M39.2266 22.1797H40.2812C42.2812 22.1797 43.7344 21.7656 44.6406 20.9375C45.5469 20.1094 46 18.7812 46 16.9531C46 15.2656 45.5469 14.0391 44.6406 13.2734C43.7344 12.4922 42.2812 12.1016 40.2812 12.1016H39.2266V22.1797ZM31.8438 41V6.6875H40.2812C44.7812 6.6875 48.1016 7.54688 50.2422 9.26562C52.3984 10.9844 53.4766 13.6406 53.4766 17.2344C53.4766 20.5625 52.3906 23.1719 50.2188 25.0625C48.0625 26.9531 45.0703 27.8984 41.2422 27.8984H39.2266V41H31.8438ZM58.5625 41V6.6875H78.7656V12.875H65.8984V19.9297H78.7656V26.1641H65.8984V34.7656H78.7656V41H58.5625ZM85.9844 41V6.6875H93.6016L108.789 26.6562C109.227 27.2188 109.703 28.0156 110.219 29.0469C110.75 30.0625 111.297 31.2656 111.859 32.6562C111.688 31.6406 111.562 30.6328 111.484 29.6328C111.406 28.6328 111.367 27.3828 111.367 25.8828V6.6875H118.375V41H111.18L95.5703 20.6562C95.1328 20.0938 94.6562 19.3047 94.1406 18.2891C93.625 17.2578 93.0781 16.0312 92.5 14.6094C92.6719 15.5938 92.7969 16.5938 92.875 17.6094C92.9531 18.6094 92.9922 19.875 92.9922 21.4062V41H85.9844ZM123.812 36.6406L127.891 32.0234C128.406 33.2891 129.234 34.2891 130.375 35.0234C131.516 35.7422 132.797 36.1016 134.219 36.1016C135.938 36.1016 137.297 35.6953 138.297 34.8828C139.297 34.0703 139.797 32.9766 139.797 31.6016C139.797 29.9766 138.133 28.3594 134.805 26.75C133.727 26.2344 132.875 25.8125 132.25 25.4844C129.25 23.9219 127.172 22.3984 126.016 20.9141C124.859 19.4141 124.281 17.6328 124.281 15.5703C124.281 12.7422 125.398 10.4219 127.633 8.60938C129.883 6.78125 132.797 5.86719 136.375 5.86719C138.453 5.86719 140.242 6.23438 141.742 6.96875C143.258 7.6875 144.594 8.82031 145.75 10.3672L141.414 14.5156C140.898 13.5156 140.211 12.7734 139.352 12.2891C138.508 11.7891 137.484 11.5391 136.281 11.5391C134.828 11.5391 133.656 11.9063 132.766 12.6406C131.875 13.3594 131.43 14.2969 131.43 15.4531C131.43 17.2656 133.195 18.9219 136.727 20.4219C137.43 20.7188 137.969 20.9531 138.344 21.125C141.25 22.4531 143.398 23.9531 144.789 25.625C146.195 27.2969 146.898 29.2031 146.898 31.3438C146.898 34.5625 145.797 37.1328 143.594 39.0547C141.406 40.9609 138.461 41.9141 134.758 41.9141C132.133 41.9141 129.883 41.4609 128.008 40.5547C126.133 39.6484 124.734 38.3438 123.812 36.6406ZM170.688 27.9453L166.844 16.8594C166.734 16.5312 166.594 15.9688 166.422 15.1719C166.25 14.375 166.07 13.3984 165.883 12.2422C165.68 13.3516 165.484 14.3516 165.297 15.2422C165.109 16.1172 164.969 16.7031 164.875 17L161.172 27.9453H170.688ZM148.844 41L161.898 6.6875H170.289L183.531 41H175.188L172.398 33.7109H159.109L156.719 41H148.844ZM194.477 34.8125H198.555C202.398 34.8125 205.195 33.9375 206.945 32.1875C208.711 30.4375 209.594 27.6641 209.594 23.8672C209.594 20.0859 208.711 17.3203 206.945 15.5703C205.195 13.8047 202.398 12.9219 198.555 12.9219H194.477V34.8125ZM187.141 41V6.6875H196.492C200.18 6.6875 203.086 6.94531 205.211 7.46094C207.336 7.97656 209.203 8.83594 210.812 10.0391C212.891 11.5859 214.461 13.5391 215.523 15.8984C216.602 18.2422 217.141 20.9141 217.141 23.9141C217.141 26.9609 216.594 29.6641 215.5 32.0234C214.406 34.3672 212.805 36.3047 210.695 37.8359C209.133 38.9609 207.391 39.7734 205.469 40.2734C203.562 40.7578 200.766 41 197.078 41H194.477H187.141ZM258.414 23.9141C258.414 26.3672 257.953 28.6875 257.031 30.875C256.125 33.0625 254.812 34.9844 253.094 36.6406C251.312 38.3438 249.305 39.6484 247.07 40.5547C244.836 41.4609 242.523 41.9141 240.133 41.9141C238.039 41.9141 235.984 41.5625 233.969 40.8594C231.969 40.1406 230.133 39.1172 228.461 37.7891C226.305 36.0703 224.648 34.0156 223.492 31.625C222.352 29.2344 221.781 26.6641 221.781 23.9141C221.781 21.4453 222.234 19.1328 223.141 16.9766C224.047 14.8047 225.375 12.875 227.125 11.1875C228.844 9.51563 230.836 8.21875 233.102 7.29688C235.383 6.375 237.727 5.91406 240.133 5.91406C242.523 5.91406 244.844 6.375 247.094 7.29688C249.359 8.21875 251.359 9.51563 253.094 11.1875C254.828 12.875 256.148 14.8047 257.055 16.9766C257.961 19.1484 258.414 21.4609 258.414 23.9141ZM240.133 35.375C243.242 35.375 245.805 34.2891 247.82 32.1172C249.852 29.9297 250.867 27.1953 250.867 23.9141C250.867 20.6641 249.844 17.9297 247.797 15.7109C245.75 13.4922 243.195 12.3828 240.133 12.3828C237.023 12.3828 234.445 13.4922 232.398 15.7109C230.352 17.9141 229.328 20.6484 229.328 23.9141C229.328 27.2266 230.336 29.9688 232.352 32.1406C234.367 34.2969 236.961 35.375 240.133 35.375ZM286.773 22.1797H287.828C289.828 22.1797 291.281 21.7656 292.188 20.9375C293.094 20.1094 293.547 18.7812 293.547 16.9531C293.547 15.2656 293.094 14.0391 292.188 13.2734C291.281 12.4922 289.828 12.1016 287.828 12.1016H286.773V22.1797ZM279.391 41V6.6875H287.828C292.328 6.6875 295.648 7.54688 297.789 9.26562C299.945 10.9844 301.023 13.6406 301.023 17.2344C301.023 20.5625 299.938 23.1719 297.766 25.0625C295.609 26.9531 292.617 27.8984 288.789 27.8984H286.773V41H279.391ZM321.484 27.9453L317.641 16.8594C317.531 16.5312 317.391 15.9688 317.219 15.1719C317.047 14.375 316.867 13.3984 316.68 12.2422C316.477 13.3516 316.281 14.3516 316.094 15.2422C315.906 16.1172 315.766 16.7031 315.672 17L311.969 27.9453H321.484ZM299.641 41L312.695 6.6875H321.086L334.328 41H325.984L323.195 33.7109H309.906L307.516 41H299.641ZM362.758 41H354.297L345.273 24.9688V41H337.938V6.6875H348.438C352.609 6.6875 355.734 7.5 357.812 9.125C359.891 10.7344 360.93 13.1641 360.93 16.4141C360.93 18.7734 360.219 20.7891 358.797 22.4609C357.375 24.1328 355.539 25.1094 353.289 25.3906L362.758 41ZM345.273 21.3125H346.375C349.344 21.3125 351.305 20.9922 352.258 20.3516C353.211 19.6953 353.688 18.5625 353.688 16.9531C353.688 15.2656 353.172 14.0703 352.141 13.3672C351.125 12.6484 349.203 12.2891 346.375 12.2891H345.273V21.3125ZM384.812 27.9453L380.969 16.8594C380.859 16.5312 380.719 15.9688 380.547 15.1719C380.375 14.375 380.195 13.3984 380.008 12.2422C379.805 13.3516 379.609 14.3516 379.422 15.2422C379.234 16.1172 379.094 16.7031 379 17L375.297 27.9453H384.812ZM362.969 41L376.023 6.6875H384.414L397.656 41H389.312L386.523 33.7109H373.234L370.844 41H362.969ZM59.4766 63.6172C57.9922 62.2891 56.4688 61.3203 54.9062 60.7109C53.3438 60.0859 51.6719 59.7734 49.8906 59.7734C46.2344 59.7734 43.3203 60.8672 41.1484 63.0547C38.9766 65.2422 37.8906 68.1797 37.8906 71.8672C37.8906 75.4766 38.8984 78.3438 40.9141 80.4688C42.9297 82.5781 45.6797 83.6328 49.1641 83.6328C51.1484 83.6328 52.9922 83.3047 54.6953 82.6484C56.3984 81.9766 57.9766 80.9766 59.4297 79.6484L59.3828 87.1719C57.8203 88.0938 56.1797 88.7812 54.4609 89.2344C52.7578 89.6875 50.9609 89.9141 49.0703 89.9141C43.6016 89.9141 39.1094 88.2188 35.5938 84.8281C32.0938 81.4219 30.3438 77.1016 30.3438 71.8672C30.3438 66.6484 32.1016 62.3438 35.6172 58.9531C39.1328 55.5625 43.6641 53.8672 49.2109 53.8672C51.0703 53.8672 52.8672 54.0625 54.6016 54.4531C56.3359 54.8438 58.0469 55.4453 59.7344 56.2578L59.4766 63.6172ZM91.1172 89H82.6562L73.6328 72.9688V89H66.2969V54.6875H76.7969C80.9688 54.6875 84.0938 55.5 86.1719 57.125C88.25 58.7344 89.2891 61.1641 89.2891 64.4141C89.2891 66.7734 88.5781 68.7891 87.1562 70.4609C85.7344 72.1328 83.8984 73.1094 81.6484 73.3906L91.1172 89ZM73.6328 69.3125H74.7344C77.7031 69.3125 79.6641 68.9922 80.6172 68.3516C81.5703 67.6953 82.0469 66.5625 82.0469 64.9531C82.0469 63.2656 81.5312 62.0703 80.5 61.3672C79.4844 60.6484 77.5625 60.2891 74.7344 60.2891H73.6328V69.3125ZM95.4062 89V54.6875H115.609V60.875H102.742V67.9297H115.609V74.1641H102.742V82.7656H115.609V89H95.4062ZM140.594 75.9453L136.75 64.8594C136.641 64.5312 136.5 63.9688 136.328 63.1719C136.156 62.375 135.977 61.3984 135.789 60.2422C135.586 61.3516 135.391 62.3516 135.203 63.2422C135.016 64.1172 134.875 64.7031 134.781 65L131.078 75.9453H140.594ZM118.75 89L131.805 54.6875H140.195L153.438 89H145.094L142.305 81.7109H129.016L126.625 89H118.75ZM181.867 89H173.406L164.383 72.9688V89H157.047V54.6875H167.547C171.719 54.6875 174.844 55.5 176.922 57.125C179 58.7344 180.039 61.1641 180.039 64.4141C180.039 66.7734 179.328 68.7891 177.906 70.4609C176.484 72.1328 174.648 73.1094 172.398 73.3906L181.867 89ZM164.383 69.3125H165.484C168.453 69.3125 170.414 68.9922 171.367 68.3516C172.32 67.6953 172.797 66.5625 172.797 64.9531C172.797 63.2656 172.281 62.0703 171.25 61.3672C170.234 60.6484 168.312 60.2891 165.484 60.2891H164.383V69.3125ZM208.305 70.1797H209.359C211.359 70.1797 212.812 69.7656 213.719 68.9375C214.625 68.1094 215.078 66.7812 215.078 64.9531C215.078 63.2656 214.625 62.0391 213.719 61.2734C212.812 60.4922 211.359 60.1016 209.359 60.1016H208.305V70.1797ZM200.922 89V54.6875H209.359C213.859 54.6875 217.18 55.5469 219.32 57.2656C221.477 58.9844 222.555 61.6406 222.555 65.2344C222.555 68.5625 221.469 71.1719 219.297 73.0625C217.141 74.9531 214.148 75.8984 210.32 75.8984H208.305V89H200.922ZM252.461 89H244L234.977 72.9688V89H227.641V54.6875H238.141C242.312 54.6875 245.438 55.5 247.516 57.125C249.594 58.7344 250.633 61.1641 250.633 64.4141C250.633 66.7734 249.922 68.7891 248.5 70.4609C247.078 72.1328 245.242 73.1094 242.992 73.3906L252.461 89ZM234.977 69.3125H236.078C239.047 69.3125 241.008 68.9922 241.961 68.3516C242.914 67.6953 243.391 66.5625 243.391 64.9531C243.391 63.2656 242.875 62.0703 241.844 61.3672C240.828 60.6484 238.906 60.2891 236.078 60.2891H234.977V69.3125ZM291.883 71.9141C291.883 74.3672 291.422 76.6875 290.5 78.875C289.594 81.0625 288.281 82.9844 286.562 84.6406C284.781 86.3438 282.773 87.6484 280.539 88.5547C278.305 89.4609 275.992 89.9141 273.602 89.9141C271.508 89.9141 269.453 89.5625 267.438 88.8594C265.438 88.1406 263.602 87.1172 261.93 85.7891C259.773 84.0703 258.117 82.0156 256.961 79.625C255.82 77.2344 255.25 74.6641 255.25 71.9141C255.25 69.4453 255.703 67.1328 256.609 64.9766C257.516 62.8047 258.844 60.875 260.594 59.1875C262.312 57.5156 264.305 56.2188 266.57 55.2969C268.852 54.375 271.195 53.9141 273.602 53.9141C275.992 53.9141 278.312 54.375 280.562 55.2969C282.828 56.2188 284.828 57.5156 286.562 59.1875C288.297 60.875 289.617 62.8047 290.523 64.9766C291.43 67.1484 291.883 69.4609 291.883 71.9141ZM273.602 83.375C276.711 83.375 279.273 82.2891 281.289 80.1172C283.32 77.9297 284.336 75.1953 284.336 71.9141C284.336 68.6641 283.312 65.9297 281.266 63.7109C279.219 61.4922 276.664 60.3828 273.602 60.3828C270.492 60.3828 267.914 61.4922 265.867 63.7109C263.82 65.9141 262.797 68.6484 262.797 71.9141C262.797 75.2266 263.805 77.9688 265.82 80.1406C267.836 82.2969 270.43 83.375 273.602 83.375ZM303.414 89V73.3438L291.789 54.6875H300.391L305.477 64.0859C305.727 64.5547 305.984 65.1484 306.25 65.8672C306.516 66.5859 306.789 67.4141 307.07 68.3516C307.289 67.5547 307.531 66.8047 307.797 66.1016C308.078 65.3984 308.391 64.7109 308.734 64.0391L313.773 54.6875H322.328L310.75 73.3438V89H303.414ZM325.469 89V54.6875H345.672V60.875H332.805V67.9297H345.672V74.1641H332.805V82.7656H345.672V89H325.469ZM380.523 63.6172C379.039 62.2891 377.516 61.3203 375.953 60.7109C374.391 60.0859 372.719 59.7734 370.938 59.7734C367.281 59.7734 364.367 60.8672 362.195 63.0547C360.023 65.2422 358.938 68.1797 358.938 71.8672C358.938 75.4766 359.945 78.3438 361.961 80.4688C363.977 82.5781 366.727 83.6328 370.211 83.6328C372.195 83.6328 374.039 83.3047 375.742 82.6484C377.445 81.9766 379.023 80.9766 380.477 79.6484L380.43 87.1719C378.867 88.0938 377.227 88.7812 375.508 89.2344C373.805 89.6875 372.008 89.9141 370.117 89.9141C364.648 89.9141 360.156 88.2188 356.641 84.8281C353.141 81.4219 351.391 77.1016 351.391 71.8672C351.391 66.6484 353.148 62.3438 356.664 58.9531C360.18 55.5625 364.711 53.8672 370.258 53.8672C372.117 53.8672 373.914 54.0625 375.648 54.4531C377.383 54.8438 379.094 55.4453 380.781 56.2578L380.523 63.6172ZM400.164 60.9219V89H392.805V60.9219H384.414V54.6875H408.602V60.9219H400.164ZM447.648 71.9141C447.648 74.3672 447.188 76.6875 446.266 78.875C445.359 81.0625 444.047 82.9844 442.328 84.6406C440.547 86.3438 438.539 87.6484 436.305 88.5547C434.07 89.4609 431.758 89.9141 429.367 89.9141C427.273 89.9141 425.219 89.5625 423.203 88.8594C421.203 88.1406 419.367 87.1172 417.695 85.7891C415.539 84.0703 413.883 82.0156 412.727 79.625C411.586 77.2344 411.016 74.6641 411.016 71.9141C411.016 69.4453 411.469 67.1328 412.375 64.9766C413.281 62.8047 414.609 60.875 416.359 59.1875C418.078 57.5156 420.07 56.2188 422.336 55.2969C424.617 54.375 426.961 53.9141 429.367 53.9141C431.758 53.9141 434.078 54.375 436.328 55.2969C438.594 56.2188 440.594 57.5156 442.328 59.1875C444.062 60.875 445.383 62.8047 446.289 64.9766C447.195 67.1484 447.648 69.4609 447.648 71.9141ZM429.367 83.375C432.477 83.375 435.039 82.2891 437.055 80.1172C439.086 77.9297 440.102 75.1953 440.102 71.9141C440.102 68.6641 439.078 65.9297 437.031 63.7109C434.984 61.4922 432.43 60.3828 429.367 60.3828C426.258 60.3828 423.68 61.4922 421.633 63.7109C419.586 65.9141 418.562 68.6484 418.562 71.9141C418.562 75.2266 419.57 77.9688 421.586 80.1406C423.602 82.2969 426.195 83.375 429.367 83.375ZM451.656 84.6406L455.734 80.0234C456.25 81.2891 457.078 82.2891 458.219 83.0234C459.359 83.7422 460.641 84.1016 462.062 84.1016C463.781 84.1016 465.141 83.6953 466.141 82.8828C467.141 82.0703 467.641 80.9766 467.641 79.6016C467.641 77.9766 465.977 76.3594 462.648 74.75C461.57 74.2344 460.719 73.8125 460.094 73.4844C457.094 71.9219 455.016 70.3984 453.859 68.9141C452.703 67.4141 452.125 65.6328 452.125 63.5703C452.125 60.7422 453.242 58.4219 455.477 56.6094C457.727 54.7812 460.641 53.8672 464.219 53.8672C466.297 53.8672 468.086 54.2344 469.586 54.9688C471.102 55.6875 472.438 56.8203 473.594 58.3672L469.258 62.5156C468.742 61.5156 468.055 60.7734 467.195 60.2891C466.352 59.7891 465.328 59.5391 464.125 59.5391C462.672 59.5391 461.5 59.9062 460.609 60.6406C459.719 61.3594 459.273 62.2969 459.273 63.4531C459.273 65.2656 461.039 66.9219 464.57 68.4219C465.273 68.7188 465.812 68.9531 466.188 69.125C469.094 70.4531 471.242 71.9531 472.633 73.625C474.039 75.2969 474.742 77.2031 474.742 79.3438C474.742 82.5625 473.641 85.1328 471.438 87.0547C469.25 88.9609 466.305 89.9141 462.602 89.9141C459.977 89.9141 457.727 89.4609 455.852 88.5547C453.977 87.6484 452.578 86.3438 451.656 84.6406ZM31.8438 137V102.688H39.1797V116.445H54.0625V102.688H61.3984V137H54.0625V122.656H39.1797V137H31.8438ZM86.8281 123.945L82.9844 112.859C82.875 112.531 82.7344 111.969 82.5625 111.172C82.3906 110.375 82.2109 109.398 82.0234 108.242C81.8203 109.352 81.625 110.352 81.4375 111.242C81.25 112.117 81.1094 112.703 81.0156 113L77.3125 123.945H86.8281ZM64.9844 137L78.0391 102.688H86.4297L99.6719 137H91.3281L88.5391 129.711H75.25L72.8594 137H64.9844ZM110.617 131.281H113.5C115.344 131.281 116.742 130.883 117.695 130.086C118.648 129.273 119.125 128.094 119.125 126.547C119.125 125.094 118.648 123.984 117.695 123.219C116.758 122.453 115.391 122.07 113.594 122.07H110.617V131.281ZM110.617 116.398H112.258C114.477 116.398 116.047 116.086 116.969 115.461C117.891 114.836 118.352 113.789 118.352 112.32C118.352 110.883 117.906 109.859 117.016 109.25C116.141 108.641 114.602 108.336 112.398 108.336H110.617V116.398ZM103.281 137V102.688H109.703C113.031 102.688 115.461 102.82 116.992 103.086C118.539 103.336 119.875 103.758 121 104.352C122.328 105.117 123.352 106.125 124.07 107.375C124.805 108.625 125.172 110.039 125.172 111.617C125.172 113.648 124.57 115.281 123.367 116.516C122.164 117.734 120.367 118.547 117.977 118.953C120.742 119.359 122.828 120.258 124.234 121.648C125.656 123.039 126.367 124.891 126.367 127.203C126.367 128.891 125.961 130.438 125.148 131.844C124.336 133.234 123.219 134.312 121.797 135.078C120.531 135.766 119.047 136.258 117.344 136.555C115.641 136.852 112.82 137 108.883 137H108.133H103.281ZM132.109 137V102.688H139.445V137H132.109ZM160.117 108.922V137H152.758V108.922H144.367V102.688H168.555V108.922H160.117ZM188.453 123.945L184.609 112.859C184.5 112.531 184.359 111.969 184.188 111.172C184.016 110.375 183.836 109.398 183.648 108.242C183.445 109.352 183.25 110.352 183.062 111.242C182.875 112.117 182.734 112.703 182.641 113L178.938 123.945H188.453ZM166.609 137L179.664 102.688H188.055L201.297 137H192.953L190.164 129.711H176.875L174.484 137H166.609ZM231.695 111.617C230.211 110.289 228.688 109.32 227.125 108.711C225.562 108.086 223.891 107.773 222.109 107.773C218.453 107.773 215.539 108.867 213.367 111.055C211.195 113.242 210.109 116.18 210.109 119.867C210.109 123.477 211.117 126.344 213.133 128.469C215.148 130.578 217.898 131.633 221.383 131.633C223.367 131.633 225.211 131.305 226.914 130.648C228.617 129.977 230.195 128.977 231.648 127.648L231.602 135.172C230.039 136.094 228.398 136.781 226.68 137.234C224.977 137.688 223.18 137.914 221.289 137.914C215.82 137.914 211.328 136.219 207.812 132.828C204.312 129.422 202.562 125.102 202.562 119.867C202.562 114.648 204.32 110.344 207.836 106.953C211.352 103.562 215.883 101.867 221.43 101.867C223.289 101.867 225.086 102.062 226.82 102.453C228.555 102.844 230.266 103.445 231.953 104.258L231.695 111.617ZM238.656 137V102.688H245.992V137H238.656ZM288.977 119.914C288.977 122.367 288.516 124.688 287.594 126.875C286.688 129.062 285.375 130.984 283.656 132.641C281.875 134.344 279.867 135.648 277.633 136.555C275.398 137.461 273.086 137.914 270.695 137.914C268.602 137.914 266.547 137.562 264.531 136.859C262.531 136.141 260.695 135.117 259.023 133.789C256.867 132.07 255.211 130.016 254.055 127.625C252.914 125.234 252.344 122.664 252.344 119.914C252.344 117.445 252.797 115.133 253.703 112.977C254.609 110.805 255.938 108.875 257.688 107.188C259.406 105.516 261.398 104.219 263.664 103.297C265.945 102.375 268.289 101.914 270.695 101.914C273.086 101.914 275.406 102.375 277.656 103.297C279.922 104.219 281.922 105.516 283.656 107.188C285.391 108.875 286.711 110.805 287.617 112.977C288.523 115.148 288.977 117.461 288.977 119.914ZM270.695 131.375C273.805 131.375 276.367 130.289 278.383 128.117C280.414 125.93 281.43 123.195 281.43 119.914C281.43 116.664 280.406 113.93 278.359 111.711C276.312 109.492 273.758 108.383 270.695 108.383C267.586 108.383 265.008 109.492 262.961 111.711C260.914 113.914 259.891 116.648 259.891 119.914C259.891 123.227 260.898 125.969 262.914 128.141C264.93 130.297 267.523 131.375 270.695 131.375ZM295.188 137V102.688H302.805L317.992 122.656C318.43 123.219 318.906 124.016 319.422 125.047C319.953 126.062 320.5 127.266 321.062 128.656C320.891 127.641 320.766 126.633 320.688 125.633C320.609 124.633 320.57 123.383 320.57 121.883V102.688H327.578V137H320.383L304.773 116.656C304.336 116.094 303.859 115.305 303.344 114.289C302.828 113.258 302.281 112.031 301.703 110.609C301.875 111.594 302 112.594 302.078 113.609C302.156 114.609 302.195 115.875 302.195 117.406V137H295.188ZM352.984 123.945L349.141 112.859C349.031 112.531 348.891 111.969 348.719 111.172C348.547 110.375 348.367 109.398 348.18 108.242C347.977 109.352 347.781 110.352 347.594 111.242C347.406 112.117 347.266 112.703 347.172 113L343.469 123.945H352.984ZM331.141 137L344.195 102.688H352.586L365.828 137H357.484L354.695 129.711H341.406L339.016 137H331.141ZM369.438 137V102.688H376.773V130.766H388.492V137H369.438ZM393.109 137V102.688H413.312V108.875H400.445V115.93H413.312V122.164H400.445V130.766H413.312V137H393.109ZM418.328 132.641L422.406 128.023C422.922 129.289 423.75 130.289 424.891 131.023C426.031 131.742 427.312 132.102 428.734 132.102C430.453 132.102 431.812 131.695 432.812 130.883C433.812 130.07 434.312 128.977 434.312 127.602C434.312 125.977 432.648 124.359 429.32 122.75C428.242 122.234 427.391 121.812 426.766 121.484C423.766 119.922 421.688 118.398 420.531 116.914C419.375 115.414 418.797 113.633 418.797 111.57C418.797 108.742 419.914 106.422 422.148 104.609C424.398 102.781 427.312 101.867 430.891 101.867C432.969 101.867 434.758 102.234 436.258 102.969C437.773 103.688 439.109 104.82 440.266 106.367L435.93 110.516C435.414 109.516 434.727 108.773 433.867 108.289C433.023 107.789 432 107.539 430.797 107.539C429.344 107.539 428.172 107.906 427.281 108.641C426.391 109.359 425.945 110.297 425.945 111.453C425.945 113.266 427.711 114.922 431.242 116.422C431.945 116.719 432.484 116.953 432.859 117.125C435.766 118.453 437.914 119.953 439.305 121.625C440.711 123.297 441.414 125.203 441.414 127.344C441.414 130.562 440.312 133.133 438.109 135.055C435.922 136.961 432.977 137.914 429.273 137.914C426.648 137.914 424.398 137.461 422.523 136.555C420.648 135.648 419.25 134.344 418.328 132.641Z" fill="white"/>
</svg>
