<svg width="535" height="156" viewBox="0 0 535 156" fill="none" xmlns="http://www.w3.org/2000/svg">
<path d="M35.4844 18.4531H36.1875C37.5208 18.4531 38.4896 18.1771 39.0938 17.625C39.6979 17.0729 40 16.1875 40 14.9688C40 13.8438 39.6979 13.026 39.0938 12.5156C38.4896 11.9948 37.5208 11.7344 36.1875 11.7344H35.4844V18.4531ZM30.5625 31V8.125H36.1875C39.1875 8.125 41.401 8.69792 42.8281 9.84375C44.2656 10.9896 44.9844 12.7604 44.9844 15.1562C44.9844 17.375 44.2604 19.1146 42.8125 20.375C41.375 21.6354 39.3802 22.2656 36.8281 22.2656H35.4844V31H30.5625ZM48.375 31V8.125H61.8438V12.25H53.2656V16.9531H61.8438V21.1094H53.2656V26.8438H61.8438V31H48.375ZM66.6562 31V8.125H71.7344L81.8594 21.4375C82.151 21.8125 82.4688 22.3438 82.8125 23.0312C83.1667 23.7083 83.5312 24.5104 83.9062 25.4375C83.7917 24.7604 83.7083 24.0885 83.6562 23.4219C83.6042 22.7552 83.5781 21.9219 83.5781 20.9219V8.125H88.25V31H83.4531L73.0469 17.4375C72.7552 17.0625 72.4375 16.5365 72.0938 15.8594C71.75 15.1719 71.3854 14.3542 71 13.4062C71.1146 14.0625 71.1979 14.7292 71.25 15.4062C71.3021 16.0729 71.3281 16.9167 71.3281 17.9375V31H66.6562ZM91.875 28.0938L94.5938 25.0156C94.9375 25.8594 95.4896 26.526 96.25 27.0156C97.0104 27.4948 97.8646 27.7344 98.8125 27.7344C99.9583 27.7344 100.865 27.4635 101.531 26.9219C102.198 26.3802 102.531 25.651 102.531 24.7344C102.531 23.651 101.422 22.5729 99.2031 21.5C98.4844 21.1562 97.9167 20.875 97.5 20.6562C95.5 19.6146 94.1146 18.599 93.3438 17.6094C92.5729 16.6094 92.1875 15.4219 92.1875 14.0469C92.1875 12.1615 92.9323 10.6146 94.4219 9.40625C95.9219 8.1875 97.8646 7.57812 100.25 7.57812C101.635 7.57812 102.828 7.82292 103.828 8.3125C104.839 8.79167 105.729 9.54688 106.5 10.5781L103.609 13.3438C103.266 12.6771 102.807 12.1823 102.234 11.8594C101.672 11.526 100.99 11.3594 100.188 11.3594C99.2188 11.3594 98.4375 11.6042 97.8438 12.0938C97.25 12.5729 96.9531 13.1979 96.9531 13.9688C96.9531 15.1771 98.1302 16.2812 100.484 17.2812C100.953 17.4792 101.312 17.6354 101.562 17.75C103.5 18.6354 104.932 19.6354 105.859 20.75C106.797 21.8646 107.266 23.1354 107.266 24.5625C107.266 26.7083 106.531 28.4219 105.062 29.7031C103.604 30.974 101.641 31.6094 99.1719 31.6094C97.4219 31.6094 95.9219 31.3073 94.6719 30.7031C93.4219 30.099 92.4896 29.2292 91.875 28.0938ZM123.125 22.2969L120.562 14.9062C120.49 14.6875 120.396 14.3125 120.281 13.7812C120.167 13.25 120.047 12.599 119.922 11.8281C119.786 12.5677 119.656 13.2344 119.531 13.8281C119.406 14.4115 119.312 14.8021 119.25 15L116.781 22.2969H123.125ZM108.562 31L117.266 8.125H122.859L131.688 31H126.125L124.266 26.1406H115.406L113.812 31H108.562ZM138.984 26.875H141.703C144.266 26.875 146.13 26.2917 147.297 25.125C148.474 23.9583 149.062 22.1094 149.062 19.5781C149.062 17.0573 148.474 15.2135 147.297 14.0469C146.13 12.8698 144.266 12.2812 141.703 12.2812H138.984V26.875ZM134.094 31V8.125H140.328C142.786 8.125 144.724 8.29688 146.141 8.64062C147.557 8.98438 148.802 9.55729 149.875 10.3594C151.26 11.3906 152.307 12.6927 153.016 14.2656C153.734 15.8281 154.094 17.6094 154.094 19.6094C154.094 21.6406 153.729 23.4427 153 25.0156C152.271 26.5781 151.203 27.8698 149.797 28.8906C148.755 29.6406 147.594 30.1823 146.312 30.5156C145.042 30.8385 143.177 31 140.719 31H138.984H134.094ZM181.609 19.6094C181.609 21.2448 181.302 22.7917 180.688 24.25C180.083 25.7083 179.208 26.9896 178.062 28.0938C176.875 29.2292 175.536 30.099 174.047 30.7031C172.557 31.3073 171.016 31.6094 169.422 31.6094C168.026 31.6094 166.656 31.375 165.312 30.9062C163.979 30.4271 162.755 29.7448 161.641 28.8594C160.203 27.7135 159.099 26.3438 158.328 24.75C157.568 23.1562 157.188 21.4427 157.188 19.6094C157.188 17.9635 157.49 16.4219 158.094 14.9844C158.698 13.5365 159.583 12.25 160.75 11.125C161.896 10.0104 163.224 9.14583 164.734 8.53125C166.255 7.91667 167.818 7.60938 169.422 7.60938C171.016 7.60938 172.562 7.91667 174.062 8.53125C175.573 9.14583 176.906 10.0104 178.062 11.125C179.219 12.25 180.099 13.5365 180.703 14.9844C181.307 16.4323 181.609 17.974 181.609 19.6094ZM169.422 27.25C171.495 27.25 173.203 26.526 174.547 25.0781C175.901 23.6198 176.578 21.7969 176.578 19.6094C176.578 17.4427 175.896 15.6198 174.531 14.1406C173.167 12.6615 171.464 11.9219 169.422 11.9219C167.349 11.9219 165.63 12.6615 164.266 14.1406C162.901 15.6094 162.219 17.4323 162.219 19.6094C162.219 21.8177 162.891 23.6458 164.234 25.0938C165.578 26.5312 167.307 27.25 169.422 27.25ZM200.516 18.4531H201.219C202.552 18.4531 203.521 18.1771 204.125 17.625C204.729 17.0729 205.031 16.1875 205.031 14.9688C205.031 13.8438 204.729 13.026 204.125 12.5156C203.521 11.9948 202.552 11.7344 201.219 11.7344H200.516V18.4531ZM195.594 31V8.125H201.219C204.219 8.125 206.432 8.69792 207.859 9.84375C209.297 10.9896 210.016 12.7604 210.016 15.1562C210.016 17.375 209.292 19.1146 207.844 20.375C206.406 21.6354 204.411 22.2656 201.859 22.2656H200.516V31H195.594ZM223.656 22.2969L221.094 14.9062C221.021 14.6875 220.927 14.3125 220.812 13.7812C220.698 13.25 220.578 12.599 220.453 11.8281C220.318 12.5677 220.188 13.2344 220.062 13.8281C219.938 14.4115 219.844 14.8021 219.781 15L217.312 22.2969H223.656ZM209.094 31L217.797 8.125H223.391L232.219 31H226.656L224.797 26.1406H215.938L214.344 31H209.094ZM251.172 31H245.531L239.516 20.3125V31H234.625V8.125H241.625C244.406 8.125 246.49 8.66667 247.875 9.75C249.26 10.8229 249.953 12.4427 249.953 14.6094C249.953 16.1823 249.479 17.526 248.531 18.6406C247.583 19.7552 246.359 20.4062 244.859 20.5938L251.172 31ZM239.516 17.875H240.25C242.229 17.875 243.536 17.6615 244.172 17.2344C244.807 16.7969 245.125 16.0417 245.125 14.9688C245.125 13.8438 244.781 13.0469 244.094 12.5781C243.417 12.099 242.135 11.8594 240.25 11.8594H239.516V17.875ZM265.875 22.2969L263.312 14.9062C263.24 14.6875 263.146 14.3125 263.031 13.7812C262.917 13.25 262.797 12.599 262.672 11.8281C262.536 12.5677 262.406 13.2344 262.281 13.8281C262.156 14.4115 262.062 14.8021 262 15L259.531 22.2969H265.875ZM251.312 31L260.016 8.125H265.609L274.438 31H268.875L267.016 26.1406H258.156L256.562 31H251.312ZM305.109 14.0781C304.12 13.1927 303.104 12.5469 302.062 12.1406C301.021 11.724 299.906 11.5156 298.719 11.5156C296.281 11.5156 294.339 12.2448 292.891 13.7031C291.443 15.1615 290.719 17.1198 290.719 19.5781C290.719 21.9844 291.391 23.8958 292.734 25.3125C294.078 26.7188 295.911 27.4219 298.234 27.4219C299.557 27.4219 300.786 27.2031 301.922 26.7656C303.057 26.3177 304.109 25.651 305.078 24.7656L305.047 29.7812C304.005 30.3958 302.911 30.8542 301.766 31.1562C300.63 31.4583 299.432 31.6094 298.172 31.6094C294.526 31.6094 291.531 30.4792 289.188 28.2188C286.854 25.9479 285.688 23.0677 285.688 19.5781C285.688 16.099 286.859 13.2292 289.203 10.9688C291.547 8.70833 294.568 7.57812 298.266 7.57812C299.505 7.57812 300.703 7.70833 301.859 7.96875C303.016 8.22917 304.156 8.63021 305.281 9.17188L305.109 14.0781ZM326.203 31H320.562L314.547 20.3125V31H309.656V8.125H316.656C319.438 8.125 321.521 8.66667 322.906 9.75C324.292 10.8229 324.984 12.4427 324.984 14.6094C324.984 16.1823 324.51 17.526 323.562 18.6406C322.615 19.7552 321.391 20.4062 319.891 20.5938L326.203 31ZM314.547 17.875H315.281C317.26 17.875 318.568 17.6615 319.203 17.2344C319.839 16.7969 320.156 16.0417 320.156 14.9688C320.156 13.8438 319.812 13.0469 319.125 12.5781C318.448 12.099 317.167 11.8594 315.281 11.8594H314.547V17.875ZM329.062 31V8.125H342.531V12.25H333.953V16.9531H342.531V21.1094H333.953V26.8438H342.531V31H329.062ZM359.188 22.2969L356.625 14.9062C356.552 14.6875 356.458 14.3125 356.344 13.7812C356.229 13.25 356.109 12.599 355.984 11.8281C355.849 12.5677 355.719 13.2344 355.594 13.8281C355.469 14.4115 355.375 14.8021 355.312 15L352.844 22.2969H359.188ZM344.625 31L353.328 8.125H358.922L367.75 31H362.188L360.328 26.1406H351.469L349.875 31H344.625ZM386.703 31H381.062L375.047 20.3125V31H370.156V8.125H377.156C379.938 8.125 382.021 8.66667 383.406 9.75C384.792 10.8229 385.484 12.4427 385.484 14.6094C385.484 16.1823 385.01 17.526 384.062 18.6406C383.115 19.7552 381.891 20.4062 380.391 20.5938L386.703 31ZM375.047 17.875H375.781C377.76 17.875 379.068 17.6615 379.703 17.2344C380.339 16.7969 380.656 16.0417 380.656 14.9688C380.656 13.8438 380.312 13.0469 379.625 12.5781C378.948 12.099 377.667 11.8594 375.781 11.8594H375.047V17.875ZM35.4844 56.4531H36.1875C37.5208 56.4531 38.4896 56.1771 39.0938 55.625C39.6979 55.0729 40 54.1875 40 52.9688C40 51.8438 39.6979 51.026 39.0938 50.5156C38.4896 49.9948 37.5208 49.7344 36.1875 49.7344H35.4844V56.4531ZM30.5625 69V46.125H36.1875C39.1875 46.125 41.401 46.6979 42.8281 47.8438C44.2656 48.9896 44.9844 50.7604 44.9844 53.1562C44.9844 55.375 44.2604 57.1146 42.8125 58.375C41.375 59.6354 39.3802 60.2656 36.8281 60.2656H35.4844V69H30.5625ZM64.9219 69H59.2812L53.2656 58.3125V69H48.375V46.125H55.375C58.1562 46.125 60.2396 46.6667 61.625 47.75C63.0104 48.8229 63.7031 50.4427 63.7031 52.6094C63.7031 54.1823 63.2292 55.526 62.2812 56.6406C61.3333 57.7552 60.1094 58.4062 58.6094 58.5938L64.9219 69ZM53.2656 55.875H54C55.9792 55.875 57.2865 55.6615 57.9219 55.2344C58.5573 54.7969 58.875 54.0417 58.875 52.9688C58.875 51.8438 58.5312 51.0469 57.8438 50.5781C57.1667 50.099 55.8854 49.8594 54 49.8594H53.2656V55.875ZM91.2031 57.6094C91.2031 59.2448 90.8958 60.7917 90.2812 62.25C89.6771 63.7083 88.8021 64.9896 87.6562 66.0938C86.4688 67.2292 85.1302 68.099 83.6406 68.7031C82.151 69.3073 80.6094 69.6094 79.0156 69.6094C77.6198 69.6094 76.25 69.375 74.9062 68.9062C73.5729 68.4271 72.349 67.7448 71.2344 66.8594C69.7969 65.7135 68.6927 64.3438 67.9219 62.75C67.1615 61.1562 66.7812 59.4427 66.7812 57.6094C66.7812 55.9635 67.0833 54.4219 67.6875 52.9844C68.2917 51.5365 69.1771 50.25 70.3438 49.125C71.4896 48.0104 72.8177 47.1458 74.3281 46.5312C75.849 45.9167 77.4115 45.6094 79.0156 45.6094C80.6094 45.6094 82.1562 45.9167 83.6562 46.5312C85.1667 47.1458 86.5 48.0104 87.6562 49.125C88.8125 50.25 89.6927 51.5365 90.2969 52.9844C90.901 54.4323 91.2031 55.974 91.2031 57.6094ZM79.0156 65.25C81.0885 65.25 82.7969 64.526 84.1406 63.0781C85.4948 61.6198 86.1719 59.7969 86.1719 57.6094C86.1719 55.4427 85.4896 53.6198 84.125 52.1406C82.7604 50.6615 81.0573 49.9219 79.0156 49.9219C76.9427 49.9219 75.224 50.6615 73.8594 52.1406C72.4948 53.6094 71.8125 55.4323 71.8125 57.6094C71.8125 59.8177 72.4844 61.6458 73.8281 63.0938C75.1719 64.5312 76.901 65.25 79.0156 65.25ZM98.8906 69V58.5625L91.1406 46.125H96.875L100.266 52.3906C100.432 52.7031 100.604 53.099 100.781 53.5781C100.958 54.0573 101.141 54.6094 101.328 55.2344C101.474 54.7031 101.635 54.2031 101.812 53.7344C102 53.2656 102.208 52.8073 102.438 52.3594L105.797 46.125H111.5L103.781 58.5625V69H98.8906ZM113.594 69V46.125H127.062V50.25H118.484V54.9531H127.062V59.1094H118.484V64.8438H127.062V69H113.594ZM150.297 52.0781C149.307 51.1927 148.292 50.5469 147.25 50.1406C146.208 49.724 145.094 49.5156 143.906 49.5156C141.469 49.5156 139.526 50.2448 138.078 51.7031C136.63 53.1615 135.906 55.1198 135.906 57.5781C135.906 59.9844 136.578 61.8958 137.922 63.3125C139.266 64.7188 141.099 65.4219 143.422 65.4219C144.745 65.4219 145.974 65.2031 147.109 64.7656C148.245 64.3177 149.297 63.651 150.266 62.7656L150.234 67.7812C149.193 68.3958 148.099 68.8542 146.953 69.1562C145.818 69.4583 144.62 69.6094 143.359 69.6094C139.714 69.6094 136.719 68.4792 134.375 66.2188C132.042 63.9479 130.875 61.0677 130.875 57.5781C130.875 54.099 132.047 51.2292 134.391 48.9688C136.734 46.7083 139.755 45.5781 143.453 45.5781C144.693 45.5781 145.891 45.7083 147.047 45.9688C148.203 46.2292 149.344 46.6302 150.469 47.1719L150.297 52.0781ZM163.391 50.2812V69H158.484V50.2812H152.891V46.125H169.016V50.2812H163.391ZM195.047 57.6094C195.047 59.2448 194.74 60.7917 194.125 62.25C193.521 63.7083 192.646 64.9896 191.5 66.0938C190.312 67.2292 188.974 68.099 187.484 68.7031C185.995 69.3073 184.453 69.6094 182.859 69.6094C181.464 69.6094 180.094 69.375 178.75 68.9062C177.417 68.4271 176.193 67.7448 175.078 66.8594C173.641 65.7135 172.536 64.3438 171.766 62.75C171.005 61.1562 170.625 59.4427 170.625 57.6094C170.625 55.9635 170.927 54.4219 171.531 52.9844C172.135 51.5365 173.021 50.25 174.188 49.125C175.333 48.0104 176.661 47.1458 178.172 46.5312C179.693 45.9167 181.255 45.6094 182.859 45.6094C184.453 45.6094 186 45.9167 187.5 46.5312C189.01 47.1458 190.344 48.0104 191.5 49.125C192.656 50.25 193.536 51.5365 194.141 52.9844C194.745 54.4323 195.047 55.974 195.047 57.6094ZM182.859 65.25C184.932 65.25 186.641 64.526 187.984 63.0781C189.339 61.6198 190.016 59.7969 190.016 57.6094C190.016 55.4427 189.333 53.6198 187.969 52.1406C186.604 50.6615 184.901 49.9219 182.859 49.9219C180.786 49.9219 179.068 50.6615 177.703 52.1406C176.339 53.6094 175.656 55.4323 175.656 57.6094C175.656 59.8177 176.328 61.6458 177.672 63.0938C179.016 64.5312 180.745 65.25 182.859 65.25ZM197.719 66.0938L200.438 63.0156C200.781 63.8594 201.333 64.526 202.094 65.0156C202.854 65.4948 203.708 65.7344 204.656 65.7344C205.802 65.7344 206.708 65.4635 207.375 64.9219C208.042 64.3802 208.375 63.651 208.375 62.7344C208.375 61.651 207.266 60.5729 205.047 59.5C204.328 59.1562 203.76 58.875 203.344 58.6562C201.344 57.6146 199.958 56.599 199.188 55.6094C198.417 54.6094 198.031 53.4219 198.031 52.0469C198.031 50.1615 198.776 48.6146 200.266 47.4062C201.766 46.1875 203.708 45.5781 206.094 45.5781C207.479 45.5781 208.672 45.8229 209.672 46.3125C210.682 46.7917 211.573 47.5469 212.344 48.5781L209.453 51.3438C209.109 50.6771 208.651 50.1823 208.078 49.8594C207.516 49.526 206.833 49.3594 206.031 49.3594C205.062 49.3594 204.281 49.6042 203.688 50.0938C203.094 50.5729 202.797 51.1979 202.797 51.9688C202.797 53.1771 203.974 54.2812 206.328 55.2812C206.797 55.4792 207.156 55.6354 207.406 55.75C209.344 56.6354 210.776 57.6354 211.703 58.75C212.641 59.8646 213.109 61.1354 213.109 62.5625C213.109 64.7083 212.375 66.4219 210.906 67.7031C209.448 68.974 207.484 69.6094 205.016 69.6094C203.266 69.6094 201.766 69.3073 200.516 68.7031C199.266 68.099 198.333 67.2292 197.719 66.0938ZM226.969 69V46.125H231.859V55.2969H241.781V46.125H246.672V69H241.781V59.4375H231.859V69H226.969ZM263.625 60.2969L261.062 52.9062C260.99 52.6875 260.896 52.3125 260.781 51.7812C260.667 51.25 260.547 50.599 260.422 49.8281C260.286 50.5677 260.156 51.2344 260.031 51.8281C259.906 52.4115 259.812 52.8021 259.75 53L257.281 60.2969H263.625ZM249.062 69L257.766 46.125H263.359L272.188 69H266.625L264.766 64.1406H255.906L254.312 69H249.062ZM279.484 65.1875H281.406C282.635 65.1875 283.568 64.9219 284.203 64.3906C284.839 63.849 285.156 63.0625 285.156 62.0312C285.156 61.0625 284.839 60.3229 284.203 59.8125C283.578 59.3021 282.667 59.0469 281.469 59.0469H279.484V65.1875ZM279.484 55.2656H280.578C282.057 55.2656 283.104 55.0573 283.719 54.6406C284.333 54.224 284.641 53.526 284.641 52.5469C284.641 51.5885 284.344 50.9062 283.75 50.5C283.167 50.0938 282.141 49.8906 280.672 49.8906H279.484V55.2656ZM274.594 69V46.125H278.875C281.094 46.125 282.714 46.2135 283.734 46.3906C284.766 46.5573 285.656 46.8385 286.406 47.2344C287.292 47.7448 287.974 48.4167 288.453 49.25C288.943 50.0833 289.188 51.026 289.188 52.0781C289.188 53.4323 288.786 54.5208 287.984 55.3438C287.182 56.1562 285.984 56.6979 284.391 56.9688C286.234 57.2396 287.625 57.8385 288.562 58.7656C289.51 59.6927 289.984 60.9271 289.984 62.4688C289.984 63.5938 289.714 64.625 289.172 65.5625C288.63 66.4896 287.885 67.2083 286.938 67.7188C286.094 68.1771 285.104 68.5052 283.969 68.7031C282.833 68.901 280.953 69 278.328 69H277.828H274.594ZM293.812 69V46.125H298.703V69H293.812ZM312.484 50.2812V69H307.578V50.2812H301.984V46.125H318.109V50.2812H312.484ZM331.375 60.2969L328.812 52.9062C328.74 52.6875 328.646 52.3125 328.531 51.7812C328.417 51.25 328.297 50.599 328.172 49.8281C328.036 50.5677 327.906 51.2344 327.781 51.8281C327.656 52.4115 327.562 52.8021 327.5 53L325.031 60.2969H331.375ZM316.812 69L325.516 46.125H331.109L339.938 69H334.375L332.516 64.1406H323.656L322.062 69H316.812ZM360.203 52.0781C359.214 51.1927 358.198 50.5469 357.156 50.1406C356.115 49.724 355 49.5156 353.812 49.5156C351.375 49.5156 349.432 50.2448 347.984 51.7031C346.536 53.1615 345.812 55.1198 345.812 57.5781C345.812 59.9844 346.484 61.8958 347.828 63.3125C349.172 64.7188 351.005 65.4219 353.328 65.4219C354.651 65.4219 355.88 65.2031 357.016 64.7656C358.151 64.3177 359.203 63.651 360.172 62.7656L360.141 67.7812C359.099 68.3958 358.005 68.8542 356.859 69.1562C355.724 69.4583 354.526 69.6094 353.266 69.6094C349.62 69.6094 346.625 68.4792 344.281 66.2188C341.948 63.9479 340.781 61.0677 340.781 57.5781C340.781 54.099 341.953 51.2292 344.297 48.9688C346.641 46.7083 349.661 45.5781 353.359 45.5781C354.599 45.5781 355.797 45.7083 356.953 45.9688C358.109 46.2292 359.25 46.6302 360.375 47.1719L360.203 52.0781ZM364.844 69V46.125H369.734V69H364.844ZM398.391 57.6094C398.391 59.2448 398.083 60.7917 397.469 62.25C396.865 63.7083 395.99 64.9896 394.844 66.0938C393.656 67.2292 392.318 68.099 390.828 68.7031C389.339 69.3073 387.797 69.6094 386.203 69.6094C384.807 69.6094 383.438 69.375 382.094 68.9062C380.76 68.4271 379.536 67.7448 378.422 66.8594C376.984 65.7135 375.88 64.3438 375.109 62.75C374.349 61.1562 373.969 59.4427 373.969 57.6094C373.969 55.9635 374.271 54.4219 374.875 52.9844C375.479 51.5365 376.365 50.25 377.531 49.125C378.677 48.0104 380.005 47.1458 381.516 46.5312C383.036 45.9167 384.599 45.6094 386.203 45.6094C387.797 45.6094 389.344 45.9167 390.844 46.5312C392.354 47.1458 393.688 48.0104 394.844 49.125C396 50.25 396.88 51.5365 397.484 52.9844C398.089 54.4323 398.391 55.974 398.391 57.6094ZM386.203 65.25C388.276 65.25 389.984 64.526 391.328 63.0781C392.682 61.6198 393.359 59.7969 393.359 57.6094C393.359 55.4427 392.677 53.6198 391.312 52.1406C389.948 50.6615 388.245 49.9219 386.203 49.9219C384.13 49.9219 382.411 50.6615 381.047 52.1406C379.682 53.6094 379 55.4323 379 57.6094C379 59.8177 379.672 61.6458 381.016 63.0938C382.359 64.5312 384.089 65.25 386.203 65.25ZM402.531 69V46.125H407.609L417.734 59.4375C418.026 59.8125 418.344 60.3438 418.688 61.0312C419.042 61.7083 419.406 62.5104 419.781 63.4375C419.667 62.7604 419.583 62.0885 419.531 61.4219C419.479 60.7552 419.453 59.9219 419.453 58.9219V46.125H424.125V69H419.328L408.922 55.4375C408.63 55.0625 408.312 54.5365 407.969 53.8594C407.625 53.1719 407.26 52.3542 406.875 51.4062C406.99 52.0625 407.073 52.7292 407.125 53.4062C407.177 54.0729 407.203 54.9167 407.203 55.9375V69H402.531ZM441.062 60.2969L438.5 52.9062C438.427 52.6875 438.333 52.3125 438.219 51.7812C438.104 51.25 437.984 50.599 437.859 49.8281C437.724 50.5677 437.594 51.2344 437.469 51.8281C437.344 52.4115 437.25 52.8021 437.188 53L434.719 60.2969H441.062ZM426.5 69L435.203 46.125H440.797L449.625 69H444.062L442.203 64.1406H433.344L431.75 69H426.5ZM452.031 69V46.125H456.922V64.8438H464.734V69H452.031ZM467.812 69V46.125H481.281V50.25H472.703V54.9531H481.281V59.1094H472.703V64.8438H481.281V69H467.812ZM484.625 66.0938L487.344 63.0156C487.688 63.8594 488.24 64.526 489 65.0156C489.76 65.4948 490.615 65.7344 491.562 65.7344C492.708 65.7344 493.615 65.4635 494.281 64.9219C494.948 64.3802 495.281 63.651 495.281 62.7344C495.281 61.651 494.172 60.5729 491.953 59.5C491.234 59.1562 490.667 58.875 490.25 58.6562C488.25 57.6146 486.865 56.599 486.094 55.6094C485.323 54.6094 484.938 53.4219 484.938 52.0469C484.938 50.1615 485.682 48.6146 487.172 47.4062C488.672 46.1875 490.615 45.5781 493 45.5781C494.385 45.5781 495.578 45.8229 496.578 46.3125C497.589 46.7917 498.479 47.5469 499.25 48.5781L496.359 51.3438C496.016 50.6771 495.557 50.1823 494.984 49.8594C494.422 49.526 493.74 49.3594 492.938 49.3594C491.969 49.3594 491.188 49.6042 490.594 50.0938C490 50.5729 489.703 51.1979 489.703 51.9688C489.703 53.1771 490.88 54.2812 493.234 55.2812C493.703 55.4792 494.062 55.6354 494.312 55.75C496.25 56.6354 497.682 57.6354 498.609 58.75C499.547 59.8646 500.016 61.1354 500.016 62.5625C500.016 64.7083 499.281 66.4219 497.812 67.7031C496.354 68.974 494.391 69.6094 491.922 69.6094C490.172 69.6094 488.672 69.3073 487.422 68.7031C486.172 68.099 485.24 67.2292 484.625 66.0938Z" fill="white"/>
<path d="M27 136H15C10.5817 136 7 132.418 7 128V28" stroke="white" stroke-width="1.5"/>
<circle cx="7" cy="21" r="6.25" stroke="white" stroke-width="1.5"/>
<rect x="25" y="108" width="223" height="48" rx="10" fill="#002A61"/>
<path d="M58.6963 126.634V130.466C58.2158 129.933 57.7354 129.543 57.2549 129.297C56.7803 129.045 56.2705 128.919 55.7256 128.919C54.7178 128.919 53.9004 129.265 53.2734 129.956C52.6523 130.642 52.3418 131.538 52.3418 132.646C52.3418 133.677 52.6582 134.532 53.291 135.212C53.9297 135.892 54.7412 136.231 55.7256 136.231C56.2705 136.231 56.7803 136.108 57.2549 135.862C57.7354 135.61 58.2158 135.215 58.6963 134.676V138.517C58.1396 138.786 57.5859 138.988 57.0352 139.123C56.4844 139.258 55.9277 139.325 55.3652 139.325C54.6621 139.325 54.0117 139.24 53.4141 139.07C52.8223 138.906 52.2773 138.654 51.7793 138.314C50.8184 137.67 50.0859 136.858 49.582 135.88C49.0781 134.901 48.8262 133.8 48.8262 132.575C48.8262 131.591 48.9844 130.697 49.3008 129.895C49.623 129.086 50.1064 128.354 50.751 127.697C51.3604 127.07 52.0459 126.602 52.8076 126.291C53.5752 125.98 54.4277 125.825 55.3652 125.825C55.9277 125.825 56.4844 125.893 57.0352 126.027C57.5859 126.162 58.1396 126.364 58.6963 126.634ZM66.7559 134.588C66.7559 133.926 66.5889 133.404 66.2549 133.023C65.9209 132.643 65.4697 132.452 64.9014 132.452C64.3271 132.452 63.873 132.643 63.5391 133.023C63.2109 133.404 63.0469 133.926 63.0469 134.588C63.0469 135.25 63.2109 135.771 63.5391 136.152C63.8672 136.527 64.3213 136.715 64.9014 136.715C65.4756 136.715 65.9268 136.527 66.2549 136.152C66.5889 135.771 66.7559 135.25 66.7559 134.588ZM69.8672 134.588C69.8672 135.227 69.7412 135.833 69.4893 136.407C69.2432 136.981 68.8828 137.497 68.4082 137.954C67.9277 138.411 67.3887 138.757 66.791 138.991C66.1992 139.226 65.5693 139.343 64.9014 139.343C64.2217 139.343 63.583 139.226 62.9854 138.991C62.3936 138.757 61.8633 138.411 61.3945 137.954C60.9258 137.509 60.5684 136.999 60.3223 136.425C60.0762 135.845 59.9531 135.232 59.9531 134.588C59.9531 133.938 60.0732 133.325 60.3135 132.751C60.5596 132.177 60.9199 131.661 61.3945 131.204C61.8574 130.753 62.3848 130.413 62.9766 130.185C63.5742 129.956 64.2158 129.842 64.9014 129.842C65.5869 129.842 66.2256 129.956 66.8174 130.185C67.4092 130.413 67.9395 130.753 68.4082 131.204C68.8887 131.667 69.252 132.186 69.498 132.76C69.7441 133.334 69.8672 133.943 69.8672 134.588ZM71.6689 139V130.123H74.5342V131.925C74.9502 131.204 75.4307 130.677 75.9756 130.343C76.5205 130.009 77.1738 129.842 77.9355 129.842C78.5098 129.842 79.0195 129.936 79.4648 130.123C79.916 130.305 80.2822 130.568 80.5635 130.914C80.7979 131.213 80.9648 131.576 81.0645 132.004C81.1641 132.432 81.2139 133.07 81.2139 133.92V139H78.0762V134.245C78.0762 133.536 77.959 133.021 77.7246 132.698C77.4961 132.376 77.127 132.215 76.6172 132.215C75.9668 132.215 75.4922 132.455 75.1934 132.936C74.8945 133.416 74.7451 134.195 74.7451 135.273V139H71.6689ZM82.6025 138.262L83.2529 135.871C83.71 136.27 84.2109 136.577 84.7559 136.794C85.3066 137.005 85.8604 137.11 86.417 137.11C86.8096 137.11 87.1084 137.049 87.3135 136.926C87.5186 136.797 87.6211 136.612 87.6211 136.372C87.6211 135.979 87.208 135.687 86.3818 135.493C86.1123 135.429 85.8955 135.373 85.7314 135.326C84.7939 135.068 84.1113 134.731 83.6836 134.315C83.2617 133.894 83.0508 133.349 83.0508 132.681C83.0508 131.819 83.373 131.131 84.0176 130.615C84.668 130.1 85.5469 129.842 86.6543 129.842C87.2227 129.842 87.7998 129.909 88.3857 130.044C88.9775 130.173 89.5811 130.375 90.1963 130.65L89.5459 132.804C89.1299 132.522 88.708 132.309 88.2803 132.162C87.8525 132.016 87.4248 131.942 86.9971 131.942C86.6396 131.942 86.3701 131.998 86.1885 132.109C86.0068 132.221 85.916 132.382 85.916 132.593C85.916 132.909 86.3262 133.176 87.1465 133.393C87.334 133.445 87.4746 133.483 87.5684 133.507C88.6523 133.817 89.4053 134.184 89.8271 134.605C90.2549 135.021 90.4688 135.587 90.4688 136.302C90.4688 137.21 90.1201 137.945 89.4229 138.508C88.7256 139.064 87.8027 139.343 86.6543 139.343C85.875 139.343 85.1514 139.252 84.4834 139.07C83.8154 138.895 83.1885 138.625 82.6025 138.262ZM92.6309 139V132.338H91.3037V130.123H92.6309V127.478H95.7158V130.123H97.043V132.338H95.7158V139H92.6309ZM98.5283 139V130.123H101.481V132.215C101.786 131.453 102.202 130.882 102.729 130.501C103.257 130.12 103.896 129.93 104.646 129.93C104.769 129.93 104.892 129.936 105.015 129.947C105.144 129.953 105.272 129.965 105.401 129.982L105.103 132.83C104.915 132.766 104.73 132.719 104.549 132.689C104.367 132.66 104.191 132.646 104.021 132.646C103.26 132.646 102.671 132.88 102.255 133.349C101.845 133.812 101.64 134.471 101.64 135.326V139H98.5283ZM115.667 130.123V134.658C115.667 135.66 115.585 136.404 115.421 136.891C115.263 137.371 114.993 137.799 114.612 138.174C114.22 138.566 113.73 138.859 113.145 139.053C112.559 139.246 111.87 139.343 111.079 139.343C110.294 139.343 109.608 139.246 109.022 139.053C108.442 138.859 107.947 138.566 107.537 138.174C107.156 137.811 106.887 137.386 106.729 136.899C106.57 136.407 106.491 135.66 106.491 134.658V130.123H109.479V134.86C109.479 135.604 109.603 136.144 109.849 136.478C110.095 136.806 110.493 136.97 111.044 136.97C111.601 136.97 111.999 136.809 112.239 136.486C112.485 136.158 112.608 135.616 112.608 134.86V130.123H115.667ZM117.847 127.354C117.847 126.88 118.014 126.476 118.348 126.142C118.688 125.808 119.095 125.641 119.569 125.641C120.062 125.641 120.472 125.805 120.8 126.133C121.134 126.461 121.301 126.868 121.301 127.354C121.301 127.841 121.131 128.254 120.791 128.594C120.457 128.934 120.05 129.104 119.569 129.104C119.101 129.104 118.696 128.931 118.356 128.585C118.017 128.239 117.847 127.829 117.847 127.354ZM118.005 139V130.123H121.143V139H118.005ZM135.293 139V134.157C135.293 133.39 135.196 132.859 135.003 132.566C134.815 132.273 134.487 132.127 134.019 132.127C133.433 132.127 133.025 132.332 132.797 132.742C132.568 133.146 132.454 133.979 132.454 135.238V139H129.431V134.157C129.431 133.378 129.337 132.845 129.149 132.558C128.962 132.271 128.634 132.127 128.165 132.127C127.579 132.127 127.169 132.329 126.935 132.733C126.7 133.132 126.583 133.967 126.583 135.238V139H123.542V130.123H126.618V131.67C126.987 131.043 127.412 130.583 127.893 130.29C128.379 129.991 128.95 129.842 129.606 129.842C130.327 129.842 130.916 129.982 131.373 130.264C131.836 130.539 132.167 130.955 132.366 131.512C132.712 130.949 133.134 130.53 133.632 130.255C134.13 129.979 134.716 129.842 135.39 129.842C135.923 129.842 136.389 129.933 136.787 130.114C137.191 130.29 137.528 130.557 137.798 130.914C138.015 131.195 138.167 131.523 138.255 131.898C138.349 132.273 138.396 132.883 138.396 133.727V133.92V139H135.293ZM146.912 134.588C146.912 133.926 146.745 133.404 146.411 133.023C146.077 132.643 145.626 132.452 145.058 132.452C144.483 132.452 144.029 132.643 143.695 133.023C143.367 133.404 143.203 133.926 143.203 134.588C143.203 135.25 143.367 135.771 143.695 136.152C144.023 136.527 144.478 136.715 145.058 136.715C145.632 136.715 146.083 136.527 146.411 136.152C146.745 135.771 146.912 135.25 146.912 134.588ZM150.023 134.588C150.023 135.227 149.897 135.833 149.646 136.407C149.399 136.981 149.039 137.497 148.564 137.954C148.084 138.411 147.545 138.757 146.947 138.991C146.355 139.226 145.726 139.343 145.058 139.343C144.378 139.343 143.739 139.226 143.142 138.991C142.55 138.757 142.02 138.411 141.551 137.954C141.082 137.509 140.725 136.999 140.479 136.425C140.232 135.845 140.109 135.232 140.109 134.588C140.109 133.938 140.229 133.325 140.47 132.751C140.716 132.177 141.076 131.661 141.551 131.204C142.014 130.753 142.541 130.413 143.133 130.185C143.73 129.956 144.372 129.842 145.058 129.842C145.743 129.842 146.382 129.956 146.974 130.185C147.565 130.413 148.096 130.753 148.564 131.204C149.045 131.667 149.408 132.186 149.654 132.76C149.9 133.334 150.023 133.943 150.023 134.588ZM150.999 138.262L151.649 135.871C152.106 136.27 152.607 136.577 153.152 136.794C153.703 137.005 154.257 137.11 154.813 137.11C155.206 137.11 155.505 137.049 155.71 136.926C155.915 136.797 156.018 136.612 156.018 136.372C156.018 135.979 155.604 135.687 154.778 135.493C154.509 135.429 154.292 135.373 154.128 135.326C153.19 135.068 152.508 134.731 152.08 134.315C151.658 133.894 151.447 133.349 151.447 132.681C151.447 131.819 151.77 131.131 152.414 130.615C153.064 130.1 153.943 129.842 155.051 129.842C155.619 129.842 156.196 129.909 156.782 130.044C157.374 130.173 157.978 130.375 158.593 130.65L157.942 132.804C157.526 132.522 157.104 132.309 156.677 132.162C156.249 132.016 155.821 131.942 155.394 131.942C155.036 131.942 154.767 131.998 154.585 132.109C154.403 132.221 154.312 132.382 154.312 132.593C154.312 132.909 154.723 133.176 155.543 133.393C155.73 133.445 155.871 133.483 155.965 133.507C157.049 133.817 157.802 134.184 158.224 134.605C158.651 135.021 158.865 135.587 158.865 136.302C158.865 137.21 158.517 137.945 157.819 138.508C157.122 139.064 156.199 139.343 155.051 139.343C154.271 139.343 153.548 139.252 152.88 139.07C152.212 138.895 151.585 138.625 150.999 138.262ZM172.611 137.093V138.692C172.248 138.909 171.838 139.07 171.381 139.176C170.93 139.287 170.44 139.343 169.913 139.343C168.671 139.343 167.669 138.95 166.907 138.165C166.151 137.374 165.773 136.337 165.773 135.054C165.773 133.765 166.166 132.713 166.951 131.898C167.736 131.078 168.741 130.668 169.966 130.668C170.411 130.668 170.845 130.715 171.267 130.809C171.694 130.902 172.096 131.04 172.471 131.222V132.698C172.119 132.47 171.756 132.297 171.381 132.18C171.006 132.057 170.625 131.995 170.238 131.995C169.336 131.995 168.612 132.279 168.067 132.848C167.522 133.41 167.25 134.16 167.25 135.098C167.25 135.924 167.522 136.615 168.067 137.172C168.618 137.729 169.307 138.007 170.133 138.007C170.549 138.007 170.956 137.934 171.354 137.787C171.753 137.641 172.172 137.409 172.611 137.093ZM175.336 135.001C175.336 135.851 175.62 136.571 176.188 137.163C176.757 137.749 177.445 138.042 178.254 138.042C179.057 138.042 179.739 137.749 180.302 137.163C180.864 136.571 181.146 135.851 181.146 135.001C181.146 134.151 180.864 133.434 180.302 132.848C179.739 132.256 179.057 131.96 178.254 131.96C177.439 131.96 176.748 132.256 176.18 132.848C175.617 133.434 175.336 134.151 175.336 135.001ZM173.877 135.001C173.877 134.409 173.985 133.853 174.202 133.331C174.419 132.804 174.735 132.335 175.151 131.925C175.567 131.515 176.039 131.204 176.566 130.993C177.094 130.776 177.656 130.668 178.254 130.668C178.84 130.668 179.394 130.776 179.915 130.993C180.442 131.21 180.92 131.526 181.348 131.942C181.764 132.347 182.08 132.812 182.297 133.34C182.514 133.861 182.622 134.415 182.622 135.001C182.622 135.587 182.514 136.141 182.297 136.662C182.08 137.178 181.764 137.638 181.348 138.042C180.92 138.464 180.439 138.786 179.906 139.009C179.379 139.231 178.828 139.343 178.254 139.343C177.662 139.343 177.1 139.231 176.566 139.009C176.039 138.792 175.567 138.479 175.151 138.068C174.735 137.646 174.419 137.178 174.202 136.662C173.985 136.146 173.877 135.593 173.877 135.001ZM184.775 139V130.958H186.12V132.197C186.466 131.682 186.882 131.298 187.368 131.046C187.854 130.794 188.417 130.668 189.056 130.668C190.005 130.668 190.746 130.92 191.279 131.424C191.812 131.928 192.079 132.628 192.079 133.524V139H190.673V134.263C190.673 133.448 190.5 132.845 190.154 132.452C189.814 132.054 189.287 131.854 188.572 131.854C188.162 131.854 187.787 131.931 187.447 132.083C187.113 132.229 186.835 132.44 186.612 132.716C186.442 132.927 186.319 133.167 186.243 133.437C186.173 133.706 186.138 134.175 186.138 134.843V139H184.775ZM195.023 132.092H193.547V130.958H195.023V127.715H196.43V130.958H197.906V132.092H196.43V139H195.023V132.092ZM199.216 127.082C199.216 126.807 199.312 126.572 199.506 126.379C199.705 126.18 199.945 126.08 200.227 126.08C200.502 126.08 200.736 126.18 200.93 126.379C201.129 126.578 201.229 126.818 201.229 127.1C201.229 127.375 201.132 127.609 200.938 127.803C200.745 127.996 200.508 128.093 200.227 128.093C199.945 128.093 199.705 127.996 199.506 127.803C199.312 127.609 199.216 127.369 199.216 127.082ZM199.541 139V130.958H200.93V139H199.541ZM209.982 135.001C209.982 134.099 209.736 133.372 209.244 132.821C208.752 132.271 208.104 131.995 207.302 131.995C206.476 131.995 205.831 132.25 205.368 132.76C204.905 133.27 204.674 133.981 204.674 134.896C204.674 135.868 204.905 136.618 205.368 137.146C205.837 137.673 206.499 137.937 207.354 137.937C208.175 137.937 208.816 137.679 209.279 137.163C209.748 136.642 209.982 135.921 209.982 135.001ZM211.318 130.958V138.859C211.318 139.732 211.26 140.354 211.143 140.723C211.025 141.092 210.832 141.423 210.562 141.716C210.188 142.12 209.728 142.422 209.183 142.621C208.644 142.82 208.022 142.92 207.319 142.92C206.101 142.92 205.148 142.642 204.463 142.085C203.783 141.528 203.429 140.74 203.399 139.721H204.946V139.826C204.946 140.43 205.154 140.896 205.57 141.224C205.986 141.552 206.575 141.716 207.337 141.716C207.888 141.716 208.356 141.625 208.743 141.443C209.136 141.268 209.435 141.004 209.64 140.652C209.763 140.453 209.851 140.222 209.903 139.958C209.956 139.694 209.982 139.316 209.982 138.824V138.191V137.471C209.672 138.045 209.265 138.487 208.761 138.798C208.257 139.103 207.691 139.255 207.064 139.255C205.91 139.255 204.979 138.862 204.27 138.077C203.566 137.292 203.215 136.249 203.215 134.948C203.215 133.636 203.558 132.596 204.243 131.828C204.929 131.055 205.846 130.668 206.994 130.668C207.662 130.668 208.248 130.82 208.752 131.125C209.256 131.424 209.654 131.866 209.947 132.452V130.958H211.318ZM214.922 135.001C214.922 135.851 215.206 136.571 215.774 137.163C216.343 137.749 217.031 138.042 217.84 138.042C218.643 138.042 219.325 137.749 219.888 137.163C220.45 136.571 220.731 135.851 220.731 135.001C220.731 134.151 220.45 133.434 219.888 132.848C219.325 132.256 218.643 131.96 217.84 131.96C217.025 131.96 216.334 132.256 215.766 132.848C215.203 133.434 214.922 134.151 214.922 135.001ZM213.463 135.001C213.463 134.409 213.571 133.853 213.788 133.331C214.005 132.804 214.321 132.335 214.737 131.925C215.153 131.515 215.625 131.204 216.152 130.993C216.68 130.776 217.242 130.668 217.84 130.668C218.426 130.668 218.979 130.776 219.501 130.993C220.028 131.21 220.506 131.526 220.934 131.942C221.35 132.347 221.666 132.812 221.883 133.34C222.1 133.861 222.208 134.415 222.208 135.001C222.208 135.587 222.1 136.141 221.883 136.662C221.666 137.178 221.35 137.638 220.934 138.042C220.506 138.464 220.025 138.786 219.492 139.009C218.965 139.231 218.414 139.343 217.84 139.343C217.248 139.343 216.686 139.231 216.152 139.009C215.625 138.792 215.153 138.479 214.737 138.068C214.321 137.646 214.005 137.178 213.788 136.662C213.571 136.146 213.463 135.593 213.463 135.001Z" fill="white"/>
</svg>
