<svg width="514" height="288" viewBox="0 0 514 288" fill="none" xmlns="http://www.w3.org/2000/svg">
<path d="M26.744 225H14.686C10.2678 225 6.68604 221.418 6.68604 217V16" stroke="white" stroke-width="1.5"/>
<path d="M12.622 10.0784C12.622 13.6144 9.92461 16.4068 6.68598 16.4068C3.44736 16.4068 0.75 13.6144 0.75 10.0784C0.75 6.54244 3.44736 3.75 6.68598 3.75C9.92461 3.75 12.622 6.54244 12.622 10.0784Z" stroke="white" stroke-width="1.5"/>
<rect x="25" y="203" width="262" height="85" rx="16" fill="#002A61"/>
<path d="M52.968 225.832H56.28V224.428H48.18V225.832H51.456V238H52.968V225.832ZM65.1851 234.076C65.3291 231.556 63.8891 229.306 61.1711 229.306C58.5251 229.306 57.0671 231.376 57.0671 233.878C57.0671 236.308 58.6871 238.234 61.2071 238.234C62.9351 238.234 64.3031 237.37 65.1131 235.858L63.8891 235.156C63.3311 236.164 62.5391 236.902 61.3151 236.902C59.6771 236.902 58.5611 235.642 58.5431 234.076H65.1851ZM58.6151 232.852C58.7951 231.628 59.9471 230.638 61.1891 230.638C62.4491 230.638 63.4751 231.628 63.6731 232.852H58.6151ZM76.2042 230.638C77.9862 230.638 79.0482 232.006 79.0482 233.698C79.0482 235.408 78.0762 236.902 76.2222 236.902C74.4222 236.902 73.4502 235.336 73.4502 233.68C73.4502 232.096 74.5302 230.638 76.2042 230.638ZM78.9762 238H80.4162V223.15H78.9762V230.746H78.9402C78.2562 229.846 77.1762 229.306 76.0422 229.306C73.5042 229.306 71.9742 231.376 71.9742 233.788C71.9742 236.128 73.5402 238.234 76.0242 238.234C77.1762 238.234 78.2382 237.748 78.9402 236.83H78.9762V238ZM86.5928 230.638C88.3748 230.638 89.4368 232.006 89.4368 233.698C89.4368 235.408 88.4648 236.902 86.6108 236.902C84.8108 236.902 83.8388 235.336 83.8388 233.68C83.8388 232.096 84.9188 230.638 86.5928 230.638ZM90.8048 229.54H89.3648V230.746H89.3288C88.6268 229.846 87.5828 229.306 86.4308 229.306C83.8928 229.306 82.3628 231.376 82.3628 233.788C82.3628 236.128 83.9288 238.234 86.4128 238.234C87.6008 238.234 88.5908 237.766 89.3288 236.83H89.3648V238H90.8048V229.54ZM94.9115 229.54H93.4715V238H94.9115V233.626C94.9115 232.348 95.0915 230.638 96.7835 230.638C98.1695 230.638 98.2955 232.15 98.2955 233.194V238H99.7355V233.518C99.7355 232.24 99.9155 230.638 101.572 230.638C103.048 230.638 103.12 231.988 103.12 233.086V238H104.56V232.852C104.56 231.07 104.02 229.306 101.86 229.306C100.834 229.306 99.8255 229.774 99.3215 230.71C98.8715 229.828 97.9715 229.306 96.9815 229.306C96.1175 229.306 95.3975 229.756 94.9475 230.458H94.9115V229.54ZM110.978 238.234C113.444 238.234 115.424 236.272 115.424 233.788C115.424 231.304 113.462 229.306 110.978 229.306C108.494 229.306 106.532 231.304 106.532 233.788C106.532 236.272 108.512 238.234 110.978 238.234ZM110.978 230.638C112.76 230.638 113.984 232.06 113.984 233.77C113.984 235.498 112.76 236.902 110.978 236.902C109.196 236.902 107.972 235.498 107.972 233.77C107.972 232.06 109.196 230.638 110.978 230.638ZM122.021 230.872C121.643 229.99 120.743 229.306 119.771 229.306C118.403 229.306 117.251 230.278 117.251 231.7C117.251 234.364 121.067 233.716 121.067 235.606C121.067 236.38 120.473 236.902 119.699 236.902C118.745 236.902 118.331 236.344 117.971 235.552L116.693 236.092C117.143 237.424 118.259 238.234 119.681 238.234C121.247 238.234 122.543 237.082 122.543 235.48C122.543 234.058 121.571 233.464 120.581 233.05C119.591 232.636 118.619 232.348 118.619 231.574C118.619 231.034 119.159 230.638 119.663 230.638C120.185 230.638 120.617 231.052 120.815 231.502L122.021 230.872ZM131.526 223.15H130.086V238H131.526V223.15ZM137.71 230.638C139.492 230.638 140.554 232.006 140.554 233.698C140.554 235.408 139.582 236.902 137.728 236.902C135.928 236.902 134.956 235.336 134.956 233.68C134.956 232.096 136.036 230.638 137.71 230.638ZM141.922 229.54H140.482V230.746H140.446C139.744 229.846 138.7 229.306 137.548 229.306C135.01 229.306 133.48 231.376 133.48 233.788C133.48 236.128 135.046 238.234 137.53 238.234C138.718 238.234 139.708 237.766 140.446 236.83H140.482V238H141.922V229.54ZM149.215 230.872C148.837 229.99 147.937 229.306 146.965 229.306C145.597 229.306 144.445 230.278 144.445 231.7C144.445 234.364 148.261 233.716 148.261 235.606C148.261 236.38 147.667 236.902 146.893 236.902C145.939 236.902 145.525 236.344 145.165 235.552L143.887 236.092C144.337 237.424 145.453 238.234 146.875 238.234C148.441 238.234 149.737 237.082 149.737 235.48C149.737 234.058 148.765 233.464 147.775 233.05C146.785 232.636 145.813 232.348 145.813 231.574C145.813 231.034 146.353 230.638 146.857 230.638C147.379 230.638 147.811 231.052 148.009 231.502L149.215 230.872ZM157.315 223.15V238H158.755V233.986C158.755 232.474 158.881 230.638 160.861 230.638C162.535 230.638 162.643 231.862 162.643 233.23V238H164.083V232.978C164.083 230.998 163.543 229.306 161.203 229.306C160.159 229.306 159.385 229.756 158.791 230.566L158.755 230.53V223.15H157.315ZM174.187 234.076C174.331 231.556 172.891 229.306 170.173 229.306C167.527 229.306 166.069 231.376 166.069 233.878C166.069 236.308 167.689 238.234 170.209 238.234C171.937 238.234 173.305 237.37 174.115 235.858L172.891 235.156C172.333 236.164 171.541 236.902 170.317 236.902C168.679 236.902 167.563 235.642 167.545 234.076H174.187ZM167.617 232.852C167.797 231.628 168.949 230.638 170.191 230.638C171.451 230.638 172.477 231.628 172.675 232.852H167.617ZM177.527 229.54H176.087V238H177.527V233.77C177.527 232.672 177.599 230.638 179.183 230.638C179.561 230.638 179.759 230.818 180.047 231.016L180.731 229.702C180.317 229.468 179.921 229.306 179.435 229.306C178.499 229.306 178.067 229.792 177.563 230.458H177.527V229.54ZM183.556 229.54H182.116V238H183.556V233.77C183.556 232.672 183.628 230.638 185.212 230.638C185.59 230.638 185.788 230.818 186.076 231.016L186.76 229.702C186.346 229.468 185.95 229.306 185.464 229.306C184.528 229.306 184.096 229.792 183.592 230.458H183.556V229.54ZM191.728 230.638C193.51 230.638 194.572 232.006 194.572 233.698C194.572 235.408 193.6 236.902 191.746 236.902C189.946 236.902 188.974 235.336 188.974 233.68C188.974 232.096 190.054 230.638 191.728 230.638ZM195.94 229.54H194.5V230.746H194.464C193.762 229.846 192.718 229.306 191.566 229.306C189.028 229.306 187.498 231.376 187.498 233.788C187.498 236.128 189.064 238.234 191.548 238.234C192.736 238.234 193.726 237.766 194.464 236.83H194.5V238H195.94V229.54ZM200.046 229.54H198.606V238H200.046V233.626C200.046 232.348 200.226 230.638 201.918 230.638C203.304 230.638 203.43 232.15 203.43 233.194V238H204.87V233.518C204.87 232.24 205.05 230.638 206.706 230.638C208.182 230.638 208.254 231.988 208.254 233.086V238H209.694V232.852C209.694 231.07 209.154 229.306 206.994 229.306C205.968 229.306 204.96 229.774 204.456 230.71C204.006 229.828 203.106 229.306 202.116 229.306C201.252 229.306 200.532 229.756 200.082 230.458H200.046V229.54ZM214.133 229.54H212.693V238H214.133V229.54ZM213.413 225.328C212.855 225.328 212.387 225.796 212.387 226.354C212.387 226.93 212.855 227.38 213.413 227.38C213.971 227.38 214.439 226.93 214.439 226.354C214.439 225.796 213.971 225.328 213.413 225.328ZM224.496 234.076C224.64 231.556 223.2 229.306 220.482 229.306C217.836 229.306 216.378 231.376 216.378 233.878C216.378 236.308 217.998 238.234 220.518 238.234C222.246 238.234 223.614 237.37 224.424 235.858L223.2 235.156C222.642 236.164 221.85 236.902 220.626 236.902C218.988 236.902 217.872 235.642 217.854 234.076H224.496ZM217.926 232.852C218.106 231.628 219.258 230.638 220.5 230.638C221.76 230.638 222.786 231.628 222.984 232.852H217.926ZM227.908 229.54H226.468V238H227.908V233.986C227.908 232.474 228.034 230.638 230.014 230.638C231.688 230.638 231.796 231.862 231.796 233.23V238H233.236V232.978C233.236 230.998 232.696 229.306 230.356 229.306C229.312 229.306 228.538 229.756 227.944 230.566H227.908V229.54ZM237.489 230.872H239.001V229.54H237.489V226.498H236.049V229.54H235.167V230.872H236.049V238H237.489V230.872ZM243.812 230.638C245.594 230.638 246.656 232.006 246.656 233.698C246.656 235.408 245.684 236.902 243.83 236.902C242.03 236.902 241.058 235.336 241.058 233.68C241.058 232.096 242.138 230.638 243.812 230.638ZM248.024 229.54H246.584V230.746H246.548C245.846 229.846 244.802 229.306 243.65 229.306C241.112 229.306 239.582 231.376 239.582 233.788C239.582 236.128 241.148 238.234 243.632 238.234C244.82 238.234 245.81 237.766 246.548 236.83H246.584V238H248.024V229.54ZM255.316 230.872C254.938 229.99 254.038 229.306 253.066 229.306C251.698 229.306 250.546 230.278 250.546 231.7C250.546 234.364 254.362 233.716 254.362 235.606C254.362 236.38 253.768 236.902 252.994 236.902C252.04 236.902 251.626 236.344 251.266 235.552L249.988 236.092C250.438 237.424 251.554 238.234 252.976 238.234C254.542 238.234 255.838 237.082 255.838 235.48C255.838 234.058 254.866 233.464 253.876 233.05C252.886 232.636 251.914 232.348 251.914 231.574C251.914 231.034 252.454 230.638 252.958 230.638C253.48 230.638 253.912 231.052 254.11 231.502L255.316 230.872ZM53.418 250.638C55.2 250.638 56.262 252.006 56.262 253.698C56.262 255.408 55.29 256.902 53.436 256.902C51.636 256.902 50.664 255.336 50.664 253.68C50.664 252.096 51.744 250.638 53.418 250.638ZM50.736 249.54H49.296V262.752H50.736V256.812H50.772C51.456 257.73 52.518 258.234 53.67 258.234C56.208 258.234 57.738 256.2 57.738 253.788C57.738 251.448 56.172 249.306 53.688 249.306C52.518 249.306 51.474 249.81 50.772 250.746H50.736V249.54ZM63.2667 250.638C65.0487 250.638 66.1107 252.006 66.1107 253.698C66.1107 255.408 65.1387 256.902 63.2847 256.902C61.4847 256.902 60.5127 255.336 60.5127 253.68C60.5127 252.096 61.5927 250.638 63.2667 250.638ZM67.4787 249.54H66.0387V250.746H66.0027C65.3007 249.846 64.2567 249.306 63.1047 249.306C60.5667 249.306 59.0367 251.376 59.0367 253.788C59.0367 256.128 60.6027 258.234 63.0867 258.234C64.2747 258.234 65.2647 257.766 66.0027 256.83H66.0387V258H67.4787V249.54ZM71.5133 249.54H70.0733V258H71.5133V253.77C71.5133 252.672 71.5853 250.638 73.1693 250.638C73.5473 250.638 73.7453 250.818 74.0333 251.016L74.7173 249.702C74.3033 249.468 73.9073 249.306 73.4213 249.306C72.4853 249.306 72.0533 249.792 71.5493 250.458H71.5133V249.54ZM79.6846 250.638C81.4666 250.638 82.5286 252.006 82.5286 253.698C82.5286 255.408 81.5566 256.902 79.7026 256.902C77.9026 256.902 76.9306 255.336 76.9306 253.68C76.9306 252.096 78.0106 250.638 79.6846 250.638ZM83.8966 249.54H82.4566V250.746H82.4206C81.7186 249.846 80.6746 249.306 79.5226 249.306C76.9846 249.306 75.4546 251.376 75.4546 253.788C75.4546 256.128 77.0206 258.234 79.5046 258.234C80.6926 258.234 81.6826 257.766 82.4206 256.83H82.4566V258H83.8966V249.54ZM98.8144 251.754C98.2504 251.37 97.6804 251.178 97.1044 251.178C96.7924 251.178 96.4984 251.232 96.2224 251.34C95.9584 251.448 95.7244 251.604 95.5204 251.808C95.3164 252 95.1544 252.234 95.0344 252.51C94.9264 252.774 94.8724 253.074 94.8724 253.41C94.8724 253.734 94.9264 254.034 95.0344 254.31C95.1544 254.574 95.3104 254.808 95.5024 255.012C95.7064 255.204 95.9464 255.354 96.2224 255.462C96.4984 255.57 96.7924 255.624 97.1044 255.624C97.7164 255.624 98.2864 255.414 98.8144 254.994V257.766C98.0104 258.114 97.2484 258.288 96.5284 258.288C95.8564 258.288 95.2144 258.174 94.6024 257.946C94.0024 257.718 93.4684 257.394 93.0004 256.974C92.5444 256.542 92.1784 256.032 91.9024 255.444C91.6264 254.844 91.4884 254.178 91.4884 253.446C91.4884 252.714 91.6204 252.048 91.8844 251.448C92.1484 250.836 92.5084 250.314 92.9644 249.882C93.4204 249.438 93.9604 249.096 94.5844 248.856C95.2204 248.604 95.8984 248.478 96.6184 248.478C97.4104 248.478 98.1424 248.646 98.8144 248.982V251.754ZM100.673 248.766H103.931V250.278C104.279 249.726 104.705 249.306 105.209 249.018C105.713 248.718 106.301 248.568 106.973 248.568C107.057 248.568 107.147 248.568 107.243 248.568C107.351 248.568 107.471 248.58 107.603 248.604V251.718C107.171 251.502 106.703 251.394 106.199 251.394C105.443 251.394 104.873 251.622 104.489 252.078C104.117 252.522 103.931 253.176 103.931 254.04V258H100.673V248.766ZM115.913 252.042C115.805 251.586 115.583 251.22 115.247 250.944C114.911 250.668 114.503 250.53 114.023 250.53C113.519 250.53 113.105 250.662 112.781 250.926C112.469 251.19 112.271 251.562 112.187 252.042H115.913ZM112.097 253.932C112.097 255.336 112.757 256.038 114.077 256.038C114.785 256.038 115.319 255.75 115.679 255.174H118.829C118.193 257.286 116.603 258.342 114.059 258.342C113.279 258.342 112.565 258.228 111.917 258C111.269 257.76 110.711 257.424 110.243 256.992C109.787 256.56 109.433 256.044 109.181 255.444C108.929 254.844 108.803 254.172 108.803 253.428C108.803 252.66 108.923 251.97 109.163 251.358C109.403 250.734 109.745 250.206 110.189 249.774C110.633 249.342 111.167 249.012 111.791 248.784C112.427 248.544 113.141 248.424 113.933 248.424C114.713 248.424 115.415 248.544 116.039 248.784C116.663 249.012 117.191 249.348 117.623 249.792C118.055 250.236 118.385 250.782 118.613 251.43C118.841 252.066 118.955 252.786 118.955 253.59V253.932H112.097ZM127.783 251.754C127.219 251.37 126.649 251.178 126.073 251.178C125.761 251.178 125.467 251.232 125.191 251.34C124.927 251.448 124.693 251.604 124.489 251.808C124.285 252 124.123 252.234 124.003 252.51C123.895 252.774 123.841 253.074 123.841 253.41C123.841 253.734 123.895 254.034 124.003 254.31C124.123 254.574 124.279 254.808 124.471 255.012C124.675 255.204 124.915 255.354 125.191 255.462C125.467 255.57 125.761 255.624 126.073 255.624C126.685 255.624 127.255 255.414 127.783 254.994V257.766C126.979 258.114 126.217 258.288 125.497 258.288C124.825 258.288 124.183 258.174 123.571 257.946C122.971 257.718 122.437 257.394 121.969 256.974C121.513 256.542 121.147 256.032 120.871 255.444C120.595 254.844 120.457 254.178 120.457 253.446C120.457 252.714 120.589 252.048 120.853 251.448C121.117 250.836 121.477 250.314 121.933 249.882C122.389 249.438 122.929 249.096 123.553 248.856C124.189 248.604 124.867 248.478 125.587 248.478C126.379 248.478 127.111 248.646 127.783 248.982V251.754ZM136.391 252.042C136.283 251.586 136.061 251.22 135.725 250.944C135.389 250.668 134.981 250.53 134.501 250.53C133.997 250.53 133.583 250.662 133.259 250.926C132.947 251.19 132.749 251.562 132.665 252.042H136.391ZM132.575 253.932C132.575 255.336 133.235 256.038 134.555 256.038C135.263 256.038 135.797 255.75 136.157 255.174H139.307C138.671 257.286 137.081 258.342 134.537 258.342C133.757 258.342 133.043 258.228 132.395 258C131.747 257.76 131.189 257.424 130.721 256.992C130.265 256.56 129.911 256.044 129.659 255.444C129.407 254.844 129.281 254.172 129.281 253.428C129.281 252.66 129.401 251.97 129.641 251.358C129.881 250.734 130.223 250.206 130.667 249.774C131.111 249.342 131.645 249.012 132.269 248.784C132.905 248.544 133.619 248.424 134.411 248.424C135.191 248.424 135.893 248.544 136.517 248.784C137.141 249.012 137.669 249.348 138.101 249.792C138.533 250.236 138.863 250.782 139.091 251.43C139.319 252.066 139.433 252.786 139.433 253.59V253.932H132.575ZM141.296 248.766H144.554V250.278C144.902 249.726 145.328 249.306 145.832 249.018C146.336 248.718 146.924 248.568 147.596 248.568C147.68 248.568 147.77 248.568 147.866 248.568C147.974 248.568 148.094 248.58 148.226 248.604V251.718C147.794 251.502 147.326 251.394 146.822 251.394C146.066 251.394 145.496 251.622 145.112 252.078C144.74 252.522 144.554 253.176 144.554 254.04V258H141.296V248.766ZM159.416 251.484V258H156.158V251.484H155.078V248.766H156.158V245.994H159.416V248.766H161.27V251.484H159.416ZM165.753 248.766V253.968C165.753 255.108 166.305 255.678 167.409 255.678C168.513 255.678 169.065 255.108 169.065 253.968V248.766H172.323V254.598C172.323 255.846 171.909 256.782 171.081 257.406C170.265 258.03 169.041 258.342 167.409 258.342C165.777 258.342 164.547 258.03 163.719 257.406C162.903 256.782 162.495 255.846 162.495 254.598V248.766H165.753ZM180.653 248.766H183.911V249.936C184.355 249.396 184.805 249.036 185.261 248.856C185.717 248.664 186.251 248.568 186.863 248.568C187.511 248.568 188.063 248.676 188.519 248.892C188.987 249.096 189.383 249.39 189.707 249.774C189.971 250.086 190.151 250.434 190.247 250.818C190.343 251.202 190.391 251.64 190.391 252.132V258H187.133V253.338C187.133 252.882 187.097 252.516 187.025 252.24C186.965 251.952 186.851 251.724 186.683 251.556C186.539 251.412 186.377 251.31 186.197 251.25C186.017 251.19 185.825 251.16 185.621 251.16C185.069 251.16 184.643 251.328 184.343 251.664C184.055 251.988 183.911 252.456 183.911 253.068V258H180.653V248.766ZM199.356 252.042C199.248 251.586 199.026 251.22 198.69 250.944C198.354 250.668 197.946 250.53 197.466 250.53C196.962 250.53 196.548 250.662 196.224 250.926C195.912 251.19 195.714 251.562 195.63 252.042H199.356ZM195.54 253.932C195.54 255.336 196.2 256.038 197.52 256.038C198.228 256.038 198.762 255.75 199.122 255.174H202.272C201.636 257.286 200.046 258.342 197.502 258.342C196.722 258.342 196.008 258.228 195.36 258C194.712 257.76 194.154 257.424 193.686 256.992C193.23 256.56 192.876 256.044 192.624 255.444C192.372 254.844 192.246 254.172 192.246 253.428C192.246 252.66 192.366 251.97 192.606 251.358C192.846 250.734 193.188 250.206 193.632 249.774C194.076 249.342 194.61 249.012 195.234 248.784C195.87 248.544 196.584 248.424 197.376 248.424C198.156 248.424 198.858 248.544 199.482 248.784C200.106 249.012 200.634 249.348 201.066 249.792C201.498 250.236 201.828 250.782 202.056 251.43C202.284 252.066 202.398 252.786 202.398 253.59V253.932H195.54ZM207.285 253.338C207.285 253.638 207.339 253.92 207.447 254.184C207.555 254.436 207.699 254.658 207.879 254.85C208.071 255.042 208.293 255.192 208.545 255.3C208.809 255.408 209.091 255.462 209.391 255.462C209.679 255.462 209.949 255.408 210.201 255.3C210.465 255.192 210.687 255.042 210.867 254.85C211.059 254.658 211.209 254.436 211.317 254.184C211.437 253.92 211.497 253.644 211.497 253.356C211.497 253.056 211.437 252.78 211.317 252.528C211.209 252.276 211.059 252.054 210.867 251.862C210.675 251.67 210.447 251.52 210.183 251.412C209.931 251.304 209.667 251.25 209.391 251.25C209.103 251.25 208.833 251.31 208.581 251.43C208.329 251.538 208.107 251.688 207.915 251.88C207.723 252.06 207.567 252.276 207.447 252.528C207.339 252.78 207.285 253.05 207.285 253.338ZM214.593 248.766V257.37C214.593 257.886 214.563 258.348 214.503 258.756C214.443 259.164 214.359 259.524 214.251 259.836C214.107 260.232 213.879 260.598 213.567 260.934C213.267 261.282 212.901 261.582 212.469 261.834C212.037 262.086 211.545 262.284 210.993 262.428C210.453 262.572 209.865 262.644 209.229 262.644C208.509 262.644 207.849 262.554 207.249 262.374C206.649 262.194 206.121 261.942 205.665 261.618C205.221 261.306 204.855 260.934 204.567 260.502C204.279 260.082 204.087 259.62 203.991 259.116H207.663C207.891 259.728 208.407 260.034 209.211 260.034C209.895 260.034 210.417 259.842 210.777 259.458C211.149 259.074 211.335 258.54 211.335 257.856V256.974C211.095 257.202 210.861 257.394 210.633 257.55C210.417 257.694 210.195 257.814 209.967 257.91C209.739 258.006 209.499 258.072 209.247 258.108C208.995 258.156 208.719 258.18 208.419 258.18C207.759 258.18 207.153 258.066 206.601 257.838C206.049 257.61 205.569 257.292 205.161 256.884C204.765 256.476 204.453 255.99 204.225 255.426C204.009 254.85 203.901 254.214 203.901 253.518C203.901 252.81 204.021 252.156 204.261 251.556C204.501 250.944 204.825 250.416 205.233 249.972C205.653 249.516 206.145 249.162 206.709 248.91C207.285 248.646 207.909 248.514 208.581 248.514C209.673 248.514 210.591 248.922 211.335 249.738V248.766H214.593ZM219.889 253.338C219.889 253.65 219.943 253.938 220.051 254.202C220.171 254.454 220.321 254.676 220.501 254.868C220.693 255.06 220.915 255.21 221.167 255.318C221.431 255.426 221.707 255.48 221.995 255.48C222.283 255.48 222.553 255.426 222.805 255.318C223.069 255.21 223.291 255.06 223.471 254.868C223.663 254.676 223.813 254.454 223.921 254.202C224.041 253.938 224.101 253.656 224.101 253.356C224.101 253.068 224.041 252.798 223.921 252.546C223.813 252.282 223.663 252.054 223.471 251.862C223.291 251.67 223.069 251.52 222.805 251.412C222.553 251.304 222.283 251.25 221.995 251.25C221.707 251.25 221.431 251.304 221.167 251.412C220.915 251.52 220.693 251.67 220.501 251.862C220.321 252.054 220.171 252.276 220.051 252.528C219.943 252.78 219.889 253.05 219.889 253.338ZM216.451 253.302C216.451 252.618 216.589 251.982 216.865 251.394C217.141 250.794 217.525 250.278 218.017 249.846C218.509 249.402 219.091 249.054 219.763 248.802C220.447 248.55 221.191 248.424 221.995 248.424C222.787 248.424 223.519 248.55 224.191 248.802C224.875 249.042 225.463 249.384 225.955 249.828C226.459 250.26 226.849 250.782 227.125 251.394C227.401 251.994 227.539 252.66 227.539 253.392C227.539 254.124 227.395 254.796 227.107 255.408C226.831 256.008 226.447 256.53 225.955 256.974C225.463 257.406 224.869 257.742 224.173 257.982C223.489 258.222 222.745 258.342 221.941 258.342C221.149 258.342 220.417 258.222 219.745 257.982C219.073 257.742 218.491 257.4 217.999 256.956C217.519 256.512 217.141 255.984 216.865 255.372C216.589 254.748 216.451 254.058 216.451 253.302ZM236.381 251.754C235.817 251.37 235.247 251.178 234.671 251.178C234.359 251.178 234.065 251.232 233.789 251.34C233.525 251.448 233.291 251.604 233.087 251.808C232.883 252 232.721 252.234 232.601 252.51C232.493 252.774 232.439 253.074 232.439 253.41C232.439 253.734 232.493 254.034 232.601 254.31C232.721 254.574 232.877 254.808 233.069 255.012C233.273 255.204 233.513 255.354 233.789 255.462C234.065 255.57 234.359 255.624 234.671 255.624C235.283 255.624 235.853 255.414 236.381 254.994V257.766C235.577 258.114 234.815 258.288 234.095 258.288C233.423 258.288 232.781 258.174 232.169 257.946C231.569 257.718 231.035 257.394 230.567 256.974C230.111 256.542 229.745 256.032 229.469 255.444C229.193 254.844 229.055 254.178 229.055 253.446C229.055 252.714 229.187 252.048 229.451 251.448C229.715 250.836 230.075 250.314 230.531 249.882C230.987 249.438 231.527 249.096 232.151 248.856C232.787 248.604 233.465 248.478 234.185 248.478C234.977 248.478 235.709 248.646 236.381 248.982V251.754ZM241.497 248.766V258H238.239V248.766H241.497ZM238.023 245.22C238.023 244.968 238.071 244.734 238.167 244.518C238.263 244.29 238.395 244.092 238.563 243.924C238.731 243.756 238.923 243.624 239.139 243.528C239.367 243.432 239.607 243.384 239.859 243.384C240.111 243.384 240.345 243.432 240.561 243.528C240.789 243.624 240.987 243.756 241.155 243.924C241.323 244.092 241.455 244.29 241.551 244.518C241.647 244.734 241.695 244.968 241.695 245.22C241.695 245.472 241.647 245.712 241.551 245.94C241.455 246.156 241.323 246.348 241.155 246.516C240.987 246.684 240.789 246.816 240.561 246.912C240.345 247.008 240.111 247.056 239.859 247.056C239.607 247.056 239.367 247.008 239.139 246.912C238.923 246.816 238.731 246.684 238.563 246.516C238.395 246.348 238.263 246.156 238.167 245.94C238.071 245.712 238.023 245.472 238.023 245.22ZM246.801 253.338C246.801 253.65 246.855 253.938 246.963 254.202C247.083 254.454 247.233 254.676 247.413 254.868C247.605 255.06 247.827 255.21 248.079 255.318C248.343 255.426 248.619 255.48 248.907 255.48C249.195 255.48 249.465 255.426 249.717 255.318C249.981 255.21 250.203 255.06 250.383 254.868C250.575 254.676 250.725 254.454 250.833 254.202C250.953 253.938 251.013 253.656 251.013 253.356C251.013 253.068 250.953 252.798 250.833 252.546C250.725 252.282 250.575 252.054 250.383 251.862C250.203 251.67 249.981 251.52 249.717 251.412C249.465 251.304 249.195 251.25 248.907 251.25C248.619 251.25 248.343 251.304 248.079 251.412C247.827 251.52 247.605 251.67 247.413 251.862C247.233 252.054 247.083 252.276 246.963 252.528C246.855 252.78 246.801 253.05 246.801 253.338ZM243.363 253.302C243.363 252.618 243.501 251.982 243.777 251.394C244.053 250.794 244.437 250.278 244.929 249.846C245.421 249.402 246.003 249.054 246.675 248.802C247.359 248.55 248.103 248.424 248.907 248.424C249.699 248.424 250.431 248.55 251.103 248.802C251.787 249.042 252.375 249.384 252.867 249.828C253.371 250.26 253.761 250.782 254.037 251.394C254.313 251.994 254.451 252.66 254.451 253.392C254.451 254.124 254.307 254.796 254.019 255.408C253.743 256.008 253.359 256.53 252.867 256.974C252.375 257.406 251.781 257.742 251.085 257.982C250.401 258.222 249.657 258.342 248.853 258.342C248.061 258.342 247.329 258.222 246.657 257.982C245.985 257.742 245.403 257.4 244.911 256.956C244.431 256.512 244.053 255.984 243.777 255.372C243.501 254.748 243.363 254.058 243.363 253.302Z" fill="white"/>
<path d="M31.8438 41V6.6875H52.0469V12.875H39.1797V19.9297H52.0469V26.1641H39.1797V41H31.8438ZM57.8594 41V6.6875H65.1953V41H57.8594ZM73.0469 41V6.6875H80.6641L95.8516 26.6562C96.2891 27.2188 96.7656 28.0156 97.2812 29.0469C97.8125 30.0625 98.3594 31.2656 98.9219 32.6562C98.75 31.6406 98.625 30.6328 98.5469 29.6328C98.4688 28.6328 98.4297 27.3828 98.4297 25.8828V6.6875H105.438V41H98.2422L82.6328 20.6562C82.1953 20.0938 81.7188 19.3047 81.2031 18.2891C80.6875 17.2578 80.1406 16.0312 79.5625 14.6094C79.7344 15.5938 79.8594 16.5938 79.9375 17.6094C80.0156 18.6094 80.0547 19.875 80.0547 21.4062V41H73.0469ZM130.844 27.9453L127 16.8594C126.891 16.5312 126.75 15.9688 126.578 15.1719C126.406 14.375 126.227 13.3984 126.039 12.2422C125.836 13.3516 125.641 14.3516 125.453 15.2422C125.266 16.1172 125.125 16.7031 125.031 17L121.328 27.9453H130.844ZM109 41L122.055 6.6875H130.445L143.688 41H135.344L132.555 33.7109H119.266L116.875 41H109ZM147.297 41V6.6875H154.914L170.102 26.6562C170.539 27.2188 171.016 28.0156 171.531 29.0469C172.062 30.0625 172.609 31.2656 173.172 32.6562C173 31.6406 172.875 30.6328 172.797 29.6328C172.719 28.6328 172.68 27.3828 172.68 25.8828V6.6875H179.688V41H172.492L156.883 20.6562C156.445 20.0938 155.969 19.3047 155.453 18.2891C154.938 17.2578 154.391 16.0312 153.812 14.6094C153.984 15.5938 154.109 16.5938 154.188 17.6094C154.266 18.6094 154.305 19.875 154.305 21.4062V41H147.297ZM214.961 15.6172C213.477 14.2891 211.953 13.3203 210.391 12.7109C208.828 12.0859 207.156 11.7734 205.375 11.7734C201.719 11.7734 198.805 12.8672 196.633 15.0547C194.461 17.2422 193.375 20.1797 193.375 23.8672C193.375 27.4766 194.383 30.3438 196.398 32.4688C198.414 34.5781 201.164 35.6328 204.648 35.6328C206.633 35.6328 208.477 35.3047 210.18 34.6484C211.883 33.9766 213.461 32.9766 214.914 31.6484L214.867 39.1719C213.305 40.0938 211.664 40.7812 209.945 41.2344C208.242 41.6875 206.445 41.9141 204.555 41.9141C199.086 41.9141 194.594 40.2188 191.078 36.8281C187.578 33.4219 185.828 29.1016 185.828 23.8672C185.828 18.6484 187.586 14.3438 191.102 10.9531C194.617 7.5625 199.148 5.86719 204.695 5.86719C206.555 5.86719 208.352 6.0625 210.086 6.45312C211.82 6.84375 213.531 7.44531 215.219 8.25781L214.961 15.6172ZM221.922 41V6.6875H229.258V41H221.922ZM254.875 27.9453L251.031 16.8594C250.922 16.5312 250.781 15.9688 250.609 15.1719C250.438 14.375 250.258 13.3984 250.07 12.2422C249.867 13.3516 249.672 14.3516 249.484 15.2422C249.297 16.1172 249.156 16.7031 249.062 17L245.359 27.9453H254.875ZM233.031 41L246.086 6.6875H254.477L267.719 41H259.375L256.586 33.7109H243.297L240.906 41H233.031ZM268.352 41L273.578 6.6875H281.266L287.875 26.8906C288.016 27.3125 288.164 27.9297 288.32 28.7422C288.492 29.5547 288.648 30.4844 288.789 31.5312C288.914 30.4688 289.055 29.5234 289.211 28.6953C289.367 27.8516 289.516 27.2344 289.656 26.8438L296.383 6.6875H303.953L309.203 41H302.242L299.734 20.3047C299.547 18.7734 299.422 17.6172 299.359 16.8359C299.297 16.0547 299.266 15.3281 299.266 14.6562C299.266 14.2969 299.266 14.0312 299.266 13.8594C299.281 13.6719 299.297 13.5078 299.312 13.3672C299.078 14.7109 298.852 15.875 298.633 16.8594C298.43 17.8281 298.242 18.5625 298.07 19.0625L290.805 41H286.68L279.531 19.0625C279.469 18.8594 279.328 18.2969 279.109 17.375C278.906 16.4531 278.617 15.1094 278.242 13.3438V14.3516C278.242 15.9453 278.102 17.8984 277.82 20.2109L277.797 20.3047L275.312 41H268.352ZM314.125 41V6.6875H321.461V41H314.125ZM329.312 41V6.6875H349.516V12.875H336.648V19.9297H349.516V26.1641H336.648V34.7656H349.516V41H329.312ZM356.734 41V6.6875H364.352L379.539 26.6562C379.977 27.2188 380.453 28.0156 380.969 29.0469C381.5 30.0625 382.047 31.2656 382.609 32.6562C382.438 31.6406 382.312 30.6328 382.234 29.6328C382.156 28.6328 382.117 27.3828 382.117 25.8828V6.6875H389.125V41H381.93L366.32 20.6562C365.883 20.0938 365.406 19.3047 364.891 18.2891C364.375 17.2578 363.828 16.0312 363.25 14.6094C363.422 15.5938 363.547 16.5938 363.625 17.6094C363.703 18.6094 363.742 19.875 363.742 21.4062V41H356.734ZM409.586 12.9219V41H402.227V12.9219H393.836V6.6875H418.023V12.9219H409.586ZM457.07 23.9141C457.07 26.3672 456.609 28.6875 455.688 30.875C454.781 33.0625 453.469 34.9844 451.75 36.6406C449.969 38.3438 447.961 39.6484 445.727 40.5547C443.492 41.4609 441.18 41.9141 438.789 41.9141C436.695 41.9141 434.641 41.5625 432.625 40.8594C430.625 40.1406 428.789 39.1172 427.117 37.7891C424.961 36.0703 423.305 34.0156 422.148 31.625C421.008 29.2344 420.438 26.6641 420.438 23.9141C420.438 21.4453 420.891 19.1328 421.797 16.9766C422.703 14.8047 424.031 12.875 425.781 11.1875C427.5 9.51563 429.492 8.21875 431.758 7.29688C434.039 6.375 436.383 5.91406 438.789 5.91406C441.18 5.91406 443.5 6.375 445.75 7.29688C448.016 8.21875 450.016 9.51563 451.75 11.1875C453.484 12.875 454.805 14.8047 455.711 16.9766C456.617 19.1484 457.07 21.4609 457.07 23.9141ZM438.789 35.375C441.898 35.375 444.461 34.2891 446.477 32.1172C448.508 29.9297 449.523 27.1953 449.523 23.9141C449.523 20.6641 448.5 17.9297 446.453 15.7109C444.406 13.4922 441.852 12.3828 438.789 12.3828C435.68 12.3828 433.102 13.4922 431.055 15.7109C429.008 17.9141 427.984 20.6484 427.984 23.9141C427.984 27.2266 428.992 29.9688 431.008 32.1406C433.023 34.2969 435.617 35.375 438.789 35.375ZM39.1797 82.8125H43.2578C47.1016 82.8125 49.8984 81.9375 51.6484 80.1875C53.4141 78.4375 54.2969 75.6641 54.2969 71.8672C54.2969 68.0859 53.4141 65.3203 51.6484 63.5703C49.8984 61.8047 47.1016 60.9219 43.2578 60.9219H39.1797V82.8125ZM31.8438 89V54.6875H41.1953C44.8828 54.6875 47.7891 54.9453 49.9141 55.4609C52.0391 55.9766 53.9062 56.8359 55.5156 58.0391C57.5938 59.5859 59.1641 61.5391 60.2266 63.8984C61.3047 66.2422 61.8438 68.9141 61.8438 71.9141C61.8438 74.9609 61.2969 77.6641 60.2031 80.0234C59.1094 82.3672 57.5078 84.3047 55.3984 85.8359C53.8359 86.9609 52.0938 87.7734 50.1719 88.2734C48.2656 88.7578 45.4688 89 41.7812 89H39.1797H31.8438ZM67.9844 89V54.6875H88.1875V60.875H75.3203V67.9297H88.1875V74.1641H75.3203V82.7656H88.1875V89H67.9844ZM127.938 75.9453L124.094 64.8594C123.984 64.5312 123.844 63.9688 123.672 63.1719C123.5 62.375 123.32 61.3984 123.133 60.2422C122.93 61.3516 122.734 62.3516 122.547 63.2422C122.359 64.1172 122.219 64.7031 122.125 65L118.422 75.9453H127.938ZM106.094 89L119.148 54.6875H127.539L140.781 89H132.438L129.648 81.7109H116.359L113.969 89H106.094ZM171.18 63.6172C169.695 62.2891 168.172 61.3203 166.609 60.7109C165.047 60.0859 163.375 59.7734 161.594 59.7734C157.938 59.7734 155.023 60.8672 152.852 63.0547C150.68 65.2422 149.594 68.1797 149.594 71.8672C149.594 75.4766 150.602 78.3438 152.617 80.4688C154.633 82.5781 157.383 83.6328 160.867 83.6328C162.852 83.6328 164.695 83.3047 166.398 82.6484C168.102 81.9766 169.68 80.9766 171.133 79.6484L171.086 87.1719C169.523 88.0938 167.883 88.7812 166.164 89.2344C164.461 89.6875 162.664 89.9141 160.773 89.9141C155.305 89.9141 150.812 88.2188 147.297 84.8281C143.797 81.4219 142.047 77.1016 142.047 71.8672C142.047 66.6484 143.805 62.3438 147.32 58.9531C150.836 55.5625 155.367 53.8672 160.914 53.8672C162.773 53.8672 164.57 54.0625 166.305 54.4531C168.039 54.8438 169.75 55.4453 171.438 56.2578L171.18 63.6172ZM190.82 60.9219V89H183.461V60.9219H175.07V54.6875H199.258V60.9219H190.82ZM204.156 89V54.6875H211.492V89H204.156ZM228.039 89L215.359 54.6875H223.469L230.148 76.0859C230.273 76.5234 230.469 77.3359 230.734 78.5234C231 79.7109 231.281 81.0625 231.578 82.5781C231.781 81.1094 232 79.8047 232.234 78.6641C232.484 77.5234 232.727 76.5859 232.961 75.8516L239.734 54.6875H247.75L234.977 89H228.039ZM285.742 71.9141C285.742 74.3672 285.281 76.6875 284.359 78.875C283.453 81.0625 282.141 82.9844 280.422 84.6406C278.641 86.3438 276.633 87.6484 274.398 88.5547C272.164 89.4609 269.852 89.9141 267.461 89.9141C265.367 89.9141 263.312 89.5625 261.297 88.8594C259.297 88.1406 257.461 87.1172 255.789 85.7891C253.633 84.0703 251.977 82.0156 250.82 79.625C249.68 77.2344 249.109 74.6641 249.109 71.9141C249.109 69.4453 249.562 67.1328 250.469 64.9766C251.375 62.8047 252.703 60.875 254.453 59.1875C256.172 57.5156 258.164 56.2188 260.43 55.2969C262.711 54.375 265.055 53.9141 267.461 53.9141C269.852 53.9141 272.172 54.375 274.422 55.2969C276.688 56.2188 278.688 57.5156 280.422 59.1875C282.156 60.875 283.477 62.8047 284.383 64.9766C285.289 67.1484 285.742 69.4609 285.742 71.9141ZM267.461 83.375C270.57 83.375 273.133 82.2891 275.148 80.1172C277.18 77.9297 278.195 75.1953 278.195 71.9141C278.195 68.6641 277.172 65.9297 275.125 63.7109C273.078 61.4922 270.523 60.3828 267.461 60.3828C264.352 60.3828 261.773 61.4922 259.727 63.7109C257.68 65.9141 256.656 68.6484 256.656 71.9141C256.656 75.2266 257.664 77.9688 259.68 80.1406C261.695 82.2969 264.289 83.375 267.461 83.375ZM289.75 84.6406L293.828 80.0234C294.344 81.2891 295.172 82.2891 296.312 83.0234C297.453 83.7422 298.734 84.1016 300.156 84.1016C301.875 84.1016 303.234 83.6953 304.234 82.8828C305.234 82.0703 305.734 80.9766 305.734 79.6016C305.734 77.9766 304.07 76.3594 300.742 74.75C299.664 74.2344 298.812 73.8125 298.188 73.4844C295.188 71.9219 293.109 70.3984 291.953 68.9141C290.797 67.4141 290.219 65.6328 290.219 63.5703C290.219 60.7422 291.336 58.4219 293.57 56.6094C295.82 54.7812 298.734 53.8672 302.312 53.8672C304.391 53.8672 306.18 54.2344 307.68 54.9688C309.195 55.6875 310.531 56.8203 311.688 58.3672L307.352 62.5156C306.836 61.5156 306.148 60.7734 305.289 60.2891C304.445 59.7891 303.422 59.5391 302.219 59.5391C300.766 59.5391 299.594 59.9062 298.703 60.6406C297.812 61.3594 297.367 62.2969 297.367 63.4531C297.367 65.2656 299.133 66.9219 302.664 68.4219C303.367 68.7188 303.906 68.9531 304.281 69.125C307.188 70.4531 309.336 71.9531 310.727 73.625C312.133 75.2969 312.836 77.2031 312.836 79.3438C312.836 82.5625 311.734 85.1328 309.531 87.0547C307.344 88.9609 304.398 89.9141 300.695 89.9141C298.07 89.9141 295.82 89.4609 293.945 88.5547C292.07 87.6484 290.672 86.3438 289.75 84.6406ZM333.625 89V54.6875H353.828V60.875H340.961V67.9297H353.828V74.1641H340.961V89H333.625ZM359.641 89V54.6875H366.977V89H359.641ZM388.75 54.6875V77.2812C388.75 79.8594 388.648 81.75 388.445 82.9531C388.242 84.1562 387.906 85.1797 387.438 86.0234C386.75 87.3047 385.734 88.2734 384.391 88.9297C383.062 89.5859 381.445 89.9141 379.539 89.9141C377.133 89.9141 375.203 89.3125 373.75 88.1094C372.312 86.9062 371.391 85.1406 370.984 82.8125L376.305 80.2812C376.43 81.3594 376.703 82.1719 377.125 82.7188C377.562 83.2656 378.156 83.5391 378.906 83.5391C379.844 83.5391 380.492 83.2031 380.852 82.5312C381.211 81.8438 381.391 80.3203 381.391 77.9609V74.8906V54.6875H388.75ZM431.289 71.9141C431.289 74.3672 430.828 76.6875 429.906 78.875C429 81.0625 427.688 82.9844 425.969 84.6406C424.188 86.3438 422.18 87.6484 419.945 88.5547C417.711 89.4609 415.398 89.9141 413.008 89.9141C410.914 89.9141 408.859 89.5625 406.844 88.8594C404.844 88.1406 403.008 87.1172 401.336 85.7891C399.18 84.0703 397.523 82.0156 396.367 79.625C395.227 77.2344 394.656 74.6641 394.656 71.9141C394.656 69.4453 395.109 67.1328 396.016 64.9766C396.922 62.8047 398.25 60.875 400 59.1875C401.719 57.5156 403.711 56.2188 405.977 55.2969C408.258 54.375 410.602 53.9141 413.008 53.9141C415.398 53.9141 417.719 54.375 419.969 55.2969C422.234 56.2188 424.234 57.5156 425.969 59.1875C427.703 60.875 429.023 62.8047 429.93 64.9766C430.836 67.1484 431.289 69.4609 431.289 71.9141ZM413.008 83.375C416.117 83.375 418.68 82.2891 420.695 80.1172C422.727 77.9297 423.742 75.1953 423.742 71.9141C423.742 68.6641 422.719 65.9297 420.672 63.7109C418.625 61.4922 416.07 60.3828 413.008 60.3828C409.898 60.3828 407.32 61.4922 405.273 63.7109C403.227 65.9141 402.203 68.6484 402.203 71.9141C402.203 75.2266 403.211 77.9688 405.227 80.1406C407.242 82.2969 409.836 83.375 413.008 83.375ZM435.297 84.6406L439.375 80.0234C439.891 81.2891 440.719 82.2891 441.859 83.0234C443 83.7422 444.281 84.1016 445.703 84.1016C447.422 84.1016 448.781 83.6953 449.781 82.8828C450.781 82.0703 451.281 80.9766 451.281 79.6016C451.281 77.9766 449.617 76.3594 446.289 74.75C445.211 74.2344 444.359 73.8125 443.734 73.4844C440.734 71.9219 438.656 70.3984 437.5 68.9141C436.344 67.4141 435.766 65.6328 435.766 63.5703C435.766 60.7422 436.883 58.4219 439.117 56.6094C441.367 54.7812 444.281 53.8672 447.859 53.8672C449.938 53.8672 451.727 54.2344 453.227 54.9688C454.742 55.6875 456.078 56.8203 457.234 58.3672L452.898 62.5156C452.383 61.5156 451.695 60.7734 450.836 60.2891C449.992 59.7891 448.969 59.5391 447.766 59.5391C446.312 59.5391 445.141 59.9062 444.25 60.6406C443.359 61.3594 442.914 62.2969 442.914 63.4531C442.914 65.2656 444.68 66.9219 448.211 68.4219C448.914 68.7188 449.453 68.9531 449.828 69.125C452.734 70.4531 454.883 71.9531 456.273 73.625C457.68 75.2969 458.383 77.2031 458.383 79.3438C458.383 82.5625 457.281 85.1328 455.078 87.0547C452.891 88.9609 449.945 89.9141 446.242 89.9141C443.617 89.9141 441.367 89.4609 439.492 88.5547C437.617 87.6484 436.219 86.3438 435.297 84.6406ZM39.2266 118.18H40.2812C42.2812 118.18 43.7344 117.766 44.6406 116.938C45.5469 116.109 46 114.781 46 112.953C46 111.266 45.5469 110.039 44.6406 109.273C43.7344 108.492 42.2812 108.102 40.2812 108.102H39.2266V118.18ZM31.8438 137V102.688H40.2812C44.7812 102.688 48.1016 103.547 50.2422 105.266C52.3984 106.984 53.4766 109.641 53.4766 113.234C53.4766 116.562 52.3906 119.172 50.2188 121.062C48.0625 122.953 45.0703 123.898 41.2422 123.898H39.2266V137H31.8438ZM58.5625 137V102.688H78.7656V108.875H65.8984V115.93H78.7656V122.164H65.8984V130.766H78.7656V137H58.5625ZM85.9844 137V102.688H93.6016L108.789 122.656C109.227 123.219 109.703 124.016 110.219 125.047C110.75 126.062 111.297 127.266 111.859 128.656C111.688 127.641 111.562 126.633 111.484 125.633C111.406 124.633 111.367 123.383 111.367 121.883V102.688H118.375V137H111.18L95.5703 116.656C95.1328 116.094 94.6562 115.305 94.1406 114.289C93.625 113.258 93.0781 112.031 92.5 110.609C92.6719 111.594 92.7969 112.594 92.875 113.609C92.9531 114.609 92.9922 115.875 92.9922 117.406V137H85.9844ZM123.812 132.641L127.891 128.023C128.406 129.289 129.234 130.289 130.375 131.023C131.516 131.742 132.797 132.102 134.219 132.102C135.938 132.102 137.297 131.695 138.297 130.883C139.297 130.07 139.797 128.977 139.797 127.602C139.797 125.977 138.133 124.359 134.805 122.75C133.727 122.234 132.875 121.812 132.25 121.484C129.25 119.922 127.172 118.398 126.016 116.914C124.859 115.414 124.281 113.633 124.281 111.57C124.281 108.742 125.398 106.422 127.633 104.609C129.883 102.781 132.797 101.867 136.375 101.867C138.453 101.867 140.242 102.234 141.742 102.969C143.258 103.688 144.594 104.82 145.75 106.367L141.414 110.516C140.898 109.516 140.211 108.773 139.352 108.289C138.508 107.789 137.484 107.539 136.281 107.539C134.828 107.539 133.656 107.906 132.766 108.641C131.875 109.359 131.43 110.297 131.43 111.453C131.43 113.266 133.195 114.922 136.727 116.422C137.43 116.719 137.969 116.953 138.344 117.125C141.25 118.453 143.398 119.953 144.789 121.625C146.195 123.297 146.898 125.203 146.898 127.344C146.898 130.562 145.797 133.133 143.594 135.055C141.406 136.961 138.461 137.914 134.758 137.914C132.133 137.914 129.883 137.461 128.008 136.555C126.133 135.648 124.734 134.344 123.812 132.641ZM170.688 123.945L166.844 112.859C166.734 112.531 166.594 111.969 166.422 111.172C166.25 110.375 166.07 109.398 165.883 108.242C165.68 109.352 165.484 110.352 165.297 111.242C165.109 112.117 164.969 112.703 164.875 113L161.172 123.945H170.688ZM148.844 137L161.898 102.688H170.289L183.531 137H175.188L172.398 129.711H159.109L156.719 137H148.844ZM194.477 130.812H198.555C202.398 130.812 205.195 129.938 206.945 128.188C208.711 126.438 209.594 123.664 209.594 119.867C209.594 116.086 208.711 113.32 206.945 111.57C205.195 109.805 202.398 108.922 198.555 108.922H194.477V130.812ZM187.141 137V102.688H196.492C200.18 102.688 203.086 102.945 205.211 103.461C207.336 103.977 209.203 104.836 210.812 106.039C212.891 107.586 214.461 109.539 215.523 111.898C216.602 114.242 217.141 116.914 217.141 119.914C217.141 122.961 216.594 125.664 215.5 128.023C214.406 130.367 212.805 132.305 210.695 133.836C209.133 134.961 207.391 135.773 205.469 136.273C203.562 136.758 200.766 137 197.078 137H194.477H187.141ZM258.414 119.914C258.414 122.367 257.953 124.688 257.031 126.875C256.125 129.062 254.812 130.984 253.094 132.641C251.312 134.344 249.305 135.648 247.07 136.555C244.836 137.461 242.523 137.914 240.133 137.914C238.039 137.914 235.984 137.562 233.969 136.859C231.969 136.141 230.133 135.117 228.461 133.789C226.305 132.07 224.648 130.016 223.492 127.625C222.352 125.234 221.781 122.664 221.781 119.914C221.781 117.445 222.234 115.133 223.141 112.977C224.047 110.805 225.375 108.875 227.125 107.188C228.844 105.516 230.836 104.219 233.102 103.297C235.383 102.375 237.727 101.914 240.133 101.914C242.523 101.914 244.844 102.375 247.094 103.297C249.359 104.219 251.359 105.516 253.094 107.188C254.828 108.875 256.148 110.805 257.055 112.977C257.961 115.148 258.414 117.461 258.414 119.914ZM240.133 131.375C243.242 131.375 245.805 130.289 247.82 128.117C249.852 125.93 250.867 123.195 250.867 119.914C250.867 116.664 249.844 113.93 247.797 111.711C245.75 109.492 243.195 108.383 240.133 108.383C237.023 108.383 234.445 109.492 232.398 111.711C230.352 113.914 229.328 116.648 229.328 119.914C229.328 123.227 230.336 125.969 232.352 128.141C234.367 130.297 236.961 131.375 240.133 131.375ZM262.422 132.641L266.5 128.023C267.016 129.289 267.844 130.289 268.984 131.023C270.125 131.742 271.406 132.102 272.828 132.102C274.547 132.102 275.906 131.695 276.906 130.883C277.906 130.07 278.406 128.977 278.406 127.602C278.406 125.977 276.742 124.359 273.414 122.75C272.336 122.234 271.484 121.812 270.859 121.484C267.859 119.922 265.781 118.398 264.625 116.914C263.469 115.414 262.891 113.633 262.891 111.57C262.891 108.742 264.008 106.422 266.242 104.609C268.492 102.781 271.406 101.867 274.984 101.867C277.062 101.867 278.852 102.234 280.352 102.969C281.867 103.688 283.203 104.82 284.359 106.367L280.023 110.516C279.508 109.516 278.82 108.773 277.961 108.289C277.117 107.789 276.094 107.539 274.891 107.539C273.438 107.539 272.266 107.906 271.375 108.641C270.484 109.359 270.039 110.297 270.039 111.453C270.039 113.266 271.805 114.922 275.336 116.422C276.039 116.719 276.578 116.953 276.953 117.125C279.859 118.453 282.008 119.953 283.398 121.625C284.805 123.297 285.508 125.203 285.508 127.344C285.508 130.562 284.406 133.133 282.203 135.055C280.016 136.961 277.07 137.914 273.367 137.914C270.742 137.914 268.492 137.461 266.617 136.555C264.742 135.648 263.344 134.344 262.422 132.641ZM313.68 118.18H314.734C316.734 118.18 318.188 117.766 319.094 116.938C320 116.109 320.453 114.781 320.453 112.953C320.453 111.266 320 110.039 319.094 109.273C318.188 108.492 316.734 108.102 314.734 108.102H313.68V118.18ZM306.297 137V102.688H314.734C319.234 102.688 322.555 103.547 324.695 105.266C326.852 106.984 327.93 109.641 327.93 113.234C327.93 116.562 326.844 119.172 324.672 121.062C322.516 122.953 319.523 123.898 315.695 123.898H313.68V137H306.297ZM348.391 123.945L344.547 112.859C344.438 112.531 344.297 111.969 344.125 111.172C343.953 110.375 343.773 109.398 343.586 108.242C343.383 109.352 343.188 110.352 343 111.242C342.812 112.117 342.672 112.703 342.578 113L338.875 123.945H348.391ZM326.547 137L339.602 102.688H347.992L361.234 137H352.891L350.102 129.711H336.812L334.422 137H326.547ZM389.664 137H381.203L372.18 120.969V137H364.844V102.688H375.344C379.516 102.688 382.641 103.5 384.719 105.125C386.797 106.734 387.836 109.164 387.836 112.414C387.836 114.773 387.125 116.789 385.703 118.461C384.281 120.133 382.445 121.109 380.195 121.391L389.664 137ZM372.18 117.312H373.281C376.25 117.312 378.211 116.992 379.164 116.352C380.117 115.695 380.594 114.562 380.594 112.953C380.594 111.266 380.078 110.07 379.047 109.367C378.031 108.648 376.109 108.289 373.281 108.289H372.18V117.312ZM411.719 123.945L407.875 112.859C407.766 112.531 407.625 111.969 407.453 111.172C407.281 110.375 407.102 109.398 406.914 108.242C406.711 109.352 406.516 110.352 406.328 111.242C406.141 112.117 406 112.703 405.906 113L402.203 123.945H411.719ZM389.875 137L402.93 102.688H411.32L424.562 137H416.219L413.43 129.711H400.141L397.75 137H389.875ZM44.6641 156.922V185H37.3047V156.922H28.9141V150.688H53.1016V156.922H44.6641ZM87.3672 150.688V172.039C87.3672 176.695 86.1406 180.172 83.6875 182.469C81.2344 184.766 77.5391 185.914 72.6016 185.914C67.5859 185.914 63.8516 184.766 61.3984 182.469C58.9453 180.172 57.7188 176.695 57.7188 172.039V150.688H65.0078V170.891C65.0078 173.719 65.6328 175.852 66.8828 177.289C68.1328 178.711 70 179.422 72.4844 179.422C74.9844 179.422 76.875 178.703 78.1562 177.266C79.4375 175.828 80.0781 173.703 80.0781 170.891V150.688H87.3672ZM109.75 185V150.688H129.953V156.875H117.086V163.93H129.953V170.164H117.086V178.766H129.953V185H109.75ZM134.195 185L139.422 150.688H147.109L153.719 170.891C153.859 171.312 154.008 171.93 154.164 172.742C154.336 173.555 154.492 174.484 154.633 175.531C154.758 174.469 154.898 173.523 155.055 172.695C155.211 171.852 155.359 171.234 155.5 170.844L162.227 150.688H169.797L175.047 185H168.086L165.578 164.305C165.391 162.773 165.266 161.617 165.203 160.836C165.141 160.055 165.109 159.328 165.109 158.656C165.109 158.297 165.109 158.031 165.109 157.859C165.125 157.672 165.141 157.508 165.156 157.367C164.922 158.711 164.695 159.875 164.477 160.859C164.273 161.828 164.086 162.562 163.914 163.062L156.648 185H152.523L145.375 163.062C145.312 162.859 145.172 162.297 144.953 161.375C144.75 160.453 144.461 159.109 144.086 157.344V158.352C144.086 159.945 143.945 161.898 143.664 164.211L143.641 164.305L141.156 185H134.195ZM187.211 166.18H188.266C190.266 166.18 191.719 165.766 192.625 164.938C193.531 164.109 193.984 162.781 193.984 160.953C193.984 159.266 193.531 158.039 192.625 157.273C191.719 156.492 190.266 156.102 188.266 156.102H187.211V166.18ZM179.828 185V150.688H188.266C192.766 150.688 196.086 151.547 198.227 153.266C200.383 154.984 201.461 157.641 201.461 161.234C201.461 164.562 200.375 167.172 198.203 169.062C196.047 170.953 193.055 171.898 189.227 171.898H187.211V185H179.828ZM231.367 185H222.906L213.883 168.969V185H206.547V150.688H217.047C221.219 150.688 224.344 151.5 226.422 153.125C228.5 154.734 229.539 157.164 229.539 160.414C229.539 162.773 228.828 164.789 227.406 166.461C225.984 168.133 224.148 169.109 221.898 169.391L231.367 185ZM213.883 165.312H214.984C217.953 165.312 219.914 164.992 220.867 164.352C221.82 163.695 222.297 162.562 222.297 160.953C222.297 159.266 221.781 158.07 220.75 157.367C219.734 156.648 217.812 156.289 214.984 156.289H213.883V165.312ZM235.656 185V150.688H255.859V156.875H242.992V163.93H255.859V170.164H242.992V178.766H255.859V185H235.656ZM260.875 180.641L264.953 176.023C265.469 177.289 266.297 178.289 267.438 179.023C268.578 179.742 269.859 180.102 271.281 180.102C273 180.102 274.359 179.695 275.359 178.883C276.359 178.07 276.859 176.977 276.859 175.602C276.859 173.977 275.195 172.359 271.867 170.75C270.789 170.234 269.938 169.812 269.312 169.484C266.312 167.922 264.234 166.398 263.078 164.914C261.922 163.414 261.344 161.633 261.344 159.57C261.344 156.742 262.461 154.422 264.695 152.609C266.945 150.781 269.859 149.867 273.438 149.867C275.516 149.867 277.305 150.234 278.805 150.969C280.32 151.688 281.656 152.82 282.812 154.367L278.477 158.516C277.961 157.516 277.273 156.773 276.414 156.289C275.57 155.789 274.547 155.539 273.344 155.539C271.891 155.539 270.719 155.906 269.828 156.641C268.938 157.359 268.492 158.297 268.492 159.453C268.492 161.266 270.258 162.922 273.789 164.422C274.492 164.719 275.031 164.953 275.406 165.125C278.312 166.453 280.461 167.953 281.852 169.625C283.258 171.297 283.961 173.203 283.961 175.344C283.961 178.562 282.859 181.133 280.656 183.055C278.469 184.961 275.523 185.914 271.82 185.914C269.195 185.914 266.945 185.461 265.07 184.555C263.195 183.648 261.797 182.344 260.875 180.641ZM307.75 171.945L303.906 160.859C303.797 160.531 303.656 159.969 303.484 159.172C303.312 158.375 303.133 157.398 302.945 156.242C302.742 157.352 302.547 158.352 302.359 159.242C302.172 160.117 302.031 160.703 301.938 161L298.234 171.945H307.75ZM285.906 185L298.961 150.688H307.352L320.594 185H312.25L309.461 177.711H296.172L293.781 185H285.906Z" fill="white"/>
</svg>
