<svg width="466" height="124" viewBox="0 0 466 124" fill="none" xmlns="http://www.w3.org/2000/svg">
<path d="M60.9844 14.0781C59.9948 13.1927 58.9792 12.5469 57.9375 12.1406C56.8958 11.724 55.7812 11.5156 54.5938 11.5156C52.1562 11.5156 50.2135 12.2448 48.7656 13.7031C47.3177 15.1615 46.5938 17.1198 46.5938 19.5781C46.5938 21.9844 47.2656 23.8958 48.6094 25.3125C49.9531 26.7188 51.7865 27.4219 54.1094 27.4219C55.4323 27.4219 56.6615 27.2031 57.7969 26.7656C58.9323 26.3177 59.9844 25.651 60.9531 24.7656L60.9219 29.7812C59.8802 30.3958 58.7865 30.8542 57.6406 31.1562C56.5052 31.4583 55.3073 31.6094 54.0469 31.6094C50.401 31.6094 47.4062 30.4792 45.0625 28.2188C42.7292 25.9479 41.5625 23.0677 41.5625 19.5781C41.5625 16.099 42.7344 13.2292 45.0781 10.9688C47.4219 8.70833 50.4427 7.57812 54.1406 7.57812C55.3802 7.57812 56.5781 7.70833 57.7344 7.96875C58.8906 8.22917 60.0312 8.63021 61.1562 9.17188L60.9844 14.0781ZM77.375 22.2969L74.8125 14.9062C74.7396 14.6875 74.6458 14.3125 74.5312 13.7812C74.4167 13.25 74.2969 12.599 74.1719 11.8281C74.0365 12.5677 73.9062 13.2344 73.7812 13.8281C73.6562 14.4115 73.5625 14.8021 73.5 15L71.0312 22.2969H77.375ZM62.8125 31L71.5156 8.125H77.1094L85.9375 31H80.375L78.5156 26.1406H69.6562L68.0625 31H62.8125ZM93.2656 18.4531H93.9688C95.3021 18.4531 96.2708 18.1771 96.875 17.625C97.4792 17.0729 97.7812 16.1875 97.7812 14.9688C97.7812 13.8438 97.4792 13.026 96.875 12.5156C96.2708 11.9948 95.3021 11.7344 93.9688 11.7344H93.2656V18.4531ZM88.3438 31V8.125H93.9688C96.9688 8.125 99.1823 8.69792 100.609 9.84375C102.047 10.9896 102.766 12.7604 102.766 15.1562C102.766 17.375 102.042 19.1146 100.594 20.375C99.1562 21.6354 97.1615 22.2656 94.6094 22.2656H93.2656V31H88.3438ZM106.25 31V8.125H111.141V31H106.25ZM124.922 12.2812V31H120.016V12.2812H114.422V8.125H130.547V12.2812H124.922ZM143.812 22.2969L141.25 14.9062C141.177 14.6875 141.083 14.3125 140.969 13.7812C140.854 13.25 140.734 12.599 140.609 11.8281C140.474 12.5677 140.344 13.2344 140.219 13.8281C140.094 14.4115 140 14.8021 139.938 15L137.469 22.2969H143.812ZM129.25 31L137.953 8.125H143.547L152.375 31H146.812L144.953 26.1406H136.094L134.5 31H129.25ZM154.781 31V8.125H159.672V26.8438H167.484V31H154.781ZM180.406 31V8.125H185.297V26.8438H193.109V31H180.406ZM196.281 31V8.125H201.172V31H196.281ZM211.297 27.1875H213.219C214.448 27.1875 215.38 26.9219 216.016 26.3906C216.651 25.849 216.969 25.0625 216.969 24.0312C216.969 23.0625 216.651 22.3229 216.016 21.8125C215.391 21.3021 214.479 21.0469 213.281 21.0469H211.297V27.1875ZM211.297 17.2656H212.391C213.87 17.2656 214.917 17.0573 215.531 16.6406C216.146 16.224 216.453 15.526 216.453 14.5469C216.453 13.5885 216.156 12.9062 215.562 12.5C214.979 12.0938 213.953 11.8906 212.484 11.8906H211.297V17.2656ZM206.406 31V8.125H210.688C212.906 8.125 214.526 8.21354 215.547 8.39062C216.578 8.55729 217.469 8.83854 218.219 9.23438C219.104 9.74479 219.786 10.4167 220.266 11.25C220.755 12.0833 221 13.026 221 14.0781C221 15.4323 220.599 16.5208 219.797 17.3438C218.995 18.1562 217.797 18.6979 216.203 18.9688C218.047 19.2396 219.438 19.8385 220.375 20.7656C221.323 21.6927 221.797 22.9271 221.797 24.4688C221.797 25.5938 221.526 26.625 220.984 27.5625C220.443 28.4896 219.698 29.2083 218.75 29.7188C217.906 30.1771 216.917 30.5052 215.781 30.7031C214.646 30.901 212.766 31 210.141 31H209.641H206.406ZM242.078 31H236.438L230.422 20.3125V31H225.531V8.125H232.531C235.312 8.125 237.396 8.66667 238.781 9.75C240.167 10.8229 240.859 12.4427 240.859 14.6094C240.859 16.1823 240.385 17.526 239.438 18.6406C238.49 19.7552 237.266 20.4062 235.766 20.5938L242.078 31ZM230.422 17.875H231.156C233.135 17.875 234.443 17.6615 235.078 17.2344C235.714 16.7969 236.031 16.0417 236.031 14.9688C236.031 13.8438 235.688 13.0469 235 12.5781C234.323 12.099 233.042 11.8594 231.156 11.8594H230.422V17.875ZM244.938 31V8.125H258.406V12.25H249.828V16.9531H258.406V21.1094H249.828V26.8438H258.406V31H244.938ZM277.953 26.875H280.672C283.234 26.875 285.099 26.2917 286.266 25.125C287.443 23.9583 288.031 22.1094 288.031 19.5781C288.031 17.0573 287.443 15.2135 286.266 14.0469C285.099 12.8698 283.234 12.2812 280.672 12.2812H277.953V26.875ZM273.062 31V8.125H279.297C281.755 8.125 283.693 8.29688 285.109 8.64062C286.526 8.98438 287.771 9.55729 288.844 10.3594C290.229 11.3906 291.276 12.6927 291.984 14.2656C292.703 15.8281 293.062 17.6094 293.062 19.6094C293.062 21.6406 292.698 23.4427 291.969 25.0156C291.24 26.5781 290.172 27.8698 288.766 28.8906C287.724 29.6406 286.562 30.1823 285.281 30.5156C284.01 30.8385 282.146 31 279.688 31H277.953H273.062ZM297.156 31V8.125H310.625V12.25H302.047V16.9531H310.625V21.1094H302.047V26.8438H310.625V31H297.156ZM333.828 12.2812V31H328.922V12.2812H323.328V8.125H339.453V12.2812H333.828ZM359.172 31H353.531L347.516 20.3125V31H342.625V8.125H349.625C352.406 8.125 354.49 8.66667 355.875 9.75C357.26 10.8229 357.953 12.4427 357.953 14.6094C357.953 16.1823 357.479 17.526 356.531 18.6406C355.583 19.7552 354.359 20.4062 352.859 20.5938L359.172 31ZM347.516 17.875H348.25C350.229 17.875 351.536 17.6615 352.172 17.2344C352.807 16.7969 353.125 16.0417 353.125 14.9688C353.125 13.8438 352.781 13.0469 352.094 12.5781C351.417 12.099 350.135 11.8594 348.25 11.8594H347.516V17.875ZM373.875 22.2969L371.312 14.9062C371.24 14.6875 371.146 14.3125 371.031 13.7812C370.917 13.25 370.797 12.599 370.672 11.8281C370.536 12.5677 370.406 13.2344 370.281 13.8281C370.156 14.4115 370.062 14.8021 370 15L367.531 22.2969H373.875ZM359.312 31L368.016 8.125H373.609L382.438 31H376.875L375.016 26.1406H366.156L364.562 31H359.312ZM389.734 27.1875H391.656C392.885 27.1875 393.818 26.9219 394.453 26.3906C395.089 25.849 395.406 25.0625 395.406 24.0312C395.406 23.0625 395.089 22.3229 394.453 21.8125C393.828 21.3021 392.917 21.0469 391.719 21.0469H389.734V27.1875ZM389.734 17.2656H390.828C392.307 17.2656 393.354 17.0573 393.969 16.6406C394.583 16.224 394.891 15.526 394.891 14.5469C394.891 13.5885 394.594 12.9062 394 12.5C393.417 12.0938 392.391 11.8906 390.922 11.8906H389.734V17.2656ZM384.844 31V8.125H389.125C391.344 8.125 392.964 8.21354 393.984 8.39062C395.016 8.55729 395.906 8.83854 396.656 9.23438C397.542 9.74479 398.224 10.4167 398.703 11.25C399.193 12.0833 399.438 13.026 399.438 14.0781C399.438 15.4323 399.036 16.5208 398.234 17.3438C397.432 18.1562 396.234 18.6979 394.641 18.9688C396.484 19.2396 397.875 19.8385 398.812 20.7656C399.76 21.6927 400.234 22.9271 400.234 24.4688C400.234 25.5938 399.964 26.625 399.422 27.5625C398.88 28.4896 398.135 29.2083 397.188 29.7188C396.344 30.1771 395.354 30.5052 394.219 30.7031C393.083 30.901 391.203 31 388.578 31H388.078H384.844ZM415.812 22.2969L413.25 14.9062C413.177 14.6875 413.083 14.3125 412.969 13.7812C412.854 13.25 412.734 12.599 412.609 11.8281C412.474 12.5677 412.344 13.2344 412.219 13.8281C412.094 14.4115 412 14.8021 411.938 15L409.469 22.2969H415.812ZM401.25 31L409.953 8.125H415.547L424.375 31H418.812L416.953 26.1406H408.094L406.5 31H401.25ZM436.062 8.125V23.1875C436.062 24.9062 435.995 26.1667 435.859 26.9688C435.724 27.7708 435.5 28.4531 435.188 29.0156C434.729 29.8698 434.052 30.5156 433.156 30.9531C432.271 31.3906 431.193 31.6094 429.922 31.6094C428.318 31.6094 427.031 31.2083 426.062 30.4062C425.104 29.6042 424.49 28.4271 424.219 26.875L427.766 25.1875C427.849 25.9062 428.031 26.4479 428.312 26.8125C428.604 27.1771 429 27.3594 429.5 27.3594C430.125 27.3594 430.557 27.1354 430.797 26.6875C431.036 26.2292 431.156 25.2135 431.156 23.6406V21.5938V8.125H436.062ZM464.422 19.6094C464.422 21.2448 464.115 22.7917 463.5 24.25C462.896 25.7083 462.021 26.9896 460.875 28.0938C459.688 29.2292 458.349 30.099 456.859 30.7031C455.37 31.3073 453.828 31.6094 452.234 31.6094C450.839 31.6094 449.469 31.375 448.125 30.9062C446.792 30.4271 445.568 29.7448 444.453 28.8594C443.016 27.7135 441.911 26.3438 441.141 24.75C440.38 23.1562 440 21.4427 440 19.6094C440 17.9635 440.302 16.4219 440.906 14.9844C441.51 13.5365 442.396 12.25 443.562 11.125C444.708 10.0104 446.036 9.14583 447.547 8.53125C449.068 7.91667 450.63 7.60938 452.234 7.60938C453.828 7.60938 455.375 7.91667 456.875 8.53125C458.385 9.14583 459.719 10.0104 460.875 11.125C462.031 12.25 462.911 13.5365 463.516 14.9844C464.12 16.4323 464.422 17.974 464.422 19.6094ZM452.234 27.25C454.307 27.25 456.016 26.526 457.359 25.0781C458.714 23.6198 459.391 21.7969 459.391 19.6094C459.391 17.4427 458.708 15.6198 457.344 14.1406C455.979 12.6615 454.276 11.9219 452.234 11.9219C450.161 11.9219 448.443 12.6615 447.078 14.1406C445.714 15.6094 445.031 17.4323 445.031 19.6094C445.031 21.8177 445.703 23.6458 447.047 25.0938C448.391 26.5312 450.12 27.25 452.234 27.25Z" fill="white"/>
<path d="M27 108H15C10.5817 108 7 104.418 7 100V25.5" stroke="white" stroke-width="1.5"/>
<circle cx="7" cy="19" r="6.25" stroke="white" stroke-width="1.5"/>
<rect x="25" y="79" width="378" height="45" rx="10" fill="#002A61"/>
<path d="M49.4414 104V91.1328H57.0176V93.4531H52.1924V96.0986H57.0176V98.4365H52.1924V101.662H57.0176V104H49.4414ZM59.6016 104V90.377H62.0977V104H59.6016ZM70.4824 104V97.3379H69.3662V95.3779H70.4824V93.4355C70.4824 92.2754 70.749 91.4463 71.2822 90.9482C71.8154 90.4443 72.6943 90.1924 73.9189 90.1924C74.0537 90.1924 74.209 90.207 74.3848 90.2363C74.5664 90.2598 74.8008 90.3066 75.0879 90.377V92.3721C74.9355 92.29 74.7891 92.2314 74.6484 92.1963C74.5078 92.1553 74.3613 92.1348 74.209 92.1348C73.7695 92.1348 73.4561 92.252 73.2686 92.4863C73.0811 92.7148 72.9873 93.1133 72.9873 93.6816V95.3779H74.5869V97.3379H72.9873V104H70.4824ZM76.0107 91.8359C76.0107 91.4375 76.1543 91.0947 76.4414 90.8076C76.7285 90.5205 77.0713 90.377 77.4697 90.377C77.874 90.377 78.2197 90.5205 78.5068 90.8076C78.7998 91.0889 78.9463 91.4316 78.9463 91.8359C78.9463 92.2402 78.7998 92.5859 78.5068 92.873C78.2197 93.1602 77.874 93.3037 77.4697 93.3037C77.0713 93.3037 76.7285 93.1572 76.4414 92.8643C76.1543 92.5713 76.0107 92.2285 76.0107 91.8359ZM76.2305 104V95.3779H78.7266V104H76.2305ZM81.2666 104V95.3779H83.7188V96.7314C84.1699 96.1689 84.6533 95.7559 85.1689 95.4922C85.6904 95.2227 86.2676 95.0879 86.9004 95.0879C87.5684 95.0879 88.1279 95.2021 88.5791 95.4307C89.0361 95.6533 89.3965 95.9961 89.6602 96.459C89.7891 96.6992 89.8799 96.9717 89.9326 97.2764C89.9912 97.5752 90.0205 98.0469 90.0205 98.6914V98.9639V104H87.5156V99.7373C87.5156 98.6768 87.3926 97.9766 87.1465 97.6367C86.9004 97.2969 86.4785 97.127 85.8809 97.127C85.5352 97.127 85.2158 97.2002 84.9229 97.3467C84.6357 97.4873 84.3955 97.6895 84.2021 97.9531C84.0498 98.1582 83.9385 98.3926 83.8682 98.6562C83.8037 98.9199 83.7715 99.3213 83.7715 99.8604V100.203V104H81.2666ZM98.748 99.6758C98.748 98.9023 98.5518 98.29 98.1592 97.8389C97.7725 97.3877 97.248 97.1621 96.5859 97.1621C95.9062 97.1621 95.3701 97.3877 94.9775 97.8389C94.5908 98.2842 94.3975 98.8965 94.3975 99.6758C94.3975 100.455 94.5879 101.062 94.9688 101.495C95.3555 101.929 95.8887 102.146 96.5684 102.146C97.2598 102.146 97.7959 101.929 98.1768 101.495C98.5576 101.062 98.748 100.455 98.748 99.6758ZM101.033 104H98.6074L98.6426 102.761C98.3027 103.306 97.8926 103.707 97.4121 103.965C96.9375 104.217 96.3574 104.343 95.6719 104.343C94.5293 104.343 93.6064 103.918 92.9033 103.068C92.2061 102.219 91.8574 101.097 91.8574 99.7021C91.8574 98.249 92.2002 97.1182 92.8857 96.3096C93.5771 95.4951 94.5352 95.0879 95.7598 95.0879C96.3984 95.0879 96.958 95.2314 97.4385 95.5186C97.9248 95.8057 98.332 96.2334 98.6602 96.8018V95.3779H101.033V104ZM103.397 104V95.3779H105.85V96.7314C106.301 96.1689 106.784 95.7559 107.3 95.4922C107.821 95.2227 108.398 95.0879 109.031 95.0879C109.699 95.0879 110.259 95.2021 110.71 95.4307C111.167 95.6533 111.527 95.9961 111.791 96.459C111.92 96.6992 112.011 96.9717 112.063 97.2764C112.122 97.5752 112.151 98.0469 112.151 98.6914V98.9639V104H109.646V99.7373C109.646 98.6768 109.523 97.9766 109.277 97.6367C109.031 97.2969 108.609 97.127 108.012 97.127C107.666 97.127 107.347 97.2002 107.054 97.3467C106.767 97.4873 106.526 97.6895 106.333 97.9531C106.181 98.1582 106.069 98.3926 105.999 98.6562C105.935 98.9199 105.902 99.3213 105.902 99.8604V100.203V104H103.397ZM120.879 103.745C120.539 103.95 120.182 104.1 119.807 104.193C119.432 104.293 119.021 104.343 118.576 104.343C117.217 104.343 116.109 103.912 115.254 103.051C114.398 102.184 113.971 101.059 113.971 99.6758C113.971 98.3223 114.401 97.2207 115.263 96.3711C116.124 95.5156 117.24 95.0879 118.611 95.0879C119.068 95.0879 119.479 95.1318 119.842 95.2197C120.205 95.3076 120.551 95.4453 120.879 95.6328L120.861 98.1465C120.598 97.877 120.293 97.6689 119.947 97.5225C119.602 97.376 119.235 97.3027 118.849 97.3027C118.146 97.3027 117.583 97.5195 117.161 97.9531C116.739 98.3809 116.528 98.9492 116.528 99.6582C116.528 100.385 116.742 100.965 117.17 101.398C117.604 101.826 118.187 102.04 118.919 102.04C119.323 102.04 119.681 101.967 119.991 101.82C120.308 101.674 120.598 101.445 120.861 101.135L120.879 103.745ZM122.646 91.8359C122.646 91.4375 122.789 91.0947 123.076 90.8076C123.363 90.5205 123.706 90.377 124.104 90.377C124.509 90.377 124.854 90.5205 125.142 90.8076C125.435 91.0889 125.581 91.4316 125.581 91.8359C125.581 92.2402 125.435 92.5859 125.142 92.873C124.854 93.1602 124.509 93.3037 124.104 93.3037C123.706 93.3037 123.363 93.1572 123.076 92.8643C122.789 92.5713 122.646 92.2285 122.646 91.8359ZM122.865 104V95.3779H125.361V104H122.865ZM134.256 99.6758C134.256 98.9023 134.06 98.29 133.667 97.8389C133.28 97.3877 132.756 97.1621 132.094 97.1621C131.414 97.1621 130.878 97.3877 130.485 97.8389C130.099 98.2842 129.905 98.8965 129.905 99.6758C129.905 100.455 130.096 101.062 130.477 101.495C130.863 101.929 131.396 102.146 132.076 102.146C132.768 102.146 133.304 101.929 133.685 101.495C134.065 101.062 134.256 100.455 134.256 99.6758ZM136.541 104H134.115L134.15 102.761C133.811 103.306 133.4 103.707 132.92 103.965C132.445 104.217 131.865 104.343 131.18 104.343C130.037 104.343 129.114 103.918 128.411 103.068C127.714 102.219 127.365 101.097 127.365 99.7021C127.365 98.249 127.708 97.1182 128.394 96.3096C129.085 95.4951 130.043 95.0879 131.268 95.0879C131.906 95.0879 132.466 95.2314 132.946 95.5186C133.433 95.8057 133.84 96.2334 134.168 96.8018V95.3779H136.541V104ZM141.375 104H138.87V95.3779H141.375V96.7314C141.785 96.1631 142.222 95.7471 142.685 95.4834C143.153 95.2197 143.684 95.0879 144.275 95.0879C144.99 95.0879 145.57 95.2344 146.016 95.5273C146.467 95.8203 146.786 96.2627 146.974 96.8545C147.372 96.2686 147.823 95.8291 148.327 95.5361C148.837 95.2373 149.394 95.0879 149.997 95.0879C150.606 95.0879 151.122 95.2021 151.544 95.4307C151.972 95.6533 152.303 95.9902 152.537 96.4414C152.66 96.6875 152.748 96.9658 152.801 97.2764C152.854 97.5869 152.88 98.0586 152.88 98.6914V98.9639V104H150.375V99.7373C150.375 98.6885 150.267 97.9912 150.05 97.6455C149.839 97.2998 149.467 97.127 148.934 97.127C148.289 97.127 147.82 97.3672 147.527 97.8477C147.24 98.3281 147.097 99.1133 147.097 100.203V104H144.592V99.7373C144.592 98.7236 144.492 98.0381 144.293 97.6807C144.094 97.3232 143.751 97.1445 143.265 97.1445C142.603 97.1445 142.122 97.3877 141.823 97.874C141.524 98.3545 141.375 99.1309 141.375 100.203V104ZM155.147 91.8359C155.147 91.4375 155.291 91.0947 155.578 90.8076C155.865 90.5205 156.208 90.377 156.606 90.377C157.011 90.377 157.356 90.5205 157.644 90.8076C157.937 91.0889 158.083 91.4316 158.083 91.8359C158.083 92.2402 157.937 92.5859 157.644 92.873C157.356 93.1602 157.011 93.3037 156.606 93.3037C156.208 93.3037 155.865 93.1572 155.578 92.8643C155.291 92.5713 155.147 92.2285 155.147 91.8359ZM155.367 104V95.3779H157.863V104H155.367ZM166.345 98.7969C166.274 98.252 166.075 97.8418 165.747 97.5664C165.425 97.2852 164.982 97.1445 164.42 97.1445C163.857 97.1445 163.406 97.2852 163.066 97.5664C162.732 97.8418 162.519 98.252 162.425 98.7969H166.345ZM168.823 100.309H162.346C162.445 100.93 162.671 101.396 163.022 101.706C163.374 102.011 163.852 102.163 164.455 102.163C164.912 102.163 165.305 102.075 165.633 101.899C165.967 101.724 166.245 101.457 166.468 101.1L168.489 102.11C168.021 102.866 167.452 103.429 166.784 103.798C166.116 104.161 165.322 104.343 164.402 104.343C163.008 104.343 161.903 103.927 161.089 103.095C160.274 102.263 159.867 101.144 159.867 99.7373C159.867 98.3838 160.292 97.2705 161.142 96.3975C161.997 95.5244 163.09 95.0879 164.42 95.0879C165.791 95.0879 166.875 95.498 167.672 96.3184C168.469 97.1328 168.867 98.2461 168.867 99.6582C168.867 99.7344 168.864 99.8193 168.858 99.9131C168.853 100.001 168.841 100.133 168.823 100.309ZM170.722 104V95.3779H173.174V96.7314C173.625 96.1689 174.108 95.7559 174.624 95.4922C175.146 95.2227 175.723 95.0879 176.355 95.0879C177.023 95.0879 177.583 95.2021 178.034 95.4307C178.491 95.6533 178.852 95.9961 179.115 96.459C179.244 96.6992 179.335 96.9717 179.388 97.2764C179.446 97.5752 179.476 98.0469 179.476 98.6914V98.9639V104H176.971V99.7373C176.971 98.6768 176.848 97.9766 176.602 97.6367C176.355 97.2969 175.934 97.127 175.336 97.127C174.99 97.127 174.671 97.2002 174.378 97.3467C174.091 97.4873 173.851 97.6895 173.657 97.9531C173.505 98.1582 173.394 98.3926 173.323 98.6562C173.259 98.9199 173.227 99.3213 173.227 99.8604V100.203V104H170.722ZM182.156 104V97.3379H180.952V95.3779H182.156V92.5127H184.661V95.3779H185.865V97.3379H184.661V104H182.156ZM193.942 99.7021C193.942 98.999 193.737 98.4395 193.327 98.0234C192.917 97.6016 192.366 97.3906 191.675 97.3906C190.983 97.3906 190.436 97.5986 190.031 98.0146C189.627 98.4307 189.425 98.9932 189.425 99.7021C189.425 100.405 189.627 100.968 190.031 101.39C190.436 101.812 190.983 102.022 191.675 102.022C192.36 102.022 192.908 101.812 193.318 101.39C193.734 100.968 193.942 100.405 193.942 99.7021ZM196.491 99.7197C196.491 101.044 196.037 102.146 195.129 103.024C194.227 103.903 193.081 104.343 191.692 104.343C190.292 104.343 189.138 103.903 188.229 103.024C187.321 102.146 186.867 101.044 186.867 99.7197C186.867 98.4014 187.324 97.2998 188.238 96.415C189.152 95.5303 190.304 95.0879 191.692 95.0879C193.087 95.0879 194.235 95.5244 195.138 96.3975C196.04 97.2705 196.491 98.3779 196.491 99.7197ZM207.583 96.638C209.365 96.638 210.427 98.006 210.427 99.698C210.427 101.408 209.455 102.902 207.601 102.902C205.801 102.902 204.829 101.336 204.829 99.68C204.829 98.096 205.909 96.638 207.583 96.638ZM211.795 95.54H210.355V96.746H210.319C209.617 95.81 208.555 95.306 207.403 95.306C204.901 95.306 203.353 97.448 203.353 99.806C203.353 102.2 204.883 104.234 207.421 104.234C208.555 104.234 209.635 103.73 210.319 102.812H210.355V108.752H211.795V95.54ZM215.794 95.54H214.354V100.418C214.354 102.668 215.2 104.234 217.702 104.234C220.204 104.234 221.05 102.668 221.05 100.418V95.54H219.61V100.256C219.61 101.678 219.448 102.902 217.702 102.902C215.956 102.902 215.794 101.678 215.794 100.256V95.54ZM231.035 100.076C231.179 97.556 229.739 95.306 227.021 95.306C224.375 95.306 222.917 97.376 222.917 99.878C222.917 102.308 224.537 104.234 227.057 104.234C228.785 104.234 230.153 103.37 230.963 101.858L229.739 101.156C229.181 102.164 228.389 102.902 227.165 102.902C225.527 102.902 224.411 101.642 224.393 100.076H231.035ZM224.465 98.852C224.645 97.628 225.797 96.638 227.039 96.638C228.299 96.638 229.325 97.628 229.523 98.852H224.465ZM245.906 100.076C246.05 97.556 244.61 95.306 241.892 95.306C239.246 95.306 237.788 97.376 237.788 99.878C237.788 102.308 239.408 104.234 241.928 104.234C243.656 104.234 245.024 103.37 245.834 101.858L244.61 101.156C244.052 102.164 243.26 102.902 242.036 102.902C240.398 102.902 239.282 101.642 239.264 100.076H245.906ZM239.336 98.852C239.516 97.628 240.668 96.638 241.91 96.638C243.17 96.638 244.196 97.628 244.394 98.852H239.336ZM252.504 96.872C252.126 95.99 251.226 95.306 250.254 95.306C248.886 95.306 247.734 96.278 247.734 97.7C247.734 100.364 251.55 99.716 251.55 101.606C251.55 102.38 250.956 102.902 250.182 102.902C249.228 102.902 248.814 102.344 248.454 101.552L247.176 102.092C247.626 103.424 248.742 104.234 250.164 104.234C251.73 104.234 253.026 103.082 253.026 101.48C253.026 100.058 252.054 99.464 251.064 99.05C250.074 98.636 249.102 98.348 249.102 97.574C249.102 97.034 249.642 96.638 250.146 96.638C250.668 96.638 251.1 97.052 251.298 97.502L252.504 96.872ZM256.579 96.872H258.091V95.54H256.579V92.498H255.139V95.54H254.257V96.872H255.139V104H256.579V96.872ZM262.901 96.638C264.683 96.638 265.745 98.006 265.745 99.698C265.745 101.408 264.773 102.902 262.919 102.902C261.119 102.902 260.147 101.336 260.147 99.68C260.147 98.096 261.227 96.638 262.901 96.638ZM267.113 95.54H265.673V96.746H265.637C264.935 95.846 263.891 95.306 262.739 95.306C260.201 95.306 258.671 97.376 258.671 99.788C258.671 102.128 260.237 104.234 262.721 104.234C263.909 104.234 264.899 103.766 265.637 102.83H265.673V104H267.113V95.54ZM273.83 96.638C275.612 96.638 276.674 98.006 276.674 99.698C276.674 101.408 275.702 102.902 273.848 102.902C272.048 102.902 271.076 101.336 271.076 99.68C271.076 98.096 272.156 96.638 273.83 96.638ZM269.708 104H271.148V102.83H271.184C271.868 103.748 272.93 104.234 274.1 104.234C276.584 104.234 278.15 102.128 278.15 99.77C278.15 97.376 276.602 95.306 274.082 95.306C272.93 95.306 271.868 95.846 271.184 96.746H271.148V89.15H269.708V104ZM283.679 96.638C285.461 96.638 286.523 98.006 286.523 99.698C286.523 101.408 285.551 102.902 283.697 102.902C281.897 102.902 280.925 101.336 280.925 99.68C280.925 98.096 282.005 96.638 283.679 96.638ZM287.891 95.54H286.451V96.746H286.415C285.713 95.846 284.669 95.306 283.517 95.306C280.979 95.306 279.449 97.376 279.449 99.788C279.449 102.128 281.015 104.234 283.499 104.234C284.687 104.234 285.677 103.766 286.415 102.83H286.451V104H287.891V95.54ZM295.183 96.872C294.805 95.99 293.905 95.306 292.933 95.306C291.565 95.306 290.413 96.278 290.413 97.7C290.413 100.364 294.229 99.716 294.229 101.606C294.229 102.38 293.635 102.902 292.861 102.902C291.907 102.902 291.493 102.344 291.133 101.552L289.855 102.092C290.305 103.424 291.421 104.234 292.843 104.234C294.409 104.234 295.705 103.082 295.705 101.48C295.705 100.058 294.733 99.464 293.743 99.05C292.753 98.636 291.781 98.348 291.781 97.574C291.781 97.034 292.321 96.638 292.825 96.638C293.347 96.638 293.779 97.052 293.977 97.502L295.183 96.872ZM307.334 96.638C309.116 96.638 310.178 98.006 310.178 99.698C310.178 101.408 309.206 102.902 307.352 102.902C305.552 102.902 304.58 101.336 304.58 99.68C304.58 98.096 305.66 96.638 307.334 96.638ZM303.212 104H304.652V102.83H304.688C305.372 103.748 306.434 104.234 307.604 104.234C310.088 104.234 311.654 102.128 311.654 99.77C311.654 97.376 310.106 95.306 307.586 95.306C306.434 95.306 305.372 95.846 304.688 96.746H304.652V89.15H303.212V104ZM315.005 95.54H313.565V100.418C313.565 102.668 314.411 104.234 316.913 104.234C319.415 104.234 320.261 102.668 320.261 100.418V95.54H318.821V100.256C318.821 101.678 318.659 102.902 316.913 102.902C315.167 102.902 315.005 101.678 315.005 100.256V95.54ZM327.51 96.872C327.132 95.99 326.232 95.306 325.26 95.306C323.892 95.306 322.74 96.278 322.74 97.7C322.74 100.364 326.556 99.716 326.556 101.606C326.556 102.38 325.962 102.902 325.188 102.902C324.234 102.902 323.82 102.344 323.46 101.552L322.182 102.092C322.632 103.424 323.748 104.234 325.17 104.234C326.736 104.234 328.032 103.082 328.032 101.48C328.032 100.058 327.06 99.464 326.07 99.05C325.08 98.636 324.108 98.348 324.108 97.574C324.108 97.034 324.648 96.638 325.152 96.638C325.674 96.638 326.106 97.052 326.304 97.502L327.51 96.872ZM336.355 96.152C335.599 95.612 334.663 95.306 333.745 95.306C331.261 95.306 329.227 97.25 329.227 99.77C329.227 102.326 331.171 104.234 333.727 104.234C334.735 104.234 335.581 103.928 336.409 103.37V101.444H336.373C335.671 102.362 334.825 102.902 333.619 102.902C331.855 102.902 330.703 101.444 330.703 99.77C330.703 98.078 331.945 96.638 333.691 96.638C334.825 96.638 335.653 97.214 336.319 98.06H336.355V96.152ZM342.144 96.638C343.926 96.638 344.988 98.006 344.988 99.698C344.988 101.408 344.016 102.902 342.162 102.902C340.362 102.902 339.39 101.336 339.39 99.68C339.39 98.096 340.47 96.638 342.144 96.638ZM346.356 95.54H344.916V96.746H344.88C344.178 95.846 343.134 95.306 341.982 95.306C339.444 95.306 337.914 97.376 337.914 99.788C337.914 102.128 339.48 104.234 341.964 104.234C343.152 104.234 344.142 103.766 344.88 102.83H344.916V104H346.356V95.54ZM350.462 95.54H349.022V104H350.462V99.986C350.462 98.474 350.588 96.638 352.568 96.638C354.242 96.638 354.35 97.862 354.35 99.23V104H355.79V98.978C355.79 96.998 355.25 95.306 352.91 95.306C351.866 95.306 351.092 95.756 350.498 96.566H350.462V95.54ZM362.042 96.638C363.824 96.638 364.886 98.006 364.886 99.698C364.886 101.408 363.914 102.902 362.06 102.902C360.26 102.902 359.288 101.336 359.288 99.68C359.288 98.096 360.368 96.638 362.042 96.638ZM364.814 104H366.254V89.15H364.814V96.746H364.778C364.094 95.846 363.014 95.306 361.88 95.306C359.342 95.306 357.812 97.376 357.812 99.788C357.812 102.128 359.378 104.234 361.862 104.234C363.014 104.234 364.076 103.748 364.778 102.83H364.814V104ZM372.611 104.234C375.077 104.234 377.057 102.272 377.057 99.788C377.057 97.304 375.095 95.306 372.611 95.306C370.127 95.306 368.165 97.304 368.165 99.788C368.165 102.272 370.145 104.234 372.611 104.234ZM372.611 96.638C374.393 96.638 375.617 98.06 375.617 99.77C375.617 101.498 374.393 102.902 372.611 102.902C370.829 102.902 369.605 101.498 369.605 99.77C369.605 98.06 370.829 96.638 372.611 96.638Z" fill="white"/>
</svg>
