<svg width="621" height="282" viewBox="0 0 621 282" fill="none" xmlns="http://www.w3.org/2000/svg">
<path d="M27 239H15C10.5817 239 7 235.418 7 231V14" stroke="white" stroke-width="1.5"/>
<path d="M12.622 7.0784C12.622 10.6144 9.92461 13.4068 6.68598 13.4068C3.44736 13.4068 0.75 10.6144 0.75 7.0784C0.75 3.54244 3.44736 0.75 6.68598 0.75C9.92461 0.75 12.622 3.54244 12.622 7.0784Z" stroke="white" stroke-width="1.5"/>
<rect x="25" y="197" width="299" height="85" rx="16" fill="#002A61"/>
<path d="M43.3711 233V220.133H51.2549V222.954H46.79V225.187H51V227.946H46.79V230.117H51.2549V233H43.3711ZM53.4521 233V219.377H56.5898V233H53.4521ZM64.9395 233V226.338H63.6035V224.123H64.9395V222.304C64.9395 221.278 65.2207 220.499 65.7832 219.966C66.3398 219.45 67.1807 219.192 68.3057 219.192C68.3818 219.192 68.5723 219.204 68.877 219.228C69.2051 219.28 69.4395 219.324 69.5801 219.359V221.75C69.4746 221.709 69.3428 221.668 69.1846 221.627C69.0205 221.604 68.9121 221.592 68.8594 221.592C68.5547 221.592 68.3408 221.68 68.2178 221.855C68.083 222.043 68.0156 222.327 68.0156 222.708V224.123H69.5801V226.338H68.0156V233H64.9395ZM70.8896 233V224.123H74.0186V233H70.8896ZM71.2852 221.838H71.3027C71.3027 221.51 71.417 221.24 71.6455 221.029C71.874 220.801 72.1494 220.687 72.4717 220.687C72.8115 220.687 73.0898 220.795 73.3066 221.012C73.5293 221.229 73.6406 221.504 73.6406 221.838C73.6406 222.178 73.5264 222.459 73.2979 222.682C73.0752 222.91 72.7998 223.024 72.4717 223.024C72.1377 223.024 71.8564 222.904 71.6279 222.664C71.3994 222.441 71.2852 222.166 71.2852 221.838ZM76.585 233V224.123H79.4502V225.925C79.8545 225.222 80.335 224.694 80.8916 224.343C81.4307 224.009 82.084 223.842 82.8516 223.842C83.4316 223.842 83.9473 223.93 84.3984 224.105C84.8438 224.305 85.2041 224.574 85.4795 224.914C85.7314 225.254 85.8984 225.614 85.9805 225.995C86.0801 226.481 86.1299 227.123 86.1299 227.92V233H82.9922V228.245C82.9922 227.524 82.8779 227.009 82.6494 226.698C82.4209 226.376 82.0488 226.215 81.5332 226.215C80.8887 226.215 80.4141 226.455 80.1094 226.936C79.8105 227.416 79.6611 228.195 79.6611 229.273V233H76.585ZM95.1123 228.553C95.1123 227.85 94.9277 227.305 94.5586 226.918C94.1836 226.508 93.6797 226.303 93.0469 226.303C92.4141 226.303 91.916 226.502 91.5527 226.9C91.1777 227.311 90.9902 227.861 90.9902 228.553C90.9902 229.25 91.1777 229.798 91.5527 230.196C91.9102 230.589 92.4082 230.785 93.0469 230.785C93.6797 230.785 94.1807 230.589 94.5498 230.196C94.9248 229.804 95.1123 229.256 95.1123 228.553ZM97.8633 224.123V233H94.9893V231.559C94.5732 232.174 94.1074 232.625 93.5918 232.912C93.082 233.199 92.4844 233.343 91.7988 233.343C90.6094 233.343 89.6631 232.909 88.96 232.042C88.6143 231.614 88.3506 231.11 88.1689 230.53C87.9873 229.95 87.8965 229.297 87.8965 228.57C87.8965 227.117 88.2686 225.966 89.0127 225.116C89.7568 224.267 90.7529 223.842 92.001 223.842C92.6689 223.842 93.2432 223.985 93.7236 224.272C94.21 224.548 94.626 224.984 94.9717 225.582V224.123H97.8633ZM100.228 233V224.123H103.093V225.925C103.497 225.222 103.978 224.694 104.534 224.343C105.073 224.009 105.727 223.842 106.494 223.842C107.074 223.842 107.59 223.93 108.041 224.105C108.486 224.305 108.847 224.574 109.122 224.914C109.374 225.254 109.541 225.614 109.623 225.995C109.723 226.481 109.772 227.123 109.772 227.92V233H106.635V228.245C106.635 227.524 106.521 227.009 106.292 226.698C106.063 226.376 105.691 226.215 105.176 226.215C104.531 226.215 104.057 226.455 103.752 226.936C103.453 227.416 103.304 228.195 103.304 229.273V233H100.228ZM118.359 227.041C118.055 226.771 117.762 226.575 117.48 226.452C117.229 226.329 116.933 226.268 116.593 226.268C115.966 226.268 115.474 226.473 115.116 226.883C114.747 227.287 114.562 227.844 114.562 228.553C114.562 229.232 114.753 229.771 115.134 230.17C115.503 230.58 116.016 230.785 116.672 230.785C116.982 230.785 117.281 230.721 117.568 230.592C117.873 230.445 118.137 230.252 118.359 230.012V232.728C117.984 232.927 117.606 233.085 117.226 233.202C116.821 233.296 116.438 233.343 116.074 233.343C114.703 233.343 113.599 232.903 112.761 232.024C112.474 231.731 112.236 231.409 112.049 231.058C111.867 230.706 111.727 230.325 111.627 229.915C111.533 229.505 111.486 229.057 111.486 228.57C111.486 227.17 111.914 226.033 112.77 225.16C113.631 224.281 114.744 223.842 116.109 223.842C116.537 223.842 116.944 223.889 117.331 223.982C117.706 224.076 118.049 224.214 118.359 224.396V227.041ZM120.214 233V224.123H123.343V233H120.214ZM120.609 221.838H120.627C120.627 221.51 120.741 221.24 120.97 221.029C121.198 220.801 121.474 220.687 121.796 220.687C122.136 220.687 122.414 220.795 122.631 221.012C122.854 221.229 122.965 221.504 122.965 221.838C122.965 222.178 122.851 222.459 122.622 222.682C122.399 222.91 122.124 223.024 121.796 223.024C121.462 223.024 121.181 222.904 120.952 222.664C120.724 222.441 120.609 222.166 120.609 221.838ZM132.677 228.553C132.677 227.85 132.492 227.305 132.123 226.918C131.748 226.508 131.244 226.303 130.611 226.303C129.979 226.303 129.48 226.502 129.117 226.9C128.742 227.311 128.555 227.861 128.555 228.553C128.555 229.25 128.742 229.798 129.117 230.196C129.475 230.589 129.973 230.785 130.611 230.785C131.244 230.785 131.745 230.589 132.114 230.196C132.489 229.804 132.677 229.256 132.677 228.553ZM135.428 224.123V233H132.554V231.559C132.138 232.174 131.672 232.625 131.156 232.912C130.646 233.199 130.049 233.343 129.363 233.343C128.174 233.343 127.228 232.909 126.524 232.042C126.179 231.614 125.915 231.11 125.733 230.53C125.552 229.95 125.461 229.297 125.461 228.57C125.461 227.117 125.833 225.966 126.577 225.116C127.321 224.267 128.317 223.842 129.565 223.842C130.233 223.842 130.808 223.985 131.288 224.272C131.774 224.548 132.19 224.984 132.536 225.582V224.123H135.428ZM149.525 233V228.157C149.525 227.396 149.438 226.868 149.262 226.575C149.062 226.276 148.731 226.127 148.269 226.127C147.677 226.127 147.27 226.329 147.047 226.733C146.818 227.132 146.704 227.967 146.704 229.238V233H143.681V228.157C143.681 227.366 143.584 226.833 143.391 226.558C143.215 226.271 142.89 226.127 142.415 226.127C141.823 226.127 141.41 226.323 141.176 226.716C140.947 227.114 140.833 227.955 140.833 229.238V233H137.792V224.123H140.868V225.67C141.243 225.049 141.671 224.589 142.151 224.29C142.62 223.991 143.188 223.842 143.856 223.842C144.577 223.842 145.172 223.979 145.641 224.255C146.086 224.536 146.411 224.955 146.616 225.512C146.974 224.932 147.398 224.513 147.891 224.255C148.377 223.979 148.96 223.842 149.64 223.842C150.173 223.842 150.639 223.93 151.037 224.105C151.447 224.299 151.784 224.568 152.048 224.914C152.271 225.189 152.426 225.515 152.514 225.89C152.602 226.235 152.646 226.848 152.646 227.727V227.92V233H149.525ZM154.79 233V224.123H157.919V233H154.79ZM155.186 221.838H155.203C155.203 221.51 155.317 221.24 155.546 221.029C155.774 220.801 156.05 220.687 156.372 220.687C156.712 220.687 156.99 220.795 157.207 221.012C157.43 221.229 157.541 221.504 157.541 221.838C157.541 222.178 157.427 222.459 157.198 222.682C156.976 222.91 156.7 223.024 156.372 223.024C156.038 223.024 155.757 222.904 155.528 222.664C155.3 222.441 155.186 222.166 155.186 221.838ZM166.603 227.419C166.55 226.927 166.359 226.525 166.031 226.215C165.703 225.904 165.302 225.749 164.827 225.749C164.329 225.749 163.925 225.887 163.614 226.162C163.292 226.473 163.09 226.892 163.008 227.419H166.603ZM169.688 229.186H162.938C162.955 229.877 163.128 230.404 163.456 230.768C163.796 231.143 164.288 231.33 164.933 231.33C165.401 231.33 165.803 231.239 166.137 231.058C166.477 230.864 166.723 230.601 166.875 230.267L169.23 231.216C168.955 231.89 168.457 232.411 167.736 232.78C167.021 233.155 166.146 233.343 165.108 233.343C163.562 233.343 162.319 232.909 161.382 232.042C160.45 231.198 159.984 230.07 159.984 228.658C159.984 227.281 160.45 226.13 161.382 225.204C162.313 224.296 163.497 223.842 164.933 223.842C166.397 223.842 167.555 224.302 168.404 225.222C168.838 225.696 169.16 226.25 169.371 226.883C169.582 227.51 169.688 228.228 169.688 229.036V229.186ZM171.489 233V224.123H174.354V225.925C174.759 225.222 175.239 224.694 175.796 224.343C176.335 224.009 176.988 223.842 177.756 223.842C178.336 223.842 178.852 223.93 179.303 224.105C179.748 224.305 180.108 224.574 180.384 224.914C180.636 225.254 180.803 225.614 180.885 225.995C180.984 226.481 181.034 227.123 181.034 227.92V233H177.896V228.245C177.896 227.524 177.782 227.009 177.554 226.698C177.325 226.376 176.953 226.215 176.438 226.215C175.793 226.215 175.318 226.455 175.014 226.936C174.715 227.416 174.565 228.195 174.565 229.273V233H171.489ZM183.75 233L183.732 226.338H182.405V224.123H183.732V221.478H186.835V224.123H188.145V226.338H186.835V233H183.75ZM195.914 228.588C195.914 227.926 195.747 227.404 195.413 227.023C195.067 226.643 194.616 226.452 194.06 226.452C193.485 226.452 193.034 226.643 192.706 227.023C192.372 227.393 192.205 227.914 192.205 228.588C192.205 229.244 192.366 229.76 192.688 230.135C193.04 230.521 193.497 230.715 194.06 230.715C194.622 230.715 195.079 230.521 195.431 230.135C195.753 229.748 195.914 229.232 195.914 228.588ZM199.025 228.588C199.025 229.238 198.899 229.845 198.647 230.407C198.384 231.005 198.023 231.521 197.566 231.954C197.051 232.435 196.518 232.783 195.967 233C195.393 233.229 194.757 233.343 194.06 233.343C193.356 233.343 192.721 233.229 192.152 233C191.572 232.771 191.036 232.426 190.544 231.963C190.058 231.494 189.706 230.976 189.489 230.407C189.237 229.862 189.111 229.256 189.111 228.588C189.111 227.938 189.237 227.325 189.489 226.751C189.724 226.171 190.078 225.655 190.553 225.204C191.016 224.759 191.549 224.416 192.152 224.176C192.727 223.953 193.362 223.842 194.06 223.842C194.751 223.842 195.387 223.953 195.967 224.176C196.57 224.416 197.104 224.759 197.566 225.204C198.053 225.644 198.413 226.159 198.647 226.751C198.899 227.325 199.025 227.938 199.025 228.588ZM212.877 229.001C212.877 228.063 212.637 227.328 212.156 226.795C211.682 226.262 211.022 225.995 210.179 225.995C209.364 225.995 208.723 226.276 208.254 226.839C207.785 227.401 207.551 228.178 207.551 229.168C207.551 230.053 207.779 230.744 208.236 231.242C208.699 231.74 209.335 231.989 210.144 231.989C210.964 231.989 211.623 231.717 212.121 231.172C212.625 230.627 212.877 229.903 212.877 229.001ZM214.213 236.92H212.842V231.541C212.537 232.139 212.139 232.59 211.646 232.895C211.154 233.193 210.574 233.343 209.906 233.343C208.752 233.343 207.829 232.953 207.138 232.174C206.452 231.389 206.109 230.331 206.109 229.001C206.109 227.694 206.461 226.646 207.164 225.854C207.867 225.063 208.799 224.668 209.959 224.668C210.586 224.668 211.151 224.823 211.655 225.134C212.159 225.444 212.566 225.89 212.877 226.47V224.958H214.213V236.92ZM218.317 224.958V228.913C218.317 230.067 218.487 230.876 218.827 231.339C219.173 231.796 219.753 232.024 220.567 232.024C221.382 232.024 221.956 231.799 222.29 231.348C222.63 230.891 222.8 230.079 222.8 228.913V224.958H224.206V229.651C224.206 230.864 223.896 231.784 223.274 232.411C222.653 233.032 221.739 233.343 220.532 233.343C219.337 233.343 218.429 233.029 217.808 232.402C217.187 231.775 216.876 230.858 216.876 229.651V224.958H218.317ZM232.573 228.069C232.526 227.36 232.289 226.815 231.861 226.435C231.439 226.048 230.859 225.854 230.121 225.854C229.453 225.854 228.896 226.057 228.451 226.461C228.006 226.859 227.748 227.396 227.678 228.069H232.573ZM234.05 229.186H227.678V229.309C227.678 230.17 227.924 230.867 228.416 231.4C228.908 231.928 229.55 232.191 230.341 232.191C230.88 232.191 231.366 232.048 231.8 231.761C232.233 231.468 232.617 231.028 232.951 230.442L233.997 231.146C233.593 231.872 233.077 232.42 232.45 232.789C231.823 233.158 231.097 233.343 230.271 233.343C229.046 233.343 228.056 232.938 227.3 232.13C226.544 231.321 226.166 230.261 226.166 228.948C226.166 227.688 226.541 226.657 227.291 225.854C228.041 225.052 229.005 224.65 230.183 224.65C231.372 224.65 232.312 225.031 233.004 225.793C233.701 226.555 234.05 227.595 234.05 228.913V229.186ZM241.441 233V224.958H242.786V226.197C243.132 225.682 243.548 225.298 244.034 225.046C244.521 224.794 245.083 224.668 245.722 224.668C246.671 224.668 247.412 224.92 247.945 225.424C248.479 225.928 248.745 226.628 248.745 227.524V233H247.339V228.263C247.339 227.448 247.166 226.845 246.82 226.452C246.48 226.054 245.953 225.854 245.238 225.854C244.828 225.854 244.453 225.931 244.113 226.083C243.779 226.229 243.501 226.44 243.278 226.716C243.108 226.927 242.985 227.167 242.909 227.437C242.839 227.706 242.804 228.175 242.804 228.843V233H241.441ZM257.183 228.069C257.136 227.36 256.898 226.815 256.471 226.435C256.049 226.048 255.469 225.854 254.73 225.854C254.062 225.854 253.506 226.057 253.061 226.461C252.615 226.859 252.357 227.396 252.287 228.069H257.183ZM258.659 229.186H252.287V229.309C252.287 230.17 252.533 230.867 253.025 231.4C253.518 231.928 254.159 232.191 254.95 232.191C255.489 232.191 255.976 232.048 256.409 231.761C256.843 231.468 257.227 231.028 257.561 230.442L258.606 231.146C258.202 231.872 257.687 232.42 257.06 232.789C256.433 233.158 255.706 233.343 254.88 233.343C253.655 233.343 252.665 232.938 251.909 232.13C251.153 231.321 250.775 230.261 250.775 228.948C250.775 227.688 251.15 226.657 251.9 225.854C252.65 225.052 253.614 224.65 254.792 224.65C255.981 224.65 256.922 225.031 257.613 225.793C258.311 226.555 258.659 227.595 258.659 228.913V229.186ZM266.912 231.093V232.692C266.549 232.909 266.139 233.07 265.682 233.176C265.23 233.287 264.741 233.343 264.214 233.343C262.972 233.343 261.97 232.95 261.208 232.165C260.452 231.374 260.074 230.337 260.074 229.054C260.074 227.765 260.467 226.713 261.252 225.898C262.037 225.078 263.042 224.668 264.267 224.668C264.712 224.668 265.146 224.715 265.567 224.809C265.995 224.902 266.396 225.04 266.771 225.222V226.698C266.42 226.47 266.057 226.297 265.682 226.18C265.307 226.057 264.926 225.995 264.539 225.995C263.637 225.995 262.913 226.279 262.368 226.848C261.823 227.41 261.551 228.16 261.551 229.098C261.551 229.924 261.823 230.615 262.368 231.172C262.919 231.729 263.607 232.007 264.434 232.007C264.85 232.007 265.257 231.934 265.655 231.787C266.054 231.641 266.473 231.409 266.912 231.093ZM274.532 228.069C274.485 227.36 274.248 226.815 273.82 226.435C273.398 226.048 272.818 225.854 272.08 225.854C271.412 225.854 270.855 226.057 270.41 226.461C269.965 226.859 269.707 227.396 269.637 228.069H274.532ZM276.009 229.186H269.637V229.309C269.637 230.17 269.883 230.867 270.375 231.4C270.867 231.928 271.509 232.191 272.3 232.191C272.839 232.191 273.325 232.048 273.759 231.761C274.192 231.468 274.576 231.028 274.91 230.442L275.956 231.146C275.552 231.872 275.036 232.42 274.409 232.789C273.782 233.158 273.056 233.343 272.229 233.343C271.005 233.343 270.015 232.938 269.259 232.13C268.503 231.321 268.125 230.261 268.125 228.948C268.125 227.688 268.5 226.657 269.25 225.854C270 225.052 270.964 224.65 272.142 224.65C273.331 224.65 274.271 225.031 274.963 225.793C275.66 226.555 276.009 227.595 276.009 228.913V229.186ZM277.239 231.646L278.417 230.855C278.64 231.283 278.921 231.605 279.261 231.822C279.601 232.033 280.002 232.139 280.465 232.139C280.916 232.139 281.279 232.027 281.555 231.805C281.836 231.582 281.977 231.289 281.977 230.926C281.977 230.645 281.88 230.41 281.687 230.223C281.499 230.035 281.174 229.862 280.711 229.704C280.664 229.687 280.588 229.66 280.482 229.625C278.525 228.951 277.547 228.107 277.547 227.094C277.547 226.379 277.811 225.796 278.338 225.345C278.865 224.894 279.551 224.668 280.395 224.668C281.092 224.668 281.689 224.809 282.188 225.09C282.686 225.365 283.043 225.758 283.26 226.268L282.144 226.953C281.979 226.584 281.736 226.3 281.414 226.101C281.098 225.901 280.729 225.802 280.307 225.802C279.902 225.802 279.571 225.916 279.313 226.145C279.062 226.367 278.936 226.654 278.936 227.006C278.936 227.498 279.469 227.911 280.535 228.245C280.734 228.31 280.893 228.359 281.01 228.395C281.883 228.676 282.489 228.998 282.829 229.361C283.175 229.719 283.348 230.193 283.348 230.785C283.348 231.547 283.075 232.165 282.53 232.64C281.991 233.108 281.285 233.343 280.412 233.343C279.662 233.343 279.023 233.202 278.496 232.921C277.975 232.64 277.556 232.215 277.239 231.646ZM285.167 221.082C285.167 220.807 285.264 220.572 285.457 220.379C285.656 220.18 285.896 220.08 286.178 220.08C286.453 220.08 286.688 220.18 286.881 220.379C287.08 220.578 287.18 220.818 287.18 221.1C287.18 221.375 287.083 221.609 286.89 221.803C286.696 221.996 286.459 222.093 286.178 222.093C285.896 222.093 285.656 221.996 285.457 221.803C285.264 221.609 285.167 221.369 285.167 221.082ZM285.492 233V224.958H286.881V233H285.492ZM289.992 226.092H288.516V224.958H289.992V221.715H291.398V224.958H292.875V226.092H291.398V233H289.992V226.092ZM300.592 229.054C300.592 228.146 300.343 227.416 299.845 226.865C299.353 226.309 298.708 226.03 297.911 226.03C297.085 226.03 296.44 226.285 295.978 226.795C295.515 227.305 295.283 228.017 295.283 228.931C295.283 229.903 295.515 230.653 295.978 231.181C296.446 231.708 297.108 231.972 297.964 231.972C298.784 231.972 299.426 231.717 299.889 231.207C300.357 230.691 300.592 229.974 300.592 229.054ZM301.928 224.958V233H300.592V231.541C300.27 232.127 299.856 232.575 299.353 232.886C298.854 233.19 298.295 233.343 297.674 233.343C296.52 233.343 295.588 232.947 294.879 232.156C294.176 231.359 293.824 230.308 293.824 229.001C293.824 227.677 294.167 226.625 294.853 225.846C295.538 225.061 296.455 224.668 297.604 224.668C298.277 224.668 298.86 224.82 299.353 225.125C299.851 225.424 300.252 225.872 300.557 226.47V224.958H301.928ZM303.835 231.646L305.013 230.855C305.235 231.283 305.517 231.605 305.856 231.822C306.196 232.033 306.598 232.139 307.061 232.139C307.512 232.139 307.875 232.027 308.15 231.805C308.432 231.582 308.572 231.289 308.572 230.926C308.572 230.645 308.476 230.41 308.282 230.223C308.095 230.035 307.77 229.862 307.307 229.704C307.26 229.687 307.184 229.66 307.078 229.625C305.121 228.951 304.143 228.107 304.143 227.094C304.143 226.379 304.406 225.796 304.934 225.345C305.461 224.894 306.146 224.668 306.99 224.668C307.688 224.668 308.285 224.809 308.783 225.09C309.281 225.365 309.639 225.758 309.855 226.268L308.739 226.953C308.575 226.584 308.332 226.3 308.01 226.101C307.693 225.901 307.324 225.802 306.902 225.802C306.498 225.802 306.167 225.916 305.909 226.145C305.657 226.367 305.531 226.654 305.531 227.006C305.531 227.498 306.064 227.911 307.131 228.245C307.33 228.31 307.488 228.359 307.605 228.395C308.479 228.676 309.085 228.998 309.425 229.361C309.771 229.719 309.943 230.193 309.943 230.785C309.943 231.547 309.671 232.165 309.126 232.64C308.587 233.108 307.881 233.343 307.008 233.343C306.258 233.343 305.619 233.202 305.092 232.921C304.57 232.64 304.151 232.215 303.835 231.646ZM44.7334 249.001C44.7334 249.903 44.9824 250.627 45.4805 251.172C45.9785 251.717 46.6377 251.989 47.458 251.989C48.2607 251.989 48.8906 251.74 49.3477 251.242C49.8105 250.744 50.042 250.053 50.042 249.168C50.042 248.178 49.8105 247.401 49.3477 246.839C48.8906 246.276 48.252 245.995 47.4316 245.995C46.5938 245.995 45.9346 246.262 45.4541 246.795C44.9736 247.328 44.7334 248.063 44.7334 249.001ZM43.4062 256.92V244.958H44.7158V246.47C45.0264 245.89 45.4365 245.444 45.9463 245.134C46.4561 244.823 47.0244 244.668 47.6514 244.668C48.8115 244.668 49.7432 245.063 50.4463 245.854C51.1494 246.646 51.501 247.694 51.501 249.001C51.501 250.331 51.1553 251.389 50.4639 252.174C49.7783 252.953 48.8584 253.343 47.7041 253.343C47.042 253.343 46.4648 253.193 45.9727 252.895C45.4805 252.59 45.0791 252.139 44.7686 251.541V256.92H43.4062ZM59.8594 249.054C59.8594 248.146 59.6104 247.416 59.1123 246.865C58.6201 246.309 57.9756 246.03 57.1787 246.03C56.3525 246.03 55.708 246.285 55.2451 246.795C54.7822 247.305 54.5508 248.017 54.5508 248.931C54.5508 249.903 54.7822 250.653 55.2451 251.181C55.7139 251.708 56.376 251.972 57.2314 251.972C58.0518 251.972 58.6934 251.717 59.1562 251.207C59.625 250.691 59.8594 249.974 59.8594 249.054ZM61.1953 244.958V253H59.8594V251.541C59.5371 252.127 59.124 252.575 58.6201 252.886C58.1221 253.19 57.5625 253.343 56.9414 253.343C55.7871 253.343 54.8555 252.947 54.1465 252.156C53.4434 251.359 53.0918 250.308 53.0918 249.001C53.0918 247.677 53.4346 246.625 54.1201 245.846C54.8057 245.061 55.7227 244.668 56.8711 244.668C57.5449 244.668 58.1279 244.82 58.6201 245.125C59.1182 245.424 59.5195 245.872 59.8242 246.47V244.958H61.1953ZM63.9727 253V244.958H65.1943V246.628C65.5635 245.931 65.9561 245.433 66.3721 245.134C66.7881 244.835 67.2949 244.686 67.8926 244.686C68.0566 244.686 68.2148 244.7 68.3672 244.729C68.5195 244.753 68.6719 244.791 68.8242 244.844L68.3672 246.083C68.209 246.03 68.0596 245.992 67.9189 245.969C67.7783 245.939 67.6436 245.925 67.5146 245.925C66.7881 245.925 66.2432 246.188 65.8799 246.716C65.5166 247.237 65.335 248.025 65.335 249.08V253H63.9727ZM76.4355 249.054C76.4355 248.146 76.1865 247.416 75.6885 246.865C75.1963 246.309 74.5518 246.03 73.7549 246.03C72.9287 246.03 72.2842 246.285 71.8213 246.795C71.3584 247.305 71.127 248.017 71.127 248.931C71.127 249.903 71.3584 250.653 71.8213 251.181C72.29 251.708 72.9521 251.972 73.8076 251.972C74.6279 251.972 75.2695 251.717 75.7324 251.207C76.2012 250.691 76.4355 249.974 76.4355 249.054ZM77.7715 244.958V253H76.4355V251.541C76.1133 252.127 75.7002 252.575 75.1963 252.886C74.6982 253.19 74.1387 253.343 73.5176 253.343C72.3633 253.343 71.4316 252.947 70.7227 252.156C70.0195 251.359 69.668 250.308 69.668 249.001C69.668 247.677 70.0107 246.625 70.6963 245.846C71.3818 245.061 72.2988 244.668 73.4473 244.668C74.1211 244.668 74.7041 244.82 75.1963 245.125C75.6943 245.424 76.0957 245.872 76.4004 246.47V244.958H77.7715ZM91.9922 249.019C91.9922 248.122 91.7432 247.401 91.2451 246.856C90.7471 246.306 90.0908 246.03 89.2764 246.03C88.4619 246.03 87.8262 246.279 87.3691 246.777C86.9121 247.275 86.6836 247.964 86.6836 248.843C86.6836 249.833 86.915 250.609 87.3779 251.172C87.8408 251.729 88.4795 252.007 89.2939 252.007C90.1377 252.007 90.7969 251.743 91.2715 251.216C91.752 250.688 91.9922 249.956 91.9922 249.019ZM93.3281 239.377V253H91.9922V251.541C91.6758 252.121 91.2656 252.566 90.7617 252.877C90.2578 253.188 89.6953 253.343 89.0742 253.343C87.9199 253.343 86.9883 252.947 86.2793 252.156C85.5762 251.359 85.2246 250.308 85.2246 249.001C85.2246 247.683 85.5703 246.631 86.2617 245.846C86.9531 245.061 87.873 244.668 89.0215 244.668C89.6895 244.668 90.2695 244.82 90.7617 245.125C91.2539 245.424 91.6523 245.872 91.957 246.47V239.377H93.3281ZM102.293 249.054C102.293 248.146 102.044 247.416 101.546 246.865C101.054 246.309 100.409 246.03 99.6123 246.03C98.7861 246.03 98.1416 246.285 97.6787 246.795C97.2158 247.305 96.9844 248.017 96.9844 248.931C96.9844 249.903 97.2158 250.653 97.6787 251.181C98.1475 251.708 98.8096 251.972 99.665 251.972C100.485 251.972 101.127 251.717 101.59 251.207C102.059 250.691 102.293 249.974 102.293 249.054ZM103.629 244.958V253H102.293V251.541C101.971 252.127 101.558 252.575 101.054 252.886C100.556 253.19 99.9961 253.343 99.375 253.343C98.2207 253.343 97.2891 252.947 96.5801 252.156C95.877 251.359 95.5254 250.308 95.5254 249.001C95.5254 247.677 95.8682 246.625 96.5537 245.846C97.2393 245.061 98.1562 244.668 99.3047 244.668C99.9785 244.668 100.562 244.82 101.054 245.125C101.552 245.424 101.953 245.872 102.258 246.47V244.958H103.629ZM106.406 253V244.958H107.628V246.628C107.997 245.931 108.39 245.433 108.806 245.134C109.222 244.835 109.729 244.686 110.326 244.686C110.49 244.686 110.648 244.7 110.801 244.729C110.953 244.753 111.105 244.791 111.258 244.844L110.801 246.083C110.643 246.03 110.493 245.992 110.353 245.969C110.212 245.939 110.077 245.925 109.948 245.925C109.222 245.925 108.677 246.188 108.313 246.716C107.95 247.237 107.769 248.025 107.769 249.08V253H106.406ZM112.787 253V239.377H114.193V253H112.787ZM122.78 248.069C122.733 247.36 122.496 246.815 122.068 246.435C121.646 246.048 121.066 245.854 120.328 245.854C119.66 245.854 119.104 246.057 118.658 246.461C118.213 246.859 117.955 247.396 117.885 248.069H122.78ZM124.257 249.186H117.885V249.309C117.885 250.17 118.131 250.867 118.623 251.4C119.115 251.928 119.757 252.191 120.548 252.191C121.087 252.191 121.573 252.048 122.007 251.761C122.44 251.468 122.824 251.028 123.158 250.442L124.204 251.146C123.8 251.872 123.284 252.42 122.657 252.789C122.03 253.158 121.304 253.343 120.478 253.343C119.253 253.343 118.263 252.938 117.507 252.13C116.751 251.321 116.373 250.261 116.373 248.948C116.373 247.688 116.748 246.657 117.498 245.854C118.248 245.052 119.212 244.65 120.39 244.65C121.579 244.65 122.52 245.031 123.211 245.793C123.908 246.555 124.257 247.595 124.257 248.913V249.186ZM134.294 253.501L130.312 244.958H131.859L134.276 250.574L136.702 244.958H138.249L134.294 253.501ZM139.479 241.082C139.479 240.807 139.576 240.572 139.77 240.379C139.969 240.18 140.209 240.08 140.49 240.08C140.766 240.08 141 240.18 141.193 240.379C141.393 240.578 141.492 240.818 141.492 241.1C141.492 241.375 141.396 241.609 141.202 241.803C141.009 241.996 140.771 242.093 140.49 242.093C140.209 242.093 139.969 241.996 139.77 241.803C139.576 241.609 139.479 241.369 139.479 241.082ZM139.805 253V244.958H141.193V253H139.805ZM150.246 249.019C150.246 248.122 149.997 247.401 149.499 246.856C149.001 246.306 148.345 246.03 147.53 246.03C146.716 246.03 146.08 246.279 145.623 246.777C145.166 247.275 144.938 247.964 144.938 248.843C144.938 249.833 145.169 250.609 145.632 251.172C146.095 251.729 146.733 252.007 147.548 252.007C148.392 252.007 149.051 251.743 149.525 251.216C150.006 250.688 150.246 249.956 150.246 249.019ZM151.582 239.377V253H150.246V251.541C149.93 252.121 149.52 252.566 149.016 252.877C148.512 253.188 147.949 253.343 147.328 253.343C146.174 253.343 145.242 252.947 144.533 252.156C143.83 251.359 143.479 250.308 143.479 249.001C143.479 247.683 143.824 246.631 144.516 245.846C145.207 245.061 146.127 244.668 147.275 244.668C147.943 244.668 148.523 244.82 149.016 245.125C149.508 245.424 149.906 245.872 150.211 246.47V239.377H151.582ZM160.547 249.054C160.547 248.146 160.298 247.416 159.8 246.865C159.308 246.309 158.663 246.03 157.866 246.03C157.04 246.03 156.396 246.285 155.933 246.795C155.47 247.305 155.238 248.017 155.238 248.931C155.238 249.903 155.47 250.653 155.933 251.181C156.401 251.708 157.063 251.972 157.919 251.972C158.739 251.972 159.381 251.717 159.844 251.207C160.312 250.691 160.547 249.974 160.547 249.054ZM161.883 244.958V253H160.547V251.541C160.225 252.127 159.812 252.575 159.308 252.886C158.81 253.19 158.25 253.343 157.629 253.343C156.475 253.343 155.543 252.947 154.834 252.156C154.131 251.359 153.779 250.308 153.779 249.001C153.779 247.677 154.122 246.625 154.808 245.846C155.493 245.061 156.41 244.668 157.559 244.668C158.232 244.668 158.815 244.82 159.308 245.125C159.806 245.424 160.207 245.872 160.512 246.47V244.958H161.883ZM176.104 249.054C176.104 248.146 175.854 247.416 175.356 246.865C174.864 246.309 174.22 246.03 173.423 246.03C172.597 246.03 171.952 246.285 171.489 246.795C171.026 247.305 170.795 248.017 170.795 248.931C170.795 249.903 171.026 250.653 171.489 251.181C171.958 251.708 172.62 251.972 173.476 251.972C174.296 251.972 174.938 251.717 175.4 251.207C175.869 250.691 176.104 249.974 176.104 249.054ZM177.439 244.958V253H176.104V251.541C175.781 252.127 175.368 252.575 174.864 252.886C174.366 253.19 173.807 253.343 173.186 253.343C172.031 253.343 171.1 252.947 170.391 252.156C169.688 251.359 169.336 250.308 169.336 249.001C169.336 247.677 169.679 246.625 170.364 245.846C171.05 245.061 171.967 244.668 173.115 244.668C173.789 244.668 174.372 244.82 174.864 245.125C175.362 245.424 175.764 245.872 176.068 246.47V244.958H177.439ZM185.719 246.092H184.242V244.958H185.719V241.715H187.125V244.958H188.602V246.092H187.125V253H185.719V246.092ZM191.458 244.958V248.913C191.458 250.067 191.628 250.876 191.968 251.339C192.313 251.796 192.894 252.024 193.708 252.024C194.522 252.024 195.097 251.799 195.431 251.348C195.771 250.891 195.94 250.079 195.94 248.913V244.958H197.347V249.651C197.347 250.864 197.036 251.784 196.415 252.411C195.794 253.032 194.88 253.343 193.673 253.343C192.478 253.343 191.569 253.029 190.948 252.402C190.327 251.775 190.017 250.858 190.017 249.651V244.958H191.458ZM199.157 251.646L200.335 250.855C200.558 251.283 200.839 251.605 201.179 251.822C201.519 252.033 201.92 252.139 202.383 252.139C202.834 252.139 203.197 252.027 203.473 251.805C203.754 251.582 203.895 251.289 203.895 250.926C203.895 250.645 203.798 250.41 203.604 250.223C203.417 250.035 203.092 249.862 202.629 249.704C202.582 249.687 202.506 249.66 202.4 249.625C200.443 248.951 199.465 248.107 199.465 247.094C199.465 246.379 199.729 245.796 200.256 245.345C200.783 244.894 201.469 244.668 202.312 244.668C203.01 244.668 203.607 244.809 204.105 245.09C204.604 245.365 204.961 245.758 205.178 246.268L204.062 246.953C203.897 246.584 203.654 246.3 203.332 246.101C203.016 245.901 202.646 245.802 202.225 245.802C201.82 245.802 201.489 245.916 201.231 246.145C200.979 246.367 200.854 246.654 200.854 247.006C200.854 247.498 201.387 247.911 202.453 248.245C202.652 248.31 202.811 248.359 202.928 248.395C203.801 248.676 204.407 248.998 204.747 249.361C205.093 249.719 205.266 250.193 205.266 250.785C205.266 251.547 204.993 252.165 204.448 252.64C203.909 253.108 203.203 253.343 202.33 253.343C201.58 253.343 200.941 253.202 200.414 252.921C199.893 252.64 199.474 252.215 199.157 251.646ZM213.976 249.001C213.976 249.903 214.225 250.627 214.723 251.172C215.221 251.717 215.88 251.989 216.7 251.989C217.503 251.989 218.133 251.74 218.59 251.242C219.053 250.744 219.284 250.053 219.284 249.168C219.284 248.178 219.053 247.401 218.59 246.839C218.133 246.276 217.494 245.995 216.674 245.995C215.836 245.995 215.177 246.262 214.696 246.795C214.216 247.328 213.976 248.063 213.976 249.001ZM212.648 256.92V244.958H213.958V246.47C214.269 245.89 214.679 245.444 215.188 245.134C215.698 244.823 216.267 244.668 216.894 244.668C218.054 244.668 218.985 245.063 219.688 245.854C220.392 246.646 220.743 247.694 220.743 249.001C220.743 250.331 220.397 251.389 219.706 252.174C219.021 252.953 218.101 253.343 216.946 253.343C216.284 253.343 215.707 253.193 215.215 252.895C214.723 252.59 214.321 252.139 214.011 251.541V256.92H212.648ZM222.967 253V244.958H224.188V246.628C224.558 245.931 224.95 245.433 225.366 245.134C225.782 244.835 226.289 244.686 226.887 244.686C227.051 244.686 227.209 244.7 227.361 244.729C227.514 244.753 227.666 244.791 227.818 244.844L227.361 246.083C227.203 246.03 227.054 245.992 226.913 245.969C226.772 245.939 226.638 245.925 226.509 245.925C225.782 245.925 225.237 246.188 224.874 246.716C224.511 247.237 224.329 248.025 224.329 249.08V253H222.967ZM230.086 249.001C230.086 249.851 230.37 250.571 230.938 251.163C231.507 251.749 232.195 252.042 233.004 252.042C233.807 252.042 234.489 251.749 235.052 251.163C235.614 250.571 235.896 249.851 235.896 249.001C235.896 248.151 235.614 247.434 235.052 246.848C234.489 246.256 233.807 245.96 233.004 245.96C232.189 245.96 231.498 246.256 230.93 246.848C230.367 247.434 230.086 248.151 230.086 249.001ZM228.627 249.001C228.627 248.409 228.735 247.853 228.952 247.331C229.169 246.804 229.485 246.335 229.901 245.925C230.317 245.515 230.789 245.204 231.316 244.993C231.844 244.776 232.406 244.668 233.004 244.668C233.59 244.668 234.144 244.776 234.665 244.993C235.192 245.21 235.67 245.526 236.098 245.942C236.514 246.347 236.83 246.812 237.047 247.34C237.264 247.861 237.372 248.415 237.372 249.001C237.372 249.587 237.264 250.141 237.047 250.662C236.83 251.178 236.514 251.638 236.098 252.042C235.67 252.464 235.189 252.786 234.656 253.009C234.129 253.231 233.578 253.343 233.004 253.343C232.412 253.343 231.85 253.231 231.316 253.009C230.789 252.792 230.317 252.479 229.901 252.068C229.485 251.646 229.169 251.178 228.952 250.662C228.735 250.146 228.627 249.593 228.627 249.001ZM239.2 256.92L241.38 252.209L238.225 244.958H239.815L242.153 250.732L244.632 244.958H246.144L240.747 256.92H239.2ZM253.157 248.069C253.11 247.36 252.873 246.815 252.445 246.435C252.023 246.048 251.443 245.854 250.705 245.854C250.037 245.854 249.48 246.057 249.035 246.461C248.59 246.859 248.332 247.396 248.262 248.069H253.157ZM254.634 249.186H248.262V249.309C248.262 250.17 248.508 250.867 249 251.4C249.492 251.928 250.134 252.191 250.925 252.191C251.464 252.191 251.95 252.048 252.384 251.761C252.817 251.468 253.201 251.028 253.535 250.442L254.581 251.146C254.177 251.872 253.661 252.42 253.034 252.789C252.407 253.158 251.681 253.343 250.854 253.343C249.63 253.343 248.64 252.938 247.884 252.13C247.128 251.321 246.75 250.261 246.75 248.948C246.75 247.688 247.125 246.657 247.875 245.854C248.625 245.052 249.589 244.65 250.767 244.65C251.956 244.65 252.896 245.031 253.588 245.793C254.285 246.555 254.634 247.595 254.634 248.913V249.186ZM262.887 251.093V252.692C262.523 252.909 262.113 253.07 261.656 253.176C261.205 253.287 260.716 253.343 260.188 253.343C258.946 253.343 257.944 252.95 257.183 252.165C256.427 251.374 256.049 250.337 256.049 249.054C256.049 247.765 256.441 246.713 257.227 245.898C258.012 245.078 259.017 244.668 260.241 244.668C260.687 244.668 261.12 244.715 261.542 244.809C261.97 244.902 262.371 245.04 262.746 245.222V246.698C262.395 246.47 262.031 246.297 261.656 246.18C261.281 246.057 260.9 245.995 260.514 245.995C259.611 245.995 258.888 246.279 258.343 246.848C257.798 247.41 257.525 248.16 257.525 249.098C257.525 249.924 257.798 250.615 258.343 251.172C258.894 251.729 259.582 252.007 260.408 252.007C260.824 252.007 261.231 251.934 261.63 251.787C262.028 251.641 262.447 251.409 262.887 251.093ZM265.014 246.092H263.537V244.958H265.014V241.715H266.42V244.958H267.896V246.092H266.42V253H265.014V246.092ZM270.27 249.001C270.27 249.851 270.554 250.571 271.122 251.163C271.69 251.749 272.379 252.042 273.188 252.042C273.99 252.042 274.673 251.749 275.235 251.163C275.798 250.571 276.079 249.851 276.079 249.001C276.079 248.151 275.798 247.434 275.235 246.848C274.673 246.256 273.99 245.96 273.188 245.96C272.373 245.96 271.682 246.256 271.113 246.848C270.551 247.434 270.27 248.151 270.27 249.001ZM268.811 249.001C268.811 248.409 268.919 247.853 269.136 247.331C269.353 246.804 269.669 246.335 270.085 245.925C270.501 245.515 270.973 245.204 271.5 244.993C272.027 244.776 272.59 244.668 273.188 244.668C273.773 244.668 274.327 244.776 274.849 244.993C275.376 245.21 275.854 245.526 276.281 245.942C276.697 246.347 277.014 246.812 277.23 247.34C277.447 247.861 277.556 248.415 277.556 249.001C277.556 249.587 277.447 250.141 277.23 250.662C277.014 251.178 276.697 251.638 276.281 252.042C275.854 252.464 275.373 252.786 274.84 253.009C274.312 253.231 273.762 253.343 273.188 253.343C272.596 253.343 272.033 253.231 271.5 253.009C270.973 252.792 270.501 252.479 270.085 252.068C269.669 251.646 269.353 251.178 269.136 250.662C268.919 250.146 268.811 249.593 268.811 249.001ZM278.856 251.646L280.034 250.855C280.257 251.283 280.538 251.605 280.878 251.822C281.218 252.033 281.619 252.139 282.082 252.139C282.533 252.139 282.896 252.027 283.172 251.805C283.453 251.582 283.594 251.289 283.594 250.926C283.594 250.645 283.497 250.41 283.304 250.223C283.116 250.035 282.791 249.862 282.328 249.704C282.281 249.687 282.205 249.66 282.1 249.625C280.143 248.951 279.164 248.107 279.164 247.094C279.164 246.379 279.428 245.796 279.955 245.345C280.482 244.894 281.168 244.668 282.012 244.668C282.709 244.668 283.307 244.809 283.805 245.09C284.303 245.365 284.66 245.758 284.877 246.268L283.761 246.953C283.597 246.584 283.354 246.3 283.031 246.101C282.715 245.901 282.346 245.802 281.924 245.802C281.52 245.802 281.188 245.916 280.931 246.145C280.679 246.367 280.553 246.654 280.553 247.006C280.553 247.498 281.086 247.911 282.152 248.245C282.352 248.31 282.51 248.359 282.627 248.395C283.5 248.676 284.106 248.998 284.446 249.361C284.792 249.719 284.965 250.193 284.965 250.785C284.965 251.547 284.692 252.165 284.147 252.64C283.608 253.108 282.902 253.343 282.029 253.343C281.279 253.343 280.641 253.202 280.113 252.921C279.592 252.64 279.173 252.215 278.856 251.646Z" fill="white"/>
<path d="M54.784 6.96C52.336 5.616 49.552 4.848 46.72 4.848C36.112 4.848 28.864 13.92 28.864 24.192C28.864 34.176 36.4 42.96 46.576 42.96C49.504 42.96 52.144 42.048 54.784 40.8V32.4C52.816 34.656 49.792 36.24 46.768 36.24C40.192 36.24 36.16 30.144 36.16 24.048C36.16 17.808 40.048 11.568 46.816 11.568C49.84 11.568 52.816 13.008 54.784 15.408V6.96ZM96.5001 23.856C96.5001 13.104 89.3961 4.848 78.5961 4.848C67.7961 4.848 60.6921 13.104 60.6921 23.856C60.6921 34.512 67.5561 42.96 78.5961 42.96C89.6361 42.96 96.5001 34.512 96.5001 23.856ZM89.2041 23.568C89.2041 29.136 86.4201 36 78.5961 36C70.7721 36 67.9881 29.136 67.9881 23.568C67.9881 17.712 71.9241 11.808 78.5961 11.808C85.2681 11.808 89.2041 17.712 89.2041 23.568ZM102.967 42H110.023V17.424H110.119L129.175 42.72H134.263V5.808H127.207V30.144H127.111L108.055 4.848H102.967V42ZM162.741 8.88C160.533 6.432 156.069 4.848 152.853 4.848C146.757 4.848 142.293 9.696 142.293 15.696C142.293 21.312 145.701 23.664 150.357 25.584C153.189 26.688 156.645 27.744 156.645 31.488C156.645 34.272 154.869 36.72 151.989 36.72C148.965 36.72 146.421 34.224 145.461 31.44L140.901 35.904C143.397 40.08 147.045 42.96 152.037 42.96C159.429 42.96 163.941 37.824 163.941 30.576C163.941 18.432 149.589 20.976 149.589 14.88C149.589 12.528 151.749 10.8 154.005 10.8C156.357 10.8 158.085 11.952 159.429 13.776L162.741 8.88ZM182.415 11.952H189.711V5.808H168.062V11.952H175.359V42H182.415V11.952ZM209.567 26.736C214.415 25.92 216.959 21.312 216.959 16.704C216.959 8.976 212.015 5.808 204.863 5.808H195.311V42H202.367V27.408H202.463L211.247 42H219.791L209.567 26.736ZM202.367 11.568H203.327C207.071 11.568 209.903 12.432 209.903 16.896C209.903 21.312 207.167 22.464 203.279 22.464H202.367V11.568ZM224.884 27.456C224.884 36.288 228.628 42.96 238.324 42.96C248.02 42.96 251.764 36.288 251.764 27.456V5.808H244.708V26.064C244.708 30.528 244.324 36.816 238.324 36.816C232.324 36.816 231.94 30.528 231.94 26.064V5.808H224.884V27.456ZM266.82 5.808H259.764V42H266.82V5.808ZM304.855 42H311.959L306.535 4.848H301.447L292.903 28.704L283.975 4.848H278.983L272.887 42H279.991L283.207 19.536H283.303L291.223 42.48H293.671L301.879 19.536H301.975L304.855 42ZM352.156 23.856C352.156 13.104 345.052 4.848 334.252 4.848C323.452 4.848 316.348 13.104 316.348 23.856C316.348 34.512 323.212 42.96 334.252 42.96C345.292 42.96 352.156 34.512 352.156 23.856ZM344.86 23.568C344.86 29.136 342.076 36 334.252 36C326.428 36 323.644 29.136 323.644 23.568C323.644 17.712 327.58 11.808 334.252 11.808C340.924 11.808 344.86 17.712 344.86 23.568ZM378.975 8.88C376.767 6.432 372.303 4.848 369.087 4.848C362.991 4.848 358.527 9.696 358.527 15.696C358.527 21.312 361.935 23.664 366.591 25.584C369.423 26.688 372.879 27.744 372.879 31.488C372.879 34.272 371.103 36.72 368.223 36.72C365.199 36.72 362.655 34.224 361.695 31.44L357.135 35.904C359.631 40.08 363.279 42.96 368.271 42.96C375.663 42.96 380.175 37.824 380.175 30.576C380.175 18.432 365.823 20.976 365.823 14.88C365.823 12.528 367.983 10.8 370.239 10.8C372.591 10.8 374.319 11.952 375.663 13.776L378.975 8.88ZM50.944 56.88C48.736 54.432 44.272 52.848 41.056 52.848C34.96 52.848 30.496 57.696 30.496 63.696C30.496 69.312 33.904 71.664 38.56 73.584C41.392 74.688 44.848 75.744 44.848 79.488C44.848 82.272 43.072 84.72 40.192 84.72C37.168 84.72 34.624 82.224 33.664 79.44L29.104 83.904C31.6 88.08 35.248 90.96 40.24 90.96C47.632 90.96 52.144 85.824 52.144 78.576C52.144 66.432 37.792 68.976 37.792 62.88C37.792 60.528 39.952 58.8 42.208 58.8C44.56 58.8 46.288 59.952 47.632 61.776L50.944 56.88ZM92.9376 71.856C92.9376 61.104 85.8336 52.848 75.0336 52.848C64.2336 52.848 57.1296 61.104 57.1296 71.856C57.1296 82.512 63.9936 90.96 75.0336 90.96C86.0736 90.96 92.9376 82.512 92.9376 71.856ZM85.6416 71.568C85.6416 77.136 82.8576 84 75.0336 84C67.2096 84 64.4256 77.136 64.4256 71.568C64.4256 65.712 68.3616 59.808 75.0336 59.808C81.7056 59.808 85.6416 65.712 85.6416 71.568ZM106.461 53.808H99.4045V90H116.445V83.856H106.461V53.808ZM121.525 75.456C121.525 84.288 125.269 90.96 134.965 90.96C144.661 90.96 148.405 84.288 148.405 75.456V53.808H141.349V74.064C141.349 78.528 140.965 84.816 134.965 84.816C128.965 84.816 128.581 78.528 128.581 74.064V53.808H121.525V75.456ZM180.597 54.96C178.149 53.616 175.365 52.848 172.533 52.848C161.925 52.848 154.677 61.92 154.677 72.192C154.677 82.176 162.213 90.96 172.389 90.96C175.317 90.96 177.957 90.048 180.597 88.8V80.4C178.629 82.656 175.605 84.24 172.581 84.24C166.005 84.24 161.973 78.144 161.973 72.048C161.973 65.808 165.861 59.568 172.629 59.568C175.653 59.568 178.629 61.008 180.597 63.408V54.96ZM195.289 53.808H188.233V90H195.289V53.808ZM237.5 71.856C237.5 61.104 230.396 52.848 219.596 52.848C208.796 52.848 201.692 61.104 201.692 71.856C201.692 82.512 208.556 90.96 219.596 90.96C230.636 90.96 237.5 82.512 237.5 71.856ZM230.204 71.568C230.204 77.136 227.42 84 219.596 84C211.772 84 208.988 77.136 208.988 71.568C208.988 65.712 212.924 59.808 219.596 59.808C226.268 59.808 230.204 65.712 230.204 71.568ZM243.967 90H251.023V65.424H251.119L270.175 90.72H275.263V53.808H268.207V78.144H268.111L249.055 52.848H243.967V90ZM302.109 59.952V53.808H283.389V90H302.109V83.856H290.445V74.064H301.677V67.92H290.445V59.952H302.109ZM330.178 56.88C327.97 54.432 323.506 52.848 320.29 52.848C314.194 52.848 309.73 57.696 309.73 63.696C309.73 69.312 313.138 71.664 317.794 73.584C320.626 74.688 324.082 75.744 324.082 79.488C324.082 82.272 322.306 84.72 319.426 84.72C316.402 84.72 313.858 82.224 312.898 79.44L308.338 83.904C310.834 88.08 314.482 90.96 319.474 90.96C326.866 90.96 331.378 85.824 331.378 78.576C331.378 66.432 317.026 68.976 317.026 62.88C317.026 60.528 319.186 58.8 321.442 58.8C323.794 58.8 325.522 59.952 326.866 61.776L330.178 56.88ZM50.56 130.368L53.344 138H60.88L47.152 100.848H41.68L27.568 138H35.008L37.984 130.368H50.56ZM48.592 124.608H40L43.984 111.456H44.08L48.592 124.608ZM89.9605 101.808H82.9045V138H99.9445V131.856H89.9605V101.808ZM125.185 130.368L127.969 138H135.505L121.777 100.848H116.305L102.193 138H109.633L112.609 130.368H125.185ZM123.217 124.608H114.625L118.609 111.456H118.705L123.217 124.608ZM187.434 138H194.538L189.114 100.848H184.026L175.482 124.704L166.554 100.848H161.562L155.466 138H162.57L165.786 115.536H165.882L173.802 138.48H176.25L184.458 115.536H184.554L187.434 138ZM219.375 107.952V101.808H200.655V138H219.375V131.856H207.711V122.064H218.943V115.92H207.711V107.952H219.375ZM227.092 138H237.124C247.444 138 254.644 130.128 254.644 119.952C254.644 109.632 247.636 101.808 237.172 101.808H227.092V138ZM234.148 107.952H235.3C243.316 107.952 247.348 112.032 247.348 119.904C247.348 127.056 243.988 131.856 235.3 131.856H234.148V107.952ZM268.179 101.808H261.123V138H268.179V101.808ZM276.311 138H286.343C296.663 138 303.863 130.128 303.863 119.952C303.863 109.632 296.855 101.808 286.391 101.808H276.311V138ZM283.367 107.952H284.519C292.535 107.952 296.567 112.032 296.567 119.904C296.567 127.056 293.207 131.856 284.519 131.856H283.367V107.952ZM330.31 130.368L333.094 138H340.63L326.902 100.848H321.43L307.318 138H314.758L317.734 130.368H330.31ZM328.342 124.608H319.75L323.734 111.456H323.83L328.342 124.608ZM30.592 186H40.624C50.944 186 58.144 178.128 58.144 167.952C58.144 157.632 51.136 149.808 40.672 149.808H30.592V186ZM37.648 155.952H38.8C46.816 155.952 50.848 160.032 50.848 167.904C50.848 175.056 47.488 179.856 38.8 179.856H37.648V155.952ZM83.3433 155.952V149.808H64.6233V186H83.3433V179.856H71.6793V170.064H82.9113V163.92H71.6793V155.952H83.3433ZM119.696 155.952H126.992V149.808H105.344V155.952H112.64V186H119.696V155.952ZM132.4 171.456C132.4 180.288 136.144 186.96 145.84 186.96C155.536 186.96 159.28 180.288 159.28 171.456V149.808H152.224V170.064C152.224 174.528 151.84 180.816 145.84 180.816C139.84 180.816 139.456 174.528 139.456 170.064V149.808H132.4V171.456ZM184.155 186H191.211V161.424H191.307L210.363 186.72H215.451V149.808H208.395V174.144H208.299L189.243 148.848H184.155V186ZM242.296 155.952V149.808H223.576V186H242.296V179.856H230.632V170.064H241.864V163.92H230.632V155.952H242.296ZM266.382 166.752V172.512H274.062C273.918 176.88 270.222 180.72 265.806 180.72C258.99 180.72 255.582 174.048 255.582 168.048C255.582 162.048 258.942 155.088 265.758 155.088C269.502 155.088 272.574 157.584 274.014 160.848L280.254 157.488C277.47 151.968 272.094 148.848 265.95 148.848C255.15 148.848 248.286 157.728 248.286 168.048C248.286 178.032 254.958 186.96 265.518 186.96C276.75 186.96 281.982 177.888 281.982 167.664V166.752H266.382ZM322.578 167.856C322.578 157.104 315.474 148.848 304.674 148.848C293.874 148.848 286.77 157.104 286.77 167.856C286.77 178.512 293.634 186.96 304.674 186.96C315.714 186.96 322.578 178.512 322.578 167.856ZM315.282 167.568C315.282 173.136 312.498 180 304.674 180C296.85 180 294.066 173.136 294.066 167.568C294.066 161.712 298.002 155.808 304.674 155.808C311.346 155.808 315.282 161.712 315.282 167.568ZM353.237 150.96C350.789 149.616 348.005 148.848 345.173 148.848C334.565 148.848 327.317 157.92 327.317 168.192C327.317 178.176 334.853 186.96 345.029 186.96C347.957 186.96 350.597 186.048 353.237 184.8V176.4C351.269 178.656 348.245 180.24 345.221 180.24C338.645 180.24 334.613 174.144 334.613 168.048C334.613 161.808 338.501 155.568 345.269 155.568C348.293 155.568 351.269 157.008 353.237 159.408V150.96ZM367.929 149.808H360.873V186H367.929V149.808ZM410.141 167.856C410.141 157.104 403.037 148.848 392.237 148.848C381.437 148.848 374.333 157.104 374.333 167.856C374.333 178.512 381.197 186.96 392.237 186.96C403.277 186.96 410.141 178.512 410.141 167.856ZM402.845 167.568C402.845 173.136 400.061 180 392.237 180C384.413 180 381.629 173.136 381.629 167.568C381.629 161.712 385.565 155.808 392.237 155.808C398.909 155.808 402.845 161.712 402.845 167.568Z" fill="white"/>
</svg>
