<svg width="550" height="246" viewBox="0 0 550 246" fill="none" xmlns="http://www.w3.org/2000/svg">
<path d="M26.744 183H14.686C10.2678 183 6.68604 179.418 6.68604 175V14" stroke="white" stroke-width="1.5"/>
<path d="M12.622 7.0784C12.622 10.6144 9.92461 13.4068 6.68598 13.4068C3.44736 13.4068 0.75 10.6144 0.75 7.0784C0.75 3.54244 3.44736 0.75 6.68598 0.75C9.92461 0.75 12.622 3.54244 12.622 7.0784Z" stroke="white" stroke-width="1.5"/>
<rect x="25" y="161" width="271" height="85" rx="16" fill="#002A61"/>
<path d="M49.541 197.501L45.542 188.255L43.9248 197H42.4307L45.041 183.623L49.541 194.267L54.041 183.623L56.6514 197H55.1572L53.5225 188.255L49.541 197.501ZM64.6406 193.054C64.6406 192.146 64.3916 191.416 63.8936 190.865C63.4014 190.309 62.7568 190.03 61.96 190.03C61.1338 190.03 60.4893 190.285 60.0264 190.795C59.5635 191.305 59.332 192.017 59.332 192.931C59.332 193.903 59.5635 194.653 60.0264 195.181C60.4951 195.708 61.1572 195.972 62.0127 195.972C62.833 195.972 63.4746 195.717 63.9375 195.207C64.4062 194.691 64.6406 193.974 64.6406 193.054ZM65.9766 188.958V197H64.6406V195.541C64.3184 196.127 63.9053 196.575 63.4014 196.886C62.9033 197.19 62.3438 197.343 61.7227 197.343C60.5684 197.343 59.6367 196.947 58.9277 196.156C58.2246 195.359 57.873 194.308 57.873 193.001C57.873 191.677 58.2158 190.625 58.9014 189.846C59.5869 189.061 60.5039 188.668 61.6523 188.668C62.3262 188.668 62.9092 188.82 63.4014 189.125C63.8994 189.424 64.3008 189.872 64.6055 190.47V188.958H65.9766ZM68.7363 197V188.958H70.0811V190.197C70.4268 189.682 70.8428 189.298 71.3291 189.046C71.8154 188.794 72.3779 188.668 73.0166 188.668C73.9658 188.668 74.707 188.92 75.2402 189.424C75.7734 189.928 76.04 190.628 76.04 191.524V197H74.6338V192.263C74.6338 191.448 74.4609 190.845 74.1152 190.452C73.7754 190.054 73.248 189.854 72.5332 189.854C72.123 189.854 71.748 189.931 71.4082 190.083C71.0742 190.229 70.7959 190.44 70.5732 190.716C70.4033 190.927 70.2803 191.167 70.2041 191.437C70.1338 191.706 70.0986 192.175 70.0986 192.843V197H68.7363ZM84.4775 192.069C84.4307 191.36 84.1934 190.815 83.7656 190.435C83.3438 190.048 82.7637 189.854 82.0254 189.854C81.3574 189.854 80.8008 190.057 80.3555 190.461C79.9102 190.859 79.6523 191.396 79.582 192.069H84.4775ZM85.9541 193.186H79.582V193.309C79.582 194.17 79.8281 194.867 80.3203 195.4C80.8125 195.928 81.4541 196.191 82.2451 196.191C82.7842 196.191 83.2705 196.048 83.7041 195.761C84.1377 195.468 84.5215 195.028 84.8555 194.442L85.9014 195.146C85.4971 195.872 84.9814 196.42 84.3545 196.789C83.7275 197.158 83.001 197.343 82.1748 197.343C80.9502 197.343 79.96 196.938 79.2041 196.13C78.4482 195.321 78.0703 194.261 78.0703 192.948C78.0703 191.688 78.4453 190.657 79.1953 189.854C79.9453 189.052 80.9092 188.65 82.0869 188.65C83.2764 188.65 84.2168 189.031 84.9082 189.793C85.6055 190.555 85.9541 191.595 85.9541 192.913V193.186ZM87.7822 185.082C87.7822 184.807 87.8789 184.572 88.0723 184.379C88.2715 184.18 88.5117 184.08 88.793 184.08C89.0684 184.08 89.3027 184.18 89.4961 184.379C89.6953 184.578 89.7949 184.818 89.7949 185.1C89.7949 185.375 89.6982 185.609 89.5049 185.803C89.3115 185.996 89.0742 186.093 88.793 186.093C88.5117 186.093 88.2715 185.996 88.0723 185.803C87.8789 185.609 87.7822 185.369 87.7822 185.082ZM88.1074 200.92V188.958H89.4961V200.92H88.1074ZM98.5488 193.054C98.5488 192.146 98.2998 191.416 97.8018 190.865C97.3096 190.309 96.665 190.03 95.8682 190.03C95.042 190.03 94.3975 190.285 93.9346 190.795C93.4717 191.305 93.2402 192.017 93.2402 192.931C93.2402 193.903 93.4717 194.653 93.9346 195.181C94.4033 195.708 95.0654 195.972 95.9209 195.972C96.7412 195.972 97.3828 195.717 97.8457 195.207C98.3145 194.691 98.5488 193.974 98.5488 193.054ZM99.8848 188.958V197H98.5488V195.541C98.2266 196.127 97.8135 196.575 97.3096 196.886C96.8115 197.19 96.252 197.343 95.6309 197.343C94.4766 197.343 93.5449 196.947 92.8359 196.156C92.1328 195.359 91.7812 194.308 91.7812 193.001C91.7812 191.677 92.124 190.625 92.8096 189.846C93.4951 189.061 94.4121 188.668 95.5605 188.668C96.2344 188.668 96.8174 188.82 97.3096 189.125C97.8076 189.424 98.209 189.872 98.5137 190.47V188.958H99.8848ZM108.199 197L108.182 190.338H106.854V188.123H108.182V185.478H111.284V188.123H112.594V190.338H111.284V197H108.199ZM123.167 188.123V192.658C123.167 193.672 123.091 194.41 122.938 194.873C122.774 195.354 122.499 195.787 122.112 196.174C121.743 196.561 121.257 196.854 120.653 197.053C120.079 197.246 119.388 197.343 118.579 197.343C117.776 197.343 117.094 197.246 116.531 197.053C115.951 196.865 115.453 196.572 115.037 196.174C114.656 195.811 114.387 195.383 114.229 194.891C114.07 194.434 113.991 193.689 113.991 192.658V188.123H116.979V192.86C116.979 193.604 117.105 194.138 117.357 194.46C117.586 194.8 117.981 194.97 118.544 194.97C119.101 194.97 119.499 194.806 119.739 194.478C119.985 194.149 120.108 193.61 120.108 192.86V188.123H123.167ZM124.591 196.262L125.241 193.871C125.698 194.275 126.202 194.58 126.753 194.785C127.298 195.002 127.849 195.11 128.405 195.11C128.804 195.11 129.103 195.043 129.302 194.908C129.507 194.785 129.609 194.606 129.609 194.372C129.609 193.979 129.196 193.687 128.37 193.493C128.083 193.429 127.866 193.373 127.72 193.326C126.765 193.045 126.088 192.702 125.689 192.298C125.256 191.882 125.039 191.343 125.039 190.681C125.039 189.825 125.364 189.137 126.015 188.615C126.642 188.1 127.518 187.842 128.643 187.842C129.188 187.842 129.768 187.906 130.383 188.035C130.898 188.141 131.499 188.346 132.185 188.65L131.534 190.804C131.112 190.517 130.688 190.303 130.26 190.162C129.855 190.016 129.431 189.942 128.985 189.942C128.622 189.942 128.35 189.998 128.168 190.109C127.992 190.215 127.904 190.376 127.904 190.593C127.904 190.897 128.317 191.161 129.144 191.384C129.413 191.466 129.551 191.507 129.557 191.507C130.635 191.812 131.391 192.172 131.824 192.588C132.246 193.027 132.457 193.599 132.457 194.302C132.457 195.21 132.108 195.942 131.411 196.499C130.696 197.062 129.773 197.343 128.643 197.343C127.857 197.343 127.134 197.252 126.472 197.07C125.815 196.895 125.188 196.625 124.591 196.262ZM146.15 191.041C145.846 190.771 145.553 190.575 145.271 190.452C145.02 190.329 144.724 190.268 144.384 190.268C143.757 190.268 143.265 190.473 142.907 190.883C142.538 191.287 142.354 191.844 142.354 192.553C142.354 193.232 142.544 193.771 142.925 194.17C143.294 194.58 143.807 194.785 144.463 194.785C144.773 194.785 145.072 194.721 145.359 194.592C145.664 194.445 145.928 194.252 146.15 194.012V196.728C145.775 196.927 145.397 197.085 145.017 197.202C144.612 197.296 144.229 197.343 143.865 197.343C142.494 197.343 141.39 196.903 140.552 196.024C140.265 195.731 140.027 195.409 139.84 195.058C139.658 194.706 139.518 194.325 139.418 193.915C139.324 193.505 139.277 193.057 139.277 192.57C139.277 191.17 139.705 190.033 140.561 189.16C141.422 188.281 142.535 187.842 143.9 187.842C144.328 187.842 144.735 187.889 145.122 187.982C145.497 188.076 145.84 188.214 146.15 188.396V191.041ZM157.181 188.123V192.658C157.181 193.672 157.104 194.41 156.952 194.873C156.788 195.354 156.513 195.787 156.126 196.174C155.757 196.561 155.271 196.854 154.667 197.053C154.093 197.246 153.401 197.343 152.593 197.343C151.79 197.343 151.107 197.246 150.545 197.053C149.965 196.865 149.467 196.572 149.051 196.174C148.67 195.811 148.4 195.383 148.242 194.891C148.084 194.434 148.005 193.689 148.005 192.658V188.123H150.993V192.86C150.993 193.604 151.119 194.138 151.371 194.46C151.6 194.8 151.995 194.97 152.558 194.97C153.114 194.97 153.513 194.806 153.753 194.478C153.999 194.149 154.122 193.61 154.122 192.86V188.123H157.181ZM165.548 191.419C165.495 190.927 165.305 190.525 164.977 190.215C164.648 189.904 164.247 189.749 163.772 189.749C163.274 189.749 162.87 189.887 162.56 190.162C162.237 190.473 162.035 190.892 161.953 191.419H165.548ZM168.633 193.186H161.883C161.9 193.877 162.073 194.404 162.401 194.768C162.741 195.143 163.233 195.33 163.878 195.33C164.347 195.33 164.748 195.239 165.082 195.058C165.422 194.864 165.668 194.601 165.82 194.267L168.176 195.216C167.9 195.89 167.402 196.411 166.682 196.78C165.967 197.155 165.091 197.343 164.054 197.343C162.507 197.343 161.265 196.909 160.327 196.042C159.396 195.198 158.93 194.07 158.93 192.658C158.93 191.281 159.396 190.13 160.327 189.204C161.259 188.296 162.442 187.842 163.878 187.842C165.343 187.842 166.5 188.302 167.35 189.222C167.783 189.696 168.105 190.25 168.316 190.883C168.527 191.51 168.633 192.228 168.633 193.036V193.186ZM170.435 197V188.123H173.3V189.925C173.704 189.222 174.185 188.694 174.741 188.343C175.28 188.009 175.934 187.842 176.701 187.842C177.281 187.842 177.797 187.93 178.248 188.105C178.693 188.305 179.054 188.574 179.329 188.914C179.581 189.254 179.748 189.614 179.83 189.995C179.93 190.481 179.979 191.123 179.979 191.92V197H176.842V192.245C176.842 191.524 176.728 191.009 176.499 190.698C176.271 190.376 175.898 190.215 175.383 190.215C174.738 190.215 174.264 190.455 173.959 190.936C173.66 191.416 173.511 192.195 173.511 193.273V197H170.435ZM182.695 197L182.678 190.338H181.351V188.123H182.678V185.478H185.78V188.123H187.09V190.338H185.78V197H182.695ZM195.325 192.553C195.325 191.85 195.141 191.305 194.771 190.918C194.396 190.508 193.893 190.303 193.26 190.303C192.627 190.303 192.129 190.502 191.766 190.9C191.391 191.311 191.203 191.861 191.203 192.553C191.203 193.25 191.391 193.798 191.766 194.196C192.123 194.589 192.621 194.785 193.26 194.785C193.893 194.785 194.394 194.589 194.763 194.196C195.138 193.804 195.325 193.256 195.325 192.553ZM198.076 188.123V197H195.202V195.559C194.786 196.174 194.32 196.625 193.805 196.912C193.295 197.199 192.697 197.343 192.012 197.343C190.822 197.343 189.876 196.909 189.173 196.042C188.827 195.614 188.563 195.11 188.382 194.53C188.2 193.95 188.109 193.297 188.109 192.57C188.109 191.117 188.481 189.966 189.226 189.116C189.97 188.267 190.966 187.842 192.214 187.842C192.882 187.842 193.456 187.985 193.937 188.272C194.423 188.548 194.839 188.984 195.185 189.582V188.123H198.076ZM199.614 196.262L200.265 193.871C200.722 194.275 201.226 194.58 201.776 194.785C202.321 195.002 202.872 195.11 203.429 195.11C203.827 195.11 204.126 195.043 204.325 194.908C204.53 194.785 204.633 194.606 204.633 194.372C204.633 193.979 204.22 193.687 203.394 193.493C203.106 193.429 202.89 193.373 202.743 193.326C201.788 193.045 201.111 192.702 200.713 192.298C200.279 191.882 200.062 191.343 200.062 190.681C200.062 189.825 200.388 189.137 201.038 188.615C201.665 188.1 202.541 187.842 203.666 187.842C204.211 187.842 204.791 187.906 205.406 188.035C205.922 188.141 206.522 188.346 207.208 188.65L206.558 190.804C206.136 190.517 205.711 190.303 205.283 190.162C204.879 190.016 204.454 189.942 204.009 189.942C203.646 189.942 203.373 189.998 203.191 190.109C203.016 190.215 202.928 190.376 202.928 190.593C202.928 190.897 203.341 191.161 204.167 191.384C204.437 191.466 204.574 191.507 204.58 191.507C205.658 191.812 206.414 192.172 206.848 192.588C207.27 193.027 207.48 193.599 207.48 194.302C207.48 195.21 207.132 195.942 206.435 196.499C205.72 197.062 204.797 197.343 203.666 197.343C202.881 197.343 202.157 197.252 201.495 197.07C200.839 196.895 200.212 196.625 199.614 196.262ZM220.875 193.019C220.875 192.122 220.626 191.401 220.128 190.856C219.63 190.306 218.974 190.03 218.159 190.03C217.345 190.03 216.709 190.279 216.252 190.777C215.795 191.275 215.566 191.964 215.566 192.843C215.566 193.833 215.798 194.609 216.261 195.172C216.724 195.729 217.362 196.007 218.177 196.007C219.021 196.007 219.68 195.743 220.154 195.216C220.635 194.688 220.875 193.956 220.875 193.019ZM222.211 183.377V197H220.875V195.541C220.559 196.121 220.148 196.566 219.645 196.877C219.141 197.188 218.578 197.343 217.957 197.343C216.803 197.343 215.871 196.947 215.162 196.156C214.459 195.359 214.107 194.308 214.107 193.001C214.107 191.683 214.453 190.631 215.145 189.846C215.836 189.061 216.756 188.668 217.904 188.668C218.572 188.668 219.152 188.82 219.645 189.125C220.137 189.424 220.535 189.872 220.84 190.47V183.377H222.211ZM230.728 192.069C230.681 191.36 230.443 190.815 230.016 190.435C229.594 190.048 229.014 189.854 228.275 189.854C227.607 189.854 227.051 190.057 226.605 190.461C226.16 190.859 225.902 191.396 225.832 192.069H230.728ZM232.204 193.186H225.832V193.309C225.832 194.17 226.078 194.867 226.57 195.4C227.062 195.928 227.704 196.191 228.495 196.191C229.034 196.191 229.521 196.048 229.954 195.761C230.388 195.468 230.771 195.028 231.105 194.442L232.151 195.146C231.747 195.872 231.231 196.42 230.604 196.789C229.978 197.158 229.251 197.343 228.425 197.343C227.2 197.343 226.21 196.938 225.454 196.13C224.698 195.321 224.32 194.261 224.32 192.948C224.32 191.688 224.695 190.657 225.445 189.854C226.195 189.052 227.159 188.65 228.337 188.65C229.526 188.65 230.467 189.031 231.158 189.793C231.855 190.555 232.204 191.595 232.204 192.913V193.186ZM233.435 195.646L234.612 194.855C234.835 195.283 235.116 195.605 235.456 195.822C235.796 196.033 236.197 196.139 236.66 196.139C237.111 196.139 237.475 196.027 237.75 195.805C238.031 195.582 238.172 195.289 238.172 194.926C238.172 194.645 238.075 194.41 237.882 194.223C237.694 194.035 237.369 193.862 236.906 193.704C236.859 193.687 236.783 193.66 236.678 193.625C234.721 192.951 233.742 192.107 233.742 191.094C233.742 190.379 234.006 189.796 234.533 189.345C235.061 188.894 235.746 188.668 236.59 188.668C237.287 188.668 237.885 188.809 238.383 189.09C238.881 189.365 239.238 189.758 239.455 190.268L238.339 190.953C238.175 190.584 237.932 190.3 237.609 190.101C237.293 189.901 236.924 189.802 236.502 189.802C236.098 189.802 235.767 189.916 235.509 190.145C235.257 190.367 235.131 190.654 235.131 191.006C235.131 191.498 235.664 191.911 236.73 192.245C236.93 192.31 237.088 192.359 237.205 192.395C238.078 192.676 238.685 192.998 239.024 193.361C239.37 193.719 239.543 194.193 239.543 194.785C239.543 195.547 239.271 196.165 238.726 196.64C238.187 197.108 237.48 197.343 236.607 197.343C235.857 197.343 235.219 197.202 234.691 196.921C234.17 196.64 233.751 196.215 233.435 195.646ZM247.77 193.019C247.77 192.122 247.521 191.401 247.022 190.856C246.524 190.306 245.868 190.03 245.054 190.03C244.239 190.03 243.604 190.279 243.146 190.777C242.689 191.275 242.461 191.964 242.461 192.843C242.461 193.833 242.692 194.609 243.155 195.172C243.618 195.729 244.257 196.007 245.071 196.007C245.915 196.007 246.574 195.743 247.049 195.216C247.529 194.688 247.77 193.956 247.77 193.019ZM249.105 183.377V197H247.77V195.541C247.453 196.121 247.043 196.566 246.539 196.877C246.035 197.188 245.473 197.343 244.852 197.343C243.697 197.343 242.766 196.947 242.057 196.156C241.354 195.359 241.002 194.308 241.002 193.001C241.002 191.683 241.348 190.631 242.039 189.846C242.73 189.061 243.65 188.668 244.799 188.668C245.467 188.668 246.047 188.82 246.539 189.125C247.031 189.424 247.43 189.872 247.734 190.47V183.377H249.105ZM257.622 192.069C257.575 191.36 257.338 190.815 256.91 190.435C256.488 190.048 255.908 189.854 255.17 189.854C254.502 189.854 253.945 190.057 253.5 190.461C253.055 190.859 252.797 191.396 252.727 192.069H257.622ZM259.099 193.186H252.727V193.309C252.727 194.17 252.973 194.867 253.465 195.4C253.957 195.928 254.599 196.191 255.39 196.191C255.929 196.191 256.415 196.048 256.849 195.761C257.282 195.468 257.666 195.028 258 194.442L259.046 195.146C258.642 195.872 258.126 196.42 257.499 196.789C256.872 197.158 256.146 197.343 255.319 197.343C254.095 197.343 253.104 196.938 252.349 196.13C251.593 195.321 251.215 194.261 251.215 192.948C251.215 191.688 251.59 190.657 252.34 189.854C253.09 189.052 254.054 188.65 255.231 188.65C256.421 188.65 257.361 189.031 258.053 189.793C258.75 190.555 259.099 191.595 259.099 192.913V193.186ZM43.4766 217V203.377H44.8828V217H43.4766ZM53.918 213.054C53.918 212.146 53.6689 211.416 53.1709 210.865C52.6787 210.309 52.0342 210.03 51.2373 210.03C50.4111 210.03 49.7666 210.285 49.3037 210.795C48.8408 211.305 48.6094 212.017 48.6094 212.931C48.6094 213.903 48.8408 214.653 49.3037 215.181C49.7725 215.708 50.4346 215.972 51.29 215.972C52.1104 215.972 52.752 215.717 53.2148 215.207C53.6836 214.691 53.918 213.974 53.918 213.054ZM55.2539 208.958V217H53.918V215.541C53.5957 216.127 53.1826 216.575 52.6787 216.886C52.1807 217.19 51.6211 217.343 51 217.343C49.8457 217.343 48.9141 216.947 48.2051 216.156C47.502 215.359 47.1504 214.308 47.1504 213.001C47.1504 211.677 47.4932 210.625 48.1787 209.846C48.8643 209.061 49.7812 208.668 50.9297 208.668C51.6035 208.668 52.1865 208.82 52.6787 209.125C53.1768 209.424 53.5781 209.872 53.8828 210.47V208.958H55.2539ZM69.4922 215.093V216.692C69.1289 216.909 68.7188 217.07 68.2617 217.176C67.8105 217.287 67.3213 217.343 66.7939 217.343C65.5518 217.343 64.5498 216.95 63.7881 216.165C63.0322 215.374 62.6543 214.337 62.6543 213.054C62.6543 211.765 63.0469 210.713 63.832 209.898C64.6172 209.078 65.6221 208.668 66.8467 208.668C67.292 208.668 67.7256 208.715 68.1475 208.809C68.5752 208.902 68.9766 209.04 69.3516 209.222V210.698C69 210.47 68.6367 210.297 68.2617 210.18C67.8867 210.057 67.5059 209.995 67.1191 209.995C66.2168 209.995 65.4932 210.279 64.9482 210.848C64.4033 211.41 64.1309 212.16 64.1309 213.098C64.1309 213.924 64.4033 214.615 64.9482 215.172C65.499 215.729 66.1875 216.007 67.0137 216.007C67.4297 216.007 67.8369 215.934 68.2354 215.787C68.6338 215.641 69.0527 215.409 69.4922 215.093ZM72.2168 213.001C72.2168 213.851 72.501 214.571 73.0693 215.163C73.6377 215.749 74.3262 216.042 75.1348 216.042C75.9375 216.042 76.6201 215.749 77.1826 215.163C77.7451 214.571 78.0264 213.851 78.0264 213.001C78.0264 212.151 77.7451 211.434 77.1826 210.848C76.6201 210.256 75.9375 209.96 75.1348 209.96C74.3203 209.96 73.6289 210.256 73.0605 210.848C72.498 211.434 72.2168 212.151 72.2168 213.001ZM70.7578 213.001C70.7578 212.409 70.8662 211.853 71.083 211.331C71.2998 210.804 71.6162 210.335 72.0322 209.925C72.4482 209.515 72.9199 209.204 73.4473 208.993C73.9746 208.776 74.5371 208.668 75.1348 208.668C75.7207 208.668 76.2744 208.776 76.7959 208.993C77.3232 209.21 77.8008 209.526 78.2285 209.942C78.6445 210.347 78.9609 210.812 79.1777 211.34C79.3945 211.861 79.5029 212.415 79.5029 213.001C79.5029 213.587 79.3945 214.141 79.1777 214.662C78.9609 215.178 78.6445 215.638 78.2285 216.042C77.8008 216.464 77.3203 216.786 76.7871 217.009C76.2598 217.231 75.709 217.343 75.1348 217.343C74.543 217.343 73.9805 217.231 73.4473 217.009C72.9199 216.792 72.4482 216.479 72.0322 216.068C71.6162 215.646 71.2998 215.178 71.083 214.662C70.8662 214.146 70.7578 213.593 70.7578 213.001ZM92.8535 217V212.263C92.8535 211.448 92.6895 210.845 92.3613 210.452C92.0332 210.054 91.5293 209.854 90.8496 209.854C90.4805 209.854 90.1377 209.931 89.8213 210.083C89.5107 210.229 89.2471 210.44 89.0303 210.716C88.8721 210.927 88.7578 211.173 88.6875 211.454C88.6172 211.735 88.582 212.198 88.582 212.843V217H87.2549V212.263C87.2549 211.448 87.0908 210.845 86.7627 210.452C86.4346 210.054 85.9307 209.854 85.251 209.854C84.8818 209.854 84.5361 209.931 84.2139 210.083C83.8975 210.229 83.6309 210.44 83.4141 210.716C83.2617 210.921 83.1504 211.158 83.0801 211.428C83.0156 211.697 82.9834 212.169 82.9834 212.843V217H81.6562V208.958H83.001V210.197C83.335 209.682 83.7334 209.298 84.1963 209.046C84.6592 208.794 85.1924 208.668 85.7959 208.668C86.4463 208.668 87 208.809 87.457 209.09C87.9141 209.365 88.2598 209.77 88.4941 210.303C88.8398 209.752 89.2471 209.342 89.7158 209.072C90.1904 208.803 90.7383 208.668 91.3594 208.668C92.2559 208.668 92.9561 208.92 93.46 209.424C93.9639 209.928 94.2158 210.628 94.2158 211.524V217H92.8535ZM97.7402 213.001C97.7402 213.851 98.0244 214.571 98.5928 215.163C99.1611 215.749 99.8496 216.042 100.658 216.042C101.461 216.042 102.144 215.749 102.706 215.163C103.269 214.571 103.55 213.851 103.55 213.001C103.55 212.151 103.269 211.434 102.706 210.848C102.144 210.256 101.461 209.96 100.658 209.96C99.8438 209.96 99.1523 210.256 98.584 210.848C98.0215 211.434 97.7402 212.151 97.7402 213.001ZM96.2812 213.001C96.2812 212.409 96.3896 211.853 96.6064 211.331C96.8232 210.804 97.1396 210.335 97.5557 209.925C97.9717 209.515 98.4434 209.204 98.9707 208.993C99.498 208.776 100.061 208.668 100.658 208.668C101.244 208.668 101.798 208.776 102.319 208.993C102.847 209.21 103.324 209.526 103.752 209.942C104.168 210.347 104.484 210.812 104.701 211.34C104.918 211.861 105.026 212.415 105.026 213.001C105.026 213.587 104.918 214.141 104.701 214.662C104.484 215.178 104.168 215.638 103.752 216.042C103.324 216.464 102.844 216.786 102.311 217.009C101.783 217.231 101.232 217.343 100.658 217.343C100.066 217.343 99.5039 217.231 98.9707 217.009C98.4434 216.792 97.9717 216.479 97.5557 216.068C97.1396 215.646 96.8232 215.178 96.6064 214.662C96.3896 214.146 96.2812 213.593 96.2812 213.001ZM113.332 213.019C113.332 212.122 113.083 211.401 112.585 210.856C112.087 210.306 111.431 210.03 110.616 210.03C109.802 210.03 109.166 210.279 108.709 210.777C108.252 211.275 108.023 211.964 108.023 212.843C108.023 213.833 108.255 214.609 108.718 215.172C109.181 215.729 109.819 216.007 110.634 216.007C111.478 216.007 112.137 215.743 112.611 215.216C113.092 214.688 113.332 213.956 113.332 213.019ZM114.668 203.377V217H113.332V215.541C113.016 216.121 112.605 216.566 112.102 216.877C111.598 217.188 111.035 217.343 110.414 217.343C109.26 217.343 108.328 216.947 107.619 216.156C106.916 215.359 106.564 214.308 106.564 213.001C106.564 211.683 106.91 210.631 107.602 209.846C108.293 209.061 109.213 208.668 110.361 208.668C111.029 208.668 111.609 208.82 112.102 209.125C112.594 209.424 112.992 209.872 113.297 210.47V203.377H114.668ZM117.226 205.082C117.226 204.807 117.322 204.572 117.516 204.379C117.715 204.18 117.955 204.08 118.236 204.08C118.512 204.08 118.746 204.18 118.939 204.379C119.139 204.578 119.238 204.818 119.238 205.1C119.238 205.375 119.142 205.609 118.948 205.803C118.755 205.996 118.518 206.093 118.236 206.093C117.955 206.093 117.715 205.996 117.516 205.803C117.322 205.609 117.226 205.369 117.226 205.082ZM117.551 217V208.958H118.939V217H117.551ZM127.992 213.019C127.992 212.122 127.743 211.401 127.245 210.856C126.747 210.306 126.091 210.03 125.276 210.03C124.462 210.03 123.826 210.279 123.369 210.777C122.912 211.275 122.684 211.964 122.684 212.843C122.684 213.833 122.915 214.609 123.378 215.172C123.841 215.729 124.479 216.007 125.294 216.007C126.138 216.007 126.797 215.743 127.271 215.216C127.752 214.688 127.992 213.956 127.992 213.019ZM129.328 203.377V217H127.992V215.541C127.676 216.121 127.266 216.566 126.762 216.877C126.258 217.188 125.695 217.343 125.074 217.343C123.92 217.343 122.988 216.947 122.279 216.156C121.576 215.359 121.225 214.308 121.225 213.001C121.225 211.683 121.57 210.631 122.262 209.846C122.953 209.061 123.873 208.668 125.021 208.668C125.689 208.668 126.27 208.82 126.762 209.125C127.254 209.424 127.652 209.872 127.957 210.47V203.377H129.328ZM138.293 213.054C138.293 212.146 138.044 211.416 137.546 210.865C137.054 210.309 136.409 210.03 135.612 210.03C134.786 210.03 134.142 210.285 133.679 210.795C133.216 211.305 132.984 212.017 132.984 212.931C132.984 213.903 133.216 214.653 133.679 215.181C134.147 215.708 134.81 215.972 135.665 215.972C136.485 215.972 137.127 215.717 137.59 215.207C138.059 214.691 138.293 213.974 138.293 213.054ZM139.629 208.958V217H138.293V215.541C137.971 216.127 137.558 216.575 137.054 216.886C136.556 217.19 135.996 217.343 135.375 217.343C134.221 217.343 133.289 216.947 132.58 216.156C131.877 215.359 131.525 214.308 131.525 213.001C131.525 211.677 131.868 210.625 132.554 209.846C133.239 209.061 134.156 208.668 135.305 208.668C135.979 208.668 136.562 208.82 137.054 209.125C137.552 209.424 137.953 209.872 138.258 210.47V208.958H139.629ZM148.541 213.019C148.541 212.122 148.292 211.401 147.794 210.856C147.296 210.306 146.64 210.03 145.825 210.03C145.011 210.03 144.375 210.279 143.918 210.777C143.461 211.275 143.232 211.964 143.232 212.843C143.232 213.833 143.464 214.609 143.927 215.172C144.39 215.729 145.028 216.007 145.843 216.007C146.687 216.007 147.346 215.743 147.82 215.216C148.301 214.688 148.541 213.956 148.541 213.019ZM149.877 203.377V217H148.541V215.541C148.225 216.121 147.814 216.566 147.311 216.877C146.807 217.188 146.244 217.343 145.623 217.343C144.469 217.343 143.537 216.947 142.828 216.156C142.125 215.359 141.773 214.308 141.773 213.001C141.773 211.683 142.119 210.631 142.811 209.846C143.502 209.061 144.422 208.668 145.57 208.668C146.238 208.668 146.818 208.82 147.311 209.125C147.803 209.424 148.201 209.872 148.506 210.47V203.377H149.877ZM164.15 213.019C164.15 212.122 163.901 211.401 163.403 210.856C162.905 210.306 162.249 210.03 161.435 210.03C160.62 210.03 159.984 210.279 159.527 210.777C159.07 211.275 158.842 211.964 158.842 212.843C158.842 213.833 159.073 214.609 159.536 215.172C159.999 215.729 160.638 216.007 161.452 216.007C162.296 216.007 162.955 215.743 163.43 215.216C163.91 214.688 164.15 213.956 164.15 213.019ZM165.486 203.377V217H164.15V215.541C163.834 216.121 163.424 216.566 162.92 216.877C162.416 217.188 161.854 217.343 161.232 217.343C160.078 217.343 159.146 216.947 158.438 216.156C157.734 215.359 157.383 214.308 157.383 213.001C157.383 211.683 157.729 210.631 158.42 209.846C159.111 209.061 160.031 208.668 161.18 208.668C161.848 208.668 162.428 208.82 162.92 209.125C163.412 209.424 163.811 209.872 164.115 210.47V203.377H165.486ZM174.003 212.069C173.956 211.36 173.719 210.815 173.291 210.435C172.869 210.048 172.289 209.854 171.551 209.854C170.883 209.854 170.326 210.057 169.881 210.461C169.436 210.859 169.178 211.396 169.107 212.069H174.003ZM175.479 213.186H169.107V213.309C169.107 214.17 169.354 214.867 169.846 215.4C170.338 215.928 170.979 216.191 171.771 216.191C172.31 216.191 172.796 216.048 173.229 215.761C173.663 215.468 174.047 215.028 174.381 214.442L175.427 215.146C175.022 215.872 174.507 216.42 173.88 216.789C173.253 217.158 172.526 217.343 171.7 217.343C170.476 217.343 169.485 216.938 168.729 216.13C167.974 215.321 167.596 214.261 167.596 212.948C167.596 211.688 167.971 210.657 168.721 209.854C169.471 209.052 170.435 208.65 171.612 208.65C172.802 208.65 173.742 209.031 174.434 209.793C175.131 210.555 175.479 211.595 175.479 212.913V213.186ZM183.117 217L183.1 210.338H181.772V208.123H183.1V205.478H186.202V208.123H187.512V210.338H186.202V217H183.117ZM198.085 208.123V212.658C198.085 213.672 198.009 214.41 197.856 214.873C197.692 215.354 197.417 215.787 197.03 216.174C196.661 216.561 196.175 216.854 195.571 217.053C194.997 217.246 194.306 217.343 193.497 217.343C192.694 217.343 192.012 217.246 191.449 217.053C190.869 216.865 190.371 216.572 189.955 216.174C189.574 215.811 189.305 215.383 189.146 214.891C188.988 214.434 188.909 213.689 188.909 212.658V208.123H191.897V212.86C191.897 213.604 192.023 214.138 192.275 214.46C192.504 214.8 192.899 214.97 193.462 214.97C194.019 214.97 194.417 214.806 194.657 214.478C194.903 214.149 195.026 213.61 195.026 212.86V208.123H198.085ZM205.978 217V203.377H209.054V208.158C209.054 208.387 209.042 208.683 209.019 209.046C209.001 209.362 208.978 209.603 208.948 209.767C209.341 209.104 209.804 208.618 210.337 208.308C210.876 207.997 211.512 207.842 212.244 207.842C212.824 207.842 213.34 207.93 213.791 208.105C214.236 208.305 214.597 208.574 214.872 208.914C215.124 209.254 215.291 209.614 215.373 209.995C215.473 210.481 215.522 211.123 215.522 211.92V217H212.385V212.245C212.385 211.524 212.271 211.009 212.042 210.698C211.813 210.376 211.441 210.215 210.926 210.215C210.281 210.215 209.807 210.455 209.502 210.936C209.203 211.416 209.054 212.195 209.054 213.273V217H205.978ZM224.039 212.588C224.039 211.926 223.872 211.404 223.538 211.023C223.192 210.643 222.741 210.452 222.185 210.452C221.61 210.452 221.159 210.643 220.831 211.023C220.497 211.393 220.33 211.914 220.33 212.588C220.33 213.244 220.491 213.76 220.813 214.135C221.165 214.521 221.622 214.715 222.185 214.715C222.747 214.715 223.204 214.521 223.556 214.135C223.878 213.748 224.039 213.232 224.039 212.588ZM227.15 212.588C227.15 213.238 227.024 213.845 226.772 214.407C226.509 215.005 226.148 215.521 225.691 215.954C225.176 216.435 224.643 216.783 224.092 217C223.518 217.229 222.882 217.343 222.185 217.343C221.481 217.343 220.846 217.229 220.277 217C219.697 216.771 219.161 216.426 218.669 215.963C218.183 215.494 217.831 214.976 217.614 214.407C217.362 213.862 217.236 213.256 217.236 212.588C217.236 211.938 217.362 211.325 217.614 210.751C217.849 210.171 218.203 209.655 218.678 209.204C219.141 208.759 219.674 208.416 220.277 208.176C220.852 207.953 221.487 207.842 222.185 207.842C222.876 207.842 223.512 207.953 224.092 208.176C224.695 208.416 225.229 208.759 225.691 209.204C226.178 209.644 226.538 210.159 226.772 210.751C227.024 211.325 227.15 211.938 227.15 212.588ZM235.72 212.535C235.72 211.85 235.541 211.311 235.184 210.918C234.797 210.531 234.287 210.338 233.654 210.338C233.021 210.338 232.512 210.531 232.125 210.918C231.75 211.311 231.562 211.85 231.562 212.535C231.562 213.227 231.75 213.76 232.125 214.135C232.506 214.533 233.016 214.732 233.654 214.732C234.281 214.732 234.785 214.533 235.166 214.135C235.535 213.766 235.72 213.232 235.72 212.535ZM238.471 208.123V216.982C238.471 218.324 238.063 219.314 237.249 219.953C236.856 220.27 236.341 220.51 235.702 220.674C235.063 220.838 234.313 220.92 233.452 220.92C232.052 220.92 230.965 220.662 230.191 220.146C229.418 219.625 229.005 218.901 228.952 217.976H232.195C232.254 218.257 232.409 218.471 232.661 218.617C232.919 218.775 233.262 218.854 233.689 218.854C234.357 218.854 234.823 218.693 235.087 218.371C235.339 218.049 235.465 217.363 235.465 216.314V215.506C235.131 216.068 234.712 216.481 234.208 216.745C233.687 217.021 233.08 217.158 232.389 217.158C231.217 217.158 230.276 216.733 229.567 215.884C229.222 215.468 228.958 214.979 228.776 214.416C228.595 213.848 228.504 213.209 228.504 212.5C228.504 211.082 228.876 209.948 229.62 209.099C229.989 208.677 230.423 208.363 230.921 208.158C231.425 207.947 231.987 207.842 232.608 207.842C233.271 207.842 233.845 207.979 234.331 208.255C234.812 208.513 235.228 208.943 235.579 209.547V208.123H238.471ZM247.603 212.553C247.603 211.85 247.418 211.305 247.049 210.918C246.674 210.508 246.17 210.303 245.537 210.303C244.904 210.303 244.406 210.502 244.043 210.9C243.668 211.311 243.48 211.861 243.48 212.553C243.48 213.25 243.668 213.798 244.043 214.196C244.4 214.589 244.898 214.785 245.537 214.785C246.17 214.785 246.671 214.589 247.04 214.196C247.415 213.804 247.603 213.256 247.603 212.553ZM250.354 208.123V217H247.479V215.559C247.063 216.174 246.598 216.625 246.082 216.912C245.572 217.199 244.975 217.343 244.289 217.343C243.1 217.343 242.153 216.909 241.45 216.042C241.104 215.614 240.841 215.11 240.659 214.53C240.478 213.95 240.387 213.297 240.387 212.57C240.387 211.117 240.759 209.966 241.503 209.116C242.247 208.267 243.243 207.842 244.491 207.842C245.159 207.842 245.733 207.985 246.214 208.272C246.7 208.548 247.116 208.984 247.462 209.582V208.123H250.354ZM252.735 217V208.123H255.688V210.215C255.999 209.447 256.412 208.876 256.928 208.501C257.461 208.12 258.103 207.93 258.853 207.93C259.022 207.93 259.148 207.936 259.23 207.947C259.295 207.953 259.354 207.959 259.406 207.965C259.459 207.965 259.526 207.971 259.608 207.982L259.31 210.83C259.093 210.76 258.905 210.71 258.747 210.681C258.513 210.657 258.34 210.646 258.229 210.646C257.467 210.646 256.878 210.88 256.462 211.349C256.052 211.812 255.847 212.471 255.847 213.326V217H252.735Z" fill="white"/>
<path d="M37.648 5.808H30.592V42H47.632V35.856H37.648V5.808ZM86.9845 23.856C86.9845 13.104 79.8805 4.848 69.0805 4.848C58.2805 4.848 51.1765 13.104 51.1765 23.856C51.1765 34.512 58.0405 42.96 69.0805 42.96C80.1205 42.96 86.9845 34.512 86.9845 23.856ZM79.6885 23.568C79.6885 29.136 76.9045 36 69.0805 36C61.2565 36 58.4725 29.136 58.4725 23.568C58.4725 17.712 62.4085 11.808 69.0805 11.808C75.7525 11.808 79.6885 17.712 79.6885 23.568ZM113.803 8.88C111.595 6.432 107.131 4.848 103.915 4.848C97.8194 4.848 93.3554 9.696 93.3554 15.696C93.3554 21.312 96.7634 23.664 101.419 25.584C104.251 26.688 107.707 27.744 107.707 31.488C107.707 34.272 105.931 36.72 103.051 36.72C100.027 36.72 97.4834 34.224 96.5234 31.44L91.9634 35.904C94.4594 40.08 98.1074 42.96 103.099 42.96C110.491 42.96 115.003 37.824 115.003 30.576C115.003 18.432 100.651 20.976 100.651 14.88C100.651 12.528 102.811 10.8 105.067 10.8C107.419 10.8 109.147 11.952 110.491 13.776L113.803 8.88ZM145.648 26.256H146.8C150.352 26.256 154.192 26.448 154.192 31.152C154.192 35.856 150.928 36.336 147.136 36.336H145.648V26.256ZM138.592 42H149.68C156.256 42 161.248 38.832 161.248 31.728C161.248 27.744 159.328 23.424 155.056 22.656C157.312 21.216 158.224 18.24 158.224 15.648C158.224 8.448 154.096 5.808 147.376 5.808H138.592V42ZM145.648 11.472H146.56C149.536 11.472 151.648 12.432 151.648 16.128C151.648 19.872 149.968 20.88 146.512 20.88H145.648V11.472ZM186.843 11.952V5.808H168.123V42H186.843V35.856H175.179V26.064H186.411V19.92H175.179V11.952H186.843ZM194.561 42H201.617V17.424H201.713L220.769 42.72H225.857V5.808H218.801V30.144H218.705L199.649 4.848H194.561V42ZM252.703 11.952V5.808H233.983V42H252.703V35.856H241.039V26.064H252.271V19.92H241.039V11.952H252.703ZM278.372 11.952V5.808H260.42V42H267.476V26.064H277.7V19.92H267.476V11.952H278.372ZM292.695 5.808H285.639V42H292.695V5.808ZM325.018 6.96C322.57 5.616 319.786 4.848 316.954 4.848C306.346 4.848 299.098 13.92 299.098 24.192C299.098 34.176 306.634 42.96 316.81 42.96C319.738 42.96 322.378 42.048 325.018 40.8V32.4C323.05 34.656 320.026 36.24 317.002 36.24C310.426 36.24 306.394 30.144 306.394 24.048C306.394 17.808 310.282 11.568 317.05 11.568C320.074 11.568 323.05 13.008 325.018 15.408V6.96ZM339.711 5.808H332.655V42H339.711V5.808ZM381.922 23.856C381.922 13.104 374.818 4.848 364.018 4.848C353.218 4.848 346.114 13.104 346.114 23.856C346.114 34.512 352.978 42.96 364.018 42.96C375.058 42.96 381.922 34.512 381.922 23.856ZM374.626 23.568C374.626 29.136 371.842 36 364.018 36C356.194 36 353.41 29.136 353.41 23.568C353.41 17.712 357.346 11.808 364.018 11.808C370.69 11.808 374.626 17.712 374.626 23.568ZM408.741 8.88C406.533 6.432 402.069 4.848 398.853 4.848C392.757 4.848 388.293 9.696 388.293 15.696C388.293 21.312 391.701 23.664 396.357 25.584C399.189 26.688 402.645 27.744 402.645 31.488C402.645 34.272 400.869 36.72 397.989 36.72C394.965 36.72 392.421 34.224 391.461 31.44L386.901 35.904C389.397 40.08 393.045 42.96 398.037 42.96C405.429 42.96 409.941 37.824 409.941 30.576C409.941 18.432 395.589 20.976 395.589 14.88C395.589 12.528 397.749 10.8 400.005 10.8C402.357 10.8 404.085 11.952 405.429 13.776L408.741 8.88ZM30.592 90H40.624C50.944 90 58.144 82.128 58.144 71.952C58.144 61.632 51.136 53.808 40.672 53.808H30.592V90ZM37.648 59.952H38.8C46.816 59.952 50.848 64.032 50.848 71.904C50.848 79.056 47.488 83.856 38.8 83.856H37.648V59.952ZM83.3433 59.952V53.808H64.6233V90H83.3433V83.856H71.6793V74.064H82.9113V67.92H71.6793V59.952H83.3433ZM114.992 53.808H107.936V90H124.976V83.856H114.992V53.808ZM150.216 82.368L153 90H160.536L146.808 52.848H141.336L127.224 90H134.664L137.64 82.368H150.216ZM148.248 76.608H139.656L143.64 63.456H143.736L148.248 76.608ZM189.617 74.256H190.769C194.321 74.256 198.161 74.448 198.161 79.152C198.161 83.856 194.897 84.336 191.105 84.336H189.617V74.256ZM182.561 90H193.649C200.225 90 205.217 86.832 205.217 79.728C205.217 75.744 203.297 71.424 199.025 70.656C201.281 69.216 202.193 66.24 202.193 63.648C202.193 56.448 198.065 53.808 191.345 53.808H182.561V90ZM189.617 59.472H190.529C193.505 59.472 195.617 60.432 195.617 64.128C195.617 67.872 193.937 68.88 190.481 68.88H189.617V59.472ZM232.06 82.368L234.844 90H242.38L228.652 52.848H223.18L209.068 90H216.508L219.484 82.368H232.06ZM230.092 76.608H221.5L225.484 63.456H225.58L230.092 76.608ZM247.53 90H254.586V65.424H254.682L273.738 90.72H278.826V53.808H271.77V78.144H271.674L252.618 52.848H247.53V90ZM311.143 54.96C308.695 53.616 305.911 52.848 303.079 52.848C292.471 52.848 285.223 61.92 285.223 72.192C285.223 82.176 292.759 90.96 302.935 90.96C305.863 90.96 308.503 90.048 311.143 88.8V80.4C309.175 82.656 306.151 84.24 303.127 84.24C296.551 84.24 292.519 78.144 292.519 72.048C292.519 65.808 296.407 59.568 303.175 59.568C306.199 59.568 309.175 61.008 311.143 63.408V54.96ZM338.748 82.368L341.531 90H349.068L335.34 52.848H329.868L315.755 90H323.196L326.172 82.368H338.748ZM336.78 76.608H328.188L332.172 63.456H332.268L336.78 76.608ZM391.444 56.88C389.236 54.432 384.772 52.848 381.556 52.848C375.46 52.848 370.996 57.696 370.996 63.696C370.996 69.312 374.404 71.664 379.06 73.584C381.892 74.688 385.348 75.744 385.348 79.488C385.348 82.272 383.572 84.72 380.692 84.72C377.668 84.72 375.124 82.224 374.164 79.44L369.604 83.904C372.1 88.08 375.748 90.96 380.74 90.96C388.132 90.96 392.644 85.824 392.644 78.576C392.644 66.432 378.292 68.976 378.292 62.88C378.292 60.528 380.452 58.8 382.708 58.8C385.06 58.8 386.788 59.952 388.132 61.776L391.444 56.88ZM406.414 53.808H399.358V90H406.414V53.808ZM414.545 90H421.601V65.424H421.697L440.753 90.72H445.841V53.808H438.785V78.144H438.689L419.633 52.848H414.545V90ZM50.944 104.88C48.736 102.432 44.272 100.848 41.056 100.848C34.96 100.848 30.496 105.696 30.496 111.696C30.496 117.312 33.904 119.664 38.56 121.584C41.392 122.688 44.848 123.744 44.848 127.488C44.848 130.272 43.072 132.72 40.192 132.72C37.168 132.72 34.624 130.224 33.664 127.44L29.104 131.904C31.6 136.08 35.248 138.96 40.24 138.96C47.632 138.96 52.144 133.824 52.144 126.576C52.144 114.432 37.792 116.976 37.792 110.88C37.792 108.528 39.952 106.8 42.208 106.8C44.56 106.8 46.288 107.952 47.632 109.776L50.944 104.88ZM78.8256 130.368L81.6096 138H89.1456L75.4176 100.848H69.9456L55.8336 138H63.2736L66.2496 130.368H78.8256ZM76.8576 124.608H68.2656L72.2496 111.456H72.3456L76.8576 124.608ZM101.351 101.808H94.2951V138H111.335V131.856H101.351V101.808ZM123.664 101.808H116.608V138H123.664V101.808ZM146.051 122.736C150.899 121.92 153.443 117.312 153.443 112.704C153.443 104.976 148.499 101.808 141.347 101.808H131.795V138H138.851V123.408H138.947L147.731 138H156.275L146.051 122.736ZM138.851 107.568H139.811C143.555 107.568 146.387 108.432 146.387 112.896C146.387 117.312 143.651 118.464 139.763 118.464H138.851V107.568ZM178.436 138H188.468C198.788 138 205.988 130.128 205.988 119.952C205.988 109.632 198.98 101.808 188.516 101.808H178.436V138ZM185.492 107.952H186.644C194.66 107.952 198.692 112.032 198.692 119.904C198.692 127.056 195.332 131.856 186.644 131.856H185.492V107.952ZM231.187 107.952V101.808H212.467V138H231.187V131.856H219.523V122.064H230.755V115.92H219.523V107.952H231.187ZM279.972 102.96C277.524 101.616 274.74 100.848 271.908 100.848C261.3 100.848 254.052 109.92 254.052 120.192C254.052 130.176 261.588 138.96 271.764 138.96C274.692 138.96 277.332 138.048 279.972 136.8V128.4C278.004 130.656 274.98 132.24 271.956 132.24C265.38 132.24 261.348 126.144 261.348 120.048C261.348 113.808 265.236 107.568 272.004 107.568C275.028 107.568 278.004 109.008 279.972 111.408V102.96ZM307.576 130.368L310.36 138H317.896L304.168 100.848H298.696L284.584 138H292.024L295 130.368H307.576ZM305.608 124.608H297.016L301 111.456H301.096L305.608 124.608ZM343.397 104.88C341.189 102.432 336.725 100.848 333.509 100.848C327.413 100.848 322.949 105.696 322.949 111.696C322.949 117.312 326.357 119.664 331.013 121.584C333.845 122.688 337.301 123.744 337.301 127.488C337.301 130.272 335.525 132.72 332.645 132.72C329.621 132.72 327.077 130.224 326.117 127.44L321.557 131.904C324.053 136.08 327.701 138.96 332.693 138.96C340.085 138.96 344.597 133.824 344.597 126.576C344.597 114.432 330.245 116.976 330.245 110.88C330.245 108.528 332.405 106.8 334.661 106.8C337.013 106.8 338.741 107.952 340.085 109.776L343.397 104.88ZM371.279 130.368L374.063 138H381.599L367.871 100.848H362.399L348.287 138H355.727L358.703 130.368H371.279ZM369.311 124.608H360.719L364.703 111.456H364.799L369.311 124.608Z" fill="white"/>
</svg>
