<svg width="466" height="180" viewBox="0 0 466 180" fill="none" xmlns="http://www.w3.org/2000/svg">
<path d="M30.5625 31V8.125H35.4531V26.8438H43.2656V31H30.5625ZM58.1875 22.2969L55.625 14.9062C55.5521 14.6875 55.4583 14.3125 55.3438 13.7812C55.2292 13.25 55.1094 12.599 54.9844 11.8281C54.849 12.5677 54.7188 13.2344 54.5938 13.8281C54.4688 14.4115 54.375 14.8021 54.3125 15L51.8438 22.2969H58.1875ZM43.625 31L52.3281 8.125H57.9219L66.75 31H61.1875L59.3281 26.1406H50.4688L48.875 31H43.625ZM97.4219 14.0781C96.4323 13.1927 95.4167 12.5469 94.375 12.1406C93.3333 11.724 92.2188 11.5156 91.0312 11.5156C88.5938 11.5156 86.651 12.2448 85.2031 13.7031C83.7552 15.1615 83.0312 17.1198 83.0312 19.5781C83.0312 21.9844 83.7031 23.8958 85.0469 25.3125C86.3906 26.7188 88.224 27.4219 90.5469 27.4219C91.8698 27.4219 93.099 27.2031 94.2344 26.7656C95.3698 26.3177 96.4219 25.651 97.3906 24.7656L97.3594 29.7812C96.3177 30.3958 95.224 30.8542 94.0781 31.1562C92.9427 31.4583 91.7448 31.6094 90.4844 31.6094C86.8385 31.6094 83.8438 30.4792 81.5 28.2188C79.1667 25.9479 78 23.0677 78 19.5781C78 16.099 79.1719 13.2292 81.5156 10.9688C83.8594 8.70833 86.8802 7.57812 90.5781 7.57812C91.8177 7.57812 93.0156 7.70833 94.1719 7.96875C95.3281 8.22917 96.4688 8.63021 97.5938 9.17188L97.4219 14.0781ZM121.641 8.125V22.3594C121.641 25.4635 120.823 27.7812 119.188 29.3125C117.552 30.8438 115.089 31.6094 111.797 31.6094C108.453 31.6094 105.964 30.8438 104.328 29.3125C102.693 27.7812 101.875 25.4635 101.875 22.3594V8.125H106.734V21.5938C106.734 23.4792 107.151 24.901 107.984 25.8594C108.818 26.8073 110.062 27.2812 111.719 27.2812C113.385 27.2812 114.646 26.8021 115.5 25.8438C116.354 24.8854 116.781 23.4688 116.781 21.5938V8.125H121.641ZM126.719 31V8.125H140.188V12.25H131.609V16.9531H140.188V21.1094H131.609V26.8438H140.188V31H126.719ZM145 31V8.125H150.078L160.203 21.4375C160.495 21.8125 160.812 22.3438 161.156 23.0312C161.51 23.7083 161.875 24.5104 162.25 25.4375C162.135 24.7604 162.052 24.0885 162 23.4219C161.948 22.7552 161.922 21.9219 161.922 20.9219V8.125H166.594V31H161.797L151.391 17.4375C151.099 17.0625 150.781 16.5365 150.438 15.8594C150.094 15.1719 149.729 14.3542 149.344 13.4062C149.458 14.0625 149.542 14.7292 149.594 15.4062C149.646 16.0729 149.672 16.9167 149.672 17.9375V31H145ZM180.234 12.2812V31H175.328V12.2812H169.734V8.125H185.859V12.2812H180.234ZM199.125 22.2969L196.562 14.9062C196.49 14.6875 196.396 14.3125 196.281 13.7812C196.167 13.25 196.047 12.599 195.922 11.8281C195.786 12.5677 195.656 13.2344 195.531 13.8281C195.406 14.4115 195.312 14.8021 195.25 15L192.781 22.2969H199.125ZM184.562 31L193.266 8.125H198.859L207.688 31H202.125L200.266 26.1406H191.406L189.812 31H184.562ZM234.438 23.25L236.125 25.2344C236.833 24.5052 237.375 23.651 237.75 22.6719C238.135 21.6823 238.328 20.6615 238.328 19.6094C238.328 17.4427 237.646 15.6198 236.281 14.1406C234.917 12.6615 233.214 11.9219 231.172 11.9219C229.099 11.9219 227.38 12.6615 226.016 14.1406C224.651 15.6094 223.969 17.4323 223.969 19.6094C223.969 21.8073 224.635 23.6302 225.969 25.0781C227.312 26.526 229.016 27.25 231.078 27.25C231.255 27.25 231.5 27.2344 231.812 27.2031C232.135 27.1615 232.516 27.1042 232.953 27.0312L229.656 23.25H234.438ZM243.234 33.6562H238.359L235.875 30.7188C234.75 31.0104 233.812 31.2188 233.062 31.3438C232.323 31.4792 231.661 31.5469 231.078 31.5469C229.505 31.5469 227.964 31.2396 226.453 30.625C224.943 30.0104 223.625 29.1562 222.5 28.0625C221.344 26.9375 220.453 25.6458 219.828 24.1875C219.214 22.7188 218.906 21.1823 218.906 19.5781C218.906 17.974 219.214 16.4479 219.828 15C220.443 13.5417 221.333 12.2396 222.5 11.0938C223.635 9.96875 224.948 9.10938 226.438 8.51562C227.938 7.91146 229.516 7.60938 231.172 7.60938C232.797 7.60938 234.354 7.91146 235.844 8.51562C237.333 9.10938 238.656 9.96875 239.812 11.0938C240.969 12.2292 241.854 13.5208 242.469 14.9688C243.083 16.4167 243.391 17.9531 243.391 19.5781C243.391 21.3698 243.021 23.0417 242.281 24.5938C241.542 26.1458 240.458 27.526 239.031 28.7344L243.234 33.6562ZM267.172 8.125V22.3594C267.172 25.4635 266.354 27.7812 264.719 29.3125C263.083 30.8438 260.62 31.6094 257.328 31.6094C253.984 31.6094 251.495 30.8438 249.859 29.3125C248.224 27.7812 247.406 25.4635 247.406 22.3594V8.125H252.266V21.5938C252.266 23.4792 252.682 24.901 253.516 25.8594C254.349 26.8073 255.594 27.2812 257.25 27.2812C258.917 27.2812 260.177 26.8021 261.031 25.8438C261.885 24.8854 262.312 23.4688 262.312 21.5938V8.125H267.172ZM272.25 31V8.125H285.719V12.25H277.141V16.9531H285.719V21.1094H277.141V26.8438H285.719V31H272.25ZM308.922 12.2812V31H304.016V12.2812H298.422V8.125H314.547V12.2812H308.922ZM337.391 8.125V22.3594C337.391 25.4635 336.573 27.7812 334.938 29.3125C333.302 30.8438 330.839 31.6094 327.547 31.6094C324.203 31.6094 321.714 30.8438 320.078 29.3125C318.443 27.7812 317.625 25.4635 317.625 22.3594V8.125H322.484V21.5938C322.484 23.4792 322.901 24.901 323.734 25.8594C324.568 26.8073 325.812 27.2812 327.469 27.2812C329.135 27.2812 330.396 26.8021 331.25 25.8438C332.104 24.8854 332.531 23.4688 332.531 21.5938V8.125H337.391ZM30.5625 69V46.125H44.0312V50.25H35.4531V54.9531H44.0312V59.1094H35.4531V64.8438H44.0312V69H30.5625ZM46.8594 69L50.3438 46.125H55.4688L59.875 59.5938C59.9688 59.875 60.0677 60.2865 60.1719 60.8281C60.2865 61.3698 60.3906 61.9896 60.4844 62.6875C60.5677 61.9792 60.6615 61.349 60.7656 60.7969C60.8698 60.2344 60.9688 59.8229 61.0625 59.5625L65.5469 46.125H70.5938L74.0938 69H69.4531L67.7812 55.2031C67.6562 54.1823 67.5729 53.4115 67.5312 52.8906C67.4896 52.3698 67.4688 51.8854 67.4688 51.4375C67.4688 51.1979 67.4688 51.0208 67.4688 50.9062C67.4792 50.7812 67.4896 50.6719 67.5 50.5781C67.3438 51.474 67.1927 52.25 67.0469 52.9062C66.9115 53.5521 66.7865 54.0417 66.6719 54.375L61.8281 69H59.0781L54.3125 54.375C54.2708 54.2396 54.1771 53.8646 54.0312 53.25C53.8958 52.6354 53.7031 51.7396 53.4531 50.5625V51.2344C53.4531 52.2969 53.3594 53.599 53.1719 55.1406L53.1562 55.2031L51.5 69H46.8594ZM82.2031 56.4531H82.9062C84.2396 56.4531 85.2083 56.1771 85.8125 55.625C86.4167 55.0729 86.7188 54.1875 86.7188 52.9688C86.7188 51.8438 86.4167 51.026 85.8125 50.5156C85.2083 49.9948 84.2396 49.7344 82.9062 49.7344H82.2031V56.4531ZM77.2812 69V46.125H82.9062C85.9062 46.125 88.1198 46.6979 89.5469 47.8438C90.9844 48.9896 91.7031 50.7604 91.7031 53.1562C91.7031 55.375 90.9792 57.1146 89.5312 58.375C88.0938 59.6354 86.099 60.2656 83.5469 60.2656H82.2031V69H77.2812ZM111.641 69H106L99.9844 58.3125V69H95.0938V46.125H102.094C104.875 46.125 106.958 46.6667 108.344 47.75C109.729 48.8229 110.422 50.4427 110.422 52.6094C110.422 54.1823 109.948 55.526 109 56.6406C108.052 57.7552 106.828 58.4062 105.328 58.5938L111.641 69ZM99.9844 55.875H100.719C102.698 55.875 104.005 55.6615 104.641 55.2344C105.276 54.7969 105.594 54.0417 105.594 52.9688C105.594 51.8438 105.25 51.0469 104.562 50.5781C103.885 50.099 102.604 49.8594 100.719 49.8594H99.9844V55.875ZM114.5 69V46.125H127.969V50.25H119.391V54.9531H127.969V59.1094H119.391V64.8438H127.969V69H114.5ZM131.312 66.0938L134.031 63.0156C134.375 63.8594 134.927 64.526 135.688 65.0156C136.448 65.4948 137.302 65.7344 138.25 65.7344C139.396 65.7344 140.302 65.4635 140.969 64.9219C141.635 64.3802 141.969 63.651 141.969 62.7344C141.969 61.651 140.859 60.5729 138.641 59.5C137.922 59.1562 137.354 58.875 136.938 58.6562C134.938 57.6146 133.552 56.599 132.781 55.6094C132.01 54.6094 131.625 53.4219 131.625 52.0469C131.625 50.1615 132.37 48.6146 133.859 47.4062C135.359 46.1875 137.302 45.5781 139.688 45.5781C141.073 45.5781 142.266 45.8229 143.266 46.3125C144.276 46.7917 145.167 47.5469 145.938 48.5781L143.047 51.3438C142.703 50.6771 142.245 50.1823 141.672 49.8594C141.109 49.526 140.427 49.3594 139.625 49.3594C138.656 49.3594 137.875 49.6042 137.281 50.0938C136.688 50.5729 136.391 51.1979 136.391 51.9688C136.391 53.1771 137.568 54.2812 139.922 55.2812C140.391 55.4792 140.75 55.6354 141 55.75C142.938 56.6354 144.37 57.6354 145.297 58.75C146.234 59.8646 146.703 61.1354 146.703 62.5625C146.703 64.7083 145.969 66.4219 144.5 67.7031C143.042 68.974 141.078 69.6094 138.609 69.6094C136.859 69.6094 135.359 69.3073 134.109 68.7031C132.859 68.099 131.927 67.2292 131.312 66.0938ZM162.562 60.2969L160 52.9062C159.927 52.6875 159.833 52.3125 159.719 51.7812C159.604 51.25 159.484 50.599 159.359 49.8281C159.224 50.5677 159.094 51.2344 158.969 51.8281C158.844 52.4115 158.75 52.8021 158.688 53L156.219 60.2969H162.562ZM148 69L156.703 46.125H162.297L171.125 69H165.562L163.703 64.1406H154.844L153.25 69H148ZM183.375 69V46.125H188.453L198.578 59.4375C198.87 59.8125 199.188 60.3438 199.531 61.0312C199.885 61.7083 200.25 62.5104 200.625 63.4375C200.51 62.7604 200.427 62.0885 200.375 61.4219C200.323 60.7552 200.297 59.9219 200.297 58.9219V46.125H204.969V69H200.172L189.766 55.4375C189.474 55.0625 189.156 54.5365 188.812 53.8594C188.469 53.1719 188.104 52.3542 187.719 51.4062C187.833 52.0625 187.917 52.7292 187.969 53.4062C188.021 54.0729 188.047 54.9167 188.047 55.9375V69H183.375ZM210.062 69V46.125H223.531V50.25H214.953V54.9531H223.531V59.1094H214.953V64.8438H223.531V69H210.062ZM246.766 52.0781C245.776 51.1927 244.76 50.5469 243.719 50.1406C242.677 49.724 241.562 49.5156 240.375 49.5156C237.938 49.5156 235.995 50.2448 234.547 51.7031C233.099 53.1615 232.375 55.1198 232.375 57.5781C232.375 59.9844 233.047 61.8958 234.391 63.3125C235.734 64.7188 237.568 65.4219 239.891 65.4219C241.214 65.4219 242.443 65.2031 243.578 64.7656C244.714 64.3177 245.766 63.651 246.734 62.7656L246.703 67.7812C245.661 68.3958 244.568 68.8542 243.422 69.1562C242.286 69.4583 241.089 69.6094 239.828 69.6094C236.182 69.6094 233.188 68.4792 230.844 66.2188C228.51 63.9479 227.344 61.0677 227.344 57.5781C227.344 54.099 228.516 51.2292 230.859 48.9688C233.203 46.7083 236.224 45.5781 239.922 45.5781C241.161 45.5781 242.359 45.7083 243.516 45.9688C244.672 46.2292 245.812 46.6302 246.938 47.1719L246.766 52.0781ZM251.312 69V46.125H264.781V50.25H256.203V54.9531H264.781V59.1094H256.203V64.8438H264.781V69H251.312ZM268.125 66.0938L270.844 63.0156C271.188 63.8594 271.74 64.526 272.5 65.0156C273.26 65.4948 274.115 65.7344 275.062 65.7344C276.208 65.7344 277.115 65.4635 277.781 64.9219C278.448 64.3802 278.781 63.651 278.781 62.7344C278.781 61.651 277.672 60.5729 275.453 59.5C274.734 59.1562 274.167 58.875 273.75 58.6562C271.75 57.6146 270.365 56.599 269.594 55.6094C268.823 54.6094 268.438 53.4219 268.438 52.0469C268.438 50.1615 269.182 48.6146 270.672 47.4062C272.172 46.1875 274.115 45.5781 276.5 45.5781C277.885 45.5781 279.078 45.8229 280.078 46.3125C281.089 46.7917 281.979 47.5469 282.75 48.5781L279.859 51.3438C279.516 50.6771 279.057 50.1823 278.484 49.8594C277.922 49.526 277.24 49.3594 276.438 49.3594C275.469 49.3594 274.688 49.6042 274.094 50.0938C273.5 50.5729 273.203 51.1979 273.203 51.9688C273.203 53.1771 274.38 54.2812 276.734 55.2812C277.203 55.4792 277.562 55.6354 277.812 55.75C279.75 56.6354 281.182 57.6354 282.109 58.75C283.047 59.8646 283.516 61.1354 283.516 62.5625C283.516 64.7083 282.781 66.4219 281.312 67.7031C279.854 68.974 277.891 69.6094 275.422 69.6094C273.672 69.6094 272.172 69.3073 270.922 68.7031C269.672 68.099 268.74 67.2292 268.125 66.0938ZM287.625 69V46.125H292.516V69H287.625ZM306.297 50.2812V69H301.391V50.2812H295.797V46.125H311.922V50.2812H306.297ZM325.188 60.2969L322.625 52.9062C322.552 52.6875 322.458 52.3125 322.344 51.7812C322.229 51.25 322.109 50.599 321.984 49.8281C321.849 50.5677 321.719 51.2344 321.594 51.8281C321.469 52.4115 321.375 52.8021 321.312 53L318.844 60.2969H325.188ZM310.625 69L319.328 46.125H324.922L333.75 69H328.188L326.328 64.1406H317.469L315.875 69H310.625Z" fill="white"/>
<path d="M27 136H15C10.5817 136 7 132.418 7 128V28" stroke="white" stroke-width="1.5"/>
<circle cx="7" cy="21" r="6.25" stroke="white" stroke-width="1.5"/>
<rect x="25" y="107" width="268" height="73" rx="10" fill="#002A61"/>
<path d="M56.802 132.96L55.218 128.442L53.634 132.96H56.802ZM57.738 135.642H52.698L51.888 138H48.126L53.292 124.428H57.144L62.31 138H58.548L57.738 135.642ZM66.5189 133.356C66.5189 133.656 66.5729 133.938 66.6809 134.202C66.7889 134.454 66.9329 134.676 67.1129 134.868C67.3049 135.06 67.5269 135.21 67.7789 135.318C68.0429 135.426 68.3249 135.48 68.6249 135.48C68.9129 135.48 69.1829 135.426 69.4349 135.318C69.6989 135.21 69.9209 135.06 70.1009 134.868C70.2929 134.676 70.4429 134.454 70.5509 134.202C70.6709 133.95 70.7309 133.68 70.7309 133.392C70.7309 133.104 70.6709 132.834 70.5509 132.582C70.4429 132.318 70.2929 132.09 70.1009 131.898C69.9209 131.706 69.6989 131.556 69.4349 131.448C69.1829 131.34 68.9129 131.286 68.6249 131.286C68.3369 131.286 68.0609 131.34 67.7969 131.448C67.5449 131.556 67.3229 131.706 67.1309 131.898C66.9509 132.09 66.8009 132.312 66.6809 132.564C66.5729 132.804 66.5189 133.068 66.5189 133.356ZM70.6229 123.06H73.8989V138H70.6229V136.974C69.9269 137.85 68.9849 138.288 67.7969 138.288C67.1249 138.288 66.5069 138.162 65.9429 137.91C65.3789 137.658 64.8869 137.31 64.4669 136.866C64.0469 136.422 63.7169 135.9 63.4769 135.3C63.2489 134.7 63.1349 134.052 63.1349 133.356C63.1349 132.696 63.2429 132.072 63.4589 131.484C63.6869 130.884 64.0049 130.362 64.4129 129.918C64.8209 129.474 65.3069 129.126 65.8709 128.874C66.4469 128.61 67.0769 128.478 67.7609 128.478C68.9129 128.478 69.8669 128.88 70.6229 129.684V123.06ZM76.116 128.766H79.374V129.9C80.262 129.048 81.258 128.622 82.362 128.622C83.73 128.622 84.774 129.198 85.494 130.35C86.226 129.186 87.27 128.604 88.626 128.604C89.058 128.604 89.466 128.67 89.85 128.802C90.234 128.922 90.564 129.12 90.84 129.396C91.116 129.66 91.332 130.008 91.488 130.44C91.656 130.872 91.74 131.394 91.74 132.006V138H88.482V133.446C88.482 132.978 88.446 132.594 88.374 132.294C88.314 131.994 88.218 131.76 88.086 131.592C87.966 131.424 87.822 131.31 87.654 131.25C87.486 131.19 87.306 131.16 87.114 131.16C86.07 131.16 85.548 131.922 85.548 133.446V138H82.29V133.446C82.29 132.978 82.26 132.594 82.2 132.294C82.14 131.982 82.05 131.736 81.93 131.556C81.822 131.376 81.678 131.256 81.498 131.196C81.318 131.124 81.108 131.088 80.868 131.088C80.664 131.088 80.472 131.118 80.292 131.178C80.112 131.238 79.95 131.358 79.806 131.538C79.674 131.706 79.566 131.946 79.482 132.258C79.41 132.558 79.374 132.954 79.374 133.446V138H76.116V128.766ZM97.2334 128.766V138H93.9754V128.766H97.2334ZM93.7594 125.22C93.7594 124.968 93.8074 124.734 93.9034 124.518C93.9994 124.29 94.1314 124.092 94.2994 123.924C94.4674 123.756 94.6594 123.624 94.8754 123.528C95.1034 123.432 95.3434 123.384 95.5954 123.384C95.8474 123.384 96.0814 123.432 96.2974 123.528C96.5254 123.624 96.7234 123.756 96.8914 123.924C97.0594 124.092 97.1914 124.29 97.2874 124.518C97.3834 124.734 97.4314 124.968 97.4314 125.22C97.4314 125.472 97.3834 125.712 97.2874 125.94C97.1914 126.156 97.0594 126.348 96.8914 126.516C96.7234 126.684 96.5254 126.816 96.2974 126.912C96.0814 127.008 95.8474 127.056 95.5954 127.056C95.3434 127.056 95.1034 127.008 94.8754 126.912C94.6594 126.816 94.4674 126.684 94.2994 126.516C94.1314 126.348 93.9994 126.156 93.9034 125.94C93.8074 125.712 93.7594 125.472 93.7594 125.22ZM99.4598 128.766H102.718V129.936C103.162 129.396 103.612 129.036 104.068 128.856C104.524 128.664 105.058 128.568 105.67 128.568C106.318 128.568 106.87 128.676 107.326 128.892C107.794 129.096 108.19 129.39 108.514 129.774C108.778 130.086 108.958 130.434 109.054 130.818C109.15 131.202 109.198 131.64 109.198 132.132V138H105.94V133.338C105.94 132.882 105.904 132.516 105.832 132.24C105.772 131.952 105.658 131.724 105.49 131.556C105.346 131.412 105.184 131.31 105.004 131.25C104.824 131.19 104.632 131.16 104.428 131.16C103.876 131.16 103.45 131.328 103.15 131.664C102.862 131.988 102.718 132.456 102.718 133.068V138H99.4598V128.766ZM114.671 128.766V138H111.413V128.766H114.671ZM111.197 125.22C111.197 124.968 111.245 124.734 111.341 124.518C111.437 124.29 111.569 124.092 111.737 123.924C111.905 123.756 112.097 123.624 112.313 123.528C112.541 123.432 112.781 123.384 113.033 123.384C113.285 123.384 113.519 123.432 113.735 123.528C113.963 123.624 114.161 123.756 114.329 123.924C114.497 124.092 114.629 124.29 114.725 124.518C114.821 124.734 114.869 124.968 114.869 125.22C114.869 125.472 114.821 125.712 114.725 125.94C114.629 126.156 114.497 126.348 114.329 126.516C114.161 126.684 113.963 126.816 113.735 126.912C113.519 127.008 113.285 127.056 113.033 127.056C112.781 127.056 112.541 127.008 112.313 126.912C112.097 126.816 111.905 126.684 111.737 126.516C111.569 126.348 111.437 126.156 111.341 125.94C111.245 125.712 111.197 125.472 111.197 125.22ZM123.017 131.142C122.417 130.83 121.829 130.674 121.253 130.674C120.953 130.674 120.707 130.734 120.515 130.854C120.335 130.974 120.245 131.136 120.245 131.34C120.245 131.448 120.257 131.538 120.281 131.61C120.317 131.67 120.383 131.73 120.479 131.79C120.587 131.85 120.737 131.904 120.929 131.952C121.133 132 121.397 132.06 121.721 132.132C122.621 132.312 123.293 132.636 123.737 133.104C124.181 133.56 124.403 134.148 124.403 134.868C124.403 135.408 124.295 135.894 124.079 136.326C123.863 136.758 123.563 137.124 123.179 137.424C122.795 137.712 122.333 137.934 121.793 138.09C121.253 138.258 120.659 138.342 120.011 138.342C118.763 138.342 117.533 137.988 116.321 137.28L117.509 134.976C118.421 135.6 119.285 135.912 120.101 135.912C120.401 135.912 120.647 135.846 120.839 135.714C121.031 135.582 121.127 135.414 121.127 135.21C121.127 135.09 121.109 134.994 121.073 134.922C121.049 134.838 120.989 134.766 120.893 134.706C120.797 134.634 120.653 134.574 120.461 134.526C120.281 134.466 120.041 134.406 119.741 134.346C118.733 134.142 118.025 133.842 117.617 133.446C117.221 133.038 117.023 132.48 117.023 131.772C117.023 131.256 117.119 130.794 117.311 130.386C117.503 129.966 117.779 129.612 118.139 129.324C118.499 129.036 118.931 128.814 119.435 128.658C119.951 128.502 120.521 128.424 121.145 128.424C122.165 128.424 123.155 128.622 124.115 129.018L123.017 131.142ZM129.938 131.484V138H126.68V131.484H125.6V128.766H126.68V125.994H129.938V128.766H131.792V131.484H129.938ZM133.016 128.766H136.274V130.278C136.622 129.726 137.048 129.306 137.552 129.018C138.056 128.718 138.644 128.568 139.316 128.568C139.4 128.568 139.49 128.568 139.586 128.568C139.694 128.568 139.814 128.58 139.946 128.604V131.718C139.514 131.502 139.046 131.394 138.542 131.394C137.786 131.394 137.216 131.622 136.832 132.078C136.46 132.522 136.274 133.176 136.274 134.04V138H133.016V128.766ZM144.531 133.356C144.531 133.656 144.585 133.938 144.693 134.202C144.801 134.454 144.945 134.676 145.125 134.868C145.317 135.06 145.539 135.21 145.791 135.318C146.055 135.426 146.337 135.48 146.637 135.48C146.925 135.48 147.195 135.426 147.447 135.318C147.711 135.21 147.933 135.06 148.113 134.868C148.305 134.676 148.455 134.454 148.563 134.202C148.683 133.95 148.743 133.68 148.743 133.392C148.743 133.104 148.683 132.834 148.563 132.582C148.455 132.318 148.305 132.09 148.113 131.898C147.933 131.706 147.711 131.556 147.447 131.448C147.195 131.34 146.925 131.286 146.637 131.286C146.337 131.286 146.055 131.34 145.791 131.448C145.539 131.556 145.317 131.706 145.125 131.898C144.945 132.09 144.801 132.312 144.693 132.564C144.585 132.804 144.531 133.068 144.531 133.356ZM148.635 128.766H151.911V138H148.635V136.974C147.939 137.85 146.997 138.288 145.809 138.288C145.137 138.288 144.519 138.168 143.955 137.928C143.391 137.676 142.899 137.328 142.479 136.884C142.059 136.44 141.729 135.918 141.489 135.318C141.261 134.718 141.147 134.064 141.147 133.356C141.147 132.696 141.261 132.072 141.489 131.484C141.717 130.884 142.035 130.362 142.443 129.918C142.851 129.474 143.337 129.126 143.901 128.874C144.465 128.61 145.089 128.478 145.773 128.478C146.925 128.478 147.879 128.88 148.635 129.684V128.766ZM161.429 130.872H162.941V129.54H161.429V126.498H159.989V129.54H159.107V130.872H159.989V138H161.429V130.872ZM165.573 129.54H164.133V134.418C164.133 136.668 164.979 138.234 167.481 138.234C169.983 138.234 170.829 136.668 170.829 134.418V129.54H169.389V134.256C169.389 135.678 169.227 136.902 167.481 136.902C165.735 136.902 165.573 135.678 165.573 134.256V129.54ZM178.078 130.872C177.7 129.99 176.8 129.306 175.828 129.306C174.46 129.306 173.308 130.278 173.308 131.7C173.308 134.364 177.124 133.716 177.124 135.606C177.124 136.38 176.53 136.902 175.756 136.902C174.802 136.902 174.388 136.344 174.028 135.552L172.75 136.092C173.2 137.424 174.316 138.234 175.738 138.234C177.304 138.234 178.6 137.082 178.6 135.48C178.6 134.058 177.628 133.464 176.638 133.05C175.648 132.636 174.676 132.348 174.676 131.574C174.676 131.034 175.216 130.638 175.72 130.638C176.242 130.638 176.674 131.052 176.872 131.502L178.078 130.872ZM187.547 129.54H186.107V138H187.547V133.77C187.547 132.672 187.619 130.638 189.203 130.638C189.581 130.638 189.779 130.818 190.067 131.016L190.751 129.702C190.337 129.468 189.941 129.306 189.455 129.306C188.519 129.306 188.087 129.792 187.583 130.458H187.547V129.54ZM199.57 134.076C199.714 131.556 198.274 129.306 195.556 129.306C192.91 129.306 191.452 131.376 191.452 133.878C191.452 136.308 193.072 138.234 195.592 138.234C197.32 138.234 198.688 137.37 199.498 135.858L198.274 135.156C197.716 136.164 196.924 136.902 195.7 136.902C194.062 136.902 192.946 135.642 192.928 134.076H199.57ZM193 132.852C193.18 131.628 194.332 130.638 195.574 130.638C196.834 130.638 197.86 131.628 198.058 132.852H193ZM207.824 130.152C207.068 129.612 206.132 129.306 205.214 129.306C202.73 129.306 200.696 131.25 200.696 133.77C200.696 136.326 202.64 138.234 205.196 138.234C206.204 138.234 207.05 137.928 207.878 137.37V135.444H207.842C207.14 136.362 206.294 136.902 205.088 136.902C203.324 136.902 202.172 135.444 202.172 133.77C202.172 132.078 203.414 130.638 205.16 130.638C206.294 130.638 207.122 131.214 207.788 132.06H207.824V130.152ZM211.434 129.54H209.994V134.418C209.994 136.668 210.84 138.234 213.342 138.234C215.844 138.234 216.69 136.668 216.69 134.418V129.54H215.25V134.256C215.25 135.678 215.088 136.902 213.342 136.902C211.596 136.902 211.434 135.678 211.434 134.256V129.54ZM220.681 129.54H219.241V138H220.681V133.77C220.681 132.672 220.753 130.638 222.337 130.638C222.715 130.638 222.913 130.818 223.201 131.016L223.885 129.702C223.471 129.468 223.075 129.306 222.589 129.306C221.653 129.306 221.221 129.792 220.717 130.458H220.681V129.54ZM229.969 130.872C229.591 129.99 228.691 129.306 227.719 129.306C226.351 129.306 225.199 130.278 225.199 131.7C225.199 134.364 229.015 133.716 229.015 135.606C229.015 136.38 228.421 136.902 227.647 136.902C226.693 136.902 226.279 136.344 225.919 135.552L224.641 136.092C225.091 137.424 226.207 138.234 227.629 138.234C229.195 138.234 230.491 137.082 230.491 135.48C230.491 134.058 229.519 133.464 228.529 133.05C227.539 132.636 226.567 132.348 226.567 131.574C226.567 131.034 227.107 130.638 227.611 130.638C228.133 130.638 228.565 131.052 228.763 131.502L229.969 130.872ZM236.222 138.234C238.688 138.234 240.668 136.272 240.668 133.788C240.668 131.304 238.706 129.306 236.222 129.306C233.738 129.306 231.776 131.304 231.776 133.788C231.776 136.272 233.756 138.234 236.222 138.234ZM236.222 130.638C238.004 130.638 239.228 132.06 239.228 133.77C239.228 135.498 238.004 136.902 236.222 136.902C234.44 136.902 233.216 135.498 233.216 133.77C233.216 132.06 234.44 130.638 236.222 130.638ZM247.265 130.872C246.887 129.99 245.987 129.306 245.015 129.306C243.647 129.306 242.495 130.278 242.495 131.7C242.495 134.364 246.311 133.716 246.311 135.606C246.311 136.38 245.717 136.902 244.943 136.902C243.989 136.902 243.575 136.344 243.215 135.552L241.937 136.092C242.387 137.424 243.503 138.234 244.925 138.234C246.491 138.234 247.787 137.082 247.787 135.48C247.787 134.058 246.815 133.464 245.825 133.05C244.835 132.636 243.863 132.348 243.863 131.574C243.863 131.034 244.403 130.638 244.907 130.638C245.429 130.638 245.861 131.052 246.059 131.502L247.265 130.872ZM258.876 130.638C260.658 130.638 261.72 132.006 261.72 133.698C261.72 135.408 260.748 136.902 258.894 136.902C257.094 136.902 256.122 135.336 256.122 133.68C256.122 132.096 257.202 130.638 258.876 130.638ZM261.648 138H263.088V123.15H261.648V130.746H261.612C260.928 129.846 259.848 129.306 258.714 129.306C256.176 129.306 254.646 131.376 254.646 133.788C254.646 136.128 256.212 138.234 258.696 138.234C259.848 138.234 260.91 137.748 261.612 136.83H261.648V138ZM273.117 134.076C273.261 131.556 271.821 129.306 269.103 129.306C266.457 129.306 264.999 131.376 264.999 133.878C264.999 136.308 266.619 138.234 269.139 138.234C270.867 138.234 272.235 137.37 273.045 135.858L271.821 135.156C271.263 136.164 270.471 136.902 269.247 136.902C267.609 136.902 266.493 135.642 266.475 134.076H273.117ZM266.547 132.852C266.727 131.628 267.879 130.638 269.121 130.638C270.381 130.638 271.407 131.628 271.605 132.852H266.547ZM50.808 149.54H49.368V158H50.808V153.626C50.808 152.348 50.988 150.638 52.68 150.638C54.066 150.638 54.192 152.15 54.192 153.194V158H55.632V153.518C55.632 152.24 55.812 150.638 57.468 150.638C58.944 150.638 59.016 151.988 59.016 153.086V158H60.456V152.852C60.456 151.07 59.916 149.306 57.756 149.306C56.73 149.306 55.722 149.774 55.218 150.71C54.768 149.828 53.868 149.306 52.878 149.306C52.014 149.306 51.294 149.756 50.844 150.458H50.808V149.54ZM66.6944 150.638C68.4764 150.638 69.5384 152.006 69.5384 153.698C69.5384 155.408 68.5664 156.902 66.7124 156.902C64.9124 156.902 63.9404 155.336 63.9404 153.68C63.9404 152.096 65.0204 150.638 66.6944 150.638ZM70.9064 149.54H69.4664V150.746H69.4304C68.7284 149.846 67.6844 149.306 66.5324 149.306C63.9944 149.306 62.4644 151.376 62.4644 153.788C62.4644 156.128 64.0304 158.234 66.5144 158.234C67.7024 158.234 68.6924 157.766 69.4304 156.83H69.4664V158H70.9064V149.54ZM75.0131 149.54H73.5731V158H75.0131V153.986C75.0131 152.474 75.1391 150.638 77.1191 150.638C78.7931 150.638 78.9011 151.862 78.9011 153.23V158H80.3411V152.978C80.3411 150.998 79.8011 149.306 77.4611 149.306C76.4171 149.306 75.6431 149.756 75.0491 150.566H75.0131V149.54ZM90.4448 154.076C90.5888 151.556 89.1488 149.306 86.4308 149.306C83.7848 149.306 82.3268 151.376 82.3268 153.878C82.3268 156.308 83.9468 158.234 86.4668 158.234C88.1948 158.234 89.5628 157.37 90.3728 155.858L89.1488 155.156C88.5908 156.164 87.7988 156.902 86.5748 156.902C84.9368 156.902 83.8208 155.642 83.8028 154.076H90.4448ZM83.8748 152.852C84.0548 151.628 85.2068 150.638 86.4488 150.638C87.7088 150.638 88.7348 151.628 88.9328 152.852H83.8748ZM93.7848 149.54H92.3448V158H93.7848V153.77C93.7848 152.672 93.8568 150.638 95.4408 150.638C95.8188 150.638 96.0168 150.818 96.3048 151.016L96.9888 149.702C96.5748 149.468 96.1788 149.306 95.6928 149.306C94.7568 149.306 94.3248 149.792 93.8208 150.458H93.7848V149.54ZM101.956 150.638C103.738 150.638 104.8 152.006 104.8 153.698C104.8 155.408 103.828 156.902 101.974 156.902C100.174 156.902 99.2021 155.336 99.2021 153.68C99.2021 152.096 100.282 150.638 101.956 150.638ZM106.168 149.54H104.728V150.746H104.692C103.99 149.846 102.946 149.306 101.794 149.306C99.2561 149.306 97.7261 151.376 97.7261 153.788C97.7261 156.128 99.2921 158.234 101.776 158.234C102.964 158.234 103.954 157.766 104.692 156.83H104.728V158H106.168V149.54ZM120.87 152.042C120.762 151.586 120.54 151.22 120.204 150.944C119.868 150.668 119.46 150.53 118.98 150.53C118.476 150.53 118.062 150.662 117.738 150.926C117.426 151.19 117.228 151.562 117.144 152.042H120.87ZM117.054 153.932C117.054 155.336 117.714 156.038 119.034 156.038C119.742 156.038 120.276 155.75 120.636 155.174H123.786C123.15 157.286 121.56 158.342 119.016 158.342C118.236 158.342 117.522 158.228 116.874 158C116.226 157.76 115.668 157.424 115.2 156.992C114.744 156.56 114.39 156.044 114.138 155.444C113.886 154.844 113.76 154.172 113.76 153.428C113.76 152.66 113.88 151.97 114.12 151.358C114.36 150.734 114.702 150.206 115.146 149.774C115.59 149.342 116.124 149.012 116.748 148.784C117.384 148.544 118.098 148.424 118.89 148.424C119.67 148.424 120.372 148.544 120.996 148.784C121.62 149.012 122.148 149.348 122.58 149.792C123.012 150.236 123.342 150.782 123.57 151.43C123.798 152.066 123.912 152.786 123.912 153.59V153.932H117.054ZM126.044 148.766V147.056C126.044 146.456 126.17 145.892 126.422 145.364C126.686 144.824 127.034 144.356 127.466 143.96C127.91 143.564 128.42 143.252 128.996 143.024C129.584 142.784 130.202 142.664 130.85 142.664C131.498 142.664 132.11 142.778 132.686 143.006C133.274 143.234 133.784 143.546 134.216 143.942C134.66 144.338 135.008 144.806 135.26 145.346C135.524 145.874 135.656 146.444 135.656 147.056V147.47H132.398V147.056C132.398 146.84 132.356 146.636 132.272 146.444C132.2 146.24 132.092 146.06 131.948 145.904C131.816 145.748 131.654 145.622 131.462 145.526C131.282 145.43 131.078 145.382 130.85 145.382C130.406 145.382 130.034 145.55 129.734 145.886C129.446 146.222 129.302 146.612 129.302 147.056V148.766H131.174V151.484H129.302V158H126.044V151.484H124.874V148.766H126.044ZM135.656 158H132.398V148.766H135.656V158ZM144.852 151.754C144.288 151.37 143.718 151.178 143.142 151.178C142.83 151.178 142.536 151.232 142.26 151.34C141.996 151.448 141.762 151.604 141.558 151.808C141.354 152 141.192 152.234 141.072 152.51C140.964 152.774 140.91 153.074 140.91 153.41C140.91 153.734 140.964 154.034 141.072 154.31C141.192 154.574 141.348 154.808 141.54 155.012C141.744 155.204 141.984 155.354 142.26 155.462C142.536 155.57 142.83 155.624 143.142 155.624C143.754 155.624 144.324 155.414 144.852 154.994V157.766C144.048 158.114 143.286 158.288 142.566 158.288C141.894 158.288 141.252 158.174 140.64 157.946C140.04 157.718 139.506 157.394 139.038 156.974C138.582 156.542 138.216 156.032 137.94 155.444C137.664 154.844 137.526 154.178 137.526 153.446C137.526 152.714 137.658 152.048 137.922 151.448C138.186 150.836 138.546 150.314 139.002 149.882C139.458 149.438 139.998 149.096 140.622 148.856C141.258 148.604 141.936 148.478 142.656 148.478C143.448 148.478 144.18 148.646 144.852 148.982V151.754ZM149.968 148.766V158H146.71V148.766H149.968ZM146.494 145.22C146.494 144.968 146.542 144.734 146.638 144.518C146.734 144.29 146.866 144.092 147.034 143.924C147.202 143.756 147.394 143.624 147.61 143.528C147.838 143.432 148.078 143.384 148.33 143.384C148.582 143.384 148.816 143.432 149.032 143.528C149.26 143.624 149.458 143.756 149.626 143.924C149.794 144.092 149.926 144.29 150.022 144.518C150.118 144.734 150.166 144.968 150.166 145.22C150.166 145.472 150.118 145.712 150.022 145.94C149.926 146.156 149.794 146.348 149.626 146.516C149.458 146.684 149.26 146.816 149.032 146.912C148.816 147.008 148.582 147.056 148.33 147.056C148.078 147.056 147.838 147.008 147.61 146.912C147.394 146.816 147.202 146.684 147.034 146.516C146.866 146.348 146.734 146.156 146.638 145.94C146.542 145.712 146.494 145.472 146.494 145.22ZM158.944 152.042C158.836 151.586 158.614 151.22 158.278 150.944C157.942 150.668 157.534 150.53 157.054 150.53C156.55 150.53 156.136 150.662 155.812 150.926C155.5 151.19 155.302 151.562 155.218 152.042H158.944ZM155.128 153.932C155.128 155.336 155.788 156.038 157.108 156.038C157.816 156.038 158.35 155.75 158.71 155.174H161.86C161.224 157.286 159.634 158.342 157.09 158.342C156.31 158.342 155.596 158.228 154.948 158C154.3 157.76 153.742 157.424 153.274 156.992C152.818 156.56 152.464 156.044 152.212 155.444C151.96 154.844 151.834 154.172 151.834 153.428C151.834 152.66 151.954 151.97 152.194 151.358C152.434 150.734 152.776 150.206 153.22 149.774C153.664 149.342 154.198 149.012 154.822 148.784C155.458 148.544 156.172 148.424 156.964 148.424C157.744 148.424 158.446 148.544 159.07 148.784C159.694 149.012 160.222 149.348 160.654 149.792C161.086 150.236 161.416 150.782 161.644 151.43C161.872 152.066 161.986 152.786 161.986 153.59V153.932H155.128ZM163.848 148.766H167.106V149.936C167.55 149.396 168 149.036 168.456 148.856C168.912 148.664 169.446 148.568 170.058 148.568C170.706 148.568 171.258 148.676 171.714 148.892C172.182 149.096 172.578 149.39 172.902 149.774C173.166 150.086 173.346 150.434 173.442 150.818C173.538 151.202 173.586 151.64 173.586 152.132V158H170.328V153.338C170.328 152.882 170.292 152.516 170.22 152.24C170.16 151.952 170.046 151.724 169.878 151.556C169.734 151.412 169.572 151.31 169.392 151.25C169.212 151.19 169.02 151.16 168.816 151.16C168.264 151.16 167.838 151.328 167.538 151.664C167.25 151.988 167.106 152.456 167.106 153.068V158H163.848V148.766ZM179.438 151.484V158H176.18V151.484H175.1V148.766H176.18V145.994H179.438V148.766H181.292V151.484H179.438ZM189.442 152.042C189.334 151.586 189.112 151.22 188.776 150.944C188.44 150.668 188.032 150.53 187.552 150.53C187.048 150.53 186.634 150.662 186.31 150.926C185.998 151.19 185.8 151.562 185.716 152.042H189.442ZM185.626 153.932C185.626 155.336 186.286 156.038 187.606 156.038C188.314 156.038 188.848 155.75 189.208 155.174H192.358C191.722 157.286 190.132 158.342 187.588 158.342C186.808 158.342 186.094 158.228 185.446 158C184.798 157.76 184.24 157.424 183.772 156.992C183.316 156.56 182.962 156.044 182.71 155.444C182.458 154.844 182.332 154.172 182.332 153.428C182.332 152.66 182.452 151.97 182.692 151.358C182.932 150.734 183.274 150.206 183.718 149.774C184.162 149.342 184.696 149.012 185.32 148.784C185.956 148.544 186.67 148.424 187.462 148.424C188.242 148.424 188.944 148.544 189.568 148.784C190.192 149.012 190.72 149.348 191.152 149.792C191.584 150.236 191.914 150.782 192.142 151.43C192.37 152.066 192.484 152.786 192.484 153.59V153.932H185.626Z" fill="white"/>
</svg>
