<svg width="550" height="235" viewBox="0 0 550 235" fill="none" xmlns="http://www.w3.org/2000/svg">
<path d="M27 204H15C10.5817 204 7 200.418 7 196V14" stroke="white" stroke-width="1.5"/>
<path d="M12.622 7.0784C12.622 10.6144 9.92461 13.4068 6.68598 13.4068C3.44736 13.4068 0.75 10.6144 0.75 7.0784C0.75 3.54244 3.44736 0.75 6.68598 0.75C9.92461 0.75 12.622 3.54244 12.622 7.0784Z" stroke="white" stroke-width="1.5"/>
<rect x="25" y="172" width="400" height="63" rx="16" fill="#002A61"/>
<path d="M51.2256 210V200.174H48.3428V197.133H57.6152V200.174H54.7324V210H51.2256ZM59.1357 210V201.123H62.0889V203.215C62.3994 202.447 62.8125 201.876 63.3281 201.501C63.8613 201.12 64.5029 200.93 65.2529 200.93C65.4229 200.93 65.5488 200.936 65.6309 200.947C65.6953 200.953 65.7539 200.959 65.8066 200.965C65.8594 200.965 65.9268 200.971 66.0088 200.982L65.71 203.83C65.4932 203.76 65.3057 203.71 65.1475 203.681C64.9131 203.657 64.7402 203.646 64.6289 203.646C63.8672 203.646 63.2783 203.88 62.8623 204.349C62.4521 204.812 62.2471 205.471 62.2471 206.326V210H59.1357ZM73.9365 205.553C73.9365 204.85 73.752 204.305 73.3828 203.918C73.0078 203.508 72.5039 203.303 71.8711 203.303C71.2383 203.303 70.7402 203.502 70.377 203.9C70.002 204.311 69.8145 204.861 69.8145 205.553C69.8145 206.25 70.002 206.798 70.377 207.196C70.7344 207.589 71.2324 207.785 71.8711 207.785C72.5039 207.785 73.0049 207.589 73.374 207.196C73.749 206.804 73.9365 206.256 73.9365 205.553ZM76.6875 201.123V210H73.8135V208.559C73.3975 209.174 72.9316 209.625 72.416 209.912C71.9062 210.199 71.3086 210.343 70.623 210.343C69.4336 210.343 68.4873 209.909 67.7842 209.042C67.4385 208.614 67.1748 208.11 66.9932 207.53C66.8115 206.95 66.7207 206.297 66.7207 205.57C66.7207 204.117 67.0928 202.966 67.8369 202.116C68.5811 201.267 69.5771 200.842 70.8252 200.842C71.4932 200.842 72.0674 200.985 72.5479 201.272C73.0342 201.548 73.4502 201.984 73.7959 202.582V201.123H76.6875ZM79.0518 210V201.123H81.917V202.925C82.3213 202.222 82.8018 201.694 83.3584 201.343C83.8975 201.009 84.5508 200.842 85.3184 200.842C85.8984 200.842 86.4141 200.93 86.8652 201.105C87.3105 201.305 87.6709 201.574 87.9463 201.914C88.1982 202.254 88.3652 202.614 88.4473 202.995C88.5469 203.481 88.5967 204.123 88.5967 204.92V210H85.459V205.245C85.459 204.524 85.3447 204.009 85.1162 203.698C84.8877 203.376 84.5156 203.215 84 203.215C83.3555 203.215 82.8809 203.455 82.5762 203.936C82.2773 204.416 82.1279 205.195 82.1279 206.273V210H79.0518ZM89.9854 209.262L90.6357 206.871C91.0928 207.275 91.5967 207.58 92.1475 207.785C92.6924 208.002 93.2432 208.11 93.7998 208.11C94.1982 208.11 94.4971 208.043 94.6963 207.908C94.9014 207.785 95.0039 207.606 95.0039 207.372C95.0039 206.979 94.5908 206.687 93.7646 206.493C93.4775 206.429 93.2607 206.373 93.1143 206.326C92.1592 206.045 91.4824 205.702 91.084 205.298C90.6504 204.882 90.4336 204.343 90.4336 203.681C90.4336 202.825 90.7588 202.137 91.4092 201.615C92.0361 201.1 92.9121 200.842 94.0371 200.842C94.582 200.842 95.1621 200.906 95.7773 201.035C96.293 201.141 96.8936 201.346 97.5791 201.65L96.9287 203.804C96.5068 203.517 96.082 203.303 95.6543 203.162C95.25 203.016 94.8252 202.942 94.3799 202.942C94.0166 202.942 93.7441 202.998 93.5625 203.109C93.3867 203.215 93.2988 203.376 93.2988 203.593C93.2988 203.897 93.7119 204.161 94.5381 204.384C94.8076 204.466 94.9453 204.507 94.9512 204.507C96.0293 204.812 96.7852 205.172 97.2188 205.588C97.6406 206.027 97.8516 206.599 97.8516 207.302C97.8516 208.21 97.5029 208.942 96.8057 209.499C96.0908 210.062 95.168 210.343 94.0371 210.343C93.252 210.343 92.5283 210.252 91.8662 210.07C91.21 209.895 90.583 209.625 89.9854 209.262ZM99.8379 210V203.338H98.502V201.123H99.8379V199.304C99.8379 198.278 100.119 197.499 100.682 196.966C101.238 196.45 102.079 196.192 103.204 196.192C103.28 196.192 103.471 196.204 103.775 196.228C104.104 196.28 104.338 196.324 104.479 196.359V198.75C104.373 198.709 104.241 198.668 104.083 198.627C103.919 198.604 103.811 198.592 103.758 198.592C103.453 198.592 103.239 198.68 103.116 198.855C102.981 199.043 102.914 199.327 102.914 199.708V201.123H104.479V203.338H102.914V210H99.8379ZM105.788 210V201.123H108.917V210H105.788ZM106.184 198.838H106.201C106.201 198.51 106.315 198.24 106.544 198.029C106.772 197.801 107.048 197.687 107.37 197.687C107.71 197.687 107.988 197.795 108.205 198.012C108.428 198.229 108.539 198.504 108.539 198.838C108.539 199.178 108.425 199.459 108.196 199.682C107.974 199.91 107.698 200.024 107.37 200.024C107.036 200.024 106.755 199.904 106.526 199.664C106.298 199.441 106.184 199.166 106.184 198.838ZM117.601 204.419C117.548 203.927 117.357 203.525 117.029 203.215C116.701 202.904 116.3 202.749 115.825 202.749C115.327 202.749 114.923 202.887 114.612 203.162C114.29 203.473 114.088 203.892 114.006 204.419H117.601ZM120.686 206.186H113.936C113.953 206.877 114.126 207.404 114.454 207.768C114.794 208.143 115.286 208.33 115.931 208.33C116.399 208.33 116.801 208.239 117.135 208.058C117.475 207.864 117.721 207.601 117.873 207.267L120.229 208.216C119.953 208.89 119.455 209.411 118.734 209.78C118.02 210.155 117.144 210.343 116.106 210.343C114.56 210.343 113.317 209.909 112.38 209.042C111.448 208.198 110.982 207.07 110.982 205.658C110.982 204.281 111.448 203.13 112.38 202.204C113.312 201.296 114.495 200.842 115.931 200.842C117.396 200.842 118.553 201.302 119.402 202.222C119.836 202.696 120.158 203.25 120.369 203.883C120.58 204.51 120.686 205.228 120.686 206.036V206.186ZM122.505 210V201.123H125.458V203.215C125.769 202.447 126.182 201.876 126.697 201.501C127.23 201.12 127.872 200.93 128.622 200.93C128.792 200.93 128.918 200.936 129 200.947C129.064 200.953 129.123 200.959 129.176 200.965C129.229 200.965 129.296 200.971 129.378 200.982L129.079 203.83C128.862 203.76 128.675 203.71 128.517 203.681C128.282 203.657 128.109 203.646 127.998 203.646C127.236 203.646 126.647 203.88 126.231 204.349C125.821 204.812 125.616 205.471 125.616 206.326V210H122.505ZM136.655 204.419C136.603 203.927 136.412 203.525 136.084 203.215C135.756 202.904 135.354 202.749 134.88 202.749C134.382 202.749 133.978 202.887 133.667 203.162C133.345 203.473 133.143 203.892 133.061 204.419H136.655ZM139.74 206.186H132.99C133.008 206.877 133.181 207.404 133.509 207.768C133.849 208.143 134.341 208.33 134.985 208.33C135.454 208.33 135.855 208.239 136.189 208.058C136.529 207.864 136.775 207.601 136.928 207.267L139.283 208.216C139.008 208.89 138.51 209.411 137.789 209.78C137.074 210.155 136.198 210.343 135.161 210.343C133.614 210.343 132.372 209.909 131.435 209.042C130.503 208.198 130.037 207.07 130.037 205.658C130.037 204.281 130.503 203.13 131.435 202.204C132.366 201.296 133.55 200.842 134.985 200.842C136.45 200.842 137.607 201.302 138.457 202.222C138.891 202.696 139.213 203.25 139.424 203.883C139.635 204.51 139.74 205.228 139.74 206.036V206.186ZM147.686 210L147.668 203.338H146.341V201.123H147.668V198.478H150.771V201.123H152.08V203.338H150.771V210H147.686ZM162.653 201.123V205.658C162.653 206.672 162.577 207.41 162.425 207.873C162.261 208.354 161.985 208.787 161.599 209.174C161.229 209.561 160.743 209.854 160.14 210.053C159.565 210.246 158.874 210.343 158.065 210.343C157.263 210.343 156.58 210.246 156.018 210.053C155.438 209.865 154.939 209.572 154.523 209.174C154.143 208.811 153.873 208.383 153.715 207.891C153.557 207.434 153.478 206.689 153.478 205.658V201.123H156.466V205.86C156.466 206.604 156.592 207.138 156.844 207.46C157.072 207.8 157.468 207.97 158.03 207.97C158.587 207.97 158.985 207.806 159.226 207.478C159.472 207.149 159.595 206.61 159.595 205.86V201.123H162.653ZM164.077 209.262L164.728 206.871C165.185 207.275 165.688 207.58 166.239 207.785C166.784 208.002 167.335 208.11 167.892 208.11C168.29 208.11 168.589 208.043 168.788 207.908C168.993 207.785 169.096 207.606 169.096 207.372C169.096 206.979 168.683 206.687 167.856 206.493C167.569 206.429 167.353 206.373 167.206 206.326C166.251 206.045 165.574 205.702 165.176 205.298C164.742 204.882 164.525 204.343 164.525 203.681C164.525 202.825 164.851 202.137 165.501 201.615C166.128 201.1 167.004 200.842 168.129 200.842C168.674 200.842 169.254 200.906 169.869 201.035C170.385 201.141 170.985 201.346 171.671 201.65L171.021 203.804C170.599 203.517 170.174 203.303 169.746 203.162C169.342 203.016 168.917 202.942 168.472 202.942C168.108 202.942 167.836 202.998 167.654 203.109C167.479 203.215 167.391 203.376 167.391 203.593C167.391 203.897 167.804 204.161 168.63 204.384C168.899 204.466 169.037 204.507 169.043 204.507C170.121 204.812 170.877 205.172 171.311 205.588C171.732 206.027 171.943 206.599 171.943 207.302C171.943 208.21 171.595 208.942 170.897 209.499C170.183 210.062 169.26 210.343 168.129 210.343C167.344 210.343 166.62 210.252 165.958 210.07C165.302 209.895 164.675 209.625 164.077 209.262ZM179.572 210V203.338H178.236V201.123H179.572V199.304C179.572 198.278 179.854 197.499 180.416 196.966C180.973 196.45 181.813 196.192 182.938 196.192C183.015 196.192 183.205 196.204 183.51 196.228C183.838 196.28 184.072 196.324 184.213 196.359V198.75C184.107 198.709 183.976 198.668 183.817 198.627C183.653 198.604 183.545 198.592 183.492 198.592C183.188 198.592 182.974 198.68 182.851 198.855C182.716 199.043 182.648 199.327 182.648 199.708V201.123H184.213V203.338H182.648V210H179.572ZM191.895 205.588C191.895 204.926 191.728 204.404 191.394 204.023C191.048 203.643 190.597 203.452 190.04 203.452C189.466 203.452 189.015 203.643 188.687 204.023C188.353 204.393 188.186 204.914 188.186 205.588C188.186 206.244 188.347 206.76 188.669 207.135C189.021 207.521 189.478 207.715 190.04 207.715C190.603 207.715 191.06 207.521 191.411 207.135C191.733 206.748 191.895 206.232 191.895 205.588ZM195.006 205.588C195.006 206.238 194.88 206.845 194.628 207.407C194.364 208.005 194.004 208.521 193.547 208.954C193.031 209.435 192.498 209.783 191.947 210C191.373 210.229 190.737 210.343 190.04 210.343C189.337 210.343 188.701 210.229 188.133 210C187.553 209.771 187.017 209.426 186.524 208.963C186.038 208.494 185.687 207.976 185.47 207.407C185.218 206.862 185.092 206.256 185.092 205.588C185.092 204.938 185.218 204.325 185.47 203.751C185.704 203.171 186.059 202.655 186.533 202.204C186.996 201.759 187.529 201.416 188.133 201.176C188.707 200.953 189.343 200.842 190.04 200.842C190.731 200.842 191.367 200.953 191.947 201.176C192.551 201.416 193.084 201.759 193.547 202.204C194.033 202.644 194.394 203.159 194.628 203.751C194.88 204.325 195.006 204.938 195.006 205.588ZM196.808 210V201.123H199.673V202.925C200.077 202.222 200.558 201.694 201.114 201.343C201.653 201.009 202.307 200.842 203.074 200.842C203.654 200.842 204.17 200.93 204.621 201.105C205.066 201.305 205.427 201.574 205.702 201.914C205.954 202.254 206.121 202.614 206.203 202.995C206.303 203.481 206.353 204.123 206.353 204.92V210H203.215V205.245C203.215 204.524 203.101 204.009 202.872 203.698C202.644 203.376 202.271 203.215 201.756 203.215C201.111 203.215 200.637 203.455 200.332 203.936C200.033 204.416 199.884 205.195 199.884 206.273V210H196.808ZM215.353 205.57C215.353 204.873 215.174 204.328 214.816 203.936C214.436 203.537 213.932 203.338 213.305 203.338C212.672 203.338 212.174 203.537 211.811 203.936C211.447 204.334 211.266 204.879 211.266 205.57C211.266 206.268 211.447 206.815 211.811 207.214C212.168 207.606 212.666 207.803 213.305 207.803C213.938 207.803 214.441 207.606 214.816 207.214C215.174 206.821 215.353 206.273 215.353 205.57ZM218.13 196.377V210H215.247V208.559C214.849 209.162 214.397 209.607 213.894 209.895C213.425 210.193 212.874 210.343 212.241 210.343C210.999 210.343 210.006 209.909 209.262 209.042C208.523 208.175 208.154 207.018 208.154 205.57C208.154 204.164 208.526 203.019 209.271 202.134C210.009 201.272 210.964 200.842 212.136 200.842C212.886 200.842 213.495 200.979 213.964 201.255C214.415 201.507 214.837 201.955 215.229 202.6C215.206 202.441 215.183 202.201 215.159 201.879C215.136 201.527 215.124 201.24 215.124 201.018V196.377H218.13ZM226.752 205.588C226.752 204.926 226.585 204.404 226.251 204.023C225.905 203.643 225.454 203.452 224.897 203.452C224.323 203.452 223.872 203.643 223.544 204.023C223.21 204.393 223.043 204.914 223.043 205.588C223.043 206.244 223.204 206.76 223.526 207.135C223.878 207.521 224.335 207.715 224.897 207.715C225.46 207.715 225.917 207.521 226.269 207.135C226.591 206.748 226.752 206.232 226.752 205.588ZM229.863 205.588C229.863 206.238 229.737 206.845 229.485 207.407C229.222 208.005 228.861 208.521 228.404 208.954C227.889 209.435 227.355 209.783 226.805 210C226.23 210.229 225.595 210.343 224.897 210.343C224.194 210.343 223.559 210.229 222.99 210C222.41 209.771 221.874 209.426 221.382 208.963C220.896 208.494 220.544 207.976 220.327 207.407C220.075 206.862 219.949 206.256 219.949 205.588C219.949 204.938 220.075 204.325 220.327 203.751C220.562 203.171 220.916 202.655 221.391 202.204C221.854 201.759 222.387 201.416 222.99 201.176C223.564 200.953 224.2 200.842 224.897 200.842C225.589 200.842 226.225 200.953 226.805 201.176C227.408 201.416 227.941 201.759 228.404 202.204C228.891 202.644 229.251 203.159 229.485 203.751C229.737 204.325 229.863 204.938 229.863 205.588ZM230.839 209.262L231.489 206.871C231.946 207.275 232.45 207.58 233.001 207.785C233.546 208.002 234.097 208.11 234.653 208.11C235.052 208.11 235.351 208.043 235.55 207.908C235.755 207.785 235.857 207.606 235.857 207.372C235.857 206.979 235.444 206.687 234.618 206.493C234.331 206.429 234.114 206.373 233.968 206.326C233.013 206.045 232.336 205.702 231.938 205.298C231.504 204.882 231.287 204.343 231.287 203.681C231.287 202.825 231.612 202.137 232.263 201.615C232.89 201.1 233.766 200.842 234.891 200.842C235.436 200.842 236.016 200.906 236.631 201.035C237.146 201.141 237.747 201.346 238.433 201.65L237.782 203.804C237.36 203.517 236.936 203.303 236.508 203.162C236.104 203.016 235.679 202.942 235.233 202.942C234.87 202.942 234.598 202.998 234.416 203.109C234.24 203.215 234.152 203.376 234.152 203.593C234.152 203.897 234.565 204.161 235.392 204.384C235.661 204.466 235.799 204.507 235.805 204.507C236.883 204.812 237.639 205.172 238.072 205.588C238.494 206.027 238.705 206.599 238.705 207.302C238.705 208.21 238.356 208.942 237.659 209.499C236.944 210.062 236.021 210.343 234.891 210.343C234.105 210.343 233.382 210.252 232.72 210.07C232.063 209.895 231.437 209.625 230.839 209.262ZM252.451 208.093V209.692C252.088 209.909 251.678 210.07 251.221 210.176C250.77 210.287 250.28 210.343 249.753 210.343C248.511 210.343 247.509 209.95 246.747 209.165C245.991 208.374 245.613 207.337 245.613 206.054C245.613 204.765 246.006 203.713 246.791 202.898C247.576 202.078 248.581 201.668 249.806 201.668C250.251 201.668 250.685 201.715 251.106 201.809C251.534 201.902 251.936 202.04 252.311 202.222V203.698C251.959 203.47 251.596 203.297 251.221 203.18C250.846 203.057 250.465 202.995 250.078 202.995C249.176 202.995 248.452 203.279 247.907 203.848C247.362 204.41 247.09 205.16 247.09 206.098C247.09 206.924 247.362 207.615 247.907 208.172C248.458 208.729 249.146 209.007 249.973 209.007C250.389 209.007 250.796 208.934 251.194 208.787C251.593 208.641 252.012 208.409 252.451 208.093ZM255.659 201.958V205.913C255.659 207.067 255.829 207.876 256.169 208.339C256.515 208.796 257.095 209.024 257.909 209.024C258.724 209.024 259.298 208.799 259.632 208.348C259.972 207.891 260.142 207.079 260.142 205.913V201.958H261.548V206.651C261.548 207.864 261.237 208.784 260.616 209.411C259.995 210.032 259.081 210.343 257.874 210.343C256.679 210.343 255.771 210.029 255.149 209.402C254.528 208.775 254.218 207.858 254.218 206.651V201.958H255.659ZM270.363 206.054C270.363 205.146 270.114 204.416 269.616 203.865C269.124 203.309 268.479 203.03 267.683 203.03C266.856 203.03 266.212 203.285 265.749 203.795C265.286 204.305 265.055 205.017 265.055 205.931C265.055 206.903 265.286 207.653 265.749 208.181C266.218 208.708 266.88 208.972 267.735 208.972C268.556 208.972 269.197 208.717 269.66 208.207C270.129 207.691 270.363 206.974 270.363 206.054ZM271.699 201.958V210H270.363V208.541C270.041 209.127 269.628 209.575 269.124 209.886C268.626 210.19 268.066 210.343 267.445 210.343C266.291 210.343 265.359 209.947 264.65 209.156C263.947 208.359 263.596 207.308 263.596 206.001C263.596 204.677 263.938 203.625 264.624 202.846C265.31 202.061 266.227 201.668 267.375 201.668C268.049 201.668 268.632 201.82 269.124 202.125C269.622 202.424 270.023 202.872 270.328 203.47V201.958H271.699ZM274.459 210V201.958H275.804V203.197C276.149 202.682 276.565 202.298 277.052 202.046C277.538 201.794 278.101 201.668 278.739 201.668C279.688 201.668 280.43 201.92 280.963 202.424C281.496 202.928 281.763 203.628 281.763 204.524V210H280.356V205.263C280.356 204.448 280.184 203.845 279.838 203.452C279.498 203.054 278.971 202.854 278.256 202.854C277.846 202.854 277.471 202.931 277.131 203.083C276.797 203.229 276.519 203.44 276.296 203.716C276.126 203.927 276.003 204.167 275.927 204.437C275.856 204.706 275.821 205.175 275.821 205.843V210H274.459ZM290.648 206.019C290.648 205.122 290.399 204.401 289.901 203.856C289.403 203.306 288.747 203.03 287.933 203.03C287.118 203.03 286.482 203.279 286.025 203.777C285.568 204.275 285.34 204.964 285.34 205.843C285.34 206.833 285.571 207.609 286.034 208.172C286.497 208.729 287.136 209.007 287.95 209.007C288.794 209.007 289.453 208.743 289.928 208.216C290.408 207.688 290.648 206.956 290.648 206.019ZM291.984 196.377V210H290.648V208.541C290.332 209.121 289.922 209.566 289.418 209.877C288.914 210.188 288.352 210.343 287.73 210.343C286.576 210.343 285.645 209.947 284.936 209.156C284.232 208.359 283.881 207.308 283.881 206.001C283.881 204.683 284.227 203.631 284.918 202.846C285.609 202.061 286.529 201.668 287.678 201.668C288.346 201.668 288.926 201.82 289.418 202.125C289.91 202.424 290.309 202.872 290.613 203.47V196.377H291.984ZM295.605 206.001C295.605 206.851 295.89 207.571 296.458 208.163C297.026 208.749 297.715 209.042 298.523 209.042C299.326 209.042 300.009 208.749 300.571 208.163C301.134 207.571 301.415 206.851 301.415 206.001C301.415 205.151 301.134 204.434 300.571 203.848C300.009 203.256 299.326 202.96 298.523 202.96C297.709 202.96 297.018 203.256 296.449 203.848C295.887 204.434 295.605 205.151 295.605 206.001ZM294.146 206.001C294.146 205.409 294.255 204.853 294.472 204.331C294.688 203.804 295.005 203.335 295.421 202.925C295.837 202.515 296.309 202.204 296.836 201.993C297.363 201.776 297.926 201.668 298.523 201.668C299.109 201.668 299.663 201.776 300.185 201.993C300.712 202.21 301.189 202.526 301.617 202.942C302.033 203.347 302.35 203.812 302.566 204.34C302.783 204.861 302.892 205.415 302.892 206.001C302.892 206.587 302.783 207.141 302.566 207.662C302.35 208.178 302.033 208.638 301.617 209.042C301.189 209.464 300.709 209.786 300.176 210.009C299.648 210.231 299.098 210.343 298.523 210.343C297.932 210.343 297.369 210.231 296.836 210.009C296.309 209.792 295.837 209.479 295.421 209.068C295.005 208.646 294.688 208.178 294.472 207.662C294.255 207.146 294.146 206.593 294.146 206.001ZM316.506 206.001C316.506 205.063 316.266 204.328 315.785 203.795C315.311 203.262 314.651 202.995 313.808 202.995C312.993 202.995 312.352 203.276 311.883 203.839C311.414 204.401 311.18 205.178 311.18 206.168C311.18 207.053 311.408 207.744 311.865 208.242C312.328 208.74 312.964 208.989 313.772 208.989C314.593 208.989 315.252 208.717 315.75 208.172C316.254 207.627 316.506 206.903 316.506 206.001ZM317.842 213.92H316.471V208.541C316.166 209.139 315.768 209.59 315.275 209.895C314.783 210.193 314.203 210.343 313.535 210.343C312.381 210.343 311.458 209.953 310.767 209.174C310.081 208.389 309.738 207.331 309.738 206.001C309.738 204.694 310.09 203.646 310.793 202.854C311.496 202.063 312.428 201.668 313.588 201.668C314.215 201.668 314.78 201.823 315.284 202.134C315.788 202.444 316.195 202.89 316.506 203.47V201.958H317.842V213.92ZM321.946 201.958V205.913C321.946 207.067 322.116 207.876 322.456 208.339C322.802 208.796 323.382 209.024 324.196 209.024C325.011 209.024 325.585 208.799 325.919 208.348C326.259 207.891 326.429 207.079 326.429 205.913V201.958H327.835V206.651C327.835 207.864 327.524 208.784 326.903 209.411C326.282 210.032 325.368 210.343 324.161 210.343C322.966 210.343 322.058 210.029 321.437 209.402C320.815 208.775 320.505 207.858 320.505 206.651V201.958H321.946ZM330.243 198.082C330.243 197.807 330.34 197.572 330.533 197.379C330.732 197.18 330.973 197.08 331.254 197.08C331.529 197.08 331.764 197.18 331.957 197.379C332.156 197.578 332.256 197.818 332.256 198.1C332.256 198.375 332.159 198.609 331.966 198.803C331.772 198.996 331.535 199.093 331.254 199.093C330.973 199.093 330.732 198.996 330.533 198.803C330.34 198.609 330.243 198.369 330.243 198.082ZM330.568 210V201.958H331.957V210H330.568ZM340.562 205.069C340.515 204.36 340.277 203.815 339.85 203.435C339.428 203.048 338.848 202.854 338.109 202.854C337.441 202.854 336.885 203.057 336.439 203.461C335.994 203.859 335.736 204.396 335.666 205.069H340.562ZM342.038 206.186H335.666V206.309C335.666 207.17 335.912 207.867 336.404 208.4C336.896 208.928 337.538 209.191 338.329 209.191C338.868 209.191 339.354 209.048 339.788 208.761C340.222 208.468 340.605 208.028 340.939 207.442L341.985 208.146C341.581 208.872 341.065 209.42 340.438 209.789C339.812 210.158 339.085 210.343 338.259 210.343C337.034 210.343 336.044 209.938 335.288 209.13C334.532 208.321 334.154 207.261 334.154 205.948C334.154 204.688 334.529 203.657 335.279 202.854C336.029 202.052 336.993 201.65 338.171 201.65C339.36 201.65 340.301 202.031 340.992 202.793C341.689 203.555 342.038 204.595 342.038 205.913V206.186ZM344.139 210V201.958H345.36V203.628C345.729 202.931 346.122 202.433 346.538 202.134C346.954 201.835 347.461 201.686 348.059 201.686C348.223 201.686 348.381 201.7 348.533 201.729C348.686 201.753 348.838 201.791 348.99 201.844L348.533 203.083C348.375 203.03 348.226 202.992 348.085 202.969C347.944 202.939 347.81 202.925 347.681 202.925C346.954 202.925 346.409 203.188 346.046 203.716C345.683 204.237 345.501 205.025 345.501 206.08V210H344.139ZM356.602 206.054C356.602 205.146 356.353 204.416 355.854 203.865C355.362 203.309 354.718 203.03 353.921 203.03C353.095 203.03 352.45 203.285 351.987 203.795C351.524 204.305 351.293 205.017 351.293 205.931C351.293 206.903 351.524 207.653 351.987 208.181C352.456 208.708 353.118 208.972 353.974 208.972C354.794 208.972 355.436 208.717 355.898 208.207C356.367 207.691 356.602 206.974 356.602 206.054ZM357.938 201.958V210H356.602V208.541C356.279 209.127 355.866 209.575 355.362 209.886C354.864 210.19 354.305 210.343 353.684 210.343C352.529 210.343 351.598 209.947 350.889 209.156C350.186 208.359 349.834 207.308 349.834 206.001C349.834 204.677 350.177 203.625 350.862 202.846C351.548 202.061 352.465 201.668 353.613 201.668C354.287 201.668 354.87 201.82 355.362 202.125C355.86 202.424 356.262 202.872 356.566 203.47V201.958H357.938ZM359.845 208.646L361.022 207.855C361.245 208.283 361.526 208.605 361.866 208.822C362.206 209.033 362.607 209.139 363.07 209.139C363.521 209.139 363.885 209.027 364.16 208.805C364.441 208.582 364.582 208.289 364.582 207.926C364.582 207.645 364.485 207.41 364.292 207.223C364.104 207.035 363.779 206.862 363.316 206.704C363.27 206.687 363.193 206.66 363.088 206.625C361.131 205.951 360.152 205.107 360.152 204.094C360.152 203.379 360.416 202.796 360.943 202.345C361.471 201.894 362.156 201.668 363 201.668C363.697 201.668 364.295 201.809 364.793 202.09C365.291 202.365 365.648 202.758 365.865 203.268L364.749 203.953C364.585 203.584 364.342 203.3 364.02 203.101C363.703 202.901 363.334 202.802 362.912 202.802C362.508 202.802 362.177 202.916 361.919 203.145C361.667 203.367 361.541 203.654 361.541 204.006C361.541 204.498 362.074 204.911 363.141 205.245C363.34 205.31 363.498 205.359 363.615 205.395C364.488 205.676 365.095 205.998 365.435 206.361C365.78 206.719 365.953 207.193 365.953 207.785C365.953 208.547 365.681 209.165 365.136 209.64C364.597 210.108 363.891 210.343 363.018 210.343C362.268 210.343 361.629 210.202 361.102 209.921C360.58 209.64 360.161 209.215 359.845 208.646Z" fill="white"/>
<path d="M49.312 11.952V5.808H30.592V42H49.312V35.856H37.648V26.064H48.88V19.92H37.648V11.952H49.312ZM64.0855 5.808H57.0295V42H74.0695V35.856H64.0855V5.808ZM96.217 42H106.249C116.569 42 123.769 34.128 123.769 23.952C123.769 13.632 116.761 5.808 106.297 5.808H96.217V42ZM103.273 11.952H104.425C112.441 11.952 116.473 16.032 116.473 23.904C116.473 31.056 113.113 35.856 104.425 35.856H103.273V11.952ZM137.304 5.808H130.248V42H137.304V5.808ZM145.436 42H152.492V17.424H152.588L171.644 42.72H176.732V5.808H169.676V30.144H169.58L150.524 4.848H145.436V42ZM203.578 11.952V5.808H184.858V42H203.578V35.856H191.914V26.064H203.146V19.92H191.914V11.952H203.578ZM225.551 26.736C230.399 25.92 232.943 21.312 232.943 16.704C232.943 8.976 227.999 5.808 220.847 5.808H211.295V42H218.351V27.408H218.447L227.231 42H235.775L225.551 26.736ZM218.351 11.568H219.311C223.055 11.568 225.887 12.432 225.887 16.896C225.887 21.312 223.151 22.464 219.263 22.464H218.351V11.568ZM275.141 23.856C275.141 13.104 268.037 4.848 257.237 4.848C246.437 4.848 239.333 13.104 239.333 23.856C239.333 34.512 246.197 42.96 257.237 42.96C268.277 42.96 275.141 34.512 275.141 23.856ZM267.845 23.568C267.845 29.136 265.061 36 257.237 36C249.413 36 246.629 29.136 246.629 23.568C246.629 17.712 250.565 11.808 257.237 11.808C263.909 11.808 267.845 17.712 267.845 23.568ZM298.483 42H308.515C318.835 42 326.035 34.128 326.035 23.952C326.035 13.632 319.027 5.808 308.563 5.808H298.483V42ZM305.539 11.952H306.691C314.707 11.952 318.739 16.032 318.739 23.904C318.739 31.056 315.379 35.856 306.691 35.856H305.539V11.952ZM351.234 11.952V5.808H332.514V42H351.234V35.856H339.57V26.064H350.802V19.92H339.57V11.952H351.234ZM387.586 11.952H394.882V5.808H373.234V11.952H380.53V42H387.586V11.952ZM400.291 27.456C400.291 36.288 404.035 42.96 413.731 42.96C423.427 42.96 427.171 36.288 427.171 27.456V5.808H420.115V26.064C420.115 30.528 419.731 36.816 413.731 36.816C407.731 36.816 407.347 30.528 407.347 26.064V5.808H400.291V27.456ZM455.522 8.88C453.314 6.432 448.85 4.848 445.634 4.848C439.538 4.848 435.074 9.696 435.074 15.696C435.074 21.312 438.482 23.664 443.138 25.584C445.97 26.688 449.426 27.744 449.426 31.488C449.426 34.272 447.65 36.72 444.77 36.72C441.746 36.72 439.202 34.224 438.242 31.44L433.682 35.904C436.178 40.08 439.826 42.96 444.818 42.96C452.21 42.96 456.722 37.824 456.722 30.576C456.722 18.432 442.37 20.976 442.37 14.88C442.37 12.528 444.53 10.8 446.786 10.8C449.138 10.8 450.866 11.952 452.21 13.776L455.522 8.88ZM42.352 59.952H49.648V53.808H28V59.952H35.296V90H42.352V59.952ZM69.5043 74.736C74.3523 73.92 76.8962 69.312 76.8962 64.704C76.8962 56.976 71.9523 53.808 64.8003 53.808H55.2483V90H62.3043V75.408H62.4003L71.1843 90H79.7283L69.5043 74.736ZM62.3043 59.568H63.2643C67.0083 59.568 69.8403 60.432 69.8403 64.896C69.8403 69.312 67.1043 70.464 63.2163 70.464H62.3043V59.568ZM104.982 82.368L107.766 90H115.302L101.574 52.848H96.1019L81.9899 90H89.4299L92.4059 82.368H104.982ZM103.014 76.608H94.4219L98.4059 63.456H98.5019L103.014 76.608ZM127.507 74.256H128.659C132.211 74.256 136.051 74.448 136.051 79.152C136.051 83.856 132.787 84.336 128.995 84.336H127.507V74.256ZM120.451 90H131.539C138.115 90 143.107 86.832 143.107 79.728C143.107 75.744 141.187 71.424 136.915 70.656C139.171 69.216 140.083 66.24 140.083 63.648C140.083 56.448 135.955 53.808 129.235 53.808H120.451V90ZM127.507 59.472H128.419C131.395 59.472 133.507 60.432 133.507 64.128C133.507 67.872 131.827 68.88 128.371 68.88H127.507V59.472ZM169.951 82.368L172.735 90H180.271L166.543 52.848H161.071L146.959 90H154.399L157.375 82.368H169.951ZM167.983 76.608H159.391L163.375 63.456H163.471L167.983 76.608ZM199.1 53.808H192.044V76.512C192.044 78.864 192.476 84.72 189.02 84.72C187.868 84.72 186.62 83.424 186.284 82.368L181.772 87.552C183.548 89.424 186.236 90.96 188.876 90.96C192.14 90.96 195.116 89.616 196.988 86.88C199.004 83.952 199.1 81.072 199.1 77.712V53.808ZM227.044 82.368L229.828 90H237.364L223.636 52.848H218.164L204.052 90H211.492L214.468 82.368H227.044ZM225.076 76.608H216.484L220.468 63.456H220.564L225.076 76.608ZM242.514 90H252.546C262.866 90 270.066 82.128 270.066 71.952C270.066 61.632 263.058 53.808 252.594 53.808H242.514V90ZM249.57 59.952H250.722C258.738 59.952 262.77 64.032 262.77 71.904C262.77 79.056 259.41 83.856 250.722 83.856H249.57V59.952ZM310.625 71.856C310.625 61.104 303.521 52.848 292.721 52.848C281.921 52.848 274.817 61.104 274.817 71.856C274.817 82.512 281.681 90.96 292.721 90.96C303.761 90.96 310.625 82.512 310.625 71.856ZM303.329 71.568C303.329 77.136 300.545 84 292.721 84C284.897 84 282.113 77.136 282.113 71.568C282.113 65.712 286.049 59.808 292.721 59.808C299.393 59.808 303.329 65.712 303.329 71.568ZM331.348 74.736C336.196 73.92 338.74 69.312 338.74 64.704C338.74 56.976 333.796 53.808 326.644 53.808H317.092V90H324.148V75.408H324.244L333.028 90H341.572L331.348 74.736ZM324.148 59.568H325.108C328.852 59.568 331.684 60.432 331.684 64.896C331.684 69.312 328.948 70.464 325.06 70.464H324.148V59.568ZM365.578 59.952V53.808H346.858V90H365.578V83.856H353.914V74.064H365.146V67.92H353.914V59.952H365.578ZM393.647 56.88C391.439 54.432 386.975 52.848 383.759 52.848C377.663 52.848 373.199 57.696 373.199 63.696C373.199 69.312 376.607 71.664 381.263 73.584C384.095 74.688 387.551 75.744 387.551 79.488C387.551 82.272 385.775 84.72 382.895 84.72C379.871 84.72 377.327 82.224 376.367 79.44L371.807 83.904C374.303 88.08 377.951 90.96 382.943 90.96C390.335 90.96 394.847 85.824 394.847 78.576C394.847 66.432 380.495 68.976 380.495 62.88C380.495 60.528 382.655 58.8 384.911 58.8C387.263 58.8 388.991 59.952 390.335 61.776L393.647 56.88ZM437.156 59.952V53.808H418.436V90H437.156V83.856H425.492V74.064H436.724V67.92H425.492V59.952H437.156ZM444.873 90H451.929V65.424H452.025L471.081 90.72H476.169V53.808H469.113V78.144H469.017L449.961 52.848H444.873V90ZM37.648 122.256H38.8C42.352 122.256 46.192 122.448 46.192 127.152C46.192 131.856 42.928 132.336 39.136 132.336H37.648V122.256ZM30.592 138H41.68C48.256 138 53.248 134.832 53.248 127.728C53.248 123.744 51.328 119.424 47.056 118.656C49.312 117.216 50.224 114.24 50.224 111.648C50.224 104.448 46.096 101.808 39.376 101.808H30.592V138ZM37.648 107.472H38.56C41.536 107.472 43.648 108.432 43.648 112.128C43.648 115.872 41.968 116.88 38.512 116.88H37.648V107.472ZM59.9313 123.456C59.9313 132.288 63.6753 138.96 73.3713 138.96C83.0673 138.96 86.8113 132.288 86.8113 123.456V101.808H79.7553V122.064C79.7553 126.528 79.3713 132.816 73.3713 132.816C67.3713 132.816 66.9873 126.528 66.9873 122.064V101.808H59.9313V123.456ZM113.531 107.952V101.808H94.8108V138H113.531V131.856H101.867V122.064H113.099V115.92H101.867V107.952H113.531ZM121.248 138H128.304V113.424H128.4L147.456 138.72H152.544V101.808H145.488V126.144H145.392L126.336 100.848H121.248V138ZM180.638 130.368L183.422 138H190.958L177.23 100.848H171.758L157.646 138H165.086L168.062 130.368H180.638ZM178.67 124.608H170.078L174.062 111.456H174.158L178.67 124.608ZM216.46 104.88C214.252 102.432 209.788 100.848 206.572 100.848C200.476 100.848 196.012 105.696 196.012 111.696C196.012 117.312 199.42 119.664 204.076 121.584C206.908 122.688 210.364 123.744 210.364 127.488C210.364 130.272 208.588 132.72 205.708 132.72C202.684 132.72 200.14 130.224 199.18 127.44L194.62 131.904C197.116 136.08 200.764 138.96 205.756 138.96C213.148 138.96 217.66 133.824 217.66 126.576C217.66 114.432 203.308 116.976 203.308 110.88C203.308 108.528 205.468 106.8 207.724 106.8C210.076 106.8 211.804 107.952 213.148 109.776L216.46 104.88ZM271.152 138H278.256L272.832 100.848H267.744L259.2 124.704L250.272 100.848H245.28L239.184 138H246.288L249.504 115.536H249.6L257.52 138.48H259.968L268.176 115.536H268.272L271.152 138ZM304.341 130.368L307.125 138H314.661L300.933 100.848H295.461L281.349 138H288.789L291.765 130.368H304.341ZM302.373 124.608H293.781L297.765 111.456H297.861L302.373 124.608ZM319.811 138H326.867V113.424H326.963L346.019 138.72H351.107V101.808H344.051V126.144H343.955L324.899 100.848H319.811V138ZM393.313 119.856C393.313 109.104 386.209 100.848 375.409 100.848C364.609 100.848 357.505 109.104 357.505 119.856C357.505 130.512 364.369 138.96 375.409 138.96C386.449 138.96 393.313 130.512 393.313 119.856ZM386.017 119.568C386.017 125.136 383.233 132 375.409 132C367.585 132 364.801 125.136 364.801 119.568C364.801 113.712 368.737 107.808 375.409 107.808C382.081 107.808 386.017 113.712 386.017 119.568ZM420.132 104.88C417.924 102.432 413.46 100.848 410.244 100.848C404.148 100.848 399.684 105.696 399.684 111.696C399.684 117.312 403.092 119.664 407.748 121.584C410.58 122.688 414.036 123.744 414.036 127.488C414.036 130.272 412.26 132.72 409.38 132.72C406.356 132.72 403.812 130.224 402.852 127.44L398.292 131.904C400.788 136.08 404.436 138.96 409.428 138.96C416.82 138.96 421.332 133.824 421.332 126.576C421.332 114.432 406.98 116.976 406.98 110.88C406.98 108.528 409.14 106.8 411.396 106.8C413.748 106.8 415.476 107.952 416.82 109.776L420.132 104.88Z" fill="white"/>
</svg>
