<svg width="466" height="180" viewBox="0 0 466 180" fill="none" xmlns="http://www.w3.org/2000/svg">
<path d="M30.5625 31V8.125H35.4531V26.8438H43.2656V31H30.5625ZM58.1875 22.2969L55.625 14.9062C55.5521 14.6875 55.4583 14.3125 55.3438 13.7812C55.2292 13.25 55.1094 12.599 54.9844 11.8281C54.849 12.5677 54.7188 13.2344 54.5938 13.8281C54.4688 14.4115 54.375 14.8021 54.3125 15L51.8438 22.2969H58.1875ZM43.625 31L52.3281 8.125H57.9219L66.75 31H61.1875L59.3281 26.1406H50.4688L48.875 31H43.625ZM97.4219 14.0781C96.4323 13.1927 95.4167 12.5469 94.375 12.1406C93.3333 11.724 92.2188 11.5156 91.0312 11.5156C88.5938 11.5156 86.651 12.2448 85.2031 13.7031C83.7552 15.1615 83.0312 17.1198 83.0312 19.5781C83.0312 21.9844 83.7031 23.8958 85.0469 25.3125C86.3906 26.7188 88.224 27.4219 90.5469 27.4219C91.8698 27.4219 93.099 27.2031 94.2344 26.7656C95.3698 26.3177 96.4219 25.651 97.3906 24.7656L97.3594 29.7812C96.3177 30.3958 95.224 30.8542 94.0781 31.1562C92.9427 31.4583 91.7448 31.6094 90.4844 31.6094C86.8385 31.6094 83.8438 30.4792 81.5 28.2188C79.1667 25.9479 78 23.0677 78 19.5781C78 16.099 79.1719 13.2292 81.5156 10.9688C83.8594 8.70833 86.8802 7.57812 90.5781 7.57812C91.8177 7.57812 93.0156 7.70833 94.1719 7.96875C95.3281 8.22917 96.4688 8.63021 97.5938 9.17188L97.4219 14.0781ZM121.641 8.125V22.3594C121.641 25.4635 120.823 27.7812 119.188 29.3125C117.552 30.8438 115.089 31.6094 111.797 31.6094C108.453 31.6094 105.964 30.8438 104.328 29.3125C102.693 27.7812 101.875 25.4635 101.875 22.3594V8.125H106.734V21.5938C106.734 23.4792 107.151 24.901 107.984 25.8594C108.818 26.8073 110.062 27.2812 111.719 27.2812C113.385 27.2812 114.646 26.8021 115.5 25.8438C116.354 24.8854 116.781 23.4688 116.781 21.5938V8.125H121.641ZM126.719 31V8.125H140.188V12.25H131.609V16.9531H140.188V21.1094H131.609V26.8438H140.188V31H126.719ZM145 31V8.125H150.078L160.203 21.4375C160.495 21.8125 160.812 22.3438 161.156 23.0312C161.51 23.7083 161.875 24.5104 162.25 25.4375C162.135 24.7604 162.052 24.0885 162 23.4219C161.948 22.7552 161.922 21.9219 161.922 20.9219V8.125H166.594V31H161.797L151.391 17.4375C151.099 17.0625 150.781 16.5365 150.438 15.8594C150.094 15.1719 149.729 14.3542 149.344 13.4062C149.458 14.0625 149.542 14.7292 149.594 15.4062C149.646 16.0729 149.672 16.9167 149.672 17.9375V31H145ZM180.234 12.2812V31H175.328V12.2812H169.734V8.125H185.859V12.2812H180.234ZM199.125 22.2969L196.562 14.9062C196.49 14.6875 196.396 14.3125 196.281 13.7812C196.167 13.25 196.047 12.599 195.922 11.8281C195.786 12.5677 195.656 13.2344 195.531 13.8281C195.406 14.4115 195.312 14.8021 195.25 15L192.781 22.2969H199.125ZM184.562 31L193.266 8.125H198.859L207.688 31H202.125L200.266 26.1406H191.406L189.812 31H184.562ZM234.438 23.25L236.125 25.2344C236.833 24.5052 237.375 23.651 237.75 22.6719C238.135 21.6823 238.328 20.6615 238.328 19.6094C238.328 17.4427 237.646 15.6198 236.281 14.1406C234.917 12.6615 233.214 11.9219 231.172 11.9219C229.099 11.9219 227.38 12.6615 226.016 14.1406C224.651 15.6094 223.969 17.4323 223.969 19.6094C223.969 21.8073 224.635 23.6302 225.969 25.0781C227.312 26.526 229.016 27.25 231.078 27.25C231.255 27.25 231.5 27.2344 231.812 27.2031C232.135 27.1615 232.516 27.1042 232.953 27.0312L229.656 23.25H234.438ZM243.234 33.6562H238.359L235.875 30.7188C234.75 31.0104 233.812 31.2188 233.062 31.3438C232.323 31.4792 231.661 31.5469 231.078 31.5469C229.505 31.5469 227.964 31.2396 226.453 30.625C224.943 30.0104 223.625 29.1562 222.5 28.0625C221.344 26.9375 220.453 25.6458 219.828 24.1875C219.214 22.7188 218.906 21.1823 218.906 19.5781C218.906 17.974 219.214 16.4479 219.828 15C220.443 13.5417 221.333 12.2396 222.5 11.0938C223.635 9.96875 224.948 9.10938 226.438 8.51562C227.938 7.91146 229.516 7.60938 231.172 7.60938C232.797 7.60938 234.354 7.91146 235.844 8.51562C237.333 9.10938 238.656 9.96875 239.812 11.0938C240.969 12.2292 241.854 13.5208 242.469 14.9688C243.083 16.4167 243.391 17.9531 243.391 19.5781C243.391 21.3698 243.021 23.0417 242.281 24.5938C241.542 26.1458 240.458 27.526 239.031 28.7344L243.234 33.6562ZM267.172 8.125V22.3594C267.172 25.4635 266.354 27.7812 264.719 29.3125C263.083 30.8438 260.62 31.6094 257.328 31.6094C253.984 31.6094 251.495 30.8438 249.859 29.3125C248.224 27.7812 247.406 25.4635 247.406 22.3594V8.125H252.266V21.5938C252.266 23.4792 252.682 24.901 253.516 25.8594C254.349 26.8073 255.594 27.2812 257.25 27.2812C258.917 27.2812 260.177 26.8021 261.031 25.8438C261.885 24.8854 262.312 23.4688 262.312 21.5938V8.125H267.172ZM272.25 31V8.125H285.719V12.25H277.141V16.9531H285.719V21.1094H277.141V26.8438H285.719V31H272.25ZM308.922 12.2812V31H304.016V12.2812H298.422V8.125H314.547V12.2812H308.922ZM337.391 8.125V22.3594C337.391 25.4635 336.573 27.7812 334.938 29.3125C333.302 30.8438 330.839 31.6094 327.547 31.6094C324.203 31.6094 321.714 30.8438 320.078 29.3125C318.443 27.7812 317.625 25.4635 317.625 22.3594V8.125H322.484V21.5938C322.484 23.4792 322.901 24.901 323.734 25.8594C324.568 26.8073 325.812 27.2812 327.469 27.2812C329.135 27.2812 330.396 26.8021 331.25 25.8438C332.104 24.8854 332.531 23.4688 332.531 21.5938V8.125H337.391ZM30.5625 69V46.125H44.0312V50.25H35.4531V54.9531H44.0312V59.1094H35.4531V64.8438H44.0312V69H30.5625ZM46.8594 69L50.3438 46.125H55.4688L59.875 59.5938C59.9688 59.875 60.0677 60.2865 60.1719 60.8281C60.2865 61.3698 60.3906 61.9896 60.4844 62.6875C60.5677 61.9792 60.6615 61.349 60.7656 60.7969C60.8698 60.2344 60.9688 59.8229 61.0625 59.5625L65.5469 46.125H70.5938L74.0938 69H69.4531L67.7812 55.2031C67.6562 54.1823 67.5729 53.4115 67.5312 52.8906C67.4896 52.3698 67.4688 51.8854 67.4688 51.4375C67.4688 51.1979 67.4688 51.0208 67.4688 50.9062C67.4792 50.7812 67.4896 50.6719 67.5 50.5781C67.3438 51.474 67.1927 52.25 67.0469 52.9062C66.9115 53.5521 66.7865 54.0417 66.6719 54.375L61.8281 69H59.0781L54.3125 54.375C54.2708 54.2396 54.1771 53.8646 54.0312 53.25C53.8958 52.6354 53.7031 51.7396 53.4531 50.5625V51.2344C53.4531 52.2969 53.3594 53.599 53.1719 55.1406L53.1562 55.2031L51.5 69H46.8594ZM82.2031 56.4531H82.9062C84.2396 56.4531 85.2083 56.1771 85.8125 55.625C86.4167 55.0729 86.7188 54.1875 86.7188 52.9688C86.7188 51.8438 86.4167 51.026 85.8125 50.5156C85.2083 49.9948 84.2396 49.7344 82.9062 49.7344H82.2031V56.4531ZM77.2812 69V46.125H82.9062C85.9062 46.125 88.1198 46.6979 89.5469 47.8438C90.9844 48.9896 91.7031 50.7604 91.7031 53.1562C91.7031 55.375 90.9792 57.1146 89.5312 58.375C88.0938 59.6354 86.099 60.2656 83.5469 60.2656H82.2031V69H77.2812ZM111.641 69H106L99.9844 58.3125V69H95.0938V46.125H102.094C104.875 46.125 106.958 46.6667 108.344 47.75C109.729 48.8229 110.422 50.4427 110.422 52.6094C110.422 54.1823 109.948 55.526 109 56.6406C108.052 57.7552 106.828 58.4062 105.328 58.5938L111.641 69ZM99.9844 55.875H100.719C102.698 55.875 104.005 55.6615 104.641 55.2344C105.276 54.7969 105.594 54.0417 105.594 52.9688C105.594 51.8438 105.25 51.0469 104.562 50.5781C103.885 50.099 102.604 49.8594 100.719 49.8594H99.9844V55.875ZM114.5 69V46.125H127.969V50.25H119.391V54.9531H127.969V59.1094H119.391V64.8438H127.969V69H114.5ZM131.312 66.0938L134.031 63.0156C134.375 63.8594 134.927 64.526 135.688 65.0156C136.448 65.4948 137.302 65.7344 138.25 65.7344C139.396 65.7344 140.302 65.4635 140.969 64.9219C141.635 64.3802 141.969 63.651 141.969 62.7344C141.969 61.651 140.859 60.5729 138.641 59.5C137.922 59.1562 137.354 58.875 136.938 58.6562C134.938 57.6146 133.552 56.599 132.781 55.6094C132.01 54.6094 131.625 53.4219 131.625 52.0469C131.625 50.1615 132.37 48.6146 133.859 47.4062C135.359 46.1875 137.302 45.5781 139.688 45.5781C141.073 45.5781 142.266 45.8229 143.266 46.3125C144.276 46.7917 145.167 47.5469 145.938 48.5781L143.047 51.3438C142.703 50.6771 142.245 50.1823 141.672 49.8594C141.109 49.526 140.427 49.3594 139.625 49.3594C138.656 49.3594 137.875 49.6042 137.281 50.0938C136.688 50.5729 136.391 51.1979 136.391 51.9688C136.391 53.1771 137.568 54.2812 139.922 55.2812C140.391 55.4792 140.75 55.6354 141 55.75C142.938 56.6354 144.37 57.6354 145.297 58.75C146.234 59.8646 146.703 61.1354 146.703 62.5625C146.703 64.7083 145.969 66.4219 144.5 67.7031C143.042 68.974 141.078 69.6094 138.609 69.6094C136.859 69.6094 135.359 69.3073 134.109 68.7031C132.859 68.099 131.927 67.2292 131.312 66.0938ZM162.562 60.2969L160 52.9062C159.927 52.6875 159.833 52.3125 159.719 51.7812C159.604 51.25 159.484 50.599 159.359 49.8281C159.224 50.5677 159.094 51.2344 158.969 51.8281C158.844 52.4115 158.75 52.8021 158.688 53L156.219 60.2969H162.562ZM148 69L156.703 46.125H162.297L171.125 69H165.562L163.703 64.1406H154.844L153.25 69H148ZM183.375 69V46.125H188.453L198.578 59.4375C198.87 59.8125 199.188 60.3438 199.531 61.0312C199.885 61.7083 200.25 62.5104 200.625 63.4375C200.51 62.7604 200.427 62.0885 200.375 61.4219C200.323 60.7552 200.297 59.9219 200.297 58.9219V46.125H204.969V69H200.172L189.766 55.4375C189.474 55.0625 189.156 54.5365 188.812 53.8594C188.469 53.1719 188.104 52.3542 187.719 51.4062C187.833 52.0625 187.917 52.7292 187.969 53.4062C188.021 54.0729 188.047 54.9167 188.047 55.9375V69H183.375ZM210.062 69V46.125H223.531V50.25H214.953V54.9531H223.531V59.1094H214.953V64.8438H223.531V69H210.062ZM246.766 52.0781C245.776 51.1927 244.76 50.5469 243.719 50.1406C242.677 49.724 241.562 49.5156 240.375 49.5156C237.938 49.5156 235.995 50.2448 234.547 51.7031C233.099 53.1615 232.375 55.1198 232.375 57.5781C232.375 59.9844 233.047 61.8958 234.391 63.3125C235.734 64.7188 237.568 65.4219 239.891 65.4219C241.214 65.4219 242.443 65.2031 243.578 64.7656C244.714 64.3177 245.766 63.651 246.734 62.7656L246.703 67.7812C245.661 68.3958 244.568 68.8542 243.422 69.1562C242.286 69.4583 241.089 69.6094 239.828 69.6094C236.182 69.6094 233.188 68.4792 230.844 66.2188C228.51 63.9479 227.344 61.0677 227.344 57.5781C227.344 54.099 228.516 51.2292 230.859 48.9688C233.203 46.7083 236.224 45.5781 239.922 45.5781C241.161 45.5781 242.359 45.7083 243.516 45.9688C244.672 46.2292 245.812 46.6302 246.938 47.1719L246.766 52.0781ZM251.312 69V46.125H264.781V50.25H256.203V54.9531H264.781V59.1094H256.203V64.8438H264.781V69H251.312ZM268.125 66.0938L270.844 63.0156C271.188 63.8594 271.74 64.526 272.5 65.0156C273.26 65.4948 274.115 65.7344 275.062 65.7344C276.208 65.7344 277.115 65.4635 277.781 64.9219C278.448 64.3802 278.781 63.651 278.781 62.7344C278.781 61.651 277.672 60.5729 275.453 59.5C274.734 59.1562 274.167 58.875 273.75 58.6562C271.75 57.6146 270.365 56.599 269.594 55.6094C268.823 54.6094 268.438 53.4219 268.438 52.0469C268.438 50.1615 269.182 48.6146 270.672 47.4062C272.172 46.1875 274.115 45.5781 276.5 45.5781C277.885 45.5781 279.078 45.8229 280.078 46.3125C281.089 46.7917 281.979 47.5469 282.75 48.5781L279.859 51.3438C279.516 50.6771 279.057 50.1823 278.484 49.8594C277.922 49.526 277.24 49.3594 276.438 49.3594C275.469 49.3594 274.688 49.6042 274.094 50.0938C273.5 50.5729 273.203 51.1979 273.203 51.9688C273.203 53.1771 274.38 54.2812 276.734 55.2812C277.203 55.4792 277.562 55.6354 277.812 55.75C279.75 56.6354 281.182 57.6354 282.109 58.75C283.047 59.8646 283.516 61.1354 283.516 62.5625C283.516 64.7083 282.781 66.4219 281.312 67.7031C279.854 68.974 277.891 69.6094 275.422 69.6094C273.672 69.6094 272.172 69.3073 270.922 68.7031C269.672 68.099 268.74 67.2292 268.125 66.0938ZM287.625 69V46.125H292.516V69H287.625ZM306.297 50.2812V69H301.391V50.2812H295.797V46.125H311.922V50.2812H306.297ZM325.188 60.2969L322.625 52.9062C322.552 52.6875 322.458 52.3125 322.344 51.7812C322.229 51.25 322.109 50.599 321.984 49.8281C321.849 50.5677 321.719 51.2344 321.594 51.8281C321.469 52.4115 321.375 52.8021 321.312 53L318.844 60.2969H325.188ZM310.625 69L319.328 46.125H324.922L333.75 69H328.188L326.328 64.1406H317.469L315.875 69H310.625Z" fill="white"/>
<path d="M27 136H15C10.5817 136 7 132.418 7 128V28" stroke="white" stroke-width="1.5"/>
<circle cx="7" cy="21" r="6.25" stroke="white" stroke-width="1.5"/>
<rect x="25" y="107" width="309" height="73" rx="10" fill="#002A61"/>
<path d="M55.758 124.194C51.888 124.194 48.684 127.344 48.684 131.232C48.684 135.138 51.888 138.234 55.758 138.234C59.628 138.234 62.832 135.138 62.832 131.232C62.832 127.344 59.628 124.194 55.758 124.194ZM55.758 125.598C58.872 125.598 61.32 128.136 61.32 131.214C61.32 134.274 58.836 136.83 55.758 136.83C52.68 136.83 50.196 134.274 50.196 131.214C50.196 128.136 52.644 125.598 55.758 125.598ZM68.9395 130.638C70.7215 130.638 71.7835 132.006 71.7835 133.698C71.7835 135.408 70.8115 136.902 68.9575 136.902C67.1575 136.902 66.1855 135.336 66.1855 133.68C66.1855 132.096 67.2655 130.638 68.9395 130.638ZM64.8175 138H66.2575V136.83H66.2935C66.9775 137.748 68.0395 138.234 69.2095 138.234C71.6935 138.234 73.2595 136.128 73.2595 133.77C73.2595 131.376 71.7115 129.306 69.1915 129.306C68.0395 129.306 66.9775 129.846 66.2935 130.746H66.2575V123.15H64.8175V138ZM76.7902 130.872H78.3022V129.54H76.7902V126.498H75.3502V129.54H74.4682V130.872H75.3502V138H76.7902V130.872ZM86.9644 134.076C87.1084 131.556 85.6684 129.306 82.9504 129.306C80.3044 129.306 78.8464 131.376 78.8464 133.878C78.8464 136.308 80.4664 138.234 82.9864 138.234C84.7144 138.234 86.0824 137.37 86.8924 135.858L85.6684 135.156C85.1104 136.164 84.3184 136.902 83.0944 136.902C81.4564 136.902 80.3404 135.642 80.3224 134.076H86.9644ZM80.3944 132.852C80.5744 131.628 81.7264 130.638 82.9684 130.638C84.2284 130.638 85.2544 131.628 85.4524 132.852H80.3944ZM83.9584 124.608L81.8164 127.56L82.7164 128.064L85.4704 125.292L83.9584 124.608ZM90.3764 129.54H88.9364V138H90.3764V133.986C90.3764 132.474 90.5024 130.638 92.4824 130.638C94.1564 130.638 94.2644 131.862 94.2644 133.23V138H95.7044V132.978C95.7044 130.998 95.1644 129.306 92.8244 129.306C91.7804 129.306 91.0064 129.756 90.4124 130.566H90.3764V129.54ZM103.731 128.766H106.989V129.9C107.877 129.048 108.873 128.622 109.977 128.622C111.345 128.622 112.389 129.198 113.109 130.35C113.841 129.186 114.885 128.604 116.241 128.604C116.673 128.604 117.081 128.67 117.465 128.802C117.849 128.922 118.179 129.12 118.455 129.396C118.731 129.66 118.947 130.008 119.103 130.44C119.271 130.872 119.355 131.394 119.355 132.006V138H116.097V133.446C116.097 132.978 116.061 132.594 115.989 132.294C115.929 131.994 115.833 131.76 115.701 131.592C115.581 131.424 115.437 131.31 115.269 131.25C115.101 131.19 114.921 131.16 114.729 131.16C113.685 131.16 113.163 131.922 113.163 133.446V138H109.905V133.446C109.905 132.978 109.875 132.594 109.815 132.294C109.755 131.982 109.665 131.736 109.545 131.556C109.437 131.376 109.293 131.256 109.113 131.196C108.933 131.124 108.723 131.088 108.483 131.088C108.279 131.088 108.087 131.118 107.907 131.178C107.727 131.238 107.565 131.358 107.421 131.538C107.289 131.706 107.181 131.946 107.097 132.258C107.025 132.558 106.989 132.954 106.989 133.446V138H103.731V128.766ZM128.341 132.042C128.233 131.586 128.011 131.22 127.675 130.944C127.339 130.668 126.931 130.53 126.451 130.53C125.947 130.53 125.533 130.662 125.209 130.926C124.897 131.19 124.699 131.562 124.615 132.042H128.341ZM124.525 133.932C124.525 135.336 125.185 136.038 126.505 136.038C127.213 136.038 127.747 135.75 128.107 135.174H131.257C130.621 137.286 129.031 138.342 126.487 138.342C125.707 138.342 124.993 138.228 124.345 138C123.697 137.76 123.139 137.424 122.671 136.992C122.215 136.56 121.861 136.044 121.609 135.444C121.357 134.844 121.231 134.172 121.231 133.428C121.231 132.66 121.351 131.97 121.591 131.358C121.831 130.734 122.173 130.206 122.617 129.774C123.061 129.342 123.595 129.012 124.219 128.784C124.855 128.544 125.569 128.424 126.361 128.424C127.141 128.424 127.843 128.544 128.467 128.784C129.091 129.012 129.619 129.348 130.051 129.792C130.483 130.236 130.813 130.782 131.041 131.43C131.269 132.066 131.383 132.786 131.383 133.59V133.932H124.525ZM136.503 128.766V142.608H133.245V128.766H136.503ZM133.029 125.22C133.029 124.968 133.077 124.734 133.173 124.518C133.269 124.29 133.401 124.092 133.569 123.924C133.737 123.756 133.929 123.624 134.145 123.528C134.373 123.432 134.613 123.384 134.865 123.384C135.117 123.384 135.351 123.432 135.567 123.528C135.795 123.624 135.993 123.756 136.161 123.924C136.329 124.092 136.461 124.29 136.557 124.518C136.653 124.734 136.701 124.968 136.701 125.22C136.701 125.472 136.653 125.712 136.557 125.94C136.461 126.156 136.329 126.348 136.161 126.516C135.993 126.684 135.795 126.816 135.567 126.912C135.351 127.008 135.117 127.056 134.865 127.056C134.613 127.056 134.373 127.008 134.145 126.912C133.929 126.816 133.737 126.684 133.569 126.516C133.401 126.348 133.269 126.156 133.173 125.94C133.077 125.712 133.029 125.472 133.029 125.22ZM141.807 133.338C141.807 133.65 141.861 133.938 141.969 134.202C142.089 134.454 142.239 134.676 142.419 134.868C142.611 135.06 142.833 135.21 143.085 135.318C143.349 135.426 143.625 135.48 143.913 135.48C144.201 135.48 144.471 135.426 144.723 135.318C144.987 135.21 145.209 135.06 145.389 134.868C145.581 134.676 145.731 134.454 145.839 134.202C145.959 133.938 146.019 133.656 146.019 133.356C146.019 133.068 145.959 132.798 145.839 132.546C145.731 132.282 145.581 132.054 145.389 131.862C145.209 131.67 144.987 131.52 144.723 131.412C144.471 131.304 144.201 131.25 143.913 131.25C143.625 131.25 143.349 131.304 143.085 131.412C142.833 131.52 142.611 131.67 142.419 131.862C142.239 132.054 142.089 132.276 141.969 132.528C141.861 132.78 141.807 133.05 141.807 133.338ZM138.369 133.302C138.369 132.618 138.507 131.982 138.783 131.394C139.059 130.794 139.443 130.278 139.935 129.846C140.427 129.402 141.009 129.054 141.681 128.802C142.365 128.55 143.109 128.424 143.913 128.424C144.705 128.424 145.437 128.55 146.109 128.802C146.793 129.042 147.381 129.384 147.873 129.828C148.377 130.26 148.767 130.782 149.043 131.394C149.319 131.994 149.457 132.66 149.457 133.392C149.457 134.124 149.313 134.796 149.025 135.408C148.749 136.008 148.365 136.53 147.873 136.974C147.381 137.406 146.787 137.742 146.091 137.982C145.407 138.222 144.663 138.342 143.859 138.342C143.067 138.342 142.335 138.222 141.663 137.982C140.991 137.742 140.409 137.4 139.917 136.956C139.437 136.512 139.059 135.984 138.783 135.372C138.507 134.748 138.369 134.058 138.369 133.302ZM151.333 128.766H154.591V130.278C154.939 129.726 155.365 129.306 155.869 129.018C156.373 128.718 156.961 128.568 157.633 128.568C157.717 128.568 157.807 128.568 157.903 128.568C158.011 128.568 158.131 128.58 158.263 128.604V131.718C157.831 131.502 157.363 131.394 156.859 131.394C156.103 131.394 155.533 131.622 155.149 132.078C154.777 132.522 154.591 133.176 154.591 134.04V138H151.333V128.766ZM166.573 132.042C166.465 131.586 166.243 131.22 165.907 130.944C165.571 130.668 165.163 130.53 164.683 130.53C164.179 130.53 163.765 130.662 163.441 130.926C163.129 131.19 162.931 131.562 162.847 132.042H166.573ZM162.757 133.932C162.757 135.336 163.417 136.038 164.737 136.038C165.445 136.038 165.979 135.75 166.339 135.174H169.489C168.853 137.286 167.263 138.342 164.719 138.342C163.939 138.342 163.225 138.228 162.577 138C161.929 137.76 161.371 137.424 160.903 136.992C160.447 136.56 160.093 136.044 159.841 135.444C159.589 134.844 159.463 134.172 159.463 133.428C159.463 132.66 159.583 131.97 159.823 131.358C160.063 130.734 160.405 130.206 160.849 129.774C161.293 129.342 161.827 129.012 162.451 128.784C163.087 128.544 163.801 128.424 164.593 128.424C165.373 128.424 166.075 128.544 166.699 128.784C167.323 129.012 167.851 129.348 168.283 129.792C168.715 130.236 169.045 130.782 169.273 131.43C169.501 132.066 169.615 132.786 169.615 133.59V133.932H162.757ZM177.597 131.142C176.997 130.83 176.409 130.674 175.833 130.674C175.533 130.674 175.287 130.734 175.095 130.854C174.915 130.974 174.825 131.136 174.825 131.34C174.825 131.448 174.837 131.538 174.861 131.61C174.897 131.67 174.963 131.73 175.059 131.79C175.167 131.85 175.317 131.904 175.509 131.952C175.713 132 175.977 132.06 176.301 132.132C177.201 132.312 177.873 132.636 178.317 133.104C178.761 133.56 178.983 134.148 178.983 134.868C178.983 135.408 178.875 135.894 178.659 136.326C178.443 136.758 178.143 137.124 177.759 137.424C177.375 137.712 176.913 137.934 176.373 138.09C175.833 138.258 175.239 138.342 174.591 138.342C173.343 138.342 172.113 137.988 170.901 137.28L172.089 134.976C173.001 135.6 173.865 135.912 174.681 135.912C174.981 135.912 175.227 135.846 175.419 135.714C175.611 135.582 175.707 135.414 175.707 135.21C175.707 135.09 175.689 134.994 175.653 134.922C175.629 134.838 175.569 134.766 175.473 134.706C175.377 134.634 175.233 134.574 175.041 134.526C174.861 134.466 174.621 134.406 174.321 134.346C173.313 134.142 172.605 133.842 172.197 133.446C171.801 133.038 171.603 132.48 171.603 131.772C171.603 131.256 171.699 130.794 171.891 130.386C172.083 129.966 172.359 129.612 172.719 129.324C173.079 129.036 173.511 128.814 174.015 128.658C174.531 128.502 175.101 128.424 175.725 128.424C176.745 128.424 177.735 128.622 178.695 129.018L177.597 131.142ZM186.753 128.766H190.011V130.278C190.359 129.726 190.785 129.306 191.289 129.018C191.793 128.718 192.381 128.568 193.053 128.568C193.137 128.568 193.227 128.568 193.323 128.568C193.431 128.568 193.551 128.58 193.683 128.604V131.718C193.251 131.502 192.783 131.394 192.279 131.394C191.523 131.394 190.953 131.622 190.569 132.078C190.197 132.522 190.011 133.176 190.011 134.04V138H186.753V128.766ZM201.993 132.042C201.885 131.586 201.663 131.22 201.327 130.944C200.991 130.668 200.583 130.53 200.103 130.53C199.599 130.53 199.185 130.662 198.861 130.926C198.549 131.19 198.351 131.562 198.267 132.042H201.993ZM198.177 133.932C198.177 135.336 198.837 136.038 200.157 136.038C200.865 136.038 201.399 135.75 201.759 135.174H204.909C204.273 137.286 202.683 138.342 200.139 138.342C199.359 138.342 198.645 138.228 197.997 138C197.349 137.76 196.791 137.424 196.323 136.992C195.867 136.56 195.513 136.044 195.261 135.444C195.009 134.844 194.883 134.172 194.883 133.428C194.883 132.66 195.003 131.97 195.243 131.358C195.483 130.734 195.825 130.206 196.269 129.774C196.713 129.342 197.247 129.012 197.871 128.784C198.507 128.544 199.221 128.424 200.013 128.424C200.793 128.424 201.495 128.544 202.119 128.784C202.743 129.012 203.271 129.348 203.703 129.792C204.135 130.236 204.465 130.782 204.693 131.43C204.921 132.066 205.035 132.786 205.035 133.59V133.932H198.177ZM206.897 128.766H210.155V129.936C210.599 129.396 211.049 129.036 211.505 128.856C211.961 128.664 212.495 128.568 213.107 128.568C213.755 128.568 214.307 128.676 214.763 128.892C215.231 129.096 215.627 129.39 215.951 129.774C216.215 130.086 216.395 130.434 216.491 130.818C216.587 131.202 216.635 131.64 216.635 132.132V138H213.377V133.338C213.377 132.882 213.341 132.516 213.269 132.24C213.209 131.952 213.095 131.724 212.927 131.556C212.783 131.412 212.621 131.31 212.441 131.25C212.261 131.19 212.069 131.16 211.865 131.16C211.313 131.16 210.887 131.328 210.587 131.664C210.299 131.988 210.155 132.456 210.155 133.068V138H206.897V128.766ZM221.874 133.356C221.874 133.656 221.928 133.938 222.036 134.202C222.144 134.454 222.288 134.676 222.468 134.868C222.66 135.06 222.882 135.21 223.134 135.318C223.398 135.426 223.68 135.48 223.98 135.48C224.268 135.48 224.538 135.426 224.79 135.318C225.054 135.21 225.276 135.06 225.456 134.868C225.648 134.676 225.798 134.454 225.906 134.202C226.026 133.95 226.086 133.68 226.086 133.392C226.086 133.104 226.026 132.834 225.906 132.582C225.798 132.318 225.648 132.09 225.456 131.898C225.276 131.706 225.054 131.556 224.79 131.448C224.538 131.34 224.268 131.286 223.98 131.286C223.692 131.286 223.416 131.34 223.152 131.448C222.9 131.556 222.678 131.706 222.486 131.898C222.306 132.09 222.156 132.312 222.036 132.564C221.928 132.804 221.874 133.068 221.874 133.356ZM225.978 123.06H229.254V138H225.978V136.974C225.282 137.85 224.34 138.288 223.152 138.288C222.48 138.288 221.862 138.162 221.298 137.91C220.734 137.658 220.242 137.31 219.822 136.866C219.402 136.422 219.072 135.9 218.832 135.3C218.604 134.7 218.49 134.052 218.49 133.356C218.49 132.696 218.598 132.072 218.814 131.484C219.042 130.884 219.36 130.362 219.768 129.918C220.176 129.474 220.662 129.126 221.226 128.874C221.802 128.61 222.432 128.478 223.116 128.478C224.268 128.478 225.222 128.88 225.978 129.684V123.06ZM234.729 128.766V138H231.471V128.766H234.729ZM231.255 125.22C231.255 124.968 231.303 124.734 231.399 124.518C231.495 124.29 231.627 124.092 231.795 123.924C231.963 123.756 232.155 123.624 232.371 123.528C232.599 123.432 232.839 123.384 233.091 123.384C233.343 123.384 233.577 123.432 233.793 123.528C234.021 123.624 234.219 123.756 234.387 123.924C234.555 124.092 234.687 124.29 234.783 124.518C234.879 124.734 234.927 124.968 234.927 125.22C234.927 125.472 234.879 125.712 234.783 125.94C234.687 126.156 234.555 126.348 234.387 126.516C234.219 126.684 234.021 126.816 233.793 126.912C233.577 127.008 233.343 127.056 233.091 127.056C232.839 127.056 232.599 127.008 232.371 126.912C232.155 126.816 231.963 126.684 231.795 126.516C231.627 126.348 231.495 126.156 231.399 125.94C231.303 125.712 231.255 125.472 231.255 125.22ZM236.956 128.766H240.214V129.9C241.102 129.048 242.098 128.622 243.202 128.622C244.57 128.622 245.614 129.198 246.334 130.35C247.066 129.186 248.11 128.604 249.466 128.604C249.898 128.604 250.306 128.67 250.69 128.802C251.074 128.922 251.404 129.12 251.68 129.396C251.956 129.66 252.172 130.008 252.328 130.44C252.496 130.872 252.58 131.394 252.58 132.006V138H249.322V133.446C249.322 132.978 249.286 132.594 249.214 132.294C249.154 131.994 249.058 131.76 248.926 131.592C248.806 131.424 248.662 131.31 248.494 131.25C248.326 131.19 248.146 131.16 247.954 131.16C246.91 131.16 246.388 131.922 246.388 133.446V138H243.13V133.446C243.13 132.978 243.1 132.594 243.04 132.294C242.98 131.982 242.89 131.736 242.77 131.556C242.662 131.376 242.518 131.256 242.338 131.196C242.158 131.124 241.948 131.088 241.708 131.088C241.504 131.088 241.312 131.118 241.132 131.178C240.952 131.238 240.79 131.358 240.646 131.538C240.514 131.706 240.406 131.946 240.322 132.258C240.25 132.558 240.214 132.954 240.214 133.446V138H236.956V128.766ZM258.073 128.766V138H254.815V128.766H258.073ZM254.599 125.22C254.599 124.968 254.647 124.734 254.743 124.518C254.839 124.29 254.971 124.092 255.139 123.924C255.307 123.756 255.499 123.624 255.715 123.528C255.943 123.432 256.183 123.384 256.435 123.384C256.687 123.384 256.921 123.432 257.137 123.528C257.365 123.624 257.563 123.756 257.731 123.924C257.899 124.092 258.031 124.29 258.127 124.518C258.223 124.734 258.271 124.968 258.271 125.22C258.271 125.472 258.223 125.712 258.127 125.94C258.031 126.156 257.899 126.348 257.731 126.516C257.563 126.684 257.365 126.816 257.137 126.912C256.921 127.008 256.687 127.056 256.435 127.056C256.183 127.056 255.943 127.008 255.715 126.912C255.499 126.816 255.307 126.684 255.139 126.516C254.971 126.348 254.839 126.156 254.743 125.94C254.647 125.712 254.599 125.472 254.599 125.22ZM267.05 132.042C266.942 131.586 266.72 131.22 266.384 130.944C266.048 130.668 265.64 130.53 265.16 130.53C264.656 130.53 264.242 130.662 263.918 130.926C263.606 131.19 263.408 131.562 263.324 132.042H267.05ZM263.234 133.932C263.234 135.336 263.894 136.038 265.214 136.038C265.922 136.038 266.456 135.75 266.816 135.174H269.966C269.33 137.286 267.74 138.342 265.196 138.342C264.416 138.342 263.702 138.228 263.054 138C262.406 137.76 261.848 137.424 261.38 136.992C260.924 136.56 260.57 136.044 260.318 135.444C260.066 134.844 259.94 134.172 259.94 133.428C259.94 132.66 260.06 131.97 260.3 131.358C260.54 130.734 260.882 130.206 261.326 129.774C261.77 129.342 262.304 129.012 262.928 128.784C263.564 128.544 264.278 128.424 265.07 128.424C265.85 128.424 266.552 128.544 267.176 128.784C267.8 129.012 268.328 129.348 268.76 129.792C269.192 130.236 269.522 130.782 269.75 131.43C269.978 132.066 270.092 132.786 270.092 133.59V133.932H263.234ZM271.954 128.766H275.212V129.936C275.656 129.396 276.106 129.036 276.562 128.856C277.018 128.664 277.552 128.568 278.164 128.568C278.812 128.568 279.364 128.676 279.82 128.892C280.288 129.096 280.684 129.39 281.008 129.774C281.272 130.086 281.452 130.434 281.548 130.818C281.644 131.202 281.692 131.64 281.692 132.132V138H278.434V133.338C278.434 132.882 278.398 132.516 278.326 132.24C278.266 131.952 278.152 131.724 277.984 131.556C277.84 131.412 277.678 131.31 277.498 131.25C277.318 131.19 277.126 131.16 276.922 131.16C276.37 131.16 275.944 131.328 275.644 131.664C275.356 131.988 275.212 132.456 275.212 133.068V138H271.954V128.766ZM287.543 131.484V138H284.285V131.484H283.205V128.766H284.285V125.994H287.543V128.766H289.397V131.484H287.543ZM293.858 133.338C293.858 133.65 293.912 133.938 294.02 134.202C294.14 134.454 294.29 134.676 294.47 134.868C294.662 135.06 294.884 135.21 295.136 135.318C295.4 135.426 295.676 135.48 295.964 135.48C296.252 135.48 296.522 135.426 296.774 135.318C297.038 135.21 297.26 135.06 297.44 134.868C297.632 134.676 297.782 134.454 297.89 134.202C298.01 133.938 298.07 133.656 298.07 133.356C298.07 133.068 298.01 132.798 297.89 132.546C297.782 132.282 297.632 132.054 297.44 131.862C297.26 131.67 297.038 131.52 296.774 131.412C296.522 131.304 296.252 131.25 295.964 131.25C295.676 131.25 295.4 131.304 295.136 131.412C294.884 131.52 294.662 131.67 294.47 131.862C294.29 132.054 294.14 132.276 294.02 132.528C293.912 132.78 293.858 133.05 293.858 133.338ZM290.42 133.302C290.42 132.618 290.558 131.982 290.834 131.394C291.11 130.794 291.494 130.278 291.986 129.846C292.478 129.402 293.06 129.054 293.732 128.802C294.416 128.55 295.16 128.424 295.964 128.424C296.756 128.424 297.488 128.55 298.16 128.802C298.844 129.042 299.432 129.384 299.924 129.828C300.428 130.26 300.818 130.782 301.094 131.394C301.37 131.994 301.508 132.66 301.508 133.392C301.508 134.124 301.364 134.796 301.076 135.408C300.8 136.008 300.416 136.53 299.924 136.974C299.432 137.406 298.838 137.742 298.142 137.982C297.458 138.222 296.714 138.342 295.91 138.342C295.118 138.342 294.386 138.222 293.714 137.982C293.042 137.742 292.46 137.4 291.968 136.956C291.488 136.512 291.11 135.984 290.834 135.372C290.558 134.748 290.42 134.058 290.42 133.302ZM309.504 131.142C308.904 130.83 308.316 130.674 307.74 130.674C307.44 130.674 307.194 130.734 307.002 130.854C306.822 130.974 306.732 131.136 306.732 131.34C306.732 131.448 306.744 131.538 306.768 131.61C306.804 131.67 306.87 131.73 306.966 131.79C307.074 131.85 307.224 131.904 307.416 131.952C307.62 132 307.884 132.06 308.208 132.132C309.108 132.312 309.78 132.636 310.224 133.104C310.668 133.56 310.89 134.148 310.89 134.868C310.89 135.408 310.782 135.894 310.566 136.326C310.35 136.758 310.05 137.124 309.666 137.424C309.282 137.712 308.82 137.934 308.28 138.09C307.74 138.258 307.146 138.342 306.498 138.342C305.25 138.342 304.02 137.988 302.808 137.28L303.996 134.976C304.908 135.6 305.772 135.912 306.588 135.912C306.888 135.912 307.134 135.846 307.326 135.714C307.518 135.582 307.614 135.414 307.614 135.21C307.614 135.09 307.596 134.994 307.56 134.922C307.536 134.838 307.476 134.766 307.38 134.706C307.284 134.634 307.14 134.574 306.948 134.526C306.768 134.466 306.528 134.406 306.228 134.346C305.22 134.142 304.512 133.842 304.104 133.446C303.708 133.038 303.51 132.48 303.51 131.772C303.51 131.256 303.606 130.794 303.798 130.386C303.99 129.966 304.266 129.612 304.626 129.324C304.986 129.036 305.418 128.814 305.922 128.658C306.438 128.502 307.008 128.424 307.632 128.424C308.652 128.424 309.642 128.622 310.602 129.018L309.504 131.142ZM56.73 154.076C56.874 151.556 55.434 149.306 52.716 149.306C50.07 149.306 48.612 151.376 48.612 153.878C48.612 156.308 50.232 158.234 52.752 158.234C54.48 158.234 55.848 157.37 56.658 155.858L55.434 155.156C54.876 156.164 54.084 156.902 52.86 156.902C51.222 156.902 50.106 155.642 50.088 154.076H56.73ZM50.16 152.852C50.34 151.628 51.492 150.638 52.734 150.638C53.994 150.638 55.02 151.628 55.218 152.852H50.16ZM60.142 149.54H58.702V158H60.142V153.986C60.142 152.474 60.268 150.638 62.248 150.638C63.922 150.638 64.03 151.862 64.03 153.23V158H65.47V152.978C65.47 150.998 64.93 149.306 62.59 149.306C61.546 149.306 60.772 149.756 60.178 150.566H60.142V149.54ZM75.2609 150.872H76.7729V149.54H75.2609V146.498H73.8209V149.54H72.9389V150.872H73.8209V158H75.2609V150.872ZM79.4051 149.54H77.9651V154.418C77.9651 156.668 78.8111 158.234 81.3131 158.234C83.8151 158.234 84.6611 156.668 84.6611 154.418V149.54H83.2211V154.256C83.2211 155.678 83.0591 156.902 81.3131 156.902C79.5671 156.902 79.4051 155.678 79.4051 154.256V149.54ZM97.4471 150.872C97.0691 149.99 96.1691 149.306 95.1971 149.306C93.8291 149.306 92.6771 150.278 92.6771 151.7C92.6771 154.364 96.4931 153.716 96.4931 155.606C96.4931 156.38 95.8991 156.902 95.1251 156.902C94.1711 156.902 93.7571 156.344 93.3971 155.552L92.1191 156.092C92.5691 157.424 93.6851 158.234 95.1071 158.234C96.6731 158.234 97.9691 157.082 97.9691 155.48C97.9691 154.058 96.9971 153.464 96.0071 153.05C95.0171 152.636 94.0451 152.348 94.0451 151.574C94.0451 151.034 94.5851 150.638 95.0891 150.638C95.6111 150.638 96.0431 151.052 96.2411 151.502L97.4471 150.872ZM103.521 150.638C105.303 150.638 106.365 152.006 106.365 153.698C106.365 155.408 105.393 156.902 103.539 156.902C101.739 156.902 100.767 155.336 100.767 153.68C100.767 152.096 101.847 150.638 103.521 150.638ZM107.733 149.54H106.293V150.746H106.257C105.555 149.846 104.511 149.306 103.359 149.306C100.821 149.306 99.2906 151.376 99.2906 153.788C99.2906 156.128 100.857 158.234 103.341 158.234C104.529 158.234 105.519 157.766 106.257 156.83H106.293V158H107.733V149.54ZM111.803 143.15H110.363V158H111.803V143.15ZM117.987 150.638C119.769 150.638 120.831 152.006 120.831 153.698C120.831 155.408 119.859 156.902 118.005 156.902C116.205 156.902 115.233 155.336 115.233 153.68C115.233 152.096 116.313 150.638 117.987 150.638ZM120.759 158H122.199V143.15H120.759V150.746H120.723C120.039 149.846 118.959 149.306 117.825 149.306C115.287 149.306 113.757 151.376 113.757 153.788C113.757 156.128 115.323 158.234 117.807 158.234C118.959 158.234 120.021 157.748 120.723 156.83H120.759V158ZM128.556 158.234C131.022 158.234 133.002 156.272 133.002 153.788C133.002 151.304 131.04 149.306 128.556 149.306C126.072 149.306 124.11 151.304 124.11 153.788C124.11 156.272 126.09 158.234 128.556 158.234ZM128.556 150.638C130.338 150.638 131.562 152.06 131.562 153.77C131.562 155.498 130.338 156.902 128.556 156.902C126.774 156.902 125.55 155.498 125.55 153.77C125.55 152.06 126.774 150.638 128.556 150.638ZM144.021 150.638C145.803 150.638 146.865 152.006 146.865 153.698C146.865 155.408 145.893 156.902 144.039 156.902C142.239 156.902 141.267 155.336 141.267 153.68C141.267 152.096 142.347 150.638 144.021 150.638ZM148.233 149.54H146.793V150.746H146.757C146.055 149.846 145.011 149.306 143.859 149.306C141.321 149.306 139.791 151.376 139.791 153.788C139.791 156.128 141.357 158.234 143.841 158.234C145.029 158.234 146.019 157.766 146.757 156.83H146.793V158H148.233V149.54ZM157.84 143.15H156.4V158H157.84V143.15ZM164.024 150.638C165.806 150.638 166.868 152.006 166.868 153.698C166.868 155.408 165.896 156.902 164.042 156.902C162.242 156.902 161.27 155.336 161.27 153.68C161.27 152.096 162.35 150.638 164.024 150.638ZM168.236 149.54H166.796V150.746H166.76C166.058 149.846 165.014 149.306 163.862 149.306C161.324 149.306 159.794 151.376 159.794 153.788C159.794 156.128 161.36 158.234 163.844 158.234C165.032 158.234 166.022 157.766 166.76 156.83H166.796V158H168.236V149.54ZM176.728 149.54H175.09L179.248 158.558L183.388 149.54H181.768L179.248 155.228L176.728 149.54ZM186.482 149.54H185.042V158H186.482V149.54ZM185.762 145.328C185.204 145.328 184.736 145.796 184.736 146.354C184.736 146.93 185.204 147.38 185.762 147.38C186.32 147.38 186.788 146.93 186.788 146.354C186.788 145.796 186.32 145.328 185.762 145.328ZM194.109 150.872C193.731 149.99 192.831 149.306 191.859 149.306C190.491 149.306 189.339 150.278 189.339 151.7C189.339 154.364 193.155 153.716 193.155 155.606C193.155 156.38 192.561 156.902 191.787 156.902C190.833 156.902 190.419 156.344 190.059 155.552L188.781 156.092C189.231 157.424 190.347 158.234 191.769 158.234C193.335 158.234 194.631 157.082 194.631 155.48C194.631 154.058 193.659 153.464 192.669 153.05C191.679 152.636 190.707 152.348 190.707 151.574C190.707 151.034 191.247 150.638 191.751 150.638C192.273 150.638 192.705 151.052 192.903 151.502L194.109 150.872ZM198.185 150.872H199.697V149.54H198.185V146.498H196.745V149.54H195.863V150.872H196.745V158H198.185V150.872ZM204.507 150.638C206.289 150.638 207.351 152.006 207.351 153.698C207.351 155.408 206.379 156.902 204.525 156.902C202.725 156.902 201.753 155.336 201.753 153.68C201.753 152.096 202.833 150.638 204.507 150.638ZM208.719 149.54H207.279V150.746H207.243C206.541 149.846 205.497 149.306 204.345 149.306C201.807 149.306 200.277 151.376 200.277 153.788C200.277 156.128 201.843 158.234 204.327 158.234C205.515 158.234 206.505 157.766 207.243 156.83H207.279V158H208.719V149.54Z" fill="white"/>
</svg>
