<svg width="550" height="235" viewBox="0 0 550 235" fill="none" xmlns="http://www.w3.org/2000/svg">
<path d="M27 204H15C10.5817 204 7 200.418 7 196V14" stroke="white" stroke-width="1.5"/>
<path d="M13.41 7.0784C13.41 10.5733 10.5761 13.4068 7.08 13.4068C3.58388 13.4068 0.75 10.5733 0.75 7.0784C0.75 3.58348 3.58388 0.75 7.08 0.75C10.5761 0.75 13.41 3.58348 13.41 7.0784Z" stroke="white" stroke-width="1.5"/>
<rect x="25" y="172" width="372" height="63" rx="16" fill="#002A61"/>
<path d="M54.57 199.416V210H51.042V199.416H48.144V196.428H57.468V199.416H54.57ZM58.3445 200.766H61.6025V202.278C61.9505 201.726 62.3765 201.306 62.8805 201.018C63.3845 200.718 63.9725 200.568 64.6445 200.568C64.7285 200.568 64.8185 200.568 64.9145 200.568C65.0225 200.568 65.1425 200.58 65.2745 200.604V203.718C64.8425 203.502 64.3745 203.394 63.8705 203.394C63.1145 203.394 62.5445 203.622 62.1605 204.078C61.7885 204.522 61.6025 205.176 61.6025 206.04V210H58.3445V200.766ZM69.8588 205.356C69.8588 205.656 69.9128 205.938 70.0208 206.202C70.1288 206.454 70.2728 206.676 70.4528 206.868C70.6448 207.06 70.8668 207.21 71.1188 207.318C71.3828 207.426 71.6648 207.48 71.9648 207.48C72.2528 207.48 72.5228 207.426 72.7748 207.318C73.0388 207.21 73.2608 207.06 73.4408 206.868C73.6328 206.676 73.7828 206.454 73.8908 206.202C74.0108 205.95 74.0708 205.68 74.0708 205.392C74.0708 205.104 74.0108 204.834 73.8908 204.582C73.7828 204.318 73.6328 204.09 73.4408 203.898C73.2608 203.706 73.0388 203.556 72.7748 203.448C72.5228 203.34 72.2528 203.286 71.9648 203.286C71.6648 203.286 71.3828 203.34 71.1188 203.448C70.8668 203.556 70.6448 203.706 70.4528 203.898C70.2728 204.09 70.1288 204.312 70.0208 204.564C69.9128 204.804 69.8588 205.068 69.8588 205.356ZM73.9628 200.766H77.2388V210H73.9628V208.974C73.2668 209.85 72.3248 210.288 71.1368 210.288C70.4648 210.288 69.8468 210.168 69.2828 209.928C68.7188 209.676 68.2268 209.328 67.8068 208.884C67.3868 208.44 67.0568 207.918 66.8168 207.318C66.5888 206.718 66.4748 206.064 66.4748 205.356C66.4748 204.696 66.5888 204.072 66.8168 203.484C67.0448 202.884 67.3628 202.362 67.7708 201.918C68.1788 201.474 68.6648 201.126 69.2288 200.874C69.7928 200.61 70.4168 200.478 71.1008 200.478C72.2528 200.478 73.2068 200.88 73.9628 201.684V200.766ZM79.4558 200.766H82.7138V201.936C83.1578 201.396 83.6078 201.036 84.0638 200.856C84.5198 200.664 85.0538 200.568 85.6658 200.568C86.3138 200.568 86.8658 200.676 87.3218 200.892C87.7898 201.096 88.1858 201.39 88.5098 201.774C88.7738 202.086 88.9538 202.434 89.0498 202.818C89.1458 203.202 89.1938 203.64 89.1938 204.132V210H85.9358V205.338C85.9358 204.882 85.8998 204.516 85.8278 204.24C85.7678 203.952 85.6538 203.724 85.4858 203.556C85.3418 203.412 85.1798 203.31 84.9998 203.25C84.8198 203.19 84.6278 203.16 84.4238 203.16C83.8718 203.16 83.4458 203.328 83.1458 203.664C82.8578 203.988 82.7138 204.456 82.7138 205.068V210H79.4558V200.766ZM97.529 203.142C96.929 202.83 96.341 202.674 95.765 202.674C95.465 202.674 95.219 202.734 95.027 202.854C94.847 202.974 94.757 203.136 94.757 203.34C94.757 203.448 94.769 203.538 94.793 203.61C94.829 203.67 94.895 203.73 94.991 203.79C95.099 203.85 95.249 203.904 95.441 203.952C95.645 204 95.909 204.06 96.233 204.132C97.133 204.312 97.805 204.636 98.249 205.104C98.693 205.56 98.915 206.148 98.915 206.868C98.915 207.408 98.807 207.894 98.591 208.326C98.375 208.758 98.075 209.124 97.691 209.424C97.307 209.712 96.845 209.934 96.305 210.09C95.765 210.258 95.171 210.342 94.523 210.342C93.275 210.342 92.045 209.988 90.833 209.28L92.021 206.976C92.933 207.6 93.797 207.912 94.613 207.912C94.913 207.912 95.159 207.846 95.351 207.714C95.543 207.582 95.639 207.414 95.639 207.21C95.639 207.09 95.621 206.994 95.585 206.922C95.561 206.838 95.501 206.766 95.405 206.706C95.309 206.634 95.165 206.574 94.973 206.526C94.793 206.466 94.553 206.406 94.253 206.346C93.245 206.142 92.537 205.842 92.129 205.446C91.733 205.038 91.535 204.48 91.535 203.772C91.535 203.256 91.631 202.794 91.823 202.386C92.015 201.966 92.291 201.612 92.651 201.324C93.011 201.036 93.443 200.814 93.947 200.658C94.463 200.502 95.033 200.424 95.657 200.424C96.677 200.424 97.667 200.622 98.627 201.018L97.529 203.142ZM100.837 200.766V199.056C100.837 198.456 100.963 197.892 101.215 197.364C101.479 196.824 101.827 196.356 102.259 195.96C102.703 195.564 103.213 195.252 103.789 195.024C104.377 194.784 104.995 194.664 105.643 194.664C106.291 194.664 106.903 194.778 107.479 195.006C108.067 195.234 108.577 195.546 109.009 195.942C109.453 196.338 109.801 196.806 110.053 197.346C110.317 197.874 110.449 198.444 110.449 199.056V199.47H107.191V199.056C107.191 198.84 107.149 198.636 107.065 198.444C106.993 198.24 106.885 198.06 106.741 197.904C106.609 197.748 106.447 197.622 106.255 197.526C106.075 197.43 105.871 197.382 105.643 197.382C105.199 197.382 104.827 197.55 104.527 197.886C104.239 198.222 104.095 198.612 104.095 199.056V200.766H105.967V203.484H104.095V210H100.837V203.484H99.6672V200.766H100.837ZM110.449 210H107.191V200.766H110.449V210ZM119.429 204.042C119.321 203.586 119.099 203.22 118.763 202.944C118.427 202.668 118.019 202.53 117.539 202.53C117.035 202.53 116.621 202.662 116.297 202.926C115.985 203.19 115.787 203.562 115.703 204.042H119.429ZM115.613 205.932C115.613 207.336 116.273 208.038 117.593 208.038C118.301 208.038 118.835 207.75 119.195 207.174H122.345C121.709 209.286 120.119 210.342 117.575 210.342C116.795 210.342 116.081 210.228 115.433 210C114.785 209.76 114.227 209.424 113.759 208.992C113.303 208.56 112.949 208.044 112.697 207.444C112.445 206.844 112.319 206.172 112.319 205.428C112.319 204.66 112.439 203.97 112.679 203.358C112.919 202.734 113.261 202.206 113.705 201.774C114.149 201.342 114.683 201.012 115.307 200.784C115.943 200.544 116.657 200.424 117.449 200.424C118.229 200.424 118.931 200.544 119.555 200.784C120.179 201.012 120.707 201.348 121.139 201.792C121.571 202.236 121.901 202.782 122.129 203.43C122.357 204.066 122.471 204.786 122.471 205.59V205.932H115.613ZM124.333 200.766H127.591V202.278C127.939 201.726 128.365 201.306 128.869 201.018C129.373 200.718 129.961 200.568 130.633 200.568C130.717 200.568 130.807 200.568 130.903 200.568C131.011 200.568 131.131 200.58 131.263 200.604V203.718C130.831 203.502 130.363 203.394 129.859 203.394C129.103 203.394 128.533 203.622 128.149 204.078C127.777 204.522 127.591 205.176 127.591 206.04V210H124.333V200.766ZM139.573 204.042C139.465 203.586 139.243 203.22 138.907 202.944C138.571 202.668 138.163 202.53 137.683 202.53C137.179 202.53 136.765 202.662 136.441 202.926C136.129 203.19 135.931 203.562 135.847 204.042H139.573ZM135.757 205.932C135.757 207.336 136.417 208.038 137.737 208.038C138.445 208.038 138.979 207.75 139.339 207.174H142.489C141.853 209.286 140.263 210.342 137.719 210.342C136.939 210.342 136.225 210.228 135.577 210C134.929 209.76 134.371 209.424 133.903 208.992C133.447 208.56 133.093 208.044 132.841 207.444C132.589 206.844 132.463 206.172 132.463 205.428C132.463 204.66 132.583 203.97 132.823 203.358C133.063 202.734 133.405 202.206 133.849 201.774C134.293 201.342 134.827 201.012 135.451 200.784C136.087 200.544 136.801 200.424 137.593 200.424C138.373 200.424 139.075 200.544 139.699 200.784C140.323 201.012 140.851 201.348 141.283 201.792C141.715 202.236 142.045 202.782 142.273 203.43C142.501 204.066 142.615 204.786 142.615 205.59V205.932H135.757ZM154.231 203.484V210H150.973V203.484H149.893V200.766H150.973V197.994H154.231V200.766H156.085V203.484H154.231ZM160.567 200.766V205.968C160.567 207.108 161.119 207.678 162.223 207.678C163.327 207.678 163.879 207.108 163.879 205.968V200.766H167.137V206.598C167.137 207.846 166.723 208.782 165.895 209.406C165.079 210.03 163.855 210.342 162.223 210.342C160.591 210.342 159.361 210.03 158.533 209.406C157.717 208.782 157.309 207.846 157.309 206.598V200.766H160.567ZM175.47 203.142C174.87 202.83 174.282 202.674 173.706 202.674C173.406 202.674 173.16 202.734 172.968 202.854C172.788 202.974 172.698 203.136 172.698 203.34C172.698 203.448 172.71 203.538 172.734 203.61C172.77 203.67 172.836 203.73 172.932 203.79C173.04 203.85 173.19 203.904 173.382 203.952C173.586 204 173.85 204.06 174.174 204.132C175.074 204.312 175.746 204.636 176.19 205.104C176.634 205.56 176.856 206.148 176.856 206.868C176.856 207.408 176.748 207.894 176.532 208.326C176.316 208.758 176.016 209.124 175.632 209.424C175.248 209.712 174.786 209.934 174.246 210.09C173.706 210.258 173.112 210.342 172.464 210.342C171.216 210.342 169.986 209.988 168.774 209.28L169.962 206.976C170.874 207.6 171.738 207.912 172.554 207.912C172.854 207.912 173.1 207.846 173.292 207.714C173.484 207.582 173.58 207.414 173.58 207.21C173.58 207.09 173.562 206.994 173.526 206.922C173.502 206.838 173.442 206.766 173.346 206.706C173.25 206.634 173.106 206.574 172.914 206.526C172.734 206.466 172.494 206.406 172.194 206.346C171.186 206.142 170.478 205.842 170.07 205.446C169.674 205.038 169.476 204.48 169.476 203.772C169.476 203.256 169.572 202.794 169.764 202.386C169.956 201.966 170.232 201.612 170.592 201.324C170.952 201.036 171.384 200.814 171.888 200.658C172.404 200.502 172.974 200.424 173.598 200.424C174.618 200.424 175.608 200.622 176.568 201.018L175.47 203.142ZM188.154 203.484V210H184.896V203.484H183.726V200.766H184.896V199.38C184.896 198.612 184.968 198 185.112 197.544C185.232 197.16 185.424 196.806 185.688 196.482C185.952 196.146 186.258 195.858 186.606 195.618C186.966 195.378 187.35 195.192 187.758 195.06C188.166 194.928 188.568 194.862 188.964 194.862C189.24 194.862 189.492 194.892 189.72 194.952C189.96 195.012 190.2 195.096 190.44 195.204V198.048C190.224 197.94 190.02 197.862 189.828 197.814C189.648 197.754 189.456 197.724 189.252 197.724C189.12 197.724 188.982 197.748 188.838 197.796C188.706 197.832 188.58 197.916 188.46 198.048C188.34 198.18 188.256 198.372 188.208 198.624C188.172 198.864 188.154 199.194 188.154 199.614V200.766H190.44V203.484H188.154ZM194.893 205.338C194.893 205.65 194.947 205.938 195.055 206.202C195.175 206.454 195.325 206.676 195.505 206.868C195.697 207.06 195.919 207.21 196.171 207.318C196.435 207.426 196.711 207.48 196.999 207.48C197.287 207.48 197.557 207.426 197.809 207.318C198.073 207.21 198.295 207.06 198.475 206.868C198.667 206.676 198.817 206.454 198.925 206.202C199.045 205.938 199.105 205.656 199.105 205.356C199.105 205.068 199.045 204.798 198.925 204.546C198.817 204.282 198.667 204.054 198.475 203.862C198.295 203.67 198.073 203.52 197.809 203.412C197.557 203.304 197.287 203.25 196.999 203.25C196.711 203.25 196.435 203.304 196.171 203.412C195.919 203.52 195.697 203.67 195.505 203.862C195.325 204.054 195.175 204.276 195.055 204.528C194.947 204.78 194.893 205.05 194.893 205.338ZM191.455 205.302C191.455 204.618 191.593 203.982 191.869 203.394C192.145 202.794 192.529 202.278 193.021 201.846C193.513 201.402 194.095 201.054 194.767 200.802C195.451 200.55 196.195 200.424 196.999 200.424C197.791 200.424 198.523 200.55 199.195 200.802C199.879 201.042 200.467 201.384 200.959 201.828C201.463 202.26 201.853 202.782 202.129 203.394C202.405 203.994 202.543 204.66 202.543 205.392C202.543 206.124 202.399 206.796 202.111 207.408C201.835 208.008 201.451 208.53 200.959 208.974C200.467 209.406 199.873 209.742 199.177 209.982C198.493 210.222 197.749 210.342 196.945 210.342C196.153 210.342 195.421 210.222 194.749 209.982C194.077 209.742 193.495 209.4 193.003 208.956C192.523 208.512 192.145 207.984 191.869 207.372C191.593 206.748 191.455 206.058 191.455 205.302ZM204.419 200.766H207.677V201.936C208.121 201.396 208.571 201.036 209.027 200.856C209.483 200.664 210.017 200.568 210.629 200.568C211.277 200.568 211.829 200.676 212.285 200.892C212.753 201.096 213.149 201.39 213.473 201.774C213.737 202.086 213.917 202.434 214.013 202.818C214.109 203.202 214.157 203.64 214.157 204.132V210H210.899V205.338C210.899 204.882 210.863 204.516 210.791 204.24C210.731 203.952 210.617 203.724 210.449 203.556C210.305 203.412 210.143 203.31 209.963 203.25C209.783 203.19 209.591 203.16 209.387 203.16C208.835 203.16 208.409 203.328 208.109 203.664C207.821 203.988 207.677 204.456 207.677 205.068V210H204.419V200.766ZM219.396 205.356C219.396 205.656 219.45 205.938 219.558 206.202C219.666 206.454 219.81 206.676 219.99 206.868C220.182 207.06 220.404 207.21 220.656 207.318C220.92 207.426 221.202 207.48 221.502 207.48C221.79 207.48 222.06 207.426 222.312 207.318C222.576 207.21 222.798 207.06 222.978 206.868C223.17 206.676 223.32 206.454 223.428 206.202C223.548 205.95 223.608 205.68 223.608 205.392C223.608 205.104 223.548 204.834 223.428 204.582C223.32 204.318 223.17 204.09 222.978 203.898C222.798 203.706 222.576 203.556 222.312 203.448C222.06 203.34 221.79 203.286 221.502 203.286C221.214 203.286 220.938 203.34 220.674 203.448C220.422 203.556 220.2 203.706 220.008 203.898C219.828 204.09 219.678 204.312 219.558 204.564C219.45 204.804 219.396 205.068 219.396 205.356ZM223.5 195.06H226.776V210H223.5V208.974C222.804 209.85 221.862 210.288 220.674 210.288C220.002 210.288 219.384 210.162 218.82 209.91C218.256 209.658 217.764 209.31 217.344 208.866C216.924 208.422 216.594 207.9 216.354 207.3C216.126 206.7 216.012 206.052 216.012 205.356C216.012 204.696 216.12 204.072 216.336 203.484C216.564 202.884 216.882 202.362 217.29 201.918C217.698 201.474 218.184 201.126 218.748 200.874C219.324 200.61 219.954 200.478 220.638 200.478C221.79 200.478 222.744 200.88 223.5 201.684V195.06ZM232.071 205.338C232.071 205.65 232.125 205.938 232.233 206.202C232.353 206.454 232.503 206.676 232.683 206.868C232.875 207.06 233.097 207.21 233.349 207.318C233.613 207.426 233.889 207.48 234.177 207.48C234.465 207.48 234.735 207.426 234.987 207.318C235.251 207.21 235.473 207.06 235.653 206.868C235.845 206.676 235.995 206.454 236.103 206.202C236.223 205.938 236.283 205.656 236.283 205.356C236.283 205.068 236.223 204.798 236.103 204.546C235.995 204.282 235.845 204.054 235.653 203.862C235.473 203.67 235.251 203.52 234.987 203.412C234.735 203.304 234.465 203.25 234.177 203.25C233.889 203.25 233.613 203.304 233.349 203.412C233.097 203.52 232.875 203.67 232.683 203.862C232.503 204.054 232.353 204.276 232.233 204.528C232.125 204.78 232.071 205.05 232.071 205.338ZM228.633 205.302C228.633 204.618 228.771 203.982 229.047 203.394C229.323 202.794 229.707 202.278 230.199 201.846C230.691 201.402 231.273 201.054 231.945 200.802C232.629 200.55 233.373 200.424 234.177 200.424C234.969 200.424 235.701 200.55 236.373 200.802C237.057 201.042 237.645 201.384 238.137 201.828C238.641 202.26 239.031 202.782 239.307 203.394C239.583 203.994 239.721 204.66 239.721 205.392C239.721 206.124 239.577 206.796 239.289 207.408C239.013 208.008 238.629 208.53 238.137 208.974C237.645 209.406 237.051 209.742 236.355 209.982C235.671 210.222 234.927 210.342 234.123 210.342C233.331 210.342 232.599 210.222 231.927 209.982C231.255 209.742 230.673 209.4 230.181 208.956C229.701 208.512 229.323 207.984 229.047 207.372C228.771 206.748 228.633 206.058 228.633 205.302ZM247.716 203.142C247.116 202.83 246.528 202.674 245.952 202.674C245.652 202.674 245.406 202.734 245.214 202.854C245.034 202.974 244.944 203.136 244.944 203.34C244.944 203.448 244.956 203.538 244.98 203.61C245.016 203.67 245.082 203.73 245.178 203.79C245.286 203.85 245.436 203.904 245.628 203.952C245.832 204 246.096 204.06 246.42 204.132C247.32 204.312 247.992 204.636 248.436 205.104C248.88 205.56 249.102 206.148 249.102 206.868C249.102 207.408 248.994 207.894 248.778 208.326C248.562 208.758 248.262 209.124 247.878 209.424C247.494 209.712 247.032 209.934 246.492 210.09C245.952 210.258 245.358 210.342 244.71 210.342C243.462 210.342 242.232 209.988 241.02 209.28L242.208 206.976C243.12 207.6 243.984 207.912 244.8 207.912C245.1 207.912 245.346 207.846 245.538 207.714C245.73 207.582 245.826 207.414 245.826 207.21C245.826 207.09 245.808 206.994 245.772 206.922C245.748 206.838 245.688 206.766 245.592 206.706C245.496 206.634 245.352 206.574 245.16 206.526C244.98 206.466 244.74 206.406 244.44 206.346C243.432 206.142 242.724 205.842 242.316 205.446C241.92 205.038 241.722 204.48 241.722 203.772C241.722 203.256 241.818 202.794 242.01 202.386C242.202 201.966 242.478 201.612 242.838 201.324C243.198 201.036 243.63 200.814 244.134 200.658C244.65 200.502 245.22 200.424 245.844 200.424C246.864 200.424 247.854 200.622 248.814 201.018L247.716 203.142ZM263.406 202.152C262.65 201.612 261.714 201.306 260.796 201.306C258.312 201.306 256.278 203.25 256.278 205.77C256.278 208.326 258.222 210.234 260.778 210.234C261.786 210.234 262.632 209.928 263.46 209.37V207.444H263.424C262.722 208.362 261.876 208.902 260.67 208.902C258.906 208.902 257.754 207.444 257.754 205.77C257.754 204.078 258.996 202.638 260.742 202.638C261.876 202.638 262.704 203.214 263.37 204.06H263.406V202.152ZM267.016 201.54H265.576V206.418C265.576 208.668 266.422 210.234 268.924 210.234C271.426 210.234 272.272 208.668 272.272 206.418V201.54H270.832V206.256C270.832 207.678 270.67 208.902 268.924 208.902C267.178 208.902 267.016 207.678 267.016 206.256V201.54ZM278.405 202.638C280.187 202.638 281.249 204.006 281.249 205.698C281.249 207.408 280.277 208.902 278.423 208.902C276.623 208.902 275.651 207.336 275.651 205.68C275.651 204.096 276.731 202.638 278.405 202.638ZM282.617 201.54H281.177V202.746H281.141C280.439 201.846 279.395 201.306 278.243 201.306C275.705 201.306 274.175 203.376 274.175 205.788C274.175 208.128 275.741 210.234 278.225 210.234C279.413 210.234 280.403 209.766 281.141 208.83H281.177V210H282.617V201.54ZM286.724 201.54H285.284V210H286.724V205.986C286.724 204.474 286.85 202.638 288.83 202.638C290.504 202.638 290.612 203.862 290.612 205.23V210H292.052V204.978C292.052 202.998 291.512 201.306 289.172 201.306C288.128 201.306 287.354 201.756 286.76 202.566H286.724V201.54ZM298.304 202.638C300.086 202.638 301.148 204.006 301.148 205.698C301.148 207.408 300.176 208.902 298.322 208.902C296.522 208.902 295.55 207.336 295.55 205.68C295.55 204.096 296.63 202.638 298.304 202.638ZM301.076 210H302.516V195.15H301.076V202.746H301.04C300.356 201.846 299.276 201.306 298.142 201.306C295.604 201.306 294.074 203.376 294.074 205.788C294.074 208.128 295.64 210.234 298.124 210.234C299.276 210.234 300.338 209.748 301.04 208.83H301.076V210ZM308.872 210.234C311.338 210.234 313.318 208.272 313.318 205.788C313.318 203.304 311.356 201.306 308.872 201.306C306.388 201.306 304.426 203.304 304.426 205.788C304.426 208.272 306.406 210.234 308.872 210.234ZM308.872 202.638C310.654 202.638 311.878 204.06 311.878 205.77C311.878 207.498 310.654 208.902 308.872 208.902C307.09 208.902 305.866 207.498 305.866 205.77C305.866 204.06 307.09 202.638 308.872 202.638ZM324.337 202.638C326.119 202.638 327.181 204.006 327.181 205.698C327.181 207.408 326.209 208.902 324.355 208.902C322.555 208.902 321.583 207.336 321.583 205.68C321.583 204.096 322.663 202.638 324.337 202.638ZM328.549 201.54H327.109V202.746H327.073C326.371 201.81 325.309 201.306 324.157 201.306C321.655 201.306 320.107 203.448 320.107 205.806C320.107 208.2 321.637 210.234 324.175 210.234C325.309 210.234 326.389 209.73 327.073 208.812H327.109V214.752H328.549V201.54ZM332.548 201.54H331.108V206.418C331.108 208.668 331.954 210.234 334.456 210.234C336.958 210.234 337.804 208.668 337.804 206.418V201.54H336.364V206.256C336.364 207.678 336.202 208.902 334.456 208.902C332.71 208.902 332.548 207.678 332.548 206.256V201.54ZM342.137 201.54H340.697V210H342.137V201.54ZM341.417 197.328C340.859 197.328 340.391 197.796 340.391 198.354C340.391 198.93 340.859 199.38 341.417 199.38C341.975 199.38 342.443 198.93 342.443 198.354C342.443 197.796 341.975 197.328 341.417 197.328ZM352.5 206.076C352.644 203.556 351.204 201.306 348.486 201.306C345.84 201.306 344.382 203.376 344.382 205.878C344.382 208.308 346.002 210.234 348.522 210.234C350.25 210.234 351.618 209.37 352.428 207.858L351.204 207.156C350.646 208.164 349.854 208.902 348.63 208.902C346.992 208.902 345.876 207.642 345.858 206.076H352.5ZM345.93 204.852C346.11 203.628 347.262 202.638 348.504 202.638C349.764 202.638 350.79 203.628 350.988 204.852H345.93ZM355.84 201.54H354.4V210H355.84V205.77C355.84 204.672 355.912 202.638 357.496 202.638C357.874 202.638 358.072 202.818 358.36 203.016L359.044 201.702C358.63 201.468 358.234 201.306 357.748 201.306C356.812 201.306 356.38 201.792 355.876 202.458H355.84V201.54ZM364.011 202.638C365.793 202.638 366.855 204.006 366.855 205.698C366.855 207.408 365.883 208.902 364.029 208.902C362.229 208.902 361.257 207.336 361.257 205.68C361.257 204.096 362.337 202.638 364.011 202.638ZM368.223 201.54H366.783V202.746H366.747C366.045 201.846 365.001 201.306 363.849 201.306C361.311 201.306 359.781 203.376 359.781 205.788C359.781 208.128 361.347 210.234 363.831 210.234C365.019 210.234 366.009 209.766 366.747 208.83H366.783V210H368.223V201.54ZM375.515 202.872C375.137 201.99 374.237 201.306 373.265 201.306C371.897 201.306 370.745 202.278 370.745 203.7C370.745 206.364 374.561 205.716 374.561 207.606C374.561 208.38 373.967 208.902 373.193 208.902C372.239 208.902 371.825 208.344 371.465 207.552L370.187 208.092C370.637 209.424 371.753 210.234 373.175 210.234C374.741 210.234 376.037 209.082 376.037 207.48C376.037 206.058 375.065 205.464 374.075 205.05C373.085 204.636 372.113 204.348 372.113 203.574C372.113 203.034 372.653 202.638 373.157 202.638C373.679 202.638 374.111 203.052 374.309 203.502L375.515 202.872Z" fill="white"/>
<path d="M31.8438 41V6.6875H52.0469V12.875H39.1797V19.9297H52.0469V26.1641H39.1797V34.7656H52.0469V41H31.8438ZM59.2656 41V6.6875H66.6016V34.7656H78.3203V41H59.2656ZM105.039 34.8125H109.117C112.961 34.8125 115.758 33.9375 117.508 32.1875C119.273 30.4375 120.156 27.6641 120.156 23.8672C120.156 20.0859 119.273 17.3203 117.508 15.5703C115.758 13.8047 112.961 12.9219 109.117 12.9219H105.039V34.8125ZM97.7031 41V6.6875H107.055C110.742 6.6875 113.648 6.94531 115.773 7.46094C117.898 7.97656 119.766 8.83594 121.375 10.0391C123.453 11.5859 125.023 13.5391 126.086 15.8984C127.164 18.2422 127.703 20.9141 127.703 23.9141C127.703 26.9609 127.156 29.6641 126.062 32.0234C124.969 34.3672 123.367 36.3047 121.258 37.8359C119.695 38.9609 117.953 39.7734 116.031 40.2734C114.125 40.7578 111.328 41 107.641 41H105.039H97.7031ZM133.984 41V6.6875H141.32V41H133.984ZM149.172 41V6.6875H156.789L171.977 26.6562C172.414 27.2188 172.891 28.0156 173.406 29.0469C173.938 30.0625 174.484 31.2656 175.047 32.6562C174.875 31.6406 174.75 30.6328 174.672 29.6328C174.594 28.6328 174.555 27.3828 174.555 25.8828V6.6875H181.562V41H174.367L158.758 20.6562C158.32 20.0938 157.844 19.3047 157.328 18.2891C156.812 17.2578 156.266 16.0312 155.688 14.6094C155.859 15.5938 155.984 16.5938 156.062 17.6094C156.141 18.6094 156.18 19.875 156.18 21.4062V41H149.172ZM189.203 41V6.6875H209.406V12.875H196.539V19.9297H209.406V26.1641H196.539V34.7656H209.406V41H189.203ZM241.445 41H232.984L223.961 24.9688V41H216.625V6.6875H227.125C231.297 6.6875 234.422 7.5 236.5 9.125C238.578 10.7344 239.617 13.1641 239.617 16.4141C239.617 18.7734 238.906 20.7891 237.484 22.4609C236.062 24.1328 234.227 25.1094 231.977 25.3906L241.445 41ZM223.961 21.3125H225.062C228.031 21.3125 229.992 20.9922 230.945 20.3516C231.898 19.6953 232.375 18.5625 232.375 16.9531C232.375 15.2656 231.859 14.0703 230.828 13.3672C229.812 12.6484 227.891 12.2891 225.062 12.2891H223.961V21.3125ZM280.867 23.9141C280.867 26.3672 280.406 28.6875 279.484 30.875C278.578 33.0625 277.266 34.9844 275.547 36.6406C273.766 38.3438 271.758 39.6484 269.523 40.5547C267.289 41.4609 264.977 41.9141 262.586 41.9141C260.492 41.9141 258.438 41.5625 256.422 40.8594C254.422 40.1406 252.586 39.1172 250.914 37.7891C248.758 36.0703 247.102 34.0156 245.945 31.625C244.805 29.2344 244.234 26.6641 244.234 23.9141C244.234 21.4453 244.688 19.1328 245.594 16.9766C246.5 14.8047 247.828 12.875 249.578 11.1875C251.297 9.51563 253.289 8.21875 255.555 7.29688C257.836 6.375 260.18 5.91406 262.586 5.91406C264.977 5.91406 267.297 6.375 269.547 7.29688C271.812 8.21875 273.812 9.51563 275.547 11.1875C277.281 12.875 278.602 14.8047 279.508 16.9766C280.414 19.1484 280.867 21.4609 280.867 23.9141ZM262.586 35.375C265.695 35.375 268.258 34.2891 270.273 32.1172C272.305 29.9297 273.32 27.1953 273.32 23.9141C273.32 20.6641 272.297 17.9297 270.25 15.7109C268.203 13.4922 265.648 12.3828 262.586 12.3828C259.477 12.3828 256.898 13.4922 254.852 15.7109C252.805 17.9141 251.781 20.6484 251.781 23.9141C251.781 27.2266 252.789 29.9688 254.805 32.1406C256.82 34.2969 259.414 35.375 262.586 35.375ZM309.18 34.8125H313.258C317.102 34.8125 319.898 33.9375 321.648 32.1875C323.414 30.4375 324.297 27.6641 324.297 23.8672C324.297 20.0859 323.414 17.3203 321.648 15.5703C319.898 13.8047 317.102 12.9219 313.258 12.9219H309.18V34.8125ZM301.844 41V6.6875H311.195C314.883 6.6875 317.789 6.94531 319.914 7.46094C322.039 7.97656 323.906 8.83594 325.516 10.0391C327.594 11.5859 329.164 13.5391 330.227 15.8984C331.305 18.2422 331.844 20.9141 331.844 23.9141C331.844 26.9609 331.297 29.6641 330.203 32.0234C329.109 34.3672 327.508 36.3047 325.398 37.8359C323.836 38.9609 322.094 39.7734 320.172 40.2734C318.266 40.7578 315.469 41 311.781 41H309.18H301.844ZM337.984 41V6.6875H358.188V12.875H345.32V19.9297H358.188V26.1641H345.32V34.7656H358.188V41H337.984ZM392.992 12.9219V41H385.633V12.9219H377.242V6.6875H401.43V12.9219H392.992ZM435.695 6.6875V28.0391C435.695 32.6953 434.469 36.1719 432.016 38.4688C429.562 40.7656 425.867 41.9141 420.93 41.9141C415.914 41.9141 412.18 40.7656 409.727 38.4688C407.273 36.1719 406.047 32.6953 406.047 28.0391V6.6875H413.336V26.8906C413.336 29.7188 413.961 31.8516 415.211 33.2891C416.461 34.7109 418.328 35.4219 420.812 35.4219C423.312 35.4219 425.203 34.7031 426.484 33.2656C427.766 31.8281 428.406 29.7031 428.406 26.8906V6.6875H435.695ZM441.109 36.6406L445.188 32.0234C445.703 33.2891 446.531 34.2891 447.672 35.0234C448.812 35.7422 450.094 36.1016 451.516 36.1016C453.234 36.1016 454.594 35.6953 455.594 34.8828C456.594 34.0703 457.094 32.9766 457.094 31.6016C457.094 29.9766 455.43 28.3594 452.102 26.75C451.023 26.2344 450.172 25.8125 449.547 25.4844C446.547 23.9219 444.469 22.3984 443.312 20.9141C442.156 19.4141 441.578 17.6328 441.578 15.5703C441.578 12.7422 442.695 10.4219 444.93 8.60938C447.18 6.78125 450.094 5.86719 453.672 5.86719C455.75 5.86719 457.539 6.23438 459.039 6.96875C460.555 7.6875 461.891 8.82031 463.047 10.3672L458.711 14.5156C458.195 13.5156 457.508 12.7734 456.648 12.2891C455.805 11.7891 454.781 11.5391 453.578 11.5391C452.125 11.5391 450.953 11.9063 450.062 12.6406C449.172 13.3594 448.727 14.2969 448.727 15.4531C448.727 17.2656 450.492 18.9219 454.023 20.4219C454.727 20.7188 455.266 20.9531 455.641 21.125C458.547 22.4531 460.695 23.9531 462.086 25.625C463.492 27.2969 464.195 29.2031 464.195 31.3438C464.195 34.5625 463.094 37.1328 460.891 39.0547C458.703 40.9609 455.758 41.9141 452.055 41.9141C449.43 41.9141 447.18 41.4609 445.305 40.5547C443.43 39.6484 442.031 38.3438 441.109 36.6406ZM44.6641 60.9219V89H37.3047V60.9219H28.9141V54.6875H53.1016V60.9219H44.6641ZM82.6797 89H74.2188L65.1953 72.9688V89H57.8594V54.6875H68.3594C72.5312 54.6875 75.6562 55.5 77.7344 57.125C79.8125 58.7344 80.8516 61.1641 80.8516 64.4141C80.8516 66.7734 80.1406 68.7891 78.7188 70.4609C77.2969 72.1328 75.4609 73.1094 73.2109 73.3906L82.6797 89ZM65.1953 69.3125H66.2969C69.2656 69.3125 71.2266 68.9922 72.1797 68.3516C73.1328 67.6953 73.6094 66.5625 73.6094 64.9531C73.6094 63.2656 73.0938 62.0703 72.0625 61.3672C71.0469 60.6484 69.125 60.2891 66.2969 60.2891H65.1953V69.3125ZM104.734 75.9453L100.891 64.8594C100.781 64.5312 100.641 63.9688 100.469 63.1719C100.297 62.375 100.117 61.3984 99.9297 60.2422C99.7266 61.3516 99.5312 62.3516 99.3438 63.2422C99.1562 64.1172 99.0156 64.7031 98.9219 65L95.2188 75.9453H104.734ZM82.8906 89L95.9453 54.6875H104.336L117.578 89H109.234L106.445 81.7109H93.1562L90.7656 89H82.8906ZM128.523 83.2812H131.406C133.25 83.2812 134.648 82.8828 135.602 82.0859C136.555 81.2734 137.031 80.0938 137.031 78.5469C137.031 77.0938 136.555 75.9844 135.602 75.2188C134.664 74.4531 133.297 74.0703 131.5 74.0703H128.523V83.2812ZM128.523 68.3984H130.164C132.383 68.3984 133.953 68.0859 134.875 67.4609C135.797 66.8359 136.258 65.7891 136.258 64.3203C136.258 62.8828 135.812 61.8594 134.922 61.25C134.047 60.6406 132.508 60.3359 130.305 60.3359H128.523V68.3984ZM121.188 89V54.6875H127.609C130.938 54.6875 133.367 54.8203 134.898 55.0859C136.445 55.3359 137.781 55.7578 138.906 56.3516C140.234 57.1172 141.258 58.125 141.977 59.375C142.711 60.625 143.078 62.0391 143.078 63.6172C143.078 65.6484 142.477 67.2812 141.273 68.5156C140.07 69.7344 138.273 70.5469 135.883 70.9531C138.648 71.3594 140.734 72.2578 142.141 73.6484C143.562 75.0391 144.273 76.8906 144.273 79.2031C144.273 80.8906 143.867 82.4375 143.055 83.8438C142.242 85.2344 141.125 86.3125 139.703 87.0781C138.438 87.7656 136.953 88.2578 135.25 88.5547C133.547 88.8516 130.727 89 126.789 89H126.039H121.188ZM167.641 75.9453L163.797 64.8594C163.688 64.5312 163.547 63.9688 163.375 63.1719C163.203 62.375 163.023 61.3984 162.836 60.2422C162.633 61.3516 162.438 62.3516 162.25 63.2422C162.062 64.1172 161.922 64.7031 161.828 65L158.125 75.9453H167.641ZM145.797 89L158.852 54.6875H167.242L180.484 89H172.141L169.352 81.7109H156.062L153.672 89H145.797ZM198.016 54.6875V77.2812C198.016 79.8594 197.914 81.75 197.711 82.9531C197.508 84.1562 197.172 85.1797 196.703 86.0234C196.016 87.3047 195 88.2734 193.656 88.9297C192.328 89.5859 190.711 89.9141 188.805 89.9141C186.398 89.9141 184.469 89.3125 183.016 88.1094C181.578 86.9062 180.656 85.1406 180.25 82.8125L185.57 80.2812C185.695 81.3594 185.969 82.1719 186.391 82.7188C186.828 83.2656 187.422 83.5391 188.172 83.5391C189.109 83.5391 189.758 83.2031 190.117 82.5312C190.477 81.8438 190.656 80.3203 190.656 77.9609V74.8906V54.6875H198.016ZM223.188 75.9453L219.344 64.8594C219.234 64.5312 219.094 63.9688 218.922 63.1719C218.75 62.375 218.57 61.3984 218.383 60.2422C218.18 61.3516 217.984 62.3516 217.797 63.2422C217.609 64.1172 217.469 64.7031 217.375 65L213.672 75.9453H223.188ZM201.344 89L214.398 54.6875H222.789L236.031 89H227.688L224.898 81.7109H211.609L209.219 89H201.344ZM246.977 82.8125H251.055C254.898 82.8125 257.695 81.9375 259.445 80.1875C261.211 78.4375 262.094 75.6641 262.094 71.8672C262.094 68.0859 261.211 65.3203 259.445 63.5703C257.695 61.8047 254.898 60.9219 251.055 60.9219H246.977V82.8125ZM239.641 89V54.6875H248.992C252.68 54.6875 255.586 54.9453 257.711 55.4609C259.836 55.9766 261.703 56.8359 263.312 58.0391C265.391 59.5859 266.961 61.5391 268.023 63.8984C269.102 66.2422 269.641 68.9141 269.641 71.9141C269.641 74.9609 269.094 77.6641 268 80.0234C266.906 82.3672 265.305 84.3047 263.195 85.8359C261.633 86.9609 259.891 87.7734 257.969 88.2734C256.062 88.7578 253.266 89 249.578 89H246.977H239.641ZM310.914 71.9141C310.914 74.3672 310.453 76.6875 309.531 78.875C308.625 81.0625 307.312 82.9844 305.594 84.6406C303.812 86.3438 301.805 87.6484 299.57 88.5547C297.336 89.4609 295.023 89.9141 292.633 89.9141C290.539 89.9141 288.484 89.5625 286.469 88.8594C284.469 88.1406 282.633 87.1172 280.961 85.7891C278.805 84.0703 277.148 82.0156 275.992 79.625C274.852 77.2344 274.281 74.6641 274.281 71.9141C274.281 69.4453 274.734 67.1328 275.641 64.9766C276.547 62.8047 277.875 60.875 279.625 59.1875C281.344 57.5156 283.336 56.2188 285.602 55.2969C287.883 54.375 290.227 53.9141 292.633 53.9141C295.023 53.9141 297.344 54.375 299.594 55.2969C301.859 56.2188 303.859 57.5156 305.594 59.1875C307.328 60.875 308.648 62.8047 309.555 64.9766C310.461 67.1484 310.914 69.4609 310.914 71.9141ZM292.633 83.375C295.742 83.375 298.305 82.2891 300.32 80.1172C302.352 77.9297 303.367 75.1953 303.367 71.9141C303.367 68.6641 302.344 65.9297 300.297 63.7109C298.25 61.4922 295.695 60.3828 292.633 60.3828C289.523 60.3828 286.945 61.4922 284.898 63.7109C282.852 65.9141 281.828 68.6484 281.828 71.9141C281.828 75.2266 282.836 77.9688 284.852 80.1406C286.867 82.2969 289.461 83.375 292.633 83.375ZM341.945 89H333.484L324.461 72.9688V89H317.125V54.6875H327.625C331.797 54.6875 334.922 55.5 337 57.125C339.078 58.7344 340.117 61.1641 340.117 64.4141C340.117 66.7734 339.406 68.7891 337.984 70.4609C336.562 72.1328 334.727 73.1094 332.477 73.3906L341.945 89ZM324.461 69.3125H325.562C328.531 69.3125 330.492 68.9922 331.445 68.3516C332.398 67.6953 332.875 66.5625 332.875 64.9531C332.875 63.2656 332.359 62.0703 331.328 61.3672C330.312 60.6484 328.391 60.2891 325.562 60.2891H324.461V69.3125ZM346.234 89V54.6875H366.438V60.875H353.57V67.9297H366.438V74.1641H353.57V82.7656H366.438V89H346.234ZM371.453 84.6406L375.531 80.0234C376.047 81.2891 376.875 82.2891 378.016 83.0234C379.156 83.7422 380.438 84.1016 381.859 84.1016C383.578 84.1016 384.938 83.6953 385.938 82.8828C386.938 82.0703 387.438 80.9766 387.438 79.6016C387.438 77.9766 385.773 76.3594 382.445 74.75C381.367 74.2344 380.516 73.8125 379.891 73.4844C376.891 71.9219 374.812 70.3984 373.656 68.9141C372.5 67.4141 371.922 65.6328 371.922 63.5703C371.922 60.7422 373.039 58.4219 375.273 56.6094C377.523 54.7812 380.438 53.8672 384.016 53.8672C386.094 53.8672 387.883 54.2344 389.383 54.9688C390.898 55.6875 392.234 56.8203 393.391 58.3672L389.055 62.5156C388.539 61.5156 387.852 60.7734 386.992 60.2891C386.148 59.7891 385.125 59.5391 383.922 59.5391C382.469 59.5391 381.297 59.9062 380.406 60.6406C379.516 61.3594 379.07 62.2969 379.07 63.4531C379.07 65.2656 380.836 66.9219 384.367 68.4219C385.07 68.7188 385.609 68.9531 385.984 69.125C388.891 70.4531 391.039 71.9531 392.43 73.625C393.836 75.2969 394.539 77.2031 394.539 79.3438C394.539 82.5625 393.438 85.1328 391.234 87.0547C389.047 88.9609 386.102 89.9141 382.398 89.9141C379.773 89.9141 377.523 89.4609 375.648 88.5547C373.773 87.6484 372.375 86.3438 371.453 84.6406ZM415.328 89V54.6875H435.531V60.875H422.664V67.9297H435.531V74.1641H422.664V82.7656H435.531V89H415.328ZM442.75 89V54.6875H450.367L465.555 74.6562C465.992 75.2188 466.469 76.0156 466.984 77.0469C467.516 78.0625 468.062 79.2656 468.625 80.6562C468.453 79.6406 468.328 78.6328 468.25 77.6328C468.172 76.6328 468.133 75.3828 468.133 73.8828V54.6875H475.141V89H467.945L452.336 68.6562C451.898 68.0938 451.422 67.3047 450.906 66.2891C450.391 65.2578 449.844 64.0312 449.266 62.6094C449.438 63.5938 449.562 64.5938 449.641 65.6094C449.719 66.6094 449.758 67.875 449.758 69.4062V89H442.75ZM39.1797 131.281H42.0625C43.9062 131.281 45.3047 130.883 46.2578 130.086C47.2109 129.273 47.6875 128.094 47.6875 126.547C47.6875 125.094 47.2109 123.984 46.2578 123.219C45.3203 122.453 43.9531 122.07 42.1562 122.07H39.1797V131.281ZM39.1797 116.398H40.8203C43.0391 116.398 44.6094 116.086 45.5312 115.461C46.4531 114.836 46.9141 113.789 46.9141 112.32C46.9141 110.883 46.4688 109.859 45.5781 109.25C44.7031 108.641 43.1641 108.336 40.9609 108.336H39.1797V116.398ZM31.8438 137V102.688H38.2656C41.5938 102.688 44.0234 102.82 45.5547 103.086C47.1016 103.336 48.4375 103.758 49.5625 104.352C50.8906 105.117 51.9141 106.125 52.6328 107.375C53.3672 108.625 53.7344 110.039 53.7344 111.617C53.7344 113.648 53.1328 115.281 51.9297 116.516C50.7266 117.734 48.9297 118.547 46.5391 118.953C49.3047 119.359 51.3906 120.258 52.7969 121.648C54.2188 123.039 54.9297 124.891 54.9297 127.203C54.9297 128.891 54.5234 130.438 53.7109 131.844C52.8984 133.234 51.7812 134.312 50.3594 135.078C49.0938 135.766 47.6094 136.258 45.9062 136.555C44.2031 136.852 41.3828 137 37.4453 137H36.6953H31.8438ZM90.0391 102.688V124.039C90.0391 128.695 88.8125 132.172 86.3594 134.469C83.9062 136.766 80.2109 137.914 75.2734 137.914C70.2578 137.914 66.5234 136.766 64.0703 134.469C61.6172 132.172 60.3906 128.695 60.3906 124.039V102.688H67.6797V122.891C67.6797 125.719 68.3047 127.852 69.5547 129.289C70.8047 130.711 72.6719 131.422 75.1562 131.422C77.6562 131.422 79.5469 130.703 80.8281 129.266C82.1094 127.828 82.75 125.703 82.75 122.891V102.688H90.0391ZM97.6562 137V102.688H117.859V108.875H104.992V115.93H117.859V122.164H104.992V130.766H117.859V137H97.6562ZM125.078 137V102.688H132.695L147.883 122.656C148.32 123.219 148.797 124.016 149.312 125.047C149.844 126.062 150.391 127.266 150.953 128.656C150.781 127.641 150.656 126.633 150.578 125.633C150.5 124.633 150.461 123.383 150.461 121.883V102.688H157.469V137H150.273L134.664 116.656C134.227 116.094 133.75 115.305 133.234 114.289C132.719 113.258 132.172 112.031 131.594 110.609C131.766 111.594 131.891 112.594 131.969 113.609C132.047 114.609 132.086 115.875 132.086 117.406V137H125.078ZM182.875 123.945L179.031 112.859C178.922 112.531 178.781 111.969 178.609 111.172C178.438 110.375 178.258 109.398 178.07 108.242C177.867 109.352 177.672 110.352 177.484 111.242C177.297 112.117 177.156 112.703 177.062 113L173.359 123.945H182.875ZM161.031 137L174.086 102.688H182.477L195.719 137H187.375L184.586 129.711H171.297L168.906 137H161.031ZM197.125 132.641L201.203 128.023C201.719 129.289 202.547 130.289 203.688 131.023C204.828 131.742 206.109 132.102 207.531 132.102C209.25 132.102 210.609 131.695 211.609 130.883C212.609 130.07 213.109 128.977 213.109 127.602C213.109 125.977 211.445 124.359 208.117 122.75C207.039 122.234 206.188 121.812 205.562 121.484C202.562 119.922 200.484 118.398 199.328 116.914C198.172 115.414 197.594 113.633 197.594 111.57C197.594 108.742 198.711 106.422 200.945 104.609C203.195 102.781 206.109 101.867 209.688 101.867C211.766 101.867 213.555 102.234 215.055 102.969C216.57 103.688 217.906 104.82 219.062 106.367L214.727 110.516C214.211 109.516 213.523 108.773 212.664 108.289C211.82 107.789 210.797 107.539 209.594 107.539C208.141 107.539 206.969 107.906 206.078 108.641C205.188 109.359 204.742 110.297 204.742 111.453C204.742 113.266 206.508 114.922 210.039 116.422C210.742 116.719 211.281 116.953 211.656 117.125C214.562 118.453 216.711 119.953 218.102 121.625C219.508 123.297 220.211 125.203 220.211 127.344C220.211 130.562 219.109 133.133 216.906 135.055C214.719 136.961 211.773 137.914 208.07 137.914C205.445 137.914 203.195 137.461 201.32 136.555C199.445 135.648 198.047 134.344 197.125 132.641ZM238.023 137L243.25 102.688H250.938L257.547 122.891C257.688 123.312 257.836 123.93 257.992 124.742C258.164 125.555 258.32 126.484 258.461 127.531C258.586 126.469 258.727 125.523 258.883 124.695C259.039 123.852 259.188 123.234 259.328 122.844L266.055 102.688H273.625L278.875 137H271.914L269.406 116.305C269.219 114.773 269.094 113.617 269.031 112.836C268.969 112.055 268.938 111.328 268.938 110.656C268.938 110.297 268.938 110.031 268.938 109.859C268.953 109.672 268.969 109.508 268.984 109.367C268.75 110.711 268.523 111.875 268.305 112.859C268.102 113.828 267.914 114.562 267.742 115.062L260.477 137H256.352L249.203 115.062C249.141 114.859 249 114.297 248.781 113.375C248.578 112.453 248.289 111.109 247.914 109.344V110.352C247.914 111.945 247.773 113.898 247.492 116.211L247.469 116.305L244.984 137H238.023ZM301.422 123.945L297.578 112.859C297.469 112.531 297.328 111.969 297.156 111.172C296.984 110.375 296.805 109.398 296.617 108.242C296.414 109.352 296.219 110.352 296.031 111.242C295.844 112.117 295.703 112.703 295.609 113L291.906 123.945H301.422ZM279.578 137L292.633 102.688H301.023L314.266 137H305.922L303.133 129.711H289.844L287.453 137H279.578ZM317.875 137V102.688H325.492L340.68 122.656C341.117 123.219 341.594 124.016 342.109 125.047C342.641 126.062 343.188 127.266 343.75 128.656C343.578 127.641 343.453 126.633 343.375 125.633C343.297 124.633 343.258 123.383 343.258 121.883V102.688H350.266V137H343.07L327.461 116.656C327.023 116.094 326.547 115.305 326.031 114.289C325.516 113.258 324.969 112.031 324.391 110.609C324.562 111.594 324.688 112.594 324.766 113.609C324.844 114.609 324.883 115.875 324.883 117.406V137H317.875ZM393.039 119.914C393.039 122.367 392.578 124.688 391.656 126.875C390.75 129.062 389.438 130.984 387.719 132.641C385.938 134.344 383.93 135.648 381.695 136.555C379.461 137.461 377.148 137.914 374.758 137.914C372.664 137.914 370.609 137.562 368.594 136.859C366.594 136.141 364.758 135.117 363.086 133.789C360.93 132.07 359.273 130.016 358.117 127.625C356.977 125.234 356.406 122.664 356.406 119.914C356.406 117.445 356.859 115.133 357.766 112.977C358.672 110.805 360 108.875 361.75 107.188C363.469 105.516 365.461 104.219 367.727 103.297C370.008 102.375 372.352 101.914 374.758 101.914C377.148 101.914 379.469 102.375 381.719 103.297C383.984 104.219 385.984 105.516 387.719 107.188C389.453 108.875 390.773 110.805 391.68 112.977C392.586 115.148 393.039 117.461 393.039 119.914ZM374.758 131.375C377.867 131.375 380.43 130.289 382.445 128.117C384.477 125.93 385.492 123.195 385.492 119.914C385.492 116.664 384.469 113.93 382.422 111.711C380.375 109.492 377.82 108.383 374.758 108.383C371.648 108.383 369.07 109.492 367.023 111.711C364.977 113.914 363.953 116.648 363.953 119.914C363.953 123.227 364.961 125.969 366.977 128.141C368.992 130.297 371.586 131.375 374.758 131.375ZM397.047 132.641L401.125 128.023C401.641 129.289 402.469 130.289 403.609 131.023C404.75 131.742 406.031 132.102 407.453 132.102C409.172 132.102 410.531 131.695 411.531 130.883C412.531 130.07 413.031 128.977 413.031 127.602C413.031 125.977 411.367 124.359 408.039 122.75C406.961 122.234 406.109 121.812 405.484 121.484C402.484 119.922 400.406 118.398 399.25 116.914C398.094 115.414 397.516 113.633 397.516 111.57C397.516 108.742 398.633 106.422 400.867 104.609C403.117 102.781 406.031 101.867 409.609 101.867C411.688 101.867 413.477 102.234 414.977 102.969C416.492 103.688 417.828 104.82 418.984 106.367L414.648 110.516C414.133 109.516 413.445 108.773 412.586 108.289C411.742 107.789 410.719 107.539 409.516 107.539C408.062 107.539 406.891 107.906 406 108.641C405.109 109.359 404.664 110.297 404.664 111.453C404.664 113.266 406.43 114.922 409.961 116.422C410.664 116.719 411.203 116.953 411.578 117.125C414.484 118.453 416.633 119.953 418.023 121.625C419.43 123.297 420.133 125.203 420.133 127.344C420.133 130.562 419.031 133.133 416.828 135.055C414.641 136.961 411.695 137.914 407.992 137.914C405.367 137.914 403.117 137.461 401.242 136.555C399.367 135.648 397.969 134.344 397.047 132.641Z" fill="white"/>
</svg>
