<svg width="550" height="230" viewBox="0 0 550 230" fill="none" xmlns="http://www.w3.org/2000/svg">
<path d="M26.744 183H14.686C10.2678 183 6.68604 179.418 6.68604 175V14" stroke="white" stroke-width="1.5"/>
<path d="M12.622 7.0784C12.622 10.6144 9.92461 13.4068 6.68598 13.4068C3.44736 13.4068 0.75 10.6144 0.75 7.0784C0.75 3.54244 3.44736 0.75 6.68598 0.75C9.92461 0.75 12.622 3.54244 12.622 7.0784Z" stroke="white" stroke-width="1.5"/>
<rect x="25" y="161" width="271" height="69" rx="16" fill="#002A61"/>
<path d="M51.198 184.148L52.8 188H54.474L48.372 173.78L42.108 188H43.764L45.402 184.148H51.198ZM50.604 182.744H46.014L48.336 177.308L50.604 182.744ZM60.0039 180.638C61.7859 180.638 62.8479 182.006 62.8479 183.698C62.8479 185.408 61.8759 186.902 60.0219 186.902C58.2219 186.902 57.2499 185.336 57.2499 183.68C57.2499 182.096 58.3299 180.638 60.0039 180.638ZM57.3219 179.54H55.8819V192.752H57.3219V186.812H57.3579C58.0419 187.73 59.1039 188.234 60.2559 188.234C62.7939 188.234 64.3239 186.2 64.3239 183.788C64.3239 181.448 62.7579 179.306 60.2739 179.306C59.1039 179.306 58.0599 179.81 57.3579 180.746H57.3219V179.54ZM70.0326 188.234C72.4986 188.234 74.4786 186.272 74.4786 183.788C74.4786 181.304 72.5166 179.306 70.0326 179.306C67.5486 179.306 65.5866 181.304 65.5866 183.788C65.5866 186.272 67.5666 188.234 70.0326 188.234ZM70.0326 180.638C71.8146 180.638 73.0386 182.06 73.0386 183.77C73.0386 185.498 71.8146 186.902 70.0326 186.902C68.2506 186.902 67.0266 185.498 67.0266 183.77C67.0266 182.06 68.2506 180.638 70.0326 180.638ZM78.934 187.208L76.198 192.752H77.836L84.082 179.54H82.444L79.708 185.606L76.72 179.54H75.046L78.934 187.208ZM88.9249 180.638C90.7069 180.638 91.7689 182.006 91.7689 183.698C91.7689 185.408 90.7969 186.902 88.9429 186.902C87.1429 186.902 86.1709 185.336 86.1709 183.68C86.1709 182.096 87.2509 180.638 88.9249 180.638ZM93.1369 179.54H91.6969V180.746H91.6609C90.9589 179.846 89.9149 179.306 88.7629 179.306C86.2249 179.306 84.6949 181.376 84.6949 183.788C84.6949 186.128 86.2609 188.234 88.7449 188.234C89.9329 188.234 90.9229 187.766 91.6609 186.83H91.6969V188H93.1369V179.54ZM97.2435 179.54H95.8035V188H97.2435V183.626C97.2435 182.348 97.4235 180.638 99.1155 180.638C100.502 180.638 100.628 182.15 100.628 183.194V188H102.068V183.518C102.068 182.24 102.248 180.638 103.904 180.638C105.38 180.638 105.452 181.988 105.452 183.086V188H106.892V182.852C106.892 181.07 106.352 179.306 104.192 179.306C103.166 179.306 102.158 179.774 101.654 180.71C101.204 179.828 100.304 179.306 99.3135 179.306C98.4495 179.306 97.7295 179.756 97.2795 180.458H97.2435V179.54ZM113.31 188.234C115.776 188.234 117.756 186.272 117.756 183.788C117.756 181.304 115.794 179.306 113.31 179.306C110.826 179.306 108.864 181.304 108.864 183.788C108.864 186.272 110.844 188.234 113.31 188.234ZM113.31 180.638C115.092 180.638 116.316 182.06 116.316 183.77C116.316 185.498 115.092 186.902 113.31 186.902C111.528 186.902 110.304 185.498 110.304 183.77C110.304 182.06 111.528 180.638 113.31 180.638ZM124.353 180.872C123.975 179.99 123.075 179.306 122.103 179.306C120.735 179.306 119.583 180.278 119.583 181.7C119.583 184.364 123.399 183.716 123.399 185.606C123.399 186.38 122.805 186.902 122.031 186.902C121.077 186.902 120.663 186.344 120.303 185.552L119.025 186.092C119.475 187.424 120.591 188.234 122.013 188.234C123.579 188.234 124.875 187.082 124.875 185.48C124.875 184.058 123.903 183.464 122.913 183.05C121.923 182.636 120.951 182.348 120.951 181.574C120.951 181.034 121.491 180.638 121.995 180.638C122.517 180.638 122.949 181.052 123.147 181.502L124.353 180.872ZM133.858 173.15H132.418V188H133.858V173.15ZM140.042 180.638C141.824 180.638 142.886 182.006 142.886 183.698C142.886 185.408 141.914 186.902 140.06 186.902C138.26 186.902 137.288 185.336 137.288 183.68C137.288 182.096 138.368 180.638 140.042 180.638ZM144.254 179.54H142.814V180.746H142.778C142.076 179.846 141.032 179.306 139.88 179.306C137.342 179.306 135.812 181.376 135.812 183.788C135.812 186.128 137.378 188.234 139.862 188.234C141.05 188.234 142.04 187.766 142.778 186.83H142.814V188H144.254V179.54ZM151.547 180.872C151.169 179.99 150.269 179.306 149.297 179.306C147.929 179.306 146.777 180.278 146.777 181.7C146.777 184.364 150.593 183.716 150.593 185.606C150.593 186.38 149.999 186.902 149.225 186.902C148.271 186.902 147.857 186.344 147.497 185.552L146.219 186.092C146.669 187.424 147.785 188.234 149.207 188.234C150.773 188.234 152.069 187.082 152.069 185.48C152.069 184.058 151.097 183.464 150.107 183.05C149.117 182.636 148.145 182.348 148.145 181.574C148.145 181.034 148.685 180.638 149.189 180.638C149.711 180.638 150.143 181.052 150.341 181.502L151.547 180.872ZM159.395 178.766H162.653V179.936C163.097 179.396 163.547 179.036 164.003 178.856C164.459 178.664 164.993 178.568 165.605 178.568C166.253 178.568 166.805 178.676 167.261 178.892C167.729 179.096 168.125 179.39 168.449 179.774C168.713 180.086 168.893 180.434 168.989 180.818C169.085 181.202 169.133 181.64 169.133 182.132V188H165.875V183.338C165.875 182.882 165.839 182.516 165.767 182.24C165.707 181.952 165.593 181.724 165.425 181.556C165.281 181.412 165.119 181.31 164.939 181.25C164.759 181.19 164.567 181.16 164.363 181.16C163.811 181.16 163.385 181.328 163.085 181.664C162.797 181.988 162.653 182.456 162.653 183.068V188H159.395V178.766ZM178.098 182.042C177.99 181.586 177.768 181.22 177.432 180.944C177.096 180.668 176.688 180.53 176.208 180.53C175.704 180.53 175.29 180.662 174.966 180.926C174.654 181.19 174.456 181.562 174.372 182.042H178.098ZM174.282 183.932C174.282 185.336 174.942 186.038 176.262 186.038C176.97 186.038 177.504 185.75 177.864 185.174H181.014C180.378 187.286 178.788 188.342 176.244 188.342C175.464 188.342 174.75 188.228 174.102 188C173.454 187.76 172.896 187.424 172.428 186.992C171.972 186.56 171.618 186.044 171.366 185.444C171.114 184.844 170.988 184.172 170.988 183.428C170.988 182.66 171.108 181.97 171.348 181.358C171.588 180.734 171.93 180.206 172.374 179.774C172.818 179.342 173.352 179.012 173.976 178.784C174.612 178.544 175.326 178.424 176.118 178.424C176.898 178.424 177.6 178.544 178.224 178.784C178.848 179.012 179.376 179.348 179.808 179.792C180.24 180.236 180.57 180.782 180.798 181.43C181.026 182.066 181.14 182.786 181.14 183.59V183.932H174.282ZM189.969 181.754C189.405 181.37 188.835 181.178 188.259 181.178C187.947 181.178 187.653 181.232 187.377 181.34C187.113 181.448 186.879 181.604 186.675 181.808C186.471 182 186.309 182.234 186.189 182.51C186.081 182.774 186.027 183.074 186.027 183.41C186.027 183.734 186.081 184.034 186.189 184.31C186.309 184.574 186.465 184.808 186.657 185.012C186.861 185.204 187.101 185.354 187.377 185.462C187.653 185.57 187.947 185.624 188.259 185.624C188.871 185.624 189.441 185.414 189.969 184.994V187.766C189.165 188.114 188.403 188.288 187.683 188.288C187.011 188.288 186.369 188.174 185.757 187.946C185.157 187.718 184.623 187.394 184.155 186.974C183.699 186.542 183.333 186.032 183.057 185.444C182.781 184.844 182.643 184.178 182.643 183.446C182.643 182.714 182.775 182.048 183.039 181.448C183.303 180.836 183.663 180.314 184.119 179.882C184.575 179.438 185.115 179.096 185.739 178.856C186.375 178.604 187.053 178.478 187.773 178.478C188.565 178.478 189.297 178.646 189.969 178.982V181.754ZM198.577 182.042C198.469 181.586 198.247 181.22 197.911 180.944C197.575 180.668 197.167 180.53 196.687 180.53C196.183 180.53 195.769 180.662 195.445 180.926C195.133 181.19 194.935 181.562 194.851 182.042H198.577ZM194.761 183.932C194.761 185.336 195.421 186.038 196.741 186.038C197.449 186.038 197.983 185.75 198.343 185.174H201.493C200.857 187.286 199.267 188.342 196.723 188.342C195.943 188.342 195.229 188.228 194.581 188C193.933 187.76 193.375 187.424 192.907 186.992C192.451 186.56 192.097 186.044 191.845 185.444C191.593 184.844 191.467 184.172 191.467 183.428C191.467 182.66 191.587 181.97 191.827 181.358C192.067 180.734 192.409 180.206 192.853 179.774C193.297 179.342 193.831 179.012 194.455 178.784C195.091 178.544 195.805 178.424 196.597 178.424C197.377 178.424 198.079 178.544 198.703 178.784C199.327 179.012 199.855 179.348 200.287 179.792C200.719 180.236 201.049 180.782 201.277 181.43C201.505 182.066 201.619 182.786 201.619 183.59V183.932H194.761ZM209.601 181.142C209.001 180.83 208.413 180.674 207.837 180.674C207.537 180.674 207.291 180.734 207.099 180.854C206.919 180.974 206.829 181.136 206.829 181.34C206.829 181.448 206.841 181.538 206.865 181.61C206.901 181.67 206.967 181.73 207.063 181.79C207.171 181.85 207.321 181.904 207.513 181.952C207.717 182 207.981 182.06 208.305 182.132C209.205 182.312 209.877 182.636 210.321 183.104C210.765 183.56 210.987 184.148 210.987 184.868C210.987 185.408 210.879 185.894 210.663 186.326C210.447 186.758 210.147 187.124 209.763 187.424C209.379 187.712 208.917 187.934 208.377 188.09C207.837 188.258 207.243 188.342 206.595 188.342C205.347 188.342 204.117 187.988 202.905 187.28L204.093 184.976C205.005 185.6 205.869 185.912 206.685 185.912C206.985 185.912 207.231 185.846 207.423 185.714C207.615 185.582 207.711 185.414 207.711 185.21C207.711 185.09 207.693 184.994 207.657 184.922C207.633 184.838 207.573 184.766 207.477 184.706C207.381 184.634 207.237 184.574 207.045 184.526C206.865 184.466 206.625 184.406 206.325 184.346C205.317 184.142 204.609 183.842 204.201 183.446C203.805 183.038 203.607 182.48 203.607 181.772C203.607 181.256 203.703 180.794 203.895 180.386C204.087 179.966 204.363 179.612 204.723 179.324C205.083 179.036 205.515 178.814 206.019 178.658C206.535 178.502 207.105 178.424 207.729 178.424C208.749 178.424 209.739 178.622 210.699 179.018L209.601 181.142ZM215.897 178.766V188H212.639V178.766H215.897ZM212.423 175.22C212.423 174.968 212.471 174.734 212.567 174.518C212.663 174.29 212.795 174.092 212.963 173.924C213.131 173.756 213.323 173.624 213.539 173.528C213.767 173.432 214.007 173.384 214.259 173.384C214.511 173.384 214.745 173.432 214.961 173.528C215.189 173.624 215.387 173.756 215.555 173.924C215.723 174.092 215.855 174.29 215.951 174.518C216.047 174.734 216.095 174.968 216.095 175.22C216.095 175.472 216.047 175.712 215.951 175.94C215.855 176.156 215.723 176.348 215.555 176.516C215.387 176.684 215.189 176.816 214.961 176.912C214.745 177.008 214.511 177.056 214.259 177.056C214.007 177.056 213.767 177.008 213.539 176.912C213.323 176.816 213.131 176.684 212.963 176.516C212.795 176.348 212.663 176.156 212.567 175.94C212.471 175.712 212.423 175.472 212.423 175.22ZM221.148 183.356C221.148 183.656 221.202 183.938 221.31 184.202C221.418 184.454 221.562 184.676 221.742 184.868C221.934 185.06 222.156 185.21 222.408 185.318C222.672 185.426 222.954 185.48 223.254 185.48C223.542 185.48 223.812 185.426 224.064 185.318C224.328 185.21 224.55 185.06 224.73 184.868C224.922 184.676 225.072 184.454 225.18 184.202C225.3 183.95 225.36 183.68 225.36 183.392C225.36 183.104 225.3 182.834 225.18 182.582C225.072 182.318 224.922 182.09 224.73 181.898C224.55 181.706 224.328 181.556 224.064 181.448C223.812 181.34 223.542 181.286 223.254 181.286C222.966 181.286 222.69 181.34 222.426 181.448C222.174 181.556 221.952 181.706 221.76 181.898C221.58 182.09 221.43 182.312 221.31 182.564C221.202 182.804 221.148 183.068 221.148 183.356ZM225.252 173.06H228.528V188H225.252V186.974C224.556 187.85 223.614 188.288 222.426 188.288C221.754 188.288 221.136 188.162 220.572 187.91C220.008 187.658 219.516 187.31 219.096 186.866C218.676 186.422 218.346 185.9 218.106 185.3C217.878 184.7 217.764 184.052 217.764 183.356C217.764 182.696 217.872 182.072 218.088 181.484C218.316 180.884 218.634 180.362 219.042 179.918C219.45 179.474 219.936 179.126 220.5 178.874C221.076 178.61 221.706 178.478 222.39 178.478C223.542 178.478 224.496 178.88 225.252 179.684V173.06ZM233.769 183.356C233.769 183.656 233.823 183.938 233.931 184.202C234.039 184.454 234.183 184.676 234.363 184.868C234.555 185.06 234.777 185.21 235.029 185.318C235.293 185.426 235.575 185.48 235.875 185.48C236.163 185.48 236.433 185.426 236.685 185.318C236.949 185.21 237.171 185.06 237.351 184.868C237.543 184.676 237.693 184.454 237.801 184.202C237.921 183.95 237.981 183.68 237.981 183.392C237.981 183.104 237.921 182.834 237.801 182.582C237.693 182.318 237.543 182.09 237.351 181.898C237.171 181.706 236.949 181.556 236.685 181.448C236.433 181.34 236.163 181.286 235.875 181.286C235.575 181.286 235.293 181.34 235.029 181.448C234.777 181.556 234.555 181.706 234.363 181.898C234.183 182.09 234.039 182.312 233.931 182.564C233.823 182.804 233.769 183.068 233.769 183.356ZM237.873 178.766H241.149V188H237.873V186.974C237.177 187.85 236.235 188.288 235.047 188.288C234.375 188.288 233.757 188.168 233.193 187.928C232.629 187.676 232.137 187.328 231.717 186.884C231.297 186.44 230.967 185.918 230.727 185.318C230.499 184.718 230.385 184.064 230.385 183.356C230.385 182.696 230.499 182.072 230.727 181.484C230.955 180.884 231.273 180.362 231.681 179.918C232.089 179.474 232.575 179.126 233.139 178.874C233.703 178.61 234.327 178.478 235.011 178.478C236.163 178.478 237.117 178.88 237.873 179.684V178.766ZM246.39 183.356C246.39 183.656 246.444 183.938 246.552 184.202C246.66 184.454 246.804 184.676 246.984 184.868C247.176 185.06 247.398 185.21 247.65 185.318C247.914 185.426 248.196 185.48 248.496 185.48C248.784 185.48 249.054 185.426 249.306 185.318C249.57 185.21 249.792 185.06 249.972 184.868C250.164 184.676 250.314 184.454 250.422 184.202C250.542 183.95 250.602 183.68 250.602 183.392C250.602 183.104 250.542 182.834 250.422 182.582C250.314 182.318 250.164 182.09 249.972 181.898C249.792 181.706 249.57 181.556 249.306 181.448C249.054 181.34 248.784 181.286 248.496 181.286C248.208 181.286 247.932 181.34 247.668 181.448C247.416 181.556 247.194 181.706 247.002 181.898C246.822 182.09 246.672 182.312 246.552 182.564C246.444 182.804 246.39 183.068 246.39 183.356ZM250.494 173.06H253.77V188H250.494V186.974C249.798 187.85 248.856 188.288 247.668 188.288C246.996 188.288 246.378 188.162 245.814 187.91C245.25 187.658 244.758 187.31 244.338 186.866C243.918 186.422 243.588 185.9 243.348 185.3C243.12 184.7 243.006 184.052 243.006 183.356C243.006 182.696 243.114 182.072 243.33 181.484C243.558 180.884 243.876 180.362 244.284 179.918C244.692 179.474 245.178 179.126 245.742 178.874C246.318 178.61 246.948 178.478 247.632 178.478C248.784 178.478 249.738 178.88 250.494 179.684V173.06ZM262.737 182.042C262.629 181.586 262.407 181.22 262.071 180.944C261.735 180.668 261.327 180.53 260.847 180.53C260.343 180.53 259.929 180.662 259.605 180.926C259.293 181.19 259.095 181.562 259.011 182.042H262.737ZM258.921 183.932C258.921 185.336 259.581 186.038 260.901 186.038C261.609 186.038 262.143 185.75 262.503 185.174H265.653C265.017 187.286 263.427 188.342 260.883 188.342C260.103 188.342 259.389 188.228 258.741 188C258.093 187.76 257.535 187.424 257.067 186.992C256.611 186.56 256.257 186.044 256.005 185.444C255.753 184.844 255.627 184.172 255.627 183.428C255.627 182.66 255.747 181.97 255.987 181.358C256.227 180.734 256.569 180.206 257.013 179.774C257.457 179.342 257.991 179.012 258.615 178.784C259.251 178.544 259.965 178.424 260.757 178.424C261.537 178.424 262.239 178.544 262.863 178.784C263.487 179.012 264.015 179.348 264.447 179.792C264.879 180.236 265.209 180.782 265.437 181.43C265.665 182.066 265.779 182.786 265.779 183.59V183.932H258.921ZM273.761 181.142C273.161 180.83 272.573 180.674 271.997 180.674C271.697 180.674 271.451 180.734 271.259 180.854C271.079 180.974 270.989 181.136 270.989 181.34C270.989 181.448 271.001 181.538 271.025 181.61C271.061 181.67 271.127 181.73 271.223 181.79C271.331 181.85 271.481 181.904 271.673 181.952C271.877 182 272.141 182.06 272.465 182.132C273.365 182.312 274.037 182.636 274.481 183.104C274.925 183.56 275.147 184.148 275.147 184.868C275.147 185.408 275.039 185.894 274.823 186.326C274.607 186.758 274.307 187.124 273.923 187.424C273.539 187.712 273.077 187.934 272.537 188.09C271.997 188.258 271.403 188.342 270.755 188.342C269.507 188.342 268.277 187.988 267.065 187.28L268.253 184.976C269.165 185.6 270.029 185.912 270.845 185.912C271.145 185.912 271.391 185.846 271.583 185.714C271.775 185.582 271.871 185.414 271.871 185.21C271.871 185.09 271.853 184.994 271.817 184.922C271.793 184.838 271.733 184.766 271.637 184.706C271.541 184.634 271.397 184.574 271.205 184.526C271.025 184.466 270.785 184.406 270.485 184.346C269.477 184.142 268.769 183.842 268.361 183.446C267.965 183.038 267.767 182.48 267.767 181.772C267.767 181.256 267.863 180.794 268.055 180.386C268.247 179.966 268.523 179.612 268.883 179.324C269.243 179.036 269.675 178.814 270.179 178.658C270.695 178.502 271.265 178.424 271.889 178.424C272.909 178.424 273.899 178.622 274.859 179.018L273.761 181.142ZM46.14 206.356C46.14 206.656 46.194 206.938 46.302 207.202C46.41 207.454 46.554 207.676 46.734 207.868C46.926 208.06 47.148 208.21 47.4 208.318C47.664 208.426 47.946 208.48 48.246 208.48C48.534 208.48 48.804 208.426 49.056 208.318C49.32 208.21 49.542 208.06 49.722 207.868C49.914 207.676 50.064 207.454 50.172 207.202C50.292 206.95 50.352 206.68 50.352 206.392C50.352 206.104 50.292 205.834 50.172 205.582C50.064 205.318 49.914 205.09 49.722 204.898C49.542 204.706 49.32 204.556 49.056 204.448C48.804 204.34 48.534 204.286 48.246 204.286C47.958 204.286 47.682 204.34 47.418 204.448C47.166 204.556 46.944 204.706 46.752 204.898C46.572 205.09 46.422 205.312 46.302 205.564C46.194 205.804 46.14 206.068 46.14 206.356ZM50.244 196.06H53.52V211H50.244V209.974C49.548 210.85 48.606 211.288 47.418 211.288C46.746 211.288 46.128 211.162 45.564 210.91C45 210.658 44.508 210.31 44.088 209.866C43.668 209.422 43.338 208.9 43.098 208.3C42.87 207.7 42.756 207.052 42.756 206.356C42.756 205.696 42.864 205.072 43.08 204.484C43.308 203.884 43.626 203.362 44.034 202.918C44.442 202.474 44.928 202.126 45.492 201.874C46.068 201.61 46.698 201.478 47.382 201.478C48.534 201.478 49.488 201.88 50.244 202.684V196.06ZM62.4871 205.042C62.3791 204.586 62.1571 204.22 61.8211 203.944C61.4851 203.668 61.0771 203.53 60.5971 203.53C60.0931 203.53 59.6791 203.662 59.3551 203.926C59.0431 204.19 58.8451 204.562 58.7611 205.042H62.4871ZM58.6711 206.932C58.6711 208.336 59.3311 209.038 60.6511 209.038C61.3591 209.038 61.8931 208.75 62.2531 208.174H65.4031C64.7671 210.286 63.1771 211.342 60.6331 211.342C59.8531 211.342 59.1391 211.228 58.4911 211C57.8431 210.76 57.2851 210.424 56.8171 209.992C56.3611 209.56 56.0071 209.044 55.7551 208.444C55.5031 207.844 55.3771 207.172 55.3771 206.428C55.3771 205.66 55.4971 204.97 55.7371 204.358C55.9771 203.734 56.3191 203.206 56.7631 202.774C57.2071 202.342 57.7411 202.012 58.3651 201.784C59.0011 201.544 59.7151 201.424 60.5071 201.424C61.2871 201.424 61.9891 201.544 62.6131 201.784C63.2371 202.012 63.7651 202.348 64.1971 202.792C64.6291 203.236 64.9591 203.782 65.1871 204.43C65.4151 205.066 65.5291 205.786 65.5291 206.59V206.932H58.6711ZM77.1446 204.484V211H73.8866V204.484H72.8066V201.766H73.8866V198.994H77.1446V201.766H78.9986V204.484H77.1446ZM83.4814 201.766V206.968C83.4814 208.108 84.0334 208.678 85.1374 208.678C86.2414 208.678 86.7934 208.108 86.7934 206.968V201.766H90.0514V207.598C90.0514 208.846 89.6374 209.782 88.8094 210.406C87.9934 211.03 86.7694 211.342 85.1374 211.342C83.5054 211.342 82.2754 211.03 81.4474 210.406C80.6314 209.782 80.2234 208.846 80.2234 207.598V201.766H83.4814ZM105.348 204.754C104.784 204.37 104.214 204.178 103.638 204.178C103.326 204.178 103.032 204.232 102.756 204.34C102.492 204.448 102.258 204.604 102.054 204.808C101.85 205 101.688 205.234 101.568 205.51C101.46 205.774 101.406 206.074 101.406 206.41C101.406 206.734 101.46 207.034 101.568 207.31C101.688 207.574 101.844 207.808 102.036 208.012C102.24 208.204 102.48 208.354 102.756 208.462C103.032 208.57 103.326 208.624 103.638 208.624C104.25 208.624 104.82 208.414 105.348 207.994V210.766C104.544 211.114 103.782 211.288 103.062 211.288C102.39 211.288 101.748 211.174 101.136 210.946C100.536 210.718 100.002 210.394 99.5336 209.974C99.0776 209.542 98.7116 209.032 98.4356 208.444C98.1596 207.844 98.0216 207.178 98.0216 206.446C98.0216 205.714 98.1536 205.048 98.4176 204.448C98.6816 203.836 99.0416 203.314 99.4976 202.882C99.9536 202.438 100.494 202.096 101.118 201.856C101.754 201.604 102.432 201.478 103.152 201.478C103.944 201.478 104.676 201.646 105.348 201.982V204.754ZM110.23 206.356C110.23 206.656 110.284 206.938 110.392 207.202C110.5 207.454 110.644 207.676 110.824 207.868C111.016 208.06 111.238 208.21 111.49 208.318C111.754 208.426 112.036 208.48 112.336 208.48C112.624 208.48 112.894 208.426 113.146 208.318C113.41 208.21 113.632 208.06 113.812 207.868C114.004 207.676 114.154 207.454 114.262 207.202C114.382 206.95 114.442 206.68 114.442 206.392C114.442 206.104 114.382 205.834 114.262 205.582C114.154 205.318 114.004 205.09 113.812 204.898C113.632 204.706 113.41 204.556 113.146 204.448C112.894 204.34 112.624 204.286 112.336 204.286C112.036 204.286 111.754 204.34 111.49 204.448C111.238 204.556 111.016 204.706 110.824 204.898C110.644 205.09 110.5 205.312 110.392 205.564C110.284 205.804 110.23 206.068 110.23 206.356ZM114.334 201.766H117.61V211H114.334V209.974C113.638 210.85 112.696 211.288 111.508 211.288C110.836 211.288 110.218 211.168 109.654 210.928C109.09 210.676 108.598 210.328 108.178 209.884C107.758 209.44 107.428 208.918 107.188 208.318C106.96 207.718 106.846 207.064 106.846 206.356C106.846 205.696 106.96 205.072 107.188 204.484C107.416 203.884 107.734 203.362 108.142 202.918C108.55 202.474 109.036 202.126 109.6 201.874C110.164 201.61 110.788 201.478 111.472 201.478C112.624 201.478 113.578 201.88 114.334 202.684V201.766ZM127.189 206.41C127.189 206.122 127.135 205.852 127.027 205.6C126.931 205.336 126.787 205.108 126.595 204.916C126.403 204.724 126.175 204.574 125.911 204.466C125.659 204.346 125.383 204.286 125.083 204.286C124.795 204.286 124.525 204.34 124.273 204.448C124.021 204.556 123.799 204.706 123.607 204.898C123.427 205.09 123.277 205.318 123.157 205.582C123.049 205.834 122.995 206.104 122.995 206.392C122.995 206.68 123.049 206.95 123.157 207.202C123.265 207.454 123.415 207.676 123.607 207.868C123.799 208.048 124.021 208.198 124.273 208.318C124.537 208.426 124.813 208.48 125.101 208.48C125.389 208.48 125.659 208.426 125.911 208.318C126.163 208.21 126.379 208.06 126.559 207.868C126.751 207.676 126.901 207.454 127.009 207.202C127.129 206.95 127.189 206.686 127.189 206.41ZM123.085 215.608H119.827V201.766H123.085V202.792C123.781 201.916 124.729 201.478 125.929 201.478C126.589 201.478 127.201 201.61 127.765 201.874C128.341 202.126 128.839 202.474 129.259 202.918C129.679 203.362 130.003 203.884 130.231 204.484C130.471 205.084 130.591 205.726 130.591 206.41C130.591 207.094 130.471 207.73 130.231 208.318C130.003 208.906 129.679 209.422 129.259 209.866C128.851 210.31 128.365 210.658 127.801 210.91C127.237 211.162 126.625 211.288 125.965 211.288C124.813 211.288 123.853 210.892 123.085 210.1V215.608ZM135.706 201.766V211H132.448V201.766H135.706ZM132.232 198.22C132.232 197.968 132.28 197.734 132.376 197.518C132.472 197.29 132.604 197.092 132.772 196.924C132.94 196.756 133.132 196.624 133.348 196.528C133.576 196.432 133.816 196.384 134.068 196.384C134.32 196.384 134.554 196.432 134.77 196.528C134.998 196.624 135.196 196.756 135.364 196.924C135.532 197.092 135.664 197.29 135.76 197.518C135.856 197.734 135.904 197.968 135.904 198.22C135.904 198.472 135.856 198.712 135.76 198.94C135.664 199.156 135.532 199.348 135.364 199.516C135.196 199.684 134.998 199.816 134.77 199.912C134.554 200.008 134.32 200.056 134.068 200.056C133.816 200.056 133.576 200.008 133.348 199.912C133.132 199.816 132.94 199.684 132.772 199.516C132.604 199.348 132.472 199.156 132.376 198.94C132.28 198.712 132.232 198.472 132.232 198.22ZM141.568 204.484V211H138.31V204.484H137.23V201.766H138.31V198.994H141.568V201.766H143.422V204.484H141.568ZM147.847 206.356C147.847 206.656 147.901 206.938 148.009 207.202C148.117 207.454 148.261 207.676 148.441 207.868C148.633 208.06 148.855 208.21 149.107 208.318C149.371 208.426 149.653 208.48 149.953 208.48C150.241 208.48 150.511 208.426 150.763 208.318C151.027 208.21 151.249 208.06 151.429 207.868C151.621 207.676 151.771 207.454 151.879 207.202C151.999 206.95 152.059 206.68 152.059 206.392C152.059 206.104 151.999 205.834 151.879 205.582C151.771 205.318 151.621 205.09 151.429 204.898C151.249 204.706 151.027 204.556 150.763 204.448C150.511 204.34 150.241 204.286 149.953 204.286C149.653 204.286 149.371 204.34 149.107 204.448C148.855 204.556 148.633 204.706 148.441 204.898C148.261 205.09 148.117 205.312 148.009 205.564C147.901 205.804 147.847 206.068 147.847 206.356ZM151.951 201.766H155.227V211H151.951V209.974C151.255 210.85 150.313 211.288 149.125 211.288C148.453 211.288 147.835 211.168 147.271 210.928C146.707 210.676 146.215 210.328 145.795 209.884C145.375 209.44 145.045 208.918 144.805 208.318C144.577 207.718 144.463 207.064 144.463 206.356C144.463 205.696 144.577 205.072 144.805 204.484C145.033 203.884 145.351 203.362 145.759 202.918C146.167 202.474 146.653 202.126 147.217 201.874C147.781 201.61 148.405 201.478 149.089 201.478C150.241 201.478 151.195 201.88 151.951 202.684V201.766ZM160.702 196.06V211H157.444V196.06H160.702ZM172.808 203.638C174.59 203.638 175.652 205.006 175.652 206.698C175.652 208.408 174.68 209.902 172.826 209.902C171.026 209.902 170.054 208.336 170.054 206.68C170.054 205.096 171.134 203.638 172.808 203.638ZM175.58 211H177.02V196.15H175.58V203.746H175.544C174.86 202.846 173.78 202.306 172.646 202.306C170.108 202.306 168.578 204.376 168.578 206.788C168.578 209.128 170.144 211.234 172.628 211.234C173.78 211.234 174.842 210.748 175.544 209.83H175.58V211ZM187.048 207.076C187.192 204.556 185.752 202.306 183.034 202.306C180.388 202.306 178.93 204.376 178.93 206.878C178.93 209.308 180.55 211.234 183.07 211.234C184.798 211.234 186.166 210.37 186.976 208.858L185.752 208.156C185.194 209.164 184.402 209.902 183.178 209.902C181.54 209.902 180.424 208.642 180.406 207.076H187.048ZM180.478 205.852C180.658 204.628 181.81 203.638 183.052 203.638C184.312 203.638 185.338 204.628 185.536 205.852H180.478ZM196.069 203.872H197.581V202.54H196.069V199.498H194.629V202.54H193.747V203.872H194.629V211H196.069V203.872ZM200.25 202.54H198.81V211H200.25V206.77C200.25 205.672 200.322 203.638 201.906 203.638C202.284 203.638 202.482 203.818 202.77 204.016L203.454 202.702C203.04 202.468 202.644 202.306 202.158 202.306C201.222 202.306 200.79 202.792 200.286 203.458H200.25V202.54ZM208.421 203.638C210.203 203.638 211.265 205.006 211.265 206.698C211.265 208.408 210.293 209.902 208.439 209.902C206.639 209.902 205.667 208.336 205.667 206.68C205.667 205.096 206.747 203.638 208.421 203.638ZM212.633 202.54H211.193V203.746H211.157C210.455 202.846 209.411 202.306 208.259 202.306C205.721 202.306 204.191 204.376 204.191 206.788C204.191 209.128 205.757 211.234 208.241 211.234C209.429 211.234 210.419 210.766 211.157 209.83H211.193V211H212.633V202.54ZM219.35 203.638C221.132 203.638 222.194 205.006 222.194 206.698C222.194 208.408 221.222 209.902 219.368 209.902C217.568 209.902 216.596 208.336 216.596 206.68C216.596 205.096 217.676 203.638 219.35 203.638ZM215.228 211H216.668V209.83H216.704C217.388 210.748 218.45 211.234 219.62 211.234C222.104 211.234 223.67 209.128 223.67 206.77C223.67 204.376 222.122 202.306 219.602 202.306C218.45 202.306 217.388 202.846 216.704 203.746H216.668V196.15H215.228V211ZM229.198 203.638C230.98 203.638 232.042 205.006 232.042 206.698C232.042 208.408 231.07 209.902 229.216 209.902C227.416 209.902 226.444 208.336 226.444 206.68C226.444 205.096 227.524 203.638 229.198 203.638ZM233.41 202.54H231.97V203.746H231.934C231.232 202.846 230.188 202.306 229.036 202.306C226.498 202.306 224.968 204.376 224.968 206.788C224.968 209.128 226.534 211.234 229.018 211.234C230.206 211.234 231.196 210.766 231.934 209.83H231.97V211H233.41V202.54ZM237.787 202.54H236.347V215.752H237.787V202.54ZM237.067 198.328C236.509 198.328 236.041 198.796 236.041 199.354C236.041 199.93 236.509 200.38 237.067 200.38C237.625 200.38 238.093 199.93 238.093 199.354C238.093 198.796 237.625 198.328 237.067 198.328ZM244.478 211.234C246.944 211.234 248.924 209.272 248.924 206.788C248.924 204.304 246.962 202.306 244.478 202.306C241.994 202.306 240.032 204.304 240.032 206.788C240.032 209.272 242.012 211.234 244.478 211.234ZM244.478 203.638C246.26 203.638 247.484 205.06 247.484 206.77C247.484 208.498 246.26 209.902 244.478 209.902C242.696 209.902 241.472 208.498 241.472 206.77C241.472 205.06 242.696 203.638 244.478 203.638Z" fill="white"/>
<path d="M31.8438 41V6.6875H52.0469V12.875H39.1797V19.9297H52.0469V26.1641H39.1797V34.7656H52.0469V41H31.8438ZM59.2656 41V6.6875H66.6016V34.7656H78.3203V41H59.2656ZM122.523 41H114.062L105.039 24.9688V41H97.7031V6.6875H108.203C112.375 6.6875 115.5 7.5 117.578 9.125C119.656 10.7344 120.695 13.1641 120.695 16.4141C120.695 18.7734 119.984 20.7891 118.562 22.4609C117.141 24.1328 115.305 25.1094 113.055 25.3906L122.523 41ZM105.039 21.3125H106.141C109.109 21.3125 111.07 20.9922 112.023 20.3516C112.977 19.6953 113.453 18.5625 113.453 16.9531C113.453 15.2656 112.938 14.0703 111.906 13.3672C110.891 12.6484 108.969 12.2891 106.141 12.2891H105.039V21.3125ZM126.812 41V6.6875H147.016V12.875H134.148V19.9297H147.016V26.1641H134.148V34.7656H147.016V41H126.812ZM152.031 36.6406L156.109 32.0234C156.625 33.2891 157.453 34.2891 158.594 35.0234C159.734 35.7422 161.016 36.1016 162.438 36.1016C164.156 36.1016 165.516 35.6953 166.516 34.8828C167.516 34.0703 168.016 32.9766 168.016 31.6016C168.016 29.9766 166.352 28.3594 163.023 26.75C161.945 26.2344 161.094 25.8125 160.469 25.4844C157.469 23.9219 155.391 22.3984 154.234 20.9141C153.078 19.4141 152.5 17.6328 152.5 15.5703C152.5 12.7422 153.617 10.4219 155.852 8.60938C158.102 6.78125 161.016 5.86719 164.594 5.86719C166.672 5.86719 168.461 6.23438 169.961 6.96875C171.477 7.6875 172.812 8.82031 173.969 10.3672L169.633 14.5156C169.117 13.5156 168.43 12.7734 167.57 12.2891C166.727 11.7891 165.703 11.5391 164.5 11.5391C163.047 11.5391 161.875 11.9063 160.984 12.6406C160.094 13.3594 159.648 14.2969 159.648 15.4531C159.648 17.2656 161.414 18.9219 164.945 20.4219C165.648 20.7188 166.188 20.9531 166.562 21.125C169.469 22.4531 171.617 23.9531 173.008 25.625C174.414 27.2969 175.117 29.2031 175.117 31.3438C175.117 34.5625 174.016 37.1328 171.812 39.0547C169.625 40.9609 166.68 41.9141 162.977 41.9141C160.352 41.9141 158.102 41.4609 156.227 40.5547C154.352 39.6484 152.953 38.3438 152.031 36.6406ZM188.523 22.1797H189.578C191.578 22.1797 193.031 21.7656 193.938 20.9375C194.844 20.1094 195.297 18.7812 195.297 16.9531C195.297 15.2656 194.844 14.0391 193.938 13.2734C193.031 12.4922 191.578 12.1016 189.578 12.1016H188.523V22.1797ZM181.141 41V6.6875H189.578C194.078 6.6875 197.398 7.54688 199.539 9.26562C201.695 10.9844 202.773 13.6406 202.773 17.2344C202.773 20.5625 201.688 23.1719 199.516 25.0625C197.359 26.9531 194.367 27.8984 190.539 27.8984H188.523V41H181.141ZM223.234 27.9453L219.391 16.8594C219.281 16.5312 219.141 15.9688 218.969 15.1719C218.797 14.375 218.617 13.3984 218.43 12.2422C218.227 13.3516 218.031 14.3516 217.844 15.2422C217.656 16.1172 217.516 16.7031 217.422 17L213.719 27.9453H223.234ZM201.391 41L214.445 6.6875H222.836L236.078 41H227.734L224.945 33.7109H211.656L209.266 41H201.391ZM239.688 41V6.6875H247.023V34.7656H258.742V41H239.688ZM270.695 34.8125H274.773C278.617 34.8125 281.414 33.9375 283.164 32.1875C284.93 30.4375 285.812 27.6641 285.812 23.8672C285.812 20.0859 284.93 17.3203 283.164 15.5703C281.414 13.8047 278.617 12.9219 274.773 12.9219H270.695V34.8125ZM263.359 41V6.6875H272.711C276.398 6.6875 279.305 6.94531 281.43 7.46094C283.555 7.97656 285.422 8.83594 287.031 10.0391C289.109 11.5859 290.68 13.5391 291.742 15.8984C292.82 18.2422 293.359 20.9141 293.359 23.9141C293.359 26.9609 292.812 29.6641 291.719 32.0234C290.625 34.3672 289.023 36.3047 286.914 37.8359C285.352 38.9609 283.609 39.7734 281.688 40.2734C279.781 40.7578 276.984 41 273.297 41H270.695H263.359ZM334.633 23.9141C334.633 26.3672 334.172 28.6875 333.25 30.875C332.344 33.0625 331.031 34.9844 329.312 36.6406C327.531 38.3438 325.523 39.6484 323.289 40.5547C321.055 41.4609 318.742 41.9141 316.352 41.9141C314.258 41.9141 312.203 41.5625 310.188 40.8594C308.188 40.1406 306.352 39.1172 304.68 37.7891C302.523 36.0703 300.867 34.0156 299.711 31.625C298.57 29.2344 298 26.6641 298 23.9141C298 21.4453 298.453 19.1328 299.359 16.9766C300.266 14.8047 301.594 12.875 303.344 11.1875C305.062 9.51563 307.055 8.21875 309.32 7.29688C311.602 6.375 313.945 5.91406 316.352 5.91406C318.742 5.91406 321.062 6.375 323.312 7.29688C325.578 8.21875 327.578 9.51563 329.312 11.1875C331.047 12.875 332.367 14.8047 333.273 16.9766C334.18 19.1484 334.633 21.4609 334.633 23.9141ZM316.352 35.375C319.461 35.375 322.023 34.2891 324.039 32.1172C326.07 29.9297 327.086 27.1953 327.086 23.9141C327.086 20.6641 326.062 17.9297 324.016 15.7109C321.969 13.4922 319.414 12.3828 316.352 12.3828C313.242 12.3828 310.664 13.4922 308.617 15.7109C306.57 17.9141 305.547 20.6484 305.547 23.9141C305.547 27.2266 306.555 29.9688 308.57 32.1406C310.586 34.2969 313.18 35.375 316.352 35.375ZM377.359 29.375L379.891 32.3516C380.953 31.2578 381.766 29.9766 382.328 28.5078C382.906 27.0234 383.195 25.4922 383.195 23.9141C383.195 20.6641 382.172 17.9297 380.125 15.7109C378.078 13.4922 375.523 12.3828 372.461 12.3828C369.352 12.3828 366.773 13.4922 364.727 15.7109C362.68 17.9141 361.656 20.6484 361.656 23.9141C361.656 27.2109 362.656 29.9453 364.656 32.1172C366.672 34.2891 369.227 35.375 372.32 35.375C372.586 35.375 372.953 35.3516 373.422 35.3047C373.906 35.2422 374.477 35.1562 375.133 35.0469L370.188 29.375H377.359ZM390.555 44.9844H383.242L379.516 40.5781C377.828 41.0156 376.422 41.3281 375.297 41.5156C374.188 41.7188 373.195 41.8203 372.32 41.8203C369.961 41.8203 367.648 41.3594 365.383 40.4375C363.117 39.5156 361.141 38.2344 359.453 36.5938C357.719 34.9062 356.383 32.9688 355.445 30.7812C354.523 28.5781 354.062 26.2734 354.062 23.8672C354.062 21.4609 354.523 19.1719 355.445 17C356.367 14.8125 357.703 12.8594 359.453 11.1406C361.156 9.45312 363.125 8.16406 365.359 7.27344C367.609 6.36719 369.977 5.91406 372.461 5.91406C374.898 5.91406 377.234 6.36719 379.469 7.27344C381.703 8.16406 383.688 9.45312 385.422 11.1406C387.156 12.8438 388.484 14.7812 389.406 16.9531C390.328 19.125 390.789 21.4297 390.789 23.8672C390.789 26.5547 390.234 29.0625 389.125 31.3906C388.016 33.7188 386.391 35.7891 384.25 37.6016L390.555 44.9844ZM426.461 6.6875V28.0391C426.461 32.6953 425.234 36.1719 422.781 38.4688C420.328 40.7656 416.633 41.9141 411.695 41.9141C406.68 41.9141 402.945 40.7656 400.492 38.4688C398.039 36.1719 396.812 32.6953 396.812 28.0391V6.6875H404.102V26.8906C404.102 29.7188 404.727 31.8516 405.977 33.2891C407.227 34.7109 409.094 35.4219 411.578 35.4219C414.078 35.4219 415.969 34.7031 417.25 33.2656C418.531 31.8281 419.172 29.7031 419.172 26.8906V6.6875H426.461ZM434.078 41V6.6875H454.281V12.875H441.414V19.9297H454.281V26.1641H441.414V34.7656H454.281V41H434.078ZM31.8438 89V54.6875H39.1797V82.7656H50.8984V89H31.8438ZM55.5156 89V54.6875H75.7188V60.875H62.8516V67.9297H75.7188V74.1641H62.8516V82.7656H75.7188V89H55.5156ZM97.7031 89V54.6875H105.039V68.4453H119.922V54.6875H127.258V89H119.922V74.6562H105.039V89H97.7031ZM152.688 75.9453L148.844 64.8594C148.734 64.5312 148.594 63.9688 148.422 63.1719C148.25 62.375 148.07 61.3984 147.883 60.2422C147.68 61.3516 147.484 62.3516 147.297 63.2422C147.109 64.1172 146.969 64.7031 146.875 65L143.172 75.9453H152.688ZM130.844 89L143.898 54.6875H152.289L165.531 89H157.188L154.398 81.7109H141.109L138.719 89H130.844ZM195.93 63.6172C194.445 62.2891 192.922 61.3203 191.359 60.7109C189.797 60.0859 188.125 59.7734 186.344 59.7734C182.688 59.7734 179.773 60.8672 177.602 63.0547C175.43 65.2422 174.344 68.1797 174.344 71.8672C174.344 75.4766 175.352 78.3438 177.367 80.4688C179.383 82.5781 182.133 83.6328 185.617 83.6328C187.602 83.6328 189.445 83.3047 191.148 82.6484C192.852 81.9766 194.43 80.9766 195.883 79.6484L195.836 87.1719C194.273 88.0938 192.633 88.7812 190.914 89.2344C189.211 89.6875 187.414 89.9141 185.523 89.9141C180.055 89.9141 175.562 88.2188 172.047 84.8281C168.547 81.4219 166.797 77.1016 166.797 71.8672C166.797 66.6484 168.555 62.3438 172.07 58.9531C175.586 55.5625 180.117 53.8672 185.664 53.8672C187.523 53.8672 189.32 54.0625 191.055 54.4531C192.789 54.8438 194.5 55.4453 196.188 56.2578L195.93 63.6172ZM202.891 89V54.6875H210.227V89H202.891ZM213.461 42.7812L206.125 51.4297H202.797L207.414 42.7812H213.461ZM235.844 75.9453L232 64.8594C231.891 64.5312 231.75 63.9688 231.578 63.1719C231.406 62.375 231.227 61.3984 231.039 60.2422C230.836 61.3516 230.641 62.3516 230.453 63.2422C230.266 64.1172 230.125 64.7031 230.031 65L226.328 75.9453H235.844ZM214 89L227.055 54.6875H235.445L248.688 89H240.344L237.555 81.7109H224.266L221.875 89H214ZM267.062 89V54.6875H287.266V60.875H274.398V67.9297H287.266V74.1641H274.398V89H267.062ZM309.859 75.9453L306.016 64.8594C305.906 64.5312 305.766 63.9688 305.594 63.1719C305.422 62.375 305.242 61.3984 305.055 60.2422C304.852 61.3516 304.656 62.3516 304.469 63.2422C304.281 64.1172 304.141 64.7031 304.047 65L300.344 75.9453H309.859ZM288.016 89L301.07 54.6875H309.461L322.703 89H314.359L311.57 81.7109H298.281L295.891 89H288.016ZM326.312 89V54.6875H333.648V82.7656H345.367V89H326.312ZM360.18 60.9219V89H352.82V60.9219H344.43V54.6875H368.617V60.9219H360.18ZM388.516 75.9453L384.672 64.8594C384.562 64.5312 384.422 63.9688 384.25 63.1719C384.078 62.375 383.898 61.3984 383.711 60.2422C383.508 61.3516 383.312 62.3516 383.125 63.2422C382.938 64.1172 382.797 64.7031 382.703 65L379 75.9453H388.516ZM366.672 89L379.727 54.6875H388.117L401.359 89H393.016L390.227 81.7109H376.938L374.547 89H366.672ZM49.6094 123.945L45.7656 112.859C45.6562 112.531 45.5156 111.969 45.3438 111.172C45.1719 110.375 44.9922 109.398 44.8047 108.242C44.6016 109.352 44.4062 110.352 44.2188 111.242C44.0312 112.117 43.8906 112.703 43.7969 113L40.0938 123.945H49.6094ZM27.7656 137L40.8203 102.688H49.2109L62.4531 137H54.1094L51.3203 129.711H38.0312L35.6406 137H27.7656ZM93.6484 108.922V137H86.2891V108.922H77.8984V102.688H102.086V108.922H93.6484ZM136.352 102.688V124.039C136.352 128.695 135.125 132.172 132.672 134.469C130.219 136.766 126.523 137.914 121.586 137.914C116.57 137.914 112.836 136.766 110.383 134.469C107.93 132.172 106.703 128.695 106.703 124.039V102.688H113.992V122.891C113.992 125.719 114.617 127.852 115.867 129.289C117.117 130.711 118.984 131.422 121.469 131.422C123.969 131.422 125.859 130.703 127.141 129.266C128.422 127.828 129.062 125.703 129.062 122.891V102.688H136.352ZM158.734 137V102.688H166.352L181.539 122.656C181.977 123.219 182.453 124.016 182.969 125.047C183.5 126.062 184.047 127.266 184.609 128.656C184.438 127.641 184.312 126.633 184.234 125.633C184.156 124.633 184.117 123.383 184.117 121.883V102.688H191.125V137H183.93L168.32 116.656C167.883 116.094 167.406 115.305 166.891 114.289C166.375 113.258 165.828 112.031 165.25 110.609C165.422 111.594 165.547 112.594 165.625 113.609C165.703 114.609 165.742 115.875 165.742 117.406V137H158.734ZM198.766 137V102.688H218.969V108.875H206.102V115.93H218.969V122.164H206.102V130.766H218.969V137H198.766ZM243.227 118.906H258.859C258.891 119.109 258.906 119.328 258.906 119.562C258.922 119.797 258.93 120.156 258.93 120.641C258.93 125.781 257.461 129.945 254.523 133.133C251.586 136.32 247.789 137.914 243.133 137.914C237.805 137.914 233.414 136.219 229.961 132.828C226.508 129.422 224.781 125.102 224.781 119.867C224.781 114.68 226.516 110.391 229.984 107C233.453 103.609 237.836 101.914 243.133 101.914C245.93 101.914 248.492 102.5 250.82 103.672C253.148 104.844 255.227 106.594 257.055 108.922L252.109 112.578C250.875 111.047 249.578 109.945 248.219 109.273C246.859 108.586 245.289 108.242 243.508 108.242C240.117 108.242 237.406 109.297 235.375 111.406C233.344 113.516 232.328 116.336 232.328 119.867C232.328 123.336 233.344 126.141 235.375 128.281C237.422 130.406 240.086 131.469 243.367 131.469C245.773 131.469 247.727 130.906 249.227 129.781C250.727 128.641 251.477 127.156 251.477 125.328V124.953H243.227V118.906ZM299.898 119.914C299.898 122.367 299.438 124.688 298.516 126.875C297.609 129.062 296.297 130.984 294.578 132.641C292.797 134.344 290.789 135.648 288.555 136.555C286.32 137.461 284.008 137.914 281.617 137.914C279.523 137.914 277.469 137.562 275.453 136.859C273.453 136.141 271.617 135.117 269.945 133.789C267.789 132.07 266.133 130.016 264.977 127.625C263.836 125.234 263.266 122.664 263.266 119.914C263.266 117.445 263.719 115.133 264.625 112.977C265.531 110.805 266.859 108.875 268.609 107.188C270.328 105.516 272.32 104.219 274.586 103.297C276.867 102.375 279.211 101.914 281.617 101.914C284.008 101.914 286.328 102.375 288.578 103.297C290.844 104.219 292.844 105.516 294.578 107.188C296.312 108.875 297.633 110.805 298.539 112.977C299.445 115.148 299.898 117.461 299.898 119.914ZM281.617 131.375C284.727 131.375 287.289 130.289 289.305 128.117C291.336 125.93 292.352 123.195 292.352 119.914C292.352 116.664 291.328 113.93 289.281 111.711C287.234 109.492 284.68 108.383 281.617 108.383C278.508 108.383 275.93 109.492 273.883 111.711C271.836 113.914 270.812 116.648 270.812 119.914C270.812 123.227 271.82 125.969 273.836 128.141C275.852 130.297 278.445 131.375 281.617 131.375ZM333.742 111.617C332.258 110.289 330.734 109.32 329.172 108.711C327.609 108.086 325.938 107.773 324.156 107.773C320.5 107.773 317.586 108.867 315.414 111.055C313.242 113.242 312.156 116.18 312.156 119.867C312.156 123.477 313.164 126.344 315.18 128.469C317.195 130.578 319.945 131.633 323.43 131.633C325.414 131.633 327.258 131.305 328.961 130.648C330.664 129.977 332.242 128.977 333.695 127.648L333.648 135.172C332.086 136.094 330.445 136.781 328.727 137.234C327.023 137.688 325.227 137.914 323.336 137.914C317.867 137.914 313.375 136.219 309.859 132.828C306.359 129.422 304.609 125.102 304.609 119.867C304.609 114.648 306.367 110.344 309.883 106.953C313.398 103.562 317.93 101.867 323.477 101.867C325.336 101.867 327.133 102.062 328.867 102.453C330.602 102.844 332.312 103.445 334 104.258L333.742 111.617ZM340.703 137V102.688H348.039V137H340.703ZM391.023 119.914C391.023 122.367 390.562 124.688 389.641 126.875C388.734 129.062 387.422 130.984 385.703 132.641C383.922 134.344 381.914 135.648 379.68 136.555C377.445 137.461 375.133 137.914 372.742 137.914C370.648 137.914 368.594 137.562 366.578 136.859C364.578 136.141 362.742 135.117 361.07 133.789C358.914 132.07 357.258 130.016 356.102 127.625C354.961 125.234 354.391 122.664 354.391 119.914C354.391 117.445 354.844 115.133 355.75 112.977C356.656 110.805 357.984 108.875 359.734 107.188C361.453 105.516 363.445 104.219 365.711 103.297C367.992 102.375 370.336 101.914 372.742 101.914C375.133 101.914 377.453 102.375 379.703 103.297C381.969 104.219 383.969 105.516 385.703 107.188C387.438 108.875 388.758 110.805 389.664 112.977C390.57 115.148 391.023 117.461 391.023 119.914ZM372.742 131.375C375.852 131.375 378.414 130.289 380.43 128.117C382.461 125.93 383.477 123.195 383.477 119.914C383.477 116.664 382.453 113.93 380.406 111.711C378.359 109.492 375.805 108.383 372.742 108.383C369.633 108.383 367.055 109.492 365.008 111.711C362.961 113.914 361.938 116.648 361.938 119.914C361.938 123.227 362.945 125.969 364.961 128.141C366.977 130.297 369.57 131.375 372.742 131.375Z" fill="white"/>
</svg>
