<svg width="535" height="201" viewBox="0 0 535 201" fill="none" xmlns="http://www.w3.org/2000/svg">
<path d="M30.5625 31V8.125H44.0312V12.25H35.4531V16.9531H44.0312V21.1094H35.4531V26.8438H44.0312V31H30.5625ZM48.8438 31V8.125H53.7344V26.8438H61.5469V31H48.8438ZM79.3594 26.875H82.0781C84.6406 26.875 86.5052 26.2917 87.6719 25.125C88.849 23.9583 89.4375 22.1094 89.4375 19.5781C89.4375 17.0573 88.849 15.2135 87.6719 14.0469C86.5052 12.8698 84.6406 12.2812 82.0781 12.2812H79.3594V26.875ZM74.4688 31V8.125H80.7031C83.1615 8.125 85.099 8.29688 86.5156 8.64062C87.9323 8.98438 89.1771 9.55729 90.25 10.3594C91.6354 11.3906 92.6823 12.6927 93.3906 14.2656C94.1094 15.8281 94.4688 17.6094 94.4688 19.6094C94.4688 21.6406 94.1042 23.4427 93.375 25.0156C92.6458 26.5781 91.5781 27.8698 90.1719 28.8906C89.1302 29.6406 87.9688 30.1823 86.6875 30.5156C85.4167 30.8385 83.5521 31 81.0938 31H79.3594H74.4688ZM98.6562 31V8.125H103.547V31H98.6562ZM108.781 31V8.125H113.859L123.984 21.4375C124.276 21.8125 124.594 22.3438 124.938 23.0312C125.292 23.7083 125.656 24.5104 126.031 25.4375C125.917 24.7604 125.833 24.0885 125.781 23.4219C125.729 22.7552 125.703 21.9219 125.703 20.9219V8.125H130.375V31H125.578L115.172 17.4375C114.88 17.0625 114.562 16.5365 114.219 15.8594C113.875 15.1719 113.51 14.3542 113.125 13.4062C113.24 14.0625 113.323 14.7292 113.375 15.4062C113.427 16.0729 113.453 16.9167 113.453 17.9375V31H108.781ZM135.469 31V8.125H148.938V12.25H140.359V16.9531H148.938V21.1094H140.359V26.8438H148.938V31H135.469ZM170.297 31H164.656L158.641 20.3125V31H153.75V8.125H160.75C163.531 8.125 165.615 8.66667 167 9.75C168.385 10.8229 169.078 12.4427 169.078 14.6094C169.078 16.1823 168.604 17.526 167.656 18.6406C166.708 19.7552 165.484 20.4062 163.984 20.5938L170.297 31ZM158.641 17.875H159.375C161.354 17.875 162.661 17.6615 163.297 17.2344C163.932 16.7969 164.25 16.0417 164.25 14.9688C164.25 13.8438 163.906 13.0469 163.219 12.5781C162.542 12.099 161.26 11.8594 159.375 11.8594H158.641V17.875ZM196.578 19.6094C196.578 21.2448 196.271 22.7917 195.656 24.25C195.052 25.7083 194.177 26.9896 193.031 28.0938C191.844 29.2292 190.505 30.099 189.016 30.7031C187.526 31.3073 185.984 31.6094 184.391 31.6094C182.995 31.6094 181.625 31.375 180.281 30.9062C178.948 30.4271 177.724 29.7448 176.609 28.8594C175.172 27.7135 174.068 26.3438 173.297 24.75C172.536 23.1562 172.156 21.4427 172.156 19.6094C172.156 17.9635 172.458 16.4219 173.062 14.9844C173.667 13.5365 174.552 12.25 175.719 11.125C176.865 10.0104 178.193 9.14583 179.703 8.53125C181.224 7.91667 182.786 7.60938 184.391 7.60938C185.984 7.60938 187.531 7.91667 189.031 8.53125C190.542 9.14583 191.875 10.0104 193.031 11.125C194.188 12.25 195.068 13.5365 195.672 14.9844C196.276 16.4323 196.578 17.974 196.578 19.6094ZM184.391 27.25C186.464 27.25 188.172 26.526 189.516 25.0781C190.87 23.6198 191.547 21.7969 191.547 19.6094C191.547 17.4427 190.865 15.6198 189.5 14.1406C188.135 12.6615 186.432 11.9219 184.391 11.9219C182.318 11.9219 180.599 12.6615 179.234 14.1406C177.87 15.6094 177.188 17.4323 177.188 19.6094C177.188 21.8177 177.859 23.6458 179.203 25.0938C180.547 26.5312 182.276 27.25 184.391 27.25ZM215.453 26.875H218.172C220.734 26.875 222.599 26.2917 223.766 25.125C224.943 23.9583 225.531 22.1094 225.531 19.5781C225.531 17.0573 224.943 15.2135 223.766 14.0469C222.599 12.8698 220.734 12.2812 218.172 12.2812H215.453V26.875ZM210.562 31V8.125H216.797C219.255 8.125 221.193 8.29688 222.609 8.64062C224.026 8.98438 225.271 9.55729 226.344 10.3594C227.729 11.3906 228.776 12.6927 229.484 14.2656C230.203 15.8281 230.562 17.6094 230.562 19.6094C230.562 21.6406 230.198 23.4427 229.469 25.0156C228.74 26.5781 227.672 27.8698 226.266 28.8906C225.224 29.6406 224.062 30.1823 222.781 30.5156C221.51 30.8385 219.646 31 217.188 31H215.453H210.562ZM234.656 31V8.125H248.125V12.25H239.547V16.9531H248.125V21.1094H239.547V26.8438H248.125V31H234.656ZM271.328 12.2812V31H266.422V12.2812H260.828V8.125H276.953V12.2812H271.328ZM299.797 8.125V22.3594C299.797 25.4635 298.979 27.7812 297.344 29.3125C295.708 30.8438 293.245 31.6094 289.953 31.6094C286.609 31.6094 284.12 30.8438 282.484 29.3125C280.849 27.7812 280.031 25.4635 280.031 22.3594V8.125H284.891V21.5938C284.891 23.4792 285.307 24.901 286.141 25.8594C286.974 26.8073 288.219 27.2812 289.875 27.2812C291.542 27.2812 292.802 26.8021 293.656 25.8438C294.51 24.8854 294.938 23.4688 294.938 21.5938V8.125H299.797ZM303.406 28.0938L306.125 25.0156C306.469 25.8594 307.021 26.526 307.781 27.0156C308.542 27.4948 309.396 27.7344 310.344 27.7344C311.49 27.7344 312.396 27.4635 313.062 26.9219C313.729 26.3802 314.062 25.651 314.062 24.7344C314.062 23.651 312.953 22.5729 310.734 21.5C310.016 21.1562 309.448 20.875 309.031 20.6562C307.031 19.6146 305.646 18.599 304.875 17.6094C304.104 16.6094 303.719 15.4219 303.719 14.0469C303.719 12.1615 304.464 10.6146 305.953 9.40625C307.453 8.1875 309.396 7.57812 311.781 7.57812C313.167 7.57812 314.359 7.82292 315.359 8.3125C316.37 8.79167 317.26 9.54688 318.031 10.5781L315.141 13.3438C314.797 12.6771 314.339 12.1823 313.766 11.8594C313.203 11.526 312.521 11.3594 311.719 11.3594C310.75 11.3594 309.969 11.6042 309.375 12.0938C308.781 12.5729 308.484 13.1979 308.484 13.9688C308.484 15.1771 309.661 16.2812 312.016 17.2812C312.484 17.4792 312.844 17.6354 313.094 17.75C315.031 18.6354 316.464 19.6354 317.391 20.75C318.328 21.8646 318.797 23.1354 318.797 24.5625C318.797 26.7083 318.062 28.4219 316.594 29.7031C315.135 30.974 313.172 31.6094 310.703 31.6094C308.953 31.6094 307.453 31.3073 306.203 30.7031C304.953 30.099 304.021 29.2292 303.406 28.0938ZM39.1094 50.2812V69H34.2031V50.2812H28.6094V46.125H44.7344V50.2812H39.1094ZM64.4531 69H58.8125L52.7969 58.3125V69H47.9062V46.125H54.9062C57.6875 46.125 59.7708 46.6667 61.1562 47.75C62.5417 48.8229 63.2344 50.4427 63.2344 52.6094C63.2344 54.1823 62.7604 55.526 61.8125 56.6406C60.8646 57.7552 59.6406 58.4062 58.1406 58.5938L64.4531 69ZM52.7969 55.875H53.5312C55.5104 55.875 56.8177 55.6615 57.4531 55.2344C58.0885 54.7969 58.4062 54.0417 58.4062 52.9688C58.4062 51.8438 58.0625 51.0469 57.375 50.5781C56.6979 50.099 55.4167 49.8594 53.5312 49.8594H52.7969V55.875ZM79.1562 60.2969L76.5938 52.9062C76.5208 52.6875 76.4271 52.3125 76.3125 51.7812C76.1979 51.25 76.0781 50.599 75.9531 49.8281C75.8177 50.5677 75.6875 51.2344 75.5625 51.8281C75.4375 52.4115 75.3438 52.8021 75.2812 53L72.8125 60.2969H79.1562ZM64.5938 69L73.2969 46.125H78.8906L87.7188 69H82.1562L80.2969 64.1406H71.4375L69.8438 69H64.5938ZM95.0156 65.1875H96.9375C98.1667 65.1875 99.099 64.9219 99.7344 64.3906C100.37 63.849 100.688 63.0625 100.688 62.0312C100.688 61.0625 100.37 60.3229 99.7344 59.8125C99.1094 59.3021 98.1979 59.0469 97 59.0469H95.0156V65.1875ZM95.0156 55.2656H96.1094C97.5885 55.2656 98.6354 55.0573 99.25 54.6406C99.8646 54.224 100.172 53.526 100.172 52.5469C100.172 51.5885 99.875 50.9062 99.2812 50.5C98.6979 50.0938 97.6719 49.8906 96.2031 49.8906H95.0156V55.2656ZM90.125 69V46.125H94.4062C96.625 46.125 98.2448 46.2135 99.2656 46.3906C100.297 46.5573 101.188 46.8385 101.938 47.2344C102.823 47.7448 103.505 48.4167 103.984 49.25C104.474 50.0833 104.719 51.026 104.719 52.0781C104.719 53.4323 104.318 54.5208 103.516 55.3438C102.714 56.1562 101.516 56.6979 99.9219 56.9688C101.766 57.2396 103.156 57.8385 104.094 58.7656C105.042 59.6927 105.516 60.9271 105.516 62.4688C105.516 63.5938 105.245 64.625 104.703 65.5625C104.161 66.4896 103.417 67.2083 102.469 67.7188C101.625 68.1771 100.635 68.5052 99.5 68.7031C98.3646 68.901 96.4844 69 93.8594 69H93.3594H90.125ZM121.094 60.2969L118.531 52.9062C118.458 52.6875 118.365 52.3125 118.25 51.7812C118.135 51.25 118.016 50.599 117.891 49.8281C117.755 50.5677 117.625 51.2344 117.5 51.8281C117.375 52.4115 117.281 52.8021 117.219 53L114.75 60.2969H121.094ZM106.531 69L115.234 46.125H120.828L129.656 69H124.094L122.234 64.1406H113.375L111.781 69H106.531ZM141.344 46.125V61.1875C141.344 62.9062 141.276 64.1667 141.141 64.9688C141.005 65.7708 140.781 66.4531 140.469 67.0156C140.01 67.8698 139.333 68.5156 138.438 68.9531C137.552 69.3906 136.474 69.6094 135.203 69.6094C133.599 69.6094 132.312 69.2083 131.344 68.4062C130.385 67.6042 129.771 66.4271 129.5 64.875L133.047 63.1875C133.13 63.9062 133.312 64.4479 133.594 64.8125C133.885 65.1771 134.281 65.3594 134.781 65.3594C135.406 65.3594 135.839 65.1354 136.078 64.6875C136.318 64.2292 136.438 63.2135 136.438 61.6406V59.5938V46.125H141.344ZM158.125 60.2969L155.562 52.9062C155.49 52.6875 155.396 52.3125 155.281 51.7812C155.167 51.25 155.047 50.599 154.922 49.8281C154.786 50.5677 154.656 51.2344 154.531 51.8281C154.406 52.4115 154.312 52.8021 154.25 53L151.781 60.2969H158.125ZM143.562 69L152.266 46.125H157.859L166.688 69H161.125L159.266 64.1406H150.406L148.812 69H143.562ZM173.984 64.875H176.703C179.266 64.875 181.13 64.2917 182.297 63.125C183.474 61.9583 184.062 60.1094 184.062 57.5781C184.062 55.0573 183.474 53.2135 182.297 52.0469C181.13 50.8698 179.266 50.2812 176.703 50.2812H173.984V64.875ZM169.094 69V46.125H175.328C177.786 46.125 179.724 46.2969 181.141 46.6406C182.557 46.9844 183.802 47.5573 184.875 48.3594C186.26 49.3906 187.307 50.6927 188.016 52.2656C188.734 53.8281 189.094 55.6094 189.094 57.6094C189.094 59.6406 188.729 61.4427 188 63.0156C187.271 64.5781 186.203 65.8698 184.797 66.8906C183.755 67.6406 182.594 68.1823 181.312 68.5156C180.042 68.8385 178.177 69 175.719 69H173.984H169.094ZM216.609 57.6094C216.609 59.2448 216.302 60.7917 215.688 62.25C215.083 63.7083 214.208 64.9896 213.062 66.0938C211.875 67.2292 210.536 68.099 209.047 68.7031C207.557 69.3073 206.016 69.6094 204.422 69.6094C203.026 69.6094 201.656 69.375 200.312 68.9062C198.979 68.4271 197.755 67.7448 196.641 66.8594C195.203 65.7135 194.099 64.3438 193.328 62.75C192.568 61.1562 192.188 59.4427 192.188 57.6094C192.188 55.9635 192.49 54.4219 193.094 52.9844C193.698 51.5365 194.583 50.25 195.75 49.125C196.896 48.0104 198.224 47.1458 199.734 46.5312C201.255 45.9167 202.818 45.6094 204.422 45.6094C206.016 45.6094 207.562 45.9167 209.062 46.5312C210.573 47.1458 211.906 48.0104 213.062 49.125C214.219 50.25 215.099 51.5365 215.703 52.9844C216.307 54.4323 216.609 55.974 216.609 57.6094ZM204.422 65.25C206.495 65.25 208.203 64.526 209.547 63.0781C210.901 61.6198 211.578 59.7969 211.578 57.6094C211.578 55.4427 210.896 53.6198 209.531 52.1406C208.167 50.6615 206.464 49.9219 204.422 49.9219C202.349 49.9219 200.63 50.6615 199.266 52.1406C197.901 53.6094 197.219 55.4323 197.219 57.6094C197.219 59.8177 197.891 61.6458 199.234 63.0938C200.578 64.5312 202.307 65.25 204.422 65.25ZM237.297 69H231.656L225.641 58.3125V69H220.75V46.125H227.75C230.531 46.125 232.615 46.6667 234 47.75C235.385 48.8229 236.078 50.4427 236.078 52.6094C236.078 54.1823 235.604 55.526 234.656 56.6406C233.708 57.7552 232.484 58.4062 230.984 58.5938L237.297 69ZM225.641 55.875H226.375C228.354 55.875 229.661 55.6615 230.297 55.2344C230.932 54.7969 231.25 54.0417 231.25 52.9688C231.25 51.8438 230.906 51.0469 230.219 50.5781C229.542 50.099 228.26 49.8594 226.375 49.8594H225.641V55.875ZM240.156 69V46.125H253.625V50.25H245.047V54.9531H253.625V59.1094H245.047V64.8438H253.625V69H240.156ZM256.969 66.0938L259.688 63.0156C260.031 63.8594 260.583 64.526 261.344 65.0156C262.104 65.4948 262.958 65.7344 263.906 65.7344C265.052 65.7344 265.958 65.4635 266.625 64.9219C267.292 64.3802 267.625 63.651 267.625 62.7344C267.625 61.651 266.516 60.5729 264.297 59.5C263.578 59.1562 263.01 58.875 262.594 58.6562C260.594 57.6146 259.208 56.599 258.438 55.6094C257.667 54.6094 257.281 53.4219 257.281 52.0469C257.281 50.1615 258.026 48.6146 259.516 47.4062C261.016 46.1875 262.958 45.5781 265.344 45.5781C266.729 45.5781 267.922 45.8229 268.922 46.3125C269.932 46.7917 270.823 47.5469 271.594 48.5781L268.703 51.3438C268.359 50.6771 267.901 50.1823 267.328 49.8594C266.766 49.526 266.083 49.3594 265.281 49.3594C264.312 49.3594 263.531 49.6042 262.938 50.0938C262.344 50.5729 262.047 51.1979 262.047 51.9688C262.047 53.1771 263.224 54.2812 265.578 55.2812C266.047 55.4792 266.406 55.6354 266.656 55.75C268.594 56.6354 270.026 57.6354 270.953 58.75C271.891 59.8646 272.359 61.1354 272.359 62.5625C272.359 64.7083 271.625 66.4219 270.156 67.7031C268.698 68.974 266.734 69.6094 264.266 69.6094C262.516 69.6094 261.016 69.3073 259.766 68.7031C258.516 68.099 257.583 67.2292 256.969 66.0938ZM286.219 69V46.125H299.688V50.25H291.109V54.9531H299.688V59.1094H291.109V64.8438H299.688V69H286.219ZM304.5 69V46.125H309.578L319.703 59.4375C319.995 59.8125 320.312 60.3438 320.656 61.0312C321.01 61.7083 321.375 62.5104 321.75 63.4375C321.635 62.7604 321.552 62.0885 321.5 61.4219C321.448 60.7552 321.422 59.9219 321.422 58.9219V46.125H326.094V69H321.297L310.891 55.4375C310.599 55.0625 310.281 54.5365 309.938 53.8594C309.594 53.1719 309.229 52.3542 308.844 51.4062C308.958 52.0625 309.042 52.7292 309.094 53.4062C309.146 54.0729 309.172 54.9167 309.172 55.9375V69H304.5ZM35.4531 103.188H37.375C38.6042 103.188 39.5365 102.922 40.1719 102.391C40.8073 101.849 41.125 101.062 41.125 100.031C41.125 99.0625 40.8073 98.3229 40.1719 97.8125C39.5469 97.3021 38.6354 97.0469 37.4375 97.0469H35.4531V103.188ZM35.4531 93.2656H36.5469C38.026 93.2656 39.0729 93.0573 39.6875 92.6406C40.3021 92.224 40.6094 91.526 40.6094 90.5469C40.6094 89.5885 40.3125 88.9062 39.7188 88.5C39.1354 88.0938 38.1094 87.8906 36.6406 87.8906H35.4531V93.2656ZM30.5625 107V84.125H34.8438C37.0625 84.125 38.6823 84.2135 39.7031 84.3906C40.7344 84.5573 41.625 84.8385 42.375 85.2344C43.2604 85.7448 43.9427 86.4167 44.4219 87.25C44.9115 88.0833 45.1562 89.026 45.1562 90.0781C45.1562 91.4323 44.7552 92.5208 43.9531 93.3438C43.151 94.1562 41.9531 94.6979 40.3594 94.9688C42.2031 95.2396 43.5938 95.8385 44.5312 96.7656C45.4792 97.6927 45.9531 98.9271 45.9531 100.469C45.9531 101.594 45.6823 102.625 45.1406 103.562C44.599 104.49 43.8542 105.208 42.9062 105.719C42.0625 106.177 41.0729 106.505 39.9375 106.703C38.8021 106.901 36.9219 107 34.2969 107H33.7969H30.5625ZM69.3594 84.125V98.3594C69.3594 101.464 68.5417 103.781 66.9062 105.312C65.2708 106.844 62.8073 107.609 59.5156 107.609C56.1719 107.609 53.6823 106.844 52.0469 105.312C50.4115 103.781 49.5938 101.464 49.5938 98.3594V84.125H54.4531V97.5938C54.4531 99.4792 54.8698 100.901 55.7031 101.859C56.5365 102.807 57.7812 103.281 59.4375 103.281C61.1042 103.281 62.3646 102.802 63.2188 101.844C64.0729 100.885 64.5 99.4688 64.5 97.5938V84.125H69.3594ZM74.4375 107V84.125H87.9062V88.25H79.3281V92.9531H87.9062V97.1094H79.3281V102.844H87.9062V107H74.4375ZM92.7188 107V84.125H97.7969L107.922 97.4375C108.214 97.8125 108.531 98.3438 108.875 99.0312C109.229 99.7083 109.594 100.51 109.969 101.438C109.854 100.76 109.771 100.089 109.719 99.4219C109.667 98.7552 109.641 97.9219 109.641 96.9219V84.125H114.312V107H109.516L99.1094 93.4375C98.8177 93.0625 98.5 92.5365 98.1562 91.8594C97.8125 91.1719 97.4479 90.3542 97.0625 89.4062C97.1771 90.0625 97.2604 90.7292 97.3125 91.4062C97.3646 92.0729 97.3906 92.9167 97.3906 93.9375V107H92.7188ZM131.25 98.2969L128.688 90.9062C128.615 90.6875 128.521 90.3125 128.406 89.7812C128.292 89.25 128.172 88.599 128.047 87.8281C127.911 88.5677 127.781 89.2344 127.656 89.8281C127.531 90.4115 127.438 90.8021 127.375 91L124.906 98.2969H131.25ZM116.688 107L125.391 84.125H130.984L139.812 107H134.25L132.391 102.141H123.531L121.938 107H116.688ZM140.75 104.094L143.469 101.016C143.812 101.859 144.365 102.526 145.125 103.016C145.885 103.495 146.74 103.734 147.688 103.734C148.833 103.734 149.74 103.464 150.406 102.922C151.073 102.38 151.406 101.651 151.406 100.734C151.406 99.651 150.297 98.5729 148.078 97.5C147.359 97.1562 146.792 96.875 146.375 96.6562C144.375 95.6146 142.99 94.599 142.219 93.6094C141.448 92.6094 141.062 91.4219 141.062 90.0469C141.062 88.1615 141.807 86.6146 143.297 85.4062C144.797 84.1875 146.74 83.5781 149.125 83.5781C150.51 83.5781 151.703 83.8229 152.703 84.3125C153.714 84.7917 154.604 85.5469 155.375 86.5781L152.484 89.3438C152.141 88.6771 151.682 88.1823 151.109 87.8594C150.547 87.526 149.865 87.3594 149.062 87.3594C148.094 87.3594 147.312 87.6042 146.719 88.0938C146.125 88.5729 145.828 89.1979 145.828 89.9688C145.828 91.1771 147.005 92.2812 149.359 93.2812C149.828 93.4792 150.188 93.6354 150.438 93.75C152.375 94.6354 153.807 95.6354 154.734 96.75C155.672 97.8646 156.141 99.1354 156.141 100.562C156.141 102.708 155.406 104.422 153.938 105.703C152.479 106.974 150.516 107.609 148.047 107.609C146.297 107.609 144.797 107.307 143.547 106.703C142.297 106.099 141.365 105.229 140.75 104.094ZM168.016 107L171.5 84.125H176.625L181.031 97.5938C181.125 97.875 181.224 98.2865 181.328 98.8281C181.443 99.3698 181.547 99.9896 181.641 100.688C181.724 99.9792 181.818 99.349 181.922 98.7969C182.026 98.2344 182.125 97.8229 182.219 97.5625L186.703 84.125H191.75L195.25 107H190.609L188.938 93.2031C188.812 92.1823 188.729 91.4115 188.688 90.8906C188.646 90.3698 188.625 89.8854 188.625 89.4375C188.625 89.1979 188.625 89.0208 188.625 88.9062C188.635 88.7812 188.646 88.6719 188.656 88.5781C188.5 89.474 188.349 90.25 188.203 90.9062C188.068 91.5521 187.943 92.0417 187.828 92.375L182.984 107H180.234L175.469 92.375C175.427 92.2396 175.333 91.8646 175.188 91.25C175.052 90.6354 174.859 89.7396 174.609 88.5625V89.2344C174.609 90.2969 174.516 91.599 174.328 93.1406L174.312 93.2031L172.656 107H168.016ZM210.281 98.2969L207.719 90.9062C207.646 90.6875 207.552 90.3125 207.438 89.7812C207.323 89.25 207.203 88.599 207.078 87.8281C206.943 88.5677 206.812 89.2344 206.688 89.8281C206.562 90.4115 206.469 90.8021 206.406 91L203.938 98.2969H210.281ZM195.719 107L204.422 84.125H210.016L218.844 107H213.281L211.422 102.141H202.562L200.969 107H195.719ZM221.25 107V84.125H226.328L236.453 97.4375C236.745 97.8125 237.062 98.3438 237.406 99.0312C237.76 99.7083 238.125 100.51 238.5 101.438C238.385 100.76 238.302 100.089 238.25 99.4219C238.198 98.7552 238.172 97.9219 238.172 96.9219V84.125H242.844V107H238.047L227.641 93.4375C227.349 93.0625 227.031 92.5365 226.688 91.8594C226.344 91.1719 225.979 90.3542 225.594 89.4062C225.708 90.0625 225.792 90.7292 225.844 91.4062C225.896 92.0729 225.922 92.9167 225.922 93.9375V107H221.25ZM271.359 95.6094C271.359 97.2448 271.052 98.7917 270.438 100.25C269.833 101.708 268.958 102.99 267.812 104.094C266.625 105.229 265.286 106.099 263.797 106.703C262.307 107.307 260.766 107.609 259.172 107.609C257.776 107.609 256.406 107.375 255.062 106.906C253.729 106.427 252.505 105.745 251.391 104.859C249.953 103.714 248.849 102.344 248.078 100.75C247.318 99.1562 246.938 97.4427 246.938 95.6094C246.938 93.9635 247.24 92.4219 247.844 90.9844C248.448 89.5365 249.333 88.25 250.5 87.125C251.646 86.0104 252.974 85.1458 254.484 84.5312C256.005 83.9167 257.568 83.6094 259.172 83.6094C260.766 83.6094 262.312 83.9167 263.812 84.5312C265.323 85.1458 266.656 86.0104 267.812 87.125C268.969 88.25 269.849 89.5365 270.453 90.9844C271.057 92.4323 271.359 93.974 271.359 95.6094ZM259.172 103.25C261.245 103.25 262.953 102.526 264.297 101.078C265.651 99.6198 266.328 97.7969 266.328 95.6094C266.328 93.4427 265.646 91.6198 264.281 90.1406C262.917 88.6615 261.214 87.9219 259.172 87.9219C257.099 87.9219 255.38 88.6615 254.016 90.1406C252.651 91.6094 251.969 93.4323 251.969 95.6094C251.969 97.8177 252.641 99.6458 253.984 101.094C255.328 102.531 257.057 103.25 259.172 103.25ZM274.031 104.094L276.75 101.016C277.094 101.859 277.646 102.526 278.406 103.016C279.167 103.495 280.021 103.734 280.969 103.734C282.115 103.734 283.021 103.464 283.688 102.922C284.354 102.38 284.688 101.651 284.688 100.734C284.688 99.651 283.578 98.5729 281.359 97.5C280.641 97.1562 280.073 96.875 279.656 96.6562C277.656 95.6146 276.271 94.599 275.5 93.6094C274.729 92.6094 274.344 91.4219 274.344 90.0469C274.344 88.1615 275.089 86.6146 276.578 85.4062C278.078 84.1875 280.021 83.5781 282.406 83.5781C283.792 83.5781 284.984 83.8229 285.984 84.3125C286.995 84.7917 287.885 85.5469 288.656 86.5781L285.766 89.3438C285.422 88.6771 284.964 88.1823 284.391 87.8594C283.828 87.526 283.146 87.3594 282.344 87.3594C281.375 87.3594 280.594 87.6042 280 88.0938C279.406 88.5729 279.109 89.1979 279.109 89.9688C279.109 91.1771 280.286 92.2812 282.641 93.2812C283.109 93.4792 283.469 93.6354 283.719 93.75C285.656 94.6354 287.089 95.6354 288.016 96.75C288.953 97.8646 289.422 99.1354 289.422 100.562C289.422 102.708 288.688 104.422 287.219 105.703C285.76 106.974 283.797 107.609 281.328 107.609C279.578 107.609 278.078 107.307 276.828 106.703C275.578 106.099 274.646 105.229 274.031 104.094Z" fill="white"/>
<path d="M27 160H15C10.5817 160 7 156.418 7 152V94V28" stroke="white" stroke-width="1.5"/>
<circle cx="7" cy="21" r="6.25" stroke="white" stroke-width="1.5"/>
<rect x="25" y="136" width="242" height="65" rx="10" fill="#002A61"/>
<path d="M54.57 155.416V166H51.042V155.416H48.144V152.428H57.468V155.416H54.57ZM58.3445 156.766H61.6025V158.278C61.9505 157.726 62.3765 157.306 62.8805 157.018C63.3845 156.718 63.9725 156.568 64.6445 156.568C64.7285 156.568 64.8185 156.568 64.9145 156.568C65.0225 156.568 65.1425 156.58 65.2745 156.604V159.718C64.8425 159.502 64.3745 159.394 63.8705 159.394C63.1145 159.394 62.5445 159.622 62.1605 160.078C61.7885 160.522 61.6025 161.176 61.6025 162.04V166H58.3445V156.766ZM69.8588 161.356C69.8588 161.656 69.9128 161.938 70.0208 162.202C70.1288 162.454 70.2728 162.676 70.4528 162.868C70.6448 163.06 70.8668 163.21 71.1188 163.318C71.3828 163.426 71.6648 163.48 71.9648 163.48C72.2528 163.48 72.5228 163.426 72.7748 163.318C73.0388 163.21 73.2608 163.06 73.4408 162.868C73.6328 162.676 73.7828 162.454 73.8908 162.202C74.0108 161.95 74.0708 161.68 74.0708 161.392C74.0708 161.104 74.0108 160.834 73.8908 160.582C73.7828 160.318 73.6328 160.09 73.4408 159.898C73.2608 159.706 73.0388 159.556 72.7748 159.448C72.5228 159.34 72.2528 159.286 71.9648 159.286C71.6648 159.286 71.3828 159.34 71.1188 159.448C70.8668 159.556 70.6448 159.706 70.4528 159.898C70.2728 160.09 70.1288 160.312 70.0208 160.564C69.9128 160.804 69.8588 161.068 69.8588 161.356ZM73.9628 156.766H77.2388V166H73.9628V164.974C73.2668 165.85 72.3248 166.288 71.1368 166.288C70.4648 166.288 69.8468 166.168 69.2828 165.928C68.7188 165.676 68.2268 165.328 67.8068 164.884C67.3868 164.44 67.0568 163.918 66.8168 163.318C66.5888 162.718 66.4748 162.064 66.4748 161.356C66.4748 160.696 66.5888 160.072 66.8168 159.484C67.0448 158.884 67.3628 158.362 67.7708 157.918C68.1788 157.474 68.6648 157.126 69.2288 156.874C69.7928 156.61 70.4168 156.478 71.1008 156.478C72.2528 156.478 73.2068 156.88 73.9628 157.684V156.766ZM79.4558 156.766H82.7138V157.936C83.1578 157.396 83.6078 157.036 84.0638 156.856C84.5198 156.664 85.0538 156.568 85.6658 156.568C86.3138 156.568 86.8658 156.676 87.3218 156.892C87.7898 157.096 88.1858 157.39 88.5098 157.774C88.7738 158.086 88.9538 158.434 89.0498 158.818C89.1458 159.202 89.1938 159.64 89.1938 160.132V166H85.9358V161.338C85.9358 160.882 85.8998 160.516 85.8278 160.24C85.7678 159.952 85.6538 159.724 85.4858 159.556C85.3418 159.412 85.1798 159.31 84.9998 159.25C84.8198 159.19 84.6278 159.16 84.4238 159.16C83.8718 159.16 83.4458 159.328 83.1458 159.664C82.8578 159.988 82.7138 160.456 82.7138 161.068V166H79.4558V156.766ZM97.529 159.142C96.929 158.83 96.341 158.674 95.765 158.674C95.465 158.674 95.219 158.734 95.027 158.854C94.847 158.974 94.757 159.136 94.757 159.34C94.757 159.448 94.769 159.538 94.793 159.61C94.829 159.67 94.895 159.73 94.991 159.79C95.099 159.85 95.249 159.904 95.441 159.952C95.645 160 95.909 160.06 96.233 160.132C97.133 160.312 97.805 160.636 98.249 161.104C98.693 161.56 98.915 162.148 98.915 162.868C98.915 163.408 98.807 163.894 98.591 164.326C98.375 164.758 98.075 165.124 97.691 165.424C97.307 165.712 96.845 165.934 96.305 166.09C95.765 166.258 95.171 166.342 94.523 166.342C93.275 166.342 92.045 165.988 90.833 165.28L92.021 162.976C92.933 163.6 93.797 163.912 94.613 163.912C94.913 163.912 95.159 163.846 95.351 163.714C95.543 163.582 95.639 163.414 95.639 163.21C95.639 163.09 95.621 162.994 95.585 162.922C95.561 162.838 95.501 162.766 95.405 162.706C95.309 162.634 95.165 162.574 94.973 162.526C94.793 162.466 94.553 162.406 94.253 162.346C93.245 162.142 92.537 161.842 92.129 161.446C91.733 161.038 91.535 160.48 91.535 159.772C91.535 159.256 91.631 158.794 91.823 158.386C92.015 157.966 92.291 157.612 92.651 157.324C93.011 157.036 93.443 156.814 93.947 156.658C94.463 156.502 95.033 156.424 95.657 156.424C96.677 156.424 97.667 156.622 98.627 157.018L97.529 159.142ZM100.837 156.766V155.056C100.837 154.456 100.963 153.892 101.215 153.364C101.479 152.824 101.827 152.356 102.259 151.96C102.703 151.564 103.213 151.252 103.789 151.024C104.377 150.784 104.995 150.664 105.643 150.664C106.291 150.664 106.903 150.778 107.479 151.006C108.067 151.234 108.577 151.546 109.009 151.942C109.453 152.338 109.801 152.806 110.053 153.346C110.317 153.874 110.449 154.444 110.449 155.056V155.47H107.191V155.056C107.191 154.84 107.149 154.636 107.065 154.444C106.993 154.24 106.885 154.06 106.741 153.904C106.609 153.748 106.447 153.622 106.255 153.526C106.075 153.43 105.871 153.382 105.643 153.382C105.199 153.382 104.827 153.55 104.527 153.886C104.239 154.222 104.095 154.612 104.095 155.056V156.766H105.967V159.484H104.095V166H100.837V159.484H99.6672V156.766H100.837ZM110.449 166H107.191V156.766H110.449V166ZM119.429 160.042C119.321 159.586 119.099 159.22 118.763 158.944C118.427 158.668 118.019 158.53 117.539 158.53C117.035 158.53 116.621 158.662 116.297 158.926C115.985 159.19 115.787 159.562 115.703 160.042H119.429ZM115.613 161.932C115.613 163.336 116.273 164.038 117.593 164.038C118.301 164.038 118.835 163.75 119.195 163.174H122.345C121.709 165.286 120.119 166.342 117.575 166.342C116.795 166.342 116.081 166.228 115.433 166C114.785 165.76 114.227 165.424 113.759 164.992C113.303 164.56 112.949 164.044 112.697 163.444C112.445 162.844 112.319 162.172 112.319 161.428C112.319 160.66 112.439 159.97 112.679 159.358C112.919 158.734 113.261 158.206 113.705 157.774C114.149 157.342 114.683 157.012 115.307 156.784C115.943 156.544 116.657 156.424 117.449 156.424C118.229 156.424 118.931 156.544 119.555 156.784C120.179 157.012 120.707 157.348 121.139 157.792C121.571 158.236 121.901 158.782 122.129 159.43C122.357 160.066 122.471 160.786 122.471 161.59V161.932H115.613ZM124.333 156.766H127.591V158.278C127.939 157.726 128.365 157.306 128.869 157.018C129.373 156.718 129.961 156.568 130.633 156.568C130.717 156.568 130.807 156.568 130.903 156.568C131.011 156.568 131.131 156.58 131.263 156.604V159.718C130.831 159.502 130.363 159.394 129.859 159.394C129.103 159.394 128.533 159.622 128.149 160.078C127.777 160.522 127.591 161.176 127.591 162.04V166H124.333V156.766ZM139.573 160.042C139.465 159.586 139.243 159.22 138.907 158.944C138.571 158.668 138.163 158.53 137.683 158.53C137.179 158.53 136.765 158.662 136.441 158.926C136.129 159.19 135.931 159.562 135.847 160.042H139.573ZM135.757 161.932C135.757 163.336 136.417 164.038 137.737 164.038C138.445 164.038 138.979 163.75 139.339 163.174H142.489C141.853 165.286 140.263 166.342 137.719 166.342C136.939 166.342 136.225 166.228 135.577 166C134.929 165.76 134.371 165.424 133.903 164.992C133.447 164.56 133.093 164.044 132.841 163.444C132.589 162.844 132.463 162.172 132.463 161.428C132.463 160.66 132.583 159.97 132.823 159.358C133.063 158.734 133.405 158.206 133.849 157.774C134.293 157.342 134.827 157.012 135.451 156.784C136.087 156.544 136.801 156.424 137.593 156.424C138.373 156.424 139.075 156.544 139.699 156.784C140.323 157.012 140.851 157.348 141.283 157.792C141.715 158.236 142.045 158.782 142.273 159.43C142.501 160.066 142.615 160.786 142.615 161.59V161.932H135.757ZM154.231 159.484V166H150.973V159.484H149.893V156.766H150.973V153.994H154.231V156.766H156.085V159.484H154.231ZM160.567 156.766V161.968C160.567 163.108 161.119 163.678 162.223 163.678C163.327 163.678 163.879 163.108 163.879 161.968V156.766H167.137V162.598C167.137 163.846 166.723 164.782 165.895 165.406C165.079 166.03 163.855 166.342 162.223 166.342C160.591 166.342 159.361 166.03 158.533 165.406C157.717 164.782 157.309 163.846 157.309 162.598V156.766H160.567ZM175.47 159.142C174.87 158.83 174.282 158.674 173.706 158.674C173.406 158.674 173.16 158.734 172.968 158.854C172.788 158.974 172.698 159.136 172.698 159.34C172.698 159.448 172.71 159.538 172.734 159.61C172.77 159.67 172.836 159.73 172.932 159.79C173.04 159.85 173.19 159.904 173.382 159.952C173.586 160 173.85 160.06 174.174 160.132C175.074 160.312 175.746 160.636 176.19 161.104C176.634 161.56 176.856 162.148 176.856 162.868C176.856 163.408 176.748 163.894 176.532 164.326C176.316 164.758 176.016 165.124 175.632 165.424C175.248 165.712 174.786 165.934 174.246 166.09C173.706 166.258 173.112 166.342 172.464 166.342C171.216 166.342 169.986 165.988 168.774 165.28L169.962 162.976C170.874 163.6 171.738 163.912 172.554 163.912C172.854 163.912 173.1 163.846 173.292 163.714C173.484 163.582 173.58 163.414 173.58 163.21C173.58 163.09 173.562 162.994 173.526 162.922C173.502 162.838 173.442 162.766 173.346 162.706C173.25 162.634 173.106 162.574 172.914 162.526C172.734 162.466 172.494 162.406 172.194 162.346C171.186 162.142 170.478 161.842 170.07 161.446C169.674 161.038 169.476 160.48 169.476 159.772C169.476 159.256 169.572 158.794 169.764 158.386C169.956 157.966 170.232 157.612 170.592 157.324C170.952 157.036 171.384 156.814 171.888 156.658C172.404 156.502 172.974 156.424 173.598 156.424C174.618 156.424 175.608 156.622 176.568 157.018L175.47 159.142ZM188.154 159.484V166H184.896V159.484H183.726V156.766H184.896V155.38C184.896 154.612 184.968 154 185.112 153.544C185.232 153.16 185.424 152.806 185.688 152.482C185.952 152.146 186.258 151.858 186.606 151.618C186.966 151.378 187.35 151.192 187.758 151.06C188.166 150.928 188.568 150.862 188.964 150.862C189.24 150.862 189.492 150.892 189.72 150.952C189.96 151.012 190.2 151.096 190.44 151.204V154.048C190.224 153.94 190.02 153.862 189.828 153.814C189.648 153.754 189.456 153.724 189.252 153.724C189.12 153.724 188.982 153.748 188.838 153.796C188.706 153.832 188.58 153.916 188.46 154.048C188.34 154.18 188.256 154.372 188.208 154.624C188.172 154.864 188.154 155.194 188.154 155.614V156.766H190.44V159.484H188.154ZM194.893 161.338C194.893 161.65 194.947 161.938 195.055 162.202C195.175 162.454 195.325 162.676 195.505 162.868C195.697 163.06 195.919 163.21 196.171 163.318C196.435 163.426 196.711 163.48 196.999 163.48C197.287 163.48 197.557 163.426 197.809 163.318C198.073 163.21 198.295 163.06 198.475 162.868C198.667 162.676 198.817 162.454 198.925 162.202C199.045 161.938 199.105 161.656 199.105 161.356C199.105 161.068 199.045 160.798 198.925 160.546C198.817 160.282 198.667 160.054 198.475 159.862C198.295 159.67 198.073 159.52 197.809 159.412C197.557 159.304 197.287 159.25 196.999 159.25C196.711 159.25 196.435 159.304 196.171 159.412C195.919 159.52 195.697 159.67 195.505 159.862C195.325 160.054 195.175 160.276 195.055 160.528C194.947 160.78 194.893 161.05 194.893 161.338ZM191.455 161.302C191.455 160.618 191.593 159.982 191.869 159.394C192.145 158.794 192.529 158.278 193.021 157.846C193.513 157.402 194.095 157.054 194.767 156.802C195.451 156.55 196.195 156.424 196.999 156.424C197.791 156.424 198.523 156.55 199.195 156.802C199.879 157.042 200.467 157.384 200.959 157.828C201.463 158.26 201.853 158.782 202.129 159.394C202.405 159.994 202.543 160.66 202.543 161.392C202.543 162.124 202.399 162.796 202.111 163.408C201.835 164.008 201.451 164.53 200.959 164.974C200.467 165.406 199.873 165.742 199.177 165.982C198.493 166.222 197.749 166.342 196.945 166.342C196.153 166.342 195.421 166.222 194.749 165.982C194.077 165.742 193.495 165.4 193.003 164.956C192.523 164.512 192.145 163.984 191.869 163.372C191.593 162.748 191.455 162.058 191.455 161.302ZM204.419 156.766H207.677V157.936C208.121 157.396 208.571 157.036 209.027 156.856C209.483 156.664 210.017 156.568 210.629 156.568C211.277 156.568 211.829 156.676 212.285 156.892C212.753 157.096 213.149 157.39 213.473 157.774C213.737 158.086 213.917 158.434 214.013 158.818C214.109 159.202 214.157 159.64 214.157 160.132V166H210.899V161.338C210.899 160.882 210.863 160.516 210.791 160.24C210.731 159.952 210.617 159.724 210.449 159.556C210.305 159.412 210.143 159.31 209.963 159.25C209.783 159.19 209.591 159.16 209.387 159.16C208.835 159.16 208.409 159.328 208.109 159.664C207.821 159.988 207.677 160.456 207.677 161.068V166H204.419V156.766ZM219.396 161.356C219.396 161.656 219.45 161.938 219.558 162.202C219.666 162.454 219.81 162.676 219.99 162.868C220.182 163.06 220.404 163.21 220.656 163.318C220.92 163.426 221.202 163.48 221.502 163.48C221.79 163.48 222.06 163.426 222.312 163.318C222.576 163.21 222.798 163.06 222.978 162.868C223.17 162.676 223.32 162.454 223.428 162.202C223.548 161.95 223.608 161.68 223.608 161.392C223.608 161.104 223.548 160.834 223.428 160.582C223.32 160.318 223.17 160.09 222.978 159.898C222.798 159.706 222.576 159.556 222.312 159.448C222.06 159.34 221.79 159.286 221.502 159.286C221.214 159.286 220.938 159.34 220.674 159.448C220.422 159.556 220.2 159.706 220.008 159.898C219.828 160.09 219.678 160.312 219.558 160.564C219.45 160.804 219.396 161.068 219.396 161.356ZM223.5 151.06H226.776V166H223.5V164.974C222.804 165.85 221.862 166.288 220.674 166.288C220.002 166.288 219.384 166.162 218.82 165.91C218.256 165.658 217.764 165.31 217.344 164.866C216.924 164.422 216.594 163.9 216.354 163.3C216.126 162.7 216.012 162.052 216.012 161.356C216.012 160.696 216.12 160.072 216.336 159.484C216.564 158.884 216.882 158.362 217.29 157.918C217.698 157.474 218.184 157.126 218.748 156.874C219.324 156.61 219.954 156.478 220.638 156.478C221.79 156.478 222.744 156.88 223.5 157.684V151.06ZM232.071 161.338C232.071 161.65 232.125 161.938 232.233 162.202C232.353 162.454 232.503 162.676 232.683 162.868C232.875 163.06 233.097 163.21 233.349 163.318C233.613 163.426 233.889 163.48 234.177 163.48C234.465 163.48 234.735 163.426 234.987 163.318C235.251 163.21 235.473 163.06 235.653 162.868C235.845 162.676 235.995 162.454 236.103 162.202C236.223 161.938 236.283 161.656 236.283 161.356C236.283 161.068 236.223 160.798 236.103 160.546C235.995 160.282 235.845 160.054 235.653 159.862C235.473 159.67 235.251 159.52 234.987 159.412C234.735 159.304 234.465 159.25 234.177 159.25C233.889 159.25 233.613 159.304 233.349 159.412C233.097 159.52 232.875 159.67 232.683 159.862C232.503 160.054 232.353 160.276 232.233 160.528C232.125 160.78 232.071 161.05 232.071 161.338ZM228.633 161.302C228.633 160.618 228.771 159.982 229.047 159.394C229.323 158.794 229.707 158.278 230.199 157.846C230.691 157.402 231.273 157.054 231.945 156.802C232.629 156.55 233.373 156.424 234.177 156.424C234.969 156.424 235.701 156.55 236.373 156.802C237.057 157.042 237.645 157.384 238.137 157.828C238.641 158.26 239.031 158.782 239.307 159.394C239.583 159.994 239.721 160.66 239.721 161.392C239.721 162.124 239.577 162.796 239.289 163.408C239.013 164.008 238.629 164.53 238.137 164.974C237.645 165.406 237.051 165.742 236.355 165.982C235.671 166.222 234.927 166.342 234.123 166.342C233.331 166.342 232.599 166.222 231.927 165.982C231.255 165.742 230.673 165.4 230.181 164.956C229.701 164.512 229.323 163.984 229.047 163.372C228.771 162.748 228.633 162.058 228.633 161.302ZM247.716 159.142C247.116 158.83 246.528 158.674 245.952 158.674C245.652 158.674 245.406 158.734 245.214 158.854C245.034 158.974 244.944 159.136 244.944 159.34C244.944 159.448 244.956 159.538 244.98 159.61C245.016 159.67 245.082 159.73 245.178 159.79C245.286 159.85 245.436 159.904 245.628 159.952C245.832 160 246.096 160.06 246.42 160.132C247.32 160.312 247.992 160.636 248.436 161.104C248.88 161.56 249.102 162.148 249.102 162.868C249.102 163.408 248.994 163.894 248.778 164.326C248.562 164.758 248.262 165.124 247.878 165.424C247.494 165.712 247.032 165.934 246.492 166.09C245.952 166.258 245.358 166.342 244.71 166.342C243.462 166.342 242.232 165.988 241.02 165.28L242.208 162.976C243.12 163.6 243.984 163.912 244.8 163.912C245.1 163.912 245.346 163.846 245.538 163.714C245.73 163.582 245.826 163.414 245.826 163.21C245.826 163.09 245.808 162.994 245.772 162.922C245.748 162.838 245.688 162.766 245.592 162.706C245.496 162.634 245.352 162.574 245.16 162.526C244.98 162.466 244.74 162.406 244.44 162.346C243.432 162.142 242.724 161.842 242.316 161.446C241.92 161.038 241.722 160.48 241.722 159.772C241.722 159.256 241.818 158.794 242.01 158.386C242.202 157.966 242.478 157.612 242.838 157.324C243.198 157.036 243.63 156.814 244.134 156.658C244.65 156.502 245.22 156.424 245.844 156.424C246.864 156.424 247.854 156.622 248.814 157.018L247.716 159.142ZM55.65 178.152C54.894 177.612 53.958 177.306 53.04 177.306C50.556 177.306 48.522 179.25 48.522 181.77C48.522 184.326 50.466 186.234 53.022 186.234C54.03 186.234 54.876 185.928 55.704 185.37V183.444H55.668C54.966 184.362 54.12 184.902 52.914 184.902C51.15 184.902 49.998 183.444 49.998 181.77C49.998 180.078 51.24 178.638 52.986 178.638C54.12 178.638 54.948 179.214 55.614 180.06H55.65V178.152ZM59.2605 177.54H57.8205V182.418C57.8205 184.668 58.6665 186.234 61.1685 186.234C63.6705 186.234 64.5165 184.668 64.5165 182.418V177.54H63.0765V182.256C63.0765 183.678 62.9145 184.902 61.1685 184.902C59.4225 184.902 59.2605 183.678 59.2605 182.256V177.54ZM70.6495 178.638C72.4315 178.638 73.4935 180.006 73.4935 181.698C73.4935 183.408 72.5215 184.902 70.6675 184.902C68.8675 184.902 67.8955 183.336 67.8955 181.68C67.8955 180.096 68.9755 178.638 70.6495 178.638ZM74.8615 177.54H73.4215V178.746H73.3855C72.6835 177.846 71.6395 177.306 70.4875 177.306C67.9495 177.306 66.4195 179.376 66.4195 181.788C66.4195 184.128 67.9855 186.234 70.4695 186.234C71.6575 186.234 72.6475 185.766 73.3855 184.83H73.4215V186H74.8615V177.54ZM78.9682 177.54H77.5282V186H78.9682V181.986C78.9682 180.474 79.0942 178.638 81.0742 178.638C82.7482 178.638 82.8562 179.862 82.8562 181.23V186H84.2962V180.978C84.2962 178.998 83.7562 177.306 81.4162 177.306C80.3722 177.306 79.5982 177.756 79.0042 178.566H78.9682V177.54ZM90.5479 178.638C92.3299 178.638 93.3919 180.006 93.3919 181.698C93.3919 183.408 92.4199 184.902 90.5659 184.902C88.7659 184.902 87.7939 183.336 87.7939 181.68C87.7939 180.096 88.8739 178.638 90.5479 178.638ZM93.3199 186H94.7599V171.15H93.3199V178.746H93.2839C92.5999 177.846 91.5199 177.306 90.3859 177.306C87.8479 177.306 86.3179 179.376 86.3179 181.788C86.3179 184.128 87.8839 186.234 90.3679 186.234C91.5199 186.234 92.5819 185.748 93.2839 184.83H93.3199V186ZM101.117 186.234C103.583 186.234 105.563 184.272 105.563 181.788C105.563 179.304 103.601 177.306 101.117 177.306C98.6326 177.306 96.6706 179.304 96.6706 181.788C96.6706 184.272 98.6506 186.234 101.117 186.234ZM101.117 178.638C102.899 178.638 104.123 180.06 104.123 181.77C104.123 183.498 102.899 184.902 101.117 184.902C99.3346 184.902 98.1106 183.498 98.1106 181.77C98.1106 180.06 99.3346 178.638 101.117 178.638ZM116.581 178.638C118.363 178.638 119.425 180.006 119.425 181.698C119.425 183.408 118.453 184.902 116.599 184.902C114.799 184.902 113.827 183.336 113.827 181.68C113.827 180.096 114.907 178.638 116.581 178.638ZM120.793 177.54H119.353V178.746H119.317C118.615 177.81 117.553 177.306 116.401 177.306C113.899 177.306 112.351 179.448 112.351 181.806C112.351 184.2 113.881 186.234 116.419 186.234C117.553 186.234 118.633 185.73 119.317 184.812H119.353V190.752H120.793V177.54ZM124.792 177.54H123.352V182.418C123.352 184.668 124.198 186.234 126.7 186.234C129.202 186.234 130.048 184.668 130.048 182.418V177.54H128.608V182.256C128.608 183.678 128.446 184.902 126.7 184.902C124.954 184.902 124.792 183.678 124.792 182.256V177.54ZM134.381 177.54H132.941V186H134.381V177.54ZM133.661 173.328C133.103 173.328 132.635 173.796 132.635 174.354C132.635 174.93 133.103 175.38 133.661 175.38C134.219 175.38 134.687 174.93 134.687 174.354C134.687 173.796 134.219 173.328 133.661 173.328ZM144.744 182.076C144.888 179.556 143.448 177.306 140.73 177.306C138.084 177.306 136.626 179.376 136.626 181.878C136.626 184.308 138.246 186.234 140.766 186.234C142.494 186.234 143.862 185.37 144.672 183.858L143.448 183.156C142.89 184.164 142.098 184.902 140.874 184.902C139.236 184.902 138.12 183.642 138.102 182.076H144.744ZM138.174 180.852C138.354 179.628 139.506 178.638 140.748 178.638C142.008 178.638 143.034 179.628 143.232 180.852H138.174ZM148.084 177.54H146.644V186H148.084V181.77C148.084 180.672 148.156 178.638 149.74 178.638C150.118 178.638 150.316 178.818 150.604 179.016L151.288 177.702C150.874 177.468 150.478 177.306 149.992 177.306C149.056 177.306 148.624 177.792 148.12 178.458H148.084V177.54ZM156.255 178.638C158.037 178.638 159.099 180.006 159.099 181.698C159.099 183.408 158.127 184.902 156.273 184.902C154.473 184.902 153.501 183.336 153.501 181.68C153.501 180.096 154.581 178.638 156.255 178.638ZM160.467 177.54H159.027V178.746H158.991C158.289 177.846 157.245 177.306 156.093 177.306C153.555 177.306 152.025 179.376 152.025 181.788C152.025 184.128 153.591 186.234 156.075 186.234C157.263 186.234 158.253 185.766 158.991 184.83H159.027V186H160.467V177.54ZM167.76 178.872C167.382 177.99 166.482 177.306 165.51 177.306C164.142 177.306 162.99 178.278 162.99 179.7C162.99 182.364 166.806 181.716 166.806 183.606C166.806 184.38 166.212 184.902 165.438 184.902C164.484 184.902 164.07 184.344 163.71 183.552L162.432 184.092C162.882 185.424 163.998 186.234 165.42 186.234C166.986 186.234 168.282 185.082 168.282 183.48C168.282 182.058 167.31 181.464 166.32 181.05C165.33 180.636 164.358 180.348 164.358 179.574C164.358 179.034 164.898 178.638 165.402 178.638C165.924 178.638 166.356 179.052 166.554 179.502L167.76 178.872Z" fill="white"/>
</svg>
