<svg width="550" height="230" viewBox="0 0 550 230" fill="none" xmlns="http://www.w3.org/2000/svg">
<path d="M26.744 183H14.686C10.2678 183 6.68604 179.418 6.68604 175V14" stroke="white" stroke-width="1.5"/>
<path d="M12.622 7.0784C12.622 10.6144 9.92461 13.4068 6.68598 13.4068C3.44736 13.4068 0.75 10.6144 0.75 7.0784C0.75 3.54244 3.44736 0.75 6.68598 0.75C9.92461 0.75 12.622 3.54244 12.622 7.0784Z" stroke="white" stroke-width="1.5"/>
<rect x="25" y="161" width="264" height="69" rx="16" fill="#002A61"/>
<path d="M47.6162 178.007L45.5684 182.744H49.6641L47.6162 178.007ZM47.6162 174.623L53.4697 188H51.8086L50.1387 184.054H45.1113L43.4414 188H41.7803L47.6162 174.623ZM55.9834 184.001C55.9834 184.903 56.2324 185.627 56.7305 186.172C57.2285 186.717 57.8877 186.989 58.708 186.989C59.5107 186.989 60.1406 186.74 60.5977 186.242C61.0605 185.744 61.292 185.053 61.292 184.168C61.292 183.178 61.0605 182.401 60.5977 181.839C60.1406 181.276 59.502 180.995 58.6816 180.995C57.8438 180.995 57.1846 181.262 56.7041 181.795C56.2236 182.328 55.9834 183.063 55.9834 184.001ZM54.6562 191.92V179.958H55.9658V181.47C56.2764 180.89 56.6865 180.444 57.1963 180.134C57.7061 179.823 58.2744 179.668 58.9014 179.668C60.0615 179.668 60.9932 180.063 61.6963 180.854C62.3994 181.646 62.751 182.694 62.751 184.001C62.751 185.331 62.4053 186.389 61.7139 187.174C61.0283 187.953 60.1084 188.343 58.9541 188.343C58.292 188.343 57.7148 188.193 57.2227 187.895C56.7305 187.59 56.3291 187.139 56.0186 186.541V191.92H54.6562ZM65.7656 184.001C65.7656 184.851 66.0498 185.571 66.6182 186.163C67.1865 186.749 67.875 187.042 68.6836 187.042C69.4863 187.042 70.1689 186.749 70.7314 186.163C71.2939 185.571 71.5752 184.851 71.5752 184.001C71.5752 183.151 71.2939 182.434 70.7314 181.848C70.1689 181.256 69.4863 180.96 68.6836 180.96C67.8691 180.96 67.1777 181.256 66.6094 181.848C66.0469 182.434 65.7656 183.151 65.7656 184.001ZM64.3066 184.001C64.3066 183.409 64.415 182.853 64.6318 182.331C64.8486 181.804 65.165 181.335 65.5811 180.925C65.9971 180.515 66.4688 180.204 66.9961 179.993C67.5234 179.776 68.0859 179.668 68.6836 179.668C69.2695 179.668 69.8232 179.776 70.3447 179.993C70.8721 180.21 71.3496 180.526 71.7773 180.942C72.1934 181.347 72.5098 181.812 72.7266 182.34C72.9434 182.861 73.0518 183.415 73.0518 184.001C73.0518 184.587 72.9434 185.141 72.7266 185.662C72.5098 186.178 72.1934 186.638 71.7773 187.042C71.3496 187.464 70.8691 187.786 70.3359 188.009C69.8086 188.231 69.2578 188.343 68.6836 188.343C68.0918 188.343 67.5293 188.231 66.9961 188.009C66.4688 187.792 65.9971 187.479 65.5811 187.068C65.165 186.646 64.8486 186.178 64.6318 185.662C64.415 185.146 64.3066 184.593 64.3066 184.001ZM74.8799 191.92L77.0596 187.209L73.9043 179.958H75.4951L77.833 185.732L80.3115 179.958H81.8232L76.4268 191.92H74.8799ZM89.2852 184.054C89.2852 183.146 89.0361 182.416 88.5381 181.865C88.0459 181.309 87.4014 181.03 86.6045 181.03C85.7783 181.03 85.1338 181.285 84.6709 181.795C84.208 182.305 83.9766 183.017 83.9766 183.931C83.9766 184.903 84.208 185.653 84.6709 186.181C85.1396 186.708 85.8018 186.972 86.6572 186.972C87.4775 186.972 88.1191 186.717 88.582 186.207C89.0508 185.691 89.2852 184.974 89.2852 184.054ZM90.6211 179.958V188H89.2852V186.541C88.9629 187.127 88.5498 187.575 88.0459 187.886C87.5479 188.19 86.9883 188.343 86.3672 188.343C85.2129 188.343 84.2812 187.947 83.5723 187.156C82.8691 186.359 82.5176 185.308 82.5176 184.001C82.5176 182.677 82.8604 181.625 83.5459 180.846C84.2314 180.061 85.1484 179.668 86.2969 179.668C86.9707 179.668 87.5537 179.82 88.0459 180.125C88.5439 180.424 88.9453 180.872 89.25 181.47V179.958H90.6211ZM104.578 188V183.263C104.578 182.448 104.414 181.845 104.086 181.452C103.758 181.054 103.254 180.854 102.574 180.854C102.205 180.854 101.862 180.931 101.546 181.083C101.235 181.229 100.972 181.44 100.755 181.716C100.597 181.927 100.482 182.173 100.412 182.454C100.342 182.735 100.307 183.198 100.307 183.843V188H98.9795V183.263C98.9795 182.448 98.8154 181.845 98.4873 181.452C98.1592 181.054 97.6553 180.854 96.9756 180.854C96.6064 180.854 96.2607 180.931 95.9385 181.083C95.6221 181.229 95.3555 181.44 95.1387 181.716C94.9863 181.921 94.875 182.158 94.8047 182.428C94.7402 182.697 94.708 183.169 94.708 183.843V188H93.3809V179.958H94.7256V181.197C95.0596 180.682 95.458 180.298 95.9209 180.046C96.3838 179.794 96.917 179.668 97.5205 179.668C98.1709 179.668 98.7246 179.809 99.1816 180.09C99.6387 180.365 99.9844 180.77 100.219 181.303C100.564 180.752 100.972 180.342 101.44 180.072C101.915 179.803 102.463 179.668 103.084 179.668C103.98 179.668 104.681 179.92 105.185 180.424C105.688 180.928 105.94 181.628 105.94 182.524V188H104.578ZM109.465 184.001C109.465 184.851 109.749 185.571 110.317 186.163C110.886 186.749 111.574 187.042 112.383 187.042C113.186 187.042 113.868 186.749 114.431 186.163C114.993 185.571 115.274 184.851 115.274 184.001C115.274 183.151 114.993 182.434 114.431 181.848C113.868 181.256 113.186 180.96 112.383 180.96C111.568 180.96 110.877 181.256 110.309 181.848C109.746 182.434 109.465 183.151 109.465 184.001ZM108.006 184.001C108.006 183.409 108.114 182.853 108.331 182.331C108.548 181.804 108.864 181.335 109.28 180.925C109.696 180.515 110.168 180.204 110.695 179.993C111.223 179.776 111.785 179.668 112.383 179.668C112.969 179.668 113.522 179.776 114.044 179.993C114.571 180.21 115.049 180.526 115.477 180.942C115.893 181.347 116.209 181.812 116.426 182.34C116.643 182.861 116.751 183.415 116.751 184.001C116.751 184.587 116.643 185.141 116.426 185.662C116.209 186.178 115.893 186.638 115.477 187.042C115.049 187.464 114.568 187.786 114.035 188.009C113.508 188.231 112.957 188.343 112.383 188.343C111.791 188.343 111.229 188.231 110.695 188.009C110.168 187.792 109.696 187.479 109.28 187.068C108.864 186.646 108.548 186.178 108.331 185.662C108.114 185.146 108.006 184.593 108.006 184.001ZM118.052 186.646L119.229 185.855C119.452 186.283 119.733 186.605 120.073 186.822C120.413 187.033 120.814 187.139 121.277 187.139C121.729 187.139 122.092 187.027 122.367 186.805C122.648 186.582 122.789 186.289 122.789 185.926C122.789 185.645 122.692 185.41 122.499 185.223C122.312 185.035 121.986 184.862 121.523 184.704C121.477 184.687 121.4 184.66 121.295 184.625C119.338 183.951 118.359 183.107 118.359 182.094C118.359 181.379 118.623 180.796 119.15 180.345C119.678 179.894 120.363 179.668 121.207 179.668C121.904 179.668 122.502 179.809 123 180.09C123.498 180.365 123.855 180.758 124.072 181.268L122.956 181.953C122.792 181.584 122.549 181.3 122.227 181.101C121.91 180.901 121.541 180.802 121.119 180.802C120.715 180.802 120.384 180.916 120.126 181.145C119.874 181.367 119.748 181.654 119.748 182.006C119.748 182.498 120.281 182.911 121.348 183.245C121.547 183.31 121.705 183.359 121.822 183.395C122.695 183.676 123.302 183.998 123.642 184.361C123.987 184.719 124.16 185.193 124.16 185.785C124.16 186.547 123.888 187.165 123.343 187.64C122.804 188.108 122.098 188.343 121.225 188.343C120.475 188.343 119.836 188.202 119.309 187.921C118.787 187.64 118.368 187.215 118.052 186.646ZM131.613 188V174.377H133.02V188H131.613ZM142.055 184.054C142.055 183.146 141.806 182.416 141.308 181.865C140.815 181.309 140.171 181.03 139.374 181.03C138.548 181.03 137.903 181.285 137.44 181.795C136.978 182.305 136.746 183.017 136.746 183.931C136.746 184.903 136.978 185.653 137.44 186.181C137.909 186.708 138.571 186.972 139.427 186.972C140.247 186.972 140.889 186.717 141.352 186.207C141.82 185.691 142.055 184.974 142.055 184.054ZM143.391 179.958V188H142.055V186.541C141.732 187.127 141.319 187.575 140.815 187.886C140.317 188.19 139.758 188.343 139.137 188.343C137.982 188.343 137.051 187.947 136.342 187.156C135.639 186.359 135.287 185.308 135.287 184.001C135.287 182.677 135.63 181.625 136.315 180.846C137.001 180.061 137.918 179.668 139.066 179.668C139.74 179.668 140.323 179.82 140.815 180.125C141.313 180.424 141.715 180.872 142.02 181.47V179.958H143.391ZM145.298 186.646L146.476 185.855C146.698 186.283 146.979 186.605 147.319 186.822C147.659 187.033 148.061 187.139 148.523 187.139C148.975 187.139 149.338 187.027 149.613 186.805C149.895 186.582 150.035 186.289 150.035 185.926C150.035 185.645 149.938 185.41 149.745 185.223C149.558 185.035 149.232 184.862 148.77 184.704C148.723 184.687 148.646 184.66 148.541 184.625C146.584 183.951 145.605 183.107 145.605 182.094C145.605 181.379 145.869 180.796 146.396 180.345C146.924 179.894 147.609 179.668 148.453 179.668C149.15 179.668 149.748 179.809 150.246 180.09C150.744 180.365 151.102 180.758 151.318 181.268L150.202 181.953C150.038 181.584 149.795 181.3 149.473 181.101C149.156 180.901 148.787 180.802 148.365 180.802C147.961 180.802 147.63 180.916 147.372 181.145C147.12 181.367 146.994 181.654 146.994 182.006C146.994 182.498 147.527 182.911 148.594 183.245C148.793 183.31 148.951 183.359 149.068 183.395C149.941 183.676 150.548 183.998 150.888 184.361C151.233 184.719 151.406 185.193 151.406 185.785C151.406 186.547 151.134 187.165 150.589 187.64C150.05 188.108 149.344 188.343 148.471 188.343C147.721 188.343 147.082 188.202 146.555 187.921C146.033 187.64 145.614 187.215 145.298 186.646ZM158.534 188V179.123H161.399V180.925C161.804 180.222 162.284 179.694 162.841 179.343C163.38 179.009 164.033 178.842 164.801 178.842C165.381 178.842 165.896 178.93 166.348 179.105C166.793 179.305 167.153 179.574 167.429 179.914C167.681 180.254 167.848 180.614 167.93 180.995C168.029 181.481 168.079 182.123 168.079 182.92V188H164.941V183.245C164.941 182.524 164.827 182.009 164.599 181.698C164.37 181.376 163.998 181.215 163.482 181.215C162.838 181.215 162.363 181.455 162.059 181.936C161.76 182.416 161.61 183.195 161.61 184.273V188H158.534ZM176.411 182.419C176.358 181.927 176.168 181.525 175.84 181.215C175.512 180.904 175.11 180.749 174.636 180.749C174.138 180.749 173.733 180.887 173.423 181.162C173.101 181.473 172.898 181.892 172.816 182.419H176.411ZM179.496 184.186H172.746C172.764 184.877 172.937 185.404 173.265 185.768C173.604 186.143 174.097 186.33 174.741 186.33C175.21 186.33 175.611 186.239 175.945 186.058C176.285 185.864 176.531 185.601 176.684 185.267L179.039 186.216C178.764 186.89 178.266 187.411 177.545 187.78C176.83 188.155 175.954 188.343 174.917 188.343C173.37 188.343 172.128 187.909 171.19 187.042C170.259 186.198 169.793 185.07 169.793 183.658C169.793 182.281 170.259 181.13 171.19 180.204C172.122 179.296 173.306 178.842 174.741 178.842C176.206 178.842 177.363 179.302 178.213 180.222C178.646 180.696 178.969 181.25 179.18 181.883C179.391 182.51 179.496 183.228 179.496 184.036V184.186ZM187.67 182.041C187.365 181.771 187.072 181.575 186.791 181.452C186.539 181.329 186.243 181.268 185.903 181.268C185.276 181.268 184.784 181.473 184.427 181.883C184.058 182.287 183.873 182.844 183.873 183.553C183.873 184.232 184.063 184.771 184.444 185.17C184.813 185.58 185.326 185.785 185.982 185.785C186.293 185.785 186.592 185.721 186.879 185.592C187.184 185.445 187.447 185.252 187.67 185.012V187.728C187.295 187.927 186.917 188.085 186.536 188.202C186.132 188.296 185.748 188.343 185.385 188.343C184.014 188.343 182.909 187.903 182.071 187.024C181.784 186.731 181.547 186.409 181.359 186.058C181.178 185.706 181.037 185.325 180.938 184.915C180.844 184.505 180.797 184.057 180.797 183.57C180.797 182.17 181.225 181.033 182.08 180.16C182.941 179.281 184.055 178.842 185.42 178.842C185.848 178.842 186.255 178.889 186.642 178.982C187.017 179.076 187.359 179.214 187.67 179.396V182.041ZM195.712 182.419C195.659 181.927 195.469 181.525 195.141 181.215C194.812 180.904 194.411 180.749 193.937 180.749C193.438 180.749 193.034 180.887 192.724 181.162C192.401 181.473 192.199 181.892 192.117 182.419H195.712ZM198.797 184.186H192.047C192.064 184.877 192.237 185.404 192.565 185.768C192.905 186.143 193.397 186.33 194.042 186.33C194.511 186.33 194.912 186.239 195.246 186.058C195.586 185.864 195.832 185.601 195.984 185.267L198.34 186.216C198.064 186.89 197.566 187.411 196.846 187.78C196.131 188.155 195.255 188.343 194.218 188.343C192.671 188.343 191.429 187.909 190.491 187.042C189.56 186.198 189.094 185.07 189.094 183.658C189.094 182.281 189.56 181.13 190.491 180.204C191.423 179.296 192.606 178.842 194.042 178.842C195.507 178.842 196.664 179.302 197.514 180.222C197.947 180.696 198.27 181.25 198.48 181.883C198.691 182.51 198.797 183.228 198.797 184.036V184.186ZM199.772 187.262L200.423 184.871C200.88 185.275 201.384 185.58 201.935 185.785C202.479 186.002 203.03 186.11 203.587 186.11C203.985 186.11 204.284 186.043 204.483 185.908C204.688 185.785 204.791 185.606 204.791 185.372C204.791 184.979 204.378 184.687 203.552 184.493C203.265 184.429 203.048 184.373 202.901 184.326C201.946 184.045 201.27 183.702 200.871 183.298C200.438 182.882 200.221 182.343 200.221 181.681C200.221 180.825 200.546 180.137 201.196 179.615C201.823 179.1 202.699 178.842 203.824 178.842C204.369 178.842 204.949 178.906 205.564 179.035C206.08 179.141 206.681 179.346 207.366 179.65L206.716 181.804C206.294 181.517 205.869 181.303 205.441 181.162C205.037 181.016 204.612 180.942 204.167 180.942C203.804 180.942 203.531 180.998 203.35 181.109C203.174 181.215 203.086 181.376 203.086 181.593C203.086 181.897 203.499 182.161 204.325 182.384C204.595 182.466 204.732 182.507 204.738 182.507C205.816 182.812 206.572 183.172 207.006 183.588C207.428 184.027 207.639 184.599 207.639 185.302C207.639 186.21 207.29 186.942 206.593 187.499C205.878 188.062 204.955 188.343 203.824 188.343C203.039 188.343 202.315 188.252 201.653 188.07C200.997 187.895 200.37 187.625 199.772 187.262ZM209.247 188V179.123H212.376V188H209.247ZM209.643 176.838H209.66C209.66 176.51 209.774 176.24 210.003 176.029C210.231 175.801 210.507 175.687 210.829 175.687C211.169 175.687 211.447 175.795 211.664 176.012C211.887 176.229 211.998 176.504 211.998 176.838C211.998 177.178 211.884 177.459 211.655 177.682C211.433 177.91 211.157 178.024 210.829 178.024C210.495 178.024 210.214 177.904 209.985 177.664C209.757 177.441 209.643 177.166 209.643 176.838ZM221.728 183.57C221.728 182.873 221.549 182.328 221.191 181.936C220.811 181.537 220.307 181.338 219.68 181.338C219.047 181.338 218.549 181.537 218.186 181.936C217.822 182.334 217.641 182.879 217.641 183.57C217.641 184.268 217.822 184.815 218.186 185.214C218.543 185.606 219.041 185.803 219.68 185.803C220.312 185.803 220.816 185.606 221.191 185.214C221.549 184.821 221.728 184.273 221.728 183.57ZM224.505 174.377V188H221.622V186.559C221.224 187.162 220.772 187.607 220.269 187.895C219.8 188.193 219.249 188.343 218.616 188.343C217.374 188.343 216.381 187.909 215.637 187.042C214.898 186.175 214.529 185.018 214.529 183.57C214.529 182.164 214.901 181.019 215.646 180.134C216.384 179.272 217.339 178.842 218.511 178.842C219.261 178.842 219.87 178.979 220.339 179.255C220.79 179.507 221.212 179.955 221.604 180.6C221.581 180.441 221.558 180.201 221.534 179.879C221.511 179.527 221.499 179.24 221.499 179.018V174.377H224.505ZM233.593 183.553C233.593 182.85 233.408 182.305 233.039 181.918C232.664 181.508 232.16 181.303 231.527 181.303C230.895 181.303 230.396 181.502 230.033 181.9C229.658 182.311 229.471 182.861 229.471 183.553C229.471 184.25 229.658 184.798 230.033 185.196C230.391 185.589 230.889 185.785 231.527 185.785C232.16 185.785 232.661 185.589 233.03 185.196C233.405 184.804 233.593 184.256 233.593 183.553ZM236.344 179.123V188H233.47V186.559C233.054 187.174 232.588 187.625 232.072 187.912C231.562 188.199 230.965 188.343 230.279 188.343C229.09 188.343 228.144 187.909 227.44 187.042C227.095 186.614 226.831 186.11 226.649 185.53C226.468 184.95 226.377 184.297 226.377 183.57C226.377 182.117 226.749 180.966 227.493 180.116C228.237 179.267 229.233 178.842 230.481 178.842C231.149 178.842 231.724 178.985 232.204 179.272C232.69 179.548 233.106 179.984 233.452 180.582V179.123H236.344ZM245.493 183.57C245.493 182.873 245.314 182.328 244.957 181.936C244.576 181.537 244.072 181.338 243.445 181.338C242.812 181.338 242.314 181.537 241.951 181.936C241.588 182.334 241.406 182.879 241.406 183.57C241.406 184.268 241.588 184.815 241.951 185.214C242.309 185.606 242.807 185.803 243.445 185.803C244.078 185.803 244.582 185.606 244.957 185.214C245.314 184.821 245.493 184.273 245.493 183.57ZM248.271 174.377V188H245.388V186.559C244.989 187.162 244.538 187.607 244.034 187.895C243.565 188.193 243.015 188.343 242.382 188.343C241.14 188.343 240.146 187.909 239.402 187.042C238.664 186.175 238.295 185.018 238.295 183.57C238.295 182.164 238.667 181.019 239.411 180.134C240.149 179.272 241.104 178.842 242.276 178.842C243.026 178.842 243.636 178.979 244.104 179.255C244.556 179.507 244.978 179.955 245.37 180.6C245.347 180.441 245.323 180.201 245.3 179.879C245.276 179.527 245.265 179.24 245.265 179.018V174.377H248.271ZM256.708 182.419C256.655 181.927 256.465 181.525 256.137 181.215C255.809 180.904 255.407 180.749 254.933 180.749C254.435 180.749 254.03 180.887 253.72 181.162C253.397 181.473 253.195 181.892 253.113 182.419H256.708ZM259.793 184.186H253.043C253.061 184.877 253.233 185.404 253.562 185.768C253.901 186.143 254.394 186.33 255.038 186.33C255.507 186.33 255.908 186.239 256.242 186.058C256.582 185.864 256.828 185.601 256.98 185.267L259.336 186.216C259.061 186.89 258.562 187.411 257.842 187.78C257.127 188.155 256.251 188.343 255.214 188.343C253.667 188.343 252.425 187.909 251.487 187.042C250.556 186.198 250.09 185.07 250.09 183.658C250.09 182.281 250.556 181.13 251.487 180.204C252.419 179.296 253.603 178.842 255.038 178.842C256.503 178.842 257.66 179.302 258.51 180.222C258.943 180.696 259.266 181.25 259.477 181.883C259.688 182.51 259.793 183.228 259.793 184.036V184.186ZM260.769 187.262L261.419 184.871C261.876 185.275 262.38 185.58 262.931 185.785C263.476 186.002 264.026 186.11 264.583 186.11C264.981 186.11 265.28 186.043 265.479 185.908C265.685 185.785 265.787 185.606 265.787 185.372C265.787 184.979 265.374 184.687 264.548 184.493C264.261 184.429 264.044 184.373 263.897 184.326C262.942 184.045 262.266 183.702 261.867 183.298C261.434 182.882 261.217 182.343 261.217 181.681C261.217 180.825 261.542 180.137 262.192 179.615C262.819 179.1 263.695 178.842 264.82 178.842C265.365 178.842 265.945 178.906 266.561 179.035C267.076 179.141 267.677 179.346 268.362 179.65L267.712 181.804C267.29 181.517 266.865 181.303 266.438 181.162C266.033 181.016 265.608 180.942 265.163 180.942C264.8 180.942 264.527 180.998 264.346 181.109C264.17 181.215 264.082 181.376 264.082 181.593C264.082 181.897 264.495 182.161 265.321 182.384C265.591 182.466 265.729 182.507 265.734 182.507C266.812 182.812 267.568 183.172 268.002 183.588C268.424 184.027 268.635 184.599 268.635 185.302C268.635 186.21 268.286 186.942 267.589 187.499C266.874 188.062 265.951 188.343 264.82 188.343C264.035 188.343 263.312 188.252 262.649 188.07C261.993 187.895 261.366 187.625 260.769 187.262ZM49.9365 206.57C49.9365 205.873 49.7578 205.328 49.4004 204.936C49.0195 204.537 48.5156 204.338 47.8887 204.338C47.2559 204.338 46.7578 204.537 46.3945 204.936C46.0312 205.334 45.8496 205.879 45.8496 206.57C45.8496 207.268 46.0312 207.815 46.3945 208.214C46.752 208.606 47.25 208.803 47.8887 208.803C48.5215 208.803 49.0254 208.606 49.4004 208.214C49.7578 207.821 49.9365 207.273 49.9365 206.57ZM52.7139 197.377V211H49.8311V209.559C49.4326 210.162 48.9814 210.607 48.4775 210.895C48.0088 211.193 47.458 211.343 46.8252 211.343C45.583 211.343 44.5898 210.909 43.8457 210.042C43.1074 209.175 42.7383 208.018 42.7383 206.57C42.7383 205.164 43.1104 204.019 43.8545 203.134C44.5928 202.272 45.5479 201.842 46.7197 201.842C47.4697 201.842 48.0791 201.979 48.5479 202.255C48.999 202.507 49.4209 202.955 49.8135 203.6C49.79 203.441 49.7666 203.201 49.7432 202.879C49.7197 202.527 49.708 202.24 49.708 202.018V197.377H52.7139ZM61.1514 205.419C61.0986 204.927 60.9082 204.525 60.5801 204.215C60.252 203.904 59.8506 203.749 59.376 203.749C58.8779 203.749 58.4736 203.887 58.1631 204.162C57.8408 204.473 57.6387 204.892 57.5566 205.419H61.1514ZM64.2363 207.186H57.4863C57.5039 207.877 57.6768 208.404 58.0049 208.768C58.3447 209.143 58.8369 209.33 59.4814 209.33C59.9502 209.33 60.3516 209.239 60.6855 209.058C61.0254 208.864 61.2715 208.601 61.4238 208.267L63.7793 209.216C63.5039 209.89 63.0059 210.411 62.2852 210.78C61.5703 211.155 60.6943 211.343 59.6572 211.343C58.1104 211.343 56.8682 210.909 55.9307 210.042C54.999 209.198 54.5332 208.07 54.5332 206.658C54.5332 205.281 54.999 204.13 55.9307 203.204C56.8623 202.296 58.0459 201.842 59.4814 201.842C60.9463 201.842 62.1035 202.302 62.9531 203.222C63.3867 203.696 63.709 204.25 63.9199 204.883C64.1309 205.51 64.2363 206.228 64.2363 207.036V207.186ZM72.1816 211L72.1641 204.338H70.8369V202.123H72.1641V199.478H75.2666V202.123H76.5762V204.338H75.2666V211H72.1816ZM87.1494 202.123V206.658C87.1494 207.672 87.0732 208.41 86.9209 208.873C86.7568 209.354 86.4814 209.787 86.0947 210.174C85.7256 210.561 85.2393 210.854 84.6357 211.053C84.0615 211.246 83.3701 211.343 82.5615 211.343C81.7588 211.343 81.0762 211.246 80.5137 211.053C79.9336 210.865 79.4355 210.572 79.0195 210.174C78.6387 209.811 78.3691 209.383 78.2109 208.891C78.0527 208.434 77.9736 207.689 77.9736 206.658V202.123H80.9619V206.86C80.9619 207.604 81.0879 208.138 81.3398 208.46C81.5684 208.8 81.9639 208.97 82.5264 208.97C83.083 208.97 83.4814 208.806 83.7217 208.478C83.9678 208.149 84.0908 207.61 84.0908 206.86V202.123H87.1494ZM101.414 205.041C101.109 204.771 100.816 204.575 100.535 204.452C100.283 204.329 99.9873 204.268 99.6475 204.268C99.0205 204.268 98.5283 204.473 98.1709 204.883C97.8018 205.287 97.6172 205.844 97.6172 206.553C97.6172 207.232 97.8076 207.771 98.1885 208.17C98.5576 208.58 99.0703 208.785 99.7266 208.785C100.037 208.785 100.336 208.721 100.623 208.592C100.928 208.445 101.191 208.252 101.414 208.012V210.728C101.039 210.927 100.661 211.085 100.28 211.202C99.876 211.296 99.4922 211.343 99.1289 211.343C97.7578 211.343 96.6533 210.903 95.8154 210.024C95.5283 209.731 95.291 209.409 95.1035 209.058C94.9219 208.706 94.7812 208.325 94.6816 207.915C94.5879 207.505 94.541 207.057 94.541 206.57C94.541 205.17 94.9688 204.033 95.8242 203.16C96.6855 202.281 97.7988 201.842 99.1641 201.842C99.5918 201.842 99.999 201.889 100.386 201.982C100.761 202.076 101.104 202.214 101.414 202.396V205.041ZM110.106 206.553C110.106 205.85 109.922 205.305 109.553 204.918C109.178 204.508 108.674 204.303 108.041 204.303C107.408 204.303 106.91 204.502 106.547 204.9C106.172 205.311 105.984 205.861 105.984 206.553C105.984 207.25 106.172 207.798 106.547 208.196C106.904 208.589 107.402 208.785 108.041 208.785C108.674 208.785 109.175 208.589 109.544 208.196C109.919 207.804 110.106 207.256 110.106 206.553ZM112.857 202.123V211H109.983V209.559C109.567 210.174 109.102 210.625 108.586 210.912C108.076 211.199 107.479 211.343 106.793 211.343C105.604 211.343 104.657 210.909 103.954 210.042C103.608 209.614 103.345 209.11 103.163 208.53C102.981 207.95 102.891 207.297 102.891 206.57C102.891 205.117 103.263 203.966 104.007 203.116C104.751 202.267 105.747 201.842 106.995 201.842C107.663 201.842 108.237 201.985 108.718 202.272C109.204 202.548 109.62 202.984 109.966 203.582V202.123H112.857ZM118.017 206.588C118.017 207.279 118.201 207.827 118.57 208.231C118.91 208.624 119.402 208.82 120.047 208.82C120.686 208.82 121.184 208.624 121.541 208.231C121.898 207.821 122.077 207.273 122.077 206.588C122.077 205.891 121.898 205.346 121.541 204.953C121.178 204.555 120.68 204.355 120.047 204.355C119.408 204.355 118.916 204.555 118.57 204.953C118.201 205.34 118.017 205.885 118.017 206.588ZM115.239 214.92V202.141H118.122V203.617C118.503 203.049 118.951 202.606 119.467 202.29C119.953 202.003 120.507 201.859 121.128 201.859C121.755 201.859 122.317 201.965 122.815 202.176C123.313 202.381 123.747 202.694 124.116 203.116C124.849 203.954 125.215 205.111 125.215 206.588C125.215 208.006 124.849 209.151 124.116 210.024C123.741 210.47 123.316 210.801 122.842 211.018C122.373 211.234 121.837 211.343 121.233 211.343C120.478 211.343 119.865 211.205 119.396 210.93C118.945 210.666 118.526 210.209 118.14 209.559C118.169 209.699 118.192 209.916 118.21 210.209C118.222 210.379 118.228 210.689 118.228 211.141V214.92H115.239ZM127.034 211V202.123H130.163V211H127.034ZM127.43 199.838H127.447C127.447 199.51 127.562 199.24 127.79 199.029C128.019 198.801 128.294 198.687 128.616 198.687C128.956 198.687 129.234 198.795 129.451 199.012C129.674 199.229 129.785 199.504 129.785 199.838C129.785 200.178 129.671 200.459 129.442 200.682C129.22 200.91 128.944 201.024 128.616 201.024C128.282 201.024 128.001 200.904 127.772 200.664C127.544 200.441 127.43 200.166 127.43 199.838ZM133.23 211L133.213 204.338H131.886V202.123H133.213V199.478H136.315V202.123H137.625V204.338H136.315V211H133.23ZM145.86 206.553C145.86 205.85 145.676 205.305 145.307 204.918C144.932 204.508 144.428 204.303 143.795 204.303C143.162 204.303 142.664 204.502 142.301 204.9C141.926 205.311 141.738 205.861 141.738 206.553C141.738 207.25 141.926 207.798 142.301 208.196C142.658 208.589 143.156 208.785 143.795 208.785C144.428 208.785 144.929 208.589 145.298 208.196C145.673 207.804 145.86 207.256 145.86 206.553ZM148.611 202.123V211H145.737V209.559C145.321 210.174 144.855 210.625 144.34 210.912C143.83 211.199 143.232 211.343 142.547 211.343C141.357 211.343 140.411 210.909 139.708 210.042C139.362 209.614 139.099 209.11 138.917 208.53C138.735 207.95 138.645 207.297 138.645 206.57C138.645 205.117 139.017 203.966 139.761 203.116C140.505 202.267 141.501 201.842 142.749 201.842C143.417 201.842 143.991 201.985 144.472 202.272C144.958 202.548 145.374 202.984 145.72 203.582V202.123H148.611ZM151.063 211V197.377H154.201V211H151.063ZM168.65 207.019C168.65 206.122 168.401 205.401 167.903 204.856C167.405 204.306 166.749 204.03 165.935 204.03C165.12 204.03 164.484 204.279 164.027 204.777C163.57 205.275 163.342 205.964 163.342 206.843C163.342 207.833 163.573 208.609 164.036 209.172C164.499 209.729 165.138 210.007 165.952 210.007C166.796 210.007 167.455 209.743 167.93 209.216C168.41 208.688 168.65 207.956 168.65 207.019ZM169.986 197.377V211H168.65V209.541C168.334 210.121 167.924 210.566 167.42 210.877C166.916 211.188 166.354 211.343 165.732 211.343C164.578 211.343 163.646 210.947 162.938 210.156C162.234 209.359 161.883 208.308 161.883 207.001C161.883 205.683 162.229 204.631 162.92 203.846C163.611 203.061 164.531 202.668 165.68 202.668C166.348 202.668 166.928 202.82 167.42 203.125C167.912 203.424 168.311 203.872 168.615 204.47V197.377H169.986ZM178.503 206.069C178.456 205.36 178.219 204.815 177.791 204.435C177.369 204.048 176.789 203.854 176.051 203.854C175.383 203.854 174.826 204.057 174.381 204.461C173.936 204.859 173.678 205.396 173.607 206.069H178.503ZM179.979 207.186H173.607V207.309C173.607 208.17 173.854 208.867 174.346 209.4C174.838 209.928 175.479 210.191 176.271 210.191C176.81 210.191 177.296 210.048 177.729 209.761C178.163 209.468 178.547 209.028 178.881 208.442L179.927 209.146C179.522 209.872 179.007 210.42 178.38 210.789C177.753 211.158 177.026 211.343 176.2 211.343C174.976 211.343 173.985 210.938 173.229 210.13C172.474 209.321 172.096 208.261 172.096 206.948C172.096 205.688 172.471 204.657 173.221 203.854C173.971 203.052 174.935 202.65 176.112 202.65C177.302 202.65 178.242 203.031 178.934 203.793C179.631 204.555 179.979 205.595 179.979 206.913V207.186ZM187.582 204.092H186.105V202.958H187.582V199.715H188.988V202.958H190.465V204.092H188.988V211H187.582V204.092ZM192.047 211V202.958H193.269V204.628C193.638 203.931 194.03 203.433 194.446 203.134C194.862 202.835 195.369 202.686 195.967 202.686C196.131 202.686 196.289 202.7 196.441 202.729C196.594 202.753 196.746 202.791 196.898 202.844L196.441 204.083C196.283 204.03 196.134 203.992 195.993 203.969C195.853 203.939 195.718 203.925 195.589 203.925C194.862 203.925 194.317 204.188 193.954 204.716C193.591 205.237 193.409 206.025 193.409 207.08V211H192.047ZM204.51 207.054C204.51 206.146 204.261 205.416 203.763 204.865C203.271 204.309 202.626 204.03 201.829 204.03C201.003 204.03 200.358 204.285 199.896 204.795C199.433 205.305 199.201 206.017 199.201 206.931C199.201 207.903 199.433 208.653 199.896 209.181C200.364 209.708 201.026 209.972 201.882 209.972C202.702 209.972 203.344 209.717 203.807 209.207C204.275 208.691 204.51 207.974 204.51 207.054ZM205.846 202.958V211H204.51V209.541C204.188 210.127 203.774 210.575 203.271 210.886C202.772 211.19 202.213 211.343 201.592 211.343C200.438 211.343 199.506 210.947 198.797 210.156C198.094 209.359 197.742 208.308 197.742 207.001C197.742 205.677 198.085 204.625 198.771 203.846C199.456 203.061 200.373 202.668 201.521 202.668C202.195 202.668 202.778 202.82 203.271 203.125C203.769 203.424 204.17 203.872 204.475 204.47V202.958H205.846ZM209.915 207.019C209.915 207.956 210.155 208.688 210.636 209.216C211.116 209.743 211.775 210.007 212.613 210.007C213.434 210.007 214.075 209.729 214.538 209.172C215.007 208.609 215.241 207.833 215.241 206.843C215.241 205.964 215.013 205.275 214.556 204.777C214.099 204.279 213.466 204.03 212.657 204.03C211.837 204.03 211.175 204.306 210.671 204.856C210.167 205.401 209.915 206.122 209.915 207.019ZM208.605 197.377H209.968V204.47C210.278 203.872 210.68 203.424 211.172 203.125C211.664 202.82 212.241 202.668 212.903 202.668C214.058 202.668 214.978 203.061 215.663 203.846C216.354 204.631 216.7 205.683 216.7 207.001C216.7 208.308 216.349 209.359 215.646 210.156C214.942 210.947 214.011 211.343 212.851 211.343C212.229 211.343 211.664 211.188 211.154 210.877C210.645 210.561 210.231 210.115 209.915 209.541V211H208.605V197.377ZM225.059 207.054C225.059 206.146 224.81 205.416 224.312 204.865C223.819 204.309 223.175 204.03 222.378 204.03C221.552 204.03 220.907 204.285 220.444 204.795C219.981 205.305 219.75 206.017 219.75 206.931C219.75 207.903 219.981 208.653 220.444 209.181C220.913 209.708 221.575 209.972 222.431 209.972C223.251 209.972 223.893 209.717 224.355 209.207C224.824 208.691 225.059 207.974 225.059 207.054ZM226.395 202.958V211H225.059V209.541C224.736 210.127 224.323 210.575 223.819 210.886C223.321 211.19 222.762 211.343 222.141 211.343C220.986 211.343 220.055 210.947 219.346 210.156C218.643 209.359 218.291 208.308 218.291 207.001C218.291 205.677 218.634 204.625 219.319 203.846C220.005 203.061 220.922 202.668 222.07 202.668C222.744 202.668 223.327 202.82 223.819 203.125C224.317 203.424 224.719 203.872 225.023 204.47V202.958H226.395ZM228.899 199.082C228.899 198.807 228.996 198.572 229.189 198.379C229.389 198.18 229.629 198.08 229.91 198.08C230.186 198.08 230.42 198.18 230.613 198.379C230.812 198.578 230.912 198.818 230.912 199.1C230.912 199.375 230.815 199.609 230.622 199.803C230.429 199.996 230.191 200.093 229.91 200.093C229.629 200.093 229.389 199.996 229.189 199.803C228.996 199.609 228.899 199.369 228.899 199.082ZM229.225 214.92V202.958H230.613V214.92H229.225ZM234.322 207.001C234.322 207.851 234.606 208.571 235.175 209.163C235.743 209.749 236.432 210.042 237.24 210.042C238.043 210.042 238.726 209.749 239.288 209.163C239.851 208.571 240.132 207.851 240.132 207.001C240.132 206.151 239.851 205.434 239.288 204.848C238.726 204.256 238.043 203.96 237.24 203.96C236.426 203.96 235.734 204.256 235.166 204.848C234.604 205.434 234.322 206.151 234.322 207.001ZM232.863 207.001C232.863 206.409 232.972 205.853 233.188 205.331C233.405 204.804 233.722 204.335 234.138 203.925C234.554 203.515 235.025 203.204 235.553 202.993C236.08 202.776 236.643 202.668 237.24 202.668C237.826 202.668 238.38 202.776 238.901 202.993C239.429 203.21 239.906 203.526 240.334 203.942C240.75 204.347 241.066 204.812 241.283 205.34C241.5 205.861 241.608 206.415 241.608 207.001C241.608 207.587 241.5 208.141 241.283 208.662C241.066 209.178 240.75 209.638 240.334 210.042C239.906 210.464 239.426 210.786 238.893 211.009C238.365 211.231 237.814 211.343 237.24 211.343C236.648 211.343 236.086 211.231 235.553 211.009C235.025 210.792 234.554 210.479 234.138 210.068C233.722 209.646 233.405 209.178 233.188 208.662C232.972 208.146 232.863 207.593 232.863 207.001Z" fill="white"/>
<path d="M49.312 11.952V5.808H30.592V42H49.312V35.856H37.648V26.064H48.88V19.92H37.648V11.952H49.312ZM64.0855 5.808H57.0295V42H74.0695V35.856H64.0855V5.808ZM110.473 26.736C115.321 25.92 117.865 21.312 117.865 16.704C117.865 8.976 112.921 5.808 105.769 5.808H96.217V42H103.273V27.408H103.369L112.153 42H120.697L110.473 26.736ZM103.273 11.568H104.233C107.977 11.568 110.809 12.432 110.809 16.896C110.809 21.312 108.073 22.464 104.185 22.464H103.273V11.568ZM144.703 11.952V5.808H125.983V42H144.703V35.856H133.039V26.064H144.271V19.92H133.039V11.952H144.703ZM172.772 8.88C170.564 6.432 166.1 4.848 162.884 4.848C156.788 4.848 152.324 9.696 152.324 15.696C152.324 21.312 155.732 23.664 160.388 25.584C163.22 26.688 166.676 27.744 166.676 31.488C166.676 34.272 164.9 36.72 162.02 36.72C158.996 36.72 156.452 34.224 155.492 31.44L150.932 35.904C153.428 40.08 157.076 42.96 162.068 42.96C169.46 42.96 173.972 37.824 173.972 30.576C173.972 18.432 159.62 20.976 159.62 14.88C159.62 12.528 161.78 10.8 164.036 10.8C166.388 10.8 168.116 11.952 169.46 13.776L172.772 8.88ZM187.742 28.464H191.246C198.638 28.464 202.814 24.72 202.814 17.04C202.814 8.832 197.87 5.808 190.286 5.808H180.686V42H187.742V28.464ZM187.742 11.664H188.99C192.926 11.664 195.614 12.336 195.614 16.992C195.614 21.696 193.358 22.608 189.182 22.608H187.742V11.664ZM225.169 34.368L227.953 42H235.489L221.761 4.848H216.289L202.177 42H209.617L212.593 34.368H225.169ZM223.201 28.608H214.609L218.593 15.456H218.689L223.201 28.608ZM247.695 5.808H240.639V42H257.679V35.856H247.695V5.808ZM262.951 42H272.983C283.303 42 290.503 34.128 290.503 23.952C290.503 13.632 283.495 5.808 273.031 5.808H262.951V42ZM270.007 11.952H271.159C279.175 11.952 283.207 16.032 283.207 23.904C283.207 31.056 279.847 35.856 271.159 35.856H270.007V11.952ZM331.063 23.856C331.063 13.104 323.959 4.848 313.159 4.848C302.359 4.848 295.255 13.104 295.255 23.856C295.255 34.512 302.119 42.96 313.159 42.96C324.199 42.96 331.063 34.512 331.063 23.856ZM323.767 23.568C323.767 29.136 320.983 36 313.159 36C305.335 36 302.551 29.136 302.551 23.568C302.551 17.712 306.487 11.808 313.159 11.808C319.831 11.808 323.767 17.712 323.767 23.568ZM389.157 42.816L384.213 36.96C386.997 33.36 388.485 28.752 388.485 23.856C388.485 13.728 381.141 4.848 370.581 4.848C360.021 4.848 352.677 13.728 352.677 23.856C352.677 34.224 360.021 42.96 370.581 42.96C373.893 42.96 377.109 42.144 379.557 40.512L382.053 43.536L389.157 42.816ZM375.717 27.504L368.421 28.08L374.373 34.944C373.413 35.568 371.877 36.144 370.581 36.144C363.669 36.144 359.973 30.288 359.973 24.288C359.973 18.048 363.717 11.568 370.581 11.568C376.917 11.568 381.189 17.808 381.189 23.664C381.189 26.16 380.517 29.184 378.932 31.152L375.717 27.504ZM394.759 27.456C394.759 36.288 398.503 42.96 408.199 42.96C417.895 42.96 421.639 36.288 421.639 27.456V5.808H414.583V26.064C414.583 30.528 414.199 36.816 408.199 36.816C402.199 36.816 401.815 30.528 401.815 26.064V5.808H394.759V27.456ZM448.359 11.952V5.808H429.639V42H448.359V35.856H436.695V26.064H447.927V19.92H436.695V11.952H448.359ZM37.648 53.808H30.592V90H47.632V83.856H37.648V53.808ZM71.6245 59.952V53.808H52.9045V90H71.6245V83.856H59.9605V74.064H71.1925V67.92H59.9605V59.952H71.6245ZM103.273 68.064V53.808H96.217V90H103.273V73.824H116.329V90H123.385V53.808H116.329V68.064H103.273ZM151.529 82.368L154.313 90H161.849L148.121 52.848H142.649L128.537 90H135.977L138.953 82.368H151.529ZM149.561 76.608H140.969L144.953 63.456H145.049L149.561 76.608ZM191.19 54.96C188.742 53.616 185.958 52.848 183.126 52.848C172.518 52.848 165.27 61.92 165.27 72.192C165.27 82.176 172.806 90.96 182.982 90.96C185.91 90.96 188.55 90.048 191.19 88.8V80.4C189.222 82.656 186.198 84.24 183.174 84.24C176.598 84.24 172.566 78.144 172.566 72.048C172.566 65.808 176.454 59.568 183.222 59.568C186.246 59.568 189.222 61.008 191.19 63.408V54.96ZM205.882 53.808H198.826V90H205.882V53.808ZM203.482 41.904L197.722 49.968L201.13 52.08L208.378 44.88L203.482 41.904ZM233.982 82.368L236.766 90H244.302L230.574 52.848H225.102L210.99 90H218.43L221.406 82.368H233.982ZM232.014 76.608H223.422L227.406 63.456H227.502L232.014 76.608ZM284.278 59.952V53.808H266.326V90H273.382V74.064H283.606V67.92H273.382V59.952H284.278ZM308.654 82.368L311.438 90H318.974L305.246 52.848H299.774L285.662 90H293.102L296.078 82.368H308.654ZM306.686 76.608H298.094L302.078 63.456H302.174L306.686 76.608ZM331.179 53.808H324.123V90H341.163V83.856H331.179V53.808ZM356.743 59.952H364.039V53.808H342.391V59.952H349.687V90H356.743V59.952ZM385.763 82.368L388.547 90H396.083L382.355 52.848H376.883L362.771 90H370.211L373.187 82.368H385.763ZM383.795 76.608H375.203L379.187 63.456H379.283L383.795 76.608ZM50.56 130.368L53.344 138H60.88L47.152 100.848H41.68L27.568 138H35.008L37.984 130.368H50.56ZM48.592 124.608H40L43.984 111.456H44.08L48.592 124.608ZM94.6645 107.952H101.961V101.808H80.3125V107.952H87.6085V138H94.6645V107.952ZM107.369 123.456C107.369 132.288 111.113 138.96 120.809 138.96C130.505 138.96 134.249 132.288 134.249 123.456V101.808H127.193V122.064C127.193 126.528 126.809 132.816 120.809 132.816C114.809 132.816 114.425 126.528 114.425 122.064V101.808H107.369V123.456ZM159.123 138H166.179V113.424H166.275L185.331 138.72H190.419V101.808H183.363V126.144H183.267L164.211 100.848H159.123V138ZM217.265 107.952V101.808H198.545V138H217.265V131.856H205.601V122.064H216.833V115.92H205.601V107.952H217.265ZM241.351 118.752V124.512H249.031C248.887 128.88 245.191 132.72 240.775 132.72C233.959 132.72 230.551 126.048 230.551 120.048C230.551 114.048 233.911 107.088 240.727 107.088C244.471 107.088 247.543 109.584 248.983 112.848L255.223 109.488C252.439 103.968 247.063 100.848 240.919 100.848C230.119 100.848 223.255 109.728 223.255 120.048C223.255 130.032 229.927 138.96 240.487 138.96C251.719 138.96 256.951 129.888 256.951 119.664V118.752H241.351ZM297.547 119.856C297.547 109.104 290.443 100.848 279.643 100.848C268.843 100.848 261.739 109.104 261.739 119.856C261.739 130.512 268.603 138.96 279.643 138.96C290.683 138.96 297.547 130.512 297.547 119.856ZM290.251 119.568C290.251 125.136 287.467 132 279.643 132C271.819 132 269.035 125.136 269.035 119.568C269.035 113.712 272.971 107.808 279.643 107.808C286.315 107.808 290.251 113.712 290.251 119.568ZM328.206 102.96C325.758 101.616 322.974 100.848 320.142 100.848C309.534 100.848 302.286 109.92 302.286 120.192C302.286 130.176 309.822 138.96 319.998 138.96C322.926 138.96 325.566 138.048 328.206 136.8V128.4C326.238 130.656 323.214 132.24 320.19 132.24C313.614 132.24 309.582 126.144 309.582 120.048C309.582 113.808 313.47 107.568 320.238 107.568C323.262 107.568 326.238 109.008 328.206 111.408V102.96ZM342.898 101.808H335.842V138H342.898V101.808ZM385.11 119.856C385.11 109.104 378.006 100.848 367.206 100.848C356.406 100.848 349.302 109.104 349.302 119.856C349.302 130.512 356.166 138.96 367.206 138.96C378.246 138.96 385.11 130.512 385.11 119.856ZM377.814 119.568C377.814 125.136 375.03 132 367.206 132C359.382 132 356.598 125.136 356.598 119.568C356.598 113.712 360.534 107.808 367.206 107.808C373.878 107.808 377.814 113.712 377.814 119.568Z" fill="white"/>
</svg>
