<svg width="535" height="181" viewBox="0 0 535 181" fill="none" xmlns="http://www.w3.org/2000/svg">
<path d="M35.4531 26.875H38.1719C40.7344 26.875 42.599 26.2917 43.7656 25.125C44.9427 23.9583 45.5312 22.1094 45.5312 19.5781C45.5312 17.0573 44.9427 15.2135 43.7656 14.0469C42.599 12.8698 40.7344 12.2812 38.1719 12.2812H35.4531V26.875ZM30.5625 31V8.125H36.7969C39.2552 8.125 41.1927 8.29688 42.6094 8.64062C44.026 8.98438 45.2708 9.55729 46.3438 10.3594C47.7292 11.3906 48.776 12.6927 49.4844 14.2656C50.2031 15.8281 50.5625 17.6094 50.5625 19.6094C50.5625 21.6406 50.1979 23.4427 49.4688 25.0156C48.7396 26.5781 47.6719 27.8698 46.2656 28.8906C45.224 29.6406 44.0625 30.1823 42.7812 30.5156C41.5104 30.8385 39.6458 31 37.1875 31H35.4531H30.5625ZM54.75 31V8.125H59.6406V31H54.75ZM63.4062 28.0938L66.125 25.0156C66.4688 25.8594 67.0208 26.526 67.7812 27.0156C68.5417 27.4948 69.3958 27.7344 70.3438 27.7344C71.4896 27.7344 72.3958 27.4635 73.0625 26.9219C73.7292 26.3802 74.0625 25.651 74.0625 24.7344C74.0625 23.651 72.9531 22.5729 70.7344 21.5C70.0156 21.1562 69.4479 20.875 69.0312 20.6562C67.0312 19.6146 65.6458 18.599 64.875 17.6094C64.1042 16.6094 63.7188 15.4219 63.7188 14.0469C63.7188 12.1615 64.4635 10.6146 65.9531 9.40625C67.4531 8.1875 69.3958 7.57812 71.7812 7.57812C73.1667 7.57812 74.3594 7.82292 75.3594 8.3125C76.3698 8.79167 77.2604 9.54688 78.0312 10.5781L75.1406 13.3438C74.7969 12.6771 74.3385 12.1823 73.7656 11.8594C73.2031 11.526 72.5208 11.3594 71.7188 11.3594C70.75 11.3594 69.9688 11.6042 69.375 12.0938C68.7812 12.5729 68.4844 13.1979 68.4844 13.9688C68.4844 15.1771 69.6615 16.2812 72.0156 17.2812C72.4844 17.4792 72.8438 17.6354 73.0938 17.75C75.0312 18.6354 76.4635 19.6354 77.3906 20.75C78.3281 21.8646 78.7969 23.1354 78.7969 24.5625C78.7969 26.7083 78.0625 28.4219 76.5938 29.7031C75.1354 30.974 73.1719 31.6094 70.7031 31.6094C68.9531 31.6094 67.4531 31.3073 66.2031 30.7031C64.9531 30.099 64.0208 29.2292 63.4062 28.0938ZM82.8125 31V8.125H96.2812V12.25H87.7031V16.9531H96.2812V21.1094H87.7031V26.8438H96.2812V31H82.8125ZM101.094 31V8.125H106.172L116.297 21.4375C116.589 21.8125 116.906 22.3438 117.25 23.0312C117.604 23.7083 117.969 24.5104 118.344 25.4375C118.229 24.7604 118.146 24.0885 118.094 23.4219C118.042 22.7552 118.016 21.9219 118.016 20.9219V8.125H122.688V31H117.891L107.484 17.4375C107.193 17.0625 106.875 16.5365 106.531 15.8594C106.188 15.1719 105.823 14.3542 105.438 13.4062C105.552 14.0625 105.635 14.7292 105.688 15.4062C105.74 16.0729 105.766 16.9167 105.766 17.9375V31H101.094ZM116.828 0.953125C116.536 2.27604 116.13 3.23958 115.609 3.84375C115.089 4.4375 114.411 4.73438 113.578 4.73438C113.359 4.73438 113.156 4.72396 112.969 4.70312C112.781 4.67188 112.594 4.625 112.406 4.5625L111.047 4.15625C110.828 4.09375 110.641 4.05208 110.484 4.03125C110.328 4.01042 110.172 4 110.016 4C109.661 4 109.375 4.09896 109.156 4.29688C108.938 4.48438 108.766 4.78646 108.641 5.20312H106.922C107.193 3.93229 107.583 3.00521 108.094 2.42188C108.615 1.82812 109.286 1.53125 110.109 1.53125C110.297 1.53125 110.505 1.55208 110.734 1.59375C110.964 1.625 111.203 1.67708 111.453 1.75L112.906 2.14062C113.031 2.18229 113.161 2.21354 113.297 2.23438C113.443 2.25521 113.599 2.26562 113.766 2.26562C114.109 2.26562 114.391 2.16146 114.609 1.95312C114.828 1.73438 114.995 1.40104 115.109 0.953125H116.828ZM139.625 22.2969L137.062 14.9062C136.99 14.6875 136.896 14.3125 136.781 13.7812C136.667 13.25 136.547 12.599 136.422 11.8281C136.286 12.5677 136.156 13.2344 136.031 13.8281C135.906 14.4115 135.812 14.8021 135.75 15L133.281 22.2969H139.625ZM125.062 31L133.766 8.125H139.359L148.188 31H142.625L140.766 26.1406H131.906L130.312 31H125.062ZM155.484 26.875H158.203C160.766 26.875 162.63 26.2917 163.797 25.125C164.974 23.9583 165.562 22.1094 165.562 19.5781C165.562 17.0573 164.974 15.2135 163.797 14.0469C162.63 12.8698 160.766 12.2812 158.203 12.2812H155.484V26.875ZM150.594 31V8.125H156.828C159.286 8.125 161.224 8.29688 162.641 8.64062C164.057 8.98438 165.302 9.55729 166.375 10.3594C167.76 11.3906 168.807 12.6927 169.516 14.2656C170.234 15.8281 170.594 17.6094 170.594 19.6094C170.594 21.6406 170.229 23.4427 169.5 25.0156C168.771 26.5781 167.703 27.8698 166.297 28.8906C165.255 29.6406 164.094 30.1823 162.812 30.5156C161.542 30.8385 159.677 31 157.219 31H155.484H150.594ZM198.109 19.6094C198.109 21.2448 197.802 22.7917 197.188 24.25C196.583 25.7083 195.708 26.9896 194.562 28.0938C193.375 29.2292 192.036 30.099 190.547 30.7031C189.057 31.3073 187.516 31.6094 185.922 31.6094C184.526 31.6094 183.156 31.375 181.812 30.9062C180.479 30.4271 179.255 29.7448 178.141 28.8594C176.703 27.7135 175.599 26.3438 174.828 24.75C174.068 23.1562 173.688 21.4427 173.688 19.6094C173.688 17.9635 173.99 16.4219 174.594 14.9844C175.198 13.5365 176.083 12.25 177.25 11.125C178.396 10.0104 179.724 9.14583 181.234 8.53125C182.755 7.91667 184.318 7.60938 185.922 7.60938C187.516 7.60938 189.062 7.91667 190.562 8.53125C192.073 9.14583 193.406 10.0104 194.562 11.125C195.719 12.25 196.599 13.5365 197.203 14.9844C197.807 16.4323 198.109 17.974 198.109 19.6094ZM185.922 27.25C187.995 27.25 189.703 26.526 191.047 25.0781C192.401 23.6198 193.078 21.7969 193.078 19.6094C193.078 17.4427 192.396 15.6198 191.031 14.1406C189.667 12.6615 187.964 11.9219 185.922 11.9219C183.849 11.9219 182.13 12.6615 180.766 14.1406C179.401 15.6094 178.719 17.4323 178.719 19.6094C178.719 21.8177 179.391 23.6458 180.734 25.0938C182.078 26.5312 183.807 27.25 185.922 27.25ZM217.016 18.4531H217.719C219.052 18.4531 220.021 18.1771 220.625 17.625C221.229 17.0729 221.531 16.1875 221.531 14.9688C221.531 13.8438 221.229 13.026 220.625 12.5156C220.021 11.9948 219.052 11.7344 217.719 11.7344H217.016V18.4531ZM212.094 31V8.125H217.719C220.719 8.125 222.932 8.69792 224.359 9.84375C225.797 10.9896 226.516 12.7604 226.516 15.1562C226.516 17.375 225.792 19.1146 224.344 20.375C222.906 21.6354 220.911 22.2656 218.359 22.2656H217.016V31H212.094ZM240.156 22.2969L237.594 14.9062C237.521 14.6875 237.427 14.3125 237.312 13.7812C237.198 13.25 237.078 12.599 236.953 11.8281C236.818 12.5677 236.688 13.2344 236.562 13.8281C236.438 14.4115 236.344 14.8021 236.281 15L233.812 22.2969H240.156ZM225.594 31L234.297 8.125H239.891L248.719 31H243.156L241.297 26.1406H232.438L230.844 31H225.594ZM267.672 31H262.031L256.016 20.3125V31H251.125V8.125H258.125C260.906 8.125 262.99 8.66667 264.375 9.75C265.76 10.8229 266.453 12.4427 266.453 14.6094C266.453 16.1823 265.979 17.526 265.031 18.6406C264.083 19.7552 262.859 20.4062 261.359 20.5938L267.672 31ZM256.016 17.875H256.75C258.729 17.875 260.036 17.6615 260.672 17.2344C261.307 16.7969 261.625 16.0417 261.625 14.9688C261.625 13.8438 261.281 13.0469 260.594 12.5781C259.917 12.099 258.635 11.8594 256.75 11.8594H256.016V17.875ZM282.375 22.2969L279.812 14.9062C279.74 14.6875 279.646 14.3125 279.531 13.7812C279.417 13.25 279.297 12.599 279.172 11.8281C279.036 12.5677 278.906 13.2344 278.781 13.8281C278.656 14.4115 278.562 14.8021 278.5 15L276.031 22.2969H282.375ZM267.812 31L276.516 8.125H282.109L290.938 31H285.375L283.516 26.1406H274.656L273.062 31H267.812ZM47.1094 69H41.4688L35.4531 58.3125V69H30.5625V46.125H37.5625C40.3438 46.125 42.4271 46.6667 43.8125 47.75C45.1979 48.8229 45.8906 50.4427 45.8906 52.6094C45.8906 54.1823 45.4167 55.526 44.4688 56.6406C43.5208 57.7552 42.2969 58.4062 40.7969 58.5938L47.1094 69ZM35.4531 55.875H36.1875C38.1667 55.875 39.474 55.6615 40.1094 55.2344C40.7448 54.7969 41.0625 54.0417 41.0625 52.9688C41.0625 51.8438 40.7188 51.0469 40.0312 50.5781C39.3542 50.099 38.0729 49.8594 36.1875 49.8594H35.4531V55.875ZM49.9688 69V46.125H63.4375V50.25H54.8594V54.9531H63.4375V59.1094H54.8594V64.8438H63.4375V69H49.9688ZM66.7812 66.0938L69.5 63.0156C69.8438 63.8594 70.3958 64.526 71.1562 65.0156C71.9167 65.4948 72.7708 65.7344 73.7188 65.7344C74.8646 65.7344 75.7708 65.4635 76.4375 64.9219C77.1042 64.3802 77.4375 63.651 77.4375 62.7344C77.4375 61.651 76.3281 60.5729 74.1094 59.5C73.3906 59.1562 72.8229 58.875 72.4062 58.6562C70.4062 57.6146 69.0208 56.599 68.25 55.6094C67.4792 54.6094 67.0938 53.4219 67.0938 52.0469C67.0938 50.1615 67.8385 48.6146 69.3281 47.4062C70.8281 46.1875 72.7708 45.5781 75.1562 45.5781C76.5417 45.5781 77.7344 45.8229 78.7344 46.3125C79.7448 46.7917 80.6354 47.5469 81.4062 48.5781L78.5156 51.3438C78.1719 50.6771 77.7135 50.1823 77.1406 49.8594C76.5781 49.526 75.8958 49.3594 75.0938 49.3594C74.125 49.3594 73.3438 49.6042 72.75 50.0938C72.1562 50.5729 71.8594 51.1979 71.8594 51.9688C71.8594 53.1771 73.0365 54.2812 75.3906 55.2812C75.8594 55.4792 76.2188 55.6354 76.4688 55.75C78.4062 56.6354 79.8385 57.6354 80.7656 58.75C81.7031 59.8646 82.1719 61.1354 82.1719 62.5625C82.1719 64.7083 81.4375 66.4219 79.9688 67.7031C78.5104 68.974 76.5469 69.6094 74.0781 69.6094C72.3281 69.6094 70.8281 69.3073 69.5781 68.7031C68.3281 68.099 67.3958 67.2292 66.7812 66.0938ZM109.609 57.6094C109.609 59.2448 109.302 60.7917 108.688 62.25C108.083 63.7083 107.208 64.9896 106.062 66.0938C104.875 67.2292 103.536 68.099 102.047 68.7031C100.557 69.3073 99.0156 69.6094 97.4219 69.6094C96.026 69.6094 94.6562 69.375 93.3125 68.9062C91.9792 68.4271 90.7552 67.7448 89.6406 66.8594C88.2031 65.7135 87.099 64.3438 86.3281 62.75C85.5677 61.1562 85.1875 59.4427 85.1875 57.6094C85.1875 55.9635 85.4896 54.4219 86.0938 52.9844C86.6979 51.5365 87.5833 50.25 88.75 49.125C89.8958 48.0104 91.224 47.1458 92.7344 46.5312C94.2552 45.9167 95.8177 45.6094 97.4219 45.6094C99.0156 45.6094 100.562 45.9167 102.062 46.5312C103.573 47.1458 104.906 48.0104 106.062 49.125C107.219 50.25 108.099 51.5365 108.703 52.9844C109.307 54.4323 109.609 55.974 109.609 57.6094ZM97.4219 65.25C99.4948 65.25 101.203 64.526 102.547 63.0781C103.901 61.6198 104.578 59.7969 104.578 57.6094C104.578 55.4427 103.896 53.6198 102.531 52.1406C101.167 50.6615 99.4635 49.9219 97.4219 49.9219C95.349 49.9219 93.6302 50.6615 92.2656 52.1406C90.901 53.6094 90.2188 55.4323 90.2188 57.6094C90.2188 59.8177 90.8906 61.6458 92.2344 63.0938C93.5781 64.5312 95.3073 65.25 97.4219 65.25ZM113.75 69V46.125H118.641V64.8438H126.453V69H113.75ZM133.578 69L125.125 46.125H130.531L134.984 60.3906C135.068 60.6823 135.198 61.224 135.375 62.0156C135.552 62.8073 135.74 63.7083 135.938 64.7188C136.073 63.7396 136.219 62.8698 136.375 62.1094C136.542 61.349 136.703 60.724 136.859 60.2344L141.375 46.125H146.719L138.203 69H133.578ZM149.188 69V46.125H162.656V50.25H154.078V54.9531H162.656V59.1094H154.078V64.8438H162.656V69H149.188ZM184.016 69H178.375L172.359 58.3125V69H167.469V46.125H174.469C177.25 46.125 179.333 46.6667 180.719 47.75C182.104 48.8229 182.797 50.4427 182.797 52.6094C182.797 54.1823 182.323 55.526 181.375 56.6406C180.427 57.7552 179.203 58.4062 177.703 58.5938L184.016 69ZM172.359 55.875H173.094C175.073 55.875 176.38 55.6615 177.016 55.2344C177.651 54.7969 177.969 54.0417 177.969 52.9688C177.969 51.8438 177.625 51.0469 176.938 50.5781C176.26 50.099 174.979 49.8594 173.094 49.8594H172.359V55.875ZM205.266 50.2812V69H200.359V50.2812H194.766V46.125H210.891V50.2812H205.266ZM233.734 46.125V60.3594C233.734 63.4635 232.917 65.7812 231.281 67.3125C229.646 68.8438 227.182 69.6094 223.891 69.6094C220.547 69.6094 218.057 68.8438 216.422 67.3125C214.786 65.7812 213.969 63.4635 213.969 60.3594V46.125H218.828V59.5938C218.828 61.4792 219.245 62.901 220.078 63.8594C220.911 64.8073 222.156 65.2812 223.812 65.2812C225.479 65.2812 226.74 64.8021 227.594 63.8438C228.448 62.8854 228.875 61.4688 228.875 59.5938V46.125H233.734ZM237.344 66.0938L240.062 63.0156C240.406 63.8594 240.958 64.526 241.719 65.0156C242.479 65.4948 243.333 65.7344 244.281 65.7344C245.427 65.7344 246.333 65.4635 247 64.9219C247.667 64.3802 248 63.651 248 62.7344C248 61.651 246.891 60.5729 244.672 59.5C243.953 59.1562 243.385 58.875 242.969 58.6562C240.969 57.6146 239.583 56.599 238.812 55.6094C238.042 54.6094 237.656 53.4219 237.656 52.0469C237.656 50.1615 238.401 48.6146 239.891 47.4062C241.391 46.1875 243.333 45.5781 245.719 45.5781C247.104 45.5781 248.297 45.8229 249.297 46.3125C250.307 46.7917 251.198 47.5469 251.969 48.5781L249.078 51.3438C248.734 50.6771 248.276 50.1823 247.703 49.8594C247.141 49.526 246.458 49.3594 245.656 49.3594C244.688 49.3594 243.906 49.6042 243.312 50.0938C242.719 50.5729 242.422 51.1979 242.422 51.9688C242.422 53.1771 243.599 54.2812 245.953 55.2812C246.422 55.4792 246.781 55.6354 247.031 55.75C248.969 56.6354 250.401 57.6354 251.328 58.75C252.266 59.8646 252.734 61.1354 252.734 62.5625C252.734 64.7083 252 66.4219 250.531 67.7031C249.073 68.974 247.109 69.6094 244.641 69.6094C242.891 69.6094 241.391 69.3073 240.141 68.7031C238.891 68.099 237.958 67.2292 237.344 66.0938ZM266.688 69V46.125H271.578V69H266.688ZM274.828 69L278.312 46.125H283.438L287.844 59.5938C287.938 59.875 288.036 60.2865 288.141 60.8281C288.255 61.3698 288.359 61.9896 288.453 62.6875C288.536 61.9792 288.63 61.349 288.734 60.7969C288.839 60.2344 288.938 59.8229 289.031 59.5625L293.516 46.125H298.562L302.062 69H297.422L295.75 55.2031C295.625 54.1823 295.542 53.4115 295.5 52.8906C295.458 52.3698 295.438 51.8854 295.438 51.4375C295.438 51.1979 295.438 51.0208 295.438 50.9062C295.448 50.7812 295.458 50.6719 295.469 50.5781C295.312 51.474 295.161 52.25 295.016 52.9062C294.88 53.5521 294.755 54.0417 294.641 54.375L289.797 69H287.047L282.281 54.375C282.24 54.2396 282.146 53.8646 282 53.25C281.865 52.6354 281.672 51.7396 281.422 50.5625V51.2344C281.422 52.2969 281.328 53.599 281.141 55.1406L281.125 55.2031L279.469 69H274.828ZM310.172 56.4531H310.875C312.208 56.4531 313.177 56.1771 313.781 55.625C314.385 55.0729 314.688 54.1875 314.688 52.9688C314.688 51.8438 314.385 51.026 313.781 50.5156C313.177 49.9948 312.208 49.7344 310.875 49.7344H310.172V56.4531ZM305.25 69V46.125H310.875C313.875 46.125 316.089 46.6979 317.516 47.8438C318.953 48.9896 319.672 50.7604 319.672 53.1562C319.672 55.375 318.948 57.1146 317.5 58.375C316.062 59.6354 314.068 60.2656 311.516 60.2656H310.172V69H305.25ZM339.609 69H333.969L327.953 58.3125V69H323.062V46.125H330.062C332.844 46.125 334.927 46.6667 336.312 47.75C337.698 48.8229 338.391 50.4427 338.391 52.6094C338.391 54.1823 337.917 55.526 336.969 56.6406C336.021 57.7552 334.797 58.4062 333.297 58.5938L339.609 69ZM327.953 55.875H328.688C330.667 55.875 331.974 55.6615 332.609 55.2344C333.245 54.7969 333.562 54.0417 333.562 52.9688C333.562 51.8438 333.219 51.0469 332.531 50.5781C331.854 50.099 330.573 49.8594 328.688 49.8594H327.953V55.875ZM342.469 69V46.125H355.938V50.25H347.359V54.9531H355.938V59.1094H347.359V64.8438H355.938V69H342.469ZM366.547 69L358.094 46.125H363.5L367.953 60.3906C368.036 60.6823 368.167 61.224 368.344 62.0156C368.521 62.8073 368.708 63.7083 368.906 64.7188C369.042 63.7396 369.188 62.8698 369.344 62.1094C369.51 61.349 369.672 60.724 369.828 60.2344L374.344 46.125H379.688L371.172 69H366.547ZM382.25 69V46.125H387.141V69H382.25ZM390.906 66.0938L393.625 63.0156C393.969 63.8594 394.521 64.526 395.281 65.0156C396.042 65.4948 396.896 65.7344 397.844 65.7344C398.99 65.7344 399.896 65.4635 400.562 64.9219C401.229 64.3802 401.562 63.651 401.562 62.7344C401.562 61.651 400.453 60.5729 398.234 59.5C397.516 59.1562 396.948 58.875 396.531 58.6562C394.531 57.6146 393.146 56.599 392.375 55.6094C391.604 54.6094 391.219 53.4219 391.219 52.0469C391.219 50.1615 391.964 48.6146 393.453 47.4062C394.953 46.1875 396.896 45.5781 399.281 45.5781C400.667 45.5781 401.859 45.8229 402.859 46.3125C403.87 46.7917 404.76 47.5469 405.531 48.5781L402.641 51.3438C402.297 50.6771 401.839 50.1823 401.266 49.8594C400.703 49.526 400.021 49.3594 399.219 49.3594C398.25 49.3594 397.469 49.6042 396.875 50.0938C396.281 50.5729 395.984 51.1979 395.984 51.9688C395.984 53.1771 397.161 54.2812 399.516 55.2812C399.984 55.4792 400.344 55.6354 400.594 55.75C402.531 56.6354 403.964 57.6354 404.891 58.75C405.828 59.8646 406.297 61.1354 406.297 62.5625C406.297 64.7083 405.562 66.4219 404.094 67.7031C402.635 68.974 400.672 69.6094 398.203 69.6094C396.453 69.6094 394.953 69.3073 393.703 68.7031C392.453 68.099 391.521 67.2292 390.906 66.0938ZM418.859 50.2812V69H413.953V50.2812H408.359V46.125H424.484V50.2812H418.859ZM450.516 57.6094C450.516 59.2448 450.208 60.7917 449.594 62.25C448.99 63.7083 448.115 64.9896 446.969 66.0938C445.781 67.2292 444.443 68.099 442.953 68.7031C441.464 69.3073 439.922 69.6094 438.328 69.6094C436.932 69.6094 435.562 69.375 434.219 68.9062C432.885 68.4271 431.661 67.7448 430.547 66.8594C429.109 65.7135 428.005 64.3438 427.234 62.75C426.474 61.1562 426.094 59.4427 426.094 57.6094C426.094 55.9635 426.396 54.4219 427 52.9844C427.604 51.5365 428.49 50.25 429.656 49.125C430.802 48.0104 432.13 47.1458 433.641 46.5312C435.161 45.9167 436.724 45.6094 438.328 45.6094C439.922 45.6094 441.469 45.9167 442.969 46.5312C444.479 47.1458 445.812 48.0104 446.969 49.125C448.125 50.25 449.005 51.5365 449.609 52.9844C450.214 54.4323 450.516 55.974 450.516 57.6094ZM438.328 65.25C440.401 65.25 442.109 64.526 443.453 63.0781C444.807 61.6198 445.484 59.7969 445.484 57.6094C445.484 55.4427 444.802 53.6198 443.438 52.1406C442.073 50.6615 440.37 49.9219 438.328 49.9219C436.255 49.9219 434.536 50.6615 433.172 52.1406C431.807 53.6094 431.125 55.4323 431.125 57.6094C431.125 59.8177 431.797 61.6458 433.141 63.0938C434.484 64.5312 436.214 65.25 438.328 65.25ZM453.188 66.0938L455.906 63.0156C456.25 63.8594 456.802 64.526 457.562 65.0156C458.323 65.4948 459.177 65.7344 460.125 65.7344C461.271 65.7344 462.177 65.4635 462.844 64.9219C463.51 64.3802 463.844 63.651 463.844 62.7344C463.844 61.651 462.734 60.5729 460.516 59.5C459.797 59.1562 459.229 58.875 458.812 58.6562C456.812 57.6146 455.427 56.599 454.656 55.6094C453.885 54.6094 453.5 53.4219 453.5 52.0469C453.5 50.1615 454.245 48.6146 455.734 47.4062C457.234 46.1875 459.177 45.5781 461.562 45.5781C462.948 45.5781 464.141 45.8229 465.141 46.3125C466.151 46.7917 467.042 47.5469 467.812 48.5781L464.922 51.3438C464.578 50.6771 464.12 50.1823 463.547 49.8594C462.984 49.526 462.302 49.3594 461.5 49.3594C460.531 49.3594 459.75 49.6042 459.156 50.0938C458.562 50.5729 458.266 51.1979 458.266 51.9688C458.266 53.1771 459.443 54.2812 461.797 55.2812C462.266 55.4792 462.625 55.6354 462.875 55.75C464.812 56.6354 466.245 57.6354 467.172 58.75C468.109 59.8646 468.578 61.1354 468.578 62.5625C468.578 64.7083 467.844 66.4219 466.375 67.7031C464.917 68.974 462.953 69.6094 460.484 69.6094C458.734 69.6094 457.234 69.3073 455.984 68.7031C454.734 68.099 453.802 67.2292 453.188 66.0938Z" fill="white"/>
<path d="M27 136H15C10.5817 136 7 132.418 7 128V28" stroke="white" stroke-width="1.5"/>
<circle cx="7" cy="21" r="6.25" stroke="white" stroke-width="1.5"/>
<rect x="25" y="108" width="341" height="73" rx="10" fill="#002A61"/>
<path d="M49.458 139H50.97V128.542L61.554 139.612V125.428H60.042V135.94L49.458 124.852V139ZM68.0697 139.234C70.5357 139.234 72.5157 137.272 72.5157 134.788C72.5157 132.304 70.5537 130.306 68.0697 130.306C65.5857 130.306 63.6237 132.304 63.6237 134.788C63.6237 137.272 65.6037 139.234 68.0697 139.234ZM68.0697 131.638C69.8517 131.638 71.0757 133.06 71.0757 134.77C71.0757 136.498 69.8517 137.902 68.0697 137.902C66.2877 137.902 65.0637 136.498 65.0637 134.77C65.0637 133.06 66.2877 131.638 68.0697 131.638ZM81.5363 131.872H83.0483V130.54H81.5363V127.498H80.0963V130.54H79.2143V131.872H80.0963V139H81.5363V131.872ZM91.7105 135.076C91.8545 132.556 90.4145 130.306 87.6965 130.306C85.0505 130.306 83.5925 132.376 83.5925 134.878C83.5925 137.308 85.2125 139.234 87.7325 139.234C89.4605 139.234 90.8285 138.37 91.6385 136.858L90.4145 136.156C89.8565 137.164 89.0645 137.902 87.8405 137.902C86.2025 137.902 85.0865 136.642 85.0685 135.076H91.7105ZM85.1405 133.852C85.3205 132.628 86.4725 131.638 87.7145 131.638C88.9745 131.638 90.0005 132.628 90.1985 133.852H85.1405ZM102.73 131.638C104.512 131.638 105.574 133.006 105.574 134.698C105.574 136.408 104.602 137.902 102.748 137.902C100.948 137.902 99.9756 136.336 99.9756 134.68C99.9756 133.096 101.056 131.638 102.73 131.638ZM106.942 130.54H105.502V131.746H105.466C104.764 130.81 103.702 130.306 102.55 130.306C100.048 130.306 98.4996 132.448 98.4996 134.806C98.4996 137.2 100.03 139.234 102.568 139.234C103.702 139.234 104.782 138.73 105.466 137.812H105.502V143.752H106.942V130.54ZM110.94 130.54H109.5V135.418C109.5 137.668 110.346 139.234 112.848 139.234C115.35 139.234 116.196 137.668 116.196 135.418V130.54H114.756V135.256C114.756 136.678 114.594 137.902 112.848 137.902C111.102 137.902 110.94 136.678 110.94 135.256V130.54ZM126.181 135.076C126.325 132.556 124.885 130.306 122.167 130.306C119.521 130.306 118.063 132.376 118.063 134.878C118.063 137.308 119.683 139.234 122.203 139.234C123.931 139.234 125.299 138.37 126.109 136.858L124.885 136.156C124.327 137.164 123.535 137.902 122.311 137.902C120.673 137.902 119.557 136.642 119.539 135.076H126.181ZM119.611 133.852C119.791 132.628 120.943 131.638 122.185 131.638C123.445 131.638 124.471 132.628 124.669 133.852H119.611ZM131.663 131.638C133.445 131.638 134.507 133.006 134.507 134.698C134.507 136.408 133.535 137.902 131.681 137.902C129.881 137.902 128.909 136.336 128.909 134.68C128.909 133.096 129.989 131.638 131.663 131.638ZM134.435 139H135.875V124.15H134.435V131.746H134.399C133.715 130.846 132.635 130.306 131.501 130.306C128.963 130.306 127.433 132.376 127.433 134.788C127.433 137.128 128.999 139.234 131.483 139.234C132.635 139.234 133.697 138.748 134.399 137.83H134.435V139ZM145.904 135.076C146.048 132.556 144.608 130.306 141.89 130.306C139.244 130.306 137.786 132.376 137.786 134.878C137.786 137.308 139.406 139.234 141.926 139.234C143.654 139.234 145.022 138.37 145.832 136.858L144.608 136.156C144.05 137.164 143.258 137.902 142.034 137.902C140.396 137.902 139.28 136.642 139.262 135.076H145.904ZM139.334 133.852C139.514 132.628 140.666 131.638 141.908 131.638C143.168 131.638 144.194 132.628 144.392 133.852H139.334ZM152.502 131.872C152.124 130.99 151.224 130.306 150.252 130.306C148.884 130.306 147.732 131.278 147.732 132.7C147.732 135.364 151.548 134.716 151.548 136.606C151.548 137.38 150.954 137.902 150.18 137.902C149.226 137.902 148.812 137.344 148.452 136.552L147.174 137.092C147.624 138.424 148.74 139.234 150.162 139.234C151.728 139.234 153.024 138.082 153.024 136.48C153.024 135.058 152.052 134.464 151.062 134.05C150.072 133.636 149.1 133.348 149.1 132.574C149.1 132.034 149.64 131.638 150.144 131.638C150.666 131.638 151.098 132.052 151.296 132.502L152.502 131.872ZM165.228 131.872C164.85 130.99 163.95 130.306 162.978 130.306C161.61 130.306 160.458 131.278 160.458 132.7C160.458 135.364 164.274 134.716 164.274 136.606C164.274 137.38 163.68 137.902 162.906 137.902C161.952 137.902 161.538 137.344 161.178 136.552L159.9 137.092C160.35 138.424 161.466 139.234 162.888 139.234C164.454 139.234 165.75 138.082 165.75 136.48C165.75 135.058 164.778 134.464 163.788 134.05C162.798 133.636 161.826 133.348 161.826 132.574C161.826 132.034 162.366 131.638 162.87 131.638C163.392 131.638 163.824 132.052 164.022 132.502L165.228 131.872ZM169.502 130.54H168.062V139H169.502V130.54ZM168.782 126.328C168.224 126.328 167.756 126.796 167.756 127.354C167.756 127.93 168.224 128.38 168.782 128.38C169.34 128.38 169.808 127.93 169.808 127.354C169.808 126.796 169.34 126.328 168.782 126.328ZM173.943 130.54H172.503V139H173.943V134.986C173.943 133.474 174.069 131.638 176.049 131.638C177.723 131.638 177.831 132.862 177.831 134.23V139H179.271V133.978C179.271 131.998 178.731 130.306 176.391 130.306C175.347 130.306 174.573 130.756 173.979 131.566H173.943V130.54ZM188.954 124.15H187.514V139H188.954V124.15ZM195.318 139.234C197.784 139.234 199.764 137.272 199.764 134.788C199.764 132.304 197.802 130.306 195.318 130.306C192.834 130.306 190.872 132.304 190.872 134.788C190.872 137.272 192.852 139.234 195.318 139.234ZM195.318 131.638C197.1 131.638 198.324 133.06 198.324 134.77C198.324 136.498 197.1 137.902 195.318 137.902C193.536 137.902 192.312 136.498 192.312 134.77C192.312 133.06 193.536 131.638 195.318 131.638ZM210.858 129.766V139H207.6V129.766H210.858ZM207.384 126.22C207.384 125.968 207.432 125.734 207.528 125.518C207.624 125.29 207.756 125.092 207.924 124.924C208.092 124.756 208.284 124.624 208.5 124.528C208.728 124.432 208.968 124.384 209.22 124.384C209.472 124.384 209.706 124.432 209.922 124.528C210.15 124.624 210.348 124.756 210.516 124.924C210.684 125.092 210.816 125.29 210.912 125.518C211.008 125.734 211.056 125.968 211.056 126.22C211.056 126.472 211.008 126.712 210.912 126.94C210.816 127.156 210.684 127.348 210.516 127.516C210.348 127.684 210.15 127.816 209.922 127.912C209.706 128.008 209.472 128.056 209.22 128.056C208.968 128.056 208.728 128.008 208.5 127.912C208.284 127.816 208.092 127.684 207.924 127.516C207.756 127.348 207.624 127.156 207.528 126.94C207.432 126.712 207.384 126.472 207.384 126.22ZM213.085 129.766H216.343V130.936C216.787 130.396 217.237 130.036 217.693 129.856C218.149 129.664 218.683 129.568 219.295 129.568C219.943 129.568 220.495 129.676 220.951 129.892C221.419 130.096 221.815 130.39 222.139 130.774C222.403 131.086 222.583 131.434 222.679 131.818C222.775 132.202 222.823 132.64 222.823 133.132V139H219.565V134.338C219.565 133.882 219.529 133.516 219.457 133.24C219.397 132.952 219.283 132.724 219.115 132.556C218.971 132.412 218.809 132.31 218.629 132.25C218.449 132.19 218.257 132.16 218.053 132.16C217.501 132.16 217.075 132.328 216.775 132.664C216.487 132.988 216.343 133.456 216.343 134.068V139H213.085V129.766ZM228.062 134.356C228.062 134.656 228.116 134.938 228.224 135.202C228.332 135.454 228.476 135.676 228.656 135.868C228.848 136.06 229.07 136.21 229.322 136.318C229.586 136.426 229.868 136.48 230.168 136.48C230.456 136.48 230.726 136.426 230.978 136.318C231.242 136.21 231.464 136.06 231.644 135.868C231.836 135.676 231.986 135.454 232.094 135.202C232.214 134.95 232.274 134.68 232.274 134.392C232.274 134.104 232.214 133.834 232.094 133.582C231.986 133.318 231.836 133.09 231.644 132.898C231.464 132.706 231.242 132.556 230.978 132.448C230.726 132.34 230.456 132.286 230.168 132.286C229.88 132.286 229.604 132.34 229.34 132.448C229.088 132.556 228.866 132.706 228.674 132.898C228.494 133.09 228.344 133.312 228.224 133.564C228.116 133.804 228.062 134.068 228.062 134.356ZM232.166 124.06H235.442V139H232.166V137.974C231.47 138.85 230.528 139.288 229.34 139.288C228.668 139.288 228.05 139.162 227.486 138.91C226.922 138.658 226.43 138.31 226.01 137.866C225.59 137.422 225.26 136.9 225.02 136.3C224.792 135.7 224.678 135.052 224.678 134.356C224.678 133.696 224.786 133.072 225.002 132.484C225.23 131.884 225.548 131.362 225.956 130.918C226.364 130.474 226.85 130.126 227.414 129.874C227.99 129.61 228.62 129.478 229.304 129.478C230.456 129.478 231.41 129.88 232.166 130.684V124.06ZM240.917 129.766V139H237.659V129.766H240.917ZM237.443 126.22C237.443 125.968 237.491 125.734 237.587 125.518C237.683 125.29 237.815 125.092 237.983 124.924C238.151 124.756 238.343 124.624 238.559 124.528C238.787 124.432 239.027 124.384 239.279 124.384C239.531 124.384 239.765 124.432 239.981 124.528C240.209 124.624 240.407 124.756 240.575 124.924C240.743 125.092 240.875 125.29 240.971 125.518C241.067 125.734 241.115 125.968 241.115 126.22C241.115 126.472 241.067 126.712 240.971 126.94C240.875 127.156 240.743 127.348 240.575 127.516C240.407 127.684 240.209 127.816 239.981 127.912C239.765 128.008 239.531 128.056 239.279 128.056C239.027 128.056 238.787 128.008 238.559 127.912C238.343 127.816 238.151 127.684 237.983 127.516C237.815 127.348 237.683 127.156 237.587 126.94C237.491 126.712 237.443 126.472 237.443 126.22ZM249.263 132.142C248.663 131.83 248.075 131.674 247.499 131.674C247.199 131.674 246.953 131.734 246.761 131.854C246.581 131.974 246.491 132.136 246.491 132.34C246.491 132.448 246.503 132.538 246.527 132.61C246.563 132.67 246.629 132.73 246.725 132.79C246.833 132.85 246.983 132.904 247.175 132.952C247.379 133 247.643 133.06 247.967 133.132C248.867 133.312 249.539 133.636 249.983 134.104C250.427 134.56 250.649 135.148 250.649 135.868C250.649 136.408 250.541 136.894 250.325 137.326C250.109 137.758 249.809 138.124 249.425 138.424C249.041 138.712 248.579 138.934 248.039 139.09C247.499 139.258 246.905 139.342 246.257 139.342C245.009 139.342 243.779 138.988 242.567 138.28L243.755 135.976C244.667 136.6 245.531 136.912 246.347 136.912C246.647 136.912 246.893 136.846 247.085 136.714C247.277 136.582 247.373 136.414 247.373 136.21C247.373 136.09 247.355 135.994 247.319 135.922C247.295 135.838 247.235 135.766 247.139 135.706C247.043 135.634 246.899 135.574 246.707 135.526C246.527 135.466 246.287 135.406 245.987 135.346C244.979 135.142 244.271 134.842 243.863 134.446C243.467 134.038 243.269 133.48 243.269 132.772C243.269 132.256 243.365 131.794 243.557 131.386C243.749 130.966 244.025 130.612 244.385 130.324C244.745 130.036 245.177 129.814 245.681 129.658C246.197 129.502 246.767 129.424 247.391 129.424C248.411 129.424 249.401 129.622 250.361 130.018L249.263 132.142ZM259.664 134.41C259.664 134.122 259.61 133.852 259.502 133.6C259.406 133.336 259.262 133.108 259.07 132.916C258.878 132.724 258.65 132.574 258.386 132.466C258.134 132.346 257.858 132.286 257.558 132.286C257.27 132.286 257 132.34 256.748 132.448C256.496 132.556 256.274 132.706 256.082 132.898C255.902 133.09 255.752 133.318 255.632 133.582C255.524 133.834 255.47 134.104 255.47 134.392C255.47 134.68 255.524 134.95 255.632 135.202C255.74 135.454 255.89 135.676 256.082 135.868C256.274 136.048 256.496 136.198 256.748 136.318C257.012 136.426 257.288 136.48 257.576 136.48C257.864 136.48 258.134 136.426 258.386 136.318C258.638 136.21 258.854 136.06 259.034 135.868C259.226 135.676 259.376 135.454 259.484 135.202C259.604 134.95 259.664 134.686 259.664 134.41ZM255.56 143.608H252.302V129.766H255.56V130.792C256.256 129.916 257.204 129.478 258.404 129.478C259.064 129.478 259.676 129.61 260.24 129.874C260.816 130.126 261.314 130.474 261.734 130.918C262.154 131.362 262.478 131.884 262.706 132.484C262.946 133.084 263.066 133.726 263.066 134.41C263.066 135.094 262.946 135.73 262.706 136.318C262.478 136.906 262.154 137.422 261.734 137.866C261.326 138.31 260.84 138.658 260.276 138.91C259.712 139.162 259.1 139.288 258.44 139.288C257.288 139.288 256.328 138.892 255.56 138.1V143.608ZM271.673 133.042C271.565 132.586 271.343 132.22 271.007 131.944C270.671 131.668 270.263 131.53 269.783 131.53C269.279 131.53 268.865 131.662 268.541 131.926C268.229 132.19 268.031 132.562 267.947 133.042H271.673ZM267.857 134.932C267.857 136.336 268.517 137.038 269.837 137.038C270.545 137.038 271.079 136.75 271.439 136.174H274.589C273.953 138.286 272.363 139.342 269.819 139.342C269.039 139.342 268.325 139.228 267.677 139C267.029 138.76 266.471 138.424 266.003 137.992C265.547 137.56 265.193 137.044 264.941 136.444C264.689 135.844 264.563 135.172 264.563 134.428C264.563 133.66 264.683 132.97 264.923 132.358C265.163 131.734 265.505 131.206 265.949 130.774C266.393 130.342 266.927 130.012 267.551 129.784C268.187 129.544 268.901 129.424 269.693 129.424C270.473 129.424 271.175 129.544 271.799 129.784C272.423 130.012 272.951 130.348 273.383 130.792C273.815 131.236 274.145 131.782 274.373 132.43C274.601 133.066 274.715 133.786 274.715 134.59V134.932H267.857ZM276.577 129.766H279.835V130.936C280.279 130.396 280.729 130.036 281.185 129.856C281.641 129.664 282.175 129.568 282.787 129.568C283.435 129.568 283.987 129.676 284.443 129.892C284.911 130.096 285.307 130.39 285.631 130.774C285.895 131.086 286.075 131.434 286.171 131.818C286.267 132.202 286.315 132.64 286.315 133.132V139H283.057V134.338C283.057 133.882 283.021 133.516 282.949 133.24C282.889 132.952 282.775 132.724 282.607 132.556C282.463 132.412 282.301 132.31 282.121 132.25C281.941 132.19 281.749 132.16 281.545 132.16C280.993 132.16 280.567 132.328 280.267 132.664C279.979 132.988 279.835 133.456 279.835 134.068V139H276.577V129.766ZM294.65 132.142C294.05 131.83 293.462 131.674 292.886 131.674C292.586 131.674 292.34 131.734 292.148 131.854C291.968 131.974 291.878 132.136 291.878 132.34C291.878 132.448 291.89 132.538 291.914 132.61C291.95 132.67 292.016 132.73 292.112 132.79C292.22 132.85 292.37 132.904 292.562 132.952C292.766 133 293.03 133.06 293.354 133.132C294.254 133.312 294.926 133.636 295.37 134.104C295.814 134.56 296.036 135.148 296.036 135.868C296.036 136.408 295.928 136.894 295.712 137.326C295.496 137.758 295.196 138.124 294.812 138.424C294.428 138.712 293.966 138.934 293.426 139.09C292.886 139.258 292.292 139.342 291.644 139.342C290.396 139.342 289.166 138.988 287.954 138.28L289.142 135.976C290.054 136.6 290.918 136.912 291.734 136.912C292.034 136.912 292.28 136.846 292.472 136.714C292.664 136.582 292.76 136.414 292.76 136.21C292.76 136.09 292.742 135.994 292.706 135.922C292.682 135.838 292.622 135.766 292.526 135.706C292.43 135.634 292.286 135.574 292.094 135.526C291.914 135.466 291.674 135.406 291.374 135.346C290.366 135.142 289.658 134.842 289.25 134.446C288.854 134.038 288.656 133.48 288.656 132.772C288.656 132.256 288.752 131.794 288.944 131.386C289.136 130.966 289.412 130.612 289.772 130.324C290.132 130.036 290.564 129.814 291.068 129.658C291.584 129.502 292.154 129.424 292.778 129.424C293.798 129.424 294.788 129.622 295.748 130.018L294.65 132.142ZM300.712 134.356C300.712 134.656 300.766 134.938 300.874 135.202C300.982 135.454 301.126 135.676 301.306 135.868C301.498 136.06 301.72 136.21 301.972 136.318C302.236 136.426 302.518 136.48 302.818 136.48C303.106 136.48 303.376 136.426 303.628 136.318C303.892 136.21 304.114 136.06 304.294 135.868C304.486 135.676 304.636 135.454 304.744 135.202C304.864 134.95 304.924 134.68 304.924 134.392C304.924 134.104 304.864 133.834 304.744 133.582C304.636 133.318 304.486 133.09 304.294 132.898C304.114 132.706 303.892 132.556 303.628 132.448C303.376 132.34 303.106 132.286 302.818 132.286C302.518 132.286 302.236 132.34 301.972 132.448C301.72 132.556 301.498 132.706 301.306 132.898C301.126 133.09 300.982 133.312 300.874 133.564C300.766 133.804 300.712 134.068 300.712 134.356ZM304.816 129.766H308.092V139H304.816V137.974C304.12 138.85 303.178 139.288 301.99 139.288C301.318 139.288 300.7 139.168 300.136 138.928C299.572 138.676 299.08 138.328 298.66 137.884C298.24 137.44 297.91 136.918 297.67 136.318C297.442 135.718 297.328 135.064 297.328 134.356C297.328 133.696 297.442 133.072 297.67 132.484C297.898 131.884 298.216 131.362 298.624 130.918C299.032 130.474 299.518 130.126 300.082 129.874C300.646 129.61 301.27 129.478 301.954 129.478C303.106 129.478 304.06 129.88 304.816 130.684V129.766ZM317.671 134.41C317.671 134.122 317.617 133.852 317.509 133.6C317.401 133.336 317.251 133.108 317.059 132.916C316.867 132.724 316.645 132.574 316.393 132.466C316.141 132.346 315.865 132.286 315.565 132.286C315.277 132.286 315.007 132.34 314.755 132.448C314.503 132.556 314.281 132.706 314.089 132.898C313.909 133.09 313.759 133.318 313.639 133.582C313.531 133.834 313.477 134.104 313.477 134.392C313.477 134.68 313.531 134.95 313.639 135.202C313.747 135.454 313.897 135.676 314.089 135.868C314.281 136.048 314.503 136.198 314.755 136.318C315.019 136.426 315.295 136.48 315.583 136.48C315.871 136.48 316.141 136.426 316.393 136.318C316.645 136.21 316.861 136.06 317.041 135.868C317.233 135.676 317.383 135.454 317.491 135.202C317.611 134.95 317.671 134.686 317.671 134.41ZM313.567 124.06V130.684C314.335 129.88 315.295 129.478 316.447 129.478C317.131 129.478 317.755 129.61 318.319 129.874C318.895 130.126 319.381 130.474 319.777 130.918C320.185 131.35 320.503 131.866 320.731 132.466C320.959 133.054 321.073 133.684 321.073 134.356C321.073 135.04 320.953 135.682 320.713 136.282C320.485 136.882 320.161 137.404 319.741 137.848C319.321 138.292 318.823 138.646 318.247 138.91C317.683 139.162 317.071 139.288 316.411 139.288C315.211 139.288 314.263 138.85 313.567 137.974V139H310.309V124.06H313.567ZM326.188 124.06V139H322.93V124.06H326.188ZM335.165 133.042C335.057 132.586 334.835 132.22 334.499 131.944C334.163 131.668 333.755 131.53 333.275 131.53C332.771 131.53 332.357 131.662 332.033 131.926C331.721 132.19 331.523 132.562 331.439 133.042H335.165ZM331.349 134.932C331.349 136.336 332.009 137.038 333.329 137.038C334.037 137.038 334.571 136.75 334.931 136.174H338.081C337.445 138.286 335.855 139.342 333.311 139.342C332.531 139.342 331.817 139.228 331.169 139C330.521 138.76 329.963 138.424 329.495 137.992C329.039 137.56 328.685 137.044 328.433 136.444C328.181 135.844 328.055 135.172 328.055 134.428C328.055 133.66 328.175 132.97 328.415 132.358C328.655 131.734 328.997 131.206 329.441 130.774C329.885 130.342 330.419 130.012 331.043 129.784C331.679 129.544 332.393 129.424 333.185 129.424C333.965 129.424 334.667 129.544 335.291 129.784C335.915 130.012 336.443 130.348 336.875 130.792C337.307 131.236 337.637 131.782 337.865 132.43C338.093 133.066 338.207 133.786 338.207 134.59V134.932H331.349ZM53.418 151.638C55.2 151.638 56.262 153.006 56.262 154.698C56.262 156.408 55.29 157.902 53.436 157.902C51.636 157.902 50.664 156.336 50.664 154.68C50.664 153.096 51.744 151.638 53.418 151.638ZM50.736 150.54H49.296V163.752H50.736V157.812H50.772C51.456 158.73 52.518 159.234 53.67 159.234C56.208 159.234 57.738 157.2 57.738 154.788C57.738 152.448 56.172 150.306 53.688 150.306C52.518 150.306 51.474 150.81 50.772 151.746H50.736V150.54ZM63.2667 151.638C65.0487 151.638 66.1107 153.006 66.1107 154.698C66.1107 156.408 65.1387 157.902 63.2847 157.902C61.4847 157.902 60.5127 156.336 60.5127 154.68C60.5127 153.096 61.5927 151.638 63.2667 151.638ZM67.4787 150.54H66.0387V151.746H66.0027C65.3007 150.846 64.2567 150.306 63.1047 150.306C60.5667 150.306 59.0367 152.376 59.0367 154.788C59.0367 157.128 60.6027 159.234 63.0867 159.234C64.2747 159.234 65.2647 158.766 66.0027 157.83H66.0387V159H67.4787V150.54ZM71.5133 150.54H70.0733V159H71.5133V154.77C71.5133 153.672 71.5853 151.638 73.1693 151.638C73.5473 151.638 73.7453 151.818 74.0333 152.016L74.7173 150.702C74.3033 150.468 73.9073 150.306 73.4213 150.306C72.4853 150.306 72.0533 150.792 71.5493 151.458H71.5133V150.54ZM79.6846 151.638C81.4666 151.638 82.5286 153.006 82.5286 154.698C82.5286 156.408 81.5566 157.902 79.7026 157.902C77.9026 157.902 76.9306 156.336 76.9306 154.68C76.9306 153.096 78.0106 151.638 79.6846 151.638ZM83.8966 150.54H82.4566V151.746H82.4206C81.7186 150.846 80.6746 150.306 79.5226 150.306C76.9846 150.306 75.4546 152.376 75.4546 154.788C75.4546 157.128 77.0206 159.234 79.5046 159.234C80.6926 159.234 81.6826 158.766 82.4206 157.83H82.4566V159H83.8966V150.54ZM96.0645 152.484V159H92.8065V152.484H91.7265V149.766H92.8065V146.994H96.0645V149.766H97.9185V152.484H96.0645ZM102.401 149.766V154.968C102.401 156.108 102.953 156.678 104.057 156.678C105.161 156.678 105.713 156.108 105.713 154.968V149.766H108.971V155.598C108.971 156.846 108.557 157.782 107.729 158.406C106.913 159.03 105.689 159.342 104.057 159.342C102.425 159.342 101.195 159.03 100.367 158.406C99.5513 157.782 99.1433 156.846 99.1433 155.598V149.766H102.401ZM117.302 149.766H120.56V150.936C121.004 150.396 121.454 150.036 121.91 149.856C122.366 149.664 122.9 149.568 123.512 149.568C124.16 149.568 124.712 149.676 125.168 149.892C125.636 150.096 126.032 150.39 126.356 150.774C126.62 151.086 126.8 151.434 126.896 151.818C126.992 152.202 127.04 152.64 127.04 153.132V159H123.782V154.338C123.782 153.882 123.746 153.516 123.674 153.24C123.614 152.952 123.5 152.724 123.332 152.556C123.188 152.412 123.026 152.31 122.846 152.25C122.666 152.19 122.474 152.16 122.27 152.16C121.718 152.16 121.292 152.328 120.992 152.664C120.704 152.988 120.56 153.456 120.56 154.068V159H117.302V149.766ZM136.005 153.042C135.897 152.586 135.675 152.22 135.339 151.944C135.003 151.668 134.595 151.53 134.115 151.53C133.611 151.53 133.197 151.662 132.873 151.926C132.561 152.19 132.363 152.562 132.279 153.042H136.005ZM132.189 154.932C132.189 156.336 132.849 157.038 134.169 157.038C134.877 157.038 135.411 156.75 135.771 156.174H138.921C138.285 158.286 136.695 159.342 134.151 159.342C133.371 159.342 132.657 159.228 132.009 159C131.361 158.76 130.803 158.424 130.335 157.992C129.879 157.56 129.525 157.044 129.273 156.444C129.021 155.844 128.895 155.172 128.895 154.428C128.895 153.66 129.015 152.97 129.255 152.358C129.495 151.734 129.837 151.206 130.281 150.774C130.725 150.342 131.259 150.012 131.883 149.784C132.519 149.544 133.233 149.424 134.025 149.424C134.805 149.424 135.507 149.544 136.131 149.784C136.755 150.012 137.283 150.348 137.715 150.792C138.147 151.236 138.477 151.782 138.705 152.43C138.933 153.066 139.047 153.786 139.047 154.59V154.932H132.189ZM143.933 154.338C143.933 154.638 143.987 154.92 144.095 155.184C144.203 155.436 144.347 155.658 144.527 155.85C144.719 156.042 144.941 156.192 145.193 156.3C145.457 156.408 145.739 156.462 146.039 156.462C146.327 156.462 146.597 156.408 146.849 156.3C147.113 156.192 147.335 156.042 147.515 155.85C147.707 155.658 147.857 155.436 147.965 155.184C148.085 154.92 148.145 154.644 148.145 154.356C148.145 154.056 148.085 153.78 147.965 153.528C147.857 153.276 147.707 153.054 147.515 152.862C147.323 152.67 147.095 152.52 146.831 152.412C146.579 152.304 146.315 152.25 146.039 152.25C145.751 152.25 145.481 152.31 145.229 152.43C144.977 152.538 144.755 152.688 144.563 152.88C144.371 153.06 144.215 153.276 144.095 153.528C143.987 153.78 143.933 154.05 143.933 154.338ZM151.241 149.766V158.37C151.241 158.886 151.211 159.348 151.151 159.756C151.091 160.164 151.007 160.524 150.899 160.836C150.755 161.232 150.527 161.598 150.215 161.934C149.915 162.282 149.549 162.582 149.117 162.834C148.685 163.086 148.193 163.284 147.641 163.428C147.101 163.572 146.513 163.644 145.877 163.644C145.157 163.644 144.497 163.554 143.897 163.374C143.297 163.194 142.769 162.942 142.313 162.618C141.869 162.306 141.503 161.934 141.215 161.502C140.927 161.082 140.735 160.62 140.639 160.116H144.311C144.539 160.728 145.055 161.034 145.859 161.034C146.543 161.034 147.065 160.842 147.425 160.458C147.797 160.074 147.983 159.54 147.983 158.856V157.974C147.743 158.202 147.509 158.394 147.281 158.55C147.065 158.694 146.843 158.814 146.615 158.91C146.387 159.006 146.147 159.072 145.895 159.108C145.643 159.156 145.367 159.18 145.067 159.18C144.407 159.18 143.801 159.066 143.249 158.838C142.697 158.61 142.217 158.292 141.809 157.884C141.413 157.476 141.101 156.99 140.873 156.426C140.657 155.85 140.549 155.214 140.549 154.518C140.549 153.81 140.669 153.156 140.909 152.556C141.149 151.944 141.473 151.416 141.881 150.972C142.301 150.516 142.793 150.162 143.357 149.91C143.933 149.646 144.557 149.514 145.229 149.514C146.321 149.514 147.239 149.922 147.983 150.738V149.766H151.241ZM156.538 154.338C156.538 154.65 156.592 154.938 156.7 155.202C156.82 155.454 156.97 155.676 157.15 155.868C157.342 156.06 157.564 156.21 157.816 156.318C158.08 156.426 158.356 156.48 158.644 156.48C158.932 156.48 159.202 156.426 159.454 156.318C159.718 156.21 159.94 156.06 160.12 155.868C160.312 155.676 160.462 155.454 160.57 155.202C160.69 154.938 160.75 154.656 160.75 154.356C160.75 154.068 160.69 153.798 160.57 153.546C160.462 153.282 160.312 153.054 160.12 152.862C159.94 152.67 159.718 152.52 159.454 152.412C159.202 152.304 158.932 152.25 158.644 152.25C158.356 152.25 158.08 152.304 157.816 152.412C157.564 152.52 157.342 152.67 157.15 152.862C156.97 153.054 156.82 153.276 156.7 153.528C156.592 153.78 156.538 154.05 156.538 154.338ZM153.1 154.302C153.1 153.618 153.238 152.982 153.514 152.394C153.79 151.794 154.174 151.278 154.666 150.846C155.158 150.402 155.74 150.054 156.412 149.802C157.096 149.55 157.84 149.424 158.644 149.424C159.436 149.424 160.168 149.55 160.84 149.802C161.524 150.042 162.112 150.384 162.604 150.828C163.108 151.26 163.498 151.782 163.774 152.394C164.05 152.994 164.188 153.66 164.188 154.392C164.188 155.124 164.044 155.796 163.756 156.408C163.48 157.008 163.096 157.53 162.604 157.974C162.112 158.406 161.518 158.742 160.822 158.982C160.138 159.222 159.394 159.342 158.59 159.342C157.798 159.342 157.066 159.222 156.394 158.982C155.722 158.742 155.14 158.4 154.648 157.956C154.168 157.512 153.79 156.984 153.514 156.372C153.238 155.748 153.1 155.058 153.1 154.302ZM173.029 152.754C172.465 152.37 171.895 152.178 171.319 152.178C171.007 152.178 170.713 152.232 170.437 152.34C170.173 152.448 169.939 152.604 169.735 152.808C169.531 153 169.369 153.234 169.249 153.51C169.141 153.774 169.087 154.074 169.087 154.41C169.087 154.734 169.141 155.034 169.249 155.31C169.369 155.574 169.525 155.808 169.717 156.012C169.921 156.204 170.161 156.354 170.437 156.462C170.713 156.57 171.007 156.624 171.319 156.624C171.931 156.624 172.501 156.414 173.029 155.994V158.766C172.225 159.114 171.463 159.288 170.743 159.288C170.071 159.288 169.429 159.174 168.817 158.946C168.217 158.718 167.683 158.394 167.215 157.974C166.759 157.542 166.393 157.032 166.117 156.444C165.841 155.844 165.703 155.178 165.703 154.446C165.703 153.714 165.835 153.048 166.099 152.448C166.363 151.836 166.723 151.314 167.179 150.882C167.635 150.438 168.175 150.096 168.799 149.856C169.435 149.604 170.113 149.478 170.833 149.478C171.625 149.478 172.357 149.646 173.029 149.982V152.754ZM178.145 149.766V159H174.887V149.766H178.145ZM174.671 146.22C174.671 145.968 174.719 145.734 174.815 145.518C174.911 145.29 175.043 145.092 175.211 144.924C175.379 144.756 175.571 144.624 175.787 144.528C176.015 144.432 176.255 144.384 176.507 144.384C176.759 144.384 176.993 144.432 177.209 144.528C177.437 144.624 177.635 144.756 177.803 144.924C177.971 145.092 178.103 145.29 178.199 145.518C178.295 145.734 178.343 145.968 178.343 146.22C178.343 146.472 178.295 146.712 178.199 146.94C178.103 147.156 177.971 147.348 177.803 147.516C177.635 147.684 177.437 147.816 177.209 147.912C176.993 148.008 176.759 148.056 176.507 148.056C176.255 148.056 176.015 148.008 175.787 147.912C175.571 147.816 175.379 147.684 175.211 147.516C175.043 147.348 174.911 147.156 174.815 146.94C174.719 146.712 174.671 146.472 174.671 146.22ZM183.45 154.338C183.45 154.65 183.504 154.938 183.612 155.202C183.732 155.454 183.882 155.676 184.062 155.868C184.254 156.06 184.476 156.21 184.728 156.318C184.992 156.426 185.268 156.48 185.556 156.48C185.844 156.48 186.114 156.426 186.366 156.318C186.63 156.21 186.852 156.06 187.032 155.868C187.224 155.676 187.374 155.454 187.482 155.202C187.602 154.938 187.662 154.656 187.662 154.356C187.662 154.068 187.602 153.798 187.482 153.546C187.374 153.282 187.224 153.054 187.032 152.862C186.852 152.67 186.63 152.52 186.366 152.412C186.114 152.304 185.844 152.25 185.556 152.25C185.268 152.25 184.992 152.304 184.728 152.412C184.476 152.52 184.254 152.67 184.062 152.862C183.882 153.054 183.732 153.276 183.612 153.528C183.504 153.78 183.45 154.05 183.45 154.338ZM180.012 154.302C180.012 153.618 180.15 152.982 180.426 152.394C180.702 151.794 181.086 151.278 181.578 150.846C182.07 150.402 182.652 150.054 183.324 149.802C184.008 149.55 184.752 149.424 185.556 149.424C186.348 149.424 187.08 149.55 187.752 149.802C188.436 150.042 189.024 150.384 189.516 150.828C190.02 151.26 190.41 151.782 190.686 152.394C190.962 152.994 191.1 153.66 191.1 154.392C191.1 155.124 190.956 155.796 190.668 156.408C190.392 157.008 190.008 157.53 189.516 157.974C189.024 158.406 188.43 158.742 187.734 158.982C187.05 159.222 186.306 159.342 185.502 159.342C184.71 159.342 183.978 159.222 183.306 158.982C182.634 158.742 182.052 158.4 181.56 157.956C181.08 157.512 180.702 156.984 180.426 156.372C180.15 155.748 180.012 155.058 180.012 154.302Z" fill="white"/>
</svg>
