<svg width="535" height="156" viewBox="0 0 535 156" fill="none" xmlns="http://www.w3.org/2000/svg">
<path d="M48.9844 14.0781C47.9948 13.1927 46.9792 12.5469 45.9375 12.1406C44.8958 11.724 43.7812 11.5156 42.5938 11.5156C40.1562 11.5156 38.2135 12.2448 36.7656 13.7031C35.3177 15.1615 34.5938 17.1198 34.5938 19.5781C34.5938 21.9844 35.2656 23.8958 36.6094 25.3125C37.9531 26.7188 39.7865 27.4219 42.1094 27.4219C43.4323 27.4219 44.6615 27.2031 45.7969 26.7656C46.9323 26.3177 47.9844 25.651 48.9531 24.7656L48.9219 29.7812C47.8802 30.3958 46.7865 30.8542 45.6406 31.1562C44.5052 31.4583 43.3073 31.6094 42.0469 31.6094C38.401 31.6094 35.4062 30.4792 33.0625 28.2188C30.7292 25.9479 29.5625 23.0677 29.5625 19.5781C29.5625 16.099 30.7344 13.2292 33.0781 10.9688C35.4219 8.70833 38.4427 7.57812 42.1406 7.57812C43.3802 7.57812 44.5781 7.70833 45.7344 7.96875C46.8906 8.22917 48.0312 8.63021 49.1562 9.17188L48.9844 14.0781ZM65.375 22.2969L62.8125 14.9062C62.7396 14.6875 62.6458 14.3125 62.5312 13.7812C62.4167 13.25 62.2969 12.599 62.1719 11.8281C62.0365 12.5677 61.9062 13.2344 61.7812 13.8281C61.6562 14.4115 61.5625 14.8021 61.5 15L59.0312 22.2969H65.375ZM50.8125 31L59.5156 8.125H65.1094L73.9375 31H68.375L66.5156 26.1406H57.6562L56.0625 31H50.8125ZM81.2656 18.4531H81.9688C83.3021 18.4531 84.2708 18.1771 84.875 17.625C85.4792 17.0729 85.7812 16.1875 85.7812 14.9688C85.7812 13.8438 85.4792 13.026 84.875 12.5156C84.2708 11.9948 83.3021 11.7344 81.9688 11.7344H81.2656V18.4531ZM76.3438 31V8.125H81.9688C84.9688 8.125 87.1823 8.69792 88.6094 9.84375C90.0469 10.9896 90.7656 12.7604 90.7656 15.1562C90.7656 17.375 90.0417 19.1146 88.5938 20.375C87.1562 21.6354 85.1615 22.2656 82.6094 22.2656H81.2656V31H76.3438ZM94.25 31V8.125H99.1406V31H94.25ZM112.922 12.2812V31H108.016V12.2812H102.422V8.125H118.547V12.2812H112.922ZM131.812 22.2969L129.25 14.9062C129.177 14.6875 129.083 14.3125 128.969 13.7812C128.854 13.25 128.734 12.599 128.609 11.8281C128.474 12.5677 128.344 13.2344 128.219 13.8281C128.094 14.4115 128 14.8021 127.938 15L125.469 22.2969H131.812ZM117.25 31L125.953 8.125H131.547L140.375 31H134.812L132.953 26.1406H124.094L122.5 31H117.25ZM142.781 31V8.125H147.672V26.8438H155.484V31H142.781ZM168.406 31V8.125H173.297V26.8438H181.109V31H168.406ZM184.281 31V8.125H189.172V31H184.281ZM199.297 27.1875H201.219C202.448 27.1875 203.38 26.9219 204.016 26.3906C204.651 25.849 204.969 25.0625 204.969 24.0312C204.969 23.0625 204.651 22.3229 204.016 21.8125C203.391 21.3021 202.479 21.0469 201.281 21.0469H199.297V27.1875ZM199.297 17.2656H200.391C201.87 17.2656 202.917 17.0573 203.531 16.6406C204.146 16.224 204.453 15.526 204.453 14.5469C204.453 13.5885 204.156 12.9062 203.562 12.5C202.979 12.0938 201.953 11.8906 200.484 11.8906H199.297V17.2656ZM194.406 31V8.125H198.688C200.906 8.125 202.526 8.21354 203.547 8.39062C204.578 8.55729 205.469 8.83854 206.219 9.23438C207.104 9.74479 207.786 10.4167 208.266 11.25C208.755 12.0833 209 13.026 209 14.0781C209 15.4323 208.599 16.5208 207.797 17.3438C206.995 18.1562 205.797 18.6979 204.203 18.9688C206.047 19.2396 207.438 19.8385 208.375 20.7656C209.323 21.6927 209.797 22.9271 209.797 24.4688C209.797 25.5938 209.526 26.625 208.984 27.5625C208.443 28.4896 207.698 29.2083 206.75 29.7188C205.906 30.1771 204.917 30.5052 203.781 30.7031C202.646 30.901 200.766 31 198.141 31H197.641H194.406ZM230.078 31H224.438L218.422 20.3125V31H213.531V8.125H220.531C223.312 8.125 225.396 8.66667 226.781 9.75C228.167 10.8229 228.859 12.4427 228.859 14.6094C228.859 16.1823 228.385 17.526 227.438 18.6406C226.49 19.7552 225.266 20.4062 223.766 20.5938L230.078 31ZM218.422 17.875H219.156C221.135 17.875 222.443 17.6615 223.078 17.2344C223.714 16.7969 224.031 16.0417 224.031 14.9688C224.031 13.8438 223.688 13.0469 223 12.5781C222.323 12.099 221.042 11.8594 219.156 11.8594H218.422V17.875ZM232.938 31V8.125H246.406V12.25H237.828V16.9531H246.406V21.1094H237.828V26.8438H246.406V31H232.938ZM35.4531 64.875H38.1719C40.7344 64.875 42.599 64.2917 43.7656 63.125C44.9427 61.9583 45.5312 60.1094 45.5312 57.5781C45.5312 55.0573 44.9427 53.2135 43.7656 52.0469C42.599 50.8698 40.7344 50.2812 38.1719 50.2812H35.4531V64.875ZM30.5625 69V46.125H36.7969C39.2552 46.125 41.1927 46.2969 42.6094 46.6406C44.026 46.9844 45.2708 47.5573 46.3438 48.3594C47.7292 49.3906 48.776 50.6927 49.4844 52.2656C50.2031 53.8281 50.5625 55.6094 50.5625 57.6094C50.5625 59.6406 50.1979 61.4427 49.4688 63.0156C48.7396 64.5781 47.6719 65.8698 46.2656 66.8906C45.224 67.6406 44.0625 68.1823 42.7812 68.5156C41.5104 68.8385 39.6458 69 37.1875 69H35.4531H30.5625ZM54.6562 69V46.125H68.125V50.25H59.5469V54.9531H68.125V59.1094H59.5469V64.8438H68.125V69H54.6562ZM91.3281 50.2812V69H86.4219V50.2812H80.8281V46.125H96.9531V50.2812H91.3281ZM116.672 69H111.031L105.016 58.3125V69H100.125V46.125H107.125C109.906 46.125 111.99 46.6667 113.375 47.75C114.76 48.8229 115.453 50.4427 115.453 52.6094C115.453 54.1823 114.979 55.526 114.031 56.6406C113.083 57.7552 111.859 58.4062 110.359 58.5938L116.672 69ZM105.016 55.875H105.75C107.729 55.875 109.036 55.6615 109.672 55.2344C110.307 54.7969 110.625 54.0417 110.625 52.9688C110.625 51.8438 110.281 51.0469 109.594 50.5781C108.917 50.099 107.635 49.8594 105.75 49.8594H105.016V55.875ZM131.375 60.2969L128.812 52.9062C128.74 52.6875 128.646 52.3125 128.531 51.7812C128.417 51.25 128.297 50.599 128.172 49.8281C128.036 50.5677 127.906 51.2344 127.781 51.8281C127.656 52.4115 127.562 52.8021 127.5 53L125.031 60.2969H131.375ZM116.812 69L125.516 46.125H131.109L139.938 69H134.375L132.516 64.1406H123.656L122.062 69H116.812ZM147.234 65.1875H149.156C150.385 65.1875 151.318 64.9219 151.953 64.3906C152.589 63.849 152.906 63.0625 152.906 62.0312C152.906 61.0625 152.589 60.3229 151.953 59.8125C151.328 59.3021 150.417 59.0469 149.219 59.0469H147.234V65.1875ZM147.234 55.2656H148.328C149.807 55.2656 150.854 55.0573 151.469 54.6406C152.083 54.224 152.391 53.526 152.391 52.5469C152.391 51.5885 152.094 50.9062 151.5 50.5C150.917 50.0938 149.891 49.8906 148.422 49.8906H147.234V55.2656ZM142.344 69V46.125H146.625C148.844 46.125 150.464 46.2135 151.484 46.3906C152.516 46.5573 153.406 46.8385 154.156 47.2344C155.042 47.7448 155.724 48.4167 156.203 49.25C156.693 50.0833 156.938 51.026 156.938 52.0781C156.938 53.4323 156.536 54.5208 155.734 55.3438C154.932 56.1562 153.734 56.6979 152.141 56.9688C153.984 57.2396 155.375 57.8385 156.312 58.7656C157.26 59.6927 157.734 60.9271 157.734 62.4688C157.734 63.5938 157.464 64.625 156.922 65.5625C156.38 66.4896 155.635 67.2083 154.688 67.7188C153.844 68.1771 152.854 68.5052 151.719 68.7031C150.583 68.901 148.703 69 146.078 69H145.578H142.344ZM173.312 60.2969L170.75 52.9062C170.677 52.6875 170.583 52.3125 170.469 51.7812C170.354 51.25 170.234 50.599 170.109 49.8281C169.974 50.5677 169.844 51.2344 169.719 51.8281C169.594 52.4115 169.5 52.8021 169.438 53L166.969 60.2969H173.312ZM158.75 69L167.453 46.125H173.047L181.875 69H176.312L174.453 64.1406H165.594L164 69H158.75ZM193.562 46.125V61.1875C193.562 62.9062 193.495 64.1667 193.359 64.9688C193.224 65.7708 193 66.4531 192.688 67.0156C192.229 67.8698 191.552 68.5156 190.656 68.9531C189.771 69.3906 188.693 69.6094 187.422 69.6094C185.818 69.6094 184.531 69.2083 183.562 68.4062C182.604 67.6042 181.99 66.4271 181.719 64.875L185.266 63.1875C185.349 63.9062 185.531 64.4479 185.812 64.8125C186.104 65.1771 186.5 65.3594 187 65.3594C187.625 65.3594 188.057 65.1354 188.297 64.6875C188.536 64.2292 188.656 63.2135 188.656 61.6406V59.5938V46.125H193.562ZM221.922 57.6094C221.922 59.2448 221.615 60.7917 221 62.25C220.396 63.7083 219.521 64.9896 218.375 66.0938C217.188 67.2292 215.849 68.099 214.359 68.7031C212.87 69.3073 211.328 69.6094 209.734 69.6094C208.339 69.6094 206.969 69.375 205.625 68.9062C204.292 68.4271 203.068 67.7448 201.953 66.8594C200.516 65.7135 199.411 64.3438 198.641 62.75C197.88 61.1562 197.5 59.4427 197.5 57.6094C197.5 55.9635 197.802 54.4219 198.406 52.9844C199.01 51.5365 199.896 50.25 201.062 49.125C202.208 48.0104 203.536 47.1458 205.047 46.5312C206.568 45.9167 208.13 45.6094 209.734 45.6094C211.328 45.6094 212.875 45.9167 214.375 46.5312C215.885 47.1458 217.219 48.0104 218.375 49.125C219.531 50.25 220.411 51.5365 221.016 52.9844C221.62 54.4323 221.922 55.974 221.922 57.6094ZM209.734 65.25C211.807 65.25 213.516 64.526 214.859 63.0781C216.214 61.6198 216.891 59.7969 216.891 57.6094C216.891 55.4427 216.208 53.6198 214.844 52.1406C213.479 50.6615 211.776 49.9219 209.734 49.9219C207.661 49.9219 205.943 50.6615 204.578 52.1406C203.214 53.6094 202.531 55.4323 202.531 57.6094C202.531 59.8177 203.203 61.6458 204.547 63.0938C205.891 64.5312 207.62 65.25 209.734 65.25Z" fill="white"/>
<path d="M27 136H15C10.5817 136 7 132.418 7 128V28" stroke="white" stroke-width="1.5"/>
<circle cx="7" cy="21" r="6.25" stroke="white" stroke-width="1.5"/>
<rect x="25" y="108" width="382" height="48" rx="10" fill="#002A61"/>
<path d="M57.144 128.416H52.95V130.684H56.91V133.672H52.95V136.012H57.144V139H49.422V125.428H57.144V128.416ZM62.6396 124.06V139H59.3816V124.06H62.6396ZM71.2532 129.766V128.056C71.2532 127.456 71.3792 126.892 71.6312 126.364C71.8952 125.824 72.2432 125.356 72.6752 124.96C73.1192 124.564 73.6292 124.252 74.2052 124.024C74.7932 123.784 75.4112 123.664 76.0592 123.664C76.7072 123.664 77.3192 123.778 77.8952 124.006C78.4832 124.234 78.9932 124.546 79.4252 124.942C79.8692 125.338 80.2172 125.806 80.4692 126.346C80.7332 126.874 80.8652 127.444 80.8652 128.056V128.47H77.6072V128.056C77.6072 127.84 77.5652 127.636 77.4812 127.444C77.4092 127.24 77.3012 127.06 77.1572 126.904C77.0252 126.748 76.8632 126.622 76.6712 126.526C76.4912 126.43 76.2872 126.382 76.0592 126.382C75.6152 126.382 75.2432 126.55 74.9432 126.886C74.6552 127.222 74.5112 127.612 74.5112 128.056V129.766H76.3832V132.484H74.5112V139H71.2532V132.484H70.0832V129.766H71.2532ZM80.8652 139H77.6072V129.766H80.8652V139ZM83.0945 129.766H86.3525V130.936C86.7965 130.396 87.2465 130.036 87.7025 129.856C88.1585 129.664 88.6925 129.568 89.3045 129.568C89.9525 129.568 90.5045 129.676 90.9605 129.892C91.4285 130.096 91.8245 130.39 92.1485 130.774C92.4125 131.086 92.5925 131.434 92.6885 131.818C92.7845 132.202 92.8325 132.64 92.8325 133.132V139H89.5745V134.338C89.5745 133.882 89.5385 133.516 89.4665 133.24C89.4065 132.952 89.2925 132.724 89.1245 132.556C88.9805 132.412 88.8185 132.31 88.6385 132.25C88.4585 132.19 88.2665 132.16 88.0625 132.16C87.5105 132.16 87.0845 132.328 86.7845 132.664C86.4965 132.988 86.3525 133.456 86.3525 134.068V139H83.0945V129.766ZM98.0716 134.356C98.0716 134.656 98.1256 134.938 98.2336 135.202C98.3416 135.454 98.4856 135.676 98.6656 135.868C98.8576 136.06 99.0796 136.21 99.3316 136.318C99.5956 136.426 99.8776 136.48 100.178 136.48C100.466 136.48 100.736 136.426 100.988 136.318C101.252 136.21 101.474 136.06 101.654 135.868C101.846 135.676 101.996 135.454 102.104 135.202C102.224 134.95 102.284 134.68 102.284 134.392C102.284 134.104 102.224 133.834 102.104 133.582C101.996 133.318 101.846 133.09 101.654 132.898C101.474 132.706 101.252 132.556 100.988 132.448C100.736 132.34 100.466 132.286 100.178 132.286C99.8776 132.286 99.5956 132.34 99.3316 132.448C99.0796 132.556 98.8576 132.706 98.6656 132.898C98.4856 133.09 98.3416 133.312 98.2336 133.564C98.1256 133.804 98.0716 134.068 98.0716 134.356ZM102.176 129.766H105.452V139H102.176V137.974C101.48 138.85 100.538 139.288 99.3496 139.288C98.6776 139.288 98.0596 139.168 97.4956 138.928C96.9316 138.676 96.4396 138.328 96.0196 137.884C95.5996 137.44 95.2696 136.918 95.0296 136.318C94.8016 135.718 94.6876 135.064 94.6876 134.356C94.6876 133.696 94.8016 133.072 95.0296 132.484C95.2576 131.884 95.5756 131.362 95.9836 130.918C96.3916 130.474 96.8776 130.126 97.4416 129.874C98.0056 129.61 98.6296 129.478 99.3136 129.478C100.466 129.478 101.42 129.88 102.176 130.684V129.766ZM107.669 129.766H110.927V130.936C111.371 130.396 111.821 130.036 112.277 129.856C112.733 129.664 113.267 129.568 113.879 129.568C114.527 129.568 115.079 129.676 115.535 129.892C116.003 130.096 116.399 130.39 116.723 130.774C116.987 131.086 117.167 131.434 117.263 131.818C117.359 132.202 117.407 132.64 117.407 133.132V139H114.149V134.338C114.149 133.882 114.113 133.516 114.041 133.24C113.981 132.952 113.867 132.724 113.699 132.556C113.555 132.412 113.393 132.31 113.213 132.25C113.033 132.19 112.841 132.16 112.637 132.16C112.085 132.16 111.659 132.328 111.359 132.664C111.071 132.988 110.927 133.456 110.927 134.068V139H107.669V129.766ZM126.588 132.754C126.024 132.37 125.454 132.178 124.878 132.178C124.566 132.178 124.272 132.232 123.996 132.34C123.732 132.448 123.498 132.604 123.294 132.808C123.09 133 122.928 133.234 122.808 133.51C122.7 133.774 122.646 134.074 122.646 134.41C122.646 134.734 122.7 135.034 122.808 135.31C122.928 135.574 123.084 135.808 123.276 136.012C123.48 136.204 123.72 136.354 123.996 136.462C124.272 136.57 124.566 136.624 124.878 136.624C125.49 136.624 126.06 136.414 126.588 135.994V138.766C125.784 139.114 125.022 139.288 124.302 139.288C123.63 139.288 122.988 139.174 122.376 138.946C121.776 138.718 121.242 138.394 120.774 137.974C120.318 137.542 119.952 137.032 119.676 136.444C119.4 135.844 119.262 135.178 119.262 134.446C119.262 133.714 119.394 133.048 119.658 132.448C119.922 131.836 120.282 131.314 120.738 130.882C121.194 130.438 121.734 130.096 122.358 129.856C122.994 129.604 123.672 129.478 124.392 129.478C125.184 129.478 125.916 129.646 126.588 129.982V132.754ZM131.704 129.766V139H128.446V129.766H131.704ZM128.23 126.22C128.23 125.968 128.278 125.734 128.374 125.518C128.47 125.29 128.602 125.092 128.77 124.924C128.938 124.756 129.13 124.624 129.346 124.528C129.574 124.432 129.814 124.384 130.066 124.384C130.318 124.384 130.552 124.432 130.768 124.528C130.996 124.624 131.194 124.756 131.362 124.924C131.53 125.092 131.662 125.29 131.758 125.518C131.854 125.734 131.902 125.968 131.902 126.22C131.902 126.472 131.854 126.712 131.758 126.94C131.662 127.156 131.53 127.348 131.362 127.516C131.194 127.684 130.996 127.816 130.768 127.912C130.552 128.008 130.318 128.056 130.066 128.056C129.814 128.056 129.574 128.008 129.346 127.912C129.13 127.816 128.938 127.684 128.77 127.516C128.602 127.348 128.47 127.156 128.374 126.94C128.278 126.712 128.23 126.472 128.23 126.22ZM136.954 134.356C136.954 134.656 137.008 134.938 137.116 135.202C137.224 135.454 137.368 135.676 137.548 135.868C137.74 136.06 137.962 136.21 138.214 136.318C138.478 136.426 138.76 136.48 139.06 136.48C139.348 136.48 139.618 136.426 139.87 136.318C140.134 136.21 140.356 136.06 140.536 135.868C140.728 135.676 140.878 135.454 140.986 135.202C141.106 134.95 141.166 134.68 141.166 134.392C141.166 134.104 141.106 133.834 140.986 133.582C140.878 133.318 140.728 133.09 140.536 132.898C140.356 132.706 140.134 132.556 139.87 132.448C139.618 132.34 139.348 132.286 139.06 132.286C138.76 132.286 138.478 132.34 138.214 132.448C137.962 132.556 137.74 132.706 137.548 132.898C137.368 133.09 137.224 133.312 137.116 133.564C137.008 133.804 136.954 134.068 136.954 134.356ZM141.058 129.766H144.334V139H141.058V137.974C140.362 138.85 139.42 139.288 138.232 139.288C137.56 139.288 136.942 139.168 136.378 138.928C135.814 138.676 135.322 138.328 134.902 137.884C134.482 137.44 134.152 136.918 133.912 136.318C133.684 135.718 133.57 135.064 133.57 134.356C133.57 133.696 133.684 133.072 133.912 132.484C134.14 131.884 134.458 131.362 134.866 130.918C135.274 130.474 135.76 130.126 136.324 129.874C136.888 129.61 137.512 129.478 138.196 129.478C139.348 129.478 140.302 129.88 141.058 130.684V129.766ZM146.552 129.766H149.81V130.9C150.698 130.048 151.694 129.622 152.798 129.622C154.166 129.622 155.21 130.198 155.93 131.35C156.662 130.186 157.706 129.604 159.062 129.604C159.494 129.604 159.902 129.67 160.286 129.802C160.67 129.922 161 130.12 161.276 130.396C161.552 130.66 161.768 131.008 161.924 131.44C162.092 131.872 162.176 132.394 162.176 133.006V139H158.918V134.446C158.918 133.978 158.882 133.594 158.81 133.294C158.75 132.994 158.654 132.76 158.522 132.592C158.402 132.424 158.258 132.31 158.09 132.25C157.922 132.19 157.742 132.16 157.55 132.16C156.506 132.16 155.984 132.922 155.984 134.446V139H152.726V134.446C152.726 133.978 152.696 133.594 152.636 133.294C152.576 132.982 152.486 132.736 152.366 132.556C152.258 132.376 152.114 132.256 151.934 132.196C151.754 132.124 151.544 132.088 151.304 132.088C151.1 132.088 150.908 132.118 150.728 132.178C150.548 132.238 150.386 132.358 150.242 132.538C150.11 132.706 150.002 132.946 149.918 133.258C149.846 133.558 149.81 133.954 149.81 134.446V139H146.552V129.766ZM167.669 129.766V139H164.411V129.766H167.669ZM164.195 126.22C164.195 125.968 164.243 125.734 164.339 125.518C164.435 125.29 164.567 125.092 164.735 124.924C164.903 124.756 165.095 124.624 165.311 124.528C165.539 124.432 165.779 124.384 166.031 124.384C166.283 124.384 166.517 124.432 166.733 124.528C166.961 124.624 167.159 124.756 167.327 124.924C167.495 125.092 167.627 125.29 167.723 125.518C167.819 125.734 167.867 125.968 167.867 126.22C167.867 126.472 167.819 126.712 167.723 126.94C167.627 127.156 167.495 127.348 167.327 127.516C167.159 127.684 166.961 127.816 166.733 127.912C166.517 128.008 166.283 128.056 166.031 128.056C165.779 128.056 165.539 128.008 165.311 127.912C165.095 127.816 164.903 127.684 164.735 127.516C164.567 127.348 164.435 127.156 164.339 126.94C164.243 126.712 164.195 126.472 164.195 126.22ZM176.645 133.042C176.537 132.586 176.315 132.22 175.979 131.944C175.643 131.668 175.235 131.53 174.755 131.53C174.251 131.53 173.837 131.662 173.513 131.926C173.201 132.19 173.003 132.562 172.919 133.042H176.645ZM172.829 134.932C172.829 136.336 173.489 137.038 174.809 137.038C175.517 137.038 176.051 136.75 176.411 136.174H179.561C178.925 138.286 177.335 139.342 174.791 139.342C174.011 139.342 173.297 139.228 172.649 139C172.001 138.76 171.443 138.424 170.975 137.992C170.519 137.56 170.165 137.044 169.913 136.444C169.661 135.844 169.535 135.172 169.535 134.428C169.535 133.66 169.655 132.97 169.895 132.358C170.135 131.734 170.477 131.206 170.921 130.774C171.365 130.342 171.899 130.012 172.523 129.784C173.159 129.544 173.873 129.424 174.665 129.424C175.445 129.424 176.147 129.544 176.771 129.784C177.395 130.012 177.923 130.348 178.355 130.792C178.787 131.236 179.117 131.782 179.345 132.43C179.573 133.066 179.687 133.786 179.687 134.59V134.932H172.829ZM181.55 129.766H184.808V130.936C185.252 130.396 185.702 130.036 186.158 129.856C186.614 129.664 187.148 129.568 187.76 129.568C188.408 129.568 188.96 129.676 189.416 129.892C189.884 130.096 190.28 130.39 190.604 130.774C190.868 131.086 191.048 131.434 191.144 131.818C191.24 132.202 191.288 132.64 191.288 133.132V139H188.03V134.338C188.03 133.882 187.994 133.516 187.922 133.24C187.862 132.952 187.748 132.724 187.58 132.556C187.436 132.412 187.274 132.31 187.094 132.25C186.914 132.19 186.722 132.16 186.518 132.16C185.966 132.16 185.54 132.328 185.24 132.664C184.952 132.988 184.808 133.456 184.808 134.068V139H181.55V129.766ZM197.139 132.484V139H193.881V132.484H192.801V129.766H193.881V126.994H197.139V129.766H198.993V132.484H197.139ZM203.454 134.338C203.454 134.65 203.508 134.938 203.616 135.202C203.736 135.454 203.886 135.676 204.066 135.868C204.258 136.06 204.48 136.21 204.732 136.318C204.996 136.426 205.272 136.48 205.56 136.48C205.848 136.48 206.118 136.426 206.37 136.318C206.634 136.21 206.856 136.06 207.036 135.868C207.228 135.676 207.378 135.454 207.486 135.202C207.606 134.938 207.666 134.656 207.666 134.356C207.666 134.068 207.606 133.798 207.486 133.546C207.378 133.282 207.228 133.054 207.036 132.862C206.856 132.67 206.634 132.52 206.37 132.412C206.118 132.304 205.848 132.25 205.56 132.25C205.272 132.25 204.996 132.304 204.732 132.412C204.48 132.52 204.258 132.67 204.066 132.862C203.886 133.054 203.736 133.276 203.616 133.528C203.508 133.78 203.454 134.05 203.454 134.338ZM200.016 134.302C200.016 133.618 200.154 132.982 200.43 132.394C200.706 131.794 201.09 131.278 201.582 130.846C202.074 130.402 202.656 130.054 203.328 129.802C204.012 129.55 204.756 129.424 205.56 129.424C206.352 129.424 207.084 129.55 207.756 129.802C208.44 130.042 209.028 130.384 209.52 130.828C210.024 131.26 210.414 131.782 210.69 132.394C210.966 132.994 211.104 133.66 211.104 134.392C211.104 135.124 210.96 135.796 210.672 136.408C210.396 137.008 210.012 137.53 209.52 137.974C209.028 138.406 208.434 138.742 207.738 138.982C207.054 139.222 206.31 139.342 205.506 139.342C204.714 139.342 203.982 139.222 203.31 138.982C202.638 138.742 202.056 138.4 201.564 137.956C201.084 137.512 200.706 136.984 200.43 136.372C200.154 135.748 200.016 135.058 200.016 134.302ZM222.278 131.638C224.06 131.638 225.122 133.006 225.122 134.698C225.122 136.408 224.15 137.902 222.296 137.902C220.496 137.902 219.524 136.336 219.524 134.68C219.524 133.096 220.604 131.638 222.278 131.638ZM226.49 130.54H225.05V131.746H225.014C224.312 130.81 223.25 130.306 222.098 130.306C219.596 130.306 218.048 132.448 218.048 134.806C218.048 137.2 219.578 139.234 222.116 139.234C223.25 139.234 224.33 138.73 225.014 137.812H225.05V143.752H226.49V130.54ZM230.489 130.54H229.049V135.418C229.049 137.668 229.895 139.234 232.397 139.234C234.899 139.234 235.745 137.668 235.745 135.418V130.54H234.305V135.256C234.305 136.678 234.143 137.902 232.397 137.902C230.651 137.902 230.489 136.678 230.489 135.256V130.54ZM245.73 135.076C245.874 132.556 244.434 130.306 241.716 130.306C239.07 130.306 237.612 132.376 237.612 134.878C237.612 137.308 239.232 139.234 241.752 139.234C243.48 139.234 244.848 138.37 245.658 136.858L244.434 136.156C243.876 137.164 243.084 137.902 241.86 137.902C240.222 137.902 239.106 136.642 239.088 135.076H245.73ZM239.16 133.852C239.34 132.628 240.492 131.638 241.734 131.638C242.994 131.638 244.02 132.628 244.218 133.852H239.16ZM260.601 135.076C260.745 132.556 259.305 130.306 256.587 130.306C253.941 130.306 252.483 132.376 252.483 134.878C252.483 137.308 254.103 139.234 256.623 139.234C258.351 139.234 259.719 138.37 260.529 136.858L259.305 136.156C258.747 137.164 257.955 137.902 256.731 137.902C255.093 137.902 253.977 136.642 253.959 135.076H260.601ZM254.031 133.852C254.211 132.628 255.363 131.638 256.605 131.638C257.865 131.638 258.891 132.628 259.089 133.852H254.031ZM267.199 131.872C266.821 130.99 265.921 130.306 264.949 130.306C263.581 130.306 262.429 131.278 262.429 132.7C262.429 135.364 266.245 134.716 266.245 136.606C266.245 137.38 265.651 137.902 264.877 137.902C263.923 137.902 263.509 137.344 263.149 136.552L261.871 137.092C262.321 138.424 263.437 139.234 264.859 139.234C266.425 139.234 267.721 138.082 267.721 136.48C267.721 135.058 266.749 134.464 265.759 134.05C264.769 133.636 263.797 133.348 263.797 132.574C263.797 132.034 264.337 131.638 264.841 131.638C265.363 131.638 265.795 132.052 265.993 132.502L267.199 131.872ZM271.275 131.872H272.787V130.54H271.275V127.498H269.835V130.54H268.953V131.872H269.835V139H271.275V131.872ZM277.597 131.638C279.379 131.638 280.441 133.006 280.441 134.698C280.441 136.408 279.469 137.902 277.615 137.902C275.815 137.902 274.843 136.336 274.843 134.68C274.843 133.096 275.923 131.638 277.597 131.638ZM281.809 130.54H280.369V131.746H280.333C279.631 130.846 278.587 130.306 277.435 130.306C274.897 130.306 273.367 132.376 273.367 134.788C273.367 137.128 274.933 139.234 277.417 139.234C278.605 139.234 279.595 138.766 280.333 137.83H280.369V139H281.809V130.54ZM288.525 131.638C290.307 131.638 291.369 133.006 291.369 134.698C291.369 136.408 290.397 137.902 288.543 137.902C286.743 137.902 285.771 136.336 285.771 134.68C285.771 133.096 286.851 131.638 288.525 131.638ZM284.403 139H285.843V137.83H285.879C286.563 138.748 287.625 139.234 288.795 139.234C291.279 139.234 292.845 137.128 292.845 134.77C292.845 132.376 291.297 130.306 288.777 130.306C287.625 130.306 286.563 130.846 285.879 131.746H285.843V124.15H284.403V139ZM298.374 131.638C300.156 131.638 301.218 133.006 301.218 134.698C301.218 136.408 300.246 137.902 298.392 137.902C296.592 137.902 295.62 136.336 295.62 134.68C295.62 133.096 296.7 131.638 298.374 131.638ZM302.586 130.54H301.146V131.746H301.11C300.408 130.846 299.364 130.306 298.212 130.306C295.674 130.306 294.144 132.376 294.144 134.788C294.144 137.128 295.71 139.234 298.194 139.234C299.382 139.234 300.372 138.766 301.11 137.83H301.146V139H302.586V130.54ZM309.879 131.872C309.501 130.99 308.601 130.306 307.629 130.306C306.261 130.306 305.109 131.278 305.109 132.7C305.109 135.364 308.925 134.716 308.925 136.606C308.925 137.38 308.331 137.902 307.557 137.902C306.603 137.902 306.189 137.344 305.829 136.552L304.551 137.092C305.001 138.424 306.117 139.234 307.539 139.234C309.105 139.234 310.401 138.082 310.401 136.48C310.401 135.058 309.429 134.464 308.439 134.05C307.449 133.636 306.477 133.348 306.477 132.574C306.477 132.034 307.017 131.638 307.521 131.638C308.043 131.638 308.475 132.052 308.673 132.502L309.879 131.872ZM322.029 131.638C323.811 131.638 324.873 133.006 324.873 134.698C324.873 136.408 323.901 137.902 322.047 137.902C320.247 137.902 319.275 136.336 319.275 134.68C319.275 133.096 320.355 131.638 322.029 131.638ZM317.907 139H319.347V137.83H319.383C320.067 138.748 321.129 139.234 322.299 139.234C324.783 139.234 326.349 137.128 326.349 134.77C326.349 132.376 324.801 130.306 322.281 130.306C321.129 130.306 320.067 130.846 319.383 131.746H319.347V124.15H317.907V139ZM329.7 130.54H328.26V135.418C328.26 137.668 329.106 139.234 331.608 139.234C334.11 139.234 334.956 137.668 334.956 135.418V130.54H333.516V135.256C333.516 136.678 333.354 137.902 331.608 137.902C329.862 137.902 329.7 136.678 329.7 135.256V130.54ZM342.205 131.872C341.827 130.99 340.927 130.306 339.955 130.306C338.587 130.306 337.435 131.278 337.435 132.7C337.435 135.364 341.251 134.716 341.251 136.606C341.251 137.38 340.657 137.902 339.883 137.902C338.929 137.902 338.515 137.344 338.155 136.552L336.877 137.092C337.327 138.424 338.443 139.234 339.865 139.234C341.431 139.234 342.727 138.082 342.727 136.48C342.727 135.058 341.755 134.464 340.765 134.05C339.775 133.636 338.803 133.348 338.803 132.574C338.803 132.034 339.343 131.638 339.847 131.638C340.369 131.638 340.801 132.052 340.999 132.502L342.205 131.872ZM351.05 131.152C350.294 130.612 349.358 130.306 348.44 130.306C345.956 130.306 343.922 132.25 343.922 134.77C343.922 137.326 345.866 139.234 348.422 139.234C349.43 139.234 350.276 138.928 351.104 138.37V136.444H351.068C350.366 137.362 349.52 137.902 348.314 137.902C346.55 137.902 345.398 136.444 345.398 134.77C345.398 133.078 346.64 131.638 348.386 131.638C349.52 131.638 350.348 132.214 351.014 133.06H351.05V131.152ZM356.839 131.638C358.621 131.638 359.683 133.006 359.683 134.698C359.683 136.408 358.711 137.902 356.857 137.902C355.057 137.902 354.085 136.336 354.085 134.68C354.085 133.096 355.165 131.638 356.839 131.638ZM361.051 130.54H359.611V131.746H359.575C358.873 130.846 357.829 130.306 356.677 130.306C354.139 130.306 352.609 132.376 352.609 134.788C352.609 137.128 354.175 139.234 356.659 139.234C357.847 139.234 358.837 138.766 359.575 137.83H359.611V139H361.051V130.54ZM365.158 130.54H363.718V139H365.158V134.986C365.158 133.474 365.284 131.638 367.264 131.638C368.938 131.638 369.046 132.862 369.046 134.23V139H370.486V133.978C370.486 131.998 369.946 130.306 367.606 130.306C366.562 130.306 365.788 130.756 365.194 131.566H365.158V130.54ZM376.737 131.638C378.519 131.638 379.581 133.006 379.581 134.698C379.581 136.408 378.609 137.902 376.755 137.902C374.955 137.902 373.983 136.336 373.983 134.68C373.983 133.096 375.063 131.638 376.737 131.638ZM379.509 139H380.949V124.15H379.509V131.746H379.473C378.789 130.846 377.709 130.306 376.575 130.306C374.037 130.306 372.507 132.376 372.507 134.788C372.507 137.128 374.073 139.234 376.557 139.234C377.709 139.234 378.771 138.748 379.473 137.83H379.509V139ZM387.306 139.234C389.772 139.234 391.752 137.272 391.752 134.788C391.752 132.304 389.79 130.306 387.306 130.306C384.822 130.306 382.86 132.304 382.86 134.788C382.86 137.272 384.84 139.234 387.306 139.234ZM387.306 131.638C389.088 131.638 390.312 133.06 390.312 134.77C390.312 136.498 389.088 137.902 387.306 137.902C385.524 137.902 384.3 136.498 384.3 134.77C384.3 133.06 385.524 131.638 387.306 131.638Z" fill="white"/>
</svg>
