<svg width="550" height="251" viewBox="0 0 550 251" fill="none" xmlns="http://www.w3.org/2000/svg">
<path d="M26.744 188H14.686C10.2678 188 6.68604 184.418 6.68604 180V19" stroke="white" stroke-width="1.5"/>
<path d="M12.622 12.0784C12.622 15.6144 9.92461 18.4068 6.68598 18.4068C3.44736 18.4068 0.75 15.6144 0.75 12.0784C0.75 8.54244 3.44736 5.75 6.68598 5.75C9.92461 5.75 12.622 8.54244 12.622 12.0784Z" stroke="white" stroke-width="1.5"/>
<rect x="25" y="166" width="320" height="85" rx="16" fill="#002A61"/>
<path d="M43.5469 202V188.623L52.96 198.906V189.133H54.4189V202.501L45.0059 192.332V202H43.5469ZM58.1719 198.001C58.1719 198.851 58.4561 199.571 59.0244 200.163C59.5928 200.749 60.2812 201.042 61.0898 201.042C61.8926 201.042 62.5752 200.749 63.1377 200.163C63.7002 199.571 63.9814 198.851 63.9814 198.001C63.9814 197.151 63.7002 196.434 63.1377 195.848C62.5752 195.256 61.8926 194.96 61.0898 194.96C60.2754 194.96 59.584 195.256 59.0156 195.848C58.4531 196.434 58.1719 197.151 58.1719 198.001ZM56.7129 198.001C56.7129 197.409 56.8213 196.853 57.0381 196.331C57.2549 195.804 57.5713 195.335 57.9873 194.925C58.4033 194.515 58.875 194.204 59.4023 193.993C59.9297 193.776 60.4922 193.668 61.0898 193.668C61.6758 193.668 62.2295 193.776 62.751 193.993C63.2783 194.21 63.7559 194.526 64.1836 194.942C64.5996 195.347 64.916 195.812 65.1328 196.34C65.3496 196.861 65.458 197.415 65.458 198.001C65.458 198.587 65.3496 199.141 65.1328 199.662C64.916 200.178 64.5996 200.638 64.1836 201.042C63.7559 201.464 63.2754 201.786 62.7422 202.009C62.2148 202.231 61.6641 202.343 61.0898 202.343C60.498 202.343 59.9355 202.231 59.4023 202.009C58.875 201.792 58.4033 201.479 57.9873 201.068C57.5713 200.646 57.2549 200.178 57.0381 199.662C56.8213 199.146 56.7129 198.593 56.7129 198.001ZM73.1309 195.092H71.6543V193.958H73.1309V190.715H74.5371V193.958H76.0137V195.092H74.5371V202H73.1309V195.092ZM83.2822 197.069C83.2354 196.36 82.998 195.815 82.5703 195.435C82.1484 195.048 81.5684 194.854 80.8301 194.854C80.1621 194.854 79.6055 195.057 79.1602 195.461C78.7148 195.859 78.457 196.396 78.3867 197.069H83.2822ZM84.7588 198.186H78.3867V198.309C78.3867 199.17 78.6328 199.867 79.125 200.4C79.6172 200.928 80.2588 201.191 81.0498 201.191C81.5889 201.191 82.0752 201.048 82.5088 200.761C82.9424 200.468 83.3262 200.028 83.6602 199.442L84.7061 200.146C84.3018 200.872 83.7861 201.42 83.1592 201.789C82.5322 202.158 81.8057 202.343 80.9795 202.343C79.7549 202.343 78.7646 201.938 78.0088 201.13C77.2529 200.321 76.875 199.261 76.875 197.948C76.875 196.688 77.25 195.657 78 194.854C78.75 194.052 79.7139 193.65 80.8916 193.65C82.0811 193.65 83.0215 194.031 83.7129 194.793C84.4102 195.555 84.7588 196.595 84.7588 197.913V198.186ZM98.3027 198.001C98.3027 197.063 98.0625 196.328 97.582 195.795C97.1074 195.262 96.4482 194.995 95.6045 194.995C94.79 194.995 94.1484 195.276 93.6797 195.839C93.2109 196.401 92.9766 197.178 92.9766 198.168C92.9766 199.053 93.2051 199.744 93.6621 200.242C94.125 200.74 94.7607 200.989 95.5693 200.989C96.3896 200.989 97.0488 200.717 97.5469 200.172C98.0508 199.627 98.3027 198.903 98.3027 198.001ZM99.6387 205.92H98.2676V200.541C97.9629 201.139 97.5645 201.59 97.0723 201.895C96.5801 202.193 96 202.343 95.332 202.343C94.1777 202.343 93.2549 201.953 92.5635 201.174C91.8779 200.389 91.5352 199.331 91.5352 198.001C91.5352 196.694 91.8867 195.646 92.5898 194.854C93.293 194.063 94.2246 193.668 95.3848 193.668C96.0117 193.668 96.5771 193.823 97.0811 194.134C97.585 194.444 97.9922 194.89 98.3027 195.47V193.958H99.6387V205.92ZM103.743 193.958V197.913C103.743 199.067 103.913 199.876 104.253 200.339C104.599 200.796 105.179 201.024 105.993 201.024C106.808 201.024 107.382 200.799 107.716 200.348C108.056 199.891 108.226 199.079 108.226 197.913V193.958H109.632V198.651C109.632 199.864 109.321 200.784 108.7 201.411C108.079 202.032 107.165 202.343 105.958 202.343C104.763 202.343 103.854 202.029 103.233 201.402C102.612 200.775 102.302 199.858 102.302 198.651V193.958H103.743ZM117.999 197.069C117.952 196.36 117.715 195.815 117.287 195.435C116.865 195.048 116.285 194.854 115.547 194.854C114.879 194.854 114.322 195.057 113.877 195.461C113.432 195.859 113.174 196.396 113.104 197.069H117.999ZM119.476 198.186H113.104V198.309C113.104 199.17 113.35 199.867 113.842 200.4C114.334 200.928 114.976 201.191 115.767 201.191C116.306 201.191 116.792 201.048 117.226 200.761C117.659 200.468 118.043 200.028 118.377 199.442L119.423 200.146C119.019 200.872 118.503 201.42 117.876 201.789C117.249 202.158 116.522 202.343 115.696 202.343C114.472 202.343 113.481 201.938 112.726 201.13C111.97 200.321 111.592 199.261 111.592 197.948C111.592 196.688 111.967 195.657 112.717 194.854C113.467 194.052 114.431 193.65 115.608 193.65C116.798 193.65 117.738 194.031 118.43 194.793C119.127 195.555 119.476 196.595 119.476 197.913V198.186ZM127.711 198.019C127.711 197.122 127.462 196.401 126.964 195.856C126.466 195.306 125.81 195.03 124.995 195.03C124.181 195.03 123.545 195.279 123.088 195.777C122.631 196.275 122.402 196.964 122.402 197.843C122.402 198.833 122.634 199.609 123.097 200.172C123.56 200.729 124.198 201.007 125.013 201.007C125.856 201.007 126.516 200.743 126.99 200.216C127.471 199.688 127.711 198.956 127.711 198.019ZM129.047 188.377V202H127.711V200.541C127.395 201.121 126.984 201.566 126.48 201.877C125.977 202.188 125.414 202.343 124.793 202.343C123.639 202.343 122.707 201.947 121.998 201.156C121.295 200.359 120.943 199.308 120.943 198.001C120.943 196.683 121.289 195.631 121.98 194.846C122.672 194.061 123.592 193.668 124.74 193.668C125.408 193.668 125.988 193.82 126.48 194.125C126.973 194.424 127.371 194.872 127.676 195.47V188.377H129.047ZM137.563 197.069C137.517 196.36 137.279 195.815 136.852 195.435C136.43 195.048 135.85 194.854 135.111 194.854C134.443 194.854 133.887 195.057 133.441 195.461C132.996 195.859 132.738 196.396 132.668 197.069H137.563ZM139.04 198.186H132.668V198.309C132.668 199.17 132.914 199.867 133.406 200.4C133.898 200.928 134.54 201.191 135.331 201.191C135.87 201.191 136.356 201.048 136.79 200.761C137.224 200.468 137.607 200.028 137.941 199.442L138.987 200.146C138.583 200.872 138.067 201.42 137.44 201.789C136.813 202.158 136.087 202.343 135.261 202.343C134.036 202.343 133.046 201.938 132.29 201.13C131.534 200.321 131.156 199.261 131.156 197.948C131.156 196.688 131.531 195.657 132.281 194.854C133.031 194.052 133.995 193.65 135.173 193.65C136.362 193.65 137.303 194.031 137.994 194.793C138.691 195.555 139.04 196.595 139.04 197.913V198.186ZM140.271 200.646L141.448 199.855C141.671 200.283 141.952 200.605 142.292 200.822C142.632 201.033 143.033 201.139 143.496 201.139C143.947 201.139 144.311 201.027 144.586 200.805C144.867 200.582 145.008 200.289 145.008 199.926C145.008 199.645 144.911 199.41 144.718 199.223C144.53 199.035 144.205 198.862 143.742 198.704C143.695 198.687 143.619 198.66 143.514 198.625C141.557 197.951 140.578 197.107 140.578 196.094C140.578 195.379 140.842 194.796 141.369 194.345C141.896 193.894 142.582 193.668 143.426 193.668C144.123 193.668 144.721 193.809 145.219 194.09C145.717 194.365 146.074 194.758 146.291 195.268L145.175 195.953C145.011 195.584 144.768 195.3 144.445 195.101C144.129 194.901 143.76 194.802 143.338 194.802C142.934 194.802 142.603 194.916 142.345 195.145C142.093 195.367 141.967 195.654 141.967 196.006C141.967 196.498 142.5 196.911 143.566 197.245C143.766 197.31 143.924 197.359 144.041 197.395C144.914 197.676 145.521 197.998 145.86 198.361C146.206 198.719 146.379 199.193 146.379 199.785C146.379 200.547 146.106 201.165 145.562 201.64C145.022 202.108 144.316 202.343 143.443 202.343C142.693 202.343 142.055 202.202 141.527 201.921C141.006 201.64 140.587 201.215 140.271 200.646ZM152.909 200.646L154.087 199.855C154.31 200.283 154.591 200.605 154.931 200.822C155.271 201.033 155.672 201.139 156.135 201.139C156.586 201.139 156.949 201.027 157.225 200.805C157.506 200.582 157.646 200.289 157.646 199.926C157.646 199.645 157.55 199.41 157.356 199.223C157.169 199.035 156.844 198.862 156.381 198.704C156.334 198.687 156.258 198.66 156.152 198.625C154.195 197.951 153.217 197.107 153.217 196.094C153.217 195.379 153.48 194.796 154.008 194.345C154.535 193.894 155.221 193.668 156.064 193.668C156.762 193.668 157.359 193.809 157.857 194.09C158.355 194.365 158.713 194.758 158.93 195.268L157.813 195.953C157.649 195.584 157.406 195.3 157.084 195.101C156.768 194.901 156.398 194.802 155.977 194.802C155.572 194.802 155.241 194.916 154.983 195.145C154.731 195.367 154.605 195.654 154.605 196.006C154.605 196.498 155.139 196.911 156.205 197.245C156.404 197.31 156.562 197.359 156.68 197.395C157.553 197.676 158.159 197.998 158.499 198.361C158.845 198.719 159.018 199.193 159.018 199.785C159.018 200.547 158.745 201.165 158.2 201.64C157.661 202.108 156.955 202.343 156.082 202.343C155.332 202.343 154.693 202.202 154.166 201.921C153.645 201.64 153.226 201.215 152.909 200.646ZM160.837 190.082C160.837 189.807 160.934 189.572 161.127 189.379C161.326 189.18 161.566 189.08 161.848 189.08C162.123 189.08 162.357 189.18 162.551 189.379C162.75 189.578 162.85 189.818 162.85 190.1C162.85 190.375 162.753 190.609 162.56 190.803C162.366 190.996 162.129 191.093 161.848 191.093C161.566 191.093 161.326 190.996 161.127 190.803C160.934 190.609 160.837 190.369 160.837 190.082ZM161.162 202V193.958H162.551V202H161.162ZM165.451 202V193.958H166.796V195.197C167.142 194.682 167.558 194.298 168.044 194.046C168.53 193.794 169.093 193.668 169.731 193.668C170.681 193.668 171.422 193.92 171.955 194.424C172.488 194.928 172.755 195.628 172.755 196.524V202H171.349V197.263C171.349 196.448 171.176 195.845 170.83 195.452C170.49 195.054 169.963 194.854 169.248 194.854C168.838 194.854 168.463 194.931 168.123 195.083C167.789 195.229 167.511 195.44 167.288 195.716C167.118 195.927 166.995 196.167 166.919 196.437C166.849 196.706 166.813 197.175 166.813 197.843V202H165.451ZM180.867 202V188.377H182.273V202H180.867ZM185.965 198.001C185.965 198.851 186.249 199.571 186.817 200.163C187.386 200.749 188.074 201.042 188.883 201.042C189.686 201.042 190.368 200.749 190.931 200.163C191.493 199.571 191.774 198.851 191.774 198.001C191.774 197.151 191.493 196.434 190.931 195.848C190.368 195.256 189.686 194.96 188.883 194.96C188.068 194.96 187.377 195.256 186.809 195.848C186.246 196.434 185.965 197.151 185.965 198.001ZM184.506 198.001C184.506 197.409 184.614 196.853 184.831 196.331C185.048 195.804 185.364 195.335 185.78 194.925C186.196 194.515 186.668 194.204 187.195 193.993C187.723 193.776 188.285 193.668 188.883 193.668C189.469 193.668 190.022 193.776 190.544 193.993C191.071 194.21 191.549 194.526 191.977 194.942C192.393 195.347 192.709 195.812 192.926 196.34C193.143 196.861 193.251 197.415 193.251 198.001C193.251 198.587 193.143 199.141 192.926 199.662C192.709 200.178 192.393 200.638 191.977 201.042C191.549 201.464 191.068 201.786 190.535 202.009C190.008 202.231 189.457 202.343 188.883 202.343C188.291 202.343 187.729 202.231 187.195 202.009C186.668 201.792 186.196 201.479 185.78 201.068C185.364 200.646 185.048 200.178 184.831 199.662C184.614 199.146 184.506 198.593 184.506 198.001ZM200.722 202V193.123H203.851V202H200.722ZM201.117 190.838H201.135C201.135 190.51 201.249 190.24 201.478 190.029C201.706 189.801 201.981 189.687 202.304 189.687C202.644 189.687 202.922 189.795 203.139 190.012C203.361 190.229 203.473 190.504 203.473 190.838C203.473 191.178 203.358 191.459 203.13 191.682C202.907 191.91 202.632 192.024 202.304 192.024C201.97 192.024 201.688 191.904 201.46 191.664C201.231 191.441 201.117 191.166 201.117 190.838ZM206.417 202V193.123H209.282V194.925C209.687 194.222 210.167 193.694 210.724 193.343C211.263 193.009 211.916 192.842 212.684 192.842C213.264 192.842 213.779 192.93 214.23 193.105C214.676 193.305 215.036 193.574 215.312 193.914C215.563 194.254 215.73 194.614 215.812 194.995C215.912 195.481 215.962 196.123 215.962 196.92V202H212.824V197.245C212.824 196.524 212.71 196.009 212.481 195.698C212.253 195.376 211.881 195.215 211.365 195.215C210.721 195.215 210.246 195.455 209.941 195.936C209.643 196.416 209.493 197.195 209.493 198.273V202H206.417ZM224.962 197.57C224.962 196.873 224.783 196.328 224.426 195.936C224.045 195.537 223.541 195.338 222.914 195.338C222.281 195.338 221.783 195.537 221.42 195.936C221.057 196.334 220.875 196.879 220.875 197.57C220.875 198.268 221.057 198.815 221.42 199.214C221.777 199.606 222.275 199.803 222.914 199.803C223.547 199.803 224.051 199.606 224.426 199.214C224.783 198.821 224.962 198.273 224.962 197.57ZM227.739 188.377V202H224.856V200.559C224.458 201.162 224.007 201.607 223.503 201.895C223.034 202.193 222.483 202.343 221.851 202.343C220.608 202.343 219.615 201.909 218.871 201.042C218.133 200.175 217.764 199.018 217.764 197.57C217.764 196.164 218.136 195.019 218.88 194.134C219.618 193.272 220.573 192.842 221.745 192.842C222.495 192.842 223.104 192.979 223.573 193.255C224.024 193.507 224.446 193.955 224.839 194.6C224.815 194.441 224.792 194.201 224.769 193.879C224.745 193.527 224.733 193.24 224.733 193.018V188.377H227.739ZM229.989 202V193.123H233.118V202H229.989ZM230.385 190.838H230.402C230.402 190.51 230.517 190.24 230.745 190.029C230.974 189.801 231.249 189.687 231.571 189.687C231.911 189.687 232.189 189.795 232.406 190.012C232.629 190.229 232.74 190.504 232.74 190.838C232.74 191.178 232.626 191.459 232.397 191.682C232.175 191.91 231.899 192.024 231.571 192.024C231.237 192.024 230.956 191.904 230.728 191.664C230.499 191.441 230.385 191.166 230.385 190.838ZM234.858 201.262L235.509 198.871C235.966 199.275 236.47 199.58 237.021 199.785C237.565 200.002 238.116 200.11 238.673 200.11C239.071 200.11 239.37 200.043 239.569 199.908C239.774 199.785 239.877 199.606 239.877 199.372C239.877 198.979 239.464 198.687 238.638 198.493C238.351 198.429 238.134 198.373 237.987 198.326C237.032 198.045 236.355 197.702 235.957 197.298C235.523 196.882 235.307 196.343 235.307 195.681C235.307 194.825 235.632 194.137 236.282 193.615C236.909 193.1 237.785 192.842 238.91 192.842C239.455 192.842 240.035 192.906 240.65 193.035C241.166 193.141 241.767 193.346 242.452 193.65L241.802 195.804C241.38 195.517 240.955 195.303 240.527 195.162C240.123 195.016 239.698 194.942 239.253 194.942C238.89 194.942 238.617 194.998 238.436 195.109C238.26 195.215 238.172 195.376 238.172 195.593C238.172 195.897 238.585 196.161 239.411 196.384C239.681 196.466 239.818 196.507 239.824 196.507C240.902 196.812 241.658 197.172 242.092 197.588C242.514 198.027 242.725 198.599 242.725 199.302C242.725 200.21 242.376 200.942 241.679 201.499C240.964 202.062 240.041 202.343 238.91 202.343C238.125 202.343 237.401 202.252 236.739 202.07C236.083 201.895 235.456 201.625 234.858 201.262ZM247.198 197.588C247.198 198.279 247.383 198.827 247.752 199.231C248.092 199.624 248.584 199.82 249.229 199.82C249.867 199.82 250.365 199.624 250.723 199.231C251.08 198.821 251.259 198.273 251.259 197.588C251.259 196.891 251.08 196.346 250.723 195.953C250.359 195.555 249.861 195.355 249.229 195.355C248.59 195.355 248.098 195.555 247.752 195.953C247.383 196.34 247.198 196.885 247.198 197.588ZM244.421 205.92V193.141H247.304V194.617C247.685 194.049 248.133 193.606 248.648 193.29C249.135 193.003 249.688 192.859 250.31 192.859C250.937 192.859 251.499 192.965 251.997 193.176C252.495 193.381 252.929 193.694 253.298 194.116C254.03 194.954 254.396 196.111 254.396 197.588C254.396 199.006 254.03 200.151 253.298 201.024C252.923 201.47 252.498 201.801 252.023 202.018C251.555 202.234 251.019 202.343 250.415 202.343C249.659 202.343 249.047 202.205 248.578 201.93C248.127 201.666 247.708 201.209 247.321 200.559C247.351 200.699 247.374 200.916 247.392 201.209C247.403 201.379 247.409 201.689 247.409 202.141V205.92H244.421ZM262.403 196.419C262.351 195.927 262.16 195.525 261.832 195.215C261.504 194.904 261.103 194.749 260.628 194.749C260.13 194.749 259.726 194.887 259.415 195.162C259.093 195.473 258.891 195.892 258.809 196.419H262.403ZM265.488 198.186H258.738C258.756 198.877 258.929 199.404 259.257 199.768C259.597 200.143 260.089 200.33 260.733 200.33C261.202 200.33 261.604 200.239 261.938 200.058C262.277 199.864 262.523 199.601 262.676 199.267L265.031 200.216C264.756 200.89 264.258 201.411 263.537 201.78C262.822 202.155 261.946 202.343 260.909 202.343C259.362 202.343 258.12 201.909 257.183 201.042C256.251 200.198 255.785 199.07 255.785 197.658C255.785 196.281 256.251 195.13 257.183 194.204C258.114 193.296 259.298 192.842 260.733 192.842C262.198 192.842 263.355 193.302 264.205 194.222C264.639 194.696 264.961 195.25 265.172 195.883C265.383 196.51 265.488 197.228 265.488 198.036V198.186ZM267.29 202V193.123H270.155V194.925C270.56 194.222 271.04 193.694 271.597 193.343C272.136 193.009 272.789 192.842 273.557 192.842C274.137 192.842 274.652 192.93 275.104 193.105C275.549 193.305 275.909 193.574 276.185 193.914C276.437 194.254 276.604 194.614 276.686 194.995C276.785 195.481 276.835 196.123 276.835 196.92V202H273.697V197.245C273.697 196.524 273.583 196.009 273.354 195.698C273.126 195.376 272.754 195.215 272.238 195.215C271.594 195.215 271.119 195.455 270.814 195.936C270.516 196.416 270.366 197.195 270.366 198.273V202H267.29ZM278.224 201.262L278.874 198.871C279.331 199.275 279.835 199.58 280.386 199.785C280.931 200.002 281.481 200.11 282.038 200.11C282.437 200.11 282.735 200.043 282.935 199.908C283.14 199.785 283.242 199.606 283.242 199.372C283.242 198.979 282.829 198.687 282.003 198.493C281.716 198.429 281.499 198.373 281.353 198.326C280.397 198.045 279.721 197.702 279.322 197.298C278.889 196.882 278.672 196.343 278.672 195.681C278.672 194.825 278.997 194.137 279.647 193.615C280.274 193.1 281.15 192.842 282.275 192.842C282.82 192.842 283.4 192.906 284.016 193.035C284.531 193.141 285.132 193.346 285.817 193.65L285.167 195.804C284.745 195.517 284.32 195.303 283.893 195.162C283.488 195.016 283.063 194.942 282.618 194.942C282.255 194.942 281.982 194.998 281.801 195.109C281.625 195.215 281.537 195.376 281.537 195.593C281.537 195.897 281.95 196.161 282.776 196.384C283.046 196.466 283.184 196.507 283.189 196.507C284.268 196.812 285.023 197.172 285.457 197.588C285.879 198.027 286.09 198.599 286.09 199.302C286.09 200.21 285.741 200.942 285.044 201.499C284.329 202.062 283.406 202.343 282.275 202.343C281.49 202.343 280.767 202.252 280.104 202.07C279.448 201.895 278.821 201.625 278.224 201.262ZM294.536 197.553C294.536 196.85 294.352 196.305 293.982 195.918C293.607 195.508 293.104 195.303 292.471 195.303C291.838 195.303 291.34 195.502 290.977 195.9C290.602 196.311 290.414 196.861 290.414 197.553C290.414 198.25 290.602 198.798 290.977 199.196C291.334 199.589 291.832 199.785 292.471 199.785C293.104 199.785 293.604 199.589 293.974 199.196C294.349 198.804 294.536 198.256 294.536 197.553ZM297.287 193.123V202H294.413V200.559C293.997 201.174 293.531 201.625 293.016 201.912C292.506 202.199 291.908 202.343 291.223 202.343C290.033 202.343 289.087 201.909 288.384 201.042C288.038 200.614 287.774 200.11 287.593 199.53C287.411 198.95 287.32 198.297 287.32 197.57C287.32 196.117 287.692 194.966 288.437 194.116C289.181 193.267 290.177 192.842 291.425 192.842C292.093 192.842 292.667 192.985 293.147 193.272C293.634 193.548 294.05 193.984 294.396 194.582V193.123H297.287ZM302.446 197.57C302.446 198.279 302.631 198.827 303 199.214C303.34 199.606 303.832 199.803 304.477 199.803C305.115 199.803 305.613 199.606 305.971 199.214C306.328 198.821 306.507 198.273 306.507 197.57C306.507 196.873 306.328 196.328 305.971 195.936C305.607 195.537 305.109 195.338 304.477 195.338C303.838 195.338 303.346 195.537 303 195.936C302.631 196.322 302.446 196.867 302.446 197.57ZM299.669 188.377H302.657V193.018C302.657 193.475 302.651 193.788 302.64 193.958C302.616 194.257 302.593 194.471 302.569 194.6C302.938 193.961 303.357 193.513 303.826 193.255C304.295 192.979 304.907 192.842 305.663 192.842C306.847 192.842 307.808 193.272 308.546 194.134C309.278 195.007 309.645 196.152 309.645 197.57C309.645 199.029 309.278 200.187 308.546 201.042C307.808 201.909 306.812 202.343 305.558 202.343C304.931 202.343 304.377 202.193 303.896 201.895C303.398 201.607 302.95 201.162 302.552 200.559V202H299.669V188.377ZM311.622 202V188.377H314.76V202H311.622ZM323.276 196.419C323.224 195.927 323.033 195.525 322.705 195.215C322.377 194.904 321.976 194.749 321.501 194.749C321.003 194.749 320.599 194.887 320.288 195.162C319.966 195.473 319.764 195.892 319.682 196.419H323.276ZM326.361 198.186H319.611C319.629 198.877 319.802 199.404 320.13 199.768C320.47 200.143 320.962 200.33 321.606 200.33C322.075 200.33 322.477 200.239 322.811 200.058C323.15 199.864 323.396 199.601 323.549 199.267L325.904 200.216C325.629 200.89 325.131 201.411 324.41 201.78C323.695 202.155 322.819 202.343 321.782 202.343C320.235 202.343 318.993 201.909 318.056 201.042C317.124 200.198 316.658 199.07 316.658 197.658C316.658 196.281 317.124 195.13 318.056 194.204C318.987 193.296 320.171 192.842 321.606 192.842C323.071 192.842 324.229 193.302 325.078 194.222C325.512 194.696 325.834 195.25 326.045 195.883C326.256 196.51 326.361 197.228 326.361 198.036V198.186ZM44.7334 218.001C44.7334 218.903 44.9824 219.627 45.4805 220.172C45.9785 220.717 46.6377 220.989 47.458 220.989C48.2607 220.989 48.8906 220.74 49.3477 220.242C49.8105 219.744 50.042 219.053 50.042 218.168C50.042 217.178 49.8105 216.401 49.3477 215.839C48.8906 215.276 48.252 214.995 47.4316 214.995C46.5938 214.995 45.9346 215.262 45.4541 215.795C44.9736 216.328 44.7334 217.063 44.7334 218.001ZM43.4062 225.92V213.958H44.7158V215.47C45.0264 214.89 45.4365 214.444 45.9463 214.134C46.4561 213.823 47.0244 213.668 47.6514 213.668C48.8115 213.668 49.7432 214.063 50.4463 214.854C51.1494 215.646 51.501 216.694 51.501 218.001C51.501 219.331 51.1553 220.389 50.4639 221.174C49.7783 221.953 48.8584 222.343 47.7041 222.343C47.042 222.343 46.4648 222.193 45.9727 221.895C45.4805 221.59 45.0791 221.139 44.7686 220.541V225.92H43.4062ZM59.8594 218.054C59.8594 217.146 59.6104 216.416 59.1123 215.865C58.6201 215.309 57.9756 215.03 57.1787 215.03C56.3525 215.03 55.708 215.285 55.2451 215.795C54.7822 216.305 54.5508 217.017 54.5508 217.931C54.5508 218.903 54.7822 219.653 55.2451 220.181C55.7139 220.708 56.376 220.972 57.2314 220.972C58.0518 220.972 58.6934 220.717 59.1562 220.207C59.625 219.691 59.8594 218.974 59.8594 218.054ZM61.1953 213.958V222H59.8594V220.541C59.5371 221.127 59.124 221.575 58.6201 221.886C58.1221 222.19 57.5625 222.343 56.9414 222.343C55.7871 222.343 54.8555 221.947 54.1465 221.156C53.4434 220.359 53.0918 219.308 53.0918 218.001C53.0918 216.677 53.4346 215.625 54.1201 214.846C54.8057 214.061 55.7227 213.668 56.8711 213.668C57.5449 213.668 58.1279 213.82 58.6201 214.125C59.1182 214.424 59.5195 214.872 59.8242 215.47V213.958H61.1953ZM63.9727 222V213.958H65.1943V215.628C65.5635 214.931 65.9561 214.433 66.3721 214.134C66.7881 213.835 67.2949 213.686 67.8926 213.686C68.0566 213.686 68.2148 213.7 68.3672 213.729C68.5195 213.753 68.6719 213.791 68.8242 213.844L68.3672 215.083C68.209 215.03 68.0596 214.992 67.9189 214.969C67.7783 214.939 67.6436 214.925 67.5146 214.925C66.7881 214.925 66.2432 215.188 65.8799 215.716C65.5166 216.237 65.335 217.025 65.335 218.08V222H63.9727ZM76.4355 218.054C76.4355 217.146 76.1865 216.416 75.6885 215.865C75.1963 215.309 74.5518 215.03 73.7549 215.03C72.9287 215.03 72.2842 215.285 71.8213 215.795C71.3584 216.305 71.127 217.017 71.127 217.931C71.127 218.903 71.3584 219.653 71.8213 220.181C72.29 220.708 72.9521 220.972 73.8076 220.972C74.6279 220.972 75.2695 220.717 75.7324 220.207C76.2012 219.691 76.4355 218.974 76.4355 218.054ZM77.7715 213.958V222H76.4355V220.541C76.1133 221.127 75.7002 221.575 75.1963 221.886C74.6982 222.19 74.1387 222.343 73.5176 222.343C72.3633 222.343 71.4316 221.947 70.7227 221.156C70.0195 220.359 69.668 219.308 69.668 218.001C69.668 216.677 70.0107 215.625 70.6963 214.846C71.3818 214.061 72.2988 213.668 73.4473 213.668C74.1211 213.668 74.7041 213.82 75.1963 214.125C75.6943 214.424 76.0957 214.872 76.4004 215.47V213.958H77.7715ZM86.4199 222L86.4023 215.338H85.0752V213.123H86.4023V210.478H89.5049V213.123H90.8145V215.338H89.5049V222H86.4199ZM101.388 213.123V217.658C101.388 218.672 101.312 219.41 101.159 219.873C100.995 220.354 100.72 220.787 100.333 221.174C99.9639 221.561 99.4775 221.854 98.874 222.053C98.2998 222.246 97.6084 222.343 96.7998 222.343C95.9971 222.343 95.3145 222.246 94.752 222.053C94.1719 221.865 93.6738 221.572 93.2578 221.174C92.877 220.811 92.6074 220.383 92.4492 219.891C92.291 219.434 92.2119 218.689 92.2119 217.658V213.123H95.2002V217.86C95.2002 218.604 95.3262 219.138 95.5781 219.46C95.8066 219.8 96.2021 219.97 96.7646 219.97C97.3213 219.97 97.7197 219.806 97.96 219.478C98.2061 219.149 98.3291 218.61 98.3291 217.86V213.123H101.388ZM109.28 222V213.123H112.146V214.925C112.55 214.222 113.03 213.694 113.587 213.343C114.126 213.009 114.779 212.842 115.547 212.842C116.127 212.842 116.643 212.93 117.094 213.105C117.539 213.305 117.899 213.574 118.175 213.914C118.427 214.254 118.594 214.614 118.676 214.995C118.775 215.481 118.825 216.123 118.825 216.92V222H115.688V217.245C115.688 216.524 115.573 216.009 115.345 215.698C115.116 215.376 114.744 215.215 114.229 215.215C113.584 215.215 113.109 215.455 112.805 215.936C112.506 216.416 112.356 217.195 112.356 218.273V222H109.28ZM127.157 216.419C127.104 215.927 126.914 215.525 126.586 215.215C126.258 214.904 125.856 214.749 125.382 214.749C124.884 214.749 124.479 214.887 124.169 215.162C123.847 215.473 123.645 215.892 123.562 216.419H127.157ZM130.242 218.186H123.492C123.51 218.877 123.683 219.404 124.011 219.768C124.351 220.143 124.843 220.33 125.487 220.33C125.956 220.33 126.357 220.239 126.691 220.058C127.031 219.864 127.277 219.601 127.43 219.267L129.785 220.216C129.51 220.89 129.012 221.411 128.291 221.78C127.576 222.155 126.7 222.343 125.663 222.343C124.116 222.343 122.874 221.909 121.937 221.042C121.005 220.198 120.539 219.07 120.539 217.658C120.539 216.281 121.005 215.13 121.937 214.204C122.868 213.296 124.052 212.842 125.487 212.842C126.952 212.842 128.109 213.302 128.959 214.222C129.393 214.696 129.715 215.25 129.926 215.883C130.137 216.51 130.242 217.228 130.242 218.036V218.186ZM138.812 217.535C138.812 216.85 138.633 216.311 138.275 215.918C137.889 215.531 137.379 215.338 136.746 215.338C136.113 215.338 135.604 215.531 135.217 215.918C134.842 216.311 134.654 216.85 134.654 217.535C134.654 218.227 134.842 218.76 135.217 219.135C135.598 219.533 136.107 219.732 136.746 219.732C137.373 219.732 137.877 219.533 138.258 219.135C138.627 218.766 138.812 218.232 138.812 217.535ZM141.562 213.123V221.982C141.562 223.324 141.155 224.314 140.341 224.953C139.948 225.27 139.433 225.51 138.794 225.674C138.155 225.838 137.405 225.92 136.544 225.92C135.144 225.92 134.057 225.662 133.283 225.146C132.51 224.625 132.097 223.901 132.044 222.976H135.287C135.346 223.257 135.501 223.471 135.753 223.617C136.011 223.775 136.354 223.854 136.781 223.854C137.449 223.854 137.915 223.693 138.179 223.371C138.431 223.049 138.557 222.363 138.557 221.314V220.506C138.223 221.068 137.804 221.481 137.3 221.745C136.778 222.021 136.172 222.158 135.48 222.158C134.309 222.158 133.368 221.733 132.659 220.884C132.313 220.468 132.05 219.979 131.868 219.416C131.687 218.848 131.596 218.209 131.596 217.5C131.596 216.082 131.968 214.948 132.712 214.099C133.081 213.677 133.515 213.363 134.013 213.158C134.517 212.947 135.079 212.842 135.7 212.842C136.362 212.842 136.937 212.979 137.423 213.255C137.903 213.513 138.319 213.943 138.671 214.547V213.123H141.562ZM150.229 217.588C150.229 216.926 150.062 216.404 149.728 216.023C149.382 215.643 148.931 215.452 148.374 215.452C147.8 215.452 147.349 215.643 147.021 216.023C146.687 216.393 146.52 216.914 146.52 217.588C146.52 218.244 146.681 218.76 147.003 219.135C147.354 219.521 147.812 219.715 148.374 219.715C148.937 219.715 149.394 219.521 149.745 219.135C150.067 218.748 150.229 218.232 150.229 217.588ZM153.34 217.588C153.34 218.238 153.214 218.845 152.962 219.407C152.698 220.005 152.338 220.521 151.881 220.954C151.365 221.435 150.832 221.783 150.281 222C149.707 222.229 149.071 222.343 148.374 222.343C147.671 222.343 147.035 222.229 146.467 222C145.887 221.771 145.351 221.426 144.858 220.963C144.372 220.494 144.021 219.976 143.804 219.407C143.552 218.862 143.426 218.256 143.426 217.588C143.426 216.938 143.552 216.325 143.804 215.751C144.038 215.171 144.393 214.655 144.867 214.204C145.33 213.759 145.863 213.416 146.467 213.176C147.041 212.953 147.677 212.842 148.374 212.842C149.065 212.842 149.701 212.953 150.281 213.176C150.885 213.416 151.418 213.759 151.881 214.204C152.367 214.644 152.728 215.159 152.962 215.751C153.214 216.325 153.34 216.938 153.34 217.588ZM161.514 216.041C161.209 215.771 160.916 215.575 160.635 215.452C160.383 215.329 160.087 215.268 159.747 215.268C159.12 215.268 158.628 215.473 158.271 215.883C157.901 216.287 157.717 216.844 157.717 217.553C157.717 218.232 157.907 218.771 158.288 219.17C158.657 219.58 159.17 219.785 159.826 219.785C160.137 219.785 160.436 219.721 160.723 219.592C161.027 219.445 161.291 219.252 161.514 219.012V221.728C161.139 221.927 160.761 222.085 160.38 222.202C159.976 222.296 159.592 222.343 159.229 222.343C157.857 222.343 156.753 221.903 155.915 221.024C155.628 220.731 155.391 220.409 155.203 220.058C155.021 219.706 154.881 219.325 154.781 218.915C154.688 218.505 154.641 218.057 154.641 217.57C154.641 216.17 155.068 215.033 155.924 214.16C156.785 213.281 157.898 212.842 159.264 212.842C159.691 212.842 160.099 212.889 160.485 212.982C160.86 213.076 161.203 213.214 161.514 213.396V216.041ZM163.368 222V213.123H166.497V222H163.368ZM163.764 210.838H163.781C163.781 210.51 163.896 210.24 164.124 210.029C164.353 209.801 164.628 209.687 164.95 209.687C165.29 209.687 165.568 209.795 165.785 210.012C166.008 210.229 166.119 210.504 166.119 210.838C166.119 211.178 166.005 211.459 165.776 211.682C165.554 211.91 165.278 212.024 164.95 212.024C164.616 212.024 164.335 211.904 164.106 211.664C163.878 211.441 163.764 211.166 163.764 210.838ZM175.365 217.588C175.365 216.926 175.198 216.404 174.864 216.023C174.519 215.643 174.067 215.452 173.511 215.452C172.937 215.452 172.485 215.643 172.157 216.023C171.823 216.393 171.656 216.914 171.656 217.588C171.656 218.244 171.817 218.76 172.14 219.135C172.491 219.521 172.948 219.715 173.511 219.715C174.073 219.715 174.53 219.521 174.882 219.135C175.204 218.748 175.365 218.232 175.365 217.588ZM178.477 217.588C178.477 218.238 178.351 218.845 178.099 219.407C177.835 220.005 177.475 220.521 177.018 220.954C176.502 221.435 175.969 221.783 175.418 222C174.844 222.229 174.208 222.343 173.511 222.343C172.808 222.343 172.172 222.229 171.604 222C171.023 221.771 170.487 221.426 169.995 220.963C169.509 220.494 169.157 219.976 168.94 219.407C168.688 218.862 168.562 218.256 168.562 217.588C168.562 216.938 168.688 216.325 168.94 215.751C169.175 215.171 169.529 214.655 170.004 214.204C170.467 213.759 171 213.416 171.604 213.176C172.178 212.953 172.813 212.842 173.511 212.842C174.202 212.842 174.838 212.953 175.418 213.176C176.021 213.416 176.555 213.759 177.018 214.204C177.504 214.644 177.864 215.159 178.099 215.751C178.351 216.325 178.477 216.938 178.477 217.588Z" fill="white"/>
<path d="M30.592 47H40.624C50.944 47 58.144 39.128 58.144 28.952C58.144 18.632 51.136 10.808 40.672 10.808H30.592V47ZM37.648 16.952H38.8C46.816 16.952 50.848 21.032 50.848 28.904C50.848 36.056 47.488 40.856 38.8 40.856H37.648V16.952ZM71.6793 10.808H64.6233V47H71.6793V10.808ZM100.163 13.88C97.9548 11.432 93.4908 9.848 90.2748 9.848C84.1788 9.848 79.7148 14.696 79.7148 20.696C79.7148 26.312 83.1228 28.664 87.7788 30.584C90.6108 31.688 94.0668 32.744 94.0668 36.488C94.0668 39.272 92.2908 41.72 89.4108 41.72C86.3868 41.72 83.8428 39.224 82.8828 36.44L78.3228 40.904C80.8188 45.08 84.4668 47.96 89.4588 47.96C96.8508 47.96 101.363 42.824 101.363 35.576C101.363 23.432 87.0108 25.976 87.0108 19.88C87.0108 17.528 89.1708 15.8 91.4268 15.8C93.7788 15.8 95.5068 16.952 96.8508 18.776L100.163 13.88ZM126.796 16.952V10.808H108.076V47H126.796V40.856H115.132V31.064H126.364V24.92H115.132V16.952H126.796ZM134.514 47H141.57V22.424H141.666L160.722 47.72H165.81V10.808H158.754V35.144H158.658L139.602 9.848H134.514V47ZM144.978 7.064C145.266 6.056 145.842 5.096 147.042 5.096C147.954 5.096 149.058 5.624 150.21 6.152C151.362 6.68 152.514 7.208 153.522 7.208C157.122 7.208 158.802 3.512 159.33 0.439999H155.346C154.818 1.496 154.434 2.456 153.09 2.456C152.322 2.456 151.218 1.88 149.97 1.4C148.77 0.919998 147.426 0.391996 146.274 0.391996C142.962 0.391996 141.282 4.28 141.042 7.064H144.978ZM193.904 39.368L196.688 47H204.224L190.496 9.848H185.024L170.912 47H178.352L181.328 39.368H193.904ZM191.936 33.608H183.344L187.328 20.456H187.424L191.936 33.608ZM209.373 47H219.405C229.725 47 236.925 39.128 236.925 28.952C236.925 18.632 229.917 10.808 219.453 10.808H209.373V47ZM216.429 16.952H217.581C225.597 16.952 229.629 21.032 229.629 28.904C229.629 36.056 226.269 40.856 217.581 40.856H216.429V16.952ZM277.485 28.856C277.485 18.104 270.381 9.848 259.581 9.848C248.781 9.848 241.677 18.104 241.677 28.856C241.677 39.512 248.541 47.96 259.581 47.96C270.621 47.96 277.485 39.512 277.485 28.856ZM270.189 28.568C270.189 34.136 267.405 41 259.581 41C251.757 41 248.973 34.136 248.973 28.568C248.973 22.712 252.909 16.808 259.581 16.808C266.253 16.808 270.189 22.712 270.189 28.568ZM307.882 33.464H311.386C318.778 33.464 322.954 29.72 322.954 22.04C322.954 13.832 318.01 10.808 310.426 10.808H300.826V47H307.882V33.464ZM307.882 16.664H309.13C313.066 16.664 315.754 17.336 315.754 21.992C315.754 26.696 313.498 27.608 309.322 27.608H307.882V16.664ZM345.31 39.368L348.094 47H355.63L341.902 9.848H336.43L322.318 47H329.758L332.734 39.368H345.31ZM343.342 33.608H334.75L338.734 20.456H338.83L343.342 33.608ZM375.036 31.736C379.884 30.92 382.427 26.312 382.427 21.704C382.427 13.976 377.484 10.808 370.332 10.808H360.78V47H367.836V32.408H367.932L376.716 47H385.26L375.036 31.736ZM367.836 16.568H368.796C372.54 16.568 375.372 17.432 375.372 21.896C375.372 26.312 372.636 27.464 368.748 27.464H367.836V16.568ZM410.513 39.368L413.297 47H420.833L407.105 9.848H401.633L387.521 47H394.961L397.937 39.368H410.513ZM408.545 33.608H399.953L403.937 20.456H404.033L408.545 33.608ZM44.848 79.736C49.696 78.92 52.24 74.312 52.24 69.704C52.24 61.976 47.296 58.808 40.144 58.808H30.592V95H37.648V80.408H37.744L46.528 95H55.072L44.848 79.736ZM37.648 64.568H38.608C42.352 64.568 45.184 65.432 45.184 69.896C45.184 74.312 42.448 75.464 38.56 75.464H37.648V64.568ZM79.0776 64.952V58.808H60.3576V95H79.0776V88.856H67.4136V79.064H78.6456V72.92H67.4136V64.952H79.0776ZM107.147 61.88C104.939 59.432 100.475 57.848 97.2591 57.848C91.1631 57.848 86.6991 62.696 86.6991 68.696C86.6991 74.312 90.1071 76.664 94.7631 78.584C97.5951 79.688 101.051 80.744 101.051 84.488C101.051 87.272 99.2751 89.72 96.3951 89.72C93.3711 89.72 90.8271 87.224 89.8671 84.44L85.3071 88.904C87.8031 93.08 91.4511 95.96 96.4431 95.96C103.835 95.96 108.347 90.824 108.347 83.576C108.347 71.432 93.9951 73.976 93.9951 67.88C93.9951 65.528 96.1551 63.8 98.4111 63.8C100.763 63.8 102.491 64.952 103.835 66.776L107.147 61.88ZM149.141 76.856C149.141 66.104 142.037 57.848 131.237 57.848C120.437 57.848 113.333 66.104 113.333 76.856C113.333 87.512 120.197 95.96 131.237 95.96C142.277 95.96 149.141 87.512 149.141 76.856ZM141.845 76.568C141.845 82.136 139.061 89 131.237 89C123.413 89 120.629 82.136 120.629 76.568C120.629 70.712 124.565 64.808 131.237 64.808C137.909 64.808 141.845 70.712 141.845 76.568ZM162.664 58.808H155.608V95H172.648V88.856H162.664V58.808ZM180.318 58.808H172.734L186.558 95.96H190.686L204.75 58.808H197.166L189.102 83.192H189.006L180.318 58.808ZM228.375 64.952V58.808H209.655V95H228.375V88.856H216.711V79.064H227.943V72.92H216.711V64.952H228.375ZM250.348 79.736C255.196 78.92 257.74 74.312 257.74 69.704C257.74 61.976 252.796 58.808 245.644 58.808H236.092V95H243.148V80.408H243.244L252.028 95H260.572L250.348 79.736ZM243.148 64.568H244.108C247.852 64.568 250.684 65.432 250.684 69.896C250.684 74.312 247.948 75.464 244.06 75.464H243.148V64.568ZM294.493 64.952H301.789V58.808H280.141V64.952H287.437V95H294.493V64.952ZM307.197 80.456C307.197 89.288 310.941 95.96 320.637 95.96C330.333 95.96 334.077 89.288 334.077 80.456V58.808H327.021V79.064C327.021 83.528 326.637 89.816 320.637 89.816C314.637 89.816 314.253 83.528 314.253 79.064V58.808H307.197V80.456ZM362.428 61.88C360.22 59.432 355.756 57.848 352.54 57.848C346.444 57.848 341.98 62.696 341.98 68.696C341.98 74.312 345.388 76.664 350.044 78.584C352.876 79.688 356.332 80.744 356.332 84.488C356.332 87.272 354.556 89.72 351.676 89.72C348.652 89.72 346.108 87.224 345.148 84.44L340.588 88.904C343.084 93.08 346.732 95.96 351.724 95.96C359.116 95.96 363.628 90.824 363.628 83.576C363.628 71.432 349.276 73.976 349.276 67.88C349.276 65.528 351.436 63.8 353.692 63.8C356.044 63.8 357.772 64.952 359.116 66.776L362.428 61.88ZM37.648 106.808H30.592V143H37.648V106.808ZM75.6835 143H82.7875L77.3635 105.848H72.2755L63.7315 129.704L54.8035 105.848H49.8115L43.7155 143H50.8195L54.0355 120.536H54.1315L62.0515 143.48H64.4995L72.7075 120.536H72.8035L75.6835 143ZM95.9605 129.464H99.4645C106.857 129.464 111.033 125.72 111.033 118.04C111.033 109.832 106.089 106.808 98.5045 106.808H88.9045V143H95.9605V129.464ZM95.9605 112.664H97.2085C101.145 112.664 103.833 113.336 103.833 117.992C103.833 122.696 101.577 123.608 97.4005 123.608H95.9605V112.664ZM131.52 127.736C136.368 126.92 138.912 122.312 138.912 117.704C138.912 109.976 133.968 106.808 126.816 106.808H117.264V143H124.32V128.408H124.416L133.2 143H141.744L131.52 127.736ZM124.32 112.568H125.28C129.024 112.568 131.856 113.432 131.856 117.896C131.856 122.312 129.12 123.464 125.232 123.464H124.32V112.568ZM165.75 112.952V106.808H147.03V143H165.75V136.856H154.086V127.064H165.318V120.92H154.086V112.952H165.75ZM177.787 106.808H170.203L184.027 143.96H188.155L202.219 106.808H194.635L186.571 131.192H186.475L177.787 106.808ZM214.179 106.808H207.123V143H214.179V106.808ZM242.663 109.88C240.455 107.432 235.991 105.848 232.775 105.848C226.679 105.848 222.215 110.696 222.215 116.696C222.215 122.312 225.623 124.664 230.279 126.584C233.111 127.688 236.567 128.744 236.567 132.488C236.567 135.272 234.791 137.72 231.911 137.72C228.887 137.72 226.343 135.224 225.383 132.44L220.823 136.904C223.319 141.08 226.967 143.96 231.959 143.96C239.351 143.96 243.863 138.824 243.863 131.576C243.863 119.432 229.511 121.976 229.511 115.88C229.511 113.528 231.671 111.8 233.927 111.8C236.279 111.8 238.007 112.952 239.351 114.776L242.663 109.88ZM262.336 112.952H269.632V106.808H247.984V112.952H255.28V143H262.336V112.952ZM309.313 124.856C309.313 114.104 302.209 105.848 291.409 105.848C280.609 105.848 273.505 114.104 273.505 124.856C273.505 135.512 280.369 143.96 291.409 143.96C302.449 143.96 309.313 135.512 309.313 124.856ZM302.017 124.568C302.017 130.136 299.233 137 291.409 137C283.585 137 280.801 130.136 280.801 124.568C280.801 118.712 284.737 112.808 291.409 112.808C298.081 112.808 302.017 118.712 302.017 124.568ZM336.132 109.88C333.924 107.432 329.46 105.848 326.244 105.848C320.148 105.848 315.684 110.696 315.684 116.696C315.684 122.312 319.092 124.664 323.748 126.584C326.58 127.688 330.036 128.744 330.036 132.488C330.036 135.272 328.26 137.72 325.38 137.72C322.356 137.72 319.812 135.224 318.852 132.44L314.292 136.904C316.788 141.08 320.436 143.96 325.428 143.96C332.82 143.96 337.332 138.824 337.332 131.576C337.332 119.432 322.98 121.976 322.98 115.88C322.98 113.528 325.14 111.8 327.396 111.8C329.748 111.8 331.476 112.952 332.82 114.776L336.132 109.88Z" fill="white"/>
</svg>
