<svg width="550" height="246" viewBox="0 0 550 246" fill="none" xmlns="http://www.w3.org/2000/svg">
<path d="M26.744 183H14.686C10.2678 183 6.68604 179.418 6.68604 175V14" stroke="white" stroke-width="1.5"/>
<path d="M12.622 7.0784C12.622 10.6144 9.92461 13.4068 6.68598 13.4068C3.44736 13.4068 0.75 10.6144 0.75 7.0784C0.75 3.54244 3.44736 0.75 6.68598 0.75C9.92461 0.75 12.622 3.54244 12.622 7.0784Z" stroke="white" stroke-width="1.5"/>
<rect x="25" y="161" width="271" height="85" rx="16" fill="#002A61"/>
<path d="M42.378 197H43.926L45.672 187.82H45.708L50.064 197.558L54.438 187.82H54.474L56.22 197H57.768L55.014 182.654L50.064 194.048L45.132 182.654L42.378 197ZM63.0147 189.638C64.7967 189.638 65.8587 191.006 65.8587 192.698C65.8587 194.408 64.8867 195.902 63.0327 195.902C61.2327 195.902 60.2607 194.336 60.2607 192.68C60.2607 191.096 61.3407 189.638 63.0147 189.638ZM67.2267 188.54H65.7867V189.746H65.7507C65.0487 188.846 64.0047 188.306 62.8527 188.306C60.3147 188.306 58.7847 190.376 58.7847 192.788C58.7847 195.128 60.3507 197.234 62.8347 197.234C64.0227 197.234 65.0127 196.766 65.7507 195.83H65.7867V197H67.2267V188.54ZM71.3334 188.54H69.8934V197H71.3334V192.986C71.3334 191.474 71.4594 189.638 73.4394 189.638C75.1134 189.638 75.2214 190.862 75.2214 192.23V197H76.6614V191.978C76.6614 189.998 76.1214 188.306 73.7814 188.306C72.7374 188.306 71.9634 188.756 71.3694 189.566H71.3334V188.54ZM86.7652 193.076C86.9092 190.556 85.4692 188.306 82.7512 188.306C80.1052 188.306 78.6472 190.376 78.6472 192.878C78.6472 195.308 80.2672 197.234 82.7872 197.234C84.5152 197.234 85.8832 196.37 86.6932 194.858L85.4692 194.156C84.9112 195.164 84.1192 195.902 82.8952 195.902C81.2572 195.902 80.1412 194.642 80.1232 193.076H86.7652ZM80.1952 191.852C80.3752 190.628 81.5272 189.638 82.7692 189.638C84.0292 189.638 85.0552 190.628 85.2532 191.852H80.1952ZM90.4471 188.54H89.0071V201.752H90.4471V188.54ZM89.7271 184.328C89.1691 184.328 88.7011 184.796 88.7011 185.354C88.7011 185.93 89.1691 186.38 89.7271 186.38C90.2851 186.38 90.7531 185.93 90.7531 185.354C90.7531 184.796 90.2851 184.328 89.7271 184.328ZM96.9581 189.638C98.7401 189.638 99.8021 191.006 99.8021 192.698C99.8021 194.408 98.8301 195.902 96.9761 195.902C95.1761 195.902 94.2041 194.336 94.2041 192.68C94.2041 191.096 95.2841 189.638 96.9581 189.638ZM101.17 188.54H99.7301V189.746H99.6941C98.9921 188.846 97.9481 188.306 96.7961 188.306C94.2581 188.306 92.7281 190.376 92.7281 192.788C92.7281 195.128 94.2941 197.234 96.7781 197.234C97.9661 197.234 98.9561 196.766 99.6941 195.83H99.7301V197H101.17V188.54ZM112.758 190.484V197H109.5V190.484H108.42V187.766H109.5V184.994H112.758V187.766H114.612V190.484H112.758ZM119.095 187.766V192.968C119.095 194.108 119.647 194.678 120.751 194.678C121.855 194.678 122.407 194.108 122.407 192.968V187.766H125.665V193.598C125.665 194.846 125.251 195.782 124.423 196.406C123.607 197.03 122.383 197.342 120.751 197.342C119.119 197.342 117.889 197.03 117.061 196.406C116.245 195.782 115.837 194.846 115.837 193.598V187.766H119.095ZM133.998 190.142C133.398 189.83 132.81 189.674 132.234 189.674C131.934 189.674 131.688 189.734 131.496 189.854C131.316 189.974 131.226 190.136 131.226 190.34C131.226 190.448 131.238 190.538 131.262 190.61C131.298 190.67 131.364 190.73 131.46 190.79C131.568 190.85 131.718 190.904 131.91 190.952C132.114 191 132.378 191.06 132.702 191.132C133.602 191.312 134.274 191.636 134.718 192.104C135.162 192.56 135.384 193.148 135.384 193.868C135.384 194.408 135.276 194.894 135.06 195.326C134.844 195.758 134.544 196.124 134.16 196.424C133.776 196.712 133.314 196.934 132.774 197.09C132.234 197.258 131.64 197.342 130.992 197.342C129.744 197.342 128.514 196.988 127.302 196.28L128.49 193.976C129.402 194.6 130.266 194.912 131.082 194.912C131.382 194.912 131.628 194.846 131.82 194.714C132.012 194.582 132.108 194.414 132.108 194.21C132.108 194.09 132.09 193.994 132.054 193.922C132.03 193.838 131.97 193.766 131.874 193.706C131.778 193.634 131.634 193.574 131.442 193.526C131.262 193.466 131.022 193.406 130.722 193.346C129.714 193.142 129.006 192.842 128.598 192.446C128.202 192.038 128.004 191.48 128.004 190.772C128.004 190.256 128.1 189.794 128.292 189.386C128.484 188.966 128.76 188.612 129.12 188.324C129.48 188.036 129.912 187.814 130.416 187.658C130.932 187.502 131.502 187.424 132.126 187.424C133.146 187.424 134.136 187.622 135.096 188.018L133.998 190.142ZM150.119 190.754C149.555 190.37 148.985 190.178 148.409 190.178C148.097 190.178 147.803 190.232 147.527 190.34C147.263 190.448 147.029 190.604 146.825 190.808C146.621 191 146.459 191.234 146.339 191.51C146.231 191.774 146.177 192.074 146.177 192.41C146.177 192.734 146.231 193.034 146.339 193.31C146.459 193.574 146.615 193.808 146.807 194.012C147.011 194.204 147.251 194.354 147.527 194.462C147.803 194.57 148.097 194.624 148.409 194.624C149.021 194.624 149.591 194.414 150.119 193.994V196.766C149.315 197.114 148.553 197.288 147.833 197.288C147.161 197.288 146.519 197.174 145.907 196.946C145.307 196.718 144.773 196.394 144.305 195.974C143.849 195.542 143.483 195.032 143.207 194.444C142.931 193.844 142.793 193.178 142.793 192.446C142.793 191.714 142.925 191.048 143.189 190.448C143.453 189.836 143.813 189.314 144.269 188.882C144.725 188.438 145.265 188.096 145.889 187.856C146.525 187.604 147.203 187.478 147.923 187.478C148.715 187.478 149.447 187.646 150.119 187.982V190.754ZM155.235 187.766V192.968C155.235 194.108 155.787 194.678 156.891 194.678C157.995 194.678 158.547 194.108 158.547 192.968V187.766H161.805V193.598C161.805 194.846 161.391 195.782 160.563 196.406C159.747 197.03 158.523 197.342 156.891 197.342C155.259 197.342 154.029 197.03 153.201 196.406C152.385 195.782 151.977 194.846 151.977 193.598V187.766H155.235ZM170.768 191.042C170.66 190.586 170.438 190.22 170.102 189.944C169.766 189.668 169.358 189.53 168.878 189.53C168.374 189.53 167.96 189.662 167.636 189.926C167.324 190.19 167.126 190.562 167.042 191.042H170.768ZM166.952 192.932C166.952 194.336 167.612 195.038 168.932 195.038C169.64 195.038 170.174 194.75 170.534 194.174H173.684C173.048 196.286 171.458 197.342 168.914 197.342C168.134 197.342 167.42 197.228 166.772 197C166.124 196.76 165.566 196.424 165.098 195.992C164.642 195.56 164.288 195.044 164.036 194.444C163.784 193.844 163.658 193.172 163.658 192.428C163.658 191.66 163.778 190.97 164.018 190.358C164.258 189.734 164.6 189.206 165.044 188.774C165.488 188.342 166.022 188.012 166.646 187.784C167.282 187.544 167.996 187.424 168.788 187.424C169.568 187.424 170.27 187.544 170.894 187.784C171.518 188.012 172.046 188.348 172.478 188.792C172.91 189.236 173.24 189.782 173.468 190.43C173.696 191.066 173.81 191.786 173.81 192.59V192.932H166.952ZM175.673 187.766H178.931V188.936C179.375 188.396 179.825 188.036 180.281 187.856C180.737 187.664 181.271 187.568 181.883 187.568C182.531 187.568 183.083 187.676 183.539 187.892C184.007 188.096 184.403 188.39 184.727 188.774C184.991 189.086 185.171 189.434 185.267 189.818C185.363 190.202 185.411 190.64 185.411 191.132V197H182.153V192.338C182.153 191.882 182.117 191.516 182.045 191.24C181.985 190.952 181.871 190.724 181.703 190.556C181.559 190.412 181.397 190.31 181.217 190.25C181.037 190.19 180.845 190.16 180.641 190.16C180.089 190.16 179.663 190.328 179.363 190.664C179.075 190.988 178.931 191.456 178.931 192.068V197H175.673V187.766ZM191.262 190.484V197H188.004V190.484H186.924V187.766H188.004V184.994H191.262V187.766H193.116V190.484H191.262ZM197.54 192.356C197.54 192.656 197.594 192.938 197.702 193.202C197.81 193.454 197.954 193.676 198.134 193.868C198.326 194.06 198.548 194.21 198.8 194.318C199.064 194.426 199.346 194.48 199.646 194.48C199.934 194.48 200.204 194.426 200.456 194.318C200.72 194.21 200.942 194.06 201.122 193.868C201.314 193.676 201.464 193.454 201.572 193.202C201.692 192.95 201.752 192.68 201.752 192.392C201.752 192.104 201.692 191.834 201.572 191.582C201.464 191.318 201.314 191.09 201.122 190.898C200.942 190.706 200.72 190.556 200.456 190.448C200.204 190.34 199.934 190.286 199.646 190.286C199.346 190.286 199.064 190.34 198.8 190.448C198.548 190.556 198.326 190.706 198.134 190.898C197.954 191.09 197.81 191.312 197.702 191.564C197.594 191.804 197.54 192.068 197.54 192.356ZM201.644 187.766H204.92V197H201.644V195.974C200.948 196.85 200.006 197.288 198.818 197.288C198.146 197.288 197.528 197.168 196.964 196.928C196.4 196.676 195.908 196.328 195.488 195.884C195.068 195.44 194.738 194.918 194.498 194.318C194.27 193.718 194.156 193.064 194.156 192.356C194.156 191.696 194.27 191.072 194.498 190.484C194.726 189.884 195.044 189.362 195.452 188.918C195.86 188.474 196.346 188.126 196.91 187.874C197.474 187.61 198.098 187.478 198.782 187.478C199.934 187.478 200.888 187.88 201.644 188.684V187.766ZM213.257 190.142C212.657 189.83 212.069 189.674 211.493 189.674C211.193 189.674 210.947 189.734 210.755 189.854C210.575 189.974 210.485 190.136 210.485 190.34C210.485 190.448 210.497 190.538 210.521 190.61C210.557 190.67 210.623 190.73 210.719 190.79C210.827 190.85 210.977 190.904 211.169 190.952C211.373 191 211.637 191.06 211.961 191.132C212.861 191.312 213.533 191.636 213.977 192.104C214.421 192.56 214.643 193.148 214.643 193.868C214.643 194.408 214.535 194.894 214.319 195.326C214.103 195.758 213.803 196.124 213.419 196.424C213.035 196.712 212.573 196.934 212.033 197.09C211.493 197.258 210.899 197.342 210.251 197.342C209.003 197.342 207.773 196.988 206.561 196.28L207.749 193.976C208.661 194.6 209.525 194.912 210.341 194.912C210.641 194.912 210.887 194.846 211.079 194.714C211.271 194.582 211.367 194.414 211.367 194.21C211.367 194.09 211.349 193.994 211.313 193.922C211.289 193.838 211.229 193.766 211.133 193.706C211.037 193.634 210.893 193.574 210.701 193.526C210.521 193.466 210.281 193.406 209.981 193.346C208.973 193.142 208.265 192.842 207.857 192.446C207.461 192.038 207.263 191.48 207.263 190.772C207.263 190.256 207.359 189.794 207.551 189.386C207.743 188.966 208.019 188.612 208.379 188.324C208.739 188.036 209.171 187.814 209.675 187.658C210.191 187.502 210.761 187.424 211.385 187.424C212.405 187.424 213.395 187.622 214.355 188.018L213.257 190.142ZM225.595 189.638C227.377 189.638 228.439 191.006 228.439 192.698C228.439 194.408 227.467 195.902 225.613 195.902C223.813 195.902 222.841 194.336 222.841 192.68C222.841 191.096 223.921 189.638 225.595 189.638ZM228.367 197H229.807V182.15H228.367V189.746H228.331C227.647 188.846 226.567 188.306 225.433 188.306C222.895 188.306 221.365 190.376 221.365 192.788C221.365 195.128 222.931 197.234 225.415 197.234C226.567 197.234 227.629 196.748 228.331 195.83H228.367V197ZM239.835 193.076C239.979 190.556 238.539 188.306 235.821 188.306C233.175 188.306 231.717 190.376 231.717 192.878C231.717 195.308 233.337 197.234 235.857 197.234C237.585 197.234 238.953 196.37 239.763 194.858L238.539 194.156C237.981 195.164 237.189 195.902 235.965 195.902C234.327 195.902 233.211 194.642 233.193 193.076H239.835ZM233.265 191.852C233.445 190.628 234.597 189.638 235.839 189.638C237.099 189.638 238.125 190.628 238.323 191.852H233.265ZM246.433 189.872C246.055 188.99 245.155 188.306 244.183 188.306C242.815 188.306 241.663 189.278 241.663 190.7C241.663 193.364 245.479 192.716 245.479 194.606C245.479 195.38 244.885 195.902 244.111 195.902C243.157 195.902 242.743 195.344 242.383 194.552L241.105 195.092C241.555 196.424 242.671 197.234 244.093 197.234C245.659 197.234 246.955 196.082 246.955 194.48C246.955 193.058 245.983 192.464 244.993 192.05C244.003 191.636 243.031 191.348 243.031 190.574C243.031 190.034 243.571 189.638 244.075 189.638C244.597 189.638 245.029 190.052 245.227 190.502L246.433 189.872ZM252.507 189.638C254.289 189.638 255.351 191.006 255.351 192.698C255.351 194.408 254.379 195.902 252.525 195.902C250.725 195.902 249.753 194.336 249.753 192.68C249.753 191.096 250.833 189.638 252.507 189.638ZM255.279 197H256.719V182.15H255.279V189.746H255.243C254.559 188.846 253.479 188.306 252.345 188.306C249.807 188.306 248.277 190.376 248.277 192.788C248.277 195.128 249.843 197.234 252.327 197.234C253.479 197.234 254.541 196.748 255.243 195.83H255.279V197ZM266.748 193.076C266.892 190.556 265.452 188.306 262.734 188.306C260.088 188.306 258.63 190.376 258.63 192.878C258.63 195.308 260.25 197.234 262.77 197.234C264.498 197.234 265.866 196.37 266.676 194.858L265.452 194.156C264.894 195.164 264.102 195.902 262.878 195.902C261.24 195.902 260.124 194.642 260.106 193.076H266.748ZM260.178 191.852C260.358 190.628 261.51 189.638 262.752 189.638C264.012 189.638 265.038 190.628 265.236 191.852H260.178ZM44.772 202.15H43.332V217H44.772V202.15ZM50.9561 209.638C52.7381 209.638 53.8001 211.006 53.8001 212.698C53.8001 214.408 52.8281 215.902 50.9741 215.902C49.1741 215.902 48.2021 214.336 48.2021 212.68C48.2021 211.096 49.2821 209.638 50.9561 209.638ZM55.1681 208.54H53.7281V209.746H53.6921C52.9901 208.846 51.9461 208.306 50.7941 208.306C48.2561 208.306 46.7261 210.376 46.7261 212.788C46.7261 215.128 48.2921 217.234 50.7761 217.234C51.9641 217.234 52.9541 216.766 53.6921 215.83H53.7281V217H55.1681V208.54ZM69.6539 209.152C68.8979 208.612 67.9619 208.306 67.0439 208.306C64.5599 208.306 62.5259 210.25 62.5259 212.77C62.5259 215.326 64.4699 217.234 67.0259 217.234C68.0339 217.234 68.8799 216.928 69.7079 216.37V214.444H69.6719C68.9699 215.362 68.1239 215.902 66.9179 215.902C65.1539 215.902 64.0019 214.444 64.0019 212.77C64.0019 211.078 65.2439 209.638 66.9899 209.638C68.1239 209.638 68.9519 210.214 69.6179 211.06H69.6539V209.152ZM75.6225 217.234C78.0885 217.234 80.0685 215.272 80.0685 212.788C80.0685 210.304 78.1065 208.306 75.6225 208.306C73.1385 208.306 71.1765 210.304 71.1765 212.788C71.1765 215.272 73.1565 217.234 75.6225 217.234ZM75.6225 209.638C77.4045 209.638 78.6285 211.06 78.6285 212.77C78.6285 214.498 77.4045 215.902 75.6225 215.902C73.8405 215.902 72.6165 214.498 72.6165 212.77C72.6165 211.06 73.8405 209.638 75.6225 209.638ZM83.4799 208.54H82.0399V217H83.4799V212.626C83.4799 211.348 83.6599 209.638 85.3519 209.638C86.7379 209.638 86.8639 211.15 86.8639 212.194V217H88.3039V212.518C88.3039 211.24 88.4839 209.638 90.1399 209.638C91.6159 209.638 91.6879 210.988 91.6879 212.086V217H93.1279V211.852C93.1279 210.07 92.5879 208.306 90.4279 208.306C89.4019 208.306 88.3939 208.774 87.8899 209.71C87.4399 208.828 86.5399 208.306 85.5499 208.306C84.6859 208.306 83.9659 208.756 83.5159 209.458H83.4799V208.54ZM99.5463 217.234C102.012 217.234 103.992 215.272 103.992 212.788C103.992 210.304 102.03 208.306 99.5463 208.306C97.0623 208.306 95.1003 210.304 95.1003 212.788C95.1003 215.272 97.0803 217.234 99.5463 217.234ZM99.5463 209.638C101.328 209.638 102.552 211.06 102.552 212.77C102.552 214.498 101.328 215.902 99.5463 215.902C97.7643 215.902 96.5403 214.498 96.5403 212.77C96.5403 211.06 97.7643 209.638 99.5463 209.638ZM109.474 209.638C111.256 209.638 112.318 211.006 112.318 212.698C112.318 214.408 111.346 215.902 109.492 215.902C107.692 215.902 106.72 214.336 106.72 212.68C106.72 211.096 107.8 209.638 109.474 209.638ZM112.246 217H113.686V202.15H112.246V209.746H112.21C111.526 208.846 110.446 208.306 109.312 208.306C106.774 208.306 105.244 210.376 105.244 212.788C105.244 215.128 106.81 217.234 109.294 217.234C110.446 217.234 111.508 216.748 112.21 215.83H112.246V217ZM118.062 208.54H116.622V217H118.062V208.54ZM117.342 204.328C116.784 204.328 116.316 204.796 116.316 205.354C116.316 205.93 116.784 206.38 117.342 206.38C117.9 206.38 118.368 205.93 118.368 205.354C118.368 204.796 117.9 204.328 117.342 204.328ZM124.573 209.638C126.355 209.638 127.417 211.006 127.417 212.698C127.417 214.408 126.445 215.902 124.591 215.902C122.791 215.902 121.819 214.336 121.819 212.68C121.819 211.096 122.899 209.638 124.573 209.638ZM127.345 217H128.785V202.15H127.345V209.746H127.309C126.625 208.846 125.545 208.306 124.411 208.306C121.873 208.306 120.343 210.376 120.343 212.788C120.343 215.128 121.909 217.234 124.393 217.234C125.545 217.234 126.607 216.748 127.309 215.83H127.345V217ZM134.962 209.638C136.744 209.638 137.806 211.006 137.806 212.698C137.806 214.408 136.834 215.902 134.98 215.902C133.18 215.902 132.208 214.336 132.208 212.68C132.208 211.096 133.288 209.638 134.962 209.638ZM139.174 208.54H137.734V209.746H137.698C136.996 208.846 135.952 208.306 134.8 208.306C132.262 208.306 130.732 210.376 130.732 212.788C130.732 215.128 132.298 217.234 134.782 217.234C135.97 217.234 136.96 216.766 137.698 215.83H137.734V217H139.174V208.54ZM145.351 209.638C147.133 209.638 148.195 211.006 148.195 212.698C148.195 214.408 147.223 215.902 145.369 215.902C143.569 215.902 142.597 214.336 142.597 212.68C142.597 211.096 143.677 209.638 145.351 209.638ZM148.123 217H149.563V202.15H148.123V209.746H148.087C147.403 208.846 146.323 208.306 145.189 208.306C142.651 208.306 141.121 210.376 141.121 212.788C141.121 215.128 142.687 217.234 145.171 217.234C146.323 217.234 147.385 216.748 148.087 215.83H148.123V217ZM161.276 209.638C163.058 209.638 164.12 211.006 164.12 212.698C164.12 214.408 163.148 215.902 161.294 215.902C159.494 215.902 158.522 214.336 158.522 212.68C158.522 211.096 159.602 209.638 161.276 209.638ZM164.048 217H165.488V202.15H164.048V209.746H164.012C163.328 208.846 162.248 208.306 161.114 208.306C158.576 208.306 157.046 210.376 157.046 212.788C157.046 215.128 158.612 217.234 161.096 217.234C162.248 217.234 163.31 216.748 164.012 215.83H164.048V217ZM175.517 213.076C175.661 210.556 174.221 208.306 171.503 208.306C168.857 208.306 167.399 210.376 167.399 212.878C167.399 215.308 169.019 217.234 171.539 217.234C173.267 217.234 174.635 216.37 175.445 214.858L174.221 214.156C173.663 215.164 172.871 215.902 171.647 215.902C170.009 215.902 168.893 214.642 168.875 213.076H175.517ZM168.947 211.852C169.127 210.628 170.279 209.638 171.521 209.638C172.781 209.638 173.807 210.628 174.005 211.852H168.947ZM186.41 210.484V217H183.152V210.484H182.072V207.766H183.152V204.994H186.41V207.766H188.264V210.484H186.41ZM192.747 207.766V212.968C192.747 214.108 193.299 214.678 194.403 214.678C195.507 214.678 196.059 214.108 196.059 212.968V207.766H199.317V213.598C199.317 214.846 198.903 215.782 198.075 216.406C197.259 217.03 196.035 217.342 194.403 217.342C192.771 217.342 191.541 217.03 190.713 216.406C189.897 215.782 189.489 214.846 189.489 213.598V207.766H192.747ZM207.647 202.06H210.905V208.936C211.349 208.396 211.799 208.036 212.255 207.856C212.711 207.664 213.245 207.568 213.857 207.568C215.021 207.568 215.897 207.892 216.485 208.54C217.085 209.176 217.385 210.04 217.385 211.132V217H214.127V212.338C214.127 211.87 214.091 211.492 214.019 211.204C213.947 210.916 213.827 210.694 213.659 210.538C213.371 210.286 213.023 210.16 212.615 210.16C212.063 210.16 211.637 210.328 211.337 210.664C211.049 210.988 210.905 211.456 210.905 212.068V217H207.647V202.06ZM222.678 212.338C222.678 212.65 222.732 212.938 222.84 213.202C222.96 213.454 223.11 213.676 223.29 213.868C223.482 214.06 223.704 214.21 223.956 214.318C224.22 214.426 224.496 214.48 224.784 214.48C225.072 214.48 225.342 214.426 225.594 214.318C225.858 214.21 226.08 214.06 226.26 213.868C226.452 213.676 226.602 213.454 226.71 213.202C226.83 212.938 226.89 212.656 226.89 212.356C226.89 212.068 226.83 211.798 226.71 211.546C226.602 211.282 226.452 211.054 226.26 210.862C226.08 210.67 225.858 210.52 225.594 210.412C225.342 210.304 225.072 210.25 224.784 210.25C224.496 210.25 224.22 210.304 223.956 210.412C223.704 210.52 223.482 210.67 223.29 210.862C223.11 211.054 222.96 211.276 222.84 211.528C222.732 211.78 222.678 212.05 222.678 212.338ZM219.24 212.302C219.24 211.618 219.378 210.982 219.654 210.394C219.93 209.794 220.314 209.278 220.806 208.846C221.298 208.402 221.88 208.054 222.552 207.802C223.236 207.55 223.98 207.424 224.784 207.424C225.576 207.424 226.308 207.55 226.98 207.802C227.664 208.042 228.252 208.384 228.744 208.828C229.248 209.26 229.638 209.782 229.914 210.394C230.19 210.994 230.328 211.66 230.328 212.392C230.328 213.124 230.184 213.796 229.896 214.408C229.62 215.008 229.236 215.53 228.744 215.974C228.252 216.406 227.658 216.742 226.962 216.982C226.278 217.222 225.534 217.342 224.73 217.342C223.938 217.342 223.206 217.222 222.534 216.982C221.862 216.742 221.28 216.4 220.788 215.956C220.308 215.512 219.93 214.984 219.654 214.372C219.378 213.748 219.24 213.058 219.24 212.302ZM235.228 212.338C235.228 212.638 235.282 212.92 235.39 213.184C235.498 213.436 235.642 213.658 235.822 213.85C236.014 214.042 236.236 214.192 236.488 214.3C236.752 214.408 237.034 214.462 237.334 214.462C237.622 214.462 237.892 214.408 238.144 214.3C238.408 214.192 238.63 214.042 238.81 213.85C239.002 213.658 239.152 213.436 239.26 213.184C239.38 212.92 239.44 212.644 239.44 212.356C239.44 212.056 239.38 211.78 239.26 211.528C239.152 211.276 239.002 211.054 238.81 210.862C238.618 210.67 238.39 210.52 238.126 210.412C237.874 210.304 237.61 210.25 237.334 210.25C237.046 210.25 236.776 210.31 236.524 210.43C236.272 210.538 236.05 210.688 235.858 210.88C235.666 211.06 235.51 211.276 235.39 211.528C235.282 211.78 235.228 212.05 235.228 212.338ZM242.536 207.766V216.37C242.536 216.886 242.506 217.348 242.446 217.756C242.386 218.164 242.302 218.524 242.194 218.836C242.05 219.232 241.822 219.598 241.51 219.934C241.21 220.282 240.844 220.582 240.412 220.834C239.98 221.086 239.488 221.284 238.936 221.428C238.396 221.572 237.808 221.644 237.172 221.644C236.452 221.644 235.792 221.554 235.192 221.374C234.592 221.194 234.064 220.942 233.608 220.618C233.164 220.306 232.798 219.934 232.51 219.502C232.222 219.082 232.03 218.62 231.934 218.116H235.606C235.834 218.728 236.35 219.034 237.154 219.034C237.838 219.034 238.36 218.842 238.72 218.458C239.092 218.074 239.278 217.54 239.278 216.856V215.974C239.038 216.202 238.804 216.394 238.576 216.55C238.36 216.694 238.138 216.814 237.91 216.91C237.682 217.006 237.442 217.072 237.19 217.108C236.938 217.156 236.662 217.18 236.362 217.18C235.702 217.18 235.096 217.066 234.544 216.838C233.992 216.61 233.512 216.292 233.104 215.884C232.708 215.476 232.396 214.99 232.168 214.426C231.952 213.85 231.844 213.214 231.844 212.518C231.844 211.81 231.964 211.156 232.204 210.556C232.444 209.944 232.768 209.416 233.176 208.972C233.596 208.516 234.088 208.162 234.652 207.91C235.228 207.646 235.852 207.514 236.524 207.514C237.616 207.514 238.534 207.922 239.278 208.738V207.766H242.536ZM247.972 212.356C247.972 212.656 248.026 212.938 248.134 213.202C248.242 213.454 248.386 213.676 248.566 213.868C248.758 214.06 248.98 214.21 249.232 214.318C249.496 214.426 249.778 214.48 250.078 214.48C250.366 214.48 250.636 214.426 250.888 214.318C251.152 214.21 251.374 214.06 251.554 213.868C251.746 213.676 251.896 213.454 252.004 213.202C252.124 212.95 252.184 212.68 252.184 212.392C252.184 212.104 252.124 211.834 252.004 211.582C251.896 211.318 251.746 211.09 251.554 210.898C251.374 210.706 251.152 210.556 250.888 210.448C250.636 210.34 250.366 210.286 250.078 210.286C249.778 210.286 249.496 210.34 249.232 210.448C248.98 210.556 248.758 210.706 248.566 210.898C248.386 211.09 248.242 211.312 248.134 211.564C248.026 211.804 247.972 212.068 247.972 212.356ZM252.076 207.766H255.352V217H252.076V215.974C251.38 216.85 250.438 217.288 249.25 217.288C248.578 217.288 247.96 217.168 247.396 216.928C246.832 216.676 246.34 216.328 245.92 215.884C245.5 215.44 245.17 214.918 244.93 214.318C244.702 213.718 244.588 213.064 244.588 212.356C244.588 211.696 244.702 211.072 244.93 210.484C245.158 209.884 245.476 209.362 245.884 208.918C246.292 208.474 246.778 208.126 247.342 207.874C247.906 207.61 248.53 207.478 249.214 207.478C250.366 207.478 251.32 207.88 252.076 208.684V207.766ZM257.569 207.766H260.827V209.278C261.175 208.726 261.601 208.306 262.105 208.018C262.609 207.718 263.197 207.568 263.869 207.568C263.953 207.568 264.043 207.568 264.139 207.568C264.247 207.568 264.367 207.58 264.499 207.604V210.718C264.067 210.502 263.599 210.394 263.095 210.394C262.339 210.394 261.769 210.622 261.385 211.078C261.013 211.522 260.827 212.176 260.827 213.04V217H257.569V207.766Z" fill="white"/>
<path d="M31.8438 41V6.6875H39.1797V34.7656H50.8984V41H31.8438ZM88.9141 23.9141C88.9141 26.3672 88.4531 28.6875 87.5312 30.875C86.625 33.0625 85.3125 34.9844 83.5938 36.6406C81.8125 38.3438 79.8047 39.6484 77.5703 40.5547C75.3359 41.4609 73.0234 41.9141 70.6328 41.9141C68.5391 41.9141 66.4844 41.5625 64.4688 40.8594C62.4688 40.1406 60.6328 39.1172 58.9609 37.7891C56.8047 36.0703 55.1484 34.0156 53.9922 31.625C52.8516 29.2344 52.2812 26.6641 52.2812 23.9141C52.2812 21.4453 52.7344 19.1328 53.6406 16.9766C54.5469 14.8047 55.875 12.875 57.625 11.1875C59.3438 9.51563 61.3359 8.21875 63.6016 7.29688C65.8828 6.375 68.2266 5.91406 70.6328 5.91406C73.0234 5.91406 75.3438 6.375 77.5938 7.29688C79.8594 8.21875 81.8594 9.51563 83.5938 11.1875C85.3281 12.875 86.6484 14.8047 87.5547 16.9766C88.4609 19.1484 88.9141 21.4609 88.9141 23.9141ZM70.6328 35.375C73.7422 35.375 76.3047 34.2891 78.3203 32.1172C80.3516 29.9297 81.3672 27.1953 81.3672 23.9141C81.3672 20.6641 80.3438 17.9297 78.2969 15.7109C76.25 13.4922 73.6953 12.3828 70.6328 12.3828C67.5234 12.3828 64.9453 13.4922 62.8984 15.7109C60.8516 17.9141 59.8281 20.6484 59.8281 23.9141C59.8281 27.2266 60.8359 29.9688 62.8516 32.1406C64.8672 34.2969 67.4609 35.375 70.6328 35.375ZM92.9219 36.6406L97 32.0234C97.5156 33.2891 98.3438 34.2891 99.4844 35.0234C100.625 35.7422 101.906 36.1016 103.328 36.1016C105.047 36.1016 106.406 35.6953 107.406 34.8828C108.406 34.0703 108.906 32.9766 108.906 31.6016C108.906 29.9766 107.242 28.3594 103.914 26.75C102.836 26.2344 101.984 25.8125 101.359 25.4844C98.3594 23.9219 96.2812 22.3984 95.125 20.9141C93.9688 19.4141 93.3906 17.6328 93.3906 15.5703C93.3906 12.7422 94.5078 10.4219 96.7422 8.60938C98.9922 6.78125 101.906 5.86719 105.484 5.86719C107.562 5.86719 109.352 6.23438 110.852 6.96875C112.367 7.6875 113.703 8.82031 114.859 10.3672L110.523 14.5156C110.008 13.5156 109.32 12.7734 108.461 12.2891C107.617 11.7891 106.594 11.5391 105.391 11.5391C103.938 11.5391 102.766 11.9063 101.875 12.6406C100.984 13.3594 100.539 14.2969 100.539 15.4531C100.539 17.2656 102.305 18.9219 105.836 20.4219C106.539 20.7188 107.078 20.9531 107.453 21.125C110.359 22.4531 112.508 23.9531 113.898 25.625C115.305 27.2969 116.008 29.2031 116.008 31.3438C116.008 34.5625 114.906 37.1328 112.703 39.0547C110.516 40.9609 107.57 41.9141 103.867 41.9141C101.242 41.9141 98.9922 41.4609 97.1172 40.5547C95.2422 39.6484 93.8438 38.3438 92.9219 36.6406ZM144.133 35.2812H147.016C148.859 35.2812 150.258 34.8828 151.211 34.0859C152.164 33.2734 152.641 32.0938 152.641 30.5469C152.641 29.0938 152.164 27.9844 151.211 27.2188C150.273 26.4531 148.906 26.0703 147.109 26.0703H144.133V35.2812ZM144.133 20.3984H145.773C147.992 20.3984 149.562 20.0859 150.484 19.4609C151.406 18.8359 151.867 17.7891 151.867 16.3203C151.867 14.8828 151.422 13.8594 150.531 13.25C149.656 12.6406 148.117 12.3359 145.914 12.3359H144.133V20.3984ZM136.797 41V6.6875H143.219C146.547 6.6875 148.977 6.82031 150.508 7.08594C152.055 7.33594 153.391 7.75781 154.516 8.35156C155.844 9.11719 156.867 10.125 157.586 11.375C158.32 12.625 158.688 14.0391 158.688 15.6172C158.688 17.6484 158.086 19.2812 156.883 20.5156C155.68 21.7344 153.883 22.5469 151.492 22.9531C154.258 23.3594 156.344 24.2578 157.75 25.6484C159.172 27.0391 159.883 28.8906 159.883 31.2031C159.883 32.8906 159.477 34.4375 158.664 35.8438C157.852 37.2344 156.734 38.3125 155.312 39.0781C154.047 39.7656 152.562 40.2578 150.859 40.5547C149.156 40.8516 146.336 41 142.398 41H141.648H136.797ZM165.484 41V6.6875H185.688V12.875H172.82V19.9297H185.688V26.1641H172.82V34.7656H185.688V41H165.484ZM192.906 41V6.6875H200.523L215.711 26.6562C216.148 27.2188 216.625 28.0156 217.141 29.0469C217.672 30.0625 218.219 31.2656 218.781 32.6562C218.609 31.6406 218.484 30.6328 218.406 29.6328C218.328 28.6328 218.289 27.3828 218.289 25.8828V6.6875H225.297V41H218.102L202.492 20.6562C202.055 20.0938 201.578 19.3047 201.062 18.2891C200.547 17.2578 200 16.0312 199.422 14.6094C199.594 15.5938 199.719 16.5938 199.797 17.6094C199.875 18.6094 199.914 19.875 199.914 21.4062V41H192.906ZM232.938 41V6.6875H253.141V12.875H240.273V19.9297H253.141V26.1641H240.273V34.7656H253.141V41H232.938ZM260.359 41V6.6875H280.562V12.875H267.695V19.9297H280.562V26.1641H267.695V41H260.359ZM286.375 41V6.6875H293.711V41H286.375ZM329.195 15.6172C327.711 14.2891 326.188 13.3203 324.625 12.7109C323.062 12.0859 321.391 11.7734 319.609 11.7734C315.953 11.7734 313.039 12.8672 310.867 15.0547C308.695 17.2422 307.609 20.1797 307.609 23.8672C307.609 27.4766 308.617 30.3438 310.633 32.4688C312.648 34.5781 315.398 35.6328 318.883 35.6328C320.867 35.6328 322.711 35.3047 324.414 34.6484C326.117 33.9766 327.695 32.9766 329.148 31.6484L329.102 39.1719C327.539 40.0938 325.898 40.7812 324.18 41.2344C322.477 41.6875 320.68 41.9141 318.789 41.9141C313.32 41.9141 308.828 40.2188 305.312 36.8281C301.812 33.4219 300.062 29.1016 300.062 23.8672C300.062 18.6484 301.82 14.3438 305.336 10.9531C308.852 7.5625 313.383 5.86719 318.93 5.86719C320.789 5.86719 322.586 6.0625 324.32 6.45312C326.055 6.84375 327.766 7.44531 329.453 8.25781L329.195 15.6172ZM336.156 41V6.6875H343.492V41H336.156ZM386.477 23.9141C386.477 26.3672 386.016 28.6875 385.094 30.875C384.188 33.0625 382.875 34.9844 381.156 36.6406C379.375 38.3438 377.367 39.6484 375.133 40.5547C372.898 41.4609 370.586 41.9141 368.195 41.9141C366.102 41.9141 364.047 41.5625 362.031 40.8594C360.031 40.1406 358.195 39.1172 356.523 37.7891C354.367 36.0703 352.711 34.0156 351.555 31.625C350.414 29.2344 349.844 26.6641 349.844 23.9141C349.844 21.4453 350.297 19.1328 351.203 16.9766C352.109 14.8047 353.438 12.875 355.188 11.1875C356.906 9.51563 358.898 8.21875 361.164 7.29688C363.445 6.375 365.789 5.91406 368.195 5.91406C370.586 5.91406 372.906 6.375 375.156 7.29688C377.422 8.21875 379.422 9.51563 381.156 11.1875C382.891 12.875 384.211 14.8047 385.117 16.9766C386.023 19.1484 386.477 21.4609 386.477 23.9141ZM368.195 35.375C371.305 35.375 373.867 34.2891 375.883 32.1172C377.914 29.9297 378.93 27.1953 378.93 23.9141C378.93 20.6641 377.906 17.9297 375.859 15.7109C373.812 13.4922 371.258 12.3828 368.195 12.3828C365.086 12.3828 362.508 13.4922 360.461 15.7109C358.414 17.9141 357.391 20.6484 357.391 23.9141C357.391 27.2266 358.398 29.9688 360.414 32.1406C362.43 34.2969 365.023 35.375 368.195 35.375ZM390.484 36.6406L394.562 32.0234C395.078 33.2891 395.906 34.2891 397.047 35.0234C398.188 35.7422 399.469 36.1016 400.891 36.1016C402.609 36.1016 403.969 35.6953 404.969 34.8828C405.969 34.0703 406.469 32.9766 406.469 31.6016C406.469 29.9766 404.805 28.3594 401.477 26.75C400.398 26.2344 399.547 25.8125 398.922 25.4844C395.922 23.9219 393.844 22.3984 392.688 20.9141C391.531 19.4141 390.953 17.6328 390.953 15.5703C390.953 12.7422 392.07 10.4219 394.305 8.60938C396.555 6.78125 399.469 5.86719 403.047 5.86719C405.125 5.86719 406.914 6.23438 408.414 6.96875C409.93 7.6875 411.266 8.82031 412.422 10.3672L408.086 14.5156C407.57 13.5156 406.883 12.7734 406.023 12.2891C405.18 11.7891 404.156 11.5391 402.953 11.5391C401.5 11.5391 400.328 11.9063 399.438 12.6406C398.547 13.3594 398.102 14.2969 398.102 15.4531C398.102 17.2656 399.867 18.9219 403.398 20.4219C404.102 20.7188 404.641 20.9531 405.016 21.125C407.922 22.4531 410.07 23.9531 411.461 25.625C412.867 27.2969 413.57 29.2031 413.57 31.3438C413.57 34.5625 412.469 37.1328 410.266 39.0547C408.078 40.9609 405.133 41.9141 401.43 41.9141C398.805 41.9141 396.555 41.4609 394.68 40.5547C392.805 39.6484 391.406 38.3438 390.484 36.6406ZM39.1797 82.8125H43.2578C47.1016 82.8125 49.8984 81.9375 51.6484 80.1875C53.4141 78.4375 54.2969 75.6641 54.2969 71.8672C54.2969 68.0859 53.4141 65.3203 51.6484 63.5703C49.8984 61.8047 47.1016 60.9219 43.2578 60.9219H39.1797V82.8125ZM31.8438 89V54.6875H41.1953C44.8828 54.6875 47.7891 54.9453 49.9141 55.4609C52.0391 55.9766 53.9062 56.8359 55.5156 58.0391C57.5938 59.5859 59.1641 61.5391 60.2266 63.8984C61.3047 66.2422 61.8438 68.9141 61.8438 71.9141C61.8438 74.9609 61.2969 77.6641 60.2031 80.0234C59.1094 82.3672 57.5078 84.3047 55.3984 85.8359C53.8359 86.9609 52.0938 87.7734 50.1719 88.2734C48.2656 88.7578 45.4688 89 41.7812 89H39.1797H31.8438ZM67.9844 89V54.6875H88.1875V60.875H75.3203V67.9297H88.1875V74.1641H75.3203V82.7656H88.1875V89H67.9844ZM110.172 89V54.6875H117.508V82.7656H129.227V89H110.172ZM151.609 75.9453L147.766 64.8594C147.656 64.5312 147.516 63.9688 147.344 63.1719C147.172 62.375 146.992 61.3984 146.805 60.2422C146.602 61.3516 146.406 62.3516 146.219 63.2422C146.031 64.1172 145.891 64.7031 145.797 65L142.094 75.9453H151.609ZM129.766 89L142.82 54.6875H151.211L164.453 89H156.109L153.32 81.7109H140.031L137.641 89H129.766ZM190.164 83.2812H193.047C194.891 83.2812 196.289 82.8828 197.242 82.0859C198.195 81.2734 198.672 80.0938 198.672 78.5469C198.672 77.0938 198.195 75.9844 197.242 75.2188C196.305 74.4531 194.938 74.0703 193.141 74.0703H190.164V83.2812ZM190.164 68.3984H191.805C194.023 68.3984 195.594 68.0859 196.516 67.4609C197.438 66.8359 197.898 65.7891 197.898 64.3203C197.898 62.8828 197.453 61.8594 196.562 61.25C195.688 60.6406 194.148 60.3359 191.945 60.3359H190.164V68.3984ZM182.828 89V54.6875H189.25C192.578 54.6875 195.008 54.8203 196.539 55.0859C198.086 55.3359 199.422 55.7578 200.547 56.3516C201.875 57.1172 202.898 58.125 203.617 59.375C204.352 60.625 204.719 62.0391 204.719 63.6172C204.719 65.6484 204.117 67.2812 202.914 68.5156C201.711 69.7344 199.914 70.5469 197.523 70.9531C200.289 71.3594 202.375 72.2578 203.781 73.6484C205.203 75.0391 205.914 76.8906 205.914 79.2031C205.914 80.8906 205.508 82.4375 204.695 83.8438C203.883 85.2344 202.766 86.3125 201.344 87.0781C200.078 87.7656 198.594 88.2578 196.891 88.5547C195.188 88.8516 192.367 89 188.43 89H187.68H182.828ZM229.281 75.9453L225.438 64.8594C225.328 64.5312 225.188 63.9688 225.016 63.1719C224.844 62.375 224.664 61.3984 224.477 60.2422C224.273 61.3516 224.078 62.3516 223.891 63.2422C223.703 64.1172 223.562 64.7031 223.469 65L219.766 75.9453H229.281ZM207.438 89L220.492 54.6875H228.883L242.125 89H233.781L230.992 81.7109H217.703L215.312 89H207.438ZM245.734 89V54.6875H253.352L268.539 74.6562C268.977 75.2188 269.453 76.0156 269.969 77.0469C270.5 78.0625 271.047 79.2656 271.609 80.6562C271.438 79.6406 271.312 78.6328 271.234 77.6328C271.156 76.6328 271.117 75.3828 271.117 73.8828V54.6875H278.125V89H270.93L255.32 68.6562C254.883 68.0938 254.406 67.3047 253.891 66.2891C253.375 65.2578 252.828 64.0312 252.25 62.6094C252.422 63.5938 252.547 64.5938 252.625 65.6094C252.703 66.6094 252.742 67.875 252.742 69.4062V89H245.734ZM313.398 63.6172C311.914 62.2891 310.391 61.3203 308.828 60.7109C307.266 60.0859 305.594 59.7734 303.812 59.7734C300.156 59.7734 297.242 60.8672 295.07 63.0547C292.898 65.2422 291.812 68.1797 291.812 71.8672C291.812 75.4766 292.82 78.3438 294.836 80.4688C296.852 82.5781 299.602 83.6328 303.086 83.6328C305.07 83.6328 306.914 83.3047 308.617 82.6484C310.32 81.9766 311.898 80.9766 313.352 79.6484L313.305 87.1719C311.742 88.0938 310.102 88.7812 308.383 89.2344C306.68 89.6875 304.883 89.9141 302.992 89.9141C297.523 89.9141 293.031 88.2188 289.516 84.8281C286.016 81.4219 284.266 77.1016 284.266 71.8672C284.266 66.6484 286.023 62.3438 289.539 58.9531C293.055 55.5625 297.586 53.8672 303.133 53.8672C304.992 53.8672 306.789 54.0625 308.523 54.4531C310.258 54.8438 311.969 55.4453 313.656 56.2578L313.398 63.6172ZM337.984 75.9453L334.141 64.8594C334.031 64.5312 333.891 63.9688 333.719 63.1719C333.547 62.375 333.367 61.3984 333.18 60.2422C332.977 61.3516 332.781 62.3516 332.594 63.2422C332.406 64.1172 332.266 64.7031 332.172 65L328.469 75.9453H337.984ZM316.141 89L329.195 54.6875H337.586L350.828 89H342.484L339.695 81.7109H326.406L324.016 89H316.141ZM367 84.6406L371.078 80.0234C371.594 81.2891 372.422 82.2891 373.562 83.0234C374.703 83.7422 375.984 84.1016 377.406 84.1016C379.125 84.1016 380.484 83.6953 381.484 82.8828C382.484 82.0703 382.984 80.9766 382.984 79.6016C382.984 77.9766 381.32 76.3594 377.992 74.75C376.914 74.2344 376.062 73.8125 375.438 73.4844C372.438 71.9219 370.359 70.3984 369.203 68.9141C368.047 67.4141 367.469 65.6328 367.469 63.5703C367.469 60.7422 368.586 58.4219 370.82 56.6094C373.07 54.7812 375.984 53.8672 379.562 53.8672C381.641 53.8672 383.43 54.2344 384.93 54.9688C386.445 55.6875 387.781 56.8203 388.938 58.3672L384.602 62.5156C384.086 61.5156 383.398 60.7734 382.539 60.2891C381.695 59.7891 380.672 59.5391 379.469 59.5391C378.016 59.5391 376.844 59.9062 375.953 60.6406C375.062 61.3594 374.617 62.2969 374.617 63.4531C374.617 65.2656 376.383 66.9219 379.914 68.4219C380.617 68.7188 381.156 68.9531 381.531 69.125C384.438 70.4531 386.586 71.9531 387.977 73.625C389.383 75.2969 390.086 77.2031 390.086 79.3438C390.086 82.5625 388.984 85.1328 386.781 87.0547C384.594 88.9609 381.648 89.9141 377.945 89.9141C375.32 89.9141 373.07 89.4609 371.195 88.5547C369.32 87.6484 367.922 86.3438 367 84.6406ZM396.25 89V54.6875H403.586V89H396.25ZM411.438 89V54.6875H419.055L434.242 74.6562C434.68 75.2188 435.156 76.0156 435.672 77.0469C436.203 78.0625 436.75 79.2656 437.312 80.6562C437.141 79.6406 437.016 78.6328 436.938 77.6328C436.859 76.6328 436.82 75.3828 436.82 73.8828V54.6875H443.828V89H436.633L421.023 68.6562C420.586 68.0938 420.109 67.3047 419.594 66.2891C419.078 65.2578 418.531 64.0312 417.953 62.6094C418.125 63.5938 418.25 64.5938 418.328 65.6094C418.406 66.6094 418.445 67.875 418.445 69.4062V89H411.438ZM29.6406 132.641L33.7188 128.023C34.2344 129.289 35.0625 130.289 36.2031 131.023C37.3438 131.742 38.625 132.102 40.0469 132.102C41.7656 132.102 43.125 131.695 44.125 130.883C45.125 130.07 45.625 128.977 45.625 127.602C45.625 125.977 43.9609 124.359 40.6328 122.75C39.5547 122.234 38.7031 121.812 38.0781 121.484C35.0781 119.922 33 118.398 31.8438 116.914C30.6875 115.414 30.1094 113.633 30.1094 111.57C30.1094 108.742 31.2266 106.422 33.4609 104.609C35.7109 102.781 38.625 101.867 42.2031 101.867C44.2812 101.867 46.0703 102.234 47.5703 102.969C49.0859 103.688 50.4219 104.82 51.5781 106.367L47.2422 110.516C46.7266 109.516 46.0391 108.773 45.1797 108.289C44.3359 107.789 43.3125 107.539 42.1094 107.539C40.6562 107.539 39.4844 107.906 38.5938 108.641C37.7031 109.359 37.2578 110.297 37.2578 111.453C37.2578 113.266 39.0234 114.922 42.5547 116.422C43.2578 116.719 43.7969 116.953 44.1719 117.125C47.0781 118.453 49.2266 119.953 50.6172 121.625C52.0234 123.297 52.7266 125.203 52.7266 127.344C52.7266 130.562 51.625 133.133 49.4219 135.055C47.2344 136.961 44.2891 137.914 40.5859 137.914C37.9609 137.914 35.7109 137.461 33.8359 136.555C31.9609 135.648 30.5625 134.344 29.6406 132.641ZM76.5156 123.945L72.6719 112.859C72.5625 112.531 72.4219 111.969 72.25 111.172C72.0781 110.375 71.8984 109.398 71.7109 108.242C71.5078 109.352 71.3125 110.352 71.125 111.242C70.9375 112.117 70.7969 112.703 70.7031 113L67 123.945H76.5156ZM54.6719 137L67.7266 102.688H76.1172L89.3594 137H81.0156L78.2266 129.711H64.9375L62.5469 137H54.6719ZM92.9688 137V102.688H100.305V130.766H112.023V137H92.9688ZM116.781 137V102.688H124.117V137H116.781ZM156.789 137H148.328L139.305 120.969V137H131.969V102.688H142.469C146.641 102.688 149.766 103.5 151.844 105.125C153.922 106.734 154.961 109.164 154.961 112.414C154.961 114.773 154.25 116.789 152.828 118.461C151.406 120.133 149.57 121.109 147.32 121.391L156.789 137ZM139.305 117.312H140.406C143.375 117.312 145.336 116.992 146.289 116.352C147.242 115.695 147.719 114.562 147.719 112.953C147.719 111.266 147.203 110.07 146.172 109.367C145.156 108.648 143.234 108.289 140.406 108.289H139.305V117.312ZM183.18 130.812H187.258C191.102 130.812 193.898 129.938 195.648 128.188C197.414 126.438 198.297 123.664 198.297 119.867C198.297 116.086 197.414 113.32 195.648 111.57C193.898 109.805 191.102 108.922 187.258 108.922H183.18V130.812ZM175.844 137V102.688H185.195C188.883 102.688 191.789 102.945 193.914 103.461C196.039 103.977 197.906 104.836 199.516 106.039C201.594 107.586 203.164 109.539 204.227 111.898C205.305 114.242 205.844 116.914 205.844 119.914C205.844 122.961 205.297 125.664 204.203 128.023C203.109 130.367 201.508 132.305 199.398 133.836C197.836 134.961 196.094 135.773 194.172 136.273C192.266 136.758 189.469 137 185.781 137H183.18H175.844ZM211.984 137V102.688H232.188V108.875H219.32V115.93H232.188V122.164H219.32V130.766H232.188V137H211.984ZM281.805 111.617C280.32 110.289 278.797 109.32 277.234 108.711C275.672 108.086 274 107.773 272.219 107.773C268.562 107.773 265.648 108.867 263.477 111.055C261.305 113.242 260.219 116.18 260.219 119.867C260.219 123.477 261.227 126.344 263.242 128.469C265.258 130.578 268.008 131.633 271.492 131.633C273.477 131.633 275.32 131.305 277.023 130.648C278.727 129.977 280.305 128.977 281.758 127.648L281.711 135.172C280.148 136.094 278.508 136.781 276.789 137.234C275.086 137.688 273.289 137.914 271.398 137.914C265.93 137.914 261.438 136.219 257.922 132.828C254.422 129.422 252.672 125.102 252.672 119.867C252.672 114.648 254.43 110.344 257.945 106.953C261.461 103.562 265.992 101.867 271.539 101.867C273.398 101.867 275.195 102.062 276.93 102.453C278.664 102.844 280.375 103.445 282.062 104.258L281.805 111.617ZM306.391 123.945L302.547 112.859C302.438 112.531 302.297 111.969 302.125 111.172C301.953 110.375 301.773 109.398 301.586 108.242C301.383 109.352 301.188 110.352 301 111.242C300.812 112.117 300.672 112.703 300.578 113L296.875 123.945H306.391ZM284.547 137L297.602 102.688H305.992L319.234 137H310.891L308.102 129.711H294.812L292.422 137H284.547ZM320.641 132.641L324.719 128.023C325.234 129.289 326.062 130.289 327.203 131.023C328.344 131.742 329.625 132.102 331.047 132.102C332.766 132.102 334.125 131.695 335.125 130.883C336.125 130.07 336.625 128.977 336.625 127.602C336.625 125.977 334.961 124.359 331.633 122.75C330.555 122.234 329.703 121.812 329.078 121.484C326.078 119.922 324 118.398 322.844 116.914C321.688 115.414 321.109 113.633 321.109 111.57C321.109 108.742 322.227 106.422 324.461 104.609C326.711 102.781 329.625 101.867 333.203 101.867C335.281 101.867 337.07 102.234 338.57 102.969C340.086 103.688 341.422 104.82 342.578 106.367L338.242 110.516C337.727 109.516 337.039 108.773 336.18 108.289C335.336 107.789 334.312 107.539 333.109 107.539C331.656 107.539 330.484 107.906 329.594 108.641C328.703 109.359 328.258 110.297 328.258 111.453C328.258 113.266 330.023 114.922 333.555 116.422C334.258 116.719 334.797 116.953 335.172 117.125C338.078 118.453 340.227 119.953 341.617 121.625C343.023 123.297 343.727 125.203 343.727 127.344C343.727 130.562 342.625 133.133 340.422 135.055C338.234 136.961 335.289 137.914 331.586 137.914C328.961 137.914 326.711 137.461 324.836 136.555C322.961 135.648 321.562 134.344 320.641 132.641ZM367.516 123.945L363.672 112.859C363.562 112.531 363.422 111.969 363.25 111.172C363.078 110.375 362.898 109.398 362.711 108.242C362.508 109.352 362.312 110.352 362.125 111.242C361.938 112.117 361.797 112.703 361.703 113L358 123.945H367.516ZM345.672 137L358.727 102.688H367.117L380.359 137H372.016L369.227 129.711H355.938L353.547 137H345.672Z" fill="white"/>
</svg>
