<svg width="638" height="282" viewBox="0 0 638 282" fill="none" xmlns="http://www.w3.org/2000/svg">
<path d="M27 239H15C10.5817 239 7 235.418 7 231V14" stroke="white" stroke-width="1.5"/>
<path d="M12.622 7.0784C12.622 10.6144 9.92461 13.4068 6.68598 13.4068C3.44736 13.4068 0.75 10.6144 0.75 7.0784C0.75 3.54244 3.44736 0.75 6.68598 0.75C9.92461 0.75 12.622 3.54244 12.622 7.0784Z" stroke="white" stroke-width="1.5"/>
<rect x="25" y="197" width="311" height="85" rx="16" fill="#002A61"/>
<path d="M51.144 222.416H46.95V224.684H50.91V227.672H46.95V230.012H51.144V233H43.422V219.428H51.144V222.416ZM56.6396 218.06V233H53.3816V218.06H56.6396ZM65.2532 223.766V222.056C65.2532 221.456 65.3792 220.892 65.6312 220.364C65.8952 219.824 66.2432 219.356 66.6752 218.96C67.1192 218.564 67.6292 218.252 68.2052 218.024C68.7932 217.784 69.4112 217.664 70.0592 217.664C70.7072 217.664 71.3192 217.778 71.8952 218.006C72.4832 218.234 72.9932 218.546 73.4252 218.942C73.8692 219.338 74.2172 219.806 74.4692 220.346C74.7332 220.874 74.8652 221.444 74.8652 222.056V222.47H71.6072V222.056C71.6072 221.84 71.5652 221.636 71.4812 221.444C71.4092 221.24 71.3012 221.06 71.1572 220.904C71.0252 220.748 70.8632 220.622 70.6712 220.526C70.4912 220.43 70.2872 220.382 70.0592 220.382C69.6152 220.382 69.2432 220.55 68.9432 220.886C68.6552 221.222 68.5112 221.612 68.5112 222.056V223.766H70.3832V226.484H68.5112V233H65.2532V226.484H64.0832V223.766H65.2532ZM74.8652 233H71.6072V223.766H74.8652V233ZM77.0945 223.766H80.3525V224.936C80.7965 224.396 81.2465 224.036 81.7025 223.856C82.1585 223.664 82.6925 223.568 83.3045 223.568C83.9525 223.568 84.5045 223.676 84.9605 223.892C85.4285 224.096 85.8245 224.39 86.1485 224.774C86.4125 225.086 86.5925 225.434 86.6885 225.818C86.7845 226.202 86.8325 226.64 86.8325 227.132V233H83.5745V228.338C83.5745 227.882 83.5385 227.516 83.4665 227.24C83.4065 226.952 83.2925 226.724 83.1245 226.556C82.9805 226.412 82.8185 226.31 82.6385 226.25C82.4585 226.19 82.2665 226.16 82.0625 226.16C81.5105 226.16 81.0845 226.328 80.7845 226.664C80.4965 226.988 80.3525 227.456 80.3525 228.068V233H77.0945V223.766ZM92.0716 228.356C92.0716 228.656 92.1256 228.938 92.2336 229.202C92.3416 229.454 92.4856 229.676 92.6656 229.868C92.8576 230.06 93.0796 230.21 93.3316 230.318C93.5956 230.426 93.8776 230.48 94.1776 230.48C94.4656 230.48 94.7356 230.426 94.9876 230.318C95.2516 230.21 95.4736 230.06 95.6536 229.868C95.8456 229.676 95.9956 229.454 96.1036 229.202C96.2236 228.95 96.2836 228.68 96.2836 228.392C96.2836 228.104 96.2236 227.834 96.1036 227.582C95.9956 227.318 95.8456 227.09 95.6536 226.898C95.4736 226.706 95.2516 226.556 94.9876 226.448C94.7356 226.34 94.4656 226.286 94.1776 226.286C93.8776 226.286 93.5956 226.34 93.3316 226.448C93.0796 226.556 92.8576 226.706 92.6656 226.898C92.4856 227.09 92.3416 227.312 92.2336 227.564C92.1256 227.804 92.0716 228.068 92.0716 228.356ZM96.1756 223.766H99.4516V233H96.1756V231.974C95.4796 232.85 94.5376 233.288 93.3496 233.288C92.6776 233.288 92.0596 233.168 91.4956 232.928C90.9316 232.676 90.4396 232.328 90.0196 231.884C89.5996 231.44 89.2696 230.918 89.0296 230.318C88.8016 229.718 88.6876 229.064 88.6876 228.356C88.6876 227.696 88.8016 227.072 89.0296 226.484C89.2576 225.884 89.5756 225.362 89.9836 224.918C90.3916 224.474 90.8776 224.126 91.4416 223.874C92.0056 223.61 92.6296 223.478 93.3136 223.478C94.4656 223.478 95.4196 223.88 96.1756 224.684V223.766ZM101.669 223.766H104.927V224.936C105.371 224.396 105.821 224.036 106.277 223.856C106.733 223.664 107.267 223.568 107.879 223.568C108.527 223.568 109.079 223.676 109.535 223.892C110.003 224.096 110.399 224.39 110.723 224.774C110.987 225.086 111.167 225.434 111.263 225.818C111.359 226.202 111.407 226.64 111.407 227.132V233H108.149V228.338C108.149 227.882 108.113 227.516 108.041 227.24C107.981 226.952 107.867 226.724 107.699 226.556C107.555 226.412 107.393 226.31 107.213 226.25C107.033 226.19 106.841 226.16 106.637 226.16C106.085 226.16 105.659 226.328 105.359 226.664C105.071 226.988 104.927 227.456 104.927 228.068V233H101.669V223.766ZM120.588 226.754C120.024 226.37 119.454 226.178 118.878 226.178C118.566 226.178 118.272 226.232 117.996 226.34C117.732 226.448 117.498 226.604 117.294 226.808C117.09 227 116.928 227.234 116.808 227.51C116.7 227.774 116.646 228.074 116.646 228.41C116.646 228.734 116.7 229.034 116.808 229.31C116.928 229.574 117.084 229.808 117.276 230.012C117.48 230.204 117.72 230.354 117.996 230.462C118.272 230.57 118.566 230.624 118.878 230.624C119.49 230.624 120.06 230.414 120.588 229.994V232.766C119.784 233.114 119.022 233.288 118.302 233.288C117.63 233.288 116.988 233.174 116.376 232.946C115.776 232.718 115.242 232.394 114.774 231.974C114.318 231.542 113.952 231.032 113.676 230.444C113.4 229.844 113.262 229.178 113.262 228.446C113.262 227.714 113.394 227.048 113.658 226.448C113.922 225.836 114.282 225.314 114.738 224.882C115.194 224.438 115.734 224.096 116.358 223.856C116.994 223.604 117.672 223.478 118.392 223.478C119.184 223.478 119.916 223.646 120.588 223.982V226.754ZM125.704 223.766V233H122.446V223.766H125.704ZM122.23 220.22C122.23 219.968 122.278 219.734 122.374 219.518C122.47 219.29 122.602 219.092 122.77 218.924C122.938 218.756 123.13 218.624 123.346 218.528C123.574 218.432 123.814 218.384 124.066 218.384C124.318 218.384 124.552 218.432 124.768 218.528C124.996 218.624 125.194 218.756 125.362 218.924C125.53 219.092 125.662 219.29 125.758 219.518C125.854 219.734 125.902 219.968 125.902 220.22C125.902 220.472 125.854 220.712 125.758 220.94C125.662 221.156 125.53 221.348 125.362 221.516C125.194 221.684 124.996 221.816 124.768 221.912C124.552 222.008 124.318 222.056 124.066 222.056C123.814 222.056 123.574 222.008 123.346 221.912C123.13 221.816 122.938 221.684 122.77 221.516C122.602 221.348 122.47 221.156 122.374 220.94C122.278 220.712 122.23 220.472 122.23 220.22ZM130.954 228.356C130.954 228.656 131.008 228.938 131.116 229.202C131.224 229.454 131.368 229.676 131.548 229.868C131.74 230.06 131.962 230.21 132.214 230.318C132.478 230.426 132.76 230.48 133.06 230.48C133.348 230.48 133.618 230.426 133.87 230.318C134.134 230.21 134.356 230.06 134.536 229.868C134.728 229.676 134.878 229.454 134.986 229.202C135.106 228.95 135.166 228.68 135.166 228.392C135.166 228.104 135.106 227.834 134.986 227.582C134.878 227.318 134.728 227.09 134.536 226.898C134.356 226.706 134.134 226.556 133.87 226.448C133.618 226.34 133.348 226.286 133.06 226.286C132.76 226.286 132.478 226.34 132.214 226.448C131.962 226.556 131.74 226.706 131.548 226.898C131.368 227.09 131.224 227.312 131.116 227.564C131.008 227.804 130.954 228.068 130.954 228.356ZM135.058 223.766H138.334V233H135.058V231.974C134.362 232.85 133.42 233.288 132.232 233.288C131.56 233.288 130.942 233.168 130.378 232.928C129.814 232.676 129.322 232.328 128.902 231.884C128.482 231.44 128.152 230.918 127.912 230.318C127.684 229.718 127.57 229.064 127.57 228.356C127.57 227.696 127.684 227.072 127.912 226.484C128.14 225.884 128.458 225.362 128.866 224.918C129.274 224.474 129.76 224.126 130.324 223.874C130.888 223.61 131.512 223.478 132.196 223.478C133.348 223.478 134.302 223.88 135.058 224.684V223.766ZM140.552 223.766H143.81V224.9C144.698 224.048 145.694 223.622 146.798 223.622C148.166 223.622 149.21 224.198 149.93 225.35C150.662 224.186 151.706 223.604 153.062 223.604C153.494 223.604 153.902 223.67 154.286 223.802C154.67 223.922 155 224.12 155.276 224.396C155.552 224.66 155.768 225.008 155.924 225.44C156.092 225.872 156.176 226.394 156.176 227.006V233H152.918V228.446C152.918 227.978 152.882 227.594 152.81 227.294C152.75 226.994 152.654 226.76 152.522 226.592C152.402 226.424 152.258 226.31 152.09 226.25C151.922 226.19 151.742 226.16 151.55 226.16C150.506 226.16 149.984 226.922 149.984 228.446V233H146.726V228.446C146.726 227.978 146.696 227.594 146.636 227.294C146.576 226.982 146.486 226.736 146.366 226.556C146.258 226.376 146.114 226.256 145.934 226.196C145.754 226.124 145.544 226.088 145.304 226.088C145.1 226.088 144.908 226.118 144.728 226.178C144.548 226.238 144.386 226.358 144.242 226.538C144.11 226.706 144.002 226.946 143.918 227.258C143.846 227.558 143.81 227.954 143.81 228.446V233H140.552V223.766ZM161.669 223.766V233H158.411V223.766H161.669ZM158.195 220.22C158.195 219.968 158.243 219.734 158.339 219.518C158.435 219.29 158.567 219.092 158.735 218.924C158.903 218.756 159.095 218.624 159.311 218.528C159.539 218.432 159.779 218.384 160.031 218.384C160.283 218.384 160.517 218.432 160.733 218.528C160.961 218.624 161.159 218.756 161.327 218.924C161.495 219.092 161.627 219.29 161.723 219.518C161.819 219.734 161.867 219.968 161.867 220.22C161.867 220.472 161.819 220.712 161.723 220.94C161.627 221.156 161.495 221.348 161.327 221.516C161.159 221.684 160.961 221.816 160.733 221.912C160.517 222.008 160.283 222.056 160.031 222.056C159.779 222.056 159.539 222.008 159.311 221.912C159.095 221.816 158.903 221.684 158.735 221.516C158.567 221.348 158.435 221.156 158.339 220.94C158.243 220.712 158.195 220.472 158.195 220.22ZM170.645 227.042C170.537 226.586 170.315 226.22 169.979 225.944C169.643 225.668 169.235 225.53 168.755 225.53C168.251 225.53 167.837 225.662 167.513 225.926C167.201 226.19 167.003 226.562 166.919 227.042H170.645ZM166.829 228.932C166.829 230.336 167.489 231.038 168.809 231.038C169.517 231.038 170.051 230.75 170.411 230.174H173.561C172.925 232.286 171.335 233.342 168.791 233.342C168.011 233.342 167.297 233.228 166.649 233C166.001 232.76 165.443 232.424 164.975 231.992C164.519 231.56 164.165 231.044 163.913 230.444C163.661 229.844 163.535 229.172 163.535 228.428C163.535 227.66 163.655 226.97 163.895 226.358C164.135 225.734 164.477 225.206 164.921 224.774C165.365 224.342 165.899 224.012 166.523 223.784C167.159 223.544 167.873 223.424 168.665 223.424C169.445 223.424 170.147 223.544 170.771 223.784C171.395 224.012 171.923 224.348 172.355 224.792C172.787 225.236 173.117 225.782 173.345 226.43C173.573 227.066 173.687 227.786 173.687 228.59V228.932H166.829ZM175.55 223.766H178.808V224.936C179.252 224.396 179.702 224.036 180.158 223.856C180.614 223.664 181.148 223.568 181.76 223.568C182.408 223.568 182.96 223.676 183.416 223.892C183.884 224.096 184.28 224.39 184.604 224.774C184.868 225.086 185.048 225.434 185.144 225.818C185.24 226.202 185.288 226.64 185.288 227.132V233H182.03V228.338C182.03 227.882 181.994 227.516 181.922 227.24C181.862 226.952 181.748 226.724 181.58 226.556C181.436 226.412 181.274 226.31 181.094 226.25C180.914 226.19 180.722 226.16 180.518 226.16C179.966 226.16 179.54 226.328 179.24 226.664C178.952 226.988 178.808 227.456 178.808 228.068V233H175.55V223.766ZM191.139 226.484V233H187.881V226.484H186.801V223.766H187.881V220.994H191.139V223.766H192.993V226.484H191.139ZM197.454 228.338C197.454 228.65 197.508 228.938 197.616 229.202C197.736 229.454 197.886 229.676 198.066 229.868C198.258 230.06 198.48 230.21 198.732 230.318C198.996 230.426 199.272 230.48 199.56 230.48C199.848 230.48 200.118 230.426 200.37 230.318C200.634 230.21 200.856 230.06 201.036 229.868C201.228 229.676 201.378 229.454 201.486 229.202C201.606 228.938 201.666 228.656 201.666 228.356C201.666 228.068 201.606 227.798 201.486 227.546C201.378 227.282 201.228 227.054 201.036 226.862C200.856 226.67 200.634 226.52 200.37 226.412C200.118 226.304 199.848 226.25 199.56 226.25C199.272 226.25 198.996 226.304 198.732 226.412C198.48 226.52 198.258 226.67 198.066 226.862C197.886 227.054 197.736 227.276 197.616 227.528C197.508 227.78 197.454 228.05 197.454 228.338ZM194.016 228.302C194.016 227.618 194.154 226.982 194.43 226.394C194.706 225.794 195.09 225.278 195.582 224.846C196.074 224.402 196.656 224.054 197.328 223.802C198.012 223.55 198.756 223.424 199.56 223.424C200.352 223.424 201.084 223.55 201.756 223.802C202.44 224.042 203.028 224.384 203.52 224.828C204.024 225.26 204.414 225.782 204.69 226.394C204.966 226.994 205.104 227.66 205.104 228.392C205.104 229.124 204.96 229.796 204.672 230.408C204.396 231.008 204.012 231.53 203.52 231.974C203.028 232.406 202.434 232.742 201.738 232.982C201.054 233.222 200.31 233.342 199.506 233.342C198.714 233.342 197.982 233.222 197.31 232.982C196.638 232.742 196.056 232.4 195.564 231.956C195.084 231.512 194.706 230.984 194.43 230.372C194.154 229.748 194.016 229.058 194.016 228.302ZM216.858 225.638C218.64 225.638 219.702 227.006 219.702 228.698C219.702 230.408 218.73 231.902 216.876 231.902C215.076 231.902 214.104 230.336 214.104 228.68C214.104 227.096 215.184 225.638 216.858 225.638ZM221.07 224.54H219.63V225.746H219.594C218.892 224.81 217.83 224.306 216.678 224.306C214.176 224.306 212.628 226.448 212.628 228.806C212.628 231.2 214.158 233.234 216.696 233.234C217.83 233.234 218.91 232.73 219.594 231.812H219.63V237.752H221.07V224.54ZM225.069 224.54H223.629V229.418C223.629 231.668 224.475 233.234 226.977 233.234C229.479 233.234 230.325 231.668 230.325 229.418V224.54H228.885V229.256C228.885 230.678 228.723 231.902 226.977 231.902C225.231 231.902 225.069 230.678 225.069 229.256V224.54ZM240.31 229.076C240.454 226.556 239.014 224.306 236.296 224.306C233.65 224.306 232.192 226.376 232.192 228.878C232.192 231.308 233.812 233.234 236.332 233.234C238.06 233.234 239.428 232.37 240.238 230.858L239.014 230.156C238.456 231.164 237.664 231.902 236.44 231.902C234.802 231.902 233.686 230.642 233.668 229.076H240.31ZM233.74 227.852C233.92 226.628 235.072 225.638 236.314 225.638C237.574 225.638 238.6 226.628 238.798 227.852H233.74ZM249.259 224.54H247.819V233H249.259V228.986C249.259 227.474 249.385 225.638 251.365 225.638C253.039 225.638 253.147 226.862 253.147 228.23V233H254.587V227.978C254.587 225.998 254.047 224.306 251.707 224.306C250.663 224.306 249.889 224.756 249.295 225.566H249.259V224.54ZM264.691 229.076C264.835 226.556 263.395 224.306 260.677 224.306C258.031 224.306 256.573 226.376 256.573 228.878C256.573 231.308 258.193 233.234 260.713 233.234C262.441 233.234 263.809 232.37 264.619 230.858L263.395 230.156C262.837 231.164 262.045 231.902 260.821 231.902C259.183 231.902 258.067 230.642 258.049 229.076H264.691ZM258.121 227.852C258.301 226.628 259.453 225.638 260.695 225.638C261.955 225.638 262.981 226.628 263.179 227.852H258.121ZM272.945 225.152C272.189 224.612 271.253 224.306 270.335 224.306C267.851 224.306 265.817 226.25 265.817 228.77C265.817 231.326 267.761 233.234 270.317 233.234C271.325 233.234 272.171 232.928 272.999 232.37V230.444H272.963C272.261 231.362 271.415 231.902 270.209 231.902C268.445 231.902 267.293 230.444 267.293 228.77C267.293 227.078 268.535 225.638 270.281 225.638C271.415 225.638 272.243 226.214 272.909 227.06H272.945V225.152ZM282.585 229.076C282.729 226.556 281.289 224.306 278.571 224.306C275.925 224.306 274.467 226.376 274.467 228.878C274.467 231.308 276.087 233.234 278.607 233.234C280.335 233.234 281.703 232.37 282.513 230.858L281.289 230.156C280.731 231.164 279.939 231.902 278.715 231.902C277.077 231.902 275.961 230.642 275.943 229.076H282.585ZM276.015 227.852C276.195 226.628 277.347 225.638 278.589 225.638C279.849 225.638 280.875 226.628 281.073 227.852H276.015ZM289.183 225.872C288.805 224.99 287.905 224.306 286.933 224.306C285.565 224.306 284.413 225.278 284.413 226.7C284.413 229.364 288.229 228.716 288.229 230.606C288.229 231.38 287.635 231.902 286.861 231.902C285.907 231.902 285.493 231.344 285.133 230.552L283.855 231.092C284.305 232.424 285.421 233.234 286.843 233.234C288.409 233.234 289.705 232.082 289.705 230.48C289.705 229.058 288.733 228.464 287.743 228.05C286.753 227.636 285.781 227.348 285.781 226.574C285.781 226.034 286.321 225.638 286.825 225.638C287.347 225.638 287.779 226.052 287.977 226.502L289.183 225.872ZM293.457 224.54H292.017V233H293.457V224.54ZM292.737 220.328C292.179 220.328 291.711 220.796 291.711 221.354C291.711 221.93 292.179 222.38 292.737 222.38C293.295 222.38 293.763 221.93 293.763 221.354C293.763 220.796 293.295 220.328 292.737 220.328ZM297.97 225.872H299.482V224.54H297.97V221.498H296.53V224.54H295.648V225.872H296.53V233H297.97V225.872ZM304.292 225.638C306.074 225.638 307.136 227.006 307.136 228.698C307.136 230.408 306.164 231.902 304.31 231.902C302.51 231.902 301.538 230.336 301.538 228.68C301.538 227.096 302.618 225.638 304.292 225.638ZM308.504 224.54H307.064V225.746H307.028C306.326 224.846 305.282 224.306 304.13 224.306C301.592 224.306 300.062 226.376 300.062 228.788C300.062 231.128 301.628 233.234 304.112 233.234C305.3 233.234 306.29 232.766 307.028 231.83H307.064V233H308.504V224.54ZM315.797 225.872C315.419 224.99 314.519 224.306 313.547 224.306C312.179 224.306 311.027 225.278 311.027 226.7C311.027 229.364 314.843 228.716 314.843 230.606C314.843 231.38 314.249 231.902 313.475 231.902C312.521 231.902 312.107 231.344 311.747 230.552L310.469 231.092C310.919 232.424 312.035 233.234 313.457 233.234C315.023 233.234 316.319 232.082 316.319 230.48C316.319 229.058 315.347 228.464 314.357 228.05C313.367 227.636 312.395 227.348 312.395 226.574C312.395 226.034 312.935 225.638 313.439 225.638C313.961 225.638 314.393 226.052 314.591 226.502L315.797 225.872ZM47.418 245.638C49.2 245.638 50.262 247.006 50.262 248.698C50.262 250.408 49.29 251.902 47.436 251.902C45.636 251.902 44.664 250.336 44.664 248.68C44.664 247.096 45.744 245.638 47.418 245.638ZM44.736 244.54H43.296V257.752H44.736V251.812H44.772C45.456 252.73 46.518 253.234 47.67 253.234C50.208 253.234 51.738 251.2 51.738 248.788C51.738 246.448 50.172 244.306 47.688 244.306C46.518 244.306 45.474 244.81 44.772 245.746H44.736V244.54ZM57.2667 245.638C59.0487 245.638 60.1107 247.006 60.1107 248.698C60.1107 250.408 59.1387 251.902 57.2847 251.902C55.4847 251.902 54.5127 250.336 54.5127 248.68C54.5127 247.096 55.5927 245.638 57.2667 245.638ZM61.4787 244.54H60.0387V245.746H60.0027C59.3007 244.846 58.2567 244.306 57.1047 244.306C54.5667 244.306 53.0367 246.376 53.0367 248.788C53.0367 251.128 54.6027 253.234 57.0867 253.234C58.2747 253.234 59.2647 252.766 60.0027 251.83H60.0387V253H61.4787V244.54ZM65.5133 244.54H64.0733V253H65.5133V248.77C65.5133 247.672 65.5853 245.638 67.1693 245.638C67.5473 245.638 67.7453 245.818 68.0333 246.016L68.7173 244.702C68.3033 244.468 67.9073 244.306 67.4213 244.306C66.4853 244.306 66.0533 244.792 65.5493 245.458H65.5133V244.54ZM73.6846 245.638C75.4666 245.638 76.5286 247.006 76.5286 248.698C76.5286 250.408 75.5566 251.902 73.7026 251.902C71.9026 251.902 70.9306 250.336 70.9306 248.68C70.9306 247.096 72.0106 245.638 73.6846 245.638ZM77.8966 244.54H76.4566V245.746H76.4206C75.7186 244.846 74.6746 244.306 73.5226 244.306C70.9846 244.306 69.4546 246.376 69.4546 248.788C69.4546 251.128 71.0206 253.234 73.5046 253.234C74.6926 253.234 75.6826 252.766 76.4206 251.83H76.4566V253H77.8966V244.54ZM89.6104 245.638C91.3924 245.638 92.4544 247.006 92.4544 248.698C92.4544 250.408 91.4824 251.902 89.6284 251.902C87.8284 251.902 86.8564 250.336 86.8564 248.68C86.8564 247.096 87.9364 245.638 89.6104 245.638ZM92.3824 253H93.8224V238.15H92.3824V245.746H92.3464C91.6624 244.846 90.5824 244.306 89.4484 244.306C86.9104 244.306 85.3804 246.376 85.3804 248.788C85.3804 251.128 86.9464 253.234 89.4304 253.234C90.5824 253.234 91.6444 252.748 92.3464 251.83H92.3824V253ZM99.9991 245.638C101.781 245.638 102.843 247.006 102.843 248.698C102.843 250.408 101.871 251.902 100.017 251.902C98.2171 251.902 97.2451 250.336 97.2451 248.68C97.2451 247.096 98.3251 245.638 99.9991 245.638ZM104.211 244.54H102.771V245.746H102.735C102.033 244.846 100.989 244.306 99.8371 244.306C97.2991 244.306 95.7691 246.376 95.7691 248.788C95.7691 251.128 97.3351 253.234 99.8191 253.234C101.007 253.234 101.997 252.766 102.735 251.83H102.771V253H104.211V244.54ZM108.246 244.54H106.806V253H108.246V248.77C108.246 247.672 108.318 245.638 109.902 245.638C110.28 245.638 110.478 245.818 110.766 246.016L111.45 244.702C111.036 244.468 110.64 244.306 110.154 244.306C109.218 244.306 108.786 244.792 108.282 245.458H108.246V244.54ZM114.311 238.15H112.871V253H114.311V238.15ZM124.347 249.076C124.491 246.556 123.051 244.306 120.333 244.306C117.687 244.306 116.229 246.376 116.229 248.878C116.229 251.308 117.849 253.234 120.369 253.234C122.097 253.234 123.465 252.37 124.275 250.858L123.051 250.156C122.493 251.164 121.701 251.902 120.477 251.902C118.839 251.902 117.723 250.642 117.705 249.076H124.347ZM117.777 247.852C117.957 246.628 119.109 245.638 120.351 245.638C121.611 245.638 122.637 246.628 122.835 247.852H117.777ZM132.144 244.54H130.506L134.664 253.558L138.804 244.54H137.184L134.664 250.228L132.144 244.54ZM141.898 244.54H140.458V253H141.898V244.54ZM141.178 240.328C140.62 240.328 140.152 240.796 140.152 241.354C140.152 241.93 140.62 242.38 141.178 242.38C141.736 242.38 142.204 241.93 142.204 241.354C142.204 240.796 141.736 240.328 141.178 240.328ZM148.409 245.638C150.191 245.638 151.253 247.006 151.253 248.698C151.253 250.408 150.281 251.902 148.427 251.902C146.627 251.902 145.655 250.336 145.655 248.68C145.655 247.096 146.735 245.638 148.409 245.638ZM151.181 253H152.621V238.15H151.181V245.746H151.145C150.461 244.846 149.381 244.306 148.247 244.306C145.709 244.306 144.179 246.376 144.179 248.788C144.179 251.128 145.745 253.234 148.229 253.234C149.381 253.234 150.443 252.748 151.145 251.83H151.181V253ZM158.798 245.638C160.58 245.638 161.642 247.006 161.642 248.698C161.642 250.408 160.67 251.902 158.816 251.902C157.016 251.902 156.044 250.336 156.044 248.68C156.044 247.096 157.124 245.638 158.798 245.638ZM163.01 244.54H161.57V245.746H161.534C160.832 244.846 159.788 244.306 158.636 244.306C156.098 244.306 154.568 246.376 154.568 248.788C154.568 251.128 156.134 253.234 158.618 253.234C159.806 253.234 160.796 252.766 161.534 251.83H161.57V253H163.01V244.54ZM174.724 245.638C176.506 245.638 177.568 247.006 177.568 248.698C177.568 250.408 176.596 251.902 174.742 251.902C172.942 251.902 171.97 250.336 171.97 248.68C171.97 247.096 173.05 245.638 174.724 245.638ZM178.936 244.54H177.496V245.746H177.46C176.758 244.846 175.714 244.306 174.562 244.306C172.024 244.306 170.494 246.376 170.494 248.788C170.494 251.128 172.06 253.234 174.544 253.234C175.732 253.234 176.722 252.766 177.46 251.83H177.496V253H178.936V244.54ZM188.651 245.872H190.163V244.54H188.651V241.498H187.211V244.54H186.329V245.872H187.211V253H188.651V245.872ZM192.796 244.54H191.356V249.418C191.356 251.668 192.202 253.234 194.704 253.234C197.206 253.234 198.052 251.668 198.052 249.418V244.54H196.612V249.256C196.612 250.678 196.45 251.902 194.704 251.902C192.958 251.902 192.796 250.678 192.796 249.256V244.54ZM205.301 245.872C204.923 244.99 204.023 244.306 203.051 244.306C201.683 244.306 200.531 245.278 200.531 246.7C200.531 249.364 204.347 248.716 204.347 250.606C204.347 251.38 203.753 251.902 202.979 251.902C202.025 251.902 201.611 251.344 201.251 250.552L199.973 251.092C200.423 252.424 201.539 253.234 202.961 253.234C204.527 253.234 205.823 252.082 205.823 250.48C205.823 249.058 204.851 248.464 203.861 248.05C202.871 247.636 201.899 247.348 201.899 246.574C201.899 246.034 202.439 245.638 202.943 245.638C203.465 245.638 203.897 246.052 204.095 246.502L205.301 245.872ZM217.451 245.638C219.233 245.638 220.295 247.006 220.295 248.698C220.295 250.408 219.323 251.902 217.469 251.902C215.669 251.902 214.697 250.336 214.697 248.68C214.697 247.096 215.777 245.638 217.451 245.638ZM214.769 244.54H213.329V257.752H214.769V251.812H214.805C215.489 252.73 216.551 253.234 217.703 253.234C220.241 253.234 221.771 251.2 221.771 248.788C221.771 246.448 220.205 244.306 217.721 244.306C216.551 244.306 215.507 244.81 214.805 245.746H214.769V244.54ZM225.158 244.54H223.718V253H225.158V248.77C225.158 247.672 225.23 245.638 226.814 245.638C227.192 245.638 227.39 245.818 227.678 246.016L228.362 244.702C227.948 244.468 227.552 244.306 227.066 244.306C226.13 244.306 225.698 244.792 225.194 245.458H225.158V244.54ZM233.509 253.234C235.975 253.234 237.955 251.272 237.955 248.788C237.955 246.304 235.993 244.306 233.509 244.306C231.025 244.306 229.063 246.304 229.063 248.788C229.063 251.272 231.043 253.234 233.509 253.234ZM233.509 245.638C235.291 245.638 236.515 247.06 236.515 248.77C236.515 250.498 235.291 251.902 233.509 251.902C231.727 251.902 230.503 250.498 230.503 248.77C230.503 247.06 231.727 245.638 233.509 245.638ZM242.411 252.208L239.675 257.752H241.313L247.559 244.54H245.921L243.185 250.606L240.197 244.54H238.523L242.411 252.208ZM256.253 249.076C256.397 246.556 254.957 244.306 252.239 244.306C249.593 244.306 248.135 246.376 248.135 248.878C248.135 251.308 249.755 253.234 252.275 253.234C254.003 253.234 255.371 252.37 256.181 250.858L254.957 250.156C254.399 251.164 253.607 251.902 252.383 251.902C250.745 251.902 249.629 250.642 249.611 249.076H256.253ZM249.683 247.852C249.863 246.628 251.015 245.638 252.257 245.638C253.517 245.638 254.543 246.628 254.741 247.852H249.683ZM264.507 245.152C263.751 244.612 262.815 244.306 261.897 244.306C259.413 244.306 257.379 246.25 257.379 248.77C257.379 251.326 259.323 253.234 261.879 253.234C262.887 253.234 263.733 252.928 264.561 252.37V250.444H264.525C263.823 251.362 262.977 251.902 261.771 251.902C260.007 251.902 258.855 250.444 258.855 248.77C258.855 247.078 260.097 245.638 261.843 245.638C262.977 245.638 263.805 246.214 264.471 247.06H264.507V245.152ZM268.298 245.872H269.81V244.54H268.298V241.498H266.858V244.54H265.976V245.872H266.858V253H268.298V245.872ZM274.8 253.234C277.266 253.234 279.246 251.272 279.246 248.788C279.246 246.304 277.284 244.306 274.8 244.306C272.316 244.306 270.354 246.304 270.354 248.788C270.354 251.272 272.334 253.234 274.8 253.234ZM274.8 245.638C276.582 245.638 277.806 247.06 277.806 248.77C277.806 250.498 276.582 251.902 274.8 251.902C273.018 251.902 271.794 250.498 271.794 248.77C271.794 247.06 273.018 245.638 274.8 245.638ZM285.844 245.872C285.466 244.99 284.566 244.306 283.594 244.306C282.226 244.306 281.074 245.278 281.074 246.7C281.074 249.364 284.89 248.716 284.89 250.606C284.89 251.38 284.296 251.902 283.522 251.902C282.568 251.902 282.154 251.344 281.794 250.552L280.516 251.092C280.966 252.424 282.082 253.234 283.504 253.234C285.07 253.234 286.366 252.082 286.366 250.48C286.366 249.058 285.394 248.464 284.404 248.05C283.414 247.636 282.442 247.348 282.442 246.574C282.442 246.034 282.982 245.638 283.486 245.638C284.008 245.638 284.44 246.052 284.638 246.502L285.844 245.872Z" fill="white"/>
<path d="M59.4766 15.6172C57.9922 14.2891 56.4688 13.3203 54.9062 12.7109C53.3438 12.0859 51.6719 11.7734 49.8906 11.7734C46.2344 11.7734 43.3203 12.8672 41.1484 15.0547C38.9766 17.2422 37.8906 20.1797 37.8906 23.8672C37.8906 27.4766 38.8984 30.3438 40.9141 32.4688C42.9297 34.5781 45.6797 35.6328 49.1641 35.6328C51.1484 35.6328 52.9922 35.3047 54.6953 34.6484C56.3984 33.9766 57.9766 32.9766 59.4297 31.6484L59.3828 39.1719C57.8203 40.0938 56.1797 40.7812 54.4609 41.2344C52.7578 41.6875 50.9609 41.9141 49.0703 41.9141C43.6016 41.9141 39.1094 40.2188 35.5938 36.8281C32.0938 33.4219 30.3438 29.1016 30.3438 23.8672C30.3438 18.6484 32.1016 14.3438 35.6172 10.9531C39.1328 7.5625 43.6641 5.86719 49.2109 5.86719C51.0703 5.86719 52.8672 6.0625 54.6016 6.45312C56.3359 6.84375 58.0469 7.44531 59.7344 8.25781L59.4766 15.6172ZM101.43 23.9141C101.43 26.3672 100.969 28.6875 100.047 30.875C99.1406 33.0625 97.8281 34.9844 96.1094 36.6406C94.3281 38.3438 92.3203 39.6484 90.0859 40.5547C87.8516 41.4609 85.5391 41.9141 83.1484 41.9141C81.0547 41.9141 79 41.5625 76.9844 40.8594C74.9844 40.1406 73.1484 39.1172 71.4766 37.7891C69.3203 36.0703 67.6641 34.0156 66.5078 31.625C65.3672 29.2344 64.7969 26.6641 64.7969 23.9141C64.7969 21.4453 65.25 19.1328 66.1562 16.9766C67.0625 14.8047 68.3906 12.875 70.1406 11.1875C71.8594 9.51563 73.8516 8.21875 76.1172 7.29688C78.3984 6.375 80.7422 5.91406 83.1484 5.91406C85.5391 5.91406 87.8594 6.375 90.1094 7.29688C92.375 8.21875 94.375 9.51563 96.1094 11.1875C97.8438 12.875 99.1641 14.8047 100.07 16.9766C100.977 19.1484 101.43 21.4609 101.43 23.9141ZM83.1484 35.375C86.2578 35.375 88.8203 34.2891 90.8359 32.1172C92.8672 29.9297 93.8828 27.1953 93.8828 23.9141C93.8828 20.6641 92.8594 17.9297 90.8125 15.7109C88.7656 13.4922 86.2109 12.3828 83.1484 12.3828C80.0391 12.3828 77.4609 13.4922 75.4141 15.7109C73.3672 17.9141 72.3438 20.6484 72.3438 23.9141C72.3438 27.2266 73.3516 29.9688 75.3672 32.1406C77.3828 34.2969 79.9766 35.375 83.1484 35.375ZM107.641 41V6.6875H115.258L130.445 26.6562C130.883 27.2188 131.359 28.0156 131.875 29.0469C132.406 30.0625 132.953 31.2656 133.516 32.6562C133.344 31.6406 133.219 30.6328 133.141 29.6328C133.062 28.6328 133.023 27.3828 133.023 25.8828V6.6875H140.031V41H132.836L117.227 20.6562C116.789 20.0938 116.312 19.3047 115.797 18.2891C115.281 17.2578 114.734 16.0312 114.156 14.6094C114.328 15.5938 114.453 16.5938 114.531 17.6094C114.609 18.6094 114.648 19.875 114.648 21.4062V41H107.641ZM145.469 36.6406L149.547 32.0234C150.062 33.2891 150.891 34.2891 152.031 35.0234C153.172 35.7422 154.453 36.1016 155.875 36.1016C157.594 36.1016 158.953 35.6953 159.953 34.8828C160.953 34.0703 161.453 32.9766 161.453 31.6016C161.453 29.9766 159.789 28.3594 156.461 26.75C155.383 26.2344 154.531 25.8125 153.906 25.4844C150.906 23.9219 148.828 22.3984 147.672 20.9141C146.516 19.4141 145.938 17.6328 145.938 15.5703C145.938 12.7422 147.055 10.4219 149.289 8.60938C151.539 6.78125 154.453 5.86719 158.031 5.86719C160.109 5.86719 161.898 6.23438 163.398 6.96875C164.914 7.6875 166.25 8.82031 167.406 10.3672L163.07 14.5156C162.555 13.5156 161.867 12.7734 161.008 12.2891C160.164 11.7891 159.141 11.5391 157.938 11.5391C156.484 11.5391 155.312 11.9063 154.422 12.6406C153.531 13.3594 153.086 14.2969 153.086 15.4531C153.086 17.2656 154.852 18.9219 158.383 20.4219C159.086 20.7188 159.625 20.9531 160 21.125C162.906 22.4531 165.055 23.9531 166.445 25.625C167.852 27.2969 168.555 29.2031 168.555 31.3438C168.555 34.5625 167.453 37.1328 165.25 39.0547C163.062 40.9609 160.117 41.9141 156.414 41.9141C153.789 41.9141 151.539 41.4609 149.664 40.5547C147.789 39.6484 146.391 38.3438 145.469 36.6406ZM187.398 12.9219V41H180.039V12.9219H171.648V6.6875H195.836V12.9219H187.398ZM225.414 41H216.953L207.93 24.9688V41H200.594V6.6875H211.094C215.266 6.6875 218.391 7.5 220.469 9.125C222.547 10.7344 223.586 13.1641 223.586 16.4141C223.586 18.7734 222.875 20.7891 221.453 22.4609C220.031 24.1328 218.195 25.1094 215.945 25.3906L225.414 41ZM207.93 21.3125H209.031C212 21.3125 213.961 20.9922 214.914 20.3516C215.867 19.6953 216.344 18.5625 216.344 16.9531C216.344 15.2656 215.828 14.0703 214.797 13.3672C213.781 12.6484 211.859 12.2891 209.031 12.2891H207.93V21.3125ZM259.211 6.6875V28.0391C259.211 32.6953 257.984 36.1719 255.531 38.4688C253.078 40.7656 249.383 41.9141 244.445 41.9141C239.43 41.9141 235.695 40.7656 233.242 38.4688C230.789 36.1719 229.562 32.6953 229.562 28.0391V6.6875H236.852V26.8906C236.852 29.7188 237.477 31.8516 238.727 33.2891C239.977 34.7109 241.844 35.4219 244.328 35.4219C246.828 35.4219 248.719 34.7031 250 33.2656C251.281 31.8281 251.922 29.7031 251.922 26.8906V6.6875H259.211ZM266.969 41V6.6875H274.305V41H266.969ZM279.18 41L284.406 6.6875H292.094L298.703 26.8906C298.844 27.3125 298.992 27.9297 299.148 28.7422C299.32 29.5547 299.477 30.4844 299.617 31.5312C299.742 30.4688 299.883 29.5234 300.039 28.6953C300.195 27.8516 300.344 27.2344 300.484 26.8438L307.211 6.6875H314.781L320.031 41H313.07L310.562 20.3047C310.375 18.7734 310.25 17.6172 310.188 16.8359C310.125 16.0547 310.094 15.3281 310.094 14.6562C310.094 14.2969 310.094 14.0312 310.094 13.8594C310.109 13.6719 310.125 13.5078 310.141 13.3672C309.906 14.7109 309.68 15.875 309.461 16.8594C309.258 17.8281 309.07 18.5625 308.898 19.0625L301.633 41H297.508L290.359 19.0625C290.297 18.8594 290.156 18.2969 289.938 17.375C289.734 16.4531 289.445 15.1094 289.07 13.3438V14.3516C289.07 15.9453 288.93 17.8984 288.648 20.2109L288.625 20.3047L286.141 41H279.18ZM359.945 23.9141C359.945 26.3672 359.484 28.6875 358.562 30.875C357.656 33.0625 356.344 34.9844 354.625 36.6406C352.844 38.3438 350.836 39.6484 348.602 40.5547C346.367 41.4609 344.055 41.9141 341.664 41.9141C339.57 41.9141 337.516 41.5625 335.5 40.8594C333.5 40.1406 331.664 39.1172 329.992 37.7891C327.836 36.0703 326.18 34.0156 325.023 31.625C323.883 29.2344 323.312 26.6641 323.312 23.9141C323.312 21.4453 323.766 19.1328 324.672 16.9766C325.578 14.8047 326.906 12.875 328.656 11.1875C330.375 9.51563 332.367 8.21875 334.633 7.29688C336.914 6.375 339.258 5.91406 341.664 5.91406C344.055 5.91406 346.375 6.375 348.625 7.29688C350.891 8.21875 352.891 9.51563 354.625 11.1875C356.359 12.875 357.68 14.8047 358.586 16.9766C359.492 19.1484 359.945 21.4609 359.945 23.9141ZM341.664 35.375C344.773 35.375 347.336 34.2891 349.352 32.1172C351.383 29.9297 352.398 27.1953 352.398 23.9141C352.398 20.6641 351.375 17.9297 349.328 15.7109C347.281 13.4922 344.727 12.3828 341.664 12.3828C338.555 12.3828 335.977 13.4922 333.93 15.7109C331.883 17.9141 330.859 20.6484 330.859 23.9141C330.859 27.2266 331.867 29.9688 333.883 32.1406C335.898 34.2969 338.492 35.375 341.664 35.375ZM363.953 36.6406L368.031 32.0234C368.547 33.2891 369.375 34.2891 370.516 35.0234C371.656 35.7422 372.938 36.1016 374.359 36.1016C376.078 36.1016 377.438 35.6953 378.438 34.8828C379.438 34.0703 379.938 32.9766 379.938 31.6016C379.938 29.9766 378.273 28.3594 374.945 26.75C373.867 26.2344 373.016 25.8125 372.391 25.4844C369.391 23.9219 367.312 22.3984 366.156 20.9141C365 19.4141 364.422 17.6328 364.422 15.5703C364.422 12.7422 365.539 10.4219 367.773 8.60938C370.023 6.78125 372.938 5.86719 376.516 5.86719C378.594 5.86719 380.383 6.23438 381.883 6.96875C383.398 7.6875 384.734 8.82031 385.891 10.3672L381.555 14.5156C381.039 13.5156 380.352 12.7734 379.492 12.2891C378.648 11.7891 377.625 11.5391 376.422 11.5391C374.969 11.5391 373.797 11.9063 372.906 12.6406C372.016 13.3594 371.57 14.2969 371.57 15.4531C371.57 17.2656 373.336 18.9219 376.867 20.4219C377.57 20.7188 378.109 20.9531 378.484 21.125C381.391 22.4531 383.539 23.9531 384.93 25.625C386.336 27.2969 387.039 29.2031 387.039 31.3438C387.039 34.5625 385.938 37.1328 383.734 39.0547C381.547 40.9609 378.602 41.9141 374.898 41.9141C372.273 41.9141 370.023 41.4609 368.148 40.5547C366.273 39.6484 364.875 38.3438 363.953 36.6406ZM29.6406 84.6406L33.7188 80.0234C34.2344 81.2891 35.0625 82.2891 36.2031 83.0234C37.3438 83.7422 38.625 84.1016 40.0469 84.1016C41.7656 84.1016 43.125 83.6953 44.125 82.8828C45.125 82.0703 45.625 80.9766 45.625 79.6016C45.625 77.9766 43.9609 76.3594 40.6328 74.75C39.5547 74.2344 38.7031 73.8125 38.0781 73.4844C35.0781 71.9219 33 70.3984 31.8438 68.9141C30.6875 67.4141 30.1094 65.6328 30.1094 63.5703C30.1094 60.7422 31.2266 58.4219 33.4609 56.6094C35.7109 54.7812 38.625 53.8672 42.2031 53.8672C44.2812 53.8672 46.0703 54.2344 47.5703 54.9688C49.0859 55.6875 50.4219 56.8203 51.5781 58.3672L47.2422 62.5156C46.7266 61.5156 46.0391 60.7734 45.1797 60.2891C44.3359 59.7891 43.3125 59.5391 42.1094 59.5391C40.6562 59.5391 39.4844 59.9062 38.5938 60.6406C37.7031 61.3594 37.2578 62.2969 37.2578 63.4531C37.2578 65.2656 39.0234 66.9219 42.5547 68.4219C43.2578 68.7188 43.7969 68.9531 44.1719 69.125C47.0781 70.4531 49.2266 71.9531 50.6172 73.625C52.0234 75.2969 52.7266 77.2031 52.7266 79.3438C52.7266 82.5625 51.625 85.1328 49.4219 87.0547C47.2344 88.9609 44.2891 89.9141 40.5859 89.9141C37.9609 89.9141 35.7109 89.4609 33.8359 88.5547C31.9609 87.6484 30.5625 86.3438 29.6406 84.6406ZM93.8828 71.9141C93.8828 74.3672 93.4219 76.6875 92.5 78.875C91.5938 81.0625 90.2812 82.9844 88.5625 84.6406C86.7812 86.3438 84.7734 87.6484 82.5391 88.5547C80.3047 89.4609 77.9922 89.9141 75.6016 89.9141C73.5078 89.9141 71.4531 89.5625 69.4375 88.8594C67.4375 88.1406 65.6016 87.1172 63.9297 85.7891C61.7734 84.0703 60.1172 82.0156 58.9609 79.625C57.8203 77.2344 57.25 74.6641 57.25 71.9141C57.25 69.4453 57.7031 67.1328 58.6094 64.9766C59.5156 62.8047 60.8438 60.875 62.5938 59.1875C64.3125 57.5156 66.3047 56.2188 68.5703 55.2969C70.8516 54.375 73.1953 53.9141 75.6016 53.9141C77.9922 53.9141 80.3125 54.375 82.5625 55.2969C84.8281 56.2188 86.8281 57.5156 88.5625 59.1875C90.2969 60.875 91.6172 62.8047 92.5234 64.9766C93.4297 67.1484 93.8828 69.4609 93.8828 71.9141ZM75.6016 83.375C78.7109 83.375 81.2734 82.2891 83.2891 80.1172C85.3203 77.9297 86.3359 75.1953 86.3359 71.9141C86.3359 68.6641 85.3125 65.9297 83.2656 63.7109C81.2188 61.4922 78.6641 60.3828 75.6016 60.3828C72.4922 60.3828 69.9141 61.4922 67.8672 63.7109C65.8203 65.9141 64.7969 68.6484 64.7969 71.9141C64.7969 75.2266 65.8047 77.9688 67.8203 80.1406C69.8359 82.2969 72.4297 83.375 75.6016 83.375ZM100.094 89V54.6875H107.43V82.7656H119.148V89H100.094ZM152.43 54.6875V76.0391C152.43 80.6953 151.203 84.1719 148.75 86.4688C146.297 88.7656 142.602 89.9141 137.664 89.9141C132.648 89.9141 128.914 88.7656 126.461 86.4688C124.008 84.1719 122.781 80.6953 122.781 76.0391V54.6875H130.07V74.8906C130.07 77.7188 130.695 79.8516 131.945 81.2891C133.195 82.7109 135.062 83.4219 137.547 83.4219C140.047 83.4219 141.938 82.7031 143.219 81.2656C144.5 79.8281 145.141 77.7031 145.141 74.8906V54.6875H152.43ZM187.68 63.6172C186.195 62.2891 184.672 61.3203 183.109 60.7109C181.547 60.0859 179.875 59.7734 178.094 59.7734C174.438 59.7734 171.523 60.8672 169.352 63.0547C167.18 65.2422 166.094 68.1797 166.094 71.8672C166.094 75.4766 167.102 78.3438 169.117 80.4688C171.133 82.5781 173.883 83.6328 177.367 83.6328C179.352 83.6328 181.195 83.3047 182.898 82.6484C184.602 81.9766 186.18 80.9766 187.633 79.6484L187.586 87.1719C186.023 88.0938 184.383 88.7812 182.664 89.2344C180.961 89.6875 179.164 89.9141 177.273 89.9141C171.805 89.9141 167.312 88.2188 163.797 84.8281C160.297 81.4219 158.547 77.1016 158.547 71.8672C158.547 66.6484 160.305 62.3438 163.82 58.9531C167.336 55.5625 171.867 53.8672 177.414 53.8672C179.273 53.8672 181.07 54.0625 182.805 54.4531C184.539 54.8438 186.25 55.4453 187.938 56.2578L187.68 63.6172ZM194.641 89V54.6875H201.977V89H194.641ZM244.961 71.9141C244.961 74.3672 244.5 76.6875 243.578 78.875C242.672 81.0625 241.359 82.9844 239.641 84.6406C237.859 86.3438 235.852 87.6484 233.617 88.5547C231.383 89.4609 229.07 89.9141 226.68 89.9141C224.586 89.9141 222.531 89.5625 220.516 88.8594C218.516 88.1406 216.68 87.1172 215.008 85.7891C212.852 84.0703 211.195 82.0156 210.039 79.625C208.898 77.2344 208.328 74.6641 208.328 71.9141C208.328 69.4453 208.781 67.1328 209.688 64.9766C210.594 62.8047 211.922 60.875 213.672 59.1875C215.391 57.5156 217.383 56.2188 219.648 55.2969C221.93 54.375 224.273 53.9141 226.68 53.9141C229.07 53.9141 231.391 54.375 233.641 55.2969C235.906 56.2188 237.906 57.5156 239.641 59.1875C241.375 60.875 242.695 62.8047 243.602 64.9766C244.508 67.1484 244.961 69.4609 244.961 71.9141ZM226.68 83.375C229.789 83.375 232.352 82.2891 234.367 80.1172C236.398 77.9297 237.414 75.1953 237.414 71.9141C237.414 68.6641 236.391 65.9297 234.344 63.7109C232.297 61.4922 229.742 60.3828 226.68 60.3828C223.57 60.3828 220.992 61.4922 218.945 63.7109C216.898 65.9141 215.875 68.6484 215.875 71.9141C215.875 75.2266 216.883 77.9688 218.898 80.1406C220.914 82.2969 223.508 83.375 226.68 83.375ZM251.172 89V54.6875H258.789L273.977 74.6562C274.414 75.2188 274.891 76.0156 275.406 77.0469C275.938 78.0625 276.484 79.2656 277.047 80.6562C276.875 79.6406 276.75 78.6328 276.672 77.6328C276.594 76.6328 276.555 75.3828 276.555 73.8828V54.6875H283.562V89H276.367L260.758 68.6562C260.32 68.0938 259.844 67.3047 259.328 66.2891C258.812 65.2578 258.266 64.0312 257.688 62.6094C257.859 63.5938 257.984 64.5938 258.062 65.6094C258.141 66.6094 258.18 67.875 258.18 69.4062V89H251.172ZM291.203 89V54.6875H311.406V60.875H298.539V67.9297H311.406V74.1641H298.539V82.7656H311.406V89H291.203ZM316.422 84.6406L320.5 80.0234C321.016 81.2891 321.844 82.2891 322.984 83.0234C324.125 83.7422 325.406 84.1016 326.828 84.1016C328.547 84.1016 329.906 83.6953 330.906 82.8828C331.906 82.0703 332.406 80.9766 332.406 79.6016C332.406 77.9766 330.742 76.3594 327.414 74.75C326.336 74.2344 325.484 73.8125 324.859 73.4844C321.859 71.9219 319.781 70.3984 318.625 68.9141C317.469 67.4141 316.891 65.6328 316.891 63.5703C316.891 60.7422 318.008 58.4219 320.242 56.6094C322.492 54.7812 325.406 53.8672 328.984 53.8672C331.062 53.8672 332.852 54.2344 334.352 54.9688C335.867 55.6875 337.203 56.8203 338.359 58.3672L334.023 62.5156C333.508 61.5156 332.82 60.7734 331.961 60.2891C331.117 59.7891 330.094 59.5391 328.891 59.5391C327.438 59.5391 326.266 59.9062 325.375 60.6406C324.484 61.3594 324.039 62.2969 324.039 63.4531C324.039 65.2656 325.805 66.9219 329.336 68.4219C330.039 68.7188 330.578 68.9531 330.953 69.125C333.859 70.4531 336.008 71.9531 337.398 73.625C338.805 75.2969 339.508 77.2031 339.508 79.3438C339.508 82.5625 338.406 85.1328 336.203 87.0547C334.016 88.9609 331.07 89.9141 327.367 89.9141C324.742 89.9141 322.492 89.4609 320.617 88.5547C318.742 87.6484 317.344 86.3438 316.422 84.6406ZM49.6094 123.945L45.7656 112.859C45.6562 112.531 45.5156 111.969 45.3438 111.172C45.1719 110.375 44.9922 109.398 44.8047 108.242C44.6016 109.352 44.4062 110.352 44.2188 111.242C44.0312 112.117 43.8906 112.703 43.7969 113L40.0938 123.945H49.6094ZM27.7656 137L40.8203 102.688H49.2109L62.4531 137H54.1094L51.3203 129.711H38.0312L35.6406 137H27.7656ZM80.8281 137V102.688H88.1641V130.766H99.8828V137H80.8281ZM122.266 123.945L118.422 112.859C118.312 112.531 118.172 111.969 118 111.172C117.828 110.375 117.648 109.398 117.461 108.242C117.258 109.352 117.062 110.352 116.875 111.242C116.688 112.117 116.547 112.703 116.453 113L112.75 123.945H122.266ZM100.422 137L113.477 102.688H121.867L135.109 137H126.766L123.977 129.711H110.688L108.297 137H100.422ZM150.508 137L155.734 102.688H163.422L170.031 122.891C170.172 123.312 170.32 123.93 170.477 124.742C170.648 125.555 170.805 126.484 170.945 127.531C171.07 126.469 171.211 125.523 171.367 124.695C171.523 123.852 171.672 123.234 171.812 122.844L178.539 102.688H186.109L191.359 137H184.398L181.891 116.305C181.703 114.773 181.578 113.617 181.516 112.836C181.453 112.055 181.422 111.328 181.422 110.656C181.422 110.297 181.422 110.031 181.422 109.859C181.438 109.672 181.453 109.508 181.469 109.367C181.234 110.711 181.008 111.875 180.789 112.859C180.586 113.828 180.398 114.562 180.227 115.062L172.961 137H168.836L161.688 115.062C161.625 114.859 161.484 114.297 161.266 113.375C161.062 112.453 160.773 111.109 160.398 109.344V110.352C160.398 111.945 160.258 113.898 159.977 116.211L159.953 116.305L157.469 137H150.508ZM196.141 137V102.688H216.344V108.875H203.477V115.93H216.344V122.164H203.477V130.766H216.344V137H196.141ZM230.898 130.812H234.977C238.82 130.812 241.617 129.938 243.367 128.188C245.133 126.438 246.016 123.664 246.016 119.867C246.016 116.086 245.133 113.32 243.367 111.57C241.617 109.805 238.82 108.922 234.977 108.922H230.898V130.812ZM223.562 137V102.688H232.914C236.602 102.688 239.508 102.945 241.633 103.461C243.758 103.977 245.625 104.836 247.234 106.039C249.312 107.586 250.883 109.539 251.945 111.898C253.023 114.242 253.562 116.914 253.562 119.914C253.562 122.961 253.016 125.664 251.922 128.023C250.828 130.367 249.227 132.305 247.117 133.836C245.555 134.961 243.812 135.773 241.891 136.273C239.984 136.758 237.188 137 233.5 137H230.898H223.562ZM259.844 137V102.688H267.18V137H259.844ZM282.367 130.812H286.445C290.289 130.812 293.086 129.938 294.836 128.188C296.602 126.438 297.484 123.664 297.484 119.867C297.484 116.086 296.602 113.32 294.836 111.57C293.086 109.805 290.289 108.922 286.445 108.922H282.367V130.812ZM275.031 137V102.688H284.383C288.07 102.688 290.977 102.945 293.102 103.461C295.227 103.977 297.094 104.836 298.703 106.039C300.781 107.586 302.352 109.539 303.414 111.898C304.492 114.242 305.031 116.914 305.031 119.914C305.031 122.961 304.484 125.664 303.391 128.023C302.297 130.367 300.695 132.305 298.586 133.836C297.023 134.961 295.281 135.773 293.359 136.273C291.453 136.758 288.656 137 284.969 137H282.367H275.031ZM328.094 123.945L324.25 112.859C324.141 112.531 324 111.969 323.828 111.172C323.656 110.375 323.477 109.398 323.289 108.242C323.086 109.352 322.891 110.352 322.703 111.242C322.516 112.117 322.375 112.703 322.281 113L318.578 123.945H328.094ZM306.25 137L319.305 102.688H327.695L340.938 137H332.594L329.805 129.711H316.516L314.125 137H306.25ZM39.1797 178.812H43.2578C47.1016 178.812 49.8984 177.938 51.6484 176.188C53.4141 174.438 54.2969 171.664 54.2969 167.867C54.2969 164.086 53.4141 161.32 51.6484 159.57C49.8984 157.805 47.1016 156.922 43.2578 156.922H39.1797V178.812ZM31.8438 185V150.688H41.1953C44.8828 150.688 47.7891 150.945 49.9141 151.461C52.0391 151.977 53.9062 152.836 55.5156 154.039C57.5938 155.586 59.1641 157.539 60.2266 159.898C61.3047 162.242 61.8438 164.914 61.8438 167.914C61.8438 170.961 61.2969 173.664 60.2031 176.023C59.1094 178.367 57.5078 180.305 55.3984 181.836C53.8359 182.961 52.0938 183.773 50.1719 184.273C48.2656 184.758 45.4688 185 41.7812 185H39.1797H31.8438ZM67.9844 185V150.688H88.1875V156.875H75.3203V163.93H88.1875V170.164H75.3203V178.766H88.1875V185H67.9844ZM122.992 156.922V185H115.633V156.922H107.242V150.688H131.43V156.922H122.992ZM165.695 150.688V172.039C165.695 176.695 164.469 180.172 162.016 182.469C159.562 184.766 155.867 185.914 150.93 185.914C145.914 185.914 142.18 184.766 139.727 182.469C137.273 180.172 136.047 176.695 136.047 172.039V150.688H143.336V170.891C143.336 173.719 143.961 175.852 145.211 177.289C146.461 178.711 148.328 179.422 150.812 179.422C153.312 179.422 155.203 178.703 156.484 177.266C157.766 175.828 158.406 173.703 158.406 170.891V150.688H165.695ZM188.078 185V150.688H195.695L210.883 170.656C211.32 171.219 211.797 172.016 212.312 173.047C212.844 174.062 213.391 175.266 213.953 176.656C213.781 175.641 213.656 174.633 213.578 173.633C213.5 172.633 213.461 171.383 213.461 169.883V150.688H220.469V185H213.273L197.664 164.656C197.227 164.094 196.75 163.305 196.234 162.289C195.719 161.258 195.172 160.031 194.594 158.609C194.766 159.594 194.891 160.594 194.969 161.609C195.047 162.609 195.086 163.875 195.086 165.406V185H188.078ZM228.109 185V150.688H248.312V156.875H235.445V163.93H248.312V170.164H235.445V178.766H248.312V185H228.109ZM272.57 166.906H288.203C288.234 167.109 288.25 167.328 288.25 167.562C288.266 167.797 288.273 168.156 288.273 168.641C288.273 173.781 286.805 177.945 283.867 181.133C280.93 184.32 277.133 185.914 272.477 185.914C267.148 185.914 262.758 184.219 259.305 180.828C255.852 177.422 254.125 173.102 254.125 167.867C254.125 162.68 255.859 158.391 259.328 155C262.797 151.609 267.18 149.914 272.477 149.914C275.273 149.914 277.836 150.5 280.164 151.672C282.492 152.844 284.57 154.594 286.398 156.922L281.453 160.578C280.219 159.047 278.922 157.945 277.562 157.273C276.203 156.586 274.633 156.242 272.852 156.242C269.461 156.242 266.75 157.297 264.719 159.406C262.688 161.516 261.672 164.336 261.672 167.867C261.672 171.336 262.688 174.141 264.719 176.281C266.766 178.406 269.43 179.469 272.711 179.469C275.117 179.469 277.07 178.906 278.57 177.781C280.07 176.641 280.82 175.156 280.82 173.328V172.953H272.57V166.906ZM329.242 167.914C329.242 170.367 328.781 172.688 327.859 174.875C326.953 177.062 325.641 178.984 323.922 180.641C322.141 182.344 320.133 183.648 317.898 184.555C315.664 185.461 313.352 185.914 310.961 185.914C308.867 185.914 306.812 185.562 304.797 184.859C302.797 184.141 300.961 183.117 299.289 181.789C297.133 180.07 295.477 178.016 294.32 175.625C293.18 173.234 292.609 170.664 292.609 167.914C292.609 165.445 293.062 163.133 293.969 160.977C294.875 158.805 296.203 156.875 297.953 155.188C299.672 153.516 301.664 152.219 303.93 151.297C306.211 150.375 308.555 149.914 310.961 149.914C313.352 149.914 315.672 150.375 317.922 151.297C320.188 152.219 322.188 153.516 323.922 155.188C325.656 156.875 326.977 158.805 327.883 160.977C328.789 163.148 329.242 165.461 329.242 167.914ZM310.961 179.375C314.07 179.375 316.633 178.289 318.648 176.117C320.68 173.93 321.695 171.195 321.695 167.914C321.695 164.664 320.672 161.93 318.625 159.711C316.578 157.492 314.023 156.383 310.961 156.383C307.852 156.383 305.273 157.492 303.227 159.711C301.18 161.914 300.156 164.648 300.156 167.914C300.156 171.227 301.164 173.969 303.18 176.141C305.195 178.297 307.789 179.375 310.961 179.375ZM363.086 159.617C361.602 158.289 360.078 157.32 358.516 156.711C356.953 156.086 355.281 155.773 353.5 155.773C349.844 155.773 346.93 156.867 344.758 159.055C342.586 161.242 341.5 164.18 341.5 167.867C341.5 171.477 342.508 174.344 344.523 176.469C346.539 178.578 349.289 179.633 352.773 179.633C354.758 179.633 356.602 179.305 358.305 178.648C360.008 177.977 361.586 176.977 363.039 175.648L362.992 183.172C361.43 184.094 359.789 184.781 358.07 185.234C356.367 185.688 354.57 185.914 352.68 185.914C347.211 185.914 342.719 184.219 339.203 180.828C335.703 177.422 333.953 173.102 333.953 167.867C333.953 162.648 335.711 158.344 339.227 154.953C342.742 151.562 347.273 149.867 352.82 149.867C354.68 149.867 356.477 150.062 358.211 150.453C359.945 150.844 361.656 151.445 363.344 152.258L363.086 159.617ZM370.047 185V150.688H377.383V185H370.047ZM420.367 167.914C420.367 170.367 419.906 172.688 418.984 174.875C418.078 177.062 416.766 178.984 415.047 180.641C413.266 182.344 411.258 183.648 409.023 184.555C406.789 185.461 404.477 185.914 402.086 185.914C399.992 185.914 397.938 185.562 395.922 184.859C393.922 184.141 392.086 183.117 390.414 181.789C388.258 180.07 386.602 178.016 385.445 175.625C384.305 173.234 383.734 170.664 383.734 167.914C383.734 165.445 384.188 163.133 385.094 160.977C386 158.805 387.328 156.875 389.078 155.188C390.797 153.516 392.789 152.219 395.055 151.297C397.336 150.375 399.68 149.914 402.086 149.914C404.477 149.914 406.797 150.375 409.047 151.297C411.312 152.219 413.312 153.516 415.047 155.188C416.781 156.875 418.102 158.805 419.008 160.977C419.914 163.148 420.367 165.461 420.367 167.914ZM402.086 179.375C405.195 179.375 407.758 178.289 409.773 176.117C411.805 173.93 412.82 171.195 412.82 167.914C412.82 164.664 411.797 161.93 409.75 159.711C407.703 157.492 405.148 156.383 402.086 156.383C398.977 156.383 396.398 157.492 394.352 159.711C392.305 161.914 391.281 164.648 391.281 167.914C391.281 171.227 392.289 173.969 394.305 176.141C396.32 178.297 398.914 179.375 402.086 179.375Z" fill="white"/>
</svg>
