<svg width="550" height="183" viewBox="0 0 550 183" fill="none" xmlns="http://www.w3.org/2000/svg">
<path d="M27 155H15C10.5817 155 7 151.418 7 147V14" stroke="white" stroke-width="1.5"/>
<path d="M12.622 7.0784C12.622 10.6144 9.92461 13.4068 6.68598 13.4068C3.44736 13.4068 0.75 10.6144 0.75 7.0784C0.75 3.54244 3.44736 0.75 6.68598 0.75C9.92461 0.75 12.622 3.54244 12.622 7.0784Z" stroke="white" stroke-width="1.5"/>
<rect x="25" y="125" width="409" height="58" rx="16" fill="#002A61"/>
<path d="M46.7725 156.192H50.2617L48.9521 151.947C48.9229 151.871 48.8672 151.66 48.7852 151.314C48.6855 150.91 48.5947 150.544 48.5127 150.216C48.4307 150.515 48.3604 150.816 48.3018 151.121C48.208 151.414 48.1289 151.689 48.0645 151.947L46.7725 156.192ZM41.8594 161L46.2979 148.133H50.6924L55.1396 161H51.6504L51 158.697H46.0166L45.3486 161H41.8594ZM62.9443 156.57C62.9443 155.873 62.7656 155.328 62.4082 154.936C62.0273 154.537 61.5234 154.338 60.8965 154.338C60.2637 154.338 59.7656 154.537 59.4023 154.936C59.0391 155.334 58.8574 155.879 58.8574 156.57C58.8574 157.268 59.0391 157.815 59.4023 158.214C59.7598 158.606 60.2578 158.803 60.8965 158.803C61.5293 158.803 62.0332 158.606 62.4082 158.214C62.7656 157.821 62.9443 157.273 62.9443 156.57ZM65.7217 147.377V161H62.8389V159.559C62.4404 160.162 61.9893 160.607 61.4854 160.895C61.0166 161.193 60.4658 161.343 59.833 161.343C58.5908 161.343 57.5977 160.909 56.8535 160.042C56.1152 159.175 55.7461 158.018 55.7461 156.57C55.7461 155.164 56.1182 154.019 56.8623 153.134C57.6006 152.272 58.5557 151.842 59.7275 151.842C60.4775 151.842 61.0869 151.979 61.5557 152.255C62.0068 152.507 62.4287 152.955 62.8213 153.6C62.7979 153.441 62.7744 153.201 62.751 152.879C62.7275 152.527 62.7158 152.24 62.7158 152.018V147.377H65.7217ZM79.7754 161V156.157C79.7754 155.396 79.6875 154.868 79.5117 154.575C79.3125 154.276 78.9814 154.127 78.5186 154.127C77.9268 154.127 77.5195 154.329 77.2969 154.733C77.0684 155.132 76.9541 155.967 76.9541 157.238V161H73.9307V156.157C73.9307 155.366 73.834 154.833 73.6406 154.558C73.4648 154.271 73.1396 154.127 72.665 154.127C72.0732 154.127 71.6602 154.323 71.4258 154.716C71.1973 155.114 71.083 155.955 71.083 157.238V161H68.042V152.123H71.1182V153.67C71.4932 153.049 71.9209 152.589 72.4014 152.29C72.8701 151.991 73.4385 151.842 74.1064 151.842C74.8271 151.842 75.4219 151.979 75.8906 152.255C76.3359 152.536 76.6611 152.955 76.8662 153.512C77.2236 152.932 77.6484 152.513 78.1406 152.255C78.627 151.979 79.21 151.842 79.8896 151.842C80.4229 151.842 80.8887 151.93 81.2871 152.105C81.6973 152.299 82.0342 152.568 82.2979 152.914C82.5205 153.189 82.6758 153.515 82.7637 153.89C82.8516 154.235 82.8955 154.848 82.8955 155.727V155.92V161H79.7754ZM85.04 161V152.123H88.1689V161H85.04ZM85.4355 149.838H85.4531C85.4531 149.51 85.5674 149.24 85.7959 149.029C86.0244 148.801 86.2998 148.687 86.6221 148.687C86.9619 148.687 87.2402 148.795 87.457 149.012C87.6797 149.229 87.791 149.504 87.791 149.838C87.791 150.178 87.6768 150.459 87.4482 150.682C87.2256 150.91 86.9502 151.024 86.6221 151.024C86.2881 151.024 86.0068 150.904 85.7783 150.664C85.5498 150.441 85.4355 150.166 85.4355 149.838ZM90.7354 161V152.123H93.6006V153.925C94.0049 153.222 94.4854 152.694 95.042 152.343C95.5811 152.009 96.2344 151.842 97.002 151.842C97.582 151.842 98.0977 151.93 98.5488 152.105C98.9941 152.305 99.3545 152.574 99.6299 152.914C99.8818 153.254 100.049 153.614 100.131 153.995C100.23 154.481 100.28 155.123 100.28 155.92V161H97.1426V156.245C97.1426 155.524 97.0283 155.009 96.7998 154.698C96.5713 154.376 96.1992 154.215 95.6836 154.215C95.0391 154.215 94.5645 154.455 94.2598 154.936C93.9609 155.416 93.8115 156.195 93.8115 157.273V161H90.7354ZM102.425 161V152.123H105.554V161H102.425ZM102.82 149.838H102.838C102.838 149.51 102.952 149.24 103.181 149.029C103.409 148.801 103.685 148.687 104.007 148.687C104.347 148.687 104.625 148.795 104.842 149.012C105.064 149.229 105.176 149.504 105.176 149.838C105.176 150.178 105.062 150.459 104.833 150.682C104.61 150.91 104.335 151.024 104.007 151.024C103.673 151.024 103.392 150.904 103.163 150.664C102.935 150.441 102.82 150.166 102.82 149.838ZM107.294 160.262L107.944 157.871C108.401 158.275 108.905 158.58 109.456 158.785C110.001 159.002 110.552 159.11 111.108 159.11C111.507 159.11 111.806 159.043 112.005 158.908C112.21 158.785 112.312 158.606 112.312 158.372C112.312 157.979 111.899 157.687 111.073 157.493C110.786 157.429 110.569 157.373 110.423 157.326C109.468 157.045 108.791 156.702 108.393 156.298C107.959 155.882 107.742 155.343 107.742 154.681C107.742 153.825 108.067 153.137 108.718 152.615C109.345 152.1 110.221 151.842 111.346 151.842C111.891 151.842 112.471 151.906 113.086 152.035C113.602 152.141 114.202 152.346 114.888 152.65L114.237 154.804C113.815 154.517 113.391 154.303 112.963 154.162C112.559 154.016 112.134 153.942 111.688 153.942C111.325 153.942 111.053 153.998 110.871 154.109C110.695 154.215 110.607 154.376 110.607 154.593C110.607 154.897 111.021 155.161 111.847 155.384C112.116 155.466 112.254 155.507 112.26 155.507C113.338 155.812 114.094 156.172 114.527 156.588C114.949 157.027 115.16 157.599 115.16 158.302C115.16 159.21 114.812 159.942 114.114 160.499C113.399 161.062 112.477 161.343 111.346 161.343C110.561 161.343 109.837 161.252 109.175 161.07C108.519 160.895 107.892 160.625 107.294 160.262ZM117.34 161L117.322 154.338H115.995V152.123H117.322V149.478H120.425V152.123H121.734V154.338H120.425V161H117.34ZM123.22 161V152.123H126.173V154.215C126.483 153.447 126.896 152.876 127.412 152.501C127.945 152.12 128.587 151.93 129.337 151.93C129.507 151.93 129.633 151.936 129.715 151.947C129.779 151.953 129.838 151.959 129.891 151.965C129.943 151.965 130.011 151.971 130.093 151.982L129.794 154.83C129.577 154.76 129.39 154.71 129.231 154.681C128.997 154.657 128.824 154.646 128.713 154.646C127.951 154.646 127.362 154.88 126.946 155.349C126.536 155.812 126.331 156.471 126.331 157.326V161H123.22ZM138.021 156.553C138.021 155.85 137.836 155.305 137.467 154.918C137.092 154.508 136.588 154.303 135.955 154.303C135.322 154.303 134.824 154.502 134.461 154.9C134.086 155.311 133.898 155.861 133.898 156.553C133.898 157.25 134.086 157.798 134.461 158.196C134.818 158.589 135.316 158.785 135.955 158.785C136.588 158.785 137.089 158.589 137.458 158.196C137.833 157.804 138.021 157.256 138.021 156.553ZM140.771 152.123V161H137.897V159.559C137.481 160.174 137.016 160.625 136.5 160.912C135.99 161.199 135.393 161.343 134.707 161.343C133.518 161.343 132.571 160.909 131.868 160.042C131.522 159.614 131.259 159.11 131.077 158.53C130.896 157.95 130.805 157.297 130.805 156.57C130.805 155.117 131.177 153.966 131.921 153.116C132.665 152.267 133.661 151.842 134.909 151.842C135.577 151.842 136.151 151.985 136.632 152.272C137.118 152.548 137.534 152.984 137.88 153.582V152.123H140.771ZM148.91 154.092H147.434V152.958H148.91V149.715H150.316V152.958H151.793V154.092H150.316V161H148.91V154.092ZM154.649 152.958V156.913C154.649 158.067 154.819 158.876 155.159 159.339C155.505 159.796 156.085 160.024 156.899 160.024C157.714 160.024 158.288 159.799 158.622 159.348C158.962 158.891 159.132 158.079 159.132 156.913V152.958H160.538V157.651C160.538 158.864 160.228 159.784 159.606 160.411C158.985 161.032 158.071 161.343 156.864 161.343C155.669 161.343 154.761 161.029 154.14 160.402C153.519 159.775 153.208 158.858 153.208 157.651V152.958H154.649ZM162.349 159.646L163.526 158.855C163.749 159.283 164.03 159.605 164.37 159.822C164.71 160.033 165.111 160.139 165.574 160.139C166.025 160.139 166.389 160.027 166.664 159.805C166.945 159.582 167.086 159.289 167.086 158.926C167.086 158.645 166.989 158.41 166.796 158.223C166.608 158.035 166.283 157.862 165.82 157.704C165.773 157.687 165.697 157.66 165.592 157.625C163.635 156.951 162.656 156.107 162.656 155.094C162.656 154.379 162.92 153.796 163.447 153.345C163.975 152.894 164.66 152.668 165.504 152.668C166.201 152.668 166.799 152.809 167.297 153.09C167.795 153.365 168.152 153.758 168.369 154.268L167.253 154.953C167.089 154.584 166.846 154.3 166.523 154.101C166.207 153.901 165.838 153.802 165.416 153.802C165.012 153.802 164.681 153.916 164.423 154.145C164.171 154.367 164.045 154.654 164.045 155.006C164.045 155.498 164.578 155.911 165.645 156.245C165.844 156.31 166.002 156.359 166.119 156.395C166.992 156.676 167.599 156.998 167.938 157.361C168.284 157.719 168.457 158.193 168.457 158.785C168.457 159.547 168.185 160.165 167.64 160.64C167.101 161.108 166.395 161.343 165.521 161.343C164.771 161.343 164.133 161.202 163.605 160.921C163.084 160.64 162.665 160.215 162.349 159.646ZM175.857 161V152.958H177.079V154.628C177.448 153.931 177.841 153.433 178.257 153.134C178.673 152.835 179.18 152.686 179.777 152.686C179.941 152.686 180.1 152.7 180.252 152.729C180.404 152.753 180.557 152.791 180.709 152.844L180.252 154.083C180.094 154.03 179.944 153.992 179.804 153.969C179.663 153.939 179.528 153.925 179.399 153.925C178.673 153.925 178.128 154.188 177.765 154.716C177.401 155.237 177.22 156.025 177.22 157.08V161H175.857ZM187.872 156.069C187.825 155.36 187.588 154.815 187.16 154.435C186.738 154.048 186.158 153.854 185.42 153.854C184.752 153.854 184.195 154.057 183.75 154.461C183.305 154.859 183.047 155.396 182.977 156.069H187.872ZM189.349 157.186H182.977V157.309C182.977 158.17 183.223 158.867 183.715 159.4C184.207 159.928 184.849 160.191 185.64 160.191C186.179 160.191 186.665 160.048 187.099 159.761C187.532 159.468 187.916 159.028 188.25 158.442L189.296 159.146C188.892 159.872 188.376 160.42 187.749 160.789C187.122 161.158 186.396 161.343 185.569 161.343C184.345 161.343 183.354 160.938 182.599 160.13C181.843 159.321 181.465 158.261 181.465 156.948C181.465 155.688 181.84 154.657 182.59 153.854C183.34 153.052 184.304 152.65 185.481 152.65C186.671 152.65 187.611 153.031 188.303 153.793C189 154.555 189.349 155.595 189.349 156.913V157.186ZM197.602 159.093V160.692C197.238 160.909 196.828 161.07 196.371 161.176C195.92 161.287 195.431 161.343 194.903 161.343C193.661 161.343 192.659 160.95 191.897 160.165C191.142 159.374 190.764 158.337 190.764 157.054C190.764 155.765 191.156 154.713 191.941 153.898C192.727 153.078 193.731 152.668 194.956 152.668C195.401 152.668 195.835 152.715 196.257 152.809C196.685 152.902 197.086 153.04 197.461 153.222V154.698C197.109 154.47 196.746 154.297 196.371 154.18C195.996 154.057 195.615 153.995 195.229 153.995C194.326 153.995 193.603 154.279 193.058 154.848C192.513 155.41 192.24 156.16 192.24 157.098C192.24 157.924 192.513 158.615 193.058 159.172C193.608 159.729 194.297 160.007 195.123 160.007C195.539 160.007 195.946 159.934 196.345 159.787C196.743 159.641 197.162 159.409 197.602 159.093ZM200.81 152.958V156.913C200.81 158.067 200.979 158.876 201.319 159.339C201.665 159.796 202.245 160.024 203.06 160.024C203.874 160.024 204.448 159.799 204.782 159.348C205.122 158.891 205.292 158.079 205.292 156.913V152.958H206.698V157.651C206.698 158.864 206.388 159.784 205.767 160.411C205.146 161.032 204.231 161.343 203.024 161.343C201.829 161.343 200.921 161.029 200.3 160.402C199.679 159.775 199.368 158.858 199.368 157.651V152.958H200.81ZM209.379 161V152.958H210.601V154.628C210.97 153.931 211.362 153.433 211.778 153.134C212.194 152.835 212.701 152.686 213.299 152.686C213.463 152.686 213.621 152.7 213.773 152.729C213.926 152.753 214.078 152.791 214.23 152.844L213.773 154.083C213.615 154.03 213.466 153.992 213.325 153.969C213.185 153.939 213.05 153.925 212.921 153.925C212.194 153.925 211.649 154.188 211.286 154.716C210.923 155.237 210.741 156.025 210.741 157.08V161H209.379ZM214.837 159.646L216.015 158.855C216.237 159.283 216.519 159.605 216.858 159.822C217.198 160.033 217.6 160.139 218.062 160.139C218.514 160.139 218.877 160.027 219.152 159.805C219.434 159.582 219.574 159.289 219.574 158.926C219.574 158.645 219.478 158.41 219.284 158.223C219.097 158.035 218.771 157.862 218.309 157.704C218.262 157.687 218.186 157.66 218.08 157.625C216.123 156.951 215.145 156.107 215.145 155.094C215.145 154.379 215.408 153.796 215.936 153.345C216.463 152.894 217.148 152.668 217.992 152.668C218.689 152.668 219.287 152.809 219.785 153.09C220.283 153.365 220.641 153.758 220.857 154.268L219.741 154.953C219.577 154.584 219.334 154.3 219.012 154.101C218.695 153.901 218.326 153.802 217.904 153.802C217.5 153.802 217.169 153.916 216.911 154.145C216.659 154.367 216.533 154.654 216.533 155.006C216.533 155.498 217.066 155.911 218.133 156.245C218.332 156.31 218.49 156.359 218.607 156.395C219.48 156.676 220.087 156.998 220.427 157.361C220.772 157.719 220.945 158.193 220.945 158.785C220.945 159.547 220.673 160.165 220.128 160.64C219.589 161.108 218.883 161.343 218.01 161.343C217.26 161.343 216.621 161.202 216.094 160.921C215.572 160.64 215.153 160.215 214.837 159.646ZM223.828 157.001C223.828 157.851 224.112 158.571 224.681 159.163C225.249 159.749 225.938 160.042 226.746 160.042C227.549 160.042 228.231 159.749 228.794 159.163C229.356 158.571 229.638 157.851 229.638 157.001C229.638 156.151 229.356 155.434 228.794 154.848C228.231 154.256 227.549 153.96 226.746 153.96C225.932 153.96 225.24 154.256 224.672 154.848C224.109 155.434 223.828 156.151 223.828 157.001ZM222.369 157.001C222.369 156.409 222.478 155.853 222.694 155.331C222.911 154.804 223.228 154.335 223.644 153.925C224.06 153.515 224.531 153.204 225.059 152.993C225.586 152.776 226.148 152.668 226.746 152.668C227.332 152.668 227.886 152.776 228.407 152.993C228.935 153.21 229.412 153.526 229.84 153.942C230.256 154.347 230.572 154.812 230.789 155.34C231.006 155.861 231.114 156.415 231.114 157.001C231.114 157.587 231.006 158.141 230.789 158.662C230.572 159.178 230.256 159.638 229.84 160.042C229.412 160.464 228.932 160.786 228.398 161.009C227.871 161.231 227.32 161.343 226.746 161.343C226.154 161.343 225.592 161.231 225.059 161.009C224.531 160.792 224.06 160.479 223.644 160.068C223.228 159.646 222.911 159.178 222.694 158.662C222.478 158.146 222.369 157.593 222.369 157.001ZM232.415 159.646L233.593 158.855C233.815 159.283 234.097 159.605 234.437 159.822C234.776 160.033 235.178 160.139 235.641 160.139C236.092 160.139 236.455 160.027 236.73 159.805C237.012 159.582 237.152 159.289 237.152 158.926C237.152 158.645 237.056 158.41 236.862 158.223C236.675 158.035 236.35 157.862 235.887 157.704C235.84 157.687 235.764 157.66 235.658 157.625C233.701 156.951 232.723 156.107 232.723 155.094C232.723 154.379 232.986 153.796 233.514 153.345C234.041 152.894 234.727 152.668 235.57 152.668C236.268 152.668 236.865 152.809 237.363 153.09C237.861 153.365 238.219 153.758 238.436 154.268L237.319 154.953C237.155 154.584 236.912 154.3 236.59 154.101C236.273 153.901 235.904 153.802 235.482 153.802C235.078 153.802 234.747 153.916 234.489 154.145C234.237 154.367 234.111 154.654 234.111 155.006C234.111 155.498 234.645 155.911 235.711 156.245C235.91 156.31 236.068 156.359 236.186 156.395C237.059 156.676 237.665 156.998 238.005 157.361C238.351 157.719 238.523 158.193 238.523 158.785C238.523 159.547 238.251 160.165 237.706 160.64C237.167 161.108 236.461 161.343 235.588 161.343C234.838 161.343 234.199 161.202 233.672 160.921C233.15 160.64 232.731 160.215 232.415 159.646ZM252.059 157.019C252.059 156.122 251.81 155.401 251.312 154.856C250.813 154.306 250.157 154.03 249.343 154.03C248.528 154.03 247.893 154.279 247.436 154.777C246.979 155.275 246.75 155.964 246.75 156.843C246.75 157.833 246.981 158.609 247.444 159.172C247.907 159.729 248.546 160.007 249.36 160.007C250.204 160.007 250.863 159.743 251.338 159.216C251.818 158.688 252.059 157.956 252.059 157.019ZM253.395 147.377V161H252.059V159.541C251.742 160.121 251.332 160.566 250.828 160.877C250.324 161.188 249.762 161.343 249.141 161.343C247.986 161.343 247.055 160.947 246.346 160.156C245.643 159.359 245.291 158.308 245.291 157.001C245.291 155.683 245.637 154.631 246.328 153.846C247.02 153.061 247.939 152.668 249.088 152.668C249.756 152.668 250.336 152.82 250.828 153.125C251.32 153.424 251.719 153.872 252.023 154.47V147.377H253.395ZM261.911 156.069C261.864 155.36 261.627 154.815 261.199 154.435C260.777 154.048 260.197 153.854 259.459 153.854C258.791 153.854 258.234 154.057 257.789 154.461C257.344 154.859 257.086 155.396 257.016 156.069H261.911ZM263.388 157.186H257.016V157.309C257.016 158.17 257.262 158.867 257.754 159.4C258.246 159.928 258.888 160.191 259.679 160.191C260.218 160.191 260.704 160.048 261.138 159.761C261.571 159.468 261.955 159.028 262.289 158.442L263.335 159.146C262.931 159.872 262.415 160.42 261.788 160.789C261.161 161.158 260.435 161.343 259.608 161.343C258.384 161.343 257.394 160.938 256.638 160.13C255.882 159.321 255.504 158.261 255.504 156.948C255.504 155.688 255.879 154.657 256.629 153.854C257.379 153.052 258.343 152.65 259.521 152.65C260.71 152.65 261.65 153.031 262.342 153.793C263.039 154.555 263.388 155.595 263.388 156.913V157.186ZM281.977 161V156.263C281.977 155.448 281.812 154.845 281.484 154.452C281.156 154.054 280.652 153.854 279.973 153.854C279.604 153.854 279.261 153.931 278.944 154.083C278.634 154.229 278.37 154.44 278.153 154.716C277.995 154.927 277.881 155.173 277.811 155.454C277.74 155.735 277.705 156.198 277.705 156.843V161H276.378V156.263C276.378 155.448 276.214 154.845 275.886 154.452C275.558 154.054 275.054 153.854 274.374 153.854C274.005 153.854 273.659 153.931 273.337 154.083C273.021 154.229 272.754 154.44 272.537 154.716C272.385 154.921 272.273 155.158 272.203 155.428C272.139 155.697 272.106 156.169 272.106 156.843V161H270.779V152.958H272.124V154.197C272.458 153.682 272.856 153.298 273.319 153.046C273.782 152.794 274.315 152.668 274.919 152.668C275.569 152.668 276.123 152.809 276.58 153.09C277.037 153.365 277.383 153.77 277.617 154.303C277.963 153.752 278.37 153.342 278.839 153.072C279.313 152.803 279.861 152.668 280.482 152.668C281.379 152.668 282.079 152.92 282.583 153.424C283.087 153.928 283.339 154.628 283.339 155.524V161H281.977ZM292.207 157.054C292.207 156.146 291.958 155.416 291.46 154.865C290.968 154.309 290.323 154.03 289.526 154.03C288.7 154.03 288.056 154.285 287.593 154.795C287.13 155.305 286.898 156.017 286.898 156.931C286.898 157.903 287.13 158.653 287.593 159.181C288.062 159.708 288.724 159.972 289.579 159.972C290.399 159.972 291.041 159.717 291.504 159.207C291.973 158.691 292.207 157.974 292.207 157.054ZM293.543 152.958V161H292.207V159.541C291.885 160.127 291.472 160.575 290.968 160.886C290.47 161.19 289.91 161.343 289.289 161.343C288.135 161.343 287.203 160.947 286.494 160.156C285.791 159.359 285.439 158.308 285.439 157.001C285.439 155.677 285.782 154.625 286.468 153.846C287.153 153.061 288.07 152.668 289.219 152.668C289.893 152.668 290.476 152.82 290.968 153.125C291.466 153.424 291.867 153.872 292.172 154.47V152.958H293.543ZM296.303 161V152.958H297.647V154.197C297.993 153.682 298.409 153.298 298.896 153.046C299.382 152.794 299.944 152.668 300.583 152.668C301.532 152.668 302.273 152.92 302.807 153.424C303.34 153.928 303.606 154.628 303.606 155.524V161H302.2V156.263C302.2 155.448 302.027 154.845 301.682 154.452C301.342 154.054 300.814 153.854 300.1 153.854C299.689 153.854 299.314 153.931 298.975 154.083C298.641 154.229 298.362 154.44 298.14 154.716C297.97 154.927 297.847 155.167 297.771 155.437C297.7 155.706 297.665 156.175 297.665 156.843V161H296.303ZM312.044 156.069C311.997 155.36 311.76 154.815 311.332 154.435C310.91 154.048 310.33 153.854 309.592 153.854C308.924 153.854 308.367 154.057 307.922 154.461C307.477 154.859 307.219 155.396 307.148 156.069H312.044ZM313.521 157.186H307.148V157.309C307.148 158.17 307.395 158.867 307.887 159.4C308.379 159.928 309.021 160.191 309.812 160.191C310.351 160.191 310.837 160.048 311.271 159.761C311.704 159.468 312.088 159.028 312.422 158.442L313.468 159.146C313.063 159.872 312.548 160.42 311.921 160.789C311.294 161.158 310.567 161.343 309.741 161.343C308.517 161.343 307.526 160.938 306.771 160.13C306.015 159.321 305.637 158.261 305.637 156.948C305.637 155.688 306.012 154.657 306.762 153.854C307.512 153.052 308.476 152.65 309.653 152.65C310.843 152.65 311.783 153.031 312.475 153.793C313.172 154.555 313.521 155.595 313.521 156.913V157.186ZM315.621 161V152.958H316.843V154.628C317.212 153.931 317.604 153.433 318.021 153.134C318.437 152.835 318.943 152.686 319.541 152.686C319.705 152.686 319.863 152.7 320.016 152.729C320.168 152.753 320.32 152.791 320.473 152.844L320.016 154.083C319.857 154.03 319.708 153.992 319.567 153.969C319.427 153.939 319.292 153.925 319.163 153.925C318.437 153.925 317.892 154.188 317.528 154.716C317.165 155.237 316.983 156.025 316.983 157.08V161H315.621ZM328.084 157.054C328.084 156.146 327.835 155.416 327.337 154.865C326.845 154.309 326.2 154.03 325.403 154.03C324.577 154.03 323.933 154.285 323.47 154.795C323.007 155.305 322.775 156.017 322.775 156.931C322.775 157.903 323.007 158.653 323.47 159.181C323.938 159.708 324.601 159.972 325.456 159.972C326.276 159.972 326.918 159.717 327.381 159.207C327.85 158.691 328.084 157.974 328.084 157.054ZM329.42 152.958V161H328.084V159.541C327.762 160.127 327.349 160.575 326.845 160.886C326.347 161.19 325.787 161.343 325.166 161.343C324.012 161.343 323.08 160.947 322.371 160.156C321.668 159.359 321.316 158.308 321.316 157.001C321.316 155.677 321.659 154.625 322.345 153.846C323.03 153.061 323.947 152.668 325.096 152.668C325.77 152.668 326.353 152.82 326.845 153.125C327.343 153.424 327.744 153.872 328.049 154.47V152.958H329.42ZM343.351 155.419C343.298 154.927 343.107 154.525 342.779 154.215C342.451 153.904 342.05 153.749 341.575 153.749C341.077 153.749 340.673 153.887 340.362 154.162C340.04 154.473 339.838 154.892 339.756 155.419H343.351ZM346.436 157.186H339.686C339.703 157.877 339.876 158.404 340.204 158.768C340.544 159.143 341.036 159.33 341.681 159.33C342.149 159.33 342.551 159.239 342.885 159.058C343.225 158.864 343.471 158.601 343.623 158.267L345.979 159.216C345.703 159.89 345.205 160.411 344.484 160.78C343.77 161.155 342.894 161.343 341.856 161.343C340.31 161.343 339.067 160.909 338.13 160.042C337.198 159.198 336.732 158.07 336.732 156.658C336.732 155.281 337.198 154.13 338.13 153.204C339.062 152.296 340.245 151.842 341.681 151.842C343.146 151.842 344.303 152.302 345.152 153.222C345.586 153.696 345.908 154.25 346.119 154.883C346.33 155.51 346.436 156.228 346.436 157.036V157.186ZM348.545 161V154.338H347.209V152.123H348.545V150.304C348.545 149.278 348.826 148.499 349.389 147.966C349.945 147.45 350.786 147.192 351.911 147.192C351.987 147.192 352.178 147.204 352.482 147.228C352.811 147.28 353.045 147.324 353.186 147.359V149.75C353.08 149.709 352.948 149.668 352.79 149.627C352.626 149.604 352.518 149.592 352.465 149.592C352.16 149.592 351.946 149.68 351.823 149.855C351.688 150.043 351.621 150.327 351.621 150.708V152.123H353.186V154.338H351.621V161H348.545ZM354.495 161V152.123H357.624V161H354.495ZM354.891 149.838H354.908C354.908 149.51 355.022 149.24 355.251 149.029C355.479 148.801 355.755 148.687 356.077 148.687C356.417 148.687 356.695 148.795 356.912 149.012C357.135 149.229 357.246 149.504 357.246 149.838C357.246 150.178 357.132 150.459 356.903 150.682C356.681 150.91 356.405 151.024 356.077 151.024C355.743 151.024 355.462 150.904 355.233 150.664C355.005 150.441 354.891 150.166 354.891 149.838ZM366.562 155.041C366.258 154.771 365.965 154.575 365.684 154.452C365.432 154.329 365.136 154.268 364.796 154.268C364.169 154.268 363.677 154.473 363.319 154.883C362.95 155.287 362.766 155.844 362.766 156.553C362.766 157.232 362.956 157.771 363.337 158.17C363.706 158.58 364.219 158.785 364.875 158.785C365.186 158.785 365.484 158.721 365.771 158.592C366.076 158.445 366.34 158.252 366.562 158.012V160.728C366.188 160.927 365.81 161.085 365.429 161.202C365.024 161.296 364.641 161.343 364.277 161.343C362.906 161.343 361.802 160.903 360.964 160.024C360.677 159.731 360.439 159.409 360.252 159.058C360.07 158.706 359.93 158.325 359.83 157.915C359.736 157.505 359.689 157.057 359.689 156.57C359.689 155.17 360.117 154.033 360.973 153.16C361.834 152.281 362.947 151.842 364.312 151.842C364.74 151.842 365.147 151.889 365.534 151.982C365.909 152.076 366.252 152.214 366.562 152.396V155.041ZM368.417 161V152.123H371.546V161H368.417ZM368.812 149.838H368.83C368.83 149.51 368.944 149.24 369.173 149.029C369.401 148.801 369.677 148.687 369.999 148.687C370.339 148.687 370.617 148.795 370.834 149.012C371.057 149.229 371.168 149.504 371.168 149.838C371.168 150.178 371.054 150.459 370.825 150.682C370.603 150.91 370.327 151.024 369.999 151.024C369.665 151.024 369.384 150.904 369.155 150.664C368.927 150.441 368.812 150.166 368.812 149.838ZM380.229 155.419C380.177 154.927 379.986 154.525 379.658 154.215C379.33 153.904 378.929 153.749 378.454 153.749C377.956 153.749 377.552 153.887 377.241 154.162C376.919 154.473 376.717 154.892 376.635 155.419H380.229ZM383.314 157.186H376.564C376.582 157.877 376.755 158.404 377.083 158.768C377.423 159.143 377.915 159.33 378.56 159.33C379.028 159.33 379.43 159.239 379.764 159.058C380.104 158.864 380.35 158.601 380.502 158.267L382.857 159.216C382.582 159.89 382.084 160.411 381.363 160.78C380.648 161.155 379.772 161.343 378.735 161.343C377.188 161.343 375.946 160.909 375.009 160.042C374.077 159.198 373.611 158.07 373.611 156.658C373.611 155.281 374.077 154.13 375.009 153.204C375.94 152.296 377.124 151.842 378.56 151.842C380.024 151.842 381.182 152.302 382.031 153.222C382.465 153.696 382.787 154.25 382.998 154.883C383.209 155.51 383.314 156.228 383.314 157.036V157.186ZM385.116 161V152.123H387.981V153.925C388.386 153.222 388.866 152.694 389.423 152.343C389.962 152.009 390.615 151.842 391.383 151.842C391.963 151.842 392.479 151.93 392.93 152.105C393.375 152.305 393.735 152.574 394.011 152.914C394.263 153.254 394.43 153.614 394.512 153.995C394.611 154.481 394.661 155.123 394.661 155.92V161H391.523V156.245C391.523 155.524 391.409 155.009 391.181 154.698C390.952 154.376 390.58 154.215 390.064 154.215C389.42 154.215 388.945 154.455 388.641 154.936C388.342 155.416 388.192 156.195 388.192 157.273V161H385.116ZM397.377 161L397.359 154.338H396.032V152.123H397.359V149.478H400.462V152.123H401.771V154.338H400.462V161H397.377ZM409.356 155.419C409.304 154.927 409.113 154.525 408.785 154.215C408.457 153.904 408.056 153.749 407.581 153.749C407.083 153.749 406.679 153.887 406.368 154.162C406.046 154.473 405.844 154.892 405.762 155.419H409.356ZM412.441 157.186H405.691C405.709 157.877 405.882 158.404 406.21 158.768C406.55 159.143 407.042 159.33 407.687 159.33C408.155 159.33 408.557 159.239 408.891 159.058C409.23 158.864 409.477 158.601 409.629 158.267L411.984 159.216C411.709 159.89 411.211 160.411 410.49 160.78C409.775 161.155 408.899 161.343 407.862 161.343C406.315 161.343 405.073 160.909 404.136 160.042C403.204 159.198 402.738 158.07 402.738 156.658C402.738 155.281 403.204 154.13 404.136 153.204C405.067 152.296 406.251 151.842 407.687 151.842C409.151 151.842 410.309 152.302 411.158 153.222C411.592 153.696 411.914 154.25 412.125 154.883C412.336 155.51 412.441 156.228 412.441 157.036V157.186Z" fill="white"/>
<path d="M37.648 5.808H30.592V42H47.632V35.856H37.648V5.808ZM72.8725 34.368L75.6565 42H83.1925L69.4645 4.848H63.9925L49.8805 42H57.3205L60.2965 34.368H72.8725ZM70.9045 28.608H62.3125L66.2965 15.456H66.3925L70.9045 28.608ZM129.409 6.96C126.961 5.616 124.177 4.848 121.345 4.848C110.737 4.848 103.489 13.92 103.489 24.192C103.489 34.176 111.025 42.96 121.201 42.96C124.129 42.96 126.769 42.048 129.409 40.8V32.4C127.441 34.656 124.417 36.24 121.393 36.24C114.817 36.24 110.785 30.144 110.785 24.048C110.785 17.808 114.673 11.568 121.441 11.568C124.465 11.568 127.441 13.008 129.409 15.408V6.96ZM136.853 27.456C136.853 36.288 140.597 42.96 150.293 42.96C159.989 42.96 163.733 36.288 163.733 27.456V5.808H156.677V26.064C156.677 30.528 156.293 36.816 150.293 36.816C144.293 36.816 143.909 30.528 143.909 26.064V5.808H136.853V27.456ZM190.453 11.952V5.808H171.733V42H190.453V35.856H178.789V26.064H190.021V19.92H178.789V11.952H190.453ZM198.17 42H205.226V17.424H205.322L224.378 42.72H229.466V5.808H222.41V30.144H222.314L203.258 4.848H198.17V42ZM249.352 11.952H256.648V5.808H235V11.952H242.296V42H249.352V11.952ZM278.373 34.368L281.156 42H288.693L274.965 4.848H269.493L255.38 42H262.821L265.797 34.368H278.373ZM276.405 28.608H267.812L271.797 15.456H271.893L276.405 28.608ZM345.469 42.816L340.525 36.96C343.309 33.36 344.797 28.752 344.797 23.856C344.797 13.728 337.453 4.848 326.893 4.848C316.333 4.848 308.989 13.728 308.989 23.856C308.989 34.224 316.333 42.96 326.893 42.96C330.205 42.96 333.421 42.144 335.869 40.512L338.365 43.536L345.469 42.816ZM332.029 27.504L324.733 28.08L330.685 34.944C329.725 35.568 328.189 36.144 326.893 36.144C319.981 36.144 316.285 30.288 316.285 24.288C316.285 18.048 320.029 11.568 326.893 11.568C333.229 11.568 337.501 17.808 337.501 23.664C337.501 26.16 336.829 29.184 335.245 31.152L332.029 27.504ZM351.072 27.456C351.072 36.288 354.816 42.96 364.512 42.96C374.208 42.96 377.952 36.288 377.952 27.456V5.808H370.896V26.064C370.896 30.528 370.512 36.816 364.512 36.816C358.512 36.816 358.128 30.528 358.128 26.064V5.808H351.072V27.456ZM404.671 11.952V5.808H385.951V42H404.671V35.856H393.007V26.064H404.239V19.92H393.007V11.952H404.671ZM441.024 11.952H448.32V5.808H426.672V11.952H433.968V42H441.024V11.952ZM453.728 27.456C453.728 36.288 457.472 42.96 467.168 42.96C476.864 42.96 480.608 36.288 480.608 27.456V5.808H473.552V26.064C473.552 30.528 473.168 36.816 467.168 36.816C461.168 36.816 460.784 30.528 460.784 26.064V5.808H453.728V27.456ZM49.312 59.952V53.808H30.592V90H49.312V83.856H37.648V74.064H48.88V67.92H37.648V59.952H49.312ZM86.9335 90H94.0375L88.6135 52.848H83.5255L74.9815 76.704L66.0535 52.848H61.0615L54.9655 90H62.0695L65.2855 67.536H65.3815L73.3015 90.48H75.7495L83.9575 67.536H84.0535L86.9335 90ZM107.211 76.464H110.715C118.107 76.464 122.283 72.72 122.283 65.04C122.283 56.832 117.339 53.808 109.755 53.808H100.155V90H107.211V76.464ZM107.211 59.664H108.459C112.395 59.664 115.083 60.336 115.083 64.992C115.083 69.696 112.827 70.608 108.651 70.608H107.211V59.664ZM142.77 74.736C147.618 73.92 150.162 69.312 150.162 64.704C150.162 56.976 145.218 53.808 138.066 53.808H128.514V90H135.57V75.408H135.666L144.45 90H152.994L142.77 74.736ZM135.57 59.568H136.53C140.274 59.568 143.106 60.432 143.106 64.896C143.106 69.312 140.37 70.464 136.482 70.464H135.57V59.568ZM177 59.952V53.808H158.28V90H177V83.856H165.336V74.064H176.568V67.92H165.336V59.952H177ZM205.069 56.88C202.861 54.432 198.397 52.848 195.181 52.848C189.085 52.848 184.621 57.696 184.621 63.696C184.621 69.312 188.029 71.664 192.685 73.584C195.517 74.688 198.973 75.744 198.973 79.488C198.973 82.272 197.197 84.72 194.317 84.72C191.293 84.72 188.749 82.224 187.789 79.44L183.229 83.904C185.725 88.08 189.373 90.96 194.365 90.96C201.757 90.96 206.269 85.824 206.269 78.576C206.269 66.432 191.917 68.976 191.917 62.88C191.917 60.528 194.077 58.8 196.333 58.8C198.685 58.8 200.413 59.952 201.757 61.776L205.069 56.88ZM232.951 82.368L235.735 90H243.271L229.543 52.848H224.071L209.959 90H217.399L220.375 82.368H232.951ZM230.983 76.608H222.391L226.375 63.456H226.471L230.983 76.608ZM265.295 90H272.351V65.424H272.447L291.503 90.72H296.591V53.808H289.535V78.144H289.439L270.383 52.848H265.295V90ZM323.437 59.952V53.808H304.717V90H323.437V83.856H311.773V74.064H323.005V67.92H311.773V59.952H323.437ZM355.347 54.96C352.899 53.616 350.115 52.848 347.283 52.848C336.675 52.848 329.427 61.92 329.427 72.192C329.427 82.176 336.963 90.96 347.139 90.96C350.067 90.96 352.707 90.048 355.347 88.8V80.4C353.379 82.656 350.355 84.24 347.331 84.24C340.755 84.24 336.723 78.144 336.723 72.048C336.723 65.808 340.611 59.568 347.379 59.568C350.403 59.568 353.379 61.008 355.347 63.408V54.96ZM381.703 59.952V53.808H362.983V90H381.703V83.856H370.039V74.064H381.271V67.92H370.039V59.952H381.703ZM409.772 56.88C407.564 54.432 403.1 52.848 399.884 52.848C393.788 52.848 389.324 57.696 389.324 63.696C389.324 69.312 392.732 71.664 397.388 73.584C400.22 74.688 403.676 75.744 403.676 79.488C403.676 82.272 401.9 84.72 399.02 84.72C395.996 84.72 393.452 82.224 392.492 79.44L387.932 83.904C390.428 88.08 394.076 90.96 399.068 90.96C406.46 90.96 410.972 85.824 410.972 78.576C410.972 66.432 396.62 68.976 396.62 62.88C396.62 60.528 398.78 58.8 401.036 58.8C403.388 58.8 405.116 59.952 406.46 61.776L409.772 56.88ZM424.742 53.808H417.686V90H424.742V53.808ZM444.633 59.952H451.929V53.808H430.281V59.952H437.577V90H444.633V59.952ZM473.654 82.368L476.438 90H483.974L470.246 52.848H464.774L450.662 90H458.102L461.078 82.368H473.654ZM471.686 76.608H463.094L467.078 63.456H467.174L471.686 76.608Z" fill="white"/>
</svg>
