<svg width="495" height="180" viewBox="0 0 495 180" fill="none" xmlns="http://www.w3.org/2000/svg">
<path d="M35.4531 26.875H38.1719C40.7344 26.875 42.599 26.2917 43.7656 25.125C44.9427 23.9583 45.5312 22.1094 45.5312 19.5781C45.5312 17.0573 44.9427 15.2135 43.7656 14.0469C42.599 12.8698 40.7344 12.2812 38.1719 12.2812H35.4531V26.875ZM30.5625 31V8.125H36.7969C39.2552 8.125 41.1927 8.29688 42.6094 8.64062C44.026 8.98438 45.2708 9.55729 46.3438 10.3594C47.7292 11.3906 48.776 12.6927 49.4844 14.2656C50.2031 15.8281 50.5625 17.6094 50.5625 19.6094C50.5625 21.6406 50.1979 23.4427 49.4688 25.0156C48.7396 26.5781 47.6719 27.8698 46.2656 28.8906C45.224 29.6406 44.0625 30.1823 42.7812 30.5156C41.5104 30.8385 39.6458 31 37.1875 31H35.4531H30.5625ZM54.75 31V8.125H59.6406V31H54.75ZM63.4062 28.0938L66.125 25.0156C66.4688 25.8594 67.0208 26.526 67.7812 27.0156C68.5417 27.4948 69.3958 27.7344 70.3438 27.7344C71.4896 27.7344 72.3958 27.4635 73.0625 26.9219C73.7292 26.3802 74.0625 25.651 74.0625 24.7344C74.0625 23.651 72.9531 22.5729 70.7344 21.5C70.0156 21.1562 69.4479 20.875 69.0312 20.6562C67.0312 19.6146 65.6458 18.599 64.875 17.6094C64.1042 16.6094 63.7188 15.4219 63.7188 14.0469C63.7188 12.1615 64.4635 10.6146 65.9531 9.40625C67.4531 8.1875 69.3958 7.57812 71.7812 7.57812C73.1667 7.57812 74.3594 7.82292 75.3594 8.3125C76.3698 8.79167 77.2604 9.54688 78.0312 10.5781L75.1406 13.3438C74.7969 12.6771 74.3385 12.1823 73.7656 11.8594C73.2031 11.526 72.5208 11.3594 71.7188 11.3594C70.75 11.3594 69.9688 11.6042 69.375 12.0938C68.7812 12.5729 68.4844 13.1979 68.4844 13.9688C68.4844 15.1771 69.6615 16.2812 72.0156 17.2812C72.4844 17.4792 72.8438 17.6354 73.0938 17.75C75.0312 18.6354 76.4635 19.6354 77.3906 20.75C78.3281 21.8646 78.7969 23.1354 78.7969 24.5625C78.7969 26.7083 78.0625 28.4219 76.5938 29.7031C75.1354 30.974 73.1719 31.6094 70.7031 31.6094C68.9531 31.6094 67.4531 31.3073 66.2031 30.7031C64.9531 30.099 64.0208 29.2292 63.4062 28.0938ZM82.8125 31V8.125H96.2812V12.25H87.7031V16.9531H96.2812V21.1094H87.7031V26.8438H96.2812V31H82.8125ZM101.094 31V8.125H106.172L116.297 21.4375C116.589 21.8125 116.906 22.3438 117.25 23.0312C117.604 23.7083 117.969 24.5104 118.344 25.4375C118.229 24.7604 118.146 24.0885 118.094 23.4219C118.042 22.7552 118.016 21.9219 118.016 20.9219V8.125H122.688V31H117.891L107.484 17.4375C107.193 17.0625 106.875 16.5365 106.531 15.8594C106.188 15.1719 105.823 14.3542 105.438 13.4062C105.552 14.0625 105.635 14.7292 105.688 15.4062C105.74 16.0729 105.766 16.9167 105.766 17.9375V31H101.094ZM116.828 0.953125C116.536 2.27604 116.13 3.23958 115.609 3.84375C115.089 4.4375 114.411 4.73438 113.578 4.73438C113.359 4.73438 113.156 4.72396 112.969 4.70312C112.781 4.67188 112.594 4.625 112.406 4.5625L111.047 4.15625C110.828 4.09375 110.641 4.05208 110.484 4.03125C110.328 4.01042 110.172 4 110.016 4C109.661 4 109.375 4.09896 109.156 4.29688C108.938 4.48438 108.766 4.78646 108.641 5.20312H106.922C107.193 3.93229 107.583 3.00521 108.094 2.42188C108.615 1.82812 109.286 1.53125 110.109 1.53125C110.297 1.53125 110.505 1.55208 110.734 1.59375C110.964 1.625 111.203 1.67708 111.453 1.75L112.906 2.14062C113.031 2.18229 113.161 2.21354 113.297 2.23438C113.443 2.25521 113.599 2.26562 113.766 2.26562C114.109 2.26562 114.391 2.16146 114.609 1.95312C114.828 1.73438 114.995 1.40104 115.109 0.953125H116.828ZM139.625 22.2969L137.062 14.9062C136.99 14.6875 136.896 14.3125 136.781 13.7812C136.667 13.25 136.547 12.599 136.422 11.8281C136.286 12.5677 136.156 13.2344 136.031 13.8281C135.906 14.4115 135.812 14.8021 135.75 15L133.281 22.2969H139.625ZM125.062 31L133.766 8.125H139.359L148.188 31H142.625L140.766 26.1406H131.906L130.312 31H125.062ZM155.484 26.875H158.203C160.766 26.875 162.63 26.2917 163.797 25.125C164.974 23.9583 165.562 22.1094 165.562 19.5781C165.562 17.0573 164.974 15.2135 163.797 14.0469C162.63 12.8698 160.766 12.2812 158.203 12.2812H155.484V26.875ZM150.594 31V8.125H156.828C159.286 8.125 161.224 8.29688 162.641 8.64062C164.057 8.98438 165.302 9.55729 166.375 10.3594C167.76 11.3906 168.807 12.6927 169.516 14.2656C170.234 15.8281 170.594 17.6094 170.594 19.6094C170.594 21.6406 170.229 23.4427 169.5 25.0156C168.771 26.5781 167.703 27.8698 166.297 28.8906C165.255 29.6406 164.094 30.1823 162.812 30.5156C161.542 30.8385 159.677 31 157.219 31H155.484H150.594ZM198.109 19.6094C198.109 21.2448 197.802 22.7917 197.188 24.25C196.583 25.7083 195.708 26.9896 194.562 28.0938C193.375 29.2292 192.036 30.099 190.547 30.7031C189.057 31.3073 187.516 31.6094 185.922 31.6094C184.526 31.6094 183.156 31.375 181.812 30.9062C180.479 30.4271 179.255 29.7448 178.141 28.8594C176.703 27.7135 175.599 26.3438 174.828 24.75C174.068 23.1562 173.688 21.4427 173.688 19.6094C173.688 17.9635 173.99 16.4219 174.594 14.9844C175.198 13.5365 176.083 12.25 177.25 11.125C178.396 10.0104 179.724 9.14583 181.234 8.53125C182.755 7.91667 184.318 7.60938 185.922 7.60938C187.516 7.60938 189.062 7.91667 190.562 8.53125C192.073 9.14583 193.406 10.0104 194.562 11.125C195.719 12.25 196.599 13.5365 197.203 14.9844C197.807 16.4323 198.109 17.974 198.109 19.6094ZM185.922 27.25C187.995 27.25 189.703 26.526 191.047 25.0781C192.401 23.6198 193.078 21.7969 193.078 19.6094C193.078 17.4427 192.396 15.6198 191.031 14.1406C189.667 12.6615 187.964 11.9219 185.922 11.9219C183.849 11.9219 182.13 12.6615 180.766 14.1406C179.401 15.6094 178.719 17.4323 178.719 19.6094C178.719 21.8177 179.391 23.6458 180.734 25.0938C182.078 26.5312 183.807 27.25 185.922 27.25ZM217.016 18.4531H217.719C219.052 18.4531 220.021 18.1771 220.625 17.625C221.229 17.0729 221.531 16.1875 221.531 14.9688C221.531 13.8438 221.229 13.026 220.625 12.5156C220.021 11.9948 219.052 11.7344 217.719 11.7344H217.016V18.4531ZM212.094 31V8.125H217.719C220.719 8.125 222.932 8.69792 224.359 9.84375C225.797 10.9896 226.516 12.7604 226.516 15.1562C226.516 17.375 225.792 19.1146 224.344 20.375C222.906 21.6354 220.911 22.2656 218.359 22.2656H217.016V31H212.094ZM240.156 22.2969L237.594 14.9062C237.521 14.6875 237.427 14.3125 237.312 13.7812C237.198 13.25 237.078 12.599 236.953 11.8281C236.818 12.5677 236.688 13.2344 236.562 13.8281C236.438 14.4115 236.344 14.8021 236.281 15L233.812 22.2969H240.156ZM225.594 31L234.297 8.125H239.891L248.719 31H243.156L241.297 26.1406H232.438L230.844 31H225.594ZM267.672 31H262.031L256.016 20.3125V31H251.125V8.125H258.125C260.906 8.125 262.99 8.66667 264.375 9.75C265.76 10.8229 266.453 12.4427 266.453 14.6094C266.453 16.1823 265.979 17.526 265.031 18.6406C264.083 19.7552 262.859 20.4062 261.359 20.5938L267.672 31ZM256.016 17.875H256.75C258.729 17.875 260.036 17.6615 260.672 17.2344C261.307 16.7969 261.625 16.0417 261.625 14.9688C261.625 13.8438 261.281 13.0469 260.594 12.5781C259.917 12.099 258.635 11.8594 256.75 11.8594H256.016V17.875ZM282.375 22.2969L279.812 14.9062C279.74 14.6875 279.646 14.3125 279.531 13.7812C279.417 13.25 279.297 12.599 279.172 11.8281C279.036 12.5677 278.906 13.2344 278.781 13.8281C278.656 14.4115 278.562 14.8021 278.5 15L276.031 22.2969H282.375ZM267.812 31L276.516 8.125H282.109L290.938 31H285.375L283.516 26.1406H274.656L273.062 31H267.812ZM47.1094 69H41.4688L35.4531 58.3125V69H30.5625V46.125H37.5625C40.3438 46.125 42.4271 46.6667 43.8125 47.75C45.1979 48.8229 45.8906 50.4427 45.8906 52.6094C45.8906 54.1823 45.4167 55.526 44.4688 56.6406C43.5208 57.7552 42.2969 58.4062 40.7969 58.5938L47.1094 69ZM35.4531 55.875H36.1875C38.1667 55.875 39.474 55.6615 40.1094 55.2344C40.7448 54.7969 41.0625 54.0417 41.0625 52.9688C41.0625 51.8438 40.7188 51.0469 40.0312 50.5781C39.3542 50.099 38.0729 49.8594 36.1875 49.8594H35.4531V55.875ZM49.9688 69V46.125H63.4375V50.25H54.8594V54.9531H63.4375V59.1094H54.8594V64.8438H63.4375V69H49.9688ZM66.7812 66.0938L69.5 63.0156C69.8438 63.8594 70.3958 64.526 71.1562 65.0156C71.9167 65.4948 72.7708 65.7344 73.7188 65.7344C74.8646 65.7344 75.7708 65.4635 76.4375 64.9219C77.1042 64.3802 77.4375 63.651 77.4375 62.7344C77.4375 61.651 76.3281 60.5729 74.1094 59.5C73.3906 59.1562 72.8229 58.875 72.4062 58.6562C70.4062 57.6146 69.0208 56.599 68.25 55.6094C67.4792 54.6094 67.0938 53.4219 67.0938 52.0469C67.0938 50.1615 67.8385 48.6146 69.3281 47.4062C70.8281 46.1875 72.7708 45.5781 75.1562 45.5781C76.5417 45.5781 77.7344 45.8229 78.7344 46.3125C79.7448 46.7917 80.6354 47.5469 81.4062 48.5781L78.5156 51.3438C78.1719 50.6771 77.7135 50.1823 77.1406 49.8594C76.5781 49.526 75.8958 49.3594 75.0938 49.3594C74.125 49.3594 73.3438 49.6042 72.75 50.0938C72.1562 50.5729 71.8594 51.1979 71.8594 51.9688C71.8594 53.1771 73.0365 54.2812 75.3906 55.2812C75.8594 55.4792 76.2188 55.6354 76.4688 55.75C78.4062 56.6354 79.8385 57.6354 80.7656 58.75C81.7031 59.8646 82.1719 61.1354 82.1719 62.5625C82.1719 64.7083 81.4375 66.4219 79.9688 67.7031C78.5104 68.974 76.5469 69.6094 74.0781 69.6094C72.3281 69.6094 70.8281 69.3073 69.5781 68.7031C68.3281 68.099 67.3958 67.2292 66.7812 66.0938ZM109.609 57.6094C109.609 59.2448 109.302 60.7917 108.688 62.25C108.083 63.7083 107.208 64.9896 106.062 66.0938C104.875 67.2292 103.536 68.099 102.047 68.7031C100.557 69.3073 99.0156 69.6094 97.4219 69.6094C96.026 69.6094 94.6562 69.375 93.3125 68.9062C91.9792 68.4271 90.7552 67.7448 89.6406 66.8594C88.2031 65.7135 87.099 64.3438 86.3281 62.75C85.5677 61.1562 85.1875 59.4427 85.1875 57.6094C85.1875 55.9635 85.4896 54.4219 86.0938 52.9844C86.6979 51.5365 87.5833 50.25 88.75 49.125C89.8958 48.0104 91.224 47.1458 92.7344 46.5312C94.2552 45.9167 95.8177 45.6094 97.4219 45.6094C99.0156 45.6094 100.562 45.9167 102.062 46.5312C103.573 47.1458 104.906 48.0104 106.062 49.125C107.219 50.25 108.099 51.5365 108.703 52.9844C109.307 54.4323 109.609 55.974 109.609 57.6094ZM97.4219 65.25C99.4948 65.25 101.203 64.526 102.547 63.0781C103.901 61.6198 104.578 59.7969 104.578 57.6094C104.578 55.4427 103.896 53.6198 102.531 52.1406C101.167 50.6615 99.4635 49.9219 97.4219 49.9219C95.349 49.9219 93.6302 50.6615 92.2656 52.1406C90.901 53.6094 90.2188 55.4323 90.2188 57.6094C90.2188 59.8177 90.8906 61.6458 92.2344 63.0938C93.5781 64.5312 95.3073 65.25 97.4219 65.25ZM113.75 69V46.125H118.641V64.8438H126.453V69H113.75ZM133.578 69L125.125 46.125H130.531L134.984 60.3906C135.068 60.6823 135.198 61.224 135.375 62.0156C135.552 62.8073 135.74 63.7083 135.938 64.7188C136.073 63.7396 136.219 62.8698 136.375 62.1094C136.542 61.349 136.703 60.724 136.859 60.2344L141.375 46.125H146.719L138.203 69H133.578ZM149.188 69V46.125H162.656V50.25H154.078V54.9531H162.656V59.1094H154.078V64.8438H162.656V69H149.188ZM184.016 69H178.375L172.359 58.3125V69H167.469V46.125H174.469C177.25 46.125 179.333 46.6667 180.719 47.75C182.104 48.8229 182.797 50.4427 182.797 52.6094C182.797 54.1823 182.323 55.526 181.375 56.6406C180.427 57.7552 179.203 58.4062 177.703 58.5938L184.016 69ZM172.359 55.875H173.094C175.073 55.875 176.38 55.6615 177.016 55.2344C177.651 54.7969 177.969 54.0417 177.969 52.9688C177.969 51.8438 177.625 51.0469 176.938 50.5781C176.26 50.099 174.979 49.8594 173.094 49.8594H172.359V55.875ZM205.266 50.2812V69H200.359V50.2812H194.766V46.125H210.891V50.2812H205.266ZM233.734 46.125V60.3594C233.734 63.4635 232.917 65.7812 231.281 67.3125C229.646 68.8438 227.182 69.6094 223.891 69.6094C220.547 69.6094 218.057 68.8438 216.422 67.3125C214.786 65.7812 213.969 63.4635 213.969 60.3594V46.125H218.828V59.5938C218.828 61.4792 219.245 62.901 220.078 63.8594C220.911 64.8073 222.156 65.2812 223.812 65.2812C225.479 65.2812 226.74 64.8021 227.594 63.8438C228.448 62.8854 228.875 61.4688 228.875 59.5938V46.125H233.734ZM237.344 66.0938L240.062 63.0156C240.406 63.8594 240.958 64.526 241.719 65.0156C242.479 65.4948 243.333 65.7344 244.281 65.7344C245.427 65.7344 246.333 65.4635 247 64.9219C247.667 64.3802 248 63.651 248 62.7344C248 61.651 246.891 60.5729 244.672 59.5C243.953 59.1562 243.385 58.875 242.969 58.6562C240.969 57.6146 239.583 56.599 238.812 55.6094C238.042 54.6094 237.656 53.4219 237.656 52.0469C237.656 50.1615 238.401 48.6146 239.891 47.4062C241.391 46.1875 243.333 45.5781 245.719 45.5781C247.104 45.5781 248.297 45.8229 249.297 46.3125C250.307 46.7917 251.198 47.5469 251.969 48.5781L249.078 51.3438C248.734 50.6771 248.276 50.1823 247.703 49.8594C247.141 49.526 246.458 49.3594 245.656 49.3594C244.688 49.3594 243.906 49.6042 243.312 50.0938C242.719 50.5729 242.422 51.1979 242.422 51.9688C242.422 53.1771 243.599 54.2812 245.953 55.2812C246.422 55.4792 246.781 55.6354 247.031 55.75C248.969 56.6354 250.401 57.6354 251.328 58.75C252.266 59.8646 252.734 61.1354 252.734 62.5625C252.734 64.7083 252 66.4219 250.531 67.7031C249.073 68.974 247.109 69.6094 244.641 69.6094C242.891 69.6094 241.391 69.3073 240.141 68.7031C238.891 68.099 237.958 67.2292 237.344 66.0938ZM266.688 69V46.125H271.578V69H266.688ZM274.828 69L278.312 46.125H283.438L287.844 59.5938C287.938 59.875 288.036 60.2865 288.141 60.8281C288.255 61.3698 288.359 61.9896 288.453 62.6875C288.536 61.9792 288.63 61.349 288.734 60.7969C288.839 60.2344 288.938 59.8229 289.031 59.5625L293.516 46.125H298.562L302.062 69H297.422L295.75 55.2031C295.625 54.1823 295.542 53.4115 295.5 52.8906C295.458 52.3698 295.438 51.8854 295.438 51.4375C295.438 51.1979 295.438 51.0208 295.438 50.9062C295.448 50.7812 295.458 50.6719 295.469 50.5781C295.312 51.474 295.161 52.25 295.016 52.9062C294.88 53.5521 294.755 54.0417 294.641 54.375L289.797 69H287.047L282.281 54.375C282.24 54.2396 282.146 53.8646 282 53.25C281.865 52.6354 281.672 51.7396 281.422 50.5625V51.2344C281.422 52.2969 281.328 53.599 281.141 55.1406L281.125 55.2031L279.469 69H274.828ZM310.172 56.4531H310.875C312.208 56.4531 313.177 56.1771 313.781 55.625C314.385 55.0729 314.688 54.1875 314.688 52.9688C314.688 51.8438 314.385 51.026 313.781 50.5156C313.177 49.9948 312.208 49.7344 310.875 49.7344H310.172V56.4531ZM305.25 69V46.125H310.875C313.875 46.125 316.089 46.6979 317.516 47.8438C318.953 48.9896 319.672 50.7604 319.672 53.1562C319.672 55.375 318.948 57.1146 317.5 58.375C316.062 59.6354 314.068 60.2656 311.516 60.2656H310.172V69H305.25ZM339.609 69H333.969L327.953 58.3125V69H323.062V46.125H330.062C332.844 46.125 334.927 46.6667 336.312 47.75C337.698 48.8229 338.391 50.4427 338.391 52.6094C338.391 54.1823 337.917 55.526 336.969 56.6406C336.021 57.7552 334.797 58.4062 333.297 58.5938L339.609 69ZM327.953 55.875H328.688C330.667 55.875 331.974 55.6615 332.609 55.2344C333.245 54.7969 333.562 54.0417 333.562 52.9688C333.562 51.8438 333.219 51.0469 332.531 50.5781C331.854 50.099 330.573 49.8594 328.688 49.8594H327.953V55.875ZM342.469 69V46.125H355.938V50.25H347.359V54.9531H355.938V59.1094H347.359V64.8438H355.938V69H342.469ZM366.547 69L358.094 46.125H363.5L367.953 60.3906C368.036 60.6823 368.167 61.224 368.344 62.0156C368.521 62.8073 368.708 63.7083 368.906 64.7188C369.042 63.7396 369.188 62.8698 369.344 62.1094C369.51 61.349 369.672 60.724 369.828 60.2344L374.344 46.125H379.688L371.172 69H366.547ZM382.25 69V46.125H387.141V69H382.25ZM390.906 66.0938L393.625 63.0156C393.969 63.8594 394.521 64.526 395.281 65.0156C396.042 65.4948 396.896 65.7344 397.844 65.7344C398.99 65.7344 399.896 65.4635 400.562 64.9219C401.229 64.3802 401.562 63.651 401.562 62.7344C401.562 61.651 400.453 60.5729 398.234 59.5C397.516 59.1562 396.948 58.875 396.531 58.6562C394.531 57.6146 393.146 56.599 392.375 55.6094C391.604 54.6094 391.219 53.4219 391.219 52.0469C391.219 50.1615 391.964 48.6146 393.453 47.4062C394.953 46.1875 396.896 45.5781 399.281 45.5781C400.667 45.5781 401.859 45.8229 402.859 46.3125C403.87 46.7917 404.76 47.5469 405.531 48.5781L402.641 51.3438C402.297 50.6771 401.839 50.1823 401.266 49.8594C400.703 49.526 400.021 49.3594 399.219 49.3594C398.25 49.3594 397.469 49.6042 396.875 50.0938C396.281 50.5729 395.984 51.1979 395.984 51.9688C395.984 53.1771 397.161 54.2812 399.516 55.2812C399.984 55.4792 400.344 55.6354 400.594 55.75C402.531 56.6354 403.964 57.6354 404.891 58.75C405.828 59.8646 406.297 61.1354 406.297 62.5625C406.297 64.7083 405.562 66.4219 404.094 67.7031C402.635 68.974 400.672 69.6094 398.203 69.6094C396.453 69.6094 394.953 69.3073 393.703 68.7031C392.453 68.099 391.521 67.2292 390.906 66.0938ZM418.859 50.2812V69H413.953V50.2812H408.359V46.125H424.484V50.2812H418.859ZM450.516 57.6094C450.516 59.2448 450.208 60.7917 449.594 62.25C448.99 63.7083 448.115 64.9896 446.969 66.0938C445.781 67.2292 444.443 68.099 442.953 68.7031C441.464 69.3073 439.922 69.6094 438.328 69.6094C436.932 69.6094 435.562 69.375 434.219 68.9062C432.885 68.4271 431.661 67.7448 430.547 66.8594C429.109 65.7135 428.005 64.3438 427.234 62.75C426.474 61.1562 426.094 59.4427 426.094 57.6094C426.094 55.9635 426.396 54.4219 427 52.9844C427.604 51.5365 428.49 50.25 429.656 49.125C430.802 48.0104 432.13 47.1458 433.641 46.5312C435.161 45.9167 436.724 45.6094 438.328 45.6094C439.922 45.6094 441.469 45.9167 442.969 46.5312C444.479 47.1458 445.812 48.0104 446.969 49.125C448.125 50.25 449.005 51.5365 449.609 52.9844C450.214 54.4323 450.516 55.974 450.516 57.6094ZM438.328 65.25C440.401 65.25 442.109 64.526 443.453 63.0781C444.807 61.6198 445.484 59.7969 445.484 57.6094C445.484 55.4427 444.802 53.6198 443.438 52.1406C442.073 50.6615 440.37 49.9219 438.328 49.9219C436.255 49.9219 434.536 50.6615 433.172 52.1406C431.807 53.6094 431.125 55.4323 431.125 57.6094C431.125 59.8177 431.797 61.6458 433.141 63.0938C434.484 64.5312 436.214 65.25 438.328 65.25ZM453.188 66.0938L455.906 63.0156C456.25 63.8594 456.802 64.526 457.562 65.0156C458.323 65.4948 459.177 65.7344 460.125 65.7344C461.271 65.7344 462.177 65.4635 462.844 64.9219C463.51 64.3802 463.844 63.651 463.844 62.7344C463.844 61.651 462.734 60.5729 460.516 59.5C459.797 59.1562 459.229 58.875 458.812 58.6562C456.812 57.6146 455.427 56.599 454.656 55.6094C453.885 54.6094 453.5 53.4219 453.5 52.0469C453.5 50.1615 454.245 48.6146 455.734 47.4062C457.234 46.1875 459.177 45.5781 461.562 45.5781C462.948 45.5781 464.141 45.8229 465.141 46.3125C466.151 46.7917 467.042 47.5469 467.812 48.5781L464.922 51.3438C464.578 50.6771 464.12 50.1823 463.547 49.8594C462.984 49.526 462.302 49.3594 461.5 49.3594C460.531 49.3594 459.75 49.6042 459.156 50.0938C458.562 50.5729 458.266 51.1979 458.266 51.9688C458.266 53.1771 459.443 54.2812 461.797 55.2812C462.266 55.4792 462.625 55.6354 462.875 55.75C464.812 56.6354 466.245 57.6354 467.172 58.75C468.109 59.8646 468.578 61.1354 468.578 62.5625C468.578 64.7083 467.844 66.4219 466.375 67.7031C464.917 68.974 462.953 69.6094 460.484 69.6094C458.734 69.6094 457.234 69.3073 455.984 68.7031C454.734 68.099 453.802 67.2292 453.188 66.0938Z" fill="white"/>
<path d="M27 136H15C10.5817 136 7 132.418 7 128V28" stroke="white" stroke-width="1.5"/>
<circle cx="7" cy="21" r="6.25" stroke="white" stroke-width="1.5"/>
<rect x="25" y="107" width="341" height="73" rx="10" fill="#002A61"/>
<path d="M49.458 138H50.97V127.542L61.554 138.612V124.428H60.042V134.94L49.458 123.852V138ZM68.0697 138.234C70.5357 138.234 72.5157 136.272 72.5157 133.788C72.5157 131.304 70.5537 129.306 68.0697 129.306C65.5857 129.306 63.6237 131.304 63.6237 133.788C63.6237 136.272 65.6037 138.234 68.0697 138.234ZM68.0697 130.638C69.8517 130.638 71.0757 132.06 71.0757 133.77C71.0757 135.498 69.8517 136.902 68.0697 136.902C66.2877 136.902 65.0637 135.498 65.0637 133.77C65.0637 132.06 66.2877 130.638 68.0697 130.638ZM81.5363 130.872H83.0483V129.54H81.5363V126.498H80.0963V129.54H79.2143V130.872H80.0963V138H81.5363V130.872ZM91.7105 134.076C91.8545 131.556 90.4145 129.306 87.6965 129.306C85.0505 129.306 83.5925 131.376 83.5925 133.878C83.5925 136.308 85.2125 138.234 87.7325 138.234C89.4605 138.234 90.8285 137.37 91.6385 135.858L90.4145 135.156C89.8565 136.164 89.0645 136.902 87.8405 136.902C86.2025 136.902 85.0865 135.642 85.0685 134.076H91.7105ZM85.1405 132.852C85.3205 131.628 86.4725 130.638 87.7145 130.638C88.9745 130.638 90.0005 131.628 90.1985 132.852H85.1405ZM102.73 130.638C104.512 130.638 105.574 132.006 105.574 133.698C105.574 135.408 104.602 136.902 102.748 136.902C100.948 136.902 99.9756 135.336 99.9756 133.68C99.9756 132.096 101.056 130.638 102.73 130.638ZM106.942 129.54H105.502V130.746H105.466C104.764 129.81 103.702 129.306 102.55 129.306C100.048 129.306 98.4996 131.448 98.4996 133.806C98.4996 136.2 100.03 138.234 102.568 138.234C103.702 138.234 104.782 137.73 105.466 136.812H105.502V142.752H106.942V129.54ZM110.94 129.54H109.5V134.418C109.5 136.668 110.346 138.234 112.848 138.234C115.35 138.234 116.196 136.668 116.196 134.418V129.54H114.756V134.256C114.756 135.678 114.594 136.902 112.848 136.902C111.102 136.902 110.94 135.678 110.94 134.256V129.54ZM126.181 134.076C126.325 131.556 124.885 129.306 122.167 129.306C119.521 129.306 118.063 131.376 118.063 133.878C118.063 136.308 119.683 138.234 122.203 138.234C123.931 138.234 125.299 137.37 126.109 135.858L124.885 135.156C124.327 136.164 123.535 136.902 122.311 136.902C120.673 136.902 119.557 135.642 119.539 134.076H126.181ZM119.611 132.852C119.791 131.628 120.943 130.638 122.185 130.638C123.445 130.638 124.471 131.628 124.669 132.852H119.611ZM131.663 130.638C133.445 130.638 134.507 132.006 134.507 133.698C134.507 135.408 133.535 136.902 131.681 136.902C129.881 136.902 128.909 135.336 128.909 133.68C128.909 132.096 129.989 130.638 131.663 130.638ZM134.435 138H135.875V123.15H134.435V130.746H134.399C133.715 129.846 132.635 129.306 131.501 129.306C128.963 129.306 127.433 131.376 127.433 133.788C127.433 136.128 128.999 138.234 131.483 138.234C132.635 138.234 133.697 137.748 134.399 136.83H134.435V138ZM145.904 134.076C146.048 131.556 144.608 129.306 141.89 129.306C139.244 129.306 137.786 131.376 137.786 133.878C137.786 136.308 139.406 138.234 141.926 138.234C143.654 138.234 145.022 137.37 145.832 135.858L144.608 135.156C144.05 136.164 143.258 136.902 142.034 136.902C140.396 136.902 139.28 135.642 139.262 134.076H145.904ZM139.334 132.852C139.514 131.628 140.666 130.638 141.908 130.638C143.168 130.638 144.194 131.628 144.392 132.852H139.334ZM152.502 130.872C152.124 129.99 151.224 129.306 150.252 129.306C148.884 129.306 147.732 130.278 147.732 131.7C147.732 134.364 151.548 133.716 151.548 135.606C151.548 136.38 150.954 136.902 150.18 136.902C149.226 136.902 148.812 136.344 148.452 135.552L147.174 136.092C147.624 137.424 148.74 138.234 150.162 138.234C151.728 138.234 153.024 137.082 153.024 135.48C153.024 134.058 152.052 133.464 151.062 133.05C150.072 132.636 149.1 132.348 149.1 131.574C149.1 131.034 149.64 130.638 150.144 130.638C150.666 130.638 151.098 131.052 151.296 131.502L152.502 130.872ZM165.228 130.872C164.85 129.99 163.95 129.306 162.978 129.306C161.61 129.306 160.458 130.278 160.458 131.7C160.458 134.364 164.274 133.716 164.274 135.606C164.274 136.38 163.68 136.902 162.906 136.902C161.952 136.902 161.538 136.344 161.178 135.552L159.9 136.092C160.35 137.424 161.466 138.234 162.888 138.234C164.454 138.234 165.75 137.082 165.75 135.48C165.75 134.058 164.778 133.464 163.788 133.05C162.798 132.636 161.826 132.348 161.826 131.574C161.826 131.034 162.366 130.638 162.87 130.638C163.392 130.638 163.824 131.052 164.022 131.502L165.228 130.872ZM169.502 129.54H168.062V138H169.502V129.54ZM168.782 125.328C168.224 125.328 167.756 125.796 167.756 126.354C167.756 126.93 168.224 127.38 168.782 127.38C169.34 127.38 169.808 126.93 169.808 126.354C169.808 125.796 169.34 125.328 168.782 125.328ZM173.943 129.54H172.503V138H173.943V133.986C173.943 132.474 174.069 130.638 176.049 130.638C177.723 130.638 177.831 131.862 177.831 133.23V138H179.271V132.978C179.271 130.998 178.731 129.306 176.391 129.306C175.347 129.306 174.573 129.756 173.979 130.566H173.943V129.54ZM188.954 123.15H187.514V138H188.954V123.15ZM195.318 138.234C197.784 138.234 199.764 136.272 199.764 133.788C199.764 131.304 197.802 129.306 195.318 129.306C192.834 129.306 190.872 131.304 190.872 133.788C190.872 136.272 192.852 138.234 195.318 138.234ZM195.318 130.638C197.1 130.638 198.324 132.06 198.324 133.77C198.324 135.498 197.1 136.902 195.318 136.902C193.536 136.902 192.312 135.498 192.312 133.77C192.312 132.06 193.536 130.638 195.318 130.638ZM210.858 128.766V138H207.6V128.766H210.858ZM207.384 125.22C207.384 124.968 207.432 124.734 207.528 124.518C207.624 124.29 207.756 124.092 207.924 123.924C208.092 123.756 208.284 123.624 208.5 123.528C208.728 123.432 208.968 123.384 209.22 123.384C209.472 123.384 209.706 123.432 209.922 123.528C210.15 123.624 210.348 123.756 210.516 123.924C210.684 124.092 210.816 124.29 210.912 124.518C211.008 124.734 211.056 124.968 211.056 125.22C211.056 125.472 211.008 125.712 210.912 125.94C210.816 126.156 210.684 126.348 210.516 126.516C210.348 126.684 210.15 126.816 209.922 126.912C209.706 127.008 209.472 127.056 209.22 127.056C208.968 127.056 208.728 127.008 208.5 126.912C208.284 126.816 208.092 126.684 207.924 126.516C207.756 126.348 207.624 126.156 207.528 125.94C207.432 125.712 207.384 125.472 207.384 125.22ZM213.085 128.766H216.343V129.936C216.787 129.396 217.237 129.036 217.693 128.856C218.149 128.664 218.683 128.568 219.295 128.568C219.943 128.568 220.495 128.676 220.951 128.892C221.419 129.096 221.815 129.39 222.139 129.774C222.403 130.086 222.583 130.434 222.679 130.818C222.775 131.202 222.823 131.64 222.823 132.132V138H219.565V133.338C219.565 132.882 219.529 132.516 219.457 132.24C219.397 131.952 219.283 131.724 219.115 131.556C218.971 131.412 218.809 131.31 218.629 131.25C218.449 131.19 218.257 131.16 218.053 131.16C217.501 131.16 217.075 131.328 216.775 131.664C216.487 131.988 216.343 132.456 216.343 133.068V138H213.085V128.766ZM228.062 133.356C228.062 133.656 228.116 133.938 228.224 134.202C228.332 134.454 228.476 134.676 228.656 134.868C228.848 135.06 229.07 135.21 229.322 135.318C229.586 135.426 229.868 135.48 230.168 135.48C230.456 135.48 230.726 135.426 230.978 135.318C231.242 135.21 231.464 135.06 231.644 134.868C231.836 134.676 231.986 134.454 232.094 134.202C232.214 133.95 232.274 133.68 232.274 133.392C232.274 133.104 232.214 132.834 232.094 132.582C231.986 132.318 231.836 132.09 231.644 131.898C231.464 131.706 231.242 131.556 230.978 131.448C230.726 131.34 230.456 131.286 230.168 131.286C229.88 131.286 229.604 131.34 229.34 131.448C229.088 131.556 228.866 131.706 228.674 131.898C228.494 132.09 228.344 132.312 228.224 132.564C228.116 132.804 228.062 133.068 228.062 133.356ZM232.166 123.06H235.442V138H232.166V136.974C231.47 137.85 230.528 138.288 229.34 138.288C228.668 138.288 228.05 138.162 227.486 137.91C226.922 137.658 226.43 137.31 226.01 136.866C225.59 136.422 225.26 135.9 225.02 135.3C224.792 134.7 224.678 134.052 224.678 133.356C224.678 132.696 224.786 132.072 225.002 131.484C225.23 130.884 225.548 130.362 225.956 129.918C226.364 129.474 226.85 129.126 227.414 128.874C227.99 128.61 228.62 128.478 229.304 128.478C230.456 128.478 231.41 128.88 232.166 129.684V123.06ZM240.917 128.766V138H237.659V128.766H240.917ZM237.443 125.22C237.443 124.968 237.491 124.734 237.587 124.518C237.683 124.29 237.815 124.092 237.983 123.924C238.151 123.756 238.343 123.624 238.559 123.528C238.787 123.432 239.027 123.384 239.279 123.384C239.531 123.384 239.765 123.432 239.981 123.528C240.209 123.624 240.407 123.756 240.575 123.924C240.743 124.092 240.875 124.29 240.971 124.518C241.067 124.734 241.115 124.968 241.115 125.22C241.115 125.472 241.067 125.712 240.971 125.94C240.875 126.156 240.743 126.348 240.575 126.516C240.407 126.684 240.209 126.816 239.981 126.912C239.765 127.008 239.531 127.056 239.279 127.056C239.027 127.056 238.787 127.008 238.559 126.912C238.343 126.816 238.151 126.684 237.983 126.516C237.815 126.348 237.683 126.156 237.587 125.94C237.491 125.712 237.443 125.472 237.443 125.22ZM249.263 131.142C248.663 130.83 248.075 130.674 247.499 130.674C247.199 130.674 246.953 130.734 246.761 130.854C246.581 130.974 246.491 131.136 246.491 131.34C246.491 131.448 246.503 131.538 246.527 131.61C246.563 131.67 246.629 131.73 246.725 131.79C246.833 131.85 246.983 131.904 247.175 131.952C247.379 132 247.643 132.06 247.967 132.132C248.867 132.312 249.539 132.636 249.983 133.104C250.427 133.56 250.649 134.148 250.649 134.868C250.649 135.408 250.541 135.894 250.325 136.326C250.109 136.758 249.809 137.124 249.425 137.424C249.041 137.712 248.579 137.934 248.039 138.09C247.499 138.258 246.905 138.342 246.257 138.342C245.009 138.342 243.779 137.988 242.567 137.28L243.755 134.976C244.667 135.6 245.531 135.912 246.347 135.912C246.647 135.912 246.893 135.846 247.085 135.714C247.277 135.582 247.373 135.414 247.373 135.21C247.373 135.09 247.355 134.994 247.319 134.922C247.295 134.838 247.235 134.766 247.139 134.706C247.043 134.634 246.899 134.574 246.707 134.526C246.527 134.466 246.287 134.406 245.987 134.346C244.979 134.142 244.271 133.842 243.863 133.446C243.467 133.038 243.269 132.48 243.269 131.772C243.269 131.256 243.365 130.794 243.557 130.386C243.749 129.966 244.025 129.612 244.385 129.324C244.745 129.036 245.177 128.814 245.681 128.658C246.197 128.502 246.767 128.424 247.391 128.424C248.411 128.424 249.401 128.622 250.361 129.018L249.263 131.142ZM259.664 133.41C259.664 133.122 259.61 132.852 259.502 132.6C259.406 132.336 259.262 132.108 259.07 131.916C258.878 131.724 258.65 131.574 258.386 131.466C258.134 131.346 257.858 131.286 257.558 131.286C257.27 131.286 257 131.34 256.748 131.448C256.496 131.556 256.274 131.706 256.082 131.898C255.902 132.09 255.752 132.318 255.632 132.582C255.524 132.834 255.47 133.104 255.47 133.392C255.47 133.68 255.524 133.95 255.632 134.202C255.74 134.454 255.89 134.676 256.082 134.868C256.274 135.048 256.496 135.198 256.748 135.318C257.012 135.426 257.288 135.48 257.576 135.48C257.864 135.48 258.134 135.426 258.386 135.318C258.638 135.21 258.854 135.06 259.034 134.868C259.226 134.676 259.376 134.454 259.484 134.202C259.604 133.95 259.664 133.686 259.664 133.41ZM255.56 142.608H252.302V128.766H255.56V129.792C256.256 128.916 257.204 128.478 258.404 128.478C259.064 128.478 259.676 128.61 260.24 128.874C260.816 129.126 261.314 129.474 261.734 129.918C262.154 130.362 262.478 130.884 262.706 131.484C262.946 132.084 263.066 132.726 263.066 133.41C263.066 134.094 262.946 134.73 262.706 135.318C262.478 135.906 262.154 136.422 261.734 136.866C261.326 137.31 260.84 137.658 260.276 137.91C259.712 138.162 259.1 138.288 258.44 138.288C257.288 138.288 256.328 137.892 255.56 137.1V142.608ZM271.673 132.042C271.565 131.586 271.343 131.22 271.007 130.944C270.671 130.668 270.263 130.53 269.783 130.53C269.279 130.53 268.865 130.662 268.541 130.926C268.229 131.19 268.031 131.562 267.947 132.042H271.673ZM267.857 133.932C267.857 135.336 268.517 136.038 269.837 136.038C270.545 136.038 271.079 135.75 271.439 135.174H274.589C273.953 137.286 272.363 138.342 269.819 138.342C269.039 138.342 268.325 138.228 267.677 138C267.029 137.76 266.471 137.424 266.003 136.992C265.547 136.56 265.193 136.044 264.941 135.444C264.689 134.844 264.563 134.172 264.563 133.428C264.563 132.66 264.683 131.97 264.923 131.358C265.163 130.734 265.505 130.206 265.949 129.774C266.393 129.342 266.927 129.012 267.551 128.784C268.187 128.544 268.901 128.424 269.693 128.424C270.473 128.424 271.175 128.544 271.799 128.784C272.423 129.012 272.951 129.348 273.383 129.792C273.815 130.236 274.145 130.782 274.373 131.43C274.601 132.066 274.715 132.786 274.715 133.59V133.932H267.857ZM276.577 128.766H279.835V129.936C280.279 129.396 280.729 129.036 281.185 128.856C281.641 128.664 282.175 128.568 282.787 128.568C283.435 128.568 283.987 128.676 284.443 128.892C284.911 129.096 285.307 129.39 285.631 129.774C285.895 130.086 286.075 130.434 286.171 130.818C286.267 131.202 286.315 131.64 286.315 132.132V138H283.057V133.338C283.057 132.882 283.021 132.516 282.949 132.24C282.889 131.952 282.775 131.724 282.607 131.556C282.463 131.412 282.301 131.31 282.121 131.25C281.941 131.19 281.749 131.16 281.545 131.16C280.993 131.16 280.567 131.328 280.267 131.664C279.979 131.988 279.835 132.456 279.835 133.068V138H276.577V128.766ZM294.65 131.142C294.05 130.83 293.462 130.674 292.886 130.674C292.586 130.674 292.34 130.734 292.148 130.854C291.968 130.974 291.878 131.136 291.878 131.34C291.878 131.448 291.89 131.538 291.914 131.61C291.95 131.67 292.016 131.73 292.112 131.79C292.22 131.85 292.37 131.904 292.562 131.952C292.766 132 293.03 132.06 293.354 132.132C294.254 132.312 294.926 132.636 295.37 133.104C295.814 133.56 296.036 134.148 296.036 134.868C296.036 135.408 295.928 135.894 295.712 136.326C295.496 136.758 295.196 137.124 294.812 137.424C294.428 137.712 293.966 137.934 293.426 138.09C292.886 138.258 292.292 138.342 291.644 138.342C290.396 138.342 289.166 137.988 287.954 137.28L289.142 134.976C290.054 135.6 290.918 135.912 291.734 135.912C292.034 135.912 292.28 135.846 292.472 135.714C292.664 135.582 292.76 135.414 292.76 135.21C292.76 135.09 292.742 134.994 292.706 134.922C292.682 134.838 292.622 134.766 292.526 134.706C292.43 134.634 292.286 134.574 292.094 134.526C291.914 134.466 291.674 134.406 291.374 134.346C290.366 134.142 289.658 133.842 289.25 133.446C288.854 133.038 288.656 132.48 288.656 131.772C288.656 131.256 288.752 130.794 288.944 130.386C289.136 129.966 289.412 129.612 289.772 129.324C290.132 129.036 290.564 128.814 291.068 128.658C291.584 128.502 292.154 128.424 292.778 128.424C293.798 128.424 294.788 128.622 295.748 129.018L294.65 131.142ZM300.712 133.356C300.712 133.656 300.766 133.938 300.874 134.202C300.982 134.454 301.126 134.676 301.306 134.868C301.498 135.06 301.72 135.21 301.972 135.318C302.236 135.426 302.518 135.48 302.818 135.48C303.106 135.48 303.376 135.426 303.628 135.318C303.892 135.21 304.114 135.06 304.294 134.868C304.486 134.676 304.636 134.454 304.744 134.202C304.864 133.95 304.924 133.68 304.924 133.392C304.924 133.104 304.864 132.834 304.744 132.582C304.636 132.318 304.486 132.09 304.294 131.898C304.114 131.706 303.892 131.556 303.628 131.448C303.376 131.34 303.106 131.286 302.818 131.286C302.518 131.286 302.236 131.34 301.972 131.448C301.72 131.556 301.498 131.706 301.306 131.898C301.126 132.09 300.982 132.312 300.874 132.564C300.766 132.804 300.712 133.068 300.712 133.356ZM304.816 128.766H308.092V138H304.816V136.974C304.12 137.85 303.178 138.288 301.99 138.288C301.318 138.288 300.7 138.168 300.136 137.928C299.572 137.676 299.08 137.328 298.66 136.884C298.24 136.44 297.91 135.918 297.67 135.318C297.442 134.718 297.328 134.064 297.328 133.356C297.328 132.696 297.442 132.072 297.67 131.484C297.898 130.884 298.216 130.362 298.624 129.918C299.032 129.474 299.518 129.126 300.082 128.874C300.646 128.61 301.27 128.478 301.954 128.478C303.106 128.478 304.06 128.88 304.816 129.684V128.766ZM317.671 133.41C317.671 133.122 317.617 132.852 317.509 132.6C317.401 132.336 317.251 132.108 317.059 131.916C316.867 131.724 316.645 131.574 316.393 131.466C316.141 131.346 315.865 131.286 315.565 131.286C315.277 131.286 315.007 131.34 314.755 131.448C314.503 131.556 314.281 131.706 314.089 131.898C313.909 132.09 313.759 132.318 313.639 132.582C313.531 132.834 313.477 133.104 313.477 133.392C313.477 133.68 313.531 133.95 313.639 134.202C313.747 134.454 313.897 134.676 314.089 134.868C314.281 135.048 314.503 135.198 314.755 135.318C315.019 135.426 315.295 135.48 315.583 135.48C315.871 135.48 316.141 135.426 316.393 135.318C316.645 135.21 316.861 135.06 317.041 134.868C317.233 134.676 317.383 134.454 317.491 134.202C317.611 133.95 317.671 133.686 317.671 133.41ZM313.567 123.06V129.684C314.335 128.88 315.295 128.478 316.447 128.478C317.131 128.478 317.755 128.61 318.319 128.874C318.895 129.126 319.381 129.474 319.777 129.918C320.185 130.35 320.503 130.866 320.731 131.466C320.959 132.054 321.073 132.684 321.073 133.356C321.073 134.04 320.953 134.682 320.713 135.282C320.485 135.882 320.161 136.404 319.741 136.848C319.321 137.292 318.823 137.646 318.247 137.91C317.683 138.162 317.071 138.288 316.411 138.288C315.211 138.288 314.263 137.85 313.567 136.974V138H310.309V123.06H313.567ZM326.188 123.06V138H322.93V123.06H326.188ZM335.165 132.042C335.057 131.586 334.835 131.22 334.499 130.944C334.163 130.668 333.755 130.53 333.275 130.53C332.771 130.53 332.357 130.662 332.033 130.926C331.721 131.19 331.523 131.562 331.439 132.042H335.165ZM331.349 133.932C331.349 135.336 332.009 136.038 333.329 136.038C334.037 136.038 334.571 135.75 334.931 135.174H338.081C337.445 137.286 335.855 138.342 333.311 138.342C332.531 138.342 331.817 138.228 331.169 138C330.521 137.76 329.963 137.424 329.495 136.992C329.039 136.56 328.685 136.044 328.433 135.444C328.181 134.844 328.055 134.172 328.055 133.428C328.055 132.66 328.175 131.97 328.415 131.358C328.655 130.734 328.997 130.206 329.441 129.774C329.885 129.342 330.419 129.012 331.043 128.784C331.679 128.544 332.393 128.424 333.185 128.424C333.965 128.424 334.667 128.544 335.291 128.784C335.915 129.012 336.443 129.348 336.875 129.792C337.307 130.236 337.637 130.782 337.865 131.43C338.093 132.066 338.207 132.786 338.207 133.59V133.932H331.349ZM53.418 150.638C55.2 150.638 56.262 152.006 56.262 153.698C56.262 155.408 55.29 156.902 53.436 156.902C51.636 156.902 50.664 155.336 50.664 153.68C50.664 152.096 51.744 150.638 53.418 150.638ZM50.736 149.54H49.296V162.752H50.736V156.812H50.772C51.456 157.73 52.518 158.234 53.67 158.234C56.208 158.234 57.738 156.2 57.738 153.788C57.738 151.448 56.172 149.306 53.688 149.306C52.518 149.306 51.474 149.81 50.772 150.746H50.736V149.54ZM63.2667 150.638C65.0487 150.638 66.1107 152.006 66.1107 153.698C66.1107 155.408 65.1387 156.902 63.2847 156.902C61.4847 156.902 60.5127 155.336 60.5127 153.68C60.5127 152.096 61.5927 150.638 63.2667 150.638ZM67.4787 149.54H66.0387V150.746H66.0027C65.3007 149.846 64.2567 149.306 63.1047 149.306C60.5667 149.306 59.0367 151.376 59.0367 153.788C59.0367 156.128 60.6027 158.234 63.0867 158.234C64.2747 158.234 65.2647 157.766 66.0027 156.83H66.0387V158H67.4787V149.54ZM71.5133 149.54H70.0733V158H71.5133V153.77C71.5133 152.672 71.5853 150.638 73.1693 150.638C73.5473 150.638 73.7453 150.818 74.0333 151.016L74.7173 149.702C74.3033 149.468 73.9073 149.306 73.4213 149.306C72.4853 149.306 72.0533 149.792 71.5493 150.458H71.5133V149.54ZM79.6846 150.638C81.4666 150.638 82.5286 152.006 82.5286 153.698C82.5286 155.408 81.5566 156.902 79.7026 156.902C77.9026 156.902 76.9306 155.336 76.9306 153.68C76.9306 152.096 78.0106 150.638 79.6846 150.638ZM83.8966 149.54H82.4566V150.746H82.4206C81.7186 149.846 80.6746 149.306 79.5226 149.306C76.9846 149.306 75.4546 151.376 75.4546 153.788C75.4546 156.128 77.0206 158.234 79.5046 158.234C80.6926 158.234 81.6826 157.766 82.4206 156.83H82.4566V158H83.8966V149.54ZM96.0645 151.484V158H92.8065V151.484H91.7265V148.766H92.8065V145.994H96.0645V148.766H97.9185V151.484H96.0645ZM102.401 148.766V153.968C102.401 155.108 102.953 155.678 104.057 155.678C105.161 155.678 105.713 155.108 105.713 153.968V148.766H108.971V154.598C108.971 155.846 108.557 156.782 107.729 157.406C106.913 158.03 105.689 158.342 104.057 158.342C102.425 158.342 101.195 158.03 100.367 157.406C99.5513 156.782 99.1433 155.846 99.1433 154.598V148.766H102.401ZM117.302 148.766H120.56V149.936C121.004 149.396 121.454 149.036 121.91 148.856C122.366 148.664 122.9 148.568 123.512 148.568C124.16 148.568 124.712 148.676 125.168 148.892C125.636 149.096 126.032 149.39 126.356 149.774C126.62 150.086 126.8 150.434 126.896 150.818C126.992 151.202 127.04 151.64 127.04 152.132V158H123.782V153.338C123.782 152.882 123.746 152.516 123.674 152.24C123.614 151.952 123.5 151.724 123.332 151.556C123.188 151.412 123.026 151.31 122.846 151.25C122.666 151.19 122.474 151.16 122.27 151.16C121.718 151.16 121.292 151.328 120.992 151.664C120.704 151.988 120.56 152.456 120.56 153.068V158H117.302V148.766ZM136.005 152.042C135.897 151.586 135.675 151.22 135.339 150.944C135.003 150.668 134.595 150.53 134.115 150.53C133.611 150.53 133.197 150.662 132.873 150.926C132.561 151.19 132.363 151.562 132.279 152.042H136.005ZM132.189 153.932C132.189 155.336 132.849 156.038 134.169 156.038C134.877 156.038 135.411 155.75 135.771 155.174H138.921C138.285 157.286 136.695 158.342 134.151 158.342C133.371 158.342 132.657 158.228 132.009 158C131.361 157.76 130.803 157.424 130.335 156.992C129.879 156.56 129.525 156.044 129.273 155.444C129.021 154.844 128.895 154.172 128.895 153.428C128.895 152.66 129.015 151.97 129.255 151.358C129.495 150.734 129.837 150.206 130.281 149.774C130.725 149.342 131.259 149.012 131.883 148.784C132.519 148.544 133.233 148.424 134.025 148.424C134.805 148.424 135.507 148.544 136.131 148.784C136.755 149.012 137.283 149.348 137.715 149.792C138.147 150.236 138.477 150.782 138.705 151.43C138.933 152.066 139.047 152.786 139.047 153.59V153.932H132.189ZM143.933 153.338C143.933 153.638 143.987 153.92 144.095 154.184C144.203 154.436 144.347 154.658 144.527 154.85C144.719 155.042 144.941 155.192 145.193 155.3C145.457 155.408 145.739 155.462 146.039 155.462C146.327 155.462 146.597 155.408 146.849 155.3C147.113 155.192 147.335 155.042 147.515 154.85C147.707 154.658 147.857 154.436 147.965 154.184C148.085 153.92 148.145 153.644 148.145 153.356C148.145 153.056 148.085 152.78 147.965 152.528C147.857 152.276 147.707 152.054 147.515 151.862C147.323 151.67 147.095 151.52 146.831 151.412C146.579 151.304 146.315 151.25 146.039 151.25C145.751 151.25 145.481 151.31 145.229 151.43C144.977 151.538 144.755 151.688 144.563 151.88C144.371 152.06 144.215 152.276 144.095 152.528C143.987 152.78 143.933 153.05 143.933 153.338ZM151.241 148.766V157.37C151.241 157.886 151.211 158.348 151.151 158.756C151.091 159.164 151.007 159.524 150.899 159.836C150.755 160.232 150.527 160.598 150.215 160.934C149.915 161.282 149.549 161.582 149.117 161.834C148.685 162.086 148.193 162.284 147.641 162.428C147.101 162.572 146.513 162.644 145.877 162.644C145.157 162.644 144.497 162.554 143.897 162.374C143.297 162.194 142.769 161.942 142.313 161.618C141.869 161.306 141.503 160.934 141.215 160.502C140.927 160.082 140.735 159.62 140.639 159.116H144.311C144.539 159.728 145.055 160.034 145.859 160.034C146.543 160.034 147.065 159.842 147.425 159.458C147.797 159.074 147.983 158.54 147.983 157.856V156.974C147.743 157.202 147.509 157.394 147.281 157.55C147.065 157.694 146.843 157.814 146.615 157.91C146.387 158.006 146.147 158.072 145.895 158.108C145.643 158.156 145.367 158.18 145.067 158.18C144.407 158.18 143.801 158.066 143.249 157.838C142.697 157.61 142.217 157.292 141.809 156.884C141.413 156.476 141.101 155.99 140.873 155.426C140.657 154.85 140.549 154.214 140.549 153.518C140.549 152.81 140.669 152.156 140.909 151.556C141.149 150.944 141.473 150.416 141.881 149.972C142.301 149.516 142.793 149.162 143.357 148.91C143.933 148.646 144.557 148.514 145.229 148.514C146.321 148.514 147.239 148.922 147.983 149.738V148.766H151.241ZM156.538 153.338C156.538 153.65 156.592 153.938 156.7 154.202C156.82 154.454 156.97 154.676 157.15 154.868C157.342 155.06 157.564 155.21 157.816 155.318C158.08 155.426 158.356 155.48 158.644 155.48C158.932 155.48 159.202 155.426 159.454 155.318C159.718 155.21 159.94 155.06 160.12 154.868C160.312 154.676 160.462 154.454 160.57 154.202C160.69 153.938 160.75 153.656 160.75 153.356C160.75 153.068 160.69 152.798 160.57 152.546C160.462 152.282 160.312 152.054 160.12 151.862C159.94 151.67 159.718 151.52 159.454 151.412C159.202 151.304 158.932 151.25 158.644 151.25C158.356 151.25 158.08 151.304 157.816 151.412C157.564 151.52 157.342 151.67 157.15 151.862C156.97 152.054 156.82 152.276 156.7 152.528C156.592 152.78 156.538 153.05 156.538 153.338ZM153.1 153.302C153.1 152.618 153.238 151.982 153.514 151.394C153.79 150.794 154.174 150.278 154.666 149.846C155.158 149.402 155.74 149.054 156.412 148.802C157.096 148.55 157.84 148.424 158.644 148.424C159.436 148.424 160.168 148.55 160.84 148.802C161.524 149.042 162.112 149.384 162.604 149.828C163.108 150.26 163.498 150.782 163.774 151.394C164.05 151.994 164.188 152.66 164.188 153.392C164.188 154.124 164.044 154.796 163.756 155.408C163.48 156.008 163.096 156.53 162.604 156.974C162.112 157.406 161.518 157.742 160.822 157.982C160.138 158.222 159.394 158.342 158.59 158.342C157.798 158.342 157.066 158.222 156.394 157.982C155.722 157.742 155.14 157.4 154.648 156.956C154.168 156.512 153.79 155.984 153.514 155.372C153.238 154.748 153.1 154.058 153.1 153.302ZM173.029 151.754C172.465 151.37 171.895 151.178 171.319 151.178C171.007 151.178 170.713 151.232 170.437 151.34C170.173 151.448 169.939 151.604 169.735 151.808C169.531 152 169.369 152.234 169.249 152.51C169.141 152.774 169.087 153.074 169.087 153.41C169.087 153.734 169.141 154.034 169.249 154.31C169.369 154.574 169.525 154.808 169.717 155.012C169.921 155.204 170.161 155.354 170.437 155.462C170.713 155.57 171.007 155.624 171.319 155.624C171.931 155.624 172.501 155.414 173.029 154.994V157.766C172.225 158.114 171.463 158.288 170.743 158.288C170.071 158.288 169.429 158.174 168.817 157.946C168.217 157.718 167.683 157.394 167.215 156.974C166.759 156.542 166.393 156.032 166.117 155.444C165.841 154.844 165.703 154.178 165.703 153.446C165.703 152.714 165.835 152.048 166.099 151.448C166.363 150.836 166.723 150.314 167.179 149.882C167.635 149.438 168.175 149.096 168.799 148.856C169.435 148.604 170.113 148.478 170.833 148.478C171.625 148.478 172.357 148.646 173.029 148.982V151.754ZM178.145 148.766V158H174.887V148.766H178.145ZM174.671 145.22C174.671 144.968 174.719 144.734 174.815 144.518C174.911 144.29 175.043 144.092 175.211 143.924C175.379 143.756 175.571 143.624 175.787 143.528C176.015 143.432 176.255 143.384 176.507 143.384C176.759 143.384 176.993 143.432 177.209 143.528C177.437 143.624 177.635 143.756 177.803 143.924C177.971 144.092 178.103 144.29 178.199 144.518C178.295 144.734 178.343 144.968 178.343 145.22C178.343 145.472 178.295 145.712 178.199 145.94C178.103 146.156 177.971 146.348 177.803 146.516C177.635 146.684 177.437 146.816 177.209 146.912C176.993 147.008 176.759 147.056 176.507 147.056C176.255 147.056 176.015 147.008 175.787 146.912C175.571 146.816 175.379 146.684 175.211 146.516C175.043 146.348 174.911 146.156 174.815 145.94C174.719 145.712 174.671 145.472 174.671 145.22ZM183.45 153.338C183.45 153.65 183.504 153.938 183.612 154.202C183.732 154.454 183.882 154.676 184.062 154.868C184.254 155.06 184.476 155.21 184.728 155.318C184.992 155.426 185.268 155.48 185.556 155.48C185.844 155.48 186.114 155.426 186.366 155.318C186.63 155.21 186.852 155.06 187.032 154.868C187.224 154.676 187.374 154.454 187.482 154.202C187.602 153.938 187.662 153.656 187.662 153.356C187.662 153.068 187.602 152.798 187.482 152.546C187.374 152.282 187.224 152.054 187.032 151.862C186.852 151.67 186.63 151.52 186.366 151.412C186.114 151.304 185.844 151.25 185.556 151.25C185.268 151.25 184.992 151.304 184.728 151.412C184.476 151.52 184.254 151.67 184.062 151.862C183.882 152.054 183.732 152.276 183.612 152.528C183.504 152.78 183.45 153.05 183.45 153.338ZM180.012 153.302C180.012 152.618 180.15 151.982 180.426 151.394C180.702 150.794 181.086 150.278 181.578 149.846C182.07 149.402 182.652 149.054 183.324 148.802C184.008 148.55 184.752 148.424 185.556 148.424C186.348 148.424 187.08 148.55 187.752 148.802C188.436 149.042 189.024 149.384 189.516 149.828C190.02 150.26 190.41 150.782 190.686 151.394C190.962 151.994 191.1 152.66 191.1 153.392C191.1 154.124 190.956 154.796 190.668 155.408C190.392 156.008 190.008 156.53 189.516 156.974C189.024 157.406 188.43 157.742 187.734 157.982C187.05 158.222 186.306 158.342 185.502 158.342C184.71 158.342 183.978 158.222 183.306 157.982C182.634 157.742 182.052 157.4 181.56 156.956C181.08 156.512 180.702 155.984 180.426 155.372C180.15 154.748 180.012 154.058 180.012 153.302Z" fill="white"/>
</svg>
