<svg width="615" height="273" viewBox="0 0 615 273" fill="none" xmlns="http://www.w3.org/2000/svg">
<path d="M36.648 28.464H40.152C47.544 28.464 51.72 24.72 51.72 17.04C51.72 8.832 46.776 5.808 39.192 5.808H29.592V42H36.648V28.464ZM36.648 11.664H37.896C41.832 11.664 44.52 12.336 44.52 16.992C44.52 21.696 42.264 22.608 38.088 22.608H36.648V11.664ZM72.2074 26.736C77.0554 25.92 79.5994 21.312 79.5994 16.704C79.5994 8.976 74.6554 5.808 67.5034 5.808H57.9514V42H65.0074V27.408H65.1034L73.8874 42H82.4314L72.2074 26.736ZM65.0074 11.568H65.9674C69.7114 11.568 72.5434 12.432 72.5434 16.896C72.5434 21.312 69.8074 22.464 65.9194 22.464H65.0074V11.568ZM121.797 23.856C121.797 13.104 114.693 4.848 103.893 4.848C93.093 4.848 85.989 13.104 85.989 23.856C85.989 34.512 92.853 42.96 103.893 42.96C114.933 42.96 121.797 34.512 121.797 23.856ZM114.501 23.568C114.501 29.136 111.717 36 103.893 36C96.069 36 93.285 29.136 93.285 23.568C93.285 17.712 97.221 11.808 103.893 11.808C110.565 11.808 114.501 17.712 114.501 23.568ZM128.264 42H138.296C148.616 42 155.816 34.128 155.816 23.952C155.816 13.632 148.808 5.808 138.344 5.808H128.264V42ZM135.32 11.952H136.472C144.488 11.952 148.52 16.032 148.52 23.904C148.52 31.056 145.16 35.856 136.472 35.856H135.32V11.952ZM162.103 27.456C162.103 36.288 165.847 42.96 175.543 42.96C185.239 42.96 188.983 36.288 188.983 27.456V5.808H181.927V26.064C181.927 30.528 181.543 36.816 175.543 36.816C169.543 36.816 169.159 30.528 169.159 26.064V5.808H162.103V27.456ZM221.175 6.96C218.727 5.616 215.943 4.848 213.111 4.848C202.503 4.848 195.255 13.92 195.255 24.192C195.255 34.176 202.791 42.96 212.967 42.96C215.895 42.96 218.535 42.048 221.175 40.8V32.4C219.207 34.656 216.183 36.24 213.159 36.24C206.583 36.24 202.551 30.144 202.551 24.048C202.551 17.808 206.439 11.568 213.207 11.568C216.231 11.568 219.207 13.008 221.175 15.408V6.96ZM240.571 11.952H247.867V5.808H226.219V11.952H233.515V42H240.571V11.952ZM287.547 23.856C287.547 13.104 280.443 4.848 269.643 4.848C258.843 4.848 251.739 13.104 251.739 23.856C251.739 34.512 258.603 42.96 269.643 42.96C280.683 42.96 287.547 34.512 287.547 23.856ZM280.251 23.568C280.251 29.136 277.467 36 269.643 36C261.819 36 259.035 29.136 259.035 23.568C259.035 17.712 262.971 11.808 269.643 11.808C276.315 11.808 280.251 17.712 280.251 23.568ZM310.889 42H320.921C331.241 42 338.441 34.128 338.441 23.952C338.441 13.632 331.433 5.808 320.969 5.808H310.889V42ZM317.945 11.952H319.097C327.113 11.952 331.145 16.032 331.145 23.904C331.145 31.056 327.785 35.856 319.097 35.856H317.945V11.952ZM363.64 11.952V5.808H344.92V42H363.64V35.856H351.976V26.064H363.208V19.92H351.976V11.952H363.64ZM47.544 59.952V53.808H29.592V90H36.648V74.064H46.872V67.92H36.648V59.952H47.544ZM61.8668 53.808H54.8108V90H61.8668V53.808ZM69.9983 90H77.0543V65.424H77.1503L96.2063 90.72H101.294V53.808H94.2383V78.144H94.1423L75.0863 52.848H69.9983V90ZM129.388 82.368L132.172 90H139.708L125.98 52.848H120.508L106.396 90H113.836L116.812 82.368H129.388ZM127.42 76.608H118.828L122.812 63.456H122.908L127.42 76.608ZM144.858 90H151.914V65.424H152.01L171.066 90.72H176.154V53.808H169.098V78.144H169.002L149.946 52.848H144.858V90ZM208.472 54.96C206.024 53.616 203.24 52.848 200.408 52.848C189.8 52.848 182.552 61.92 182.552 72.192C182.552 82.176 190.088 90.96 200.264 90.96C203.192 90.96 205.832 90.048 208.472 88.8V80.4C206.504 82.656 203.48 84.24 200.456 84.24C193.88 84.24 189.848 78.144 189.848 72.048C189.848 65.808 193.736 59.568 200.504 59.568C203.528 59.568 206.504 61.008 208.472 63.408V54.96ZM223.164 53.808H216.108V90H223.164V53.808ZM251.263 82.368L254.047 90H261.583L247.855 52.848H242.383L228.271 90H235.711L238.687 82.368H251.263ZM249.295 76.608H240.703L244.687 63.456H244.783L249.295 76.608ZM296.637 90H303.741L298.317 52.848H293.229L284.685 76.704L275.757 52.848H270.765L264.669 90H271.773L274.989 67.536H275.085L283.005 90.48H285.453L293.661 67.536H293.757L296.637 90ZM316.914 53.808H309.858V90H316.914V53.808ZM343.765 59.952V53.808H325.045V90H343.765V83.856H332.101V74.064H343.333V67.92H332.101V59.952H343.765ZM351.483 90H358.539V65.424H358.635L377.691 90.72H382.779V53.808H375.723V78.144H375.627L356.571 52.848H351.483V90ZM402.665 59.952H409.961V53.808H388.312V59.952H395.609V90H402.665V59.952ZM449.641 71.856C449.641 61.104 442.537 52.848 431.737 52.848C420.937 52.848 413.833 61.104 413.833 71.856C413.833 82.512 420.697 90.96 431.737 90.96C442.777 90.96 449.641 82.512 449.641 71.856ZM442.345 71.568C442.345 77.136 439.561 84 431.737 84C423.913 84 421.129 77.136 421.129 71.568C421.129 65.712 425.065 59.808 431.737 59.808C438.409 59.808 442.345 65.712 442.345 71.568ZM36.648 124.464H40.152C47.544 124.464 51.72 120.72 51.72 113.04C51.72 104.832 46.776 101.808 39.192 101.808H29.592V138H36.648V124.464ZM36.648 107.664H37.896C41.832 107.664 44.52 108.336 44.52 112.992C44.52 117.696 42.264 118.608 38.088 118.608H36.648V107.664ZM76.6714 107.952V101.808H57.9514V138H76.6714V131.856H65.0074V122.064H76.2394V115.92H65.0074V107.952H76.6714ZM84.3889 138H91.4449V113.424H91.5409L110.597 138.72H115.685V101.808H108.629V126.144H108.533L89.4769 100.848H84.3889V138ZM144.163 104.88C141.955 102.432 137.491 100.848 134.275 100.848C128.179 100.848 123.715 105.696 123.715 111.696C123.715 117.312 127.123 119.664 131.779 121.584C134.611 122.688 138.067 123.744 138.067 127.488C138.067 130.272 136.291 132.72 133.411 132.72C130.387 132.72 127.843 130.224 126.883 127.44L122.323 131.904C124.819 136.08 128.467 138.96 133.459 138.96C140.851 138.96 145.363 133.824 145.363 126.576C145.363 114.432 131.011 116.976 131.011 110.88C131.011 108.528 133.171 106.8 135.427 106.8C137.779 106.8 139.507 107.952 140.851 109.776L144.163 104.88ZM172.044 130.368L174.828 138H182.364L168.636 100.848H163.164L149.052 138H156.492L159.468 130.368H172.044ZM170.076 124.608H161.484L165.468 111.456H165.564L170.076 124.608ZM187.514 138H197.546C207.866 138 215.066 130.128 215.066 119.952C215.066 109.632 208.058 101.808 197.594 101.808H187.514V138ZM194.57 107.952H195.722C203.738 107.952 207.77 112.032 207.77 119.904C207.77 127.056 204.41 131.856 195.722 131.856H194.57V107.952ZM255.625 119.856C255.625 109.104 248.521 100.848 237.721 100.848C226.921 100.848 219.817 109.104 219.817 119.856C219.817 130.512 226.681 138.96 237.721 138.96C248.761 138.96 255.625 130.512 255.625 119.856ZM248.329 119.568C248.329 125.136 245.545 132 237.721 132C229.897 132 227.113 125.136 227.113 119.568C227.113 113.712 231.049 107.808 237.721 107.808C244.393 107.808 248.329 113.712 248.329 119.568ZM286.023 124.464H289.527C296.919 124.464 301.095 120.72 301.095 113.04C301.095 104.832 296.151 101.808 288.567 101.808H278.967V138H286.023V124.464ZM286.023 107.664H287.271C291.207 107.664 293.895 108.336 293.895 112.992C293.895 117.696 291.639 118.608 287.463 118.608H286.023V107.664ZM323.451 130.368L326.235 138H333.771L320.043 100.848H314.571L300.459 138H307.899L310.875 130.368H323.451ZM321.483 124.608H312.891L316.875 111.456H316.971L321.483 124.608ZM353.176 122.736C358.024 121.92 360.568 117.312 360.568 112.704C360.568 104.976 355.624 101.808 348.472 101.808H338.92V138H345.976V123.408H346.072L354.856 138H363.4L353.176 122.736ZM345.976 107.568H346.936C350.68 107.568 353.512 108.432 353.512 112.896C353.512 117.312 350.776 118.464 346.888 118.464H345.976V107.568ZM388.654 130.368L391.438 138H398.974L385.246 100.848H379.774L365.662 138H373.102L376.078 130.368H388.654ZM386.686 124.608H378.094L382.078 111.456H382.174L386.686 124.608ZM428.054 116.064V101.808H420.998V138H428.054V121.824H441.11V138H448.166V101.808H441.11V116.064H428.054ZM476.31 130.368L479.094 138H486.63L472.902 100.848H467.43L453.318 138H460.758L463.734 130.368H476.31ZM474.342 124.608H465.75L469.734 111.456H469.83L474.342 124.608ZM515.972 102.96C513.524 101.616 510.74 100.848 507.908 100.848C497.3 100.848 490.052 109.92 490.052 120.192C490.052 130.176 497.588 138.96 507.764 138.96C510.692 138.96 513.332 138.048 515.972 136.8V128.4C514.004 130.656 510.98 132.24 507.956 132.24C501.38 132.24 497.348 126.144 497.348 120.048C497.348 113.808 501.236 107.568 508.004 107.568C511.028 107.568 514.004 109.008 515.972 111.408V102.96ZM542.328 107.952V101.808H523.608V138H542.328V131.856H530.664V122.064H541.896V115.92H530.664V107.952H542.328ZM564.301 122.736C569.149 121.92 571.693 117.312 571.693 112.704C571.693 104.976 566.749 101.808 559.597 101.808H550.045V138H557.101V123.408H557.197L565.981 138H574.525L564.301 122.736ZM557.101 107.568H558.061C561.805 107.568 564.637 108.432 564.637 112.896C564.637 117.312 561.901 118.464 558.013 118.464H557.101V107.568ZM53.784 150.96C51.336 149.616 48.552 148.848 45.72 148.848C35.112 148.848 27.864 157.92 27.864 168.192C27.864 178.176 35.4 186.96 45.576 186.96C48.504 186.96 51.144 186.048 53.784 184.8V176.4C51.816 178.656 48.792 180.24 45.768 180.24C39.192 180.24 35.16 174.144 35.16 168.048C35.16 161.808 39.048 155.568 45.816 155.568C48.84 155.568 51.816 157.008 53.784 159.408V150.96ZM75.6761 170.736C80.5241 169.92 83.0681 165.312 83.0681 160.704C83.0681 152.976 78.1241 149.808 70.9721 149.808H61.4201V186H68.4761V171.408H68.5721L77.3561 186H85.9001L75.6761 170.736ZM68.4761 155.568H69.4361C73.1801 155.568 76.0121 156.432 76.0121 160.896C76.0121 165.312 73.2761 166.464 69.3881 166.464H68.4761V155.568ZM109.906 155.952V149.808H91.1858V186H109.906V179.856H98.2418V170.064H109.474V163.92H98.2418V155.952H109.906ZM141.815 150.96C139.367 149.616 136.583 148.848 133.751 148.848C123.143 148.848 115.895 157.92 115.895 168.192C115.895 178.176 123.431 186.96 133.607 186.96C136.535 186.96 139.175 186.048 141.815 184.8V176.4C139.847 178.656 136.823 180.24 133.799 180.24C127.223 180.24 123.191 174.144 123.191 168.048C123.191 161.808 127.079 155.568 133.847 155.568C136.871 155.568 139.847 157.008 141.815 159.408V150.96ZM168.171 155.952V149.808H149.451V186H168.171V179.856H156.507V170.064H167.739V163.92H156.507V155.952H168.171ZM190.145 170.736C194.993 169.92 197.537 165.312 197.537 160.704C197.537 152.976 192.593 149.808 185.441 149.808H175.889V186H182.945V171.408H183.041L191.825 186H200.369L190.145 170.736ZM182.945 155.568H183.905C187.649 155.568 190.481 156.432 190.481 160.896C190.481 165.312 187.745 166.464 183.857 166.464H182.945V155.568ZM234.29 155.952H241.586V149.808H219.938V155.952H227.234V186H234.29V155.952ZM246.994 171.456C246.994 180.288 250.738 186.96 260.434 186.96C270.13 186.96 273.874 180.288 273.874 171.456V149.808H266.818V170.064C266.818 174.528 266.434 180.816 260.434 180.816C254.434 180.816 254.05 174.528 254.05 170.064V149.808H246.994V171.456ZM317.468 155.952V149.808H298.748V186H317.468V179.856H305.804V170.064H317.036V163.92H305.804V155.952H317.468ZM355.09 186H362.194L356.77 148.848H351.682L343.138 172.704L334.21 148.848H329.218L323.122 186H330.226L333.442 163.536H333.538L341.458 186.48H343.906L352.114 163.536H352.21L355.09 186ZM375.367 172.464H378.871C386.263 172.464 390.439 168.72 390.439 161.04C390.439 152.832 385.495 149.808 377.911 149.808H368.311V186H375.367V172.464ZM375.367 155.664H376.615C380.551 155.664 383.239 156.336 383.239 160.992C383.239 165.696 380.983 166.608 376.807 166.608H375.367V155.664ZM410.926 170.736C415.774 169.92 418.318 165.312 418.318 160.704C418.318 152.976 413.374 149.808 406.222 149.808H396.67V186H403.726V171.408H403.822L412.606 186H421.15L410.926 170.736ZM403.726 155.568H404.686C408.43 155.568 411.262 156.432 411.262 160.896C411.262 165.312 408.526 166.464 404.638 166.464H403.726V155.568ZM445.156 155.952V149.808H426.436V186H445.156V179.856H433.492V170.064H444.724V163.92H433.492V155.952H445.156ZM473.225 152.88C471.017 150.432 466.553 148.848 463.337 148.848C457.241 148.848 452.777 153.696 452.777 159.696C452.777 165.312 456.185 167.664 460.841 169.584C463.673 170.688 467.129 171.744 467.129 175.488C467.129 178.272 465.353 180.72 462.473 180.72C459.449 180.72 456.905 178.224 455.945 175.44L451.385 179.904C453.881 184.08 457.529 186.96 462.521 186.96C469.913 186.96 474.425 181.824 474.425 174.576C474.425 162.432 460.073 164.976 460.073 158.88C460.073 156.528 462.233 154.8 464.489 154.8C466.841 154.8 468.569 155.952 469.913 157.776L473.225 152.88ZM501.107 178.368L503.891 186H511.427L497.699 148.848H492.227L478.115 186H485.555L488.531 178.368H501.107ZM499.139 172.608H490.547L494.531 159.456H494.627L499.139 172.608Z" fill="white"/>
<path d="M26 231H14C9.58172 231 6 227.418 6 223V13" stroke="white" stroke-width="1.5"/>
<path d="M12.622 7.0784C12.622 10.6144 9.92461 13.4068 6.68598 13.4068C3.44736 13.4068 0.75 10.6144 0.75 7.0784C0.75 3.54244 3.44736 0.75 6.68598 0.75C9.92461 0.75 12.622 3.54244 12.622 7.0784Z" stroke="white" stroke-width="1.5"/>
<rect x="24" y="209" width="466" height="64" rx="16" fill="#002A61"/>
<path d="M42.5469 248V235.133H49.332V236.53H44.0762V240.222H49.332V241.646H44.0762V246.576H49.332V248H42.5469ZM51.8633 248V234.377H53.2695V248H51.8633ZM72.6582 248V243.263C72.6582 242.448 72.4941 241.845 72.166 241.452C71.8379 241.054 71.334 240.854 70.6543 240.854C70.2852 240.854 69.9424 240.931 69.626 241.083C69.3154 241.229 69.0518 241.44 68.835 241.716C68.6768 241.927 68.5625 242.173 68.4922 242.454C68.4219 242.735 68.3867 243.198 68.3867 243.843V248H67.0596V243.263C67.0596 242.448 66.8955 241.845 66.5674 241.452C66.2393 241.054 65.7354 240.854 65.0557 240.854C64.6865 240.854 64.3408 240.931 64.0186 241.083C63.7021 241.229 63.4355 241.44 63.2188 241.716C63.0664 241.921 62.9551 242.158 62.8848 242.428C62.8203 242.697 62.7881 243.169 62.7881 243.843V248H61.4609V239.958H62.8057V241.197C63.1396 240.682 63.5381 240.298 64.001 240.046C64.4639 239.794 64.9971 239.668 65.6006 239.668C66.251 239.668 66.8047 239.809 67.2617 240.09C67.7188 240.365 68.0645 240.77 68.2988 241.303C68.6445 240.752 69.0518 240.342 69.5205 240.072C69.9951 239.803 70.543 239.668 71.1641 239.668C72.0605 239.668 72.7607 239.92 73.2646 240.424C73.7686 240.928 74.0205 241.628 74.0205 242.524V248H72.6582ZM82.8887 244.054C82.8887 243.146 82.6396 242.416 82.1416 241.865C81.6494 241.309 81.0049 241.03 80.208 241.03C79.3818 241.03 78.7373 241.285 78.2744 241.795C77.8115 242.305 77.5801 243.017 77.5801 243.931C77.5801 244.903 77.8115 245.653 78.2744 246.181C78.7432 246.708 79.4053 246.972 80.2607 246.972C81.0811 246.972 81.7227 246.717 82.1855 246.207C82.6543 245.691 82.8887 244.974 82.8887 244.054ZM84.2246 239.958V248H82.8887V246.541C82.5664 247.127 82.1533 247.575 81.6494 247.886C81.1514 248.19 80.5918 248.343 79.9707 248.343C78.8164 248.343 77.8848 247.947 77.1758 247.156C76.4727 246.359 76.1211 245.308 76.1211 244.001C76.1211 242.677 76.4639 241.625 77.1494 240.846C77.835 240.061 78.752 239.668 79.9004 239.668C80.5742 239.668 81.1572 239.82 81.6494 240.125C82.1475 240.424 82.5488 240.872 82.8535 241.47V239.958H84.2246ZM86.9844 248V239.958H88.3291V241.197C88.6748 240.682 89.0908 240.298 89.5771 240.046C90.0635 239.794 90.626 239.668 91.2646 239.668C92.2139 239.668 92.9551 239.92 93.4883 240.424C94.0215 240.928 94.2881 241.628 94.2881 242.524V248H92.8818V243.263C92.8818 242.448 92.709 241.845 92.3633 241.452C92.0234 241.054 91.4961 240.854 90.7812 240.854C90.3711 240.854 89.9961 240.931 89.6562 241.083C89.3223 241.229 89.0439 241.44 88.8213 241.716C88.6514 241.927 88.5283 242.167 88.4521 242.437C88.3818 242.706 88.3467 243.175 88.3467 243.843V248H86.9844ZM102.726 243.069C102.679 242.36 102.441 241.815 102.014 241.435C101.592 241.048 101.012 240.854 100.273 240.854C99.6055 240.854 99.0488 241.057 98.6035 241.461C98.1582 241.859 97.9004 242.396 97.8301 243.069H102.726ZM104.202 244.186H97.8301V244.309C97.8301 245.17 98.0762 245.867 98.5684 246.4C99.0605 246.928 99.7021 247.191 100.493 247.191C101.032 247.191 101.519 247.048 101.952 246.761C102.386 246.468 102.77 246.028 103.104 245.442L104.149 246.146C103.745 246.872 103.229 247.42 102.603 247.789C101.976 248.158 101.249 248.343 100.423 248.343C99.1982 248.343 98.208 247.938 97.4521 247.13C96.6963 246.321 96.3184 245.261 96.3184 243.948C96.3184 242.688 96.6934 241.657 97.4434 240.854C98.1934 240.052 99.1572 239.65 100.335 239.65C101.524 239.65 102.465 240.031 103.156 240.793C103.854 241.555 104.202 242.595 104.202 243.913V244.186ZM106.03 236.082C106.03 235.807 106.127 235.572 106.32 235.379C106.52 235.18 106.76 235.08 107.041 235.08C107.316 235.08 107.551 235.18 107.744 235.379C107.943 235.578 108.043 235.818 108.043 236.1C108.043 236.375 107.946 236.609 107.753 236.803C107.56 236.996 107.322 237.093 107.041 237.093C106.76 237.093 106.52 236.996 106.32 236.803C106.127 236.609 106.03 236.369 106.03 236.082ZM106.355 251.92V239.958H107.744V251.92H106.355ZM111.453 244.001C111.453 244.851 111.737 245.571 112.306 246.163C112.874 246.749 113.562 247.042 114.371 247.042C115.174 247.042 115.856 246.749 116.419 246.163C116.981 245.571 117.263 244.851 117.263 244.001C117.263 243.151 116.981 242.434 116.419 241.848C115.856 241.256 115.174 240.96 114.371 240.96C113.557 240.96 112.865 241.256 112.297 241.848C111.734 242.434 111.453 243.151 111.453 244.001ZM109.994 244.001C109.994 243.409 110.103 242.853 110.319 242.331C110.536 241.804 110.853 241.335 111.269 240.925C111.685 240.515 112.156 240.204 112.684 239.993C113.211 239.776 113.773 239.668 114.371 239.668C114.957 239.668 115.511 239.776 116.032 239.993C116.56 240.21 117.037 240.526 117.465 240.942C117.881 241.347 118.197 241.812 118.414 242.34C118.631 242.861 118.739 243.415 118.739 244.001C118.739 244.587 118.631 245.141 118.414 245.662C118.197 246.178 117.881 246.638 117.465 247.042C117.037 247.464 116.557 247.786 116.023 248.009C115.496 248.231 114.945 248.343 114.371 248.343C113.779 248.343 113.217 248.231 112.684 248.009C112.156 247.792 111.685 247.479 111.269 247.068C110.853 246.646 110.536 246.178 110.319 245.662C110.103 245.146 109.994 244.593 109.994 244.001ZM132.354 244.019C132.354 243.122 132.104 242.401 131.606 241.856C131.108 241.306 130.452 241.03 129.638 241.03C128.823 241.03 128.188 241.279 127.73 241.777C127.273 242.275 127.045 242.964 127.045 243.843C127.045 244.833 127.276 245.609 127.739 246.172C128.202 246.729 128.841 247.007 129.655 247.007C130.499 247.007 131.158 246.743 131.633 246.216C132.113 245.688 132.354 244.956 132.354 244.019ZM133.689 234.377V248H132.354V246.541C132.037 247.121 131.627 247.566 131.123 247.877C130.619 248.188 130.057 248.343 129.436 248.343C128.281 248.343 127.35 247.947 126.641 247.156C125.938 246.359 125.586 245.308 125.586 244.001C125.586 242.683 125.932 241.631 126.623 240.846C127.314 240.061 128.234 239.668 129.383 239.668C130.051 239.668 130.631 239.82 131.123 240.125C131.615 240.424 132.014 240.872 132.318 241.47V234.377H133.689ZM142.206 243.069C142.159 242.36 141.922 241.815 141.494 241.435C141.072 241.048 140.492 240.854 139.754 240.854C139.086 240.854 138.529 241.057 138.084 241.461C137.639 241.859 137.381 242.396 137.311 243.069H142.206ZM143.683 244.186H137.311V244.309C137.311 245.17 137.557 245.867 138.049 246.4C138.541 246.928 139.183 247.191 139.974 247.191C140.513 247.191 140.999 247.048 141.433 246.761C141.866 246.468 142.25 246.028 142.584 245.442L143.63 246.146C143.226 246.872 142.71 247.42 142.083 247.789C141.456 248.158 140.729 248.343 139.903 248.343C138.679 248.343 137.688 247.938 136.933 247.13C136.177 246.321 135.799 245.261 135.799 243.948C135.799 242.688 136.174 241.657 136.924 240.854C137.674 240.052 138.638 239.65 139.815 239.65C141.005 239.65 141.945 240.031 142.637 240.793C143.334 241.555 143.683 242.595 143.683 243.913V244.186ZM151.32 248L151.303 241.338H149.976V239.123H151.303V236.478H154.405V239.123H155.715V241.338H154.405V248H151.32ZM166.288 239.123V243.658C166.288 244.672 166.212 245.41 166.06 245.873C165.896 246.354 165.62 246.787 165.233 247.174C164.864 247.561 164.378 247.854 163.774 248.053C163.2 248.246 162.509 248.343 161.7 248.343C160.897 248.343 160.215 248.246 159.652 248.053C159.072 247.865 158.574 247.572 158.158 247.174C157.777 246.811 157.508 246.383 157.35 245.891C157.191 245.434 157.112 244.689 157.112 243.658V239.123H160.101V243.86C160.101 244.604 160.227 245.138 160.479 245.46C160.707 245.8 161.103 245.97 161.665 245.97C162.222 245.97 162.62 245.806 162.86 245.478C163.106 245.149 163.229 244.61 163.229 243.86V239.123H166.288ZM167.712 247.262L168.362 244.871C168.819 245.275 169.323 245.58 169.874 245.785C170.419 246.002 170.97 246.11 171.526 246.11C171.925 246.11 172.224 246.043 172.423 245.908C172.628 245.785 172.73 245.606 172.73 245.372C172.73 244.979 172.317 244.687 171.491 244.493C171.204 244.429 170.987 244.373 170.841 244.326C169.886 244.045 169.209 243.702 168.811 243.298C168.377 242.882 168.16 242.343 168.16 241.681C168.16 240.825 168.485 240.137 169.136 239.615C169.763 239.1 170.639 238.842 171.764 238.842C172.309 238.842 172.889 238.906 173.504 239.035C174.02 239.141 174.62 239.346 175.306 239.65L174.655 241.804C174.233 241.517 173.809 241.303 173.381 241.162C172.977 241.016 172.552 240.942 172.106 240.942C171.743 240.942 171.471 240.998 171.289 241.109C171.113 241.215 171.025 241.376 171.025 241.593C171.025 241.897 171.438 242.161 172.265 242.384C172.534 242.466 172.672 242.507 172.678 242.507C173.756 242.812 174.512 243.172 174.945 243.588C175.367 244.027 175.578 244.599 175.578 245.302C175.578 246.21 175.229 246.942 174.532 247.499C173.817 248.062 172.895 248.343 171.764 248.343C170.979 248.343 170.255 248.252 169.593 248.07C168.937 247.895 168.31 247.625 167.712 247.262ZM189.271 242.041C188.967 241.771 188.674 241.575 188.393 241.452C188.141 241.329 187.845 241.268 187.505 241.268C186.878 241.268 186.386 241.473 186.028 241.883C185.659 242.287 185.475 242.844 185.475 243.553C185.475 244.232 185.665 244.771 186.046 245.17C186.415 245.58 186.928 245.785 187.584 245.785C187.895 245.785 188.193 245.721 188.48 245.592C188.785 245.445 189.049 245.252 189.271 245.012V247.728C188.896 247.927 188.519 248.085 188.138 248.202C187.733 248.296 187.35 248.343 186.986 248.343C185.615 248.343 184.511 247.903 183.673 247.024C183.386 246.731 183.148 246.409 182.961 246.058C182.779 245.706 182.639 245.325 182.539 244.915C182.445 244.505 182.398 244.057 182.398 243.57C182.398 242.17 182.826 241.033 183.682 240.16C184.543 239.281 185.656 238.842 187.021 238.842C187.449 238.842 187.856 238.889 188.243 238.982C188.618 239.076 188.961 239.214 189.271 239.396V242.041ZM197.498 243.588C197.498 242.926 197.331 242.404 196.997 242.023C196.651 241.643 196.2 241.452 195.644 241.452C195.069 241.452 194.618 241.643 194.29 242.023C193.956 242.393 193.789 242.914 193.789 243.588C193.789 244.244 193.95 244.76 194.272 245.135C194.624 245.521 195.081 245.715 195.644 245.715C196.206 245.715 196.663 245.521 197.015 245.135C197.337 244.748 197.498 244.232 197.498 243.588ZM200.609 243.588C200.609 244.238 200.483 244.845 200.231 245.407C199.968 246.005 199.607 246.521 199.15 246.954C198.635 247.435 198.102 247.783 197.551 248C196.977 248.229 196.341 248.343 195.644 248.343C194.94 248.343 194.305 248.229 193.736 248C193.156 247.771 192.62 247.426 192.128 246.963C191.642 246.494 191.29 245.976 191.073 245.407C190.821 244.862 190.695 244.256 190.695 243.588C190.695 242.938 190.821 242.325 191.073 241.751C191.308 241.171 191.662 240.655 192.137 240.204C192.6 239.759 193.133 239.416 193.736 239.176C194.311 238.953 194.946 238.842 195.644 238.842C196.335 238.842 196.971 238.953 197.551 239.176C198.154 239.416 198.688 239.759 199.15 240.204C199.637 240.644 199.997 241.159 200.231 241.751C200.483 242.325 200.609 242.938 200.609 243.588ZM205.206 243.57C205.206 244.279 205.391 244.827 205.76 245.214C206.1 245.606 206.592 245.803 207.236 245.803C207.875 245.803 208.373 245.606 208.73 245.214C209.088 244.821 209.267 244.273 209.267 243.57C209.267 242.873 209.088 242.328 208.73 241.936C208.367 241.537 207.869 241.338 207.236 241.338C206.598 241.338 206.105 241.537 205.76 241.936C205.391 242.322 205.206 242.867 205.206 243.57ZM202.429 234.377H205.417V239.018C205.417 239.475 205.411 239.788 205.399 239.958C205.376 240.257 205.353 240.471 205.329 240.6C205.698 239.961 206.117 239.513 206.586 239.255C207.055 238.979 207.667 238.842 208.423 238.842C209.606 238.842 210.567 239.272 211.306 240.134C212.038 241.007 212.404 242.152 212.404 243.57C212.404 245.029 212.038 246.187 211.306 247.042C210.567 247.909 209.571 248.343 208.317 248.343C207.69 248.343 207.137 248.193 206.656 247.895C206.158 247.607 205.71 247.162 205.312 246.559V248H202.429V234.377ZM214.312 248V239.123H217.265V241.215C217.575 240.447 217.988 239.876 218.504 239.501C219.037 239.12 219.679 238.93 220.429 238.93C220.599 238.93 220.725 238.936 220.807 238.947C220.871 238.953 220.93 238.959 220.982 238.965C221.035 238.965 221.103 238.971 221.185 238.982L220.886 241.83C220.669 241.76 220.481 241.71 220.323 241.681C220.089 241.657 219.916 241.646 219.805 241.646C219.043 241.646 218.454 241.88 218.038 242.349C217.628 242.812 217.423 243.471 217.423 244.326V248H214.312ZM228.646 243.588C228.646 242.926 228.479 242.404 228.146 242.023C227.8 241.643 227.349 241.452 226.792 241.452C226.218 241.452 225.767 241.643 225.438 242.023C225.104 242.393 224.938 242.914 224.938 243.588C224.938 244.244 225.099 244.76 225.421 245.135C225.772 245.521 226.229 245.715 226.792 245.715C227.354 245.715 227.812 245.521 228.163 245.135C228.485 244.748 228.646 244.232 228.646 243.588ZM231.758 243.588C231.758 244.238 231.632 244.845 231.38 245.407C231.116 246.005 230.756 246.521 230.299 246.954C229.783 247.435 229.25 247.783 228.699 248C228.125 248.229 227.489 248.343 226.792 248.343C226.089 248.343 225.453 248.229 224.885 248C224.305 247.771 223.769 247.426 223.276 246.963C222.79 246.494 222.438 245.976 222.222 245.407C221.97 244.862 221.844 244.256 221.844 243.588C221.844 242.938 221.97 242.325 222.222 241.751C222.456 241.171 222.811 240.655 223.285 240.204C223.748 239.759 224.281 239.416 224.885 239.176C225.459 238.953 226.095 238.842 226.792 238.842C227.483 238.842 228.119 238.953 228.699 239.176C229.303 239.416 229.836 239.759 230.299 240.204C230.785 240.644 231.146 241.159 231.38 241.751C231.632 242.325 231.758 242.938 231.758 243.588ZM232.733 247.262L233.384 244.871C233.841 245.275 234.345 245.58 234.896 245.785C235.44 246.002 235.991 246.11 236.548 246.11C236.946 246.11 237.245 246.043 237.444 245.908C237.649 245.785 237.752 245.606 237.752 245.372C237.752 244.979 237.339 244.687 236.513 244.493C236.226 244.429 236.009 244.373 235.862 244.326C234.907 244.045 234.23 243.702 233.832 243.298C233.398 242.882 233.182 242.343 233.182 241.681C233.182 240.825 233.507 240.137 234.157 239.615C234.784 239.1 235.66 238.842 236.785 238.842C237.33 238.842 237.91 238.906 238.525 239.035C239.041 239.141 239.642 239.346 240.327 239.65L239.677 241.804C239.255 241.517 238.83 241.303 238.402 241.162C237.998 241.016 237.573 240.942 237.128 240.942C236.765 240.942 236.492 240.998 236.311 241.109C236.135 241.215 236.047 241.376 236.047 241.593C236.047 241.897 236.46 242.161 237.286 242.384C237.556 242.466 237.693 242.507 237.699 242.507C238.777 242.812 239.533 243.172 239.967 243.588C240.389 244.027 240.6 244.599 240.6 245.302C240.6 246.21 240.251 246.942 239.554 247.499C238.839 248.062 237.916 248.343 236.785 248.343C236 248.343 235.276 248.252 234.614 248.07C233.958 247.895 233.331 247.625 232.733 247.262ZM253.546 243.069C253.499 242.36 253.262 241.815 252.834 241.435C252.412 241.048 251.832 240.854 251.094 240.854C250.426 240.854 249.869 241.057 249.424 241.461C248.979 241.859 248.721 242.396 248.65 243.069H253.546ZM255.022 244.186H248.65V244.309C248.65 245.17 248.896 245.867 249.389 246.4C249.881 246.928 250.522 247.191 251.313 247.191C251.853 247.191 252.339 247.048 252.772 246.761C253.206 246.468 253.59 246.028 253.924 245.442L254.97 246.146C254.565 246.872 254.05 247.42 253.423 247.789C252.796 248.158 252.069 248.343 251.243 248.343C250.019 248.343 249.028 247.938 248.272 247.13C247.517 246.321 247.139 245.261 247.139 243.948C247.139 242.688 247.514 241.657 248.264 240.854C249.014 240.052 249.978 239.65 251.155 239.65C252.345 239.65 253.285 240.031 253.977 240.793C254.674 241.555 255.022 242.595 255.022 243.913V244.186ZM256.253 246.646L257.431 245.855C257.653 246.283 257.935 246.605 258.274 246.822C258.614 247.033 259.016 247.139 259.479 247.139C259.93 247.139 260.293 247.027 260.568 246.805C260.85 246.582 260.99 246.289 260.99 245.926C260.99 245.645 260.894 245.41 260.7 245.223C260.513 245.035 260.188 244.862 259.725 244.704C259.678 244.687 259.602 244.66 259.496 244.625C257.539 243.951 256.561 243.107 256.561 242.094C256.561 241.379 256.824 240.796 257.352 240.345C257.879 239.894 258.564 239.668 259.408 239.668C260.105 239.668 260.703 239.809 261.201 240.09C261.699 240.365 262.057 240.758 262.273 241.268L261.157 241.953C260.993 241.584 260.75 241.3 260.428 241.101C260.111 240.901 259.742 240.802 259.32 240.802C258.916 240.802 258.585 240.916 258.327 241.145C258.075 241.367 257.949 241.654 257.949 242.006C257.949 242.498 258.482 242.911 259.549 243.245C259.748 243.31 259.906 243.359 260.023 243.395C260.896 243.676 261.503 243.998 261.843 244.361C262.188 244.719 262.361 245.193 262.361 245.785C262.361 246.547 262.089 247.165 261.544 247.64C261.005 248.108 260.299 248.343 259.426 248.343C258.676 248.343 258.037 248.202 257.51 247.921C256.988 247.64 256.569 247.215 256.253 246.646ZM264.646 241.092H263.17V239.958H264.646V236.715H266.053V239.958H267.529V241.092H266.053V248H264.646V241.092ZM275.246 244.054C275.246 243.146 274.997 242.416 274.499 241.865C274.007 241.309 273.362 241.03 272.565 241.03C271.739 241.03 271.095 241.285 270.632 241.795C270.169 242.305 269.938 243.017 269.938 243.931C269.938 244.903 270.169 245.653 270.632 246.181C271.101 246.708 271.763 246.972 272.618 246.972C273.438 246.972 274.08 246.717 274.543 246.207C275.012 245.691 275.246 244.974 275.246 244.054ZM276.582 239.958V248H275.246V246.541C274.924 247.127 274.511 247.575 274.007 247.886C273.509 248.19 272.949 248.343 272.328 248.343C271.174 248.343 270.242 247.947 269.533 247.156C268.83 246.359 268.479 245.308 268.479 244.001C268.479 242.677 268.821 241.625 269.507 240.846C270.192 240.061 271.109 239.668 272.258 239.668C272.932 239.668 273.515 239.82 274.007 240.125C274.505 240.424 274.906 240.872 275.211 241.47V239.958H276.582ZM271.563 238.692L273.356 235.634H275.123L272.618 238.692H271.563ZM290.354 243.069C290.308 242.36 290.07 241.815 289.643 241.435C289.221 241.048 288.641 240.854 287.902 240.854C287.234 240.854 286.678 241.057 286.232 241.461C285.787 241.859 285.529 242.396 285.459 243.069H290.354ZM291.831 244.186H285.459V244.309C285.459 245.17 285.705 245.867 286.197 246.4C286.689 246.928 287.331 247.191 288.122 247.191C288.661 247.191 289.147 247.048 289.581 246.761C290.015 246.468 290.398 246.028 290.732 245.442L291.778 246.146C291.374 246.872 290.858 247.42 290.231 247.789C289.604 248.158 288.878 248.343 288.052 248.343C286.827 248.343 285.837 247.938 285.081 247.13C284.325 246.321 283.947 245.261 283.947 243.948C283.947 242.688 284.322 241.657 285.072 240.854C285.822 240.052 286.786 239.65 287.964 239.65C289.153 239.65 290.094 240.031 290.785 240.793C291.482 241.555 291.831 242.595 291.831 243.913V244.186ZM293.914 248V239.958H295.259V241.197C295.604 240.682 296.021 240.298 296.507 240.046C296.993 239.794 297.556 239.668 298.194 239.668C299.144 239.668 299.885 239.92 300.418 240.424C300.951 240.928 301.218 241.628 301.218 242.524V248H299.812V243.263C299.812 242.448 299.639 241.845 299.293 241.452C298.953 241.054 298.426 240.854 297.711 240.854C297.301 240.854 296.926 240.931 296.586 241.083C296.252 241.229 295.974 241.44 295.751 241.716C295.581 241.927 295.458 242.167 295.382 242.437C295.312 242.706 295.276 243.175 295.276 243.843V248H293.914ZM310.569 244.019C310.569 244.956 310.81 245.688 311.29 246.216C311.771 246.743 312.43 247.007 313.268 247.007C314.088 247.007 314.729 246.729 315.192 246.172C315.661 245.609 315.896 244.833 315.896 243.843C315.896 242.964 315.667 242.275 315.21 241.777C314.753 241.279 314.12 241.03 313.312 241.03C312.491 241.03 311.829 241.306 311.325 241.856C310.821 242.401 310.569 243.122 310.569 244.019ZM309.26 234.377H310.622V241.47C310.933 240.872 311.334 240.424 311.826 240.125C312.318 239.82 312.896 239.668 313.558 239.668C314.712 239.668 315.632 240.061 316.317 240.846C317.009 241.631 317.354 242.683 317.354 244.001C317.354 245.308 317.003 246.359 316.3 247.156C315.597 247.947 314.665 248.343 313.505 248.343C312.884 248.343 312.318 248.188 311.809 247.877C311.299 247.561 310.886 247.115 310.569 246.541V248H309.26V234.377ZM320.853 239.958V243.913C320.853 245.067 321.022 245.876 321.362 246.339C321.708 246.796 322.288 247.024 323.103 247.024C323.917 247.024 324.491 246.799 324.825 246.348C325.165 245.891 325.335 245.079 325.335 243.913V239.958H326.741V244.651C326.741 245.864 326.431 246.784 325.81 247.411C325.188 248.032 324.274 248.343 323.067 248.343C321.872 248.343 320.964 248.029 320.343 247.402C319.722 246.775 319.411 245.858 319.411 244.651V239.958H320.853ZM335.108 243.069C335.062 242.36 334.824 241.815 334.396 241.435C333.975 241.048 333.395 240.854 332.656 240.854C331.988 240.854 331.432 241.057 330.986 241.461C330.541 241.859 330.283 242.396 330.213 243.069H335.108ZM336.585 244.186H330.213V244.309C330.213 245.17 330.459 245.867 330.951 246.4C331.443 246.928 332.085 247.191 332.876 247.191C333.415 247.191 333.901 247.048 334.335 246.761C334.769 246.468 335.152 246.028 335.486 245.442L336.532 246.146C336.128 246.872 335.612 247.42 334.985 247.789C334.358 248.158 333.632 248.343 332.806 248.343C331.581 248.343 330.591 247.938 329.835 247.13C329.079 246.321 328.701 245.261 328.701 243.948C328.701 242.688 329.076 241.657 329.826 240.854C330.576 240.052 331.54 239.65 332.718 239.65C333.907 239.65 334.848 240.031 335.539 240.793C336.236 241.555 336.585 242.595 336.585 243.913V244.186ZM338.668 248V239.958H340.013V241.197C340.358 240.682 340.774 240.298 341.261 240.046C341.747 239.794 342.31 239.668 342.948 239.668C343.897 239.668 344.639 239.92 345.172 240.424C345.705 240.928 345.972 241.628 345.972 242.524V248H344.565V243.263C344.565 242.448 344.393 241.845 344.047 241.452C343.707 241.054 343.18 240.854 342.465 240.854C342.055 240.854 341.68 240.931 341.34 241.083C341.006 241.229 340.728 241.44 340.505 241.716C340.335 241.927 340.212 242.167 340.136 242.437C340.065 242.706 340.03 243.175 340.03 243.843V248H338.668ZM354.857 244.054C354.857 243.146 354.608 242.416 354.11 241.865C353.618 241.309 352.974 241.03 352.177 241.03C351.351 241.03 350.706 241.285 350.243 241.795C349.78 242.305 349.549 243.017 349.549 243.931C349.549 244.903 349.78 245.653 350.243 246.181C350.712 246.708 351.374 246.972 352.229 246.972C353.05 246.972 353.691 246.717 354.154 246.207C354.623 245.691 354.857 244.974 354.857 244.054ZM356.193 239.958V248H354.857V246.541C354.535 247.127 354.122 247.575 353.618 247.886C353.12 248.19 352.561 248.343 351.939 248.343C350.785 248.343 349.854 247.947 349.145 247.156C348.441 246.359 348.09 245.308 348.09 244.001C348.09 242.677 348.433 241.625 349.118 240.846C349.804 240.061 350.721 239.668 351.869 239.668C352.543 239.668 353.126 239.82 353.618 240.125C354.116 240.424 354.518 240.872 354.822 241.47V239.958H356.193ZM358.101 246.646L359.278 245.855C359.501 246.283 359.782 246.605 360.122 246.822C360.462 247.033 360.863 247.139 361.326 247.139C361.777 247.139 362.141 247.027 362.416 246.805C362.697 246.582 362.838 246.289 362.838 245.926C362.838 245.645 362.741 245.41 362.548 245.223C362.36 245.035 362.035 244.862 361.572 244.704C361.525 244.687 361.449 244.66 361.344 244.625C359.387 243.951 358.408 243.107 358.408 242.094C358.408 241.379 358.672 240.796 359.199 240.345C359.727 239.894 360.412 239.668 361.256 239.668C361.953 239.668 362.551 239.809 363.049 240.09C363.547 240.365 363.904 240.758 364.121 241.268L363.005 241.953C362.841 241.584 362.598 241.3 362.275 241.101C361.959 240.901 361.59 240.802 361.168 240.802C360.764 240.802 360.433 240.916 360.175 241.145C359.923 241.367 359.797 241.654 359.797 242.006C359.797 242.498 360.33 242.911 361.396 243.245C361.596 243.31 361.754 243.359 361.871 243.395C362.744 243.676 363.351 243.998 363.69 244.361C364.036 244.719 364.209 245.193 364.209 245.785C364.209 246.547 363.937 247.165 363.392 247.64C362.853 248.108 362.146 248.343 361.273 248.343C360.523 248.343 359.885 248.202 359.357 247.921C358.836 247.64 358.417 247.215 358.101 246.646ZM382.789 248V243.263C382.789 242.448 382.625 241.845 382.297 241.452C381.969 241.054 381.465 240.854 380.785 240.854C380.416 240.854 380.073 240.931 379.757 241.083C379.446 241.229 379.183 241.44 378.966 241.716C378.808 241.927 378.693 242.173 378.623 242.454C378.553 242.735 378.518 243.198 378.518 243.843V248H377.19V243.263C377.19 242.448 377.026 241.845 376.698 241.452C376.37 241.054 375.866 240.854 375.187 240.854C374.817 240.854 374.472 240.931 374.149 241.083C373.833 241.229 373.566 241.44 373.35 241.716C373.197 241.921 373.086 242.158 373.016 242.428C372.951 242.697 372.919 243.169 372.919 243.843V248H371.592V239.958H372.937V241.197C373.271 240.682 373.669 240.298 374.132 240.046C374.595 239.794 375.128 239.668 375.731 239.668C376.382 239.668 376.936 239.809 377.393 240.09C377.85 240.365 378.195 240.77 378.43 241.303C378.775 240.752 379.183 240.342 379.651 240.072C380.126 239.803 380.674 239.668 381.295 239.668C382.191 239.668 382.892 239.92 383.396 240.424C383.899 240.928 384.151 241.628 384.151 242.524V248H382.789ZM393.02 244.054C393.02 243.146 392.771 242.416 392.272 241.865C391.78 241.309 391.136 241.03 390.339 241.03C389.513 241.03 388.868 241.285 388.405 241.795C387.942 242.305 387.711 243.017 387.711 243.931C387.711 244.903 387.942 245.653 388.405 246.181C388.874 246.708 389.536 246.972 390.392 246.972C391.212 246.972 391.854 246.717 392.316 246.207C392.785 245.691 393.02 244.974 393.02 244.054ZM394.355 239.958V248H393.02V246.541C392.697 247.127 392.284 247.575 391.78 247.886C391.282 248.19 390.723 248.343 390.102 248.343C388.947 248.343 388.016 247.947 387.307 247.156C386.604 246.359 386.252 245.308 386.252 244.001C386.252 242.677 386.595 241.625 387.28 240.846C387.966 240.061 388.883 239.668 390.031 239.668C390.705 239.668 391.288 239.82 391.78 240.125C392.278 240.424 392.68 240.872 392.984 241.47V239.958H394.355ZM397.115 248V239.958H398.46V241.197C398.806 240.682 399.222 240.298 399.708 240.046C400.194 239.794 400.757 239.668 401.396 239.668C402.345 239.668 403.086 239.92 403.619 240.424C404.152 240.928 404.419 241.628 404.419 242.524V248H403.013V243.263C403.013 242.448 402.84 241.845 402.494 241.452C402.154 241.054 401.627 240.854 400.912 240.854C400.502 240.854 400.127 240.931 399.787 241.083C399.453 241.229 399.175 241.44 398.952 241.716C398.782 241.927 398.659 242.167 398.583 242.437C398.513 242.706 398.478 243.175 398.478 243.843V248H397.115ZM407.961 244.001C407.961 244.851 408.245 245.571 408.813 246.163C409.382 246.749 410.07 247.042 410.879 247.042C411.682 247.042 412.364 246.749 412.927 246.163C413.489 245.571 413.771 244.851 413.771 244.001C413.771 243.151 413.489 242.434 412.927 241.848C412.364 241.256 411.682 240.96 410.879 240.96C410.064 240.96 409.373 241.256 408.805 241.848C408.242 242.434 407.961 243.151 407.961 244.001ZM406.502 244.001C406.502 243.409 406.61 242.853 406.827 242.331C407.044 241.804 407.36 241.335 407.776 240.925C408.192 240.515 408.664 240.204 409.191 239.993C409.719 239.776 410.281 239.668 410.879 239.668C411.465 239.668 412.019 239.776 412.54 239.993C413.067 240.21 413.545 240.526 413.973 240.942C414.389 241.347 414.705 241.812 414.922 242.34C415.139 242.861 415.247 243.415 415.247 244.001C415.247 244.587 415.139 245.141 414.922 245.662C414.705 246.178 414.389 246.638 413.973 247.042C413.545 247.464 413.064 247.786 412.531 248.009C412.004 248.231 411.453 248.343 410.879 248.343C410.287 248.343 409.725 248.231 409.191 248.009C408.664 247.792 408.192 247.479 407.776 247.068C407.36 246.646 407.044 246.178 406.827 245.662C406.61 245.146 406.502 244.593 406.502 244.001ZM416.548 246.646L417.726 245.855C417.948 246.283 418.229 246.605 418.569 246.822C418.909 247.033 419.311 247.139 419.773 247.139C420.225 247.139 420.588 247.027 420.863 246.805C421.145 246.582 421.285 246.289 421.285 245.926C421.285 245.645 421.188 245.41 420.995 245.223C420.808 245.035 420.482 244.862 420.02 244.704C419.973 244.687 419.896 244.66 419.791 244.625C417.834 243.951 416.855 243.107 416.855 242.094C416.855 241.379 417.119 240.796 417.646 240.345C418.174 239.894 418.859 239.668 419.703 239.668C420.4 239.668 420.998 239.809 421.496 240.09C421.994 240.365 422.352 240.758 422.568 241.268L421.452 241.953C421.288 241.584 421.045 241.3 420.723 241.101C420.406 240.901 420.037 240.802 419.615 240.802C419.211 240.802 418.88 240.916 418.622 241.145C418.37 241.367 418.244 241.654 418.244 242.006C418.244 242.498 418.777 242.911 419.844 243.245C420.043 243.31 420.201 243.359 420.318 243.395C421.191 243.676 421.798 243.998 422.138 244.361C422.483 244.719 422.656 245.193 422.656 245.785C422.656 246.547 422.384 247.165 421.839 247.64C421.3 248.108 420.594 248.343 419.721 248.343C418.971 248.343 418.332 248.202 417.805 247.921C417.283 247.64 416.864 247.215 416.548 246.646Z" fill="white"/>
</svg>
