<svg width="488" height="193" viewBox="0 0 488 193" fill="none" xmlns="http://www.w3.org/2000/svg">
<path d="M30.5625 31V8.125H44.0312V12.25H35.4531V16.9531H44.0312V21.1094H35.4531V26.8438H44.0312V31H30.5625ZM48.8438 31V8.125H53.7344V26.8438H61.5469V31H48.8438ZM79.3594 26.875H82.0781C84.6406 26.875 86.5052 26.2917 87.6719 25.125C88.849 23.9583 89.4375 22.1094 89.4375 19.5781C89.4375 17.0573 88.849 15.2135 87.6719 14.0469C86.5052 12.8698 84.6406 12.2812 82.0781 12.2812H79.3594V26.875ZM74.4688 31V8.125H80.7031C83.1615 8.125 85.099 8.29688 86.5156 8.64062C87.9323 8.98438 89.1771 9.55729 90.25 10.3594C91.6354 11.3906 92.6823 12.6927 93.3906 14.2656C94.1094 15.8281 94.4688 17.6094 94.4688 19.6094C94.4688 21.6406 94.1042 23.4427 93.375 25.0156C92.6458 26.5781 91.5781 27.8698 90.1719 28.8906C89.1302 29.6406 87.9688 30.1823 86.6875 30.5156C85.4167 30.8385 83.5521 31 81.0938 31H79.3594H74.4688ZM98.6562 31V8.125H103.547V31H98.6562ZM108.781 31V8.125H113.859L123.984 21.4375C124.276 21.8125 124.594 22.3438 124.938 23.0312C125.292 23.7083 125.656 24.5104 126.031 25.4375C125.917 24.7604 125.833 24.0885 125.781 23.4219C125.729 22.7552 125.703 21.9219 125.703 20.9219V8.125H130.375V31H125.578L115.172 17.4375C114.88 17.0625 114.562 16.5365 114.219 15.8594C113.875 15.1719 113.51 14.3542 113.125 13.4062C113.24 14.0625 113.323 14.7292 113.375 15.4062C113.427 16.0729 113.453 16.9167 113.453 17.9375V31H108.781ZM135.469 31V8.125H148.938V12.25H140.359V16.9531H148.938V21.1094H140.359V26.8438H148.938V31H135.469ZM170.297 31H164.656L158.641 20.3125V31H153.75V8.125H160.75C163.531 8.125 165.615 8.66667 167 9.75C168.385 10.8229 169.078 12.4427 169.078 14.6094C169.078 16.1823 168.604 17.526 167.656 18.6406C166.708 19.7552 165.484 20.4062 163.984 20.5938L170.297 31ZM158.641 17.875H159.375C161.354 17.875 162.661 17.6615 163.297 17.2344C163.932 16.7969 164.25 16.0417 164.25 14.9688C164.25 13.8438 163.906 13.0469 163.219 12.5781C162.542 12.099 161.26 11.8594 159.375 11.8594H158.641V17.875ZM196.578 19.6094C196.578 21.2448 196.271 22.7917 195.656 24.25C195.052 25.7083 194.177 26.9896 193.031 28.0938C191.844 29.2292 190.505 30.099 189.016 30.7031C187.526 31.3073 185.984 31.6094 184.391 31.6094C182.995 31.6094 181.625 31.375 180.281 30.9062C178.948 30.4271 177.724 29.7448 176.609 28.8594C175.172 27.7135 174.068 26.3438 173.297 24.75C172.536 23.1562 172.156 21.4427 172.156 19.6094C172.156 17.9635 172.458 16.4219 173.062 14.9844C173.667 13.5365 174.552 12.25 175.719 11.125C176.865 10.0104 178.193 9.14583 179.703 8.53125C181.224 7.91667 182.786 7.60938 184.391 7.60938C185.984 7.60938 187.531 7.91667 189.031 8.53125C190.542 9.14583 191.875 10.0104 193.031 11.125C194.188 12.25 195.068 13.5365 195.672 14.9844C196.276 16.4323 196.578 17.974 196.578 19.6094ZM184.391 27.25C186.464 27.25 188.172 26.526 189.516 25.0781C190.87 23.6198 191.547 21.7969 191.547 19.6094C191.547 17.4427 190.865 15.6198 189.5 14.1406C188.135 12.6615 186.432 11.9219 184.391 11.9219C182.318 11.9219 180.599 12.6615 179.234 14.1406C177.87 15.6094 177.188 17.4323 177.188 19.6094C177.188 21.8177 177.859 23.6458 179.203 25.0938C180.547 26.5312 182.276 27.25 184.391 27.25ZM215.453 26.875H218.172C220.734 26.875 222.599 26.2917 223.766 25.125C224.943 23.9583 225.531 22.1094 225.531 19.5781C225.531 17.0573 224.943 15.2135 223.766 14.0469C222.599 12.8698 220.734 12.2812 218.172 12.2812H215.453V26.875ZM210.562 31V8.125H216.797C219.255 8.125 221.193 8.29688 222.609 8.64062C224.026 8.98438 225.271 9.55729 226.344 10.3594C227.729 11.3906 228.776 12.6927 229.484 14.2656C230.203 15.8281 230.562 17.6094 230.562 19.6094C230.562 21.6406 230.198 23.4427 229.469 25.0156C228.74 26.5781 227.672 27.8698 226.266 28.8906C225.224 29.6406 224.062 30.1823 222.781 30.5156C221.51 30.8385 219.646 31 217.188 31H215.453H210.562ZM234.656 31V8.125H248.125V12.25H239.547V16.9531H248.125V21.1094H239.547V26.8438H248.125V31H234.656ZM271.328 12.2812V31H266.422V12.2812H260.828V8.125H276.953V12.2812H271.328ZM299.797 8.125V22.3594C299.797 25.4635 298.979 27.7812 297.344 29.3125C295.708 30.8438 293.245 31.6094 289.953 31.6094C286.609 31.6094 284.12 30.8438 282.484 29.3125C280.849 27.7812 280.031 25.4635 280.031 22.3594V8.125H284.891V21.5938C284.891 23.4792 285.307 24.901 286.141 25.8594C286.974 26.8073 288.219 27.2812 289.875 27.2812C291.542 27.2812 292.802 26.8021 293.656 25.8438C294.51 24.8854 294.938 23.4688 294.938 21.5938V8.125H299.797ZM303.406 28.0938L306.125 25.0156C306.469 25.8594 307.021 26.526 307.781 27.0156C308.542 27.4948 309.396 27.7344 310.344 27.7344C311.49 27.7344 312.396 27.4635 313.062 26.9219C313.729 26.3802 314.062 25.651 314.062 24.7344C314.062 23.651 312.953 22.5729 310.734 21.5C310.016 21.1562 309.448 20.875 309.031 20.6562C307.031 19.6146 305.646 18.599 304.875 17.6094C304.104 16.6094 303.719 15.4219 303.719 14.0469C303.719 12.1615 304.464 10.6146 305.953 9.40625C307.453 8.1875 309.396 7.57812 311.781 7.57812C313.167 7.57812 314.359 7.82292 315.359 8.3125C316.37 8.79167 317.26 9.54688 318.031 10.5781L315.141 13.3438C314.797 12.6771 314.339 12.1823 313.766 11.8594C313.203 11.526 312.521 11.3594 311.719 11.3594C310.75 11.3594 309.969 11.6042 309.375 12.0938C308.781 12.5729 308.484 13.1979 308.484 13.9688C308.484 15.1771 309.661 16.2812 312.016 17.2812C312.484 17.4792 312.844 17.6354 313.094 17.75C315.031 18.6354 316.464 19.6354 317.391 20.75C318.328 21.8646 318.797 23.1354 318.797 24.5625C318.797 26.7083 318.062 28.4219 316.594 29.7031C315.135 30.974 313.172 31.6094 310.703 31.6094C308.953 31.6094 307.453 31.3073 306.203 30.7031C304.953 30.099 304.021 29.2292 303.406 28.0938ZM39.1094 50.2812V69H34.2031V50.2812H28.6094V46.125H44.7344V50.2812H39.1094ZM64.4531 69H58.8125L52.7969 58.3125V69H47.9062V46.125H54.9062C57.6875 46.125 59.7708 46.6667 61.1562 47.75C62.5417 48.8229 63.2344 50.4427 63.2344 52.6094C63.2344 54.1823 62.7604 55.526 61.8125 56.6406C60.8646 57.7552 59.6406 58.4062 58.1406 58.5938L64.4531 69ZM52.7969 55.875H53.5312C55.5104 55.875 56.8177 55.6615 57.4531 55.2344C58.0885 54.7969 58.4062 54.0417 58.4062 52.9688C58.4062 51.8438 58.0625 51.0469 57.375 50.5781C56.6979 50.099 55.4167 49.8594 53.5312 49.8594H52.7969V55.875ZM79.1562 60.2969L76.5938 52.9062C76.5208 52.6875 76.4271 52.3125 76.3125 51.7812C76.1979 51.25 76.0781 50.599 75.9531 49.8281C75.8177 50.5677 75.6875 51.2344 75.5625 51.8281C75.4375 52.4115 75.3438 52.8021 75.2812 53L72.8125 60.2969H79.1562ZM64.5938 69L73.2969 46.125H78.8906L87.7188 69H82.1562L80.2969 64.1406H71.4375L69.8438 69H64.5938ZM95.0156 65.1875H96.9375C98.1667 65.1875 99.099 64.9219 99.7344 64.3906C100.37 63.849 100.688 63.0625 100.688 62.0312C100.688 61.0625 100.37 60.3229 99.7344 59.8125C99.1094 59.3021 98.1979 59.0469 97 59.0469H95.0156V65.1875ZM95.0156 55.2656H96.1094C97.5885 55.2656 98.6354 55.0573 99.25 54.6406C99.8646 54.224 100.172 53.526 100.172 52.5469C100.172 51.5885 99.875 50.9062 99.2812 50.5C98.6979 50.0938 97.6719 49.8906 96.2031 49.8906H95.0156V55.2656ZM90.125 69V46.125H94.4062C96.625 46.125 98.2448 46.2135 99.2656 46.3906C100.297 46.5573 101.188 46.8385 101.938 47.2344C102.823 47.7448 103.505 48.4167 103.984 49.25C104.474 50.0833 104.719 51.026 104.719 52.0781C104.719 53.4323 104.318 54.5208 103.516 55.3438C102.714 56.1562 101.516 56.6979 99.9219 56.9688C101.766 57.2396 103.156 57.8385 104.094 58.7656C105.042 59.6927 105.516 60.9271 105.516 62.4688C105.516 63.5938 105.245 64.625 104.703 65.5625C104.161 66.4896 103.417 67.2083 102.469 67.7188C101.625 68.1771 100.635 68.5052 99.5 68.7031C98.3646 68.901 96.4844 69 93.8594 69H93.3594H90.125ZM121.094 60.2969L118.531 52.9062C118.458 52.6875 118.365 52.3125 118.25 51.7812C118.135 51.25 118.016 50.599 117.891 49.8281C117.755 50.5677 117.625 51.2344 117.5 51.8281C117.375 52.4115 117.281 52.8021 117.219 53L114.75 60.2969H121.094ZM106.531 69L115.234 46.125H120.828L129.656 69H124.094L122.234 64.1406H113.375L111.781 69H106.531ZM141.344 46.125V61.1875C141.344 62.9062 141.276 64.1667 141.141 64.9688C141.005 65.7708 140.781 66.4531 140.469 67.0156C140.01 67.8698 139.333 68.5156 138.438 68.9531C137.552 69.3906 136.474 69.6094 135.203 69.6094C133.599 69.6094 132.312 69.2083 131.344 68.4062C130.385 67.6042 129.771 66.4271 129.5 64.875L133.047 63.1875C133.13 63.9062 133.312 64.4479 133.594 64.8125C133.885 65.1771 134.281 65.3594 134.781 65.3594C135.406 65.3594 135.839 65.1354 136.078 64.6875C136.318 64.2292 136.438 63.2135 136.438 61.6406V59.5938V46.125H141.344ZM158.125 60.2969L155.562 52.9062C155.49 52.6875 155.396 52.3125 155.281 51.7812C155.167 51.25 155.047 50.599 154.922 49.8281C154.786 50.5677 154.656 51.2344 154.531 51.8281C154.406 52.4115 154.312 52.8021 154.25 53L151.781 60.2969H158.125ZM143.562 69L152.266 46.125H157.859L166.688 69H161.125L159.266 64.1406H150.406L148.812 69H143.562ZM173.984 64.875H176.703C179.266 64.875 181.13 64.2917 182.297 63.125C183.474 61.9583 184.062 60.1094 184.062 57.5781C184.062 55.0573 183.474 53.2135 182.297 52.0469C181.13 50.8698 179.266 50.2812 176.703 50.2812H173.984V64.875ZM169.094 69V46.125H175.328C177.786 46.125 179.724 46.2969 181.141 46.6406C182.557 46.9844 183.802 47.5573 184.875 48.3594C186.26 49.3906 187.307 50.6927 188.016 52.2656C188.734 53.8281 189.094 55.6094 189.094 57.6094C189.094 59.6406 188.729 61.4427 188 63.0156C187.271 64.5781 186.203 65.8698 184.797 66.8906C183.755 67.6406 182.594 68.1823 181.312 68.5156C180.042 68.8385 178.177 69 175.719 69H173.984H169.094ZM216.609 57.6094C216.609 59.2448 216.302 60.7917 215.688 62.25C215.083 63.7083 214.208 64.9896 213.062 66.0938C211.875 67.2292 210.536 68.099 209.047 68.7031C207.557 69.3073 206.016 69.6094 204.422 69.6094C203.026 69.6094 201.656 69.375 200.312 68.9062C198.979 68.4271 197.755 67.7448 196.641 66.8594C195.203 65.7135 194.099 64.3438 193.328 62.75C192.568 61.1562 192.188 59.4427 192.188 57.6094C192.188 55.9635 192.49 54.4219 193.094 52.9844C193.698 51.5365 194.583 50.25 195.75 49.125C196.896 48.0104 198.224 47.1458 199.734 46.5312C201.255 45.9167 202.818 45.6094 204.422 45.6094C206.016 45.6094 207.562 45.9167 209.062 46.5312C210.573 47.1458 211.906 48.0104 213.062 49.125C214.219 50.25 215.099 51.5365 215.703 52.9844C216.307 54.4323 216.609 55.974 216.609 57.6094ZM204.422 65.25C206.495 65.25 208.203 64.526 209.547 63.0781C210.901 61.6198 211.578 59.7969 211.578 57.6094C211.578 55.4427 210.896 53.6198 209.531 52.1406C208.167 50.6615 206.464 49.9219 204.422 49.9219C202.349 49.9219 200.63 50.6615 199.266 52.1406C197.901 53.6094 197.219 55.4323 197.219 57.6094C197.219 59.8177 197.891 61.6458 199.234 63.0938C200.578 64.5312 202.307 65.25 204.422 65.25ZM237.297 69H231.656L225.641 58.3125V69H220.75V46.125H227.75C230.531 46.125 232.615 46.6667 234 47.75C235.385 48.8229 236.078 50.4427 236.078 52.6094C236.078 54.1823 235.604 55.526 234.656 56.6406C233.708 57.7552 232.484 58.4062 230.984 58.5938L237.297 69ZM225.641 55.875H226.375C228.354 55.875 229.661 55.6615 230.297 55.2344C230.932 54.7969 231.25 54.0417 231.25 52.9688C231.25 51.8438 230.906 51.0469 230.219 50.5781C229.542 50.099 228.26 49.8594 226.375 49.8594H225.641V55.875ZM240.156 69V46.125H253.625V50.25H245.047V54.9531H253.625V59.1094H245.047V64.8438H253.625V69H240.156ZM256.969 66.0938L259.688 63.0156C260.031 63.8594 260.583 64.526 261.344 65.0156C262.104 65.4948 262.958 65.7344 263.906 65.7344C265.052 65.7344 265.958 65.4635 266.625 64.9219C267.292 64.3802 267.625 63.651 267.625 62.7344C267.625 61.651 266.516 60.5729 264.297 59.5C263.578 59.1562 263.01 58.875 262.594 58.6562C260.594 57.6146 259.208 56.599 258.438 55.6094C257.667 54.6094 257.281 53.4219 257.281 52.0469C257.281 50.1615 258.026 48.6146 259.516 47.4062C261.016 46.1875 262.958 45.5781 265.344 45.5781C266.729 45.5781 267.922 45.8229 268.922 46.3125C269.932 46.7917 270.823 47.5469 271.594 48.5781L268.703 51.3438C268.359 50.6771 267.901 50.1823 267.328 49.8594C266.766 49.526 266.083 49.3594 265.281 49.3594C264.312 49.3594 263.531 49.6042 262.938 50.0938C262.344 50.5729 262.047 51.1979 262.047 51.9688C262.047 53.1771 263.224 54.2812 265.578 55.2812C266.047 55.4792 266.406 55.6354 266.656 55.75C268.594 56.6354 270.026 57.6354 270.953 58.75C271.891 59.8646 272.359 61.1354 272.359 62.5625C272.359 64.7083 271.625 66.4219 270.156 67.7031C268.698 68.974 266.734 69.6094 264.266 69.6094C262.516 69.6094 261.016 69.3073 259.766 68.7031C258.516 68.099 257.583 67.2292 256.969 66.0938ZM286.219 69V46.125H299.688V50.25H291.109V54.9531H299.688V59.1094H291.109V64.8438H299.688V69H286.219ZM304.5 69V46.125H309.578L319.703 59.4375C319.995 59.8125 320.312 60.3438 320.656 61.0312C321.01 61.7083 321.375 62.5104 321.75 63.4375C321.635 62.7604 321.552 62.0885 321.5 61.4219C321.448 60.7552 321.422 59.9219 321.422 58.9219V46.125H326.094V69H321.297L310.891 55.4375C310.599 55.0625 310.281 54.5365 309.938 53.8594C309.594 53.1719 309.229 52.3542 308.844 51.4062C308.958 52.0625 309.042 52.7292 309.094 53.4062C309.146 54.0729 309.172 54.9167 309.172 55.9375V69H304.5ZM35.4531 103.188H37.375C38.6042 103.188 39.5365 102.922 40.1719 102.391C40.8073 101.849 41.125 101.062 41.125 100.031C41.125 99.0625 40.8073 98.3229 40.1719 97.8125C39.5469 97.3021 38.6354 97.0469 37.4375 97.0469H35.4531V103.188ZM35.4531 93.2656H36.5469C38.026 93.2656 39.0729 93.0573 39.6875 92.6406C40.3021 92.224 40.6094 91.526 40.6094 90.5469C40.6094 89.5885 40.3125 88.9062 39.7188 88.5C39.1354 88.0938 38.1094 87.8906 36.6406 87.8906H35.4531V93.2656ZM30.5625 107V84.125H34.8438C37.0625 84.125 38.6823 84.2135 39.7031 84.3906C40.7344 84.5573 41.625 84.8385 42.375 85.2344C43.2604 85.7448 43.9427 86.4167 44.4219 87.25C44.9115 88.0833 45.1562 89.026 45.1562 90.0781C45.1562 91.4323 44.7552 92.5208 43.9531 93.3438C43.151 94.1562 41.9531 94.6979 40.3594 94.9688C42.2031 95.2396 43.5938 95.8385 44.5312 96.7656C45.4792 97.6927 45.9531 98.9271 45.9531 100.469C45.9531 101.594 45.6823 102.625 45.1406 103.562C44.599 104.49 43.8542 105.208 42.9062 105.719C42.0625 106.177 41.0729 106.505 39.9375 106.703C38.8021 106.901 36.9219 107 34.2969 107H33.7969H30.5625ZM69.3594 84.125V98.3594C69.3594 101.464 68.5417 103.781 66.9062 105.312C65.2708 106.844 62.8073 107.609 59.5156 107.609C56.1719 107.609 53.6823 106.844 52.0469 105.312C50.4115 103.781 49.5938 101.464 49.5938 98.3594V84.125H54.4531V97.5938C54.4531 99.4792 54.8698 100.901 55.7031 101.859C56.5365 102.807 57.7812 103.281 59.4375 103.281C61.1042 103.281 62.3646 102.802 63.2188 101.844C64.0729 100.885 64.5 99.4688 64.5 97.5938V84.125H69.3594ZM74.4375 107V84.125H87.9062V88.25H79.3281V92.9531H87.9062V97.1094H79.3281V102.844H87.9062V107H74.4375ZM92.7188 107V84.125H97.7969L107.922 97.4375C108.214 97.8125 108.531 98.3438 108.875 99.0312C109.229 99.7083 109.594 100.51 109.969 101.438C109.854 100.76 109.771 100.089 109.719 99.4219C109.667 98.7552 109.641 97.9219 109.641 96.9219V84.125H114.312V107H109.516L99.1094 93.4375C98.8177 93.0625 98.5 92.5365 98.1562 91.8594C97.8125 91.1719 97.4479 90.3542 97.0625 89.4062C97.1771 90.0625 97.2604 90.7292 97.3125 91.4062C97.3646 92.0729 97.3906 92.9167 97.3906 93.9375V107H92.7188ZM131.25 98.2969L128.688 90.9062C128.615 90.6875 128.521 90.3125 128.406 89.7812C128.292 89.25 128.172 88.599 128.047 87.8281C127.911 88.5677 127.781 89.2344 127.656 89.8281C127.531 90.4115 127.438 90.8021 127.375 91L124.906 98.2969H131.25ZM116.688 107L125.391 84.125H130.984L139.812 107H134.25L132.391 102.141H123.531L121.938 107H116.688ZM140.75 104.094L143.469 101.016C143.812 101.859 144.365 102.526 145.125 103.016C145.885 103.495 146.74 103.734 147.688 103.734C148.833 103.734 149.74 103.464 150.406 102.922C151.073 102.38 151.406 101.651 151.406 100.734C151.406 99.651 150.297 98.5729 148.078 97.5C147.359 97.1562 146.792 96.875 146.375 96.6562C144.375 95.6146 142.99 94.599 142.219 93.6094C141.448 92.6094 141.062 91.4219 141.062 90.0469C141.062 88.1615 141.807 86.6146 143.297 85.4062C144.797 84.1875 146.74 83.5781 149.125 83.5781C150.51 83.5781 151.703 83.8229 152.703 84.3125C153.714 84.7917 154.604 85.5469 155.375 86.5781L152.484 89.3438C152.141 88.6771 151.682 88.1823 151.109 87.8594C150.547 87.526 149.865 87.3594 149.062 87.3594C148.094 87.3594 147.312 87.6042 146.719 88.0938C146.125 88.5729 145.828 89.1979 145.828 89.9688C145.828 91.1771 147.005 92.2812 149.359 93.2812C149.828 93.4792 150.188 93.6354 150.438 93.75C152.375 94.6354 153.807 95.6354 154.734 96.75C155.672 97.8646 156.141 99.1354 156.141 100.562C156.141 102.708 155.406 104.422 153.938 105.703C152.479 106.974 150.516 107.609 148.047 107.609C146.297 107.609 144.797 107.307 143.547 106.703C142.297 106.099 141.365 105.229 140.75 104.094ZM168.016 107L171.5 84.125H176.625L181.031 97.5938C181.125 97.875 181.224 98.2865 181.328 98.8281C181.443 99.3698 181.547 99.9896 181.641 100.688C181.724 99.9792 181.818 99.349 181.922 98.7969C182.026 98.2344 182.125 97.8229 182.219 97.5625L186.703 84.125H191.75L195.25 107H190.609L188.938 93.2031C188.812 92.1823 188.729 91.4115 188.688 90.8906C188.646 90.3698 188.625 89.8854 188.625 89.4375C188.625 89.1979 188.625 89.0208 188.625 88.9062C188.635 88.7812 188.646 88.6719 188.656 88.5781C188.5 89.474 188.349 90.25 188.203 90.9062C188.068 91.5521 187.943 92.0417 187.828 92.375L182.984 107H180.234L175.469 92.375C175.427 92.2396 175.333 91.8646 175.188 91.25C175.052 90.6354 174.859 89.7396 174.609 88.5625V89.2344C174.609 90.2969 174.516 91.599 174.328 93.1406L174.312 93.2031L172.656 107H168.016ZM210.281 98.2969L207.719 90.9062C207.646 90.6875 207.552 90.3125 207.438 89.7812C207.323 89.25 207.203 88.599 207.078 87.8281C206.943 88.5677 206.812 89.2344 206.688 89.8281C206.562 90.4115 206.469 90.8021 206.406 91L203.938 98.2969H210.281ZM195.719 107L204.422 84.125H210.016L218.844 107H213.281L211.422 102.141H202.562L200.969 107H195.719ZM221.25 107V84.125H226.328L236.453 97.4375C236.745 97.8125 237.062 98.3438 237.406 99.0312C237.76 99.7083 238.125 100.51 238.5 101.438C238.385 100.76 238.302 100.089 238.25 99.4219C238.198 98.7552 238.172 97.9219 238.172 96.9219V84.125H242.844V107H238.047L227.641 93.4375C227.349 93.0625 227.031 92.5365 226.688 91.8594C226.344 91.1719 225.979 90.3542 225.594 89.4062C225.708 90.0625 225.792 90.7292 225.844 91.4062C225.896 92.0729 225.922 92.9167 225.922 93.9375V107H221.25ZM271.359 95.6094C271.359 97.2448 271.052 98.7917 270.438 100.25C269.833 101.708 268.958 102.99 267.812 104.094C266.625 105.229 265.286 106.099 263.797 106.703C262.307 107.307 260.766 107.609 259.172 107.609C257.776 107.609 256.406 107.375 255.062 106.906C253.729 106.427 252.505 105.745 251.391 104.859C249.953 103.714 248.849 102.344 248.078 100.75C247.318 99.1562 246.938 97.4427 246.938 95.6094C246.938 93.9635 247.24 92.4219 247.844 90.9844C248.448 89.5365 249.333 88.25 250.5 87.125C251.646 86.0104 252.974 85.1458 254.484 84.5312C256.005 83.9167 257.568 83.6094 259.172 83.6094C260.766 83.6094 262.312 83.9167 263.812 84.5312C265.323 85.1458 266.656 86.0104 267.812 87.125C268.969 88.25 269.849 89.5365 270.453 90.9844C271.057 92.4323 271.359 93.974 271.359 95.6094ZM259.172 103.25C261.245 103.25 262.953 102.526 264.297 101.078C265.651 99.6198 266.328 97.7969 266.328 95.6094C266.328 93.4427 265.646 91.6198 264.281 90.1406C262.917 88.6615 261.214 87.9219 259.172 87.9219C257.099 87.9219 255.38 88.6615 254.016 90.1406C252.651 91.6094 251.969 93.4323 251.969 95.6094C251.969 97.8177 252.641 99.6458 253.984 101.094C255.328 102.531 257.057 103.25 259.172 103.25ZM274.031 104.094L276.75 101.016C277.094 101.859 277.646 102.526 278.406 103.016C279.167 103.495 280.021 103.734 280.969 103.734C282.115 103.734 283.021 103.464 283.688 102.922C284.354 102.38 284.688 101.651 284.688 100.734C284.688 99.651 283.578 98.5729 281.359 97.5C280.641 97.1562 280.073 96.875 279.656 96.6562C277.656 95.6146 276.271 94.599 275.5 93.6094C274.729 92.6094 274.344 91.4219 274.344 90.0469C274.344 88.1615 275.089 86.6146 276.578 85.4062C278.078 84.1875 280.021 83.5781 282.406 83.5781C283.792 83.5781 284.984 83.8229 285.984 84.3125C286.995 84.7917 287.885 85.5469 288.656 86.5781L285.766 89.3438C285.422 88.6771 284.964 88.1823 284.391 87.8594C283.828 87.526 283.146 87.3594 282.344 87.3594C281.375 87.3594 280.594 87.6042 280 88.0938C279.406 88.5729 279.109 89.1979 279.109 89.9688C279.109 91.1771 280.286 92.2812 282.641 93.2812C283.109 93.4792 283.469 93.6354 283.719 93.75C285.656 94.6354 287.089 95.6354 288.016 96.75C288.953 97.8646 289.422 99.1354 289.422 100.562C289.422 102.708 288.688 104.422 287.219 105.703C285.76 106.974 283.797 107.609 281.328 107.609C279.578 107.609 278.078 107.307 276.828 106.703C275.578 106.099 274.646 105.229 274.031 104.094Z" fill="white"/>
<path d="M26.5918 160H14.894C10.4758 160 6.89404 156.418 6.89404 152V94V28" stroke="white" stroke-width="1.5"/>
<path d="M13.0384 21C13.0384 24.4626 10.2768 27.25 6.89421 27.25C3.51158 27.25 0.75 24.4626 0.75 21C0.75 17.5374 3.51158 14.75 6.89421 14.75C10.2768 14.75 13.0384 17.5374 13.0384 21Z" stroke="white" stroke-width="1.5"/>
<rect x="25" y="136" width="350" height="57" rx="10" fill="#002A61"/>
<path d="M41.57 156.416V167H38.042V156.416H35.144V153.428H44.468V156.416H41.57ZM45.3445 157.766H48.6025V159.278C48.9505 158.726 49.3765 158.306 49.8805 158.018C50.3845 157.718 50.9725 157.568 51.6445 157.568C51.7285 157.568 51.8185 157.568 51.9145 157.568C52.0225 157.568 52.1425 157.58 52.2745 157.604V160.718C51.8425 160.502 51.3745 160.394 50.8705 160.394C50.1145 160.394 49.5445 160.622 49.1605 161.078C48.7885 161.522 48.6025 162.176 48.6025 163.04V167H45.3445V157.766ZM56.8588 162.356C56.8588 162.656 56.9128 162.938 57.0208 163.202C57.1288 163.454 57.2728 163.676 57.4528 163.868C57.6448 164.06 57.8668 164.21 58.1188 164.318C58.3828 164.426 58.6648 164.48 58.9648 164.48C59.2528 164.48 59.5228 164.426 59.7748 164.318C60.0388 164.21 60.2608 164.06 60.4408 163.868C60.6328 163.676 60.7828 163.454 60.8908 163.202C61.0108 162.95 61.0708 162.68 61.0708 162.392C61.0708 162.104 61.0108 161.834 60.8908 161.582C60.7828 161.318 60.6328 161.09 60.4408 160.898C60.2608 160.706 60.0388 160.556 59.7748 160.448C59.5228 160.34 59.2528 160.286 58.9648 160.286C58.6648 160.286 58.3828 160.34 58.1188 160.448C57.8668 160.556 57.6448 160.706 57.4528 160.898C57.2728 161.09 57.1288 161.312 57.0208 161.564C56.9128 161.804 56.8588 162.068 56.8588 162.356ZM60.9628 157.766H64.2388V167H60.9628V165.974C60.2668 166.85 59.3248 167.288 58.1368 167.288C57.4648 167.288 56.8468 167.168 56.2828 166.928C55.7188 166.676 55.2268 166.328 54.8068 165.884C54.3868 165.44 54.0568 164.918 53.8168 164.318C53.5888 163.718 53.4748 163.064 53.4748 162.356C53.4748 161.696 53.5888 161.072 53.8168 160.484C54.0448 159.884 54.3628 159.362 54.7708 158.918C55.1788 158.474 55.6648 158.126 56.2288 157.874C56.7928 157.61 57.4168 157.478 58.1008 157.478C59.2528 157.478 60.2068 157.88 60.9628 158.684V157.766ZM66.4558 157.766H69.7138V158.936C70.1578 158.396 70.6078 158.036 71.0638 157.856C71.5198 157.664 72.0538 157.568 72.6658 157.568C73.3138 157.568 73.8658 157.676 74.3218 157.892C74.7898 158.096 75.1858 158.39 75.5098 158.774C75.7738 159.086 75.9538 159.434 76.0498 159.818C76.1458 160.202 76.1938 160.64 76.1938 161.132V167H72.9358V162.338C72.9358 161.882 72.8998 161.516 72.8278 161.24C72.7678 160.952 72.6538 160.724 72.4858 160.556C72.3418 160.412 72.1798 160.31 71.9998 160.25C71.8198 160.19 71.6278 160.16 71.4238 160.16C70.8718 160.16 70.4458 160.328 70.1458 160.664C69.8578 160.988 69.7138 161.456 69.7138 162.068V167H66.4558V157.766ZM84.529 160.142C83.929 159.83 83.341 159.674 82.765 159.674C82.465 159.674 82.219 159.734 82.027 159.854C81.847 159.974 81.757 160.136 81.757 160.34C81.757 160.448 81.769 160.538 81.793 160.61C81.829 160.67 81.895 160.73 81.991 160.79C82.099 160.85 82.249 160.904 82.441 160.952C82.645 161 82.909 161.06 83.233 161.132C84.133 161.312 84.805 161.636 85.249 162.104C85.693 162.56 85.915 163.148 85.915 163.868C85.915 164.408 85.807 164.894 85.591 165.326C85.375 165.758 85.075 166.124 84.691 166.424C84.307 166.712 83.845 166.934 83.305 167.09C82.765 167.258 82.171 167.342 81.523 167.342C80.275 167.342 79.045 166.988 77.833 166.28L79.021 163.976C79.933 164.6 80.797 164.912 81.613 164.912C81.913 164.912 82.159 164.846 82.351 164.714C82.543 164.582 82.639 164.414 82.639 164.21C82.639 164.09 82.621 163.994 82.585 163.922C82.561 163.838 82.501 163.766 82.405 163.706C82.309 163.634 82.165 163.574 81.973 163.526C81.793 163.466 81.553 163.406 81.253 163.346C80.245 163.142 79.537 162.842 79.129 162.446C78.733 162.038 78.535 161.48 78.535 160.772C78.535 160.256 78.631 159.794 78.823 159.386C79.015 158.966 79.291 158.612 79.651 158.324C80.011 158.036 80.443 157.814 80.947 157.658C81.463 157.502 82.033 157.424 82.657 157.424C83.677 157.424 84.667 157.622 85.627 158.018L84.529 160.142ZM87.8372 157.766V156.056C87.8372 155.456 87.9632 154.892 88.2152 154.364C88.4792 153.824 88.8272 153.356 89.2592 152.96C89.7032 152.564 90.2132 152.252 90.7892 152.024C91.3772 151.784 91.9952 151.664 92.6432 151.664C93.2912 151.664 93.9032 151.778 94.4792 152.006C95.0672 152.234 95.5772 152.546 96.0092 152.942C96.4532 153.338 96.8012 153.806 97.0532 154.346C97.3172 154.874 97.4492 155.444 97.4492 156.056V156.47H94.1912V156.056C94.1912 155.84 94.1492 155.636 94.0652 155.444C93.9932 155.24 93.8852 155.06 93.7412 154.904C93.6092 154.748 93.4472 154.622 93.2552 154.526C93.0752 154.43 92.8712 154.382 92.6432 154.382C92.1992 154.382 91.8272 154.55 91.5272 154.886C91.2392 155.222 91.0952 155.612 91.0952 156.056V157.766H92.9672V160.484H91.0952V167H87.8372V160.484H86.6672V157.766H87.8372ZM97.4492 167H94.1912V157.766H97.4492V167ZM106.429 161.042C106.321 160.586 106.099 160.22 105.763 159.944C105.427 159.668 105.019 159.53 104.539 159.53C104.035 159.53 103.621 159.662 103.297 159.926C102.985 160.19 102.787 160.562 102.703 161.042H106.429ZM102.613 162.932C102.613 164.336 103.273 165.038 104.593 165.038C105.301 165.038 105.835 164.75 106.195 164.174H109.345C108.709 166.286 107.119 167.342 104.575 167.342C103.795 167.342 103.081 167.228 102.433 167C101.785 166.76 101.227 166.424 100.759 165.992C100.303 165.56 99.9485 165.044 99.6965 164.444C99.4445 163.844 99.3185 163.172 99.3185 162.428C99.3185 161.66 99.4385 160.97 99.6785 160.358C99.9185 159.734 100.261 159.206 100.705 158.774C101.149 158.342 101.683 158.012 102.307 157.784C102.943 157.544 103.657 157.424 104.449 157.424C105.229 157.424 105.931 157.544 106.555 157.784C107.179 158.012 107.707 158.348 108.139 158.792C108.571 159.236 108.901 159.782 109.129 160.43C109.357 161.066 109.471 161.786 109.471 162.59V162.932H102.613ZM111.333 157.766H114.591V159.278C114.939 158.726 115.365 158.306 115.869 158.018C116.373 157.718 116.961 157.568 117.633 157.568C117.717 157.568 117.807 157.568 117.903 157.568C118.011 157.568 118.131 157.58 118.263 157.604V160.718C117.831 160.502 117.363 160.394 116.859 160.394C116.103 160.394 115.533 160.622 115.149 161.078C114.777 161.522 114.591 162.176 114.591 163.04V167H111.333V157.766ZM126.573 161.042C126.465 160.586 126.243 160.22 125.907 159.944C125.571 159.668 125.163 159.53 124.683 159.53C124.179 159.53 123.765 159.662 123.441 159.926C123.129 160.19 122.931 160.562 122.847 161.042H126.573ZM122.757 162.932C122.757 164.336 123.417 165.038 124.737 165.038C125.445 165.038 125.979 164.75 126.339 164.174H129.489C128.853 166.286 127.263 167.342 124.719 167.342C123.939 167.342 123.225 167.228 122.577 167C121.929 166.76 121.371 166.424 120.903 165.992C120.447 165.56 120.093 165.044 119.841 164.444C119.589 163.844 119.463 163.172 119.463 162.428C119.463 161.66 119.583 160.97 119.823 160.358C120.063 159.734 120.405 159.206 120.849 158.774C121.293 158.342 121.827 158.012 122.451 157.784C123.087 157.544 123.801 157.424 124.593 157.424C125.373 157.424 126.075 157.544 126.699 157.784C127.323 158.012 127.851 158.348 128.283 158.792C128.715 159.236 129.045 159.782 129.273 160.43C129.501 161.066 129.615 161.786 129.615 162.59V162.932H122.757ZM141.231 160.484V167H137.973V160.484H136.893V157.766H137.973V154.994H141.231V157.766H143.085V160.484H141.231ZM147.567 157.766V162.968C147.567 164.108 148.119 164.678 149.223 164.678C150.327 164.678 150.879 164.108 150.879 162.968V157.766H154.137V163.598C154.137 164.846 153.723 165.782 152.895 166.406C152.079 167.03 150.855 167.342 149.223 167.342C147.591 167.342 146.361 167.03 145.533 166.406C144.717 165.782 144.309 164.846 144.309 163.598V157.766H147.567ZM162.47 160.142C161.87 159.83 161.282 159.674 160.706 159.674C160.406 159.674 160.16 159.734 159.968 159.854C159.788 159.974 159.698 160.136 159.698 160.34C159.698 160.448 159.71 160.538 159.734 160.61C159.77 160.67 159.836 160.73 159.932 160.79C160.04 160.85 160.19 160.904 160.382 160.952C160.586 161 160.85 161.06 161.174 161.132C162.074 161.312 162.746 161.636 163.19 162.104C163.634 162.56 163.856 163.148 163.856 163.868C163.856 164.408 163.748 164.894 163.532 165.326C163.316 165.758 163.016 166.124 162.632 166.424C162.248 166.712 161.786 166.934 161.246 167.09C160.706 167.258 160.112 167.342 159.464 167.342C158.216 167.342 156.986 166.988 155.774 166.28L156.962 163.976C157.874 164.6 158.738 164.912 159.554 164.912C159.854 164.912 160.1 164.846 160.292 164.714C160.484 164.582 160.58 164.414 160.58 164.21C160.58 164.09 160.562 163.994 160.526 163.922C160.502 163.838 160.442 163.766 160.346 163.706C160.25 163.634 160.106 163.574 159.914 163.526C159.734 163.466 159.494 163.406 159.194 163.346C158.186 163.142 157.478 162.842 157.07 162.446C156.674 162.038 156.476 161.48 156.476 160.772C156.476 160.256 156.572 159.794 156.764 159.386C156.956 158.966 157.232 158.612 157.592 158.324C157.952 158.036 158.384 157.814 158.888 157.658C159.404 157.502 159.974 157.424 160.598 157.424C161.618 157.424 162.608 157.622 163.568 158.018L162.47 160.142ZM175.154 160.484V167H171.896V160.484H170.726V157.766H171.896V156.38C171.896 155.612 171.968 155 172.112 154.544C172.232 154.16 172.424 153.806 172.688 153.482C172.952 153.146 173.258 152.858 173.606 152.618C173.966 152.378 174.35 152.192 174.758 152.06C175.166 151.928 175.568 151.862 175.964 151.862C176.24 151.862 176.492 151.892 176.72 151.952C176.96 152.012 177.2 152.096 177.44 152.204V155.048C177.224 154.94 177.02 154.862 176.828 154.814C176.648 154.754 176.456 154.724 176.252 154.724C176.12 154.724 175.982 154.748 175.838 154.796C175.706 154.832 175.58 154.916 175.46 155.048C175.34 155.18 175.256 155.372 175.208 155.624C175.172 155.864 175.154 156.194 175.154 156.614V157.766H177.44V160.484H175.154ZM181.893 162.338C181.893 162.65 181.947 162.938 182.055 163.202C182.175 163.454 182.325 163.676 182.505 163.868C182.697 164.06 182.919 164.21 183.171 164.318C183.435 164.426 183.711 164.48 183.999 164.48C184.287 164.48 184.557 164.426 184.809 164.318C185.073 164.21 185.295 164.06 185.475 163.868C185.667 163.676 185.817 163.454 185.925 163.202C186.045 162.938 186.105 162.656 186.105 162.356C186.105 162.068 186.045 161.798 185.925 161.546C185.817 161.282 185.667 161.054 185.475 160.862C185.295 160.67 185.073 160.52 184.809 160.412C184.557 160.304 184.287 160.25 183.999 160.25C183.711 160.25 183.435 160.304 183.171 160.412C182.919 160.52 182.697 160.67 182.505 160.862C182.325 161.054 182.175 161.276 182.055 161.528C181.947 161.78 181.893 162.05 181.893 162.338ZM178.455 162.302C178.455 161.618 178.593 160.982 178.869 160.394C179.145 159.794 179.529 159.278 180.021 158.846C180.513 158.402 181.095 158.054 181.767 157.802C182.451 157.55 183.195 157.424 183.999 157.424C184.791 157.424 185.523 157.55 186.195 157.802C186.879 158.042 187.467 158.384 187.959 158.828C188.463 159.26 188.853 159.782 189.129 160.394C189.405 160.994 189.543 161.66 189.543 162.392C189.543 163.124 189.399 163.796 189.111 164.408C188.835 165.008 188.451 165.53 187.959 165.974C187.467 166.406 186.873 166.742 186.177 166.982C185.493 167.222 184.749 167.342 183.945 167.342C183.153 167.342 182.421 167.222 181.749 166.982C181.077 166.742 180.495 166.4 180.003 165.956C179.523 165.512 179.145 164.984 178.869 164.372C178.593 163.748 178.455 163.058 178.455 162.302ZM191.419 157.766H194.677V158.936C195.121 158.396 195.571 158.036 196.027 157.856C196.483 157.664 197.017 157.568 197.629 157.568C198.277 157.568 198.829 157.676 199.285 157.892C199.753 158.096 200.149 158.39 200.473 158.774C200.737 159.086 200.917 159.434 201.013 159.818C201.109 160.202 201.157 160.64 201.157 161.132V167H197.899V162.338C197.899 161.882 197.863 161.516 197.791 161.24C197.731 160.952 197.617 160.724 197.449 160.556C197.305 160.412 197.143 160.31 196.963 160.25C196.783 160.19 196.591 160.16 196.387 160.16C195.835 160.16 195.409 160.328 195.109 160.664C194.821 160.988 194.677 161.456 194.677 162.068V167H191.419V157.766ZM206.396 162.356C206.396 162.656 206.45 162.938 206.558 163.202C206.666 163.454 206.81 163.676 206.99 163.868C207.182 164.06 207.404 164.21 207.656 164.318C207.92 164.426 208.202 164.48 208.502 164.48C208.79 164.48 209.06 164.426 209.312 164.318C209.576 164.21 209.798 164.06 209.978 163.868C210.17 163.676 210.32 163.454 210.428 163.202C210.548 162.95 210.608 162.68 210.608 162.392C210.608 162.104 210.548 161.834 210.428 161.582C210.32 161.318 210.17 161.09 209.978 160.898C209.798 160.706 209.576 160.556 209.312 160.448C209.06 160.34 208.79 160.286 208.502 160.286C208.214 160.286 207.938 160.34 207.674 160.448C207.422 160.556 207.2 160.706 207.008 160.898C206.828 161.09 206.678 161.312 206.558 161.564C206.45 161.804 206.396 162.068 206.396 162.356ZM210.5 152.06H213.776V167H210.5V165.974C209.804 166.85 208.862 167.288 207.674 167.288C207.002 167.288 206.384 167.162 205.82 166.91C205.256 166.658 204.764 166.31 204.344 165.866C203.924 165.422 203.594 164.9 203.354 164.3C203.126 163.7 203.012 163.052 203.012 162.356C203.012 161.696 203.12 161.072 203.336 160.484C203.564 159.884 203.882 159.362 204.29 158.918C204.698 158.474 205.184 158.126 205.748 157.874C206.324 157.61 206.954 157.478 207.638 157.478C208.79 157.478 209.744 157.88 210.5 158.684V152.06ZM219.071 162.338C219.071 162.65 219.125 162.938 219.233 163.202C219.353 163.454 219.503 163.676 219.683 163.868C219.875 164.06 220.097 164.21 220.349 164.318C220.613 164.426 220.889 164.48 221.177 164.48C221.465 164.48 221.735 164.426 221.987 164.318C222.251 164.21 222.473 164.06 222.653 163.868C222.845 163.676 222.995 163.454 223.103 163.202C223.223 162.938 223.283 162.656 223.283 162.356C223.283 162.068 223.223 161.798 223.103 161.546C222.995 161.282 222.845 161.054 222.653 160.862C222.473 160.67 222.251 160.52 221.987 160.412C221.735 160.304 221.465 160.25 221.177 160.25C220.889 160.25 220.613 160.304 220.349 160.412C220.097 160.52 219.875 160.67 219.683 160.862C219.503 161.054 219.353 161.276 219.233 161.528C219.125 161.78 219.071 162.05 219.071 162.338ZM215.633 162.302C215.633 161.618 215.771 160.982 216.047 160.394C216.323 159.794 216.707 159.278 217.199 158.846C217.691 158.402 218.273 158.054 218.945 157.802C219.629 157.55 220.373 157.424 221.177 157.424C221.969 157.424 222.701 157.55 223.373 157.802C224.057 158.042 224.645 158.384 225.137 158.828C225.641 159.26 226.031 159.782 226.307 160.394C226.583 160.994 226.721 161.66 226.721 162.392C226.721 163.124 226.577 163.796 226.289 164.408C226.013 165.008 225.629 165.53 225.137 165.974C224.645 166.406 224.051 166.742 223.355 166.982C222.671 167.222 221.927 167.342 221.123 167.342C220.331 167.342 219.599 167.222 218.927 166.982C218.255 166.742 217.673 166.4 217.181 165.956C216.701 165.512 216.323 164.984 216.047 164.372C215.771 163.748 215.633 163.058 215.633 162.302ZM234.716 160.142C234.116 159.83 233.528 159.674 232.952 159.674C232.652 159.674 232.406 159.734 232.214 159.854C232.034 159.974 231.944 160.136 231.944 160.34C231.944 160.448 231.956 160.538 231.98 160.61C232.016 160.67 232.082 160.73 232.178 160.79C232.286 160.85 232.436 160.904 232.628 160.952C232.832 161 233.096 161.06 233.42 161.132C234.32 161.312 234.992 161.636 235.436 162.104C235.88 162.56 236.102 163.148 236.102 163.868C236.102 164.408 235.994 164.894 235.778 165.326C235.562 165.758 235.262 166.124 234.878 166.424C234.494 166.712 234.032 166.934 233.492 167.09C232.952 167.258 232.358 167.342 231.71 167.342C230.462 167.342 229.232 166.988 228.02 166.28L229.208 163.976C230.12 164.6 230.984 164.912 231.8 164.912C232.1 164.912 232.346 164.846 232.538 164.714C232.73 164.582 232.826 164.414 232.826 164.21C232.826 164.09 232.808 163.994 232.772 163.922C232.748 163.838 232.688 163.766 232.592 163.706C232.496 163.634 232.352 163.574 232.16 163.526C231.98 163.466 231.74 163.406 231.44 163.346C230.432 163.142 229.724 162.842 229.316 162.446C228.92 162.038 228.722 161.48 228.722 160.772C228.722 160.256 228.818 159.794 229.01 159.386C229.202 158.966 229.478 158.612 229.838 158.324C230.198 158.036 230.63 157.814 231.134 157.658C231.65 157.502 232.22 157.424 232.844 157.424C233.864 157.424 234.854 157.622 235.814 158.018L234.716 160.142ZM250.406 159.152C249.65 158.612 248.714 158.306 247.796 158.306C245.312 158.306 243.278 160.25 243.278 162.77C243.278 165.326 245.222 167.234 247.778 167.234C248.786 167.234 249.632 166.928 250.46 166.37V164.444H250.424C249.722 165.362 248.876 165.902 247.67 165.902C245.906 165.902 244.754 164.444 244.754 162.77C244.754 161.078 245.996 159.638 247.742 159.638C248.876 159.638 249.704 160.214 250.37 161.06H250.406V159.152ZM254.016 158.54H252.576V163.418C252.576 165.668 253.422 167.234 255.924 167.234C258.426 167.234 259.272 165.668 259.272 163.418V158.54H257.832V163.256C257.832 164.678 257.67 165.902 255.924 165.902C254.178 165.902 254.016 164.678 254.016 163.256V158.54ZM265.405 159.638C267.187 159.638 268.249 161.006 268.249 162.698C268.249 164.408 267.277 165.902 265.423 165.902C263.623 165.902 262.651 164.336 262.651 162.68C262.651 161.096 263.731 159.638 265.405 159.638ZM269.617 158.54H268.177V159.746H268.141C267.439 158.846 266.395 158.306 265.243 158.306C262.705 158.306 261.175 160.376 261.175 162.788C261.175 165.128 262.741 167.234 265.225 167.234C266.413 167.234 267.403 166.766 268.141 165.83H268.177V167H269.617V158.54ZM273.724 158.54H272.284V167H273.724V162.986C273.724 161.474 273.85 159.638 275.83 159.638C277.504 159.638 277.612 160.862 277.612 162.23V167H279.052V161.978C279.052 159.998 278.512 158.306 276.172 158.306C275.128 158.306 274.354 158.756 273.76 159.566H273.724V158.54ZM285.304 159.638C287.086 159.638 288.148 161.006 288.148 162.698C288.148 164.408 287.176 165.902 285.322 165.902C283.522 165.902 282.55 164.336 282.55 162.68C282.55 161.096 283.63 159.638 285.304 159.638ZM288.076 167H289.516V152.15H288.076V159.746H288.04C287.356 158.846 286.276 158.306 285.142 158.306C282.604 158.306 281.074 160.376 281.074 162.788C281.074 165.128 282.64 167.234 285.124 167.234C286.276 167.234 287.338 166.748 288.04 165.83H288.076V167ZM295.872 167.234C298.338 167.234 300.318 165.272 300.318 162.788C300.318 160.304 298.356 158.306 295.872 158.306C293.388 158.306 291.426 160.304 291.426 162.788C291.426 165.272 293.406 167.234 295.872 167.234ZM295.872 159.638C297.654 159.638 298.878 161.06 298.878 162.77C298.878 164.498 297.654 165.902 295.872 165.902C294.09 165.902 292.866 164.498 292.866 162.77C292.866 161.06 294.09 159.638 295.872 159.638ZM311.337 159.638C313.119 159.638 314.181 161.006 314.181 162.698C314.181 164.408 313.209 165.902 311.355 165.902C309.555 165.902 308.583 164.336 308.583 162.68C308.583 161.096 309.663 159.638 311.337 159.638ZM315.549 158.54H314.109V159.746H314.073C313.371 158.81 312.309 158.306 311.157 158.306C308.655 158.306 307.107 160.448 307.107 162.806C307.107 165.2 308.637 167.234 311.175 167.234C312.309 167.234 313.389 166.73 314.073 165.812H314.109V171.752H315.549V158.54ZM319.548 158.54H318.108V163.418C318.108 165.668 318.954 167.234 321.456 167.234C323.958 167.234 324.804 165.668 324.804 163.418V158.54H323.364V163.256C323.364 164.678 323.202 165.902 321.456 165.902C319.71 165.902 319.548 164.678 319.548 163.256V158.54ZM329.137 158.54H327.697V167H329.137V158.54ZM328.417 154.328C327.859 154.328 327.391 154.796 327.391 155.354C327.391 155.93 327.859 156.38 328.417 156.38C328.975 156.38 329.443 155.93 329.443 155.354C329.443 154.796 328.975 154.328 328.417 154.328ZM339.5 163.076C339.644 160.556 338.204 158.306 335.486 158.306C332.84 158.306 331.382 160.376 331.382 162.878C331.382 165.308 333.002 167.234 335.522 167.234C337.25 167.234 338.618 166.37 339.428 164.858L338.204 164.156C337.646 165.164 336.854 165.902 335.63 165.902C333.992 165.902 332.876 164.642 332.858 163.076H339.5ZM332.93 161.852C333.11 160.628 334.262 159.638 335.504 159.638C336.764 159.638 337.79 160.628 337.988 161.852H332.93ZM342.84 158.54H341.4V167H342.84V162.77C342.84 161.672 342.912 159.638 344.496 159.638C344.874 159.638 345.072 159.818 345.36 160.016L346.044 158.702C345.63 158.468 345.234 158.306 344.748 158.306C343.812 158.306 343.38 158.792 342.876 159.458H342.84V158.54ZM351.011 159.638C352.793 159.638 353.855 161.006 353.855 162.698C353.855 164.408 352.883 165.902 351.029 165.902C349.229 165.902 348.257 164.336 348.257 162.68C348.257 161.096 349.337 159.638 351.011 159.638ZM355.223 158.54H353.783V159.746H353.747C353.045 158.846 352.001 158.306 350.849 158.306C348.311 158.306 346.781 160.376 346.781 162.788C346.781 165.128 348.347 167.234 350.831 167.234C352.019 167.234 353.009 166.766 353.747 165.83H353.783V167H355.223V158.54ZM362.515 159.872C362.137 158.99 361.237 158.306 360.265 158.306C358.897 158.306 357.745 159.278 357.745 160.7C357.745 163.364 361.561 162.716 361.561 164.606C361.561 165.38 360.967 165.902 360.193 165.902C359.239 165.902 358.825 165.344 358.465 164.552L357.187 165.092C357.637 166.424 358.753 167.234 360.175 167.234C361.741 167.234 363.037 166.082 363.037 164.48C363.037 163.058 362.065 162.464 361.075 162.05C360.085 161.636 359.113 161.348 359.113 160.574C359.113 160.034 359.653 159.638 360.157 159.638C360.679 159.638 361.111 160.052 361.309 160.502L362.515 159.872Z" fill="white"/>
</svg>
