<svg width="504" height="192" viewBox="0 0 504 192" fill="none" xmlns="http://www.w3.org/2000/svg">
<path d="M30.5625 31V8.125H44.0312V12.25H35.4531V16.9531H44.0312V21.1094H35.4531V31H30.5625ZM47.9062 31V8.125H52.7969V31H47.9062ZM58.0312 31V8.125H63.1094L73.2344 21.4375C73.526 21.8125 73.8438 22.3438 74.1875 23.0312C74.5417 23.7083 74.9062 24.5104 75.2812 25.4375C75.1667 24.7604 75.0833 24.0885 75.0312 23.4219C74.9792 22.7552 74.9531 21.9219 74.9531 20.9219V8.125H79.625V31H74.8281L64.4219 17.4375C64.1302 17.0625 63.8125 16.5365 63.4688 15.8594C63.125 15.1719 62.7604 14.3542 62.375 13.4062C62.4896 14.0625 62.5729 14.7292 62.625 15.4062C62.6771 16.0729 62.7031 16.9167 62.7031 17.9375V31H58.0312ZM96.5625 22.2969L94 14.9062C93.9271 14.6875 93.8333 14.3125 93.7188 13.7812C93.6042 13.25 93.4844 12.599 93.3594 11.8281C93.224 12.5677 93.0938 13.2344 92.9688 13.8281C92.8438 14.4115 92.75 14.8021 92.6875 15L90.2188 22.2969H96.5625ZM82 31L90.7031 8.125H96.2969L105.125 31H99.5625L97.7031 26.1406H88.8438L87.25 31H82ZM107.531 31V8.125H112.609L122.734 21.4375C123.026 21.8125 123.344 22.3438 123.688 23.0312C124.042 23.7083 124.406 24.5104 124.781 25.4375C124.667 24.7604 124.583 24.0885 124.531 23.4219C124.479 22.7552 124.453 21.9219 124.453 20.9219V8.125H129.125V31H124.328L113.922 17.4375C113.63 17.0625 113.312 16.5365 112.969 15.8594C112.625 15.1719 112.26 14.3542 111.875 13.4062C111.99 14.0625 112.073 14.7292 112.125 15.4062C112.177 16.0729 112.203 16.9167 112.203 17.9375V31H107.531ZM152.641 14.0781C151.651 13.1927 150.635 12.5469 149.594 12.1406C148.552 11.724 147.438 11.5156 146.25 11.5156C143.812 11.5156 141.87 12.2448 140.422 13.7031C138.974 15.1615 138.25 17.1198 138.25 19.5781C138.25 21.9844 138.922 23.8958 140.266 25.3125C141.609 26.7188 143.443 27.4219 145.766 27.4219C147.089 27.4219 148.318 27.2031 149.453 26.7656C150.589 26.3177 151.641 25.651 152.609 24.7656L152.578 29.7812C151.536 30.3958 150.443 30.8542 149.297 31.1562C148.161 31.4583 146.964 31.6094 145.703 31.6094C142.057 31.6094 139.062 30.4792 136.719 28.2188C134.385 25.9479 133.219 23.0677 133.219 19.5781C133.219 16.099 134.391 13.2292 136.734 10.9688C139.078 8.70833 142.099 7.57812 145.797 7.57812C147.036 7.57812 148.234 7.70833 149.391 7.96875C150.547 8.22917 151.688 8.63021 152.812 9.17188L152.641 14.0781ZM157.281 31V8.125H162.172V31H157.281ZM179.25 22.2969L176.688 14.9062C176.615 14.6875 176.521 14.3125 176.406 13.7812C176.292 13.25 176.172 12.599 176.047 11.8281C175.911 12.5677 175.781 13.2344 175.656 13.8281C175.531 14.4115 175.438 14.8021 175.375 15L172.906 22.2969H179.25ZM164.688 31L173.391 8.125H178.984L187.812 31H182.25L180.391 26.1406H171.531L169.938 31H164.688ZM188.234 31L191.719 8.125H196.844L201.25 21.5938C201.344 21.875 201.443 22.2865 201.547 22.8281C201.661 23.3698 201.766 23.9896 201.859 24.6875C201.943 23.9792 202.036 23.349 202.141 22.7969C202.245 22.2344 202.344 21.8229 202.438 21.5625L206.922 8.125H211.969L215.469 31H210.828L209.156 17.2031C209.031 16.1823 208.948 15.4115 208.906 14.8906C208.865 14.3698 208.844 13.8854 208.844 13.4375C208.844 13.1979 208.844 13.0208 208.844 12.9062C208.854 12.7812 208.865 12.6719 208.875 12.5781C208.719 13.474 208.568 14.25 208.422 14.9062C208.286 15.5521 208.161 16.0417 208.047 16.375L203.203 31H200.453L195.688 16.375C195.646 16.2396 195.552 15.8646 195.406 15.25C195.271 14.6354 195.078 13.7396 194.828 12.5625V13.2344C194.828 14.2969 194.734 15.599 194.547 17.1406L194.531 17.2031L192.875 31H188.234ZM218.75 31V8.125H223.641V31H218.75ZM228.875 31V8.125H242.344V12.25H233.766V16.9531H242.344V21.1094H233.766V26.8438H242.344V31H228.875ZM247.156 31V8.125H252.234L262.359 21.4375C262.651 21.8125 262.969 22.3438 263.312 23.0312C263.667 23.7083 264.031 24.5104 264.406 25.4375C264.292 24.7604 264.208 24.0885 264.156 23.4219C264.104 22.7552 264.078 21.9219 264.078 20.9219V8.125H268.75V31H263.953L253.547 17.4375C253.255 17.0625 252.938 16.5365 252.594 15.8594C252.25 15.1719 251.885 14.3542 251.5 13.4062C251.615 14.0625 251.698 14.7292 251.75 15.4062C251.802 16.0729 251.828 16.9167 251.828 17.9375V31H247.156ZM282.391 12.2812V31H277.484V12.2812H271.891V8.125H288.016V12.2812H282.391ZM314.047 19.6094C314.047 21.2448 313.74 22.7917 313.125 24.25C312.521 25.7083 311.646 26.9896 310.5 28.0938C309.312 29.2292 307.974 30.099 306.484 30.7031C304.995 31.3073 303.453 31.6094 301.859 31.6094C300.464 31.6094 299.094 31.375 297.75 30.9062C296.417 30.4271 295.193 29.7448 294.078 28.8594C292.641 27.7135 291.536 26.3438 290.766 24.75C290.005 23.1562 289.625 21.4427 289.625 19.6094C289.625 17.9635 289.927 16.4219 290.531 14.9844C291.135 13.5365 292.021 12.25 293.188 11.125C294.333 10.0104 295.661 9.14583 297.172 8.53125C298.693 7.91667 300.255 7.60938 301.859 7.60938C303.453 7.60938 305 7.91667 306.5 8.53125C308.01 9.14583 309.344 10.0104 310.5 11.125C311.656 12.25 312.536 13.5365 313.141 14.9844C313.745 16.4323 314.047 17.974 314.047 19.6094ZM301.859 27.25C303.932 27.25 305.641 26.526 306.984 25.0781C308.339 23.6198 309.016 21.7969 309.016 19.6094C309.016 17.4427 308.333 15.6198 306.969 14.1406C305.604 12.6615 303.901 11.9219 301.859 11.9219C299.786 11.9219 298.068 12.6615 296.703 14.1406C295.339 15.6094 294.656 17.4323 294.656 19.6094C294.656 21.8177 295.328 23.6458 296.672 25.0938C298.016 26.5312 299.745 27.25 301.859 27.25ZM332.953 18.4531H333.656C334.99 18.4531 335.958 18.1771 336.562 17.625C337.167 17.0729 337.469 16.1875 337.469 14.9688C337.469 13.8438 337.167 13.026 336.562 12.5156C335.958 11.9948 334.99 11.7344 333.656 11.7344H332.953V18.4531ZM328.031 31V8.125H333.656C336.656 8.125 338.87 8.69792 340.297 9.84375C341.734 10.9896 342.453 12.7604 342.453 15.1562C342.453 17.375 341.729 19.1146 340.281 20.375C338.844 21.6354 336.849 22.2656 334.297 22.2656H332.953V31H328.031ZM345.844 31V8.125H359.312V12.25H350.734V16.9531H359.312V21.1094H350.734V26.8438H359.312V31H345.844ZM364.125 31V8.125H369.203L379.328 21.4375C379.62 21.8125 379.938 22.3438 380.281 23.0312C380.635 23.7083 381 24.5104 381.375 25.4375C381.26 24.7604 381.177 24.0885 381.125 23.4219C381.073 22.7552 381.047 21.9219 381.047 20.9219V8.125H385.719V31H380.922L370.516 17.4375C370.224 17.0625 369.906 16.5365 369.562 15.8594C369.219 15.1719 368.854 14.3542 368.469 13.4062C368.583 14.0625 368.667 14.7292 368.719 15.4062C368.771 16.0729 368.797 16.9167 368.797 17.9375V31H364.125ZM389.344 28.0938L392.062 25.0156C392.406 25.8594 392.958 26.526 393.719 27.0156C394.479 27.4948 395.333 27.7344 396.281 27.7344C397.427 27.7344 398.333 27.4635 399 26.9219C399.667 26.3802 400 25.651 400 24.7344C400 23.651 398.891 22.5729 396.672 21.5C395.953 21.1562 395.385 20.875 394.969 20.6562C392.969 19.6146 391.583 18.599 390.812 17.6094C390.042 16.6094 389.656 15.4219 389.656 14.0469C389.656 12.1615 390.401 10.6146 391.891 9.40625C393.391 8.1875 395.333 7.57812 397.719 7.57812C399.104 7.57812 400.297 7.82292 401.297 8.3125C402.307 8.79167 403.198 9.54688 403.969 10.5781L401.078 13.3438C400.734 12.6771 400.276 12.1823 399.703 11.8594C399.141 11.526 398.458 11.3594 397.656 11.3594C396.688 11.3594 395.906 11.6042 395.312 12.0938C394.719 12.5729 394.422 13.1979 394.422 13.9688C394.422 15.1771 395.599 16.2812 397.953 17.2812C398.422 17.4792 398.781 17.6354 399.031 17.75C400.969 18.6354 402.401 19.6354 403.328 20.75C404.266 21.8646 404.734 23.1354 404.734 24.5625C404.734 26.7083 404 28.4219 402.531 29.7031C401.073 30.974 399.109 31.6094 396.641 31.6094C394.891 31.6094 393.391 31.3073 392.141 30.7031C390.891 30.099 389.958 29.2292 389.344 28.0938ZM420.594 22.2969L418.031 14.9062C417.958 14.6875 417.865 14.3125 417.75 13.7812C417.635 13.25 417.516 12.599 417.391 11.8281C417.255 12.5677 417.125 13.2344 417 13.8281C416.875 14.4115 416.781 14.8021 416.719 15L414.25 22.2969H420.594ZM406.031 31L414.734 8.125H420.328L429.156 31H423.594L421.734 26.1406H412.875L411.281 31H406.031ZM436.453 26.875H439.172C441.734 26.875 443.599 26.2917 444.766 25.125C445.943 23.9583 446.531 22.1094 446.531 19.5781C446.531 17.0573 445.943 15.2135 444.766 14.0469C443.599 12.8698 441.734 12.2812 439.172 12.2812H436.453V26.875ZM431.562 31V8.125H437.797C440.255 8.125 442.193 8.29688 443.609 8.64062C445.026 8.98438 446.271 9.55729 447.344 10.3594C448.729 11.3906 449.776 12.6927 450.484 14.2656C451.203 15.8281 451.562 17.6094 451.562 19.6094C451.562 21.6406 451.198 23.4427 450.469 25.0156C449.74 26.5781 448.672 27.8698 447.266 28.8906C446.224 29.6406 445.062 30.1823 443.781 30.5156C442.51 30.8385 440.646 31 438.188 31H436.453H431.562ZM479.078 19.6094C479.078 21.2448 478.771 22.7917 478.156 24.25C477.552 25.7083 476.677 26.9896 475.531 28.0938C474.344 29.2292 473.005 30.099 471.516 30.7031C470.026 31.3073 468.484 31.6094 466.891 31.6094C465.495 31.6094 464.125 31.375 462.781 30.9062C461.448 30.4271 460.224 29.7448 459.109 28.8594C457.672 27.7135 456.568 26.3438 455.797 24.75C455.036 23.1562 454.656 21.4427 454.656 19.6094C454.656 17.9635 454.958 16.4219 455.562 14.9844C456.167 13.5365 457.052 12.25 458.219 11.125C459.365 10.0104 460.693 9.14583 462.203 8.53125C463.724 7.91667 465.286 7.60938 466.891 7.60938C468.484 7.60938 470.031 7.91667 471.531 8.53125C473.042 9.14583 474.375 10.0104 475.531 11.125C476.688 12.25 477.568 13.5365 478.172 14.9844C478.776 16.4323 479.078 17.974 479.078 19.6094ZM466.891 27.25C468.964 27.25 470.672 26.526 472.016 25.0781C473.37 23.6198 474.047 21.7969 474.047 19.6094C474.047 17.4427 473.365 15.6198 472 14.1406C470.635 12.6615 468.932 11.9219 466.891 11.9219C464.818 11.9219 463.099 12.6615 461.734 14.1406C460.37 15.6094 459.688 17.4323 459.688 19.6094C459.688 21.8177 460.359 23.6458 461.703 25.0938C463.047 26.5312 464.776 27.25 466.891 27.25ZM35.4844 56.4531H36.1875C37.5208 56.4531 38.4896 56.1771 39.0938 55.625C39.6979 55.0729 40 54.1875 40 52.9688C40 51.8438 39.6979 51.026 39.0938 50.5156C38.4896 49.9948 37.5208 49.7344 36.1875 49.7344H35.4844V56.4531ZM30.5625 69V46.125H36.1875C39.1875 46.125 41.401 46.6979 42.8281 47.8438C44.2656 48.9896 44.9844 50.7604 44.9844 53.1562C44.9844 55.375 44.2604 57.1146 42.8125 58.375C41.375 59.6354 39.3802 60.2656 36.8281 60.2656H35.4844V69H30.5625ZM58.625 60.2969L56.0625 52.9062C55.9896 52.6875 55.8958 52.3125 55.7812 51.7812C55.6667 51.25 55.5469 50.599 55.4219 49.8281C55.2865 50.5677 55.1562 51.2344 55.0312 51.8281C54.9062 52.4115 54.8125 52.8021 54.75 53L52.2812 60.2969H58.625ZM44.0625 69L52.7656 46.125H58.3594L67.1875 69H61.625L59.7656 64.1406H50.9062L49.3125 69H44.0625ZM86.1406 69H80.5L74.4844 58.3125V69H69.5938V46.125H76.5938C79.375 46.125 81.4583 46.6667 82.8438 47.75C84.2292 48.8229 84.9219 50.4427 84.9219 52.6094C84.9219 54.1823 84.4479 55.526 83.5 56.6406C82.5521 57.7552 81.3281 58.4062 79.8281 58.5938L86.1406 69ZM74.4844 55.875H75.2188C77.1979 55.875 78.5052 55.6615 79.1406 55.2344C79.776 54.7969 80.0938 54.0417 80.0938 52.9688C80.0938 51.8438 79.75 51.0469 79.0625 50.5781C78.3854 50.099 77.1042 49.8594 75.2188 49.8594H74.4844V55.875ZM100.844 60.2969L98.2812 52.9062C98.2083 52.6875 98.1146 52.3125 98 51.7812C97.8854 51.25 97.7656 50.599 97.6406 49.8281C97.5052 50.5677 97.375 51.2344 97.25 51.8281C97.125 52.4115 97.0312 52.8021 96.9688 53L94.5 60.2969H100.844ZM86.2812 69L94.9844 46.125H100.578L109.406 69H103.844L101.984 64.1406H93.125L91.5312 69H86.2812ZM121.656 69V46.125H126.547V55.2969H136.469V46.125H141.359V69H136.469V59.4375H126.547V69H121.656ZM158.312 60.2969L155.75 52.9062C155.677 52.6875 155.583 52.3125 155.469 51.7812C155.354 51.25 155.234 50.599 155.109 49.8281C154.974 50.5677 154.844 51.2344 154.719 51.8281C154.594 52.4115 154.5 52.8021 154.438 53L151.969 60.2969H158.312ZM143.75 69L152.453 46.125H158.047L166.875 69H161.312L159.453 64.1406H150.594L149 69H143.75ZM187.141 52.0781C186.151 51.1927 185.135 50.5469 184.094 50.1406C183.052 49.724 181.938 49.5156 180.75 49.5156C178.312 49.5156 176.37 50.2448 174.922 51.7031C173.474 53.1615 172.75 55.1198 172.75 57.5781C172.75 59.9844 173.422 61.8958 174.766 63.3125C176.109 64.7188 177.943 65.4219 180.266 65.4219C181.589 65.4219 182.818 65.2031 183.953 64.7656C185.089 64.3177 186.141 63.651 187.109 62.7656L187.078 67.7812C186.036 68.3958 184.943 68.8542 183.797 69.1562C182.661 69.4583 181.464 69.6094 180.203 69.6094C176.557 69.6094 173.562 68.4792 171.219 66.2188C168.885 63.9479 167.719 61.0677 167.719 57.5781C167.719 54.099 168.891 51.2292 171.234 48.9688C173.578 46.7083 176.599 45.5781 180.297 45.5781C181.536 45.5781 182.734 45.7083 183.891 45.9688C185.047 46.2292 186.188 46.6302 187.312 47.1719L187.141 52.0781ZM191.688 69V46.125H205.156V50.25H196.578V54.9531H205.156V59.1094H196.578V64.8438H205.156V69H191.688ZM226.516 69H220.875L214.859 58.3125V69H209.969V46.125H216.969C219.75 46.125 221.833 46.6667 223.219 47.75C224.604 48.8229 225.297 50.4427 225.297 52.6094C225.297 54.1823 224.823 55.526 223.875 56.6406C222.927 57.7552 221.703 58.4062 220.203 58.5938L226.516 69ZM214.859 55.875H215.594C217.573 55.875 218.88 55.6615 219.516 55.2344C220.151 54.7969 220.469 54.0417 220.469 52.9688C220.469 51.8438 220.125 51.0469 219.438 50.5781C218.76 50.099 217.479 49.8594 215.594 49.8594H214.859V55.875ZM257.641 52.0781C256.651 51.1927 255.635 50.5469 254.594 50.1406C253.552 49.724 252.438 49.5156 251.25 49.5156C248.812 49.5156 246.87 50.2448 245.422 51.7031C243.974 53.1615 243.25 55.1198 243.25 57.5781C243.25 59.9844 243.922 61.8958 245.266 63.3125C246.609 64.7188 248.443 65.4219 250.766 65.4219C252.089 65.4219 253.318 65.2031 254.453 64.7656C255.589 64.3177 256.641 63.651 257.609 62.7656L257.578 67.7812C256.536 68.3958 255.443 68.8542 254.297 69.1562C253.161 69.4583 251.964 69.6094 250.703 69.6094C247.057 69.6094 244.062 68.4792 241.719 66.2188C239.385 63.9479 238.219 61.0677 238.219 57.5781C238.219 54.099 239.391 51.2292 241.734 48.9688C244.078 46.7083 247.099 45.5781 250.797 45.5781C252.036 45.5781 253.234 45.7083 254.391 45.9688C255.547 46.2292 256.688 46.6302 257.812 47.1719L257.641 52.0781ZM278.734 69H273.094L267.078 58.3125V69H262.188V46.125H269.188C271.969 46.125 274.052 46.6667 275.438 47.75C276.823 48.8229 277.516 50.4427 277.516 52.6094C277.516 54.1823 277.042 55.526 276.094 56.6406C275.146 57.7552 273.922 58.4062 272.422 58.5938L278.734 69ZM267.078 55.875H267.812C269.792 55.875 271.099 55.6615 271.734 55.2344C272.37 54.7969 272.688 54.0417 272.688 52.9688C272.688 51.8438 272.344 51.0469 271.656 50.5781C270.979 50.099 269.698 49.8594 267.812 49.8594H267.078V55.875ZM281.594 69V46.125H295.062V50.25H286.484V54.9531H295.062V59.1094H286.484V64.8438H295.062V69H281.594ZM318.297 52.0781C317.307 51.1927 316.292 50.5469 315.25 50.1406C314.208 49.724 313.094 49.5156 311.906 49.5156C309.469 49.5156 307.526 50.2448 306.078 51.7031C304.63 53.1615 303.906 55.1198 303.906 57.5781C303.906 59.9844 304.578 61.8958 305.922 63.3125C307.266 64.7188 309.099 65.4219 311.422 65.4219C312.745 65.4219 313.974 65.2031 315.109 64.7656C316.245 64.3177 317.297 63.651 318.266 62.7656L318.234 67.7812C317.193 68.3958 316.099 68.8542 314.953 69.1562C313.818 69.4583 312.62 69.6094 311.359 69.6094C307.714 69.6094 304.719 68.4792 302.375 66.2188C300.042 63.9479 298.875 61.0677 298.875 57.5781C298.875 54.099 300.047 51.2292 302.391 48.9688C304.734 46.7083 307.755 45.5781 311.453 45.5781C312.693 45.5781 313.891 45.7083 315.047 45.9688C316.203 46.2292 317.344 46.6302 318.469 47.1719L318.297 52.0781ZM322.844 69V46.125H336.312V50.25H327.734V54.9531H336.312V59.1094H327.734V64.8438H336.312V69H322.844ZM357.672 69H352.031L346.016 58.3125V69H341.125V46.125H348.125C350.906 46.125 352.99 46.6667 354.375 47.75C355.76 48.8229 356.453 50.4427 356.453 52.6094C356.453 54.1823 355.979 55.526 355.031 56.6406C354.083 57.7552 352.859 58.4062 351.359 58.5938L357.672 69ZM346.016 55.875H346.75C348.729 55.875 350.036 55.6615 350.672 55.2344C351.307 54.7969 351.625 54.0417 351.625 52.9688C351.625 51.8438 351.281 51.0469 350.594 50.5781C349.917 50.099 348.635 49.8594 346.75 49.8594H346.016V55.875ZM39.1094 88.2812V107H34.2031V88.2812H28.6094V84.125H44.7344V88.2812H39.1094ZM67.5781 84.125V98.3594C67.5781 101.464 66.7604 103.781 65.125 105.312C63.4896 106.844 61.026 107.609 57.7344 107.609C54.3906 107.609 51.901 106.844 50.2656 105.312C48.6302 103.781 47.8125 101.464 47.8125 98.3594V84.125H52.6719V97.5938C52.6719 99.4792 53.0885 100.901 53.9219 101.859C54.7552 102.807 56 103.281 57.6562 103.281C59.3229 103.281 60.5833 102.802 61.4375 101.844C62.2917 100.885 62.7188 99.4688 62.7188 97.5938V84.125H67.5781ZM82.5 107V84.125H95.9688V88.25H87.3906V92.9531H95.9688V97.1094H87.3906V102.844H95.9688V107H82.5ZM98.7969 107L102.281 84.125H107.406L111.812 97.5938C111.906 97.875 112.005 98.2865 112.109 98.8281C112.224 99.3698 112.328 99.9896 112.422 100.688C112.505 99.9792 112.599 99.349 112.703 98.7969C112.807 98.2344 112.906 97.8229 113 97.5625L117.484 84.125H122.531L126.031 107H121.391L119.719 93.2031C119.594 92.1823 119.51 91.4115 119.469 90.8906C119.427 90.3698 119.406 89.8854 119.406 89.4375C119.406 89.1979 119.406 89.0208 119.406 88.9062C119.417 88.7812 119.427 88.6719 119.438 88.5781C119.281 89.474 119.13 90.25 118.984 90.9062C118.849 91.5521 118.724 92.0417 118.609 92.375L113.766 107H111.016L106.25 92.375C106.208 92.2396 106.115 91.8646 105.969 91.25C105.833 90.6354 105.641 89.7396 105.391 88.5625V89.2344C105.391 90.2969 105.297 91.599 105.109 93.1406L105.094 93.2031L103.438 107H98.7969ZM134.141 94.4531H134.844C136.177 94.4531 137.146 94.1771 137.75 93.625C138.354 93.0729 138.656 92.1875 138.656 90.9688C138.656 89.8438 138.354 89.026 137.75 88.5156C137.146 87.9948 136.177 87.7344 134.844 87.7344H134.141V94.4531ZM129.219 107V84.125H134.844C137.844 84.125 140.057 84.6979 141.484 85.8438C142.922 86.9896 143.641 88.7604 143.641 91.1562C143.641 93.375 142.917 95.1146 141.469 96.375C140.031 97.6354 138.036 98.2656 135.484 98.2656H134.141V107H129.219ZM163.578 107H157.938L151.922 96.3125V107H147.031V84.125H154.031C156.812 84.125 158.896 84.6667 160.281 85.75C161.667 86.8229 162.359 88.4427 162.359 90.6094C162.359 92.1823 161.885 93.526 160.938 94.6406C159.99 95.7552 158.766 96.4062 157.266 96.5938L163.578 107ZM151.922 93.875H152.656C154.635 93.875 155.943 93.6615 156.578 93.2344C157.214 92.7969 157.531 92.0417 157.531 90.9688C157.531 89.8438 157.188 89.0469 156.5 88.5781C155.823 88.099 154.542 87.8594 152.656 87.8594H151.922V93.875ZM166.438 107V84.125H179.906V88.25H171.328V92.9531H179.906V97.1094H171.328V102.844H179.906V107H166.438ZM183.25 104.094L185.969 101.016C186.312 101.859 186.865 102.526 187.625 103.016C188.385 103.495 189.24 103.734 190.188 103.734C191.333 103.734 192.24 103.464 192.906 102.922C193.573 102.38 193.906 101.651 193.906 100.734C193.906 99.651 192.797 98.5729 190.578 97.5C189.859 97.1562 189.292 96.875 188.875 96.6562C186.875 95.6146 185.49 94.599 184.719 93.6094C183.948 92.6094 183.562 91.4219 183.562 90.0469C183.562 88.1615 184.307 86.6146 185.797 85.4062C187.297 84.1875 189.24 83.5781 191.625 83.5781C193.01 83.5781 194.203 83.8229 195.203 84.3125C196.214 84.7917 197.104 85.5469 197.875 86.5781L194.984 89.3438C194.641 88.6771 194.182 88.1823 193.609 87.8594C193.047 87.526 192.365 87.3594 191.562 87.3594C190.594 87.3594 189.812 87.6042 189.219 88.0938C188.625 88.5729 188.328 89.1979 188.328 89.9688C188.328 91.1771 189.505 92.2812 191.859 93.2812C192.328 93.4792 192.688 93.6354 192.938 93.75C194.875 94.6354 196.307 95.6354 197.234 96.75C198.172 97.8646 198.641 99.1354 198.641 100.562C198.641 102.708 197.906 104.422 196.438 105.703C194.979 106.974 193.016 107.609 190.547 107.609C188.797 107.609 187.297 107.307 186.047 106.703C184.797 106.099 183.865 105.229 183.25 104.094ZM214.5 98.2969L211.938 90.9062C211.865 90.6875 211.771 90.3125 211.656 89.7812C211.542 89.25 211.422 88.599 211.297 87.8281C211.161 88.5677 211.031 89.2344 210.906 89.8281C210.781 90.4115 210.688 90.8021 210.625 91L208.156 98.2969H214.5ZM199.938 107L208.641 84.125H214.234L223.062 107H217.5L215.641 102.141H206.781L205.188 107H199.938Z" fill="white"/>
<path d="M27 162H15C10.5817 162 7 158.418 7 154V105.019V23" stroke="white" stroke-width="1.5"/>
<circle cx="7" cy="17" r="6.25" stroke="white" stroke-width="1.5"/>
<rect x="25" y="135" width="418" height="57" rx="10" fill="#002A61"/>
<path d="M49.368 170H56.406V168.596H50.88V163.268H56.244V161.864H50.88V157.832H56.406V156.428H49.368V170ZM60.3872 155.15H58.9472V170H60.3872V155.15ZM70.0385 161.54H68.5985V170H70.0385V165.626C70.0385 164.348 70.2185 162.638 71.9105 162.638C73.2965 162.638 73.4225 164.15 73.4225 165.194V170H74.8625V165.518C74.8625 164.24 75.0425 162.638 76.6985 162.638C78.1745 162.638 78.2465 163.988 78.2465 165.086V170H79.6865V164.852C79.6865 163.07 79.1465 161.306 76.9865 161.306C75.9605 161.306 74.9525 161.774 74.4485 162.71C73.9985 161.828 73.0985 161.306 72.1085 161.306C71.2445 161.306 70.5245 161.756 70.0745 162.458H70.0385V161.54ZM85.9249 162.638C87.7069 162.638 88.7689 164.006 88.7689 165.698C88.7689 167.408 87.7969 168.902 85.9429 168.902C84.1429 168.902 83.1709 167.336 83.1709 165.68C83.1709 164.096 84.2509 162.638 85.9249 162.638ZM90.1369 161.54H88.6969V162.746H88.6609C87.9589 161.846 86.9149 161.306 85.7629 161.306C83.2249 161.306 81.6949 163.376 81.6949 165.788C81.6949 168.128 83.2609 170.234 85.7449 170.234C86.9329 170.234 87.9229 169.766 88.6609 168.83H88.6969V170H90.1369V161.54ZM94.2435 161.54H92.8035V170H94.2435V165.986C94.2435 164.474 94.3695 162.638 96.3495 162.638C98.0235 162.638 98.1315 163.862 98.1315 165.23V170H99.5715V164.978C99.5715 162.998 99.0315 161.306 96.6915 161.306C95.6475 161.306 94.8735 161.756 94.2795 162.566H94.2435V161.54ZM109.675 166.076C109.819 163.556 108.379 161.306 105.661 161.306C103.015 161.306 101.557 163.376 101.557 165.878C101.557 168.308 103.177 170.234 105.697 170.234C107.425 170.234 108.793 169.37 109.603 167.858L108.379 167.156C107.821 168.164 107.029 168.902 105.805 168.902C104.167 168.902 103.051 167.642 103.033 166.076H109.675ZM103.105 164.852C103.285 163.628 104.437 162.638 105.679 162.638C106.939 162.638 107.965 163.628 108.163 164.852H103.105ZM113.357 161.54H111.917V174.752H113.357V161.54ZM112.637 157.328C112.079 157.328 111.611 157.796 111.611 158.354C111.611 158.93 112.079 159.38 112.637 159.38C113.195 159.38 113.663 158.93 113.663 158.354C113.663 157.796 113.195 157.328 112.637 157.328ZM120.048 170.234C122.514 170.234 124.494 168.272 124.494 165.788C124.494 163.304 122.532 161.306 120.048 161.306C117.564 161.306 115.602 163.304 115.602 165.788C115.602 168.272 117.582 170.234 120.048 170.234ZM120.048 162.638C121.83 162.638 123.054 164.06 123.054 165.77C123.054 167.498 121.83 168.902 120.048 168.902C118.266 168.902 117.042 167.498 117.042 165.77C117.042 164.06 118.266 162.638 120.048 162.638ZM135.513 162.638C137.295 162.638 138.357 164.006 138.357 165.698C138.357 167.408 137.385 168.902 135.531 168.902C133.731 168.902 132.759 167.336 132.759 165.68C132.759 164.096 133.839 162.638 135.513 162.638ZM138.285 170H139.725V155.15H138.285V162.746H138.249C137.565 161.846 136.485 161.306 135.351 161.306C132.813 161.306 131.283 163.376 131.283 165.788C131.283 168.128 132.849 170.234 135.333 170.234C136.485 170.234 137.547 169.748 138.249 168.83H138.285V170ZM149.753 166.076C149.897 163.556 148.457 161.306 145.739 161.306C143.093 161.306 141.635 163.376 141.635 165.878C141.635 168.308 143.255 170.234 145.775 170.234C147.503 170.234 148.871 169.37 149.681 167.858L148.457 167.156C147.899 168.164 147.107 168.902 145.883 168.902C144.245 168.902 143.129 167.642 143.111 166.076H149.753ZM143.183 164.852C143.363 163.628 144.515 162.638 145.757 162.638C147.017 162.638 148.043 163.628 148.241 164.852H143.183ZM161.227 163.484V170H157.969V163.484H156.889V160.766H157.969V157.994H161.227V160.766H163.081V163.484H161.227ZM167.563 160.766V165.968C167.563 167.108 168.115 167.678 169.219 167.678C170.323 167.678 170.875 167.108 170.875 165.968V160.766H174.133V166.598C174.133 167.846 173.719 168.782 172.891 169.406C172.075 170.03 170.851 170.342 169.219 170.342C167.587 170.342 166.357 170.03 165.529 169.406C164.713 168.782 164.305 167.846 164.305 166.598V160.766H167.563ZM185.488 165.356C185.488 165.656 185.542 165.938 185.65 166.202C185.758 166.454 185.902 166.676 186.082 166.868C186.274 167.06 186.496 167.21 186.748 167.318C187.012 167.426 187.294 167.48 187.594 167.48C187.882 167.48 188.152 167.426 188.404 167.318C188.668 167.21 188.89 167.06 189.07 166.868C189.262 166.676 189.412 166.454 189.52 166.202C189.64 165.95 189.7 165.68 189.7 165.392C189.7 165.104 189.64 164.834 189.52 164.582C189.412 164.318 189.262 164.09 189.07 163.898C188.89 163.706 188.668 163.556 188.404 163.448C188.152 163.34 187.882 163.286 187.594 163.286C187.306 163.286 187.03 163.34 186.766 163.448C186.514 163.556 186.292 163.706 186.1 163.898C185.92 164.09 185.77 164.312 185.65 164.564C185.542 164.804 185.488 165.068 185.488 165.356ZM189.592 155.06H192.868V170H189.592V168.974C188.896 169.85 187.954 170.288 186.766 170.288C186.094 170.288 185.476 170.162 184.912 169.91C184.348 169.658 183.856 169.31 183.436 168.866C183.016 168.422 182.686 167.9 182.446 167.3C182.218 166.7 182.104 166.052 182.104 165.356C182.104 164.696 182.212 164.072 182.428 163.484C182.656 162.884 182.974 162.362 183.382 161.918C183.79 161.474 184.276 161.126 184.84 160.874C185.416 160.61 186.046 160.478 186.73 160.478C187.882 160.478 188.836 160.88 189.592 161.684V155.06ZM198.343 160.766V170H195.085V160.766H198.343ZM194.869 157.22C194.869 156.968 194.917 156.734 195.013 156.518C195.109 156.29 195.241 156.092 195.409 155.924C195.577 155.756 195.769 155.624 195.985 155.528C196.213 155.432 196.453 155.384 196.705 155.384C196.957 155.384 197.191 155.432 197.407 155.528C197.635 155.624 197.833 155.756 198.001 155.924C198.169 156.092 198.301 156.29 198.397 156.518C198.493 156.734 198.541 156.968 198.541 157.22C198.541 157.472 198.493 157.712 198.397 157.94C198.301 158.156 198.169 158.348 198.001 158.516C197.833 158.684 197.635 158.816 197.407 158.912C197.191 159.008 196.957 159.056 196.705 159.056C196.453 159.056 196.213 159.008 195.985 158.912C195.769 158.816 195.577 158.684 195.409 158.516C195.241 158.348 195.109 158.156 195.013 157.94C194.917 157.712 194.869 157.472 194.869 157.22ZM200.569 160.766H203.827V161.936C204.271 161.396 204.721 161.036 205.177 160.856C205.633 160.664 206.167 160.568 206.779 160.568C207.427 160.568 207.979 160.676 208.435 160.892C208.903 161.096 209.299 161.39 209.623 161.774C209.887 162.086 210.067 162.434 210.163 162.818C210.259 163.202 210.307 163.64 210.307 164.132V170H207.049V165.338C207.049 164.882 207.013 164.516 206.941 164.24C206.881 163.952 206.767 163.724 206.599 163.556C206.455 163.412 206.293 163.31 206.113 163.25C205.933 163.19 205.741 163.16 205.537 163.16C204.985 163.16 204.559 163.328 204.259 163.664C203.971 163.988 203.827 164.456 203.827 165.068V170H200.569V160.766ZM219.272 164.042C219.164 163.586 218.942 163.22 218.606 162.944C218.27 162.668 217.862 162.53 217.382 162.53C216.878 162.53 216.464 162.662 216.14 162.926C215.828 163.19 215.63 163.562 215.546 164.042H219.272ZM215.456 165.932C215.456 167.336 216.116 168.038 217.436 168.038C218.144 168.038 218.678 167.75 219.038 167.174H222.188C221.552 169.286 219.962 170.342 217.418 170.342C216.638 170.342 215.924 170.228 215.276 170C214.628 169.76 214.07 169.424 213.602 168.992C213.146 168.56 212.792 168.044 212.54 167.444C212.288 166.844 212.162 166.172 212.162 165.428C212.162 164.66 212.282 163.97 212.522 163.358C212.762 162.734 213.104 162.206 213.548 161.774C213.992 161.342 214.526 161.012 215.15 160.784C215.786 160.544 216.5 160.424 217.292 160.424C218.072 160.424 218.774 160.544 219.398 160.784C220.022 161.012 220.55 161.348 220.982 161.792C221.414 162.236 221.744 162.782 221.972 163.43C222.2 164.066 222.314 164.786 222.314 165.59V165.932H215.456ZM224.177 160.766H227.435V162.278C227.783 161.726 228.209 161.306 228.713 161.018C229.217 160.718 229.805 160.568 230.477 160.568C230.561 160.568 230.651 160.568 230.747 160.568C230.855 160.568 230.975 160.58 231.107 160.604V163.718C230.675 163.502 230.207 163.394 229.703 163.394C228.947 163.394 228.377 163.622 227.993 164.078C227.621 164.522 227.435 165.176 227.435 166.04V170H224.177V160.766ZM235.71 165.338C235.71 165.65 235.764 165.938 235.872 166.202C235.992 166.454 236.142 166.676 236.322 166.868C236.514 167.06 236.736 167.21 236.988 167.318C237.252 167.426 237.528 167.48 237.816 167.48C238.104 167.48 238.374 167.426 238.626 167.318C238.89 167.21 239.112 167.06 239.292 166.868C239.484 166.676 239.634 166.454 239.742 166.202C239.862 165.938 239.922 165.656 239.922 165.356C239.922 165.068 239.862 164.798 239.742 164.546C239.634 164.282 239.484 164.054 239.292 163.862C239.112 163.67 238.89 163.52 238.626 163.412C238.374 163.304 238.104 163.25 237.816 163.25C237.528 163.25 237.252 163.304 236.988 163.412C236.736 163.52 236.514 163.67 236.322 163.862C236.142 164.054 235.992 164.276 235.872 164.528C235.764 164.78 235.71 165.05 235.71 165.338ZM232.272 165.302C232.272 164.618 232.41 163.982 232.686 163.394C232.962 162.794 233.346 162.278 233.838 161.846C234.33 161.402 234.912 161.054 235.584 160.802C236.268 160.55 237.012 160.424 237.816 160.424C238.608 160.424 239.34 160.55 240.012 160.802C240.696 161.042 241.284 161.384 241.776 161.828C242.28 162.26 242.67 162.782 242.946 163.394C243.222 163.994 243.36 164.66 243.36 165.392C243.36 166.124 243.216 166.796 242.928 167.408C242.652 168.008 242.268 168.53 241.776 168.974C241.284 169.406 240.69 169.742 239.994 169.982C239.31 170.222 238.566 170.342 237.762 170.342C236.97 170.342 236.238 170.222 235.566 169.982C234.894 169.742 234.312 169.4 233.82 168.956C233.34 168.512 232.962 167.984 232.686 167.372C232.41 166.748 232.272 166.058 232.272 165.302ZM258.386 166.076C258.53 163.556 257.09 161.306 254.372 161.306C251.726 161.306 250.268 163.376 250.268 165.878C250.268 168.308 251.888 170.234 254.408 170.234C256.136 170.234 257.504 169.37 258.314 167.858L257.09 167.156C256.532 168.164 255.74 168.902 254.516 168.902C252.878 168.902 251.762 167.642 251.744 166.076H258.386ZM251.816 164.852C251.996 163.628 253.148 162.638 254.39 162.638C255.65 162.638 256.676 163.628 256.874 164.852H251.816ZM264.984 162.872C264.606 161.99 263.706 161.306 262.734 161.306C261.366 161.306 260.214 162.278 260.214 163.7C260.214 166.364 264.03 165.716 264.03 167.606C264.03 168.38 263.436 168.902 262.662 168.902C261.708 168.902 261.294 168.344 260.934 167.552L259.656 168.092C260.106 169.424 261.222 170.234 262.644 170.234C264.21 170.234 265.506 169.082 265.506 167.48C265.506 166.058 264.534 165.464 263.544 165.05C262.554 164.636 261.582 164.348 261.582 163.574C261.582 163.034 262.122 162.638 262.626 162.638C263.148 162.638 263.58 163.052 263.778 163.502L264.984 162.872ZM269.06 162.872H270.572V161.54H269.06V158.498H267.62V161.54H266.738V162.872H267.62V170H269.06V162.872ZM275.382 162.638C277.164 162.638 278.226 164.006 278.226 165.698C278.226 167.408 277.254 168.902 275.4 168.902C273.6 168.902 272.628 167.336 272.628 165.68C272.628 164.096 273.708 162.638 275.382 162.638ZM279.594 161.54H278.154V162.746H278.118C277.416 161.846 276.372 161.306 275.22 161.306C272.682 161.306 271.152 163.376 271.152 165.788C271.152 168.128 272.718 170.234 275.202 170.234C276.39 170.234 277.38 169.766 278.118 168.83H278.154V170H279.594V161.54ZM276.75 156.608L274.608 159.56L275.508 160.064L278.262 157.292L276.75 156.608ZM295.16 166.076C295.304 163.556 293.864 161.306 291.146 161.306C288.5 161.306 287.042 163.376 287.042 165.878C287.042 168.308 288.662 170.234 291.182 170.234C292.91 170.234 294.278 169.37 295.088 167.858L293.864 167.156C293.306 168.164 292.514 168.902 291.29 168.902C289.652 168.902 288.536 167.642 288.518 166.076H295.16ZM288.59 164.852C288.77 163.628 289.922 162.638 291.164 162.638C292.424 162.638 293.45 163.628 293.648 164.852H288.59ZM298.572 161.54H297.132V170H298.572V165.986C298.572 164.474 298.698 162.638 300.678 162.638C302.352 162.638 302.46 163.862 302.46 165.23V170H303.9V164.978C303.9 162.998 303.36 161.306 301.02 161.306C299.976 161.306 299.202 161.756 298.608 162.566H298.572V161.54ZM316.229 162.638C318.011 162.638 319.073 164.006 319.073 165.698C319.073 167.408 318.101 168.902 316.247 168.902C314.447 168.902 313.475 167.336 313.475 165.68C313.475 164.096 314.555 162.638 316.229 162.638ZM312.107 170H313.547V168.83H313.583C314.267 169.748 315.329 170.234 316.499 170.234C318.983 170.234 320.549 168.128 320.549 165.77C320.549 163.376 319.001 161.306 316.481 161.306C315.329 161.306 314.267 161.846 313.583 162.746H313.547V155.15H312.107V170ZM323.899 161.54H322.459V166.418C322.459 168.668 323.305 170.234 325.807 170.234C328.309 170.234 329.155 168.668 329.155 166.418V161.54H327.715V166.256C327.715 167.678 327.553 168.902 325.807 168.902C324.061 168.902 323.899 167.678 323.899 166.256V161.54ZM339.14 166.076C339.284 163.556 337.844 161.306 335.126 161.306C332.48 161.306 331.022 163.376 331.022 165.878C331.022 168.308 332.642 170.234 335.162 170.234C336.89 170.234 338.258 169.37 339.068 167.858L337.844 167.156C337.286 168.164 336.494 168.902 335.27 168.902C333.632 168.902 332.516 167.642 332.498 166.076H339.14ZM332.57 164.852C332.75 163.628 333.902 162.638 335.144 162.638C336.404 162.638 337.43 163.628 337.628 164.852H332.57ZM342.552 161.54H341.112V170H342.552V165.986C342.552 164.474 342.678 162.638 344.658 162.638C346.332 162.638 346.44 163.862 346.44 165.23V170H347.88V164.978C347.88 162.998 347.34 161.306 345 161.306C343.956 161.306 343.182 161.756 342.588 162.566H342.552V161.54ZM354.132 162.638C355.914 162.638 356.976 164.006 356.976 165.698C356.976 167.408 356.004 168.902 354.15 168.902C352.35 168.902 351.378 167.336 351.378 165.68C351.378 164.096 352.458 162.638 354.132 162.638ZM358.344 161.54H356.904V162.746H356.868C356.166 161.846 355.122 161.306 353.97 161.306C351.432 161.306 349.902 163.376 349.902 165.788C349.902 168.128 351.468 170.234 353.952 170.234C355.14 170.234 356.13 169.766 356.868 168.83H356.904V170H358.344V161.54ZM365.637 162.872C365.259 161.99 364.359 161.306 363.387 161.306C362.019 161.306 360.867 162.278 360.867 163.7C360.867 166.364 364.683 165.716 364.683 167.606C364.683 168.38 364.089 168.902 363.315 168.902C362.361 168.902 361.947 168.344 361.587 167.552L360.309 168.092C360.759 169.424 361.875 170.234 363.297 170.234C364.863 170.234 366.159 169.082 366.159 167.48C366.159 166.058 365.187 165.464 364.197 165.05C363.207 164.636 362.235 164.348 362.235 163.574C362.235 163.034 362.775 162.638 363.279 162.638C363.801 162.638 364.233 163.052 364.431 163.502L365.637 162.872ZM375.177 161.54H373.737V170H375.177V165.626C375.177 164.348 375.357 162.638 377.049 162.638C378.435 162.638 378.561 164.15 378.561 165.194V170H380.001V165.518C380.001 164.24 380.181 162.638 381.837 162.638C383.313 162.638 383.385 163.988 383.385 165.086V170H384.825V164.852C384.825 163.07 384.285 161.306 382.125 161.306C381.099 161.306 380.091 161.774 379.587 162.71C379.137 161.828 378.237 161.306 377.247 161.306C376.383 161.306 375.663 161.756 375.213 162.458H375.177V161.54ZM391.064 162.638C392.846 162.638 393.908 164.006 393.908 165.698C393.908 167.408 392.936 168.902 391.082 168.902C389.282 168.902 388.31 167.336 388.31 165.68C388.31 164.096 389.39 162.638 391.064 162.638ZM395.276 161.54H393.836V162.746H393.8C393.098 161.846 392.054 161.306 390.902 161.306C388.364 161.306 386.834 163.376 386.834 165.788C386.834 168.128 388.4 170.234 390.884 170.234C392.072 170.234 393.062 169.766 393.8 168.83H393.836V170H395.276V161.54ZM399.382 161.54H397.942V170H399.382V165.986C399.382 164.474 399.508 162.638 401.488 162.638C403.162 162.638 403.27 163.862 403.27 165.23V170H404.71V164.978C404.71 162.998 404.17 161.306 401.83 161.306C400.786 161.306 400.012 161.756 399.418 162.566H399.382V161.54ZM411.142 170.234C413.608 170.234 415.588 168.272 415.588 165.788C415.588 163.304 413.626 161.306 411.142 161.306C408.658 161.306 406.696 163.304 406.696 165.788C406.696 168.272 408.676 170.234 411.142 170.234ZM411.142 162.638C412.924 162.638 414.148 164.06 414.148 165.77C414.148 167.498 412.924 168.902 411.142 168.902C409.36 168.902 408.136 167.498 408.136 165.77C408.136 164.06 409.36 162.638 411.142 162.638ZM422.185 162.872C421.807 161.99 420.907 161.306 419.935 161.306C418.567 161.306 417.415 162.278 417.415 163.7C417.415 166.364 421.231 165.716 421.231 167.606C421.231 168.38 420.637 168.902 419.863 168.902C418.909 168.902 418.495 168.344 418.135 167.552L416.857 168.092C417.307 169.424 418.423 170.234 419.845 170.234C421.411 170.234 422.707 169.082 422.707 167.48C422.707 166.058 421.735 165.464 420.745 165.05C419.755 164.636 418.783 164.348 418.783 163.574C418.783 163.034 419.323 162.638 419.827 162.638C420.349 162.638 420.781 163.052 420.979 163.502L422.185 162.872Z" fill="white"/>
</svg>
