<svg width="535" height="201" viewBox="0 0 535 201" fill="none" xmlns="http://www.w3.org/2000/svg">
<path d="M30.5625 31V8.125H44.0312V12.25H35.4531V16.9531H44.0312V21.1094H35.4531V31H30.5625ZM47.9062 31V8.125H52.7969V31H47.9062ZM58.0312 31V8.125H63.1094L73.2344 21.4375C73.526 21.8125 73.8438 22.3438 74.1875 23.0312C74.5417 23.7083 74.9062 24.5104 75.2812 25.4375C75.1667 24.7604 75.0833 24.0885 75.0312 23.4219C74.9792 22.7552 74.9531 21.9219 74.9531 20.9219V8.125H79.625V31H74.8281L64.4219 17.4375C64.1302 17.0625 63.8125 16.5365 63.4688 15.8594C63.125 15.1719 62.7604 14.3542 62.375 13.4062C62.4896 14.0625 62.5729 14.7292 62.625 15.4062C62.6771 16.0729 62.7031 16.9167 62.7031 17.9375V31H58.0312ZM96.5625 22.2969L94 14.9062C93.9271 14.6875 93.8333 14.3125 93.7188 13.7812C93.6042 13.25 93.4844 12.599 93.3594 11.8281C93.224 12.5677 93.0938 13.2344 92.9688 13.8281C92.8438 14.4115 92.75 14.8021 92.6875 15L90.2188 22.2969H96.5625ZM82 31L90.7031 8.125H96.2969L105.125 31H99.5625L97.7031 26.1406H88.8438L87.25 31H82ZM107.531 31V8.125H112.609L122.734 21.4375C123.026 21.8125 123.344 22.3438 123.688 23.0312C124.042 23.7083 124.406 24.5104 124.781 25.4375C124.667 24.7604 124.583 24.0885 124.531 23.4219C124.479 22.7552 124.453 21.9219 124.453 20.9219V8.125H129.125V31H124.328L113.922 17.4375C113.63 17.0625 113.312 16.5365 112.969 15.8594C112.625 15.1719 112.26 14.3542 111.875 13.4062C111.99 14.0625 112.073 14.7292 112.125 15.4062C112.177 16.0729 112.203 16.9167 112.203 17.9375V31H107.531ZM152.641 14.0781C151.651 13.1927 150.635 12.5469 149.594 12.1406C148.552 11.724 147.438 11.5156 146.25 11.5156C143.812 11.5156 141.87 12.2448 140.422 13.7031C138.974 15.1615 138.25 17.1198 138.25 19.5781C138.25 21.9844 138.922 23.8958 140.266 25.3125C141.609 26.7188 143.443 27.4219 145.766 27.4219C147.089 27.4219 148.318 27.2031 149.453 26.7656C150.589 26.3177 151.641 25.651 152.609 24.7656L152.578 29.7812C151.536 30.3958 150.443 30.8542 149.297 31.1562C148.161 31.4583 146.964 31.6094 145.703 31.6094C142.057 31.6094 139.062 30.4792 136.719 28.2188C134.385 25.9479 133.219 23.0677 133.219 19.5781C133.219 16.099 134.391 13.2292 136.734 10.9688C139.078 8.70833 142.099 7.57812 145.797 7.57812C147.036 7.57812 148.234 7.70833 149.391 7.96875C150.547 8.22917 151.688 8.63021 152.812 9.17188L152.641 14.0781ZM157.281 31V8.125H162.172V31H157.281ZM179.25 22.2969L176.688 14.9062C176.615 14.6875 176.521 14.3125 176.406 13.7812C176.292 13.25 176.172 12.599 176.047 11.8281C175.911 12.5677 175.781 13.2344 175.656 13.8281C175.531 14.4115 175.438 14.8021 175.375 15L172.906 22.2969H179.25ZM164.688 31L173.391 8.125H178.984L187.812 31H182.25L180.391 26.1406H171.531L169.938 31H164.688ZM188.234 31L191.719 8.125H196.844L201.25 21.5938C201.344 21.875 201.443 22.2865 201.547 22.8281C201.661 23.3698 201.766 23.9896 201.859 24.6875C201.943 23.9792 202.036 23.349 202.141 22.7969C202.245 22.2344 202.344 21.8229 202.438 21.5625L206.922 8.125H211.969L215.469 31H210.828L209.156 17.2031C209.031 16.1823 208.948 15.4115 208.906 14.8906C208.865 14.3698 208.844 13.8854 208.844 13.4375C208.844 13.1979 208.844 13.0208 208.844 12.9062C208.854 12.7812 208.865 12.6719 208.875 12.5781C208.719 13.474 208.568 14.25 208.422 14.9062C208.286 15.5521 208.161 16.0417 208.047 16.375L203.203 31H200.453L195.688 16.375C195.646 16.2396 195.552 15.8646 195.406 15.25C195.271 14.6354 195.078 13.7396 194.828 12.5625V13.2344C194.828 14.2969 194.734 15.599 194.547 17.1406L194.531 17.2031L192.875 31H188.234ZM218.75 31V8.125H223.641V31H218.75ZM228.875 31V8.125H242.344V12.25H233.766V16.9531H242.344V21.1094H233.766V26.8438H242.344V31H228.875ZM247.156 31V8.125H252.234L262.359 21.4375C262.651 21.8125 262.969 22.3438 263.312 23.0312C263.667 23.7083 264.031 24.5104 264.406 25.4375C264.292 24.7604 264.208 24.0885 264.156 23.4219C264.104 22.7552 264.078 21.9219 264.078 20.9219V8.125H268.75V31H263.953L253.547 17.4375C253.255 17.0625 252.938 16.5365 252.594 15.8594C252.25 15.1719 251.885 14.3542 251.5 13.4062C251.615 14.0625 251.698 14.7292 251.75 15.4062C251.802 16.0729 251.828 16.9167 251.828 17.9375V31H247.156ZM282.391 12.2812V31H277.484V12.2812H271.891V8.125H288.016V12.2812H282.391ZM314.047 19.6094C314.047 21.2448 313.74 22.7917 313.125 24.25C312.521 25.7083 311.646 26.9896 310.5 28.0938C309.312 29.2292 307.974 30.099 306.484 30.7031C304.995 31.3073 303.453 31.6094 301.859 31.6094C300.464 31.6094 299.094 31.375 297.75 30.9062C296.417 30.4271 295.193 29.7448 294.078 28.8594C292.641 27.7135 291.536 26.3438 290.766 24.75C290.005 23.1562 289.625 21.4427 289.625 19.6094C289.625 17.9635 289.927 16.4219 290.531 14.9844C291.135 13.5365 292.021 12.25 293.188 11.125C294.333 10.0104 295.661 9.14583 297.172 8.53125C298.693 7.91667 300.255 7.60938 301.859 7.60938C303.453 7.60938 305 7.91667 306.5 8.53125C308.01 9.14583 309.344 10.0104 310.5 11.125C311.656 12.25 312.536 13.5365 313.141 14.9844C313.745 16.4323 314.047 17.974 314.047 19.6094ZM301.859 27.25C303.932 27.25 305.641 26.526 306.984 25.0781C308.339 23.6198 309.016 21.7969 309.016 19.6094C309.016 17.4427 308.333 15.6198 306.969 14.1406C305.604 12.6615 303.901 11.9219 301.859 11.9219C299.786 11.9219 298.068 12.6615 296.703 14.1406C295.339 15.6094 294.656 17.4323 294.656 19.6094C294.656 21.8177 295.328 23.6458 296.672 25.0938C298.016 26.5312 299.745 27.25 301.859 27.25ZM332.922 26.875H335.641C338.203 26.875 340.068 26.2917 341.234 25.125C342.411 23.9583 343 22.1094 343 19.5781C343 17.0573 342.411 15.2135 341.234 14.0469C340.068 12.8698 338.203 12.2812 335.641 12.2812H332.922V26.875ZM328.031 31V8.125H334.266C336.724 8.125 338.661 8.29688 340.078 8.64062C341.495 8.98438 342.74 9.55729 343.812 10.3594C345.198 11.3906 346.245 12.6927 346.953 14.2656C347.672 15.8281 348.031 17.6094 348.031 19.6094C348.031 21.6406 347.667 23.4427 346.938 25.0156C346.208 26.5781 345.141 27.8698 343.734 28.8906C342.693 29.6406 341.531 30.1823 340.25 30.5156C338.979 30.8385 337.115 31 334.656 31H332.922H328.031ZM352.125 31V8.125H365.594V12.25H357.016V16.9531H365.594V21.1094H357.016V26.8438H365.594V31H352.125ZM392.094 22.2969L389.531 14.9062C389.458 14.6875 389.365 14.3125 389.25 13.7812C389.135 13.25 389.016 12.599 388.891 11.8281C388.755 12.5677 388.625 13.2344 388.5 13.8281C388.375 14.4115 388.281 14.8021 388.219 15L385.75 22.2969H392.094ZM377.531 31L386.234 8.125H391.828L400.656 31H395.094L393.234 26.1406H384.375L382.781 31H377.531ZM420.922 14.0781C419.932 13.1927 418.917 12.5469 417.875 12.1406C416.833 11.724 415.719 11.5156 414.531 11.5156C412.094 11.5156 410.151 12.2448 408.703 13.7031C407.255 15.1615 406.531 17.1198 406.531 19.5781C406.531 21.9844 407.203 23.8958 408.547 25.3125C409.891 26.7188 411.724 27.4219 414.047 27.4219C415.37 27.4219 416.599 27.2031 417.734 26.7656C418.87 26.3177 419.922 25.651 420.891 24.7656L420.859 29.7812C419.818 30.3958 418.724 30.8542 417.578 31.1562C416.443 31.4583 415.245 31.6094 413.984 31.6094C410.339 31.6094 407.344 30.4792 405 28.2188C402.667 25.9479 401.5 23.0677 401.5 19.5781C401.5 16.099 402.672 13.2292 405.016 10.9688C407.359 8.70833 410.38 7.57812 414.078 7.57812C415.318 7.57812 416.516 7.70833 417.672 7.96875C418.828 8.22917 419.969 8.63021 421.094 9.17188L420.922 14.0781ZM434.016 12.2812V31H429.109V12.2812H423.516V8.125H439.641V12.2812H434.016ZM442.906 31V8.125H447.797V31H442.906ZM458.828 31L450.375 8.125H455.781L460.234 22.3906C460.318 22.6823 460.448 23.224 460.625 24.0156C460.802 24.8073 460.99 25.7083 461.188 26.7188C461.323 25.7396 461.469 24.8698 461.625 24.1094C461.792 23.349 461.953 22.724 462.109 22.2344L466.625 8.125H471.969L463.453 31H458.828ZM497.297 19.6094C497.297 21.2448 496.99 22.7917 496.375 24.25C495.771 25.7083 494.896 26.9896 493.75 28.0938C492.562 29.2292 491.224 30.099 489.734 30.7031C488.245 31.3073 486.703 31.6094 485.109 31.6094C483.714 31.6094 482.344 31.375 481 30.9062C479.667 30.4271 478.443 29.7448 477.328 28.8594C475.891 27.7135 474.786 26.3438 474.016 24.75C473.255 23.1562 472.875 21.4427 472.875 19.6094C472.875 17.9635 473.177 16.4219 473.781 14.9844C474.385 13.5365 475.271 12.25 476.438 11.125C477.583 10.0104 478.911 9.14583 480.422 8.53125C481.943 7.91667 483.505 7.60938 485.109 7.60938C486.703 7.60938 488.25 7.91667 489.75 8.53125C491.26 9.14583 492.594 10.0104 493.75 11.125C494.906 12.25 495.786 13.5365 496.391 14.9844C496.995 16.4323 497.297 17.974 497.297 19.6094ZM485.109 27.25C487.182 27.25 488.891 26.526 490.234 25.0781C491.589 23.6198 492.266 21.7969 492.266 19.6094C492.266 17.4427 491.583 15.6198 490.219 14.1406C488.854 12.6615 487.151 11.9219 485.109 11.9219C483.036 11.9219 481.318 12.6615 479.953 14.1406C478.589 15.6094 477.906 17.4323 477.906 19.6094C477.906 21.8177 478.578 23.6458 479.922 25.0938C481.266 26.5312 482.995 27.25 485.109 27.25ZM499.969 28.0938L502.688 25.0156C503.031 25.8594 503.583 26.526 504.344 27.0156C505.104 27.4948 505.958 27.7344 506.906 27.7344C508.052 27.7344 508.958 27.4635 509.625 26.9219C510.292 26.3802 510.625 25.651 510.625 24.7344C510.625 23.651 509.516 22.5729 507.297 21.5C506.578 21.1562 506.01 20.875 505.594 20.6562C503.594 19.6146 502.208 18.599 501.438 17.6094C500.667 16.6094 500.281 15.4219 500.281 14.0469C500.281 12.1615 501.026 10.6146 502.516 9.40625C504.016 8.1875 505.958 7.57812 508.344 7.57812C509.729 7.57812 510.922 7.82292 511.922 8.3125C512.932 8.79167 513.823 9.54688 514.594 10.5781L511.703 13.3438C511.359 12.6771 510.901 12.1823 510.328 11.8594C509.766 11.526 509.083 11.3594 508.281 11.3594C507.312 11.3594 506.531 11.6042 505.938 12.0938C505.344 12.5729 505.047 13.1979 505.047 13.9688C505.047 15.1771 506.224 16.2812 508.578 17.2812C509.047 17.4792 509.406 17.6354 509.656 17.75C511.594 18.6354 513.026 19.6354 513.953 20.75C514.891 21.8646 515.359 23.1354 515.359 24.5625C515.359 26.7083 514.625 28.4219 513.156 29.7031C511.698 30.974 509.734 31.6094 507.266 31.6094C505.516 31.6094 504.016 31.3073 502.766 30.7031C501.516 30.099 500.583 29.2292 499.969 28.0938ZM30.5625 69V46.125H44.0312V50.25H35.4531V54.9531H44.0312V59.1094H35.4531V69H30.5625ZM47.9062 69V46.125H52.7969V69H47.9062ZM67.3125 46.125V61.1875C67.3125 62.9062 67.2448 64.1667 67.1094 64.9688C66.974 65.7708 66.75 66.4531 66.4375 67.0156C65.9792 67.8698 65.3021 68.5156 64.4062 68.9531C63.5208 69.3906 62.4427 69.6094 61.1719 69.6094C59.5677 69.6094 58.2812 69.2083 57.3125 68.4062C56.3542 67.6042 55.7396 66.4271 55.4688 64.875L59.0156 63.1875C59.099 63.9062 59.2812 64.4479 59.5625 64.8125C59.8542 65.1771 60.25 65.3594 60.75 65.3594C61.375 65.3594 61.8073 65.1354 62.0469 64.6875C62.2865 64.2292 62.4062 63.2135 62.4062 61.6406V59.5938V46.125H67.3125ZM95.6719 57.6094C95.6719 59.2448 95.3646 60.7917 94.75 62.25C94.1458 63.7083 93.2708 64.9896 92.125 66.0938C90.9375 67.2292 89.599 68.099 88.1094 68.7031C86.6198 69.3073 85.0781 69.6094 83.4844 69.6094C82.0885 69.6094 80.7188 69.375 79.375 68.9062C78.0417 68.4271 76.8177 67.7448 75.7031 66.8594C74.2656 65.7135 73.1615 64.3438 72.3906 62.75C71.6302 61.1562 71.25 59.4427 71.25 57.6094C71.25 55.9635 71.5521 54.4219 72.1562 52.9844C72.7604 51.5365 73.6458 50.25 74.8125 49.125C75.9583 48.0104 77.2865 47.1458 78.7969 46.5312C80.3177 45.9167 81.8802 45.6094 83.4844 45.6094C85.0781 45.6094 86.625 45.9167 88.125 46.5312C89.6354 47.1458 90.9688 48.0104 92.125 49.125C93.2812 50.25 94.1615 51.5365 94.7656 52.9844C95.3698 54.4323 95.6719 55.974 95.6719 57.6094ZM83.4844 65.25C85.5573 65.25 87.2656 64.526 88.6094 63.0781C89.9635 61.6198 90.6406 59.7969 90.6406 57.6094C90.6406 55.4427 89.9583 53.6198 88.5938 52.1406C87.2292 50.6615 85.526 49.9219 83.4844 49.9219C81.4115 49.9219 79.6927 50.6615 78.3281 52.1406C76.9635 53.6094 76.2812 55.4323 76.2812 57.6094C76.2812 59.8177 76.9531 61.6458 78.2969 63.0938C79.6406 64.5312 81.3698 65.25 83.4844 65.25ZM98.3438 66.0938L101.062 63.0156C101.406 63.8594 101.958 64.526 102.719 65.0156C103.479 65.4948 104.333 65.7344 105.281 65.7344C106.427 65.7344 107.333 65.4635 108 64.9219C108.667 64.3802 109 63.651 109 62.7344C109 61.651 107.891 60.5729 105.672 59.5C104.953 59.1562 104.385 58.875 103.969 58.6562C101.969 57.6146 100.583 56.599 99.8125 55.6094C99.0417 54.6094 98.6562 53.4219 98.6562 52.0469C98.6562 50.1615 99.401 48.6146 100.891 47.4062C102.391 46.1875 104.333 45.5781 106.719 45.5781C108.104 45.5781 109.297 45.8229 110.297 46.3125C111.307 46.7917 112.198 47.5469 112.969 48.5781L110.078 51.3438C109.734 50.6771 109.276 50.1823 108.703 49.8594C108.141 49.526 107.458 49.3594 106.656 49.3594C105.688 49.3594 104.906 49.6042 104.312 50.0938C103.719 50.5729 103.422 51.1979 103.422 51.9688C103.422 53.1771 104.599 54.2812 106.953 55.2812C107.422 55.4792 107.781 55.6354 108.031 55.75C109.969 56.6354 111.401 57.6354 112.328 58.75C113.266 59.8646 113.734 61.1354 113.734 62.5625C113.734 64.7083 113 66.4219 111.531 67.7031C110.073 68.974 108.109 69.6094 105.641 69.6094C103.891 69.6094 102.391 69.3073 101.141 68.7031C99.8906 68.099 98.9583 67.2292 98.3438 66.0938ZM132.516 56.4531H133.219C134.552 56.4531 135.521 56.1771 136.125 55.625C136.729 55.0729 137.031 54.1875 137.031 52.9688C137.031 51.8438 136.729 51.026 136.125 50.5156C135.521 49.9948 134.552 49.7344 133.219 49.7344H132.516V56.4531ZM127.594 69V46.125H133.219C136.219 46.125 138.432 46.6979 139.859 47.8438C141.297 48.9896 142.016 50.7604 142.016 53.1562C142.016 55.375 141.292 57.1146 139.844 58.375C138.406 59.6354 136.411 60.2656 133.859 60.2656H132.516V69H127.594ZM145.406 69V46.125H158.875V50.25H150.297V54.9531H158.875V59.1094H150.297V64.8438H158.875V69H145.406ZM163.688 69V46.125H168.766L178.891 59.4375C179.182 59.8125 179.5 60.3438 179.844 61.0312C180.198 61.7083 180.562 62.5104 180.938 63.4375C180.823 62.7604 180.74 62.0885 180.688 61.4219C180.635 60.7552 180.609 59.9219 180.609 58.9219V46.125H185.281V69H180.484L170.078 55.4375C169.786 55.0625 169.469 54.5365 169.125 53.8594C168.781 53.1719 168.417 52.3542 168.031 51.4062C168.146 52.0625 168.229 52.7292 168.281 53.4062C168.333 54.0729 168.359 54.9167 168.359 55.9375V69H163.688ZM188.906 66.0938L191.625 63.0156C191.969 63.8594 192.521 64.526 193.281 65.0156C194.042 65.4948 194.896 65.7344 195.844 65.7344C196.99 65.7344 197.896 65.4635 198.562 64.9219C199.229 64.3802 199.562 63.651 199.562 62.7344C199.562 61.651 198.453 60.5729 196.234 59.5C195.516 59.1562 194.948 58.875 194.531 58.6562C192.531 57.6146 191.146 56.599 190.375 55.6094C189.604 54.6094 189.219 53.4219 189.219 52.0469C189.219 50.1615 189.964 48.6146 191.453 47.4062C192.953 46.1875 194.896 45.5781 197.281 45.5781C198.667 45.5781 199.859 45.8229 200.859 46.3125C201.87 46.7917 202.76 47.5469 203.531 48.5781L200.641 51.3438C200.297 50.6771 199.839 50.1823 199.266 49.8594C198.703 49.526 198.021 49.3594 197.219 49.3594C196.25 49.3594 195.469 49.6042 194.875 50.0938C194.281 50.5729 193.984 51.1979 193.984 51.9688C193.984 53.1771 195.161 54.2812 197.516 55.2812C197.984 55.4792 198.344 55.6354 198.594 55.75C200.531 56.6354 201.964 57.6354 202.891 58.75C203.828 59.8646 204.297 61.1354 204.297 62.5625C204.297 64.7083 203.562 66.4219 202.094 67.7031C200.635 68.974 198.672 69.6094 196.203 69.6094C194.453 69.6094 192.953 69.3073 191.703 68.7031C190.453 68.099 189.521 67.2292 188.906 66.0938ZM220.156 60.2969L217.594 52.9062C217.521 52.6875 217.427 52.3125 217.312 51.7812C217.198 51.25 217.078 50.599 216.953 49.8281C216.818 50.5677 216.688 51.2344 216.562 51.8281C216.438 52.4115 216.344 52.8021 216.281 53L213.812 60.2969H220.156ZM205.594 69L214.297 46.125H219.891L228.719 69H223.156L221.297 64.1406H212.438L210.844 69H205.594ZM236.016 64.875H238.734C241.297 64.875 243.161 64.2917 244.328 63.125C245.505 61.9583 246.094 60.1094 246.094 57.5781C246.094 55.0573 245.505 53.2135 244.328 52.0469C243.161 50.8698 241.297 50.2812 238.734 50.2812H236.016V64.875ZM231.125 69V46.125H237.359C239.818 46.125 241.755 46.2969 243.172 46.6406C244.589 46.9844 245.833 47.5573 246.906 48.3594C248.292 49.3906 249.339 50.6927 250.047 52.2656C250.766 53.8281 251.125 55.6094 251.125 57.6094C251.125 59.6406 250.76 61.4427 250.031 63.0156C249.302 64.5781 248.234 65.8698 246.828 66.8906C245.786 67.6406 244.625 68.1823 243.344 68.5156C242.073 68.8385 240.208 69 237.75 69H236.016H231.125ZM278.641 57.6094C278.641 59.2448 278.333 60.7917 277.719 62.25C277.115 63.7083 276.24 64.9896 275.094 66.0938C273.906 67.2292 272.568 68.099 271.078 68.7031C269.589 69.3073 268.047 69.6094 266.453 69.6094C265.057 69.6094 263.688 69.375 262.344 68.9062C261.01 68.4271 259.786 67.7448 258.672 66.8594C257.234 65.7135 256.13 64.3438 255.359 62.75C254.599 61.1562 254.219 59.4427 254.219 57.6094C254.219 55.9635 254.521 54.4219 255.125 52.9844C255.729 51.5365 256.615 50.25 257.781 49.125C258.927 48.0104 260.255 47.1458 261.766 46.5312C263.286 45.9167 264.849 45.6094 266.453 45.6094C268.047 45.6094 269.594 45.9167 271.094 46.5312C272.604 47.1458 273.938 48.0104 275.094 49.125C276.25 50.25 277.13 51.5365 277.734 52.9844C278.339 54.4323 278.641 55.974 278.641 57.6094ZM266.453 65.25C268.526 65.25 270.234 64.526 271.578 63.0781C272.932 61.6198 273.609 59.7969 273.609 57.6094C273.609 55.4427 272.927 53.6198 271.562 52.1406C270.198 50.6615 268.495 49.9219 266.453 49.9219C264.38 49.9219 262.661 50.6615 261.297 52.1406C259.932 53.6094 259.25 55.4323 259.25 57.6094C259.25 59.8177 259.922 61.6458 261.266 63.0938C262.609 64.5312 264.339 65.25 266.453 65.25ZM281.312 66.0938L284.031 63.0156C284.375 63.8594 284.927 64.526 285.688 65.0156C286.448 65.4948 287.302 65.7344 288.25 65.7344C289.396 65.7344 290.302 65.4635 290.969 64.9219C291.635 64.3802 291.969 63.651 291.969 62.7344C291.969 61.651 290.859 60.5729 288.641 59.5C287.922 59.1562 287.354 58.875 286.938 58.6562C284.938 57.6146 283.552 56.599 282.781 55.6094C282.01 54.6094 281.625 53.4219 281.625 52.0469C281.625 50.1615 282.37 48.6146 283.859 47.4062C285.359 46.1875 287.302 45.5781 289.688 45.5781C291.073 45.5781 292.266 45.8229 293.266 46.3125C294.276 46.7917 295.167 47.5469 295.938 48.5781L293.047 51.3438C292.703 50.6771 292.245 50.1823 291.672 49.8594C291.109 49.526 290.427 49.3594 289.625 49.3594C288.656 49.3594 287.875 49.6042 287.281 50.0938C286.688 50.5729 286.391 51.1979 286.391 51.9688C286.391 53.1771 287.568 54.2812 289.922 55.2812C290.391 55.4792 290.75 55.6354 291 55.75C292.938 56.6354 294.37 57.6354 295.297 58.75C296.234 59.8646 296.703 61.1354 296.703 62.5625C296.703 64.7083 295.969 66.4219 294.5 67.7031C293.042 68.974 291.078 69.6094 288.609 69.6094C286.859 69.6094 285.359 69.3073 284.109 68.7031C282.859 68.099 281.927 67.2292 281.312 66.0938ZM315.484 56.4531H316.188C317.521 56.4531 318.49 56.1771 319.094 55.625C319.698 55.0729 320 54.1875 320 52.9688C320 51.8438 319.698 51.026 319.094 50.5156C318.49 49.9948 317.521 49.7344 316.188 49.7344H315.484V56.4531ZM310.562 69V46.125H316.188C319.188 46.125 321.401 46.6979 322.828 47.8438C324.266 48.9896 324.984 50.7604 324.984 53.1562C324.984 55.375 324.26 57.1146 322.812 58.375C321.375 59.6354 319.38 60.2656 316.828 60.2656H315.484V69H310.562ZM338.625 60.2969L336.062 52.9062C335.99 52.6875 335.896 52.3125 335.781 51.7812C335.667 51.25 335.547 50.599 335.422 49.8281C335.286 50.5677 335.156 51.2344 335.031 51.8281C334.906 52.4115 334.812 52.8021 334.75 53L332.281 60.2969H338.625ZM324.062 69L332.766 46.125H338.359L347.188 69H341.625L339.766 64.1406H330.906L329.312 69H324.062ZM366.141 69H360.5L354.484 58.3125V69H349.594V46.125H356.594C359.375 46.125 361.458 46.6667 362.844 47.75C364.229 48.8229 364.922 50.4427 364.922 52.6094C364.922 54.1823 364.448 55.526 363.5 56.6406C362.552 57.7552 361.328 58.4062 359.828 58.5938L366.141 69ZM354.484 55.875H355.219C357.198 55.875 358.505 55.6615 359.141 55.2344C359.776 54.7969 360.094 54.0417 360.094 52.9688C360.094 51.8438 359.75 51.0469 359.062 50.5781C358.385 50.099 357.104 49.8594 355.219 49.8594H354.484V55.875ZM380.844 60.2969L378.281 52.9062C378.208 52.6875 378.115 52.3125 378 51.7812C377.885 51.25 377.766 50.599 377.641 49.8281C377.505 50.5677 377.375 51.2344 377.25 51.8281C377.125 52.4115 377.031 52.8021 376.969 53L374.5 60.2969H380.844ZM366.281 69L374.984 46.125H380.578L389.406 69H383.844L381.984 64.1406H373.125L371.531 69H366.281ZM39.1094 88.2812V107H34.2031V88.2812H28.6094V84.125H44.7344V88.2812H39.1094ZM67.5781 84.125V98.3594C67.5781 101.464 66.7604 103.781 65.125 105.312C63.4896 106.844 61.026 107.609 57.7344 107.609C54.3906 107.609 51.901 106.844 50.2656 105.312C48.6302 103.781 47.8125 101.464 47.8125 98.3594V84.125H52.6719V97.5938C52.6719 99.4792 53.0885 100.901 53.9219 101.859C54.7552 102.807 56 103.281 57.6562 103.281C59.3229 103.281 60.5833 102.802 61.4375 101.844C62.2917 100.885 62.7188 99.4688 62.7188 97.5938V84.125H67.5781ZM82.5 107V84.125H95.9688V88.25H87.3906V92.9531H95.9688V97.1094H87.3906V102.844H95.9688V107H82.5ZM98.7969 107L102.281 84.125H107.406L111.812 97.5938C111.906 97.875 112.005 98.2865 112.109 98.8281C112.224 99.3698 112.328 99.9896 112.422 100.688C112.505 99.9792 112.599 99.349 112.703 98.7969C112.807 98.2344 112.906 97.8229 113 97.5625L117.484 84.125H122.531L126.031 107H121.391L119.719 93.2031C119.594 92.1823 119.51 91.4115 119.469 90.8906C119.427 90.3698 119.406 89.8854 119.406 89.4375C119.406 89.1979 119.406 89.0208 119.406 88.9062C119.417 88.7812 119.427 88.6719 119.438 88.5781C119.281 89.474 119.13 90.25 118.984 90.9062C118.849 91.5521 118.724 92.0417 118.609 92.375L113.766 107H111.016L106.25 92.375C106.208 92.2396 106.115 91.8646 105.969 91.25C105.833 90.6354 105.641 89.7396 105.391 88.5625V89.2344C105.391 90.2969 105.297 91.599 105.109 93.1406L105.094 93.2031L103.438 107H98.7969ZM134.141 94.4531H134.844C136.177 94.4531 137.146 94.1771 137.75 93.625C138.354 93.0729 138.656 92.1875 138.656 90.9688C138.656 89.8438 138.354 89.026 137.75 88.5156C137.146 87.9948 136.177 87.7344 134.844 87.7344H134.141V94.4531ZM129.219 107V84.125H134.844C137.844 84.125 140.057 84.6979 141.484 85.8438C142.922 86.9896 143.641 88.7604 143.641 91.1562C143.641 93.375 142.917 95.1146 141.469 96.375C140.031 97.6354 138.036 98.2656 135.484 98.2656H134.141V107H129.219ZM163.578 107H157.938L151.922 96.3125V107H147.031V84.125H154.031C156.812 84.125 158.896 84.6667 160.281 85.75C161.667 86.8229 162.359 88.4427 162.359 90.6094C162.359 92.1823 161.885 93.526 160.938 94.6406C159.99 95.7552 158.766 96.4062 157.266 96.5938L163.578 107ZM151.922 93.875H152.656C154.635 93.875 155.943 93.6615 156.578 93.2344C157.214 92.7969 157.531 92.0417 157.531 90.9688C157.531 89.8438 157.188 89.0469 156.5 88.5781C155.823 88.099 154.542 87.8594 152.656 87.8594H151.922V93.875ZM166.438 107V84.125H179.906V88.25H171.328V92.9531H179.906V97.1094H171.328V102.844H179.906V107H166.438ZM183.25 104.094L185.969 101.016C186.312 101.859 186.865 102.526 187.625 103.016C188.385 103.495 189.24 103.734 190.188 103.734C191.333 103.734 192.24 103.464 192.906 102.922C193.573 102.38 193.906 101.651 193.906 100.734C193.906 99.651 192.797 98.5729 190.578 97.5C189.859 97.1562 189.292 96.875 188.875 96.6562C186.875 95.6146 185.49 94.599 184.719 93.6094C183.948 92.6094 183.562 91.4219 183.562 90.0469C183.562 88.1615 184.307 86.6146 185.797 85.4062C187.297 84.1875 189.24 83.5781 191.625 83.5781C193.01 83.5781 194.203 83.8229 195.203 84.3125C196.214 84.7917 197.104 85.5469 197.875 86.5781L194.984 89.3438C194.641 88.6771 194.182 88.1823 193.609 87.8594C193.047 87.526 192.365 87.3594 191.562 87.3594C190.594 87.3594 189.812 87.6042 189.219 88.0938C188.625 88.5729 188.328 89.1979 188.328 89.9688C188.328 91.1771 189.505 92.2812 191.859 93.2812C192.328 93.4792 192.688 93.6354 192.938 93.75C194.875 94.6354 196.307 95.6354 197.234 96.75C198.172 97.8646 198.641 99.1354 198.641 100.562C198.641 102.708 197.906 104.422 196.438 105.703C194.979 106.974 193.016 107.609 190.547 107.609C188.797 107.609 187.297 107.307 186.047 106.703C184.797 106.099 183.865 105.229 183.25 104.094ZM214.5 98.2969L211.938 90.9062C211.865 90.6875 211.771 90.3125 211.656 89.7812C211.542 89.25 211.422 88.599 211.297 87.8281C211.161 88.5677 211.031 89.2344 210.906 89.8281C210.781 90.4115 210.688 90.8021 210.625 91L208.156 98.2969H214.5ZM199.938 107L208.641 84.125H214.234L223.062 107H217.5L215.641 102.141H206.781L205.188 107H199.938Z" fill="white"/>
<path d="M27 160H15C10.5817 160 7 156.418 7 152V94V28" stroke="white" stroke-width="1.5"/>
<circle cx="7" cy="21" r="6.25" stroke="white" stroke-width="1.5"/>
<rect x="25" y="136" width="294" height="65" rx="10" fill="#002A61"/>
<path d="M52.968 152.832H56.28V151.428H48.18V152.832H51.456V165H52.968V152.832ZM65.1851 161.076C65.3291 158.556 63.8891 156.306 61.1711 156.306C58.5251 156.306 57.0671 158.376 57.0671 160.878C57.0671 163.308 58.6871 165.234 61.2071 165.234C62.9351 165.234 64.3031 164.37 65.1131 162.858L63.8891 162.156C63.3311 163.164 62.5391 163.902 61.3151 163.902C59.6771 163.902 58.5611 162.642 58.5431 161.076H65.1851ZM58.6151 159.852C58.7951 158.628 59.9471 157.638 61.1891 157.638C62.4491 157.638 63.4751 158.628 63.6731 159.852H58.6151ZM76.2042 157.638C77.9862 157.638 79.0482 159.006 79.0482 160.698C79.0482 162.408 78.0762 163.902 76.2222 163.902C74.4222 163.902 73.4502 162.336 73.4502 160.68C73.4502 159.096 74.5302 157.638 76.2042 157.638ZM78.9762 165H80.4162V150.15H78.9762V157.746H78.9402C78.2562 156.846 77.1762 156.306 76.0422 156.306C73.5042 156.306 71.9742 158.376 71.9742 160.788C71.9742 163.128 73.5402 165.234 76.0242 165.234C77.1762 165.234 78.2382 164.748 78.9402 163.83H78.9762V165ZM86.5928 157.638C88.3748 157.638 89.4368 159.006 89.4368 160.698C89.4368 162.408 88.4648 163.902 86.6108 163.902C84.8108 163.902 83.8388 162.336 83.8388 160.68C83.8388 159.096 84.9188 157.638 86.5928 157.638ZM90.8048 156.54H89.3648V157.746H89.3288C88.6268 156.846 87.5828 156.306 86.4308 156.306C83.8928 156.306 82.3628 158.376 82.3628 160.788C82.3628 163.128 83.9288 165.234 86.4128 165.234C87.6008 165.234 88.5908 164.766 89.3288 163.83H89.3648V165H90.8048V156.54ZM94.9115 156.54H93.4715V165H94.9115V160.626C94.9115 159.348 95.0915 157.638 96.7835 157.638C98.1695 157.638 98.2955 159.15 98.2955 160.194V165H99.7355V160.518C99.7355 159.24 99.9155 157.638 101.572 157.638C103.048 157.638 103.12 158.988 103.12 160.086V165H104.56V159.852C104.56 158.07 104.02 156.306 101.86 156.306C100.834 156.306 99.8255 156.774 99.3215 157.71C98.8715 156.828 97.9715 156.306 96.9815 156.306C96.1175 156.306 95.3975 156.756 94.9475 157.458H94.9115V156.54ZM110.978 165.234C113.444 165.234 115.424 163.272 115.424 160.788C115.424 158.304 113.462 156.306 110.978 156.306C108.494 156.306 106.532 158.304 106.532 160.788C106.532 163.272 108.512 165.234 110.978 165.234ZM110.978 157.638C112.76 157.638 113.984 159.06 113.984 160.77C113.984 162.498 112.76 163.902 110.978 163.902C109.196 163.902 107.972 162.498 107.972 160.77C107.972 159.06 109.196 157.638 110.978 157.638ZM122.021 157.872C121.643 156.99 120.743 156.306 119.771 156.306C118.403 156.306 117.251 157.278 117.251 158.7C117.251 161.364 121.067 160.716 121.067 162.606C121.067 163.38 120.473 163.902 119.699 163.902C118.745 163.902 118.331 163.344 117.971 162.552L116.693 163.092C117.143 164.424 118.259 165.234 119.681 165.234C121.247 165.234 122.543 164.082 122.543 162.48C122.543 161.058 121.571 160.464 120.581 160.05C119.591 159.636 118.619 159.348 118.619 158.574C118.619 158.034 119.159 157.638 119.663 157.638C120.185 157.638 120.617 158.052 120.815 158.502L122.021 157.872ZM131.526 150.15H130.086V165H131.526V150.15ZM137.71 157.638C139.492 157.638 140.554 159.006 140.554 160.698C140.554 162.408 139.582 163.902 137.728 163.902C135.928 163.902 134.956 162.336 134.956 160.68C134.956 159.096 136.036 157.638 137.71 157.638ZM141.922 156.54H140.482V157.746H140.446C139.744 156.846 138.7 156.306 137.548 156.306C135.01 156.306 133.48 158.376 133.48 160.788C133.48 163.128 135.046 165.234 137.53 165.234C138.718 165.234 139.708 164.766 140.446 163.83H140.482V165H141.922V156.54ZM149.215 157.872C148.837 156.99 147.937 156.306 146.965 156.306C145.597 156.306 144.445 157.278 144.445 158.7C144.445 161.364 148.261 160.716 148.261 162.606C148.261 163.38 147.667 163.902 146.893 163.902C145.939 163.902 145.525 163.344 145.165 162.552L143.887 163.092C144.337 164.424 145.453 165.234 146.875 165.234C148.441 165.234 149.737 164.082 149.737 162.48C149.737 161.058 148.765 160.464 147.775 160.05C146.785 159.636 145.813 159.348 145.813 158.574C145.813 158.034 146.353 157.638 146.857 157.638C147.379 157.638 147.811 158.052 148.009 158.502L149.215 157.872ZM157.315 150.15V165H158.755V160.986C158.755 159.474 158.881 157.638 160.861 157.638C162.535 157.638 162.643 158.862 162.643 160.23V165H164.083V159.978C164.083 157.998 163.543 156.306 161.203 156.306C160.159 156.306 159.385 156.756 158.791 157.566L158.755 157.53V150.15H157.315ZM174.187 161.076C174.331 158.556 172.891 156.306 170.173 156.306C167.527 156.306 166.069 158.376 166.069 160.878C166.069 163.308 167.689 165.234 170.209 165.234C171.937 165.234 173.305 164.37 174.115 162.858L172.891 162.156C172.333 163.164 171.541 163.902 170.317 163.902C168.679 163.902 167.563 162.642 167.545 161.076H174.187ZM167.617 159.852C167.797 158.628 168.949 157.638 170.191 157.638C171.451 157.638 172.477 158.628 172.675 159.852H167.617ZM177.527 156.54H176.087V165H177.527V160.77C177.527 159.672 177.599 157.638 179.183 157.638C179.561 157.638 179.759 157.818 180.047 158.016L180.731 156.702C180.317 156.468 179.921 156.306 179.435 156.306C178.499 156.306 178.067 156.792 177.563 157.458H177.527V156.54ZM183.556 156.54H182.116V165H183.556V160.77C183.556 159.672 183.628 157.638 185.212 157.638C185.59 157.638 185.788 157.818 186.076 158.016L186.76 156.702C186.346 156.468 185.95 156.306 185.464 156.306C184.528 156.306 184.096 156.792 183.592 157.458H183.556V156.54ZM191.728 157.638C193.51 157.638 194.572 159.006 194.572 160.698C194.572 162.408 193.6 163.902 191.746 163.902C189.946 163.902 188.974 162.336 188.974 160.68C188.974 159.096 190.054 157.638 191.728 157.638ZM195.94 156.54H194.5V157.746H194.464C193.762 156.846 192.718 156.306 191.566 156.306C189.028 156.306 187.498 158.376 187.498 160.788C187.498 163.128 189.064 165.234 191.548 165.234C192.736 165.234 193.726 164.766 194.464 163.83H194.5V165H195.94V156.54ZM200.046 156.54H198.606V165H200.046V160.626C200.046 159.348 200.226 157.638 201.918 157.638C203.304 157.638 203.43 159.15 203.43 160.194V165H204.87V160.518C204.87 159.24 205.05 157.638 206.706 157.638C208.182 157.638 208.254 158.988 208.254 160.086V165H209.694V159.852C209.694 158.07 209.154 156.306 206.994 156.306C205.968 156.306 204.96 156.774 204.456 157.71C204.006 156.828 203.106 156.306 202.116 156.306C201.252 156.306 200.532 156.756 200.082 157.458H200.046V156.54ZM214.133 156.54H212.693V165H214.133V156.54ZM213.413 152.328C212.855 152.328 212.387 152.796 212.387 153.354C212.387 153.93 212.855 154.38 213.413 154.38C213.971 154.38 214.439 153.93 214.439 153.354C214.439 152.796 213.971 152.328 213.413 152.328ZM224.496 161.076C224.64 158.556 223.2 156.306 220.482 156.306C217.836 156.306 216.378 158.376 216.378 160.878C216.378 163.308 217.998 165.234 220.518 165.234C222.246 165.234 223.614 164.37 224.424 162.858L223.2 162.156C222.642 163.164 221.85 163.902 220.626 163.902C218.988 163.902 217.872 162.642 217.854 161.076H224.496ZM217.926 159.852C218.106 158.628 219.258 157.638 220.5 157.638C221.76 157.638 222.786 158.628 222.984 159.852H217.926ZM227.908 156.54H226.468V165H227.908V160.986C227.908 159.474 228.034 157.638 230.014 157.638C231.688 157.638 231.796 158.862 231.796 160.23V165H233.236V159.978C233.236 157.998 232.696 156.306 230.356 156.306C229.312 156.306 228.538 156.756 227.944 157.566H227.908V156.54ZM237.489 157.872H239.001V156.54H237.489V153.498H236.049V156.54H235.167V157.872H236.049V165H237.489V157.872ZM243.812 157.638C245.594 157.638 246.656 159.006 246.656 160.698C246.656 162.408 245.684 163.902 243.83 163.902C242.03 163.902 241.058 162.336 241.058 160.68C241.058 159.096 242.138 157.638 243.812 157.638ZM248.024 156.54H246.584V157.746H246.548C245.846 156.846 244.802 156.306 243.65 156.306C241.112 156.306 239.582 158.376 239.582 160.788C239.582 163.128 241.148 165.234 243.632 165.234C244.82 165.234 245.81 164.766 246.548 163.83H246.584V165H248.024V156.54ZM255.316 157.872C254.938 156.99 254.038 156.306 253.066 156.306C251.698 156.306 250.546 157.278 250.546 158.7C250.546 161.364 254.362 160.716 254.362 162.606C254.362 163.38 253.768 163.902 252.994 163.902C252.04 163.902 251.626 163.344 251.266 162.552L249.988 163.092C250.438 164.424 251.554 165.234 252.976 165.234C254.542 165.234 255.838 164.082 255.838 162.48C255.838 161.058 254.866 160.464 253.876 160.05C252.886 159.636 251.914 159.348 251.914 158.574C251.914 158.034 252.454 157.638 252.958 157.638C253.48 157.638 253.912 158.052 254.11 158.502L255.316 157.872ZM267.467 157.638C269.249 157.638 270.311 159.006 270.311 160.698C270.311 162.408 269.339 163.902 267.485 163.902C265.685 163.902 264.713 162.336 264.713 160.68C264.713 159.096 265.793 157.638 267.467 157.638ZM264.785 156.54H263.345V169.752H264.785V163.812H264.821C265.505 164.73 266.567 165.234 267.719 165.234C270.257 165.234 271.787 163.2 271.787 160.788C271.787 158.448 270.221 156.306 267.737 156.306C266.567 156.306 265.523 156.81 264.821 157.746H264.785V156.54ZM277.316 157.638C279.098 157.638 280.16 159.006 280.16 160.698C280.16 162.408 279.188 163.902 277.334 163.902C275.534 163.902 274.562 162.336 274.562 160.68C274.562 159.096 275.642 157.638 277.316 157.638ZM281.527 156.54H280.088V157.746H280.052C279.35 156.846 278.306 156.306 277.154 156.306C274.616 156.306 273.086 158.376 273.086 160.788C273.086 163.128 274.652 165.234 277.136 165.234C278.324 165.234 279.314 164.766 280.052 163.83H280.088V165H281.527V156.54ZM285.562 156.54H284.122V165H285.562V160.77C285.562 159.672 285.634 157.638 287.218 157.638C287.596 157.638 287.794 157.818 288.082 158.016L288.766 156.702C288.352 156.468 287.956 156.306 287.47 156.306C286.534 156.306 286.102 156.792 285.598 157.458H285.562V156.54ZM293.733 157.638C295.515 157.638 296.577 159.006 296.577 160.698C296.577 162.408 295.605 163.902 293.751 163.902C291.951 163.902 290.979 162.336 290.979 160.68C290.979 159.096 292.059 157.638 293.733 157.638ZM297.945 156.54H296.505V157.746H296.469C295.767 156.846 294.723 156.306 293.571 156.306C291.033 156.306 289.503 158.376 289.503 160.788C289.503 163.128 291.069 165.234 293.553 165.234C294.741 165.234 295.731 164.766 296.469 163.83H296.505V165H297.945V156.54ZM56.082 178.754C55.518 178.37 54.948 178.178 54.372 178.178C54.06 178.178 53.766 178.232 53.49 178.34C53.226 178.448 52.992 178.604 52.788 178.808C52.584 179 52.422 179.234 52.302 179.51C52.194 179.774 52.14 180.074 52.14 180.41C52.14 180.734 52.194 181.034 52.302 181.31C52.422 181.574 52.578 181.808 52.77 182.012C52.974 182.204 53.214 182.354 53.49 182.462C53.766 182.57 54.06 182.624 54.372 182.624C54.984 182.624 55.554 182.414 56.082 181.994V184.766C55.278 185.114 54.516 185.288 53.796 185.288C53.124 185.288 52.482 185.174 51.87 184.946C51.27 184.718 50.736 184.394 50.268 183.974C49.812 183.542 49.446 183.032 49.17 182.444C48.894 181.844 48.756 181.178 48.756 180.446C48.756 179.714 48.888 179.048 49.152 178.448C49.416 177.836 49.776 177.314 50.232 176.882C50.688 176.438 51.228 176.096 51.852 175.856C52.488 175.604 53.166 175.478 53.886 175.478C54.678 175.478 55.41 175.646 56.082 175.982V178.754ZM57.9402 175.766H61.1982V177.278C61.5462 176.726 61.9722 176.306 62.4762 176.018C62.9802 175.718 63.5682 175.568 64.2402 175.568C64.3242 175.568 64.4142 175.568 64.5102 175.568C64.6182 175.568 64.7382 175.58 64.8702 175.604V178.718C64.4382 178.502 63.9702 178.394 63.4662 178.394C62.7102 178.394 62.1402 178.622 61.7562 179.078C61.3842 179.522 61.1982 180.176 61.1982 181.04V185H57.9402V175.766ZM73.1805 179.042C73.0725 178.586 72.8505 178.22 72.5145 177.944C72.1785 177.668 71.7705 177.53 71.2905 177.53C70.7865 177.53 70.3725 177.662 70.0485 177.926C69.7365 178.19 69.5385 178.562 69.4545 179.042H73.1805ZM69.3645 180.932C69.3645 182.336 70.0245 183.038 71.3445 183.038C72.0525 183.038 72.5865 182.75 72.9465 182.174H76.0965C75.4605 184.286 73.8705 185.342 71.3265 185.342C70.5465 185.342 69.8325 185.228 69.1845 185C68.5365 184.76 67.9785 184.424 67.5105 183.992C67.0545 183.56 66.7005 183.044 66.4485 182.444C66.1965 181.844 66.0705 181.172 66.0705 180.428C66.0705 179.66 66.1905 178.97 66.4305 178.358C66.6705 177.734 67.0125 177.206 67.4565 176.774C67.9005 176.342 68.4345 176.012 69.0585 175.784C69.6945 175.544 70.4085 175.424 71.2005 175.424C71.9805 175.424 72.6825 175.544 73.3065 175.784C73.9305 176.012 74.4585 176.348 74.8905 176.792C75.3225 177.236 75.6525 177.782 75.8805 178.43C76.1085 179.066 76.2225 179.786 76.2225 180.59V180.932H69.3645ZM85.0508 178.754C84.4868 178.37 83.9168 178.178 83.3408 178.178C83.0288 178.178 82.7348 178.232 82.4588 178.34C82.1948 178.448 81.9608 178.604 81.7568 178.808C81.5528 179 81.3908 179.234 81.2708 179.51C81.1628 179.774 81.1088 180.074 81.1088 180.41C81.1088 180.734 81.1628 181.034 81.2708 181.31C81.3908 181.574 81.5468 181.808 81.7388 182.012C81.9428 182.204 82.1828 182.354 82.4588 182.462C82.7348 182.57 83.0288 182.624 83.3408 182.624C83.9528 182.624 84.5228 182.414 85.0508 181.994V184.766C84.2468 185.114 83.4848 185.288 82.7648 185.288C82.0928 185.288 81.4508 185.174 80.8388 184.946C80.2388 184.718 79.7048 184.394 79.2368 183.974C78.7808 183.542 78.4148 183.032 78.1388 182.444C77.8628 181.844 77.7248 181.178 77.7248 180.446C77.7248 179.714 77.8568 179.048 78.1208 178.448C78.3848 177.836 78.7448 177.314 79.2008 176.882C79.6568 176.438 80.1968 176.096 80.8208 175.856C81.4568 175.604 82.1348 175.478 82.8548 175.478C83.6468 175.478 84.3788 175.646 85.0508 175.982V178.754ZM93.659 179.042C93.551 178.586 93.329 178.22 92.993 177.944C92.657 177.668 92.249 177.53 91.769 177.53C91.265 177.53 90.851 177.662 90.527 177.926C90.215 178.19 90.017 178.562 89.933 179.042H93.659ZM89.843 180.932C89.843 182.336 90.503 183.038 91.823 183.038C92.531 183.038 93.065 182.75 93.425 182.174H96.575C95.939 184.286 94.349 185.342 91.805 185.342C91.025 185.342 90.311 185.228 89.663 185C89.015 184.76 88.457 184.424 87.989 183.992C87.533 183.56 87.179 183.044 86.927 182.444C86.675 181.844 86.549 181.172 86.549 180.428C86.549 179.66 86.669 178.97 86.909 178.358C87.149 177.734 87.491 177.206 87.935 176.774C88.379 176.342 88.913 176.012 89.537 175.784C90.173 175.544 90.887 175.424 91.679 175.424C92.459 175.424 93.161 175.544 93.785 175.784C94.409 176.012 94.937 176.348 95.369 176.792C95.801 177.236 96.131 177.782 96.359 178.43C96.587 179.066 96.701 179.786 96.701 180.59V180.932H89.843ZM98.5633 175.766H101.821V177.278C102.169 176.726 102.595 176.306 103.099 176.018C103.603 175.718 104.191 175.568 104.863 175.568C104.947 175.568 105.037 175.568 105.133 175.568C105.241 175.568 105.361 175.58 105.493 175.604V178.718C105.061 178.502 104.593 178.394 104.089 178.394C103.333 178.394 102.763 178.622 102.379 179.078C102.007 179.522 101.821 180.176 101.821 181.04V185H98.5633V175.766ZM116.684 178.484V185H113.426V178.484H112.346V175.766H113.426V172.994H116.684V175.766H118.538V178.484H116.684ZM123.02 175.766V180.968C123.02 182.108 123.572 182.678 124.676 182.678C125.78 182.678 126.332 182.108 126.332 180.968V175.766H129.59V181.598C129.59 182.846 129.176 183.782 128.348 184.406C127.532 185.03 126.308 185.342 124.676 185.342C123.044 185.342 121.814 185.03 120.986 184.406C120.17 183.782 119.762 182.846 119.762 181.598V175.766H123.02ZM137.921 175.766H141.179V176.936C141.623 176.396 142.073 176.036 142.529 175.856C142.985 175.664 143.519 175.568 144.131 175.568C144.779 175.568 145.331 175.676 145.787 175.892C146.255 176.096 146.651 176.39 146.975 176.774C147.239 177.086 147.419 177.434 147.515 177.818C147.611 178.202 147.659 178.64 147.659 179.132V185H144.401V180.338C144.401 179.882 144.365 179.516 144.293 179.24C144.233 178.952 144.119 178.724 143.951 178.556C143.807 178.412 143.645 178.31 143.465 178.25C143.285 178.19 143.093 178.16 142.889 178.16C142.337 178.16 141.911 178.328 141.611 178.664C141.323 178.988 141.179 179.456 141.179 180.068V185H137.921V175.766ZM156.624 179.042C156.516 178.586 156.294 178.22 155.958 177.944C155.622 177.668 155.214 177.53 154.734 177.53C154.23 177.53 153.816 177.662 153.492 177.926C153.18 178.19 152.982 178.562 152.898 179.042H156.624ZM152.808 180.932C152.808 182.336 153.468 183.038 154.788 183.038C155.496 183.038 156.03 182.75 156.39 182.174H159.54C158.904 184.286 157.314 185.342 154.77 185.342C153.99 185.342 153.276 185.228 152.628 185C151.98 184.76 151.422 184.424 150.954 183.992C150.498 183.56 150.144 183.044 149.892 182.444C149.64 181.844 149.514 181.172 149.514 180.428C149.514 179.66 149.634 178.97 149.874 178.358C150.114 177.734 150.456 177.206 150.9 176.774C151.344 176.342 151.878 176.012 152.502 175.784C153.138 175.544 153.852 175.424 154.644 175.424C155.424 175.424 156.126 175.544 156.75 175.784C157.374 176.012 157.902 176.348 158.334 176.792C158.766 177.236 159.096 177.782 159.324 178.43C159.552 179.066 159.666 179.786 159.666 180.59V180.932H152.808ZM164.552 180.338C164.552 180.638 164.606 180.92 164.714 181.184C164.822 181.436 164.966 181.658 165.146 181.85C165.338 182.042 165.56 182.192 165.812 182.3C166.076 182.408 166.358 182.462 166.658 182.462C166.946 182.462 167.216 182.408 167.468 182.3C167.732 182.192 167.954 182.042 168.134 181.85C168.326 181.658 168.476 181.436 168.584 181.184C168.704 180.92 168.764 180.644 168.764 180.356C168.764 180.056 168.704 179.78 168.584 179.528C168.476 179.276 168.326 179.054 168.134 178.862C167.942 178.67 167.714 178.52 167.45 178.412C167.198 178.304 166.934 178.25 166.658 178.25C166.37 178.25 166.1 178.31 165.848 178.43C165.596 178.538 165.374 178.688 165.182 178.88C164.99 179.06 164.834 179.276 164.714 179.528C164.606 179.78 164.552 180.05 164.552 180.338ZM171.86 175.766V184.37C171.86 184.886 171.83 185.348 171.77 185.756C171.71 186.164 171.626 186.524 171.518 186.836C171.374 187.232 171.146 187.598 170.834 187.934C170.534 188.282 170.168 188.582 169.736 188.834C169.304 189.086 168.812 189.284 168.26 189.428C167.72 189.572 167.132 189.644 166.496 189.644C165.776 189.644 165.116 189.554 164.516 189.374C163.916 189.194 163.388 188.942 162.932 188.618C162.488 188.306 162.122 187.934 161.834 187.502C161.546 187.082 161.354 186.62 161.258 186.116H164.93C165.158 186.728 165.674 187.034 166.478 187.034C167.162 187.034 167.684 186.842 168.044 186.458C168.416 186.074 168.602 185.54 168.602 184.856V183.974C168.362 184.202 168.128 184.394 167.9 184.55C167.684 184.694 167.462 184.814 167.234 184.91C167.006 185.006 166.766 185.072 166.514 185.108C166.262 185.156 165.986 185.18 165.686 185.18C165.026 185.18 164.42 185.066 163.868 184.838C163.316 184.61 162.836 184.292 162.428 183.884C162.032 183.476 161.72 182.99 161.492 182.426C161.276 181.85 161.168 181.214 161.168 180.518C161.168 179.81 161.288 179.156 161.528 178.556C161.768 177.944 162.092 177.416 162.5 176.972C162.92 176.516 163.412 176.162 163.976 175.91C164.552 175.646 165.176 175.514 165.848 175.514C166.94 175.514 167.858 175.922 168.602 176.738V175.766H171.86ZM177.157 180.338C177.157 180.65 177.211 180.938 177.319 181.202C177.439 181.454 177.589 181.676 177.769 181.868C177.961 182.06 178.183 182.21 178.435 182.318C178.699 182.426 178.975 182.48 179.263 182.48C179.551 182.48 179.821 182.426 180.073 182.318C180.337 182.21 180.559 182.06 180.739 181.868C180.931 181.676 181.081 181.454 181.189 181.202C181.309 180.938 181.369 180.656 181.369 180.356C181.369 180.068 181.309 179.798 181.189 179.546C181.081 179.282 180.931 179.054 180.739 178.862C180.559 178.67 180.337 178.52 180.073 178.412C179.821 178.304 179.551 178.25 179.263 178.25C178.975 178.25 178.699 178.304 178.435 178.412C178.183 178.52 177.961 178.67 177.769 178.862C177.589 179.054 177.439 179.276 177.319 179.528C177.211 179.78 177.157 180.05 177.157 180.338ZM173.719 180.302C173.719 179.618 173.857 178.982 174.133 178.394C174.409 177.794 174.793 177.278 175.285 176.846C175.777 176.402 176.359 176.054 177.031 175.802C177.715 175.55 178.459 175.424 179.263 175.424C180.055 175.424 180.787 175.55 181.459 175.802C182.143 176.042 182.731 176.384 183.223 176.828C183.727 177.26 184.117 177.782 184.393 178.394C184.669 178.994 184.807 179.66 184.807 180.392C184.807 181.124 184.663 181.796 184.375 182.408C184.099 183.008 183.715 183.53 183.223 183.974C182.731 184.406 182.137 184.742 181.441 184.982C180.757 185.222 180.013 185.342 179.209 185.342C178.417 185.342 177.685 185.222 177.013 184.982C176.341 184.742 175.759 184.4 175.267 183.956C174.787 183.512 174.409 182.984 174.133 182.372C173.857 181.748 173.719 181.058 173.719 180.302ZM193.648 178.754C193.084 178.37 192.514 178.178 191.938 178.178C191.626 178.178 191.332 178.232 191.056 178.34C190.792 178.448 190.558 178.604 190.354 178.808C190.15 179 189.988 179.234 189.868 179.51C189.76 179.774 189.706 180.074 189.706 180.41C189.706 180.734 189.76 181.034 189.868 181.31C189.988 181.574 190.144 181.808 190.336 182.012C190.54 182.204 190.78 182.354 191.056 182.462C191.332 182.57 191.626 182.624 191.938 182.624C192.55 182.624 193.12 182.414 193.648 181.994V184.766C192.844 185.114 192.082 185.288 191.362 185.288C190.69 185.288 190.048 185.174 189.436 184.946C188.836 184.718 188.302 184.394 187.834 183.974C187.378 183.542 187.012 183.032 186.736 182.444C186.46 181.844 186.322 181.178 186.322 180.446C186.322 179.714 186.454 179.048 186.718 178.448C186.982 177.836 187.342 177.314 187.798 176.882C188.254 176.438 188.794 176.096 189.418 175.856C190.054 175.604 190.732 175.478 191.452 175.478C192.244 175.478 192.976 175.646 193.648 175.982V178.754ZM198.765 175.766V185H195.507V175.766H198.765ZM195.291 172.22C195.291 171.968 195.339 171.734 195.435 171.518C195.531 171.29 195.663 171.092 195.831 170.924C195.999 170.756 196.191 170.624 196.407 170.528C196.635 170.432 196.875 170.384 197.127 170.384C197.379 170.384 197.613 170.432 197.829 170.528C198.057 170.624 198.255 170.756 198.423 170.924C198.591 171.092 198.723 171.29 198.819 171.518C198.915 171.734 198.963 171.968 198.963 172.22C198.963 172.472 198.915 172.712 198.819 172.94C198.723 173.156 198.591 173.348 198.423 173.516C198.255 173.684 198.057 173.816 197.829 173.912C197.613 174.008 197.379 174.056 197.127 174.056C196.875 174.056 196.635 174.008 196.407 173.912C196.191 173.816 195.999 173.684 195.831 173.516C195.663 173.348 195.531 173.156 195.435 172.94C195.339 172.712 195.291 172.472 195.291 172.22ZM204.069 180.338C204.069 180.65 204.123 180.938 204.231 181.202C204.351 181.454 204.501 181.676 204.681 181.868C204.873 182.06 205.095 182.21 205.347 182.318C205.611 182.426 205.887 182.48 206.175 182.48C206.463 182.48 206.733 182.426 206.985 182.318C207.249 182.21 207.471 182.06 207.651 181.868C207.843 181.676 207.993 181.454 208.101 181.202C208.221 180.938 208.281 180.656 208.281 180.356C208.281 180.068 208.221 179.798 208.101 179.546C207.993 179.282 207.843 179.054 207.651 178.862C207.471 178.67 207.249 178.52 206.985 178.412C206.733 178.304 206.463 178.25 206.175 178.25C205.887 178.25 205.611 178.304 205.347 178.412C205.095 178.52 204.873 178.67 204.681 178.862C204.501 179.054 204.351 179.276 204.231 179.528C204.123 179.78 204.069 180.05 204.069 180.338ZM200.631 180.302C200.631 179.618 200.769 178.982 201.045 178.394C201.321 177.794 201.705 177.278 202.197 176.846C202.689 176.402 203.271 176.054 203.943 175.802C204.627 175.55 205.371 175.424 206.175 175.424C206.967 175.424 207.699 175.55 208.371 175.802C209.055 176.042 209.643 176.384 210.135 176.828C210.639 177.26 211.029 177.782 211.305 178.394C211.581 178.994 211.719 179.66 211.719 180.392C211.719 181.124 211.575 181.796 211.287 182.408C211.011 183.008 210.627 183.53 210.135 183.974C209.643 184.406 209.049 184.742 208.353 184.982C207.669 185.222 206.925 185.342 206.121 185.342C205.329 185.342 204.597 185.222 203.925 184.982C203.253 184.742 202.671 184.4 202.179 183.956C201.699 183.512 201.321 182.984 201.045 182.372C200.769 181.748 200.631 181.058 200.631 180.302Z" fill="white"/>
</svg>
