<svg width="473" height="178" viewBox="0 0 473 178" fill="none" xmlns="http://www.w3.org/2000/svg">
<path d="M30.5625 31V8.125H44.0312V12.25H35.4531V16.9531H44.0312V21.1094H35.4531V26.8438H44.0312V31H30.5625ZM48.8438 31V8.125H53.7344V26.8438H61.5469V31H48.8438ZM91.0156 31H85.375L79.3594 20.3125V31H74.4688V8.125H81.4688C84.25 8.125 86.3333 8.66667 87.7188 9.75C89.1042 10.8229 89.7969 12.4427 89.7969 14.6094C89.7969 16.1823 89.3229 17.526 88.375 18.6406C87.4271 19.7552 86.2031 20.4062 84.7031 20.5938L91.0156 31ZM79.3594 17.875H80.0938C82.0729 17.875 83.3802 17.6615 84.0156 17.2344C84.651 16.7969 84.9688 16.0417 84.9688 14.9688C84.9688 13.8438 84.625 13.0469 83.9375 12.5781C83.2604 12.099 81.9792 11.8594 80.0938 11.8594H79.3594V17.875ZM93.875 31V8.125H107.344V12.25H98.7656V16.9531H107.344V21.1094H98.7656V26.8438H107.344V31H93.875ZM110.688 28.0938L113.406 25.0156C113.75 25.8594 114.302 26.526 115.062 27.0156C115.823 27.4948 116.677 27.7344 117.625 27.7344C118.771 27.7344 119.677 27.4635 120.344 26.9219C121.01 26.3802 121.344 25.651 121.344 24.7344C121.344 23.651 120.234 22.5729 118.016 21.5C117.297 21.1562 116.729 20.875 116.312 20.6562C114.312 19.6146 112.927 18.599 112.156 17.6094C111.385 16.6094 111 15.4219 111 14.0469C111 12.1615 111.745 10.6146 113.234 9.40625C114.734 8.1875 116.677 7.57812 119.062 7.57812C120.448 7.57812 121.641 7.82292 122.641 8.3125C123.651 8.79167 124.542 9.54688 125.312 10.5781L122.422 13.3438C122.078 12.6771 121.62 12.1823 121.047 11.8594C120.484 11.526 119.802 11.3594 119 11.3594C118.031 11.3594 117.25 11.6042 116.656 12.0938C116.062 12.5729 115.766 13.1979 115.766 13.9688C115.766 15.1771 116.943 16.2812 119.297 17.2812C119.766 17.4792 120.125 17.6354 120.375 17.75C122.312 18.6354 123.745 19.6354 124.672 20.75C125.609 21.8646 126.078 23.1354 126.078 24.5625C126.078 26.7083 125.344 28.4219 123.875 29.7031C122.417 30.974 120.453 31.6094 117.984 31.6094C116.234 31.6094 114.734 31.3073 113.484 30.7031C112.234 30.099 111.302 29.2292 110.688 28.0938ZM135.016 18.4531H135.719C137.052 18.4531 138.021 18.1771 138.625 17.625C139.229 17.0729 139.531 16.1875 139.531 14.9688C139.531 13.8438 139.229 13.026 138.625 12.5156C138.021 11.9948 137.052 11.7344 135.719 11.7344H135.016V18.4531ZM130.094 31V8.125H135.719C138.719 8.125 140.932 8.69792 142.359 9.84375C143.797 10.9896 144.516 12.7604 144.516 15.1562C144.516 17.375 143.792 19.1146 142.344 20.375C140.906 21.6354 138.911 22.2656 136.359 22.2656H135.016V31H130.094ZM158.156 22.2969L155.594 14.9062C155.521 14.6875 155.427 14.3125 155.312 13.7812C155.198 13.25 155.078 12.599 154.953 11.8281C154.818 12.5677 154.688 13.2344 154.562 13.8281C154.438 14.4115 154.344 14.8021 154.281 15L151.812 22.2969H158.156ZM143.594 31L152.297 8.125H157.891L166.719 31H161.156L159.297 26.1406H150.438L148.844 31H143.594ZM169.125 31V8.125H174.016V26.8438H181.828V31H169.125ZM189.797 26.875H192.516C195.078 26.875 196.943 26.2917 198.109 25.125C199.286 23.9583 199.875 22.1094 199.875 19.5781C199.875 17.0573 199.286 15.2135 198.109 14.0469C196.943 12.8698 195.078 12.2812 192.516 12.2812H189.797V26.875ZM184.906 31V8.125H191.141C193.599 8.125 195.536 8.29688 196.953 8.64062C198.37 8.98438 199.615 9.55729 200.688 10.3594C202.073 11.3906 203.12 12.6927 203.828 14.2656C204.547 15.8281 204.906 17.6094 204.906 19.6094C204.906 21.6406 204.542 23.4427 203.812 25.0156C203.083 26.5781 202.016 27.8698 200.609 28.8906C199.568 29.6406 198.406 30.1823 197.125 30.5156C195.854 30.8385 193.99 31 191.531 31H189.797H184.906ZM232.422 19.6094C232.422 21.2448 232.115 22.7917 231.5 24.25C230.896 25.7083 230.021 26.9896 228.875 28.0938C227.688 29.2292 226.349 30.099 224.859 30.7031C223.37 31.3073 221.828 31.6094 220.234 31.6094C218.839 31.6094 217.469 31.375 216.125 30.9062C214.792 30.4271 213.568 29.7448 212.453 28.8594C211.016 27.7135 209.911 26.3438 209.141 24.75C208.38 23.1562 208 21.4427 208 19.6094C208 17.9635 208.302 16.4219 208.906 14.9844C209.51 13.5365 210.396 12.25 211.562 11.125C212.708 10.0104 214.036 9.14583 215.547 8.53125C217.068 7.91667 218.63 7.60938 220.234 7.60938C221.828 7.60938 223.375 7.91667 224.875 8.53125C226.385 9.14583 227.719 10.0104 228.875 11.125C230.031 12.25 230.911 13.5365 231.516 14.9844C232.12 16.4323 232.422 17.974 232.422 19.6094ZM220.234 27.25C222.307 27.25 224.016 26.526 225.359 25.0781C226.714 23.6198 227.391 21.7969 227.391 19.6094C227.391 17.4427 226.708 15.6198 225.344 14.1406C223.979 12.6615 222.276 11.9219 220.234 11.9219C218.161 11.9219 216.443 12.6615 215.078 14.1406C213.714 15.6094 213.031 17.4323 213.031 19.6094C213.031 21.8177 213.703 23.6458 215.047 25.0938C216.391 26.5312 218.12 27.25 220.234 27.25ZM260.906 23.25L262.594 25.2344C263.302 24.5052 263.844 23.651 264.219 22.6719C264.604 21.6823 264.797 20.6615 264.797 19.6094C264.797 17.4427 264.115 15.6198 262.75 14.1406C261.385 12.6615 259.682 11.9219 257.641 11.9219C255.568 11.9219 253.849 12.6615 252.484 14.1406C251.12 15.6094 250.438 17.4323 250.438 19.6094C250.438 21.8073 251.104 23.6302 252.438 25.0781C253.781 26.526 255.484 27.25 257.547 27.25C257.724 27.25 257.969 27.2344 258.281 27.2031C258.604 27.1615 258.984 27.1042 259.422 27.0312L256.125 23.25H260.906ZM269.703 33.6562H264.828L262.344 30.7188C261.219 31.0104 260.281 31.2188 259.531 31.3438C258.792 31.4792 258.13 31.5469 257.547 31.5469C255.974 31.5469 254.432 31.2396 252.922 30.625C251.411 30.0104 250.094 29.1562 248.969 28.0625C247.812 26.9375 246.922 25.6458 246.297 24.1875C245.682 22.7188 245.375 21.1823 245.375 19.5781C245.375 17.974 245.682 16.4479 246.297 15C246.911 13.5417 247.802 12.2396 248.969 11.0938C250.104 9.96875 251.417 9.10938 252.906 8.51562C254.406 7.91146 255.984 7.60938 257.641 7.60938C259.266 7.60938 260.823 7.91146 262.312 8.51562C263.802 9.10938 265.125 9.96875 266.281 11.0938C267.438 12.2292 268.323 13.5208 268.938 14.9688C269.552 16.4167 269.859 17.9531 269.859 19.5781C269.859 21.3698 269.49 23.0417 268.75 24.5938C268.01 26.1458 266.927 27.526 265.5 28.7344L269.703 33.6562ZM293.641 8.125V22.3594C293.641 25.4635 292.823 27.7812 291.188 29.3125C289.552 30.8438 287.089 31.6094 283.797 31.6094C280.453 31.6094 277.964 30.8438 276.328 29.3125C274.693 27.7812 273.875 25.4635 273.875 22.3594V8.125H278.734V21.5938C278.734 23.4792 279.151 24.901 279.984 25.8594C280.818 26.8073 282.062 27.2812 283.719 27.2812C285.385 27.2812 286.646 26.8021 287.5 25.8438C288.354 24.8854 288.781 23.4688 288.781 21.5938V8.125H293.641ZM298.719 31V8.125H312.188V12.25H303.609V16.9531H312.188V21.1094H303.609V26.8438H312.188V31H298.719ZM326.844 31V8.125H331.734V26.8438H339.547V31H326.844ZM342.625 31V8.125H356.094V12.25H347.516V16.9531H356.094V21.1094H347.516V26.8438H356.094V31H342.625ZM370.75 31V8.125H375.641V17.2969H385.562V8.125H390.453V31H385.562V21.4375H375.641V31H370.75ZM407.406 22.2969L404.844 14.9062C404.771 14.6875 404.677 14.3125 404.562 13.7812C404.448 13.25 404.328 12.599 404.203 11.8281C404.068 12.5677 403.938 13.2344 403.812 13.8281C403.688 14.4115 403.594 14.8021 403.531 15L401.062 22.2969H407.406ZM392.844 31L401.547 8.125H407.141L415.969 31H410.406L408.547 26.1406H399.688L398.094 31H392.844ZM436.234 14.0781C435.245 13.1927 434.229 12.5469 433.188 12.1406C432.146 11.724 431.031 11.5156 429.844 11.5156C427.406 11.5156 425.464 12.2448 424.016 13.7031C422.568 15.1615 421.844 17.1198 421.844 19.5781C421.844 21.9844 422.516 23.8958 423.859 25.3125C425.203 26.7188 427.036 27.4219 429.359 27.4219C430.682 27.4219 431.911 27.2031 433.047 26.7656C434.182 26.3177 435.234 25.651 436.203 24.7656L436.172 29.7812C435.13 30.3958 434.036 30.8542 432.891 31.1562C431.755 31.4583 430.557 31.6094 429.297 31.6094C425.651 31.6094 422.656 30.4792 420.312 28.2188C417.979 25.9479 416.812 23.0677 416.812 19.5781C416.812 16.099 417.984 13.2292 420.328 10.9688C422.672 8.70833 425.693 7.57812 429.391 7.57812C430.63 7.57812 431.828 7.70833 432.984 7.96875C434.141 8.22917 435.281 8.63021 436.406 9.17188L436.234 14.0781ZM440.875 31V8.125H445.766V31H440.875ZM447.922 0.1875L443.031 5.95312H440.812L443.891 0.1875H447.922ZM462.844 22.2969L460.281 14.9062C460.208 14.6875 460.115 14.3125 460 13.7812C459.885 13.25 459.766 12.599 459.641 11.8281C459.505 12.5677 459.375 13.2344 459.25 13.8281C459.125 14.4115 459.031 14.8021 458.969 15L456.5 22.2969H462.844ZM448.281 31L456.984 8.125H462.578L471.406 31H465.844L463.984 26.1406H455.125L453.531 31H448.281ZM30.5625 69V46.125H44.0312V50.25H35.4531V54.9531H44.0312V59.1094H35.4531V69H30.5625ZM59.0938 60.2969L56.5312 52.9062C56.4583 52.6875 56.3646 52.3125 56.25 51.7812C56.1354 51.25 56.0156 50.599 55.8906 49.8281C55.7552 50.5677 55.625 51.2344 55.5 51.8281C55.375 52.4115 55.2812 52.8021 55.2188 53L52.75 60.2969H59.0938ZM44.5312 69L53.2344 46.125H58.8281L67.6562 69H62.0938L60.2344 64.1406H51.375L49.7812 69H44.5312ZM70.0625 69V46.125H74.9531V64.8438H82.7656V69H70.0625ZM92.6406 50.2812V69H87.7344V50.2812H82.1406V46.125H98.2656V50.2812H92.6406ZM111.531 60.2969L108.969 52.9062C108.896 52.6875 108.802 52.3125 108.688 51.7812C108.573 51.25 108.453 50.599 108.328 49.8281C108.193 50.5677 108.062 51.2344 107.938 51.8281C107.812 52.4115 107.719 52.8021 107.656 53L105.188 60.2969H111.531ZM96.9688 69L105.672 46.125H111.266L120.094 69H114.531L112.672 64.1406H103.812L102.219 69H96.9688ZM144.188 60.2969L141.625 52.9062C141.552 52.6875 141.458 52.3125 141.344 51.7812C141.229 51.25 141.109 50.599 140.984 49.8281C140.849 50.5677 140.719 51.2344 140.594 51.8281C140.469 52.4115 140.375 52.8021 140.312 53L137.844 60.2969H144.188ZM129.625 69L138.328 46.125H143.922L152.75 69H147.188L145.328 64.1406H136.469L134.875 69H129.625ZM173.547 50.2812V69H168.641V50.2812H163.047V46.125H179.172V50.2812H173.547ZM202.016 46.125V60.3594C202.016 63.4635 201.198 65.7812 199.562 67.3125C197.927 68.8438 195.464 69.6094 192.172 69.6094C188.828 69.6094 186.339 68.8438 184.703 67.3125C183.068 65.7812 182.25 63.4635 182.25 60.3594V46.125H187.109V59.5938C187.109 61.4792 187.526 62.901 188.359 63.8594C189.193 64.8073 190.438 65.2812 192.094 65.2812C193.76 65.2812 195.021 64.8021 195.875 63.8438C196.729 62.8854 197.156 61.4688 197.156 59.5938V46.125H202.016ZM216.938 69V46.125H222.016L232.141 59.4375C232.432 59.8125 232.75 60.3438 233.094 61.0312C233.448 61.7083 233.812 62.5104 234.188 63.4375C234.073 62.7604 233.99 62.0885 233.938 61.4219C233.885 60.7552 233.859 59.9219 233.859 58.9219V46.125H238.531V69H233.734L223.328 55.4375C223.036 55.0625 222.719 54.5365 222.375 53.8594C222.031 53.1719 221.667 52.3542 221.281 51.4062C221.396 52.0625 221.479 52.7292 221.531 53.4062C221.583 54.0729 221.609 54.9167 221.609 55.9375V69H216.938ZM243.625 69V46.125H257.094V50.25H248.516V54.9531H257.094V59.1094H248.516V64.8438H257.094V69H243.625ZM273.266 56.9375H283.688C283.708 57.0729 283.719 57.2188 283.719 57.375C283.729 57.5312 283.734 57.7708 283.734 58.0938C283.734 61.5208 282.755 64.2969 280.797 66.4219C278.839 68.5469 276.307 69.6094 273.203 69.6094C269.651 69.6094 266.724 68.4792 264.422 66.2188C262.12 63.9479 260.969 61.0677 260.969 57.5781C260.969 54.1198 262.125 51.2604 264.438 49C266.75 46.7396 269.672 45.6094 273.203 45.6094C275.068 45.6094 276.776 46 278.328 46.7812C279.88 47.5625 281.266 48.7292 282.484 50.2812L279.188 52.7188C278.365 51.6979 277.5 50.9635 276.594 50.5156C275.688 50.0573 274.641 49.8281 273.453 49.8281C271.193 49.8281 269.385 50.5312 268.031 51.9375C266.677 53.3438 266 55.224 266 57.5781C266 59.8906 266.677 61.7604 268.031 63.1875C269.396 64.6042 271.172 65.3125 273.359 65.3125C274.964 65.3125 276.266 64.9375 277.266 64.1875C278.266 63.4271 278.766 62.4375 278.766 61.2188V60.9688H273.266V56.9375ZM311.047 57.6094C311.047 59.2448 310.74 60.7917 310.125 62.25C309.521 63.7083 308.646 64.9896 307.5 66.0938C306.312 67.2292 304.974 68.099 303.484 68.7031C301.995 69.3073 300.453 69.6094 298.859 69.6094C297.464 69.6094 296.094 69.375 294.75 68.9062C293.417 68.4271 292.193 67.7448 291.078 66.8594C289.641 65.7135 288.536 64.3438 287.766 62.75C287.005 61.1562 286.625 59.4427 286.625 57.6094C286.625 55.9635 286.927 54.4219 287.531 52.9844C288.135 51.5365 289.021 50.25 290.188 49.125C291.333 48.0104 292.661 47.1458 294.172 46.5312C295.693 45.9167 297.255 45.6094 298.859 45.6094C300.453 45.6094 302 45.9167 303.5 46.5312C305.01 47.1458 306.344 48.0104 307.5 49.125C308.656 50.25 309.536 51.5365 310.141 52.9844C310.745 54.4323 311.047 55.974 311.047 57.6094ZM298.859 65.25C300.932 65.25 302.641 64.526 303.984 63.0781C305.339 61.6198 306.016 59.7969 306.016 57.6094C306.016 55.4427 305.333 53.6198 303.969 52.1406C302.604 50.6615 300.901 49.9219 298.859 49.9219C296.786 49.9219 295.068 50.6615 293.703 52.1406C292.339 53.6094 291.656 55.4323 291.656 57.6094C291.656 59.8177 292.328 61.6458 293.672 63.0938C295.016 64.5312 296.745 65.25 298.859 65.25ZM333.609 52.0781C332.62 51.1927 331.604 50.5469 330.562 50.1406C329.521 49.724 328.406 49.5156 327.219 49.5156C324.781 49.5156 322.839 50.2448 321.391 51.7031C319.943 53.1615 319.219 55.1198 319.219 57.5781C319.219 59.9844 319.891 61.8958 321.234 63.3125C322.578 64.7188 324.411 65.4219 326.734 65.4219C328.057 65.4219 329.286 65.2031 330.422 64.7656C331.557 64.3177 332.609 63.651 333.578 62.7656L333.547 67.7812C332.505 68.3958 331.411 68.8542 330.266 69.1562C329.13 69.4583 327.932 69.6094 326.672 69.6094C323.026 69.6094 320.031 68.4792 317.688 66.2188C315.354 63.9479 314.188 61.0677 314.188 57.5781C314.188 54.099 315.359 51.2292 317.703 48.9688C320.047 46.7083 323.068 45.5781 326.766 45.5781C328.005 45.5781 329.203 45.7083 330.359 45.9688C331.516 46.2292 332.656 46.6302 333.781 47.1719L333.609 52.0781ZM338.25 69V46.125H343.141V69H338.25ZM371.797 57.6094C371.797 59.2448 371.49 60.7917 370.875 62.25C370.271 63.7083 369.396 64.9896 368.25 66.0938C367.062 67.2292 365.724 68.099 364.234 68.7031C362.745 69.3073 361.203 69.6094 359.609 69.6094C358.214 69.6094 356.844 69.375 355.5 68.9062C354.167 68.4271 352.943 67.7448 351.828 66.8594C350.391 65.7135 349.286 64.3438 348.516 62.75C347.755 61.1562 347.375 59.4427 347.375 57.6094C347.375 55.9635 347.677 54.4219 348.281 52.9844C348.885 51.5365 349.771 50.25 350.938 49.125C352.083 48.0104 353.411 47.1458 354.922 46.5312C356.443 45.9167 358.005 45.6094 359.609 45.6094C361.203 45.6094 362.75 45.9167 364.25 46.5312C365.76 47.1458 367.094 48.0104 368.25 49.125C369.406 50.25 370.286 51.5365 370.891 52.9844C371.495 54.4323 371.797 55.974 371.797 57.6094ZM359.609 65.25C361.682 65.25 363.391 64.526 364.734 63.0781C366.089 61.6198 366.766 59.7969 366.766 57.6094C366.766 55.4427 366.083 53.6198 364.719 52.1406C363.354 50.6615 361.651 49.9219 359.609 49.9219C357.536 49.9219 355.818 50.6615 354.453 52.1406C353.089 53.6094 352.406 55.4323 352.406 57.6094C352.406 59.8177 353.078 61.6458 354.422 63.0938C355.766 64.5312 357.495 65.25 359.609 65.25Z" fill="white"/>
<path d="M27 142H15C10.5817 142 7 138.418 7 134V28" stroke="white" stroke-width="1.5"/>
<circle cx="7" cy="21" r="6.25" stroke="white" stroke-width="1.5"/>
<rect x="25" y="108" width="297" height="70" rx="10" fill="#002A61"/>
<path d="M57.198 133.148L58.8 137H60.474L54.372 122.78L48.108 137H49.764L51.402 133.148H57.198ZM56.604 131.744H52.014L54.336 126.308L56.604 131.744ZM66.0039 129.638C67.7859 129.638 68.8479 131.006 68.8479 132.698C68.8479 134.408 67.8759 135.902 66.0219 135.902C64.2219 135.902 63.2499 134.336 63.2499 132.68C63.2499 131.096 64.3299 129.638 66.0039 129.638ZM63.3219 128.54H61.8819V141.752H63.3219V135.812H63.3579C64.0419 136.73 65.1039 137.234 66.2559 137.234C68.7939 137.234 70.3239 135.2 70.3239 132.788C70.3239 130.448 68.7579 128.306 66.2739 128.306C65.1039 128.306 64.0599 128.81 63.3579 129.746H63.3219V128.54ZM76.0326 137.234C78.4986 137.234 80.4786 135.272 80.4786 132.788C80.4786 130.304 78.5166 128.306 76.0326 128.306C73.5486 128.306 71.5866 130.304 71.5866 132.788C71.5866 135.272 73.5666 137.234 76.0326 137.234ZM76.0326 129.638C77.8146 129.638 79.0386 131.06 79.0386 132.77C79.0386 134.498 77.8146 135.902 76.0326 135.902C74.2506 135.902 73.0266 134.498 73.0266 132.77C73.0266 131.06 74.2506 129.638 76.0326 129.638ZM84.934 136.208L82.198 141.752H83.836L90.082 128.54H88.444L85.708 134.606L82.72 128.54H81.046L84.934 136.208ZM94.9249 129.638C96.7069 129.638 97.7689 131.006 97.7689 132.698C97.7689 134.408 96.7969 135.902 94.9429 135.902C93.1429 135.902 92.1709 134.336 92.1709 132.68C92.1709 131.096 93.2509 129.638 94.9249 129.638ZM99.1369 128.54H97.6969V129.746H97.6609C96.9589 128.846 95.9149 128.306 94.7629 128.306C92.2249 128.306 90.6949 130.376 90.6949 132.788C90.6949 135.128 92.2609 137.234 94.7449 137.234C95.9329 137.234 96.9229 136.766 97.6609 135.83H97.6969V137H99.1369V128.54ZM103.532 135.668L109.616 128.54H101.75V129.872H106.718L100.616 137H109.364V135.668H103.532ZM112.578 128.54H111.138V137H112.578V132.626C112.578 131.348 112.758 129.638 114.45 129.638C115.836 129.638 115.962 131.15 115.962 132.194V137H117.402V132.518C117.402 131.24 117.582 129.638 119.238 129.638C120.714 129.638 120.786 130.988 120.786 132.086V137H122.226V131.852C122.226 130.07 121.686 128.306 119.526 128.306C118.5 128.306 117.492 128.774 116.988 129.71C116.538 128.828 115.638 128.306 114.648 128.306C113.784 128.306 113.064 128.756 112.614 129.458H112.578V128.54ZM128.644 137.234C131.11 137.234 133.09 135.272 133.09 132.788C133.09 130.304 131.128 128.306 128.644 128.306C126.16 128.306 124.198 130.304 124.198 132.788C124.198 135.272 126.178 137.234 128.644 137.234ZM128.644 129.638C130.426 129.638 131.65 131.06 131.65 132.77C131.65 134.498 130.426 135.902 128.644 135.902C126.862 135.902 125.638 134.498 125.638 132.77C125.638 131.06 126.862 129.638 128.644 129.638ZM139.687 129.872C139.309 128.99 138.409 128.306 137.437 128.306C136.069 128.306 134.917 129.278 134.917 130.7C134.917 133.364 138.733 132.716 138.733 134.606C138.733 135.38 138.139 135.902 137.365 135.902C136.411 135.902 135.997 135.344 135.637 134.552L134.359 135.092C134.809 136.424 135.925 137.234 137.347 137.234C138.913 137.234 140.209 136.082 140.209 134.48C140.209 133.058 139.237 132.464 138.247 132.05C137.257 131.636 136.285 131.348 136.285 130.574C136.285 130.034 136.825 129.638 137.329 129.638C137.851 129.638 138.283 130.052 138.481 130.502L139.687 129.872ZM149.192 122.15H147.752V137H149.192V122.15ZM155.376 129.638C157.158 129.638 158.22 131.006 158.22 132.698C158.22 134.408 157.248 135.902 155.394 135.902C153.594 135.902 152.622 134.336 152.622 132.68C152.622 131.096 153.702 129.638 155.376 129.638ZM159.588 128.54H158.148V129.746H158.112C157.41 128.846 156.366 128.306 155.214 128.306C152.676 128.306 151.146 130.376 151.146 132.788C151.146 135.128 152.712 137.234 155.196 137.234C156.384 137.234 157.374 136.766 158.112 135.83H158.148V137H159.588V128.54ZM166.881 129.872C166.503 128.99 165.603 128.306 164.631 128.306C163.263 128.306 162.111 129.278 162.111 130.7C162.111 133.364 165.927 132.716 165.927 134.606C165.927 135.38 165.333 135.902 164.559 135.902C163.605 135.902 163.191 135.344 162.831 134.552L161.553 135.092C162.003 136.424 163.119 137.234 164.541 137.234C166.107 137.234 167.403 136.082 167.403 134.48C167.403 133.058 166.431 132.464 165.441 132.05C164.451 131.636 163.479 131.348 163.479 130.574C163.479 130.034 164.019 129.638 164.523 129.638C165.045 129.638 165.477 130.052 165.675 130.502L166.881 129.872ZM174.729 127.766H177.987V128.936C178.431 128.396 178.881 128.036 179.337 127.856C179.793 127.664 180.327 127.568 180.939 127.568C181.587 127.568 182.139 127.676 182.595 127.892C183.063 128.096 183.459 128.39 183.783 128.774C184.047 129.086 184.227 129.434 184.323 129.818C184.419 130.202 184.467 130.64 184.467 131.132V137H181.209V132.338C181.209 131.882 181.173 131.516 181.101 131.24C181.041 130.952 180.927 130.724 180.759 130.556C180.615 130.412 180.453 130.31 180.273 130.25C180.093 130.19 179.901 130.16 179.697 130.16C179.145 130.16 178.719 130.328 178.419 130.664C178.131 130.988 177.987 131.456 177.987 132.068V137H174.729V127.766ZM193.432 131.042C193.324 130.586 193.102 130.22 192.766 129.944C192.43 129.668 192.022 129.53 191.542 129.53C191.038 129.53 190.624 129.662 190.3 129.926C189.988 130.19 189.79 130.562 189.706 131.042H193.432ZM189.616 132.932C189.616 134.336 190.276 135.038 191.596 135.038C192.304 135.038 192.838 134.75 193.198 134.174H196.348C195.712 136.286 194.122 137.342 191.578 137.342C190.798 137.342 190.084 137.228 189.436 137C188.788 136.76 188.23 136.424 187.762 135.992C187.306 135.56 186.952 135.044 186.7 134.444C186.448 133.844 186.322 133.172 186.322 132.428C186.322 131.66 186.442 130.97 186.682 130.358C186.922 129.734 187.264 129.206 187.708 128.774C188.152 128.342 188.686 128.012 189.31 127.784C189.946 127.544 190.66 127.424 191.452 127.424C192.232 127.424 192.934 127.544 193.558 127.784C194.182 128.012 194.71 128.348 195.142 128.792C195.574 129.236 195.904 129.782 196.132 130.43C196.36 131.066 196.474 131.786 196.474 132.59V132.932H189.616ZM205.303 130.754C204.739 130.37 204.169 130.178 203.593 130.178C203.281 130.178 202.987 130.232 202.711 130.34C202.447 130.448 202.213 130.604 202.009 130.808C201.805 131 201.643 131.234 201.523 131.51C201.415 131.774 201.361 132.074 201.361 132.41C201.361 132.734 201.415 133.034 201.523 133.31C201.643 133.574 201.799 133.808 201.991 134.012C202.195 134.204 202.435 134.354 202.711 134.462C202.987 134.57 203.281 134.624 203.593 134.624C204.205 134.624 204.775 134.414 205.303 133.994V136.766C204.499 137.114 203.737 137.288 203.017 137.288C202.345 137.288 201.703 137.174 201.091 136.946C200.491 136.718 199.957 136.394 199.489 135.974C199.033 135.542 198.667 135.032 198.391 134.444C198.115 133.844 197.977 133.178 197.977 132.446C197.977 131.714 198.109 131.048 198.373 130.448C198.637 129.836 198.997 129.314 199.453 128.882C199.909 128.438 200.449 128.096 201.073 127.856C201.709 127.604 202.387 127.478 203.107 127.478C203.899 127.478 204.631 127.646 205.303 127.982V130.754ZM213.911 131.042C213.803 130.586 213.581 130.22 213.245 129.944C212.909 129.668 212.501 129.53 212.021 129.53C211.517 129.53 211.103 129.662 210.779 129.926C210.467 130.19 210.269 130.562 210.185 131.042H213.911ZM210.095 132.932C210.095 134.336 210.755 135.038 212.075 135.038C212.783 135.038 213.317 134.75 213.677 134.174H216.827C216.191 136.286 214.601 137.342 212.057 137.342C211.277 137.342 210.563 137.228 209.915 137C209.267 136.76 208.709 136.424 208.241 135.992C207.785 135.56 207.431 135.044 207.179 134.444C206.927 133.844 206.801 133.172 206.801 132.428C206.801 131.66 206.921 130.97 207.161 130.358C207.401 129.734 207.743 129.206 208.187 128.774C208.631 128.342 209.165 128.012 209.789 127.784C210.425 127.544 211.139 127.424 211.931 127.424C212.711 127.424 213.413 127.544 214.037 127.784C214.661 128.012 215.189 128.348 215.621 128.792C216.053 129.236 216.383 129.782 216.611 130.43C216.839 131.066 216.953 131.786 216.953 132.59V132.932H210.095ZM224.935 130.142C224.335 129.83 223.747 129.674 223.171 129.674C222.871 129.674 222.625 129.734 222.433 129.854C222.253 129.974 222.163 130.136 222.163 130.34C222.163 130.448 222.175 130.538 222.199 130.61C222.235 130.67 222.301 130.73 222.397 130.79C222.505 130.85 222.655 130.904 222.847 130.952C223.051 131 223.315 131.06 223.639 131.132C224.539 131.312 225.211 131.636 225.655 132.104C226.099 132.56 226.321 133.148 226.321 133.868C226.321 134.408 226.213 134.894 225.997 135.326C225.781 135.758 225.481 136.124 225.097 136.424C224.713 136.712 224.251 136.934 223.711 137.09C223.171 137.258 222.577 137.342 221.929 137.342C220.681 137.342 219.451 136.988 218.239 136.28L219.427 133.976C220.339 134.6 221.203 134.912 222.019 134.912C222.319 134.912 222.565 134.846 222.757 134.714C222.949 134.582 223.045 134.414 223.045 134.21C223.045 134.09 223.027 133.994 222.991 133.922C222.967 133.838 222.907 133.766 222.811 133.706C222.715 133.634 222.571 133.574 222.379 133.526C222.199 133.466 221.959 133.406 221.659 133.346C220.651 133.142 219.943 132.842 219.535 132.446C219.139 132.038 218.941 131.48 218.941 130.772C218.941 130.256 219.037 129.794 219.229 129.386C219.421 128.966 219.697 128.612 220.057 128.324C220.417 128.036 220.849 127.814 221.353 127.658C221.869 127.502 222.439 127.424 223.063 127.424C224.083 127.424 225.073 127.622 226.033 128.018L224.935 130.142ZM231.231 127.766V137H227.973V127.766H231.231ZM227.757 124.22C227.757 123.968 227.805 123.734 227.901 123.518C227.997 123.29 228.129 123.092 228.297 122.924C228.465 122.756 228.657 122.624 228.873 122.528C229.101 122.432 229.341 122.384 229.593 122.384C229.845 122.384 230.079 122.432 230.295 122.528C230.523 122.624 230.721 122.756 230.889 122.924C231.057 123.092 231.189 123.29 231.285 123.518C231.381 123.734 231.429 123.968 231.429 124.22C231.429 124.472 231.381 124.712 231.285 124.94C231.189 125.156 231.057 125.348 230.889 125.516C230.721 125.684 230.523 125.816 230.295 125.912C230.079 126.008 229.845 126.056 229.593 126.056C229.341 126.056 229.101 126.008 228.873 125.912C228.657 125.816 228.465 125.684 228.297 125.516C228.129 125.348 227.997 125.156 227.901 124.94C227.805 124.712 227.757 124.472 227.757 124.22ZM236.482 132.356C236.482 132.656 236.536 132.938 236.644 133.202C236.752 133.454 236.896 133.676 237.076 133.868C237.268 134.06 237.49 134.21 237.742 134.318C238.006 134.426 238.288 134.48 238.588 134.48C238.876 134.48 239.146 134.426 239.398 134.318C239.662 134.21 239.884 134.06 240.064 133.868C240.256 133.676 240.406 133.454 240.514 133.202C240.634 132.95 240.694 132.68 240.694 132.392C240.694 132.104 240.634 131.834 240.514 131.582C240.406 131.318 240.256 131.09 240.064 130.898C239.884 130.706 239.662 130.556 239.398 130.448C239.146 130.34 238.876 130.286 238.588 130.286C238.3 130.286 238.024 130.34 237.76 130.448C237.508 130.556 237.286 130.706 237.094 130.898C236.914 131.09 236.764 131.312 236.644 131.564C236.536 131.804 236.482 132.068 236.482 132.356ZM240.586 122.06H243.862V137H240.586V135.974C239.89 136.85 238.948 137.288 237.76 137.288C237.088 137.288 236.47 137.162 235.906 136.91C235.342 136.658 234.85 136.31 234.43 135.866C234.01 135.422 233.68 134.9 233.44 134.3C233.212 133.7 233.098 133.052 233.098 132.356C233.098 131.696 233.206 131.072 233.422 130.484C233.65 129.884 233.968 129.362 234.376 128.918C234.784 128.474 235.27 128.126 235.834 127.874C236.41 127.61 237.04 127.478 237.724 127.478C238.876 127.478 239.83 127.88 240.586 128.684V122.06ZM249.103 132.356C249.103 132.656 249.157 132.938 249.265 133.202C249.373 133.454 249.517 133.676 249.697 133.868C249.889 134.06 250.111 134.21 250.363 134.318C250.627 134.426 250.909 134.48 251.209 134.48C251.497 134.48 251.767 134.426 252.019 134.318C252.283 134.21 252.505 134.06 252.685 133.868C252.877 133.676 253.027 133.454 253.135 133.202C253.255 132.95 253.315 132.68 253.315 132.392C253.315 132.104 253.255 131.834 253.135 131.582C253.027 131.318 252.877 131.09 252.685 130.898C252.505 130.706 252.283 130.556 252.019 130.448C251.767 130.34 251.497 130.286 251.209 130.286C250.909 130.286 250.627 130.34 250.363 130.448C250.111 130.556 249.889 130.706 249.697 130.898C249.517 131.09 249.373 131.312 249.265 131.564C249.157 131.804 249.103 132.068 249.103 132.356ZM253.207 127.766H256.483V137H253.207V135.974C252.511 136.85 251.569 137.288 250.381 137.288C249.709 137.288 249.091 137.168 248.527 136.928C247.963 136.676 247.471 136.328 247.051 135.884C246.631 135.44 246.301 134.918 246.061 134.318C245.833 133.718 245.719 133.064 245.719 132.356C245.719 131.696 245.833 131.072 246.061 130.484C246.289 129.884 246.607 129.362 247.015 128.918C247.423 128.474 247.909 128.126 248.473 127.874C249.037 127.61 249.661 127.478 250.345 127.478C251.497 127.478 252.451 127.88 253.207 128.684V127.766ZM261.724 132.356C261.724 132.656 261.778 132.938 261.886 133.202C261.994 133.454 262.138 133.676 262.318 133.868C262.51 134.06 262.732 134.21 262.984 134.318C263.248 134.426 263.53 134.48 263.83 134.48C264.118 134.48 264.388 134.426 264.64 134.318C264.904 134.21 265.126 134.06 265.306 133.868C265.498 133.676 265.648 133.454 265.756 133.202C265.876 132.95 265.936 132.68 265.936 132.392C265.936 132.104 265.876 131.834 265.756 131.582C265.648 131.318 265.498 131.09 265.306 130.898C265.126 130.706 264.904 130.556 264.64 130.448C264.388 130.34 264.118 130.286 263.83 130.286C263.542 130.286 263.266 130.34 263.002 130.448C262.75 130.556 262.528 130.706 262.336 130.898C262.156 131.09 262.006 131.312 261.886 131.564C261.778 131.804 261.724 132.068 261.724 132.356ZM265.828 122.06H269.104V137H265.828V135.974C265.132 136.85 264.19 137.288 263.002 137.288C262.33 137.288 261.712 137.162 261.148 136.91C260.584 136.658 260.092 136.31 259.672 135.866C259.252 135.422 258.922 134.9 258.682 134.3C258.454 133.7 258.34 133.052 258.34 132.356C258.34 131.696 258.448 131.072 258.664 130.484C258.892 129.884 259.21 129.362 259.618 128.918C260.026 128.474 260.512 128.126 261.076 127.874C261.652 127.61 262.282 127.478 262.966 127.478C264.118 127.478 265.072 127.88 265.828 128.684V122.06ZM278.071 131.042C277.963 130.586 277.741 130.22 277.405 129.944C277.069 129.668 276.661 129.53 276.181 129.53C275.677 129.53 275.263 129.662 274.939 129.926C274.627 130.19 274.429 130.562 274.345 131.042H278.071ZM274.255 132.932C274.255 134.336 274.915 135.038 276.235 135.038C276.943 135.038 277.477 134.75 277.837 134.174H280.987C280.351 136.286 278.761 137.342 276.217 137.342C275.437 137.342 274.723 137.228 274.075 137C273.427 136.76 272.869 136.424 272.401 135.992C271.945 135.56 271.591 135.044 271.339 134.444C271.087 133.844 270.961 133.172 270.961 132.428C270.961 131.66 271.081 130.97 271.321 130.358C271.561 129.734 271.903 129.206 272.347 128.774C272.791 128.342 273.325 128.012 273.949 127.784C274.585 127.544 275.299 127.424 276.091 127.424C276.871 127.424 277.573 127.544 278.197 127.784C278.821 128.012 279.349 128.348 279.781 128.792C280.213 129.236 280.543 129.782 280.771 130.43C280.999 131.066 281.113 131.786 281.113 132.59V132.932H274.255ZM289.095 130.142C288.495 129.83 287.907 129.674 287.331 129.674C287.031 129.674 286.785 129.734 286.593 129.854C286.413 129.974 286.323 130.136 286.323 130.34C286.323 130.448 286.335 130.538 286.359 130.61C286.395 130.67 286.461 130.73 286.557 130.79C286.665 130.85 286.815 130.904 287.007 130.952C287.211 131 287.475 131.06 287.799 131.132C288.699 131.312 289.371 131.636 289.815 132.104C290.259 132.56 290.481 133.148 290.481 133.868C290.481 134.408 290.373 134.894 290.157 135.326C289.941 135.758 289.641 136.124 289.257 136.424C288.873 136.712 288.411 136.934 287.871 137.09C287.331 137.258 286.737 137.342 286.089 137.342C284.841 137.342 283.611 136.988 282.399 136.28L283.587 133.976C284.499 134.6 285.363 134.912 286.179 134.912C286.479 134.912 286.725 134.846 286.917 134.714C287.109 134.582 287.205 134.414 287.205 134.21C287.205 134.09 287.187 133.994 287.151 133.922C287.127 133.838 287.067 133.766 286.971 133.706C286.875 133.634 286.731 133.574 286.539 133.526C286.359 133.466 286.119 133.406 285.819 133.346C284.811 133.142 284.103 132.842 283.695 132.446C283.299 132.038 283.101 131.48 283.101 130.772C283.101 130.256 283.197 129.794 283.389 129.386C283.581 128.966 283.857 128.612 284.217 128.324C284.577 128.036 285.009 127.814 285.513 127.658C286.029 127.502 286.599 127.424 287.223 127.424C288.243 127.424 289.233 127.622 290.193 128.018L289.095 130.142ZM52.14 156.356C52.14 156.656 52.194 156.938 52.302 157.202C52.41 157.454 52.554 157.676 52.734 157.868C52.926 158.06 53.148 158.21 53.4 158.318C53.664 158.426 53.946 158.48 54.246 158.48C54.534 158.48 54.804 158.426 55.056 158.318C55.32 158.21 55.542 158.06 55.722 157.868C55.914 157.676 56.064 157.454 56.172 157.202C56.292 156.95 56.352 156.68 56.352 156.392C56.352 156.104 56.292 155.834 56.172 155.582C56.064 155.318 55.914 155.09 55.722 154.898C55.542 154.706 55.32 154.556 55.056 154.448C54.804 154.34 54.534 154.286 54.246 154.286C53.958 154.286 53.682 154.34 53.418 154.448C53.166 154.556 52.944 154.706 52.752 154.898C52.572 155.09 52.422 155.312 52.302 155.564C52.194 155.804 52.14 156.068 52.14 156.356ZM56.244 146.06H59.52V161H56.244V159.974C55.548 160.85 54.606 161.288 53.418 161.288C52.746 161.288 52.128 161.162 51.564 160.91C51 160.658 50.508 160.31 50.088 159.866C49.668 159.422 49.338 158.9 49.098 158.3C48.87 157.7 48.756 157.052 48.756 156.356C48.756 155.696 48.864 155.072 49.08 154.484C49.308 153.884 49.626 153.362 50.034 152.918C50.442 152.474 50.928 152.126 51.492 151.874C52.068 151.61 52.698 151.478 53.382 151.478C54.534 151.478 55.488 151.88 56.244 152.684V146.06ZM68.4871 155.042C68.3791 154.586 68.1571 154.22 67.8211 153.944C67.4851 153.668 67.0771 153.53 66.5971 153.53C66.0931 153.53 65.6791 153.662 65.3551 153.926C65.0431 154.19 64.8451 154.562 64.7611 155.042H68.4871ZM64.6711 156.932C64.6711 158.336 65.3311 159.038 66.6511 159.038C67.3591 159.038 67.8931 158.75 68.2531 158.174H71.4031C70.7671 160.286 69.1771 161.342 66.6331 161.342C65.8531 161.342 65.1391 161.228 64.4911 161C63.8431 160.76 63.2851 160.424 62.8171 159.992C62.3611 159.56 62.0071 159.044 61.7551 158.444C61.5031 157.844 61.3771 157.172 61.3771 156.428C61.3771 155.66 61.4971 154.97 61.7371 154.358C61.9771 153.734 62.3191 153.206 62.7631 152.774C63.2071 152.342 63.7411 152.012 64.3651 151.784C65.0011 151.544 65.7151 151.424 66.5071 151.424C67.2871 151.424 67.9891 151.544 68.6131 151.784C69.2371 152.012 69.7651 152.348 70.1971 152.792C70.6291 153.236 70.9591 153.782 71.1871 154.43C71.4151 155.066 71.5291 155.786 71.5291 156.59V156.932H64.6711ZM83.1446 154.484V161H79.8866V154.484H78.8066V151.766H79.8866V148.994H83.1446V151.766H84.9986V154.484H83.1446ZM89.4814 151.766V156.968C89.4814 158.108 90.0334 158.678 91.1374 158.678C92.2414 158.678 92.7934 158.108 92.7934 156.968V151.766H96.0514V157.598C96.0514 158.846 95.6374 159.782 94.8094 160.406C93.9934 161.03 92.7694 161.342 91.1374 161.342C89.5054 161.342 88.2754 161.03 87.4474 160.406C86.6314 159.782 86.2234 158.846 86.2234 157.598V151.766H89.4814ZM111.348 154.754C110.784 154.37 110.214 154.178 109.638 154.178C109.326 154.178 109.032 154.232 108.756 154.34C108.492 154.448 108.258 154.604 108.054 154.808C107.85 155 107.688 155.234 107.568 155.51C107.46 155.774 107.406 156.074 107.406 156.41C107.406 156.734 107.46 157.034 107.568 157.31C107.688 157.574 107.844 157.808 108.036 158.012C108.24 158.204 108.48 158.354 108.756 158.462C109.032 158.57 109.326 158.624 109.638 158.624C110.25 158.624 110.82 158.414 111.348 157.994V160.766C110.544 161.114 109.782 161.288 109.062 161.288C108.39 161.288 107.748 161.174 107.136 160.946C106.536 160.718 106.002 160.394 105.534 159.974C105.078 159.542 104.712 159.032 104.436 158.444C104.16 157.844 104.022 157.178 104.022 156.446C104.022 155.714 104.154 155.048 104.418 154.448C104.682 153.836 105.042 153.314 105.498 152.882C105.954 152.438 106.494 152.096 107.118 151.856C107.754 151.604 108.432 151.478 109.152 151.478C109.944 151.478 110.676 151.646 111.348 151.982V154.754ZM116.23 156.356C116.23 156.656 116.284 156.938 116.392 157.202C116.5 157.454 116.644 157.676 116.824 157.868C117.016 158.06 117.238 158.21 117.49 158.318C117.754 158.426 118.036 158.48 118.336 158.48C118.624 158.48 118.894 158.426 119.146 158.318C119.41 158.21 119.632 158.06 119.812 157.868C120.004 157.676 120.154 157.454 120.262 157.202C120.382 156.95 120.442 156.68 120.442 156.392C120.442 156.104 120.382 155.834 120.262 155.582C120.154 155.318 120.004 155.09 119.812 154.898C119.632 154.706 119.41 154.556 119.146 154.448C118.894 154.34 118.624 154.286 118.336 154.286C118.036 154.286 117.754 154.34 117.49 154.448C117.238 154.556 117.016 154.706 116.824 154.898C116.644 155.09 116.5 155.312 116.392 155.564C116.284 155.804 116.23 156.068 116.23 156.356ZM120.334 151.766H123.61V161H120.334V159.974C119.638 160.85 118.696 161.288 117.508 161.288C116.836 161.288 116.218 161.168 115.654 160.928C115.09 160.676 114.598 160.328 114.178 159.884C113.758 159.44 113.428 158.918 113.188 158.318C112.96 157.718 112.846 157.064 112.846 156.356C112.846 155.696 112.96 155.072 113.188 154.484C113.416 153.884 113.734 153.362 114.142 152.918C114.55 152.474 115.036 152.126 115.6 151.874C116.164 151.61 116.788 151.478 117.472 151.478C118.624 151.478 119.578 151.88 120.334 152.684V151.766ZM133.189 156.41C133.189 156.122 133.135 155.852 133.027 155.6C132.931 155.336 132.787 155.108 132.595 154.916C132.403 154.724 132.175 154.574 131.911 154.466C131.659 154.346 131.383 154.286 131.083 154.286C130.795 154.286 130.525 154.34 130.273 154.448C130.021 154.556 129.799 154.706 129.607 154.898C129.427 155.09 129.277 155.318 129.157 155.582C129.049 155.834 128.995 156.104 128.995 156.392C128.995 156.68 129.049 156.95 129.157 157.202C129.265 157.454 129.415 157.676 129.607 157.868C129.799 158.048 130.021 158.198 130.273 158.318C130.537 158.426 130.813 158.48 131.101 158.48C131.389 158.48 131.659 158.426 131.911 158.318C132.163 158.21 132.379 158.06 132.559 157.868C132.751 157.676 132.901 157.454 133.009 157.202C133.129 156.95 133.189 156.686 133.189 156.41ZM129.085 165.608H125.827V151.766H129.085V152.792C129.781 151.916 130.729 151.478 131.929 151.478C132.589 151.478 133.201 151.61 133.765 151.874C134.341 152.126 134.839 152.474 135.259 152.918C135.679 153.362 136.003 153.884 136.231 154.484C136.471 155.084 136.591 155.726 136.591 156.41C136.591 157.094 136.471 157.73 136.231 158.318C136.003 158.906 135.679 159.422 135.259 159.866C134.851 160.31 134.365 160.658 133.801 160.91C133.237 161.162 132.625 161.288 131.965 161.288C130.813 161.288 129.853 160.892 129.085 160.1V165.608ZM141.706 151.766V161H138.448V151.766H141.706ZM138.232 148.22C138.232 147.968 138.28 147.734 138.376 147.518C138.472 147.29 138.604 147.092 138.772 146.924C138.94 146.756 139.132 146.624 139.348 146.528C139.576 146.432 139.816 146.384 140.068 146.384C140.32 146.384 140.554 146.432 140.77 146.528C140.998 146.624 141.196 146.756 141.364 146.924C141.532 147.092 141.664 147.29 141.76 147.518C141.856 147.734 141.904 147.968 141.904 148.22C141.904 148.472 141.856 148.712 141.76 148.94C141.664 149.156 141.532 149.348 141.364 149.516C141.196 149.684 140.998 149.816 140.77 149.912C140.554 150.008 140.32 150.056 140.068 150.056C139.816 150.056 139.576 150.008 139.348 149.912C139.132 149.816 138.94 149.684 138.772 149.516C138.604 149.348 138.472 149.156 138.376 148.94C138.28 148.712 138.232 148.472 138.232 148.22ZM147.568 154.484V161H144.31V154.484H143.23V151.766H144.31V148.994H147.568V151.766H149.422V154.484H147.568ZM153.847 156.356C153.847 156.656 153.901 156.938 154.009 157.202C154.117 157.454 154.261 157.676 154.441 157.868C154.633 158.06 154.855 158.21 155.107 158.318C155.371 158.426 155.653 158.48 155.953 158.48C156.241 158.48 156.511 158.426 156.763 158.318C157.027 158.21 157.249 158.06 157.429 157.868C157.621 157.676 157.771 157.454 157.879 157.202C157.999 156.95 158.059 156.68 158.059 156.392C158.059 156.104 157.999 155.834 157.879 155.582C157.771 155.318 157.621 155.09 157.429 154.898C157.249 154.706 157.027 154.556 156.763 154.448C156.511 154.34 156.241 154.286 155.953 154.286C155.653 154.286 155.371 154.34 155.107 154.448C154.855 154.556 154.633 154.706 154.441 154.898C154.261 155.09 154.117 155.312 154.009 155.564C153.901 155.804 153.847 156.068 153.847 156.356ZM157.951 151.766H161.227V161H157.951V159.974C157.255 160.85 156.313 161.288 155.125 161.288C154.453 161.288 153.835 161.168 153.271 160.928C152.707 160.676 152.215 160.328 151.795 159.884C151.375 159.44 151.045 158.918 150.805 158.318C150.577 157.718 150.463 157.064 150.463 156.356C150.463 155.696 150.577 155.072 150.805 154.484C151.033 153.884 151.351 153.362 151.759 152.918C152.167 152.474 152.653 152.126 153.217 151.874C153.781 151.61 154.405 151.478 155.089 151.478C156.241 151.478 157.195 151.88 157.951 152.684V151.766ZM166.702 146.06V161H163.444V146.06H166.702ZM178.228 153.638C180.01 153.638 181.072 155.006 181.072 156.698C181.072 158.408 180.1 159.902 178.246 159.902C176.446 159.902 175.474 158.336 175.474 156.68C175.474 155.096 176.554 153.638 178.228 153.638ZM181 161H182.44V146.15H181V153.746H180.964C180.28 152.846 179.2 152.306 178.066 152.306C175.528 152.306 173.998 154.376 173.998 156.788C173.998 159.128 175.564 161.234 178.048 161.234C179.2 161.234 180.262 160.748 180.964 159.83H181V161ZM192.468 157.076C192.612 154.556 191.172 152.306 188.454 152.306C185.808 152.306 184.35 154.376 184.35 156.878C184.35 159.308 185.97 161.234 188.49 161.234C190.218 161.234 191.586 160.37 192.396 158.858L191.172 158.156C190.614 159.164 189.822 159.902 188.598 159.902C186.96 159.902 185.844 158.642 185.826 157.076H192.468ZM185.898 155.852C186.078 154.628 187.23 153.638 188.472 153.638C189.732 153.638 190.758 154.628 190.956 155.852H185.898ZM201.489 153.872H203.001V152.54H201.489V149.498H200.049V152.54H199.167V153.872H200.049V161H201.489V153.872ZM205.67 152.54H204.23V161H205.67V156.77C205.67 155.672 205.742 153.638 207.326 153.638C207.704 153.638 207.902 153.818 208.19 154.016L208.874 152.702C208.46 152.468 208.064 152.306 207.578 152.306C206.642 152.306 206.21 152.792 205.706 153.458H205.67V152.54ZM213.841 153.638C215.623 153.638 216.685 155.006 216.685 156.698C216.685 158.408 215.713 159.902 213.859 159.902C212.059 159.902 211.087 158.336 211.087 156.68C211.087 155.096 212.167 153.638 213.841 153.638ZM218.053 152.54H216.613V153.746H216.577C215.875 152.846 214.831 152.306 213.679 152.306C211.141 152.306 209.611 154.376 209.611 156.788C209.611 159.128 211.177 161.234 213.661 161.234C214.849 161.234 215.839 160.766 216.577 159.83H216.613V161H218.053V152.54ZM224.77 153.638C226.552 153.638 227.614 155.006 227.614 156.698C227.614 158.408 226.642 159.902 224.788 159.902C222.988 159.902 222.016 158.336 222.016 156.68C222.016 155.096 223.096 153.638 224.77 153.638ZM220.648 161H222.088V159.83H222.124C222.808 160.748 223.87 161.234 225.04 161.234C227.524 161.234 229.09 159.128 229.09 156.77C229.09 154.376 227.542 152.306 225.022 152.306C223.87 152.306 222.808 152.846 222.124 153.746H222.088V146.15H220.648V161ZM234.618 153.638C236.4 153.638 237.462 155.006 237.462 156.698C237.462 158.408 236.49 159.902 234.636 159.902C232.836 159.902 231.864 158.336 231.864 156.68C231.864 155.096 232.944 153.638 234.618 153.638ZM238.83 152.54H237.39V153.746H237.354C236.652 152.846 235.608 152.306 234.456 152.306C231.918 152.306 230.388 154.376 230.388 156.788C230.388 159.128 231.954 161.234 234.438 161.234C235.626 161.234 236.616 160.766 237.354 159.83H237.39V161H238.83V152.54ZM243.207 152.54H241.767V165.752H243.207V152.54ZM242.487 148.328C241.929 148.328 241.461 148.796 241.461 149.354C241.461 149.93 241.929 150.38 242.487 150.38C243.045 150.38 243.513 149.93 243.513 149.354C243.513 148.796 243.045 148.328 242.487 148.328ZM249.898 161.234C252.364 161.234 254.344 159.272 254.344 156.788C254.344 154.304 252.382 152.306 249.898 152.306C247.414 152.306 245.452 154.304 245.452 156.788C245.452 159.272 247.432 161.234 249.898 161.234ZM249.898 153.638C251.68 153.638 252.904 155.06 252.904 156.77C252.904 158.498 251.68 159.902 249.898 159.902C248.116 159.902 246.892 158.498 246.892 156.77C246.892 155.06 248.116 153.638 249.898 153.638Z" fill="white"/>
</svg>
