<svg width="504" height="228" viewBox="0 0 504 228" fill="none" xmlns="http://www.w3.org/2000/svg">
<path d="M35.4844 18.4531H36.1875C37.5208 18.4531 38.4896 18.1771 39.0938 17.625C39.6979 17.0729 40 16.1875 40 14.9688C40 13.8438 39.6979 13.026 39.0938 12.5156C38.4896 11.9948 37.5208 11.7344 36.1875 11.7344H35.4844V18.4531ZM30.5625 31V8.125H36.1875C39.1875 8.125 41.401 8.69792 42.8281 9.84375C44.2656 10.9896 44.9844 12.7604 44.9844 15.1562C44.9844 17.375 44.2604 19.1146 42.8125 20.375C41.375 21.6354 39.3802 22.2656 36.8281 22.2656H35.4844V31H30.5625ZM64.9219 31H59.2812L53.2656 20.3125V31H48.375V8.125H55.375C58.1562 8.125 60.2396 8.66667 61.625 9.75C63.0104 10.8229 63.7031 12.4427 63.7031 14.6094C63.7031 16.1823 63.2292 17.526 62.2812 18.6406C61.3333 19.7552 60.1094 20.4062 58.6094 20.5938L64.9219 31ZM53.2656 17.875H54C55.9792 17.875 57.2865 17.6615 57.9219 17.2344C58.5573 16.7969 58.875 16.0417 58.875 14.9688C58.875 13.8438 58.5312 13.0469 57.8438 12.5781C57.1667 12.099 55.8854 11.8594 54 11.8594H53.2656V17.875ZM91.2031 19.6094C91.2031 21.2448 90.8958 22.7917 90.2812 24.25C89.6771 25.7083 88.8021 26.9896 87.6562 28.0938C86.4688 29.2292 85.1302 30.099 83.6406 30.7031C82.151 31.3073 80.6094 31.6094 79.0156 31.6094C77.6198 31.6094 76.25 31.375 74.9062 30.9062C73.5729 30.4271 72.349 29.7448 71.2344 28.8594C69.7969 27.7135 68.6927 26.3438 67.9219 24.75C67.1615 23.1562 66.7812 21.4427 66.7812 19.6094C66.7812 17.9635 67.0833 16.4219 67.6875 14.9844C68.2917 13.5365 69.1771 12.25 70.3438 11.125C71.4896 10.0104 72.8177 9.14583 74.3281 8.53125C75.849 7.91667 77.4115 7.60938 79.0156 7.60938C80.6094 7.60938 82.1562 7.91667 83.6562 8.53125C85.1667 9.14583 86.5 10.0104 87.6562 11.125C88.8125 12.25 89.6927 13.5365 90.2969 14.9844C90.901 16.4323 91.2031 17.974 91.2031 19.6094ZM79.0156 27.25C81.0885 27.25 82.7969 26.526 84.1406 25.0781C85.4948 23.6198 86.1719 21.7969 86.1719 19.6094C86.1719 17.4427 85.4896 15.6198 84.125 14.1406C82.7604 12.6615 81.0573 11.9219 79.0156 11.9219C76.9427 11.9219 75.224 12.6615 73.8594 14.1406C72.4948 15.6094 71.8125 17.4323 71.8125 19.6094C71.8125 21.8177 72.4844 23.6458 73.8281 25.0938C75.1719 26.5312 76.901 27.25 79.0156 27.25ZM100.234 26.875H102.953C105.516 26.875 107.38 26.2917 108.547 25.125C109.724 23.9583 110.312 22.1094 110.312 19.5781C110.312 17.0573 109.724 15.2135 108.547 14.0469C107.38 12.8698 105.516 12.2812 102.953 12.2812H100.234V26.875ZM95.3438 31V8.125H101.578C104.036 8.125 105.974 8.29688 107.391 8.64062C108.807 8.98438 110.052 9.55729 111.125 10.3594C112.51 11.3906 113.557 12.6927 114.266 14.2656C114.984 15.8281 115.344 17.6094 115.344 19.6094C115.344 21.6406 114.979 23.4427 114.25 25.0156C113.521 26.5781 112.453 27.8698 111.047 28.8906C110.005 29.6406 108.844 30.1823 107.562 30.5156C106.292 30.8385 104.427 31 101.969 31H100.234H95.3438ZM139.109 8.125V22.3594C139.109 25.4635 138.292 27.7812 136.656 29.3125C135.021 30.8438 132.557 31.6094 129.266 31.6094C125.922 31.6094 123.432 30.8438 121.797 29.3125C120.161 27.7812 119.344 25.4635 119.344 22.3594V8.125H124.203V21.5938C124.203 23.4792 124.62 24.901 125.453 25.8594C126.286 26.8073 127.531 27.2812 129.188 27.2812C130.854 27.2812 132.115 26.8021 132.969 25.8438C133.823 24.8854 134.25 23.4688 134.25 21.5938V8.125H139.109ZM162.609 14.0781C161.62 13.1927 160.604 12.5469 159.562 12.1406C158.521 11.724 157.406 11.5156 156.219 11.5156C153.781 11.5156 151.839 12.2448 150.391 13.7031C148.943 15.1615 148.219 17.1198 148.219 19.5781C148.219 21.9844 148.891 23.8958 150.234 25.3125C151.578 26.7188 153.411 27.4219 155.734 27.4219C157.057 27.4219 158.286 27.2031 159.422 26.7656C160.557 26.3177 161.609 25.651 162.578 24.7656L162.547 29.7812C161.505 30.3958 160.411 30.8542 159.266 31.1562C158.13 31.4583 156.932 31.6094 155.672 31.6094C152.026 31.6094 149.031 30.4792 146.688 28.2188C144.354 25.9479 143.188 23.0677 143.188 19.5781C143.188 16.099 144.359 13.2292 146.703 10.9688C149.047 8.70833 152.068 7.57812 155.766 7.57812C157.005 7.57812 158.203 7.70833 159.359 7.96875C160.516 8.22917 161.656 8.63021 162.781 9.17188L162.609 14.0781ZM175.703 12.2812V31H170.797V12.2812H165.203V8.125H181.328V12.2812H175.703ZM207.359 19.6094C207.359 21.2448 207.052 22.7917 206.438 24.25C205.833 25.7083 204.958 26.9896 203.812 28.0938C202.625 29.2292 201.286 30.099 199.797 30.7031C198.307 31.3073 196.766 31.6094 195.172 31.6094C193.776 31.6094 192.406 31.375 191.062 30.9062C189.729 30.4271 188.505 29.7448 187.391 28.8594C185.953 27.7135 184.849 26.3438 184.078 24.75C183.318 23.1562 182.938 21.4427 182.938 19.6094C182.938 17.9635 183.24 16.4219 183.844 14.9844C184.448 13.5365 185.333 12.25 186.5 11.125C187.646 10.0104 188.974 9.14583 190.484 8.53125C192.005 7.91667 193.568 7.60938 195.172 7.60938C196.766 7.60938 198.312 7.91667 199.812 8.53125C201.323 9.14583 202.656 10.0104 203.812 11.125C204.969 12.25 205.849 13.5365 206.453 14.9844C207.057 16.4323 207.359 17.974 207.359 19.6094ZM195.172 27.25C197.245 27.25 198.953 26.526 200.297 25.0781C201.651 23.6198 202.328 21.7969 202.328 19.6094C202.328 17.4427 201.646 15.6198 200.281 14.1406C198.917 12.6615 197.214 11.9219 195.172 11.9219C193.099 11.9219 191.38 12.6615 190.016 14.1406C188.651 15.6094 187.969 17.4323 187.969 19.6094C187.969 21.8177 188.641 23.6458 189.984 25.0938C191.328 26.5312 193.057 27.25 195.172 27.25ZM226.234 26.875H228.953C231.516 26.875 233.38 26.2917 234.547 25.125C235.724 23.9583 236.312 22.1094 236.312 19.5781C236.312 17.0573 235.724 15.2135 234.547 14.0469C233.38 12.8698 231.516 12.2812 228.953 12.2812H226.234V26.875ZM221.344 31V8.125H227.578C230.036 8.125 231.974 8.29688 233.391 8.64062C234.807 8.98438 236.052 9.55729 237.125 10.3594C238.51 11.3906 239.557 12.6927 240.266 14.2656C240.984 15.8281 241.344 17.6094 241.344 19.6094C241.344 21.6406 240.979 23.4427 240.25 25.0156C239.521 26.5781 238.453 27.8698 237.047 28.8906C236.005 29.6406 234.844 30.1823 233.562 30.5156C232.292 30.8385 230.427 31 227.969 31H226.234H221.344ZM245.438 31V8.125H258.906V12.25H250.328V16.9531H258.906V21.1094H250.328V26.8438H258.906V31H245.438ZM30.5625 69V46.125H44.0312V50.25H35.4531V54.9531H44.0312V59.1094H35.4531V69H30.5625ZM47.9062 69V46.125H52.7969V69H47.9062ZM58.0312 69V46.125H63.1094L73.2344 59.4375C73.526 59.8125 73.8438 60.3438 74.1875 61.0312C74.5417 61.7083 74.9062 62.5104 75.2812 63.4375C75.1667 62.7604 75.0833 62.0885 75.0312 61.4219C74.9792 60.7552 74.9531 59.9219 74.9531 58.9219V46.125H79.625V69H74.8281L64.4219 55.4375C64.1302 55.0625 63.8125 54.5365 63.4688 53.8594C63.125 53.1719 62.7604 52.3542 62.375 51.4062C62.4896 52.0625 62.5729 52.7292 62.625 53.4062C62.6771 54.0729 62.7031 54.9167 62.7031 55.9375V69H58.0312ZM96.5625 60.2969L94 52.9062C93.9271 52.6875 93.8333 52.3125 93.7188 51.7812C93.6042 51.25 93.4844 50.599 93.3594 49.8281C93.224 50.5677 93.0938 51.2344 92.9688 51.8281C92.8438 52.4115 92.75 52.8021 92.6875 53L90.2188 60.2969H96.5625ZM82 69L90.7031 46.125H96.2969L105.125 69H99.5625L97.7031 64.1406H88.8438L87.25 69H82ZM107.531 69V46.125H112.609L122.734 59.4375C123.026 59.8125 123.344 60.3438 123.688 61.0312C124.042 61.7083 124.406 62.5104 124.781 63.4375C124.667 62.7604 124.583 62.0885 124.531 61.4219C124.479 60.7552 124.453 59.9219 124.453 58.9219V46.125H129.125V69H124.328L113.922 55.4375C113.63 55.0625 113.312 54.5365 112.969 53.8594C112.625 53.1719 112.26 52.3542 111.875 51.4062C111.99 52.0625 112.073 52.7292 112.125 53.4062C112.177 54.0729 112.203 54.9167 112.203 55.9375V69H107.531ZM152.641 52.0781C151.651 51.1927 150.635 50.5469 149.594 50.1406C148.552 49.724 147.438 49.5156 146.25 49.5156C143.812 49.5156 141.87 50.2448 140.422 51.7031C138.974 53.1615 138.25 55.1198 138.25 57.5781C138.25 59.9844 138.922 61.8958 140.266 63.3125C141.609 64.7188 143.443 65.4219 145.766 65.4219C147.089 65.4219 148.318 65.2031 149.453 64.7656C150.589 64.3177 151.641 63.651 152.609 62.7656L152.578 67.7812C151.536 68.3958 150.443 68.8542 149.297 69.1562C148.161 69.4583 146.964 69.6094 145.703 69.6094C142.057 69.6094 139.062 68.4792 136.719 66.2188C134.385 63.9479 133.219 61.0677 133.219 57.5781C133.219 54.099 134.391 51.2292 136.734 48.9688C139.078 46.7083 142.099 45.5781 145.797 45.5781C147.036 45.5781 148.234 45.7083 149.391 45.9688C150.547 46.2292 151.688 46.6302 152.812 47.1719L152.641 52.0781ZM157.281 69V46.125H162.172V69H157.281ZM179.25 60.2969L176.688 52.9062C176.615 52.6875 176.521 52.3125 176.406 51.7812C176.292 51.25 176.172 50.599 176.047 49.8281C175.911 50.5677 175.781 51.2344 175.656 51.8281C175.531 52.4115 175.438 52.8021 175.375 53L172.906 60.2969H179.25ZM164.688 69L173.391 46.125H178.984L187.812 69H182.25L180.391 64.1406H171.531L169.938 69H164.688ZM188.234 69L191.719 46.125H196.844L201.25 59.5938C201.344 59.875 201.443 60.2865 201.547 60.8281C201.661 61.3698 201.766 61.9896 201.859 62.6875C201.943 61.9792 202.036 61.349 202.141 60.7969C202.245 60.2344 202.344 59.8229 202.438 59.5625L206.922 46.125H211.969L215.469 69H210.828L209.156 55.2031C209.031 54.1823 208.948 53.4115 208.906 52.8906C208.865 52.3698 208.844 51.8854 208.844 51.4375C208.844 51.1979 208.844 51.0208 208.844 50.9062C208.854 50.7812 208.865 50.6719 208.875 50.5781C208.719 51.474 208.568 52.25 208.422 52.9062C208.286 53.5521 208.161 54.0417 208.047 54.375L203.203 69H200.453L195.688 54.375C195.646 54.2396 195.552 53.8646 195.406 53.25C195.271 52.6354 195.078 51.7396 194.828 50.5625V51.2344C194.828 52.2969 194.734 53.599 194.547 55.1406L194.531 55.2031L192.875 69H188.234ZM218.75 69V46.125H223.641V69H218.75ZM228.875 69V46.125H242.344V50.25H233.766V54.9531H242.344V59.1094H233.766V64.8438H242.344V69H228.875ZM247.156 69V46.125H252.234L262.359 59.4375C262.651 59.8125 262.969 60.3438 263.312 61.0312C263.667 61.7083 264.031 62.5104 264.406 63.4375C264.292 62.7604 264.208 62.0885 264.156 61.4219C264.104 60.7552 264.078 59.9219 264.078 58.9219V46.125H268.75V69H263.953L253.547 55.4375C253.255 55.0625 252.938 54.5365 252.594 53.8594C252.25 53.1719 251.885 52.3542 251.5 51.4062C251.615 52.0625 251.698 52.7292 251.75 53.4062C251.802 54.0729 251.828 54.9167 251.828 55.9375V69H247.156ZM282.391 50.2812V69H277.484V50.2812H271.891V46.125H288.016V50.2812H282.391ZM314.047 57.6094C314.047 59.2448 313.74 60.7917 313.125 62.25C312.521 63.7083 311.646 64.9896 310.5 66.0938C309.312 67.2292 307.974 68.099 306.484 68.7031C304.995 69.3073 303.453 69.6094 301.859 69.6094C300.464 69.6094 299.094 69.375 297.75 68.9062C296.417 68.4271 295.193 67.7448 294.078 66.8594C292.641 65.7135 291.536 64.3438 290.766 62.75C290.005 61.1562 289.625 59.4427 289.625 57.6094C289.625 55.9635 289.927 54.4219 290.531 52.9844C291.135 51.5365 292.021 50.25 293.188 49.125C294.333 48.0104 295.661 47.1458 297.172 46.5312C298.693 45.9167 300.255 45.6094 301.859 45.6094C303.453 45.6094 305 45.9167 306.5 46.5312C308.01 47.1458 309.344 48.0104 310.5 49.125C311.656 50.25 312.536 51.5365 313.141 52.9844C313.745 54.4323 314.047 55.974 314.047 57.6094ZM301.859 65.25C303.932 65.25 305.641 64.526 306.984 63.0781C308.339 61.6198 309.016 59.7969 309.016 57.6094C309.016 55.4427 308.333 53.6198 306.969 52.1406C305.604 50.6615 303.901 49.9219 301.859 49.9219C299.786 49.9219 298.068 50.6615 296.703 52.1406C295.339 53.6094 294.656 55.4323 294.656 57.6094C294.656 59.8177 295.328 61.6458 296.672 63.0938C298.016 64.5312 299.745 65.25 301.859 65.25ZM332.953 56.4531H333.656C334.99 56.4531 335.958 56.1771 336.562 55.625C337.167 55.0729 337.469 54.1875 337.469 52.9688C337.469 51.8438 337.167 51.026 336.562 50.5156C335.958 49.9948 334.99 49.7344 333.656 49.7344H332.953V56.4531ZM328.031 69V46.125H333.656C336.656 46.125 338.87 46.6979 340.297 47.8438C341.734 48.9896 342.453 50.7604 342.453 53.1562C342.453 55.375 341.729 57.1146 340.281 58.375C338.844 59.6354 336.849 60.2656 334.297 60.2656H332.953V69H328.031ZM345.844 69V46.125H359.312V50.25H350.734V54.9531H359.312V59.1094H350.734V64.8438H359.312V69H345.844ZM364.125 69V46.125H369.203L379.328 59.4375C379.62 59.8125 379.938 60.3438 380.281 61.0312C380.635 61.7083 381 62.5104 381.375 63.4375C381.26 62.7604 381.177 62.0885 381.125 61.4219C381.073 60.7552 381.047 59.9219 381.047 58.9219V46.125H385.719V69H380.922L370.516 55.4375C370.224 55.0625 369.906 54.5365 369.562 53.8594C369.219 53.1719 368.854 52.3542 368.469 51.4062C368.583 52.0625 368.667 52.7292 368.719 53.4062C368.771 54.0729 368.797 54.9167 368.797 55.9375V69H364.125ZM389.344 66.0938L392.062 63.0156C392.406 63.8594 392.958 64.526 393.719 65.0156C394.479 65.4948 395.333 65.7344 396.281 65.7344C397.427 65.7344 398.333 65.4635 399 64.9219C399.667 64.3802 400 63.651 400 62.7344C400 61.651 398.891 60.5729 396.672 59.5C395.953 59.1562 395.385 58.875 394.969 58.6562C392.969 57.6146 391.583 56.599 390.812 55.6094C390.042 54.6094 389.656 53.4219 389.656 52.0469C389.656 50.1615 390.401 48.6146 391.891 47.4062C393.391 46.1875 395.333 45.5781 397.719 45.5781C399.104 45.5781 400.297 45.8229 401.297 46.3125C402.307 46.7917 403.198 47.5469 403.969 48.5781L401.078 51.3438C400.734 50.6771 400.276 50.1823 399.703 49.8594C399.141 49.526 398.458 49.3594 397.656 49.3594C396.688 49.3594 395.906 49.6042 395.312 50.0938C394.719 50.5729 394.422 51.1979 394.422 51.9688C394.422 53.1771 395.599 54.2812 397.953 55.2812C398.422 55.4792 398.781 55.6354 399.031 55.75C400.969 56.6354 402.401 57.6354 403.328 58.75C404.266 59.8646 404.734 61.1354 404.734 62.5625C404.734 64.7083 404 66.4219 402.531 67.7031C401.073 68.974 399.109 69.6094 396.641 69.6094C394.891 69.6094 393.391 69.3073 392.141 68.7031C390.891 68.099 389.958 67.2292 389.344 66.0938ZM420.594 60.2969L418.031 52.9062C417.958 52.6875 417.865 52.3125 417.75 51.7812C417.635 51.25 417.516 50.599 417.391 49.8281C417.255 50.5677 417.125 51.2344 417 51.8281C416.875 52.4115 416.781 52.8021 416.719 53L414.25 60.2969H420.594ZM406.031 69L414.734 46.125H420.328L429.156 69H423.594L421.734 64.1406H412.875L411.281 69H406.031ZM436.453 64.875H439.172C441.734 64.875 443.599 64.2917 444.766 63.125C445.943 61.9583 446.531 60.1094 446.531 57.5781C446.531 55.0573 445.943 53.2135 444.766 52.0469C443.599 50.8698 441.734 50.2812 439.172 50.2812H436.453V64.875ZM431.562 69V46.125H437.797C440.255 46.125 442.193 46.2969 443.609 46.6406C445.026 46.9844 446.271 47.5573 447.344 48.3594C448.729 49.3906 449.776 50.6927 450.484 52.2656C451.203 53.8281 451.562 55.6094 451.562 57.6094C451.562 59.6406 451.198 61.4427 450.469 63.0156C449.74 64.5781 448.672 65.8698 447.266 66.8906C446.224 67.6406 445.062 68.1823 443.781 68.5156C442.51 68.8385 440.646 69 438.188 69H436.453H431.562ZM479.078 57.6094C479.078 59.2448 478.771 60.7917 478.156 62.25C477.552 63.7083 476.677 64.9896 475.531 66.0938C474.344 67.2292 473.005 68.099 471.516 68.7031C470.026 69.3073 468.484 69.6094 466.891 69.6094C465.495 69.6094 464.125 69.375 462.781 68.9062C461.448 68.4271 460.224 67.7448 459.109 66.8594C457.672 65.7135 456.568 64.3438 455.797 62.75C455.036 61.1562 454.656 59.4427 454.656 57.6094C454.656 55.9635 454.958 54.4219 455.562 52.9844C456.167 51.5365 457.052 50.25 458.219 49.125C459.365 48.0104 460.693 47.1458 462.203 46.5312C463.724 45.9167 465.286 45.6094 466.891 45.6094C468.484 45.6094 470.031 45.9167 471.531 46.5312C473.042 47.1458 474.375 48.0104 475.531 49.125C476.688 50.25 477.568 51.5365 478.172 52.9844C478.776 54.4323 479.078 55.974 479.078 57.6094ZM466.891 65.25C468.964 65.25 470.672 64.526 472.016 63.0781C473.37 61.6198 474.047 59.7969 474.047 57.6094C474.047 55.4427 473.365 53.6198 472 52.1406C470.635 50.6615 468.932 49.9219 466.891 49.9219C464.818 49.9219 463.099 50.6615 461.734 52.1406C460.37 53.6094 459.688 55.4323 459.688 57.6094C459.688 59.8177 460.359 61.6458 461.703 63.0938C463.047 64.5312 464.776 65.25 466.891 65.25ZM35.4844 94.4531H36.1875C37.5208 94.4531 38.4896 94.1771 39.0938 93.625C39.6979 93.0729 40 92.1875 40 90.9688C40 89.8438 39.6979 89.026 39.0938 88.5156C38.4896 87.9948 37.5208 87.7344 36.1875 87.7344H35.4844V94.4531ZM30.5625 107V84.125H36.1875C39.1875 84.125 41.401 84.6979 42.8281 85.8438C44.2656 86.9896 44.9844 88.7604 44.9844 91.1562C44.9844 93.375 44.2604 95.1146 42.8125 96.375C41.375 97.6354 39.3802 98.2656 36.8281 98.2656H35.4844V107H30.5625ZM58.625 98.2969L56.0625 90.9062C55.9896 90.6875 55.8958 90.3125 55.7812 89.7812C55.6667 89.25 55.5469 88.599 55.4219 87.8281C55.2865 88.5677 55.1562 89.2344 55.0312 89.8281C54.9062 90.4115 54.8125 90.8021 54.75 91L52.2812 98.2969H58.625ZM44.0625 107L52.7656 84.125H58.3594L67.1875 107H61.625L59.7656 102.141H50.9062L49.3125 107H44.0625ZM86.1406 107H80.5L74.4844 96.3125V107H69.5938V84.125H76.5938C79.375 84.125 81.4583 84.6667 82.8438 85.75C84.2292 86.8229 84.9219 88.4427 84.9219 90.6094C84.9219 92.1823 84.4479 93.526 83.5 94.6406C82.5521 95.7552 81.3281 96.4062 79.8281 96.5938L86.1406 107ZM74.4844 93.875H75.2188C77.1979 93.875 78.5052 93.6615 79.1406 93.2344C79.776 92.7969 80.0938 92.0417 80.0938 90.9688C80.0938 89.8438 79.75 89.0469 79.0625 88.5781C78.3854 88.099 77.1042 87.8594 75.2188 87.8594H74.4844V93.875ZM100.844 98.2969L98.2812 90.9062C98.2083 90.6875 98.1146 90.3125 98 89.7812C97.8854 89.25 97.7656 88.599 97.6406 87.8281C97.5052 88.5677 97.375 89.2344 97.25 89.8281C97.125 90.4115 97.0312 90.8021 96.9688 91L94.5 98.2969H100.844ZM86.2812 107L94.9844 84.125H100.578L109.406 107H103.844L101.984 102.141H93.125L91.5312 107H86.2812ZM121.656 107V84.125H126.547V93.2969H136.469V84.125H141.359V107H136.469V97.4375H126.547V107H121.656ZM158.312 98.2969L155.75 90.9062C155.677 90.6875 155.583 90.3125 155.469 89.7812C155.354 89.25 155.234 88.599 155.109 87.8281C154.974 88.5677 154.844 89.2344 154.719 89.8281C154.594 90.4115 154.5 90.8021 154.438 91L151.969 98.2969H158.312ZM143.75 107L152.453 84.125H158.047L166.875 107H161.312L159.453 102.141H150.594L149 107H143.75ZM187.141 90.0781C186.151 89.1927 185.135 88.5469 184.094 88.1406C183.052 87.724 181.938 87.5156 180.75 87.5156C178.312 87.5156 176.37 88.2448 174.922 89.7031C173.474 91.1615 172.75 93.1198 172.75 95.5781C172.75 97.9844 173.422 99.8958 174.766 101.312C176.109 102.719 177.943 103.422 180.266 103.422C181.589 103.422 182.818 103.203 183.953 102.766C185.089 102.318 186.141 101.651 187.109 100.766L187.078 105.781C186.036 106.396 184.943 106.854 183.797 107.156C182.661 107.458 181.464 107.609 180.203 107.609C176.557 107.609 173.562 106.479 171.219 104.219C168.885 101.948 167.719 99.0677 167.719 95.5781C167.719 92.099 168.891 89.2292 171.234 86.9688C173.578 84.7083 176.599 83.5781 180.297 83.5781C181.536 83.5781 182.734 83.7083 183.891 83.9688C185.047 84.2292 186.188 84.6302 187.312 85.1719L187.141 90.0781ZM191.688 107V84.125H205.156V88.25H196.578V92.9531H205.156V97.1094H196.578V102.844H205.156V107H191.688ZM226.516 107H220.875L214.859 96.3125V107H209.969V84.125H216.969C219.75 84.125 221.833 84.6667 223.219 85.75C224.604 86.8229 225.297 88.4427 225.297 90.6094C225.297 92.1823 224.823 93.526 223.875 94.6406C222.927 95.7552 221.703 96.4062 220.203 96.5938L226.516 107ZM214.859 93.875H215.594C217.573 93.875 218.88 93.6615 219.516 93.2344C220.151 92.7969 220.469 92.0417 220.469 90.9688C220.469 89.8438 220.125 89.0469 219.438 88.5781C218.76 88.099 217.479 87.8594 215.594 87.8594H214.859V93.875ZM257.641 90.0781C256.651 89.1927 255.635 88.5469 254.594 88.1406C253.552 87.724 252.438 87.5156 251.25 87.5156C248.812 87.5156 246.87 88.2448 245.422 89.7031C243.974 91.1615 243.25 93.1198 243.25 95.5781C243.25 97.9844 243.922 99.8958 245.266 101.312C246.609 102.719 248.443 103.422 250.766 103.422C252.089 103.422 253.318 103.203 254.453 102.766C255.589 102.318 256.641 101.651 257.609 100.766L257.578 105.781C256.536 106.396 255.443 106.854 254.297 107.156C253.161 107.458 251.964 107.609 250.703 107.609C247.057 107.609 244.062 106.479 241.719 104.219C239.385 101.948 238.219 99.0677 238.219 95.5781C238.219 92.099 239.391 89.2292 241.734 86.9688C244.078 84.7083 247.099 83.5781 250.797 83.5781C252.036 83.5781 253.234 83.7083 254.391 83.9688C255.547 84.2292 256.688 84.6302 257.812 85.1719L257.641 90.0781ZM278.734 107H273.094L267.078 96.3125V107H262.188V84.125H269.188C271.969 84.125 274.052 84.6667 275.438 85.75C276.823 86.8229 277.516 88.4427 277.516 90.6094C277.516 92.1823 277.042 93.526 276.094 94.6406C275.146 95.7552 273.922 96.4062 272.422 96.5938L278.734 107ZM267.078 93.875H267.812C269.792 93.875 271.099 93.6615 271.734 93.2344C272.37 92.7969 272.688 92.0417 272.688 90.9688C272.688 89.8438 272.344 89.0469 271.656 88.5781C270.979 88.099 269.698 87.8594 267.812 87.8594H267.078V93.875ZM281.594 107V84.125H295.062V88.25H286.484V92.9531H295.062V97.1094H286.484V102.844H295.062V107H281.594ZM318.297 90.0781C317.307 89.1927 316.292 88.5469 315.25 88.1406C314.208 87.724 313.094 87.5156 311.906 87.5156C309.469 87.5156 307.526 88.2448 306.078 89.7031C304.63 91.1615 303.906 93.1198 303.906 95.5781C303.906 97.9844 304.578 99.8958 305.922 101.312C307.266 102.719 309.099 103.422 311.422 103.422C312.745 103.422 313.974 103.203 315.109 102.766C316.245 102.318 317.297 101.651 318.266 100.766L318.234 105.781C317.193 106.396 316.099 106.854 314.953 107.156C313.818 107.458 312.62 107.609 311.359 107.609C307.714 107.609 304.719 106.479 302.375 104.219C300.042 101.948 298.875 99.0677 298.875 95.5781C298.875 92.099 300.047 89.2292 302.391 86.9688C304.734 84.7083 307.755 83.5781 311.453 83.5781C312.693 83.5781 313.891 83.7083 315.047 83.9688C316.203 84.2292 317.344 84.6302 318.469 85.1719L318.297 90.0781ZM322.844 107V84.125H336.312V88.25H327.734V92.9531H336.312V97.1094H327.734V102.844H336.312V107H322.844ZM357.672 107H352.031L346.016 96.3125V107H341.125V84.125H348.125C350.906 84.125 352.99 84.6667 354.375 85.75C355.76 86.8229 356.453 88.4427 356.453 90.6094C356.453 92.1823 355.979 93.526 355.031 94.6406C354.083 95.7552 352.859 96.4062 351.359 96.5938L357.672 107ZM346.016 93.875H346.75C348.729 93.875 350.036 93.6615 350.672 93.2344C351.307 92.7969 351.625 92.0417 351.625 90.9688C351.625 89.8438 351.281 89.0469 350.594 88.5781C349.917 88.099 348.635 87.8594 346.75 87.8594H346.016V93.875ZM39.1094 126.281V145H34.2031V126.281H28.6094V122.125H44.7344V126.281H39.1094ZM67.5781 122.125V136.359C67.5781 139.464 66.7604 141.781 65.125 143.312C63.4896 144.844 61.026 145.609 57.7344 145.609C54.3906 145.609 51.901 144.844 50.2656 143.312C48.6302 141.781 47.8125 139.464 47.8125 136.359V122.125H52.6719V135.594C52.6719 137.479 53.0885 138.901 53.9219 139.859C54.7552 140.807 56 141.281 57.6562 141.281C59.3229 141.281 60.5833 140.802 61.4375 139.844C62.2917 138.885 62.7188 137.469 62.7188 135.594V122.125H67.5781ZM82.5 145V122.125H95.9688V126.25H87.3906V130.953H95.9688V135.109H87.3906V140.844H95.9688V145H82.5ZM98.7969 145L102.281 122.125H107.406L111.812 135.594C111.906 135.875 112.005 136.286 112.109 136.828C112.224 137.37 112.328 137.99 112.422 138.688C112.505 137.979 112.599 137.349 112.703 136.797C112.807 136.234 112.906 135.823 113 135.562L117.484 122.125H122.531L126.031 145H121.391L119.719 131.203C119.594 130.182 119.51 129.411 119.469 128.891C119.427 128.37 119.406 127.885 119.406 127.438C119.406 127.198 119.406 127.021 119.406 126.906C119.417 126.781 119.427 126.672 119.438 126.578C119.281 127.474 119.13 128.25 118.984 128.906C118.849 129.552 118.724 130.042 118.609 130.375L113.766 145H111.016L106.25 130.375C106.208 130.24 106.115 129.865 105.969 129.25C105.833 128.635 105.641 127.74 105.391 126.562V127.234C105.391 128.297 105.297 129.599 105.109 131.141L105.094 131.203L103.438 145H98.7969ZM134.141 132.453H134.844C136.177 132.453 137.146 132.177 137.75 131.625C138.354 131.073 138.656 130.188 138.656 128.969C138.656 127.844 138.354 127.026 137.75 126.516C137.146 125.995 136.177 125.734 134.844 125.734H134.141V132.453ZM129.219 145V122.125H134.844C137.844 122.125 140.057 122.698 141.484 123.844C142.922 124.99 143.641 126.76 143.641 129.156C143.641 131.375 142.917 133.115 141.469 134.375C140.031 135.635 138.036 136.266 135.484 136.266H134.141V145H129.219ZM163.578 145H157.938L151.922 134.312V145H147.031V122.125H154.031C156.812 122.125 158.896 122.667 160.281 123.75C161.667 124.823 162.359 126.443 162.359 128.609C162.359 130.182 161.885 131.526 160.938 132.641C159.99 133.755 158.766 134.406 157.266 134.594L163.578 145ZM151.922 131.875H152.656C154.635 131.875 155.943 131.661 156.578 131.234C157.214 130.797 157.531 130.042 157.531 128.969C157.531 127.844 157.188 127.047 156.5 126.578C155.823 126.099 154.542 125.859 152.656 125.859H151.922V131.875ZM166.438 145V122.125H179.906V126.25H171.328V130.953H179.906V135.109H171.328V140.844H179.906V145H166.438ZM183.25 142.094L185.969 139.016C186.312 139.859 186.865 140.526 187.625 141.016C188.385 141.495 189.24 141.734 190.188 141.734C191.333 141.734 192.24 141.464 192.906 140.922C193.573 140.38 193.906 139.651 193.906 138.734C193.906 137.651 192.797 136.573 190.578 135.5C189.859 135.156 189.292 134.875 188.875 134.656C186.875 133.615 185.49 132.599 184.719 131.609C183.948 130.609 183.562 129.422 183.562 128.047C183.562 126.161 184.307 124.615 185.797 123.406C187.297 122.188 189.24 121.578 191.625 121.578C193.01 121.578 194.203 121.823 195.203 122.312C196.214 122.792 197.104 123.547 197.875 124.578L194.984 127.344C194.641 126.677 194.182 126.182 193.609 125.859C193.047 125.526 192.365 125.359 191.562 125.359C190.594 125.359 189.812 125.604 189.219 126.094C188.625 126.573 188.328 127.198 188.328 127.969C188.328 129.177 189.505 130.281 191.859 131.281C192.328 131.479 192.688 131.635 192.938 131.75C194.875 132.635 196.307 133.635 197.234 134.75C198.172 135.865 198.641 137.135 198.641 138.562C198.641 140.708 197.906 142.422 196.438 143.703C194.979 144.974 193.016 145.609 190.547 145.609C188.797 145.609 187.297 145.307 186.047 144.703C184.797 144.099 183.865 143.229 183.25 142.094ZM214.5 136.297L211.938 128.906C211.865 128.688 211.771 128.312 211.656 127.781C211.542 127.25 211.422 126.599 211.297 125.828C211.161 126.568 211.031 127.234 210.906 127.828C210.781 128.411 210.688 128.802 210.625 129L208.156 136.297H214.5ZM199.938 145L208.641 122.125H214.234L223.062 145H217.5L215.641 140.141H206.781L205.188 145H199.938Z" fill="white"/>
<path d="M27 200H15C10.5817 200 7 196.418 7 192V127.441V23" stroke="white" stroke-width="1.5"/>
<circle cx="7" cy="17" r="6.25" stroke="white" stroke-width="1.5"/>
<rect x="25" y="171" width="434" height="57" rx="10" fill="#002A61"/>
<path d="M49.5469 206V193.133H56.332V194.53H51.0762V198.222H56.332V199.646H51.0762V204.576H56.332V206H49.5469ZM58.8633 206V192.377H60.2695V206H58.8633ZM79.6582 206V201.263C79.6582 200.448 79.4941 199.845 79.166 199.452C78.8379 199.054 78.334 198.854 77.6543 198.854C77.2852 198.854 76.9424 198.931 76.626 199.083C76.3154 199.229 76.0518 199.44 75.835 199.716C75.6768 199.927 75.5625 200.173 75.4922 200.454C75.4219 200.735 75.3867 201.198 75.3867 201.843V206H74.0596V201.263C74.0596 200.448 73.8955 199.845 73.5674 199.452C73.2393 199.054 72.7354 198.854 72.0557 198.854C71.6865 198.854 71.3408 198.931 71.0186 199.083C70.7021 199.229 70.4355 199.44 70.2188 199.716C70.0664 199.921 69.9551 200.158 69.8848 200.428C69.8203 200.697 69.7881 201.169 69.7881 201.843V206H68.4609V197.958H69.8057V199.197C70.1396 198.682 70.5381 198.298 71.001 198.046C71.4639 197.794 71.9971 197.668 72.6006 197.668C73.251 197.668 73.8047 197.809 74.2617 198.09C74.7188 198.365 75.0645 198.77 75.2988 199.303C75.6445 198.752 76.0518 198.342 76.5205 198.072C76.9951 197.803 77.543 197.668 78.1641 197.668C79.0605 197.668 79.7607 197.92 80.2646 198.424C80.7686 198.928 81.0205 199.628 81.0205 200.524V206H79.6582ZM89.8887 202.054C89.8887 201.146 89.6396 200.416 89.1416 199.865C88.6494 199.309 88.0049 199.03 87.208 199.03C86.3818 199.03 85.7373 199.285 85.2744 199.795C84.8115 200.305 84.5801 201.017 84.5801 201.931C84.5801 202.903 84.8115 203.653 85.2744 204.181C85.7432 204.708 86.4053 204.972 87.2607 204.972C88.0811 204.972 88.7227 204.717 89.1855 204.207C89.6543 203.691 89.8887 202.974 89.8887 202.054ZM91.2246 197.958V206H89.8887V204.541C89.5664 205.127 89.1533 205.575 88.6494 205.886C88.1514 206.19 87.5918 206.343 86.9707 206.343C85.8164 206.343 84.8848 205.947 84.1758 205.156C83.4727 204.359 83.1211 203.308 83.1211 202.001C83.1211 200.677 83.4639 199.625 84.1494 198.846C84.835 198.061 85.752 197.668 86.9004 197.668C87.5742 197.668 88.1572 197.82 88.6494 198.125C89.1475 198.424 89.5488 198.872 89.8535 199.47V197.958H91.2246ZM93.9844 206V197.958H95.3291V199.197C95.6748 198.682 96.0908 198.298 96.5771 198.046C97.0635 197.794 97.626 197.668 98.2646 197.668C99.2139 197.668 99.9551 197.92 100.488 198.424C101.021 198.928 101.288 199.628 101.288 200.524V206H99.8818V201.263C99.8818 200.448 99.709 199.845 99.3633 199.452C99.0234 199.054 98.4961 198.854 97.7812 198.854C97.3711 198.854 96.9961 198.931 96.6562 199.083C96.3223 199.229 96.0439 199.44 95.8213 199.716C95.6514 199.927 95.5283 200.167 95.4521 200.437C95.3818 200.706 95.3467 201.175 95.3467 201.843V206H93.9844ZM109.726 201.069C109.679 200.36 109.441 199.815 109.014 199.435C108.592 199.048 108.012 198.854 107.273 198.854C106.605 198.854 106.049 199.057 105.604 199.461C105.158 199.859 104.9 200.396 104.83 201.069H109.726ZM111.202 202.186H104.83V202.309C104.83 203.17 105.076 203.867 105.568 204.4C106.061 204.928 106.702 205.191 107.493 205.191C108.032 205.191 108.519 205.048 108.952 204.761C109.386 204.468 109.77 204.028 110.104 203.442L111.149 204.146C110.745 204.872 110.229 205.42 109.603 205.789C108.976 206.158 108.249 206.343 107.423 206.343C106.198 206.343 105.208 205.938 104.452 205.13C103.696 204.321 103.318 203.261 103.318 201.948C103.318 200.688 103.693 199.657 104.443 198.854C105.193 198.052 106.157 197.65 107.335 197.65C108.524 197.65 109.465 198.031 110.156 198.793C110.854 199.555 111.202 200.595 111.202 201.913V202.186ZM113.03 194.082C113.03 193.807 113.127 193.572 113.32 193.379C113.52 193.18 113.76 193.08 114.041 193.08C114.316 193.08 114.551 193.18 114.744 193.379C114.943 193.578 115.043 193.818 115.043 194.1C115.043 194.375 114.946 194.609 114.753 194.803C114.56 194.996 114.322 195.093 114.041 195.093C113.76 195.093 113.52 194.996 113.32 194.803C113.127 194.609 113.03 194.369 113.03 194.082ZM113.355 209.92V197.958H114.744V209.92H113.355ZM118.453 202.001C118.453 202.851 118.737 203.571 119.306 204.163C119.874 204.749 120.562 205.042 121.371 205.042C122.174 205.042 122.856 204.749 123.419 204.163C123.981 203.571 124.263 202.851 124.263 202.001C124.263 201.151 123.981 200.434 123.419 199.848C122.856 199.256 122.174 198.96 121.371 198.96C120.557 198.96 119.865 199.256 119.297 199.848C118.734 200.434 118.453 201.151 118.453 202.001ZM116.994 202.001C116.994 201.409 117.103 200.853 117.319 200.331C117.536 199.804 117.853 199.335 118.269 198.925C118.685 198.515 119.156 198.204 119.684 197.993C120.211 197.776 120.773 197.668 121.371 197.668C121.957 197.668 122.511 197.776 123.032 197.993C123.56 198.21 124.037 198.526 124.465 198.942C124.881 199.347 125.197 199.812 125.414 200.34C125.631 200.861 125.739 201.415 125.739 202.001C125.739 202.587 125.631 203.141 125.414 203.662C125.197 204.178 124.881 204.638 124.465 205.042C124.037 205.464 123.557 205.786 123.023 206.009C122.496 206.231 121.945 206.343 121.371 206.343C120.779 206.343 120.217 206.231 119.684 206.009C119.156 205.792 118.685 205.479 118.269 205.068C117.853 204.646 117.536 204.178 117.319 203.662C117.103 203.146 116.994 202.593 116.994 202.001ZM139.354 202.019C139.354 201.122 139.104 200.401 138.606 199.856C138.108 199.306 137.452 199.03 136.638 199.03C135.823 199.03 135.188 199.279 134.73 199.777C134.273 200.275 134.045 200.964 134.045 201.843C134.045 202.833 134.276 203.609 134.739 204.172C135.202 204.729 135.841 205.007 136.655 205.007C137.499 205.007 138.158 204.743 138.633 204.216C139.113 203.688 139.354 202.956 139.354 202.019ZM140.689 192.377V206H139.354V204.541C139.037 205.121 138.627 205.566 138.123 205.877C137.619 206.188 137.057 206.343 136.436 206.343C135.281 206.343 134.35 205.947 133.641 205.156C132.938 204.359 132.586 203.308 132.586 202.001C132.586 200.683 132.932 199.631 133.623 198.846C134.314 198.061 135.234 197.668 136.383 197.668C137.051 197.668 137.631 197.82 138.123 198.125C138.615 198.424 139.014 198.872 139.318 199.47V192.377H140.689ZM149.206 201.069C149.159 200.36 148.922 199.815 148.494 199.435C148.072 199.048 147.492 198.854 146.754 198.854C146.086 198.854 145.529 199.057 145.084 199.461C144.639 199.859 144.381 200.396 144.311 201.069H149.206ZM150.683 202.186H144.311V202.309C144.311 203.17 144.557 203.867 145.049 204.4C145.541 204.928 146.183 205.191 146.974 205.191C147.513 205.191 147.999 205.048 148.433 204.761C148.866 204.468 149.25 204.028 149.584 203.442L150.63 204.146C150.226 204.872 149.71 205.42 149.083 205.789C148.456 206.158 147.729 206.343 146.903 206.343C145.679 206.343 144.688 205.938 143.933 205.13C143.177 204.321 142.799 203.261 142.799 201.948C142.799 200.688 143.174 199.657 143.924 198.854C144.674 198.052 145.638 197.65 146.815 197.65C148.005 197.65 148.945 198.031 149.637 198.793C150.334 199.555 150.683 200.595 150.683 201.913V202.186ZM158.303 206V199.338H156.976V197.123H158.303V194.478H161.388V197.123H162.715V199.338H161.388V206H158.303ZM173.288 197.123V201.658C173.288 202.66 173.206 203.404 173.042 203.891C172.884 204.371 172.614 204.799 172.233 205.174C171.841 205.566 171.352 205.859 170.766 206.053C170.18 206.246 169.491 206.343 168.7 206.343C167.915 206.343 167.229 206.246 166.644 206.053C166.063 205.859 165.568 205.566 165.158 205.174C164.777 204.811 164.508 204.386 164.35 203.899C164.191 203.407 164.112 202.66 164.112 201.658V197.123H167.101V201.86C167.101 202.604 167.224 203.144 167.47 203.478C167.716 203.806 168.114 203.97 168.665 203.97C169.222 203.97 169.62 203.809 169.86 203.486C170.106 203.158 170.229 202.616 170.229 201.86V197.123H173.288ZM174.712 205.262L175.362 202.871C175.819 203.27 176.32 203.577 176.865 203.794C177.416 204.005 177.97 204.11 178.526 204.11C178.919 204.11 179.218 204.049 179.423 203.926C179.628 203.797 179.73 203.612 179.73 203.372C179.73 202.979 179.317 202.687 178.491 202.493C178.222 202.429 178.005 202.373 177.841 202.326C176.903 202.068 176.221 201.731 175.793 201.315C175.371 200.894 175.16 200.349 175.16 199.681C175.16 198.819 175.482 198.131 176.127 197.615C176.777 197.1 177.656 196.842 178.764 196.842C179.332 196.842 179.909 196.909 180.495 197.044C181.087 197.173 181.69 197.375 182.306 197.65L181.655 199.804C181.239 199.522 180.817 199.309 180.39 199.162C179.962 199.016 179.534 198.942 179.106 198.942C178.749 198.942 178.479 198.998 178.298 199.109C178.116 199.221 178.025 199.382 178.025 199.593C178.025 199.909 178.436 200.176 179.256 200.393C179.443 200.445 179.584 200.483 179.678 200.507C180.762 200.817 181.515 201.184 181.937 201.605C182.364 202.021 182.578 202.587 182.578 203.302C182.578 204.21 182.229 204.945 181.532 205.508C180.835 206.064 179.912 206.343 178.764 206.343C177.984 206.343 177.261 206.252 176.593 206.07C175.925 205.895 175.298 205.625 174.712 205.262ZM196.271 200.041C195.967 199.771 195.674 199.575 195.393 199.452C195.111 199.329 194.815 199.268 194.505 199.268C193.884 199.268 193.389 199.473 193.02 199.883C192.656 200.293 192.475 200.85 192.475 201.553C192.475 202.232 192.665 202.774 193.046 203.179C193.427 203.583 193.939 203.785 194.584 203.785C194.9 203.785 195.196 203.724 195.472 203.601C195.753 203.472 196.02 203.275 196.271 203.012V205.728C195.896 205.938 195.521 206.094 195.146 206.193C194.771 206.293 194.385 206.343 193.986 206.343C192.621 206.343 191.514 205.906 190.664 205.033C189.82 204.154 189.398 203 189.398 201.57C189.398 200.182 189.829 199.048 190.69 198.169C191.558 197.284 192.668 196.842 194.021 196.842C194.473 196.842 194.88 196.886 195.243 196.974C195.606 197.062 195.949 197.202 196.271 197.396V200.041ZM204.498 201.588C204.498 200.926 204.331 200.404 203.997 200.023C203.663 199.643 203.212 199.452 202.644 199.452C202.069 199.452 201.615 199.643 201.281 200.023C200.953 200.404 200.789 200.926 200.789 201.588C200.789 202.25 200.953 202.771 201.281 203.152C201.609 203.527 202.063 203.715 202.644 203.715C203.218 203.715 203.669 203.527 203.997 203.152C204.331 202.771 204.498 202.25 204.498 201.588ZM207.609 201.588C207.609 202.227 207.483 202.833 207.231 203.407C206.985 203.981 206.625 204.497 206.15 204.954C205.67 205.411 205.131 205.757 204.533 205.991C203.941 206.226 203.312 206.343 202.644 206.343C201.964 206.343 201.325 206.226 200.728 205.991C200.136 205.757 199.605 205.411 199.137 204.954C198.668 204.509 198.311 203.999 198.064 203.425C197.818 202.845 197.695 202.232 197.695 201.588C197.695 200.938 197.815 200.325 198.056 199.751C198.302 199.177 198.662 198.661 199.137 198.204C199.6 197.753 200.127 197.413 200.719 197.185C201.316 196.956 201.958 196.842 202.644 196.842C203.329 196.842 203.968 196.956 204.56 197.185C205.151 197.413 205.682 197.753 206.15 198.204C206.631 198.667 206.994 199.186 207.24 199.76C207.486 200.334 207.609 200.943 207.609 201.588ZM212.206 201.57C212.206 202.262 212.385 202.807 212.742 203.205C213.105 203.604 213.604 203.803 214.236 203.803C214.875 203.803 215.376 203.606 215.739 203.214C216.103 202.815 216.284 202.268 216.284 201.57C216.284 200.879 216.1 200.334 215.73 199.936C215.367 199.537 214.869 199.338 214.236 199.338C213.604 199.338 213.105 199.537 212.742 199.936C212.385 200.334 212.206 200.879 212.206 201.57ZM209.429 192.377H212.417V197.018C212.417 197.393 212.408 197.706 212.391 197.958C212.379 198.204 212.358 198.418 212.329 198.6C212.692 197.967 213.108 197.516 213.577 197.246C214.052 196.977 214.667 196.842 215.423 196.842C216.606 196.842 217.564 197.278 218.297 198.151C219.035 199.019 219.404 200.158 219.404 201.57C219.404 203.029 219.032 204.189 218.288 205.051C217.55 205.912 216.56 206.343 215.317 206.343C214.708 206.343 214.154 206.196 213.656 205.903C213.158 205.604 212.71 205.156 212.312 204.559V206H209.429V192.377ZM221.312 206V197.123H224.265V199.215C224.569 198.453 224.985 197.882 225.513 197.501C226.04 197.12 226.679 196.93 227.429 196.93C227.552 196.93 227.675 196.936 227.798 196.947C227.927 196.953 228.056 196.965 228.185 196.982L227.886 199.83C227.698 199.766 227.514 199.719 227.332 199.689C227.15 199.66 226.975 199.646 226.805 199.646C226.043 199.646 225.454 199.88 225.038 200.349C224.628 200.812 224.423 201.471 224.423 202.326V206H221.312ZM235.646 201.588C235.646 200.926 235.479 200.404 235.146 200.023C234.812 199.643 234.36 199.452 233.792 199.452C233.218 199.452 232.764 199.643 232.43 200.023C232.102 200.404 231.938 200.926 231.938 201.588C231.938 202.25 232.102 202.771 232.43 203.152C232.758 203.527 233.212 203.715 233.792 203.715C234.366 203.715 234.817 203.527 235.146 203.152C235.479 202.771 235.646 202.25 235.646 201.588ZM238.758 201.588C238.758 202.227 238.632 202.833 238.38 203.407C238.134 203.981 237.773 204.497 237.299 204.954C236.818 205.411 236.279 205.757 235.682 205.991C235.09 206.226 234.46 206.343 233.792 206.343C233.112 206.343 232.474 206.226 231.876 205.991C231.284 205.757 230.754 205.411 230.285 204.954C229.816 204.509 229.459 203.999 229.213 203.425C228.967 202.845 228.844 202.232 228.844 201.588C228.844 200.938 228.964 200.325 229.204 199.751C229.45 199.177 229.811 198.661 230.285 198.204C230.748 197.753 231.275 197.413 231.867 197.185C232.465 196.956 233.106 196.842 233.792 196.842C234.478 196.842 235.116 196.956 235.708 197.185C236.3 197.413 236.83 197.753 237.299 198.204C237.779 198.667 238.143 199.186 238.389 199.76C238.635 200.334 238.758 200.943 238.758 201.588ZM239.733 205.262L240.384 202.871C240.841 203.27 241.342 203.577 241.887 203.794C242.438 204.005 242.991 204.11 243.548 204.11C243.94 204.11 244.239 204.049 244.444 203.926C244.649 203.797 244.752 203.612 244.752 203.372C244.752 202.979 244.339 202.687 243.513 202.493C243.243 202.429 243.026 202.373 242.862 202.326C241.925 202.068 241.242 201.731 240.814 201.315C240.393 200.894 240.182 200.349 240.182 199.681C240.182 198.819 240.504 198.131 241.148 197.615C241.799 197.1 242.678 196.842 243.785 196.842C244.354 196.842 244.931 196.909 245.517 197.044C246.108 197.173 246.712 197.375 247.327 197.65L246.677 199.804C246.261 199.522 245.839 199.309 245.411 199.162C244.983 199.016 244.556 198.942 244.128 198.942C243.771 198.942 243.501 198.998 243.319 199.109C243.138 199.221 243.047 199.382 243.047 199.593C243.047 199.909 243.457 200.176 244.277 200.393C244.465 200.445 244.605 200.483 244.699 200.507C245.783 200.817 246.536 201.184 246.958 201.605C247.386 202.021 247.6 202.587 247.6 203.302C247.6 204.21 247.251 204.945 246.554 205.508C245.856 206.064 244.934 206.343 243.785 206.343C243.006 206.343 242.282 206.252 241.614 206.07C240.946 205.895 240.319 205.625 239.733 205.262ZM260.546 201.069C260.499 200.36 260.262 199.815 259.834 199.435C259.412 199.048 258.832 198.854 258.094 198.854C257.426 198.854 256.869 199.057 256.424 199.461C255.979 199.859 255.721 200.396 255.65 201.069H260.546ZM262.022 202.186H255.65V202.309C255.65 203.17 255.896 203.867 256.389 204.4C256.881 204.928 257.522 205.191 258.313 205.191C258.853 205.191 259.339 205.048 259.772 204.761C260.206 204.468 260.59 204.028 260.924 203.442L261.97 204.146C261.565 204.872 261.05 205.42 260.423 205.789C259.796 206.158 259.069 206.343 258.243 206.343C257.019 206.343 256.028 205.938 255.272 205.13C254.517 204.321 254.139 203.261 254.139 201.948C254.139 200.688 254.514 199.657 255.264 198.854C256.014 198.052 256.978 197.65 258.155 197.65C259.345 197.65 260.285 198.031 260.977 198.793C261.674 199.555 262.022 200.595 262.022 201.913V202.186ZM263.253 204.646L264.431 203.855C264.653 204.283 264.935 204.605 265.274 204.822C265.614 205.033 266.016 205.139 266.479 205.139C266.93 205.139 267.293 205.027 267.568 204.805C267.85 204.582 267.99 204.289 267.99 203.926C267.99 203.645 267.894 203.41 267.7 203.223C267.513 203.035 267.188 202.862 266.725 202.704C266.678 202.687 266.602 202.66 266.496 202.625C264.539 201.951 263.561 201.107 263.561 200.094C263.561 199.379 263.824 198.796 264.352 198.345C264.879 197.894 265.564 197.668 266.408 197.668C267.105 197.668 267.703 197.809 268.201 198.09C268.699 198.365 269.057 198.758 269.273 199.268L268.157 199.953C267.993 199.584 267.75 199.3 267.428 199.101C267.111 198.901 266.742 198.802 266.32 198.802C265.916 198.802 265.585 198.916 265.327 199.145C265.075 199.367 264.949 199.654 264.949 200.006C264.949 200.498 265.482 200.911 266.549 201.245C266.748 201.31 266.906 201.359 267.023 201.395C267.896 201.676 268.503 201.998 268.843 202.361C269.188 202.719 269.361 203.193 269.361 203.785C269.361 204.547 269.089 205.165 268.544 205.64C268.005 206.108 267.299 206.343 266.426 206.343C265.676 206.343 265.037 206.202 264.51 205.921C263.988 205.64 263.569 205.215 263.253 204.646ZM271.646 199.092H270.17V197.958H271.646V194.715H273.053V197.958H274.529V199.092H273.053V206H271.646V199.092ZM282.246 202.054C282.246 201.146 281.997 200.416 281.499 199.865C281.007 199.309 280.362 199.03 279.565 199.03C278.739 199.03 278.095 199.285 277.632 199.795C277.169 200.305 276.938 201.017 276.938 201.931C276.938 202.903 277.169 203.653 277.632 204.181C278.101 204.708 278.763 204.972 279.618 204.972C280.438 204.972 281.08 204.717 281.543 204.207C282.012 203.691 282.246 202.974 282.246 202.054ZM283.582 197.958V206H282.246V204.541C281.924 205.127 281.511 205.575 281.007 205.886C280.509 206.19 279.949 206.343 279.328 206.343C278.174 206.343 277.242 205.947 276.533 205.156C275.83 204.359 275.479 203.308 275.479 202.001C275.479 200.677 275.821 199.625 276.507 198.846C277.192 198.061 278.109 197.668 279.258 197.668C279.932 197.668 280.515 197.82 281.007 198.125C281.505 198.424 281.906 198.872 282.211 199.47V197.958H283.582ZM278.563 196.692L280.356 193.634H282.123L279.618 196.692H278.563ZM297.354 201.069C297.308 200.36 297.07 199.815 296.643 199.435C296.221 199.048 295.641 198.854 294.902 198.854C294.234 198.854 293.678 199.057 293.232 199.461C292.787 199.859 292.529 200.396 292.459 201.069H297.354ZM298.831 202.186H292.459V202.309C292.459 203.17 292.705 203.867 293.197 204.4C293.689 204.928 294.331 205.191 295.122 205.191C295.661 205.191 296.147 205.048 296.581 204.761C297.015 204.468 297.398 204.028 297.732 203.442L298.778 204.146C298.374 204.872 297.858 205.42 297.231 205.789C296.604 206.158 295.878 206.343 295.052 206.343C293.827 206.343 292.837 205.938 292.081 205.13C291.325 204.321 290.947 203.261 290.947 201.948C290.947 200.688 291.322 199.657 292.072 198.854C292.822 198.052 293.786 197.65 294.964 197.65C296.153 197.65 297.094 198.031 297.785 198.793C298.482 199.555 298.831 200.595 298.831 201.913V202.186ZM300.914 206V197.958H302.259V199.197C302.604 198.682 303.021 198.298 303.507 198.046C303.993 197.794 304.556 197.668 305.194 197.668C306.144 197.668 306.885 197.92 307.418 198.424C307.951 198.928 308.218 199.628 308.218 200.524V206H306.812V201.263C306.812 200.448 306.639 199.845 306.293 199.452C305.953 199.054 305.426 198.854 304.711 198.854C304.301 198.854 303.926 198.931 303.586 199.083C303.252 199.229 302.974 199.44 302.751 199.716C302.581 199.927 302.458 200.167 302.382 200.437C302.312 200.706 302.276 201.175 302.276 201.843V206H300.914ZM317.569 202.019C317.569 202.956 317.81 203.688 318.29 204.216C318.771 204.743 319.43 205.007 320.268 205.007C321.088 205.007 321.729 204.729 322.192 204.172C322.661 203.609 322.896 202.833 322.896 201.843C322.896 200.964 322.667 200.275 322.21 199.777C321.753 199.279 321.12 199.03 320.312 199.03C319.491 199.03 318.829 199.306 318.325 199.856C317.821 200.401 317.569 201.122 317.569 202.019ZM316.26 192.377H317.622V199.47C317.933 198.872 318.334 198.424 318.826 198.125C319.318 197.82 319.896 197.668 320.558 197.668C321.712 197.668 322.632 198.061 323.317 198.846C324.009 199.631 324.354 200.683 324.354 202.001C324.354 203.308 324.003 204.359 323.3 205.156C322.597 205.947 321.665 206.343 320.505 206.343C319.884 206.343 319.318 206.188 318.809 205.877C318.299 205.561 317.886 205.115 317.569 204.541V206H316.26V192.377ZM327.853 197.958V201.913C327.853 203.067 328.022 203.876 328.362 204.339C328.708 204.796 329.288 205.024 330.103 205.024C330.917 205.024 331.491 204.799 331.825 204.348C332.165 203.891 332.335 203.079 332.335 201.913V197.958H333.741V202.651C333.741 203.864 333.431 204.784 332.81 205.411C332.188 206.032 331.274 206.343 330.067 206.343C328.872 206.343 327.964 206.029 327.343 205.402C326.722 204.775 326.411 203.858 326.411 202.651V197.958H327.853ZM342.108 201.069C342.062 200.36 341.824 199.815 341.396 199.435C340.975 199.048 340.395 198.854 339.656 198.854C338.988 198.854 338.432 199.057 337.986 199.461C337.541 199.859 337.283 200.396 337.213 201.069H342.108ZM343.585 202.186H337.213V202.309C337.213 203.17 337.459 203.867 337.951 204.4C338.443 204.928 339.085 205.191 339.876 205.191C340.415 205.191 340.901 205.048 341.335 204.761C341.769 204.468 342.152 204.028 342.486 203.442L343.532 204.146C343.128 204.872 342.612 205.42 341.985 205.789C341.358 206.158 340.632 206.343 339.806 206.343C338.581 206.343 337.591 205.938 336.835 205.13C336.079 204.321 335.701 203.261 335.701 201.948C335.701 200.688 336.076 199.657 336.826 198.854C337.576 198.052 338.54 197.65 339.718 197.65C340.907 197.65 341.848 198.031 342.539 198.793C343.236 199.555 343.585 200.595 343.585 201.913V202.186ZM345.668 206V197.958H347.013V199.197C347.358 198.682 347.774 198.298 348.261 198.046C348.747 197.794 349.31 197.668 349.948 197.668C350.897 197.668 351.639 197.92 352.172 198.424C352.705 198.928 352.972 199.628 352.972 200.524V206H351.565V201.263C351.565 200.448 351.393 199.845 351.047 199.452C350.707 199.054 350.18 198.854 349.465 198.854C349.055 198.854 348.68 198.931 348.34 199.083C348.006 199.229 347.728 199.44 347.505 199.716C347.335 199.927 347.212 200.167 347.136 200.437C347.065 200.706 347.03 201.175 347.03 201.843V206H345.668ZM361.857 202.054C361.857 201.146 361.608 200.416 361.11 199.865C360.618 199.309 359.974 199.03 359.177 199.03C358.351 199.03 357.706 199.285 357.243 199.795C356.78 200.305 356.549 201.017 356.549 201.931C356.549 202.903 356.78 203.653 357.243 204.181C357.712 204.708 358.374 204.972 359.229 204.972C360.05 204.972 360.691 204.717 361.154 204.207C361.623 203.691 361.857 202.974 361.857 202.054ZM363.193 197.958V206H361.857V204.541C361.535 205.127 361.122 205.575 360.618 205.886C360.12 206.19 359.561 206.343 358.939 206.343C357.785 206.343 356.854 205.947 356.145 205.156C355.441 204.359 355.09 203.308 355.09 202.001C355.09 200.677 355.433 199.625 356.118 198.846C356.804 198.061 357.721 197.668 358.869 197.668C359.543 197.668 360.126 197.82 360.618 198.125C361.116 198.424 361.518 198.872 361.822 199.47V197.958H363.193ZM365.101 204.646L366.278 203.855C366.501 204.283 366.782 204.605 367.122 204.822C367.462 205.033 367.863 205.139 368.326 205.139C368.777 205.139 369.141 205.027 369.416 204.805C369.697 204.582 369.838 204.289 369.838 203.926C369.838 203.645 369.741 203.41 369.548 203.223C369.36 203.035 369.035 202.862 368.572 202.704C368.525 202.687 368.449 202.66 368.344 202.625C366.387 201.951 365.408 201.107 365.408 200.094C365.408 199.379 365.672 198.796 366.199 198.345C366.727 197.894 367.412 197.668 368.256 197.668C368.953 197.668 369.551 197.809 370.049 198.09C370.547 198.365 370.904 198.758 371.121 199.268L370.005 199.953C369.841 199.584 369.598 199.3 369.275 199.101C368.959 198.901 368.59 198.802 368.168 198.802C367.764 198.802 367.433 198.916 367.175 199.145C366.923 199.367 366.797 199.654 366.797 200.006C366.797 200.498 367.33 200.911 368.396 201.245C368.596 201.31 368.754 201.359 368.871 201.395C369.744 201.676 370.351 201.998 370.69 202.361C371.036 202.719 371.209 203.193 371.209 203.785C371.209 204.547 370.937 205.165 370.392 205.64C369.853 206.108 369.146 206.343 368.273 206.343C367.523 206.343 366.885 206.202 366.357 205.921C365.836 205.64 365.417 205.215 365.101 204.646ZM389.789 206V201.263C389.789 200.448 389.625 199.845 389.297 199.452C388.969 199.054 388.465 198.854 387.785 198.854C387.416 198.854 387.073 198.931 386.757 199.083C386.446 199.229 386.183 199.44 385.966 199.716C385.808 199.927 385.693 200.173 385.623 200.454C385.553 200.735 385.518 201.198 385.518 201.843V206H384.19V201.263C384.19 200.448 384.026 199.845 383.698 199.452C383.37 199.054 382.866 198.854 382.187 198.854C381.817 198.854 381.472 198.931 381.149 199.083C380.833 199.229 380.566 199.44 380.35 199.716C380.197 199.921 380.086 200.158 380.016 200.428C379.951 200.697 379.919 201.169 379.919 201.843V206H378.592V197.958H379.937V199.197C380.271 198.682 380.669 198.298 381.132 198.046C381.595 197.794 382.128 197.668 382.731 197.668C383.382 197.668 383.936 197.809 384.393 198.09C384.85 198.365 385.195 198.77 385.43 199.303C385.775 198.752 386.183 198.342 386.651 198.072C387.126 197.803 387.674 197.668 388.295 197.668C389.191 197.668 389.892 197.92 390.396 198.424C390.899 198.928 391.151 199.628 391.151 200.524V206H389.789ZM400.02 202.054C400.02 201.146 399.771 200.416 399.272 199.865C398.78 199.309 398.136 199.03 397.339 199.03C396.513 199.03 395.868 199.285 395.405 199.795C394.942 200.305 394.711 201.017 394.711 201.931C394.711 202.903 394.942 203.653 395.405 204.181C395.874 204.708 396.536 204.972 397.392 204.972C398.212 204.972 398.854 204.717 399.316 204.207C399.785 203.691 400.02 202.974 400.02 202.054ZM401.355 197.958V206H400.02V204.541C399.697 205.127 399.284 205.575 398.78 205.886C398.282 206.19 397.723 206.343 397.102 206.343C395.947 206.343 395.016 205.947 394.307 205.156C393.604 204.359 393.252 203.308 393.252 202.001C393.252 200.677 393.595 199.625 394.28 198.846C394.966 198.061 395.883 197.668 397.031 197.668C397.705 197.668 398.288 197.82 398.78 198.125C399.278 198.424 399.68 198.872 399.984 199.47V197.958H401.355ZM404.115 206V197.958H405.46V199.197C405.806 198.682 406.222 198.298 406.708 198.046C407.194 197.794 407.757 197.668 408.396 197.668C409.345 197.668 410.086 197.92 410.619 198.424C411.152 198.928 411.419 199.628 411.419 200.524V206H410.013V201.263C410.013 200.448 409.84 199.845 409.494 199.452C409.154 199.054 408.627 198.854 407.912 198.854C407.502 198.854 407.127 198.931 406.787 199.083C406.453 199.229 406.175 199.44 405.952 199.716C405.782 199.927 405.659 200.167 405.583 200.437C405.513 200.706 405.478 201.175 405.478 201.843V206H404.115ZM414.961 202.001C414.961 202.851 415.245 203.571 415.813 204.163C416.382 204.749 417.07 205.042 417.879 205.042C418.682 205.042 419.364 204.749 419.927 204.163C420.489 203.571 420.771 202.851 420.771 202.001C420.771 201.151 420.489 200.434 419.927 199.848C419.364 199.256 418.682 198.96 417.879 198.96C417.064 198.96 416.373 199.256 415.805 199.848C415.242 200.434 414.961 201.151 414.961 202.001ZM413.502 202.001C413.502 201.409 413.61 200.853 413.827 200.331C414.044 199.804 414.36 199.335 414.776 198.925C415.192 198.515 415.664 198.204 416.191 197.993C416.719 197.776 417.281 197.668 417.879 197.668C418.465 197.668 419.019 197.776 419.54 197.993C420.067 198.21 420.545 198.526 420.973 198.942C421.389 199.347 421.705 199.812 421.922 200.34C422.139 200.861 422.247 201.415 422.247 202.001C422.247 202.587 422.139 203.141 421.922 203.662C421.705 204.178 421.389 204.638 420.973 205.042C420.545 205.464 420.064 205.786 419.531 206.009C419.004 206.231 418.453 206.343 417.879 206.343C417.287 206.343 416.725 206.231 416.191 206.009C415.664 205.792 415.192 205.479 414.776 205.068C414.36 204.646 414.044 204.178 413.827 203.662C413.61 203.146 413.502 202.593 413.502 202.001ZM423.548 204.646L424.726 203.855C424.948 204.283 425.229 204.605 425.569 204.822C425.909 205.033 426.311 205.139 426.773 205.139C427.225 205.139 427.588 205.027 427.863 204.805C428.145 204.582 428.285 204.289 428.285 203.926C428.285 203.645 428.188 203.41 427.995 203.223C427.808 203.035 427.482 202.862 427.02 202.704C426.973 202.687 426.896 202.66 426.791 202.625C424.834 201.951 423.855 201.107 423.855 200.094C423.855 199.379 424.119 198.796 424.646 198.345C425.174 197.894 425.859 197.668 426.703 197.668C427.4 197.668 427.998 197.809 428.496 198.09C428.994 198.365 429.352 198.758 429.568 199.268L428.452 199.953C428.288 199.584 428.045 199.3 427.723 199.101C427.406 198.901 427.037 198.802 426.615 198.802C426.211 198.802 425.88 198.916 425.622 199.145C425.37 199.367 425.244 199.654 425.244 200.006C425.244 200.498 425.777 200.911 426.844 201.245C427.043 201.31 427.201 201.359 427.318 201.395C428.191 201.676 428.798 201.998 429.138 202.361C429.483 202.719 429.656 203.193 429.656 203.785C429.656 204.547 429.384 205.165 428.839 205.64C428.3 206.108 427.594 206.343 426.721 206.343C425.971 206.343 425.332 206.202 424.805 205.921C424.283 205.64 423.864 205.215 423.548 204.646Z" fill="white"/>
</svg>
