<svg width="535" height="209" viewBox="0 0 535 209" fill="none" xmlns="http://www.w3.org/2000/svg">
<path d="M30.5625 31V8.125H44.0312V12.25H35.4531V16.9531H44.0312V21.1094H35.4531V31H30.5625ZM47.9062 31V8.125H52.7969V31H47.9062ZM58.0312 31V8.125H63.1094L73.2344 21.4375C73.526 21.8125 73.8438 22.3438 74.1875 23.0312C74.5417 23.7083 74.9062 24.5104 75.2812 25.4375C75.1667 24.7604 75.0833 24.0885 75.0312 23.4219C74.9792 22.7552 74.9531 21.9219 74.9531 20.9219V8.125H79.625V31H74.8281L64.4219 17.4375C64.1302 17.0625 63.8125 16.5365 63.4688 15.8594C63.125 15.1719 62.7604 14.3542 62.375 13.4062C62.4896 14.0625 62.5729 14.7292 62.625 15.4062C62.6771 16.0729 62.7031 16.9167 62.7031 17.9375V31H58.0312ZM96.5625 22.2969L94 14.9062C93.9271 14.6875 93.8333 14.3125 93.7188 13.7812C93.6042 13.25 93.4844 12.599 93.3594 11.8281C93.224 12.5677 93.0938 13.2344 92.9688 13.8281C92.8438 14.4115 92.75 14.8021 92.6875 15L90.2188 22.2969H96.5625ZM82 31L90.7031 8.125H96.2969L105.125 31H99.5625L97.7031 26.1406H88.8438L87.25 31H82ZM107.531 31V8.125H112.609L122.734 21.4375C123.026 21.8125 123.344 22.3438 123.688 23.0312C124.042 23.7083 124.406 24.5104 124.781 25.4375C124.667 24.7604 124.583 24.0885 124.531 23.4219C124.479 22.7552 124.453 21.9219 124.453 20.9219V8.125H129.125V31H124.328L113.922 17.4375C113.63 17.0625 113.312 16.5365 112.969 15.8594C112.625 15.1719 112.26 14.3542 111.875 13.4062C111.99 14.0625 112.073 14.7292 112.125 15.4062C112.177 16.0729 112.203 16.9167 112.203 17.9375V31H107.531ZM152.641 14.0781C151.651 13.1927 150.635 12.5469 149.594 12.1406C148.552 11.724 147.438 11.5156 146.25 11.5156C143.812 11.5156 141.87 12.2448 140.422 13.7031C138.974 15.1615 138.25 17.1198 138.25 19.5781C138.25 21.9844 138.922 23.8958 140.266 25.3125C141.609 26.7188 143.443 27.4219 145.766 27.4219C147.089 27.4219 148.318 27.2031 149.453 26.7656C150.589 26.3177 151.641 25.651 152.609 24.7656L152.578 29.7812C151.536 30.3958 150.443 30.8542 149.297 31.1562C148.161 31.4583 146.964 31.6094 145.703 31.6094C142.057 31.6094 139.062 30.4792 136.719 28.2188C134.385 25.9479 133.219 23.0677 133.219 19.5781C133.219 16.099 134.391 13.2292 136.734 10.9688C139.078 8.70833 142.099 7.57812 145.797 7.57812C147.036 7.57812 148.234 7.70833 149.391 7.96875C150.547 8.22917 151.688 8.63021 152.812 9.17188L152.641 14.0781ZM157.281 31V8.125H162.172V31H157.281ZM179.25 22.2969L176.688 14.9062C176.615 14.6875 176.521 14.3125 176.406 13.7812C176.292 13.25 176.172 12.599 176.047 11.8281C175.911 12.5677 175.781 13.2344 175.656 13.8281C175.531 14.4115 175.438 14.8021 175.375 15L172.906 22.2969H179.25ZM164.688 31L173.391 8.125H178.984L187.812 31H182.25L180.391 26.1406H171.531L169.938 31H164.688ZM188.234 31L191.719 8.125H196.844L201.25 21.5938C201.344 21.875 201.443 22.2865 201.547 22.8281C201.661 23.3698 201.766 23.9896 201.859 24.6875C201.943 23.9792 202.036 23.349 202.141 22.7969C202.245 22.2344 202.344 21.8229 202.438 21.5625L206.922 8.125H211.969L215.469 31H210.828L209.156 17.2031C209.031 16.1823 208.948 15.4115 208.906 14.8906C208.865 14.3698 208.844 13.8854 208.844 13.4375C208.844 13.1979 208.844 13.0208 208.844 12.9062C208.854 12.7812 208.865 12.6719 208.875 12.5781C208.719 13.474 208.568 14.25 208.422 14.9062C208.286 15.5521 208.161 16.0417 208.047 16.375L203.203 31H200.453L195.688 16.375C195.646 16.2396 195.552 15.8646 195.406 15.25C195.271 14.6354 195.078 13.7396 194.828 12.5625V13.2344C194.828 14.2969 194.734 15.599 194.547 17.1406L194.531 17.2031L192.875 31H188.234ZM218.75 31V8.125H223.641V31H218.75ZM228.875 31V8.125H242.344V12.25H233.766V16.9531H242.344V21.1094H233.766V26.8438H242.344V31H228.875ZM247.156 31V8.125H252.234L262.359 21.4375C262.651 21.8125 262.969 22.3438 263.312 23.0312C263.667 23.7083 264.031 24.5104 264.406 25.4375C264.292 24.7604 264.208 24.0885 264.156 23.4219C264.104 22.7552 264.078 21.9219 264.078 20.9219V8.125H268.75V31H263.953L253.547 17.4375C253.255 17.0625 252.938 16.5365 252.594 15.8594C252.25 15.1719 251.885 14.3542 251.5 13.4062C251.615 14.0625 251.698 14.7292 251.75 15.4062C251.802 16.0729 251.828 16.9167 251.828 17.9375V31H247.156ZM282.391 12.2812V31H277.484V12.2812H271.891V8.125H288.016V12.2812H282.391ZM314.047 19.6094C314.047 21.2448 313.74 22.7917 313.125 24.25C312.521 25.7083 311.646 26.9896 310.5 28.0938C309.312 29.2292 307.974 30.099 306.484 30.7031C304.995 31.3073 303.453 31.6094 301.859 31.6094C300.464 31.6094 299.094 31.375 297.75 30.9062C296.417 30.4271 295.193 29.7448 294.078 28.8594C292.641 27.7135 291.536 26.3438 290.766 24.75C290.005 23.1562 289.625 21.4427 289.625 19.6094C289.625 17.9635 289.927 16.4219 290.531 14.9844C291.135 13.5365 292.021 12.25 293.188 11.125C294.333 10.0104 295.661 9.14583 297.172 8.53125C298.693 7.91667 300.255 7.60938 301.859 7.60938C303.453 7.60938 305 7.91667 306.5 8.53125C308.01 9.14583 309.344 10.0104 310.5 11.125C311.656 12.25 312.536 13.5365 313.141 14.9844C313.745 16.4323 314.047 17.974 314.047 19.6094ZM301.859 27.25C303.932 27.25 305.641 26.526 306.984 25.0781C308.339 23.6198 309.016 21.7969 309.016 19.6094C309.016 17.4427 308.333 15.6198 306.969 14.1406C305.604 12.6615 303.901 11.9219 301.859 11.9219C299.786 11.9219 298.068 12.6615 296.703 14.1406C295.339 15.6094 294.656 17.4323 294.656 19.6094C294.656 21.8177 295.328 23.6458 296.672 25.0938C298.016 26.5312 299.745 27.25 301.859 27.25ZM332.922 26.875H335.641C338.203 26.875 340.068 26.2917 341.234 25.125C342.411 23.9583 343 22.1094 343 19.5781C343 17.0573 342.411 15.2135 341.234 14.0469C340.068 12.8698 338.203 12.2812 335.641 12.2812H332.922V26.875ZM328.031 31V8.125H334.266C336.724 8.125 338.661 8.29688 340.078 8.64062C341.495 8.98438 342.74 9.55729 343.812 10.3594C345.198 11.3906 346.245 12.6927 346.953 14.2656C347.672 15.8281 348.031 17.6094 348.031 19.6094C348.031 21.6406 347.667 23.4427 346.938 25.0156C346.208 26.5781 345.141 27.8698 343.734 28.8906C342.693 29.6406 341.531 30.1823 340.25 30.5156C338.979 30.8385 337.115 31 334.656 31H332.922H328.031ZM352.125 31V8.125H365.594V12.25H357.016V16.9531H365.594V21.1094H357.016V26.8438H365.594V31H352.125ZM392.094 22.2969L389.531 14.9062C389.458 14.6875 389.365 14.3125 389.25 13.7812C389.135 13.25 389.016 12.599 388.891 11.8281C388.755 12.5677 388.625 13.2344 388.5 13.8281C388.375 14.4115 388.281 14.8021 388.219 15L385.75 22.2969H392.094ZM377.531 31L386.234 8.125H391.828L400.656 31H395.094L393.234 26.1406H384.375L382.781 31H377.531ZM420.922 14.0781C419.932 13.1927 418.917 12.5469 417.875 12.1406C416.833 11.724 415.719 11.5156 414.531 11.5156C412.094 11.5156 410.151 12.2448 408.703 13.7031C407.255 15.1615 406.531 17.1198 406.531 19.5781C406.531 21.9844 407.203 23.8958 408.547 25.3125C409.891 26.7188 411.724 27.4219 414.047 27.4219C415.37 27.4219 416.599 27.2031 417.734 26.7656C418.87 26.3177 419.922 25.651 420.891 24.7656L420.859 29.7812C419.818 30.3958 418.724 30.8542 417.578 31.1562C416.443 31.4583 415.245 31.6094 413.984 31.6094C410.339 31.6094 407.344 30.4792 405 28.2188C402.667 25.9479 401.5 23.0677 401.5 19.5781C401.5 16.099 402.672 13.2292 405.016 10.9688C407.359 8.70833 410.38 7.57812 414.078 7.57812C415.318 7.57812 416.516 7.70833 417.672 7.96875C418.828 8.22917 419.969 8.63021 421.094 9.17188L420.922 14.0781ZM434.016 12.2812V31H429.109V12.2812H423.516V8.125H439.641V12.2812H434.016ZM442.906 31V8.125H447.797V31H442.906ZM458.828 31L450.375 8.125H455.781L460.234 22.3906C460.318 22.6823 460.448 23.224 460.625 24.0156C460.802 24.8073 460.99 25.7083 461.188 26.7188C461.323 25.7396 461.469 24.8698 461.625 24.1094C461.792 23.349 461.953 22.724 462.109 22.2344L466.625 8.125H471.969L463.453 31H458.828ZM497.297 19.6094C497.297 21.2448 496.99 22.7917 496.375 24.25C495.771 25.7083 494.896 26.9896 493.75 28.0938C492.562 29.2292 491.224 30.099 489.734 30.7031C488.245 31.3073 486.703 31.6094 485.109 31.6094C483.714 31.6094 482.344 31.375 481 30.9062C479.667 30.4271 478.443 29.7448 477.328 28.8594C475.891 27.7135 474.786 26.3438 474.016 24.75C473.255 23.1562 472.875 21.4427 472.875 19.6094C472.875 17.9635 473.177 16.4219 473.781 14.9844C474.385 13.5365 475.271 12.25 476.438 11.125C477.583 10.0104 478.911 9.14583 480.422 8.53125C481.943 7.91667 483.505 7.60938 485.109 7.60938C486.703 7.60938 488.25 7.91667 489.75 8.53125C491.26 9.14583 492.594 10.0104 493.75 11.125C494.906 12.25 495.786 13.5365 496.391 14.9844C496.995 16.4323 497.297 17.974 497.297 19.6094ZM485.109 27.25C487.182 27.25 488.891 26.526 490.234 25.0781C491.589 23.6198 492.266 21.7969 492.266 19.6094C492.266 17.4427 491.583 15.6198 490.219 14.1406C488.854 12.6615 487.151 11.9219 485.109 11.9219C483.036 11.9219 481.318 12.6615 479.953 14.1406C478.589 15.6094 477.906 17.4323 477.906 19.6094C477.906 21.8177 478.578 23.6458 479.922 25.0938C481.266 26.5312 482.995 27.25 485.109 27.25ZM499.969 28.0938L502.688 25.0156C503.031 25.8594 503.583 26.526 504.344 27.0156C505.104 27.4948 505.958 27.7344 506.906 27.7344C508.052 27.7344 508.958 27.4635 509.625 26.9219C510.292 26.3802 510.625 25.651 510.625 24.7344C510.625 23.651 509.516 22.5729 507.297 21.5C506.578 21.1562 506.01 20.875 505.594 20.6562C503.594 19.6146 502.208 18.599 501.438 17.6094C500.667 16.6094 500.281 15.4219 500.281 14.0469C500.281 12.1615 501.026 10.6146 502.516 9.40625C504.016 8.1875 505.958 7.57812 508.344 7.57812C509.729 7.57812 510.922 7.82292 511.922 8.3125C512.932 8.79167 513.823 9.54688 514.594 10.5781L511.703 13.3438C511.359 12.6771 510.901 12.1823 510.328 11.8594C509.766 11.526 509.083 11.3594 508.281 11.3594C507.312 11.3594 506.531 11.6042 505.938 12.0938C505.344 12.5729 505.047 13.1979 505.047 13.9688C505.047 15.1771 506.224 16.2812 508.578 17.2812C509.047 17.4792 509.406 17.6354 509.656 17.75C511.594 18.6354 513.026 19.6354 513.953 20.75C514.891 21.8646 515.359 23.1354 515.359 24.5625C515.359 26.7083 514.625 28.4219 513.156 29.7031C511.698 30.974 509.734 31.6094 507.266 31.6094C505.516 31.6094 504.016 31.3073 502.766 30.7031C501.516 30.099 500.583 29.2292 499.969 28.0938ZM30.5625 69V46.125H44.0312V50.25H35.4531V54.9531H44.0312V59.1094H35.4531V69H30.5625ZM47.9062 69V46.125H52.7969V69H47.9062ZM67.3125 46.125V61.1875C67.3125 62.9062 67.2448 64.1667 67.1094 64.9688C66.974 65.7708 66.75 66.4531 66.4375 67.0156C65.9792 67.8698 65.3021 68.5156 64.4062 68.9531C63.5208 69.3906 62.4427 69.6094 61.1719 69.6094C59.5677 69.6094 58.2812 69.2083 57.3125 68.4062C56.3542 67.6042 55.7396 66.4271 55.4688 64.875L59.0156 63.1875C59.099 63.9062 59.2812 64.4479 59.5625 64.8125C59.8542 65.1771 60.25 65.3594 60.75 65.3594C61.375 65.3594 61.8073 65.1354 62.0469 64.6875C62.2865 64.2292 62.4062 63.2135 62.4062 61.6406V59.5938V46.125H67.3125ZM95.6719 57.6094C95.6719 59.2448 95.3646 60.7917 94.75 62.25C94.1458 63.7083 93.2708 64.9896 92.125 66.0938C90.9375 67.2292 89.599 68.099 88.1094 68.7031C86.6198 69.3073 85.0781 69.6094 83.4844 69.6094C82.0885 69.6094 80.7188 69.375 79.375 68.9062C78.0417 68.4271 76.8177 67.7448 75.7031 66.8594C74.2656 65.7135 73.1615 64.3438 72.3906 62.75C71.6302 61.1562 71.25 59.4427 71.25 57.6094C71.25 55.9635 71.5521 54.4219 72.1562 52.9844C72.7604 51.5365 73.6458 50.25 74.8125 49.125C75.9583 48.0104 77.2865 47.1458 78.7969 46.5312C80.3177 45.9167 81.8802 45.6094 83.4844 45.6094C85.0781 45.6094 86.625 45.9167 88.125 46.5312C89.6354 47.1458 90.9688 48.0104 92.125 49.125C93.2812 50.25 94.1615 51.5365 94.7656 52.9844C95.3698 54.4323 95.6719 55.974 95.6719 57.6094ZM83.4844 65.25C85.5573 65.25 87.2656 64.526 88.6094 63.0781C89.9635 61.6198 90.6406 59.7969 90.6406 57.6094C90.6406 55.4427 89.9583 53.6198 88.5938 52.1406C87.2292 50.6615 85.526 49.9219 83.4844 49.9219C81.4115 49.9219 79.6927 50.6615 78.3281 52.1406C76.9635 53.6094 76.2812 55.4323 76.2812 57.6094C76.2812 59.8177 76.9531 61.6458 78.2969 63.0938C79.6406 64.5312 81.3698 65.25 83.4844 65.25ZM98.3438 66.0938L101.062 63.0156C101.406 63.8594 101.958 64.526 102.719 65.0156C103.479 65.4948 104.333 65.7344 105.281 65.7344C106.427 65.7344 107.333 65.4635 108 64.9219C108.667 64.3802 109 63.651 109 62.7344C109 61.651 107.891 60.5729 105.672 59.5C104.953 59.1562 104.385 58.875 103.969 58.6562C101.969 57.6146 100.583 56.599 99.8125 55.6094C99.0417 54.6094 98.6562 53.4219 98.6562 52.0469C98.6562 50.1615 99.401 48.6146 100.891 47.4062C102.391 46.1875 104.333 45.5781 106.719 45.5781C108.104 45.5781 109.297 45.8229 110.297 46.3125C111.307 46.7917 112.198 47.5469 112.969 48.5781L110.078 51.3438C109.734 50.6771 109.276 50.1823 108.703 49.8594C108.141 49.526 107.458 49.3594 106.656 49.3594C105.688 49.3594 104.906 49.6042 104.312 50.0938C103.719 50.5729 103.422 51.1979 103.422 51.9688C103.422 53.1771 104.599 54.2812 106.953 55.2812C107.422 55.4792 107.781 55.6354 108.031 55.75C109.969 56.6354 111.401 57.6354 112.328 58.75C113.266 59.8646 113.734 61.1354 113.734 62.5625C113.734 64.7083 113 66.4219 111.531 67.7031C110.073 68.974 108.109 69.6094 105.641 69.6094C103.891 69.6094 102.391 69.3073 101.141 68.7031C99.8906 68.099 98.9583 67.2292 98.3438 66.0938ZM132.516 56.4531H133.219C134.552 56.4531 135.521 56.1771 136.125 55.625C136.729 55.0729 137.031 54.1875 137.031 52.9688C137.031 51.8438 136.729 51.026 136.125 50.5156C135.521 49.9948 134.552 49.7344 133.219 49.7344H132.516V56.4531ZM127.594 69V46.125H133.219C136.219 46.125 138.432 46.6979 139.859 47.8438C141.297 48.9896 142.016 50.7604 142.016 53.1562C142.016 55.375 141.292 57.1146 139.844 58.375C138.406 59.6354 136.411 60.2656 133.859 60.2656H132.516V69H127.594ZM145.406 69V46.125H158.875V50.25H150.297V54.9531H158.875V59.1094H150.297V64.8438H158.875V69H145.406ZM163.688 69V46.125H168.766L178.891 59.4375C179.182 59.8125 179.5 60.3438 179.844 61.0312C180.198 61.7083 180.562 62.5104 180.938 63.4375C180.823 62.7604 180.74 62.0885 180.688 61.4219C180.635 60.7552 180.609 59.9219 180.609 58.9219V46.125H185.281V69H180.484L170.078 55.4375C169.786 55.0625 169.469 54.5365 169.125 53.8594C168.781 53.1719 168.417 52.3542 168.031 51.4062C168.146 52.0625 168.229 52.7292 168.281 53.4062C168.333 54.0729 168.359 54.9167 168.359 55.9375V69H163.688ZM188.906 66.0938L191.625 63.0156C191.969 63.8594 192.521 64.526 193.281 65.0156C194.042 65.4948 194.896 65.7344 195.844 65.7344C196.99 65.7344 197.896 65.4635 198.562 64.9219C199.229 64.3802 199.562 63.651 199.562 62.7344C199.562 61.651 198.453 60.5729 196.234 59.5C195.516 59.1562 194.948 58.875 194.531 58.6562C192.531 57.6146 191.146 56.599 190.375 55.6094C189.604 54.6094 189.219 53.4219 189.219 52.0469C189.219 50.1615 189.964 48.6146 191.453 47.4062C192.953 46.1875 194.896 45.5781 197.281 45.5781C198.667 45.5781 199.859 45.8229 200.859 46.3125C201.87 46.7917 202.76 47.5469 203.531 48.5781L200.641 51.3438C200.297 50.6771 199.839 50.1823 199.266 49.8594C198.703 49.526 198.021 49.3594 197.219 49.3594C196.25 49.3594 195.469 49.6042 194.875 50.0938C194.281 50.5729 193.984 51.1979 193.984 51.9688C193.984 53.1771 195.161 54.2812 197.516 55.2812C197.984 55.4792 198.344 55.6354 198.594 55.75C200.531 56.6354 201.964 57.6354 202.891 58.75C203.828 59.8646 204.297 61.1354 204.297 62.5625C204.297 64.7083 203.562 66.4219 202.094 67.7031C200.635 68.974 198.672 69.6094 196.203 69.6094C194.453 69.6094 192.953 69.3073 191.703 68.7031C190.453 68.099 189.521 67.2292 188.906 66.0938ZM220.156 60.2969L217.594 52.9062C217.521 52.6875 217.427 52.3125 217.312 51.7812C217.198 51.25 217.078 50.599 216.953 49.8281C216.818 50.5677 216.688 51.2344 216.562 51.8281C216.438 52.4115 216.344 52.8021 216.281 53L213.812 60.2969H220.156ZM205.594 69L214.297 46.125H219.891L228.719 69H223.156L221.297 64.1406H212.438L210.844 69H205.594ZM236.016 64.875H238.734C241.297 64.875 243.161 64.2917 244.328 63.125C245.505 61.9583 246.094 60.1094 246.094 57.5781C246.094 55.0573 245.505 53.2135 244.328 52.0469C243.161 50.8698 241.297 50.2812 238.734 50.2812H236.016V64.875ZM231.125 69V46.125H237.359C239.818 46.125 241.755 46.2969 243.172 46.6406C244.589 46.9844 245.833 47.5573 246.906 48.3594C248.292 49.3906 249.339 50.6927 250.047 52.2656C250.766 53.8281 251.125 55.6094 251.125 57.6094C251.125 59.6406 250.76 61.4427 250.031 63.0156C249.302 64.5781 248.234 65.8698 246.828 66.8906C245.786 67.6406 244.625 68.1823 243.344 68.5156C242.073 68.8385 240.208 69 237.75 69H236.016H231.125ZM278.641 57.6094C278.641 59.2448 278.333 60.7917 277.719 62.25C277.115 63.7083 276.24 64.9896 275.094 66.0938C273.906 67.2292 272.568 68.099 271.078 68.7031C269.589 69.3073 268.047 69.6094 266.453 69.6094C265.057 69.6094 263.688 69.375 262.344 68.9062C261.01 68.4271 259.786 67.7448 258.672 66.8594C257.234 65.7135 256.13 64.3438 255.359 62.75C254.599 61.1562 254.219 59.4427 254.219 57.6094C254.219 55.9635 254.521 54.4219 255.125 52.9844C255.729 51.5365 256.615 50.25 257.781 49.125C258.927 48.0104 260.255 47.1458 261.766 46.5312C263.286 45.9167 264.849 45.6094 266.453 45.6094C268.047 45.6094 269.594 45.9167 271.094 46.5312C272.604 47.1458 273.938 48.0104 275.094 49.125C276.25 50.25 277.13 51.5365 277.734 52.9844C278.339 54.4323 278.641 55.974 278.641 57.6094ZM266.453 65.25C268.526 65.25 270.234 64.526 271.578 63.0781C272.932 61.6198 273.609 59.7969 273.609 57.6094C273.609 55.4427 272.927 53.6198 271.562 52.1406C270.198 50.6615 268.495 49.9219 266.453 49.9219C264.38 49.9219 262.661 50.6615 261.297 52.1406C259.932 53.6094 259.25 55.4323 259.25 57.6094C259.25 59.8177 259.922 61.6458 261.266 63.0938C262.609 64.5312 264.339 65.25 266.453 65.25ZM281.312 66.0938L284.031 63.0156C284.375 63.8594 284.927 64.526 285.688 65.0156C286.448 65.4948 287.302 65.7344 288.25 65.7344C289.396 65.7344 290.302 65.4635 290.969 64.9219C291.635 64.3802 291.969 63.651 291.969 62.7344C291.969 61.651 290.859 60.5729 288.641 59.5C287.922 59.1562 287.354 58.875 286.938 58.6562C284.938 57.6146 283.552 56.599 282.781 55.6094C282.01 54.6094 281.625 53.4219 281.625 52.0469C281.625 50.1615 282.37 48.6146 283.859 47.4062C285.359 46.1875 287.302 45.5781 289.688 45.5781C291.073 45.5781 292.266 45.8229 293.266 46.3125C294.276 46.7917 295.167 47.5469 295.938 48.5781L293.047 51.3438C292.703 50.6771 292.245 50.1823 291.672 49.8594C291.109 49.526 290.427 49.3594 289.625 49.3594C288.656 49.3594 287.875 49.6042 287.281 50.0938C286.688 50.5729 286.391 51.1979 286.391 51.9688C286.391 53.1771 287.568 54.2812 289.922 55.2812C290.391 55.4792 290.75 55.6354 291 55.75C292.938 56.6354 294.37 57.6354 295.297 58.75C296.234 59.8646 296.703 61.1354 296.703 62.5625C296.703 64.7083 295.969 66.4219 294.5 67.7031C293.042 68.974 291.078 69.6094 288.609 69.6094C286.859 69.6094 285.359 69.3073 284.109 68.7031C282.859 68.099 281.927 67.2292 281.312 66.0938ZM315.484 56.4531H316.188C317.521 56.4531 318.49 56.1771 319.094 55.625C319.698 55.0729 320 54.1875 320 52.9688C320 51.8438 319.698 51.026 319.094 50.5156C318.49 49.9948 317.521 49.7344 316.188 49.7344H315.484V56.4531ZM310.562 69V46.125H316.188C319.188 46.125 321.401 46.6979 322.828 47.8438C324.266 48.9896 324.984 50.7604 324.984 53.1562C324.984 55.375 324.26 57.1146 322.812 58.375C321.375 59.6354 319.38 60.2656 316.828 60.2656H315.484V69H310.562ZM338.625 60.2969L336.062 52.9062C335.99 52.6875 335.896 52.3125 335.781 51.7812C335.667 51.25 335.547 50.599 335.422 49.8281C335.286 50.5677 335.156 51.2344 335.031 51.8281C334.906 52.4115 334.812 52.8021 334.75 53L332.281 60.2969H338.625ZM324.062 69L332.766 46.125H338.359L347.188 69H341.625L339.766 64.1406H330.906L329.312 69H324.062ZM366.141 69H360.5L354.484 58.3125V69H349.594V46.125H356.594C359.375 46.125 361.458 46.6667 362.844 47.75C364.229 48.8229 364.922 50.4427 364.922 52.6094C364.922 54.1823 364.448 55.526 363.5 56.6406C362.552 57.7552 361.328 58.4062 359.828 58.5938L366.141 69ZM354.484 55.875H355.219C357.198 55.875 358.505 55.6615 359.141 55.2344C359.776 54.7969 360.094 54.0417 360.094 52.9688C360.094 51.8438 359.75 51.0469 359.062 50.5781C358.385 50.099 357.104 49.8594 355.219 49.8594H354.484V55.875ZM380.844 60.2969L378.281 52.9062C378.208 52.6875 378.115 52.3125 378 51.7812C377.885 51.25 377.766 50.599 377.641 49.8281C377.505 50.5677 377.375 51.2344 377.25 51.8281C377.125 52.4115 377.031 52.8021 376.969 53L374.5 60.2969H380.844ZM366.281 69L374.984 46.125H380.578L389.406 69H383.844L381.984 64.1406H373.125L371.531 69H366.281ZM39.1094 88.2812V107H34.2031V88.2812H28.6094V84.125H44.7344V88.2812H39.1094ZM67.5781 84.125V98.3594C67.5781 101.464 66.7604 103.781 65.125 105.312C63.4896 106.844 61.026 107.609 57.7344 107.609C54.3906 107.609 51.901 106.844 50.2656 105.312C48.6302 103.781 47.8125 101.464 47.8125 98.3594V84.125H52.6719V97.5938C52.6719 99.4792 53.0885 100.901 53.9219 101.859C54.7552 102.807 56 103.281 57.6562 103.281C59.3229 103.281 60.5833 102.802 61.4375 101.844C62.2917 100.885 62.7188 99.4688 62.7188 97.5938V84.125H67.5781ZM82.5 107V84.125H95.9688V88.25H87.3906V92.9531H95.9688V97.1094H87.3906V102.844H95.9688V107H82.5ZM98.7969 107L102.281 84.125H107.406L111.812 97.5938C111.906 97.875 112.005 98.2865 112.109 98.8281C112.224 99.3698 112.328 99.9896 112.422 100.688C112.505 99.9792 112.599 99.349 112.703 98.7969C112.807 98.2344 112.906 97.8229 113 97.5625L117.484 84.125H122.531L126.031 107H121.391L119.719 93.2031C119.594 92.1823 119.51 91.4115 119.469 90.8906C119.427 90.3698 119.406 89.8854 119.406 89.4375C119.406 89.1979 119.406 89.0208 119.406 88.9062C119.417 88.7812 119.427 88.6719 119.438 88.5781C119.281 89.474 119.13 90.25 118.984 90.9062C118.849 91.5521 118.724 92.0417 118.609 92.375L113.766 107H111.016L106.25 92.375C106.208 92.2396 106.115 91.8646 105.969 91.25C105.833 90.6354 105.641 89.7396 105.391 88.5625V89.2344C105.391 90.2969 105.297 91.599 105.109 93.1406L105.094 93.2031L103.438 107H98.7969ZM134.141 94.4531H134.844C136.177 94.4531 137.146 94.1771 137.75 93.625C138.354 93.0729 138.656 92.1875 138.656 90.9688C138.656 89.8438 138.354 89.026 137.75 88.5156C137.146 87.9948 136.177 87.7344 134.844 87.7344H134.141V94.4531ZM129.219 107V84.125H134.844C137.844 84.125 140.057 84.6979 141.484 85.8438C142.922 86.9896 143.641 88.7604 143.641 91.1562C143.641 93.375 142.917 95.1146 141.469 96.375C140.031 97.6354 138.036 98.2656 135.484 98.2656H134.141V107H129.219ZM163.578 107H157.938L151.922 96.3125V107H147.031V84.125H154.031C156.812 84.125 158.896 84.6667 160.281 85.75C161.667 86.8229 162.359 88.4427 162.359 90.6094C162.359 92.1823 161.885 93.526 160.938 94.6406C159.99 95.7552 158.766 96.4062 157.266 96.5938L163.578 107ZM151.922 93.875H152.656C154.635 93.875 155.943 93.6615 156.578 93.2344C157.214 92.7969 157.531 92.0417 157.531 90.9688C157.531 89.8438 157.188 89.0469 156.5 88.5781C155.823 88.099 154.542 87.8594 152.656 87.8594H151.922V93.875ZM166.438 107V84.125H179.906V88.25H171.328V92.9531H179.906V97.1094H171.328V102.844H179.906V107H166.438ZM183.25 104.094L185.969 101.016C186.312 101.859 186.865 102.526 187.625 103.016C188.385 103.495 189.24 103.734 190.188 103.734C191.333 103.734 192.24 103.464 192.906 102.922C193.573 102.38 193.906 101.651 193.906 100.734C193.906 99.651 192.797 98.5729 190.578 97.5C189.859 97.1562 189.292 96.875 188.875 96.6562C186.875 95.6146 185.49 94.599 184.719 93.6094C183.948 92.6094 183.562 91.4219 183.562 90.0469C183.562 88.1615 184.307 86.6146 185.797 85.4062C187.297 84.1875 189.24 83.5781 191.625 83.5781C193.01 83.5781 194.203 83.8229 195.203 84.3125C196.214 84.7917 197.104 85.5469 197.875 86.5781L194.984 89.3438C194.641 88.6771 194.182 88.1823 193.609 87.8594C193.047 87.526 192.365 87.3594 191.562 87.3594C190.594 87.3594 189.812 87.6042 189.219 88.0938C188.625 88.5729 188.328 89.1979 188.328 89.9688C188.328 91.1771 189.505 92.2812 191.859 93.2812C192.328 93.4792 192.688 93.6354 192.938 93.75C194.875 94.6354 196.307 95.6354 197.234 96.75C198.172 97.8646 198.641 99.1354 198.641 100.562C198.641 102.708 197.906 104.422 196.438 105.703C194.979 106.974 193.016 107.609 190.547 107.609C188.797 107.609 187.297 107.307 186.047 106.703C184.797 106.099 183.865 105.229 183.25 104.094ZM214.5 98.2969L211.938 90.9062C211.865 90.6875 211.771 90.3125 211.656 89.7812C211.542 89.25 211.422 88.599 211.297 87.8281C211.161 88.5677 211.031 89.2344 210.906 89.8281C210.781 90.4115 210.688 90.8021 210.625 91L208.156 98.2969H214.5ZM199.938 107L208.641 84.125H214.234L223.062 107H217.5L215.641 102.141H206.781L205.188 107H199.938Z" fill="white"/>
<path d="M27 160H15C10.5817 160 7 156.418 7 152V94V28" stroke="white" stroke-width="1.5"/>
<circle cx="7" cy="21" r="6.25" stroke="white" stroke-width="1.5"/>
<rect x="25" y="144" width="294" height="65" rx="10" fill="#002A61"/>
<path d="M51.7969 174V162.592H48.1582V161.133H56.9648V162.592H53.3438V174H51.7969ZM62.0889 169.069C62.042 168.36 61.8047 167.815 61.377 167.435C60.9551 167.048 60.375 166.854 59.6367 166.854C58.9688 166.854 58.4121 167.057 57.9668 167.461C57.5215 167.859 57.2637 168.396 57.1934 169.069H62.0889ZM63.5654 170.186H57.1934V170.309C57.1934 171.17 57.4395 171.867 57.9316 172.4C58.4238 172.928 59.0654 173.191 59.8564 173.191C60.3955 173.191 60.8818 173.048 61.3154 172.761C61.749 172.468 62.1328 172.028 62.4668 171.442L63.5127 172.146C63.1084 172.872 62.5928 173.42 61.9658 173.789C61.3389 174.158 60.6123 174.343 59.7861 174.343C58.5615 174.343 57.5713 173.938 56.8154 173.13C56.0596 172.321 55.6816 171.261 55.6816 169.948C55.6816 168.688 56.0566 167.657 56.8066 166.854C57.5566 166.052 58.5205 165.65 59.6982 165.65C60.8877 165.65 61.8281 166.031 62.5195 166.793C63.2168 167.555 63.5654 168.595 63.5654 169.913V170.186ZM77.1094 170.019C77.1094 169.122 76.8604 168.401 76.3623 167.856C75.8643 167.306 75.208 167.03 74.3936 167.03C73.5791 167.03 72.9434 167.279 72.4863 167.777C72.0293 168.275 71.8008 168.964 71.8008 169.843C71.8008 170.833 72.0322 171.609 72.4951 172.172C72.958 172.729 73.5967 173.007 74.4111 173.007C75.2549 173.007 75.9141 172.743 76.3887 172.216C76.8691 171.688 77.1094 170.956 77.1094 170.019ZM78.4453 160.377V174H77.1094V172.541C76.793 173.121 76.3828 173.566 75.8789 173.877C75.375 174.188 74.8125 174.343 74.1914 174.343C73.0371 174.343 72.1055 173.947 71.3965 173.156C70.6934 172.359 70.3418 171.308 70.3418 170.001C70.3418 168.683 70.6875 167.631 71.3789 166.846C72.0703 166.061 72.9902 165.668 74.1387 165.668C74.8066 165.668 75.3867 165.82 75.8789 166.125C76.3711 166.424 76.7695 166.872 77.0742 167.47V160.377H78.4453ZM87.4102 170.054C87.4102 169.146 87.1611 168.416 86.6631 167.865C86.1709 167.309 85.5264 167.03 84.7295 167.03C83.9033 167.03 83.2588 167.285 82.7959 167.795C82.333 168.305 82.1016 169.017 82.1016 169.931C82.1016 170.903 82.333 171.653 82.7959 172.181C83.2646 172.708 83.9268 172.972 84.7822 172.972C85.6025 172.972 86.2441 172.717 86.707 172.207C87.1758 171.691 87.4102 170.974 87.4102 170.054ZM88.7461 165.958V174H87.4102V172.541C87.0879 173.127 86.6748 173.575 86.1709 173.886C85.6729 174.19 85.1133 174.343 84.4922 174.343C83.3379 174.343 82.4062 173.947 81.6973 173.156C80.9941 172.359 80.6426 171.308 80.6426 170.001C80.6426 168.677 80.9854 167.625 81.6709 166.846C82.3564 166.061 83.2734 165.668 84.4219 165.668C85.0957 165.668 85.6787 165.82 86.1709 166.125C86.6689 166.424 87.0703 166.872 87.375 167.47V165.958H88.7461ZM102.703 174V169.263C102.703 168.448 102.539 167.845 102.211 167.452C101.883 167.054 101.379 166.854 100.699 166.854C100.33 166.854 99.9873 166.931 99.6709 167.083C99.3604 167.229 99.0967 167.44 98.8799 167.716C98.7217 167.927 98.6074 168.173 98.5371 168.454C98.4668 168.735 98.4316 169.198 98.4316 169.843V174H97.1045V169.263C97.1045 168.448 96.9404 167.845 96.6123 167.452C96.2842 167.054 95.7803 166.854 95.1006 166.854C94.7314 166.854 94.3857 166.931 94.0635 167.083C93.7471 167.229 93.4805 167.44 93.2637 167.716C93.1113 167.921 93 168.158 92.9297 168.428C92.8652 168.697 92.833 169.169 92.833 169.843V174H91.5059V165.958H92.8506V167.197C93.1846 166.682 93.583 166.298 94.0459 166.046C94.5088 165.794 95.042 165.668 95.6455 165.668C96.2959 165.668 96.8496 165.809 97.3066 166.09C97.7637 166.365 98.1094 166.77 98.3438 167.303C98.6895 166.752 99.0967 166.342 99.5654 166.072C100.04 165.803 100.588 165.668 101.209 165.668C102.105 165.668 102.806 165.92 103.31 166.424C103.813 166.928 104.065 167.628 104.065 168.524V174H102.703ZM107.59 170.001C107.59 170.851 107.874 171.571 108.442 172.163C109.011 172.749 109.699 173.042 110.508 173.042C111.311 173.042 111.993 172.749 112.556 172.163C113.118 171.571 113.399 170.851 113.399 170.001C113.399 169.151 113.118 168.434 112.556 167.848C111.993 167.256 111.311 166.96 110.508 166.96C109.693 166.96 109.002 167.256 108.434 167.848C107.871 168.434 107.59 169.151 107.59 170.001ZM106.131 170.001C106.131 169.409 106.239 168.853 106.456 168.331C106.673 167.804 106.989 167.335 107.405 166.925C107.821 166.515 108.293 166.204 108.82 165.993C109.348 165.776 109.91 165.668 110.508 165.668C111.094 165.668 111.647 165.776 112.169 165.993C112.696 166.21 113.174 166.526 113.602 166.942C114.018 167.347 114.334 167.812 114.551 168.34C114.768 168.861 114.876 169.415 114.876 170.001C114.876 170.587 114.768 171.141 114.551 171.662C114.334 172.178 114.018 172.638 113.602 173.042C113.174 173.464 112.693 173.786 112.16 174.009C111.633 174.231 111.082 174.343 110.508 174.343C109.916 174.343 109.354 174.231 108.82 174.009C108.293 173.792 107.821 173.479 107.405 173.068C106.989 172.646 106.673 172.178 106.456 171.662C106.239 171.146 106.131 170.593 106.131 170.001ZM116.177 172.646L117.354 171.855C117.577 172.283 117.858 172.605 118.198 172.822C118.538 173.033 118.939 173.139 119.402 173.139C119.854 173.139 120.217 173.027 120.492 172.805C120.773 172.582 120.914 172.289 120.914 171.926C120.914 171.645 120.817 171.41 120.624 171.223C120.437 171.035 120.111 170.862 119.648 170.704C119.602 170.687 119.525 170.66 119.42 170.625C117.463 169.951 116.484 169.107 116.484 168.094C116.484 167.379 116.748 166.796 117.275 166.345C117.803 165.894 118.488 165.668 119.332 165.668C120.029 165.668 120.627 165.809 121.125 166.09C121.623 166.365 121.98 166.758 122.197 167.268L121.081 167.953C120.917 167.584 120.674 167.3 120.352 167.101C120.035 166.901 119.666 166.802 119.244 166.802C118.84 166.802 118.509 166.916 118.251 167.145C117.999 167.367 117.873 167.654 117.873 168.006C117.873 168.498 118.406 168.911 119.473 169.245C119.672 169.31 119.83 169.359 119.947 169.395C120.82 169.676 121.427 169.998 121.767 170.361C122.112 170.719 122.285 171.193 122.285 171.785C122.285 172.547 122.013 173.165 121.468 173.64C120.929 174.108 120.223 174.343 119.35 174.343C118.6 174.343 117.961 174.202 117.434 173.921C116.912 173.64 116.493 173.215 116.177 172.646ZM129.738 174V160.377H131.145V174H129.738ZM140.18 170.054C140.18 169.146 139.931 168.416 139.433 167.865C138.94 167.309 138.296 167.03 137.499 167.03C136.673 167.03 136.028 167.285 135.565 167.795C135.103 168.305 134.871 169.017 134.871 169.931C134.871 170.903 135.103 171.653 135.565 172.181C136.034 172.708 136.696 172.972 137.552 172.972C138.372 172.972 139.014 172.717 139.477 172.207C139.945 171.691 140.18 170.974 140.18 170.054ZM141.516 165.958V174H140.18V172.541C139.857 173.127 139.444 173.575 138.94 173.886C138.442 174.19 137.883 174.343 137.262 174.343C136.107 174.343 135.176 173.947 134.467 173.156C133.764 172.359 133.412 171.308 133.412 170.001C133.412 168.677 133.755 167.625 134.44 166.846C135.126 166.061 136.043 165.668 137.191 165.668C137.865 165.668 138.448 165.82 138.94 166.125C139.438 166.424 139.84 166.872 140.145 167.47V165.958H141.516ZM143.423 172.646L144.601 171.855C144.823 172.283 145.104 172.605 145.444 172.822C145.784 173.033 146.186 173.139 146.648 173.139C147.1 173.139 147.463 173.027 147.738 172.805C148.02 172.582 148.16 172.289 148.16 171.926C148.16 171.645 148.063 171.41 147.87 171.223C147.683 171.035 147.357 170.862 146.895 170.704C146.848 170.687 146.771 170.66 146.666 170.625C144.709 169.951 143.73 169.107 143.73 168.094C143.73 167.379 143.994 166.796 144.521 166.345C145.049 165.894 145.734 165.668 146.578 165.668C147.275 165.668 147.873 165.809 148.371 166.09C148.869 166.365 149.227 166.758 149.443 167.268L148.327 167.953C148.163 167.584 147.92 167.3 147.598 167.101C147.281 166.901 146.912 166.802 146.49 166.802C146.086 166.802 145.755 166.916 145.497 167.145C145.245 167.367 145.119 167.654 145.119 168.006C145.119 168.498 145.652 168.911 146.719 169.245C146.918 169.31 147.076 169.359 147.193 169.395C148.066 169.676 148.673 169.998 149.013 170.361C149.358 170.719 149.531 171.193 149.531 171.785C149.531 172.547 149.259 173.165 148.714 173.64C148.175 174.108 147.469 174.343 146.596 174.343C145.846 174.343 145.207 174.202 144.68 173.921C144.158 173.64 143.739 173.215 143.423 172.646ZM156.914 174V160.377H158.259V167.197C158.604 166.682 159.021 166.298 159.507 166.046C159.993 165.794 160.556 165.668 161.194 165.668C162.144 165.668 162.885 165.92 163.418 166.424C163.951 166.928 164.218 167.628 164.218 168.524V174H162.812V169.263C162.812 168.448 162.639 167.845 162.293 167.452C161.953 167.054 161.426 166.854 160.711 166.854C160.301 166.854 159.926 166.931 159.586 167.083C159.252 167.229 158.974 167.44 158.751 167.716C158.581 167.927 158.458 168.167 158.382 168.437C158.312 168.706 158.276 169.175 158.276 169.843V174H156.914ZM172.655 169.069C172.608 168.36 172.371 167.815 171.943 167.435C171.521 167.048 170.941 166.854 170.203 166.854C169.535 166.854 168.979 167.057 168.533 167.461C168.088 167.859 167.83 168.396 167.76 169.069H172.655ZM174.132 170.186H167.76V170.309C167.76 171.17 168.006 171.867 168.498 172.4C168.99 172.928 169.632 173.191 170.423 173.191C170.962 173.191 171.448 173.048 171.882 172.761C172.315 172.468 172.699 172.028 173.033 171.442L174.079 172.146C173.675 172.872 173.159 173.42 172.532 173.789C171.905 174.158 171.179 174.343 170.353 174.343C169.128 174.343 168.138 173.938 167.382 173.13C166.626 172.321 166.248 171.261 166.248 169.948C166.248 168.688 166.623 167.657 167.373 166.854C168.123 166.052 169.087 165.65 170.265 165.65C171.454 165.65 172.395 166.031 173.086 166.793C173.783 167.555 174.132 168.595 174.132 169.913V170.186ZM176.232 174V165.958H177.454V167.628C177.823 166.931 178.216 166.433 178.632 166.134C179.048 165.835 179.555 165.686 180.152 165.686C180.316 165.686 180.475 165.7 180.627 165.729C180.779 165.753 180.932 165.791 181.084 165.844L180.627 167.083C180.469 167.03 180.319 166.992 180.179 166.969C180.038 166.939 179.903 166.925 179.774 166.925C179.048 166.925 178.503 167.188 178.14 167.716C177.776 168.237 177.595 169.025 177.595 170.08V174H176.232ZM182.561 174V165.958H183.782V167.628C184.151 166.931 184.544 166.433 184.96 166.134C185.376 165.835 185.883 165.686 186.48 165.686C186.645 165.686 186.803 165.7 186.955 165.729C187.107 165.753 187.26 165.791 187.412 165.844L186.955 167.083C186.797 167.03 186.647 166.992 186.507 166.969C186.366 166.939 186.231 166.925 186.103 166.925C185.376 166.925 184.831 167.188 184.468 167.716C184.104 168.237 183.923 169.025 183.923 170.08V174H182.561ZM195.023 170.054C195.023 169.146 194.774 168.416 194.276 167.865C193.784 167.309 193.14 167.03 192.343 167.03C191.517 167.03 190.872 167.285 190.409 167.795C189.946 168.305 189.715 169.017 189.715 169.931C189.715 170.903 189.946 171.653 190.409 172.181C190.878 172.708 191.54 172.972 192.396 172.972C193.216 172.972 193.857 172.717 194.32 172.207C194.789 171.691 195.023 170.974 195.023 170.054ZM196.359 165.958V174H195.023V172.541C194.701 173.127 194.288 173.575 193.784 173.886C193.286 174.19 192.727 174.343 192.105 174.343C190.951 174.343 190.02 173.947 189.311 173.156C188.607 172.359 188.256 171.308 188.256 170.001C188.256 168.677 188.599 167.625 189.284 166.846C189.97 166.061 190.887 165.668 192.035 165.668C192.709 165.668 193.292 165.82 193.784 166.125C194.282 166.424 194.684 166.872 194.988 167.47V165.958H196.359ZM210.316 174V169.263C210.316 168.448 210.152 167.845 209.824 167.452C209.496 167.054 208.992 166.854 208.312 166.854C207.943 166.854 207.601 166.931 207.284 167.083C206.974 167.229 206.71 167.44 206.493 167.716C206.335 167.927 206.221 168.173 206.15 168.454C206.08 168.735 206.045 169.198 206.045 169.843V174H204.718V169.263C204.718 168.448 204.554 167.845 204.226 167.452C203.897 167.054 203.394 166.854 202.714 166.854C202.345 166.854 201.999 166.931 201.677 167.083C201.36 167.229 201.094 167.44 200.877 167.716C200.725 167.921 200.613 168.158 200.543 168.428C200.479 168.697 200.446 169.169 200.446 169.843V174H199.119V165.958H200.464V167.197C200.798 166.682 201.196 166.298 201.659 166.046C202.122 165.794 202.655 165.668 203.259 165.668C203.909 165.668 204.463 165.809 204.92 166.09C205.377 166.365 205.723 166.77 205.957 167.303C206.303 166.752 206.71 166.342 207.179 166.072C207.653 165.803 208.201 165.668 208.822 165.668C209.719 165.668 210.419 165.92 210.923 166.424C211.427 166.928 211.679 167.628 211.679 168.524V174H210.316ZM214.14 162.082C214.14 161.807 214.236 161.572 214.43 161.379C214.629 161.18 214.869 161.08 215.15 161.08C215.426 161.08 215.66 161.18 215.854 161.379C216.053 161.578 216.152 161.818 216.152 162.1C216.152 162.375 216.056 162.609 215.862 162.803C215.669 162.996 215.432 163.093 215.15 163.093C214.869 163.093 214.629 162.996 214.43 162.803C214.236 162.609 214.14 162.369 214.14 162.082ZM214.465 174V165.958H215.854V174H214.465ZM224.458 169.069C224.411 168.36 224.174 167.815 223.746 167.435C223.324 167.048 222.744 166.854 222.006 166.854C221.338 166.854 220.781 167.057 220.336 167.461C219.891 167.859 219.633 168.396 219.562 169.069H224.458ZM225.935 170.186H219.562V170.309C219.562 171.17 219.809 171.867 220.301 172.4C220.793 172.928 221.435 173.191 222.226 173.191C222.765 173.191 223.251 173.048 223.685 172.761C224.118 172.468 224.502 172.028 224.836 171.442L225.882 172.146C225.478 172.872 224.962 173.42 224.335 173.789C223.708 174.158 222.981 174.343 222.155 174.343C220.931 174.343 219.94 173.938 219.185 173.13C218.429 172.321 218.051 171.261 218.051 169.948C218.051 168.688 218.426 167.657 219.176 166.854C219.926 166.052 220.89 165.65 222.067 165.65C223.257 165.65 224.197 166.031 224.889 166.793C225.586 167.555 225.935 168.595 225.935 169.913V170.186ZM228.018 174V165.958H229.362V167.197C229.708 166.682 230.124 166.298 230.61 166.046C231.097 165.794 231.659 165.668 232.298 165.668C233.247 165.668 233.988 165.92 234.521 166.424C235.055 166.928 235.321 167.628 235.321 168.524V174H233.915V169.263C233.915 168.448 233.742 167.845 233.396 167.452C233.057 167.054 232.529 166.854 231.814 166.854C231.404 166.854 231.029 166.931 230.689 167.083C230.355 167.229 230.077 167.44 229.854 167.716C229.685 167.927 229.562 168.167 229.485 168.437C229.415 168.706 229.38 169.175 229.38 169.843V174H228.018ZM238.266 167.092H236.789V165.958H238.266V162.715H239.672V165.958H241.148V167.092H239.672V174H238.266V167.092ZM248.865 170.054C248.865 169.146 248.616 168.416 248.118 167.865C247.626 167.309 246.981 167.03 246.185 167.03C245.358 167.03 244.714 167.285 244.251 167.795C243.788 168.305 243.557 169.017 243.557 169.931C243.557 170.903 243.788 171.653 244.251 172.181C244.72 172.708 245.382 172.972 246.237 172.972C247.058 172.972 247.699 172.717 248.162 172.207C248.631 171.691 248.865 170.974 248.865 170.054ZM250.201 165.958V174H248.865V172.541C248.543 173.127 248.13 173.575 247.626 173.886C247.128 174.19 246.568 174.343 245.947 174.343C244.793 174.343 243.861 173.947 243.152 173.156C242.449 172.359 242.098 171.308 242.098 170.001C242.098 168.677 242.44 167.625 243.126 166.846C243.812 166.061 244.729 165.668 245.877 165.668C246.551 165.668 247.134 165.82 247.626 166.125C248.124 166.424 248.525 166.872 248.83 167.47V165.958H250.201ZM252.108 172.646L253.286 171.855C253.509 172.283 253.79 172.605 254.13 172.822C254.47 173.033 254.871 173.139 255.334 173.139C255.785 173.139 256.148 173.027 256.424 172.805C256.705 172.582 256.846 172.289 256.846 171.926C256.846 171.645 256.749 171.41 256.556 171.223C256.368 171.035 256.043 170.862 255.58 170.704C255.533 170.687 255.457 170.66 255.352 170.625C253.395 169.951 252.416 169.107 252.416 168.094C252.416 167.379 252.68 166.796 253.207 166.345C253.734 165.894 254.42 165.668 255.264 165.668C255.961 165.668 256.559 165.809 257.057 166.09C257.555 166.365 257.912 166.758 258.129 167.268L257.013 167.953C256.849 167.584 256.605 167.3 256.283 167.101C255.967 166.901 255.598 166.802 255.176 166.802C254.771 166.802 254.44 166.916 254.183 167.145C253.931 167.367 253.805 167.654 253.805 168.006C253.805 168.498 254.338 168.911 255.404 169.245C255.604 169.31 255.762 169.359 255.879 169.395C256.752 169.676 257.358 169.998 257.698 170.361C258.044 170.719 258.217 171.193 258.217 171.785C258.217 172.547 257.944 173.165 257.399 173.64C256.86 174.108 256.154 174.343 255.281 174.343C254.531 174.343 253.893 174.202 253.365 173.921C252.844 173.64 252.425 173.215 252.108 172.646ZM266.927 170.001C266.927 170.903 267.176 171.627 267.674 172.172C268.172 172.717 268.831 172.989 269.651 172.989C270.454 172.989 271.084 172.74 271.541 172.242C272.004 171.744 272.235 171.053 272.235 170.168C272.235 169.178 272.004 168.401 271.541 167.839C271.084 167.276 270.445 166.995 269.625 166.995C268.787 166.995 268.128 167.262 267.647 167.795C267.167 168.328 266.927 169.063 266.927 170.001ZM265.6 177.92V165.958H266.909V167.47C267.22 166.89 267.63 166.444 268.14 166.134C268.649 165.823 269.218 165.668 269.845 165.668C271.005 165.668 271.937 166.063 272.64 166.854C273.343 167.646 273.694 168.694 273.694 170.001C273.694 171.331 273.349 172.389 272.657 173.174C271.972 173.953 271.052 174.343 269.897 174.343C269.235 174.343 268.658 174.193 268.166 173.895C267.674 173.59 267.272 173.139 266.962 172.541V177.92H265.6ZM282.053 170.054C282.053 169.146 281.804 168.416 281.306 167.865C280.813 167.309 280.169 167.03 279.372 167.03C278.546 167.03 277.901 167.285 277.438 167.795C276.976 168.305 276.744 169.017 276.744 169.931C276.744 170.903 276.976 171.653 277.438 172.181C277.907 172.708 278.569 172.972 279.425 172.972C280.245 172.972 280.887 172.717 281.35 172.207C281.818 171.691 282.053 170.974 282.053 170.054ZM283.389 165.958V174H282.053V172.541C281.73 173.127 281.317 173.575 280.813 173.886C280.315 174.19 279.756 174.343 279.135 174.343C277.98 174.343 277.049 173.947 276.34 173.156C275.637 172.359 275.285 171.308 275.285 170.001C275.285 168.677 275.628 167.625 276.313 166.846C276.999 166.061 277.916 165.668 279.064 165.668C279.738 165.668 280.321 165.82 280.813 166.125C281.312 166.424 281.713 166.872 282.018 167.47V165.958H283.389ZM286.166 174V165.958H287.388V167.628C287.757 166.931 288.149 166.433 288.565 166.134C288.981 165.835 289.488 165.686 290.086 165.686C290.25 165.686 290.408 165.7 290.561 165.729C290.713 165.753 290.865 165.791 291.018 165.844L290.561 167.083C290.402 167.03 290.253 166.992 290.112 166.969C289.972 166.939 289.837 166.925 289.708 166.925C288.981 166.925 288.437 167.188 288.073 167.716C287.71 168.237 287.528 169.025 287.528 170.08V174H286.166ZM298.629 170.054C298.629 169.146 298.38 168.416 297.882 167.865C297.39 167.309 296.745 167.03 295.948 167.03C295.122 167.03 294.478 167.285 294.015 167.795C293.552 168.305 293.32 169.017 293.32 169.931C293.32 170.903 293.552 171.653 294.015 172.181C294.483 172.708 295.146 172.972 296.001 172.972C296.821 172.972 297.463 172.717 297.926 172.207C298.395 171.691 298.629 170.974 298.629 170.054ZM299.965 165.958V174H298.629V172.541C298.307 173.127 297.894 173.575 297.39 173.886C296.892 174.19 296.332 174.343 295.711 174.343C294.557 174.343 293.625 173.947 292.916 173.156C292.213 172.359 291.861 171.308 291.861 170.001C291.861 168.677 292.204 167.625 292.89 166.846C293.575 166.061 294.492 165.668 295.641 165.668C296.314 165.668 296.897 165.82 297.39 166.125C297.888 166.424 298.289 166.872 298.594 167.47V165.958H299.965ZM55.5234 188.041C55.2188 187.771 54.9258 187.575 54.6445 187.452C54.3633 187.329 54.0674 187.268 53.7568 187.268C53.1357 187.268 52.6406 187.473 52.2715 187.883C51.9082 188.293 51.7266 188.85 51.7266 189.553C51.7266 190.232 51.917 190.774 52.2979 191.179C52.6787 191.583 53.1914 191.785 53.8359 191.785C54.1523 191.785 54.4482 191.724 54.7236 191.601C55.0049 191.472 55.2715 191.275 55.5234 191.012V193.728C55.1484 193.938 54.7734 194.094 54.3984 194.193C54.0234 194.293 53.6367 194.343 53.2383 194.343C51.873 194.343 50.7656 193.906 49.916 193.033C49.0723 192.154 48.6504 191 48.6504 189.57C48.6504 188.182 49.0811 187.048 49.9424 186.169C50.8096 185.284 51.9199 184.842 53.2734 184.842C53.7246 184.842 54.1318 184.886 54.4951 184.974C54.8584 185.062 55.2012 185.202 55.5234 185.396V188.041ZM57.4658 194V185.123H60.4189V187.215C60.7236 186.453 61.1396 185.882 61.667 185.501C62.1943 185.12 62.833 184.93 63.583 184.93C63.7061 184.93 63.8291 184.936 63.9521 184.947C64.0811 184.953 64.21 184.965 64.3389 184.982L64.04 187.83C63.8525 187.766 63.668 187.719 63.4863 187.689C63.3047 187.66 63.1289 187.646 62.959 187.646C62.1973 187.646 61.6084 187.88 61.1924 188.349C60.7822 188.812 60.5771 189.471 60.5771 190.326V194H57.4658ZM71.6162 188.419C71.5576 187.915 71.3643 187.511 71.0361 187.206C70.7139 186.901 70.3154 186.749 69.8408 186.749C69.3311 186.749 68.9238 186.89 68.6191 187.171C68.3203 187.446 68.1211 187.862 68.0215 188.419H71.6162ZM74.7012 190.186H67.9512C67.957 190.871 68.1328 191.401 68.4785 191.776C68.8242 192.146 69.3135 192.33 69.9463 192.33C70.4209 192.33 70.8193 192.242 71.1416 192.066C71.4697 191.885 71.7188 191.618 71.8887 191.267L74.2441 192.216C73.9629 192.896 73.4648 193.42 72.75 193.789C72.0352 194.158 71.1592 194.343 70.1221 194.343C68.5752 194.343 67.333 193.915 66.3955 193.06C65.4639 192.198 64.998 191.064 64.998 189.658C64.998 188.275 65.4639 187.127 66.3955 186.213C67.333 185.299 68.5166 184.842 69.9463 184.842C71.417 184.842 72.5771 185.305 73.4268 186.23C74.2764 187.156 74.7012 188.425 74.7012 190.036V190.186ZM82.875 188.041C82.5703 187.771 82.2773 187.575 81.9961 187.452C81.7148 187.329 81.4189 187.268 81.1084 187.268C80.4873 187.268 79.9922 187.473 79.623 187.883C79.2598 188.293 79.0781 188.85 79.0781 189.553C79.0781 190.232 79.2686 190.774 79.6494 191.179C80.0303 191.583 80.543 191.785 81.1875 191.785C81.5039 191.785 81.7998 191.724 82.0752 191.601C82.3564 191.472 82.623 191.275 82.875 191.012V193.728C82.5 193.938 82.125 194.094 81.75 194.193C81.375 194.293 80.9883 194.343 80.5898 194.343C79.2246 194.343 78.1172 193.906 77.2676 193.033C76.4238 192.154 76.002 191 76.002 189.57C76.002 188.182 76.4326 187.048 77.2939 186.169C78.1611 185.284 79.2715 184.842 80.625 184.842C81.0762 184.842 81.4834 184.886 81.8467 184.974C82.21 185.062 82.5527 185.202 82.875 185.396V188.041ZM90.917 188.419C90.8584 187.915 90.665 187.511 90.3369 187.206C90.0146 186.901 89.6162 186.749 89.1416 186.749C88.6318 186.749 88.2246 186.89 87.9199 187.171C87.6211 187.446 87.4219 187.862 87.3223 188.419H90.917ZM94.002 190.186H87.252C87.2578 190.871 87.4336 191.401 87.7793 191.776C88.125 192.146 88.6143 192.33 89.2471 192.33C89.7217 192.33 90.1201 192.242 90.4424 192.066C90.7705 191.885 91.0195 191.618 91.1895 191.267L93.5449 192.216C93.2637 192.896 92.7656 193.42 92.0508 193.789C91.3359 194.158 90.46 194.343 89.4229 194.343C87.876 194.343 86.6338 193.915 85.6963 193.06C84.7646 192.198 84.2988 191.064 84.2988 189.658C84.2988 188.275 84.7646 187.127 85.6963 186.213C86.6338 185.299 87.8174 184.842 89.2471 184.842C90.7178 184.842 91.8779 185.305 92.7275 186.23C93.5771 187.156 94.002 188.425 94.002 190.036V190.186ZM95.8213 194V185.123H98.7744V187.215C99.0791 186.453 99.4951 185.882 100.022 185.501C100.55 185.12 101.188 184.93 101.938 184.93C102.062 184.93 102.185 184.936 102.308 184.947C102.437 184.953 102.565 184.965 102.694 184.982L102.396 187.83C102.208 187.766 102.023 187.719 101.842 187.689C101.66 187.66 101.484 187.646 101.314 187.646C100.553 187.646 99.9639 187.88 99.5479 188.349C99.1377 188.812 98.9326 189.471 98.9326 190.326V194H95.8213ZM109.98 194V187.338H108.653V185.123H109.98V182.478H113.065V185.123H114.393V187.338H113.065V194H109.98ZM124.966 185.123V189.658C124.966 190.66 124.884 191.404 124.72 191.891C124.562 192.371 124.292 192.799 123.911 193.174C123.519 193.566 123.029 193.859 122.443 194.053C121.857 194.246 121.169 194.343 120.378 194.343C119.593 194.343 118.907 194.246 118.321 194.053C117.741 193.859 117.246 193.566 116.836 193.174C116.455 192.811 116.186 192.386 116.027 191.899C115.869 191.407 115.79 190.66 115.79 189.658V185.123H118.778V189.86C118.778 190.604 118.901 191.144 119.147 191.478C119.394 191.806 119.792 191.97 120.343 191.97C120.899 191.97 121.298 191.809 121.538 191.486C121.784 191.158 121.907 190.616 121.907 189.86V185.123H124.966ZM132.858 194V185.123H135.724V186.925C136.14 186.204 136.62 185.677 137.165 185.343C137.71 185.009 138.363 184.842 139.125 184.842C139.699 184.842 140.209 184.936 140.654 185.123C141.105 185.305 141.472 185.568 141.753 185.914C141.987 186.213 142.154 186.576 142.254 187.004C142.354 187.432 142.403 188.07 142.403 188.92V194H139.266V189.245C139.266 188.536 139.148 188.021 138.914 187.698C138.686 187.376 138.316 187.215 137.807 187.215C137.156 187.215 136.682 187.455 136.383 187.936C136.084 188.416 135.935 189.195 135.935 190.273V194H132.858ZM150.735 188.419C150.677 187.915 150.483 187.511 150.155 187.206C149.833 186.901 149.435 186.749 148.96 186.749C148.45 186.749 148.043 186.89 147.738 187.171C147.439 187.446 147.24 187.862 147.141 188.419H150.735ZM153.82 190.186H147.07C147.076 190.871 147.252 191.401 147.598 191.776C147.943 192.146 148.433 192.33 149.065 192.33C149.54 192.33 149.938 192.242 150.261 192.066C150.589 191.885 150.838 191.618 151.008 191.267L153.363 192.216C153.082 192.896 152.584 193.42 151.869 193.789C151.154 194.158 150.278 194.343 149.241 194.343C147.694 194.343 146.452 193.915 145.515 193.06C144.583 192.198 144.117 191.064 144.117 189.658C144.117 188.275 144.583 187.127 145.515 186.213C146.452 185.299 147.636 184.842 149.065 184.842C150.536 184.842 151.696 185.305 152.546 186.23C153.396 187.156 153.82 188.425 153.82 190.036V190.186ZM162.39 189.535C162.39 188.85 162.205 188.313 161.836 187.927C161.473 187.534 160.969 187.338 160.324 187.338C159.674 187.338 159.161 187.534 158.786 187.927C158.417 188.313 158.232 188.85 158.232 189.535C158.232 190.215 158.417 190.751 158.786 191.144C159.161 191.536 159.674 191.732 160.324 191.732C160.963 191.732 161.467 191.536 161.836 191.144C162.205 190.751 162.39 190.215 162.39 189.535ZM165.141 185.123V193.982C165.141 195.324 164.73 196.314 163.91 196.953C163.096 197.598 161.833 197.92 160.122 197.92C158.739 197.92 157.655 197.662 156.87 197.146C156.085 196.637 155.669 195.913 155.622 194.976H158.865C158.912 195.251 159.064 195.465 159.322 195.617C159.586 195.775 159.932 195.854 160.359 195.854C161.033 195.854 161.496 195.69 161.748 195.362C162.006 195.04 162.135 194.357 162.135 193.314V192.506C161.807 193.062 161.388 193.479 160.878 193.754C160.368 194.023 159.762 194.158 159.059 194.158C157.887 194.158 156.946 193.736 156.237 192.893C155.528 192.043 155.174 190.912 155.174 189.5C155.174 188.076 155.543 186.945 156.281 186.107C157.025 185.264 158.024 184.842 159.278 184.842C159.94 184.842 160.512 184.979 160.992 185.255C161.479 185.53 161.897 185.961 162.249 186.547V185.123H165.141ZM173.807 189.588C173.807 188.926 173.64 188.404 173.306 188.023C172.972 187.643 172.521 187.452 171.952 187.452C171.378 187.452 170.924 187.643 170.59 188.023C170.262 188.404 170.098 188.926 170.098 189.588C170.098 190.25 170.262 190.771 170.59 191.152C170.918 191.527 171.372 191.715 171.952 191.715C172.526 191.715 172.978 191.527 173.306 191.152C173.64 190.771 173.807 190.25 173.807 189.588ZM176.918 189.588C176.918 190.227 176.792 190.833 176.54 191.407C176.294 191.981 175.934 192.497 175.459 192.954C174.979 193.411 174.439 193.757 173.842 193.991C173.25 194.226 172.62 194.343 171.952 194.343C171.272 194.343 170.634 194.226 170.036 193.991C169.444 193.757 168.914 193.411 168.445 192.954C167.977 192.509 167.619 191.999 167.373 191.425C167.127 190.845 167.004 190.232 167.004 189.588C167.004 188.938 167.124 188.325 167.364 187.751C167.61 187.177 167.971 186.661 168.445 186.204C168.908 185.753 169.436 185.413 170.027 185.185C170.625 184.956 171.267 184.842 171.952 184.842C172.638 184.842 173.276 184.956 173.868 185.185C174.46 185.413 174.99 185.753 175.459 186.204C175.939 186.667 176.303 187.186 176.549 187.76C176.795 188.334 176.918 188.943 176.918 189.588ZM185.092 188.041C184.787 187.771 184.494 187.575 184.213 187.452C183.932 187.329 183.636 187.268 183.325 187.268C182.704 187.268 182.209 187.473 181.84 187.883C181.477 188.293 181.295 188.85 181.295 189.553C181.295 190.232 181.485 190.774 181.866 191.179C182.247 191.583 182.76 191.785 183.404 191.785C183.721 191.785 184.017 191.724 184.292 191.601C184.573 191.472 184.84 191.275 185.092 191.012V193.728C184.717 193.938 184.342 194.094 183.967 194.193C183.592 194.293 183.205 194.343 182.807 194.343C181.441 194.343 180.334 193.906 179.484 193.033C178.641 192.154 178.219 191 178.219 189.57C178.219 188.182 178.649 187.048 179.511 186.169C180.378 185.284 181.488 184.842 182.842 184.842C183.293 184.842 183.7 184.886 184.063 184.974C184.427 185.062 184.77 185.202 185.092 185.396V188.041ZM186.946 182.354C186.946 181.88 187.113 181.476 187.447 181.142C187.787 180.808 188.194 180.641 188.669 180.641C189.161 180.641 189.571 180.805 189.899 181.133C190.233 181.461 190.4 181.868 190.4 182.354C190.4 182.841 190.23 183.254 189.891 183.594C189.557 183.934 189.149 184.104 188.669 184.104C188.2 184.104 187.796 183.931 187.456 183.585C187.116 183.239 186.946 182.829 186.946 182.354ZM187.104 194V185.123H190.242V194H187.104ZM198.943 189.588C198.943 188.926 198.776 188.404 198.442 188.023C198.108 187.643 197.657 187.452 197.089 187.452C196.515 187.452 196.061 187.643 195.727 188.023C195.398 188.404 195.234 188.926 195.234 189.588C195.234 190.25 195.398 190.771 195.727 191.152C196.055 191.527 196.509 191.715 197.089 191.715C197.663 191.715 198.114 191.527 198.442 191.152C198.776 190.771 198.943 190.25 198.943 189.588ZM202.055 189.588C202.055 190.227 201.929 190.833 201.677 191.407C201.431 191.981 201.07 192.497 200.596 192.954C200.115 193.411 199.576 193.757 198.979 193.991C198.387 194.226 197.757 194.343 197.089 194.343C196.409 194.343 195.771 194.226 195.173 193.991C194.581 193.757 194.051 193.411 193.582 192.954C193.113 192.509 192.756 191.999 192.51 191.425C192.264 190.845 192.141 190.232 192.141 189.588C192.141 188.938 192.261 188.325 192.501 187.751C192.747 187.177 193.107 186.661 193.582 186.204C194.045 185.753 194.572 185.413 195.164 185.185C195.762 184.956 196.403 184.842 197.089 184.842C197.774 184.842 198.413 184.956 199.005 185.185C199.597 185.413 200.127 185.753 200.596 186.204C201.076 186.667 201.439 187.186 201.686 187.76C201.932 188.334 202.055 188.943 202.055 189.588Z" fill="white"/>
</svg>
