<svg width="535" height="156" viewBox="0 0 535 156" fill="none" xmlns="http://www.w3.org/2000/svg">
<path d="M35.4844 18.4531H36.1875C37.5208 18.4531 38.4896 18.1771 39.0938 17.625C39.6979 17.0729 40 16.1875 40 14.9688C40 13.8438 39.6979 13.026 39.0938 12.5156C38.4896 11.9948 37.5208 11.7344 36.1875 11.7344H35.4844V18.4531ZM30.5625 31V8.125H36.1875C39.1875 8.125 41.401 8.69792 42.8281 9.84375C44.2656 10.9896 44.9844 12.7604 44.9844 15.1562C44.9844 17.375 44.2604 19.1146 42.8125 20.375C41.375 21.6354 39.3802 22.2656 36.8281 22.2656H35.4844V31H30.5625ZM48.375 31V8.125H61.8438V12.25H53.2656V16.9531H61.8438V21.1094H53.2656V26.8438H61.8438V31H48.375ZM66.6562 31V8.125H71.7344L81.8594 21.4375C82.151 21.8125 82.4688 22.3438 82.8125 23.0312C83.1667 23.7083 83.5312 24.5104 83.9062 25.4375C83.7917 24.7604 83.7083 24.0885 83.6562 23.4219C83.6042 22.7552 83.5781 21.9219 83.5781 20.9219V8.125H88.25V31H83.4531L73.0469 17.4375C72.7552 17.0625 72.4375 16.5365 72.0938 15.8594C71.75 15.1719 71.3854 14.3542 71 13.4062C71.1146 14.0625 71.1979 14.7292 71.25 15.4062C71.3021 16.0729 71.3281 16.9167 71.3281 17.9375V31H66.6562ZM91.875 28.0938L94.5938 25.0156C94.9375 25.8594 95.4896 26.526 96.25 27.0156C97.0104 27.4948 97.8646 27.7344 98.8125 27.7344C99.9583 27.7344 100.865 27.4635 101.531 26.9219C102.198 26.3802 102.531 25.651 102.531 24.7344C102.531 23.651 101.422 22.5729 99.2031 21.5C98.4844 21.1562 97.9167 20.875 97.5 20.6562C95.5 19.6146 94.1146 18.599 93.3438 17.6094C92.5729 16.6094 92.1875 15.4219 92.1875 14.0469C92.1875 12.1615 92.9323 10.6146 94.4219 9.40625C95.9219 8.1875 97.8646 7.57812 100.25 7.57812C101.635 7.57812 102.828 7.82292 103.828 8.3125C104.839 8.79167 105.729 9.54688 106.5 10.5781L103.609 13.3438C103.266 12.6771 102.807 12.1823 102.234 11.8594C101.672 11.526 100.99 11.3594 100.188 11.3594C99.2188 11.3594 98.4375 11.6042 97.8438 12.0938C97.25 12.5729 96.9531 13.1979 96.9531 13.9688C96.9531 15.1771 98.1302 16.2812 100.484 17.2812C100.953 17.4792 101.312 17.6354 101.562 17.75C103.5 18.6354 104.932 19.6354 105.859 20.75C106.797 21.8646 107.266 23.1354 107.266 24.5625C107.266 26.7083 106.531 28.4219 105.062 29.7031C103.604 30.974 101.641 31.6094 99.1719 31.6094C97.4219 31.6094 95.9219 31.3073 94.6719 30.7031C93.4219 30.099 92.4896 29.2292 91.875 28.0938ZM123.125 22.2969L120.562 14.9062C120.49 14.6875 120.396 14.3125 120.281 13.7812C120.167 13.25 120.047 12.599 119.922 11.8281C119.786 12.5677 119.656 13.2344 119.531 13.8281C119.406 14.4115 119.312 14.8021 119.25 15L116.781 22.2969H123.125ZM108.562 31L117.266 8.125H122.859L131.688 31H126.125L124.266 26.1406H115.406L113.812 31H108.562ZM138.984 26.875H141.703C144.266 26.875 146.13 26.2917 147.297 25.125C148.474 23.9583 149.062 22.1094 149.062 19.5781C149.062 17.0573 148.474 15.2135 147.297 14.0469C146.13 12.8698 144.266 12.2812 141.703 12.2812H138.984V26.875ZM134.094 31V8.125H140.328C142.786 8.125 144.724 8.29688 146.141 8.64062C147.557 8.98438 148.802 9.55729 149.875 10.3594C151.26 11.3906 152.307 12.6927 153.016 14.2656C153.734 15.8281 154.094 17.6094 154.094 19.6094C154.094 21.6406 153.729 23.4427 153 25.0156C152.271 26.5781 151.203 27.8698 149.797 28.8906C148.755 29.6406 147.594 30.1823 146.312 30.5156C145.042 30.8385 143.177 31 140.719 31H138.984H134.094ZM181.609 19.6094C181.609 21.2448 181.302 22.7917 180.688 24.25C180.083 25.7083 179.208 26.9896 178.062 28.0938C176.875 29.2292 175.536 30.099 174.047 30.7031C172.557 31.3073 171.016 31.6094 169.422 31.6094C168.026 31.6094 166.656 31.375 165.312 30.9062C163.979 30.4271 162.755 29.7448 161.641 28.8594C160.203 27.7135 159.099 26.3438 158.328 24.75C157.568 23.1562 157.188 21.4427 157.188 19.6094C157.188 17.9635 157.49 16.4219 158.094 14.9844C158.698 13.5365 159.583 12.25 160.75 11.125C161.896 10.0104 163.224 9.14583 164.734 8.53125C166.255 7.91667 167.818 7.60938 169.422 7.60938C171.016 7.60938 172.562 7.91667 174.062 8.53125C175.573 9.14583 176.906 10.0104 178.062 11.125C179.219 12.25 180.099 13.5365 180.703 14.9844C181.307 16.4323 181.609 17.974 181.609 19.6094ZM169.422 27.25C171.495 27.25 173.203 26.526 174.547 25.0781C175.901 23.6198 176.578 21.7969 176.578 19.6094C176.578 17.4427 175.896 15.6198 174.531 14.1406C173.167 12.6615 171.464 11.9219 169.422 11.9219C167.349 11.9219 165.63 12.6615 164.266 14.1406C162.901 15.6094 162.219 17.4323 162.219 19.6094C162.219 21.8177 162.891 23.6458 164.234 25.0938C165.578 26.5312 167.307 27.25 169.422 27.25ZM200.516 18.4531H201.219C202.552 18.4531 203.521 18.1771 204.125 17.625C204.729 17.0729 205.031 16.1875 205.031 14.9688C205.031 13.8438 204.729 13.026 204.125 12.5156C203.521 11.9948 202.552 11.7344 201.219 11.7344H200.516V18.4531ZM195.594 31V8.125H201.219C204.219 8.125 206.432 8.69792 207.859 9.84375C209.297 10.9896 210.016 12.7604 210.016 15.1562C210.016 17.375 209.292 19.1146 207.844 20.375C206.406 21.6354 204.411 22.2656 201.859 22.2656H200.516V31H195.594ZM223.656 22.2969L221.094 14.9062C221.021 14.6875 220.927 14.3125 220.812 13.7812C220.698 13.25 220.578 12.599 220.453 11.8281C220.318 12.5677 220.188 13.2344 220.062 13.8281C219.938 14.4115 219.844 14.8021 219.781 15L217.312 22.2969H223.656ZM209.094 31L217.797 8.125H223.391L232.219 31H226.656L224.797 26.1406H215.938L214.344 31H209.094ZM251.172 31H245.531L239.516 20.3125V31H234.625V8.125H241.625C244.406 8.125 246.49 8.66667 247.875 9.75C249.26 10.8229 249.953 12.4427 249.953 14.6094C249.953 16.1823 249.479 17.526 248.531 18.6406C247.583 19.7552 246.359 20.4062 244.859 20.5938L251.172 31ZM239.516 17.875H240.25C242.229 17.875 243.536 17.6615 244.172 17.2344C244.807 16.7969 245.125 16.0417 245.125 14.9688C245.125 13.8438 244.781 13.0469 244.094 12.5781C243.417 12.099 242.135 11.8594 240.25 11.8594H239.516V17.875ZM265.875 22.2969L263.312 14.9062C263.24 14.6875 263.146 14.3125 263.031 13.7812C262.917 13.25 262.797 12.599 262.672 11.8281C262.536 12.5677 262.406 13.2344 262.281 13.8281C262.156 14.4115 262.062 14.8021 262 15L259.531 22.2969H265.875ZM251.312 31L260.016 8.125H265.609L274.438 31H268.875L267.016 26.1406H258.156L256.562 31H251.312ZM305.109 14.0781C304.12 13.1927 303.104 12.5469 302.062 12.1406C301.021 11.724 299.906 11.5156 298.719 11.5156C296.281 11.5156 294.339 12.2448 292.891 13.7031C291.443 15.1615 290.719 17.1198 290.719 19.5781C290.719 21.9844 291.391 23.8958 292.734 25.3125C294.078 26.7188 295.911 27.4219 298.234 27.4219C299.557 27.4219 300.786 27.2031 301.922 26.7656C303.057 26.3177 304.109 25.651 305.078 24.7656L305.047 29.7812C304.005 30.3958 302.911 30.8542 301.766 31.1562C300.63 31.4583 299.432 31.6094 298.172 31.6094C294.526 31.6094 291.531 30.4792 289.188 28.2188C286.854 25.9479 285.688 23.0677 285.688 19.5781C285.688 16.099 286.859 13.2292 289.203 10.9688C291.547 8.70833 294.568 7.57812 298.266 7.57812C299.505 7.57812 300.703 7.70833 301.859 7.96875C303.016 8.22917 304.156 8.63021 305.281 9.17188L305.109 14.0781ZM326.203 31H320.562L314.547 20.3125V31H309.656V8.125H316.656C319.438 8.125 321.521 8.66667 322.906 9.75C324.292 10.8229 324.984 12.4427 324.984 14.6094C324.984 16.1823 324.51 17.526 323.562 18.6406C322.615 19.7552 321.391 20.4062 319.891 20.5938L326.203 31ZM314.547 17.875H315.281C317.26 17.875 318.568 17.6615 319.203 17.2344C319.839 16.7969 320.156 16.0417 320.156 14.9688C320.156 13.8438 319.812 13.0469 319.125 12.5781C318.448 12.099 317.167 11.8594 315.281 11.8594H314.547V17.875ZM329.062 31V8.125H342.531V12.25H333.953V16.9531H342.531V21.1094H333.953V26.8438H342.531V31H329.062ZM359.188 22.2969L356.625 14.9062C356.552 14.6875 356.458 14.3125 356.344 13.7812C356.229 13.25 356.109 12.599 355.984 11.8281C355.849 12.5677 355.719 13.2344 355.594 13.8281C355.469 14.4115 355.375 14.8021 355.312 15L352.844 22.2969H359.188ZM344.625 31L353.328 8.125H358.922L367.75 31H362.188L360.328 26.1406H351.469L349.875 31H344.625ZM386.703 31H381.062L375.047 20.3125V31H370.156V8.125H377.156C379.938 8.125 382.021 8.66667 383.406 9.75C384.792 10.8229 385.484 12.4427 385.484 14.6094C385.484 16.1823 385.01 17.526 384.062 18.6406C383.115 19.7552 381.891 20.4062 380.391 20.5938L386.703 31ZM375.047 17.875H375.781C377.76 17.875 379.068 17.6615 379.703 17.2344C380.339 16.7969 380.656 16.0417 380.656 14.9688C380.656 13.8438 380.312 13.0469 379.625 12.5781C378.948 12.099 377.667 11.8594 375.781 11.8594H375.047V17.875ZM35.4844 56.4531H36.1875C37.5208 56.4531 38.4896 56.1771 39.0938 55.625C39.6979 55.0729 40 54.1875 40 52.9688C40 51.8438 39.6979 51.026 39.0938 50.5156C38.4896 49.9948 37.5208 49.7344 36.1875 49.7344H35.4844V56.4531ZM30.5625 69V46.125H36.1875C39.1875 46.125 41.401 46.6979 42.8281 47.8438C44.2656 48.9896 44.9844 50.7604 44.9844 53.1562C44.9844 55.375 44.2604 57.1146 42.8125 58.375C41.375 59.6354 39.3802 60.2656 36.8281 60.2656H35.4844V69H30.5625ZM64.9219 69H59.2812L53.2656 58.3125V69H48.375V46.125H55.375C58.1562 46.125 60.2396 46.6667 61.625 47.75C63.0104 48.8229 63.7031 50.4427 63.7031 52.6094C63.7031 54.1823 63.2292 55.526 62.2812 56.6406C61.3333 57.7552 60.1094 58.4062 58.6094 58.5938L64.9219 69ZM53.2656 55.875H54C55.9792 55.875 57.2865 55.6615 57.9219 55.2344C58.5573 54.7969 58.875 54.0417 58.875 52.9688C58.875 51.8438 58.5312 51.0469 57.8438 50.5781C57.1667 50.099 55.8854 49.8594 54 49.8594H53.2656V55.875ZM91.2031 57.6094C91.2031 59.2448 90.8958 60.7917 90.2812 62.25C89.6771 63.7083 88.8021 64.9896 87.6562 66.0938C86.4688 67.2292 85.1302 68.099 83.6406 68.7031C82.151 69.3073 80.6094 69.6094 79.0156 69.6094C77.6198 69.6094 76.25 69.375 74.9062 68.9062C73.5729 68.4271 72.349 67.7448 71.2344 66.8594C69.7969 65.7135 68.6927 64.3438 67.9219 62.75C67.1615 61.1562 66.7812 59.4427 66.7812 57.6094C66.7812 55.9635 67.0833 54.4219 67.6875 52.9844C68.2917 51.5365 69.1771 50.25 70.3438 49.125C71.4896 48.0104 72.8177 47.1458 74.3281 46.5312C75.849 45.9167 77.4115 45.6094 79.0156 45.6094C80.6094 45.6094 82.1562 45.9167 83.6562 46.5312C85.1667 47.1458 86.5 48.0104 87.6562 49.125C88.8125 50.25 89.6927 51.5365 90.2969 52.9844C90.901 54.4323 91.2031 55.974 91.2031 57.6094ZM79.0156 65.25C81.0885 65.25 82.7969 64.526 84.1406 63.0781C85.4948 61.6198 86.1719 59.7969 86.1719 57.6094C86.1719 55.4427 85.4896 53.6198 84.125 52.1406C82.7604 50.6615 81.0573 49.9219 79.0156 49.9219C76.9427 49.9219 75.224 50.6615 73.8594 52.1406C72.4948 53.6094 71.8125 55.4323 71.8125 57.6094C71.8125 59.8177 72.4844 61.6458 73.8281 63.0938C75.1719 64.5312 76.901 65.25 79.0156 65.25ZM98.8906 69V58.5625L91.1406 46.125H96.875L100.266 52.3906C100.432 52.7031 100.604 53.099 100.781 53.5781C100.958 54.0573 101.141 54.6094 101.328 55.2344C101.474 54.7031 101.635 54.2031 101.812 53.7344C102 53.2656 102.208 52.8073 102.438 52.3594L105.797 46.125H111.5L103.781 58.5625V69H98.8906ZM113.594 69V46.125H127.062V50.25H118.484V54.9531H127.062V59.1094H118.484V64.8438H127.062V69H113.594ZM150.297 52.0781C149.307 51.1927 148.292 50.5469 147.25 50.1406C146.208 49.724 145.094 49.5156 143.906 49.5156C141.469 49.5156 139.526 50.2448 138.078 51.7031C136.63 53.1615 135.906 55.1198 135.906 57.5781C135.906 59.9844 136.578 61.8958 137.922 63.3125C139.266 64.7188 141.099 65.4219 143.422 65.4219C144.745 65.4219 145.974 65.2031 147.109 64.7656C148.245 64.3177 149.297 63.651 150.266 62.7656L150.234 67.7812C149.193 68.3958 148.099 68.8542 146.953 69.1562C145.818 69.4583 144.62 69.6094 143.359 69.6094C139.714 69.6094 136.719 68.4792 134.375 66.2188C132.042 63.9479 130.875 61.0677 130.875 57.5781C130.875 54.099 132.047 51.2292 134.391 48.9688C136.734 46.7083 139.755 45.5781 143.453 45.5781C144.693 45.5781 145.891 45.7083 147.047 45.9688C148.203 46.2292 149.344 46.6302 150.469 47.1719L150.297 52.0781ZM163.391 50.2812V69H158.484V50.2812H152.891V46.125H169.016V50.2812H163.391ZM195.047 57.6094C195.047 59.2448 194.74 60.7917 194.125 62.25C193.521 63.7083 192.646 64.9896 191.5 66.0938C190.312 67.2292 188.974 68.099 187.484 68.7031C185.995 69.3073 184.453 69.6094 182.859 69.6094C181.464 69.6094 180.094 69.375 178.75 68.9062C177.417 68.4271 176.193 67.7448 175.078 66.8594C173.641 65.7135 172.536 64.3438 171.766 62.75C171.005 61.1562 170.625 59.4427 170.625 57.6094C170.625 55.9635 170.927 54.4219 171.531 52.9844C172.135 51.5365 173.021 50.25 174.188 49.125C175.333 48.0104 176.661 47.1458 178.172 46.5312C179.693 45.9167 181.255 45.6094 182.859 45.6094C184.453 45.6094 186 45.9167 187.5 46.5312C189.01 47.1458 190.344 48.0104 191.5 49.125C192.656 50.25 193.536 51.5365 194.141 52.9844C194.745 54.4323 195.047 55.974 195.047 57.6094ZM182.859 65.25C184.932 65.25 186.641 64.526 187.984 63.0781C189.339 61.6198 190.016 59.7969 190.016 57.6094C190.016 55.4427 189.333 53.6198 187.969 52.1406C186.604 50.6615 184.901 49.9219 182.859 49.9219C180.786 49.9219 179.068 50.6615 177.703 52.1406C176.339 53.6094 175.656 55.4323 175.656 57.6094C175.656 59.8177 176.328 61.6458 177.672 63.0938C179.016 64.5312 180.745 65.25 182.859 65.25ZM197.719 66.0938L200.438 63.0156C200.781 63.8594 201.333 64.526 202.094 65.0156C202.854 65.4948 203.708 65.7344 204.656 65.7344C205.802 65.7344 206.708 65.4635 207.375 64.9219C208.042 64.3802 208.375 63.651 208.375 62.7344C208.375 61.651 207.266 60.5729 205.047 59.5C204.328 59.1562 203.76 58.875 203.344 58.6562C201.344 57.6146 199.958 56.599 199.188 55.6094C198.417 54.6094 198.031 53.4219 198.031 52.0469C198.031 50.1615 198.776 48.6146 200.266 47.4062C201.766 46.1875 203.708 45.5781 206.094 45.5781C207.479 45.5781 208.672 45.8229 209.672 46.3125C210.682 46.7917 211.573 47.5469 212.344 48.5781L209.453 51.3438C209.109 50.6771 208.651 50.1823 208.078 49.8594C207.516 49.526 206.833 49.3594 206.031 49.3594C205.062 49.3594 204.281 49.6042 203.688 50.0938C203.094 50.5729 202.797 51.1979 202.797 51.9688C202.797 53.1771 203.974 54.2812 206.328 55.2812C206.797 55.4792 207.156 55.6354 207.406 55.75C209.344 56.6354 210.776 57.6354 211.703 58.75C212.641 59.8646 213.109 61.1354 213.109 62.5625C213.109 64.7083 212.375 66.4219 210.906 67.7031C209.448 68.974 207.484 69.6094 205.016 69.6094C203.266 69.6094 201.766 69.3073 200.516 68.7031C199.266 68.099 198.333 67.2292 197.719 66.0938ZM226.969 69V46.125H231.859V55.2969H241.781V46.125H246.672V69H241.781V59.4375H231.859V69H226.969ZM263.625 60.2969L261.062 52.9062C260.99 52.6875 260.896 52.3125 260.781 51.7812C260.667 51.25 260.547 50.599 260.422 49.8281C260.286 50.5677 260.156 51.2344 260.031 51.8281C259.906 52.4115 259.812 52.8021 259.75 53L257.281 60.2969H263.625ZM249.062 69L257.766 46.125H263.359L272.188 69H266.625L264.766 64.1406H255.906L254.312 69H249.062ZM279.484 65.1875H281.406C282.635 65.1875 283.568 64.9219 284.203 64.3906C284.839 63.849 285.156 63.0625 285.156 62.0312C285.156 61.0625 284.839 60.3229 284.203 59.8125C283.578 59.3021 282.667 59.0469 281.469 59.0469H279.484V65.1875ZM279.484 55.2656H280.578C282.057 55.2656 283.104 55.0573 283.719 54.6406C284.333 54.224 284.641 53.526 284.641 52.5469C284.641 51.5885 284.344 50.9062 283.75 50.5C283.167 50.0938 282.141 49.8906 280.672 49.8906H279.484V55.2656ZM274.594 69V46.125H278.875C281.094 46.125 282.714 46.2135 283.734 46.3906C284.766 46.5573 285.656 46.8385 286.406 47.2344C287.292 47.7448 287.974 48.4167 288.453 49.25C288.943 50.0833 289.188 51.026 289.188 52.0781C289.188 53.4323 288.786 54.5208 287.984 55.3438C287.182 56.1562 285.984 56.6979 284.391 56.9688C286.234 57.2396 287.625 57.8385 288.562 58.7656C289.51 59.6927 289.984 60.9271 289.984 62.4688C289.984 63.5938 289.714 64.625 289.172 65.5625C288.63 66.4896 287.885 67.2083 286.938 67.7188C286.094 68.1771 285.104 68.5052 283.969 68.7031C282.833 68.901 280.953 69 278.328 69H277.828H274.594ZM293.812 69V46.125H298.703V69H293.812ZM312.484 50.2812V69H307.578V50.2812H301.984V46.125H318.109V50.2812H312.484ZM331.375 60.2969L328.812 52.9062C328.74 52.6875 328.646 52.3125 328.531 51.7812C328.417 51.25 328.297 50.599 328.172 49.8281C328.036 50.5677 327.906 51.2344 327.781 51.8281C327.656 52.4115 327.562 52.8021 327.5 53L325.031 60.2969H331.375ZM316.812 69L325.516 46.125H331.109L339.938 69H334.375L332.516 64.1406H323.656L322.062 69H316.812ZM360.203 52.0781C359.214 51.1927 358.198 50.5469 357.156 50.1406C356.115 49.724 355 49.5156 353.812 49.5156C351.375 49.5156 349.432 50.2448 347.984 51.7031C346.536 53.1615 345.812 55.1198 345.812 57.5781C345.812 59.9844 346.484 61.8958 347.828 63.3125C349.172 64.7188 351.005 65.4219 353.328 65.4219C354.651 65.4219 355.88 65.2031 357.016 64.7656C358.151 64.3177 359.203 63.651 360.172 62.7656L360.141 67.7812C359.099 68.3958 358.005 68.8542 356.859 69.1562C355.724 69.4583 354.526 69.6094 353.266 69.6094C349.62 69.6094 346.625 68.4792 344.281 66.2188C341.948 63.9479 340.781 61.0677 340.781 57.5781C340.781 54.099 341.953 51.2292 344.297 48.9688C346.641 46.7083 349.661 45.5781 353.359 45.5781C354.599 45.5781 355.797 45.7083 356.953 45.9688C358.109 46.2292 359.25 46.6302 360.375 47.1719L360.203 52.0781ZM364.844 69V46.125H369.734V69H364.844ZM398.391 57.6094C398.391 59.2448 398.083 60.7917 397.469 62.25C396.865 63.7083 395.99 64.9896 394.844 66.0938C393.656 67.2292 392.318 68.099 390.828 68.7031C389.339 69.3073 387.797 69.6094 386.203 69.6094C384.807 69.6094 383.438 69.375 382.094 68.9062C380.76 68.4271 379.536 67.7448 378.422 66.8594C376.984 65.7135 375.88 64.3438 375.109 62.75C374.349 61.1562 373.969 59.4427 373.969 57.6094C373.969 55.9635 374.271 54.4219 374.875 52.9844C375.479 51.5365 376.365 50.25 377.531 49.125C378.677 48.0104 380.005 47.1458 381.516 46.5312C383.036 45.9167 384.599 45.6094 386.203 45.6094C387.797 45.6094 389.344 45.9167 390.844 46.5312C392.354 47.1458 393.688 48.0104 394.844 49.125C396 50.25 396.88 51.5365 397.484 52.9844C398.089 54.4323 398.391 55.974 398.391 57.6094ZM386.203 65.25C388.276 65.25 389.984 64.526 391.328 63.0781C392.682 61.6198 393.359 59.7969 393.359 57.6094C393.359 55.4427 392.677 53.6198 391.312 52.1406C389.948 50.6615 388.245 49.9219 386.203 49.9219C384.13 49.9219 382.411 50.6615 381.047 52.1406C379.682 53.6094 379 55.4323 379 57.6094C379 59.8177 379.672 61.6458 381.016 63.0938C382.359 64.5312 384.089 65.25 386.203 65.25ZM402.531 69V46.125H407.609L417.734 59.4375C418.026 59.8125 418.344 60.3438 418.688 61.0312C419.042 61.7083 419.406 62.5104 419.781 63.4375C419.667 62.7604 419.583 62.0885 419.531 61.4219C419.479 60.7552 419.453 59.9219 419.453 58.9219V46.125H424.125V69H419.328L408.922 55.4375C408.63 55.0625 408.312 54.5365 407.969 53.8594C407.625 53.1719 407.26 52.3542 406.875 51.4062C406.99 52.0625 407.073 52.7292 407.125 53.4062C407.177 54.0729 407.203 54.9167 407.203 55.9375V69H402.531ZM441.062 60.2969L438.5 52.9062C438.427 52.6875 438.333 52.3125 438.219 51.7812C438.104 51.25 437.984 50.599 437.859 49.8281C437.724 50.5677 437.594 51.2344 437.469 51.8281C437.344 52.4115 437.25 52.8021 437.188 53L434.719 60.2969H441.062ZM426.5 69L435.203 46.125H440.797L449.625 69H444.062L442.203 64.1406H433.344L431.75 69H426.5ZM452.031 69V46.125H456.922V64.8438H464.734V69H452.031ZM467.812 69V46.125H481.281V50.25H472.703V54.9531H481.281V59.1094H472.703V64.8438H481.281V69H467.812ZM484.625 66.0938L487.344 63.0156C487.688 63.8594 488.24 64.526 489 65.0156C489.76 65.4948 490.615 65.7344 491.562 65.7344C492.708 65.7344 493.615 65.4635 494.281 64.9219C494.948 64.3802 495.281 63.651 495.281 62.7344C495.281 61.651 494.172 60.5729 491.953 59.5C491.234 59.1562 490.667 58.875 490.25 58.6562C488.25 57.6146 486.865 56.599 486.094 55.6094C485.323 54.6094 484.938 53.4219 484.938 52.0469C484.938 50.1615 485.682 48.6146 487.172 47.4062C488.672 46.1875 490.615 45.5781 493 45.5781C494.385 45.5781 495.578 45.8229 496.578 46.3125C497.589 46.7917 498.479 47.5469 499.25 48.5781L496.359 51.3438C496.016 50.6771 495.557 50.1823 494.984 49.8594C494.422 49.526 493.74 49.3594 492.938 49.3594C491.969 49.3594 491.188 49.6042 490.594 50.0938C490 50.5729 489.703 51.1979 489.703 51.9688C489.703 53.1771 490.88 54.2812 493.234 55.2812C493.703 55.4792 494.062 55.6354 494.312 55.75C496.25 56.6354 497.682 57.6354 498.609 58.75C499.547 59.8646 500.016 61.1354 500.016 62.5625C500.016 64.7083 499.281 66.4219 497.812 67.7031C496.354 68.974 494.391 69.6094 491.922 69.6094C490.172 69.6094 488.672 69.3073 487.422 68.7031C486.172 68.099 485.24 67.2292 484.625 66.0938Z" fill="white"/>
<path d="M27 136H15C10.5817 136 7 132.418 7 128V28" stroke="white" stroke-width="1.5"/>
<circle cx="7" cy="21" r="6.25" stroke="white" stroke-width="1.5"/>
<rect x="25" y="108" width="223" height="48" rx="10" fill="#002A61"/>
<path d="M59.196 129.964C58.38 128.968 57.372 128.47 56.172 128.47C55.644 128.47 55.152 128.566 54.696 128.758C54.252 128.95 53.868 129.214 53.544 129.55C53.22 129.874 52.962 130.264 52.77 130.72C52.59 131.176 52.5 131.668 52.5 132.196C52.5 132.736 52.59 133.234 52.77 133.69C52.962 134.146 53.22 134.542 53.544 134.878C53.88 135.214 54.27 135.478 54.714 135.67C55.158 135.862 55.638 135.958 56.154 135.958C57.282 135.958 58.296 135.478 59.196 134.518V138.694L58.836 138.82C58.296 139.012 57.792 139.15 57.324 139.234C56.856 139.33 56.394 139.378 55.938 139.378C55.002 139.378 54.102 139.204 53.238 138.856C52.386 138.496 51.63 137.998 50.97 137.362C50.322 136.714 49.8 135.952 49.404 135.076C49.008 134.188 48.81 133.222 48.81 132.178C48.81 131.134 49.002 130.18 49.386 129.316C49.782 128.44 50.304 127.69 50.952 127.066C51.612 126.43 52.374 125.938 53.238 125.59C54.102 125.23 55.008 125.05 55.956 125.05C56.496 125.05 57.024 125.11 57.54 125.23C58.068 125.338 58.62 125.512 59.196 125.752V129.964ZM64.1999 134.338C64.1999 134.65 64.2539 134.938 64.3619 135.202C64.4819 135.454 64.6319 135.676 64.8119 135.868C65.0039 136.06 65.2259 136.21 65.4779 136.318C65.7419 136.426 66.0179 136.48 66.3059 136.48C66.5939 136.48 66.8639 136.426 67.1159 136.318C67.3799 136.21 67.6019 136.06 67.7819 135.868C67.9739 135.676 68.1239 135.454 68.2319 135.202C68.3519 134.938 68.4119 134.656 68.4119 134.356C68.4119 134.068 68.3519 133.798 68.2319 133.546C68.1239 133.282 67.9739 133.054 67.7819 132.862C67.6019 132.67 67.3799 132.52 67.1159 132.412C66.8639 132.304 66.5939 132.25 66.3059 132.25C66.0179 132.25 65.7419 132.304 65.4779 132.412C65.2259 132.52 65.0039 132.67 64.8119 132.862C64.6319 133.054 64.4819 133.276 64.3619 133.528C64.2539 133.78 64.1999 134.05 64.1999 134.338ZM60.7619 134.302C60.7619 133.618 60.8999 132.982 61.1759 132.394C61.4519 131.794 61.8359 131.278 62.3279 130.846C62.8199 130.402 63.4019 130.054 64.0739 129.802C64.7579 129.55 65.5019 129.424 66.3059 129.424C67.0979 129.424 67.8299 129.55 68.5019 129.802C69.1859 130.042 69.7739 130.384 70.2659 130.828C70.7699 131.26 71.1599 131.782 71.4359 132.394C71.7119 132.994 71.8499 133.66 71.8499 134.392C71.8499 135.124 71.7059 135.796 71.4179 136.408C71.1419 137.008 70.7579 137.53 70.2659 137.974C69.7739 138.406 69.1799 138.742 68.4839 138.982C67.7999 139.222 67.0559 139.342 66.2519 139.342C65.4599 139.342 64.7279 139.222 64.0559 138.982C63.3839 138.742 62.8019 138.4 62.3099 137.956C61.8299 137.512 61.4519 136.984 61.1759 136.372C60.8999 135.748 60.7619 135.058 60.7619 134.302ZM73.7254 129.766H76.9834V130.936C77.4274 130.396 77.8774 130.036 78.3334 129.856C78.7894 129.664 79.3234 129.568 79.9354 129.568C80.5834 129.568 81.1354 129.676 81.5914 129.892C82.0594 130.096 82.4554 130.39 82.7794 130.774C83.0434 131.086 83.2234 131.434 83.3194 131.818C83.4154 132.202 83.4634 132.64 83.4634 133.132V139H80.2054V134.338C80.2054 133.882 80.1694 133.516 80.0974 133.24C80.0374 132.952 79.9234 132.724 79.7554 132.556C79.6114 132.412 79.4494 132.31 79.2694 132.25C79.0894 132.19 78.8974 132.16 78.6934 132.16C78.1414 132.16 77.7154 132.328 77.4154 132.664C77.1274 132.988 76.9834 133.456 76.9834 134.068V139H73.7254V129.766ZM91.7985 132.142C91.1985 131.83 90.6105 131.674 90.0345 131.674C89.7345 131.674 89.4885 131.734 89.2965 131.854C89.1165 131.974 89.0265 132.136 89.0265 132.34C89.0265 132.448 89.0385 132.538 89.0625 132.61C89.0985 132.67 89.1645 132.73 89.2605 132.79C89.3685 132.85 89.5185 132.904 89.7105 132.952C89.9145 133 90.1785 133.06 90.5025 133.132C91.4025 133.312 92.0745 133.636 92.5185 134.104C92.9625 134.56 93.1845 135.148 93.1845 135.868C93.1845 136.408 93.0765 136.894 92.8605 137.326C92.6445 137.758 92.3445 138.124 91.9605 138.424C91.5765 138.712 91.1145 138.934 90.5745 139.09C90.0345 139.258 89.4405 139.342 88.7925 139.342C87.5445 139.342 86.3145 138.988 85.1025 138.28L86.2905 135.976C87.2025 136.6 88.0665 136.912 88.8825 136.912C89.1825 136.912 89.4285 136.846 89.6205 136.714C89.8125 136.582 89.9085 136.414 89.9085 136.21C89.9085 136.09 89.8905 135.994 89.8545 135.922C89.8305 135.838 89.7705 135.766 89.6745 135.706C89.5785 135.634 89.4345 135.574 89.2425 135.526C89.0625 135.466 88.8225 135.406 88.5225 135.346C87.5145 135.142 86.8065 134.842 86.3985 134.446C86.0025 134.038 85.8045 133.48 85.8045 132.772C85.8045 132.256 85.9005 131.794 86.0925 131.386C86.2845 130.966 86.5605 130.612 86.9205 130.324C87.2805 130.036 87.7125 129.814 88.2165 129.658C88.7325 129.502 89.3025 129.424 89.9265 129.424C90.9465 129.424 91.9365 129.622 92.8965 130.018L91.7985 132.142ZM98.7188 132.484V139H95.4608V132.484H94.3808V129.766H95.4608V126.994H98.7188V129.766H100.573V132.484H98.7188ZM101.798 129.766H105.056V131.278C105.404 130.726 105.83 130.306 106.334 130.018C106.838 129.718 107.426 129.568 108.098 129.568C108.182 129.568 108.272 129.568 108.368 129.568C108.476 129.568 108.596 129.58 108.728 129.604V132.718C108.296 132.502 107.828 132.394 107.324 132.394C106.568 132.394 105.998 132.622 105.614 133.078C105.242 133.522 105.056 134.176 105.056 135.04V139H101.798V129.766ZM113.44 129.766V134.968C113.44 136.108 113.992 136.678 115.096 136.678C116.2 136.678 116.752 136.108 116.752 134.968V129.766H120.01V135.598C120.01 136.846 119.596 137.782 118.768 138.406C117.952 139.03 116.728 139.342 115.096 139.342C113.464 139.342 112.234 139.03 111.406 138.406C110.59 137.782 110.182 136.846 110.182 135.598V129.766H113.44ZM125.481 129.766V139H122.223V129.766H125.481ZM122.007 126.22C122.007 125.968 122.055 125.734 122.151 125.518C122.247 125.29 122.379 125.092 122.547 124.924C122.715 124.756 122.907 124.624 123.123 124.528C123.351 124.432 123.591 124.384 123.843 124.384C124.095 124.384 124.329 124.432 124.545 124.528C124.773 124.624 124.971 124.756 125.139 124.924C125.307 125.092 125.439 125.29 125.535 125.518C125.631 125.734 125.679 125.968 125.679 126.22C125.679 126.472 125.631 126.712 125.535 126.94C125.439 127.156 125.307 127.348 125.139 127.516C124.971 127.684 124.773 127.816 124.545 127.912C124.329 128.008 124.095 128.056 123.843 128.056C123.591 128.056 123.351 128.008 123.123 127.912C122.907 127.816 122.715 127.684 122.547 127.516C122.379 127.348 122.247 127.156 122.151 126.94C122.055 126.712 122.007 126.472 122.007 126.22ZM127.708 129.766H130.966V130.9C131.854 130.048 132.85 129.622 133.954 129.622C135.322 129.622 136.366 130.198 137.086 131.35C137.818 130.186 138.862 129.604 140.218 129.604C140.65 129.604 141.058 129.67 141.442 129.802C141.826 129.922 142.156 130.12 142.432 130.396C142.708 130.66 142.924 131.008 143.08 131.44C143.248 131.872 143.332 132.394 143.332 133.006V139H140.074V134.446C140.074 133.978 140.038 133.594 139.966 133.294C139.906 132.994 139.81 132.76 139.678 132.592C139.558 132.424 139.414 132.31 139.246 132.25C139.078 132.19 138.898 132.16 138.706 132.16C137.662 132.16 137.14 132.922 137.14 134.446V139H133.882V134.446C133.882 133.978 133.852 133.594 133.792 133.294C133.732 132.982 133.642 132.736 133.522 132.556C133.414 132.376 133.27 132.256 133.09 132.196C132.91 132.124 132.7 132.088 132.46 132.088C132.256 132.088 132.064 132.118 131.884 132.178C131.704 132.238 131.542 132.358 131.398 132.538C131.266 132.706 131.158 132.946 131.074 133.258C131.002 133.558 130.966 133.954 130.966 134.446V139H127.708V129.766ZM148.645 134.338C148.645 134.65 148.699 134.938 148.807 135.202C148.927 135.454 149.077 135.676 149.257 135.868C149.449 136.06 149.671 136.21 149.923 136.318C150.187 136.426 150.463 136.48 150.751 136.48C151.039 136.48 151.309 136.426 151.561 136.318C151.825 136.21 152.047 136.06 152.227 135.868C152.419 135.676 152.569 135.454 152.677 135.202C152.797 134.938 152.857 134.656 152.857 134.356C152.857 134.068 152.797 133.798 152.677 133.546C152.569 133.282 152.419 133.054 152.227 132.862C152.047 132.67 151.825 132.52 151.561 132.412C151.309 132.304 151.039 132.25 150.751 132.25C150.463 132.25 150.187 132.304 149.923 132.412C149.671 132.52 149.449 132.67 149.257 132.862C149.077 133.054 148.927 133.276 148.807 133.528C148.699 133.78 148.645 134.05 148.645 134.338ZM145.207 134.302C145.207 133.618 145.345 132.982 145.621 132.394C145.897 131.794 146.281 131.278 146.773 130.846C147.265 130.402 147.847 130.054 148.519 129.802C149.203 129.55 149.947 129.424 150.751 129.424C151.543 129.424 152.275 129.55 152.947 129.802C153.631 130.042 154.219 130.384 154.711 130.828C155.215 131.26 155.605 131.782 155.881 132.394C156.157 132.994 156.295 133.66 156.295 134.392C156.295 135.124 156.151 135.796 155.863 136.408C155.587 137.008 155.203 137.53 154.711 137.974C154.219 138.406 153.625 138.742 152.929 138.982C152.245 139.222 151.501 139.342 150.697 139.342C149.905 139.342 149.173 139.222 148.501 138.982C147.829 138.742 147.247 138.4 146.755 137.956C146.275 137.512 145.897 136.984 145.621 136.372C145.345 135.748 145.207 135.058 145.207 134.302ZM164.291 132.142C163.691 131.83 163.103 131.674 162.527 131.674C162.227 131.674 161.981 131.734 161.789 131.854C161.609 131.974 161.519 132.136 161.519 132.34C161.519 132.448 161.531 132.538 161.555 132.61C161.591 132.67 161.657 132.73 161.753 132.79C161.861 132.85 162.011 132.904 162.203 132.952C162.407 133 162.671 133.06 162.995 133.132C163.895 133.312 164.567 133.636 165.011 134.104C165.455 134.56 165.677 135.148 165.677 135.868C165.677 136.408 165.569 136.894 165.353 137.326C165.137 137.758 164.837 138.124 164.453 138.424C164.069 138.712 163.607 138.934 163.067 139.09C162.527 139.258 161.933 139.342 161.285 139.342C160.037 139.342 158.807 138.988 157.595 138.28L158.783 135.976C159.695 136.6 160.559 136.912 161.375 136.912C161.675 136.912 161.921 136.846 162.113 136.714C162.305 136.582 162.401 136.414 162.401 136.21C162.401 136.09 162.383 135.994 162.347 135.922C162.323 135.838 162.263 135.766 162.167 135.706C162.071 135.634 161.927 135.574 161.735 135.526C161.555 135.466 161.315 135.406 161.015 135.346C160.007 135.142 159.299 134.842 158.891 134.446C158.495 134.038 158.297 133.48 158.297 132.772C158.297 132.256 158.393 131.794 158.585 131.386C158.777 130.966 159.053 130.612 159.413 130.324C159.773 130.036 160.205 129.814 160.709 129.658C161.225 129.502 161.795 129.424 162.419 129.424C163.439 129.424 164.429 129.622 165.389 130.018L164.291 132.142ZM179.98 131.152C179.224 130.612 178.288 130.306 177.37 130.306C174.886 130.306 172.852 132.25 172.852 134.77C172.852 137.326 174.796 139.234 177.352 139.234C178.36 139.234 179.206 138.928 180.034 138.37V136.444H179.998C179.296 137.362 178.45 137.902 177.244 137.902C175.48 137.902 174.328 136.444 174.328 134.77C174.328 133.078 175.57 131.638 177.316 131.638C178.45 131.638 179.278 132.214 179.944 133.06H179.98V131.152ZM185.949 139.234C188.415 139.234 190.395 137.272 190.395 134.788C190.395 132.304 188.433 130.306 185.949 130.306C183.465 130.306 181.503 132.304 181.503 134.788C181.503 137.272 183.483 139.234 185.949 139.234ZM185.949 131.638C187.731 131.638 188.955 133.06 188.955 134.77C188.955 136.498 187.731 137.902 185.949 137.902C184.167 137.902 182.943 136.498 182.943 134.77C182.943 133.06 184.167 131.638 185.949 131.638ZM193.806 130.54H192.366V139H193.806V134.986C193.806 133.474 193.932 131.638 195.912 131.638C197.586 131.638 197.694 132.862 197.694 134.23V139H199.134V133.978C199.134 131.998 198.594 130.306 196.254 130.306C195.21 130.306 194.436 130.756 193.842 131.566H193.806V130.54ZM203.388 131.872H204.9V130.54H203.388V127.498H201.948V130.54H201.066V131.872H201.948V139H203.388V131.872ZM207.91 130.54H206.47V139H207.91V130.54ZM207.19 126.328C206.632 126.328 206.164 126.796 206.164 127.354C206.164 127.93 206.632 128.38 207.19 128.38C207.748 128.38 208.216 127.93 208.216 127.354C208.216 126.796 207.748 126.328 207.19 126.328ZM214.331 131.638C216.113 131.638 217.175 133.006 217.175 134.698C217.175 136.408 216.203 137.902 214.349 137.902C212.549 137.902 211.577 136.336 211.577 134.68C211.577 133.096 212.657 131.638 214.331 131.638ZM218.543 130.54H217.103V131.746H217.067C216.383 130.828 215.357 130.306 214.187 130.306C211.685 130.306 210.101 132.43 210.101 134.806C210.101 137.164 211.667 139.234 214.133 139.234C215.267 139.234 216.383 138.712 217.067 137.83H217.103V138.838C217.103 140.746 216.617 142.384 214.385 142.384C212.837 142.384 211.703 141.394 211.685 139.828H210.245C210.299 142.222 212.045 143.716 214.403 143.716C215.663 143.716 216.887 143.23 217.679 142.222C218.543 141.106 218.543 139.936 218.543 138.586V130.54ZM225.042 139.234C227.508 139.234 229.488 137.272 229.488 134.788C229.488 132.304 227.526 130.306 225.042 130.306C222.558 130.306 220.596 132.304 220.596 134.788C220.596 137.272 222.576 139.234 225.042 139.234ZM225.042 131.638C226.824 131.638 228.048 133.06 228.048 134.77C228.048 136.498 226.824 137.902 225.042 137.902C223.26 137.902 222.036 136.498 222.036 134.77C222.036 133.06 223.26 131.638 225.042 131.638Z" fill="white"/>
</svg>
