<svg width="475" height="210" viewBox="0 0 475 210" fill="none" xmlns="http://www.w3.org/2000/svg">
<path d="M30.5625 31V8.125H44.0312V12.25H35.4531V16.9531H44.0312V21.1094H35.4531V26.8438H44.0312V31H30.5625ZM48.8438 31V8.125H53.7344V26.8438H61.5469V31H48.8438ZM91.0156 31H85.375L79.3594 20.3125V31H74.4688V8.125H81.4688C84.25 8.125 86.3333 8.66667 87.7188 9.75C89.1042 10.8229 89.7969 12.4427 89.7969 14.6094C89.7969 16.1823 89.3229 17.526 88.375 18.6406C87.4271 19.7552 86.2031 20.4062 84.7031 20.5938L91.0156 31ZM79.3594 17.875H80.0938C82.0729 17.875 83.3802 17.6615 84.0156 17.2344C84.651 16.7969 84.9688 16.0417 84.9688 14.9688C84.9688 13.8438 84.625 13.0469 83.9375 12.5781C83.2604 12.099 81.9792 11.8594 80.0938 11.8594H79.3594V17.875ZM93.875 31V8.125H107.344V12.25H98.7656V16.9531H107.344V21.1094H98.7656V26.8438H107.344V31H93.875ZM110.688 28.0938L113.406 25.0156C113.75 25.8594 114.302 26.526 115.062 27.0156C115.823 27.4948 116.677 27.7344 117.625 27.7344C118.771 27.7344 119.677 27.4635 120.344 26.9219C121.01 26.3802 121.344 25.651 121.344 24.7344C121.344 23.651 120.234 22.5729 118.016 21.5C117.297 21.1562 116.729 20.875 116.312 20.6562C114.312 19.6146 112.927 18.599 112.156 17.6094C111.385 16.6094 111 15.4219 111 14.0469C111 12.1615 111.745 10.6146 113.234 9.40625C114.734 8.1875 116.677 7.57812 119.062 7.57812C120.448 7.57812 121.641 7.82292 122.641 8.3125C123.651 8.79167 124.542 9.54688 125.312 10.5781L122.422 13.3438C122.078 12.6771 121.62 12.1823 121.047 11.8594C120.484 11.526 119.802 11.3594 119 11.3594C118.031 11.3594 117.25 11.6042 116.656 12.0938C116.062 12.5729 115.766 13.1979 115.766 13.9688C115.766 15.1771 116.943 16.2812 119.297 17.2812C119.766 17.4792 120.125 17.6354 120.375 17.75C122.312 18.6354 123.745 19.6354 124.672 20.75C125.609 21.8646 126.078 23.1354 126.078 24.5625C126.078 26.7083 125.344 28.4219 123.875 29.7031C122.417 30.974 120.453 31.6094 117.984 31.6094C116.234 31.6094 114.734 31.3073 113.484 30.7031C112.234 30.099 111.302 29.2292 110.688 28.0938ZM135.016 18.4531H135.719C137.052 18.4531 138.021 18.1771 138.625 17.625C139.229 17.0729 139.531 16.1875 139.531 14.9688C139.531 13.8438 139.229 13.026 138.625 12.5156C138.021 11.9948 137.052 11.7344 135.719 11.7344H135.016V18.4531ZM130.094 31V8.125H135.719C138.719 8.125 140.932 8.69792 142.359 9.84375C143.797 10.9896 144.516 12.7604 144.516 15.1562C144.516 17.375 143.792 19.1146 142.344 20.375C140.906 21.6354 138.911 22.2656 136.359 22.2656H135.016V31H130.094ZM158.156 22.2969L155.594 14.9062C155.521 14.6875 155.427 14.3125 155.312 13.7812C155.198 13.25 155.078 12.599 154.953 11.8281C154.818 12.5677 154.688 13.2344 154.562 13.8281C154.438 14.4115 154.344 14.8021 154.281 15L151.812 22.2969H158.156ZM143.594 31L152.297 8.125H157.891L166.719 31H161.156L159.297 26.1406H150.438L148.844 31H143.594ZM169.125 31V8.125H174.016V26.8438H181.828V31H169.125ZM189.797 26.875H192.516C195.078 26.875 196.943 26.2917 198.109 25.125C199.286 23.9583 199.875 22.1094 199.875 19.5781C199.875 17.0573 199.286 15.2135 198.109 14.0469C196.943 12.8698 195.078 12.2812 192.516 12.2812H189.797V26.875ZM184.906 31V8.125H191.141C193.599 8.125 195.536 8.29688 196.953 8.64062C198.37 8.98438 199.615 9.55729 200.688 10.3594C202.073 11.3906 203.12 12.6927 203.828 14.2656C204.547 15.8281 204.906 17.6094 204.906 19.6094C204.906 21.6406 204.542 23.4427 203.812 25.0156C203.083 26.5781 202.016 27.8698 200.609 28.8906C199.568 29.6406 198.406 30.1823 197.125 30.5156C195.854 30.8385 193.99 31 191.531 31H189.797H184.906ZM232.422 19.6094C232.422 21.2448 232.115 22.7917 231.5 24.25C230.896 25.7083 230.021 26.9896 228.875 28.0938C227.688 29.2292 226.349 30.099 224.859 30.7031C223.37 31.3073 221.828 31.6094 220.234 31.6094C218.839 31.6094 217.469 31.375 216.125 30.9062C214.792 30.4271 213.568 29.7448 212.453 28.8594C211.016 27.7135 209.911 26.3438 209.141 24.75C208.38 23.1562 208 21.4427 208 19.6094C208 17.9635 208.302 16.4219 208.906 14.9844C209.51 13.5365 210.396 12.25 211.562 11.125C212.708 10.0104 214.036 9.14583 215.547 8.53125C217.068 7.91667 218.63 7.60938 220.234 7.60938C221.828 7.60938 223.375 7.91667 224.875 8.53125C226.385 9.14583 227.719 10.0104 228.875 11.125C230.031 12.25 230.911 13.5365 231.516 14.9844C232.12 16.4323 232.422 17.974 232.422 19.6094ZM220.234 27.25C222.307 27.25 224.016 26.526 225.359 25.0781C226.714 23.6198 227.391 21.7969 227.391 19.6094C227.391 17.4427 226.708 15.6198 225.344 14.1406C223.979 12.6615 222.276 11.9219 220.234 11.9219C218.161 11.9219 216.443 12.6615 215.078 14.1406C213.714 15.6094 213.031 17.4323 213.031 19.6094C213.031 21.8177 213.703 23.6458 215.047 25.0938C216.391 26.5312 218.12 27.25 220.234 27.25ZM260.906 23.25L262.594 25.2344C263.302 24.5052 263.844 23.651 264.219 22.6719C264.604 21.6823 264.797 20.6615 264.797 19.6094C264.797 17.4427 264.115 15.6198 262.75 14.1406C261.385 12.6615 259.682 11.9219 257.641 11.9219C255.568 11.9219 253.849 12.6615 252.484 14.1406C251.12 15.6094 250.438 17.4323 250.438 19.6094C250.438 21.8073 251.104 23.6302 252.438 25.0781C253.781 26.526 255.484 27.25 257.547 27.25C257.724 27.25 257.969 27.2344 258.281 27.2031C258.604 27.1615 258.984 27.1042 259.422 27.0312L256.125 23.25H260.906ZM269.703 33.6562H264.828L262.344 30.7188C261.219 31.0104 260.281 31.2188 259.531 31.3438C258.792 31.4792 258.13 31.5469 257.547 31.5469C255.974 31.5469 254.432 31.2396 252.922 30.625C251.411 30.0104 250.094 29.1562 248.969 28.0625C247.812 26.9375 246.922 25.6458 246.297 24.1875C245.682 22.7188 245.375 21.1823 245.375 19.5781C245.375 17.974 245.682 16.4479 246.297 15C246.911 13.5417 247.802 12.2396 248.969 11.0938C250.104 9.96875 251.417 9.10938 252.906 8.51562C254.406 7.91146 255.984 7.60938 257.641 7.60938C259.266 7.60938 260.823 7.91146 262.312 8.51562C263.802 9.10938 265.125 9.96875 266.281 11.0938C267.438 12.2292 268.323 13.5208 268.938 14.9688C269.552 16.4167 269.859 17.9531 269.859 19.5781C269.859 21.3698 269.49 23.0417 268.75 24.5938C268.01 26.1458 266.927 27.526 265.5 28.7344L269.703 33.6562ZM293.641 8.125V22.3594C293.641 25.4635 292.823 27.7812 291.188 29.3125C289.552 30.8438 287.089 31.6094 283.797 31.6094C280.453 31.6094 277.964 30.8438 276.328 29.3125C274.693 27.7812 273.875 25.4635 273.875 22.3594V8.125H278.734V21.5938C278.734 23.4792 279.151 24.901 279.984 25.8594C280.818 26.8073 282.062 27.2812 283.719 27.2812C285.385 27.2812 286.646 26.8021 287.5 25.8438C288.354 24.8854 288.781 23.4688 288.781 21.5938V8.125H293.641ZM298.719 31V8.125H312.188V12.25H303.609V16.9531H312.188V21.1094H303.609V26.8438H312.188V31H298.719ZM30.5625 69V46.125H35.4531V64.8438H43.2656V69H30.5625ZM46.3438 69V46.125H59.8125V50.25H51.2344V54.9531H59.8125V59.1094H51.2344V64.8438H59.8125V69H46.3438ZM74.4688 69V46.125H79.3594V55.2969H89.2812V46.125H94.1719V69H89.2812V59.4375H79.3594V69H74.4688ZM111.125 60.2969L108.562 52.9062C108.49 52.6875 108.396 52.3125 108.281 51.7812C108.167 51.25 108.047 50.599 107.922 49.8281C107.786 50.5677 107.656 51.2344 107.531 51.8281C107.406 52.4115 107.312 52.8021 107.25 53L104.781 60.2969H111.125ZM96.5625 69L105.266 46.125H110.859L119.688 69H114.125L112.266 64.1406H103.406L101.812 69H96.5625ZM139.953 52.0781C138.964 51.1927 137.948 50.5469 136.906 50.1406C135.865 49.724 134.75 49.5156 133.562 49.5156C131.125 49.5156 129.182 50.2448 127.734 51.7031C126.286 53.1615 125.562 55.1198 125.562 57.5781C125.562 59.9844 126.234 61.8958 127.578 63.3125C128.922 64.7188 130.755 65.4219 133.078 65.4219C134.401 65.4219 135.63 65.2031 136.766 64.7656C137.901 64.3177 138.953 63.651 139.922 62.7656L139.891 67.7812C138.849 68.3958 137.755 68.8542 136.609 69.1562C135.474 69.4583 134.276 69.6094 133.016 69.6094C129.37 69.6094 126.375 68.4792 124.031 66.2188C121.698 63.9479 120.531 61.0677 120.531 57.5781C120.531 54.099 121.703 51.2292 124.047 48.9688C126.391 46.7083 129.411 45.5781 133.109 45.5781C134.349 45.5781 135.547 45.7083 136.703 45.9688C137.859 46.2292 139 46.6302 140.125 47.1719L139.953 52.0781ZM144.594 69V46.125H149.484V69H144.594ZM151.641 38.1875L146.75 43.9531H144.531L147.609 38.1875H151.641ZM166.562 60.2969L164 52.9062C163.927 52.6875 163.833 52.3125 163.719 51.7812C163.604 51.25 163.484 50.599 163.359 49.8281C163.224 50.5677 163.094 51.2344 162.969 51.8281C162.844 52.4115 162.75 52.8021 162.688 53L160.219 60.2969H166.562ZM152 69L160.703 46.125H166.297L175.125 69H169.562L167.703 64.1406H158.844L157.25 69H152ZM187.375 69V46.125H200.844V50.25H192.266V54.9531H200.844V59.1094H192.266V69H187.375ZM215.906 60.2969L213.344 52.9062C213.271 52.6875 213.177 52.3125 213.062 51.7812C212.948 51.25 212.828 50.599 212.703 49.8281C212.568 50.5677 212.438 51.2344 212.312 51.8281C212.188 52.4115 212.094 52.8021 212.031 53L209.562 60.2969H215.906ZM201.344 69L210.047 46.125H215.641L224.469 69H218.906L217.047 64.1406H208.188L206.594 69H201.344ZM226.875 69V46.125H231.766V64.8438H239.578V69H226.875ZM249.453 50.2812V69H244.547V50.2812H238.953V46.125H255.078V50.2812H249.453ZM268.344 60.2969L265.781 52.9062C265.708 52.6875 265.615 52.3125 265.5 51.7812C265.385 51.25 265.266 50.599 265.141 49.8281C265.005 50.5677 264.875 51.2344 264.75 51.8281C264.625 52.4115 264.531 52.8021 264.469 53L262 60.2969H268.344ZM253.781 69L262.484 46.125H268.078L276.906 69H271.344L269.484 64.1406H260.625L259.031 69H253.781ZM42.4062 98.2969L39.8438 90.9062C39.7708 90.6875 39.6771 90.3125 39.5625 89.7812C39.4479 89.25 39.3281 88.599 39.2031 87.8281C39.0677 88.5677 38.9375 89.2344 38.8125 89.8281C38.6875 90.4115 38.5938 90.8021 38.5312 91L36.0625 98.2969H42.4062ZM27.8438 107L36.5469 84.125H42.1406L50.9688 107H45.4062L43.5469 102.141H34.6875L33.0938 107H27.8438ZM71.7656 88.2812V107H66.8594V88.2812H61.2656V84.125H77.3906V88.2812H71.7656ZM100.234 84.125V98.3594C100.234 101.464 99.4167 103.781 97.7812 105.312C96.1458 106.844 93.6823 107.609 90.3906 107.609C87.0469 107.609 84.5573 106.844 82.9219 105.312C81.2865 103.781 80.4688 101.464 80.4688 98.3594V84.125H85.3281V97.5938C85.3281 99.4792 85.7448 100.901 86.5781 101.859C87.4115 102.807 88.6562 103.281 90.3125 103.281C91.9792 103.281 93.2396 102.802 94.0938 101.844C94.9479 100.885 95.375 99.4688 95.375 97.5938V84.125H100.234ZM115.156 107V84.125H120.234L130.359 97.4375C130.651 97.8125 130.969 98.3438 131.312 99.0312C131.667 99.7083 132.031 100.51 132.406 101.438C132.292 100.76 132.208 100.089 132.156 99.4219C132.104 98.7552 132.078 97.9219 132.078 96.9219V84.125H136.75V107H131.953L121.547 93.4375C121.255 93.0625 120.938 92.5365 120.594 91.8594C120.25 91.1719 119.885 90.3542 119.5 89.4062C119.615 90.0625 119.698 90.7292 119.75 91.4062C119.802 92.0729 119.828 92.9167 119.828 93.9375V107H115.156ZM141.844 107V84.125H155.312V88.25H146.734V92.9531H155.312V97.1094H146.734V102.844H155.312V107H141.844ZM171.484 94.9375H181.906C181.927 95.0729 181.938 95.2188 181.938 95.375C181.948 95.5312 181.953 95.7708 181.953 96.0938C181.953 99.5208 180.974 102.297 179.016 104.422C177.057 106.547 174.526 107.609 171.422 107.609C167.87 107.609 164.943 106.479 162.641 104.219C160.339 101.948 159.188 99.0677 159.188 95.5781C159.188 92.1198 160.344 89.2604 162.656 87C164.969 84.7396 167.891 83.6094 171.422 83.6094C173.286 83.6094 174.995 84 176.547 84.7812C178.099 85.5625 179.484 86.7292 180.703 88.2812L177.406 90.7188C176.583 89.6979 175.719 88.9635 174.812 88.5156C173.906 88.0573 172.859 87.8281 171.672 87.8281C169.411 87.8281 167.604 88.5312 166.25 89.9375C164.896 91.3438 164.219 93.224 164.219 95.5781C164.219 97.8906 164.896 99.7604 166.25 101.188C167.615 102.604 169.391 103.312 171.578 103.312C173.182 103.312 174.484 102.938 175.484 102.188C176.484 101.427 176.984 100.438 176.984 99.2188V98.9688H171.484V94.9375ZM209.266 95.6094C209.266 97.2448 208.958 98.7917 208.344 100.25C207.74 101.708 206.865 102.99 205.719 104.094C204.531 105.229 203.193 106.099 201.703 106.703C200.214 107.307 198.672 107.609 197.078 107.609C195.682 107.609 194.312 107.375 192.969 106.906C191.635 106.427 190.411 105.745 189.297 104.859C187.859 103.714 186.755 102.344 185.984 100.75C185.224 99.1562 184.844 97.4427 184.844 95.6094C184.844 93.9635 185.146 92.4219 185.75 90.9844C186.354 89.5365 187.24 88.25 188.406 87.125C189.552 86.0104 190.88 85.1458 192.391 84.5312C193.911 83.9167 195.474 83.6094 197.078 83.6094C198.672 83.6094 200.219 83.9167 201.719 84.5312C203.229 85.1458 204.562 86.0104 205.719 87.125C206.875 88.25 207.755 89.5365 208.359 90.9844C208.964 92.4323 209.266 93.974 209.266 95.6094ZM197.078 103.25C199.151 103.25 200.859 102.526 202.203 101.078C203.557 99.6198 204.234 97.7969 204.234 95.6094C204.234 93.4427 203.552 91.6198 202.188 90.1406C200.823 88.6615 199.12 87.9219 197.078 87.9219C195.005 87.9219 193.286 88.6615 191.922 90.1406C190.557 91.6094 189.875 93.4323 189.875 95.6094C189.875 97.8177 190.547 99.6458 191.891 101.094C193.234 102.531 194.964 103.25 197.078 103.25ZM231.828 90.0781C230.839 89.1927 229.823 88.5469 228.781 88.1406C227.74 87.724 226.625 87.5156 225.438 87.5156C223 87.5156 221.057 88.2448 219.609 89.7031C218.161 91.1615 217.438 93.1198 217.438 95.5781C217.438 97.9844 218.109 99.8958 219.453 101.312C220.797 102.719 222.63 103.422 224.953 103.422C226.276 103.422 227.505 103.203 228.641 102.766C229.776 102.318 230.828 101.651 231.797 100.766L231.766 105.781C230.724 106.396 229.63 106.854 228.484 107.156C227.349 107.458 226.151 107.609 224.891 107.609C221.245 107.609 218.25 106.479 215.906 104.219C213.573 101.948 212.406 99.0677 212.406 95.5781C212.406 92.099 213.578 89.2292 215.922 86.9688C218.266 84.7083 221.286 83.5781 224.984 83.5781C226.224 83.5781 227.422 83.7083 228.578 83.9688C229.734 84.2292 230.875 84.6302 232 85.1719L231.828 90.0781ZM236.469 107V84.125H241.359V107H236.469ZM270.016 95.6094C270.016 97.2448 269.708 98.7917 269.094 100.25C268.49 101.708 267.615 102.99 266.469 104.094C265.281 105.229 263.943 106.099 262.453 106.703C260.964 107.307 259.422 107.609 257.828 107.609C256.432 107.609 255.062 107.375 253.719 106.906C252.385 106.427 251.161 105.745 250.047 104.859C248.609 103.714 247.505 102.344 246.734 100.75C245.974 99.1562 245.594 97.4427 245.594 95.6094C245.594 93.9635 245.896 92.4219 246.5 90.9844C247.104 89.5365 247.99 88.25 249.156 87.125C250.302 86.0104 251.63 85.1458 253.141 84.5312C254.661 83.9167 256.224 83.6094 257.828 83.6094C259.422 83.6094 260.969 83.9167 262.469 84.5312C263.979 85.1458 265.312 86.0104 266.469 87.125C267.625 88.25 268.505 89.5365 269.109 90.9844C269.714 92.4323 270.016 93.974 270.016 95.6094ZM257.828 103.25C259.901 103.25 261.609 102.526 262.953 101.078C264.307 99.6198 264.984 97.7969 264.984 95.6094C264.984 93.4427 264.302 91.6198 262.938 90.1406C261.573 88.6615 259.87 87.9219 257.828 87.9219C255.755 87.9219 254.036 88.6615 252.672 90.1406C251.307 91.6094 250.625 93.4323 250.625 95.6094C250.625 97.8177 251.297 99.6458 252.641 101.094C253.984 102.531 255.714 103.25 257.828 103.25Z" fill="white"/>
<path d="M27 175H15C10.5817 175 7 171.418 7 167V28" stroke="white" stroke-width="1.5"/>
<circle cx="7" cy="21" r="6.25" stroke="white" stroke-width="1.5"/>
<rect x="25" y="140" width="284" height="70" rx="10" fill="#002A61"/>
<path d="M53.6162 158.007L51.5684 162.744H55.6641L53.6162 158.007ZM53.6162 154.623L59.4697 168H57.8086L56.1387 164.054H51.1113L49.4414 168H47.7803L53.6162 154.623ZM61.9834 164.001C61.9834 164.903 62.2324 165.627 62.7305 166.172C63.2285 166.717 63.8877 166.989 64.708 166.989C65.5107 166.989 66.1406 166.74 66.5977 166.242C67.0605 165.744 67.292 165.053 67.292 164.168C67.292 163.178 67.0605 162.401 66.5977 161.839C66.1406 161.276 65.502 160.995 64.6816 160.995C63.8438 160.995 63.1846 161.262 62.7041 161.795C62.2236 162.328 61.9834 163.063 61.9834 164.001ZM60.6562 171.92V159.958H61.9658V161.47C62.2764 160.89 62.6865 160.444 63.1963 160.134C63.7061 159.823 64.2744 159.668 64.9014 159.668C66.0615 159.668 66.9932 160.063 67.6963 160.854C68.3994 161.646 68.751 162.694 68.751 164.001C68.751 165.331 68.4053 166.389 67.7139 167.174C67.0283 167.953 66.1084 168.343 64.9541 168.343C64.292 168.343 63.7148 168.193 63.2227 167.895C62.7305 167.59 62.3291 167.139 62.0186 166.541V171.92H60.6562ZM71.7656 164.001C71.7656 164.851 72.0498 165.571 72.6182 166.163C73.1865 166.749 73.875 167.042 74.6836 167.042C75.4863 167.042 76.1689 166.749 76.7314 166.163C77.2939 165.571 77.5752 164.851 77.5752 164.001C77.5752 163.151 77.2939 162.434 76.7314 161.848C76.1689 161.256 75.4863 160.96 74.6836 160.96C73.8691 160.96 73.1777 161.256 72.6094 161.848C72.0469 162.434 71.7656 163.151 71.7656 164.001ZM70.3066 164.001C70.3066 163.409 70.415 162.853 70.6318 162.331C70.8486 161.804 71.165 161.335 71.5811 160.925C71.9971 160.515 72.4688 160.204 72.9961 159.993C73.5234 159.776 74.0859 159.668 74.6836 159.668C75.2695 159.668 75.8232 159.776 76.3447 159.993C76.8721 160.21 77.3496 160.526 77.7773 160.942C78.1934 161.347 78.5098 161.812 78.7266 162.34C78.9434 162.861 79.0518 163.415 79.0518 164.001C79.0518 164.587 78.9434 165.141 78.7266 165.662C78.5098 166.178 78.1934 166.638 77.7773 167.042C77.3496 167.464 76.8691 167.786 76.3359 168.009C75.8086 168.231 75.2578 168.343 74.6836 168.343C74.0918 168.343 73.5293 168.231 72.9961 168.009C72.4688 167.792 71.9971 167.479 71.5811 167.068C71.165 166.646 70.8486 166.178 70.6318 165.662C70.415 165.146 70.3066 164.593 70.3066 164.001ZM80.8799 171.92L83.0596 167.209L79.9043 159.958H81.4951L83.833 165.732L86.3115 159.958H87.8232L82.4268 171.92H80.8799ZM95.2852 164.054C95.2852 163.146 95.0361 162.416 94.5381 161.865C94.0459 161.309 93.4014 161.03 92.6045 161.03C91.7783 161.03 91.1338 161.285 90.6709 161.795C90.208 162.305 89.9766 163.017 89.9766 163.931C89.9766 164.903 90.208 165.653 90.6709 166.181C91.1396 166.708 91.8018 166.972 92.6572 166.972C93.4775 166.972 94.1191 166.717 94.582 166.207C95.0508 165.691 95.2852 164.974 95.2852 164.054ZM96.6211 159.958V168H95.2852V166.541C94.9629 167.127 94.5498 167.575 94.0459 167.886C93.5479 168.19 92.9883 168.343 92.3672 168.343C91.2129 168.343 90.2812 167.947 89.5723 167.156C88.8691 166.359 88.5176 165.308 88.5176 164.001C88.5176 162.677 88.8604 161.625 89.5459 160.846C90.2314 160.061 91.1484 159.668 92.2969 159.668C92.9707 159.668 93.5537 159.82 94.0459 160.125C94.5439 160.424 94.9453 160.872 95.25 161.47V159.958H96.6211ZM98.2471 168L102.853 161.162H98.5283V159.958H105.278L100.673 166.796H105.243V168H98.2471ZM118.348 168V163.263C118.348 162.448 118.184 161.845 117.855 161.452C117.527 161.054 117.023 160.854 116.344 160.854C115.975 160.854 115.632 160.931 115.315 161.083C115.005 161.229 114.741 161.44 114.524 161.716C114.366 161.927 114.252 162.173 114.182 162.454C114.111 162.735 114.076 163.198 114.076 163.843V168H112.749V163.263C112.749 162.448 112.585 161.845 112.257 161.452C111.929 161.054 111.425 160.854 110.745 160.854C110.376 160.854 110.03 160.931 109.708 161.083C109.392 161.229 109.125 161.44 108.908 161.716C108.756 161.921 108.645 162.158 108.574 162.428C108.51 162.697 108.478 163.169 108.478 163.843V168H107.15V159.958H108.495V161.197C108.829 160.682 109.228 160.298 109.69 160.046C110.153 159.794 110.687 159.668 111.29 159.668C111.94 159.668 112.494 159.809 112.951 160.09C113.408 160.365 113.754 160.77 113.988 161.303C114.334 160.752 114.741 160.342 115.21 160.072C115.685 159.803 116.232 159.668 116.854 159.668C117.75 159.668 118.45 159.92 118.954 160.424C119.458 160.928 119.71 161.628 119.71 162.524V168H118.348ZM123.234 164.001C123.234 164.851 123.519 165.571 124.087 166.163C124.655 166.749 125.344 167.042 126.152 167.042C126.955 167.042 127.638 166.749 128.2 166.163C128.763 165.571 129.044 164.851 129.044 164.001C129.044 163.151 128.763 162.434 128.2 161.848C127.638 161.256 126.955 160.96 126.152 160.96C125.338 160.96 124.646 161.256 124.078 161.848C123.516 162.434 123.234 163.151 123.234 164.001ZM121.775 164.001C121.775 163.409 121.884 162.853 122.101 162.331C122.317 161.804 122.634 161.335 123.05 160.925C123.466 160.515 123.938 160.204 124.465 159.993C124.992 159.776 125.555 159.668 126.152 159.668C126.738 159.668 127.292 159.776 127.813 159.993C128.341 160.21 128.818 160.526 129.246 160.942C129.662 161.347 129.979 161.812 130.195 162.34C130.412 162.861 130.521 163.415 130.521 164.001C130.521 164.587 130.412 165.141 130.195 165.662C129.979 166.178 129.662 166.638 129.246 167.042C128.818 167.464 128.338 167.786 127.805 168.009C127.277 168.231 126.727 168.343 126.152 168.343C125.561 168.343 124.998 168.231 124.465 168.009C123.938 167.792 123.466 167.479 123.05 167.068C122.634 166.646 122.317 166.178 122.101 165.662C121.884 165.146 121.775 164.593 121.775 164.001ZM131.821 166.646L132.999 165.855C133.222 166.283 133.503 166.605 133.843 166.822C134.183 167.033 134.584 167.139 135.047 167.139C135.498 167.139 135.861 167.027 136.137 166.805C136.418 166.582 136.559 166.289 136.559 165.926C136.559 165.645 136.462 165.41 136.269 165.223C136.081 165.035 135.756 164.862 135.293 164.704C135.246 164.687 135.17 164.66 135.064 164.625C133.107 163.951 132.129 163.107 132.129 162.094C132.129 161.379 132.393 160.796 132.92 160.345C133.447 159.894 134.133 159.668 134.977 159.668C135.674 159.668 136.271 159.809 136.77 160.09C137.268 160.365 137.625 160.758 137.842 161.268L136.726 161.953C136.562 161.584 136.318 161.3 135.996 161.101C135.68 160.901 135.311 160.802 134.889 160.802C134.484 160.802 134.153 160.916 133.896 161.145C133.644 161.367 133.518 161.654 133.518 162.006C133.518 162.498 134.051 162.911 135.117 163.245C135.316 163.31 135.475 163.359 135.592 163.395C136.465 163.676 137.071 163.998 137.411 164.361C137.757 164.719 137.93 165.193 137.93 165.785C137.93 166.547 137.657 167.165 137.112 167.64C136.573 168.108 135.867 168.343 134.994 168.343C134.244 168.343 133.605 168.202 133.078 167.921C132.557 167.64 132.138 167.215 131.821 166.646ZM145.383 168V154.377H146.789V168H145.383ZM155.824 164.054C155.824 163.146 155.575 162.416 155.077 161.865C154.585 161.309 153.94 161.03 153.144 161.03C152.317 161.03 151.673 161.285 151.21 161.795C150.747 162.305 150.516 163.017 150.516 163.931C150.516 164.903 150.747 165.653 151.21 166.181C151.679 166.708 152.341 166.972 153.196 166.972C154.017 166.972 154.658 166.717 155.121 166.207C155.59 165.691 155.824 164.974 155.824 164.054ZM157.16 159.958V168H155.824V166.541C155.502 167.127 155.089 167.575 154.585 167.886C154.087 168.19 153.527 168.343 152.906 168.343C151.752 168.343 150.82 167.947 150.111 167.156C149.408 166.359 149.057 165.308 149.057 164.001C149.057 162.677 149.399 161.625 150.085 160.846C150.771 160.061 151.688 159.668 152.836 159.668C153.51 159.668 154.093 159.82 154.585 160.125C155.083 160.424 155.484 160.872 155.789 161.47V159.958H157.16ZM159.067 166.646L160.245 165.855C160.468 166.283 160.749 166.605 161.089 166.822C161.429 167.033 161.83 167.139 162.293 167.139C162.744 167.139 163.107 167.027 163.383 166.805C163.664 166.582 163.805 166.289 163.805 165.926C163.805 165.645 163.708 165.41 163.515 165.223C163.327 165.035 163.002 164.862 162.539 164.704C162.492 164.687 162.416 164.66 162.311 164.625C160.354 163.951 159.375 163.107 159.375 162.094C159.375 161.379 159.639 160.796 160.166 160.345C160.693 159.894 161.379 159.668 162.223 159.668C162.92 159.668 163.518 159.809 164.016 160.09C164.514 160.365 164.871 160.758 165.088 161.268L163.972 161.953C163.808 161.584 163.564 161.3 163.242 161.101C162.926 160.901 162.557 160.802 162.135 160.802C161.73 160.802 161.399 160.916 161.142 161.145C160.89 161.367 160.764 161.654 160.764 162.006C160.764 162.498 161.297 162.911 162.363 163.245C162.562 163.31 162.721 163.359 162.838 163.395C163.711 163.676 164.317 163.998 164.657 164.361C165.003 164.719 165.176 165.193 165.176 165.785C165.176 166.547 164.903 167.165 164.358 167.64C163.819 168.108 163.113 168.343 162.24 168.343C161.49 168.343 160.852 168.202 160.324 167.921C159.803 167.64 159.384 167.215 159.067 166.646ZM172.304 168V159.123H175.169V160.925C175.585 160.204 176.065 159.677 176.61 159.343C177.155 159.009 177.809 158.842 178.57 158.842C179.145 158.842 179.654 158.936 180.1 159.123C180.551 159.305 180.917 159.568 181.198 159.914C181.433 160.213 181.6 160.576 181.699 161.004C181.799 161.432 181.849 162.07 181.849 162.92V168H178.711V163.245C178.711 162.536 178.594 162.021 178.359 161.698C178.131 161.376 177.762 161.215 177.252 161.215C176.602 161.215 176.127 161.455 175.828 161.936C175.529 162.416 175.38 163.195 175.38 164.273V168H172.304ZM190.181 162.419C190.122 161.915 189.929 161.511 189.601 161.206C189.278 160.901 188.88 160.749 188.405 160.749C187.896 160.749 187.488 160.89 187.184 161.171C186.885 161.446 186.686 161.862 186.586 162.419H190.181ZM193.266 164.186H186.516C186.521 164.871 186.697 165.401 187.043 165.776C187.389 166.146 187.878 166.33 188.511 166.33C188.985 166.33 189.384 166.242 189.706 166.066C190.034 165.885 190.283 165.618 190.453 165.267L192.809 166.216C192.527 166.896 192.029 167.42 191.314 167.789C190.6 168.158 189.724 168.343 188.687 168.343C187.14 168.343 185.897 167.915 184.96 167.06C184.028 166.198 183.562 165.064 183.562 163.658C183.562 162.275 184.028 161.127 184.96 160.213C185.897 159.299 187.081 158.842 188.511 158.842C189.981 158.842 191.142 159.305 191.991 160.23C192.841 161.156 193.266 162.425 193.266 164.036V164.186ZM201.439 162.041C201.135 161.771 200.842 161.575 200.561 161.452C200.279 161.329 199.983 161.268 199.673 161.268C199.052 161.268 198.557 161.473 198.188 161.883C197.824 162.293 197.643 162.85 197.643 163.553C197.643 164.232 197.833 164.774 198.214 165.179C198.595 165.583 199.107 165.785 199.752 165.785C200.068 165.785 200.364 165.724 200.64 165.601C200.921 165.472 201.188 165.275 201.439 165.012V167.728C201.064 167.938 200.689 168.094 200.314 168.193C199.939 168.293 199.553 168.343 199.154 168.343C197.789 168.343 196.682 167.906 195.832 167.033C194.988 166.154 194.566 165 194.566 163.57C194.566 162.182 194.997 161.048 195.858 160.169C196.726 159.284 197.836 158.842 199.189 158.842C199.641 158.842 200.048 158.886 200.411 158.974C200.774 159.062 201.117 159.202 201.439 159.396V162.041ZM209.481 162.419C209.423 161.915 209.229 161.511 208.901 161.206C208.579 160.901 208.181 160.749 207.706 160.749C207.196 160.749 206.789 160.89 206.484 161.171C206.186 161.446 205.986 161.862 205.887 162.419H209.481ZM212.566 164.186H205.816C205.822 164.871 205.998 165.401 206.344 165.776C206.689 166.146 207.179 166.33 207.812 166.33C208.286 166.33 208.685 166.242 209.007 166.066C209.335 165.885 209.584 165.618 209.754 165.267L212.109 166.216C211.828 166.896 211.33 167.42 210.615 167.789C209.9 168.158 209.024 168.343 207.987 168.343C206.44 168.343 205.198 167.915 204.261 167.06C203.329 166.198 202.863 165.064 202.863 163.658C202.863 162.275 203.329 161.127 204.261 160.213C205.198 159.299 206.382 158.842 207.812 158.842C209.282 158.842 210.442 159.305 211.292 160.23C212.142 161.156 212.566 162.425 212.566 164.036V164.186ZM213.542 167.262L214.192 164.871C214.649 165.27 215.15 165.577 215.695 165.794C216.246 166.005 216.8 166.11 217.356 166.11C217.749 166.11 218.048 166.049 218.253 165.926C218.458 165.797 218.561 165.612 218.561 165.372C218.561 164.979 218.147 164.687 217.321 164.493C217.052 164.429 216.835 164.373 216.671 164.326C215.733 164.068 215.051 163.731 214.623 163.315C214.201 162.894 213.99 162.349 213.99 161.681C213.99 160.819 214.312 160.131 214.957 159.615C215.607 159.1 216.486 158.842 217.594 158.842C218.162 158.842 218.739 158.909 219.325 159.044C219.917 159.173 220.521 159.375 221.136 159.65L220.485 161.804C220.069 161.522 219.647 161.309 219.22 161.162C218.792 161.016 218.364 160.942 217.937 160.942C217.579 160.942 217.31 160.998 217.128 161.109C216.946 161.221 216.855 161.382 216.855 161.593C216.855 161.909 217.266 162.176 218.086 162.393C218.273 162.445 218.414 162.483 218.508 162.507C219.592 162.817 220.345 163.184 220.767 163.605C221.194 164.021 221.408 164.587 221.408 165.302C221.408 166.21 221.06 166.945 220.362 167.508C219.665 168.064 218.742 168.343 217.594 168.343C216.814 168.343 216.091 168.252 215.423 168.07C214.755 167.895 214.128 167.625 213.542 167.262ZM223.017 156.354C223.017 155.88 223.184 155.476 223.518 155.142C223.857 154.808 224.265 154.641 224.739 154.641C225.231 154.641 225.642 154.805 225.97 155.133C226.304 155.461 226.471 155.868 226.471 156.354C226.471 156.841 226.301 157.254 225.961 157.594C225.627 157.934 225.22 158.104 224.739 158.104C224.271 158.104 223.866 157.931 223.526 157.585C223.187 157.239 223.017 156.829 223.017 156.354ZM223.175 168V159.123H226.312V168H223.175ZM235.497 163.57C235.497 162.879 235.312 162.334 234.943 161.936C234.58 161.537 234.082 161.338 233.449 161.338C232.816 161.338 232.318 161.537 231.955 161.936C231.592 162.334 231.41 162.879 231.41 163.57C231.41 164.268 231.589 164.815 231.946 165.214C232.31 165.606 232.811 165.803 233.449 165.803C234.082 165.803 234.58 165.604 234.943 165.205C235.312 164.807 235.497 164.262 235.497 163.57ZM238.274 154.377V168H235.392V166.559C234.993 167.156 234.545 167.604 234.047 167.903C233.549 168.196 232.995 168.343 232.386 168.343C231.138 168.343 230.145 167.912 229.406 167.051C228.668 166.189 228.299 165.029 228.299 163.57C228.299 162.158 228.665 161.019 229.397 160.151C230.136 159.278 231.097 158.842 232.28 158.842C233.03 158.842 233.64 158.977 234.108 159.246C234.583 159.516 235.005 159.967 235.374 160.6C235.339 160.389 235.312 160.151 235.295 159.888C235.277 159.618 235.269 159.328 235.269 159.018V154.377H238.274ZM247.362 163.553C247.362 162.861 247.178 162.313 246.809 161.909C246.439 161.505 245.936 161.303 245.297 161.303C244.658 161.303 244.154 161.505 243.785 161.909C243.422 162.308 243.24 162.855 243.24 163.553C243.24 164.244 243.425 164.789 243.794 165.188C244.163 165.586 244.664 165.785 245.297 165.785C245.936 165.785 246.439 165.586 246.809 165.188C247.178 164.789 247.362 164.244 247.362 163.553ZM250.113 159.123V168H247.239V166.559C246.829 167.174 246.366 167.625 245.851 167.912C245.341 168.199 244.74 168.343 244.049 168.343C242.865 168.343 241.919 167.912 241.21 167.051C240.501 166.184 240.146 165.023 240.146 163.57C240.146 162.123 240.516 160.975 241.254 160.125C241.998 159.27 242.997 158.842 244.251 158.842C244.919 158.842 245.493 158.985 245.974 159.272C246.46 159.554 246.876 159.99 247.222 160.582V159.123H250.113ZM259.263 163.57C259.263 162.879 259.078 162.334 258.709 161.936C258.346 161.537 257.848 161.338 257.215 161.338C256.582 161.338 256.084 161.537 255.721 161.936C255.357 162.334 255.176 162.879 255.176 163.57C255.176 164.268 255.354 164.815 255.712 165.214C256.075 165.606 256.576 165.803 257.215 165.803C257.848 165.803 258.346 165.604 258.709 165.205C259.078 164.807 259.263 164.262 259.263 163.57ZM262.04 154.377V168H259.157V166.559C258.759 167.156 258.311 167.604 257.812 167.903C257.314 168.196 256.761 168.343 256.151 168.343C254.903 168.343 253.91 167.912 253.172 167.051C252.434 166.189 252.064 165.029 252.064 163.57C252.064 162.158 252.431 161.019 253.163 160.151C253.901 159.278 254.862 158.842 256.046 158.842C256.796 158.842 257.405 158.977 257.874 159.246C258.349 159.516 258.771 159.967 259.14 160.6C259.104 160.389 259.078 160.151 259.061 159.888C259.043 159.618 259.034 159.328 259.034 159.018V154.377H262.04ZM270.478 162.419C270.419 161.915 270.226 161.511 269.897 161.206C269.575 160.901 269.177 160.749 268.702 160.749C268.192 160.749 267.785 160.89 267.48 161.171C267.182 161.446 266.982 161.862 266.883 162.419H270.478ZM273.562 164.186H266.812C266.818 164.871 266.994 165.401 267.34 165.776C267.686 166.146 268.175 166.33 268.808 166.33C269.282 166.33 269.681 166.242 270.003 166.066C270.331 165.885 270.58 165.618 270.75 165.267L273.105 166.216C272.824 166.896 272.326 167.42 271.611 167.789C270.896 168.158 270.021 168.343 268.983 168.343C267.437 168.343 266.194 167.915 265.257 167.06C264.325 166.198 263.859 165.064 263.859 163.658C263.859 162.275 264.325 161.127 265.257 160.213C266.194 159.299 267.378 158.842 268.808 158.842C270.278 158.842 271.438 159.305 272.288 160.23C273.138 161.156 273.562 162.425 273.562 164.036V164.186ZM274.538 167.262L275.188 164.871C275.646 165.27 276.146 165.577 276.691 165.794C277.242 166.005 277.796 166.11 278.353 166.11C278.745 166.11 279.044 166.049 279.249 165.926C279.454 165.797 279.557 165.612 279.557 165.372C279.557 164.979 279.144 164.687 278.317 164.493C278.048 164.429 277.831 164.373 277.667 164.326C276.729 164.068 276.047 163.731 275.619 163.315C275.197 162.894 274.986 162.349 274.986 161.681C274.986 160.819 275.309 160.131 275.953 159.615C276.604 159.1 277.482 158.842 278.59 158.842C279.158 158.842 279.735 158.909 280.321 159.044C280.913 159.173 281.517 159.375 282.132 159.65L281.481 161.804C281.065 161.522 280.644 161.309 280.216 161.162C279.788 161.016 279.36 160.942 278.933 160.942C278.575 160.942 278.306 160.998 278.124 161.109C277.942 161.221 277.852 161.382 277.852 161.593C277.852 161.909 278.262 162.176 279.082 162.393C279.27 162.445 279.41 162.483 279.504 162.507C280.588 162.817 281.341 163.184 281.763 163.605C282.19 164.021 282.404 164.587 282.404 165.302C282.404 166.21 282.056 166.945 281.358 167.508C280.661 168.064 279.738 168.343 278.59 168.343C277.811 168.343 277.087 168.252 276.419 168.07C275.751 167.895 275.124 167.625 274.538 167.262ZM55.9365 185.57C55.9365 184.879 55.752 184.334 55.3828 183.936C55.0195 183.537 54.5215 183.338 53.8887 183.338C53.2559 183.338 52.7578 183.537 52.3945 183.936C52.0312 184.334 51.8496 184.879 51.8496 185.57C51.8496 186.268 52.0283 186.815 52.3857 187.214C52.749 187.606 53.25 187.803 53.8887 187.803C54.5215 187.803 55.0195 187.604 55.3828 187.205C55.752 186.807 55.9365 186.262 55.9365 185.57ZM58.7139 176.377V190H55.8311V188.559C55.4326 189.156 54.9844 189.604 54.4863 189.903C53.9883 190.196 53.4346 190.343 52.8252 190.343C51.5771 190.343 50.584 189.912 49.8457 189.051C49.1074 188.189 48.7383 187.029 48.7383 185.57C48.7383 184.158 49.1045 183.019 49.8369 182.151C50.5752 181.278 51.5361 180.842 52.7197 180.842C53.4697 180.842 54.0791 180.977 54.5479 181.246C55.0225 181.516 55.4443 181.967 55.8135 182.6C55.7783 182.389 55.752 182.151 55.7344 181.888C55.7168 181.618 55.708 181.328 55.708 181.018V176.377H58.7139ZM67.1514 184.419C67.0928 183.915 66.8994 183.511 66.5713 183.206C66.249 182.901 65.8506 182.749 65.376 182.749C64.8662 182.749 64.459 182.89 64.1543 183.171C63.8555 183.446 63.6562 183.862 63.5566 184.419H67.1514ZM70.2363 186.186H63.4863C63.4922 186.871 63.668 187.401 64.0137 187.776C64.3594 188.146 64.8486 188.33 65.4814 188.33C65.9561 188.33 66.3545 188.242 66.6768 188.066C67.0049 187.885 67.2539 187.618 67.4238 187.267L69.7793 188.216C69.498 188.896 69 189.42 68.2852 189.789C67.5703 190.158 66.6943 190.343 65.6572 190.343C64.1104 190.343 62.8682 189.915 61.9307 189.06C60.999 188.198 60.5332 187.064 60.5332 185.658C60.5332 184.275 60.999 183.127 61.9307 182.213C62.8682 181.299 64.0518 180.842 65.4814 180.842C66.9521 180.842 68.1123 181.305 68.9619 182.23C69.8115 183.156 70.2363 184.425 70.2363 186.036V186.186ZM78.1641 190V183.338H76.8369V181.123H78.1641V178.478H81.249V181.123H82.5762V183.338H81.249V190H78.1641ZM93.1494 181.123V185.658C93.1494 186.66 93.0674 187.404 92.9033 187.891C92.7451 188.371 92.4756 188.799 92.0947 189.174C91.7021 189.566 91.2129 189.859 90.627 190.053C90.041 190.246 89.3525 190.343 88.5615 190.343C87.7764 190.343 87.0908 190.246 86.5049 190.053C85.9248 189.859 85.4297 189.566 85.0195 189.174C84.6387 188.811 84.3691 188.386 84.2109 187.899C84.0527 187.407 83.9736 186.66 83.9736 185.658V181.123H86.9619V185.86C86.9619 186.604 87.085 187.144 87.3311 187.478C87.5771 187.806 87.9756 187.97 88.5264 187.97C89.083 187.97 89.4814 187.809 89.7217 187.486C89.9678 187.158 90.0908 186.616 90.0908 185.86V181.123H93.1494ZM107.414 184.041C107.109 183.771 106.816 183.575 106.535 183.452C106.254 183.329 105.958 183.268 105.647 183.268C105.026 183.268 104.531 183.473 104.162 183.883C103.799 184.293 103.617 184.85 103.617 185.553C103.617 186.232 103.808 186.774 104.188 187.179C104.569 187.583 105.082 187.785 105.727 187.785C106.043 187.785 106.339 187.724 106.614 187.601C106.896 187.472 107.162 187.275 107.414 187.012V189.728C107.039 189.938 106.664 190.094 106.289 190.193C105.914 190.293 105.527 190.343 105.129 190.343C103.764 190.343 102.656 189.906 101.807 189.033C100.963 188.154 100.541 187 100.541 185.57C100.541 184.182 100.972 183.048 101.833 182.169C102.7 181.284 103.811 180.842 105.164 180.842C105.615 180.842 106.022 180.886 106.386 180.974C106.749 181.062 107.092 181.202 107.414 181.396V184.041ZM116.106 185.553C116.106 184.861 115.922 184.313 115.553 183.909C115.184 183.505 114.68 183.303 114.041 183.303C113.402 183.303 112.898 183.505 112.529 183.909C112.166 184.308 111.984 184.855 111.984 185.553C111.984 186.244 112.169 186.789 112.538 187.188C112.907 187.586 113.408 187.785 114.041 187.785C114.68 187.785 115.184 187.586 115.553 187.188C115.922 186.789 116.106 186.244 116.106 185.553ZM118.857 181.123V190H115.983V188.559C115.573 189.174 115.11 189.625 114.595 189.912C114.085 190.199 113.484 190.343 112.793 190.343C111.609 190.343 110.663 189.912 109.954 189.051C109.245 188.184 108.891 187.023 108.891 185.57C108.891 184.123 109.26 182.975 109.998 182.125C110.742 181.27 111.741 180.842 112.995 180.842C113.663 180.842 114.237 180.985 114.718 181.272C115.204 181.554 115.62 181.99 115.966 182.582V181.123H118.857ZM124.017 185.588C124.017 186.279 124.195 186.824 124.553 187.223C124.916 187.621 125.414 187.82 126.047 187.82C126.68 187.82 127.178 187.621 127.541 187.223C127.91 186.824 128.095 186.279 128.095 185.588C128.095 184.896 127.913 184.352 127.55 183.953C127.187 183.555 126.686 183.355 126.047 183.355C125.414 183.355 124.916 183.555 124.553 183.953C124.195 184.352 124.017 184.896 124.017 185.588ZM121.239 193.92V181.123H124.122V182.617C124.521 182.02 124.969 181.574 125.467 181.281C125.965 180.988 126.519 180.842 127.128 180.842C128.376 180.842 129.369 181.27 130.107 182.125C130.846 182.975 131.215 184.129 131.215 185.588C131.215 187.006 130.846 188.154 130.107 189.033C129.375 189.906 128.417 190.343 127.233 190.343C126.483 190.343 125.871 190.205 125.396 189.93C124.928 189.654 124.509 189.2 124.14 188.567C124.169 188.743 124.189 188.957 124.201 189.209C124.219 189.461 124.228 189.771 124.228 190.141V193.92H121.239ZM133.034 178.354C133.034 177.88 133.201 177.476 133.535 177.142C133.875 176.808 134.282 176.641 134.757 176.641C135.249 176.641 135.659 176.805 135.987 177.133C136.321 177.461 136.488 177.868 136.488 178.354C136.488 178.841 136.318 179.254 135.979 179.594C135.645 179.934 135.237 180.104 134.757 180.104C134.288 180.104 133.884 179.931 133.544 179.585C133.204 179.239 133.034 178.829 133.034 178.354ZM133.192 190V181.123H136.33V190H133.192ZM139.213 190V183.338H137.886V181.123H139.213V178.478H142.298V181.123H143.625V183.338H142.298V190H139.213ZM151.86 185.553C151.86 184.861 151.676 184.313 151.307 183.909C150.938 183.505 150.434 183.303 149.795 183.303C149.156 183.303 148.652 183.505 148.283 183.909C147.92 184.308 147.738 184.855 147.738 185.553C147.738 186.244 147.923 186.789 148.292 187.188C148.661 187.586 149.162 187.785 149.795 187.785C150.434 187.785 150.938 187.586 151.307 187.188C151.676 186.789 151.86 186.244 151.86 185.553ZM154.611 181.123V190H151.737V188.559C151.327 189.174 150.864 189.625 150.349 189.912C149.839 190.199 149.238 190.343 148.547 190.343C147.363 190.343 146.417 189.912 145.708 189.051C144.999 188.184 144.645 187.023 144.645 185.57C144.645 184.123 145.014 182.975 145.752 182.125C146.496 181.27 147.495 180.842 148.749 180.842C149.417 180.842 149.991 180.985 150.472 181.272C150.958 181.554 151.374 181.99 151.72 182.582V181.123H154.611ZM157.063 190V176.377H160.201V190H157.063ZM174.316 186.019C174.316 185.122 174.067 184.401 173.569 183.856C173.071 183.306 172.415 183.03 171.601 183.03C170.786 183.03 170.15 183.279 169.693 183.777C169.236 184.275 169.008 184.964 169.008 185.843C169.008 186.833 169.239 187.609 169.702 188.172C170.165 188.729 170.804 189.007 171.618 189.007C172.462 189.007 173.121 188.743 173.596 188.216C174.076 187.688 174.316 186.956 174.316 186.019ZM175.652 176.377V190H174.316V188.541C174 189.121 173.59 189.566 173.086 189.877C172.582 190.188 172.02 190.343 171.398 190.343C170.244 190.343 169.312 189.947 168.604 189.156C167.9 188.359 167.549 187.308 167.549 186.001C167.549 184.683 167.895 183.631 168.586 182.846C169.277 182.061 170.197 181.668 171.346 181.668C172.014 181.668 172.594 181.82 173.086 182.125C173.578 182.424 173.977 182.872 174.281 183.47V176.377H175.652ZM184.169 185.069C184.122 184.36 183.885 183.815 183.457 183.435C183.035 183.048 182.455 182.854 181.717 182.854C181.049 182.854 180.492 183.057 180.047 183.461C179.602 183.859 179.344 184.396 179.273 185.069H184.169ZM185.646 186.186H179.273V186.309C179.273 187.17 179.52 187.867 180.012 188.4C180.504 188.928 181.146 189.191 181.937 189.191C182.476 189.191 182.962 189.048 183.396 188.761C183.829 188.468 184.213 188.028 184.547 187.442L185.593 188.146C185.188 188.872 184.673 189.42 184.046 189.789C183.419 190.158 182.692 190.343 181.866 190.343C180.642 190.343 179.651 189.938 178.896 189.13C178.14 188.321 177.762 187.261 177.762 185.948C177.762 184.688 178.137 183.657 178.887 182.854C179.637 182.052 180.601 181.65 181.778 181.65C182.968 181.65 183.908 182.031 184.6 182.793C185.297 183.555 185.646 184.595 185.646 185.913V186.186ZM193.248 183.092H191.771V181.958H193.248V178.715H194.654V181.958H196.131V183.092H194.654V190H193.248V183.092ZM197.713 190V181.958H198.935V183.628C199.304 182.931 199.696 182.433 200.112 182.134C200.528 181.835 201.035 181.686 201.633 181.686C201.797 181.686 201.955 181.7 202.107 181.729C202.26 181.753 202.412 181.791 202.564 181.844L202.107 183.083C201.949 183.03 201.8 182.992 201.659 182.969C201.519 182.939 201.384 182.925 201.255 182.925C200.528 182.925 199.983 183.188 199.62 183.716C199.257 184.237 199.075 185.025 199.075 186.08V190H197.713ZM210.176 186.054C210.176 185.146 209.927 184.416 209.429 183.865C208.937 183.309 208.292 183.03 207.495 183.03C206.669 183.03 206.024 183.285 205.562 183.795C205.099 184.305 204.867 185.017 204.867 185.931C204.867 186.903 205.099 187.653 205.562 188.181C206.03 188.708 206.692 188.972 207.548 188.972C208.368 188.972 209.01 188.717 209.473 188.207C209.941 187.691 210.176 186.974 210.176 186.054ZM211.512 181.958V190H210.176V188.541C209.854 189.127 209.44 189.575 208.937 189.886C208.438 190.19 207.879 190.343 207.258 190.343C206.104 190.343 205.172 189.947 204.463 189.156C203.76 188.359 203.408 187.308 203.408 186.001C203.408 184.677 203.751 183.625 204.437 182.846C205.122 182.061 206.039 181.668 207.188 181.668C207.861 181.668 208.444 181.82 208.937 182.125C209.435 182.424 209.836 182.872 210.141 183.47V181.958H211.512ZM215.581 186.019C215.581 186.956 215.821 187.688 216.302 188.216C216.782 188.743 217.441 189.007 218.279 189.007C219.1 189.007 219.741 188.729 220.204 188.172C220.673 187.609 220.907 186.833 220.907 185.843C220.907 184.964 220.679 184.275 220.222 183.777C219.765 183.279 219.132 183.03 218.323 183.03C217.503 183.03 216.841 183.306 216.337 183.856C215.833 184.401 215.581 185.122 215.581 186.019ZM214.271 176.377H215.634V183.47C215.944 182.872 216.346 182.424 216.838 182.125C217.33 181.82 217.907 181.668 218.569 181.668C219.724 181.668 220.644 182.061 221.329 182.846C222.021 183.631 222.366 184.683 222.366 186.001C222.366 187.308 222.015 188.359 221.312 189.156C220.608 189.947 219.677 190.343 218.517 190.343C217.896 190.343 217.33 190.188 216.82 189.877C216.311 189.561 215.897 189.115 215.581 188.541V190H214.271V176.377ZM230.725 186.054C230.725 185.146 230.476 184.416 229.978 183.865C229.485 183.309 228.841 183.03 228.044 183.03C227.218 183.03 226.573 183.285 226.11 183.795C225.647 184.305 225.416 185.017 225.416 185.931C225.416 186.903 225.647 187.653 226.11 188.181C226.579 188.708 227.241 188.972 228.097 188.972C228.917 188.972 229.559 188.717 230.021 188.207C230.49 187.691 230.725 186.974 230.725 186.054ZM232.061 181.958V190H230.725V188.541C230.402 189.127 229.989 189.575 229.485 189.886C228.987 190.19 228.428 190.343 227.807 190.343C226.652 190.343 225.721 189.947 225.012 189.156C224.309 188.359 223.957 187.308 223.957 186.001C223.957 184.677 224.3 183.625 224.985 182.846C225.671 182.061 226.588 181.668 227.736 181.668C228.41 181.668 228.993 181.82 229.485 182.125C229.983 182.424 230.385 182.872 230.689 183.47V181.958H232.061ZM234.565 178.082C234.565 177.807 234.662 177.572 234.855 177.379C235.055 177.18 235.295 177.08 235.576 177.08C235.852 177.08 236.086 177.18 236.279 177.379C236.479 177.578 236.578 177.818 236.578 178.1C236.578 178.375 236.481 178.609 236.288 178.803C236.095 178.996 235.857 179.093 235.576 179.093C235.295 179.093 235.055 178.996 234.855 178.803C234.662 178.609 234.565 178.369 234.565 178.082ZM234.891 193.92V181.958H236.279V193.92H234.891ZM239.988 186.001C239.988 186.851 240.272 187.571 240.841 188.163C241.409 188.749 242.098 189.042 242.906 189.042C243.709 189.042 244.392 188.749 244.954 188.163C245.517 187.571 245.798 186.851 245.798 186.001C245.798 185.151 245.517 184.434 244.954 183.848C244.392 183.256 243.709 182.96 242.906 182.96C242.092 182.96 241.4 183.256 240.832 183.848C240.27 184.434 239.988 185.151 239.988 186.001ZM238.529 186.001C238.529 185.409 238.638 184.853 238.854 184.331C239.071 183.804 239.388 183.335 239.804 182.925C240.22 182.515 240.691 182.204 241.219 181.993C241.746 181.776 242.309 181.668 242.906 181.668C243.492 181.668 244.046 181.776 244.567 181.993C245.095 182.21 245.572 182.526 246 182.942C246.416 183.347 246.732 183.812 246.949 184.34C247.166 184.861 247.274 185.415 247.274 186.001C247.274 186.587 247.166 187.141 246.949 187.662C246.732 188.178 246.416 188.638 246 189.042C245.572 189.464 245.092 189.786 244.559 190.009C244.031 190.231 243.48 190.343 242.906 190.343C242.314 190.343 241.752 190.231 241.219 190.009C240.691 189.792 240.22 189.479 239.804 189.068C239.388 188.646 239.071 188.178 238.854 187.662C238.638 187.146 238.529 186.593 238.529 186.001Z" fill="white"/>
</svg>
