<svg width="475" height="210" viewBox="0 0 475 210" fill="none" xmlns="http://www.w3.org/2000/svg">
<path d="M30.5625 31V8.125H44.0312V12.25H35.4531V16.9531H44.0312V21.1094H35.4531V26.8438H44.0312V31H30.5625ZM48.8438 31V8.125H53.7344V26.8438H61.5469V31H48.8438ZM91.0156 31H85.375L79.3594 20.3125V31H74.4688V8.125H81.4688C84.25 8.125 86.3333 8.66667 87.7188 9.75C89.1042 10.8229 89.7969 12.4427 89.7969 14.6094C89.7969 16.1823 89.3229 17.526 88.375 18.6406C87.4271 19.7552 86.2031 20.4062 84.7031 20.5938L91.0156 31ZM79.3594 17.875H80.0938C82.0729 17.875 83.3802 17.6615 84.0156 17.2344C84.651 16.7969 84.9688 16.0417 84.9688 14.9688C84.9688 13.8438 84.625 13.0469 83.9375 12.5781C83.2604 12.099 81.9792 11.8594 80.0938 11.8594H79.3594V17.875ZM93.875 31V8.125H107.344V12.25H98.7656V16.9531H107.344V21.1094H98.7656V26.8438H107.344V31H93.875ZM110.688 28.0938L113.406 25.0156C113.75 25.8594 114.302 26.526 115.062 27.0156C115.823 27.4948 116.677 27.7344 117.625 27.7344C118.771 27.7344 119.677 27.4635 120.344 26.9219C121.01 26.3802 121.344 25.651 121.344 24.7344C121.344 23.651 120.234 22.5729 118.016 21.5C117.297 21.1562 116.729 20.875 116.312 20.6562C114.312 19.6146 112.927 18.599 112.156 17.6094C111.385 16.6094 111 15.4219 111 14.0469C111 12.1615 111.745 10.6146 113.234 9.40625C114.734 8.1875 116.677 7.57812 119.062 7.57812C120.448 7.57812 121.641 7.82292 122.641 8.3125C123.651 8.79167 124.542 9.54688 125.312 10.5781L122.422 13.3438C122.078 12.6771 121.62 12.1823 121.047 11.8594C120.484 11.526 119.802 11.3594 119 11.3594C118.031 11.3594 117.25 11.6042 116.656 12.0938C116.062 12.5729 115.766 13.1979 115.766 13.9688C115.766 15.1771 116.943 16.2812 119.297 17.2812C119.766 17.4792 120.125 17.6354 120.375 17.75C122.312 18.6354 123.745 19.6354 124.672 20.75C125.609 21.8646 126.078 23.1354 126.078 24.5625C126.078 26.7083 125.344 28.4219 123.875 29.7031C122.417 30.974 120.453 31.6094 117.984 31.6094C116.234 31.6094 114.734 31.3073 113.484 30.7031C112.234 30.099 111.302 29.2292 110.688 28.0938ZM135.016 18.4531H135.719C137.052 18.4531 138.021 18.1771 138.625 17.625C139.229 17.0729 139.531 16.1875 139.531 14.9688C139.531 13.8438 139.229 13.026 138.625 12.5156C138.021 11.9948 137.052 11.7344 135.719 11.7344H135.016V18.4531ZM130.094 31V8.125H135.719C138.719 8.125 140.932 8.69792 142.359 9.84375C143.797 10.9896 144.516 12.7604 144.516 15.1562C144.516 17.375 143.792 19.1146 142.344 20.375C140.906 21.6354 138.911 22.2656 136.359 22.2656H135.016V31H130.094ZM158.156 22.2969L155.594 14.9062C155.521 14.6875 155.427 14.3125 155.312 13.7812C155.198 13.25 155.078 12.599 154.953 11.8281C154.818 12.5677 154.688 13.2344 154.562 13.8281C154.438 14.4115 154.344 14.8021 154.281 15L151.812 22.2969H158.156ZM143.594 31L152.297 8.125H157.891L166.719 31H161.156L159.297 26.1406H150.438L148.844 31H143.594ZM169.125 31V8.125H174.016V26.8438H181.828V31H169.125ZM189.797 26.875H192.516C195.078 26.875 196.943 26.2917 198.109 25.125C199.286 23.9583 199.875 22.1094 199.875 19.5781C199.875 17.0573 199.286 15.2135 198.109 14.0469C196.943 12.8698 195.078 12.2812 192.516 12.2812H189.797V26.875ZM184.906 31V8.125H191.141C193.599 8.125 195.536 8.29688 196.953 8.64062C198.37 8.98438 199.615 9.55729 200.688 10.3594C202.073 11.3906 203.12 12.6927 203.828 14.2656C204.547 15.8281 204.906 17.6094 204.906 19.6094C204.906 21.6406 204.542 23.4427 203.812 25.0156C203.083 26.5781 202.016 27.8698 200.609 28.8906C199.568 29.6406 198.406 30.1823 197.125 30.5156C195.854 30.8385 193.99 31 191.531 31H189.797H184.906ZM232.422 19.6094C232.422 21.2448 232.115 22.7917 231.5 24.25C230.896 25.7083 230.021 26.9896 228.875 28.0938C227.688 29.2292 226.349 30.099 224.859 30.7031C223.37 31.3073 221.828 31.6094 220.234 31.6094C218.839 31.6094 217.469 31.375 216.125 30.9062C214.792 30.4271 213.568 29.7448 212.453 28.8594C211.016 27.7135 209.911 26.3438 209.141 24.75C208.38 23.1562 208 21.4427 208 19.6094C208 17.9635 208.302 16.4219 208.906 14.9844C209.51 13.5365 210.396 12.25 211.562 11.125C212.708 10.0104 214.036 9.14583 215.547 8.53125C217.068 7.91667 218.63 7.60938 220.234 7.60938C221.828 7.60938 223.375 7.91667 224.875 8.53125C226.385 9.14583 227.719 10.0104 228.875 11.125C230.031 12.25 230.911 13.5365 231.516 14.9844C232.12 16.4323 232.422 17.974 232.422 19.6094ZM220.234 27.25C222.307 27.25 224.016 26.526 225.359 25.0781C226.714 23.6198 227.391 21.7969 227.391 19.6094C227.391 17.4427 226.708 15.6198 225.344 14.1406C223.979 12.6615 222.276 11.9219 220.234 11.9219C218.161 11.9219 216.443 12.6615 215.078 14.1406C213.714 15.6094 213.031 17.4323 213.031 19.6094C213.031 21.8177 213.703 23.6458 215.047 25.0938C216.391 26.5312 218.12 27.25 220.234 27.25ZM260.906 23.25L262.594 25.2344C263.302 24.5052 263.844 23.651 264.219 22.6719C264.604 21.6823 264.797 20.6615 264.797 19.6094C264.797 17.4427 264.115 15.6198 262.75 14.1406C261.385 12.6615 259.682 11.9219 257.641 11.9219C255.568 11.9219 253.849 12.6615 252.484 14.1406C251.12 15.6094 250.438 17.4323 250.438 19.6094C250.438 21.8073 251.104 23.6302 252.438 25.0781C253.781 26.526 255.484 27.25 257.547 27.25C257.724 27.25 257.969 27.2344 258.281 27.2031C258.604 27.1615 258.984 27.1042 259.422 27.0312L256.125 23.25H260.906ZM269.703 33.6562H264.828L262.344 30.7188C261.219 31.0104 260.281 31.2188 259.531 31.3438C258.792 31.4792 258.13 31.5469 257.547 31.5469C255.974 31.5469 254.432 31.2396 252.922 30.625C251.411 30.0104 250.094 29.1562 248.969 28.0625C247.812 26.9375 246.922 25.6458 246.297 24.1875C245.682 22.7188 245.375 21.1823 245.375 19.5781C245.375 17.974 245.682 16.4479 246.297 15C246.911 13.5417 247.802 12.2396 248.969 11.0938C250.104 9.96875 251.417 9.10938 252.906 8.51562C254.406 7.91146 255.984 7.60938 257.641 7.60938C259.266 7.60938 260.823 7.91146 262.312 8.51562C263.802 9.10938 265.125 9.96875 266.281 11.0938C267.438 12.2292 268.323 13.5208 268.938 14.9688C269.552 16.4167 269.859 17.9531 269.859 19.5781C269.859 21.3698 269.49 23.0417 268.75 24.5938C268.01 26.1458 266.927 27.526 265.5 28.7344L269.703 33.6562ZM293.641 8.125V22.3594C293.641 25.4635 292.823 27.7812 291.188 29.3125C289.552 30.8438 287.089 31.6094 283.797 31.6094C280.453 31.6094 277.964 30.8438 276.328 29.3125C274.693 27.7812 273.875 25.4635 273.875 22.3594V8.125H278.734V21.5938C278.734 23.4792 279.151 24.901 279.984 25.8594C280.818 26.8073 282.062 27.2812 283.719 27.2812C285.385 27.2812 286.646 26.8021 287.5 25.8438C288.354 24.8854 288.781 23.4688 288.781 21.5938V8.125H293.641ZM298.719 31V8.125H312.188V12.25H303.609V16.9531H312.188V21.1094H303.609V26.8438H312.188V31H298.719ZM30.5625 69V46.125H35.4531V64.8438H43.2656V69H30.5625ZM46.3438 69V46.125H59.8125V50.25H51.2344V54.9531H59.8125V59.1094H51.2344V64.8438H59.8125V69H46.3438ZM74.4688 69V46.125H79.3594V55.2969H89.2812V46.125H94.1719V69H89.2812V59.4375H79.3594V69H74.4688ZM111.125 60.2969L108.562 52.9062C108.49 52.6875 108.396 52.3125 108.281 51.7812C108.167 51.25 108.047 50.599 107.922 49.8281C107.786 50.5677 107.656 51.2344 107.531 51.8281C107.406 52.4115 107.312 52.8021 107.25 53L104.781 60.2969H111.125ZM96.5625 69L105.266 46.125H110.859L119.688 69H114.125L112.266 64.1406H103.406L101.812 69H96.5625ZM139.953 52.0781C138.964 51.1927 137.948 50.5469 136.906 50.1406C135.865 49.724 134.75 49.5156 133.562 49.5156C131.125 49.5156 129.182 50.2448 127.734 51.7031C126.286 53.1615 125.562 55.1198 125.562 57.5781C125.562 59.9844 126.234 61.8958 127.578 63.3125C128.922 64.7188 130.755 65.4219 133.078 65.4219C134.401 65.4219 135.63 65.2031 136.766 64.7656C137.901 64.3177 138.953 63.651 139.922 62.7656L139.891 67.7812C138.849 68.3958 137.755 68.8542 136.609 69.1562C135.474 69.4583 134.276 69.6094 133.016 69.6094C129.37 69.6094 126.375 68.4792 124.031 66.2188C121.698 63.9479 120.531 61.0677 120.531 57.5781C120.531 54.099 121.703 51.2292 124.047 48.9688C126.391 46.7083 129.411 45.5781 133.109 45.5781C134.349 45.5781 135.547 45.7083 136.703 45.9688C137.859 46.2292 139 46.6302 140.125 47.1719L139.953 52.0781ZM144.594 69V46.125H149.484V69H144.594ZM151.641 38.1875L146.75 43.9531H144.531L147.609 38.1875H151.641ZM166.562 60.2969L164 52.9062C163.927 52.6875 163.833 52.3125 163.719 51.7812C163.604 51.25 163.484 50.599 163.359 49.8281C163.224 50.5677 163.094 51.2344 162.969 51.8281C162.844 52.4115 162.75 52.8021 162.688 53L160.219 60.2969H166.562ZM152 69L160.703 46.125H166.297L175.125 69H169.562L167.703 64.1406H158.844L157.25 69H152ZM187.375 69V46.125H200.844V50.25H192.266V54.9531H200.844V59.1094H192.266V69H187.375ZM215.906 60.2969L213.344 52.9062C213.271 52.6875 213.177 52.3125 213.062 51.7812C212.948 51.25 212.828 50.599 212.703 49.8281C212.568 50.5677 212.438 51.2344 212.312 51.8281C212.188 52.4115 212.094 52.8021 212.031 53L209.562 60.2969H215.906ZM201.344 69L210.047 46.125H215.641L224.469 69H218.906L217.047 64.1406H208.188L206.594 69H201.344ZM226.875 69V46.125H231.766V64.8438H239.578V69H226.875ZM249.453 50.2812V69H244.547V50.2812H238.953V46.125H255.078V50.2812H249.453ZM268.344 60.2969L265.781 52.9062C265.708 52.6875 265.615 52.3125 265.5 51.7812C265.385 51.25 265.266 50.599 265.141 49.8281C265.005 50.5677 264.875 51.2344 264.75 51.8281C264.625 52.4115 264.531 52.8021 264.469 53L262 60.2969H268.344ZM253.781 69L262.484 46.125H268.078L276.906 69H271.344L269.484 64.1406H260.625L259.031 69H253.781ZM42.4062 98.2969L39.8438 90.9062C39.7708 90.6875 39.6771 90.3125 39.5625 89.7812C39.4479 89.25 39.3281 88.599 39.2031 87.8281C39.0677 88.5677 38.9375 89.2344 38.8125 89.8281C38.6875 90.4115 38.5938 90.8021 38.5312 91L36.0625 98.2969H42.4062ZM27.8438 107L36.5469 84.125H42.1406L50.9688 107H45.4062L43.5469 102.141H34.6875L33.0938 107H27.8438ZM71.7656 88.2812V107H66.8594V88.2812H61.2656V84.125H77.3906V88.2812H71.7656ZM100.234 84.125V98.3594C100.234 101.464 99.4167 103.781 97.7812 105.312C96.1458 106.844 93.6823 107.609 90.3906 107.609C87.0469 107.609 84.5573 106.844 82.9219 105.312C81.2865 103.781 80.4688 101.464 80.4688 98.3594V84.125H85.3281V97.5938C85.3281 99.4792 85.7448 100.901 86.5781 101.859C87.4115 102.807 88.6562 103.281 90.3125 103.281C91.9792 103.281 93.2396 102.802 94.0938 101.844C94.9479 100.885 95.375 99.4688 95.375 97.5938V84.125H100.234ZM115.156 107V84.125H120.234L130.359 97.4375C130.651 97.8125 130.969 98.3438 131.312 99.0312C131.667 99.7083 132.031 100.51 132.406 101.438C132.292 100.76 132.208 100.089 132.156 99.4219C132.104 98.7552 132.078 97.9219 132.078 96.9219V84.125H136.75V107H131.953L121.547 93.4375C121.255 93.0625 120.938 92.5365 120.594 91.8594C120.25 91.1719 119.885 90.3542 119.5 89.4062C119.615 90.0625 119.698 90.7292 119.75 91.4062C119.802 92.0729 119.828 92.9167 119.828 93.9375V107H115.156ZM141.844 107V84.125H155.312V88.25H146.734V92.9531H155.312V97.1094H146.734V102.844H155.312V107H141.844ZM171.484 94.9375H181.906C181.927 95.0729 181.938 95.2188 181.938 95.375C181.948 95.5312 181.953 95.7708 181.953 96.0938C181.953 99.5208 180.974 102.297 179.016 104.422C177.057 106.547 174.526 107.609 171.422 107.609C167.87 107.609 164.943 106.479 162.641 104.219C160.339 101.948 159.188 99.0677 159.188 95.5781C159.188 92.1198 160.344 89.2604 162.656 87C164.969 84.7396 167.891 83.6094 171.422 83.6094C173.286 83.6094 174.995 84 176.547 84.7812C178.099 85.5625 179.484 86.7292 180.703 88.2812L177.406 90.7188C176.583 89.6979 175.719 88.9635 174.812 88.5156C173.906 88.0573 172.859 87.8281 171.672 87.8281C169.411 87.8281 167.604 88.5312 166.25 89.9375C164.896 91.3438 164.219 93.224 164.219 95.5781C164.219 97.8906 164.896 99.7604 166.25 101.188C167.615 102.604 169.391 103.312 171.578 103.312C173.182 103.312 174.484 102.938 175.484 102.188C176.484 101.427 176.984 100.438 176.984 99.2188V98.9688H171.484V94.9375ZM209.266 95.6094C209.266 97.2448 208.958 98.7917 208.344 100.25C207.74 101.708 206.865 102.99 205.719 104.094C204.531 105.229 203.193 106.099 201.703 106.703C200.214 107.307 198.672 107.609 197.078 107.609C195.682 107.609 194.312 107.375 192.969 106.906C191.635 106.427 190.411 105.745 189.297 104.859C187.859 103.714 186.755 102.344 185.984 100.75C185.224 99.1562 184.844 97.4427 184.844 95.6094C184.844 93.9635 185.146 92.4219 185.75 90.9844C186.354 89.5365 187.24 88.25 188.406 87.125C189.552 86.0104 190.88 85.1458 192.391 84.5312C193.911 83.9167 195.474 83.6094 197.078 83.6094C198.672 83.6094 200.219 83.9167 201.719 84.5312C203.229 85.1458 204.562 86.0104 205.719 87.125C206.875 88.25 207.755 89.5365 208.359 90.9844C208.964 92.4323 209.266 93.974 209.266 95.6094ZM197.078 103.25C199.151 103.25 200.859 102.526 202.203 101.078C203.557 99.6198 204.234 97.7969 204.234 95.6094C204.234 93.4427 203.552 91.6198 202.188 90.1406C200.823 88.6615 199.12 87.9219 197.078 87.9219C195.005 87.9219 193.286 88.6615 191.922 90.1406C190.557 91.6094 189.875 93.4323 189.875 95.6094C189.875 97.8177 190.547 99.6458 191.891 101.094C193.234 102.531 194.964 103.25 197.078 103.25ZM231.828 90.0781C230.839 89.1927 229.823 88.5469 228.781 88.1406C227.74 87.724 226.625 87.5156 225.438 87.5156C223 87.5156 221.057 88.2448 219.609 89.7031C218.161 91.1615 217.438 93.1198 217.438 95.5781C217.438 97.9844 218.109 99.8958 219.453 101.312C220.797 102.719 222.63 103.422 224.953 103.422C226.276 103.422 227.505 103.203 228.641 102.766C229.776 102.318 230.828 101.651 231.797 100.766L231.766 105.781C230.724 106.396 229.63 106.854 228.484 107.156C227.349 107.458 226.151 107.609 224.891 107.609C221.245 107.609 218.25 106.479 215.906 104.219C213.573 101.948 212.406 99.0677 212.406 95.5781C212.406 92.099 213.578 89.2292 215.922 86.9688C218.266 84.7083 221.286 83.5781 224.984 83.5781C226.224 83.5781 227.422 83.7083 228.578 83.9688C229.734 84.2292 230.875 84.6302 232 85.1719L231.828 90.0781ZM236.469 107V84.125H241.359V107H236.469ZM270.016 95.6094C270.016 97.2448 269.708 98.7917 269.094 100.25C268.49 101.708 267.615 102.99 266.469 104.094C265.281 105.229 263.943 106.099 262.453 106.703C260.964 107.307 259.422 107.609 257.828 107.609C256.432 107.609 255.062 107.375 253.719 106.906C252.385 106.427 251.161 105.745 250.047 104.859C248.609 103.714 247.505 102.344 246.734 100.75C245.974 99.1562 245.594 97.4427 245.594 95.6094C245.594 93.9635 245.896 92.4219 246.5 90.9844C247.104 89.5365 247.99 88.25 249.156 87.125C250.302 86.0104 251.63 85.1458 253.141 84.5312C254.661 83.9167 256.224 83.6094 257.828 83.6094C259.422 83.6094 260.969 83.9167 262.469 84.5312C263.979 85.1458 265.312 86.0104 266.469 87.125C267.625 88.25 268.505 89.5365 269.109 90.9844C269.714 92.4323 270.016 93.974 270.016 95.6094ZM257.828 103.25C259.901 103.25 261.609 102.526 262.953 101.078C264.307 99.6198 264.984 97.7969 264.984 95.6094C264.984 93.4427 264.302 91.6198 262.938 90.1406C261.573 88.6615 259.87 87.9219 257.828 87.9219C255.755 87.9219 254.036 88.6615 252.672 90.1406C251.307 91.6094 250.625 93.4323 250.625 95.6094C250.625 97.8177 251.297 99.6458 252.641 101.094C253.984 102.531 255.714 103.25 257.828 103.25Z" fill="white"/>
<path d="M27 175H15C10.5817 175 7 171.418 7 167V28" stroke="white" stroke-width="1.5"/>
<circle cx="7" cy="21" r="6.25" stroke="white" stroke-width="1.5"/>
<rect x="25" y="140" width="278" height="70" rx="10" fill="#002A61"/>
<path d="M57.198 165.148L58.8 169H60.474L54.372 154.78L48.108 169H49.764L51.402 165.148H57.198ZM56.604 163.744H52.014L54.336 158.308L56.604 163.744ZM66.0039 161.638C67.7859 161.638 68.8479 163.006 68.8479 164.698C68.8479 166.408 67.8759 167.902 66.0219 167.902C64.2219 167.902 63.2499 166.336 63.2499 164.68C63.2499 163.096 64.3299 161.638 66.0039 161.638ZM63.3219 160.54H61.8819V173.752H63.3219V167.812H63.3579C64.0419 168.73 65.1039 169.234 66.2559 169.234C68.7939 169.234 70.3239 167.2 70.3239 164.788C70.3239 162.448 68.7579 160.306 66.2739 160.306C65.1039 160.306 64.0599 160.81 63.3579 161.746H63.3219V160.54ZM76.0326 169.234C78.4986 169.234 80.4786 167.272 80.4786 164.788C80.4786 162.304 78.5166 160.306 76.0326 160.306C73.5486 160.306 71.5866 162.304 71.5866 164.788C71.5866 167.272 73.5666 169.234 76.0326 169.234ZM76.0326 161.638C77.8146 161.638 79.0386 163.06 79.0386 164.77C79.0386 166.498 77.8146 167.902 76.0326 167.902C74.2506 167.902 73.0266 166.498 73.0266 164.77C73.0266 163.06 74.2506 161.638 76.0326 161.638ZM84.934 168.208L82.198 173.752H83.836L90.082 160.54H88.444L85.708 166.606L82.72 160.54H81.046L84.934 168.208ZM94.9249 161.638C96.7069 161.638 97.7689 163.006 97.7689 164.698C97.7689 166.408 96.7969 167.902 94.9429 167.902C93.1429 167.902 92.1709 166.336 92.1709 164.68C92.1709 163.096 93.2509 161.638 94.9249 161.638ZM99.1369 160.54H97.6969V161.746H97.6609C96.9589 160.846 95.9149 160.306 94.7629 160.306C92.2249 160.306 90.6949 162.376 90.6949 164.788C90.6949 167.128 92.2609 169.234 94.7449 169.234C95.9329 169.234 96.9229 168.766 97.6609 167.83H97.6969V169H99.1369V160.54ZM103.244 160.54H101.804V169H103.244V164.626C103.244 163.348 103.424 161.638 105.116 161.638C106.502 161.638 106.628 163.15 106.628 164.194V169H108.068V164.518C108.068 163.24 108.248 161.638 109.904 161.638C111.38 161.638 111.452 162.988 111.452 164.086V169H112.892V163.852C112.892 162.07 112.352 160.306 110.192 160.306C109.166 160.306 108.158 160.774 107.654 161.71C107.204 160.828 106.304 160.306 105.314 160.306C104.45 160.306 103.73 160.756 103.28 161.458H103.244V160.54ZM119.31 169.234C121.776 169.234 123.756 167.272 123.756 164.788C123.756 162.304 121.794 160.306 119.31 160.306C116.826 160.306 114.864 162.304 114.864 164.788C114.864 167.272 116.844 169.234 119.31 169.234ZM119.31 161.638C121.092 161.638 122.316 163.06 122.316 164.77C122.316 166.498 121.092 167.902 119.31 167.902C117.528 167.902 116.304 166.498 116.304 164.77C116.304 163.06 117.528 161.638 119.31 161.638ZM130.353 161.872C129.975 160.99 129.075 160.306 128.103 160.306C126.735 160.306 125.583 161.278 125.583 162.7C125.583 165.364 129.399 164.716 129.399 166.606C129.399 167.38 128.805 167.902 128.031 167.902C127.077 167.902 126.663 167.344 126.303 166.552L125.025 167.092C125.475 168.424 126.591 169.234 128.013 169.234C129.579 169.234 130.875 168.082 130.875 166.48C130.875 165.058 129.903 164.464 128.913 164.05C127.923 163.636 126.951 163.348 126.951 162.574C126.951 162.034 127.491 161.638 127.995 161.638C128.517 161.638 128.949 162.052 129.147 162.502L130.353 161.872ZM139.858 154.15H138.418V169H139.858V154.15ZM146.042 161.638C147.824 161.638 148.886 163.006 148.886 164.698C148.886 166.408 147.914 167.902 146.06 167.902C144.26 167.902 143.288 166.336 143.288 164.68C143.288 163.096 144.368 161.638 146.042 161.638ZM150.254 160.54H148.814V161.746H148.778C148.076 160.846 147.032 160.306 145.88 160.306C143.342 160.306 141.812 162.376 141.812 164.788C141.812 167.128 143.378 169.234 145.862 169.234C147.05 169.234 148.04 168.766 148.778 167.83H148.814V169H150.254V160.54ZM157.547 161.872C157.169 160.99 156.269 160.306 155.297 160.306C153.929 160.306 152.777 161.278 152.777 162.7C152.777 165.364 156.593 164.716 156.593 166.606C156.593 167.38 155.999 167.902 155.225 167.902C154.271 167.902 153.857 167.344 153.497 166.552L152.219 167.092C152.669 168.424 153.785 169.234 155.207 169.234C156.773 169.234 158.069 168.082 158.069 166.48C158.069 165.058 157.097 164.464 156.107 164.05C155.117 163.636 154.145 163.348 154.145 162.574C154.145 162.034 154.685 161.638 155.189 161.638C155.711 161.638 156.143 162.052 156.341 162.502L157.547 161.872ZM165.395 159.766H168.653V160.936C169.097 160.396 169.547 160.036 170.003 159.856C170.459 159.664 170.993 159.568 171.605 159.568C172.253 159.568 172.805 159.676 173.261 159.892C173.729 160.096 174.125 160.39 174.449 160.774C174.713 161.086 174.893 161.434 174.989 161.818C175.085 162.202 175.133 162.64 175.133 163.132V169H171.875V164.338C171.875 163.882 171.839 163.516 171.767 163.24C171.707 162.952 171.593 162.724 171.425 162.556C171.281 162.412 171.119 162.31 170.939 162.25C170.759 162.19 170.567 162.16 170.363 162.16C169.811 162.16 169.385 162.328 169.085 162.664C168.797 162.988 168.653 163.456 168.653 164.068V169H165.395V159.766ZM184.098 163.042C183.99 162.586 183.768 162.22 183.432 161.944C183.096 161.668 182.688 161.53 182.208 161.53C181.704 161.53 181.29 161.662 180.966 161.926C180.654 162.19 180.456 162.562 180.372 163.042H184.098ZM180.282 164.932C180.282 166.336 180.942 167.038 182.262 167.038C182.97 167.038 183.504 166.75 183.864 166.174H187.014C186.378 168.286 184.788 169.342 182.244 169.342C181.464 169.342 180.75 169.228 180.102 169C179.454 168.76 178.896 168.424 178.428 167.992C177.972 167.56 177.618 167.044 177.366 166.444C177.114 165.844 176.988 165.172 176.988 164.428C176.988 163.66 177.108 162.97 177.348 162.358C177.588 161.734 177.93 161.206 178.374 160.774C178.818 160.342 179.352 160.012 179.976 159.784C180.612 159.544 181.326 159.424 182.118 159.424C182.898 159.424 183.6 159.544 184.224 159.784C184.848 160.012 185.376 160.348 185.808 160.792C186.24 161.236 186.57 161.782 186.798 162.43C187.026 163.066 187.14 163.786 187.14 164.59V164.932H180.282ZM195.969 162.754C195.405 162.37 194.835 162.178 194.259 162.178C193.947 162.178 193.653 162.232 193.377 162.34C193.113 162.448 192.879 162.604 192.675 162.808C192.471 163 192.309 163.234 192.189 163.51C192.081 163.774 192.027 164.074 192.027 164.41C192.027 164.734 192.081 165.034 192.189 165.31C192.309 165.574 192.465 165.808 192.657 166.012C192.861 166.204 193.101 166.354 193.377 166.462C193.653 166.57 193.947 166.624 194.259 166.624C194.871 166.624 195.441 166.414 195.969 165.994V168.766C195.165 169.114 194.403 169.288 193.683 169.288C193.011 169.288 192.369 169.174 191.757 168.946C191.157 168.718 190.623 168.394 190.155 167.974C189.699 167.542 189.333 167.032 189.057 166.444C188.781 165.844 188.643 165.178 188.643 164.446C188.643 163.714 188.775 163.048 189.039 162.448C189.303 161.836 189.663 161.314 190.119 160.882C190.575 160.438 191.115 160.096 191.739 159.856C192.375 159.604 193.053 159.478 193.773 159.478C194.565 159.478 195.297 159.646 195.969 159.982V162.754ZM204.577 163.042C204.469 162.586 204.247 162.22 203.911 161.944C203.575 161.668 203.167 161.53 202.687 161.53C202.183 161.53 201.769 161.662 201.445 161.926C201.133 162.19 200.935 162.562 200.851 163.042H204.577ZM200.761 164.932C200.761 166.336 201.421 167.038 202.741 167.038C203.449 167.038 203.983 166.75 204.343 166.174H207.493C206.857 168.286 205.267 169.342 202.723 169.342C201.943 169.342 201.229 169.228 200.581 169C199.933 168.76 199.375 168.424 198.907 167.992C198.451 167.56 198.097 167.044 197.845 166.444C197.593 165.844 197.467 165.172 197.467 164.428C197.467 163.66 197.587 162.97 197.827 162.358C198.067 161.734 198.409 161.206 198.853 160.774C199.297 160.342 199.831 160.012 200.455 159.784C201.091 159.544 201.805 159.424 202.597 159.424C203.377 159.424 204.079 159.544 204.703 159.784C205.327 160.012 205.855 160.348 206.287 160.792C206.719 161.236 207.049 161.782 207.277 162.43C207.505 163.066 207.619 163.786 207.619 164.59V164.932H200.761ZM215.601 162.142C215.001 161.83 214.413 161.674 213.837 161.674C213.537 161.674 213.291 161.734 213.099 161.854C212.919 161.974 212.829 162.136 212.829 162.34C212.829 162.448 212.841 162.538 212.865 162.61C212.901 162.67 212.967 162.73 213.063 162.79C213.171 162.85 213.321 162.904 213.513 162.952C213.717 163 213.981 163.06 214.305 163.132C215.205 163.312 215.877 163.636 216.321 164.104C216.765 164.56 216.987 165.148 216.987 165.868C216.987 166.408 216.879 166.894 216.663 167.326C216.447 167.758 216.147 168.124 215.763 168.424C215.379 168.712 214.917 168.934 214.377 169.09C213.837 169.258 213.243 169.342 212.595 169.342C211.347 169.342 210.117 168.988 208.905 168.28L210.093 165.976C211.005 166.6 211.869 166.912 212.685 166.912C212.985 166.912 213.231 166.846 213.423 166.714C213.615 166.582 213.711 166.414 213.711 166.21C213.711 166.09 213.693 165.994 213.657 165.922C213.633 165.838 213.573 165.766 213.477 165.706C213.381 165.634 213.237 165.574 213.045 165.526C212.865 165.466 212.625 165.406 212.325 165.346C211.317 165.142 210.609 164.842 210.201 164.446C209.805 164.038 209.607 163.48 209.607 162.772C209.607 162.256 209.703 161.794 209.895 161.386C210.087 160.966 210.363 160.612 210.723 160.324C211.083 160.036 211.515 159.814 212.019 159.658C212.535 159.502 213.105 159.424 213.729 159.424C214.749 159.424 215.739 159.622 216.699 160.018L215.601 162.142ZM221.897 159.766V169H218.639V159.766H221.897ZM218.423 156.22C218.423 155.968 218.471 155.734 218.567 155.518C218.663 155.29 218.795 155.092 218.963 154.924C219.131 154.756 219.323 154.624 219.539 154.528C219.767 154.432 220.007 154.384 220.259 154.384C220.511 154.384 220.745 154.432 220.961 154.528C221.189 154.624 221.387 154.756 221.555 154.924C221.723 155.092 221.855 155.29 221.951 155.518C222.047 155.734 222.095 155.968 222.095 156.22C222.095 156.472 222.047 156.712 221.951 156.94C221.855 157.156 221.723 157.348 221.555 157.516C221.387 157.684 221.189 157.816 220.961 157.912C220.745 158.008 220.511 158.056 220.259 158.056C220.007 158.056 219.767 158.008 219.539 157.912C219.323 157.816 219.131 157.684 218.963 157.516C218.795 157.348 218.663 157.156 218.567 156.94C218.471 156.712 218.423 156.472 218.423 156.22ZM227.148 164.356C227.148 164.656 227.202 164.938 227.31 165.202C227.418 165.454 227.562 165.676 227.742 165.868C227.934 166.06 228.156 166.21 228.408 166.318C228.672 166.426 228.954 166.48 229.254 166.48C229.542 166.48 229.812 166.426 230.064 166.318C230.328 166.21 230.55 166.06 230.73 165.868C230.922 165.676 231.072 165.454 231.18 165.202C231.3 164.95 231.36 164.68 231.36 164.392C231.36 164.104 231.3 163.834 231.18 163.582C231.072 163.318 230.922 163.09 230.73 162.898C230.55 162.706 230.328 162.556 230.064 162.448C229.812 162.34 229.542 162.286 229.254 162.286C228.966 162.286 228.69 162.34 228.426 162.448C228.174 162.556 227.952 162.706 227.76 162.898C227.58 163.09 227.43 163.312 227.31 163.564C227.202 163.804 227.148 164.068 227.148 164.356ZM231.252 154.06H234.528V169H231.252V167.974C230.556 168.85 229.614 169.288 228.426 169.288C227.754 169.288 227.136 169.162 226.572 168.91C226.008 168.658 225.516 168.31 225.096 167.866C224.676 167.422 224.346 166.9 224.106 166.3C223.878 165.7 223.764 165.052 223.764 164.356C223.764 163.696 223.872 163.072 224.088 162.484C224.316 161.884 224.634 161.362 225.042 160.918C225.45 160.474 225.936 160.126 226.5 159.874C227.076 159.61 227.706 159.478 228.39 159.478C229.542 159.478 230.496 159.88 231.252 160.684V154.06ZM239.769 164.356C239.769 164.656 239.823 164.938 239.931 165.202C240.039 165.454 240.183 165.676 240.363 165.868C240.555 166.06 240.777 166.21 241.029 166.318C241.293 166.426 241.575 166.48 241.875 166.48C242.163 166.48 242.433 166.426 242.685 166.318C242.949 166.21 243.171 166.06 243.351 165.868C243.543 165.676 243.693 165.454 243.801 165.202C243.921 164.95 243.981 164.68 243.981 164.392C243.981 164.104 243.921 163.834 243.801 163.582C243.693 163.318 243.543 163.09 243.351 162.898C243.171 162.706 242.949 162.556 242.685 162.448C242.433 162.34 242.163 162.286 241.875 162.286C241.575 162.286 241.293 162.34 241.029 162.448C240.777 162.556 240.555 162.706 240.363 162.898C240.183 163.09 240.039 163.312 239.931 163.564C239.823 163.804 239.769 164.068 239.769 164.356ZM243.873 159.766H247.149V169H243.873V167.974C243.177 168.85 242.235 169.288 241.047 169.288C240.375 169.288 239.757 169.168 239.193 168.928C238.629 168.676 238.137 168.328 237.717 167.884C237.297 167.44 236.967 166.918 236.727 166.318C236.499 165.718 236.385 165.064 236.385 164.356C236.385 163.696 236.499 163.072 236.727 162.484C236.955 161.884 237.273 161.362 237.681 160.918C238.089 160.474 238.575 160.126 239.139 159.874C239.703 159.61 240.327 159.478 241.011 159.478C242.163 159.478 243.117 159.88 243.873 160.684V159.766ZM252.39 164.356C252.39 164.656 252.444 164.938 252.552 165.202C252.66 165.454 252.804 165.676 252.984 165.868C253.176 166.06 253.398 166.21 253.65 166.318C253.914 166.426 254.196 166.48 254.496 166.48C254.784 166.48 255.054 166.426 255.306 166.318C255.57 166.21 255.792 166.06 255.972 165.868C256.164 165.676 256.314 165.454 256.422 165.202C256.542 164.95 256.602 164.68 256.602 164.392C256.602 164.104 256.542 163.834 256.422 163.582C256.314 163.318 256.164 163.09 255.972 162.898C255.792 162.706 255.57 162.556 255.306 162.448C255.054 162.34 254.784 162.286 254.496 162.286C254.208 162.286 253.932 162.34 253.668 162.448C253.416 162.556 253.194 162.706 253.002 162.898C252.822 163.09 252.672 163.312 252.552 163.564C252.444 163.804 252.39 164.068 252.39 164.356ZM256.494 154.06H259.77V169H256.494V167.974C255.798 168.85 254.856 169.288 253.668 169.288C252.996 169.288 252.378 169.162 251.814 168.91C251.25 168.658 250.758 168.31 250.338 167.866C249.918 167.422 249.588 166.9 249.348 166.3C249.12 165.7 249.006 165.052 249.006 164.356C249.006 163.696 249.114 163.072 249.33 162.484C249.558 161.884 249.876 161.362 250.284 160.918C250.692 160.474 251.178 160.126 251.742 159.874C252.318 159.61 252.948 159.478 253.632 159.478C254.784 159.478 255.738 159.88 256.494 160.684V154.06ZM268.737 163.042C268.629 162.586 268.407 162.22 268.071 161.944C267.735 161.668 267.327 161.53 266.847 161.53C266.343 161.53 265.929 161.662 265.605 161.926C265.293 162.19 265.095 162.562 265.011 163.042H268.737ZM264.921 164.932C264.921 166.336 265.581 167.038 266.901 167.038C267.609 167.038 268.143 166.75 268.503 166.174H271.653C271.017 168.286 269.427 169.342 266.883 169.342C266.103 169.342 265.389 169.228 264.741 169C264.093 168.76 263.535 168.424 263.067 167.992C262.611 167.56 262.257 167.044 262.005 166.444C261.753 165.844 261.627 165.172 261.627 164.428C261.627 163.66 261.747 162.97 261.987 162.358C262.227 161.734 262.569 161.206 263.013 160.774C263.457 160.342 263.991 160.012 264.615 159.784C265.251 159.544 265.965 159.424 266.757 159.424C267.537 159.424 268.239 159.544 268.863 159.784C269.487 160.012 270.015 160.348 270.447 160.792C270.879 161.236 271.209 161.782 271.437 162.43C271.665 163.066 271.779 163.786 271.779 164.59V164.932H264.921ZM279.761 162.142C279.161 161.83 278.573 161.674 277.997 161.674C277.697 161.674 277.451 161.734 277.259 161.854C277.079 161.974 276.989 162.136 276.989 162.34C276.989 162.448 277.001 162.538 277.025 162.61C277.061 162.67 277.127 162.73 277.223 162.79C277.331 162.85 277.481 162.904 277.673 162.952C277.877 163 278.141 163.06 278.465 163.132C279.365 163.312 280.037 163.636 280.481 164.104C280.925 164.56 281.147 165.148 281.147 165.868C281.147 166.408 281.039 166.894 280.823 167.326C280.607 167.758 280.307 168.124 279.923 168.424C279.539 168.712 279.077 168.934 278.537 169.09C277.997 169.258 277.403 169.342 276.755 169.342C275.507 169.342 274.277 168.988 273.065 168.28L274.253 165.976C275.165 166.6 276.029 166.912 276.845 166.912C277.145 166.912 277.391 166.846 277.583 166.714C277.775 166.582 277.871 166.414 277.871 166.21C277.871 166.09 277.853 165.994 277.817 165.922C277.793 165.838 277.733 165.766 277.637 165.706C277.541 165.634 277.397 165.574 277.205 165.526C277.025 165.466 276.785 165.406 276.485 165.346C275.477 165.142 274.769 164.842 274.361 164.446C273.965 164.038 273.767 163.48 273.767 162.772C273.767 162.256 273.863 161.794 274.055 161.386C274.247 160.966 274.523 160.612 274.883 160.324C275.243 160.036 275.675 159.814 276.179 159.658C276.695 159.502 277.265 159.424 277.889 159.424C278.909 159.424 279.899 159.622 280.859 160.018L279.761 162.142ZM52.14 188.356C52.14 188.656 52.194 188.938 52.302 189.202C52.41 189.454 52.554 189.676 52.734 189.868C52.926 190.06 53.148 190.21 53.4 190.318C53.664 190.426 53.946 190.48 54.246 190.48C54.534 190.48 54.804 190.426 55.056 190.318C55.32 190.21 55.542 190.06 55.722 189.868C55.914 189.676 56.064 189.454 56.172 189.202C56.292 188.95 56.352 188.68 56.352 188.392C56.352 188.104 56.292 187.834 56.172 187.582C56.064 187.318 55.914 187.09 55.722 186.898C55.542 186.706 55.32 186.556 55.056 186.448C54.804 186.34 54.534 186.286 54.246 186.286C53.958 186.286 53.682 186.34 53.418 186.448C53.166 186.556 52.944 186.706 52.752 186.898C52.572 187.09 52.422 187.312 52.302 187.564C52.194 187.804 52.14 188.068 52.14 188.356ZM56.244 178.06H59.52V193H56.244V191.974C55.548 192.85 54.606 193.288 53.418 193.288C52.746 193.288 52.128 193.162 51.564 192.91C51 192.658 50.508 192.31 50.088 191.866C49.668 191.422 49.338 190.9 49.098 190.3C48.87 189.7 48.756 189.052 48.756 188.356C48.756 187.696 48.864 187.072 49.08 186.484C49.308 185.884 49.626 185.362 50.034 184.918C50.442 184.474 50.928 184.126 51.492 183.874C52.068 183.61 52.698 183.478 53.382 183.478C54.534 183.478 55.488 183.88 56.244 184.684V178.06ZM68.4871 187.042C68.3791 186.586 68.1571 186.22 67.8211 185.944C67.4851 185.668 67.0771 185.53 66.5971 185.53C66.0931 185.53 65.6791 185.662 65.3551 185.926C65.0431 186.19 64.8451 186.562 64.7611 187.042H68.4871ZM64.6711 188.932C64.6711 190.336 65.3311 191.038 66.6511 191.038C67.3591 191.038 67.8931 190.75 68.2531 190.174H71.4031C70.7671 192.286 69.1771 193.342 66.6331 193.342C65.8531 193.342 65.1391 193.228 64.4911 193C63.8431 192.76 63.2851 192.424 62.8171 191.992C62.3611 191.56 62.0071 191.044 61.7551 190.444C61.5031 189.844 61.3771 189.172 61.3771 188.428C61.3771 187.66 61.4971 186.97 61.7371 186.358C61.9771 185.734 62.3191 185.206 62.7631 184.774C63.2071 184.342 63.7411 184.012 64.3651 183.784C65.0011 183.544 65.7151 183.424 66.5071 183.424C67.2871 183.424 67.9891 183.544 68.6131 183.784C69.2371 184.012 69.7651 184.348 70.1971 184.792C70.6291 185.236 70.9591 185.782 71.1871 186.43C71.4151 187.066 71.5291 187.786 71.5291 188.59V188.932H64.6711ZM83.1446 186.484V193H79.8866V186.484H78.8066V183.766H79.8866V180.994H83.1446V183.766H84.9986V186.484H83.1446ZM89.4814 183.766V188.968C89.4814 190.108 90.0334 190.678 91.1374 190.678C92.2414 190.678 92.7934 190.108 92.7934 188.968V183.766H96.0514V189.598C96.0514 190.846 95.6374 191.782 94.8094 192.406C93.9934 193.03 92.7694 193.342 91.1374 193.342C89.5054 193.342 88.2754 193.03 87.4474 192.406C86.6314 191.782 86.2234 190.846 86.2234 189.598V183.766H89.4814ZM111.348 186.754C110.784 186.37 110.214 186.178 109.638 186.178C109.326 186.178 109.032 186.232 108.756 186.34C108.492 186.448 108.258 186.604 108.054 186.808C107.85 187 107.688 187.234 107.568 187.51C107.46 187.774 107.406 188.074 107.406 188.41C107.406 188.734 107.46 189.034 107.568 189.31C107.688 189.574 107.844 189.808 108.036 190.012C108.24 190.204 108.48 190.354 108.756 190.462C109.032 190.57 109.326 190.624 109.638 190.624C110.25 190.624 110.82 190.414 111.348 189.994V192.766C110.544 193.114 109.782 193.288 109.062 193.288C108.39 193.288 107.748 193.174 107.136 192.946C106.536 192.718 106.002 192.394 105.534 191.974C105.078 191.542 104.712 191.032 104.436 190.444C104.16 189.844 104.022 189.178 104.022 188.446C104.022 187.714 104.154 187.048 104.418 186.448C104.682 185.836 105.042 185.314 105.498 184.882C105.954 184.438 106.494 184.096 107.118 183.856C107.754 183.604 108.432 183.478 109.152 183.478C109.944 183.478 110.676 183.646 111.348 183.982V186.754ZM116.23 188.356C116.23 188.656 116.284 188.938 116.392 189.202C116.5 189.454 116.644 189.676 116.824 189.868C117.016 190.06 117.238 190.21 117.49 190.318C117.754 190.426 118.036 190.48 118.336 190.48C118.624 190.48 118.894 190.426 119.146 190.318C119.41 190.21 119.632 190.06 119.812 189.868C120.004 189.676 120.154 189.454 120.262 189.202C120.382 188.95 120.442 188.68 120.442 188.392C120.442 188.104 120.382 187.834 120.262 187.582C120.154 187.318 120.004 187.09 119.812 186.898C119.632 186.706 119.41 186.556 119.146 186.448C118.894 186.34 118.624 186.286 118.336 186.286C118.036 186.286 117.754 186.34 117.49 186.448C117.238 186.556 117.016 186.706 116.824 186.898C116.644 187.09 116.5 187.312 116.392 187.564C116.284 187.804 116.23 188.068 116.23 188.356ZM120.334 183.766H123.61V193H120.334V191.974C119.638 192.85 118.696 193.288 117.508 193.288C116.836 193.288 116.218 193.168 115.654 192.928C115.09 192.676 114.598 192.328 114.178 191.884C113.758 191.44 113.428 190.918 113.188 190.318C112.96 189.718 112.846 189.064 112.846 188.356C112.846 187.696 112.96 187.072 113.188 186.484C113.416 185.884 113.734 185.362 114.142 184.918C114.55 184.474 115.036 184.126 115.6 183.874C116.164 183.61 116.788 183.478 117.472 183.478C118.624 183.478 119.578 183.88 120.334 184.684V183.766ZM133.189 188.41C133.189 188.122 133.135 187.852 133.027 187.6C132.931 187.336 132.787 187.108 132.595 186.916C132.403 186.724 132.175 186.574 131.911 186.466C131.659 186.346 131.383 186.286 131.083 186.286C130.795 186.286 130.525 186.34 130.273 186.448C130.021 186.556 129.799 186.706 129.607 186.898C129.427 187.09 129.277 187.318 129.157 187.582C129.049 187.834 128.995 188.104 128.995 188.392C128.995 188.68 129.049 188.95 129.157 189.202C129.265 189.454 129.415 189.676 129.607 189.868C129.799 190.048 130.021 190.198 130.273 190.318C130.537 190.426 130.813 190.48 131.101 190.48C131.389 190.48 131.659 190.426 131.911 190.318C132.163 190.21 132.379 190.06 132.559 189.868C132.751 189.676 132.901 189.454 133.009 189.202C133.129 188.95 133.189 188.686 133.189 188.41ZM129.085 197.608H125.827V183.766H129.085V184.792C129.781 183.916 130.729 183.478 131.929 183.478C132.589 183.478 133.201 183.61 133.765 183.874C134.341 184.126 134.839 184.474 135.259 184.918C135.679 185.362 136.003 185.884 136.231 186.484C136.471 187.084 136.591 187.726 136.591 188.41C136.591 189.094 136.471 189.73 136.231 190.318C136.003 190.906 135.679 191.422 135.259 191.866C134.851 192.31 134.365 192.658 133.801 192.91C133.237 193.162 132.625 193.288 131.965 193.288C130.813 193.288 129.853 192.892 129.085 192.1V197.608ZM141.706 183.766V193H138.448V183.766H141.706ZM138.232 180.22C138.232 179.968 138.28 179.734 138.376 179.518C138.472 179.29 138.604 179.092 138.772 178.924C138.94 178.756 139.132 178.624 139.348 178.528C139.576 178.432 139.816 178.384 140.068 178.384C140.32 178.384 140.554 178.432 140.77 178.528C140.998 178.624 141.196 178.756 141.364 178.924C141.532 179.092 141.664 179.29 141.76 179.518C141.856 179.734 141.904 179.968 141.904 180.22C141.904 180.472 141.856 180.712 141.76 180.94C141.664 181.156 141.532 181.348 141.364 181.516C141.196 181.684 140.998 181.816 140.77 181.912C140.554 182.008 140.32 182.056 140.068 182.056C139.816 182.056 139.576 182.008 139.348 181.912C139.132 181.816 138.94 181.684 138.772 181.516C138.604 181.348 138.472 181.156 138.376 180.94C138.28 180.712 138.232 180.472 138.232 180.22ZM147.568 186.484V193H144.31V186.484H143.23V183.766H144.31V180.994H147.568V183.766H149.422V186.484H147.568ZM153.847 188.356C153.847 188.656 153.901 188.938 154.009 189.202C154.117 189.454 154.261 189.676 154.441 189.868C154.633 190.06 154.855 190.21 155.107 190.318C155.371 190.426 155.653 190.48 155.953 190.48C156.241 190.48 156.511 190.426 156.763 190.318C157.027 190.21 157.249 190.06 157.429 189.868C157.621 189.676 157.771 189.454 157.879 189.202C157.999 188.95 158.059 188.68 158.059 188.392C158.059 188.104 157.999 187.834 157.879 187.582C157.771 187.318 157.621 187.09 157.429 186.898C157.249 186.706 157.027 186.556 156.763 186.448C156.511 186.34 156.241 186.286 155.953 186.286C155.653 186.286 155.371 186.34 155.107 186.448C154.855 186.556 154.633 186.706 154.441 186.898C154.261 187.09 154.117 187.312 154.009 187.564C153.901 187.804 153.847 188.068 153.847 188.356ZM157.951 183.766H161.227V193H157.951V191.974C157.255 192.85 156.313 193.288 155.125 193.288C154.453 193.288 153.835 193.168 153.271 192.928C152.707 192.676 152.215 192.328 151.795 191.884C151.375 191.44 151.045 190.918 150.805 190.318C150.577 189.718 150.463 189.064 150.463 188.356C150.463 187.696 150.577 187.072 150.805 186.484C151.033 185.884 151.351 185.362 151.759 184.918C152.167 184.474 152.653 184.126 153.217 183.874C153.781 183.61 154.405 183.478 155.089 183.478C156.241 183.478 157.195 183.88 157.951 184.684V183.766ZM166.702 178.06V193H163.444V178.06H166.702ZM178.228 185.638C180.01 185.638 181.072 187.006 181.072 188.698C181.072 190.408 180.1 191.902 178.246 191.902C176.446 191.902 175.474 190.336 175.474 188.68C175.474 187.096 176.554 185.638 178.228 185.638ZM181 193H182.44V178.15H181V185.746H180.964C180.28 184.846 179.2 184.306 178.066 184.306C175.528 184.306 173.998 186.376 173.998 188.788C173.998 191.128 175.564 193.234 178.048 193.234C179.2 193.234 180.262 192.748 180.964 191.83H181V193ZM192.468 189.076C192.612 186.556 191.172 184.306 188.454 184.306C185.808 184.306 184.35 186.376 184.35 188.878C184.35 191.308 185.97 193.234 188.49 193.234C190.218 193.234 191.586 192.37 192.396 190.858L191.172 190.156C190.614 191.164 189.822 191.902 188.598 191.902C186.96 191.902 185.844 190.642 185.826 189.076H192.468ZM185.898 187.852C186.078 186.628 187.23 185.638 188.472 185.638C189.732 185.638 190.758 186.628 190.956 187.852H185.898ZM201.489 185.872H203.001V184.54H201.489V181.498H200.049V184.54H199.167V185.872H200.049V193H201.489V185.872ZM205.67 184.54H204.23V193H205.67V188.77C205.67 187.672 205.742 185.638 207.326 185.638C207.704 185.638 207.902 185.818 208.19 186.016L208.874 184.702C208.46 184.468 208.064 184.306 207.578 184.306C206.642 184.306 206.21 184.792 205.706 185.458H205.67V184.54ZM213.841 185.638C215.623 185.638 216.685 187.006 216.685 188.698C216.685 190.408 215.713 191.902 213.859 191.902C212.059 191.902 211.087 190.336 211.087 188.68C211.087 187.096 212.167 185.638 213.841 185.638ZM218.053 184.54H216.613V185.746H216.577C215.875 184.846 214.831 184.306 213.679 184.306C211.141 184.306 209.611 186.376 209.611 188.788C209.611 191.128 211.177 193.234 213.661 193.234C214.849 193.234 215.839 192.766 216.577 191.83H216.613V193H218.053V184.54ZM224.77 185.638C226.552 185.638 227.614 187.006 227.614 188.698C227.614 190.408 226.642 191.902 224.788 191.902C222.988 191.902 222.016 190.336 222.016 188.68C222.016 187.096 223.096 185.638 224.77 185.638ZM220.648 193H222.088V191.83H222.124C222.808 192.748 223.87 193.234 225.04 193.234C227.524 193.234 229.09 191.128 229.09 188.77C229.09 186.376 227.542 184.306 225.022 184.306C223.87 184.306 222.808 184.846 222.124 185.746H222.088V178.15H220.648V193ZM234.618 185.638C236.4 185.638 237.462 187.006 237.462 188.698C237.462 190.408 236.49 191.902 234.636 191.902C232.836 191.902 231.864 190.336 231.864 188.68C231.864 187.096 232.944 185.638 234.618 185.638ZM238.83 184.54H237.39V185.746H237.354C236.652 184.846 235.608 184.306 234.456 184.306C231.918 184.306 230.388 186.376 230.388 188.788C230.388 191.128 231.954 193.234 234.438 193.234C235.626 193.234 236.616 192.766 237.354 191.83H237.39V193H238.83V184.54ZM243.207 184.54H241.767V197.752H243.207V184.54ZM242.487 180.328C241.929 180.328 241.461 180.796 241.461 181.354C241.461 181.93 241.929 182.38 242.487 182.38C243.045 182.38 243.513 181.93 243.513 181.354C243.513 180.796 243.045 180.328 242.487 180.328ZM249.898 193.234C252.364 193.234 254.344 191.272 254.344 188.788C254.344 186.304 252.382 184.306 249.898 184.306C247.414 184.306 245.452 186.304 245.452 188.788C245.452 191.272 247.432 193.234 249.898 193.234ZM249.898 185.638C251.68 185.638 252.904 187.06 252.904 188.77C252.904 190.498 251.68 191.902 249.898 191.902C248.116 191.902 246.892 190.498 246.892 188.77C246.892 187.06 248.116 185.638 249.898 185.638Z" fill="white"/>
</svg>
