<svg width="504" height="225" viewBox="0 0 504 225" fill="none" xmlns="http://www.w3.org/2000/svg">
<path d="M48.9844 14.0781C47.9948 13.1927 46.9792 12.5469 45.9375 12.1406C44.8958 11.724 43.7812 11.5156 42.5938 11.5156C40.1562 11.5156 38.2135 12.2448 36.7656 13.7031C35.3177 15.1615 34.5938 17.1198 34.5938 19.5781C34.5938 21.9844 35.2656 23.8958 36.6094 25.3125C37.9531 26.7188 39.7865 27.4219 42.1094 27.4219C43.4323 27.4219 44.6615 27.2031 45.7969 26.7656C46.9323 26.3177 47.9844 25.651 48.9531 24.7656L48.9219 29.7812C47.8802 30.3958 46.7865 30.8542 45.6406 31.1562C44.5052 31.4583 43.3073 31.6094 42.0469 31.6094C38.401 31.6094 35.4062 30.4792 33.0625 28.2188C30.7292 25.9479 29.5625 23.0677 29.5625 19.5781C29.5625 16.099 30.7344 13.2292 33.0781 10.9688C35.4219 8.70833 38.4427 7.57812 42.1406 7.57812C43.3802 7.57812 44.5781 7.70833 45.7344 7.96875C46.8906 8.22917 48.0312 8.63021 49.1562 9.17188L48.9844 14.0781ZM76.9531 19.6094C76.9531 21.2448 76.6458 22.7917 76.0312 24.25C75.4271 25.7083 74.5521 26.9896 73.4062 28.0938C72.2188 29.2292 70.8802 30.099 69.3906 30.7031C67.901 31.3073 66.3594 31.6094 64.7656 31.6094C63.3698 31.6094 62 31.375 60.6562 30.9062C59.3229 30.4271 58.099 29.7448 56.9844 28.8594C55.5469 27.7135 54.4427 26.3438 53.6719 24.75C52.9115 23.1562 52.5312 21.4427 52.5312 19.6094C52.5312 17.9635 52.8333 16.4219 53.4375 14.9844C54.0417 13.5365 54.9271 12.25 56.0938 11.125C57.2396 10.0104 58.5677 9.14583 60.0781 8.53125C61.599 7.91667 63.1615 7.60938 64.7656 7.60938C66.3594 7.60938 67.9062 7.91667 69.4062 8.53125C70.9167 9.14583 72.25 10.0104 73.4062 11.125C74.5625 12.25 75.4427 13.5365 76.0469 14.9844C76.651 16.4323 76.9531 17.974 76.9531 19.6094ZM64.7656 27.25C66.8385 27.25 68.5469 26.526 69.8906 25.0781C71.2448 23.6198 71.9219 21.7969 71.9219 19.6094C71.9219 17.4427 71.2396 15.6198 69.875 14.1406C68.5104 12.6615 66.8073 11.9219 64.7656 11.9219C62.6927 11.9219 60.974 12.6615 59.6094 14.1406C58.2448 15.6094 57.5625 17.4323 57.5625 19.6094C57.5625 21.8177 58.2344 23.6458 59.5781 25.0938C60.9219 26.5312 62.651 27.25 64.7656 27.25ZM81.0938 31V8.125H86.1719L96.2969 21.4375C96.5885 21.8125 96.9062 22.3438 97.25 23.0312C97.6042 23.7083 97.9688 24.5104 98.3438 25.4375C98.2292 24.7604 98.1458 24.0885 98.0938 23.4219C98.0417 22.7552 98.0156 21.9219 98.0156 20.9219V8.125H102.688V31H97.8906L87.4844 17.4375C87.1927 17.0625 86.875 16.5365 86.5312 15.8594C86.1875 15.1719 85.8229 14.3542 85.4375 13.4062C85.5521 14.0625 85.6354 14.7292 85.6875 15.4062C85.7396 16.0729 85.7656 16.9167 85.7656 17.9375V31H81.0938ZM106.312 28.0938L109.031 25.0156C109.375 25.8594 109.927 26.526 110.688 27.0156C111.448 27.4948 112.302 27.7344 113.25 27.7344C114.396 27.7344 115.302 27.4635 115.969 26.9219C116.635 26.3802 116.969 25.651 116.969 24.7344C116.969 23.651 115.859 22.5729 113.641 21.5C112.922 21.1562 112.354 20.875 111.938 20.6562C109.938 19.6146 108.552 18.599 107.781 17.6094C107.01 16.6094 106.625 15.4219 106.625 14.0469C106.625 12.1615 107.37 10.6146 108.859 9.40625C110.359 8.1875 112.302 7.57812 114.688 7.57812C116.073 7.57812 117.266 7.82292 118.266 8.3125C119.276 8.79167 120.167 9.54688 120.938 10.5781L118.047 13.3438C117.703 12.6771 117.245 12.1823 116.672 11.8594C116.109 11.526 115.427 11.3594 114.625 11.3594C113.656 11.3594 112.875 11.6042 112.281 12.0938C111.688 12.5729 111.391 13.1979 111.391 13.9688C111.391 15.1771 112.568 16.2812 114.922 17.2812C115.391 17.4792 115.75 17.6354 116 17.75C117.938 18.6354 119.37 19.6354 120.297 20.75C121.234 21.8646 121.703 23.1354 121.703 24.5625C121.703 26.7083 120.969 28.4219 119.5 29.7031C118.042 30.974 116.078 31.6094 113.609 31.6094C111.859 31.6094 110.359 31.3073 109.109 30.7031C107.859 30.099 106.927 29.2292 106.312 28.0938ZM134.266 12.2812V31H129.359V12.2812H123.766V8.125H139.891V12.2812H134.266ZM159.609 31H153.969L147.953 20.3125V31H143.062V8.125H150.062C152.844 8.125 154.927 8.66667 156.312 9.75C157.698 10.8229 158.391 12.4427 158.391 14.6094C158.391 16.1823 157.917 17.526 156.969 18.6406C156.021 19.7552 154.797 20.4062 153.297 20.5938L159.609 31ZM147.953 17.875H148.688C150.667 17.875 151.974 17.6615 152.609 17.2344C153.245 16.7969 153.562 16.0417 153.562 14.9688C153.562 13.8438 153.219 13.0469 152.531 12.5781C151.854 12.099 150.573 11.8594 148.688 11.8594H147.953V17.875ZM182.141 8.125V22.3594C182.141 25.4635 181.323 27.7812 179.688 29.3125C178.052 30.8438 175.589 31.6094 172.297 31.6094C168.953 31.6094 166.464 30.8438 164.828 29.3125C163.193 27.7812 162.375 25.4635 162.375 22.3594V8.125H167.234V21.5938C167.234 23.4792 167.651 24.901 168.484 25.8594C169.318 26.8073 170.562 27.2812 172.219 27.2812C173.885 27.2812 175.146 26.8021 176 25.8438C176.854 24.8854 177.281 23.4688 177.281 21.5938V8.125H182.141ZM187.312 31V8.125H192.203V31H187.312ZM195.453 31L198.938 8.125H204.062L208.469 21.5938C208.562 21.875 208.661 22.2865 208.766 22.8281C208.88 23.3698 208.984 23.9896 209.078 24.6875C209.161 23.9792 209.255 23.349 209.359 22.7969C209.464 22.2344 209.562 21.8229 209.656 21.5625L214.141 8.125H219.188L222.688 31H218.047L216.375 17.2031C216.25 16.1823 216.167 15.4115 216.125 14.8906C216.083 14.3698 216.062 13.8854 216.062 13.4375C216.062 13.1979 216.062 13.0208 216.062 12.9062C216.073 12.7812 216.083 12.6719 216.094 12.5781C215.938 13.474 215.786 14.25 215.641 14.9062C215.505 15.5521 215.38 16.0417 215.266 16.375L210.422 31H207.672L202.906 16.375C202.865 16.2396 202.771 15.8646 202.625 15.25C202.49 14.6354 202.297 13.7396 202.047 12.5625V13.2344C202.047 14.2969 201.953 15.599 201.766 17.1406L201.75 17.2031L200.094 31H195.453ZM249.297 19.6094C249.297 21.2448 248.99 22.7917 248.375 24.25C247.771 25.7083 246.896 26.9896 245.75 28.0938C244.562 29.2292 243.224 30.099 241.734 30.7031C240.245 31.3073 238.703 31.6094 237.109 31.6094C235.714 31.6094 234.344 31.375 233 30.9062C231.667 30.4271 230.443 29.7448 229.328 28.8594C227.891 27.7135 226.786 26.3438 226.016 24.75C225.255 23.1562 224.875 21.4427 224.875 19.6094C224.875 17.9635 225.177 16.4219 225.781 14.9844C226.385 13.5365 227.271 12.25 228.438 11.125C229.583 10.0104 230.911 9.14583 232.422 8.53125C233.943 7.91667 235.505 7.60938 237.109 7.60938C238.703 7.60938 240.25 7.91667 241.75 8.53125C243.26 9.14583 244.594 10.0104 245.75 11.125C246.906 12.25 247.786 13.5365 248.391 14.9844C248.995 16.4323 249.297 17.974 249.297 19.6094ZM237.109 27.25C239.182 27.25 240.891 26.526 242.234 25.0781C243.589 23.6198 244.266 21.7969 244.266 19.6094C244.266 17.4427 243.583 15.6198 242.219 14.1406C240.854 12.6615 239.151 11.9219 237.109 11.9219C235.036 11.9219 233.318 12.6615 231.953 14.1406C230.589 15.6094 229.906 17.4323 229.906 19.6094C229.906 21.8177 230.578 23.6458 231.922 25.0938C233.266 26.5312 234.995 27.25 237.109 27.25ZM251.969 28.0938L254.688 25.0156C255.031 25.8594 255.583 26.526 256.344 27.0156C257.104 27.4948 257.958 27.7344 258.906 27.7344C260.052 27.7344 260.958 27.4635 261.625 26.9219C262.292 26.3802 262.625 25.651 262.625 24.7344C262.625 23.651 261.516 22.5729 259.297 21.5C258.578 21.1562 258.01 20.875 257.594 20.6562C255.594 19.6146 254.208 18.599 253.438 17.6094C252.667 16.6094 252.281 15.4219 252.281 14.0469C252.281 12.1615 253.026 10.6146 254.516 9.40625C256.016 8.1875 257.958 7.57812 260.344 7.57812C261.729 7.57812 262.922 7.82292 263.922 8.3125C264.932 8.79167 265.823 9.54688 266.594 10.5781L263.703 13.3438C263.359 12.6771 262.901 12.1823 262.328 11.8594C261.766 11.526 261.083 11.3594 260.281 11.3594C259.312 11.3594 258.531 11.6042 257.938 12.0938C257.344 12.5729 257.047 13.1979 257.047 13.9688C257.047 15.1771 258.224 16.2812 260.578 17.2812C261.047 17.4792 261.406 17.6354 261.656 17.75C263.594 18.6354 265.026 19.6354 265.953 20.75C266.891 21.8646 267.359 23.1354 267.359 24.5625C267.359 26.7083 266.625 28.4219 265.156 29.7031C263.698 30.974 261.734 31.6094 259.266 31.6094C257.516 31.6094 256.016 31.3073 254.766 30.7031C253.516 30.099 252.583 29.2292 251.969 28.0938ZM279.75 28.0938L282.469 25.0156C282.812 25.8594 283.365 26.526 284.125 27.0156C284.885 27.4948 285.74 27.7344 286.688 27.7344C287.833 27.7344 288.74 27.4635 289.406 26.9219C290.073 26.3802 290.406 25.651 290.406 24.7344C290.406 23.651 289.297 22.5729 287.078 21.5C286.359 21.1562 285.792 20.875 285.375 20.6562C283.375 19.6146 281.99 18.599 281.219 17.6094C280.448 16.6094 280.062 15.4219 280.062 14.0469C280.062 12.1615 280.807 10.6146 282.297 9.40625C283.797 8.1875 285.74 7.57812 288.125 7.57812C289.51 7.57812 290.703 7.82292 291.703 8.3125C292.714 8.79167 293.604 9.54688 294.375 10.5781L291.484 13.3438C291.141 12.6771 290.682 12.1823 290.109 11.8594C289.547 11.526 288.865 11.3594 288.062 11.3594C287.094 11.3594 286.312 11.6042 285.719 12.0938C285.125 12.5729 284.828 13.1979 284.828 13.9688C284.828 15.1771 286.005 16.2812 288.359 17.2812C288.828 17.4792 289.188 17.6354 289.438 17.75C291.375 18.6354 292.807 19.6354 293.734 20.75C294.672 21.8646 295.141 23.1354 295.141 24.5625C295.141 26.7083 294.406 28.4219 292.938 29.7031C291.479 30.974 289.516 31.6094 287.047 31.6094C285.297 31.6094 283.797 31.3073 282.547 30.7031C281.297 30.099 280.365 29.2292 279.75 28.0938ZM322.578 19.6094C322.578 21.2448 322.271 22.7917 321.656 24.25C321.052 25.7083 320.177 26.9896 319.031 28.0938C317.844 29.2292 316.505 30.099 315.016 30.7031C313.526 31.3073 311.984 31.6094 310.391 31.6094C308.995 31.6094 307.625 31.375 306.281 30.9062C304.948 30.4271 303.724 29.7448 302.609 28.8594C301.172 27.7135 300.068 26.3438 299.297 24.75C298.536 23.1562 298.156 21.4427 298.156 19.6094C298.156 17.9635 298.458 16.4219 299.062 14.9844C299.667 13.5365 300.552 12.25 301.719 11.125C302.865 10.0104 304.193 9.14583 305.703 8.53125C307.224 7.91667 308.786 7.60938 310.391 7.60938C311.984 7.60938 313.531 7.91667 315.031 8.53125C316.542 9.14583 317.875 10.0104 319.031 11.125C320.188 12.25 321.068 13.5365 321.672 14.9844C322.276 16.4323 322.578 17.974 322.578 19.6094ZM310.391 27.25C312.464 27.25 314.172 26.526 315.516 25.0781C316.87 23.6198 317.547 21.7969 317.547 19.6094C317.547 17.4427 316.865 15.6198 315.5 14.1406C314.135 12.6615 312.432 11.9219 310.391 11.9219C308.318 11.9219 306.599 12.6615 305.234 14.1406C303.87 15.6094 303.188 17.4323 303.188 19.6094C303.188 21.8177 303.859 23.6458 305.203 25.0938C306.547 26.5312 308.276 27.25 310.391 27.25ZM326.719 31V8.125H331.609V26.8438H339.422V31H326.719ZM361.609 8.125V22.3594C361.609 25.4635 360.792 27.7812 359.156 29.3125C357.521 30.8438 355.057 31.6094 351.766 31.6094C348.422 31.6094 345.932 30.8438 344.297 29.3125C342.661 27.7812 341.844 25.4635 341.844 22.3594V8.125H346.703V21.5938C346.703 23.4792 347.12 24.901 347.953 25.8594C348.786 26.8073 350.031 27.2812 351.688 27.2812C353.354 27.2812 354.615 26.8021 355.469 25.8438C356.323 24.8854 356.75 23.4688 356.75 21.5938V8.125H361.609ZM385.109 14.0781C384.12 13.1927 383.104 12.5469 382.062 12.1406C381.021 11.724 379.906 11.5156 378.719 11.5156C376.281 11.5156 374.339 12.2448 372.891 13.7031C371.443 15.1615 370.719 17.1198 370.719 19.5781C370.719 21.9844 371.391 23.8958 372.734 25.3125C374.078 26.7188 375.911 27.4219 378.234 27.4219C379.557 27.4219 380.786 27.2031 381.922 26.7656C383.057 26.3177 384.109 25.651 385.078 24.7656L385.047 29.7812C384.005 30.3958 382.911 30.8542 381.766 31.1562C380.63 31.4583 379.432 31.6094 378.172 31.6094C374.526 31.6094 371.531 30.4792 369.188 28.2188C366.854 25.9479 365.688 23.0677 365.688 19.5781C365.688 16.099 366.859 13.2292 369.203 10.9688C371.547 8.70833 374.568 7.57812 378.266 7.57812C379.505 7.57812 380.703 7.70833 381.859 7.96875C383.016 8.22917 384.156 8.63021 385.281 9.17188L385.109 14.0781ZM389.75 31V8.125H394.641V31H389.75ZM423.297 19.6094C423.297 21.2448 422.99 22.7917 422.375 24.25C421.771 25.7083 420.896 26.9896 419.75 28.0938C418.562 29.2292 417.224 30.099 415.734 30.7031C414.245 31.3073 412.703 31.6094 411.109 31.6094C409.714 31.6094 408.344 31.375 407 30.9062C405.667 30.4271 404.443 29.7448 403.328 28.8594C401.891 27.7135 400.786 26.3438 400.016 24.75C399.255 23.1562 398.875 21.4427 398.875 19.6094C398.875 17.9635 399.177 16.4219 399.781 14.9844C400.385 13.5365 401.271 12.25 402.438 11.125C403.583 10.0104 404.911 9.14583 406.422 8.53125C407.943 7.91667 409.505 7.60938 411.109 7.60938C412.703 7.60938 414.25 7.91667 415.75 8.53125C417.26 9.14583 418.594 10.0104 419.75 11.125C420.906 12.25 421.786 13.5365 422.391 14.9844C422.995 16.4323 423.297 17.974 423.297 19.6094ZM411.109 27.25C413.182 27.25 414.891 26.526 416.234 25.0781C417.589 23.6198 418.266 21.7969 418.266 19.6094C418.266 17.4427 417.583 15.6198 416.219 14.1406C414.854 12.6615 413.151 11.9219 411.109 11.9219C409.036 11.9219 407.318 12.6615 405.953 14.1406C404.589 15.6094 403.906 17.4323 403.906 19.6094C403.906 21.8177 404.578 23.6458 405.922 25.0938C407.266 26.5312 408.995 27.25 411.109 27.25ZM427.438 31V8.125H432.516L442.641 21.4375C442.932 21.8125 443.25 22.3438 443.594 23.0312C443.948 23.7083 444.312 24.5104 444.688 25.4375C444.573 24.7604 444.49 24.0885 444.438 23.4219C444.385 22.7552 444.359 21.9219 444.359 20.9219V8.125H449.031V31H444.234L433.828 17.4375C433.536 17.0625 433.219 16.5365 432.875 15.8594C432.531 15.1719 432.167 14.3542 431.781 13.4062C431.896 14.0625 431.979 14.7292 432.031 15.4062C432.083 16.0729 432.109 16.9167 432.109 17.9375V31H427.438ZM454.125 31V8.125H467.594V12.25H459.016V16.9531H467.594V21.1094H459.016V26.8438H467.594V31H454.125ZM470.938 28.0938L473.656 25.0156C474 25.8594 474.552 26.526 475.312 27.0156C476.073 27.4948 476.927 27.7344 477.875 27.7344C479.021 27.7344 479.927 27.4635 480.594 26.9219C481.26 26.3802 481.594 25.651 481.594 24.7344C481.594 23.651 480.484 22.5729 478.266 21.5C477.547 21.1562 476.979 20.875 476.562 20.6562C474.562 19.6146 473.177 18.599 472.406 17.6094C471.635 16.6094 471.25 15.4219 471.25 14.0469C471.25 12.1615 471.995 10.6146 473.484 9.40625C474.984 8.1875 476.927 7.57812 479.312 7.57812C480.698 7.57812 481.891 7.82292 482.891 8.3125C483.901 8.79167 484.792 9.54688 485.562 10.5781L482.672 13.3438C482.328 12.6771 481.87 12.1823 481.297 11.8594C480.734 11.526 480.052 11.3594 479.25 11.3594C478.281 11.3594 477.5 11.6042 476.906 12.0938C476.312 12.5729 476.016 13.1979 476.016 13.9688C476.016 15.1771 477.193 16.2812 479.547 17.2812C480.016 17.4792 480.375 17.6354 480.625 17.75C482.562 18.6354 483.995 19.6354 484.922 20.75C485.859 21.8646 486.328 23.1354 486.328 24.5625C486.328 26.7083 485.594 28.4219 484.125 29.7031C482.667 30.974 480.703 31.6094 478.234 31.6094C476.484 31.6094 474.984 31.3073 473.734 30.7031C472.484 30.099 471.552 29.2292 470.938 28.0938ZM42.4062 60.2969L39.8438 52.9062C39.7708 52.6875 39.6771 52.3125 39.5625 51.7812C39.4479 51.25 39.3281 50.599 39.2031 49.8281C39.0677 50.5677 38.9375 51.2344 38.8125 51.8281C38.6875 52.4115 38.5938 52.8021 38.5312 53L36.0625 60.2969H42.4062ZM27.8438 69L36.5469 46.125H42.1406L50.9688 69H45.4062L43.5469 64.1406H34.6875L33.0938 69H27.8438ZM63.2188 69V46.125H68.1094V64.8438H75.9219V69H63.2188ZM90.8438 60.2969L88.2812 52.9062C88.2083 52.6875 88.1146 52.3125 88 51.7812C87.8854 51.25 87.7656 50.599 87.6406 49.8281C87.5052 50.5677 87.375 51.2344 87.25 51.8281C87.125 52.4115 87.0312 52.8021 86.9688 53L84.5 60.2969H90.8438ZM76.2812 69L84.9844 46.125H90.5781L99.4062 69H93.8438L91.9844 64.1406H83.125L81.5312 69H76.2812ZM109.672 69L113.156 46.125H118.281L122.688 59.5938C122.781 59.875 122.88 60.2865 122.984 60.8281C123.099 61.3698 123.203 61.9896 123.297 62.6875C123.38 61.9792 123.474 61.349 123.578 60.7969C123.682 60.2344 123.781 59.8229 123.875 59.5625L128.359 46.125H133.406L136.906 69H132.266L130.594 55.2031C130.469 54.1823 130.385 53.4115 130.344 52.8906C130.302 52.3698 130.281 51.8854 130.281 51.4375C130.281 51.1979 130.281 51.0208 130.281 50.9062C130.292 50.7812 130.302 50.6719 130.312 50.5781C130.156 51.474 130.005 52.25 129.859 52.9062C129.724 53.5521 129.599 54.0417 129.484 54.375L124.641 69H121.891L117.125 54.375C117.083 54.2396 116.99 53.8646 116.844 53.25C116.708 52.6354 116.516 51.7396 116.266 50.5625V51.2344C116.266 52.2969 116.172 53.599 115.984 55.1406L115.969 55.2031L114.312 69H109.672ZM140.094 69V46.125H153.562V50.25H144.984V54.9531H153.562V59.1094H144.984V64.8438H153.562V69H140.094ZM163.266 64.875H165.984C168.547 64.875 170.411 64.2917 171.578 63.125C172.755 61.9583 173.344 60.1094 173.344 57.5781C173.344 55.0573 172.755 53.2135 171.578 52.0469C170.411 50.8698 168.547 50.2812 165.984 50.2812H163.266V64.875ZM158.375 69V46.125H164.609C167.068 46.125 169.005 46.2969 170.422 46.6406C171.839 46.9844 173.083 47.5573 174.156 48.3594C175.542 49.3906 176.589 50.6927 177.297 52.2656C178.016 53.8281 178.375 55.6094 178.375 57.6094C178.375 59.6406 178.01 61.4427 177.281 63.0156C176.552 64.5781 175.484 65.8698 174.078 66.8906C173.036 67.6406 171.875 68.1823 170.594 68.5156C169.323 68.8385 167.458 69 165 69H163.266H158.375ZM182.562 69V46.125H187.453V69H182.562ZM197.578 64.875H200.297C202.859 64.875 204.724 64.2917 205.891 63.125C207.068 61.9583 207.656 60.1094 207.656 57.5781C207.656 55.0573 207.068 53.2135 205.891 52.0469C204.724 50.8698 202.859 50.2812 200.297 50.2812H197.578V64.875ZM192.688 69V46.125H198.922C201.38 46.125 203.318 46.2969 204.734 46.6406C206.151 46.9844 207.396 47.5573 208.469 48.3594C209.854 49.3906 210.901 50.6927 211.609 52.2656C212.328 53.8281 212.688 55.6094 212.688 57.6094C212.688 59.6406 212.323 61.4427 211.594 63.0156C210.865 64.5781 209.797 65.8698 208.391 66.8906C207.349 67.6406 206.188 68.1823 204.906 68.5156C203.635 68.8385 201.771 69 199.312 69H197.578H192.688ZM228.062 60.2969L225.5 52.9062C225.427 52.6875 225.333 52.3125 225.219 51.7812C225.104 51.25 224.984 50.599 224.859 49.8281C224.724 50.5677 224.594 51.2344 224.469 51.8281C224.344 52.4115 224.25 52.8021 224.188 53L221.719 60.2969H228.062ZM213.5 69L222.203 46.125H227.797L236.625 69H231.062L229.203 64.1406H220.344L218.75 69H213.5ZM35.4531 102.875H38.1719C40.7344 102.875 42.599 102.292 43.7656 101.125C44.9427 99.9583 45.5312 98.1094 45.5312 95.5781C45.5312 93.0573 44.9427 91.2135 43.7656 90.0469C42.599 88.8698 40.7344 88.2812 38.1719 88.2812H35.4531V102.875ZM30.5625 107V84.125H36.7969C39.2552 84.125 41.1927 84.2969 42.6094 84.6406C44.026 84.9844 45.2708 85.5573 46.3438 86.3594C47.7292 87.3906 48.776 88.6927 49.4844 90.2656C50.2031 91.8281 50.5625 93.6094 50.5625 95.6094C50.5625 97.6406 50.1979 99.4427 49.4688 101.016C48.7396 102.578 47.6719 103.87 46.2656 104.891C45.224 105.641 44.0625 106.182 42.7812 106.516C41.5104 106.839 39.6458 107 37.1875 107H35.4531H30.5625ZM54.6562 107V84.125H68.125V88.25H59.5469V92.9531H68.125V97.1094H59.5469V102.844H68.125V107H54.6562ZM91.3281 88.2812V107H86.4219V88.2812H80.8281V84.125H96.9531V88.2812H91.3281ZM119.797 84.125V98.3594C119.797 101.464 118.979 103.781 117.344 105.312C115.708 106.844 113.245 107.609 109.953 107.609C106.609 107.609 104.12 106.844 102.484 105.312C100.849 103.781 100.031 101.464 100.031 98.3594V84.125H104.891V97.5938C104.891 99.4792 105.307 100.901 106.141 101.859C106.974 102.807 108.219 103.281 109.875 103.281C111.542 103.281 112.802 102.802 113.656 101.844C114.51 100.885 114.938 99.4688 114.938 97.5938V84.125H119.797ZM134.719 107V84.125H139.797L149.922 97.4375C150.214 97.8125 150.531 98.3438 150.875 99.0312C151.229 99.7083 151.594 100.51 151.969 101.438C151.854 100.76 151.771 100.089 151.719 99.4219C151.667 98.7552 151.641 97.9219 151.641 96.9219V84.125H156.312V107H151.516L141.109 93.4375C140.818 93.0625 140.5 92.5365 140.156 91.8594C139.812 91.1719 139.448 90.3542 139.062 89.4062C139.177 90.0625 139.26 90.7292 139.312 91.4062C139.365 92.0729 139.391 92.9167 139.391 93.9375V107H134.719ZM161.406 107V84.125H174.875V88.25H166.297V92.9531H174.875V97.1094H166.297V102.844H174.875V107H161.406ZM191.047 94.9375H201.469C201.49 95.0729 201.5 95.2188 201.5 95.375C201.51 95.5312 201.516 95.7708 201.516 96.0938C201.516 99.5208 200.536 102.297 198.578 104.422C196.62 106.547 194.089 107.609 190.984 107.609C187.432 107.609 184.505 106.479 182.203 104.219C179.901 101.948 178.75 99.0677 178.75 95.5781C178.75 92.1198 179.906 89.2604 182.219 87C184.531 84.7396 187.453 83.6094 190.984 83.6094C192.849 83.6094 194.557 84 196.109 84.7812C197.661 85.5625 199.047 86.7292 200.266 88.2812L196.969 90.7188C196.146 89.6979 195.281 88.9635 194.375 88.5156C193.469 88.0573 192.422 87.8281 191.234 87.8281C188.974 87.8281 187.167 88.5312 185.812 89.9375C184.458 91.3438 183.781 93.224 183.781 95.5781C183.781 97.8906 184.458 99.7604 185.812 101.188C187.177 102.604 188.953 103.312 191.141 103.312C192.745 103.312 194.047 102.938 195.047 102.188C196.047 101.427 196.547 100.438 196.547 99.2188V98.9688H191.047V94.9375ZM228.828 95.6094C228.828 97.2448 228.521 98.7917 227.906 100.25C227.302 101.708 226.427 102.99 225.281 104.094C224.094 105.229 222.755 106.099 221.266 106.703C219.776 107.307 218.234 107.609 216.641 107.609C215.245 107.609 213.875 107.375 212.531 106.906C211.198 106.427 209.974 105.745 208.859 104.859C207.422 103.714 206.318 102.344 205.547 100.75C204.786 99.1562 204.406 97.4427 204.406 95.6094C204.406 93.9635 204.708 92.4219 205.312 90.9844C205.917 89.5365 206.802 88.25 207.969 87.125C209.115 86.0104 210.443 85.1458 211.953 84.5312C213.474 83.9167 215.036 83.6094 216.641 83.6094C218.234 83.6094 219.781 83.9167 221.281 84.5312C222.792 85.1458 224.125 86.0104 225.281 87.125C226.438 88.25 227.318 89.5365 227.922 90.9844C228.526 92.4323 228.828 93.974 228.828 95.6094ZM216.641 103.25C218.714 103.25 220.422 102.526 221.766 101.078C223.12 99.6198 223.797 97.7969 223.797 95.6094C223.797 93.4427 223.115 91.6198 221.75 90.1406C220.385 88.6615 218.682 87.9219 216.641 87.9219C214.568 87.9219 212.849 88.6615 211.484 90.1406C210.12 91.6094 209.438 93.4323 209.438 95.6094C209.438 97.8177 210.109 99.6458 211.453 101.094C212.797 102.531 214.526 103.25 216.641 103.25ZM251.391 90.0781C250.401 89.1927 249.385 88.5469 248.344 88.1406C247.302 87.724 246.188 87.5156 245 87.5156C242.562 87.5156 240.62 88.2448 239.172 89.7031C237.724 91.1615 237 93.1198 237 95.5781C237 97.9844 237.672 99.8958 239.016 101.312C240.359 102.719 242.193 103.422 244.516 103.422C245.839 103.422 247.068 103.203 248.203 102.766C249.339 102.318 250.391 101.651 251.359 100.766L251.328 105.781C250.286 106.396 249.193 106.854 248.047 107.156C246.911 107.458 245.714 107.609 244.453 107.609C240.807 107.609 237.812 106.479 235.469 104.219C233.135 101.948 231.969 99.0677 231.969 95.5781C231.969 92.099 233.141 89.2292 235.484 86.9688C237.828 84.7083 240.849 83.5781 244.547 83.5781C245.786 83.5781 246.984 83.7083 248.141 83.9688C249.297 84.2292 250.438 84.6302 251.562 85.1719L251.391 90.0781ZM256.031 107V84.125H260.922V107H256.031ZM289.578 95.6094C289.578 97.2448 289.271 98.7917 288.656 100.25C288.052 101.708 287.177 102.99 286.031 104.094C284.844 105.229 283.505 106.099 282.016 106.703C280.526 107.307 278.984 107.609 277.391 107.609C275.995 107.609 274.625 107.375 273.281 106.906C271.948 106.427 270.724 105.745 269.609 104.859C268.172 103.714 267.068 102.344 266.297 100.75C265.536 99.1562 265.156 97.4427 265.156 95.6094C265.156 93.9635 265.458 92.4219 266.062 90.9844C266.667 89.5365 267.552 88.25 268.719 87.125C269.865 86.0104 271.193 85.1458 272.703 84.5312C274.224 83.9167 275.786 83.6094 277.391 83.6094C278.984 83.6094 280.531 83.9167 282.031 84.5312C283.542 85.1458 284.875 86.0104 286.031 87.125C287.188 88.25 288.068 89.5365 288.672 90.9844C289.276 92.4323 289.578 93.974 289.578 95.6094ZM277.391 103.25C279.464 103.25 281.172 102.526 282.516 101.078C283.87 99.6198 284.547 97.7969 284.547 95.6094C284.547 93.4427 283.865 91.6198 282.5 90.1406C281.135 88.6615 279.432 87.9219 277.391 87.9219C275.318 87.9219 273.599 88.6615 272.234 90.1406C270.87 91.6094 270.188 93.4323 270.188 95.6094C270.188 97.8177 270.859 99.6458 272.203 101.094C273.547 102.531 275.276 103.25 277.391 103.25Z" fill="white"/>
<path d="M27 184H15C10.5817 184 7 180.418 7 176V118V23" stroke="white" stroke-width="1.5"/>
<circle cx="7" cy="17" r="6.25" stroke="white" stroke-width="1.5"/>
<rect x="25" y="160" width="317" height="65" rx="10" fill="#002A61"/>
<path d="M57.144 179.416H52.95V181.684H56.91V184.672H52.95V187.012H57.144V190H49.422V176.428H57.144V179.416ZM62.6396 175.06V190H59.3816V175.06H62.6396ZM71.2532 180.766V179.056C71.2532 178.456 71.3792 177.892 71.6312 177.364C71.8952 176.824 72.2432 176.356 72.6752 175.96C73.1192 175.564 73.6292 175.252 74.2052 175.024C74.7932 174.784 75.4112 174.664 76.0592 174.664C76.7072 174.664 77.3192 174.778 77.8952 175.006C78.4832 175.234 78.9932 175.546 79.4252 175.942C79.8692 176.338 80.2172 176.806 80.4692 177.346C80.7332 177.874 80.8652 178.444 80.8652 179.056V179.47H77.6072V179.056C77.6072 178.84 77.5652 178.636 77.4812 178.444C77.4092 178.24 77.3012 178.06 77.1572 177.904C77.0252 177.748 76.8632 177.622 76.6712 177.526C76.4912 177.43 76.2872 177.382 76.0592 177.382C75.6152 177.382 75.2432 177.55 74.9432 177.886C74.6552 178.222 74.5112 178.612 74.5112 179.056V180.766H76.3832V183.484H74.5112V190H71.2532V183.484H70.0832V180.766H71.2532ZM80.8652 190H77.6072V180.766H80.8652V190ZM83.0945 180.766H86.3525V181.936C86.7965 181.396 87.2465 181.036 87.7025 180.856C88.1585 180.664 88.6925 180.568 89.3045 180.568C89.9525 180.568 90.5045 180.676 90.9605 180.892C91.4285 181.096 91.8245 181.39 92.1485 181.774C92.4125 182.086 92.5925 182.434 92.6885 182.818C92.7845 183.202 92.8325 183.64 92.8325 184.132V190H89.5745V185.338C89.5745 184.882 89.5385 184.516 89.4665 184.24C89.4065 183.952 89.2925 183.724 89.1245 183.556C88.9805 183.412 88.8185 183.31 88.6385 183.25C88.4585 183.19 88.2665 183.16 88.0625 183.16C87.5105 183.16 87.0845 183.328 86.7845 183.664C86.4965 183.988 86.3525 184.456 86.3525 185.068V190H83.0945V180.766ZM98.0716 185.356C98.0716 185.656 98.1256 185.938 98.2336 186.202C98.3416 186.454 98.4856 186.676 98.6656 186.868C98.8576 187.06 99.0796 187.21 99.3316 187.318C99.5956 187.426 99.8776 187.48 100.178 187.48C100.466 187.48 100.736 187.426 100.988 187.318C101.252 187.21 101.474 187.06 101.654 186.868C101.846 186.676 101.996 186.454 102.104 186.202C102.224 185.95 102.284 185.68 102.284 185.392C102.284 185.104 102.224 184.834 102.104 184.582C101.996 184.318 101.846 184.09 101.654 183.898C101.474 183.706 101.252 183.556 100.988 183.448C100.736 183.34 100.466 183.286 100.178 183.286C99.8776 183.286 99.5956 183.34 99.3316 183.448C99.0796 183.556 98.8576 183.706 98.6656 183.898C98.4856 184.09 98.3416 184.312 98.2336 184.564C98.1256 184.804 98.0716 185.068 98.0716 185.356ZM102.176 180.766H105.452V190H102.176V188.974C101.48 189.85 100.538 190.288 99.3496 190.288C98.6776 190.288 98.0596 190.168 97.4956 189.928C96.9316 189.676 96.4396 189.328 96.0196 188.884C95.5996 188.44 95.2696 187.918 95.0296 187.318C94.8016 186.718 94.6876 186.064 94.6876 185.356C94.6876 184.696 94.8016 184.072 95.0296 183.484C95.2576 182.884 95.5756 182.362 95.9836 181.918C96.3916 181.474 96.8776 181.126 97.4416 180.874C98.0056 180.61 98.6296 180.478 99.3136 180.478C100.466 180.478 101.42 180.88 102.176 181.684V180.766ZM107.669 180.766H110.927V181.936C111.371 181.396 111.821 181.036 112.277 180.856C112.733 180.664 113.267 180.568 113.879 180.568C114.527 180.568 115.079 180.676 115.535 180.892C116.003 181.096 116.399 181.39 116.723 181.774C116.987 182.086 117.167 182.434 117.263 182.818C117.359 183.202 117.407 183.64 117.407 184.132V190H114.149V185.338C114.149 184.882 114.113 184.516 114.041 184.24C113.981 183.952 113.867 183.724 113.699 183.556C113.555 183.412 113.393 183.31 113.213 183.25C113.033 183.19 112.841 183.16 112.637 183.16C112.085 183.16 111.659 183.328 111.359 183.664C111.071 183.988 110.927 184.456 110.927 185.068V190H107.669V180.766ZM126.588 183.754C126.024 183.37 125.454 183.178 124.878 183.178C124.566 183.178 124.272 183.232 123.996 183.34C123.732 183.448 123.498 183.604 123.294 183.808C123.09 184 122.928 184.234 122.808 184.51C122.7 184.774 122.646 185.074 122.646 185.41C122.646 185.734 122.7 186.034 122.808 186.31C122.928 186.574 123.084 186.808 123.276 187.012C123.48 187.204 123.72 187.354 123.996 187.462C124.272 187.57 124.566 187.624 124.878 187.624C125.49 187.624 126.06 187.414 126.588 186.994V189.766C125.784 190.114 125.022 190.288 124.302 190.288C123.63 190.288 122.988 190.174 122.376 189.946C121.776 189.718 121.242 189.394 120.774 188.974C120.318 188.542 119.952 188.032 119.676 187.444C119.4 186.844 119.262 186.178 119.262 185.446C119.262 184.714 119.394 184.048 119.658 183.448C119.922 182.836 120.282 182.314 120.738 181.882C121.194 181.438 121.734 181.096 122.358 180.856C122.994 180.604 123.672 180.478 124.392 180.478C125.184 180.478 125.916 180.646 126.588 180.982V183.754ZM131.704 180.766V190H128.446V180.766H131.704ZM128.23 177.22C128.23 176.968 128.278 176.734 128.374 176.518C128.47 176.29 128.602 176.092 128.77 175.924C128.938 175.756 129.13 175.624 129.346 175.528C129.574 175.432 129.814 175.384 130.066 175.384C130.318 175.384 130.552 175.432 130.768 175.528C130.996 175.624 131.194 175.756 131.362 175.924C131.53 176.092 131.662 176.29 131.758 176.518C131.854 176.734 131.902 176.968 131.902 177.22C131.902 177.472 131.854 177.712 131.758 177.94C131.662 178.156 131.53 178.348 131.362 178.516C131.194 178.684 130.996 178.816 130.768 178.912C130.552 179.008 130.318 179.056 130.066 179.056C129.814 179.056 129.574 179.008 129.346 178.912C129.13 178.816 128.938 178.684 128.77 178.516C128.602 178.348 128.47 178.156 128.374 177.94C128.278 177.712 128.23 177.472 128.23 177.22ZM136.954 185.356C136.954 185.656 137.008 185.938 137.116 186.202C137.224 186.454 137.368 186.676 137.548 186.868C137.74 187.06 137.962 187.21 138.214 187.318C138.478 187.426 138.76 187.48 139.06 187.48C139.348 187.48 139.618 187.426 139.87 187.318C140.134 187.21 140.356 187.06 140.536 186.868C140.728 186.676 140.878 186.454 140.986 186.202C141.106 185.95 141.166 185.68 141.166 185.392C141.166 185.104 141.106 184.834 140.986 184.582C140.878 184.318 140.728 184.09 140.536 183.898C140.356 183.706 140.134 183.556 139.87 183.448C139.618 183.34 139.348 183.286 139.06 183.286C138.76 183.286 138.478 183.34 138.214 183.448C137.962 183.556 137.74 183.706 137.548 183.898C137.368 184.09 137.224 184.312 137.116 184.564C137.008 184.804 136.954 185.068 136.954 185.356ZM141.058 180.766H144.334V190H141.058V188.974C140.362 189.85 139.42 190.288 138.232 190.288C137.56 190.288 136.942 190.168 136.378 189.928C135.814 189.676 135.322 189.328 134.902 188.884C134.482 188.44 134.152 187.918 133.912 187.318C133.684 186.718 133.57 186.064 133.57 185.356C133.57 184.696 133.684 184.072 133.912 183.484C134.14 182.884 134.458 182.362 134.866 181.918C135.274 181.474 135.76 181.126 136.324 180.874C136.888 180.61 137.512 180.478 138.196 180.478C139.348 180.478 140.302 180.88 141.058 181.684V180.766ZM146.552 180.766H149.81V181.9C150.698 181.048 151.694 180.622 152.798 180.622C154.166 180.622 155.21 181.198 155.93 182.35C156.662 181.186 157.706 180.604 159.062 180.604C159.494 180.604 159.902 180.67 160.286 180.802C160.67 180.922 161 181.12 161.276 181.396C161.552 181.66 161.768 182.008 161.924 182.44C162.092 182.872 162.176 183.394 162.176 184.006V190H158.918V185.446C158.918 184.978 158.882 184.594 158.81 184.294C158.75 183.994 158.654 183.76 158.522 183.592C158.402 183.424 158.258 183.31 158.09 183.25C157.922 183.19 157.742 183.16 157.55 183.16C156.506 183.16 155.984 183.922 155.984 185.446V190H152.726V185.446C152.726 184.978 152.696 184.594 152.636 184.294C152.576 183.982 152.486 183.736 152.366 183.556C152.258 183.376 152.114 183.256 151.934 183.196C151.754 183.124 151.544 183.088 151.304 183.088C151.1 183.088 150.908 183.118 150.728 183.178C150.548 183.238 150.386 183.358 150.242 183.538C150.11 183.706 150.002 183.946 149.918 184.258C149.846 184.558 149.81 184.954 149.81 185.446V190H146.552V180.766ZM167.669 180.766V190H164.411V180.766H167.669ZM164.195 177.22C164.195 176.968 164.243 176.734 164.339 176.518C164.435 176.29 164.567 176.092 164.735 175.924C164.903 175.756 165.095 175.624 165.311 175.528C165.539 175.432 165.779 175.384 166.031 175.384C166.283 175.384 166.517 175.432 166.733 175.528C166.961 175.624 167.159 175.756 167.327 175.924C167.495 176.092 167.627 176.29 167.723 176.518C167.819 176.734 167.867 176.968 167.867 177.22C167.867 177.472 167.819 177.712 167.723 177.94C167.627 178.156 167.495 178.348 167.327 178.516C167.159 178.684 166.961 178.816 166.733 178.912C166.517 179.008 166.283 179.056 166.031 179.056C165.779 179.056 165.539 179.008 165.311 178.912C165.095 178.816 164.903 178.684 164.735 178.516C164.567 178.348 164.435 178.156 164.339 177.94C164.243 177.712 164.195 177.472 164.195 177.22ZM176.645 184.042C176.537 183.586 176.315 183.22 175.979 182.944C175.643 182.668 175.235 182.53 174.755 182.53C174.251 182.53 173.837 182.662 173.513 182.926C173.201 183.19 173.003 183.562 172.919 184.042H176.645ZM172.829 185.932C172.829 187.336 173.489 188.038 174.809 188.038C175.517 188.038 176.051 187.75 176.411 187.174H179.561C178.925 189.286 177.335 190.342 174.791 190.342C174.011 190.342 173.297 190.228 172.649 190C172.001 189.76 171.443 189.424 170.975 188.992C170.519 188.56 170.165 188.044 169.913 187.444C169.661 186.844 169.535 186.172 169.535 185.428C169.535 184.66 169.655 183.97 169.895 183.358C170.135 182.734 170.477 182.206 170.921 181.774C171.365 181.342 171.899 181.012 172.523 180.784C173.159 180.544 173.873 180.424 174.665 180.424C175.445 180.424 176.147 180.544 176.771 180.784C177.395 181.012 177.923 181.348 178.355 181.792C178.787 182.236 179.117 182.782 179.345 183.43C179.573 184.066 179.687 184.786 179.687 185.59V185.932H172.829ZM181.55 180.766H184.808V181.936C185.252 181.396 185.702 181.036 186.158 180.856C186.614 180.664 187.148 180.568 187.76 180.568C188.408 180.568 188.96 180.676 189.416 180.892C189.884 181.096 190.28 181.39 190.604 181.774C190.868 182.086 191.048 182.434 191.144 182.818C191.24 183.202 191.288 183.64 191.288 184.132V190H188.03V185.338C188.03 184.882 187.994 184.516 187.922 184.24C187.862 183.952 187.748 183.724 187.58 183.556C187.436 183.412 187.274 183.31 187.094 183.25C186.914 183.19 186.722 183.16 186.518 183.16C185.966 183.16 185.54 183.328 185.24 183.664C184.952 183.988 184.808 184.456 184.808 185.068V190H181.55V180.766ZM197.139 183.484V190H193.881V183.484H192.801V180.766H193.881V177.994H197.139V180.766H198.993V183.484H197.139ZM203.454 185.338C203.454 185.65 203.508 185.938 203.616 186.202C203.736 186.454 203.886 186.676 204.066 186.868C204.258 187.06 204.48 187.21 204.732 187.318C204.996 187.426 205.272 187.48 205.56 187.48C205.848 187.48 206.118 187.426 206.37 187.318C206.634 187.21 206.856 187.06 207.036 186.868C207.228 186.676 207.378 186.454 207.486 186.202C207.606 185.938 207.666 185.656 207.666 185.356C207.666 185.068 207.606 184.798 207.486 184.546C207.378 184.282 207.228 184.054 207.036 183.862C206.856 183.67 206.634 183.52 206.37 183.412C206.118 183.304 205.848 183.25 205.56 183.25C205.272 183.25 204.996 183.304 204.732 183.412C204.48 183.52 204.258 183.67 204.066 183.862C203.886 184.054 203.736 184.276 203.616 184.528C203.508 184.78 203.454 185.05 203.454 185.338ZM200.016 185.302C200.016 184.618 200.154 183.982 200.43 183.394C200.706 182.794 201.09 182.278 201.582 181.846C202.074 181.402 202.656 181.054 203.328 180.802C204.012 180.55 204.756 180.424 205.56 180.424C206.352 180.424 207.084 180.55 207.756 180.802C208.44 181.042 209.028 181.384 209.52 181.828C210.024 182.26 210.414 182.782 210.69 183.394C210.966 183.994 211.104 184.66 211.104 185.392C211.104 186.124 210.96 186.796 210.672 187.408C210.396 188.008 210.012 188.53 209.52 188.974C209.028 189.406 208.434 189.742 207.738 189.982C207.054 190.222 206.31 190.342 205.506 190.342C204.714 190.342 203.982 190.222 203.31 189.982C202.638 189.742 202.056 189.4 201.564 188.956C201.084 188.512 200.706 187.984 200.43 187.372C200.154 186.748 200.016 186.058 200.016 185.302ZM222.858 182.638C224.64 182.638 225.702 184.006 225.702 185.698C225.702 187.408 224.73 188.902 222.876 188.902C221.076 188.902 220.104 187.336 220.104 185.68C220.104 184.096 221.184 182.638 222.858 182.638ZM227.07 181.54H225.63V182.746H225.594C224.892 181.81 223.83 181.306 222.678 181.306C220.176 181.306 218.628 183.448 218.628 185.806C218.628 188.2 220.158 190.234 222.696 190.234C223.83 190.234 224.91 189.73 225.594 188.812H225.63V194.752H227.07V181.54ZM231.069 181.54H229.629V186.418C229.629 188.668 230.475 190.234 232.977 190.234C235.479 190.234 236.325 188.668 236.325 186.418V181.54H234.885V186.256C234.885 187.678 234.723 188.902 232.977 188.902C231.231 188.902 231.069 187.678 231.069 186.256V181.54ZM246.31 186.076C246.454 183.556 245.014 181.306 242.296 181.306C239.65 181.306 238.192 183.376 238.192 185.878C238.192 188.308 239.812 190.234 242.332 190.234C244.06 190.234 245.428 189.37 246.238 187.858L245.014 187.156C244.456 188.164 243.664 188.902 242.44 188.902C240.802 188.902 239.686 187.642 239.668 186.076H246.31ZM239.74 184.852C239.92 183.628 241.072 182.638 242.314 182.638C243.574 182.638 244.6 183.628 244.798 184.852H239.74ZM255.259 181.54H253.819V190H255.259V185.986C255.259 184.474 255.385 182.638 257.365 182.638C259.039 182.638 259.147 183.862 259.147 185.23V190H260.587V184.978C260.587 182.998 260.047 181.306 257.707 181.306C256.663 181.306 255.889 181.756 255.295 182.566H255.259V181.54ZM270.691 186.076C270.835 183.556 269.395 181.306 266.677 181.306C264.031 181.306 262.573 183.376 262.573 185.878C262.573 188.308 264.193 190.234 266.713 190.234C268.441 190.234 269.809 189.37 270.619 187.858L269.395 187.156C268.837 188.164 268.045 188.902 266.821 188.902C265.183 188.902 264.067 187.642 264.049 186.076H270.691ZM264.121 184.852C264.301 183.628 265.453 182.638 266.695 182.638C267.955 182.638 268.981 183.628 269.179 184.852H264.121ZM278.945 182.152C278.189 181.612 277.253 181.306 276.335 181.306C273.851 181.306 271.817 183.25 271.817 185.77C271.817 188.326 273.761 190.234 276.317 190.234C277.325 190.234 278.171 189.928 278.999 189.37V187.444H278.963C278.261 188.362 277.415 188.902 276.209 188.902C274.445 188.902 273.293 187.444 273.293 185.77C273.293 184.078 274.535 182.638 276.281 182.638C277.415 182.638 278.243 183.214 278.909 184.06H278.945V182.152ZM288.585 186.076C288.729 183.556 287.289 181.306 284.571 181.306C281.925 181.306 280.467 183.376 280.467 185.878C280.467 188.308 282.087 190.234 284.607 190.234C286.335 190.234 287.703 189.37 288.513 187.858L287.289 187.156C286.731 188.164 285.939 188.902 284.715 188.902C283.077 188.902 281.961 187.642 281.943 186.076H288.585ZM282.015 184.852C282.195 183.628 283.347 182.638 284.589 182.638C285.849 182.638 286.875 183.628 287.073 184.852H282.015ZM295.183 182.872C294.805 181.99 293.905 181.306 292.933 181.306C291.565 181.306 290.413 182.278 290.413 183.7C290.413 186.364 294.229 185.716 294.229 187.606C294.229 188.38 293.635 188.902 292.861 188.902C291.907 188.902 291.493 188.344 291.133 187.552L289.855 188.092C290.305 189.424 291.421 190.234 292.843 190.234C294.409 190.234 295.705 189.082 295.705 187.48C295.705 186.058 294.733 185.464 293.743 185.05C292.753 184.636 291.781 184.348 291.781 183.574C291.781 183.034 292.321 182.638 292.825 182.638C293.347 182.638 293.779 183.052 293.977 183.502L295.183 182.872ZM299.457 181.54H298.017V190H299.457V181.54ZM298.737 177.328C298.179 177.328 297.711 177.796 297.711 178.354C297.711 178.93 298.179 179.38 298.737 179.38C299.295 179.38 299.763 178.93 299.763 178.354C299.763 177.796 299.295 177.328 298.737 177.328ZM303.97 182.872H305.482V181.54H303.97V178.498H302.53V181.54H301.648V182.872H302.53V190H303.97V182.872ZM310.292 182.638C312.074 182.638 313.136 184.006 313.136 185.698C313.136 187.408 312.164 188.902 310.31 188.902C308.51 188.902 307.538 187.336 307.538 185.68C307.538 184.096 308.618 182.638 310.292 182.638ZM314.504 181.54H313.064V182.746H313.028C312.326 181.846 311.282 181.306 310.13 181.306C307.592 181.306 306.062 183.376 306.062 185.788C306.062 188.128 307.628 190.234 310.112 190.234C311.3 190.234 312.29 189.766 313.028 188.83H313.064V190H314.504V181.54ZM321.797 182.872C321.419 181.99 320.519 181.306 319.547 181.306C318.179 181.306 317.027 182.278 317.027 183.7C317.027 186.364 320.843 185.716 320.843 187.606C320.843 188.38 320.249 188.902 319.475 188.902C318.521 188.902 318.107 188.344 317.747 187.552L316.469 188.092C316.919 189.424 318.035 190.234 319.457 190.234C321.023 190.234 322.319 189.082 322.319 187.48C322.319 186.058 321.347 185.464 320.357 185.05C319.367 184.636 318.395 184.348 318.395 183.574C318.395 183.034 318.935 182.638 319.439 182.638C319.961 182.638 320.393 183.052 320.591 183.502L321.797 182.872ZM53.418 202.638C55.2 202.638 56.262 204.006 56.262 205.698C56.262 207.408 55.29 208.902 53.436 208.902C51.636 208.902 50.664 207.336 50.664 205.68C50.664 204.096 51.744 202.638 53.418 202.638ZM50.736 201.54H49.296V214.752H50.736V208.812H50.772C51.456 209.73 52.518 210.234 53.67 210.234C56.208 210.234 57.738 208.2 57.738 205.788C57.738 203.448 56.172 201.306 53.688 201.306C52.518 201.306 51.474 201.81 50.772 202.746H50.736V201.54ZM63.2667 202.638C65.0487 202.638 66.1107 204.006 66.1107 205.698C66.1107 207.408 65.1387 208.902 63.2847 208.902C61.4847 208.902 60.5127 207.336 60.5127 205.68C60.5127 204.096 61.5927 202.638 63.2667 202.638ZM67.4787 201.54H66.0387V202.746H66.0027C65.3007 201.846 64.2567 201.306 63.1047 201.306C60.5667 201.306 59.0367 203.376 59.0367 205.788C59.0367 208.128 60.6027 210.234 63.0867 210.234C64.2747 210.234 65.2647 209.766 66.0027 208.83H66.0387V210H67.4787V201.54ZM71.5133 201.54H70.0733V210H71.5133V205.77C71.5133 204.672 71.5853 202.638 73.1693 202.638C73.5473 202.638 73.7453 202.818 74.0333 203.016L74.7173 201.702C74.3033 201.468 73.9073 201.306 73.4213 201.306C72.4853 201.306 72.0533 201.792 71.5493 202.458H71.5133V201.54ZM79.6846 202.638C81.4666 202.638 82.5286 204.006 82.5286 205.698C82.5286 207.408 81.5566 208.902 79.7026 208.902C77.9026 208.902 76.9306 207.336 76.9306 205.68C76.9306 204.096 78.0106 202.638 79.6846 202.638ZM83.8966 201.54H82.4566V202.746H82.4206C81.7186 201.846 80.6746 201.306 79.5226 201.306C76.9846 201.306 75.4546 203.376 75.4546 205.788C75.4546 208.128 77.0206 210.234 79.5046 210.234C80.6926 210.234 81.6826 209.766 82.4206 208.83H82.4566V210H83.8966V201.54ZM95.6104 202.638C97.3924 202.638 98.4544 204.006 98.4544 205.698C98.4544 207.408 97.4824 208.902 95.6284 208.902C93.8284 208.902 92.8564 207.336 92.8564 205.68C92.8564 204.096 93.9364 202.638 95.6104 202.638ZM98.3824 210H99.8224V195.15H98.3824V202.746H98.3464C97.6624 201.846 96.5824 201.306 95.4484 201.306C92.9104 201.306 91.3804 203.376 91.3804 205.788C91.3804 208.128 92.9464 210.234 95.4304 210.234C96.5824 210.234 97.6444 209.748 98.3464 208.83H98.3824V210ZM105.999 202.638C107.781 202.638 108.843 204.006 108.843 205.698C108.843 207.408 107.871 208.902 106.017 208.902C104.217 208.902 103.245 207.336 103.245 205.68C103.245 204.096 104.325 202.638 105.999 202.638ZM110.211 201.54H108.771V202.746H108.735C108.033 201.846 106.989 201.306 105.837 201.306C103.299 201.306 101.769 203.376 101.769 205.788C101.769 208.128 103.335 210.234 105.819 210.234C107.007 210.234 107.997 209.766 108.735 208.83H108.771V210H110.211V201.54ZM114.246 201.54H112.806V210H114.246V205.77C114.246 204.672 114.318 202.638 115.902 202.638C116.28 202.638 116.478 202.818 116.766 203.016L117.45 201.702C117.036 201.468 116.64 201.306 116.154 201.306C115.218 201.306 114.786 201.792 114.282 202.458H114.246V201.54ZM120.311 195.15H118.871V210H120.311V195.15ZM130.347 206.076C130.491 203.556 129.051 201.306 126.333 201.306C123.687 201.306 122.229 203.376 122.229 205.878C122.229 208.308 123.849 210.234 126.369 210.234C128.097 210.234 129.465 209.37 130.275 207.858L129.051 207.156C128.493 208.164 127.701 208.902 126.477 208.902C124.839 208.902 123.723 207.642 123.705 206.076H130.347ZM123.777 204.852C123.957 203.628 125.109 202.638 126.351 202.638C127.611 202.638 128.637 203.628 128.835 204.852H123.777ZM138.144 201.54H136.506L140.664 210.558L144.804 201.54H143.184L140.664 207.228L138.144 201.54ZM147.898 201.54H146.458V210H147.898V201.54ZM147.178 197.328C146.62 197.328 146.152 197.796 146.152 198.354C146.152 198.93 146.62 199.38 147.178 199.38C147.736 199.38 148.204 198.93 148.204 198.354C148.204 197.796 147.736 197.328 147.178 197.328ZM154.409 202.638C156.191 202.638 157.253 204.006 157.253 205.698C157.253 207.408 156.281 208.902 154.427 208.902C152.627 208.902 151.655 207.336 151.655 205.68C151.655 204.096 152.735 202.638 154.409 202.638ZM157.181 210H158.621V195.15H157.181V202.746H157.145C156.461 201.846 155.381 201.306 154.247 201.306C151.709 201.306 150.179 203.376 150.179 205.788C150.179 208.128 151.745 210.234 154.229 210.234C155.381 210.234 156.443 209.748 157.145 208.83H157.181V210ZM164.798 202.638C166.58 202.638 167.642 204.006 167.642 205.698C167.642 207.408 166.67 208.902 164.816 208.902C163.016 208.902 162.044 207.336 162.044 205.68C162.044 204.096 163.124 202.638 164.798 202.638ZM169.01 201.54H167.57V202.746H167.534C166.832 201.846 165.788 201.306 164.636 201.306C162.098 201.306 160.568 203.376 160.568 205.788C160.568 208.128 162.134 210.234 164.618 210.234C165.806 210.234 166.796 209.766 167.534 208.83H167.57V210H169.01V201.54ZM180.724 202.638C182.506 202.638 183.568 204.006 183.568 205.698C183.568 207.408 182.596 208.902 180.742 208.902C178.942 208.902 177.97 207.336 177.97 205.68C177.97 204.096 179.05 202.638 180.724 202.638ZM184.936 201.54H183.496V202.746H183.46C182.758 201.846 181.714 201.306 180.562 201.306C178.024 201.306 176.494 203.376 176.494 205.788C176.494 208.128 178.06 210.234 180.544 210.234C181.732 210.234 182.722 209.766 183.46 208.83H183.496V210H184.936V201.54ZM194.651 202.872H196.163V201.54H194.651V198.498H193.211V201.54H192.329V202.872H193.211V210H194.651V202.872ZM198.796 201.54H197.356V206.418C197.356 208.668 198.202 210.234 200.704 210.234C203.206 210.234 204.052 208.668 204.052 206.418V201.54H202.612V206.256C202.612 207.678 202.45 208.902 200.704 208.902C198.958 208.902 198.796 207.678 198.796 206.256V201.54ZM211.301 202.872C210.923 201.99 210.023 201.306 209.051 201.306C207.683 201.306 206.531 202.278 206.531 203.7C206.531 206.364 210.347 205.716 210.347 207.606C210.347 208.38 209.753 208.902 208.979 208.902C208.025 208.902 207.611 208.344 207.251 207.552L205.973 208.092C206.423 209.424 207.539 210.234 208.961 210.234C210.527 210.234 211.823 209.082 211.823 207.48C211.823 206.058 210.851 205.464 209.861 205.05C208.871 204.636 207.899 204.348 207.899 203.574C207.899 203.034 208.439 202.638 208.943 202.638C209.465 202.638 209.897 203.052 210.095 203.502L211.301 202.872ZM223.451 202.638C225.233 202.638 226.295 204.006 226.295 205.698C226.295 207.408 225.323 208.902 223.469 208.902C221.669 208.902 220.697 207.336 220.697 205.68C220.697 204.096 221.777 202.638 223.451 202.638ZM220.769 201.54H219.329V214.752H220.769V208.812H220.805C221.489 209.73 222.551 210.234 223.703 210.234C226.241 210.234 227.771 208.2 227.771 205.788C227.771 203.448 226.205 201.306 223.721 201.306C222.551 201.306 221.507 201.81 220.805 202.746H220.769V201.54ZM231.158 201.54H229.718V210H231.158V205.77C231.158 204.672 231.23 202.638 232.814 202.638C233.192 202.638 233.39 202.818 233.678 203.016L234.362 201.702C233.948 201.468 233.552 201.306 233.066 201.306C232.13 201.306 231.698 201.792 231.194 202.458H231.158V201.54ZM239.509 210.234C241.975 210.234 243.955 208.272 243.955 205.788C243.955 203.304 241.993 201.306 239.509 201.306C237.025 201.306 235.063 203.304 235.063 205.788C235.063 208.272 237.043 210.234 239.509 210.234ZM239.509 202.638C241.291 202.638 242.515 204.06 242.515 205.77C242.515 207.498 241.291 208.902 239.509 208.902C237.727 208.902 236.503 207.498 236.503 205.77C236.503 204.06 237.727 202.638 239.509 202.638ZM248.411 209.208L245.675 214.752H247.313L253.559 201.54H251.921L249.185 207.606L246.197 201.54H244.523L248.411 209.208ZM262.253 206.076C262.397 203.556 260.957 201.306 258.239 201.306C255.593 201.306 254.135 203.376 254.135 205.878C254.135 208.308 255.755 210.234 258.275 210.234C260.003 210.234 261.371 209.37 262.181 207.858L260.957 207.156C260.399 208.164 259.607 208.902 258.383 208.902C256.745 208.902 255.629 207.642 255.611 206.076H262.253ZM255.683 204.852C255.863 203.628 257.015 202.638 258.257 202.638C259.517 202.638 260.543 203.628 260.741 204.852H255.683ZM270.507 202.152C269.751 201.612 268.815 201.306 267.897 201.306C265.413 201.306 263.379 203.25 263.379 205.77C263.379 208.326 265.323 210.234 267.879 210.234C268.887 210.234 269.733 209.928 270.561 209.37V207.444H270.525C269.823 208.362 268.977 208.902 267.771 208.902C266.007 208.902 264.855 207.444 264.855 205.77C264.855 204.078 266.097 202.638 267.843 202.638C268.977 202.638 269.805 203.214 270.471 204.06H270.507V202.152ZM274.298 202.872H275.81V201.54H274.298V198.498H272.858V201.54H271.976V202.872H272.858V210H274.298V202.872ZM280.8 210.234C283.266 210.234 285.246 208.272 285.246 205.788C285.246 203.304 283.284 201.306 280.8 201.306C278.316 201.306 276.354 203.304 276.354 205.788C276.354 208.272 278.334 210.234 280.8 210.234ZM280.8 202.638C282.582 202.638 283.806 204.06 283.806 205.77C283.806 207.498 282.582 208.902 280.8 208.902C279.018 208.902 277.794 207.498 277.794 205.77C277.794 204.06 279.018 202.638 280.8 202.638ZM291.844 202.872C291.466 201.99 290.566 201.306 289.594 201.306C288.226 201.306 287.074 202.278 287.074 203.7C287.074 206.364 290.89 205.716 290.89 207.606C290.89 208.38 290.296 208.902 289.522 208.902C288.568 208.902 288.154 208.344 287.794 207.552L286.516 208.092C286.966 209.424 288.082 210.234 289.504 210.234C291.07 210.234 292.366 209.082 292.366 207.48C292.366 206.058 291.394 205.464 290.404 205.05C289.414 204.636 288.442 204.348 288.442 203.574C288.442 203.034 288.982 202.638 289.486 202.638C290.008 202.638 290.44 203.052 290.638 203.502L291.844 202.872Z" fill="white"/>
</svg>
