<svg width="550" height="183" viewBox="0 0 550 183" fill="none" xmlns="http://www.w3.org/2000/svg">
<path d="M27 155H15C10.5817 155 7 151.418 7 147V14" stroke="white" stroke-width="1.5"/>
<path d="M12.622 7.0784C12.622 10.6144 9.92461 13.4068 6.68598 13.4068C3.44736 13.4068 0.75 10.6144 0.75 7.0784C0.75 3.54244 3.44736 0.75 6.68598 0.75C9.92461 0.75 12.622 3.54244 12.622 7.0784Z" stroke="white" stroke-width="1.5"/>
<rect x="25" y="125" width="409" height="58" rx="16" fill="#002A61"/>
<path d="M50.802 155.96L49.218 151.442L47.634 155.96H50.802ZM51.738 158.642H46.698L45.888 161H42.126L47.292 147.428H51.144L56.31 161H52.548L51.738 158.642ZM60.5189 156.356C60.5189 156.656 60.5729 156.938 60.6809 157.202C60.7889 157.454 60.9329 157.676 61.1129 157.868C61.3049 158.06 61.5269 158.21 61.7789 158.318C62.0429 158.426 62.3249 158.48 62.6249 158.48C62.9129 158.48 63.1829 158.426 63.4349 158.318C63.6989 158.21 63.9209 158.06 64.1009 157.868C64.2929 157.676 64.4429 157.454 64.5509 157.202C64.6709 156.95 64.7309 156.68 64.7309 156.392C64.7309 156.104 64.6709 155.834 64.5509 155.582C64.4429 155.318 64.2929 155.09 64.1009 154.898C63.9209 154.706 63.6989 154.556 63.4349 154.448C63.1829 154.34 62.9129 154.286 62.6249 154.286C62.3369 154.286 62.0609 154.34 61.7969 154.448C61.5449 154.556 61.3229 154.706 61.1309 154.898C60.9509 155.09 60.8009 155.312 60.6809 155.564C60.5729 155.804 60.5189 156.068 60.5189 156.356ZM64.6229 146.06H67.8989V161H64.6229V159.974C63.9269 160.85 62.9849 161.288 61.7969 161.288C61.1249 161.288 60.5069 161.162 59.9429 160.91C59.3789 160.658 58.8869 160.31 58.4669 159.866C58.0469 159.422 57.7169 158.9 57.4769 158.3C57.2489 157.7 57.1349 157.052 57.1349 156.356C57.1349 155.696 57.2429 155.072 57.4589 154.484C57.6869 153.884 58.0049 153.362 58.4129 152.918C58.8209 152.474 59.3069 152.126 59.8709 151.874C60.4469 151.61 61.0769 151.478 61.7609 151.478C62.9129 151.478 63.8669 151.88 64.6229 152.684V146.06ZM70.116 151.766H73.374V152.9C74.262 152.048 75.258 151.622 76.362 151.622C77.73 151.622 78.774 152.198 79.494 153.35C80.226 152.186 81.27 151.604 82.626 151.604C83.058 151.604 83.466 151.67 83.85 151.802C84.234 151.922 84.564 152.12 84.84 152.396C85.116 152.66 85.332 153.008 85.488 153.44C85.656 153.872 85.74 154.394 85.74 155.006V161H82.482V156.446C82.482 155.978 82.446 155.594 82.374 155.294C82.314 154.994 82.218 154.76 82.086 154.592C81.966 154.424 81.822 154.31 81.654 154.25C81.486 154.19 81.306 154.16 81.114 154.16C80.07 154.16 79.548 154.922 79.548 156.446V161H76.29V156.446C76.29 155.978 76.26 155.594 76.2 155.294C76.14 154.982 76.05 154.736 75.93 154.556C75.822 154.376 75.678 154.256 75.498 154.196C75.318 154.124 75.108 154.088 74.868 154.088C74.664 154.088 74.472 154.118 74.292 154.178C74.112 154.238 73.95 154.358 73.806 154.538C73.674 154.706 73.566 154.946 73.482 155.258C73.41 155.558 73.374 155.954 73.374 156.446V161H70.116V151.766ZM91.2334 151.766V161H87.9754V151.766H91.2334ZM87.7594 148.22C87.7594 147.968 87.8074 147.734 87.9034 147.518C87.9994 147.29 88.1314 147.092 88.2994 146.924C88.4674 146.756 88.6594 146.624 88.8754 146.528C89.1034 146.432 89.3434 146.384 89.5954 146.384C89.8474 146.384 90.0814 146.432 90.2974 146.528C90.5254 146.624 90.7234 146.756 90.8914 146.924C91.0594 147.092 91.1914 147.29 91.2874 147.518C91.3834 147.734 91.4314 147.968 91.4314 148.22C91.4314 148.472 91.3834 148.712 91.2874 148.94C91.1914 149.156 91.0594 149.348 90.8914 149.516C90.7234 149.684 90.5254 149.816 90.2974 149.912C90.0814 150.008 89.8474 150.056 89.5954 150.056C89.3434 150.056 89.1034 150.008 88.8754 149.912C88.6594 149.816 88.4674 149.684 88.2994 149.516C88.1314 149.348 87.9994 149.156 87.9034 148.94C87.8074 148.712 87.7594 148.472 87.7594 148.22ZM93.4598 151.766H96.7178V152.936C97.1618 152.396 97.6118 152.036 98.0678 151.856C98.5238 151.664 99.0578 151.568 99.6698 151.568C100.318 151.568 100.87 151.676 101.326 151.892C101.794 152.096 102.19 152.39 102.514 152.774C102.778 153.086 102.958 153.434 103.054 153.818C103.15 154.202 103.198 154.64 103.198 155.132V161H99.9398V156.338C99.9398 155.882 99.9038 155.516 99.8318 155.24C99.7718 154.952 99.6578 154.724 99.4898 154.556C99.3458 154.412 99.1838 154.31 99.0038 154.25C98.8238 154.19 98.6318 154.16 98.4278 154.16C97.8758 154.16 97.4498 154.328 97.1498 154.664C96.8618 154.988 96.7178 155.456 96.7178 156.068V161H93.4598V151.766ZM108.671 151.766V161H105.413V151.766H108.671ZM105.197 148.22C105.197 147.968 105.245 147.734 105.341 147.518C105.437 147.29 105.569 147.092 105.737 146.924C105.905 146.756 106.097 146.624 106.313 146.528C106.541 146.432 106.781 146.384 107.033 146.384C107.285 146.384 107.519 146.432 107.735 146.528C107.963 146.624 108.161 146.756 108.329 146.924C108.497 147.092 108.629 147.29 108.725 147.518C108.821 147.734 108.869 147.968 108.869 148.22C108.869 148.472 108.821 148.712 108.725 148.94C108.629 149.156 108.497 149.348 108.329 149.516C108.161 149.684 107.963 149.816 107.735 149.912C107.519 150.008 107.285 150.056 107.033 150.056C106.781 150.056 106.541 150.008 106.313 149.912C106.097 149.816 105.905 149.684 105.737 149.516C105.569 149.348 105.437 149.156 105.341 148.94C105.245 148.712 105.197 148.472 105.197 148.22ZM117.017 154.142C116.417 153.83 115.829 153.674 115.253 153.674C114.953 153.674 114.707 153.734 114.515 153.854C114.335 153.974 114.245 154.136 114.245 154.34C114.245 154.448 114.257 154.538 114.281 154.61C114.317 154.67 114.383 154.73 114.479 154.79C114.587 154.85 114.737 154.904 114.929 154.952C115.133 155 115.397 155.06 115.721 155.132C116.621 155.312 117.293 155.636 117.737 156.104C118.181 156.56 118.403 157.148 118.403 157.868C118.403 158.408 118.295 158.894 118.079 159.326C117.863 159.758 117.563 160.124 117.179 160.424C116.795 160.712 116.333 160.934 115.793 161.09C115.253 161.258 114.659 161.342 114.011 161.342C112.763 161.342 111.533 160.988 110.321 160.28L111.509 157.976C112.421 158.6 113.285 158.912 114.101 158.912C114.401 158.912 114.647 158.846 114.839 158.714C115.031 158.582 115.127 158.414 115.127 158.21C115.127 158.09 115.109 157.994 115.073 157.922C115.049 157.838 114.989 157.766 114.893 157.706C114.797 157.634 114.653 157.574 114.461 157.526C114.281 157.466 114.041 157.406 113.741 157.346C112.733 157.142 112.025 156.842 111.617 156.446C111.221 156.038 111.023 155.48 111.023 154.772C111.023 154.256 111.119 153.794 111.311 153.386C111.503 152.966 111.779 152.612 112.139 152.324C112.499 152.036 112.931 151.814 113.435 151.658C113.951 151.502 114.521 151.424 115.145 151.424C116.165 151.424 117.155 151.622 118.115 152.018L117.017 154.142ZM123.938 154.484V161H120.68V154.484H119.6V151.766H120.68V148.994H123.938V151.766H125.792V154.484H123.938ZM127.016 151.766H130.274V153.278C130.622 152.726 131.048 152.306 131.552 152.018C132.056 151.718 132.644 151.568 133.316 151.568C133.4 151.568 133.49 151.568 133.586 151.568C133.694 151.568 133.814 151.58 133.946 151.604V154.718C133.514 154.502 133.046 154.394 132.542 154.394C131.786 154.394 131.216 154.622 130.832 155.078C130.46 155.522 130.274 156.176 130.274 157.04V161H127.016V151.766ZM138.531 156.356C138.531 156.656 138.585 156.938 138.693 157.202C138.801 157.454 138.945 157.676 139.125 157.868C139.317 158.06 139.539 158.21 139.791 158.318C140.055 158.426 140.337 158.48 140.637 158.48C140.925 158.48 141.195 158.426 141.447 158.318C141.711 158.21 141.933 158.06 142.113 157.868C142.305 157.676 142.455 157.454 142.563 157.202C142.683 156.95 142.743 156.68 142.743 156.392C142.743 156.104 142.683 155.834 142.563 155.582C142.455 155.318 142.305 155.09 142.113 154.898C141.933 154.706 141.711 154.556 141.447 154.448C141.195 154.34 140.925 154.286 140.637 154.286C140.337 154.286 140.055 154.34 139.791 154.448C139.539 154.556 139.317 154.706 139.125 154.898C138.945 155.09 138.801 155.312 138.693 155.564C138.585 155.804 138.531 156.068 138.531 156.356ZM142.635 151.766H145.911V161H142.635V159.974C141.939 160.85 140.997 161.288 139.809 161.288C139.137 161.288 138.519 161.168 137.955 160.928C137.391 160.676 136.899 160.328 136.479 159.884C136.059 159.44 135.729 158.918 135.489 158.318C135.261 157.718 135.147 157.064 135.147 156.356C135.147 155.696 135.261 155.072 135.489 154.484C135.717 153.884 136.035 153.362 136.443 152.918C136.851 152.474 137.337 152.126 137.901 151.874C138.465 151.61 139.089 151.478 139.773 151.478C140.925 151.478 141.879 151.88 142.635 152.684V151.766ZM155.429 153.872H156.941V152.54H155.429V149.498H153.989V152.54H153.107V153.872H153.989V161H155.429V153.872ZM159.573 152.54H158.133V157.418C158.133 159.668 158.979 161.234 161.481 161.234C163.983 161.234 164.829 159.668 164.829 157.418V152.54H163.389V157.256C163.389 158.678 163.227 159.902 161.481 159.902C159.735 159.902 159.573 158.678 159.573 157.256V152.54ZM172.078 153.872C171.7 152.99 170.8 152.306 169.828 152.306C168.46 152.306 167.308 153.278 167.308 154.7C167.308 157.364 171.124 156.716 171.124 158.606C171.124 159.38 170.53 159.902 169.756 159.902C168.802 159.902 168.388 159.344 168.028 158.552L166.75 159.092C167.2 160.424 168.316 161.234 169.738 161.234C171.304 161.234 172.6 160.082 172.6 158.48C172.6 157.058 171.628 156.464 170.638 156.05C169.648 155.636 168.676 155.348 168.676 154.574C168.676 154.034 169.216 153.638 169.72 153.638C170.242 153.638 170.674 154.052 170.872 154.502L172.078 153.872ZM181.547 152.54H180.107V161H181.547V156.77C181.547 155.672 181.619 153.638 183.203 153.638C183.581 153.638 183.779 153.818 184.067 154.016L184.751 152.702C184.337 152.468 183.941 152.306 183.455 152.306C182.519 152.306 182.087 152.792 181.583 153.458H181.547V152.54ZM193.57 157.076C193.714 154.556 192.274 152.306 189.556 152.306C186.91 152.306 185.452 154.376 185.452 156.878C185.452 159.308 187.072 161.234 189.592 161.234C191.32 161.234 192.688 160.37 193.498 158.858L192.274 158.156C191.716 159.164 190.924 159.902 189.7 159.902C188.062 159.902 186.946 158.642 186.928 157.076H193.57ZM187 155.852C187.18 154.628 188.332 153.638 189.574 153.638C190.834 153.638 191.86 154.628 192.058 155.852H187ZM201.824 153.152C201.068 152.612 200.132 152.306 199.214 152.306C196.73 152.306 194.696 154.25 194.696 156.77C194.696 159.326 196.64 161.234 199.196 161.234C200.204 161.234 201.05 160.928 201.878 160.37V158.444H201.842C201.14 159.362 200.294 159.902 199.088 159.902C197.324 159.902 196.172 158.444 196.172 156.77C196.172 155.078 197.414 153.638 199.16 153.638C200.294 153.638 201.122 154.214 201.788 155.06H201.824V153.152ZM205.434 152.54H203.994V157.418C203.994 159.668 204.84 161.234 207.342 161.234C209.844 161.234 210.69 159.668 210.69 157.418V152.54H209.25V157.256C209.25 158.678 209.088 159.902 207.342 159.902C205.596 159.902 205.434 158.678 205.434 157.256V152.54ZM214.681 152.54H213.241V161H214.681V156.77C214.681 155.672 214.753 153.638 216.337 153.638C216.715 153.638 216.913 153.818 217.201 154.016L217.885 152.702C217.471 152.468 217.075 152.306 216.589 152.306C215.653 152.306 215.221 152.792 214.717 153.458H214.681V152.54ZM223.969 153.872C223.591 152.99 222.691 152.306 221.719 152.306C220.351 152.306 219.199 153.278 219.199 154.7C219.199 157.364 223.015 156.716 223.015 158.606C223.015 159.38 222.421 159.902 221.647 159.902C220.693 159.902 220.279 159.344 219.919 158.552L218.641 159.092C219.091 160.424 220.207 161.234 221.629 161.234C223.195 161.234 224.491 160.082 224.491 158.48C224.491 157.058 223.519 156.464 222.529 156.05C221.539 155.636 220.567 155.348 220.567 154.574C220.567 154.034 221.107 153.638 221.611 153.638C222.133 153.638 222.565 154.052 222.763 154.502L223.969 153.872ZM230.222 161.234C232.688 161.234 234.668 159.272 234.668 156.788C234.668 154.304 232.706 152.306 230.222 152.306C227.738 152.306 225.776 154.304 225.776 156.788C225.776 159.272 227.756 161.234 230.222 161.234ZM230.222 153.638C232.004 153.638 233.228 155.06 233.228 156.77C233.228 158.498 232.004 159.902 230.222 159.902C228.44 159.902 227.216 158.498 227.216 156.77C227.216 155.06 228.44 153.638 230.222 153.638ZM241.265 153.872C240.887 152.99 239.987 152.306 239.015 152.306C237.647 152.306 236.495 153.278 236.495 154.7C236.495 157.364 240.311 156.716 240.311 158.606C240.311 159.38 239.717 159.902 238.943 159.902C237.989 159.902 237.575 159.344 237.215 158.552L235.937 159.092C236.387 160.424 237.503 161.234 238.925 161.234C240.491 161.234 241.787 160.082 241.787 158.48C241.787 157.058 240.815 156.464 239.825 156.05C238.835 155.636 237.863 155.348 237.863 154.574C237.863 154.034 238.403 153.638 238.907 153.638C239.429 153.638 239.861 154.052 240.059 154.502L241.265 153.872ZM252.876 153.638C254.658 153.638 255.72 155.006 255.72 156.698C255.72 158.408 254.748 159.902 252.894 159.902C251.094 159.902 250.122 158.336 250.122 156.68C250.122 155.096 251.202 153.638 252.876 153.638ZM255.648 161H257.088V146.15H255.648V153.746H255.612C254.928 152.846 253.848 152.306 252.714 152.306C250.176 152.306 248.646 154.376 248.646 156.788C248.646 159.128 250.212 161.234 252.696 161.234C253.848 161.234 254.91 160.748 255.612 159.83H255.648V161ZM267.117 157.076C267.261 154.556 265.821 152.306 263.103 152.306C260.457 152.306 258.999 154.376 258.999 156.878C258.999 159.308 260.619 161.234 263.139 161.234C264.867 161.234 266.235 160.37 267.045 158.858L265.821 158.156C265.263 159.164 264.471 159.902 263.247 159.902C261.609 159.902 260.493 158.642 260.475 157.076H267.117ZM260.547 155.852C260.727 154.628 261.879 153.638 263.121 153.638C264.381 153.638 265.407 154.628 265.605 155.852H260.547ZM276.066 152.54H274.626V161H276.066V156.626C276.066 155.348 276.246 153.638 277.938 153.638C279.324 153.638 279.45 155.15 279.45 156.194V161H280.89V156.518C280.89 155.24 281.07 153.638 282.726 153.638C284.202 153.638 284.274 154.988 284.274 156.086V161H285.714V155.852C285.714 154.07 285.174 152.306 283.014 152.306C281.988 152.306 280.98 152.774 280.476 153.71C280.026 152.828 279.126 152.306 278.136 152.306C277.272 152.306 276.552 152.756 276.102 153.458H276.066V152.54ZM291.952 153.638C293.734 153.638 294.796 155.006 294.796 156.698C294.796 158.408 293.824 159.902 291.97 159.902C290.17 159.902 289.198 158.336 289.198 156.68C289.198 155.096 290.278 153.638 291.952 153.638ZM296.164 152.54H294.724V153.746H294.688C293.986 152.846 292.942 152.306 291.79 152.306C289.252 152.306 287.722 154.376 287.722 156.788C287.722 159.128 289.288 161.234 291.772 161.234C292.96 161.234 293.95 160.766 294.688 159.83H294.724V161H296.164V152.54ZM300.271 152.54H298.831V161H300.271V156.986C300.271 155.474 300.397 153.638 302.377 153.638C304.051 153.638 304.159 154.862 304.159 156.23V161H305.599V155.978C305.599 153.998 305.059 152.306 302.719 152.306C301.675 152.306 300.901 152.756 300.307 153.566H300.271V152.54ZM315.703 157.076C315.847 154.556 314.407 152.306 311.689 152.306C309.043 152.306 307.585 154.376 307.585 156.878C307.585 159.308 309.205 161.234 311.725 161.234C313.453 161.234 314.821 160.37 315.631 158.858L314.407 158.156C313.849 159.164 313.057 159.902 311.833 159.902C310.195 159.902 309.079 158.642 309.061 157.076H315.703ZM309.133 155.852C309.313 154.628 310.465 153.638 311.707 153.638C312.967 153.638 313.993 154.628 314.191 155.852H309.133ZM319.043 152.54H317.603V161H319.043V156.77C319.043 155.672 319.115 153.638 320.699 153.638C321.077 153.638 321.275 153.818 321.563 154.016L322.247 152.702C321.833 152.468 321.437 152.306 320.951 152.306C320.015 152.306 319.583 152.792 319.079 153.458H319.043V152.54ZM327.214 153.638C328.996 153.638 330.058 155.006 330.058 156.698C330.058 158.408 329.086 159.902 327.232 159.902C325.432 159.902 324.46 158.336 324.46 156.68C324.46 155.096 325.54 153.638 327.214 153.638ZM331.426 152.54H329.986V153.746H329.95C329.248 152.846 328.204 152.306 327.052 152.306C324.514 152.306 322.984 154.376 322.984 156.788C322.984 159.128 324.55 161.234 327.034 161.234C328.222 161.234 329.212 160.766 329.95 159.83H329.986V161H331.426V152.54ZM346.128 155.042C346.02 154.586 345.798 154.22 345.462 153.944C345.126 153.668 344.718 153.53 344.238 153.53C343.734 153.53 343.32 153.662 342.996 153.926C342.684 154.19 342.486 154.562 342.402 155.042H346.128ZM342.312 156.932C342.312 158.336 342.972 159.038 344.292 159.038C345 159.038 345.534 158.75 345.894 158.174H349.044C348.408 160.286 346.818 161.342 344.274 161.342C343.494 161.342 342.78 161.228 342.132 161C341.484 160.76 340.926 160.424 340.458 159.992C340.002 159.56 339.648 159.044 339.396 158.444C339.144 157.844 339.018 157.172 339.018 156.428C339.018 155.66 339.138 154.97 339.378 154.358C339.618 153.734 339.96 153.206 340.404 152.774C340.848 152.342 341.382 152.012 342.006 151.784C342.642 151.544 343.356 151.424 344.148 151.424C344.928 151.424 345.63 151.544 346.254 151.784C346.878 152.012 347.406 152.348 347.838 152.792C348.27 153.236 348.6 153.782 348.828 154.43C349.056 155.066 349.17 155.786 349.17 156.59V156.932H342.312ZM351.302 151.766V150.056C351.302 149.456 351.428 148.892 351.68 148.364C351.944 147.824 352.292 147.356 352.724 146.96C353.168 146.564 353.678 146.252 354.254 146.024C354.842 145.784 355.46 145.664 356.108 145.664C356.756 145.664 357.368 145.778 357.944 146.006C358.532 146.234 359.042 146.546 359.474 146.942C359.918 147.338 360.266 147.806 360.518 148.346C360.782 148.874 360.914 149.444 360.914 150.056V150.47H357.656V150.056C357.656 149.84 357.614 149.636 357.53 149.444C357.458 149.24 357.35 149.06 357.206 148.904C357.074 148.748 356.912 148.622 356.72 148.526C356.54 148.43 356.336 148.382 356.108 148.382C355.664 148.382 355.292 148.55 354.992 148.886C354.704 149.222 354.56 149.612 354.56 150.056V151.766H356.432V154.484H354.56V161H351.302V154.484H350.132V151.766H351.302ZM360.914 161H357.656V151.766H360.914V161ZM370.109 154.754C369.545 154.37 368.975 154.178 368.399 154.178C368.087 154.178 367.793 154.232 367.517 154.34C367.253 154.448 367.019 154.604 366.815 154.808C366.611 155 366.449 155.234 366.329 155.51C366.221 155.774 366.167 156.074 366.167 156.41C366.167 156.734 366.221 157.034 366.329 157.31C366.449 157.574 366.605 157.808 366.797 158.012C367.001 158.204 367.241 158.354 367.517 158.462C367.793 158.57 368.087 158.624 368.399 158.624C369.011 158.624 369.581 158.414 370.109 157.994V160.766C369.305 161.114 368.543 161.288 367.823 161.288C367.151 161.288 366.509 161.174 365.897 160.946C365.297 160.718 364.763 160.394 364.295 159.974C363.839 159.542 363.473 159.032 363.197 158.444C362.921 157.844 362.783 157.178 362.783 156.446C362.783 155.714 362.915 155.048 363.179 154.448C363.443 153.836 363.803 153.314 364.259 152.882C364.715 152.438 365.255 152.096 365.879 151.856C366.515 151.604 367.193 151.478 367.913 151.478C368.705 151.478 369.437 151.646 370.109 151.982V154.754ZM375.226 151.766V161H371.968V151.766H375.226ZM371.752 148.22C371.752 147.968 371.8 147.734 371.896 147.518C371.992 147.29 372.124 147.092 372.292 146.924C372.46 146.756 372.652 146.624 372.868 146.528C373.096 146.432 373.336 146.384 373.588 146.384C373.84 146.384 374.074 146.432 374.29 146.528C374.518 146.624 374.716 146.756 374.884 146.924C375.052 147.092 375.184 147.29 375.28 147.518C375.376 147.734 375.424 147.968 375.424 148.22C375.424 148.472 375.376 148.712 375.28 148.94C375.184 149.156 375.052 149.348 374.884 149.516C374.716 149.684 374.518 149.816 374.29 149.912C374.074 150.008 373.84 150.056 373.588 150.056C373.336 150.056 373.096 150.008 372.868 149.912C372.652 149.816 372.46 149.684 372.292 149.516C372.124 149.348 371.992 149.156 371.896 148.94C371.8 148.712 371.752 148.472 371.752 148.22ZM384.202 155.042C384.094 154.586 383.872 154.22 383.536 153.944C383.2 153.668 382.792 153.53 382.312 153.53C381.808 153.53 381.394 153.662 381.07 153.926C380.758 154.19 380.56 154.562 380.476 155.042H384.202ZM380.386 156.932C380.386 158.336 381.046 159.038 382.366 159.038C383.074 159.038 383.608 158.75 383.968 158.174H387.118C386.482 160.286 384.892 161.342 382.348 161.342C381.568 161.342 380.854 161.228 380.206 161C379.558 160.76 379 160.424 378.532 159.992C378.076 159.56 377.722 159.044 377.47 158.444C377.218 157.844 377.092 157.172 377.092 156.428C377.092 155.66 377.212 154.97 377.452 154.358C377.692 153.734 378.034 153.206 378.478 152.774C378.922 152.342 379.456 152.012 380.08 151.784C380.716 151.544 381.43 151.424 382.222 151.424C383.002 151.424 383.704 151.544 384.328 151.784C384.952 152.012 385.48 152.348 385.912 152.792C386.344 153.236 386.674 153.782 386.902 154.43C387.13 155.066 387.244 155.786 387.244 156.59V156.932H380.386ZM389.106 151.766H392.364V152.936C392.808 152.396 393.258 152.036 393.714 151.856C394.17 151.664 394.704 151.568 395.316 151.568C395.964 151.568 396.516 151.676 396.972 151.892C397.44 152.096 397.836 152.39 398.16 152.774C398.424 153.086 398.604 153.434 398.7 153.818C398.796 154.202 398.844 154.64 398.844 155.132V161H395.586V156.338C395.586 155.882 395.55 155.516 395.478 155.24C395.418 154.952 395.304 154.724 395.136 154.556C394.992 154.412 394.83 154.31 394.65 154.25C394.47 154.19 394.278 154.16 394.074 154.16C393.522 154.16 393.096 154.328 392.796 154.664C392.508 154.988 392.364 155.456 392.364 156.068V161H389.106V151.766ZM404.695 154.484V161H401.437V154.484H400.357V151.766H401.437V148.994H404.695V151.766H406.549V154.484H404.695ZM414.7 155.042C414.592 154.586 414.37 154.22 414.034 153.944C413.698 153.668 413.29 153.53 412.81 153.53C412.306 153.53 411.892 153.662 411.568 153.926C411.256 154.19 411.058 154.562 410.974 155.042H414.7ZM410.884 156.932C410.884 158.336 411.544 159.038 412.864 159.038C413.572 159.038 414.106 158.75 414.466 158.174H417.616C416.98 160.286 415.39 161.342 412.846 161.342C412.066 161.342 411.352 161.228 410.704 161C410.056 160.76 409.498 160.424 409.03 159.992C408.574 159.56 408.22 159.044 407.968 158.444C407.716 157.844 407.59 157.172 407.59 156.428C407.59 155.66 407.71 154.97 407.95 154.358C408.19 153.734 408.532 153.206 408.976 152.774C409.42 152.342 409.954 152.012 410.578 151.784C411.214 151.544 411.928 151.424 412.72 151.424C413.5 151.424 414.202 151.544 414.826 151.784C415.45 152.012 415.978 152.348 416.41 152.792C416.842 153.236 417.172 153.782 417.4 154.43C417.628 155.066 417.742 155.786 417.742 156.59V156.932H410.884Z" fill="white"/>
<path d="M31.8438 41V6.6875H39.1797V34.7656H50.8984V41H31.8438ZM73.2812 27.9453L69.4375 16.8594C69.3281 16.5312 69.1875 15.9688 69.0156 15.1719C68.8438 14.375 68.6641 13.3984 68.4766 12.2422C68.2734 13.3516 68.0781 14.3516 67.8906 15.2422C67.7031 16.1172 67.5625 16.7031 67.4688 17L63.7656 27.9453H73.2812ZM51.4375 41L64.4922 6.6875H72.8828L86.125 41H77.7812L74.9922 33.7109H61.7031L59.3125 41H51.4375ZM132.133 15.6172C130.648 14.2891 129.125 13.3203 127.562 12.7109C126 12.0859 124.328 11.7734 122.547 11.7734C118.891 11.7734 115.977 12.8672 113.805 15.0547C111.633 17.2422 110.547 20.1797 110.547 23.8672C110.547 27.4766 111.555 30.3438 113.57 32.4688C115.586 34.5781 118.336 35.6328 121.82 35.6328C123.805 35.6328 125.648 35.3047 127.352 34.6484C129.055 33.9766 130.633 32.9766 132.086 31.6484L132.039 39.1719C130.477 40.0938 128.836 40.7812 127.117 41.2344C125.414 41.6875 123.617 41.9141 121.727 41.9141C116.258 41.9141 111.766 40.2188 108.25 36.8281C104.75 33.4219 103 29.1016 103 23.8672C103 18.6484 104.758 14.3438 108.273 10.9531C111.789 7.5625 116.32 5.86719 121.867 5.86719C123.727 5.86719 125.523 6.0625 127.258 6.45312C128.992 6.84375 130.703 7.44531 132.391 8.25781L132.133 15.6172ZM168.461 6.6875V28.0391C168.461 32.6953 167.234 36.1719 164.781 38.4688C162.328 40.7656 158.633 41.9141 153.695 41.9141C148.68 41.9141 144.945 40.7656 142.492 38.4688C140.039 36.1719 138.812 32.6953 138.812 28.0391V6.6875H146.102V26.8906C146.102 29.7188 146.727 31.8516 147.977 33.2891C149.227 34.7109 151.094 35.4219 153.578 35.4219C156.078 35.4219 157.969 34.7031 159.25 33.2656C160.531 31.8281 161.172 29.7031 161.172 26.8906V6.6875H168.461ZM176.078 41V6.6875H196.281V12.875H183.414V19.9297H196.281V26.1641H183.414V34.7656H196.281V41H176.078ZM203.5 41V6.6875H211.117L226.305 26.6562C226.742 27.2188 227.219 28.0156 227.734 29.0469C228.266 30.0625 228.812 31.2656 229.375 32.6562C229.203 31.6406 229.078 30.6328 229 29.6328C228.922 28.6328 228.883 27.3828 228.883 25.8828V6.6875H235.891V41H228.695L213.086 20.6562C212.648 20.0938 212.172 19.3047 211.656 18.2891C211.141 17.2578 210.594 16.0312 210.016 14.6094C210.188 15.5938 210.312 16.5938 210.391 17.6094C210.469 18.6094 210.508 19.875 210.508 21.4062V41H203.5ZM256.352 12.9219V41H248.992V12.9219H240.602V6.6875H264.789V12.9219H256.352ZM284.688 27.9453L280.844 16.8594C280.734 16.5312 280.594 15.9688 280.422 15.1719C280.25 14.375 280.07 13.3984 279.883 12.2422C279.68 13.3516 279.484 14.3516 279.297 15.2422C279.109 16.1172 278.969 16.7031 278.875 17L275.172 27.9453H284.688ZM262.844 41L275.898 6.6875H284.289L297.531 41H289.188L286.398 33.7109H273.109L270.719 41H262.844ZM337.656 29.375L340.188 32.3516C341.25 31.2578 342.062 29.9766 342.625 28.5078C343.203 27.0234 343.492 25.4922 343.492 23.9141C343.492 20.6641 342.469 17.9297 340.422 15.7109C338.375 13.4922 335.82 12.3828 332.758 12.3828C329.648 12.3828 327.07 13.4922 325.023 15.7109C322.977 17.9141 321.953 20.6484 321.953 23.9141C321.953 27.2109 322.953 29.9453 324.953 32.1172C326.969 34.2891 329.523 35.375 332.617 35.375C332.883 35.375 333.25 35.3516 333.719 35.3047C334.203 35.2422 334.773 35.1562 335.43 35.0469L330.484 29.375H337.656ZM350.852 44.9844H343.539L339.812 40.5781C338.125 41.0156 336.719 41.3281 335.594 41.5156C334.484 41.7188 333.492 41.8203 332.617 41.8203C330.258 41.8203 327.945 41.3594 325.68 40.4375C323.414 39.5156 321.438 38.2344 319.75 36.5938C318.016 34.9062 316.68 32.9688 315.742 30.7812C314.82 28.5781 314.359 26.2734 314.359 23.8672C314.359 21.4609 314.82 19.1719 315.742 17C316.664 14.8125 318 12.8594 319.75 11.1406C321.453 9.45312 323.422 8.16406 325.656 7.27344C327.906 6.36719 330.273 5.91406 332.758 5.91406C335.195 5.91406 337.531 6.36719 339.766 7.27344C342 8.16406 343.984 9.45312 345.719 11.1406C347.453 12.8438 348.781 14.7812 349.703 16.9531C350.625 19.125 351.086 21.4297 351.086 23.8672C351.086 26.5547 350.531 29.0625 349.422 31.3906C348.312 33.7188 346.688 35.7891 344.547 37.6016L350.852 44.9844ZM386.758 6.6875V28.0391C386.758 32.6953 385.531 36.1719 383.078 38.4688C380.625 40.7656 376.93 41.9141 371.992 41.9141C366.977 41.9141 363.242 40.7656 360.789 38.4688C358.336 36.1719 357.109 32.6953 357.109 28.0391V6.6875H364.398V26.8906C364.398 29.7188 365.023 31.8516 366.273 33.2891C367.523 34.7109 369.391 35.4219 371.875 35.4219C374.375 35.4219 376.266 34.7031 377.547 33.2656C378.828 31.8281 379.469 29.7031 379.469 26.8906V6.6875H386.758ZM394.375 41V6.6875H414.578V12.875H401.711V19.9297H414.578V26.1641H401.711V34.7656H414.578V41H394.375ZM449.383 12.9219V41H442.023V12.9219H433.633V6.6875H457.82V12.9219H449.383ZM492.086 6.6875V28.0391C492.086 32.6953 490.859 36.1719 488.406 38.4688C485.953 40.7656 482.258 41.9141 477.32 41.9141C472.305 41.9141 468.57 40.7656 466.117 38.4688C463.664 36.1719 462.438 32.6953 462.438 28.0391V6.6875H469.727V26.8906C469.727 29.7188 470.352 31.8516 471.602 33.2891C472.852 34.7109 474.719 35.4219 477.203 35.4219C479.703 35.4219 481.594 34.7031 482.875 33.2656C484.156 31.8281 484.797 29.7031 484.797 26.8906V6.6875H492.086ZM31.8438 89V54.6875H52.0469V60.875H39.1797V67.9297H52.0469V74.1641H39.1797V82.7656H52.0469V89H31.8438ZM56.2891 89L61.5156 54.6875H69.2031L75.8125 74.8906C75.9531 75.3125 76.1016 75.9297 76.2578 76.7422C76.4297 77.5547 76.5859 78.4844 76.7266 79.5312C76.8516 78.4688 76.9922 77.5234 77.1484 76.6953C77.3047 75.8516 77.4531 75.2344 77.5938 74.8438L84.3203 54.6875H91.8906L97.1406 89H90.1797L87.6719 68.3047C87.4844 66.7734 87.3594 65.6172 87.2969 64.8359C87.2344 64.0547 87.2031 63.3281 87.2031 62.6562C87.2031 62.2969 87.2031 62.0312 87.2031 61.8594C87.2188 61.6719 87.2344 61.5078 87.25 61.3672C87.0156 62.7109 86.7891 63.875 86.5703 64.8594C86.3672 65.8281 86.1797 66.5625 86.0078 67.0625L78.7422 89H74.6172L67.4688 67.0625C67.4062 66.8594 67.2656 66.2969 67.0469 65.375C66.8438 64.4531 66.5547 63.1094 66.1797 61.3438V62.3516C66.1797 63.9453 66.0391 65.8984 65.7578 68.2109L65.7344 68.3047L63.25 89H56.2891ZM109.305 70.1797H110.359C112.359 70.1797 113.812 69.7656 114.719 68.9375C115.625 68.1094 116.078 66.7812 116.078 64.9531C116.078 63.2656 115.625 62.0391 114.719 61.2734C113.812 60.4922 112.359 60.1016 110.359 60.1016H109.305V70.1797ZM101.922 89V54.6875H110.359C114.859 54.6875 118.18 55.5469 120.32 57.2656C122.477 58.9844 123.555 61.6406 123.555 65.2344C123.555 68.5625 122.469 71.1719 120.297 73.0625C118.141 74.9531 115.148 75.8984 111.32 75.8984H109.305V89H101.922ZM153.461 89H145L135.977 72.9688V89H128.641V54.6875H139.141C143.312 54.6875 146.438 55.5 148.516 57.125C150.594 58.7344 151.633 61.1641 151.633 64.4141C151.633 66.7734 150.922 68.7891 149.5 70.4609C148.078 72.1328 146.242 73.1094 143.992 73.3906L153.461 89ZM135.977 69.3125H137.078C140.047 69.3125 142.008 68.9922 142.961 68.3516C143.914 67.6953 144.391 66.5625 144.391 64.9531C144.391 63.2656 143.875 62.0703 142.844 61.3672C141.828 60.6484 139.906 60.2891 137.078 60.2891H135.977V69.3125ZM157.75 89V54.6875H177.953V60.875H165.086V67.9297H177.953V74.1641H165.086V82.7656H177.953V89H157.75ZM182.969 84.6406L187.047 80.0234C187.562 81.2891 188.391 82.2891 189.531 83.0234C190.672 83.7422 191.953 84.1016 193.375 84.1016C195.094 84.1016 196.453 83.6953 197.453 82.8828C198.453 82.0703 198.953 80.9766 198.953 79.6016C198.953 77.9766 197.289 76.3594 193.961 74.75C192.883 74.2344 192.031 73.8125 191.406 73.4844C188.406 71.9219 186.328 70.3984 185.172 68.9141C184.016 67.4141 183.438 65.6328 183.438 63.5703C183.438 60.7422 184.555 58.4219 186.789 56.6094C189.039 54.7812 191.953 53.8672 195.531 53.8672C197.609 53.8672 199.398 54.2344 200.898 54.9688C202.414 55.6875 203.75 56.8203 204.906 58.3672L200.57 62.5156C200.055 61.5156 199.367 60.7734 198.508 60.2891C197.664 59.7891 196.641 59.5391 195.438 59.5391C193.984 59.5391 192.812 59.9062 191.922 60.6406C191.031 61.3594 190.586 62.2969 190.586 63.4531C190.586 65.2656 192.352 66.9219 195.883 68.4219C196.586 68.7188 197.125 68.9531 197.5 69.125C200.406 70.4531 202.555 71.9531 203.945 73.625C205.352 75.2969 206.055 77.2031 206.055 79.3438C206.055 82.5625 204.953 85.1328 202.75 87.0547C200.562 88.9609 197.617 89.9141 193.914 89.9141C191.289 89.9141 189.039 89.4609 187.164 88.5547C185.289 87.6484 183.891 86.3438 182.969 84.6406ZM229.844 75.9453L226 64.8594C225.891 64.5312 225.75 63.9688 225.578 63.1719C225.406 62.375 225.227 61.3984 225.039 60.2422C224.836 61.3516 224.641 62.3516 224.453 63.2422C224.266 64.1172 224.125 64.7031 224.031 65L220.328 75.9453H229.844ZM208 89L221.055 54.6875H229.445L242.688 89H234.344L231.555 81.7109H218.266L215.875 89H208ZM261.062 89V54.6875H268.68L283.867 74.6562C284.305 75.2188 284.781 76.0156 285.297 77.0469C285.828 78.0625 286.375 79.2656 286.938 80.6562C286.766 79.6406 286.641 78.6328 286.562 77.6328C286.484 76.6328 286.445 75.3828 286.445 73.8828V54.6875H293.453V89H286.258L270.648 68.6562C270.211 68.0938 269.734 67.3047 269.219 66.2891C268.703 65.2578 268.156 64.0312 267.578 62.6094C267.75 63.5938 267.875 64.5938 267.953 65.6094C268.031 66.6094 268.07 67.875 268.07 69.4062V89H261.062ZM301.094 89V54.6875H321.297V60.875H308.43V67.9297H321.297V74.1641H308.43V82.7656H321.297V89H301.094ZM356.148 63.6172C354.664 62.2891 353.141 61.3203 351.578 60.7109C350.016 60.0859 348.344 59.7734 346.562 59.7734C342.906 59.7734 339.992 60.8672 337.82 63.0547C335.648 65.2422 334.562 68.1797 334.562 71.8672C334.562 75.4766 335.57 78.3438 337.586 80.4688C339.602 82.5781 342.352 83.6328 345.836 83.6328C347.82 83.6328 349.664 83.3047 351.367 82.6484C353.07 81.9766 354.648 80.9766 356.102 79.6484L356.055 87.1719C354.492 88.0938 352.852 88.7812 351.133 89.2344C349.43 89.6875 347.633 89.9141 345.742 89.9141C340.273 89.9141 335.781 88.2188 332.266 84.8281C328.766 81.4219 327.016 77.1016 327.016 71.8672C327.016 66.6484 328.773 62.3438 332.289 58.9531C335.805 55.5625 340.336 53.8672 345.883 53.8672C347.742 53.8672 349.539 54.0625 351.273 54.4531C353.008 54.8438 354.719 55.4453 356.406 56.2578L356.148 63.6172ZM362.969 89V54.6875H383.172V60.875H370.305V67.9297H383.172V74.1641H370.305V82.7656H383.172V89H362.969ZM388.188 84.6406L392.266 80.0234C392.781 81.2891 393.609 82.2891 394.75 83.0234C395.891 83.7422 397.172 84.1016 398.594 84.1016C400.312 84.1016 401.672 83.6953 402.672 82.8828C403.672 82.0703 404.172 80.9766 404.172 79.6016C404.172 77.9766 402.508 76.3594 399.18 74.75C398.102 74.2344 397.25 73.8125 396.625 73.4844C393.625 71.9219 391.547 70.3984 390.391 68.9141C389.234 67.4141 388.656 65.6328 388.656 63.5703C388.656 60.7422 389.773 58.4219 392.008 56.6094C394.258 54.7812 397.172 53.8672 400.75 53.8672C402.828 53.8672 404.617 54.2344 406.117 54.9688C407.633 55.6875 408.969 56.8203 410.125 58.3672L405.789 62.5156C405.273 61.5156 404.586 60.7734 403.727 60.2891C402.883 59.7891 401.859 59.5391 400.656 59.5391C399.203 59.5391 398.031 59.9062 397.141 60.6406C396.25 61.3594 395.805 62.2969 395.805 63.4531C395.805 65.2656 397.57 66.9219 401.102 68.4219C401.805 68.7188 402.344 68.9531 402.719 69.125C405.625 70.4531 407.773 71.9531 409.164 73.625C410.57 75.2969 411.273 77.2031 411.273 79.3438C411.273 82.5625 410.172 85.1328 407.969 87.0547C405.781 88.9609 402.836 89.9141 399.133 89.9141C396.508 89.9141 394.258 89.4609 392.383 88.5547C390.508 87.6484 389.109 86.3438 388.188 84.6406ZM417.438 89V54.6875H424.773V89H417.438ZM445.445 60.9219V89H438.086V60.9219H429.695V54.6875H453.883V60.9219H445.445ZM473.781 75.9453L469.938 64.8594C469.828 64.5312 469.688 63.9688 469.516 63.1719C469.344 62.375 469.164 61.3984 468.977 60.2422C468.773 61.3516 468.578 62.3516 468.391 63.2422C468.203 64.1172 468.062 64.7031 467.969 65L464.266 75.9453H473.781ZM451.938 89L464.992 54.6875H473.383L486.625 89H478.281L475.492 81.7109H462.203L459.812 89H451.938Z" fill="white"/>
</svg>
