<svg width="403" height="149" viewBox="0 0 403 149" fill="none" xmlns="http://www.w3.org/2000/svg">
<path d="M60.9844 14.0781C59.9948 13.1927 58.9792 12.5469 57.9375 12.1406C56.8958 11.724 55.7812 11.5156 54.5938 11.5156C52.1562 11.5156 50.2135 12.2448 48.7656 13.7031C47.3177 15.1615 46.5938 17.1198 46.5938 19.5781C46.5938 21.9844 47.2656 23.8958 48.6094 25.3125C49.9531 26.7188 51.7865 27.4219 54.1094 27.4219C55.4323 27.4219 56.6615 27.2031 57.7969 26.7656C58.9323 26.3177 59.9844 25.651 60.9531 24.7656L60.9219 29.7812C59.8802 30.3958 58.7865 30.8542 57.6406 31.1562C56.5052 31.4583 55.3073 31.6094 54.0469 31.6094C50.401 31.6094 47.4062 30.4792 45.0625 28.2188C42.7292 25.9479 41.5625 23.0677 41.5625 19.5781C41.5625 16.099 42.7344 13.2292 45.0781 10.9688C47.4219 8.70833 50.4427 7.57812 54.1406 7.57812C55.3802 7.57812 56.5781 7.70833 57.7344 7.96875C58.8906 8.22917 60.0312 8.63021 61.1562 9.17188L60.9844 14.0781ZM77.375 22.2969L74.8125 14.9062C74.7396 14.6875 74.6458 14.3125 74.5312 13.7812C74.4167 13.25 74.2969 12.599 74.1719 11.8281C74.0365 12.5677 73.9062 13.2344 73.7812 13.8281C73.6562 14.4115 73.5625 14.8021 73.5 15L71.0312 22.2969H77.375ZM62.8125 31L71.5156 8.125H77.1094L85.9375 31H80.375L78.5156 26.1406H69.6562L68.0625 31H62.8125ZM93.2656 18.4531H93.9688C95.3021 18.4531 96.2708 18.1771 96.875 17.625C97.4792 17.0729 97.7812 16.1875 97.7812 14.9688C97.7812 13.8438 97.4792 13.026 96.875 12.5156C96.2708 11.9948 95.3021 11.7344 93.9688 11.7344H93.2656V18.4531ZM88.3438 31V8.125H93.9688C96.9688 8.125 99.1823 8.69792 100.609 9.84375C102.047 10.9896 102.766 12.7604 102.766 15.1562C102.766 17.375 102.042 19.1146 100.594 20.375C99.1562 21.6354 97.1615 22.2656 94.6094 22.2656H93.2656V31H88.3438ZM106.25 31V8.125H111.141V31H106.25ZM124.922 12.2812V31H120.016V12.2812H114.422V8.125H130.547V12.2812H124.922ZM143.812 22.2969L141.25 14.9062C141.177 14.6875 141.083 14.3125 140.969 13.7812C140.854 13.25 140.734 12.599 140.609 11.8281C140.474 12.5677 140.344 13.2344 140.219 13.8281C140.094 14.4115 140 14.8021 139.938 15L137.469 22.2969H143.812ZM129.25 31L137.953 8.125H143.547L152.375 31H146.812L144.953 26.1406H136.094L134.5 31H129.25ZM154.781 31V8.125H159.672V26.8438H167.484V31H154.781ZM185.297 26.875H188.016C190.578 26.875 192.443 26.2917 193.609 25.125C194.786 23.9583 195.375 22.1094 195.375 19.5781C195.375 17.0573 194.786 15.2135 193.609 14.0469C192.443 12.8698 190.578 12.2812 188.016 12.2812H185.297V26.875ZM180.406 31V8.125H186.641C189.099 8.125 191.036 8.29688 192.453 8.64062C193.87 8.98438 195.115 9.55729 196.188 10.3594C197.573 11.3906 198.62 12.6927 199.328 14.2656C200.047 15.8281 200.406 17.6094 200.406 19.6094C200.406 21.6406 200.042 23.4427 199.312 25.0156C198.583 26.5781 197.516 27.8698 196.109 28.8906C195.068 29.6406 193.906 30.1823 192.625 30.5156C191.354 30.8385 189.49 31 187.031 31H185.297H180.406ZM204.5 31V8.125H217.969V12.25H209.391V16.9531H217.969V21.1094H209.391V26.8438H217.969V31H204.5ZM241.172 12.2812V31H236.266V12.2812H230.672V8.125H246.797V12.2812H241.172ZM266.516 31H260.875L254.859 20.3125V31H249.969V8.125H256.969C259.75 8.125 261.833 8.66667 263.219 9.75C264.604 10.8229 265.297 12.4427 265.297 14.6094C265.297 16.1823 264.823 17.526 263.875 18.6406C262.927 19.7552 261.703 20.4062 260.203 20.5938L266.516 31ZM254.859 17.875H255.594C257.573 17.875 258.88 17.6615 259.516 17.2344C260.151 16.7969 260.469 16.0417 260.469 14.9688C260.469 13.8438 260.125 13.0469 259.438 12.5781C258.76 12.099 257.479 11.8594 255.594 11.8594H254.859V17.875ZM281.219 22.2969L278.656 14.9062C278.583 14.6875 278.49 14.3125 278.375 13.7812C278.26 13.25 278.141 12.599 278.016 11.8281C277.88 12.5677 277.75 13.2344 277.625 13.8281C277.5 14.4115 277.406 14.8021 277.344 15L274.875 22.2969H281.219ZM266.656 31L275.359 8.125H280.953L289.781 31H284.219L282.359 26.1406H273.5L271.906 31H266.656ZM297.078 27.1875H299C300.229 27.1875 301.161 26.9219 301.797 26.3906C302.432 25.849 302.75 25.0625 302.75 24.0312C302.75 23.0625 302.432 22.3229 301.797 21.8125C301.172 21.3021 300.26 21.0469 299.062 21.0469H297.078V27.1875ZM297.078 17.2656H298.172C299.651 17.2656 300.698 17.0573 301.312 16.6406C301.927 16.224 302.234 15.526 302.234 14.5469C302.234 13.5885 301.938 12.9062 301.344 12.5C300.76 12.0938 299.734 11.8906 298.266 11.8906H297.078V17.2656ZM292.188 31V8.125H296.469C298.688 8.125 300.307 8.21354 301.328 8.39062C302.359 8.55729 303.25 8.83854 304 9.23438C304.885 9.74479 305.568 10.4167 306.047 11.25C306.536 12.0833 306.781 13.026 306.781 14.0781C306.781 15.4323 306.38 16.5208 305.578 17.3438C304.776 18.1562 303.578 18.6979 301.984 18.9688C303.828 19.2396 305.219 19.8385 306.156 20.7656C307.104 21.6927 307.578 22.9271 307.578 24.4688C307.578 25.5938 307.307 26.625 306.766 27.5625C306.224 28.4896 305.479 29.2083 304.531 29.7188C303.688 30.1771 302.698 30.5052 301.562 30.7031C300.427 30.901 298.547 31 295.922 31H295.422H292.188ZM323.156 22.2969L320.594 14.9062C320.521 14.6875 320.427 14.3125 320.312 13.7812C320.198 13.25 320.078 12.599 319.953 11.8281C319.818 12.5677 319.688 13.2344 319.562 13.8281C319.438 14.4115 319.344 14.8021 319.281 15L316.812 22.2969H323.156ZM308.594 31L317.297 8.125H322.891L331.719 31H326.156L324.297 26.1406H315.438L313.844 31H308.594ZM343.406 8.125V23.1875C343.406 24.9062 343.339 26.1667 343.203 26.9688C343.068 27.7708 342.844 28.4531 342.531 29.0156C342.073 29.8698 341.396 30.5156 340.5 30.9531C339.615 31.3906 338.536 31.6094 337.266 31.6094C335.661 31.6094 334.375 31.2083 333.406 30.4062C332.448 29.6042 331.833 28.4271 331.562 26.875L335.109 25.1875C335.193 25.9062 335.375 26.4479 335.656 26.8125C335.948 27.1771 336.344 27.3594 336.844 27.3594C337.469 27.3594 337.901 27.1354 338.141 26.6875C338.38 26.2292 338.5 25.2135 338.5 23.6406V21.5938V8.125H343.406ZM371.766 19.6094C371.766 21.2448 371.458 22.7917 370.844 24.25C370.24 25.7083 369.365 26.9896 368.219 28.0938C367.031 29.2292 365.693 30.099 364.203 30.7031C362.714 31.3073 361.172 31.6094 359.578 31.6094C358.182 31.6094 356.812 31.375 355.469 30.9062C354.135 30.4271 352.911 29.7448 351.797 28.8594C350.359 27.7135 349.255 26.3438 348.484 24.75C347.724 23.1562 347.344 21.4427 347.344 19.6094C347.344 17.9635 347.646 16.4219 348.25 14.9844C348.854 13.5365 349.74 12.25 350.906 11.125C352.052 10.0104 353.38 9.14583 354.891 8.53125C356.411 7.91667 357.974 7.60938 359.578 7.60938C361.172 7.60938 362.719 7.91667 364.219 8.53125C365.729 9.14583 367.062 10.0104 368.219 11.125C369.375 12.25 370.255 13.5365 370.859 14.9844C371.464 16.4323 371.766 17.974 371.766 19.6094ZM359.578 27.25C361.651 27.25 363.359 26.526 364.703 25.0781C366.057 23.6198 366.734 21.7969 366.734 19.6094C366.734 17.4427 366.052 15.6198 364.688 14.1406C363.323 12.6615 361.62 11.9219 359.578 11.9219C357.505 11.9219 355.786 12.6615 354.422 14.1406C353.057 15.6094 352.375 17.4323 352.375 19.6094C352.375 21.8177 353.047 23.6458 354.391 25.0938C355.734 26.5312 357.464 27.25 359.578 27.25ZM47.4844 56.4531H48.1875C49.5208 56.4531 50.4896 56.1771 51.0938 55.625C51.6979 55.0729 52 54.1875 52 52.9688C52 51.8438 51.6979 51.026 51.0938 50.5156C50.4896 49.9948 49.5208 49.7344 48.1875 49.7344H47.4844V56.4531ZM42.5625 69V46.125H48.1875C51.1875 46.125 53.401 46.6979 54.8281 47.8438C56.2656 48.9896 56.9844 50.7604 56.9844 53.1562C56.9844 55.375 56.2604 57.1146 54.8125 58.375C53.375 59.6354 51.3802 60.2656 48.8281 60.2656H47.4844V69H42.5625ZM70.625 60.2969L68.0625 52.9062C67.9896 52.6875 67.8958 52.3125 67.7812 51.7812C67.6667 51.25 67.5469 50.599 67.4219 49.8281C67.2865 50.5677 67.1562 51.2344 67.0312 51.8281C66.9062 52.4115 66.8125 52.8021 66.75 53L64.2812 60.2969H70.625ZM56.0625 69L64.7656 46.125H70.3594L79.1875 69H73.625L71.7656 64.1406H62.9062L61.3125 69H56.0625ZM98.1406 69H92.5L86.4844 58.3125V69H81.5938V46.125H88.5938C91.375 46.125 93.4583 46.6667 94.8438 47.75C96.2292 48.8229 96.9219 50.4427 96.9219 52.6094C96.9219 54.1823 96.4479 55.526 95.5 56.6406C94.5521 57.7552 93.3281 58.4062 91.8281 58.5938L98.1406 69ZM86.4844 55.875H87.2188C89.1979 55.875 90.5052 55.6615 91.1406 55.2344C91.776 54.7969 92.0938 54.0417 92.0938 52.9688C92.0938 51.8438 91.75 51.0469 91.0625 50.5781C90.3854 50.099 89.1042 49.8594 87.2188 49.8594H86.4844V55.875ZM112.844 60.2969L110.281 52.9062C110.208 52.6875 110.115 52.3125 110 51.7812C109.885 51.25 109.766 50.599 109.641 49.8281C109.505 50.5677 109.375 51.2344 109.25 51.8281C109.125 52.4115 109.031 52.8021 108.969 53L106.5 60.2969H112.844ZM98.2812 69L106.984 46.125H112.578L121.406 69H115.844L113.984 64.1406H105.125L103.531 69H98.2812ZM142.203 50.2812V69H137.297V50.2812H131.703V46.125H147.828V50.2812H142.203ZM170.672 46.125V60.3594C170.672 63.4635 169.854 65.7812 168.219 67.3125C166.583 68.8438 164.12 69.6094 160.828 69.6094C157.484 69.6094 154.995 68.8438 153.359 67.3125C151.724 65.7812 150.906 63.4635 150.906 60.3594V46.125H155.766V59.5938C155.766 61.4792 156.182 62.901 157.016 63.8594C157.849 64.8073 159.094 65.2812 160.75 65.2812C162.417 65.2812 163.677 64.8021 164.531 63.8438C165.385 62.8854 165.812 61.4688 165.812 59.5938V46.125H170.672ZM185.594 69V46.125H199.062V50.25H190.484V54.9531H199.062V59.1094H190.484V64.8438H199.062V69H185.594ZM201.891 69L205.375 46.125H210.5L214.906 59.5938C215 59.875 215.099 60.2865 215.203 60.8281C215.318 61.3698 215.422 61.9896 215.516 62.6875C215.599 61.9792 215.693 61.349 215.797 60.7969C215.901 60.2344 216 59.8229 216.094 59.5625L220.578 46.125H225.625L229.125 69H224.484L222.812 55.2031C222.688 54.1823 222.604 53.4115 222.562 52.8906C222.521 52.3698 222.5 51.8854 222.5 51.4375C222.5 51.1979 222.5 51.0208 222.5 50.9062C222.51 50.7812 222.521 50.6719 222.531 50.5781C222.375 51.474 222.224 52.25 222.078 52.9062C221.943 53.5521 221.818 54.0417 221.703 54.375L216.859 69H214.109L209.344 54.375C209.302 54.2396 209.208 53.8646 209.062 53.25C208.927 52.6354 208.734 51.7396 208.484 50.5625V51.2344C208.484 52.2969 208.391 53.599 208.203 55.1406L208.188 55.2031L206.531 69H201.891ZM237.234 56.4531H237.938C239.271 56.4531 240.24 56.1771 240.844 55.625C241.448 55.0729 241.75 54.1875 241.75 52.9688C241.75 51.8438 241.448 51.026 240.844 50.5156C240.24 49.9948 239.271 49.7344 237.938 49.7344H237.234V56.4531ZM232.312 69V46.125H237.938C240.938 46.125 243.151 46.6979 244.578 47.8438C246.016 48.9896 246.734 50.7604 246.734 53.1562C246.734 55.375 246.01 57.1146 244.562 58.375C243.125 59.6354 241.13 60.2656 238.578 60.2656H237.234V69H232.312ZM266.672 69H261.031L255.016 58.3125V69H250.125V46.125H257.125C259.906 46.125 261.99 46.6667 263.375 47.75C264.76 48.8229 265.453 50.4427 265.453 52.6094C265.453 54.1823 264.979 55.526 264.031 56.6406C263.083 57.7552 261.859 58.4062 260.359 58.5938L266.672 69ZM255.016 55.875H255.75C257.729 55.875 259.036 55.6615 259.672 55.2344C260.307 54.7969 260.625 54.0417 260.625 52.9688C260.625 51.8438 260.281 51.0469 259.594 50.5781C258.917 50.099 257.635 49.8594 255.75 49.8594H255.016V55.875ZM269.531 69V46.125H283V50.25H274.422V54.9531H283V59.1094H274.422V64.8438H283V69H269.531ZM286.344 66.0938L289.062 63.0156C289.406 63.8594 289.958 64.526 290.719 65.0156C291.479 65.4948 292.333 65.7344 293.281 65.7344C294.427 65.7344 295.333 65.4635 296 64.9219C296.667 64.3802 297 63.651 297 62.7344C297 61.651 295.891 60.5729 293.672 59.5C292.953 59.1562 292.385 58.875 291.969 58.6562C289.969 57.6146 288.583 56.599 287.812 55.6094C287.042 54.6094 286.656 53.4219 286.656 52.0469C286.656 50.1615 287.401 48.6146 288.891 47.4062C290.391 46.1875 292.333 45.5781 294.719 45.5781C296.104 45.5781 297.297 45.8229 298.297 46.3125C299.307 46.7917 300.198 47.5469 300.969 48.5781L298.078 51.3438C297.734 50.6771 297.276 50.1823 296.703 49.8594C296.141 49.526 295.458 49.3594 294.656 49.3594C293.688 49.3594 292.906 49.6042 292.312 50.0938C291.719 50.5729 291.422 51.1979 291.422 51.9688C291.422 53.1771 292.599 54.2812 294.953 55.2812C295.422 55.4792 295.781 55.6354 296.031 55.75C297.969 56.6354 299.401 57.6354 300.328 58.75C301.266 59.8646 301.734 61.1354 301.734 62.5625C301.734 64.7083 301 66.4219 299.531 67.7031C298.073 68.974 296.109 69.6094 293.641 69.6094C291.891 69.6094 290.391 69.3073 289.141 68.7031C287.891 68.099 286.958 67.2292 286.344 66.0938ZM317.594 60.2969L315.031 52.9062C314.958 52.6875 314.865 52.3125 314.75 51.7812C314.635 51.25 314.516 50.599 314.391 49.8281C314.255 50.5677 314.125 51.2344 314 51.8281C313.875 52.4115 313.781 52.8021 313.719 53L311.25 60.2969H317.594ZM303.031 69L311.734 46.125H317.328L326.156 69H320.594L318.734 64.1406H309.875L308.281 69H303.031Z" fill="white"/>
<path d="M27 125H15C10.5817 125 7 121.418 7 117V26" stroke="white" stroke-width="1.5"/>
<circle cx="7" cy="19" r="6.25" stroke="white" stroke-width="1.5"/>
<rect x="25" y="104" width="337" height="45" rx="10" fill="#002A61"/>
<path d="M54.249 120.471V131H51.4893V120.471H48.3428V118.133H57.4131V120.471H54.249ZM63.1084 125.797C63.0381 125.252 62.8389 124.842 62.5107 124.566C62.1885 124.285 61.7461 124.145 61.1836 124.145C60.6211 124.145 60.1699 124.285 59.8301 124.566C59.4961 124.842 59.2822 125.252 59.1885 125.797H63.1084ZM65.5869 127.309H59.1094C59.209 127.93 59.4346 128.396 59.7861 128.706C60.1377 129.011 60.6152 129.163 61.2188 129.163C61.6758 129.163 62.0684 129.075 62.3965 128.899C62.7305 128.724 63.0088 128.457 63.2314 128.1L65.2529 129.11C64.7842 129.866 64.2158 130.429 63.5479 130.798C62.8799 131.161 62.0859 131.343 61.166 131.343C59.7715 131.343 58.667 130.927 57.8525 130.095C57.0381 129.263 56.6309 128.144 56.6309 126.737C56.6309 125.384 57.0557 124.271 57.9053 123.397C58.7607 122.524 59.8535 122.088 61.1836 122.088C62.5547 122.088 63.6387 122.498 64.4355 123.318C65.2324 124.133 65.6309 125.246 65.6309 126.658C65.6309 126.734 65.6279 126.819 65.6221 126.913C65.6162 127.001 65.6045 127.133 65.5869 127.309ZM79.377 126.676C79.377 125.902 79.1807 125.29 78.7881 124.839C78.4014 124.388 77.877 124.162 77.2148 124.162C76.5352 124.162 75.999 124.388 75.6064 124.839C75.2197 125.284 75.0264 125.896 75.0264 126.676C75.0264 127.455 75.2168 128.062 75.5977 128.495C75.9844 128.929 76.5176 129.146 77.1973 129.146C77.8887 129.146 78.4248 128.929 78.8057 128.495C79.1865 128.062 79.377 127.455 79.377 126.676ZM81.6621 131H79.2363L79.2715 129.761C78.9316 130.306 78.5215 130.707 78.041 130.965C77.5664 131.217 76.9863 131.343 76.3008 131.343C75.1582 131.343 74.2354 130.918 73.5322 130.068C72.835 129.219 72.4863 128.097 72.4863 126.702C72.4863 125.249 72.8291 124.118 73.5146 123.31C74.2061 122.495 75.1641 122.088 76.3887 122.088C77.0273 122.088 77.5869 122.231 78.0674 122.519C78.5537 122.806 78.9609 123.233 79.2891 123.802V122.378H81.6621V131ZM86.1533 130.332L82.6816 122.378H85.5732L87.0674 126.324C87.167 126.57 87.249 126.854 87.3135 127.177C87.3779 127.493 87.4277 127.848 87.4629 128.24C87.5215 127.924 87.5947 127.602 87.6826 127.273C87.7705 126.945 87.8789 126.597 88.0078 126.228L89.3174 122.378H92.1826L87.0498 134.92H84.2812L86.1533 130.332ZM95.7422 122.378V126.913C95.7422 127.675 95.8887 128.22 96.1816 128.548C96.4805 128.876 96.9639 129.04 97.6318 129.04C98.2939 129.04 98.7744 128.876 99.0732 128.548C99.3721 128.214 99.5215 127.669 99.5215 126.913V122.378H102.026V126.913C102.026 128.431 101.672 129.55 100.963 130.271C100.254 130.985 99.1553 131.343 97.667 131.343C96.1494 131.343 95.0332 130.985 94.3184 130.271C93.6094 129.556 93.2549 128.437 93.2549 126.913V122.378H95.7422ZM110.789 126.676C110.789 125.902 110.593 125.29 110.2 124.839C109.813 124.388 109.289 124.162 108.627 124.162C107.947 124.162 107.411 124.385 107.019 124.83C106.632 125.27 106.438 125.879 106.438 126.658C106.438 127.438 106.629 128.047 107.01 128.486C107.396 128.926 107.93 129.146 108.609 129.146C109.301 129.146 109.837 128.929 110.218 128.495C110.599 128.062 110.789 127.455 110.789 126.676ZM113.074 131H110.648L110.684 129.761C110.344 130.306 109.934 130.707 109.453 130.965C108.979 131.217 108.398 131.343 107.713 131.343C106.57 131.343 105.647 130.918 104.944 130.068C104.247 129.219 103.898 128.097 103.898 126.702C103.898 125.243 104.241 124.106 104.927 123.292C105.618 122.478 106.576 122.07 107.801 122.07C108.428 122.07 108.979 122.214 109.453 122.501C109.928 122.788 110.373 123.242 110.789 123.863C110.76 123.652 110.736 123.421 110.719 123.169C110.707 122.911 110.701 122.618 110.701 122.29V117.377H113.074V131ZM121.881 126.676C121.881 125.902 121.685 125.29 121.292 124.839C120.905 124.388 120.381 124.162 119.719 124.162C119.039 124.162 118.503 124.388 118.11 124.839C117.724 125.284 117.53 125.896 117.53 126.676C117.53 127.455 117.721 128.062 118.102 128.495C118.488 128.929 119.021 129.146 119.701 129.146C120.393 129.146 120.929 128.929 121.31 128.495C121.69 128.062 121.881 127.455 121.881 126.676ZM124.166 131H121.74L121.775 129.761C121.436 130.306 121.025 130.707 120.545 130.965C120.07 131.217 119.49 131.343 118.805 131.343C117.662 131.343 116.739 130.918 116.036 130.068C115.339 129.219 114.99 128.097 114.99 126.702C114.99 125.249 115.333 124.118 116.019 123.31C116.71 122.495 117.668 122.088 118.893 122.088C119.531 122.088 120.091 122.231 120.571 122.519C121.058 122.806 121.465 123.233 121.793 123.802V122.378H124.166V131ZM129 131H126.495V122.378H129V123.731C129.41 123.163 129.847 122.747 130.31 122.483C130.778 122.22 131.309 122.088 131.9 122.088C132.615 122.088 133.195 122.234 133.641 122.527C134.092 122.82 134.411 123.263 134.599 123.854C134.997 123.269 135.448 122.829 135.952 122.536C136.462 122.237 137.019 122.088 137.622 122.088C138.231 122.088 138.747 122.202 139.169 122.431C139.597 122.653 139.928 122.99 140.162 123.441C140.285 123.688 140.373 123.966 140.426 124.276C140.479 124.587 140.505 125.059 140.505 125.691V125.964V131H138V126.737C138 125.688 137.892 124.991 137.675 124.646C137.464 124.3 137.092 124.127 136.559 124.127C135.914 124.127 135.445 124.367 135.152 124.848C134.865 125.328 134.722 126.113 134.722 127.203V131H132.217V126.737C132.217 125.724 132.117 125.038 131.918 124.681C131.719 124.323 131.376 124.145 130.89 124.145C130.228 124.145 129.747 124.388 129.448 124.874C129.149 125.354 129 126.131 129 127.203V131ZM149.417 126.702C149.417 125.999 149.212 125.439 148.802 125.023C148.392 124.602 147.841 124.391 147.149 124.391C146.458 124.391 145.91 124.599 145.506 125.015C145.102 125.431 144.899 125.993 144.899 126.702C144.899 127.405 145.102 127.968 145.506 128.39C145.91 128.812 146.458 129.022 147.149 129.022C147.835 129.022 148.383 128.812 148.793 128.39C149.209 127.968 149.417 127.405 149.417 126.702ZM151.966 126.72C151.966 128.044 151.512 129.146 150.604 130.024C149.701 130.903 148.556 131.343 147.167 131.343C145.767 131.343 144.612 130.903 143.704 130.024C142.796 129.146 142.342 128.044 142.342 126.72C142.342 125.401 142.799 124.3 143.713 123.415C144.627 122.53 145.778 122.088 147.167 122.088C148.562 122.088 149.71 122.524 150.612 123.397C151.515 124.271 151.966 125.378 151.966 126.72ZM153.021 129.488L154.945 128.495C155.01 128.829 155.183 129.093 155.464 129.286C155.745 129.479 156.094 129.576 156.51 129.576C156.92 129.576 157.242 129.503 157.477 129.356C157.711 129.204 157.828 128.996 157.828 128.732C157.828 128.316 157.412 127.968 156.58 127.687C156.322 127.599 156.117 127.525 155.965 127.467C154.951 127.086 154.248 126.702 153.855 126.315C153.469 125.929 153.275 125.451 153.275 124.883C153.275 124.039 153.606 123.356 154.269 122.835C154.931 122.313 155.804 122.053 156.888 122.053C157.661 122.053 158.329 122.208 158.892 122.519C159.46 122.829 159.873 123.269 160.131 123.837L158.294 124.751C158.194 124.429 158.021 124.186 157.775 124.021C157.529 123.852 157.222 123.767 156.853 123.767C156.483 123.767 156.185 123.843 155.956 123.995C155.728 124.147 155.613 124.347 155.613 124.593C155.613 125.021 156.182 125.419 157.318 125.788C157.453 125.829 157.556 125.861 157.626 125.885C158.569 126.195 159.24 126.559 159.639 126.975C160.037 127.385 160.236 127.909 160.236 128.548C160.236 129.403 159.905 130.083 159.243 130.587C158.581 131.091 157.688 131.343 156.562 131.343C155.672 131.343 154.91 131.179 154.277 130.851C153.65 130.517 153.231 130.062 153.021 129.488ZM171.267 123.638C173.049 123.638 174.111 125.006 174.111 126.698C174.111 128.408 173.139 129.902 171.285 129.902C169.485 129.902 168.513 128.336 168.513 126.68C168.513 125.096 169.593 123.638 171.267 123.638ZM175.479 122.54H174.039V123.746H174.003C173.301 122.846 172.257 122.306 171.105 122.306C168.567 122.306 167.037 124.376 167.037 126.788C167.037 129.128 168.603 131.234 171.087 131.234C172.275 131.234 173.265 130.766 174.003 129.83H174.039V131H175.479V122.54ZM187.372 131.234C189.838 131.234 191.818 129.272 191.818 126.788C191.818 124.304 189.856 122.306 187.372 122.306C184.888 122.306 182.926 124.304 182.926 126.788C182.926 129.272 184.906 131.234 187.372 131.234ZM187.372 123.638C189.154 123.638 190.378 125.06 190.378 126.77C190.378 128.498 189.154 129.902 187.372 129.902C185.59 129.902 184.366 128.498 184.366 126.77C184.366 125.06 185.59 123.638 187.372 123.638ZM197.84 123.638C199.622 123.638 200.684 125.006 200.684 126.698C200.684 128.408 199.712 129.902 197.858 129.902C196.058 129.902 195.086 128.336 195.086 126.68C195.086 125.096 196.166 123.638 197.84 123.638ZM195.158 122.54H193.718V135.752H195.158V129.812H195.194C195.878 130.73 196.94 131.234 198.092 131.234C200.63 131.234 202.16 129.2 202.16 126.788C202.16 124.448 200.594 122.306 198.11 122.306C196.94 122.306 195.896 122.81 195.194 123.746H195.158V122.54ZM205.691 123.872H207.203V122.54H205.691V119.498H204.251V122.54H203.369V123.872H204.251V131H205.691V123.872ZM210.213 122.54H208.773V131H210.213V122.54ZM209.493 118.328C208.935 118.328 208.467 118.796 208.467 119.354C208.467 119.93 208.935 120.38 209.493 120.38C210.051 120.38 210.519 119.93 210.519 119.354C210.519 118.796 210.051 118.328 209.493 118.328ZM214.654 122.54H213.214V131H214.654V126.626C214.654 125.348 214.834 123.638 216.526 123.638C217.912 123.638 218.038 125.15 218.038 126.194V131H219.478V126.518C219.478 125.24 219.658 123.638 221.314 123.638C222.79 123.638 222.862 124.988 222.862 126.086V131H224.302V125.852C224.302 124.07 223.762 122.306 221.602 122.306C220.576 122.306 219.568 122.774 219.064 123.71C218.614 122.828 217.714 122.306 216.724 122.306C215.86 122.306 215.14 122.756 214.69 123.458H214.654V122.54ZM228.74 122.54H227.3V131H228.74V122.54ZM228.02 118.328C227.462 118.328 226.994 118.796 226.994 119.354C226.994 119.93 227.462 120.38 228.02 120.38C228.578 120.38 229.046 119.93 229.046 119.354C229.046 118.796 228.578 118.328 228.02 118.328ZM233.469 129.668L239.553 122.54H231.687V123.872H236.655L230.553 131H239.301V129.668H233.469ZM244.585 123.638C246.367 123.638 247.429 125.006 247.429 126.698C247.429 128.408 246.457 129.902 244.603 129.902C242.803 129.902 241.831 128.336 241.831 126.68C241.831 125.096 242.911 123.638 244.585 123.638ZM248.797 122.54H247.357V123.746H247.321C246.619 122.846 245.575 122.306 244.423 122.306C241.885 122.306 240.355 124.376 240.355 126.788C240.355 129.128 241.921 131.234 244.405 131.234C245.593 131.234 246.583 130.766 247.321 129.83H247.357V131H248.797V122.54ZM252.832 122.54H251.392V131H252.832V126.77C252.832 125.672 252.904 123.638 254.488 123.638C254.866 123.638 255.064 123.818 255.352 124.016L256.036 122.702C255.622 122.468 255.226 122.306 254.74 122.306C253.804 122.306 253.372 122.792 252.868 123.458H252.832V122.54ZM264.542 123.872H266.054V122.54H264.542V119.498H263.102V122.54H262.22V123.872H263.102V131H264.542V123.872ZM268.686 122.54H267.246V127.418C267.246 129.668 268.092 131.234 270.594 131.234C273.096 131.234 273.942 129.668 273.942 127.418V122.54H272.502V127.256C272.502 128.678 272.34 129.902 270.594 129.902C268.848 129.902 268.686 128.678 268.686 127.256V122.54ZM281.191 123.872C280.813 122.99 279.913 122.306 278.941 122.306C277.573 122.306 276.421 123.278 276.421 124.7C276.421 127.364 280.237 126.716 280.237 128.606C280.237 129.38 279.643 129.902 278.869 129.902C277.915 129.902 277.501 129.344 277.141 128.552L275.863 129.092C276.313 130.424 277.429 131.234 278.851 131.234C280.417 131.234 281.713 130.082 281.713 128.48C281.713 127.058 280.741 126.464 279.751 126.05C278.761 125.636 277.789 125.348 277.789 124.574C277.789 124.034 278.329 123.638 278.833 123.638C279.355 123.638 279.787 124.052 279.985 124.502L281.191 123.872ZM292.802 123.638C294.584 123.638 295.646 125.006 295.646 126.698C295.646 128.408 294.674 129.902 292.82 129.902C291.02 129.902 290.048 128.336 290.048 126.68C290.048 125.096 291.128 123.638 292.802 123.638ZM297.014 122.54H295.574V123.746H295.538C294.836 122.846 293.792 122.306 292.64 122.306C290.102 122.306 288.572 124.376 288.572 126.788C288.572 129.128 290.138 131.234 292.622 131.234C293.81 131.234 294.8 130.766 295.538 129.83H295.574V131H297.014V122.54ZM305.963 123.152C305.207 122.612 304.271 122.306 303.353 122.306C300.869 122.306 298.835 124.25 298.835 126.77C298.835 129.326 300.779 131.234 303.335 131.234C304.343 131.234 305.189 130.928 306.017 130.37V128.444H305.981C305.279 129.362 304.433 129.902 303.227 129.902C301.463 129.902 300.311 128.444 300.311 126.77C300.311 125.078 301.553 123.638 303.299 123.638C304.433 123.638 305.261 124.214 305.927 125.06H305.963V123.152ZM309.753 123.872H311.265V122.54H309.753V119.498H308.313V122.54H307.431V123.872H308.313V131H309.753V123.872ZM314.275 122.54H312.835V131H314.275V122.54ZM313.555 118.328C312.997 118.328 312.529 118.796 312.529 119.354C312.529 119.93 312.997 120.38 313.555 120.38C314.113 120.38 314.581 119.93 314.581 119.354C314.581 118.796 314.113 118.328 313.555 118.328ZM317.564 122.54H315.926L320.084 131.558L324.224 122.54H322.604L320.084 128.228L317.564 122.54ZM329.298 131.234C331.764 131.234 333.744 129.272 333.744 126.788C333.744 124.304 331.782 122.306 329.298 122.306C326.814 122.306 324.852 124.304 324.852 126.788C324.852 129.272 326.832 131.234 329.298 131.234ZM329.298 123.638C331.08 123.638 332.304 125.06 332.304 126.77C332.304 128.498 331.08 129.902 329.298 129.902C327.516 129.902 326.292 128.498 326.292 126.77C326.292 125.06 327.516 123.638 329.298 123.638ZM340.342 123.872C339.964 122.99 339.064 122.306 338.092 122.306C336.724 122.306 335.572 123.278 335.572 124.7C335.572 127.364 339.388 126.716 339.388 128.606C339.388 129.38 338.794 129.902 338.02 129.902C337.066 129.902 336.652 129.344 336.292 128.552L335.014 129.092C335.464 130.424 336.58 131.234 338.002 131.234C339.568 131.234 340.864 130.082 340.864 128.48C340.864 127.058 339.892 126.464 338.902 126.05C337.912 125.636 336.94 125.348 336.94 124.574C336.94 124.034 337.48 123.638 337.984 123.638C338.506 123.638 338.938 124.052 339.136 124.502L340.342 123.872Z" fill="white"/>
</svg>
