<svg width="514" height="288" viewBox="0 0 514 288" fill="none" xmlns="http://www.w3.org/2000/svg">
<path d="M26.744 225H14.686C10.2678 225 6.68604 221.418 6.68604 217V16" stroke="white" stroke-width="1.5"/>
<path d="M12.622 10.0784C12.622 13.6144 9.92461 16.4068 6.68598 16.4068C3.44736 16.4068 0.75 13.6144 0.75 10.0784C0.75 6.54244 3.44736 3.75 6.68598 3.75C9.92461 3.75 12.622 6.54244 12.622 10.0784Z" stroke="white" stroke-width="1.5"/>
<rect x="25" y="203" width="279" height="85" rx="16" fill="#002A61"/>
<path d="M51.7969 239V227.592H48.1582V226.133H56.9648V227.592H53.3438V239H51.7969ZM62.0889 234.069C62.042 233.36 61.8047 232.815 61.377 232.435C60.9551 232.048 60.375 231.854 59.6367 231.854C58.9688 231.854 58.4121 232.057 57.9668 232.461C57.5215 232.859 57.2637 233.396 57.1934 234.069H62.0889ZM63.5654 235.186H57.1934V235.309C57.1934 236.17 57.4395 236.867 57.9316 237.4C58.4238 237.928 59.0654 238.191 59.8564 238.191C60.3955 238.191 60.8818 238.048 61.3154 237.761C61.749 237.468 62.1328 237.028 62.4668 236.442L63.5127 237.146C63.1084 237.872 62.5928 238.42 61.9658 238.789C61.3389 239.158 60.6123 239.343 59.7861 239.343C58.5615 239.343 57.5713 238.938 56.8154 238.13C56.0596 237.321 55.6816 236.261 55.6816 234.948C55.6816 233.688 56.0566 232.657 56.8066 231.854C57.5566 231.052 58.5205 230.65 59.6982 230.65C60.8877 230.65 61.8281 231.031 62.5195 231.793C63.2168 232.555 63.5654 233.595 63.5654 234.913V235.186ZM77.1094 235.019C77.1094 234.122 76.8604 233.401 76.3623 232.856C75.8643 232.306 75.208 232.03 74.3936 232.03C73.5791 232.03 72.9434 232.279 72.4863 232.777C72.0293 233.275 71.8008 233.964 71.8008 234.843C71.8008 235.833 72.0322 236.609 72.4951 237.172C72.958 237.729 73.5967 238.007 74.4111 238.007C75.2549 238.007 75.9141 237.743 76.3887 237.216C76.8691 236.688 77.1094 235.956 77.1094 235.019ZM78.4453 225.377V239H77.1094V237.541C76.793 238.121 76.3828 238.566 75.8789 238.877C75.375 239.188 74.8125 239.343 74.1914 239.343C73.0371 239.343 72.1055 238.947 71.3965 238.156C70.6934 237.359 70.3418 236.308 70.3418 235.001C70.3418 233.683 70.6875 232.631 71.3789 231.846C72.0703 231.061 72.9902 230.668 74.1387 230.668C74.8066 230.668 75.3867 230.82 75.8789 231.125C76.3711 231.424 76.7695 231.872 77.0742 232.47V225.377H78.4453ZM87.4102 235.054C87.4102 234.146 87.1611 233.416 86.6631 232.865C86.1709 232.309 85.5264 232.03 84.7295 232.03C83.9033 232.03 83.2588 232.285 82.7959 232.795C82.333 233.305 82.1016 234.017 82.1016 234.931C82.1016 235.903 82.333 236.653 82.7959 237.181C83.2646 237.708 83.9268 237.972 84.7822 237.972C85.6025 237.972 86.2441 237.717 86.707 237.207C87.1758 236.691 87.4102 235.974 87.4102 235.054ZM88.7461 230.958V239H87.4102V237.541C87.0879 238.127 86.6748 238.575 86.1709 238.886C85.6729 239.19 85.1133 239.343 84.4922 239.343C83.3379 239.343 82.4062 238.947 81.6973 238.156C80.9941 237.359 80.6426 236.308 80.6426 235.001C80.6426 233.677 80.9854 232.625 81.6709 231.846C82.3564 231.061 83.2734 230.668 84.4219 230.668C85.0957 230.668 85.6787 230.82 86.1709 231.125C86.6689 231.424 87.0703 231.872 87.375 232.47V230.958H88.7461ZM102.703 239V234.263C102.703 233.448 102.539 232.845 102.211 232.452C101.883 232.054 101.379 231.854 100.699 231.854C100.33 231.854 99.9873 231.931 99.6709 232.083C99.3604 232.229 99.0967 232.44 98.8799 232.716C98.7217 232.927 98.6074 233.173 98.5371 233.454C98.4668 233.735 98.4316 234.198 98.4316 234.843V239H97.1045V234.263C97.1045 233.448 96.9404 232.845 96.6123 232.452C96.2842 232.054 95.7803 231.854 95.1006 231.854C94.7314 231.854 94.3857 231.931 94.0635 232.083C93.7471 232.229 93.4805 232.44 93.2637 232.716C93.1113 232.921 93 233.158 92.9297 233.428C92.8652 233.697 92.833 234.169 92.833 234.843V239H91.5059V230.958H92.8506V232.197C93.1846 231.682 93.583 231.298 94.0459 231.046C94.5088 230.794 95.042 230.668 95.6455 230.668C96.2959 230.668 96.8496 230.809 97.3066 231.09C97.7637 231.365 98.1094 231.77 98.3438 232.303C98.6895 231.752 99.0967 231.342 99.5654 231.072C100.04 230.803 100.588 230.668 101.209 230.668C102.105 230.668 102.806 230.92 103.31 231.424C103.813 231.928 104.065 232.628 104.065 233.524V239H102.703ZM107.59 235.001C107.59 235.851 107.874 236.571 108.442 237.163C109.011 237.749 109.699 238.042 110.508 238.042C111.311 238.042 111.993 237.749 112.556 237.163C113.118 236.571 113.399 235.851 113.399 235.001C113.399 234.151 113.118 233.434 112.556 232.848C111.993 232.256 111.311 231.96 110.508 231.96C109.693 231.96 109.002 232.256 108.434 232.848C107.871 233.434 107.59 234.151 107.59 235.001ZM106.131 235.001C106.131 234.409 106.239 233.853 106.456 233.331C106.673 232.804 106.989 232.335 107.405 231.925C107.821 231.515 108.293 231.204 108.82 230.993C109.348 230.776 109.91 230.668 110.508 230.668C111.094 230.668 111.647 230.776 112.169 230.993C112.696 231.21 113.174 231.526 113.602 231.942C114.018 232.347 114.334 232.812 114.551 233.34C114.768 233.861 114.876 234.415 114.876 235.001C114.876 235.587 114.768 236.141 114.551 236.662C114.334 237.178 114.018 237.638 113.602 238.042C113.174 238.464 112.693 238.786 112.16 239.009C111.633 239.231 111.082 239.343 110.508 239.343C109.916 239.343 109.354 239.231 108.82 239.009C108.293 238.792 107.821 238.479 107.405 238.068C106.989 237.646 106.673 237.178 106.456 236.662C106.239 236.146 106.131 235.593 106.131 235.001ZM116.177 237.646L117.354 236.855C117.577 237.283 117.858 237.605 118.198 237.822C118.538 238.033 118.939 238.139 119.402 238.139C119.854 238.139 120.217 238.027 120.492 237.805C120.773 237.582 120.914 237.289 120.914 236.926C120.914 236.645 120.817 236.41 120.624 236.223C120.437 236.035 120.111 235.862 119.648 235.704C119.602 235.687 119.525 235.66 119.42 235.625C117.463 234.951 116.484 234.107 116.484 233.094C116.484 232.379 116.748 231.796 117.275 231.345C117.803 230.894 118.488 230.668 119.332 230.668C120.029 230.668 120.627 230.809 121.125 231.09C121.623 231.365 121.98 231.758 122.197 232.268L121.081 232.953C120.917 232.584 120.674 232.3 120.352 232.101C120.035 231.901 119.666 231.802 119.244 231.802C118.84 231.802 118.509 231.916 118.251 232.145C117.999 232.367 117.873 232.654 117.873 233.006C117.873 233.498 118.406 233.911 119.473 234.245C119.672 234.31 119.83 234.359 119.947 234.395C120.82 234.676 121.427 234.998 121.767 235.361C122.112 235.719 122.285 236.193 122.285 236.785C122.285 237.547 122.013 238.165 121.468 238.64C120.929 239.108 120.223 239.343 119.35 239.343C118.6 239.343 117.961 239.202 117.434 238.921C116.912 238.64 116.493 238.215 116.177 237.646ZM129.738 239V225.377H131.145V239H129.738ZM140.18 235.054C140.18 234.146 139.931 233.416 139.433 232.865C138.94 232.309 138.296 232.03 137.499 232.03C136.673 232.03 136.028 232.285 135.565 232.795C135.103 233.305 134.871 234.017 134.871 234.931C134.871 235.903 135.103 236.653 135.565 237.181C136.034 237.708 136.696 237.972 137.552 237.972C138.372 237.972 139.014 237.717 139.477 237.207C139.945 236.691 140.18 235.974 140.18 235.054ZM141.516 230.958V239H140.18V237.541C139.857 238.127 139.444 238.575 138.94 238.886C138.442 239.19 137.883 239.343 137.262 239.343C136.107 239.343 135.176 238.947 134.467 238.156C133.764 237.359 133.412 236.308 133.412 235.001C133.412 233.677 133.755 232.625 134.44 231.846C135.126 231.061 136.043 230.668 137.191 230.668C137.865 230.668 138.448 230.82 138.94 231.125C139.438 231.424 139.84 231.872 140.145 232.47V230.958H141.516ZM143.423 237.646L144.601 236.855C144.823 237.283 145.104 237.605 145.444 237.822C145.784 238.033 146.186 238.139 146.648 238.139C147.1 238.139 147.463 238.027 147.738 237.805C148.02 237.582 148.16 237.289 148.16 236.926C148.16 236.645 148.063 236.41 147.87 236.223C147.683 236.035 147.357 235.862 146.895 235.704C146.848 235.687 146.771 235.66 146.666 235.625C144.709 234.951 143.73 234.107 143.73 233.094C143.73 232.379 143.994 231.796 144.521 231.345C145.049 230.894 145.734 230.668 146.578 230.668C147.275 230.668 147.873 230.809 148.371 231.09C148.869 231.365 149.227 231.758 149.443 232.268L148.327 232.953C148.163 232.584 147.92 232.3 147.598 232.101C147.281 231.901 146.912 231.802 146.49 231.802C146.086 231.802 145.755 231.916 145.497 232.145C145.245 232.367 145.119 232.654 145.119 233.006C145.119 233.498 145.652 233.911 146.719 234.245C146.918 234.31 147.076 234.359 147.193 234.395C148.066 234.676 148.673 234.998 149.013 235.361C149.358 235.719 149.531 236.193 149.531 236.785C149.531 237.547 149.259 238.165 148.714 238.64C148.175 239.108 147.469 239.343 146.596 239.343C145.846 239.343 145.207 239.202 144.68 238.921C144.158 238.64 143.739 238.215 143.423 237.646ZM156.914 239V225.377H158.259V232.197C158.604 231.682 159.021 231.298 159.507 231.046C159.993 230.794 160.556 230.668 161.194 230.668C162.144 230.668 162.885 230.92 163.418 231.424C163.951 231.928 164.218 232.628 164.218 233.524V239H162.812V234.263C162.812 233.448 162.639 232.845 162.293 232.452C161.953 232.054 161.426 231.854 160.711 231.854C160.301 231.854 159.926 231.931 159.586 232.083C159.252 232.229 158.974 232.44 158.751 232.716C158.581 232.927 158.458 233.167 158.382 233.437C158.312 233.706 158.276 234.175 158.276 234.843V239H156.914ZM172.655 234.069C172.608 233.36 172.371 232.815 171.943 232.435C171.521 232.048 170.941 231.854 170.203 231.854C169.535 231.854 168.979 232.057 168.533 232.461C168.088 232.859 167.83 233.396 167.76 234.069H172.655ZM174.132 235.186H167.76V235.309C167.76 236.17 168.006 236.867 168.498 237.4C168.99 237.928 169.632 238.191 170.423 238.191C170.962 238.191 171.448 238.048 171.882 237.761C172.315 237.468 172.699 237.028 173.033 236.442L174.079 237.146C173.675 237.872 173.159 238.42 172.532 238.789C171.905 239.158 171.179 239.343 170.353 239.343C169.128 239.343 168.138 238.938 167.382 238.13C166.626 237.321 166.248 236.261 166.248 234.948C166.248 233.688 166.623 232.657 167.373 231.854C168.123 231.052 169.087 230.65 170.265 230.65C171.454 230.65 172.395 231.031 173.086 231.793C173.783 232.555 174.132 233.595 174.132 234.913V235.186ZM176.232 239V230.958H177.454V232.628C177.823 231.931 178.216 231.433 178.632 231.134C179.048 230.835 179.555 230.686 180.152 230.686C180.316 230.686 180.475 230.7 180.627 230.729C180.779 230.753 180.932 230.791 181.084 230.844L180.627 232.083C180.469 232.03 180.319 231.992 180.179 231.969C180.038 231.939 179.903 231.925 179.774 231.925C179.048 231.925 178.503 232.188 178.14 232.716C177.776 233.237 177.595 234.025 177.595 235.08V239H176.232ZM182.561 239V230.958H183.782V232.628C184.151 231.931 184.544 231.433 184.96 231.134C185.376 230.835 185.883 230.686 186.48 230.686C186.645 230.686 186.803 230.7 186.955 230.729C187.107 230.753 187.26 230.791 187.412 230.844L186.955 232.083C186.797 232.03 186.647 231.992 186.507 231.969C186.366 231.939 186.231 231.925 186.103 231.925C185.376 231.925 184.831 232.188 184.468 232.716C184.104 233.237 183.923 234.025 183.923 235.08V239H182.561ZM195.023 235.054C195.023 234.146 194.774 233.416 194.276 232.865C193.784 232.309 193.14 232.03 192.343 232.03C191.517 232.03 190.872 232.285 190.409 232.795C189.946 233.305 189.715 234.017 189.715 234.931C189.715 235.903 189.946 236.653 190.409 237.181C190.878 237.708 191.54 237.972 192.396 237.972C193.216 237.972 193.857 237.717 194.32 237.207C194.789 236.691 195.023 235.974 195.023 235.054ZM196.359 230.958V239H195.023V237.541C194.701 238.127 194.288 238.575 193.784 238.886C193.286 239.19 192.727 239.343 192.105 239.343C190.951 239.343 190.02 238.947 189.311 238.156C188.607 237.359 188.256 236.308 188.256 235.001C188.256 233.677 188.599 232.625 189.284 231.846C189.97 231.061 190.887 230.668 192.035 230.668C192.709 230.668 193.292 230.82 193.784 231.125C194.282 231.424 194.684 231.872 194.988 232.47V230.958H196.359ZM210.316 239V234.263C210.316 233.448 210.152 232.845 209.824 232.452C209.496 232.054 208.992 231.854 208.312 231.854C207.943 231.854 207.601 231.931 207.284 232.083C206.974 232.229 206.71 232.44 206.493 232.716C206.335 232.927 206.221 233.173 206.15 233.454C206.08 233.735 206.045 234.198 206.045 234.843V239H204.718V234.263C204.718 233.448 204.554 232.845 204.226 232.452C203.897 232.054 203.394 231.854 202.714 231.854C202.345 231.854 201.999 231.931 201.677 232.083C201.36 232.229 201.094 232.44 200.877 232.716C200.725 232.921 200.613 233.158 200.543 233.428C200.479 233.697 200.446 234.169 200.446 234.843V239H199.119V230.958H200.464V232.197C200.798 231.682 201.196 231.298 201.659 231.046C202.122 230.794 202.655 230.668 203.259 230.668C203.909 230.668 204.463 230.809 204.92 231.09C205.377 231.365 205.723 231.77 205.957 232.303C206.303 231.752 206.71 231.342 207.179 231.072C207.653 230.803 208.201 230.668 208.822 230.668C209.719 230.668 210.419 230.92 210.923 231.424C211.427 231.928 211.679 232.628 211.679 233.524V239H210.316ZM214.14 227.082C214.14 226.807 214.236 226.572 214.43 226.379C214.629 226.18 214.869 226.08 215.15 226.08C215.426 226.08 215.66 226.18 215.854 226.379C216.053 226.578 216.152 226.818 216.152 227.1C216.152 227.375 216.056 227.609 215.862 227.803C215.669 227.996 215.432 228.093 215.15 228.093C214.869 228.093 214.629 227.996 214.43 227.803C214.236 227.609 214.14 227.369 214.14 227.082ZM214.465 239V230.958H215.854V239H214.465ZM224.458 234.069C224.411 233.36 224.174 232.815 223.746 232.435C223.324 232.048 222.744 231.854 222.006 231.854C221.338 231.854 220.781 232.057 220.336 232.461C219.891 232.859 219.633 233.396 219.562 234.069H224.458ZM225.935 235.186H219.562V235.309C219.562 236.17 219.809 236.867 220.301 237.4C220.793 237.928 221.435 238.191 222.226 238.191C222.765 238.191 223.251 238.048 223.685 237.761C224.118 237.468 224.502 237.028 224.836 236.442L225.882 237.146C225.478 237.872 224.962 238.42 224.335 238.789C223.708 239.158 222.981 239.343 222.155 239.343C220.931 239.343 219.94 238.938 219.185 238.13C218.429 237.321 218.051 236.261 218.051 234.948C218.051 233.688 218.426 232.657 219.176 231.854C219.926 231.052 220.89 230.65 222.067 230.65C223.257 230.65 224.197 231.031 224.889 231.793C225.586 232.555 225.935 233.595 225.935 234.913V235.186ZM228.018 239V230.958H229.362V232.197C229.708 231.682 230.124 231.298 230.61 231.046C231.097 230.794 231.659 230.668 232.298 230.668C233.247 230.668 233.988 230.92 234.521 231.424C235.055 231.928 235.321 232.628 235.321 233.524V239H233.915V234.263C233.915 233.448 233.742 232.845 233.396 232.452C233.057 232.054 232.529 231.854 231.814 231.854C231.404 231.854 231.029 231.931 230.689 232.083C230.355 232.229 230.077 232.44 229.854 232.716C229.685 232.927 229.562 233.167 229.485 233.437C229.415 233.706 229.38 234.175 229.38 234.843V239H228.018ZM238.266 232.092H236.789V230.958H238.266V227.715H239.672V230.958H241.148V232.092H239.672V239H238.266V232.092ZM248.865 235.054C248.865 234.146 248.616 233.416 248.118 232.865C247.626 232.309 246.981 232.03 246.185 232.03C245.358 232.03 244.714 232.285 244.251 232.795C243.788 233.305 243.557 234.017 243.557 234.931C243.557 235.903 243.788 236.653 244.251 237.181C244.72 237.708 245.382 237.972 246.237 237.972C247.058 237.972 247.699 237.717 248.162 237.207C248.631 236.691 248.865 235.974 248.865 235.054ZM250.201 230.958V239H248.865V237.541C248.543 238.127 248.13 238.575 247.626 238.886C247.128 239.19 246.568 239.343 245.947 239.343C244.793 239.343 243.861 238.947 243.152 238.156C242.449 237.359 242.098 236.308 242.098 235.001C242.098 233.677 242.44 232.625 243.126 231.846C243.812 231.061 244.729 230.668 245.877 230.668C246.551 230.668 247.134 230.82 247.626 231.125C248.124 231.424 248.525 231.872 248.83 232.47V230.958H250.201ZM252.108 237.646L253.286 236.855C253.509 237.283 253.79 237.605 254.13 237.822C254.47 238.033 254.871 238.139 255.334 238.139C255.785 238.139 256.148 238.027 256.424 237.805C256.705 237.582 256.846 237.289 256.846 236.926C256.846 236.645 256.749 236.41 256.556 236.223C256.368 236.035 256.043 235.862 255.58 235.704C255.533 235.687 255.457 235.66 255.352 235.625C253.395 234.951 252.416 234.107 252.416 233.094C252.416 232.379 252.68 231.796 253.207 231.345C253.734 230.894 254.42 230.668 255.264 230.668C255.961 230.668 256.559 230.809 257.057 231.09C257.555 231.365 257.912 231.758 258.129 232.268L257.013 232.953C256.849 232.584 256.605 232.3 256.283 232.101C255.967 231.901 255.598 231.802 255.176 231.802C254.771 231.802 254.44 231.916 254.183 232.145C253.931 232.367 253.805 232.654 253.805 233.006C253.805 233.498 254.338 233.911 255.404 234.245C255.604 234.31 255.762 234.359 255.879 234.395C256.752 234.676 257.358 234.998 257.698 235.361C258.044 235.719 258.217 236.193 258.217 236.785C258.217 237.547 257.944 238.165 257.399 238.64C256.86 239.108 256.154 239.343 255.281 239.343C254.531 239.343 253.893 239.202 253.365 238.921C252.844 238.64 252.425 238.215 252.108 237.646ZM50.7334 255.001C50.7334 255.903 50.9824 256.627 51.4805 257.172C51.9785 257.717 52.6377 257.989 53.458 257.989C54.2607 257.989 54.8906 257.74 55.3477 257.242C55.8105 256.744 56.042 256.053 56.042 255.168C56.042 254.178 55.8105 253.401 55.3477 252.839C54.8906 252.276 54.252 251.995 53.4316 251.995C52.5938 251.995 51.9346 252.262 51.4541 252.795C50.9736 253.328 50.7334 254.063 50.7334 255.001ZM49.4062 262.92V250.958H50.7158V252.47C51.0264 251.89 51.4365 251.444 51.9463 251.134C52.4561 250.823 53.0244 250.668 53.6514 250.668C54.8115 250.668 55.7432 251.063 56.4463 251.854C57.1494 252.646 57.501 253.694 57.501 255.001C57.501 256.331 57.1553 257.389 56.4639 258.174C55.7783 258.953 54.8584 259.343 53.7041 259.343C53.042 259.343 52.4648 259.193 51.9727 258.895C51.4805 258.59 51.0791 258.139 50.7686 257.541V262.92H49.4062ZM65.8594 255.054C65.8594 254.146 65.6104 253.416 65.1123 252.865C64.6201 252.309 63.9756 252.03 63.1787 252.03C62.3525 252.03 61.708 252.285 61.2451 252.795C60.7822 253.305 60.5508 254.017 60.5508 254.931C60.5508 255.903 60.7822 256.653 61.2451 257.181C61.7139 257.708 62.376 257.972 63.2314 257.972C64.0518 257.972 64.6934 257.717 65.1562 257.207C65.625 256.691 65.8594 255.974 65.8594 255.054ZM67.1953 250.958V259H65.8594V257.541C65.5371 258.127 65.124 258.575 64.6201 258.886C64.1221 259.19 63.5625 259.343 62.9414 259.343C61.7871 259.343 60.8555 258.947 60.1465 258.156C59.4434 257.359 59.0918 256.308 59.0918 255.001C59.0918 253.677 59.4346 252.625 60.1201 251.846C60.8057 251.061 61.7227 250.668 62.8711 250.668C63.5449 250.668 64.1279 250.82 64.6201 251.125C65.1182 251.424 65.5195 251.872 65.8242 252.47V250.958H67.1953ZM69.9727 259V250.958H71.1943V252.628C71.5635 251.931 71.9561 251.433 72.3721 251.134C72.7881 250.835 73.2949 250.686 73.8926 250.686C74.0566 250.686 74.2148 250.7 74.3672 250.729C74.5195 250.753 74.6719 250.791 74.8242 250.844L74.3672 252.083C74.209 252.03 74.0596 251.992 73.9189 251.969C73.7783 251.939 73.6436 251.925 73.5146 251.925C72.7881 251.925 72.2432 252.188 71.8799 252.716C71.5166 253.237 71.335 254.025 71.335 255.08V259H69.9727ZM82.4355 255.054C82.4355 254.146 82.1865 253.416 81.6885 252.865C81.1963 252.309 80.5518 252.03 79.7549 252.03C78.9287 252.03 78.2842 252.285 77.8213 252.795C77.3584 253.305 77.127 254.017 77.127 254.931C77.127 255.903 77.3584 256.653 77.8213 257.181C78.29 257.708 78.9521 257.972 79.8076 257.972C80.6279 257.972 81.2695 257.717 81.7324 257.207C82.2012 256.691 82.4355 255.974 82.4355 255.054ZM83.7715 250.958V259H82.4355V257.541C82.1133 258.127 81.7002 258.575 81.1963 258.886C80.6982 259.19 80.1387 259.343 79.5176 259.343C78.3633 259.343 77.4316 258.947 76.7227 258.156C76.0195 257.359 75.668 256.308 75.668 255.001C75.668 253.677 76.0107 252.625 76.6963 251.846C77.3818 251.061 78.2988 250.668 79.4473 250.668C80.1211 250.668 80.7041 250.82 81.1963 251.125C81.6943 251.424 82.0957 251.872 82.4004 252.47V250.958H83.7715ZM97.957 253.041C97.6523 252.771 97.3594 252.575 97.0781 252.452C96.8262 252.329 96.5303 252.268 96.1904 252.268C95.5635 252.268 95.0713 252.473 94.7139 252.883C94.3447 253.287 94.1602 253.844 94.1602 254.553C94.1602 255.232 94.3506 255.771 94.7314 256.17C95.1006 256.58 95.6133 256.785 96.2695 256.785C96.5801 256.785 96.8789 256.721 97.166 256.592C97.4707 256.445 97.7344 256.252 97.957 256.012V258.728C97.582 258.927 97.2041 259.085 96.8232 259.202C96.4189 259.296 96.0352 259.343 95.6719 259.343C94.3008 259.343 93.1963 258.903 92.3584 258.024C92.0713 257.731 91.834 257.409 91.6465 257.058C91.4648 256.706 91.3242 256.325 91.2246 255.915C91.1309 255.505 91.084 255.057 91.084 254.57C91.084 253.17 91.5117 252.033 92.3672 251.16C93.2285 250.281 94.3418 249.842 95.707 249.842C96.1348 249.842 96.542 249.889 96.9287 249.982C97.3037 250.076 97.6465 250.214 97.957 250.396V253.041ZM99.8994 259V250.123H102.853V252.215C103.163 251.447 103.576 250.876 104.092 250.501C104.625 250.12 105.267 249.93 106.017 249.93C106.187 249.93 106.312 249.936 106.395 249.947C106.459 249.953 106.518 249.959 106.57 249.965C106.623 249.965 106.69 249.971 106.772 249.982L106.474 252.83C106.257 252.76 106.069 252.71 105.911 252.681C105.677 252.657 105.504 252.646 105.393 252.646C104.631 252.646 104.042 252.88 103.626 253.349C103.216 253.812 103.011 254.471 103.011 255.326V259H99.8994ZM114.05 253.419C113.997 252.927 113.807 252.525 113.479 252.215C113.15 251.904 112.749 251.749 112.274 251.749C111.776 251.749 111.372 251.887 111.062 252.162C110.739 252.473 110.537 252.892 110.455 253.419H114.05ZM117.135 255.186H110.385C110.402 255.877 110.575 256.404 110.903 256.768C111.243 257.143 111.735 257.33 112.38 257.33C112.849 257.33 113.25 257.239 113.584 257.058C113.924 256.864 114.17 256.601 114.322 256.267L116.678 257.216C116.402 257.89 115.904 258.411 115.184 258.78C114.469 259.155 113.593 259.343 112.556 259.343C111.009 259.343 109.767 258.909 108.829 258.042C107.897 257.198 107.432 256.07 107.432 254.658C107.432 253.281 107.897 252.13 108.829 251.204C109.761 250.296 110.944 249.842 112.38 249.842C113.845 249.842 115.002 250.302 115.852 251.222C116.285 251.696 116.607 252.25 116.818 252.883C117.029 253.51 117.135 254.228 117.135 255.036V255.186ZM125.309 253.041C125.004 252.771 124.711 252.575 124.43 252.452C124.178 252.329 123.882 252.268 123.542 252.268C122.915 252.268 122.423 252.473 122.065 252.883C121.696 253.287 121.512 253.844 121.512 254.553C121.512 255.232 121.702 255.771 122.083 256.17C122.452 256.58 122.965 256.785 123.621 256.785C123.932 256.785 124.23 256.721 124.518 256.592C124.822 256.445 125.086 256.252 125.309 256.012V258.728C124.934 258.927 124.556 259.085 124.175 259.202C123.771 259.296 123.387 259.343 123.023 259.343C121.652 259.343 120.548 258.903 119.71 258.024C119.423 257.731 119.186 257.409 118.998 257.058C118.816 256.706 118.676 256.325 118.576 255.915C118.482 255.505 118.436 255.057 118.436 254.57C118.436 253.17 118.863 252.033 119.719 251.16C120.58 250.281 121.693 249.842 123.059 249.842C123.486 249.842 123.894 249.889 124.28 249.982C124.655 250.076 124.998 250.214 125.309 250.396V253.041ZM133.351 253.419C133.298 252.927 133.107 252.525 132.779 252.215C132.451 251.904 132.05 251.749 131.575 251.749C131.077 251.749 130.673 251.887 130.362 252.162C130.04 252.473 129.838 252.892 129.756 253.419H133.351ZM136.436 255.186H129.686C129.703 255.877 129.876 256.404 130.204 256.768C130.544 257.143 131.036 257.33 131.681 257.33C132.149 257.33 132.551 257.239 132.885 257.058C133.225 256.864 133.471 256.601 133.623 256.267L135.979 257.216C135.703 257.89 135.205 258.411 134.484 258.78C133.77 259.155 132.894 259.343 131.856 259.343C130.31 259.343 129.067 258.909 128.13 258.042C127.198 257.198 126.732 256.07 126.732 254.658C126.732 253.281 127.198 252.13 128.13 251.204C129.062 250.296 130.245 249.842 131.681 249.842C133.146 249.842 134.303 250.302 135.152 251.222C135.586 251.696 135.908 252.25 136.119 252.883C136.33 253.51 136.436 254.228 136.436 255.036V255.186ZM138.255 259V250.123H141.208V252.215C141.519 251.447 141.932 250.876 142.447 250.501C142.98 250.12 143.622 249.93 144.372 249.93C144.542 249.93 144.668 249.936 144.75 249.947C144.814 249.953 144.873 249.959 144.926 249.965C144.979 249.965 145.046 249.971 145.128 249.982L144.829 252.83C144.612 252.76 144.425 252.71 144.267 252.681C144.032 252.657 143.859 252.646 143.748 252.646C142.986 252.646 142.397 252.88 141.981 253.349C141.571 253.812 141.366 254.471 141.366 255.326V259H138.255ZM152.432 259L152.414 252.338H151.087V250.123H152.414V247.478H155.517V250.123H156.826V252.338H155.517V259H152.432ZM167.399 250.123V254.658C167.399 255.672 167.323 256.41 167.171 256.873C167.007 257.354 166.731 257.787 166.345 258.174C165.976 258.561 165.489 258.854 164.886 259.053C164.312 259.246 163.62 259.343 162.812 259.343C162.009 259.343 161.326 259.246 160.764 259.053C160.184 258.865 159.686 258.572 159.27 258.174C158.889 257.811 158.619 257.383 158.461 256.891C158.303 256.434 158.224 255.689 158.224 254.658V250.123H161.212V254.86C161.212 255.604 161.338 256.138 161.59 256.46C161.818 256.8 162.214 256.97 162.776 256.97C163.333 256.97 163.731 256.806 163.972 256.478C164.218 256.149 164.341 255.61 164.341 254.86V250.123H167.399ZM175.292 259V250.123H178.157V251.925C178.562 251.222 179.042 250.694 179.599 250.343C180.138 250.009 180.791 249.842 181.559 249.842C182.139 249.842 182.654 249.93 183.105 250.105C183.551 250.305 183.911 250.574 184.187 250.914C184.438 251.254 184.605 251.614 184.688 251.995C184.787 252.481 184.837 253.123 184.837 253.92V259H181.699V254.245C181.699 253.524 181.585 253.009 181.356 252.698C181.128 252.376 180.756 252.215 180.24 252.215C179.596 252.215 179.121 252.455 178.816 252.936C178.518 253.416 178.368 254.195 178.368 255.273V259H175.292ZM193.169 253.419C193.116 252.927 192.926 252.525 192.598 252.215C192.27 251.904 191.868 251.749 191.394 251.749C190.896 251.749 190.491 251.887 190.181 252.162C189.858 252.473 189.656 252.892 189.574 253.419H193.169ZM196.254 255.186H189.504C189.521 255.877 189.694 256.404 190.022 256.768C190.362 257.143 190.854 257.33 191.499 257.33C191.968 257.33 192.369 257.239 192.703 257.058C193.043 256.864 193.289 256.601 193.441 256.267L195.797 257.216C195.521 257.89 195.023 258.411 194.303 258.78C193.588 259.155 192.712 259.343 191.675 259.343C190.128 259.343 188.886 258.909 187.948 258.042C187.017 257.198 186.551 256.07 186.551 254.658C186.551 253.281 187.017 252.13 187.948 251.204C188.88 250.296 190.063 249.842 191.499 249.842C192.964 249.842 194.121 250.302 194.971 251.222C195.404 251.696 195.727 252.25 195.938 252.883C196.148 253.51 196.254 254.228 196.254 255.036V255.186ZM204.823 254.535C204.823 253.85 204.645 253.311 204.287 252.918C203.9 252.531 203.391 252.338 202.758 252.338C202.125 252.338 201.615 252.531 201.229 252.918C200.854 253.311 200.666 253.85 200.666 254.535C200.666 255.227 200.854 255.76 201.229 256.135C201.609 256.533 202.119 256.732 202.758 256.732C203.385 256.732 203.889 256.533 204.27 256.135C204.639 255.766 204.823 255.232 204.823 254.535ZM207.574 250.123V258.982C207.574 260.324 207.167 261.314 206.353 261.953C205.96 262.27 205.444 262.51 204.806 262.674C204.167 262.838 203.417 262.92 202.556 262.92C201.155 262.92 200.068 262.662 199.295 262.146C198.521 261.625 198.108 260.901 198.056 259.976H201.299C201.357 260.257 201.513 260.471 201.765 260.617C202.022 260.775 202.365 260.854 202.793 260.854C203.461 260.854 203.927 260.693 204.19 260.371C204.442 260.049 204.568 259.363 204.568 258.314V257.506C204.234 258.068 203.815 258.481 203.312 258.745C202.79 259.021 202.184 259.158 201.492 259.158C200.32 259.158 199.38 258.733 198.671 257.884C198.325 257.468 198.062 256.979 197.88 256.416C197.698 255.848 197.607 255.209 197.607 254.5C197.607 253.082 197.979 251.948 198.724 251.099C199.093 250.677 199.526 250.363 200.024 250.158C200.528 249.947 201.091 249.842 201.712 249.842C202.374 249.842 202.948 249.979 203.435 250.255C203.915 250.513 204.331 250.943 204.683 251.547V250.123H207.574ZM216.24 254.588C216.24 253.926 216.073 253.404 215.739 253.023C215.394 252.643 214.942 252.452 214.386 252.452C213.812 252.452 213.36 252.643 213.032 253.023C212.698 253.393 212.531 253.914 212.531 254.588C212.531 255.244 212.692 255.76 213.015 256.135C213.366 256.521 213.823 256.715 214.386 256.715C214.948 256.715 215.405 256.521 215.757 256.135C216.079 255.748 216.24 255.232 216.24 254.588ZM219.352 254.588C219.352 255.238 219.226 255.845 218.974 256.407C218.71 257.005 218.35 257.521 217.893 257.954C217.377 258.435 216.844 258.783 216.293 259C215.719 259.229 215.083 259.343 214.386 259.343C213.683 259.343 213.047 259.229 212.479 259C211.898 258.771 211.362 258.426 210.87 257.963C210.384 257.494 210.032 256.976 209.815 256.407C209.563 255.862 209.438 255.256 209.438 254.588C209.438 253.938 209.563 253.325 209.815 252.751C210.05 252.171 210.404 251.655 210.879 251.204C211.342 250.759 211.875 250.416 212.479 250.176C213.053 249.953 213.688 249.842 214.386 249.842C215.077 249.842 215.713 249.953 216.293 250.176C216.896 250.416 217.43 250.759 217.893 251.204C218.379 251.644 218.739 252.159 218.974 252.751C219.226 253.325 219.352 253.938 219.352 254.588ZM227.525 253.041C227.221 252.771 226.928 252.575 226.646 252.452C226.395 252.329 226.099 252.268 225.759 252.268C225.132 252.268 224.64 252.473 224.282 252.883C223.913 253.287 223.729 253.844 223.729 254.553C223.729 255.232 223.919 255.771 224.3 256.17C224.669 256.58 225.182 256.785 225.838 256.785C226.148 256.785 226.447 256.721 226.734 256.592C227.039 256.445 227.303 256.252 227.525 256.012V258.728C227.15 258.927 226.772 259.085 226.392 259.202C225.987 259.296 225.604 259.343 225.24 259.343C223.869 259.343 222.765 258.903 221.927 258.024C221.64 257.731 221.402 257.409 221.215 257.058C221.033 256.706 220.893 256.325 220.793 255.915C220.699 255.505 220.652 255.057 220.652 254.57C220.652 253.17 221.08 252.033 221.936 251.16C222.797 250.281 223.91 249.842 225.275 249.842C225.703 249.842 226.11 249.889 226.497 249.982C226.872 250.076 227.215 250.214 227.525 250.396V253.041ZM229.38 259V250.123H232.509V259H229.38ZM229.775 247.838H229.793C229.793 247.51 229.907 247.24 230.136 247.029C230.364 246.801 230.64 246.687 230.962 246.687C231.302 246.687 231.58 246.795 231.797 247.012C232.02 247.229 232.131 247.504 232.131 247.838C232.131 248.178 232.017 248.459 231.788 248.682C231.565 248.91 231.29 249.024 230.962 249.024C230.628 249.024 230.347 248.904 230.118 248.664C229.89 248.441 229.775 248.166 229.775 247.838ZM241.377 254.588C241.377 253.926 241.21 253.404 240.876 253.023C240.53 252.643 240.079 252.452 239.522 252.452C238.948 252.452 238.497 252.643 238.169 253.023C237.835 253.393 237.668 253.914 237.668 254.588C237.668 255.244 237.829 255.76 238.151 256.135C238.503 256.521 238.96 256.715 239.522 256.715C240.085 256.715 240.542 256.521 240.894 256.135C241.216 255.748 241.377 255.232 241.377 254.588ZM244.488 254.588C244.488 255.238 244.362 255.845 244.11 256.407C243.847 257.005 243.486 257.521 243.029 257.954C242.514 258.435 241.98 258.783 241.43 259C240.855 259.229 240.22 259.343 239.522 259.343C238.819 259.343 238.184 259.229 237.615 259C237.035 258.771 236.499 258.426 236.007 257.963C235.521 257.494 235.169 256.976 234.952 256.407C234.7 255.862 234.574 255.256 234.574 254.588C234.574 253.938 234.7 253.325 234.952 252.751C235.187 252.171 235.541 251.655 236.016 251.204C236.479 250.759 237.012 250.416 237.615 250.176C238.189 249.953 238.825 249.842 239.522 249.842C240.214 249.842 240.85 249.953 241.43 250.176C242.033 250.416 242.566 250.759 243.029 251.204C243.516 251.644 243.876 252.159 244.11 252.751C244.362 253.325 244.488 253.938 244.488 254.588Z" fill="white"/>
<path d="M48.544 11.952V5.808H30.592V42H37.648V26.064H47.872V19.92H37.648V11.952H48.544ZM62.8668 5.808H55.8108V42H62.8668V5.808ZM70.9983 42H78.0543V17.424H78.1503L97.2063 42.72H102.294V5.808H95.2383V30.144H95.1423L76.0863 4.848H70.9983V42ZM130.388 34.368L133.172 42H140.708L126.98 4.848H121.508L107.396 42H114.836L117.812 34.368H130.388ZM128.42 28.608H119.828L123.812 15.456H123.908L128.42 28.608ZM145.858 42H152.914V17.424H153.01L172.066 42.72H177.154V5.808H170.098V30.144H170.002L150.946 4.848H145.858V42ZM209.472 6.96C207.024 5.616 204.24 4.848 201.408 4.848C190.8 4.848 183.552 13.92 183.552 24.192C183.552 34.176 191.088 42.96 201.264 42.96C204.192 42.96 206.832 42.048 209.472 40.8V32.4C207.504 34.656 204.48 36.24 201.456 36.24C194.88 36.24 190.848 30.144 190.848 24.048C190.848 17.808 194.736 11.568 201.504 11.568C204.528 11.568 207.504 13.008 209.472 15.408V6.96ZM224.164 5.808H217.108V42H224.164V5.808ZM252.263 34.368L255.047 42H262.583L248.855 4.848H243.383L229.271 42H236.711L239.687 34.368H252.263ZM250.295 28.608H241.703L245.687 15.456H245.783L250.295 28.608ZM297.637 42H304.741L299.317 4.848H294.229L285.685 28.704L276.757 4.848H271.765L265.669 42H272.773L275.989 19.536H276.085L284.005 42.48H286.453L294.661 19.536H294.757L297.637 42ZM317.914 5.808H310.858V42H317.914V5.808ZM344.765 11.952V5.808H326.045V42H344.765V35.856H333.101V26.064H344.333V19.92H333.101V11.952H344.765ZM352.483 42H359.539V17.424H359.635L378.691 42.72H383.779V5.808H376.723V30.144H376.627L357.571 4.848H352.483V42ZM403.665 11.952H410.961V5.808H389.312V11.952H396.609V42H403.665V11.952ZM450.641 23.856C450.641 13.104 443.537 4.848 432.737 4.848C421.937 4.848 414.833 13.104 414.833 23.856C414.833 34.512 421.697 42.96 432.737 42.96C443.777 42.96 450.641 34.512 450.641 23.856ZM443.345 23.568C443.345 29.136 440.561 36 432.737 36C424.913 36 422.129 29.136 422.129 23.568C422.129 17.712 426.065 11.808 432.737 11.808C439.409 11.808 443.345 17.712 443.345 23.568ZM30.592 90H40.624C50.944 90 58.144 82.128 58.144 71.952C58.144 61.632 51.136 53.808 40.672 53.808H30.592V90ZM37.648 59.952H38.8C46.816 59.952 50.848 64.032 50.848 71.904C50.848 79.056 47.488 83.856 38.8 83.856H37.648V59.952ZM83.3433 59.952V53.808H64.6233V90H83.3433V83.856H71.6793V74.064H82.9113V67.92H71.6793V59.952H83.3433ZM127.904 82.368L130.688 90H138.224L124.496 52.848H119.024L104.912 90H112.352L115.328 82.368H127.904ZM125.936 76.608H117.344L121.328 63.456H121.424L125.936 76.608ZM167.565 54.96C165.117 53.616 162.333 52.848 159.501 52.848C148.893 52.848 141.645 61.92 141.645 72.192C141.645 82.176 149.181 90.96 159.357 90.96C162.285 90.96 164.925 90.048 167.565 88.8V80.4C165.597 82.656 162.573 84.24 159.549 84.24C152.973 84.24 148.941 78.144 148.941 72.048C148.941 65.808 152.829 59.568 159.597 59.568C162.621 59.568 165.597 61.008 167.565 63.408V54.96ZM186.961 59.952H194.257V53.808H172.609V59.952H179.905V90H186.961V59.952ZM206.914 53.808H199.858V90H206.914V53.808ZM219.365 53.808H211.781L225.605 90.96H229.733L243.797 53.808H236.213L228.149 78.192H228.053L219.365 53.808ZM282.781 71.856C282.781 61.104 275.677 52.848 264.877 52.848C254.077 52.848 246.973 61.104 246.973 71.856C246.973 82.512 253.837 90.96 264.877 90.96C275.917 90.96 282.781 82.512 282.781 71.856ZM275.485 71.568C275.485 77.136 272.701 84 264.877 84C257.053 84 254.269 77.136 254.269 71.568C254.269 65.712 258.205 59.808 264.877 59.808C271.549 59.808 275.485 65.712 275.485 71.568ZM309.6 56.88C307.392 54.432 302.928 52.848 299.712 52.848C293.616 52.848 289.152 57.696 289.152 63.696C289.152 69.312 292.56 71.664 297.216 73.584C300.048 74.688 303.504 75.744 303.504 79.488C303.504 82.272 301.728 84.72 298.848 84.72C295.824 84.72 293.28 82.224 292.32 79.44L287.76 83.904C290.256 88.08 293.904 90.96 298.896 90.96C306.288 90.96 310.8 85.824 310.8 78.576C310.8 66.432 296.448 68.976 296.448 62.88C296.448 60.528 298.608 58.8 300.864 58.8C303.216 58.8 304.944 59.952 306.288 61.776L309.6 56.88ZM352.341 59.952V53.808H334.389V90H341.445V74.064H351.669V67.92H341.445V59.952H352.341ZM366.664 53.808H359.608V90H366.664V53.808ZM388.475 53.808H381.419V76.512C381.419 78.864 381.851 84.72 378.395 84.72C377.243 84.72 375.995 83.424 375.659 82.368L371.147 87.552C372.923 89.424 375.611 90.96 378.251 90.96C381.515 90.96 384.491 89.616 386.363 86.88C388.379 83.952 388.475 81.072 388.475 77.712V53.808ZM430.531 71.856C430.531 61.104 423.427 52.848 412.627 52.848C401.827 52.848 394.723 61.104 394.723 71.856C394.723 82.512 401.587 90.96 412.627 90.96C423.667 90.96 430.531 82.512 430.531 71.856ZM423.235 71.568C423.235 77.136 420.451 84 412.627 84C404.803 84 402.019 77.136 402.019 71.568C402.019 65.712 405.955 59.808 412.627 59.808C419.299 59.808 423.235 65.712 423.235 71.568ZM457.35 56.88C455.142 54.432 450.678 52.848 447.462 52.848C441.366 52.848 436.902 57.696 436.902 63.696C436.902 69.312 440.31 71.664 444.966 73.584C447.798 74.688 451.254 75.744 451.254 79.488C451.254 82.272 449.478 84.72 446.598 84.72C443.574 84.72 441.03 82.224 440.07 79.44L435.51 83.904C438.006 88.08 441.654 90.96 446.646 90.96C454.038 90.96 458.55 85.824 458.55 78.576C458.55 66.432 444.198 68.976 444.198 62.88C444.198 60.528 446.358 58.8 448.614 58.8C450.966 58.8 452.694 59.952 454.038 61.776L457.35 56.88ZM37.648 124.464H41.152C48.544 124.464 52.72 120.72 52.72 113.04C52.72 104.832 47.776 101.808 40.192 101.808H30.592V138H37.648V124.464ZM37.648 107.664H38.896C42.832 107.664 45.52 108.336 45.52 112.992C45.52 117.696 43.264 118.608 39.088 118.608H37.648V107.664ZM77.6714 107.952V101.808H58.9514V138H77.6714V131.856H66.0074V122.064H77.2394V115.92H66.0074V107.952H77.6714ZM85.3889 138H92.4449V113.424H92.5409L111.597 138.72H116.685V101.808H109.629V126.144H109.533L90.4769 100.848H85.3889V138ZM145.163 104.88C142.955 102.432 138.491 100.848 135.275 100.848C129.179 100.848 124.715 105.696 124.715 111.696C124.715 117.312 128.123 119.664 132.779 121.584C135.611 122.688 139.067 123.744 139.067 127.488C139.067 130.272 137.291 132.72 134.411 132.72C131.387 132.72 128.843 130.224 127.883 127.44L123.323 131.904C125.819 136.08 129.467 138.96 134.459 138.96C141.851 138.96 146.363 133.824 146.363 126.576C146.363 114.432 132.011 116.976 132.011 110.88C132.011 108.528 134.171 106.8 136.427 106.8C138.779 106.8 140.507 107.952 141.851 109.776L145.163 104.88ZM173.044 130.368L175.828 138H183.364L169.636 100.848H164.164L150.052 138H157.492L160.468 130.368H173.044ZM171.076 124.608H162.484L166.468 111.456H166.564L171.076 124.608ZM188.514 138H198.546C208.866 138 216.066 130.128 216.066 119.952C216.066 109.632 209.058 101.808 198.594 101.808H188.514V138ZM195.57 107.952H196.722C204.738 107.952 208.77 112.032 208.77 119.904C208.77 127.056 205.41 131.856 196.722 131.856H195.57V107.952ZM256.625 119.856C256.625 109.104 249.521 100.848 238.721 100.848C227.921 100.848 220.817 109.104 220.817 119.856C220.817 130.512 227.681 138.96 238.721 138.96C249.761 138.96 256.625 130.512 256.625 119.856ZM249.329 119.568C249.329 125.136 246.545 132 238.721 132C230.897 132 228.113 125.136 228.113 119.568C228.113 113.712 232.049 107.808 238.721 107.808C245.393 107.808 249.329 113.712 249.329 119.568ZM283.444 104.88C281.236 102.432 276.772 100.848 273.556 100.848C267.46 100.848 262.996 105.696 262.996 111.696C262.996 117.312 266.404 119.664 271.06 121.584C273.892 122.688 277.348 123.744 277.348 127.488C277.348 130.272 275.572 132.72 272.692 132.72C269.668 132.72 267.124 130.224 266.164 127.44L261.604 131.904C264.1 136.08 267.748 138.96 272.74 138.96C280.132 138.96 284.644 133.824 284.644 126.576C284.644 114.432 270.292 116.976 270.292 110.88C270.292 108.528 272.452 106.8 274.708 106.8C277.06 106.8 278.788 107.952 280.132 109.776L283.444 104.88ZM315.289 124.464H318.793C326.185 124.464 330.361 120.72 330.361 113.04C330.361 104.832 325.417 101.808 317.833 101.808H308.233V138H315.289V124.464ZM315.289 107.664H316.537C320.473 107.664 323.161 108.336 323.161 112.992C323.161 117.696 320.905 118.608 316.729 118.608H315.289V107.664ZM352.716 130.368L355.5 138H363.036L349.308 100.848H343.836L329.724 138H337.164L340.14 130.368H352.716ZM350.748 124.608H342.156L346.14 111.456H346.236L350.748 124.608ZM382.442 122.736C387.29 121.92 389.834 117.312 389.834 112.704C389.834 104.976 384.89 101.808 377.738 101.808H368.186V138H375.242V123.408H375.338L384.122 138H392.666L382.442 122.736ZM375.242 107.568H376.202C379.946 107.568 382.778 108.432 382.778 112.896C382.778 117.312 380.042 118.464 376.154 118.464H375.242V107.568ZM417.919 130.368L420.703 138H428.239L414.511 100.848H409.039L394.927 138H402.367L405.343 130.368H417.919ZM415.951 124.608H407.359L411.343 111.456H411.439L415.951 124.608ZM42.352 155.952H49.648V149.808H28V155.952H35.296V186H42.352V155.952ZM55.0563 171.456C55.0563 180.288 58.8003 186.96 68.4963 186.96C78.1923 186.96 81.9363 180.288 81.9363 171.456V149.808H74.8803V170.064C74.8803 174.528 74.4963 180.816 68.4963 180.816C62.4963 180.816 62.1123 174.528 62.1123 170.064V149.808H55.0563V171.456ZM125.531 155.952V149.808H106.811V186H125.531V179.856H113.867V170.064H125.099V163.92H113.867V155.952H125.531ZM163.152 186H170.256L164.832 148.848H159.744L151.2 172.704L142.272 148.848H137.28L131.184 186H138.288L141.504 163.536H141.6L149.52 186.48H151.968L160.176 163.536H160.272L163.152 186ZM183.429 172.464H186.933C194.325 172.464 198.501 168.72 198.501 161.04C198.501 152.832 193.557 149.808 185.973 149.808H176.373V186H183.429V172.464ZM183.429 155.664H184.677C188.613 155.664 191.301 156.336 191.301 160.992C191.301 165.696 189.045 166.608 184.869 166.608H183.429V155.664ZM218.989 170.736C223.837 169.92 226.381 165.312 226.381 160.704C226.381 152.976 221.437 149.808 214.285 149.808H204.733V186H211.789V171.408H211.885L220.669 186H229.213L218.989 170.736ZM211.789 155.568H212.749C216.493 155.568 219.325 156.432 219.325 160.896C219.325 165.312 216.589 166.464 212.701 166.464H211.789V155.568ZM253.218 155.952V149.808H234.498V186H253.218V179.856H241.554V170.064H252.786V163.92H241.554V155.952H253.218ZM281.288 152.88C279.08 150.432 274.616 148.848 271.4 148.848C265.304 148.848 260.84 153.696 260.84 159.696C260.84 165.312 264.248 167.664 268.904 169.584C271.736 170.688 275.192 171.744 275.192 175.488C275.192 178.272 273.416 180.72 270.536 180.72C267.512 180.72 264.968 178.224 264.008 175.44L259.448 179.904C261.944 184.08 265.592 186.96 270.584 186.96C277.976 186.96 282.488 181.824 282.488 174.576C282.488 162.432 268.136 164.976 268.136 158.88C268.136 156.528 270.296 154.8 272.552 154.8C274.904 154.8 276.632 155.952 277.976 157.776L281.288 152.88ZM309.169 178.368L311.953 186H319.489L305.761 148.848H300.289L286.177 186H293.617L296.593 178.368H309.169ZM307.201 172.608H298.609L302.593 159.456H302.689L307.201 172.608Z" fill="white"/>
</svg>
