<svg width="504" height="210" viewBox="0 0 504 210" fill="none" xmlns="http://www.w3.org/2000/svg">
<path d="M48.9844 14.0781C47.9948 13.1927 46.9792 12.5469 45.9375 12.1406C44.8958 11.724 43.7812 11.5156 42.5938 11.5156C40.1562 11.5156 38.2135 12.2448 36.7656 13.7031C35.3177 15.1615 34.5938 17.1198 34.5938 19.5781C34.5938 21.9844 35.2656 23.8958 36.6094 25.3125C37.9531 26.7188 39.7865 27.4219 42.1094 27.4219C43.4323 27.4219 44.6615 27.2031 45.7969 26.7656C46.9323 26.3177 47.9844 25.651 48.9531 24.7656L48.9219 29.7812C47.8802 30.3958 46.7865 30.8542 45.6406 31.1562C44.5052 31.4583 43.3073 31.6094 42.0469 31.6094C38.401 31.6094 35.4062 30.4792 33.0625 28.2188C30.7292 25.9479 29.5625 23.0677 29.5625 19.5781C29.5625 16.099 30.7344 13.2292 33.0781 10.9688C35.4219 8.70833 38.4427 7.57812 42.1406 7.57812C43.3802 7.57812 44.5781 7.70833 45.7344 7.96875C46.8906 8.22917 48.0312 8.63021 49.1562 9.17188L48.9844 14.0781ZM76.9531 19.6094C76.9531 21.2448 76.6458 22.7917 76.0312 24.25C75.4271 25.7083 74.5521 26.9896 73.4062 28.0938C72.2188 29.2292 70.8802 30.099 69.3906 30.7031C67.901 31.3073 66.3594 31.6094 64.7656 31.6094C63.3698 31.6094 62 31.375 60.6562 30.9062C59.3229 30.4271 58.099 29.7448 56.9844 28.8594C55.5469 27.7135 54.4427 26.3438 53.6719 24.75C52.9115 23.1562 52.5312 21.4427 52.5312 19.6094C52.5312 17.9635 52.8333 16.4219 53.4375 14.9844C54.0417 13.5365 54.9271 12.25 56.0938 11.125C57.2396 10.0104 58.5677 9.14583 60.0781 8.53125C61.599 7.91667 63.1615 7.60938 64.7656 7.60938C66.3594 7.60938 67.9062 7.91667 69.4062 8.53125C70.9167 9.14583 72.25 10.0104 73.4062 11.125C74.5625 12.25 75.4427 13.5365 76.0469 14.9844C76.651 16.4323 76.9531 17.974 76.9531 19.6094ZM64.7656 27.25C66.8385 27.25 68.5469 26.526 69.8906 25.0781C71.2448 23.6198 71.9219 21.7969 71.9219 19.6094C71.9219 17.4427 71.2396 15.6198 69.875 14.1406C68.5104 12.6615 66.8073 11.9219 64.7656 11.9219C62.6927 11.9219 60.974 12.6615 59.6094 14.1406C58.2448 15.6094 57.5625 17.4323 57.5625 19.6094C57.5625 21.8177 58.2344 23.6458 59.5781 25.0938C60.9219 26.5312 62.651 27.25 64.7656 27.25ZM81.0938 31V8.125H86.1719L96.2969 21.4375C96.5885 21.8125 96.9062 22.3438 97.25 23.0312C97.6042 23.7083 97.9688 24.5104 98.3438 25.4375C98.2292 24.7604 98.1458 24.0885 98.0938 23.4219C98.0417 22.7552 98.0156 21.9219 98.0156 20.9219V8.125H102.688V31H97.8906L87.4844 17.4375C87.1927 17.0625 86.875 16.5365 86.5312 15.8594C86.1875 15.1719 85.8229 14.3542 85.4375 13.4062C85.5521 14.0625 85.6354 14.7292 85.6875 15.4062C85.7396 16.0729 85.7656 16.9167 85.7656 17.9375V31H81.0938ZM106.312 28.0938L109.031 25.0156C109.375 25.8594 109.927 26.526 110.688 27.0156C111.448 27.4948 112.302 27.7344 113.25 27.7344C114.396 27.7344 115.302 27.4635 115.969 26.9219C116.635 26.3802 116.969 25.651 116.969 24.7344C116.969 23.651 115.859 22.5729 113.641 21.5C112.922 21.1562 112.354 20.875 111.938 20.6562C109.938 19.6146 108.552 18.599 107.781 17.6094C107.01 16.6094 106.625 15.4219 106.625 14.0469C106.625 12.1615 107.37 10.6146 108.859 9.40625C110.359 8.1875 112.302 7.57812 114.688 7.57812C116.073 7.57812 117.266 7.82292 118.266 8.3125C119.276 8.79167 120.167 9.54688 120.938 10.5781L118.047 13.3438C117.703 12.6771 117.245 12.1823 116.672 11.8594C116.109 11.526 115.427 11.3594 114.625 11.3594C113.656 11.3594 112.875 11.6042 112.281 12.0938C111.688 12.5729 111.391 13.1979 111.391 13.9688C111.391 15.1771 112.568 16.2812 114.922 17.2812C115.391 17.4792 115.75 17.6354 116 17.75C117.938 18.6354 119.37 19.6354 120.297 20.75C121.234 21.8646 121.703 23.1354 121.703 24.5625C121.703 26.7083 120.969 28.4219 119.5 29.7031C118.042 30.974 116.078 31.6094 113.609 31.6094C111.859 31.6094 110.359 31.3073 109.109 30.7031C107.859 30.099 106.927 29.2292 106.312 28.0938ZM134.266 12.2812V31H129.359V12.2812H123.766V8.125H139.891V12.2812H134.266ZM159.609 31H153.969L147.953 20.3125V31H143.062V8.125H150.062C152.844 8.125 154.927 8.66667 156.312 9.75C157.698 10.8229 158.391 12.4427 158.391 14.6094C158.391 16.1823 157.917 17.526 156.969 18.6406C156.021 19.7552 154.797 20.4062 153.297 20.5938L159.609 31ZM147.953 17.875H148.688C150.667 17.875 151.974 17.6615 152.609 17.2344C153.245 16.7969 153.562 16.0417 153.562 14.9688C153.562 13.8438 153.219 13.0469 152.531 12.5781C151.854 12.099 150.573 11.8594 148.688 11.8594H147.953V17.875ZM182.141 8.125V22.3594C182.141 25.4635 181.323 27.7812 179.688 29.3125C178.052 30.8438 175.589 31.6094 172.297 31.6094C168.953 31.6094 166.464 30.8438 164.828 29.3125C163.193 27.7812 162.375 25.4635 162.375 22.3594V8.125H167.234V21.5938C167.234 23.4792 167.651 24.901 168.484 25.8594C169.318 26.8073 170.562 27.2812 172.219 27.2812C173.885 27.2812 175.146 26.8021 176 25.8438C176.854 24.8854 177.281 23.4688 177.281 21.5938V8.125H182.141ZM187.312 31V8.125H192.203V31H187.312ZM195.453 31L198.938 8.125H204.062L208.469 21.5938C208.562 21.875 208.661 22.2865 208.766 22.8281C208.88 23.3698 208.984 23.9896 209.078 24.6875C209.161 23.9792 209.255 23.349 209.359 22.7969C209.464 22.2344 209.562 21.8229 209.656 21.5625L214.141 8.125H219.188L222.688 31H218.047L216.375 17.2031C216.25 16.1823 216.167 15.4115 216.125 14.8906C216.083 14.3698 216.062 13.8854 216.062 13.4375C216.062 13.1979 216.062 13.0208 216.062 12.9062C216.073 12.7812 216.083 12.6719 216.094 12.5781C215.938 13.474 215.786 14.25 215.641 14.9062C215.505 15.5521 215.38 16.0417 215.266 16.375L210.422 31H207.672L202.906 16.375C202.865 16.2396 202.771 15.8646 202.625 15.25C202.49 14.6354 202.297 13.7396 202.047 12.5625V13.2344C202.047 14.2969 201.953 15.599 201.766 17.1406L201.75 17.2031L200.094 31H195.453ZM249.297 19.6094C249.297 21.2448 248.99 22.7917 248.375 24.25C247.771 25.7083 246.896 26.9896 245.75 28.0938C244.562 29.2292 243.224 30.099 241.734 30.7031C240.245 31.3073 238.703 31.6094 237.109 31.6094C235.714 31.6094 234.344 31.375 233 30.9062C231.667 30.4271 230.443 29.7448 229.328 28.8594C227.891 27.7135 226.786 26.3438 226.016 24.75C225.255 23.1562 224.875 21.4427 224.875 19.6094C224.875 17.9635 225.177 16.4219 225.781 14.9844C226.385 13.5365 227.271 12.25 228.438 11.125C229.583 10.0104 230.911 9.14583 232.422 8.53125C233.943 7.91667 235.505 7.60938 237.109 7.60938C238.703 7.60938 240.25 7.91667 241.75 8.53125C243.26 9.14583 244.594 10.0104 245.75 11.125C246.906 12.25 247.786 13.5365 248.391 14.9844C248.995 16.4323 249.297 17.974 249.297 19.6094ZM237.109 27.25C239.182 27.25 240.891 26.526 242.234 25.0781C243.589 23.6198 244.266 21.7969 244.266 19.6094C244.266 17.4427 243.583 15.6198 242.219 14.1406C240.854 12.6615 239.151 11.9219 237.109 11.9219C235.036 11.9219 233.318 12.6615 231.953 14.1406C230.589 15.6094 229.906 17.4323 229.906 19.6094C229.906 21.8177 230.578 23.6458 231.922 25.0938C233.266 26.5312 234.995 27.25 237.109 27.25ZM251.969 28.0938L254.688 25.0156C255.031 25.8594 255.583 26.526 256.344 27.0156C257.104 27.4948 257.958 27.7344 258.906 27.7344C260.052 27.7344 260.958 27.4635 261.625 26.9219C262.292 26.3802 262.625 25.651 262.625 24.7344C262.625 23.651 261.516 22.5729 259.297 21.5C258.578 21.1562 258.01 20.875 257.594 20.6562C255.594 19.6146 254.208 18.599 253.438 17.6094C252.667 16.6094 252.281 15.4219 252.281 14.0469C252.281 12.1615 253.026 10.6146 254.516 9.40625C256.016 8.1875 257.958 7.57812 260.344 7.57812C261.729 7.57812 262.922 7.82292 263.922 8.3125C264.932 8.79167 265.823 9.54688 266.594 10.5781L263.703 13.3438C263.359 12.6771 262.901 12.1823 262.328 11.8594C261.766 11.526 261.083 11.3594 260.281 11.3594C259.312 11.3594 258.531 11.6042 257.938 12.0938C257.344 12.5729 257.047 13.1979 257.047 13.9688C257.047 15.1771 258.224 16.2812 260.578 17.2812C261.047 17.4792 261.406 17.6354 261.656 17.75C263.594 18.6354 265.026 19.6354 265.953 20.75C266.891 21.8646 267.359 23.1354 267.359 24.5625C267.359 26.7083 266.625 28.4219 265.156 29.7031C263.698 30.974 261.734 31.6094 259.266 31.6094C257.516 31.6094 256.016 31.3073 254.766 30.7031C253.516 30.099 252.583 29.2292 251.969 28.0938ZM279.75 28.0938L282.469 25.0156C282.812 25.8594 283.365 26.526 284.125 27.0156C284.885 27.4948 285.74 27.7344 286.688 27.7344C287.833 27.7344 288.74 27.4635 289.406 26.9219C290.073 26.3802 290.406 25.651 290.406 24.7344C290.406 23.651 289.297 22.5729 287.078 21.5C286.359 21.1562 285.792 20.875 285.375 20.6562C283.375 19.6146 281.99 18.599 281.219 17.6094C280.448 16.6094 280.062 15.4219 280.062 14.0469C280.062 12.1615 280.807 10.6146 282.297 9.40625C283.797 8.1875 285.74 7.57812 288.125 7.57812C289.51 7.57812 290.703 7.82292 291.703 8.3125C292.714 8.79167 293.604 9.54688 294.375 10.5781L291.484 13.3438C291.141 12.6771 290.682 12.1823 290.109 11.8594C289.547 11.526 288.865 11.3594 288.062 11.3594C287.094 11.3594 286.312 11.6042 285.719 12.0938C285.125 12.5729 284.828 13.1979 284.828 13.9688C284.828 15.1771 286.005 16.2812 288.359 17.2812C288.828 17.4792 289.188 17.6354 289.438 17.75C291.375 18.6354 292.807 19.6354 293.734 20.75C294.672 21.8646 295.141 23.1354 295.141 24.5625C295.141 26.7083 294.406 28.4219 292.938 29.7031C291.479 30.974 289.516 31.6094 287.047 31.6094C285.297 31.6094 283.797 31.3073 282.547 30.7031C281.297 30.099 280.365 29.2292 279.75 28.0938ZM322.578 19.6094C322.578 21.2448 322.271 22.7917 321.656 24.25C321.052 25.7083 320.177 26.9896 319.031 28.0938C317.844 29.2292 316.505 30.099 315.016 30.7031C313.526 31.3073 311.984 31.6094 310.391 31.6094C308.995 31.6094 307.625 31.375 306.281 30.9062C304.948 30.4271 303.724 29.7448 302.609 28.8594C301.172 27.7135 300.068 26.3438 299.297 24.75C298.536 23.1562 298.156 21.4427 298.156 19.6094C298.156 17.9635 298.458 16.4219 299.062 14.9844C299.667 13.5365 300.552 12.25 301.719 11.125C302.865 10.0104 304.193 9.14583 305.703 8.53125C307.224 7.91667 308.786 7.60938 310.391 7.60938C311.984 7.60938 313.531 7.91667 315.031 8.53125C316.542 9.14583 317.875 10.0104 319.031 11.125C320.188 12.25 321.068 13.5365 321.672 14.9844C322.276 16.4323 322.578 17.974 322.578 19.6094ZM310.391 27.25C312.464 27.25 314.172 26.526 315.516 25.0781C316.87 23.6198 317.547 21.7969 317.547 19.6094C317.547 17.4427 316.865 15.6198 315.5 14.1406C314.135 12.6615 312.432 11.9219 310.391 11.9219C308.318 11.9219 306.599 12.6615 305.234 14.1406C303.87 15.6094 303.188 17.4323 303.188 19.6094C303.188 21.8177 303.859 23.6458 305.203 25.0938C306.547 26.5312 308.276 27.25 310.391 27.25ZM326.719 31V8.125H331.609V26.8438H339.422V31H326.719ZM361.609 8.125V22.3594C361.609 25.4635 360.792 27.7812 359.156 29.3125C357.521 30.8438 355.057 31.6094 351.766 31.6094C348.422 31.6094 345.932 30.8438 344.297 29.3125C342.661 27.7812 341.844 25.4635 341.844 22.3594V8.125H346.703V21.5938C346.703 23.4792 347.12 24.901 347.953 25.8594C348.786 26.8073 350.031 27.2812 351.688 27.2812C353.354 27.2812 354.615 26.8021 355.469 25.8438C356.323 24.8854 356.75 23.4688 356.75 21.5938V8.125H361.609ZM385.109 14.0781C384.12 13.1927 383.104 12.5469 382.062 12.1406C381.021 11.724 379.906 11.5156 378.719 11.5156C376.281 11.5156 374.339 12.2448 372.891 13.7031C371.443 15.1615 370.719 17.1198 370.719 19.5781C370.719 21.9844 371.391 23.8958 372.734 25.3125C374.078 26.7188 375.911 27.4219 378.234 27.4219C379.557 27.4219 380.786 27.2031 381.922 26.7656C383.057 26.3177 384.109 25.651 385.078 24.7656L385.047 29.7812C384.005 30.3958 382.911 30.8542 381.766 31.1562C380.63 31.4583 379.432 31.6094 378.172 31.6094C374.526 31.6094 371.531 30.4792 369.188 28.2188C366.854 25.9479 365.688 23.0677 365.688 19.5781C365.688 16.099 366.859 13.2292 369.203 10.9688C371.547 8.70833 374.568 7.57812 378.266 7.57812C379.505 7.57812 380.703 7.70833 381.859 7.96875C383.016 8.22917 384.156 8.63021 385.281 9.17188L385.109 14.0781ZM389.75 31V8.125H394.641V31H389.75ZM423.297 19.6094C423.297 21.2448 422.99 22.7917 422.375 24.25C421.771 25.7083 420.896 26.9896 419.75 28.0938C418.562 29.2292 417.224 30.099 415.734 30.7031C414.245 31.3073 412.703 31.6094 411.109 31.6094C409.714 31.6094 408.344 31.375 407 30.9062C405.667 30.4271 404.443 29.7448 403.328 28.8594C401.891 27.7135 400.786 26.3438 400.016 24.75C399.255 23.1562 398.875 21.4427 398.875 19.6094C398.875 17.9635 399.177 16.4219 399.781 14.9844C400.385 13.5365 401.271 12.25 402.438 11.125C403.583 10.0104 404.911 9.14583 406.422 8.53125C407.943 7.91667 409.505 7.60938 411.109 7.60938C412.703 7.60938 414.25 7.91667 415.75 8.53125C417.26 9.14583 418.594 10.0104 419.75 11.125C420.906 12.25 421.786 13.5365 422.391 14.9844C422.995 16.4323 423.297 17.974 423.297 19.6094ZM411.109 27.25C413.182 27.25 414.891 26.526 416.234 25.0781C417.589 23.6198 418.266 21.7969 418.266 19.6094C418.266 17.4427 417.583 15.6198 416.219 14.1406C414.854 12.6615 413.151 11.9219 411.109 11.9219C409.036 11.9219 407.318 12.6615 405.953 14.1406C404.589 15.6094 403.906 17.4323 403.906 19.6094C403.906 21.8177 404.578 23.6458 405.922 25.0938C407.266 26.5312 408.995 27.25 411.109 27.25ZM427.438 31V8.125H432.516L442.641 21.4375C442.932 21.8125 443.25 22.3438 443.594 23.0312C443.948 23.7083 444.312 24.5104 444.688 25.4375C444.573 24.7604 444.49 24.0885 444.438 23.4219C444.385 22.7552 444.359 21.9219 444.359 20.9219V8.125H449.031V31H444.234L433.828 17.4375C433.536 17.0625 433.219 16.5365 432.875 15.8594C432.531 15.1719 432.167 14.3542 431.781 13.4062C431.896 14.0625 431.979 14.7292 432.031 15.4062C432.083 16.0729 432.109 16.9167 432.109 17.9375V31H427.438ZM454.125 31V8.125H467.594V12.25H459.016V16.9531H467.594V21.1094H459.016V26.8438H467.594V31H454.125ZM470.938 28.0938L473.656 25.0156C474 25.8594 474.552 26.526 475.312 27.0156C476.073 27.4948 476.927 27.7344 477.875 27.7344C479.021 27.7344 479.927 27.4635 480.594 26.9219C481.26 26.3802 481.594 25.651 481.594 24.7344C481.594 23.651 480.484 22.5729 478.266 21.5C477.547 21.1562 476.979 20.875 476.562 20.6562C474.562 19.6146 473.177 18.599 472.406 17.6094C471.635 16.6094 471.25 15.4219 471.25 14.0469C471.25 12.1615 471.995 10.6146 473.484 9.40625C474.984 8.1875 476.927 7.57812 479.312 7.57812C480.698 7.57812 481.891 7.82292 482.891 8.3125C483.901 8.79167 484.792 9.54688 485.562 10.5781L482.672 13.3438C482.328 12.6771 481.87 12.1823 481.297 11.8594C480.734 11.526 480.052 11.3594 479.25 11.3594C478.281 11.3594 477.5 11.6042 476.906 12.0938C476.312 12.5729 476.016 13.1979 476.016 13.9688C476.016 15.1771 477.193 16.2812 479.547 17.2812C480.016 17.4792 480.375 17.6354 480.625 17.75C482.562 18.6354 483.995 19.6354 484.922 20.75C485.859 21.8646 486.328 23.1354 486.328 24.5625C486.328 26.7083 485.594 28.4219 484.125 29.7031C482.667 30.974 480.703 31.6094 478.234 31.6094C476.484 31.6094 474.984 31.3073 473.734 30.7031C472.484 30.099 471.552 29.2292 470.938 28.0938ZM42.4062 60.2969L39.8438 52.9062C39.7708 52.6875 39.6771 52.3125 39.5625 51.7812C39.4479 51.25 39.3281 50.599 39.2031 49.8281C39.0677 50.5677 38.9375 51.2344 38.8125 51.8281C38.6875 52.4115 38.5938 52.8021 38.5312 53L36.0625 60.2969H42.4062ZM27.8438 69L36.5469 46.125H42.1406L50.9688 69H45.4062L43.5469 64.1406H34.6875L33.0938 69H27.8438ZM63.2188 69V46.125H68.1094V64.8438H75.9219V69H63.2188ZM90.8438 60.2969L88.2812 52.9062C88.2083 52.6875 88.1146 52.3125 88 51.7812C87.8854 51.25 87.7656 50.599 87.6406 49.8281C87.5052 50.5677 87.375 51.2344 87.25 51.8281C87.125 52.4115 87.0312 52.8021 86.9688 53L84.5 60.2969H90.8438ZM76.2812 69L84.9844 46.125H90.5781L99.4062 69H93.8438L91.9844 64.1406H83.125L81.5312 69H76.2812ZM109.672 69L113.156 46.125H118.281L122.688 59.5938C122.781 59.875 122.88 60.2865 122.984 60.8281C123.099 61.3698 123.203 61.9896 123.297 62.6875C123.38 61.9792 123.474 61.349 123.578 60.7969C123.682 60.2344 123.781 59.8229 123.875 59.5625L128.359 46.125H133.406L136.906 69H132.266L130.594 55.2031C130.469 54.1823 130.385 53.4115 130.344 52.8906C130.302 52.3698 130.281 51.8854 130.281 51.4375C130.281 51.1979 130.281 51.0208 130.281 50.9062C130.292 50.7812 130.302 50.6719 130.312 50.5781C130.156 51.474 130.005 52.25 129.859 52.9062C129.724 53.5521 129.599 54.0417 129.484 54.375L124.641 69H121.891L117.125 54.375C117.083 54.2396 116.99 53.8646 116.844 53.25C116.708 52.6354 116.516 51.7396 116.266 50.5625V51.2344C116.266 52.2969 116.172 53.599 115.984 55.1406L115.969 55.2031L114.312 69H109.672ZM140.094 69V46.125H153.562V50.25H144.984V54.9531H153.562V59.1094H144.984V64.8438H153.562V69H140.094ZM163.266 64.875H165.984C168.547 64.875 170.411 64.2917 171.578 63.125C172.755 61.9583 173.344 60.1094 173.344 57.5781C173.344 55.0573 172.755 53.2135 171.578 52.0469C170.411 50.8698 168.547 50.2812 165.984 50.2812H163.266V64.875ZM158.375 69V46.125H164.609C167.068 46.125 169.005 46.2969 170.422 46.6406C171.839 46.9844 173.083 47.5573 174.156 48.3594C175.542 49.3906 176.589 50.6927 177.297 52.2656C178.016 53.8281 178.375 55.6094 178.375 57.6094C178.375 59.6406 178.01 61.4427 177.281 63.0156C176.552 64.5781 175.484 65.8698 174.078 66.8906C173.036 67.6406 171.875 68.1823 170.594 68.5156C169.323 68.8385 167.458 69 165 69H163.266H158.375ZM182.562 69V46.125H187.453V69H182.562ZM197.578 64.875H200.297C202.859 64.875 204.724 64.2917 205.891 63.125C207.068 61.9583 207.656 60.1094 207.656 57.5781C207.656 55.0573 207.068 53.2135 205.891 52.0469C204.724 50.8698 202.859 50.2812 200.297 50.2812H197.578V64.875ZM192.688 69V46.125H198.922C201.38 46.125 203.318 46.2969 204.734 46.6406C206.151 46.9844 207.396 47.5573 208.469 48.3594C209.854 49.3906 210.901 50.6927 211.609 52.2656C212.328 53.8281 212.688 55.6094 212.688 57.6094C212.688 59.6406 212.323 61.4427 211.594 63.0156C210.865 64.5781 209.797 65.8698 208.391 66.8906C207.349 67.6406 206.188 68.1823 204.906 68.5156C203.635 68.8385 201.771 69 199.312 69H197.578H192.688ZM228.062 60.2969L225.5 52.9062C225.427 52.6875 225.333 52.3125 225.219 51.7812C225.104 51.25 224.984 50.599 224.859 49.8281C224.724 50.5677 224.594 51.2344 224.469 51.8281C224.344 52.4115 224.25 52.8021 224.188 53L221.719 60.2969H228.062ZM213.5 69L222.203 46.125H227.797L236.625 69H231.062L229.203 64.1406H220.344L218.75 69H213.5ZM35.4531 102.875H38.1719C40.7344 102.875 42.599 102.292 43.7656 101.125C44.9427 99.9583 45.5312 98.1094 45.5312 95.5781C45.5312 93.0573 44.9427 91.2135 43.7656 90.0469C42.599 88.8698 40.7344 88.2812 38.1719 88.2812H35.4531V102.875ZM30.5625 107V84.125H36.7969C39.2552 84.125 41.1927 84.2969 42.6094 84.6406C44.026 84.9844 45.2708 85.5573 46.3438 86.3594C47.7292 87.3906 48.776 88.6927 49.4844 90.2656C50.2031 91.8281 50.5625 93.6094 50.5625 95.6094C50.5625 97.6406 50.1979 99.4427 49.4688 101.016C48.7396 102.578 47.6719 103.87 46.2656 104.891C45.224 105.641 44.0625 106.182 42.7812 106.516C41.5104 106.839 39.6458 107 37.1875 107H35.4531H30.5625ZM54.6562 107V84.125H68.125V88.25H59.5469V92.9531H68.125V97.1094H59.5469V102.844H68.125V107H54.6562ZM91.3281 88.2812V107H86.4219V88.2812H80.8281V84.125H96.9531V88.2812H91.3281ZM119.797 84.125V98.3594C119.797 101.464 118.979 103.781 117.344 105.312C115.708 106.844 113.245 107.609 109.953 107.609C106.609 107.609 104.12 106.844 102.484 105.312C100.849 103.781 100.031 101.464 100.031 98.3594V84.125H104.891V97.5938C104.891 99.4792 105.307 100.901 106.141 101.859C106.974 102.807 108.219 103.281 109.875 103.281C111.542 103.281 112.802 102.802 113.656 101.844C114.51 100.885 114.938 99.4688 114.938 97.5938V84.125H119.797ZM134.719 107V84.125H139.797L149.922 97.4375C150.214 97.8125 150.531 98.3438 150.875 99.0312C151.229 99.7083 151.594 100.51 151.969 101.438C151.854 100.76 151.771 100.089 151.719 99.4219C151.667 98.7552 151.641 97.9219 151.641 96.9219V84.125H156.312V107H151.516L141.109 93.4375C140.818 93.0625 140.5 92.5365 140.156 91.8594C139.812 91.1719 139.448 90.3542 139.062 89.4062C139.177 90.0625 139.26 90.7292 139.312 91.4062C139.365 92.0729 139.391 92.9167 139.391 93.9375V107H134.719ZM161.406 107V84.125H174.875V88.25H166.297V92.9531H174.875V97.1094H166.297V102.844H174.875V107H161.406ZM191.047 94.9375H201.469C201.49 95.0729 201.5 95.2188 201.5 95.375C201.51 95.5312 201.516 95.7708 201.516 96.0938C201.516 99.5208 200.536 102.297 198.578 104.422C196.62 106.547 194.089 107.609 190.984 107.609C187.432 107.609 184.505 106.479 182.203 104.219C179.901 101.948 178.75 99.0677 178.75 95.5781C178.75 92.1198 179.906 89.2604 182.219 87C184.531 84.7396 187.453 83.6094 190.984 83.6094C192.849 83.6094 194.557 84 196.109 84.7812C197.661 85.5625 199.047 86.7292 200.266 88.2812L196.969 90.7188C196.146 89.6979 195.281 88.9635 194.375 88.5156C193.469 88.0573 192.422 87.8281 191.234 87.8281C188.974 87.8281 187.167 88.5312 185.812 89.9375C184.458 91.3438 183.781 93.224 183.781 95.5781C183.781 97.8906 184.458 99.7604 185.812 101.188C187.177 102.604 188.953 103.312 191.141 103.312C192.745 103.312 194.047 102.938 195.047 102.188C196.047 101.427 196.547 100.438 196.547 99.2188V98.9688H191.047V94.9375ZM228.828 95.6094C228.828 97.2448 228.521 98.7917 227.906 100.25C227.302 101.708 226.427 102.99 225.281 104.094C224.094 105.229 222.755 106.099 221.266 106.703C219.776 107.307 218.234 107.609 216.641 107.609C215.245 107.609 213.875 107.375 212.531 106.906C211.198 106.427 209.974 105.745 208.859 104.859C207.422 103.714 206.318 102.344 205.547 100.75C204.786 99.1562 204.406 97.4427 204.406 95.6094C204.406 93.9635 204.708 92.4219 205.312 90.9844C205.917 89.5365 206.802 88.25 207.969 87.125C209.115 86.0104 210.443 85.1458 211.953 84.5312C213.474 83.9167 215.036 83.6094 216.641 83.6094C218.234 83.6094 219.781 83.9167 221.281 84.5312C222.792 85.1458 224.125 86.0104 225.281 87.125C226.438 88.25 227.318 89.5365 227.922 90.9844C228.526 92.4323 228.828 93.974 228.828 95.6094ZM216.641 103.25C218.714 103.25 220.422 102.526 221.766 101.078C223.12 99.6198 223.797 97.7969 223.797 95.6094C223.797 93.4427 223.115 91.6198 221.75 90.1406C220.385 88.6615 218.682 87.9219 216.641 87.9219C214.568 87.9219 212.849 88.6615 211.484 90.1406C210.12 91.6094 209.438 93.4323 209.438 95.6094C209.438 97.8177 210.109 99.6458 211.453 101.094C212.797 102.531 214.526 103.25 216.641 103.25ZM251.391 90.0781C250.401 89.1927 249.385 88.5469 248.344 88.1406C247.302 87.724 246.188 87.5156 245 87.5156C242.562 87.5156 240.62 88.2448 239.172 89.7031C237.724 91.1615 237 93.1198 237 95.5781C237 97.9844 237.672 99.8958 239.016 101.312C240.359 102.719 242.193 103.422 244.516 103.422C245.839 103.422 247.068 103.203 248.203 102.766C249.339 102.318 250.391 101.651 251.359 100.766L251.328 105.781C250.286 106.396 249.193 106.854 248.047 107.156C246.911 107.458 245.714 107.609 244.453 107.609C240.807 107.609 237.812 106.479 235.469 104.219C233.135 101.948 231.969 99.0677 231.969 95.5781C231.969 92.099 233.141 89.2292 235.484 86.9688C237.828 84.7083 240.849 83.5781 244.547 83.5781C245.786 83.5781 246.984 83.7083 248.141 83.9688C249.297 84.2292 250.438 84.6302 251.562 85.1719L251.391 90.0781ZM256.031 107V84.125H260.922V107H256.031ZM289.578 95.6094C289.578 97.2448 289.271 98.7917 288.656 100.25C288.052 101.708 287.177 102.99 286.031 104.094C284.844 105.229 283.505 106.099 282.016 106.703C280.526 107.307 278.984 107.609 277.391 107.609C275.995 107.609 274.625 107.375 273.281 106.906C271.948 106.427 270.724 105.745 269.609 104.859C268.172 103.714 267.068 102.344 266.297 100.75C265.536 99.1562 265.156 97.4427 265.156 95.6094C265.156 93.9635 265.458 92.4219 266.062 90.9844C266.667 89.5365 267.552 88.25 268.719 87.125C269.865 86.0104 271.193 85.1458 272.703 84.5312C274.224 83.9167 275.786 83.6094 277.391 83.6094C278.984 83.6094 280.531 83.9167 282.031 84.5312C283.542 85.1458 284.875 86.0104 286.031 87.125C287.188 88.25 288.068 89.5365 288.672 90.9844C289.276 92.4323 289.578 93.974 289.578 95.6094ZM277.391 103.25C279.464 103.25 281.172 102.526 282.516 101.078C283.87 99.6198 284.547 97.7969 284.547 95.6094C284.547 93.4427 283.865 91.6198 282.5 90.1406C281.135 88.6615 279.432 87.9219 277.391 87.9219C275.318 87.9219 273.599 88.6615 272.234 90.1406C270.87 91.6094 270.188 93.4323 270.188 95.6094C270.188 97.8177 270.859 99.6458 272.203 101.094C273.547 102.531 275.276 103.25 277.391 103.25Z" fill="white"/>
<path d="M27 179H15C10.5817 179 7 175.418 7 171V115.05V23" stroke="white" stroke-width="1.5"/>
<circle cx="7" cy="17" r="6.25" stroke="white" stroke-width="1.5"/>
<rect x="25" y="145" width="317" height="65" rx="10" fill="#002A61"/>
<path d="M49.3711 174V161.133H57.2549V163.954H52.79V166.187H57V168.946H52.79V171.117H57.2549V174H49.3711ZM59.4521 174V160.377H62.5898V174H59.4521ZM70.9395 174V167.338H69.6035V165.123H70.9395V163.304C70.9395 162.272 71.2207 161.496 71.7832 160.975C72.3457 160.453 73.1865 160.192 74.3057 160.192C74.4639 160.192 74.6514 160.207 74.8682 160.236C75.0908 160.266 75.3281 160.307 75.5801 160.359V162.75C75.4395 162.697 75.3076 162.659 75.1846 162.636C75.0674 162.606 74.959 162.592 74.8594 162.592C74.5664 162.592 74.3525 162.68 74.2178 162.855C74.083 163.031 74.0156 163.315 74.0156 163.708V165.123H75.5801V167.338H74.0156V174H70.9395ZM76.8896 162.354C76.8896 161.88 77.0566 161.476 77.3906 161.142C77.7305 160.808 78.1377 160.641 78.6123 160.641C79.1045 160.641 79.5146 160.805 79.8428 161.133C80.1768 161.461 80.3438 161.868 80.3438 162.354C80.3438 162.841 80.1738 163.254 79.834 163.594C79.5 163.934 79.0928 164.104 78.6123 164.104C78.1436 164.104 77.7393 163.931 77.3994 163.585C77.0596 163.239 76.8896 162.829 76.8896 162.354ZM77.0479 174V165.123H80.1855V174H77.0479ZM82.585 174V165.123H85.4502V166.925C85.8662 166.204 86.3467 165.677 86.8916 165.343C87.4365 165.009 88.0898 164.842 88.8516 164.842C89.4258 164.842 89.9355 164.936 90.3809 165.123C90.832 165.305 91.1982 165.568 91.4795 165.914C91.7139 166.213 91.8809 166.576 91.9805 167.004C92.0801 167.432 92.1299 168.07 92.1299 168.92V174H88.9922V169.245C88.9922 168.536 88.875 168.021 88.6406 167.698C88.4121 167.376 88.043 167.215 87.5332 167.215C86.8828 167.215 86.4082 167.455 86.1094 167.936C85.8105 168.416 85.6611 169.195 85.6611 170.273V174H82.585ZM101.112 169.553C101.112 168.861 100.928 168.313 100.559 167.909C100.189 167.505 99.6855 167.303 99.0469 167.303C98.4082 167.303 97.9043 167.505 97.5352 167.909C97.1719 168.308 96.9902 168.855 96.9902 169.553C96.9902 170.244 97.1748 170.789 97.5439 171.188C97.9131 171.586 98.4141 171.785 99.0469 171.785C99.6855 171.785 100.189 171.586 100.559 171.188C100.928 170.789 101.112 170.244 101.112 169.553ZM103.863 165.123V174H100.989V172.559C100.579 173.174 100.116 173.625 99.6006 173.912C99.0908 174.199 98.4902 174.343 97.7988 174.343C96.6152 174.343 95.6689 173.912 94.96 173.051C94.251 172.184 93.8965 171.023 93.8965 169.57C93.8965 168.123 94.2656 166.975 95.0039 166.125C95.748 165.27 96.7471 164.842 98.001 164.842C98.6689 164.842 99.2432 164.985 99.7236 165.272C100.21 165.554 100.626 165.99 100.972 166.582V165.123H103.863ZM106.228 174V165.123H109.093V166.925C109.509 166.204 109.989 165.677 110.534 165.343C111.079 165.009 111.732 164.842 112.494 164.842C113.068 164.842 113.578 164.936 114.023 165.123C114.475 165.305 114.841 165.568 115.122 165.914C115.356 166.213 115.523 166.576 115.623 167.004C115.723 167.432 115.772 168.07 115.772 168.92V174H112.635V169.245C112.635 168.536 112.518 168.021 112.283 167.698C112.055 167.376 111.686 167.215 111.176 167.215C110.525 167.215 110.051 167.455 109.752 167.936C109.453 168.416 109.304 169.195 109.304 170.273V174H106.228ZM124.359 168.041C124.055 167.771 123.762 167.575 123.48 167.452C123.199 167.329 122.903 167.268 122.593 167.268C121.972 167.268 121.477 167.473 121.107 167.883C120.744 168.293 120.562 168.85 120.562 169.553C120.562 170.232 120.753 170.774 121.134 171.179C121.515 171.583 122.027 171.785 122.672 171.785C122.988 171.785 123.284 171.724 123.56 171.601C123.841 171.472 124.107 171.275 124.359 171.012V173.728C123.984 173.938 123.609 174.094 123.234 174.193C122.859 174.293 122.473 174.343 122.074 174.343C120.709 174.343 119.602 173.906 118.752 173.033C117.908 172.154 117.486 171 117.486 169.57C117.486 168.182 117.917 167.048 118.778 166.169C119.646 165.284 120.756 164.842 122.109 164.842C122.561 164.842 122.968 164.886 123.331 164.974C123.694 165.062 124.037 165.202 124.359 165.396V168.041ZM126.214 162.354C126.214 161.88 126.381 161.476 126.715 161.142C127.055 160.808 127.462 160.641 127.937 160.641C128.429 160.641 128.839 160.805 129.167 161.133C129.501 161.461 129.668 161.868 129.668 162.354C129.668 162.841 129.498 163.254 129.158 163.594C128.824 163.934 128.417 164.104 127.937 164.104C127.468 164.104 127.063 163.931 126.724 163.585C126.384 163.239 126.214 162.829 126.214 162.354ZM126.372 174V165.123H129.51V174H126.372ZM138.677 169.553C138.677 168.861 138.492 168.313 138.123 167.909C137.754 167.505 137.25 167.303 136.611 167.303C135.973 167.303 135.469 167.505 135.1 167.909C134.736 168.308 134.555 168.855 134.555 169.553C134.555 170.244 134.739 170.789 135.108 171.188C135.478 171.586 135.979 171.785 136.611 171.785C137.25 171.785 137.754 171.586 138.123 171.188C138.492 170.789 138.677 170.244 138.677 169.553ZM141.428 165.123V174H138.554V172.559C138.144 173.174 137.681 173.625 137.165 173.912C136.655 174.199 136.055 174.343 135.363 174.343C134.18 174.343 133.233 173.912 132.524 173.051C131.815 172.184 131.461 171.023 131.461 169.57C131.461 168.123 131.83 166.975 132.568 166.125C133.312 165.27 134.312 164.842 135.565 164.842C136.233 164.842 136.808 164.985 137.288 165.272C137.774 165.554 138.19 165.99 138.536 166.582V165.123H141.428ZM155.543 174V169.157C155.543 168.39 155.446 167.859 155.253 167.566C155.065 167.273 154.737 167.127 154.269 167.127C153.683 167.127 153.275 167.332 153.047 167.742C152.818 168.146 152.704 168.979 152.704 170.238V174H149.681V169.157C149.681 168.378 149.587 167.845 149.399 167.558C149.212 167.271 148.884 167.127 148.415 167.127C147.829 167.127 147.419 167.329 147.185 167.733C146.95 168.132 146.833 168.967 146.833 170.238V174H143.792V165.123H146.868V166.67C147.237 166.043 147.662 165.583 148.143 165.29C148.629 164.991 149.2 164.842 149.856 164.842C150.577 164.842 151.166 164.982 151.623 165.264C152.086 165.539 152.417 165.955 152.616 166.512C152.962 165.949 153.384 165.53 153.882 165.255C154.38 164.979 154.966 164.842 155.64 164.842C156.173 164.842 156.639 164.933 157.037 165.114C157.441 165.29 157.778 165.557 158.048 165.914C158.265 166.195 158.417 166.523 158.505 166.898C158.599 167.273 158.646 167.883 158.646 168.727V168.92V174H155.543ZM160.79 162.354C160.79 161.88 160.957 161.476 161.291 161.142C161.631 160.808 162.038 160.641 162.513 160.641C163.005 160.641 163.415 160.805 163.743 161.133C164.077 161.461 164.244 161.868 164.244 162.354C164.244 162.841 164.074 163.254 163.734 163.594C163.4 163.934 162.993 164.104 162.513 164.104C162.044 164.104 161.64 163.931 161.3 163.585C160.96 163.239 160.79 162.829 160.79 162.354ZM160.948 174V165.123H164.086V174H160.948ZM172.603 168.419C172.544 167.915 172.351 167.511 172.022 167.206C171.7 166.901 171.302 166.749 170.827 166.749C170.317 166.749 169.91 166.89 169.605 167.171C169.307 167.446 169.107 167.862 169.008 168.419H172.603ZM175.688 170.186H168.938C168.943 170.871 169.119 171.401 169.465 171.776C169.811 172.146 170.3 172.33 170.933 172.33C171.407 172.33 171.806 172.242 172.128 172.066C172.456 171.885 172.705 171.618 172.875 171.267L175.23 172.216C174.949 172.896 174.451 173.42 173.736 173.789C173.021 174.158 172.146 174.343 171.108 174.343C169.562 174.343 168.319 173.915 167.382 173.06C166.45 172.198 165.984 171.064 165.984 169.658C165.984 168.275 166.45 167.127 167.382 166.213C168.319 165.299 169.503 164.842 170.933 164.842C172.403 164.842 173.563 165.305 174.413 166.23C175.263 167.156 175.688 168.425 175.688 170.036V170.186ZM177.489 174V165.123H180.354V166.925C180.771 166.204 181.251 165.677 181.796 165.343C182.341 165.009 182.994 164.842 183.756 164.842C184.33 164.842 184.84 164.936 185.285 165.123C185.736 165.305 186.103 165.568 186.384 165.914C186.618 166.213 186.785 166.576 186.885 167.004C186.984 167.432 187.034 168.07 187.034 168.92V174H183.896V169.245C183.896 168.536 183.779 168.021 183.545 167.698C183.316 167.376 182.947 167.215 182.438 167.215C181.787 167.215 181.312 167.455 181.014 167.936C180.715 168.416 180.565 169.195 180.565 170.273V174H177.489ZM189.732 174V167.338H188.405V165.123H189.732V162.478H192.817V165.123H194.145V167.338H192.817V174H189.732ZM201.914 169.588C201.914 168.926 201.747 168.404 201.413 168.023C201.079 167.643 200.628 167.452 200.06 167.452C199.485 167.452 199.031 167.643 198.697 168.023C198.369 168.404 198.205 168.926 198.205 169.588C198.205 170.25 198.369 170.771 198.697 171.152C199.025 171.527 199.479 171.715 200.06 171.715C200.634 171.715 201.085 171.527 201.413 171.152C201.747 170.771 201.914 170.25 201.914 169.588ZM205.025 169.588C205.025 170.227 204.899 170.833 204.647 171.407C204.401 171.981 204.041 172.497 203.566 172.954C203.086 173.411 202.547 173.757 201.949 173.991C201.357 174.226 200.728 174.343 200.06 174.343C199.38 174.343 198.741 174.226 198.144 173.991C197.552 173.757 197.021 173.411 196.553 172.954C196.084 172.509 195.727 171.999 195.48 171.425C195.234 170.845 195.111 170.232 195.111 169.588C195.111 168.938 195.231 168.325 195.472 167.751C195.718 167.177 196.078 166.661 196.553 166.204C197.016 165.753 197.543 165.413 198.135 165.185C198.732 164.956 199.374 164.842 200.06 164.842C200.745 164.842 201.384 164.956 201.976 165.185C202.567 165.413 203.098 165.753 203.566 166.204C204.047 166.667 204.41 167.186 204.656 167.76C204.902 168.334 205.025 168.943 205.025 169.588ZM218.877 170.001C218.877 169.063 218.637 168.328 218.156 167.795C217.682 167.262 217.022 166.995 216.179 166.995C215.364 166.995 214.723 167.276 214.254 167.839C213.785 168.401 213.551 169.178 213.551 170.168C213.551 171.053 213.779 171.744 214.236 172.242C214.699 172.74 215.335 172.989 216.144 172.989C216.964 172.989 217.623 172.717 218.121 172.172C218.625 171.627 218.877 170.903 218.877 170.001ZM220.213 177.92H218.842V172.541C218.537 173.139 218.139 173.59 217.646 173.895C217.154 174.193 216.574 174.343 215.906 174.343C214.752 174.343 213.829 173.953 213.138 173.174C212.452 172.389 212.109 171.331 212.109 170.001C212.109 168.694 212.461 167.646 213.164 166.854C213.867 166.063 214.799 165.668 215.959 165.668C216.586 165.668 217.151 165.823 217.655 166.134C218.159 166.444 218.566 166.89 218.877 167.47V165.958H220.213V177.92ZM224.317 165.958V169.913C224.317 171.067 224.487 171.876 224.827 172.339C225.173 172.796 225.753 173.024 226.567 173.024C227.382 173.024 227.956 172.799 228.29 172.348C228.63 171.891 228.8 171.079 228.8 169.913V165.958H230.206V170.651C230.206 171.864 229.896 172.784 229.274 173.411C228.653 174.032 227.739 174.343 226.532 174.343C225.337 174.343 224.429 174.029 223.808 173.402C223.187 172.775 222.876 171.858 222.876 170.651V165.958H224.317ZM238.573 169.069C238.526 168.36 238.289 167.815 237.861 167.435C237.439 167.048 236.859 166.854 236.121 166.854C235.453 166.854 234.896 167.057 234.451 167.461C234.006 167.859 233.748 168.396 233.678 169.069H238.573ZM240.05 170.186H233.678V170.309C233.678 171.17 233.924 171.867 234.416 172.4C234.908 172.928 235.55 173.191 236.341 173.191C236.88 173.191 237.366 173.048 237.8 172.761C238.233 172.468 238.617 172.028 238.951 171.442L239.997 172.146C239.593 172.872 239.077 173.42 238.45 173.789C237.823 174.158 237.097 174.343 236.271 174.343C235.046 174.343 234.056 173.938 233.3 173.13C232.544 172.321 232.166 171.261 232.166 169.948C232.166 168.688 232.541 167.657 233.291 166.854C234.041 166.052 235.005 165.65 236.183 165.65C237.372 165.65 238.312 166.031 239.004 166.793C239.701 167.555 240.05 168.595 240.05 169.913V170.186ZM247.441 174V165.958H248.786V167.197C249.132 166.682 249.548 166.298 250.034 166.046C250.521 165.794 251.083 165.668 251.722 165.668C252.671 165.668 253.412 165.92 253.945 166.424C254.479 166.928 254.745 167.628 254.745 168.524V174H253.339V169.263C253.339 168.448 253.166 167.845 252.82 167.452C252.48 167.054 251.953 166.854 251.238 166.854C250.828 166.854 250.453 166.931 250.113 167.083C249.779 167.229 249.501 167.44 249.278 167.716C249.108 167.927 248.985 168.167 248.909 168.437C248.839 168.706 248.804 169.175 248.804 169.843V174H247.441ZM263.183 169.069C263.136 168.36 262.898 167.815 262.471 167.435C262.049 167.048 261.469 166.854 260.73 166.854C260.062 166.854 259.506 167.057 259.061 167.461C258.615 167.859 258.357 168.396 258.287 169.069H263.183ZM264.659 170.186H258.287V170.309C258.287 171.17 258.533 171.867 259.025 172.4C259.518 172.928 260.159 173.191 260.95 173.191C261.489 173.191 261.976 173.048 262.409 172.761C262.843 172.468 263.227 172.028 263.561 171.442L264.606 172.146C264.202 172.872 263.687 173.42 263.06 173.789C262.433 174.158 261.706 174.343 260.88 174.343C259.655 174.343 258.665 173.938 257.909 173.13C257.153 172.321 256.775 171.261 256.775 169.948C256.775 168.688 257.15 167.657 257.9 166.854C258.65 166.052 259.614 165.65 260.792 165.65C261.981 165.65 262.922 166.031 263.613 166.793C264.311 167.555 264.659 168.595 264.659 169.913V170.186ZM272.912 172.093V173.692C272.549 173.909 272.139 174.07 271.682 174.176C271.23 174.287 270.741 174.343 270.214 174.343C268.972 174.343 267.97 173.95 267.208 173.165C266.452 172.374 266.074 171.337 266.074 170.054C266.074 168.765 266.467 167.713 267.252 166.898C268.037 166.078 269.042 165.668 270.267 165.668C270.712 165.668 271.146 165.715 271.567 165.809C271.995 165.902 272.396 166.04 272.771 166.222V167.698C272.42 167.47 272.057 167.297 271.682 167.18C271.307 167.057 270.926 166.995 270.539 166.995C269.637 166.995 268.913 167.279 268.368 167.848C267.823 168.41 267.551 169.16 267.551 170.098C267.551 170.924 267.823 171.615 268.368 172.172C268.919 172.729 269.607 173.007 270.434 173.007C270.85 173.007 271.257 172.934 271.655 172.787C272.054 172.641 272.473 172.409 272.912 172.093ZM280.532 169.069C280.485 168.36 280.248 167.815 279.82 167.435C279.398 167.048 278.818 166.854 278.08 166.854C277.412 166.854 276.855 167.057 276.41 167.461C275.965 167.859 275.707 168.396 275.637 169.069H280.532ZM282.009 170.186H275.637V170.309C275.637 171.17 275.883 171.867 276.375 172.4C276.867 172.928 277.509 173.191 278.3 173.191C278.839 173.191 279.325 173.048 279.759 172.761C280.192 172.468 280.576 172.028 280.91 171.442L281.956 172.146C281.552 172.872 281.036 173.42 280.409 173.789C279.782 174.158 279.056 174.343 278.229 174.343C277.005 174.343 276.015 173.938 275.259 173.13C274.503 172.321 274.125 171.261 274.125 169.948C274.125 168.688 274.5 167.657 275.25 166.854C276 166.052 276.964 165.65 278.142 165.65C279.331 165.65 280.271 166.031 280.963 166.793C281.66 167.555 282.009 168.595 282.009 169.913V170.186ZM283.239 172.646L284.417 171.855C284.64 172.283 284.921 172.605 285.261 172.822C285.601 173.033 286.002 173.139 286.465 173.139C286.916 173.139 287.279 173.027 287.555 172.805C287.836 172.582 287.977 172.289 287.977 171.926C287.977 171.645 287.88 171.41 287.687 171.223C287.499 171.035 287.174 170.862 286.711 170.704C286.664 170.687 286.588 170.66 286.482 170.625C284.525 169.951 283.547 169.107 283.547 168.094C283.547 167.379 283.811 166.796 284.338 166.345C284.865 165.894 285.551 165.668 286.395 165.668C287.092 165.668 287.689 165.809 288.188 166.09C288.686 166.365 289.043 166.758 289.26 167.268L288.144 167.953C287.979 167.584 287.736 167.3 287.414 167.101C287.098 166.901 286.729 166.802 286.307 166.802C285.902 166.802 285.571 166.916 285.313 167.145C285.062 167.367 284.936 167.654 284.936 168.006C284.936 168.498 285.469 168.911 286.535 169.245C286.734 169.31 286.893 169.359 287.01 169.395C287.883 169.676 288.489 169.998 288.829 170.361C289.175 170.719 289.348 171.193 289.348 171.785C289.348 172.547 289.075 173.165 288.53 173.64C287.991 174.108 287.285 174.343 286.412 174.343C285.662 174.343 285.023 174.202 284.496 173.921C283.975 173.64 283.556 173.215 283.239 172.646ZM291.167 162.082C291.167 161.807 291.264 161.572 291.457 161.379C291.656 161.18 291.896 161.08 292.178 161.08C292.453 161.08 292.688 161.18 292.881 161.379C293.08 161.578 293.18 161.818 293.18 162.1C293.18 162.375 293.083 162.609 292.89 162.803C292.696 162.996 292.459 163.093 292.178 163.093C291.896 163.093 291.656 162.996 291.457 162.803C291.264 162.609 291.167 162.369 291.167 162.082ZM291.492 174V165.958H292.881V174H291.492ZM295.992 167.092H294.516V165.958H295.992V162.715H297.398V165.958H298.875V167.092H297.398V174H295.992V167.092ZM306.592 170.054C306.592 169.146 306.343 168.416 305.845 167.865C305.353 167.309 304.708 167.03 303.911 167.03C303.085 167.03 302.44 167.285 301.978 167.795C301.515 168.305 301.283 169.017 301.283 169.931C301.283 170.903 301.515 171.653 301.978 172.181C302.446 172.708 303.108 172.972 303.964 172.972C304.784 172.972 305.426 172.717 305.889 172.207C306.357 171.691 306.592 170.974 306.592 170.054ZM307.928 165.958V174H306.592V172.541C306.27 173.127 305.856 173.575 305.353 173.886C304.854 174.19 304.295 174.343 303.674 174.343C302.52 174.343 301.588 173.947 300.879 173.156C300.176 172.359 299.824 171.308 299.824 170.001C299.824 168.677 300.167 167.625 300.853 166.846C301.538 166.061 302.455 165.668 303.604 165.668C304.277 165.668 304.86 165.82 305.353 166.125C305.851 166.424 306.252 166.872 306.557 167.47V165.958H307.928ZM309.835 172.646L311.013 171.855C311.235 172.283 311.517 172.605 311.856 172.822C312.196 173.033 312.598 173.139 313.061 173.139C313.512 173.139 313.875 173.027 314.15 172.805C314.432 172.582 314.572 172.289 314.572 171.926C314.572 171.645 314.476 171.41 314.282 171.223C314.095 171.035 313.77 170.862 313.307 170.704C313.26 170.687 313.184 170.66 313.078 170.625C311.121 169.951 310.143 169.107 310.143 168.094C310.143 167.379 310.406 166.796 310.934 166.345C311.461 165.894 312.146 165.668 312.99 165.668C313.688 165.668 314.285 165.809 314.783 166.09C315.281 166.365 315.639 166.758 315.855 167.268L314.739 167.953C314.575 167.584 314.332 167.3 314.01 167.101C313.693 166.901 313.324 166.802 312.902 166.802C312.498 166.802 312.167 166.916 311.909 167.145C311.657 167.367 311.531 167.654 311.531 168.006C311.531 168.498 312.064 168.911 313.131 169.245C313.33 169.31 313.488 169.359 313.605 169.395C314.479 169.676 315.085 169.998 315.425 170.361C315.771 170.719 315.943 171.193 315.943 171.785C315.943 172.547 315.671 173.165 315.126 173.64C314.587 174.108 313.881 174.343 313.008 174.343C312.258 174.343 311.619 174.202 311.092 173.921C310.57 173.64 310.151 173.215 309.835 172.646ZM50.7334 190.001C50.7334 190.903 50.9824 191.627 51.4805 192.172C51.9785 192.717 52.6377 192.989 53.458 192.989C54.2607 192.989 54.8906 192.74 55.3477 192.242C55.8105 191.744 56.042 191.053 56.042 190.168C56.042 189.178 55.8105 188.401 55.3477 187.839C54.8906 187.276 54.252 186.995 53.4316 186.995C52.5938 186.995 51.9346 187.262 51.4541 187.795C50.9736 188.328 50.7334 189.063 50.7334 190.001ZM49.4062 197.92V185.958H50.7158V187.47C51.0264 186.89 51.4365 186.444 51.9463 186.134C52.4561 185.823 53.0244 185.668 53.6514 185.668C54.8115 185.668 55.7432 186.063 56.4463 186.854C57.1494 187.646 57.501 188.694 57.501 190.001C57.501 191.331 57.1553 192.389 56.4639 193.174C55.7783 193.953 54.8584 194.343 53.7041 194.343C53.042 194.343 52.4648 194.193 51.9727 193.895C51.4805 193.59 51.0791 193.139 50.7686 192.541V197.92H49.4062ZM65.8594 190.054C65.8594 189.146 65.6104 188.416 65.1123 187.865C64.6201 187.309 63.9756 187.03 63.1787 187.03C62.3525 187.03 61.708 187.285 61.2451 187.795C60.7822 188.305 60.5508 189.017 60.5508 189.931C60.5508 190.903 60.7822 191.653 61.2451 192.181C61.7139 192.708 62.376 192.972 63.2314 192.972C64.0518 192.972 64.6934 192.717 65.1562 192.207C65.625 191.691 65.8594 190.974 65.8594 190.054ZM67.1953 185.958V194H65.8594V192.541C65.5371 193.127 65.124 193.575 64.6201 193.886C64.1221 194.19 63.5625 194.343 62.9414 194.343C61.7871 194.343 60.8555 193.947 60.1465 193.156C59.4434 192.359 59.0918 191.308 59.0918 190.001C59.0918 188.677 59.4346 187.625 60.1201 186.846C60.8057 186.061 61.7227 185.668 62.8711 185.668C63.5449 185.668 64.1279 185.82 64.6201 186.125C65.1182 186.424 65.5195 186.872 65.8242 187.47V185.958H67.1953ZM69.9727 194V185.958H71.1943V187.628C71.5635 186.931 71.9561 186.433 72.3721 186.134C72.7881 185.835 73.2949 185.686 73.8926 185.686C74.0566 185.686 74.2148 185.7 74.3672 185.729C74.5195 185.753 74.6719 185.791 74.8242 185.844L74.3672 187.083C74.209 187.03 74.0596 186.992 73.9189 186.969C73.7783 186.939 73.6436 186.925 73.5146 186.925C72.7881 186.925 72.2432 187.188 71.8799 187.716C71.5166 188.237 71.335 189.025 71.335 190.08V194H69.9727ZM82.4355 190.054C82.4355 189.146 82.1865 188.416 81.6885 187.865C81.1963 187.309 80.5518 187.03 79.7549 187.03C78.9287 187.03 78.2842 187.285 77.8213 187.795C77.3584 188.305 77.127 189.017 77.127 189.931C77.127 190.903 77.3584 191.653 77.8213 192.181C78.29 192.708 78.9521 192.972 79.8076 192.972C80.6279 192.972 81.2695 192.717 81.7324 192.207C82.2012 191.691 82.4355 190.974 82.4355 190.054ZM83.7715 185.958V194H82.4355V192.541C82.1133 193.127 81.7002 193.575 81.1963 193.886C80.6982 194.19 80.1387 194.343 79.5176 194.343C78.3633 194.343 77.4316 193.947 76.7227 193.156C76.0195 192.359 75.668 191.308 75.668 190.001C75.668 188.677 76.0107 187.625 76.6963 186.846C77.3818 186.061 78.2988 185.668 79.4473 185.668C80.1211 185.668 80.7041 185.82 81.1963 186.125C81.6943 186.424 82.0957 186.872 82.4004 187.47V185.958H83.7715ZM97.9922 190.019C97.9922 189.122 97.7432 188.401 97.2451 187.856C96.7471 187.306 96.0908 187.03 95.2764 187.03C94.4619 187.03 93.8262 187.279 93.3691 187.777C92.9121 188.275 92.6836 188.964 92.6836 189.843C92.6836 190.833 92.915 191.609 93.3779 192.172C93.8408 192.729 94.4795 193.007 95.2939 193.007C96.1377 193.007 96.7969 192.743 97.2715 192.216C97.752 191.688 97.9922 190.956 97.9922 190.019ZM99.3281 180.377V194H97.9922V192.541C97.6758 193.121 97.2656 193.566 96.7617 193.877C96.2578 194.188 95.6953 194.343 95.0742 194.343C93.9199 194.343 92.9883 193.947 92.2793 193.156C91.5762 192.359 91.2246 191.308 91.2246 190.001C91.2246 188.683 91.5703 187.631 92.2617 186.846C92.9531 186.061 93.873 185.668 95.0215 185.668C95.6895 185.668 96.2695 185.82 96.7617 186.125C97.2539 186.424 97.6523 186.872 97.957 187.47V180.377H99.3281ZM108.293 190.054C108.293 189.146 108.044 188.416 107.546 187.865C107.054 187.309 106.409 187.03 105.612 187.03C104.786 187.03 104.142 187.285 103.679 187.795C103.216 188.305 102.984 189.017 102.984 189.931C102.984 190.903 103.216 191.653 103.679 192.181C104.147 192.708 104.81 192.972 105.665 192.972C106.485 192.972 107.127 192.717 107.59 192.207C108.059 191.691 108.293 190.974 108.293 190.054ZM109.629 185.958V194H108.293V192.541C107.971 193.127 107.558 193.575 107.054 193.886C106.556 194.19 105.996 194.343 105.375 194.343C104.221 194.343 103.289 193.947 102.58 193.156C101.877 192.359 101.525 191.308 101.525 190.001C101.525 188.677 101.868 187.625 102.554 186.846C103.239 186.061 104.156 185.668 105.305 185.668C105.979 185.668 106.562 185.82 107.054 186.125C107.552 186.424 107.953 186.872 108.258 187.47V185.958H109.629ZM112.406 194V185.958H113.628V187.628C113.997 186.931 114.39 186.433 114.806 186.134C115.222 185.835 115.729 185.686 116.326 185.686C116.49 185.686 116.648 185.7 116.801 185.729C116.953 185.753 117.105 185.791 117.258 185.844L116.801 187.083C116.643 187.03 116.493 186.992 116.353 186.969C116.212 186.939 116.077 186.925 115.948 186.925C115.222 186.925 114.677 187.188 114.313 187.716C113.95 188.237 113.769 189.025 113.769 190.08V194H112.406ZM118.787 194V180.377H120.193V194H118.787ZM128.78 189.069C128.733 188.36 128.496 187.815 128.068 187.435C127.646 187.048 127.066 186.854 126.328 186.854C125.66 186.854 125.104 187.057 124.658 187.461C124.213 187.859 123.955 188.396 123.885 189.069H128.78ZM130.257 190.186H123.885V190.309C123.885 191.17 124.131 191.867 124.623 192.4C125.115 192.928 125.757 193.191 126.548 193.191C127.087 193.191 127.573 193.048 128.007 192.761C128.44 192.468 128.824 192.028 129.158 191.442L130.204 192.146C129.8 192.872 129.284 193.42 128.657 193.789C128.03 194.158 127.304 194.343 126.478 194.343C125.253 194.343 124.263 193.938 123.507 193.13C122.751 192.321 122.373 191.261 122.373 189.948C122.373 188.688 122.748 187.657 123.498 186.854C124.248 186.052 125.212 185.65 126.39 185.65C127.579 185.65 128.52 186.031 129.211 186.793C129.908 187.555 130.257 188.595 130.257 189.913V190.186ZM140.294 194.501L136.312 185.958H137.859L140.276 191.574L142.702 185.958H144.249L140.294 194.501ZM145.479 182.082C145.479 181.807 145.576 181.572 145.77 181.379C145.969 181.18 146.209 181.08 146.49 181.08C146.766 181.08 147 181.18 147.193 181.379C147.393 181.578 147.492 181.818 147.492 182.1C147.492 182.375 147.396 182.609 147.202 182.803C147.009 182.996 146.771 183.093 146.49 183.093C146.209 183.093 145.969 182.996 145.77 182.803C145.576 182.609 145.479 182.369 145.479 182.082ZM145.805 194V185.958H147.193V194H145.805ZM156.246 190.019C156.246 189.122 155.997 188.401 155.499 187.856C155.001 187.306 154.345 187.03 153.53 187.03C152.716 187.03 152.08 187.279 151.623 187.777C151.166 188.275 150.938 188.964 150.938 189.843C150.938 190.833 151.169 191.609 151.632 192.172C152.095 192.729 152.733 193.007 153.548 193.007C154.392 193.007 155.051 192.743 155.525 192.216C156.006 191.688 156.246 190.956 156.246 190.019ZM157.582 180.377V194H156.246V192.541C155.93 193.121 155.52 193.566 155.016 193.877C154.512 194.188 153.949 194.343 153.328 194.343C152.174 194.343 151.242 193.947 150.533 193.156C149.83 192.359 149.479 191.308 149.479 190.001C149.479 188.683 149.824 187.631 150.516 186.846C151.207 186.061 152.127 185.668 153.275 185.668C153.943 185.668 154.523 185.82 155.016 186.125C155.508 186.424 155.906 186.872 156.211 187.47V180.377H157.582ZM166.547 190.054C166.547 189.146 166.298 188.416 165.8 187.865C165.308 187.309 164.663 187.03 163.866 187.03C163.04 187.03 162.396 187.285 161.933 187.795C161.47 188.305 161.238 189.017 161.238 189.931C161.238 190.903 161.47 191.653 161.933 192.181C162.401 192.708 163.063 192.972 163.919 192.972C164.739 192.972 165.381 192.717 165.844 192.207C166.312 191.691 166.547 190.974 166.547 190.054ZM167.883 185.958V194H166.547V192.541C166.225 193.127 165.812 193.575 165.308 193.886C164.81 194.19 164.25 194.343 163.629 194.343C162.475 194.343 161.543 193.947 160.834 193.156C160.131 192.359 159.779 191.308 159.779 190.001C159.779 188.677 160.122 187.625 160.808 186.846C161.493 186.061 162.41 185.668 163.559 185.668C164.232 185.668 164.815 185.82 165.308 186.125C165.806 186.424 166.207 186.872 166.512 187.47V185.958H167.883ZM182.104 190.054C182.104 189.146 181.854 188.416 181.356 187.865C180.864 187.309 180.22 187.03 179.423 187.03C178.597 187.03 177.952 187.285 177.489 187.795C177.026 188.305 176.795 189.017 176.795 189.931C176.795 190.903 177.026 191.653 177.489 192.181C177.958 192.708 178.62 192.972 179.476 192.972C180.296 192.972 180.938 192.717 181.4 192.207C181.869 191.691 182.104 190.974 182.104 190.054ZM183.439 185.958V194H182.104V192.541C181.781 193.127 181.368 193.575 180.864 193.886C180.366 194.19 179.807 194.343 179.186 194.343C178.031 194.343 177.1 193.947 176.391 193.156C175.688 192.359 175.336 191.308 175.336 190.001C175.336 188.677 175.679 187.625 176.364 186.846C177.05 186.061 177.967 185.668 179.115 185.668C179.789 185.668 180.372 185.82 180.864 186.125C181.362 186.424 181.764 186.872 182.068 187.47V185.958H183.439ZM191.719 187.092H190.242V185.958H191.719V182.715H193.125V185.958H194.602V187.092H193.125V194H191.719V187.092ZM197.458 185.958V189.913C197.458 191.067 197.628 191.876 197.968 192.339C198.313 192.796 198.894 193.024 199.708 193.024C200.522 193.024 201.097 192.799 201.431 192.348C201.771 191.891 201.94 191.079 201.94 189.913V185.958H203.347V190.651C203.347 191.864 203.036 192.784 202.415 193.411C201.794 194.032 200.88 194.343 199.673 194.343C198.478 194.343 197.569 194.029 196.948 193.402C196.327 192.775 196.017 191.858 196.017 190.651V185.958H197.458ZM205.157 192.646L206.335 191.855C206.558 192.283 206.839 192.605 207.179 192.822C207.519 193.033 207.92 193.139 208.383 193.139C208.834 193.139 209.197 193.027 209.473 192.805C209.754 192.582 209.895 192.289 209.895 191.926C209.895 191.645 209.798 191.41 209.604 191.223C209.417 191.035 209.092 190.862 208.629 190.704C208.582 190.687 208.506 190.66 208.4 190.625C206.443 189.951 205.465 189.107 205.465 188.094C205.465 187.379 205.729 186.796 206.256 186.345C206.783 185.894 207.469 185.668 208.312 185.668C209.01 185.668 209.607 185.809 210.105 186.09C210.604 186.365 210.961 186.758 211.178 187.268L210.062 187.953C209.897 187.584 209.654 187.3 209.332 187.101C209.016 186.901 208.646 186.802 208.225 186.802C207.82 186.802 207.489 186.916 207.231 187.145C206.979 187.367 206.854 187.654 206.854 188.006C206.854 188.498 207.387 188.911 208.453 189.245C208.652 189.31 208.811 189.359 208.928 189.395C209.801 189.676 210.407 189.998 210.747 190.361C211.093 190.719 211.266 191.193 211.266 191.785C211.266 192.547 210.993 193.165 210.448 193.64C209.909 194.108 209.203 194.343 208.33 194.343C207.58 194.343 206.941 194.202 206.414 193.921C205.893 193.64 205.474 193.215 205.157 192.646ZM219.976 190.001C219.976 190.903 220.225 191.627 220.723 192.172C221.221 192.717 221.88 192.989 222.7 192.989C223.503 192.989 224.133 192.74 224.59 192.242C225.053 191.744 225.284 191.053 225.284 190.168C225.284 189.178 225.053 188.401 224.59 187.839C224.133 187.276 223.494 186.995 222.674 186.995C221.836 186.995 221.177 187.262 220.696 187.795C220.216 188.328 219.976 189.063 219.976 190.001ZM218.648 197.92V185.958H219.958V187.47C220.269 186.89 220.679 186.444 221.188 186.134C221.698 185.823 222.267 185.668 222.894 185.668C224.054 185.668 224.985 186.063 225.688 186.854C226.392 187.646 226.743 188.694 226.743 190.001C226.743 191.331 226.397 192.389 225.706 193.174C225.021 193.953 224.101 194.343 222.946 194.343C222.284 194.343 221.707 194.193 221.215 193.895C220.723 193.59 220.321 193.139 220.011 192.541V197.92H218.648ZM228.967 194V185.958H230.188V187.628C230.558 186.931 230.95 186.433 231.366 186.134C231.782 185.835 232.289 185.686 232.887 185.686C233.051 185.686 233.209 185.7 233.361 185.729C233.514 185.753 233.666 185.791 233.818 185.844L233.361 187.083C233.203 187.03 233.054 186.992 232.913 186.969C232.772 186.939 232.638 186.925 232.509 186.925C231.782 186.925 231.237 187.188 230.874 187.716C230.511 188.237 230.329 189.025 230.329 190.08V194H228.967ZM236.086 190.001C236.086 190.851 236.37 191.571 236.938 192.163C237.507 192.749 238.195 193.042 239.004 193.042C239.807 193.042 240.489 192.749 241.052 192.163C241.614 191.571 241.896 190.851 241.896 190.001C241.896 189.151 241.614 188.434 241.052 187.848C240.489 187.256 239.807 186.96 239.004 186.96C238.189 186.96 237.498 187.256 236.93 187.848C236.367 188.434 236.086 189.151 236.086 190.001ZM234.627 190.001C234.627 189.409 234.735 188.853 234.952 188.331C235.169 187.804 235.485 187.335 235.901 186.925C236.317 186.515 236.789 186.204 237.316 185.993C237.844 185.776 238.406 185.668 239.004 185.668C239.59 185.668 240.144 185.776 240.665 185.993C241.192 186.21 241.67 186.526 242.098 186.942C242.514 187.347 242.83 187.812 243.047 188.34C243.264 188.861 243.372 189.415 243.372 190.001C243.372 190.587 243.264 191.141 243.047 191.662C242.83 192.178 242.514 192.638 242.098 193.042C241.67 193.464 241.189 193.786 240.656 194.009C240.129 194.231 239.578 194.343 239.004 194.343C238.412 194.343 237.85 194.231 237.316 194.009C236.789 193.792 236.317 193.479 235.901 193.068C235.485 192.646 235.169 192.178 234.952 191.662C234.735 191.146 234.627 190.593 234.627 190.001ZM245.2 197.92L247.38 193.209L244.225 185.958H245.815L248.153 191.732L250.632 185.958H252.144L246.747 197.92H245.2ZM259.157 189.069C259.11 188.36 258.873 187.815 258.445 187.435C258.023 187.048 257.443 186.854 256.705 186.854C256.037 186.854 255.48 187.057 255.035 187.461C254.59 187.859 254.332 188.396 254.262 189.069H259.157ZM260.634 190.186H254.262V190.309C254.262 191.17 254.508 191.867 255 192.4C255.492 192.928 256.134 193.191 256.925 193.191C257.464 193.191 257.95 193.048 258.384 192.761C258.817 192.468 259.201 192.028 259.535 191.442L260.581 192.146C260.177 192.872 259.661 193.42 259.034 193.789C258.407 194.158 257.681 194.343 256.854 194.343C255.63 194.343 254.64 193.938 253.884 193.13C253.128 192.321 252.75 191.261 252.75 189.948C252.75 188.688 253.125 187.657 253.875 186.854C254.625 186.052 255.589 185.65 256.767 185.65C257.956 185.65 258.896 186.031 259.588 186.793C260.285 187.555 260.634 188.595 260.634 189.913V190.186ZM268.887 192.093V193.692C268.523 193.909 268.113 194.07 267.656 194.176C267.205 194.287 266.716 194.343 266.188 194.343C264.946 194.343 263.944 193.95 263.183 193.165C262.427 192.374 262.049 191.337 262.049 190.054C262.049 188.765 262.441 187.713 263.227 186.898C264.012 186.078 265.017 185.668 266.241 185.668C266.687 185.668 267.12 185.715 267.542 185.809C267.97 185.902 268.371 186.04 268.746 186.222V187.698C268.395 187.47 268.031 187.297 267.656 187.18C267.281 187.057 266.9 186.995 266.514 186.995C265.611 186.995 264.888 187.279 264.343 187.848C263.798 188.41 263.525 189.16 263.525 190.098C263.525 190.924 263.798 191.615 264.343 192.172C264.894 192.729 265.582 193.007 266.408 193.007C266.824 193.007 267.231 192.934 267.63 192.787C268.028 192.641 268.447 192.409 268.887 192.093ZM271.014 187.092H269.537V185.958H271.014V182.715H272.42V185.958H273.896V187.092H272.42V194H271.014V187.092ZM276.27 190.001C276.27 190.851 276.554 191.571 277.122 192.163C277.69 192.749 278.379 193.042 279.188 193.042C279.99 193.042 280.673 192.749 281.235 192.163C281.798 191.571 282.079 190.851 282.079 190.001C282.079 189.151 281.798 188.434 281.235 187.848C280.673 187.256 279.99 186.96 279.188 186.96C278.373 186.96 277.682 187.256 277.113 187.848C276.551 188.434 276.27 189.151 276.27 190.001ZM274.811 190.001C274.811 189.409 274.919 188.853 275.136 188.331C275.353 187.804 275.669 187.335 276.085 186.925C276.501 186.515 276.973 186.204 277.5 185.993C278.027 185.776 278.59 185.668 279.188 185.668C279.773 185.668 280.327 185.776 280.849 185.993C281.376 186.21 281.854 186.526 282.281 186.942C282.697 187.347 283.014 187.812 283.23 188.34C283.447 188.861 283.556 189.415 283.556 190.001C283.556 190.587 283.447 191.141 283.23 191.662C283.014 192.178 282.697 192.638 282.281 193.042C281.854 193.464 281.373 193.786 280.84 194.009C280.312 194.231 279.762 194.343 279.188 194.343C278.596 194.343 278.033 194.231 277.5 194.009C276.973 193.792 276.501 193.479 276.085 193.068C275.669 192.646 275.353 192.178 275.136 191.662C274.919 191.146 274.811 190.593 274.811 190.001ZM284.856 192.646L286.034 191.855C286.257 192.283 286.538 192.605 286.878 192.822C287.218 193.033 287.619 193.139 288.082 193.139C288.533 193.139 288.896 193.027 289.172 192.805C289.453 192.582 289.594 192.289 289.594 191.926C289.594 191.645 289.497 191.41 289.304 191.223C289.116 191.035 288.791 190.862 288.328 190.704C288.281 190.687 288.205 190.66 288.1 190.625C286.143 189.951 285.164 189.107 285.164 188.094C285.164 187.379 285.428 186.796 285.955 186.345C286.482 185.894 287.168 185.668 288.012 185.668C288.709 185.668 289.307 185.809 289.805 186.09C290.303 186.365 290.66 186.758 290.877 187.268L289.761 187.953C289.597 187.584 289.354 187.3 289.031 187.101C288.715 186.901 288.346 186.802 287.924 186.802C287.52 186.802 287.188 186.916 286.931 187.145C286.679 187.367 286.553 187.654 286.553 188.006C286.553 188.498 287.086 188.911 288.152 189.245C288.352 189.31 288.51 189.359 288.627 189.395C289.5 189.676 290.106 189.998 290.446 190.361C290.792 190.719 290.965 191.193 290.965 191.785C290.965 192.547 290.692 193.165 290.147 193.64C289.608 194.108 288.902 194.343 288.029 194.343C287.279 194.343 286.641 194.202 286.113 193.921C285.592 193.64 285.173 193.215 284.856 192.646Z" fill="white"/>
</svg>
