<svg width="452" height="185" viewBox="0 0 452 185" fill="none" xmlns="http://www.w3.org/2000/svg">
<path d="M30.5625 31V8.125H35.4531V26.8438H43.2656V31H30.5625ZM68.6094 19.6094C68.6094 21.2448 68.3021 22.7917 67.6875 24.25C67.0833 25.7083 66.2083 26.9896 65.0625 28.0938C63.875 29.2292 62.5365 30.099 61.0469 30.7031C59.5573 31.3073 58.0156 31.6094 56.4219 31.6094C55.026 31.6094 53.6562 31.375 52.3125 30.9062C50.9792 30.4271 49.7552 29.7448 48.6406 28.8594C47.2031 27.7135 46.099 26.3438 45.3281 24.75C44.5677 23.1562 44.1875 21.4427 44.1875 19.6094C44.1875 17.9635 44.4896 16.4219 45.0938 14.9844C45.6979 13.5365 46.5833 12.25 47.75 11.125C48.8958 10.0104 50.224 9.14583 51.7344 8.53125C53.2552 7.91667 54.8177 7.60938 56.4219 7.60938C58.0156 7.60938 59.5625 7.91667 61.0625 8.53125C62.5729 9.14583 63.9062 10.0104 65.0625 11.125C66.2188 12.25 67.099 13.5365 67.7031 14.9844C68.3073 16.4323 68.6094 17.974 68.6094 19.6094ZM56.4219 27.25C58.4948 27.25 60.2031 26.526 61.5469 25.0781C62.901 23.6198 63.5781 21.7969 63.5781 19.6094C63.5781 17.4427 62.8958 15.6198 61.5312 14.1406C60.1667 12.6615 58.4635 11.9219 56.4219 11.9219C54.349 11.9219 52.6302 12.6615 51.2656 14.1406C49.901 15.6094 49.2188 17.4323 49.2188 19.6094C49.2188 21.8177 49.8906 23.6458 51.2344 25.0938C52.5781 26.5312 54.3073 27.25 56.4219 27.25ZM71.2812 28.0938L74 25.0156C74.3438 25.8594 74.8958 26.526 75.6562 27.0156C76.4167 27.4948 77.2708 27.7344 78.2188 27.7344C79.3646 27.7344 80.2708 27.4635 80.9375 26.9219C81.6042 26.3802 81.9375 25.651 81.9375 24.7344C81.9375 23.651 80.8281 22.5729 78.6094 21.5C77.8906 21.1562 77.3229 20.875 76.9062 20.6562C74.9062 19.6146 73.5208 18.599 72.75 17.6094C71.9792 16.6094 71.5938 15.4219 71.5938 14.0469C71.5938 12.1615 72.3385 10.6146 73.8281 9.40625C75.3281 8.1875 77.2708 7.57812 79.6562 7.57812C81.0417 7.57812 82.2344 7.82292 83.2344 8.3125C84.2448 8.79167 85.1354 9.54688 85.9062 10.5781L83.0156 13.3438C82.6719 12.6771 82.2135 12.1823 81.6406 11.8594C81.0781 11.526 80.3958 11.3594 79.5938 11.3594C78.625 11.3594 77.8438 11.6042 77.25 12.0938C76.6562 12.5729 76.3594 13.1979 76.3594 13.9688C76.3594 15.1771 77.5365 16.2812 79.8906 17.2812C80.3594 17.4792 80.7188 17.6354 80.9688 17.75C82.9062 18.6354 84.3385 19.6354 85.2656 20.75C86.2031 21.8646 86.6719 23.1354 86.6719 24.5625C86.6719 26.7083 85.9375 28.4219 84.4688 29.7031C83.0104 30.974 81.0469 31.6094 78.5781 31.6094C76.8281 31.6094 75.3281 31.3073 74.0781 30.7031C72.8281 30.099 71.8958 29.2292 71.2812 28.0938ZM105.422 27.1875H107.344C108.573 27.1875 109.505 26.9219 110.141 26.3906C110.776 25.849 111.094 25.0625 111.094 24.0312C111.094 23.0625 110.776 22.3229 110.141 21.8125C109.516 21.3021 108.604 21.0469 107.406 21.0469H105.422V27.1875ZM105.422 17.2656H106.516C107.995 17.2656 109.042 17.0573 109.656 16.6406C110.271 16.224 110.578 15.526 110.578 14.5469C110.578 13.5885 110.281 12.9062 109.688 12.5C109.104 12.0938 108.078 11.8906 106.609 11.8906H105.422V17.2656ZM100.531 31V8.125H104.812C107.031 8.125 108.651 8.21354 109.672 8.39062C110.703 8.55729 111.594 8.83854 112.344 9.23438C113.229 9.74479 113.911 10.4167 114.391 11.25C114.88 12.0833 115.125 13.026 115.125 14.0781C115.125 15.4323 114.724 16.5208 113.922 17.3438C113.12 18.1562 111.922 18.6979 110.328 18.9688C112.172 19.2396 113.562 19.8385 114.5 20.7656C115.448 21.6927 115.922 22.9271 115.922 24.4688C115.922 25.5938 115.651 26.625 115.109 27.5625C114.568 28.4896 113.823 29.2083 112.875 29.7188C112.031 30.1771 111.042 30.5052 109.906 30.7031C108.771 30.901 106.891 31 104.266 31H103.766H100.531ZM119.656 31V8.125H133.125V12.25H124.547V16.9531H133.125V21.1094H124.547V26.8438H133.125V31H119.656ZM137.938 31V8.125H143.016L153.141 21.4375C153.432 21.8125 153.75 22.3438 154.094 23.0312C154.448 23.7083 154.812 24.5104 155.188 25.4375C155.073 24.7604 154.99 24.0885 154.938 23.4219C154.885 22.7552 154.859 21.9219 154.859 20.9219V8.125H159.531V31H154.734L144.328 17.4375C144.036 17.0625 143.719 16.5365 143.375 15.8594C143.031 15.1719 142.667 14.3542 142.281 13.4062C142.396 14.0625 142.479 14.7292 142.531 15.4062C142.583 16.0729 142.609 16.9167 142.609 17.9375V31H137.938ZM164.625 31V8.125H178.094V12.25H169.516V16.9531H178.094V21.1094H169.516V26.8438H178.094V31H164.625ZM182.906 31V8.125H196.375V12.25H187.797V16.9531H196.375V21.1094H187.797V31H182.906ZM200.25 31V8.125H205.141V31H200.25ZM228.797 14.0781C227.807 13.1927 226.792 12.5469 225.75 12.1406C224.708 11.724 223.594 11.5156 222.406 11.5156C219.969 11.5156 218.026 12.2448 216.578 13.7031C215.13 15.1615 214.406 17.1198 214.406 19.5781C214.406 21.9844 215.078 23.8958 216.422 25.3125C217.766 26.7188 219.599 27.4219 221.922 27.4219C223.245 27.4219 224.474 27.2031 225.609 26.7656C226.745 26.3177 227.797 25.651 228.766 24.7656L228.734 29.7812C227.693 30.3958 226.599 30.8542 225.453 31.1562C224.318 31.4583 223.12 31.6094 221.859 31.6094C218.214 31.6094 215.219 30.4792 212.875 28.2188C210.542 25.9479 209.375 23.0677 209.375 19.5781C209.375 16.099 210.547 13.2292 212.891 10.9688C215.234 8.70833 218.255 7.57812 221.953 7.57812C223.193 7.57812 224.391 7.70833 225.547 7.96875C226.703 8.22917 227.844 8.63021 228.969 9.17188L228.797 14.0781ZM233.438 31V8.125H238.328V31H233.438ZM266.984 19.6094C266.984 21.2448 266.677 22.7917 266.062 24.25C265.458 25.7083 264.583 26.9896 263.438 28.0938C262.25 29.2292 260.911 30.099 259.422 30.7031C257.932 31.3073 256.391 31.6094 254.797 31.6094C253.401 31.6094 252.031 31.375 250.688 30.9062C249.354 30.4271 248.13 29.7448 247.016 28.8594C245.578 27.7135 244.474 26.3438 243.703 24.75C242.943 23.1562 242.562 21.4427 242.562 19.6094C242.562 17.9635 242.865 16.4219 243.469 14.9844C244.073 13.5365 244.958 12.25 246.125 11.125C247.271 10.0104 248.599 9.14583 250.109 8.53125C251.63 7.91667 253.193 7.60938 254.797 7.60938C256.391 7.60938 257.938 7.91667 259.438 8.53125C260.948 9.14583 262.281 10.0104 263.438 11.125C264.594 12.25 265.474 13.5365 266.078 14.9844C266.682 16.4323 266.984 17.974 266.984 19.6094ZM254.797 27.25C256.87 27.25 258.578 26.526 259.922 25.0781C261.276 23.6198 261.953 21.7969 261.953 19.6094C261.953 17.4427 261.271 15.6198 259.906 14.1406C258.542 12.6615 256.839 11.9219 254.797 11.9219C252.724 11.9219 251.005 12.6615 249.641 14.1406C248.276 15.6094 247.594 17.4323 247.594 19.6094C247.594 21.8177 248.266 23.6458 249.609 25.0938C250.953 26.5312 252.682 27.25 254.797 27.25ZM269.656 28.0938L272.375 25.0156C272.719 25.8594 273.271 26.526 274.031 27.0156C274.792 27.4948 275.646 27.7344 276.594 27.7344C277.74 27.7344 278.646 27.4635 279.312 26.9219C279.979 26.3802 280.312 25.651 280.312 24.7344C280.312 23.651 279.203 22.5729 276.984 21.5C276.266 21.1562 275.698 20.875 275.281 20.6562C273.281 19.6146 271.896 18.599 271.125 17.6094C270.354 16.6094 269.969 15.4219 269.969 14.0469C269.969 12.1615 270.714 10.6146 272.203 9.40625C273.703 8.1875 275.646 7.57812 278.031 7.57812C279.417 7.57812 280.609 7.82292 281.609 8.3125C282.62 8.79167 283.51 9.54688 284.281 10.5781L281.391 13.3438C281.047 12.6771 280.589 12.1823 280.016 11.8594C279.453 11.526 278.771 11.3594 277.969 11.3594C277 11.3594 276.219 11.6042 275.625 12.0938C275.031 12.5729 274.734 13.1979 274.734 13.9688C274.734 15.1771 275.911 16.2812 278.266 17.2812C278.734 17.4792 279.094 17.6354 279.344 17.75C281.281 18.6354 282.714 19.6354 283.641 20.75C284.578 21.8646 285.047 23.1354 285.047 24.5625C285.047 26.7083 284.312 28.4219 282.844 29.7031C281.385 30.974 279.422 31.6094 276.953 31.6094C275.203 31.6094 273.703 31.3073 272.453 30.7031C271.203 30.099 270.271 29.2292 269.656 28.0938ZM303.797 26.875H306.516C309.078 26.875 310.943 26.2917 312.109 25.125C313.286 23.9583 313.875 22.1094 313.875 19.5781C313.875 17.0573 313.286 15.2135 312.109 14.0469C310.943 12.8698 309.078 12.2812 306.516 12.2812H303.797V26.875ZM298.906 31V8.125H305.141C307.599 8.125 309.536 8.29688 310.953 8.64062C312.37 8.98438 313.615 9.55729 314.688 10.3594C316.073 11.3906 317.12 12.6927 317.828 14.2656C318.547 15.8281 318.906 17.6094 318.906 19.6094C318.906 21.6406 318.542 23.4427 317.812 25.0156C317.083 26.5781 316.016 27.8698 314.609 28.8906C313.568 29.6406 312.406 30.1823 311.125 30.5156C309.854 30.8385 307.99 31 305.531 31H303.797H298.906ZM323 31V8.125H336.469V12.25H327.891V16.9531H336.469V21.1094H327.891V26.8438H336.469V31H323ZM351.125 31V8.125H356.016V26.8438H363.828V31H351.125ZM378.75 22.2969L376.188 14.9062C376.115 14.6875 376.021 14.3125 375.906 13.7812C375.792 13.25 375.672 12.599 375.547 11.8281C375.411 12.5677 375.281 13.2344 375.156 13.8281C375.031 14.4115 374.938 14.8021 374.875 15L372.406 22.2969H378.75ZM364.188 31L372.891 8.125H378.484L387.312 31H381.75L379.891 26.1406H371.031L369.438 31H364.188ZM35.4531 65.1875H37.375C38.6042 65.1875 39.5365 64.9219 40.1719 64.3906C40.8073 63.849 41.125 63.0625 41.125 62.0312C41.125 61.0625 40.8073 60.3229 40.1719 59.8125C39.5469 59.3021 38.6354 59.0469 37.4375 59.0469H35.4531V65.1875ZM35.4531 55.2656H36.5469C38.026 55.2656 39.0729 55.0573 39.6875 54.6406C40.3021 54.224 40.6094 53.526 40.6094 52.5469C40.6094 51.5885 40.3125 50.9062 39.7188 50.5C39.1354 50.0938 38.1094 49.8906 36.6406 49.8906H35.4531V55.2656ZM30.5625 69V46.125H34.8438C37.0625 46.125 38.6823 46.2135 39.7031 46.3906C40.7344 46.5573 41.625 46.8385 42.375 47.2344C43.2604 47.7448 43.9427 48.4167 44.4219 49.25C44.9115 50.0833 45.1562 51.026 45.1562 52.0781C45.1562 53.4323 44.7552 54.5208 43.9531 55.3438C43.151 56.1562 41.9531 56.6979 40.3594 56.9688C42.2031 57.2396 43.5938 57.8385 44.5312 58.7656C45.4792 59.6927 45.9531 60.9271 45.9531 62.4688C45.9531 63.5938 45.6823 64.625 45.1406 65.5625C44.599 66.4896 43.8542 67.2083 42.9062 67.7188C42.0625 68.1771 41.0729 68.5052 39.9375 68.7031C38.8021 68.901 36.9219 69 34.2969 69H33.7969H30.5625ZM61.5312 60.2969L58.9688 52.9062C58.8958 52.6875 58.8021 52.3125 58.6875 51.7812C58.5729 51.25 58.4531 50.599 58.3281 49.8281C58.1927 50.5677 58.0625 51.2344 57.9375 51.8281C57.8125 52.4115 57.7188 52.8021 57.6562 53L55.1875 60.2969H61.5312ZM46.9688 69L55.6719 46.125H61.2656L70.0938 69H64.5312L62.6719 64.1406H53.8125L52.2188 69H46.9688ZM72.5 69V46.125H77.5781L87.7031 59.4375C87.9948 59.8125 88.3125 60.3438 88.6562 61.0312C89.0104 61.7083 89.375 62.5104 89.75 63.4375C89.6354 62.7604 89.5521 62.0885 89.5 61.4219C89.4479 60.7552 89.4219 59.9219 89.4219 58.9219V46.125H94.0938V69H89.2969L78.8906 55.4375C78.599 55.0625 78.2812 54.5365 77.9375 53.8594C77.5938 53.1719 77.2292 52.3542 76.8438 51.4062C76.9583 52.0625 77.0417 52.7292 77.0938 53.4062C77.1458 54.0729 77.1719 54.9167 77.1719 55.9375V69H72.5ZM117.609 52.0781C116.62 51.1927 115.604 50.5469 114.562 50.1406C113.521 49.724 112.406 49.5156 111.219 49.5156C108.781 49.5156 106.839 50.2448 105.391 51.7031C103.943 53.1615 103.219 55.1198 103.219 57.5781C103.219 59.9844 103.891 61.8958 105.234 63.3125C106.578 64.7188 108.411 65.4219 110.734 65.4219C112.057 65.4219 113.286 65.2031 114.422 64.7656C115.557 64.3177 116.609 63.651 117.578 62.7656L117.547 67.7812C116.505 68.3958 115.411 68.8542 114.266 69.1562C113.13 69.4583 111.932 69.6094 110.672 69.6094C107.026 69.6094 104.031 68.4792 101.688 66.2188C99.3542 63.9479 98.1875 61.0677 98.1875 57.5781C98.1875 54.099 99.3594 51.2292 101.703 48.9688C104.047 46.7083 107.068 45.5781 110.766 45.5781C112.005 45.5781 113.203 45.7083 114.359 45.9688C115.516 46.2292 116.656 46.6302 117.781 47.1719L117.609 52.0781ZM134 60.2969L131.438 52.9062C131.365 52.6875 131.271 52.3125 131.156 51.7812C131.042 51.25 130.922 50.599 130.797 49.8281C130.661 50.5677 130.531 51.2344 130.406 51.8281C130.281 52.4115 130.188 52.8021 130.125 53L127.656 60.2969H134ZM119.438 69L128.141 46.125H133.734L142.562 69H137L135.141 64.1406H126.281L124.688 69H119.438ZM153.344 66.0938L156.062 63.0156C156.406 63.8594 156.958 64.526 157.719 65.0156C158.479 65.4948 159.333 65.7344 160.281 65.7344C161.427 65.7344 162.333 65.4635 163 64.9219C163.667 64.3802 164 63.651 164 62.7344C164 61.651 162.891 60.5729 160.672 59.5C159.953 59.1562 159.385 58.875 158.969 58.6562C156.969 57.6146 155.583 56.599 154.812 55.6094C154.042 54.6094 153.656 53.4219 153.656 52.0469C153.656 50.1615 154.401 48.6146 155.891 47.4062C157.391 46.1875 159.333 45.5781 161.719 45.5781C163.104 45.5781 164.297 45.8229 165.297 46.3125C166.307 46.7917 167.198 47.5469 167.969 48.5781L165.078 51.3438C164.734 50.6771 164.276 50.1823 163.703 49.8594C163.141 49.526 162.458 49.3594 161.656 49.3594C160.688 49.3594 159.906 49.6042 159.312 50.0938C158.719 50.5729 158.422 51.1979 158.422 51.9688C158.422 53.1771 159.599 54.2812 161.953 55.2812C162.422 55.4792 162.781 55.6354 163.031 55.75C164.969 56.6354 166.401 57.6354 167.328 58.75C168.266 59.8646 168.734 61.1354 168.734 62.5625C168.734 64.7083 168 66.4219 166.531 67.7031C165.073 68.974 163.109 69.6094 160.641 69.6094C158.891 69.6094 157.391 69.3073 156.141 68.7031C154.891 68.099 153.958 67.2292 153.344 66.0938ZM172.844 69V46.125H177.734V69H172.844ZM182.969 69V46.125H188.047L198.172 59.4375C198.464 59.8125 198.781 60.3438 199.125 61.0312C199.479 61.7083 199.844 62.5104 200.219 63.4375C200.104 62.7604 200.021 62.0885 199.969 61.4219C199.917 60.7552 199.891 59.9219 199.891 58.9219V46.125H204.562V69H199.766L189.359 55.4375C189.068 55.0625 188.75 54.5365 188.406 53.8594C188.062 53.1719 187.698 52.3542 187.312 51.4062C187.427 52.0625 187.51 52.7292 187.562 53.4062C187.615 54.0729 187.641 54.9167 187.641 55.9375V69H182.969ZM218.031 66.0938L220.75 63.0156C221.094 63.8594 221.646 64.526 222.406 65.0156C223.167 65.4948 224.021 65.7344 224.969 65.7344C226.115 65.7344 227.021 65.4635 227.688 64.9219C228.354 64.3802 228.688 63.651 228.688 62.7344C228.688 61.651 227.578 60.5729 225.359 59.5C224.641 59.1562 224.073 58.875 223.656 58.6562C221.656 57.6146 220.271 56.599 219.5 55.6094C218.729 54.6094 218.344 53.4219 218.344 52.0469C218.344 50.1615 219.089 48.6146 220.578 47.4062C222.078 46.1875 224.021 45.5781 226.406 45.5781C227.792 45.5781 228.984 45.8229 229.984 46.3125C230.995 46.7917 231.885 47.5469 232.656 48.5781L229.766 51.3438C229.422 50.6771 228.964 50.1823 228.391 49.8594C227.828 49.526 227.146 49.3594 226.344 49.3594C225.375 49.3594 224.594 49.6042 224 50.0938C223.406 50.5729 223.109 51.1979 223.109 51.9688C223.109 53.1771 224.286 54.2812 226.641 55.2812C227.109 55.4792 227.469 55.6354 227.719 55.75C229.656 56.6354 231.089 57.6354 232.016 58.75C232.953 59.8646 233.422 61.1354 233.422 62.5625C233.422 64.7083 232.688 66.4219 231.219 67.7031C229.76 68.974 227.797 69.6094 225.328 69.6094C223.578 69.6094 222.078 69.3073 220.828 68.7031C219.578 68.099 218.646 67.2292 218.031 66.0938ZM249.281 60.2969L246.719 52.9062C246.646 52.6875 246.552 52.3125 246.438 51.7812C246.323 51.25 246.203 50.599 246.078 49.8281C245.943 50.5677 245.812 51.2344 245.688 51.8281C245.562 52.4115 245.469 52.8021 245.406 53L242.938 60.2969H249.281ZM234.719 69L243.422 46.125H249.016L257.844 69H252.281L250.422 64.1406H241.562L239.969 69H234.719ZM260.25 69V46.125H265.141V64.8438H272.953V69H260.25ZM276.125 69V46.125H281.016V69H276.125ZM302.797 69H297.156L291.141 58.3125V69H286.25V46.125H293.25C296.031 46.125 298.115 46.6667 299.5 47.75C300.885 48.8229 301.578 50.4427 301.578 52.6094C301.578 54.1823 301.104 55.526 300.156 56.6406C299.208 57.7552 297.984 58.4062 296.484 58.5938L302.797 69ZM291.141 55.875H291.875C293.854 55.875 295.161 55.6615 295.797 55.2344C296.432 54.7969 296.75 54.0417 296.75 52.9688C296.75 51.8438 296.406 51.0469 295.719 50.5781C295.042 50.099 293.76 49.8594 291.875 49.8594H291.141V55.875ZM320.391 64.875H323.109C325.672 64.875 327.536 64.2917 328.703 63.125C329.88 61.9583 330.469 60.1094 330.469 57.5781C330.469 55.0573 329.88 53.2135 328.703 52.0469C327.536 50.8698 325.672 50.2812 323.109 50.2812H320.391V64.875ZM315.5 69V46.125H321.734C324.193 46.125 326.13 46.2969 327.547 46.6406C328.964 46.9844 330.208 47.5573 331.281 48.3594C332.667 49.3906 333.714 50.6927 334.422 52.2656C335.141 53.8281 335.5 55.6094 335.5 57.6094C335.5 59.6406 335.135 61.4427 334.406 63.0156C333.677 64.5781 332.609 65.8698 331.203 66.8906C330.161 67.6406 329 68.1823 327.719 68.5156C326.448 68.8385 324.583 69 322.125 69H320.391H315.5ZM339.594 69V46.125H353.062V50.25H344.484V54.9531H353.062V59.1094H344.484V64.8438H353.062V69H339.594ZM386.141 52.0781C385.151 51.1927 384.135 50.5469 383.094 50.1406C382.052 49.724 380.938 49.5156 379.75 49.5156C377.312 49.5156 375.37 50.2448 373.922 51.7031C372.474 53.1615 371.75 55.1198 371.75 57.5781C371.75 59.9844 372.422 61.8958 373.766 63.3125C375.109 64.7188 376.943 65.4219 379.266 65.4219C380.589 65.4219 381.818 65.2031 382.953 64.7656C384.089 64.3177 385.141 63.651 386.109 62.7656L386.078 67.7812C385.036 68.3958 383.943 68.8542 382.797 69.1562C381.661 69.4583 380.464 69.6094 379.203 69.6094C375.557 69.6094 372.562 68.4792 370.219 66.2188C367.885 63.9479 366.719 61.0677 366.719 57.5781C366.719 54.099 367.891 51.2292 370.234 48.9688C372.578 46.7083 375.599 45.5781 379.297 45.5781C380.536 45.5781 381.734 45.7083 382.891 45.9688C384.047 46.2292 385.188 46.6302 386.312 47.1719L386.141 52.0781ZM402.531 60.2969L399.969 52.9062C399.896 52.6875 399.802 52.3125 399.688 51.7812C399.573 51.25 399.453 50.599 399.328 49.8281C399.193 50.5677 399.062 51.2344 398.938 51.8281C398.812 52.4115 398.719 52.8021 398.656 53L396.188 60.2969H402.531ZM387.969 69L396.672 46.125H402.266L411.094 69H405.531L403.672 64.1406H394.812L393.219 69H387.969ZM412.031 66.0938L414.75 63.0156C415.094 63.8594 415.646 64.526 416.406 65.0156C417.167 65.4948 418.021 65.7344 418.969 65.7344C420.115 65.7344 421.021 65.4635 421.688 64.9219C422.354 64.3802 422.688 63.651 422.688 62.7344C422.688 61.651 421.578 60.5729 419.359 59.5C418.641 59.1562 418.073 58.875 417.656 58.6562C415.656 57.6146 414.271 56.599 413.5 55.6094C412.729 54.6094 412.344 53.4219 412.344 52.0469C412.344 50.1615 413.089 48.6146 414.578 47.4062C416.078 46.1875 418.021 45.5781 420.406 45.5781C421.792 45.5781 422.984 45.8229 423.984 46.3125C424.995 46.7917 425.885 47.5469 426.656 48.5781L423.766 51.3438C423.422 50.6771 422.964 50.1823 422.391 49.8594C421.828 49.526 421.146 49.3594 420.344 49.3594C419.375 49.3594 418.594 49.6042 418 50.0938C417.406 50.5729 417.109 51.1979 417.109 51.9688C417.109 53.1771 418.286 54.2812 420.641 55.2812C421.109 55.4792 421.469 55.6354 421.719 55.75C423.656 56.6354 425.089 57.6354 426.016 58.75C426.953 59.8646 427.422 61.1354 427.422 62.5625C427.422 64.7083 426.688 66.4219 425.219 67.7031C423.76 68.974 421.797 69.6094 419.328 69.6094C417.578 69.6094 416.078 69.3073 414.828 68.7031C413.578 68.099 412.646 67.2292 412.031 66.0938ZM443.281 60.2969L440.719 52.9062C440.646 52.6875 440.552 52.3125 440.438 51.7812C440.323 51.25 440.203 50.599 440.078 49.8281C439.943 50.5677 439.812 51.2344 439.688 51.8281C439.562 52.4115 439.469 52.8021 439.406 53L436.938 60.2969H443.281ZM428.719 69L437.422 46.125H443.016L451.844 69H446.281L444.422 64.1406H435.562L433.969 69H428.719Z" fill="white"/>
<path d="M27 150H15C10.5817 150 7 146.418 7 142V76.5V25" stroke="white" stroke-width="1.5"/>
<circle cx="7" cy="19" r="6.25" stroke="white" stroke-width="1.5"/>
<rect x="25" y="120" width="274" height="65" rx="10" fill="#002A61"/>
<path d="M41.378 150H42.926L44.672 140.82H44.708L49.064 150.558L53.438 140.82H53.474L55.22 150H56.768L54.014 135.654L49.064 147.048L44.132 135.654L41.378 150ZM62.0147 142.638C63.7967 142.638 64.8587 144.006 64.8587 145.698C64.8587 147.408 63.8867 148.902 62.0327 148.902C60.2327 148.902 59.2607 147.336 59.2607 145.68C59.2607 144.096 60.3407 142.638 62.0147 142.638ZM66.2267 141.54H64.7867V142.746H64.7507C64.0487 141.846 63.0047 141.306 61.8527 141.306C59.3147 141.306 57.7847 143.376 57.7847 145.788C57.7847 148.128 59.3507 150.234 61.8347 150.234C63.0227 150.234 64.0127 149.766 64.7507 148.83H64.7867V150H66.2267V141.54ZM70.3334 141.54H68.8934V150H70.3334V145.986C70.3334 144.474 70.4594 142.638 72.4394 142.638C74.1134 142.638 74.2214 143.862 74.2214 145.23V150H75.6614V144.978C75.6614 142.998 75.1214 141.306 72.7814 141.306C71.7374 141.306 70.9634 141.756 70.3694 142.566H70.3334V141.54ZM85.7652 146.076C85.9092 143.556 84.4692 141.306 81.7512 141.306C79.1052 141.306 77.6472 143.376 77.6472 145.878C77.6472 148.308 79.2672 150.234 81.7872 150.234C83.5152 150.234 84.8832 149.37 85.6932 147.858L84.4692 147.156C83.9112 148.164 83.1192 148.902 81.8952 148.902C80.2572 148.902 79.1412 147.642 79.1232 146.076H85.7652ZM79.1952 144.852C79.3752 143.628 80.5272 142.638 81.7692 142.638C83.0292 142.638 84.0552 143.628 84.2532 144.852H79.1952ZM89.4471 141.54H88.0071V154.752H89.4471V141.54ZM88.7271 137.328C88.1691 137.328 87.7011 137.796 87.7011 138.354C87.7011 138.93 88.1691 139.38 88.7271 139.38C89.2851 139.38 89.7531 138.93 89.7531 138.354C89.7531 137.796 89.2851 137.328 88.7271 137.328ZM95.9581 142.638C97.7401 142.638 98.8021 144.006 98.8021 145.698C98.8021 147.408 97.8301 148.902 95.9761 148.902C94.1761 148.902 93.2041 147.336 93.2041 145.68C93.2041 144.096 94.2841 142.638 95.9581 142.638ZM100.17 141.54H98.7301V142.746H98.6941C97.9921 141.846 96.9481 141.306 95.7961 141.306C93.2581 141.306 91.7281 143.376 91.7281 145.788C91.7281 148.128 93.2941 150.234 95.7781 150.234C96.9661 150.234 97.9561 149.766 98.6941 148.83H98.7301V150H100.17V141.54ZM111.758 143.484V150H108.5V143.484H107.42V140.766H108.5V137.994H111.758V140.766H113.612V143.484H111.758ZM118.095 140.766V145.968C118.095 147.108 118.647 147.678 119.751 147.678C120.855 147.678 121.407 147.108 121.407 145.968V140.766H124.665V146.598C124.665 147.846 124.251 148.782 123.423 149.406C122.607 150.03 121.383 150.342 119.751 150.342C118.119 150.342 116.889 150.03 116.061 149.406C115.245 148.782 114.837 147.846 114.837 146.598V140.766H118.095ZM132.998 143.142C132.398 142.83 131.81 142.674 131.234 142.674C130.934 142.674 130.688 142.734 130.496 142.854C130.316 142.974 130.226 143.136 130.226 143.34C130.226 143.448 130.238 143.538 130.262 143.61C130.298 143.67 130.364 143.73 130.46 143.79C130.568 143.85 130.718 143.904 130.91 143.952C131.114 144 131.378 144.06 131.702 144.132C132.602 144.312 133.274 144.636 133.718 145.104C134.162 145.56 134.384 146.148 134.384 146.868C134.384 147.408 134.276 147.894 134.06 148.326C133.844 148.758 133.544 149.124 133.16 149.424C132.776 149.712 132.314 149.934 131.774 150.09C131.234 150.258 130.64 150.342 129.992 150.342C128.744 150.342 127.514 149.988 126.302 149.28L127.49 146.976C128.402 147.6 129.266 147.912 130.082 147.912C130.382 147.912 130.628 147.846 130.82 147.714C131.012 147.582 131.108 147.414 131.108 147.21C131.108 147.09 131.09 146.994 131.054 146.922C131.03 146.838 130.97 146.766 130.874 146.706C130.778 146.634 130.634 146.574 130.442 146.526C130.262 146.466 130.022 146.406 129.722 146.346C128.714 146.142 128.006 145.842 127.598 145.446C127.202 145.038 127.004 144.48 127.004 143.772C127.004 143.256 127.1 142.794 127.292 142.386C127.484 141.966 127.76 141.612 128.12 141.324C128.48 141.036 128.912 140.814 129.416 140.658C129.932 140.502 130.502 140.424 131.126 140.424C132.146 140.424 133.136 140.622 134.096 141.018L132.998 143.142ZM149.119 143.754C148.555 143.37 147.985 143.178 147.409 143.178C147.097 143.178 146.803 143.232 146.527 143.34C146.263 143.448 146.029 143.604 145.825 143.808C145.621 144 145.459 144.234 145.339 144.51C145.231 144.774 145.177 145.074 145.177 145.41C145.177 145.734 145.231 146.034 145.339 146.31C145.459 146.574 145.615 146.808 145.807 147.012C146.011 147.204 146.251 147.354 146.527 147.462C146.803 147.57 147.097 147.624 147.409 147.624C148.021 147.624 148.591 147.414 149.119 146.994V149.766C148.315 150.114 147.553 150.288 146.833 150.288C146.161 150.288 145.519 150.174 144.907 149.946C144.307 149.718 143.773 149.394 143.305 148.974C142.849 148.542 142.483 148.032 142.207 147.444C141.931 146.844 141.793 146.178 141.793 145.446C141.793 144.714 141.925 144.048 142.189 143.448C142.453 142.836 142.813 142.314 143.269 141.882C143.725 141.438 144.265 141.096 144.889 140.856C145.525 140.604 146.203 140.478 146.923 140.478C147.715 140.478 148.447 140.646 149.119 140.982V143.754ZM154.235 140.766V145.968C154.235 147.108 154.787 147.678 155.891 147.678C156.995 147.678 157.547 147.108 157.547 145.968V140.766H160.805V146.598C160.805 147.846 160.391 148.782 159.563 149.406C158.747 150.03 157.523 150.342 155.891 150.342C154.259 150.342 153.029 150.03 152.201 149.406C151.385 148.782 150.977 147.846 150.977 146.598V140.766H154.235ZM169.768 144.042C169.66 143.586 169.438 143.22 169.102 142.944C168.766 142.668 168.358 142.53 167.878 142.53C167.374 142.53 166.96 142.662 166.636 142.926C166.324 143.19 166.126 143.562 166.042 144.042H169.768ZM165.952 145.932C165.952 147.336 166.612 148.038 167.932 148.038C168.64 148.038 169.174 147.75 169.534 147.174H172.684C172.048 149.286 170.458 150.342 167.914 150.342C167.134 150.342 166.42 150.228 165.772 150C165.124 149.76 164.566 149.424 164.098 148.992C163.642 148.56 163.288 148.044 163.036 147.444C162.784 146.844 162.658 146.172 162.658 145.428C162.658 144.66 162.778 143.97 163.018 143.358C163.258 142.734 163.6 142.206 164.044 141.774C164.488 141.342 165.022 141.012 165.646 140.784C166.282 140.544 166.996 140.424 167.788 140.424C168.568 140.424 169.27 140.544 169.894 140.784C170.518 141.012 171.046 141.348 171.478 141.792C171.91 142.236 172.24 142.782 172.468 143.43C172.696 144.066 172.81 144.786 172.81 145.59V145.932H165.952ZM174.673 140.766H177.931V141.936C178.375 141.396 178.825 141.036 179.281 140.856C179.737 140.664 180.271 140.568 180.883 140.568C181.531 140.568 182.083 140.676 182.539 140.892C183.007 141.096 183.403 141.39 183.727 141.774C183.991 142.086 184.171 142.434 184.267 142.818C184.363 143.202 184.411 143.64 184.411 144.132V150H181.153V145.338C181.153 144.882 181.117 144.516 181.045 144.24C180.985 143.952 180.871 143.724 180.703 143.556C180.559 143.412 180.397 143.31 180.217 143.25C180.037 143.19 179.845 143.16 179.641 143.16C179.089 143.16 178.663 143.328 178.363 143.664C178.075 143.988 177.931 144.456 177.931 145.068V150H174.673V140.766ZM190.262 143.484V150H187.004V143.484H185.924V140.766H187.004V137.994H190.262V140.766H192.116V143.484H190.262ZM196.54 145.356C196.54 145.656 196.594 145.938 196.702 146.202C196.81 146.454 196.954 146.676 197.134 146.868C197.326 147.06 197.548 147.21 197.8 147.318C198.064 147.426 198.346 147.48 198.646 147.48C198.934 147.48 199.204 147.426 199.456 147.318C199.72 147.21 199.942 147.06 200.122 146.868C200.314 146.676 200.464 146.454 200.572 146.202C200.692 145.95 200.752 145.68 200.752 145.392C200.752 145.104 200.692 144.834 200.572 144.582C200.464 144.318 200.314 144.09 200.122 143.898C199.942 143.706 199.72 143.556 199.456 143.448C199.204 143.34 198.934 143.286 198.646 143.286C198.346 143.286 198.064 143.34 197.8 143.448C197.548 143.556 197.326 143.706 197.134 143.898C196.954 144.09 196.81 144.312 196.702 144.564C196.594 144.804 196.54 145.068 196.54 145.356ZM200.644 140.766H203.92V150H200.644V148.974C199.948 149.85 199.006 150.288 197.818 150.288C197.146 150.288 196.528 150.168 195.964 149.928C195.4 149.676 194.908 149.328 194.488 148.884C194.068 148.44 193.738 147.918 193.498 147.318C193.27 146.718 193.156 146.064 193.156 145.356C193.156 144.696 193.27 144.072 193.498 143.484C193.726 142.884 194.044 142.362 194.452 141.918C194.86 141.474 195.346 141.126 195.91 140.874C196.474 140.61 197.098 140.478 197.782 140.478C198.934 140.478 199.888 140.88 200.644 141.684V140.766ZM212.257 143.142C211.657 142.83 211.069 142.674 210.493 142.674C210.193 142.674 209.947 142.734 209.755 142.854C209.575 142.974 209.485 143.136 209.485 143.34C209.485 143.448 209.497 143.538 209.521 143.61C209.557 143.67 209.623 143.73 209.719 143.79C209.827 143.85 209.977 143.904 210.169 143.952C210.373 144 210.637 144.06 210.961 144.132C211.861 144.312 212.533 144.636 212.977 145.104C213.421 145.56 213.643 146.148 213.643 146.868C213.643 147.408 213.535 147.894 213.319 148.326C213.103 148.758 212.803 149.124 212.419 149.424C212.035 149.712 211.573 149.934 211.033 150.09C210.493 150.258 209.899 150.342 209.251 150.342C208.003 150.342 206.773 149.988 205.561 149.28L206.749 146.976C207.661 147.6 208.525 147.912 209.341 147.912C209.641 147.912 209.887 147.846 210.079 147.714C210.271 147.582 210.367 147.414 210.367 147.21C210.367 147.09 210.349 146.994 210.313 146.922C210.289 146.838 210.229 146.766 210.133 146.706C210.037 146.634 209.893 146.574 209.701 146.526C209.521 146.466 209.281 146.406 208.981 146.346C207.973 146.142 207.265 145.842 206.857 145.446C206.461 145.038 206.263 144.48 206.263 143.772C206.263 143.256 206.359 142.794 206.551 142.386C206.743 141.966 207.019 141.612 207.379 141.324C207.739 141.036 208.171 140.814 208.675 140.658C209.191 140.502 209.761 140.424 210.385 140.424C211.405 140.424 212.395 140.622 213.355 141.018L212.257 143.142ZM224.595 142.638C226.377 142.638 227.439 144.006 227.439 145.698C227.439 147.408 226.467 148.902 224.613 148.902C222.813 148.902 221.841 147.336 221.841 145.68C221.841 144.096 222.921 142.638 224.595 142.638ZM227.367 150H228.807V135.15H227.367V142.746H227.331C226.647 141.846 225.567 141.306 224.433 141.306C221.895 141.306 220.365 143.376 220.365 145.788C220.365 148.128 221.931 150.234 224.415 150.234C225.567 150.234 226.629 149.748 227.331 148.83H227.367V150ZM238.835 146.076C238.979 143.556 237.539 141.306 234.821 141.306C232.175 141.306 230.717 143.376 230.717 145.878C230.717 148.308 232.337 150.234 234.857 150.234C236.585 150.234 237.953 149.37 238.763 147.858L237.539 147.156C236.981 148.164 236.189 148.902 234.965 148.902C233.327 148.902 232.211 147.642 232.193 146.076H238.835ZM232.265 144.852C232.445 143.628 233.597 142.638 234.839 142.638C236.099 142.638 237.125 143.628 237.323 144.852H232.265ZM245.433 142.872C245.055 141.99 244.155 141.306 243.183 141.306C241.815 141.306 240.663 142.278 240.663 143.7C240.663 146.364 244.479 145.716 244.479 147.606C244.479 148.38 243.885 148.902 243.111 148.902C242.157 148.902 241.743 148.344 241.383 147.552L240.105 148.092C240.555 149.424 241.671 150.234 243.093 150.234C244.659 150.234 245.955 149.082 245.955 147.48C245.955 146.058 244.983 145.464 243.993 145.05C243.003 144.636 242.031 144.348 242.031 143.574C242.031 143.034 242.571 142.638 243.075 142.638C243.597 142.638 244.029 143.052 244.227 143.502L245.433 142.872ZM251.507 142.638C253.289 142.638 254.351 144.006 254.351 145.698C254.351 147.408 253.379 148.902 251.525 148.902C249.725 148.902 248.753 147.336 248.753 145.68C248.753 144.096 249.833 142.638 251.507 142.638ZM254.279 150H255.719V135.15H254.279V142.746H254.243C253.559 141.846 252.479 141.306 251.345 141.306C248.807 141.306 247.277 143.376 247.277 145.788C247.277 148.128 248.843 150.234 251.327 150.234C252.479 150.234 253.541 149.748 254.243 148.83H254.279V150ZM265.748 146.076C265.892 143.556 264.452 141.306 261.734 141.306C259.088 141.306 257.63 143.376 257.63 145.878C257.63 148.308 259.25 150.234 261.77 150.234C263.498 150.234 264.866 149.37 265.676 147.858L264.452 147.156C263.894 148.164 263.102 148.902 261.878 148.902C260.24 148.902 259.124 147.642 259.106 146.076H265.748ZM259.178 144.852C259.358 143.628 260.51 142.638 261.752 142.638C263.012 142.638 264.038 143.628 264.236 144.852H259.178ZM43.772 155.15H42.332V170H43.772V155.15ZM49.9561 162.638C51.7381 162.638 52.8001 164.006 52.8001 165.698C52.8001 167.408 51.8281 168.902 49.9741 168.902C48.1741 168.902 47.2021 167.336 47.2021 165.68C47.2021 164.096 48.2821 162.638 49.9561 162.638ZM54.1681 161.54H52.7281V162.746H52.6921C51.9901 161.846 50.9461 161.306 49.7941 161.306C47.2561 161.306 45.7261 163.376 45.7261 165.788C45.7261 168.128 47.2921 170.234 49.7761 170.234C50.9641 170.234 51.9541 169.766 52.6921 168.83H52.7281V170H54.1681V161.54ZM68.6539 162.152C67.8979 161.612 66.9619 161.306 66.0439 161.306C63.5599 161.306 61.5259 163.25 61.5259 165.77C61.5259 168.326 63.4699 170.234 66.0259 170.234C67.0339 170.234 67.8799 169.928 68.7079 169.37V167.444H68.6719C67.9699 168.362 67.1239 168.902 65.9179 168.902C64.1539 168.902 63.0019 167.444 63.0019 165.77C63.0019 164.078 64.2439 162.638 65.9899 162.638C67.1239 162.638 67.9519 163.214 68.6179 164.06H68.6539V162.152ZM74.6225 170.234C77.0885 170.234 79.0685 168.272 79.0685 165.788C79.0685 163.304 77.1065 161.306 74.6225 161.306C72.1385 161.306 70.1765 163.304 70.1765 165.788C70.1765 168.272 72.1565 170.234 74.6225 170.234ZM74.6225 162.638C76.4045 162.638 77.6285 164.06 77.6285 165.77C77.6285 167.498 76.4045 168.902 74.6225 168.902C72.8405 168.902 71.6165 167.498 71.6165 165.77C71.6165 164.06 72.8405 162.638 74.6225 162.638ZM82.4799 161.54H81.0399V170H82.4799V165.626C82.4799 164.348 82.6599 162.638 84.3519 162.638C85.7379 162.638 85.8639 164.15 85.8639 165.194V170H87.3039V165.518C87.3039 164.24 87.4839 162.638 89.1399 162.638C90.6159 162.638 90.6879 163.988 90.6879 165.086V170H92.1279V164.852C92.1279 163.07 91.5879 161.306 89.4279 161.306C88.4019 161.306 87.3939 161.774 86.8899 162.71C86.4399 161.828 85.5399 161.306 84.5499 161.306C83.6859 161.306 82.9659 161.756 82.5159 162.458H82.4799V161.54ZM98.5463 170.234C101.012 170.234 102.992 168.272 102.992 165.788C102.992 163.304 101.03 161.306 98.5463 161.306C96.0623 161.306 94.1003 163.304 94.1003 165.788C94.1003 168.272 96.0803 170.234 98.5463 170.234ZM98.5463 162.638C100.328 162.638 101.552 164.06 101.552 165.77C101.552 167.498 100.328 168.902 98.5463 168.902C96.7643 168.902 95.5403 167.498 95.5403 165.77C95.5403 164.06 96.7643 162.638 98.5463 162.638ZM108.474 162.638C110.256 162.638 111.318 164.006 111.318 165.698C111.318 167.408 110.346 168.902 108.492 168.902C106.692 168.902 105.72 167.336 105.72 165.68C105.72 164.096 106.8 162.638 108.474 162.638ZM111.246 170H112.686V155.15H111.246V162.746H111.21C110.526 161.846 109.446 161.306 108.312 161.306C105.774 161.306 104.244 163.376 104.244 165.788C104.244 168.128 105.81 170.234 108.294 170.234C109.446 170.234 110.508 169.748 111.21 168.83H111.246V170ZM117.062 161.54H115.622V170H117.062V161.54ZM116.342 157.328C115.784 157.328 115.316 157.796 115.316 158.354C115.316 158.93 115.784 159.38 116.342 159.38C116.9 159.38 117.368 158.93 117.368 158.354C117.368 157.796 116.9 157.328 116.342 157.328ZM123.573 162.638C125.355 162.638 126.417 164.006 126.417 165.698C126.417 167.408 125.445 168.902 123.591 168.902C121.791 168.902 120.819 167.336 120.819 165.68C120.819 164.096 121.899 162.638 123.573 162.638ZM126.345 170H127.785V155.15H126.345V162.746H126.309C125.625 161.846 124.545 161.306 123.411 161.306C120.873 161.306 119.343 163.376 119.343 165.788C119.343 168.128 120.909 170.234 123.393 170.234C124.545 170.234 125.607 169.748 126.309 168.83H126.345V170ZM133.962 162.638C135.744 162.638 136.806 164.006 136.806 165.698C136.806 167.408 135.834 168.902 133.98 168.902C132.18 168.902 131.208 167.336 131.208 165.68C131.208 164.096 132.288 162.638 133.962 162.638ZM138.174 161.54H136.734V162.746H136.698C135.996 161.846 134.952 161.306 133.8 161.306C131.262 161.306 129.732 163.376 129.732 165.788C129.732 168.128 131.298 170.234 133.782 170.234C134.97 170.234 135.96 169.766 136.698 168.83H136.734V170H138.174V161.54ZM144.351 162.638C146.133 162.638 147.195 164.006 147.195 165.698C147.195 167.408 146.223 168.902 144.369 168.902C142.569 168.902 141.597 167.336 141.597 165.68C141.597 164.096 142.677 162.638 144.351 162.638ZM147.123 170H148.563V155.15H147.123V162.746H147.087C146.403 161.846 145.323 161.306 144.189 161.306C141.651 161.306 140.121 163.376 140.121 165.788C140.121 168.128 141.687 170.234 144.171 170.234C145.323 170.234 146.385 169.748 147.087 168.83H147.123V170ZM160.276 162.638C162.058 162.638 163.12 164.006 163.12 165.698C163.12 167.408 162.148 168.902 160.294 168.902C158.494 168.902 157.522 167.336 157.522 165.68C157.522 164.096 158.602 162.638 160.276 162.638ZM163.048 170H164.488V155.15H163.048V162.746H163.012C162.328 161.846 161.248 161.306 160.114 161.306C157.576 161.306 156.046 163.376 156.046 165.788C156.046 168.128 157.612 170.234 160.096 170.234C161.248 170.234 162.31 169.748 163.012 168.83H163.048V170ZM174.517 166.076C174.661 163.556 173.221 161.306 170.503 161.306C167.857 161.306 166.399 163.376 166.399 165.878C166.399 168.308 168.019 170.234 170.539 170.234C172.267 170.234 173.635 169.37 174.445 167.858L173.221 167.156C172.663 168.164 171.871 168.902 170.647 168.902C169.009 168.902 167.893 167.642 167.875 166.076H174.517ZM167.947 164.852C168.127 163.628 169.279 162.638 170.521 162.638C171.781 162.638 172.807 163.628 173.005 164.852H167.947ZM185.41 163.484V170H182.152V163.484H181.072V160.766H182.152V157.994H185.41V160.766H187.264V163.484H185.41ZM191.747 160.766V165.968C191.747 167.108 192.299 167.678 193.403 167.678C194.507 167.678 195.059 167.108 195.059 165.968V160.766H198.317V166.598C198.317 167.846 197.903 168.782 197.075 169.406C196.259 170.03 195.035 170.342 193.403 170.342C191.771 170.342 190.541 170.03 189.713 169.406C188.897 168.782 188.489 167.846 188.489 166.598V160.766H191.747ZM206.647 155.06H209.905V161.936C210.349 161.396 210.799 161.036 211.255 160.856C211.711 160.664 212.245 160.568 212.857 160.568C214.021 160.568 214.897 160.892 215.485 161.54C216.085 162.176 216.385 163.04 216.385 164.132V170H213.127V165.338C213.127 164.87 213.091 164.492 213.019 164.204C212.947 163.916 212.827 163.694 212.659 163.538C212.371 163.286 212.023 163.16 211.615 163.16C211.063 163.16 210.637 163.328 210.337 163.664C210.049 163.988 209.905 164.456 209.905 165.068V170H206.647V155.06ZM221.678 165.338C221.678 165.65 221.732 165.938 221.84 166.202C221.96 166.454 222.11 166.676 222.29 166.868C222.482 167.06 222.704 167.21 222.956 167.318C223.22 167.426 223.496 167.48 223.784 167.48C224.072 167.48 224.342 167.426 224.594 167.318C224.858 167.21 225.08 167.06 225.26 166.868C225.452 166.676 225.602 166.454 225.71 166.202C225.83 165.938 225.89 165.656 225.89 165.356C225.89 165.068 225.83 164.798 225.71 164.546C225.602 164.282 225.452 164.054 225.26 163.862C225.08 163.67 224.858 163.52 224.594 163.412C224.342 163.304 224.072 163.25 223.784 163.25C223.496 163.25 223.22 163.304 222.956 163.412C222.704 163.52 222.482 163.67 222.29 163.862C222.11 164.054 221.96 164.276 221.84 164.528C221.732 164.78 221.678 165.05 221.678 165.338ZM218.24 165.302C218.24 164.618 218.378 163.982 218.654 163.394C218.93 162.794 219.314 162.278 219.806 161.846C220.298 161.402 220.88 161.054 221.552 160.802C222.236 160.55 222.98 160.424 223.784 160.424C224.576 160.424 225.308 160.55 225.98 160.802C226.664 161.042 227.252 161.384 227.744 161.828C228.248 162.26 228.638 162.782 228.914 163.394C229.19 163.994 229.328 164.66 229.328 165.392C229.328 166.124 229.184 166.796 228.896 167.408C228.62 168.008 228.236 168.53 227.744 168.974C227.252 169.406 226.658 169.742 225.962 169.982C225.278 170.222 224.534 170.342 223.73 170.342C222.938 170.342 222.206 170.222 221.534 169.982C220.862 169.742 220.28 169.4 219.788 168.956C219.308 168.512 218.93 167.984 218.654 167.372C218.378 166.748 218.24 166.058 218.24 165.302ZM234.228 165.338C234.228 165.638 234.282 165.92 234.39 166.184C234.498 166.436 234.642 166.658 234.822 166.85C235.014 167.042 235.236 167.192 235.488 167.3C235.752 167.408 236.034 167.462 236.334 167.462C236.622 167.462 236.892 167.408 237.144 167.3C237.408 167.192 237.63 167.042 237.81 166.85C238.002 166.658 238.152 166.436 238.26 166.184C238.38 165.92 238.44 165.644 238.44 165.356C238.44 165.056 238.38 164.78 238.26 164.528C238.152 164.276 238.002 164.054 237.81 163.862C237.618 163.67 237.39 163.52 237.126 163.412C236.874 163.304 236.61 163.25 236.334 163.25C236.046 163.25 235.776 163.31 235.524 163.43C235.272 163.538 235.05 163.688 234.858 163.88C234.666 164.06 234.51 164.276 234.39 164.528C234.282 164.78 234.228 165.05 234.228 165.338ZM241.536 160.766V169.37C241.536 169.886 241.506 170.348 241.446 170.756C241.386 171.164 241.302 171.524 241.194 171.836C241.05 172.232 240.822 172.598 240.51 172.934C240.21 173.282 239.844 173.582 239.412 173.834C238.98 174.086 238.488 174.284 237.936 174.428C237.396 174.572 236.808 174.644 236.172 174.644C235.452 174.644 234.792 174.554 234.192 174.374C233.592 174.194 233.064 173.942 232.608 173.618C232.164 173.306 231.798 172.934 231.51 172.502C231.222 172.082 231.03 171.62 230.934 171.116H234.606C234.834 171.728 235.35 172.034 236.154 172.034C236.838 172.034 237.36 171.842 237.72 171.458C238.092 171.074 238.278 170.54 238.278 169.856V168.974C238.038 169.202 237.804 169.394 237.576 169.55C237.36 169.694 237.138 169.814 236.91 169.91C236.682 170.006 236.442 170.072 236.19 170.108C235.938 170.156 235.662 170.18 235.362 170.18C234.702 170.18 234.096 170.066 233.544 169.838C232.992 169.61 232.512 169.292 232.104 168.884C231.708 168.476 231.396 167.99 231.168 167.426C230.952 166.85 230.844 166.214 230.844 165.518C230.844 164.81 230.964 164.156 231.204 163.556C231.444 162.944 231.768 162.416 232.176 161.972C232.596 161.516 233.088 161.162 233.652 160.91C234.228 160.646 234.852 160.514 235.524 160.514C236.616 160.514 237.534 160.922 238.278 161.738V160.766H241.536ZM246.972 165.356C246.972 165.656 247.026 165.938 247.134 166.202C247.242 166.454 247.386 166.676 247.566 166.868C247.758 167.06 247.98 167.21 248.232 167.318C248.496 167.426 248.778 167.48 249.078 167.48C249.366 167.48 249.636 167.426 249.888 167.318C250.152 167.21 250.374 167.06 250.554 166.868C250.746 166.676 250.896 166.454 251.004 166.202C251.124 165.95 251.184 165.68 251.184 165.392C251.184 165.104 251.124 164.834 251.004 164.582C250.896 164.318 250.746 164.09 250.554 163.898C250.374 163.706 250.152 163.556 249.888 163.448C249.636 163.34 249.366 163.286 249.078 163.286C248.778 163.286 248.496 163.34 248.232 163.448C247.98 163.556 247.758 163.706 247.566 163.898C247.386 164.09 247.242 164.312 247.134 164.564C247.026 164.804 246.972 165.068 246.972 165.356ZM251.076 160.766H254.352V170H251.076V168.974C250.38 169.85 249.438 170.288 248.25 170.288C247.578 170.288 246.96 170.168 246.396 169.928C245.832 169.676 245.34 169.328 244.92 168.884C244.5 168.44 244.17 167.918 243.93 167.318C243.702 166.718 243.588 166.064 243.588 165.356C243.588 164.696 243.702 164.072 243.93 163.484C244.158 162.884 244.476 162.362 244.884 161.918C245.292 161.474 245.778 161.126 246.342 160.874C246.906 160.61 247.53 160.478 248.214 160.478C249.366 160.478 250.32 160.88 251.076 161.684V160.766ZM256.569 160.766H259.827V162.278C260.175 161.726 260.601 161.306 261.105 161.018C261.609 160.718 262.197 160.568 262.869 160.568C262.953 160.568 263.043 160.568 263.139 160.568C263.247 160.568 263.367 160.58 263.499 160.604V163.718C263.067 163.502 262.599 163.394 262.095 163.394C261.339 163.394 260.769 163.622 260.385 164.078C260.013 164.522 259.827 165.176 259.827 166.04V170H256.569V160.766Z" fill="white"/>
</svg>
