<svg width="535" height="173" viewBox="0 0 535 173" fill="none" xmlns="http://www.w3.org/2000/svg">
<path d="M30.5625 31V8.125H35.4531V26.8438H43.2656V31H30.5625ZM58.1875 22.2969L55.625 14.9062C55.5521 14.6875 55.4583 14.3125 55.3438 13.7812C55.2292 13.25 55.1094 12.599 54.9844 11.8281C54.849 12.5677 54.7188 13.2344 54.5938 13.8281C54.4688 14.4115 54.375 14.8021 54.3125 15L51.8438 22.2969H58.1875ZM43.625 31L52.3281 8.125H57.9219L66.75 31H61.1875L59.3281 26.1406H50.4688L48.875 31H43.625ZM97.4219 14.0781C96.4323 13.1927 95.4167 12.5469 94.375 12.1406C93.3333 11.724 92.2188 11.5156 91.0312 11.5156C88.5938 11.5156 86.651 12.2448 85.2031 13.7031C83.7552 15.1615 83.0312 17.1198 83.0312 19.5781C83.0312 21.9844 83.7031 23.8958 85.0469 25.3125C86.3906 26.7188 88.224 27.4219 90.5469 27.4219C91.8698 27.4219 93.099 27.2031 94.2344 26.7656C95.3698 26.3177 96.4219 25.651 97.3906 24.7656L97.3594 29.7812C96.3177 30.3958 95.224 30.8542 94.0781 31.1562C92.9427 31.4583 91.7448 31.6094 90.4844 31.6094C86.8385 31.6094 83.8438 30.4792 81.5 28.2188C79.1667 25.9479 78 23.0677 78 19.5781C78 16.099 79.1719 13.2292 81.5156 10.9688C83.8594 8.70833 86.8802 7.57812 90.5781 7.57812C91.8177 7.57812 93.0156 7.70833 94.1719 7.96875C95.3281 8.22917 96.4688 8.63021 97.5938 9.17188L97.4219 14.0781ZM121.641 8.125V22.3594C121.641 25.4635 120.823 27.7812 119.188 29.3125C117.552 30.8438 115.089 31.6094 111.797 31.6094C108.453 31.6094 105.964 30.8438 104.328 29.3125C102.693 27.7812 101.875 25.4635 101.875 22.3594V8.125H106.734V21.5938C106.734 23.4792 107.151 24.901 107.984 25.8594C108.818 26.8073 110.062 27.2812 111.719 27.2812C113.385 27.2812 114.646 26.8021 115.5 25.8438C116.354 24.8854 116.781 23.4688 116.781 21.5938V8.125H121.641ZM126.719 31V8.125H140.188V12.25H131.609V16.9531H140.188V21.1094H131.609V26.8438H140.188V31H126.719ZM145 31V8.125H150.078L160.203 21.4375C160.495 21.8125 160.812 22.3438 161.156 23.0312C161.51 23.7083 161.875 24.5104 162.25 25.4375C162.135 24.7604 162.052 24.0885 162 23.4219C161.948 22.7552 161.922 21.9219 161.922 20.9219V8.125H166.594V31H161.797L151.391 17.4375C151.099 17.0625 150.781 16.5365 150.438 15.8594C150.094 15.1719 149.729 14.3542 149.344 13.4062C149.458 14.0625 149.542 14.7292 149.594 15.4062C149.646 16.0729 149.672 16.9167 149.672 17.9375V31H145ZM180.234 12.2812V31H175.328V12.2812H169.734V8.125H185.859V12.2812H180.234ZM199.125 22.2969L196.562 14.9062C196.49 14.6875 196.396 14.3125 196.281 13.7812C196.167 13.25 196.047 12.599 195.922 11.8281C195.786 12.5677 195.656 13.2344 195.531 13.8281C195.406 14.4115 195.312 14.8021 195.25 15L192.781 22.2969H199.125ZM184.562 31L193.266 8.125H198.859L207.688 31H202.125L200.266 26.1406H191.406L189.812 31H184.562ZM234.438 23.25L236.125 25.2344C236.833 24.5052 237.375 23.651 237.75 22.6719C238.135 21.6823 238.328 20.6615 238.328 19.6094C238.328 17.4427 237.646 15.6198 236.281 14.1406C234.917 12.6615 233.214 11.9219 231.172 11.9219C229.099 11.9219 227.38 12.6615 226.016 14.1406C224.651 15.6094 223.969 17.4323 223.969 19.6094C223.969 21.8073 224.635 23.6302 225.969 25.0781C227.312 26.526 229.016 27.25 231.078 27.25C231.255 27.25 231.5 27.2344 231.812 27.2031C232.135 27.1615 232.516 27.1042 232.953 27.0312L229.656 23.25H234.438ZM243.234 33.6562H238.359L235.875 30.7188C234.75 31.0104 233.812 31.2188 233.062 31.3438C232.323 31.4792 231.661 31.5469 231.078 31.5469C229.505 31.5469 227.964 31.2396 226.453 30.625C224.943 30.0104 223.625 29.1562 222.5 28.0625C221.344 26.9375 220.453 25.6458 219.828 24.1875C219.214 22.7188 218.906 21.1823 218.906 19.5781C218.906 17.974 219.214 16.4479 219.828 15C220.443 13.5417 221.333 12.2396 222.5 11.0938C223.635 9.96875 224.948 9.10938 226.438 8.51562C227.938 7.91146 229.516 7.60938 231.172 7.60938C232.797 7.60938 234.354 7.91146 235.844 8.51562C237.333 9.10938 238.656 9.96875 239.812 11.0938C240.969 12.2292 241.854 13.5208 242.469 14.9688C243.083 16.4167 243.391 17.9531 243.391 19.5781C243.391 21.3698 243.021 23.0417 242.281 24.5938C241.542 26.1458 240.458 27.526 239.031 28.7344L243.234 33.6562ZM267.172 8.125V22.3594C267.172 25.4635 266.354 27.7812 264.719 29.3125C263.083 30.8438 260.62 31.6094 257.328 31.6094C253.984 31.6094 251.495 30.8438 249.859 29.3125C248.224 27.7812 247.406 25.4635 247.406 22.3594V8.125H252.266V21.5938C252.266 23.4792 252.682 24.901 253.516 25.8594C254.349 26.8073 255.594 27.2812 257.25 27.2812C258.917 27.2812 260.177 26.8021 261.031 25.8438C261.885 24.8854 262.312 23.4688 262.312 21.5938V8.125H267.172ZM272.25 31V8.125H285.719V12.25H277.141V16.9531H285.719V21.1094H277.141V26.8438H285.719V31H272.25ZM39.1094 50.2812V69H34.2031V50.2812H28.6094V46.125H44.7344V50.2812H39.1094ZM67.5781 46.125V60.3594C67.5781 63.4635 66.7604 65.7812 65.125 67.3125C63.4896 68.8438 61.026 69.6094 57.7344 69.6094C54.3906 69.6094 51.901 68.8438 50.2656 67.3125C48.6302 65.7812 47.8125 63.4635 47.8125 60.3594V46.125H52.6719V59.5938C52.6719 61.4792 53.0885 62.901 53.9219 63.8594C54.7552 64.8073 56 65.2812 57.6562 65.2812C59.3229 65.2812 60.5833 64.8021 61.4375 63.8438C62.2917 62.8854 62.7188 61.4688 62.7188 59.5938V46.125H67.5781ZM82.5 69V46.125H95.9688V50.25H87.3906V54.9531H95.9688V59.1094H87.3906V64.8438H95.9688V69H82.5ZM98.7969 69L102.281 46.125H107.406L111.812 59.5938C111.906 59.875 112.005 60.2865 112.109 60.8281C112.224 61.3698 112.328 61.9896 112.422 62.6875C112.505 61.9792 112.599 61.349 112.703 60.7969C112.807 60.2344 112.906 59.8229 113 59.5625L117.484 46.125H122.531L126.031 69H121.391L119.719 55.2031C119.594 54.1823 119.51 53.4115 119.469 52.8906C119.427 52.3698 119.406 51.8854 119.406 51.4375C119.406 51.1979 119.406 51.0208 119.406 50.9062C119.417 50.7812 119.427 50.6719 119.438 50.5781C119.281 51.474 119.13 52.25 118.984 52.9062C118.849 53.5521 118.724 54.0417 118.609 54.375L113.766 69H111.016L106.25 54.375C106.208 54.2396 106.115 53.8646 105.969 53.25C105.833 52.6354 105.641 51.7396 105.391 50.5625V51.2344C105.391 52.2969 105.297 53.599 105.109 55.1406L105.094 55.2031L103.438 69H98.7969ZM134.141 56.4531H134.844C136.177 56.4531 137.146 56.1771 137.75 55.625C138.354 55.0729 138.656 54.1875 138.656 52.9688C138.656 51.8438 138.354 51.026 137.75 50.5156C137.146 49.9948 136.177 49.7344 134.844 49.7344H134.141V56.4531ZM129.219 69V46.125H134.844C137.844 46.125 140.057 46.6979 141.484 47.8438C142.922 48.9896 143.641 50.7604 143.641 53.1562C143.641 55.375 142.917 57.1146 141.469 58.375C140.031 59.6354 138.036 60.2656 135.484 60.2656H134.141V69H129.219ZM163.578 69H157.938L151.922 58.3125V69H147.031V46.125H154.031C156.812 46.125 158.896 46.6667 160.281 47.75C161.667 48.8229 162.359 50.4427 162.359 52.6094C162.359 54.1823 161.885 55.526 160.938 56.6406C159.99 57.7552 158.766 58.4062 157.266 58.5938L163.578 69ZM151.922 55.875H152.656C154.635 55.875 155.943 55.6615 156.578 55.2344C157.214 54.7969 157.531 54.0417 157.531 52.9688C157.531 51.8438 157.188 51.0469 156.5 50.5781C155.823 50.099 154.542 49.8594 152.656 49.8594H151.922V55.875ZM166.438 69V46.125H179.906V50.25H171.328V54.9531H179.906V59.1094H171.328V64.8438H179.906V69H166.438ZM183.25 66.0938L185.969 63.0156C186.312 63.8594 186.865 64.526 187.625 65.0156C188.385 65.4948 189.24 65.7344 190.188 65.7344C191.333 65.7344 192.24 65.4635 192.906 64.9219C193.573 64.3802 193.906 63.651 193.906 62.7344C193.906 61.651 192.797 60.5729 190.578 59.5C189.859 59.1562 189.292 58.875 188.875 58.6562C186.875 57.6146 185.49 56.599 184.719 55.6094C183.948 54.6094 183.562 53.4219 183.562 52.0469C183.562 50.1615 184.307 48.6146 185.797 47.4062C187.297 46.1875 189.24 45.5781 191.625 45.5781C193.01 45.5781 194.203 45.8229 195.203 46.3125C196.214 46.7917 197.104 47.5469 197.875 48.5781L194.984 51.3438C194.641 50.6771 194.182 50.1823 193.609 49.8594C193.047 49.526 192.365 49.3594 191.562 49.3594C190.594 49.3594 189.812 49.6042 189.219 50.0938C188.625 50.5729 188.328 51.1979 188.328 51.9688C188.328 53.1771 189.505 54.2812 191.859 55.2812C192.328 55.4792 192.688 55.6354 192.938 55.75C194.875 56.6354 196.307 57.6354 197.234 58.75C198.172 59.8646 198.641 61.1354 198.641 62.5625C198.641 64.7083 197.906 66.4219 196.438 67.7031C194.979 68.974 193.016 69.6094 190.547 69.6094C188.797 69.6094 187.297 69.3073 186.047 68.7031C184.797 68.099 183.865 67.2292 183.25 66.0938ZM214.5 60.2969L211.938 52.9062C211.865 52.6875 211.771 52.3125 211.656 51.7812C211.542 51.25 211.422 50.599 211.297 49.8281C211.161 50.5677 211.031 51.2344 210.906 51.8281C210.781 52.4115 210.688 52.8021 210.625 53L208.156 60.2969H214.5ZM199.938 69L208.641 46.125H214.234L223.062 69H217.5L215.641 64.1406H206.781L205.188 69H199.938ZM235.312 69V46.125H240.391L250.516 59.4375C250.807 59.8125 251.125 60.3438 251.469 61.0312C251.823 61.7083 252.188 62.5104 252.562 63.4375C252.448 62.7604 252.365 62.0885 252.312 61.4219C252.26 60.7552 252.234 59.9219 252.234 58.9219V46.125H256.906V69H252.109L241.703 55.4375C241.411 55.0625 241.094 54.5365 240.75 53.8594C240.406 53.1719 240.042 52.3542 239.656 51.4062C239.771 52.0625 239.854 52.7292 239.906 53.4062C239.958 54.0729 239.984 54.9167 239.984 55.9375V69H235.312ZM262 69V46.125H275.469V50.25H266.891V54.9531H275.469V59.1094H266.891V64.8438H275.469V69H262ZM298.703 52.0781C297.714 51.1927 296.698 50.5469 295.656 50.1406C294.615 49.724 293.5 49.5156 292.312 49.5156C289.875 49.5156 287.932 50.2448 286.484 51.7031C285.036 53.1615 284.312 55.1198 284.312 57.5781C284.312 59.9844 284.984 61.8958 286.328 63.3125C287.672 64.7188 289.505 65.4219 291.828 65.4219C293.151 65.4219 294.38 65.2031 295.516 64.7656C296.651 64.3177 297.703 63.651 298.672 62.7656L298.641 67.7812C297.599 68.3958 296.505 68.8542 295.359 69.1562C294.224 69.4583 293.026 69.6094 291.766 69.6094C288.12 69.6094 285.125 68.4792 282.781 66.2188C280.448 63.9479 279.281 61.0677 279.281 57.5781C279.281 54.099 280.453 51.2292 282.797 48.9688C285.141 46.7083 288.161 45.5781 291.859 45.5781C293.099 45.5781 294.297 45.7083 295.453 45.9688C296.609 46.2292 297.75 46.6302 298.875 47.1719L298.703 52.0781ZM303.25 69V46.125H316.719V50.25H308.141V54.9531H316.719V59.1094H308.141V64.8438H316.719V69H303.25ZM320.062 66.0938L322.781 63.0156C323.125 63.8594 323.677 64.526 324.438 65.0156C325.198 65.4948 326.052 65.7344 327 65.7344C328.146 65.7344 329.052 65.4635 329.719 64.9219C330.385 64.3802 330.719 63.651 330.719 62.7344C330.719 61.651 329.609 60.5729 327.391 59.5C326.672 59.1562 326.104 58.875 325.688 58.6562C323.688 57.6146 322.302 56.599 321.531 55.6094C320.76 54.6094 320.375 53.4219 320.375 52.0469C320.375 50.1615 321.12 48.6146 322.609 47.4062C324.109 46.1875 326.052 45.5781 328.438 45.5781C329.823 45.5781 331.016 45.8229 332.016 46.3125C333.026 46.7917 333.917 47.5469 334.688 48.5781L331.797 51.3438C331.453 50.6771 330.995 50.1823 330.422 49.8594C329.859 49.526 329.177 49.3594 328.375 49.3594C327.406 49.3594 326.625 49.6042 326.031 50.0938C325.438 50.5729 325.141 51.1979 325.141 51.9688C325.141 53.1771 326.318 54.2812 328.672 55.2812C329.141 55.4792 329.5 55.6354 329.75 55.75C331.688 56.6354 333.12 57.6354 334.047 58.75C334.984 59.8646 335.453 61.1354 335.453 62.5625C335.453 64.7083 334.719 66.4219 333.25 67.7031C331.792 68.974 329.828 69.6094 327.359 69.6094C325.609 69.6094 324.109 69.3073 322.859 68.7031C321.609 68.099 320.677 67.2292 320.062 66.0938ZM339.562 69V46.125H344.453V69H339.562ZM358.234 50.2812V69H353.328V50.2812H347.734V46.125H363.859V50.2812H358.234ZM377.125 60.2969L374.562 52.9062C374.49 52.6875 374.396 52.3125 374.281 51.7812C374.167 51.25 374.047 50.599 373.922 49.8281C373.786 50.5677 373.656 51.2344 373.531 51.8281C373.406 52.4115 373.312 52.8021 373.25 53L370.781 60.2969H377.125ZM362.562 69L371.266 46.125H376.859L385.688 69H380.125L378.266 64.1406H369.406L367.812 69H362.562Z" fill="white"/>
<path d="M27 132H15C10.5817 132 7 128.418 7 124V66V20" stroke="white" stroke-width="1.5"/>
<circle cx="7" cy="14" r="6.25" stroke="white" stroke-width="1.5"/>
<rect x="25" y="108" width="274" height="65" rx="10" fill="#002A61"/>
<path d="M56.802 132.96L55.218 128.442L53.634 132.96H56.802ZM57.738 135.642H52.698L51.888 138H48.126L53.292 124.428H57.144L62.31 138H58.548L57.738 135.642ZM66.5189 133.356C66.5189 133.656 66.5729 133.938 66.6809 134.202C66.7889 134.454 66.9329 134.676 67.1129 134.868C67.3049 135.06 67.5269 135.21 67.7789 135.318C68.0429 135.426 68.3249 135.48 68.6249 135.48C68.9129 135.48 69.1829 135.426 69.4349 135.318C69.6989 135.21 69.9209 135.06 70.1009 134.868C70.2929 134.676 70.4429 134.454 70.5509 134.202C70.6709 133.95 70.7309 133.68 70.7309 133.392C70.7309 133.104 70.6709 132.834 70.5509 132.582C70.4429 132.318 70.2929 132.09 70.1009 131.898C69.9209 131.706 69.6989 131.556 69.4349 131.448C69.1829 131.34 68.9129 131.286 68.6249 131.286C68.3369 131.286 68.0609 131.34 67.7969 131.448C67.5449 131.556 67.3229 131.706 67.1309 131.898C66.9509 132.09 66.8009 132.312 66.6809 132.564C66.5729 132.804 66.5189 133.068 66.5189 133.356ZM70.6229 123.06H73.8989V138H70.6229V136.974C69.9269 137.85 68.9849 138.288 67.7969 138.288C67.1249 138.288 66.5069 138.162 65.9429 137.91C65.3789 137.658 64.8869 137.31 64.4669 136.866C64.0469 136.422 63.7169 135.9 63.4769 135.3C63.2489 134.7 63.1349 134.052 63.1349 133.356C63.1349 132.696 63.2429 132.072 63.4589 131.484C63.6869 130.884 64.0049 130.362 64.4129 129.918C64.8209 129.474 65.3069 129.126 65.8709 128.874C66.4469 128.61 67.0769 128.478 67.7609 128.478C68.9129 128.478 69.8669 128.88 70.6229 129.684V123.06ZM76.116 128.766H79.374V129.9C80.262 129.048 81.258 128.622 82.362 128.622C83.73 128.622 84.774 129.198 85.494 130.35C86.226 129.186 87.27 128.604 88.626 128.604C89.058 128.604 89.466 128.67 89.85 128.802C90.234 128.922 90.564 129.12 90.84 129.396C91.116 129.66 91.332 130.008 91.488 130.44C91.656 130.872 91.74 131.394 91.74 132.006V138H88.482V133.446C88.482 132.978 88.446 132.594 88.374 132.294C88.314 131.994 88.218 131.76 88.086 131.592C87.966 131.424 87.822 131.31 87.654 131.25C87.486 131.19 87.306 131.16 87.114 131.16C86.07 131.16 85.548 131.922 85.548 133.446V138H82.29V133.446C82.29 132.978 82.26 132.594 82.2 132.294C82.14 131.982 82.05 131.736 81.93 131.556C81.822 131.376 81.678 131.256 81.498 131.196C81.318 131.124 81.108 131.088 80.868 131.088C80.664 131.088 80.472 131.118 80.292 131.178C80.112 131.238 79.95 131.358 79.806 131.538C79.674 131.706 79.566 131.946 79.482 132.258C79.41 132.558 79.374 132.954 79.374 133.446V138H76.116V128.766ZM97.2334 128.766V138H93.9754V128.766H97.2334ZM93.7594 125.22C93.7594 124.968 93.8074 124.734 93.9034 124.518C93.9994 124.29 94.1314 124.092 94.2994 123.924C94.4674 123.756 94.6594 123.624 94.8754 123.528C95.1034 123.432 95.3434 123.384 95.5954 123.384C95.8474 123.384 96.0814 123.432 96.2974 123.528C96.5254 123.624 96.7234 123.756 96.8914 123.924C97.0594 124.092 97.1914 124.29 97.2874 124.518C97.3834 124.734 97.4314 124.968 97.4314 125.22C97.4314 125.472 97.3834 125.712 97.2874 125.94C97.1914 126.156 97.0594 126.348 96.8914 126.516C96.7234 126.684 96.5254 126.816 96.2974 126.912C96.0814 127.008 95.8474 127.056 95.5954 127.056C95.3434 127.056 95.1034 127.008 94.8754 126.912C94.6594 126.816 94.4674 126.684 94.2994 126.516C94.1314 126.348 93.9994 126.156 93.9034 125.94C93.8074 125.712 93.7594 125.472 93.7594 125.22ZM99.4598 128.766H102.718V129.936C103.162 129.396 103.612 129.036 104.068 128.856C104.524 128.664 105.058 128.568 105.67 128.568C106.318 128.568 106.87 128.676 107.326 128.892C107.794 129.096 108.19 129.39 108.514 129.774C108.778 130.086 108.958 130.434 109.054 130.818C109.15 131.202 109.198 131.64 109.198 132.132V138H105.94V133.338C105.94 132.882 105.904 132.516 105.832 132.24C105.772 131.952 105.658 131.724 105.49 131.556C105.346 131.412 105.184 131.31 105.004 131.25C104.824 131.19 104.632 131.16 104.428 131.16C103.876 131.16 103.45 131.328 103.15 131.664C102.862 131.988 102.718 132.456 102.718 133.068V138H99.4598V128.766ZM114.671 128.766V138H111.413V128.766H114.671ZM111.197 125.22C111.197 124.968 111.245 124.734 111.341 124.518C111.437 124.29 111.569 124.092 111.737 123.924C111.905 123.756 112.097 123.624 112.313 123.528C112.541 123.432 112.781 123.384 113.033 123.384C113.285 123.384 113.519 123.432 113.735 123.528C113.963 123.624 114.161 123.756 114.329 123.924C114.497 124.092 114.629 124.29 114.725 124.518C114.821 124.734 114.869 124.968 114.869 125.22C114.869 125.472 114.821 125.712 114.725 125.94C114.629 126.156 114.497 126.348 114.329 126.516C114.161 126.684 113.963 126.816 113.735 126.912C113.519 127.008 113.285 127.056 113.033 127.056C112.781 127.056 112.541 127.008 112.313 126.912C112.097 126.816 111.905 126.684 111.737 126.516C111.569 126.348 111.437 126.156 111.341 125.94C111.245 125.712 111.197 125.472 111.197 125.22ZM123.017 131.142C122.417 130.83 121.829 130.674 121.253 130.674C120.953 130.674 120.707 130.734 120.515 130.854C120.335 130.974 120.245 131.136 120.245 131.34C120.245 131.448 120.257 131.538 120.281 131.61C120.317 131.67 120.383 131.73 120.479 131.79C120.587 131.85 120.737 131.904 120.929 131.952C121.133 132 121.397 132.06 121.721 132.132C122.621 132.312 123.293 132.636 123.737 133.104C124.181 133.56 124.403 134.148 124.403 134.868C124.403 135.408 124.295 135.894 124.079 136.326C123.863 136.758 123.563 137.124 123.179 137.424C122.795 137.712 122.333 137.934 121.793 138.09C121.253 138.258 120.659 138.342 120.011 138.342C118.763 138.342 117.533 137.988 116.321 137.28L117.509 134.976C118.421 135.6 119.285 135.912 120.101 135.912C120.401 135.912 120.647 135.846 120.839 135.714C121.031 135.582 121.127 135.414 121.127 135.21C121.127 135.09 121.109 134.994 121.073 134.922C121.049 134.838 120.989 134.766 120.893 134.706C120.797 134.634 120.653 134.574 120.461 134.526C120.281 134.466 120.041 134.406 119.741 134.346C118.733 134.142 118.025 133.842 117.617 133.446C117.221 133.038 117.023 132.48 117.023 131.772C117.023 131.256 117.119 130.794 117.311 130.386C117.503 129.966 117.779 129.612 118.139 129.324C118.499 129.036 118.931 128.814 119.435 128.658C119.951 128.502 120.521 128.424 121.145 128.424C122.165 128.424 123.155 128.622 124.115 129.018L123.017 131.142ZM129.938 131.484V138H126.68V131.484H125.6V128.766H126.68V125.994H129.938V128.766H131.792V131.484H129.938ZM133.016 128.766H136.274V130.278C136.622 129.726 137.048 129.306 137.552 129.018C138.056 128.718 138.644 128.568 139.316 128.568C139.4 128.568 139.49 128.568 139.586 128.568C139.694 128.568 139.814 128.58 139.946 128.604V131.718C139.514 131.502 139.046 131.394 138.542 131.394C137.786 131.394 137.216 131.622 136.832 132.078C136.46 132.522 136.274 133.176 136.274 134.04V138H133.016V128.766ZM144.531 133.356C144.531 133.656 144.585 133.938 144.693 134.202C144.801 134.454 144.945 134.676 145.125 134.868C145.317 135.06 145.539 135.21 145.791 135.318C146.055 135.426 146.337 135.48 146.637 135.48C146.925 135.48 147.195 135.426 147.447 135.318C147.711 135.21 147.933 135.06 148.113 134.868C148.305 134.676 148.455 134.454 148.563 134.202C148.683 133.95 148.743 133.68 148.743 133.392C148.743 133.104 148.683 132.834 148.563 132.582C148.455 132.318 148.305 132.09 148.113 131.898C147.933 131.706 147.711 131.556 147.447 131.448C147.195 131.34 146.925 131.286 146.637 131.286C146.337 131.286 146.055 131.34 145.791 131.448C145.539 131.556 145.317 131.706 145.125 131.898C144.945 132.09 144.801 132.312 144.693 132.564C144.585 132.804 144.531 133.068 144.531 133.356ZM148.635 128.766H151.911V138H148.635V136.974C147.939 137.85 146.997 138.288 145.809 138.288C145.137 138.288 144.519 138.168 143.955 137.928C143.391 137.676 142.899 137.328 142.479 136.884C142.059 136.44 141.729 135.918 141.489 135.318C141.261 134.718 141.147 134.064 141.147 133.356C141.147 132.696 141.261 132.072 141.489 131.484C141.717 130.884 142.035 130.362 142.443 129.918C142.851 129.474 143.337 129.126 143.901 128.874C144.465 128.61 145.089 128.478 145.773 128.478C146.925 128.478 147.879 128.88 148.635 129.684V128.766ZM161.429 130.872H162.941V129.54H161.429V126.498H159.989V129.54H159.107V130.872H159.989V138H161.429V130.872ZM165.573 129.54H164.133V134.418C164.133 136.668 164.979 138.234 167.481 138.234C169.983 138.234 170.829 136.668 170.829 134.418V129.54H169.389V134.256C169.389 135.678 169.227 136.902 167.481 136.902C165.735 136.902 165.573 135.678 165.573 134.256V129.54ZM178.078 130.872C177.7 129.99 176.8 129.306 175.828 129.306C174.46 129.306 173.308 130.278 173.308 131.7C173.308 134.364 177.124 133.716 177.124 135.606C177.124 136.38 176.53 136.902 175.756 136.902C174.802 136.902 174.388 136.344 174.028 135.552L172.75 136.092C173.2 137.424 174.316 138.234 175.738 138.234C177.304 138.234 178.6 137.082 178.6 135.48C178.6 134.058 177.628 133.464 176.638 133.05C175.648 132.636 174.676 132.348 174.676 131.574C174.676 131.034 175.216 130.638 175.72 130.638C176.242 130.638 176.674 131.052 176.872 131.502L178.078 130.872ZM187.547 129.54H186.107V138H187.547V133.77C187.547 132.672 187.619 130.638 189.203 130.638C189.581 130.638 189.779 130.818 190.067 131.016L190.751 129.702C190.337 129.468 189.941 129.306 189.455 129.306C188.519 129.306 188.087 129.792 187.583 130.458H187.547V129.54ZM199.57 134.076C199.714 131.556 198.274 129.306 195.556 129.306C192.91 129.306 191.452 131.376 191.452 133.878C191.452 136.308 193.072 138.234 195.592 138.234C197.32 138.234 198.688 137.37 199.498 135.858L198.274 135.156C197.716 136.164 196.924 136.902 195.7 136.902C194.062 136.902 192.946 135.642 192.928 134.076H199.57ZM193 132.852C193.18 131.628 194.332 130.638 195.574 130.638C196.834 130.638 197.86 131.628 198.058 132.852H193ZM207.824 130.152C207.068 129.612 206.132 129.306 205.214 129.306C202.73 129.306 200.696 131.25 200.696 133.77C200.696 136.326 202.64 138.234 205.196 138.234C206.204 138.234 207.05 137.928 207.878 137.37V135.444H207.842C207.14 136.362 206.294 136.902 205.088 136.902C203.324 136.902 202.172 135.444 202.172 133.77C202.172 132.078 203.414 130.638 205.16 130.638C206.294 130.638 207.122 131.214 207.788 132.06H207.824V130.152ZM211.434 129.54H209.994V134.418C209.994 136.668 210.84 138.234 213.342 138.234C215.844 138.234 216.69 136.668 216.69 134.418V129.54H215.25V134.256C215.25 135.678 215.088 136.902 213.342 136.902C211.596 136.902 211.434 135.678 211.434 134.256V129.54ZM220.681 129.54H219.241V138H220.681V133.77C220.681 132.672 220.753 130.638 222.337 130.638C222.715 130.638 222.913 130.818 223.201 131.016L223.885 129.702C223.471 129.468 223.075 129.306 222.589 129.306C221.653 129.306 221.221 129.792 220.717 130.458H220.681V129.54ZM229.969 130.872C229.591 129.99 228.691 129.306 227.719 129.306C226.351 129.306 225.199 130.278 225.199 131.7C225.199 134.364 229.015 133.716 229.015 135.606C229.015 136.38 228.421 136.902 227.647 136.902C226.693 136.902 226.279 136.344 225.919 135.552L224.641 136.092C225.091 137.424 226.207 138.234 227.629 138.234C229.195 138.234 230.491 137.082 230.491 135.48C230.491 134.058 229.519 133.464 228.529 133.05C227.539 132.636 226.567 132.348 226.567 131.574C226.567 131.034 227.107 130.638 227.611 130.638C228.133 130.638 228.565 131.052 228.763 131.502L229.969 130.872ZM236.222 138.234C238.688 138.234 240.668 136.272 240.668 133.788C240.668 131.304 238.706 129.306 236.222 129.306C233.738 129.306 231.776 131.304 231.776 133.788C231.776 136.272 233.756 138.234 236.222 138.234ZM236.222 130.638C238.004 130.638 239.228 132.06 239.228 133.77C239.228 135.498 238.004 136.902 236.222 136.902C234.44 136.902 233.216 135.498 233.216 133.77C233.216 132.06 234.44 130.638 236.222 130.638ZM247.265 130.872C246.887 129.99 245.987 129.306 245.015 129.306C243.647 129.306 242.495 130.278 242.495 131.7C242.495 134.364 246.311 133.716 246.311 135.606C246.311 136.38 245.717 136.902 244.943 136.902C243.989 136.902 243.575 136.344 243.215 135.552L241.937 136.092C242.387 137.424 243.503 138.234 244.925 138.234C246.491 138.234 247.787 137.082 247.787 135.48C247.787 134.058 246.815 133.464 245.825 133.05C244.835 132.636 243.863 132.348 243.863 131.574C243.863 131.034 244.403 130.638 244.907 130.638C245.429 130.638 245.861 131.052 246.059 131.502L247.265 130.872ZM52.878 150.638C54.66 150.638 55.722 152.006 55.722 153.698C55.722 155.408 54.75 156.902 52.896 156.902C51.096 156.902 50.124 155.336 50.124 153.68C50.124 152.096 51.204 150.638 52.878 150.638ZM55.65 158H57.09V143.15H55.65V150.746H55.614C54.93 149.846 53.85 149.306 52.716 149.306C50.178 149.306 48.648 151.376 48.648 153.788C48.648 156.128 50.214 158.234 52.698 158.234C53.85 158.234 54.912 157.748 55.614 156.83H55.65V158ZM67.1187 154.076C67.2627 151.556 65.8227 149.306 63.1047 149.306C60.4587 149.306 59.0007 151.376 59.0007 153.878C59.0007 156.308 60.6207 158.234 63.1407 158.234C64.8687 158.234 66.2367 157.37 67.0467 155.858L65.8227 155.156C65.2647 156.164 64.4727 156.902 63.2487 156.902C61.6107 156.902 60.4947 155.642 60.4767 154.076H67.1187ZM60.5487 152.852C60.7287 151.628 61.8807 150.638 63.1227 150.638C64.3827 150.638 65.4087 151.628 65.6067 152.852H60.5487ZM76.0678 149.54H74.6278V158H76.0678V153.626C76.0678 152.348 76.2478 150.638 77.9398 150.638C79.3258 150.638 79.4518 152.15 79.4518 153.194V158H80.8918V153.518C80.8918 152.24 81.0718 150.638 82.7278 150.638C84.2038 150.638 84.2758 151.988 84.2758 153.086V158H85.7158V152.852C85.7158 151.07 85.1758 149.306 83.0158 149.306C81.9898 149.306 80.9818 149.774 80.4778 150.71C80.0278 149.828 79.1278 149.306 78.1378 149.306C77.2738 149.306 76.5538 149.756 76.1038 150.458H76.0678V149.54ZM91.9542 150.638C93.7362 150.638 94.7982 152.006 94.7982 153.698C94.7982 155.408 93.8262 156.902 91.9722 156.902C90.1722 156.902 89.2002 155.336 89.2002 153.68C89.2002 152.096 90.2802 150.638 91.9542 150.638ZM96.1662 149.54H94.7262V150.746H94.6902C93.9882 149.846 92.9442 149.306 91.7922 149.306C89.2542 149.306 87.7242 151.376 87.7242 153.788C87.7242 156.128 89.2902 158.234 91.7742 158.234C92.9622 158.234 93.9522 157.766 94.6902 156.83H94.7262V158H96.1662V149.54ZM100.273 149.54H98.8328V158H100.273V153.986C100.273 152.474 100.399 150.638 102.379 150.638C104.053 150.638 104.161 151.862 104.161 153.23V158H105.601V152.978C105.601 150.998 105.061 149.306 102.721 149.306C101.677 149.306 100.903 149.756 100.309 150.566H100.273V149.54ZM115.705 154.076C115.849 151.556 114.409 149.306 111.691 149.306C109.045 149.306 107.587 151.376 107.587 153.878C107.587 156.308 109.207 158.234 111.727 158.234C113.455 158.234 114.823 157.37 115.633 155.858L114.409 155.156C113.851 156.164 113.059 156.902 111.835 156.902C110.197 156.902 109.081 155.642 109.063 154.076H115.705ZM109.135 152.852C109.315 151.628 110.467 150.638 111.709 150.638C112.969 150.638 113.995 151.628 114.193 152.852H109.135ZM119.045 149.54H117.605V158H119.045V153.77C119.045 152.672 119.117 150.638 120.701 150.638C121.079 150.638 121.277 150.818 121.565 151.016L122.249 149.702C121.835 149.468 121.439 149.306 120.953 149.306C120.017 149.306 119.585 149.792 119.081 150.458H119.045V149.54ZM127.216 150.638C128.998 150.638 130.06 152.006 130.06 153.698C130.06 155.408 129.088 156.902 127.234 156.902C125.434 156.902 124.462 155.336 124.462 153.68C124.462 152.096 125.542 150.638 127.216 150.638ZM131.428 149.54H129.988V150.746H129.952C129.25 149.846 128.206 149.306 127.054 149.306C124.516 149.306 122.986 151.376 122.986 153.788C122.986 156.128 124.552 158.234 127.036 158.234C128.224 158.234 129.214 157.766 129.952 156.83H129.988V158H131.428V149.54ZM146.13 152.042C146.022 151.586 145.8 151.22 145.464 150.944C145.128 150.668 144.72 150.53 144.24 150.53C143.736 150.53 143.322 150.662 142.998 150.926C142.686 151.19 142.488 151.562 142.404 152.042H146.13ZM142.314 153.932C142.314 155.336 142.974 156.038 144.294 156.038C145.002 156.038 145.536 155.75 145.896 155.174H149.046C148.41 157.286 146.82 158.342 144.276 158.342C143.496 158.342 142.782 158.228 142.134 158C141.486 157.76 140.928 157.424 140.46 156.992C140.004 156.56 139.65 156.044 139.398 155.444C139.146 154.844 139.02 154.172 139.02 153.428C139.02 152.66 139.14 151.97 139.38 151.358C139.62 150.734 139.962 150.206 140.406 149.774C140.85 149.342 141.384 149.012 142.008 148.784C142.644 148.544 143.358 148.424 144.15 148.424C144.93 148.424 145.632 148.544 146.256 148.784C146.88 149.012 147.408 149.348 147.84 149.792C148.272 150.236 148.602 150.782 148.83 151.43C149.058 152.066 149.172 152.786 149.172 153.59V153.932H142.314ZM151.304 148.766V147.056C151.304 146.456 151.43 145.892 151.682 145.364C151.946 144.824 152.294 144.356 152.726 143.96C153.17 143.564 153.68 143.252 154.256 143.024C154.844 142.784 155.462 142.664 156.11 142.664C156.758 142.664 157.37 142.778 157.946 143.006C158.534 143.234 159.044 143.546 159.476 143.942C159.92 144.338 160.268 144.806 160.52 145.346C160.784 145.874 160.916 146.444 160.916 147.056V147.47H157.658V147.056C157.658 146.84 157.616 146.636 157.532 146.444C157.46 146.24 157.352 146.06 157.208 145.904C157.076 145.748 156.914 145.622 156.722 145.526C156.542 145.43 156.338 145.382 156.11 145.382C155.666 145.382 155.294 145.55 154.994 145.886C154.706 146.222 154.562 146.612 154.562 147.056V148.766H156.434V151.484H154.562V158H151.304V151.484H150.134V148.766H151.304ZM160.916 158H157.658V148.766H160.916V158ZM170.111 151.754C169.547 151.37 168.977 151.178 168.401 151.178C168.089 151.178 167.795 151.232 167.519 151.34C167.255 151.448 167.021 151.604 166.817 151.808C166.613 152 166.451 152.234 166.331 152.51C166.223 152.774 166.169 153.074 166.169 153.41C166.169 153.734 166.223 154.034 166.331 154.31C166.451 154.574 166.607 154.808 166.799 155.012C167.003 155.204 167.243 155.354 167.519 155.462C167.795 155.57 168.089 155.624 168.401 155.624C169.013 155.624 169.583 155.414 170.111 154.994V157.766C169.307 158.114 168.545 158.288 167.825 158.288C167.153 158.288 166.511 158.174 165.899 157.946C165.299 157.718 164.765 157.394 164.297 156.974C163.841 156.542 163.475 156.032 163.199 155.444C162.923 154.844 162.785 154.178 162.785 153.446C162.785 152.714 162.917 152.048 163.181 151.448C163.445 150.836 163.805 150.314 164.261 149.882C164.717 149.438 165.257 149.096 165.881 148.856C166.517 148.604 167.195 148.478 167.915 148.478C168.707 148.478 169.439 148.646 170.111 148.982V151.754ZM175.228 148.766V158H171.97V148.766H175.228ZM171.754 145.22C171.754 144.968 171.802 144.734 171.898 144.518C171.994 144.29 172.126 144.092 172.294 143.924C172.462 143.756 172.654 143.624 172.87 143.528C173.098 143.432 173.338 143.384 173.59 143.384C173.842 143.384 174.076 143.432 174.292 143.528C174.52 143.624 174.718 143.756 174.886 143.924C175.054 144.092 175.186 144.29 175.282 144.518C175.378 144.734 175.426 144.968 175.426 145.22C175.426 145.472 175.378 145.712 175.282 145.94C175.186 146.156 175.054 146.348 174.886 146.516C174.718 146.684 174.52 146.816 174.292 146.912C174.076 147.008 173.842 147.056 173.59 147.056C173.338 147.056 173.098 147.008 172.87 146.912C172.654 146.816 172.462 146.684 172.294 146.516C172.126 146.348 171.994 146.156 171.898 145.94C171.802 145.712 171.754 145.472 171.754 145.22ZM184.204 152.042C184.096 151.586 183.874 151.22 183.538 150.944C183.202 150.668 182.794 150.53 182.314 150.53C181.81 150.53 181.396 150.662 181.072 150.926C180.76 151.19 180.562 151.562 180.478 152.042H184.204ZM180.388 153.932C180.388 155.336 181.048 156.038 182.368 156.038C183.076 156.038 183.61 155.75 183.97 155.174H187.12C186.484 157.286 184.894 158.342 182.35 158.342C181.57 158.342 180.856 158.228 180.208 158C179.56 157.76 179.002 157.424 178.534 156.992C178.078 156.56 177.724 156.044 177.472 155.444C177.22 154.844 177.094 154.172 177.094 153.428C177.094 152.66 177.214 151.97 177.454 151.358C177.694 150.734 178.036 150.206 178.48 149.774C178.924 149.342 179.458 149.012 180.082 148.784C180.718 148.544 181.432 148.424 182.224 148.424C183.004 148.424 183.706 148.544 184.33 148.784C184.954 149.012 185.482 149.348 185.914 149.792C186.346 150.236 186.676 150.782 186.904 151.43C187.132 152.066 187.246 152.786 187.246 153.59V153.932H180.388ZM189.108 148.766H192.366V149.936C192.81 149.396 193.26 149.036 193.716 148.856C194.172 148.664 194.706 148.568 195.318 148.568C195.966 148.568 196.518 148.676 196.974 148.892C197.442 149.096 197.838 149.39 198.162 149.774C198.426 150.086 198.606 150.434 198.702 150.818C198.798 151.202 198.846 151.64 198.846 152.132V158H195.588V153.338C195.588 152.882 195.552 152.516 195.48 152.24C195.42 151.952 195.306 151.724 195.138 151.556C194.994 151.412 194.832 151.31 194.652 151.25C194.472 151.19 194.28 151.16 194.076 151.16C193.524 151.16 193.098 151.328 192.798 151.664C192.51 151.988 192.366 152.456 192.366 153.068V158H189.108V148.766ZM204.697 151.484V158H201.439V151.484H200.359V148.766H201.439V145.994H204.697V148.766H206.551V151.484H204.697ZM214.702 152.042C214.594 151.586 214.372 151.22 214.036 150.944C213.7 150.668 213.292 150.53 212.812 150.53C212.308 150.53 211.894 150.662 211.57 150.926C211.258 151.19 211.06 151.562 210.976 152.042H214.702ZM210.886 153.932C210.886 155.336 211.546 156.038 212.866 156.038C213.574 156.038 214.108 155.75 214.468 155.174H217.618C216.982 157.286 215.392 158.342 212.848 158.342C212.068 158.342 211.354 158.228 210.706 158C210.058 157.76 209.5 157.424 209.032 156.992C208.576 156.56 208.222 156.044 207.97 155.444C207.718 154.844 207.592 154.172 207.592 153.428C207.592 152.66 207.712 151.97 207.952 151.358C208.192 150.734 208.534 150.206 208.978 149.774C209.422 149.342 209.956 149.012 210.58 148.784C211.216 148.544 211.93 148.424 212.722 148.424C213.502 148.424 214.204 148.544 214.828 148.784C215.452 149.012 215.98 149.348 216.412 149.792C216.844 150.236 217.174 150.782 217.402 151.43C217.63 152.066 217.744 152.786 217.744 153.59V153.932H210.886Z" fill="white"/>
</svg>
