<svg width="550" height="253" viewBox="0 0 550 253" fill="none" xmlns="http://www.w3.org/2000/svg">
<path d="M26.744 190H14.686C10.2678 190 6.68604 186.418 6.68604 182V21" stroke="white" stroke-width="1.5"/>
<path d="M12.622 14.0784C12.622 17.6144 9.92461 20.4068 6.68598 20.4068C3.44736 20.4068 0.75 17.6144 0.75 14.0784C0.75 10.5424 3.44736 7.75 6.68598 7.75C9.92461 7.75 12.622 10.5424 12.622 14.0784Z" stroke="white" stroke-width="1.5"/>
<path d="M46.7725 197.192H50.2617L48.9521 192.947C48.9229 192.871 48.8672 192.66 48.7852 192.314C48.6855 191.91 48.5947 191.544 48.5127 191.216C48.4307 191.515 48.3604 191.816 48.3018 192.121C48.208 192.414 48.1289 192.689 48.0645 192.947L46.7725 197.192ZM41.8594 202L46.2979 189.133H50.6924L55.1396 202H51.6504L51 199.697H46.0166L45.3486 202H41.8594ZM56.0889 190.354C56.0889 189.868 56.2559 189.467 56.5898 189.15C56.9297 188.811 57.3369 188.641 57.8115 188.641C58.2979 188.641 58.7139 188.805 59.0596 189.133C59.3818 189.455 59.543 189.862 59.543 190.354C59.543 190.847 59.373 191.263 59.0332 191.603C58.6992 191.937 58.292 192.104 57.8115 192.104C57.3486 192.104 56.9414 191.928 56.5898 191.576C56.2559 191.242 56.0889 190.835 56.0889 190.354ZM56.2471 205.92V193.123H59.3848V205.92H56.2471ZM70.8896 193.123V197.658C70.8896 198.672 70.8135 199.41 70.6611 199.873C70.4971 200.354 70.2217 200.787 69.835 201.174C69.4658 201.561 68.9795 201.854 68.376 202.053C67.8018 202.246 67.1104 202.343 66.3018 202.343C65.499 202.343 64.8164 202.246 64.2539 202.053C63.6738 201.865 63.1758 201.572 62.7598 201.174C62.3789 200.811 62.1094 200.383 61.9512 199.891C61.793 199.434 61.7139 198.689 61.7139 197.658V193.123H64.7021V197.86C64.7021 198.604 64.8281 199.138 65.0801 199.46C65.3086 199.8 65.7041 199.97 66.2666 199.97C66.8232 199.97 67.2217 199.806 67.4619 199.478C67.708 199.149 67.8311 198.61 67.8311 197.86V193.123H70.8896ZM72.3135 201.262L72.9639 198.871C73.4209 199.275 73.9248 199.58 74.4756 199.785C75.0205 200.002 75.5713 200.11 76.1279 200.11C76.5264 200.11 76.8252 200.043 77.0244 199.908C77.2295 199.785 77.332 199.606 77.332 199.372C77.332 198.979 76.9189 198.687 76.0928 198.493C75.8057 198.429 75.5889 198.373 75.4424 198.326C74.4873 198.045 73.8105 197.702 73.4121 197.298C72.9785 196.882 72.7617 196.343 72.7617 195.681C72.7617 194.825 73.0869 194.137 73.7373 193.615C74.3643 193.1 75.2402 192.842 76.3652 192.842C76.9102 192.842 77.4902 192.906 78.1055 193.035C78.6211 193.141 79.2217 193.346 79.9072 193.65L79.2568 195.804C78.835 195.517 78.4102 195.303 77.9824 195.162C77.5781 195.016 77.1533 194.942 76.708 194.942C76.3447 194.942 76.0723 194.998 75.8906 195.109C75.7148 195.215 75.627 195.376 75.627 195.593C75.627 195.897 76.04 196.161 76.8662 196.384C77.1357 196.466 77.2734 196.507 77.2793 196.507C78.3574 196.812 79.1133 197.172 79.5469 197.588C79.9688 198.027 80.1797 198.599 80.1797 199.302C80.1797 200.21 79.8311 200.942 79.1338 201.499C78.4189 202.062 77.4961 202.343 76.3652 202.343C75.5801 202.343 74.8564 202.252 74.1943 202.07C73.5381 201.895 72.9111 201.625 72.3135 201.262ZM82.3594 202L82.3418 195.338H81.0146V193.123H82.3418V190.478H85.4443V193.123H86.7539V195.338H85.4443V202H82.3594ZM94.9893 197.553C94.9893 196.85 94.8047 196.305 94.4355 195.918C94.0605 195.508 93.5566 195.303 92.9238 195.303C92.291 195.303 91.793 195.502 91.4297 195.9C91.0547 196.311 90.8672 196.861 90.8672 197.553C90.8672 198.25 91.0547 198.798 91.4297 199.196C91.7871 199.589 92.2852 199.785 92.9238 199.785C93.5566 199.785 94.0576 199.589 94.4268 199.196C94.8018 198.804 94.9893 198.256 94.9893 197.553ZM97.7402 193.123V202H94.8662V200.559C94.4502 201.174 93.9844 201.625 93.4688 201.912C92.959 202.199 92.3613 202.343 91.6758 202.343C90.4863 202.343 89.54 201.909 88.8369 201.042C88.4912 200.614 88.2275 200.11 88.0459 199.53C87.8643 198.95 87.7734 198.297 87.7734 197.57C87.7734 196.117 88.1455 194.966 88.8896 194.116C89.6338 193.267 90.6299 192.842 91.8779 192.842C92.5459 192.842 93.1201 192.985 93.6006 193.272C94.0869 193.548 94.5029 193.984 94.8486 194.582V193.123H97.7402ZM111.838 202V197.157C111.838 196.396 111.75 195.868 111.574 195.575C111.375 195.276 111.044 195.127 110.581 195.127C109.989 195.127 109.582 195.329 109.359 195.733C109.131 196.132 109.017 196.967 109.017 198.238V202H105.993V197.157C105.993 196.366 105.896 195.833 105.703 195.558C105.527 195.271 105.202 195.127 104.728 195.127C104.136 195.127 103.723 195.323 103.488 195.716C103.26 196.114 103.146 196.955 103.146 198.238V202H100.104V193.123H103.181V194.67C103.556 194.049 103.983 193.589 104.464 193.29C104.933 192.991 105.501 192.842 106.169 192.842C106.89 192.842 107.484 192.979 107.953 193.255C108.398 193.536 108.724 193.955 108.929 194.512C109.286 193.932 109.711 193.513 110.203 193.255C110.689 192.979 111.272 192.842 111.952 192.842C112.485 192.842 112.951 192.93 113.35 193.105C113.76 193.299 114.097 193.568 114.36 193.914C114.583 194.189 114.738 194.515 114.826 194.89C114.914 195.235 114.958 195.848 114.958 196.727V196.92V202H111.838ZM123.475 197.588C123.475 196.926 123.308 196.404 122.974 196.023C122.628 195.643 122.177 195.452 121.62 195.452C121.046 195.452 120.595 195.643 120.267 196.023C119.933 196.393 119.766 196.914 119.766 197.588C119.766 198.244 119.927 198.76 120.249 199.135C120.601 199.521 121.058 199.715 121.62 199.715C122.183 199.715 122.64 199.521 122.991 199.135C123.313 198.748 123.475 198.232 123.475 197.588ZM126.586 197.588C126.586 198.238 126.46 198.845 126.208 199.407C125.944 200.005 125.584 200.521 125.127 200.954C124.611 201.435 124.078 201.783 123.527 202C122.953 202.229 122.317 202.343 121.62 202.343C120.917 202.343 120.281 202.229 119.713 202C119.133 201.771 118.597 201.426 118.104 200.963C117.618 200.494 117.267 199.976 117.05 199.407C116.798 198.862 116.672 198.256 116.672 197.588C116.672 196.938 116.798 196.325 117.05 195.751C117.284 195.171 117.639 194.655 118.113 194.204C118.576 193.759 119.109 193.416 119.713 193.176C120.287 192.953 120.923 192.842 121.62 192.842C122.312 192.842 122.947 192.953 123.527 193.176C124.131 193.416 124.664 193.759 125.127 194.204C125.613 194.644 125.974 195.159 126.208 195.751C126.46 196.325 126.586 196.938 126.586 197.588ZM127.562 201.262L128.212 198.871C128.669 199.275 129.173 199.58 129.724 199.785C130.269 200.002 130.819 200.11 131.376 200.11C131.774 200.11 132.073 200.043 132.272 199.908C132.478 199.785 132.58 199.606 132.58 199.372C132.58 198.979 132.167 198.687 131.341 198.493C131.054 198.429 130.837 198.373 130.69 198.326C129.735 198.045 129.059 197.702 128.66 197.298C128.227 196.882 128.01 196.343 128.01 195.681C128.01 194.825 128.335 194.137 128.985 193.615C129.612 193.1 130.488 192.842 131.613 192.842C132.158 192.842 132.738 192.906 133.354 193.035C133.869 193.141 134.47 193.346 135.155 193.65L134.505 195.804C134.083 195.517 133.658 195.303 133.23 195.162C132.826 195.016 132.401 194.942 131.956 194.942C131.593 194.942 131.32 194.998 131.139 195.109C130.963 195.215 130.875 195.376 130.875 195.593C130.875 195.897 131.288 196.161 132.114 196.384C132.384 196.466 132.521 196.507 132.527 196.507C133.605 196.812 134.361 197.172 134.795 197.588C135.217 198.027 135.428 198.599 135.428 199.302C135.428 200.21 135.079 200.942 134.382 201.499C133.667 202.062 132.744 202.343 131.613 202.343C130.828 202.343 130.104 202.252 129.442 202.07C128.786 201.895 128.159 201.625 127.562 201.262ZM148.866 196.419C148.813 195.927 148.623 195.525 148.295 195.215C147.967 194.904 147.565 194.749 147.091 194.749C146.593 194.749 146.188 194.887 145.878 195.162C145.556 195.473 145.354 195.892 145.271 196.419H148.866ZM151.951 198.186H145.201C145.219 198.877 145.392 199.404 145.72 199.768C146.06 200.143 146.552 200.33 147.196 200.33C147.665 200.33 148.066 200.239 148.4 200.058C148.74 199.864 148.986 199.601 149.139 199.267L151.494 200.216C151.219 200.89 150.721 201.411 150 201.78C149.285 202.155 148.409 202.343 147.372 202.343C145.825 202.343 144.583 201.909 143.646 201.042C142.714 200.198 142.248 199.07 142.248 197.658C142.248 196.281 142.714 195.13 143.646 194.204C144.577 193.296 145.761 192.842 147.196 192.842C148.661 192.842 149.818 193.302 150.668 194.222C151.102 194.696 151.424 195.25 151.635 195.883C151.846 196.51 151.951 197.228 151.951 198.036V198.186ZM153.841 202V188.377H156.979V202H153.841ZM171.393 196.041C171.088 195.771 170.795 195.575 170.514 195.452C170.262 195.329 169.966 195.268 169.626 195.268C168.999 195.268 168.507 195.473 168.149 195.883C167.78 196.287 167.596 196.844 167.596 197.553C167.596 198.232 167.786 198.771 168.167 199.17C168.536 199.58 169.049 199.785 169.705 199.785C170.016 199.785 170.314 199.721 170.602 199.592C170.906 199.445 171.17 199.252 171.393 199.012V201.728C171.018 201.927 170.64 202.085 170.259 202.202C169.854 202.296 169.471 202.343 169.107 202.343C167.736 202.343 166.632 201.903 165.794 201.024C165.507 200.731 165.27 200.409 165.082 200.058C164.9 199.706 164.76 199.325 164.66 198.915C164.566 198.505 164.52 198.057 164.52 197.57C164.52 196.17 164.947 195.033 165.803 194.16C166.664 193.281 167.777 192.842 169.143 192.842C169.57 192.842 169.978 192.889 170.364 192.982C170.739 193.076 171.082 193.214 171.393 193.396V196.041ZM173.335 202V193.123H176.288V195.215C176.599 194.447 177.012 193.876 177.527 193.501C178.061 193.12 178.702 192.93 179.452 192.93C179.622 192.93 179.748 192.936 179.83 192.947C179.895 192.953 179.953 192.959 180.006 192.965C180.059 192.965 180.126 192.971 180.208 192.982L179.909 195.83C179.692 195.76 179.505 195.71 179.347 195.681C179.112 195.657 178.939 195.646 178.828 195.646C178.066 195.646 177.478 195.88 177.062 196.349C176.651 196.812 176.446 197.471 176.446 198.326V202H173.335ZM187.485 196.419C187.433 195.927 187.242 195.525 186.914 195.215C186.586 194.904 186.185 194.749 185.71 194.749C185.212 194.749 184.808 194.887 184.497 195.162C184.175 195.473 183.973 195.892 183.891 196.419H187.485ZM190.57 198.186H183.82C183.838 198.877 184.011 199.404 184.339 199.768C184.679 200.143 185.171 200.33 185.815 200.33C186.284 200.33 186.686 200.239 187.02 200.058C187.359 199.864 187.605 199.601 187.758 199.267L190.113 200.216C189.838 200.89 189.34 201.411 188.619 201.78C187.904 202.155 187.028 202.343 185.991 202.343C184.444 202.343 183.202 201.909 182.265 201.042C181.333 200.198 180.867 199.07 180.867 197.658C180.867 196.281 181.333 195.13 182.265 194.204C183.196 193.296 184.38 192.842 185.815 192.842C187.28 192.842 188.438 193.302 189.287 194.222C189.721 194.696 190.043 195.25 190.254 195.883C190.465 196.51 190.57 197.228 190.57 198.036V198.186ZM188.408 189.493L186.246 191.937H185.165L186.448 189.493H188.408ZM199.157 197.57C199.157 196.873 198.979 196.328 198.621 195.936C198.24 195.537 197.736 195.338 197.109 195.338C196.477 195.338 195.979 195.537 195.615 195.936C195.252 196.334 195.07 196.879 195.07 197.57C195.07 198.268 195.252 198.815 195.615 199.214C195.973 199.606 196.471 199.803 197.109 199.803C197.742 199.803 198.246 199.606 198.621 199.214C198.979 198.821 199.157 198.273 199.157 197.57ZM201.935 188.377V202H199.052V200.559C198.653 201.162 198.202 201.607 197.698 201.895C197.229 202.193 196.679 202.343 196.046 202.343C194.804 202.343 193.811 201.909 193.066 201.042C192.328 200.175 191.959 199.018 191.959 197.57C191.959 196.164 192.331 195.019 193.075 194.134C193.813 193.272 194.769 192.842 195.94 192.842C196.69 192.842 197.3 192.979 197.769 193.255C198.22 193.507 198.642 193.955 199.034 194.6C199.011 194.441 198.987 194.201 198.964 193.879C198.94 193.527 198.929 193.24 198.929 193.018V188.377H201.935ZM204.185 202V193.123H207.313V202H204.185ZM204.58 190.838H204.598C204.598 190.51 204.712 190.24 204.94 190.029C205.169 189.801 205.444 189.687 205.767 189.687C206.106 189.687 206.385 189.795 206.602 190.012C206.824 190.229 206.936 190.504 206.936 190.838C206.936 191.178 206.821 191.459 206.593 191.682C206.37 191.91 206.095 192.024 205.767 192.024C205.433 192.024 205.151 191.904 204.923 191.664C204.694 191.441 204.58 191.166 204.58 190.838ZM210.381 202L210.363 195.338H209.036V193.123H210.363V190.478H213.466V193.123H214.775V195.338H213.466V202H210.381ZM222.545 197.588C222.545 196.926 222.378 196.404 222.044 196.023C221.698 195.643 221.247 195.452 220.69 195.452C220.116 195.452 219.665 195.643 219.337 196.023C219.003 196.393 218.836 196.914 218.836 197.588C218.836 198.244 218.997 198.76 219.319 199.135C219.671 199.521 220.128 199.715 220.69 199.715C221.253 199.715 221.71 199.521 222.062 199.135C222.384 198.748 222.545 198.232 222.545 197.588ZM225.656 197.588C225.656 198.238 225.53 198.845 225.278 199.407C225.015 200.005 224.654 200.521 224.197 200.954C223.682 201.435 223.148 201.783 222.598 202C222.023 202.229 221.388 202.343 220.69 202.343C219.987 202.343 219.352 202.229 218.783 202C218.203 201.771 217.667 201.426 217.175 200.963C216.688 200.494 216.337 199.976 216.12 199.407C215.868 198.862 215.742 198.256 215.742 197.588C215.742 196.938 215.868 196.325 216.12 195.751C216.354 195.171 216.709 194.655 217.184 194.204C217.646 193.759 218.18 193.416 218.783 193.176C219.357 192.953 219.993 192.842 220.69 192.842C221.382 192.842 222.018 192.953 222.598 193.176C223.201 193.416 223.734 193.759 224.197 194.204C224.684 194.644 225.044 195.159 225.278 195.751C225.53 196.325 225.656 196.938 225.656 197.588ZM239.868 197.553C239.868 196.85 239.684 196.305 239.314 195.918C238.939 195.508 238.436 195.303 237.803 195.303C237.17 195.303 236.672 195.502 236.309 195.9C235.934 196.311 235.746 196.861 235.746 197.553C235.746 198.25 235.934 198.798 236.309 199.196C236.666 199.589 237.164 199.785 237.803 199.785C238.436 199.785 238.937 199.589 239.306 199.196C239.681 198.804 239.868 198.256 239.868 197.553ZM242.619 193.123V202H239.745V200.559C239.329 201.174 238.863 201.625 238.348 201.912C237.838 202.199 237.24 202.343 236.555 202.343C235.365 202.343 234.419 201.909 233.716 201.042C233.37 200.614 233.106 200.11 232.925 199.53C232.743 198.95 232.652 198.297 232.652 197.57C232.652 196.117 233.024 194.966 233.769 194.116C234.513 193.267 235.509 192.842 236.757 192.842C237.425 192.842 237.999 192.985 238.479 193.272C238.966 193.548 239.382 193.984 239.728 194.582V193.123H242.619ZM251.127 202L251.109 195.338H249.782V193.123H251.109V190.478H254.212V193.123H255.521V195.338H254.212V202H251.127ZM266.095 193.123V197.658C266.095 198.672 266.019 199.41 265.866 199.873C265.702 200.354 265.427 200.787 265.04 201.174C264.671 201.561 264.185 201.854 263.581 202.053C263.007 202.246 262.315 202.343 261.507 202.343C260.704 202.343 260.021 202.246 259.459 202.053C258.879 201.865 258.381 201.572 257.965 201.174C257.584 200.811 257.314 200.383 257.156 199.891C256.998 199.434 256.919 198.689 256.919 197.658V193.123H259.907V197.86C259.907 198.604 260.033 199.138 260.285 199.46C260.514 199.8 260.909 199.97 261.472 199.97C262.028 199.97 262.427 199.806 262.667 199.478C262.913 199.149 263.036 198.61 263.036 197.86V193.123H266.095ZM49.5234 216.041C49.2188 215.771 48.9258 215.575 48.6445 215.452C48.3926 215.329 48.0967 215.268 47.7568 215.268C47.1299 215.268 46.6377 215.473 46.2803 215.883C45.9111 216.287 45.7266 216.844 45.7266 217.553C45.7266 218.232 45.917 218.771 46.2979 219.17C46.667 219.58 47.1797 219.785 47.8359 219.785C48.1465 219.785 48.4453 219.721 48.7324 219.592C49.0371 219.445 49.3008 219.252 49.5234 219.012V221.728C49.1484 221.927 48.7705 222.085 48.3896 222.202C47.9854 222.296 47.6016 222.343 47.2383 222.343C45.8672 222.343 44.7627 221.903 43.9248 221.024C43.6377 220.731 43.4004 220.409 43.2129 220.058C43.0312 219.706 42.8906 219.325 42.791 218.915C42.6973 218.505 42.6504 218.057 42.6504 217.57C42.6504 216.17 43.0781 215.033 43.9336 214.16C44.7949 213.281 45.9082 212.842 47.2734 212.842C47.7012 212.842 48.1084 212.889 48.4951 212.982C48.8701 213.076 49.2129 213.214 49.5234 213.396V216.041ZM58.2158 217.553C58.2158 216.85 58.0312 216.305 57.6621 215.918C57.2871 215.508 56.7832 215.303 56.1504 215.303C55.5176 215.303 55.0195 215.502 54.6562 215.9C54.2812 216.311 54.0938 216.861 54.0938 217.553C54.0938 218.25 54.2812 218.798 54.6562 219.196C55.0137 219.589 55.5117 219.785 56.1504 219.785C56.7832 219.785 57.2842 219.589 57.6533 219.196C58.0283 218.804 58.2158 218.256 58.2158 217.553ZM60.9668 213.123V222H58.0928V220.559C57.6768 221.174 57.2109 221.625 56.6953 221.912C56.1855 222.199 55.5879 222.343 54.9023 222.343C53.7129 222.343 52.7666 221.909 52.0635 221.042C51.7178 220.614 51.4541 220.11 51.2725 219.53C51.0908 218.95 51 218.297 51 217.57C51 216.117 51.3721 214.966 52.1162 214.116C52.8604 213.267 53.8564 212.842 55.1045 212.842C55.7725 212.842 56.3467 212.985 56.8271 213.272C57.3135 213.548 57.7295 213.984 58.0752 214.582V213.123H60.9668ZM66.126 217.588C66.126 218.279 66.3105 218.827 66.6797 219.231C67.0195 219.624 67.5117 219.82 68.1562 219.82C68.7949 219.82 69.293 219.624 69.6504 219.231C70.0078 218.821 70.1865 218.273 70.1865 217.588C70.1865 216.891 70.0078 216.346 69.6504 215.953C69.2871 215.555 68.7891 215.355 68.1562 215.355C67.5176 215.355 67.0254 215.555 66.6797 215.953C66.3105 216.34 66.126 216.885 66.126 217.588ZM63.3486 225.92V213.141H66.2314V214.617C66.6123 214.049 67.0605 213.606 67.5762 213.29C68.0625 213.003 68.6162 212.859 69.2373 212.859C69.8643 212.859 70.4268 212.965 70.9248 213.176C71.4229 213.381 71.8564 213.694 72.2256 214.116C72.958 214.954 73.3242 216.111 73.3242 217.588C73.3242 219.006 72.958 220.151 72.2256 221.024C71.8506 221.47 71.4258 221.801 70.9512 222.018C70.4824 222.234 69.9463 222.343 69.3428 222.343C68.5869 222.343 67.9746 222.205 67.5059 221.93C67.0547 221.666 66.6357 221.209 66.249 220.559C66.2783 220.699 66.3018 220.916 66.3193 221.209C66.3311 221.379 66.3369 221.689 66.3369 222.141V225.92H63.3486ZM81.9814 217.553C81.9814 216.85 81.7969 216.305 81.4277 215.918C81.0527 215.508 80.5488 215.303 79.916 215.303C79.2832 215.303 78.7852 215.502 78.4219 215.9C78.0469 216.311 77.8594 216.861 77.8594 217.553C77.8594 218.25 78.0469 218.798 78.4219 219.196C78.7793 219.589 79.2773 219.785 79.916 219.785C80.5488 219.785 81.0498 219.589 81.4189 219.196C81.7939 218.804 81.9814 218.256 81.9814 217.553ZM84.7324 213.123V222H81.8584V220.559C81.4424 221.174 80.9766 221.625 80.4609 221.912C79.9512 222.199 79.3535 222.343 78.668 222.343C77.4785 222.343 76.5322 221.909 75.8291 221.042C75.4834 220.614 75.2197 220.11 75.0381 219.53C74.8564 218.95 74.7656 218.297 74.7656 217.57C74.7656 216.117 75.1377 214.966 75.8818 214.116C76.626 213.267 77.6221 212.842 78.8701 212.842C79.5381 212.842 80.1123 212.985 80.5928 213.272C81.0791 213.548 81.4951 213.984 81.8408 214.582V213.123H84.7324ZM93.4688 216.041C93.1641 215.771 92.8711 215.575 92.5898 215.452C92.3379 215.329 92.042 215.268 91.7021 215.268C91.0752 215.268 90.583 215.473 90.2256 215.883C89.8564 216.287 89.6719 216.844 89.6719 217.553C89.6719 218.232 89.8623 218.771 90.2432 219.17C90.6123 219.58 91.125 219.785 91.7812 219.785C92.0918 219.785 92.3906 219.721 92.6777 219.592C92.9824 219.445 93.2461 219.252 93.4688 219.012V221.728C93.0938 221.927 92.7158 222.085 92.335 222.202C91.9307 222.296 91.5469 222.343 91.1836 222.343C89.8125 222.343 88.708 221.903 87.8701 221.024C87.583 220.731 87.3457 220.409 87.1582 220.058C86.9766 219.706 86.8359 219.325 86.7363 218.915C86.6426 218.505 86.5957 218.057 86.5957 217.57C86.5957 216.17 87.0234 215.033 87.8789 214.16C88.7402 213.281 89.8535 212.842 91.2188 212.842C91.6465 212.842 92.0537 212.889 92.4404 212.982C92.8154 213.076 93.1582 213.214 93.4688 213.396V216.041ZM95.3232 222V213.123H98.4521V222H95.3232ZM95.7188 210.838H95.7363C95.7363 210.51 95.8506 210.24 96.0791 210.029C96.3076 209.801 96.583 209.687 96.9053 209.687C97.2451 209.687 97.5234 209.795 97.7402 210.012C97.9629 210.229 98.0742 210.504 98.0742 210.838C98.0742 211.178 97.96 211.459 97.7314 211.682C97.5088 211.91 97.2334 212.024 96.9053 212.024C96.5713 212.024 96.29 211.904 96.0615 211.664C95.833 211.441 95.7188 211.166 95.7188 210.838ZM107.804 217.57C107.804 216.873 107.625 216.328 107.268 215.936C106.887 215.537 106.383 215.338 105.756 215.338C105.123 215.338 104.625 215.537 104.262 215.936C103.898 216.334 103.717 216.879 103.717 217.57C103.717 218.268 103.898 218.815 104.262 219.214C104.619 219.606 105.117 219.803 105.756 219.803C106.389 219.803 106.893 219.606 107.268 219.214C107.625 218.821 107.804 218.273 107.804 217.57ZM110.581 208.377V222H107.698V220.559C107.3 221.162 106.849 221.607 106.345 221.895C105.876 222.193 105.325 222.343 104.692 222.343C103.45 222.343 102.457 221.909 101.713 221.042C100.975 220.175 100.605 219.018 100.605 217.57C100.605 216.164 100.978 215.019 101.722 214.134C102.46 213.272 103.415 212.842 104.587 212.842C105.337 212.842 105.946 212.979 106.415 213.255C106.866 213.507 107.288 213.955 107.681 214.6C107.657 214.441 107.634 214.201 107.61 213.879C107.587 213.527 107.575 213.24 107.575 213.018V208.377H110.581ZM119.669 217.553C119.669 216.85 119.484 216.305 119.115 215.918C118.74 215.508 118.236 215.303 117.604 215.303C116.971 215.303 116.473 215.502 116.109 215.9C115.734 216.311 115.547 216.861 115.547 217.553C115.547 218.25 115.734 218.798 116.109 219.196C116.467 219.589 116.965 219.785 117.604 219.785C118.236 219.785 118.737 219.589 119.106 219.196C119.481 218.804 119.669 218.256 119.669 217.553ZM122.42 213.123V222H119.546V220.559C119.13 221.174 118.664 221.625 118.148 221.912C117.639 222.199 117.041 222.343 116.355 222.343C115.166 222.343 114.22 221.909 113.517 221.042C113.171 220.614 112.907 220.11 112.726 219.53C112.544 218.95 112.453 218.297 112.453 217.57C112.453 216.117 112.825 214.966 113.569 214.116C114.313 213.267 115.31 212.842 116.558 212.842C117.226 212.842 117.8 212.985 118.28 213.272C118.767 213.548 119.183 213.984 119.528 214.582V213.123H122.42ZM131.569 217.57C131.569 216.873 131.391 216.328 131.033 215.936C130.652 215.537 130.148 215.338 129.521 215.338C128.889 215.338 128.391 215.537 128.027 215.936C127.664 216.334 127.482 216.879 127.482 217.57C127.482 218.268 127.664 218.815 128.027 219.214C128.385 219.606 128.883 219.803 129.521 219.803C130.154 219.803 130.658 219.606 131.033 219.214C131.391 218.821 131.569 218.273 131.569 217.57ZM134.347 208.377V222H131.464V220.559C131.065 221.162 130.614 221.607 130.11 221.895C129.642 222.193 129.091 222.343 128.458 222.343C127.216 222.343 126.223 221.909 125.479 221.042C124.74 220.175 124.371 219.018 124.371 217.57C124.371 216.164 124.743 215.019 125.487 214.134C126.226 213.272 127.181 212.842 128.353 212.842C129.103 212.842 129.712 212.979 130.181 213.255C130.632 213.507 131.054 213.955 131.446 214.6C131.423 214.441 131.399 214.201 131.376 213.879C131.353 213.527 131.341 213.24 131.341 213.018V208.377H134.347ZM149.095 217.57C149.095 216.873 148.916 216.328 148.559 215.936C148.178 215.537 147.674 215.338 147.047 215.338C146.414 215.338 145.916 215.537 145.553 215.936C145.189 216.334 145.008 216.879 145.008 217.57C145.008 218.268 145.189 218.815 145.553 219.214C145.91 219.606 146.408 219.803 147.047 219.803C147.68 219.803 148.184 219.606 148.559 219.214C148.916 218.821 149.095 218.273 149.095 217.57ZM151.872 208.377V222H148.989V220.559C148.591 221.162 148.14 221.607 147.636 221.895C147.167 222.193 146.616 222.343 145.983 222.343C144.741 222.343 143.748 221.909 143.004 221.042C142.266 220.175 141.896 219.018 141.896 217.57C141.896 216.164 142.269 215.019 143.013 214.134C143.751 213.272 144.706 212.842 145.878 212.842C146.628 212.842 147.237 212.979 147.706 213.255C148.157 213.507 148.579 213.955 148.972 214.6C148.948 214.441 148.925 214.201 148.901 213.879C148.878 213.527 148.866 213.24 148.866 213.018V208.377H151.872ZM160.31 216.419C160.257 215.927 160.066 215.525 159.738 215.215C159.41 214.904 159.009 214.749 158.534 214.749C158.036 214.749 157.632 214.887 157.321 215.162C156.999 215.473 156.797 215.892 156.715 216.419H160.31ZM163.395 218.186H156.645C156.662 218.877 156.835 219.404 157.163 219.768C157.503 220.143 157.995 220.33 158.64 220.33C159.108 220.33 159.51 220.239 159.844 220.058C160.184 219.864 160.43 219.601 160.582 219.267L162.938 220.216C162.662 220.89 162.164 221.411 161.443 221.78C160.729 222.155 159.853 222.343 158.815 222.343C157.269 222.343 156.026 221.909 155.089 221.042C154.157 220.198 153.691 219.07 153.691 217.658C153.691 216.281 154.157 215.13 155.089 214.204C156.021 213.296 157.204 212.842 158.64 212.842C160.104 212.842 161.262 213.302 162.111 214.222C162.545 214.696 162.867 215.25 163.078 215.883C163.289 216.51 163.395 217.228 163.395 218.036V218.186ZM173.634 217.588C173.634 218.279 173.818 218.827 174.188 219.231C174.527 219.624 175.02 219.82 175.664 219.82C176.303 219.82 176.801 219.624 177.158 219.231C177.516 218.821 177.694 218.273 177.694 217.588C177.694 216.891 177.516 216.346 177.158 215.953C176.795 215.555 176.297 215.355 175.664 215.355C175.025 215.355 174.533 215.555 174.188 215.953C173.818 216.34 173.634 216.885 173.634 217.588ZM170.856 225.92V213.141H173.739V214.617C174.12 214.049 174.568 213.606 175.084 213.29C175.57 213.003 176.124 212.859 176.745 212.859C177.372 212.859 177.935 212.965 178.433 213.176C178.931 213.381 179.364 213.694 179.733 214.116C180.466 214.954 180.832 216.111 180.832 217.588C180.832 219.006 180.466 220.151 179.733 221.024C179.358 221.47 178.934 221.801 178.459 222.018C177.99 222.234 177.454 222.343 176.851 222.343C176.095 222.343 175.482 222.205 175.014 221.93C174.562 221.666 174.144 221.209 173.757 220.559C173.786 220.699 173.81 220.916 173.827 221.209C173.839 221.379 173.845 221.689 173.845 222.141V225.92H170.856ZM189.489 217.553C189.489 216.85 189.305 216.305 188.936 215.918C188.561 215.508 188.057 215.303 187.424 215.303C186.791 215.303 186.293 215.502 185.93 215.9C185.555 216.311 185.367 216.861 185.367 217.553C185.367 218.25 185.555 218.798 185.93 219.196C186.287 219.589 186.785 219.785 187.424 219.785C188.057 219.785 188.558 219.589 188.927 219.196C189.302 218.804 189.489 218.256 189.489 217.553ZM192.24 213.123V222H189.366V220.559C188.95 221.174 188.484 221.625 187.969 221.912C187.459 222.199 186.861 222.343 186.176 222.343C184.986 222.343 184.04 221.909 183.337 221.042C182.991 220.614 182.728 220.11 182.546 219.53C182.364 218.95 182.273 218.297 182.273 217.57C182.273 216.117 182.646 214.966 183.39 214.116C184.134 213.267 185.13 212.842 186.378 212.842C187.046 212.842 187.62 212.985 188.101 213.272C188.587 213.548 189.003 213.984 189.349 214.582V213.123H192.24ZM201.372 217.535C201.372 216.85 201.193 216.311 200.836 215.918C200.449 215.531 199.939 215.338 199.307 215.338C198.674 215.338 198.164 215.531 197.777 215.918C197.402 216.311 197.215 216.85 197.215 217.535C197.215 218.227 197.402 218.76 197.777 219.135C198.158 219.533 198.668 219.732 199.307 219.732C199.934 219.732 200.438 219.533 200.818 219.135C201.188 218.766 201.372 218.232 201.372 217.535ZM204.123 213.123V221.982C204.123 223.324 203.716 224.314 202.901 224.953C202.509 225.27 201.993 225.51 201.354 225.674C200.716 225.838 199.966 225.92 199.104 225.92C197.704 225.92 196.617 225.662 195.844 225.146C195.07 224.625 194.657 223.901 194.604 222.976H197.848C197.906 223.257 198.062 223.471 198.313 223.617C198.571 223.775 198.914 223.854 199.342 223.854C200.01 223.854 200.476 223.693 200.739 223.371C200.991 223.049 201.117 222.363 201.117 221.314V220.506C200.783 221.068 200.364 221.481 199.86 221.745C199.339 222.021 198.732 222.158 198.041 222.158C196.869 222.158 195.929 221.733 195.22 220.884C194.874 220.468 194.61 219.979 194.429 219.416C194.247 218.848 194.156 218.209 194.156 217.5C194.156 216.082 194.528 214.948 195.272 214.099C195.642 213.677 196.075 213.363 196.573 213.158C197.077 212.947 197.64 212.842 198.261 212.842C198.923 212.842 199.497 212.979 199.983 213.255C200.464 213.513 200.88 213.943 201.231 214.547V213.123H204.123ZM212.789 217.588C212.789 216.926 212.622 216.404 212.288 216.023C211.942 215.643 211.491 215.452 210.935 215.452C210.36 215.452 209.909 215.643 209.581 216.023C209.247 216.393 209.08 216.914 209.08 217.588C209.08 218.244 209.241 218.76 209.563 219.135C209.915 219.521 210.372 219.715 210.935 219.715C211.497 219.715 211.954 219.521 212.306 219.135C212.628 218.748 212.789 218.232 212.789 217.588ZM215.9 217.588C215.9 218.238 215.774 218.845 215.522 219.407C215.259 220.005 214.898 220.521 214.441 220.954C213.926 221.435 213.393 221.783 212.842 222C212.268 222.229 211.632 222.343 210.935 222.343C210.231 222.343 209.596 222.229 209.027 222C208.447 221.771 207.911 221.426 207.419 220.963C206.933 220.494 206.581 219.976 206.364 219.407C206.112 218.862 205.986 218.256 205.986 217.588C205.986 216.938 206.112 216.325 206.364 215.751C206.599 215.171 206.953 214.655 207.428 214.204C207.891 213.759 208.424 213.416 209.027 213.176C209.602 212.953 210.237 212.842 210.935 212.842C211.626 212.842 212.262 212.953 212.842 213.176C213.445 213.416 213.979 213.759 214.441 214.204C214.928 214.644 215.288 215.159 215.522 215.751C215.774 216.325 215.9 216.938 215.9 217.588Z" fill="white"/>
<path d="M30.4 34.456C30.4 43.288 34.144 49.96 43.84 49.96C53.536 49.96 57.28 43.288 57.28 34.456V12.808H50.224V33.064C50.224 37.528 49.84 43.816 43.84 43.816C37.84 43.816 37.456 37.528 37.456 33.064V12.808H30.4V34.456ZM65.2795 49H72.3355V24.424H72.4315L91.4875 49.72H96.5755V12.808H89.5195V37.144H89.4235L70.3675 11.848H65.2795V49ZM145.768 13.96C143.32 12.616 140.536 11.848 137.704 11.848C127.096 11.848 119.848 20.92 119.848 31.192C119.848 41.176 127.384 49.96 137.56 49.96C140.488 49.96 143.128 49.048 145.768 47.8V39.4C143.8 41.656 140.776 43.24 137.752 43.24C131.176 43.24 127.144 37.144 127.144 31.048C127.144 24.808 131.032 18.568 137.8 18.568C140.824 18.568 143.8 20.008 145.768 22.408V13.96ZM167.661 33.736C172.509 32.92 175.052 28.312 175.052 23.704C175.052 15.976 170.109 12.808 162.957 12.808H153.405V49H160.461V34.408H160.557L169.341 49H177.885L167.661 33.736ZM160.461 18.568H161.421C165.165 18.568 167.997 19.432 167.997 23.896C167.997 28.312 165.261 29.464 161.373 29.464H160.461V18.568ZM201.89 18.952V12.808H183.17V49H201.89V42.856H190.226V33.064H201.458V26.92H190.226V18.952H201.89ZM194.162 0.903996L188.402 8.968L191.81 11.08L199.058 3.88L194.162 0.903996ZM209.608 49H219.64C229.96 49 237.16 41.128 237.16 30.952C237.16 20.632 230.152 12.808 219.688 12.808H209.608V49ZM216.664 18.952H217.816C225.832 18.952 229.864 23.032 229.864 30.904C229.864 38.056 226.504 42.856 217.816 42.856H216.664V18.952ZM250.695 12.808H243.639V49H250.695V12.808ZM270.586 18.952H277.882V12.808H256.234V18.952H263.53V49H270.586V18.952ZM317.563 30.856C317.563 20.104 310.459 11.848 299.659 11.848C288.859 11.848 281.755 20.104 281.755 30.856C281.755 41.512 288.619 49.96 299.659 49.96C310.699 49.96 317.563 41.512 317.563 30.856ZM310.267 30.568C310.267 36.136 307.483 43 299.659 43C291.835 43 289.051 36.136 289.051 30.568C289.051 24.712 292.987 18.808 299.659 18.808C306.331 18.808 310.267 24.712 310.267 30.568ZM30.592 97H40.624C50.944 97 58.144 89.128 58.144 78.952C58.144 68.632 51.136 60.808 40.672 60.808H30.592V97ZM37.648 66.952H38.8C46.816 66.952 50.848 71.032 50.848 78.904C50.848 86.056 47.488 90.856 38.8 90.856H37.648V66.952ZM83.3433 66.952V60.808H64.6233V97H83.3433V90.856H71.6793V81.064H82.9113V74.92H71.6793V66.952H83.3433ZM127.904 89.368L130.688 97H138.224L124.496 59.848H119.024L104.912 97H112.352L115.328 89.368H127.904ZM125.936 83.608H117.344L121.328 70.456H121.424L125.936 83.608ZM167.565 61.96C165.117 60.616 162.333 59.848 159.501 59.848C148.893 59.848 141.645 68.92 141.645 79.192C141.645 89.176 149.181 97.96 159.357 97.96C162.285 97.96 164.925 97.048 167.565 95.8V87.4C165.597 89.656 162.573 91.24 159.549 91.24C152.973 91.24 148.941 85.144 148.941 79.048C148.941 72.808 152.829 66.568 159.597 66.568C162.621 66.568 165.597 68.008 167.565 70.408V61.96ZM175.009 82.456C175.009 91.288 178.753 97.96 188.449 97.96C198.145 97.96 201.889 91.288 201.889 82.456V60.808H194.833V81.064C194.833 85.528 194.449 91.816 188.449 91.816C182.449 91.816 182.065 85.528 182.065 81.064V60.808H175.009V82.456ZM228.609 66.952V60.808H209.889V97H228.609V90.856H216.945V81.064H228.177V74.92H216.945V66.952H228.609ZM250.582 81.736C255.43 80.92 257.974 76.312 257.974 71.704C257.974 63.976 253.03 60.808 245.878 60.808H236.326V97H243.382V82.408H243.478L252.262 97H260.806L250.582 81.736ZM243.382 66.568H244.342C248.086 66.568 250.918 67.432 250.918 71.896C250.918 76.312 248.182 77.464 244.294 77.464H243.382V66.568ZM266.092 97H276.124C286.444 97 293.644 89.128 293.644 78.952C293.644 68.632 286.636 60.808 276.172 60.808H266.092V97ZM273.148 66.952H274.3C282.316 66.952 286.348 71.032 286.348 78.904C286.348 86.056 282.988 90.856 274.3 90.856H273.148V66.952ZM334.203 78.856C334.203 68.104 327.099 59.848 316.299 59.848C305.499 59.848 298.395 68.104 298.395 78.856C298.395 89.512 305.259 97.96 316.299 97.96C327.339 97.96 334.203 89.512 334.203 78.856ZM326.907 78.568C326.907 84.136 324.123 91 316.299 91C308.475 91 305.691 84.136 305.691 78.568C305.691 72.712 309.627 66.808 316.299 66.808C322.971 66.808 326.907 72.712 326.907 78.568ZM377.513 89.368L380.297 97H387.833L374.105 59.848H368.633L354.521 97H361.961L364.937 89.368H377.513ZM375.545 83.608H366.953L370.937 70.456H371.033L375.545 83.608ZM42.352 114.952H49.648V108.808H28V114.952H35.296V145H42.352V114.952ZM55.0563 130.456C55.0563 139.288 58.8003 145.96 68.4963 145.96C78.1923 145.96 81.9363 139.288 81.9363 130.456V108.808H74.8803V129.064C74.8803 133.528 74.4963 139.816 68.4963 139.816C62.4963 139.816 62.1123 133.528 62.1123 129.064V108.808H55.0563V130.456ZM110.288 111.88C108.08 109.432 103.616 107.848 100.4 107.848C94.3038 107.848 89.8398 112.696 89.8398 118.696C89.8398 124.312 93.2478 126.664 97.9038 128.584C100.736 129.688 104.192 130.744 104.192 134.488C104.192 137.272 102.416 139.72 99.5358 139.72C96.5118 139.72 93.9678 137.224 93.0078 134.44L88.4478 138.904C90.9438 143.08 94.5918 145.96 99.5838 145.96C106.976 145.96 111.488 140.824 111.488 133.576C111.488 121.432 97.1358 123.976 97.1358 117.88C97.1358 115.528 99.2958 113.8 101.552 113.8C103.904 113.8 105.632 114.952 106.976 116.776L110.288 111.88ZM135.076 145H142.132V120.424H142.228L161.284 145.72H166.372V108.808H159.316V133.144H159.22L140.164 107.848H135.076V145ZM193.218 114.952V108.808H174.498V145H193.218V138.856H181.554V129.064H192.786V122.92H181.554V114.952H193.218ZM225.128 109.96C222.68 108.616 219.896 107.848 217.064 107.848C206.456 107.848 199.208 116.92 199.208 127.192C199.208 137.176 206.744 145.96 216.92 145.96C219.848 145.96 222.488 145.048 225.128 143.8V135.4C223.16 137.656 220.136 139.24 217.112 139.24C210.536 139.24 206.504 133.144 206.504 127.048C206.504 120.808 210.392 114.568 217.16 114.568C220.184 114.568 223.16 116.008 225.128 118.408V109.96ZM251.484 114.952V108.808H232.764V145H251.484V138.856H239.82V129.064H251.052V122.92H239.82V114.952H251.484ZM279.553 111.88C277.345 109.432 272.881 107.848 269.665 107.848C263.569 107.848 259.105 112.696 259.105 118.696C259.105 124.312 262.513 126.664 267.169 128.584C270.001 129.688 273.457 130.744 273.457 134.488C273.457 137.272 271.681 139.72 268.801 139.72C265.777 139.72 263.233 137.224 262.273 134.44L257.713 138.904C260.209 143.08 263.857 145.96 268.849 145.96C276.241 145.96 280.753 140.824 280.753 133.576C280.753 121.432 266.401 123.976 266.401 117.88C266.401 115.528 268.561 113.8 270.817 113.8C273.169 113.8 274.897 114.952 276.241 116.776L279.553 111.88ZM294.523 108.808H287.467V145H294.523V108.808ZM302.655 145H312.687C323.007 145 330.207 137.128 330.207 126.952C330.207 116.632 323.199 108.808 312.734 108.808H302.655V145ZM309.711 114.952H310.863C318.879 114.952 322.911 119.032 322.911 126.904C322.911 134.056 319.551 138.856 310.863 138.856H309.711V114.952ZM356.654 137.368L359.438 145H366.974L353.246 107.848H347.774L333.662 145H341.102L344.078 137.368H356.654ZM354.686 131.608H346.094L350.078 118.456H350.174L354.686 131.608ZM372.123 145H382.155C392.475 145 399.675 137.128 399.675 126.952C399.675 116.632 392.667 108.808 382.203 108.808H372.123V145ZM379.179 114.952H380.331C388.347 114.952 392.379 119.032 392.379 126.904C392.379 134.056 389.019 138.856 380.331 138.856H379.179V114.952ZM424.875 114.952V108.808H406.155V145H424.875V138.856H413.211V129.064H424.443V122.92H413.211V114.952H424.875ZM452.944 111.88C450.736 109.432 446.272 107.848 443.056 107.848C436.96 107.848 432.496 112.696 432.496 118.696C432.496 124.312 435.904 126.664 440.56 128.584C443.392 129.688 446.848 130.744 446.848 134.488C446.848 137.272 445.072 139.72 442.192 139.72C439.168 139.72 436.624 137.224 435.664 134.44L431.104 138.904C433.6 143.08 437.248 145.96 442.24 145.96C449.632 145.96 454.144 140.824 454.144 133.576C454.144 121.432 439.792 123.976 439.792 117.88C439.792 115.528 441.952 113.8 444.208 113.8C446.56 113.8 448.288 114.952 449.632 116.776L452.944 111.88Z" fill="white"/>
<rect x="28" y="164" width="405" height="70" rx="16" fill="#002A61"/>
<path d="M47.6162 194.007L45.5684 198.744H49.6641L47.6162 194.007ZM47.6162 190.623L53.4697 204H51.8086L50.1387 200.054H45.1113L43.4414 204H41.7803L47.6162 190.623ZM54.4014 192.082C54.4014 191.807 54.498 191.572 54.6914 191.379C54.8906 191.18 55.1309 191.08 55.4121 191.08C55.6875 191.08 55.9219 191.18 56.1152 191.379C56.3145 191.578 56.4141 191.818 56.4141 192.1C56.4141 192.375 56.3174 192.609 56.124 192.803C55.9307 192.996 55.6934 193.093 55.4121 193.093C55.1309 193.093 54.8906 192.996 54.6914 192.803C54.498 192.609 54.4014 192.369 54.4014 192.082ZM54.7266 207.92V195.958H56.1152V207.92H54.7266ZM60.3076 195.958V199.913C60.3076 201.067 60.4775 201.876 60.8174 202.339C61.1631 202.796 61.7432 203.024 62.5576 203.024C63.3721 203.024 63.9463 202.799 64.2803 202.348C64.6201 201.891 64.79 201.079 64.79 199.913V195.958H66.1963V200.651C66.1963 201.864 65.8857 202.784 65.2646 203.411C64.6436 204.032 63.7295 204.343 62.5225 204.343C61.3271 204.343 60.4189 204.029 59.7979 203.402C59.1768 202.775 58.8662 201.858 58.8662 200.651V195.958H60.3076ZM68.0068 202.646L69.1846 201.855C69.4072 202.283 69.6885 202.605 70.0283 202.822C70.3682 203.033 70.7695 203.139 71.2324 203.139C71.6836 203.139 72.0469 203.027 72.3223 202.805C72.6035 202.582 72.7441 202.289 72.7441 201.926C72.7441 201.645 72.6475 201.41 72.4541 201.223C72.2666 201.035 71.9414 200.862 71.4785 200.704C71.4316 200.687 71.3555 200.66 71.25 200.625C69.293 199.951 68.3145 199.107 68.3145 198.094C68.3145 197.379 68.5781 196.796 69.1055 196.345C69.6328 195.894 70.3184 195.668 71.1621 195.668C71.8594 195.668 72.457 195.809 72.9551 196.09C73.4531 196.365 73.8105 196.758 74.0273 197.268L72.9111 197.953C72.7471 197.584 72.5039 197.3 72.1816 197.101C71.8652 196.901 71.4961 196.802 71.0742 196.802C70.6699 196.802 70.3389 196.916 70.0811 197.145C69.8291 197.367 69.7031 197.654 69.7031 198.006C69.7031 198.498 70.2363 198.911 71.3027 199.245C71.502 199.31 71.6602 199.359 71.7773 199.395C72.6504 199.676 73.2568 199.998 73.5967 200.361C73.9424 200.719 74.1152 201.193 74.1152 201.785C74.1152 202.547 73.8428 203.165 73.2979 203.64C72.7588 204.108 72.0527 204.343 71.1797 204.343C70.4297 204.343 69.791 204.202 69.2637 203.921C68.7422 203.64 68.3232 203.215 68.0068 202.646ZM76.4004 197.092H74.9238V195.958H76.4004V192.715H77.8066V195.958H79.2832V197.092H77.8066V204H76.4004V197.092ZM87 200.054C87 199.146 86.751 198.416 86.2529 197.865C85.7607 197.309 85.1162 197.03 84.3193 197.03C83.4932 197.03 82.8486 197.285 82.3857 197.795C81.9229 198.305 81.6914 199.017 81.6914 199.931C81.6914 200.903 81.9229 201.653 82.3857 202.181C82.8545 202.708 83.5166 202.972 84.3721 202.972C85.1924 202.972 85.834 202.717 86.2969 202.207C86.7656 201.691 87 200.974 87 200.054ZM88.3359 195.958V204H87V202.541C86.6777 203.127 86.2646 203.575 85.7607 203.886C85.2627 204.19 84.7031 204.343 84.082 204.343C82.9277 204.343 81.9961 203.947 81.2871 203.156C80.584 202.359 80.2324 201.308 80.2324 200.001C80.2324 198.677 80.5752 197.625 81.2607 196.846C81.9463 196.061 82.8633 195.668 84.0117 195.668C84.6855 195.668 85.2686 195.82 85.7607 196.125C86.2588 196.424 86.6602 196.872 86.9648 197.47V195.958H88.3359ZM102.293 204V199.263C102.293 198.448 102.129 197.845 101.801 197.452C101.473 197.054 100.969 196.854 100.289 196.854C99.9199 196.854 99.5771 196.931 99.2607 197.083C98.9502 197.229 98.6865 197.44 98.4697 197.716C98.3115 197.927 98.1973 198.173 98.127 198.454C98.0566 198.735 98.0215 199.198 98.0215 199.843V204H96.6943V199.263C96.6943 198.448 96.5303 197.845 96.2021 197.452C95.874 197.054 95.3701 196.854 94.6904 196.854C94.3213 196.854 93.9756 196.931 93.6533 197.083C93.3369 197.229 93.0703 197.44 92.8535 197.716C92.7012 197.921 92.5898 198.158 92.5195 198.428C92.4551 198.697 92.4229 199.169 92.4229 199.843V204H91.0957V195.958H92.4404V197.197C92.7744 196.682 93.1729 196.298 93.6357 196.046C94.0986 195.794 94.6318 195.668 95.2354 195.668C95.8857 195.668 96.4395 195.809 96.8965 196.09C97.3535 196.365 97.6992 196.77 97.9336 197.303C98.2793 196.752 98.6865 196.342 99.1553 196.072C99.6299 195.803 100.178 195.668 100.799 195.668C101.695 195.668 102.396 195.92 102.899 196.424C103.403 196.928 103.655 197.628 103.655 198.524V204H102.293ZM107.18 200.001C107.18 200.851 107.464 201.571 108.032 202.163C108.601 202.749 109.289 203.042 110.098 203.042C110.9 203.042 111.583 202.749 112.146 202.163C112.708 201.571 112.989 200.851 112.989 200.001C112.989 199.151 112.708 198.434 112.146 197.848C111.583 197.256 110.9 196.96 110.098 196.96C109.283 196.96 108.592 197.256 108.023 197.848C107.461 198.434 107.18 199.151 107.18 200.001ZM105.721 200.001C105.721 199.409 105.829 198.853 106.046 198.331C106.263 197.804 106.579 197.335 106.995 196.925C107.411 196.515 107.883 196.204 108.41 195.993C108.938 195.776 109.5 195.668 110.098 195.668C110.684 195.668 111.237 195.776 111.759 195.993C112.286 196.21 112.764 196.526 113.191 196.942C113.607 197.347 113.924 197.812 114.141 198.34C114.357 198.861 114.466 199.415 114.466 200.001C114.466 200.587 114.357 201.141 114.141 201.662C113.924 202.178 113.607 202.638 113.191 203.042C112.764 203.464 112.283 203.786 111.75 204.009C111.223 204.231 110.672 204.343 110.098 204.343C109.506 204.343 108.943 204.231 108.41 204.009C107.883 203.792 107.411 203.479 106.995 203.068C106.579 202.646 106.263 202.178 106.046 201.662C105.829 201.146 105.721 200.593 105.721 200.001ZM115.767 202.646L116.944 201.855C117.167 202.283 117.448 202.605 117.788 202.822C118.128 203.033 118.529 203.139 118.992 203.139C119.443 203.139 119.807 203.027 120.082 202.805C120.363 202.582 120.504 202.289 120.504 201.926C120.504 201.645 120.407 201.41 120.214 201.223C120.026 201.035 119.701 200.862 119.238 200.704C119.191 200.687 119.115 200.66 119.01 200.625C117.053 199.951 116.074 199.107 116.074 198.094C116.074 197.379 116.338 196.796 116.865 196.345C117.393 195.894 118.078 195.668 118.922 195.668C119.619 195.668 120.217 195.809 120.715 196.09C121.213 196.365 121.57 196.758 121.787 197.268L120.671 197.953C120.507 197.584 120.264 197.3 119.941 197.101C119.625 196.901 119.256 196.802 118.834 196.802C118.43 196.802 118.099 196.916 117.841 197.145C117.589 197.367 117.463 197.654 117.463 198.006C117.463 198.498 117.996 198.911 119.062 199.245C119.262 199.31 119.42 199.359 119.537 199.395C120.41 199.676 121.017 199.998 121.356 200.361C121.702 200.719 121.875 201.193 121.875 201.785C121.875 202.547 121.603 203.165 121.058 203.64C120.519 204.108 119.812 204.343 118.939 204.343C118.189 204.343 117.551 204.202 117.023 203.921C116.502 203.64 116.083 203.215 115.767 202.646ZM134.962 199.069C134.915 198.36 134.678 197.815 134.25 197.435C133.828 197.048 133.248 196.854 132.51 196.854C131.842 196.854 131.285 197.057 130.84 197.461C130.395 197.859 130.137 198.396 130.066 199.069H134.962ZM136.438 200.186H130.066V200.309C130.066 201.17 130.312 201.867 130.805 202.4C131.297 202.928 131.938 203.191 132.729 203.191C133.269 203.191 133.755 203.048 134.188 202.761C134.622 202.468 135.006 202.028 135.34 201.442L136.386 202.146C135.981 202.872 135.466 203.42 134.839 203.789C134.212 204.158 133.485 204.343 132.659 204.343C131.435 204.343 130.444 203.938 129.688 203.13C128.933 202.321 128.555 201.261 128.555 199.948C128.555 198.688 128.93 197.657 129.68 196.854C130.43 196.052 131.394 195.65 132.571 195.65C133.761 195.65 134.701 196.031 135.393 196.793C136.09 197.555 136.438 198.595 136.438 199.913V200.186ZM138.592 204V190.377H139.998V204H138.592ZM154.359 202.093V203.692C153.996 203.909 153.586 204.07 153.129 204.176C152.678 204.287 152.188 204.343 151.661 204.343C150.419 204.343 149.417 203.95 148.655 203.165C147.899 202.374 147.521 201.337 147.521 200.054C147.521 198.765 147.914 197.713 148.699 196.898C149.484 196.078 150.489 195.668 151.714 195.668C152.159 195.668 152.593 195.715 153.015 195.809C153.442 195.902 153.844 196.04 154.219 196.222V197.698C153.867 197.47 153.504 197.297 153.129 197.18C152.754 197.057 152.373 196.995 151.986 196.995C151.084 196.995 150.36 197.279 149.815 197.848C149.271 198.41 148.998 199.16 148.998 200.098C148.998 200.924 149.271 201.615 149.815 202.172C150.366 202.729 151.055 203.007 151.881 203.007C152.297 203.007 152.704 202.934 153.103 202.787C153.501 202.641 153.92 202.409 154.359 202.093ZM156.293 204V195.958H157.515V197.628C157.884 196.931 158.276 196.433 158.692 196.134C159.108 195.835 159.615 195.686 160.213 195.686C160.377 195.686 160.535 195.7 160.688 195.729C160.84 195.753 160.992 195.791 161.145 195.844L160.688 197.083C160.529 197.03 160.38 196.992 160.239 196.969C160.099 196.939 159.964 196.925 159.835 196.925C159.108 196.925 158.563 197.188 158.2 197.716C157.837 198.237 157.655 199.025 157.655 200.08V204H156.293ZM168.308 199.069C168.261 198.36 168.023 197.815 167.596 197.435C167.174 197.048 166.594 196.854 165.855 196.854C165.188 196.854 164.631 197.057 164.186 197.461C163.74 197.859 163.482 198.396 163.412 199.069H168.308ZM169.784 200.186H163.412V200.309C163.412 201.17 163.658 201.867 164.15 202.4C164.643 202.928 165.284 203.191 166.075 203.191C166.614 203.191 167.101 203.048 167.534 202.761C167.968 202.468 168.352 202.028 168.686 201.442L169.731 202.146C169.327 202.872 168.812 203.42 168.185 203.789C167.558 204.158 166.831 204.343 166.005 204.343C164.78 204.343 163.79 203.938 163.034 203.13C162.278 202.321 161.9 201.261 161.9 199.948C161.9 198.688 162.275 197.657 163.025 196.854C163.775 196.052 164.739 195.65 165.917 195.65C167.106 195.65 168.047 196.031 168.738 196.793C169.436 197.555 169.784 198.595 169.784 199.913V200.186ZM164.563 194.692L166.356 191.634H168.123L165.618 194.692H164.563ZM178.02 200.019C178.02 199.122 177.771 198.401 177.272 197.856C176.774 197.306 176.118 197.03 175.304 197.03C174.489 197.03 173.854 197.279 173.396 197.777C172.939 198.275 172.711 198.964 172.711 199.843C172.711 200.833 172.942 201.609 173.405 202.172C173.868 202.729 174.507 203.007 175.321 203.007C176.165 203.007 176.824 202.743 177.299 202.216C177.779 201.688 178.02 200.956 178.02 200.019ZM179.355 190.377V204H178.02V202.541C177.703 203.121 177.293 203.566 176.789 203.877C176.285 204.188 175.723 204.343 175.102 204.343C173.947 204.343 173.016 203.947 172.307 203.156C171.604 202.359 171.252 201.308 171.252 200.001C171.252 198.683 171.598 197.631 172.289 196.846C172.98 196.061 173.9 195.668 175.049 195.668C175.717 195.668 176.297 195.82 176.789 196.125C177.281 196.424 177.68 196.872 177.984 197.47V190.377H179.355ZM181.913 192.082C181.913 191.807 182.01 191.572 182.203 191.379C182.402 191.18 182.643 191.08 182.924 191.08C183.199 191.08 183.434 191.18 183.627 191.379C183.826 191.578 183.926 191.818 183.926 192.1C183.926 192.375 183.829 192.609 183.636 192.803C183.442 192.996 183.205 193.093 182.924 193.093C182.643 193.093 182.402 192.996 182.203 192.803C182.01 192.609 181.913 192.369 181.913 192.082ZM182.238 204V195.958H183.627V204H182.238ZM186.738 197.092H185.262V195.958H186.738V192.715H188.145V195.958H189.621V197.092H188.145V204H186.738V197.092ZM191.994 200.001C191.994 200.851 192.278 201.571 192.847 202.163C193.415 202.749 194.104 203.042 194.912 203.042C195.715 203.042 196.397 202.749 196.96 202.163C197.522 201.571 197.804 200.851 197.804 200.001C197.804 199.151 197.522 198.434 196.96 197.848C196.397 197.256 195.715 196.96 194.912 196.96C194.098 196.96 193.406 197.256 192.838 197.848C192.275 198.434 191.994 199.151 191.994 200.001ZM190.535 200.001C190.535 199.409 190.644 198.853 190.86 198.331C191.077 197.804 191.394 197.335 191.81 196.925C192.226 196.515 192.697 196.204 193.225 195.993C193.752 195.776 194.314 195.668 194.912 195.668C195.498 195.668 196.052 195.776 196.573 195.993C197.101 196.21 197.578 196.526 198.006 196.942C198.422 197.347 198.738 197.812 198.955 198.34C199.172 198.861 199.28 199.415 199.28 200.001C199.28 200.587 199.172 201.141 198.955 201.662C198.738 202.178 198.422 202.638 198.006 203.042C197.578 203.464 197.098 203.786 196.564 204.009C196.037 204.231 195.486 204.343 194.912 204.343C194.32 204.343 193.758 204.231 193.225 204.009C192.697 203.792 192.226 203.479 191.81 203.068C191.394 202.646 191.077 202.178 190.86 201.662C190.644 201.146 190.535 200.593 190.535 200.001ZM212.895 200.054C212.895 199.146 212.646 198.416 212.147 197.865C211.655 197.309 211.011 197.03 210.214 197.03C209.388 197.03 208.743 197.285 208.28 197.795C207.817 198.305 207.586 199.017 207.586 199.931C207.586 200.903 207.817 201.653 208.28 202.181C208.749 202.708 209.411 202.972 210.267 202.972C211.087 202.972 211.729 202.717 212.191 202.207C212.66 201.691 212.895 200.974 212.895 200.054ZM214.23 195.958V204H212.895V202.541C212.572 203.127 212.159 203.575 211.655 203.886C211.157 204.19 210.598 204.343 209.977 204.343C208.822 204.343 207.891 203.947 207.182 203.156C206.479 202.359 206.127 201.308 206.127 200.001C206.127 198.677 206.47 197.625 207.155 196.846C207.841 196.061 208.758 195.668 209.906 195.668C210.58 195.668 211.163 195.82 211.655 196.125C212.153 196.424 212.555 196.872 212.859 197.47V195.958H214.23ZM222.51 197.092H221.033V195.958H222.51V192.715H223.916V195.958H225.393V197.092H223.916V204H222.51V197.092ZM228.249 195.958V199.913C228.249 201.067 228.419 201.876 228.759 202.339C229.104 202.796 229.685 203.024 230.499 203.024C231.313 203.024 231.888 202.799 232.222 202.348C232.562 201.891 232.731 201.079 232.731 199.913V195.958H234.138V200.651C234.138 201.864 233.827 202.784 233.206 203.411C232.585 204.032 231.671 204.343 230.464 204.343C229.269 204.343 228.36 204.029 227.739 203.402C227.118 202.775 226.808 201.858 226.808 200.651V195.958H228.249ZM248.227 198.041C247.922 197.771 247.629 197.575 247.348 197.452C247.096 197.329 246.8 197.268 246.46 197.268C245.833 197.268 245.341 197.473 244.983 197.883C244.614 198.287 244.43 198.844 244.43 199.553C244.43 200.232 244.62 200.771 245.001 201.17C245.37 201.58 245.883 201.785 246.539 201.785C246.85 201.785 247.148 201.721 247.436 201.592C247.74 201.445 248.004 201.252 248.227 201.012V203.728C247.852 203.927 247.474 204.085 247.093 204.202C246.688 204.296 246.305 204.343 245.941 204.343C244.57 204.343 243.466 203.903 242.628 203.024C242.341 202.731 242.104 202.409 241.916 202.058C241.734 201.706 241.594 201.325 241.494 200.915C241.4 200.505 241.354 200.057 241.354 199.57C241.354 198.17 241.781 197.033 242.637 196.16C243.498 195.281 244.611 194.842 245.977 194.842C246.404 194.842 246.812 194.889 247.198 194.982C247.573 195.076 247.916 195.214 248.227 195.396V198.041ZM256.919 199.553C256.919 198.85 256.734 198.305 256.365 197.918C255.99 197.508 255.486 197.303 254.854 197.303C254.221 197.303 253.723 197.502 253.359 197.9C252.984 198.311 252.797 198.861 252.797 199.553C252.797 200.25 252.984 200.798 253.359 201.196C253.717 201.589 254.215 201.785 254.854 201.785C255.486 201.785 255.987 201.589 256.356 201.196C256.731 200.804 256.919 200.256 256.919 199.553ZM259.67 195.123V204H256.796V202.559C256.38 203.174 255.914 203.625 255.398 203.912C254.889 204.199 254.291 204.343 253.605 204.343C252.416 204.343 251.47 203.909 250.767 203.042C250.421 202.614 250.157 202.11 249.976 201.53C249.794 200.95 249.703 200.297 249.703 199.57C249.703 198.117 250.075 196.966 250.819 196.116C251.563 195.267 252.56 194.842 253.808 194.842C254.476 194.842 255.05 194.985 255.53 195.272C256.017 195.548 256.433 195.984 256.778 196.582V195.123H259.67ZM264.829 199.588C264.829 200.279 265.014 200.827 265.383 201.231C265.723 201.624 266.215 201.82 266.859 201.82C267.498 201.82 267.996 201.624 268.354 201.231C268.711 200.821 268.89 200.273 268.89 199.588C268.89 198.891 268.711 198.346 268.354 197.953C267.99 197.555 267.492 197.355 266.859 197.355C266.221 197.355 265.729 197.555 265.383 197.953C265.014 198.34 264.829 198.885 264.829 199.588ZM262.052 207.92V195.141H264.935V196.617C265.315 196.049 265.764 195.606 266.279 195.29C266.766 195.003 267.319 194.859 267.94 194.859C268.567 194.859 269.13 194.965 269.628 195.176C270.126 195.381 270.56 195.694 270.929 196.116C271.661 196.954 272.027 198.111 272.027 199.588C272.027 201.006 271.661 202.151 270.929 203.024C270.554 203.47 270.129 203.801 269.654 204.018C269.186 204.234 268.649 204.343 268.046 204.343C267.29 204.343 266.678 204.205 266.209 203.93C265.758 203.666 265.339 203.209 264.952 202.559C264.981 202.699 265.005 202.916 265.022 203.209C265.034 203.379 265.04 203.689 265.04 204.141V207.92H262.052ZM280.685 199.553C280.685 198.85 280.5 198.305 280.131 197.918C279.756 197.508 279.252 197.303 278.619 197.303C277.986 197.303 277.488 197.502 277.125 197.9C276.75 198.311 276.562 198.861 276.562 199.553C276.562 200.25 276.75 200.798 277.125 201.196C277.482 201.589 277.98 201.785 278.619 201.785C279.252 201.785 279.753 201.589 280.122 201.196C280.497 200.804 280.685 200.256 280.685 199.553ZM283.436 195.123V204H280.562V202.559C280.146 203.174 279.68 203.625 279.164 203.912C278.654 204.199 278.057 204.343 277.371 204.343C276.182 204.343 275.235 203.909 274.532 203.042C274.187 202.614 273.923 202.11 273.741 201.53C273.56 200.95 273.469 200.297 273.469 199.57C273.469 198.117 273.841 196.966 274.585 196.116C275.329 195.267 276.325 194.842 277.573 194.842C278.241 194.842 278.815 194.985 279.296 195.272C279.782 195.548 280.198 195.984 280.544 196.582V195.123H283.436ZM292.172 198.041C291.867 197.771 291.574 197.575 291.293 197.452C291.041 197.329 290.745 197.268 290.405 197.268C289.778 197.268 289.286 197.473 288.929 197.883C288.56 198.287 288.375 198.844 288.375 199.553C288.375 200.232 288.565 200.771 288.946 201.17C289.315 201.58 289.828 201.785 290.484 201.785C290.795 201.785 291.094 201.721 291.381 201.592C291.686 201.445 291.949 201.252 292.172 201.012V203.728C291.797 203.927 291.419 204.085 291.038 204.202C290.634 204.296 290.25 204.343 289.887 204.343C288.516 204.343 287.411 203.903 286.573 203.024C286.286 202.731 286.049 202.409 285.861 202.058C285.68 201.706 285.539 201.325 285.439 200.915C285.346 200.505 285.299 200.057 285.299 199.57C285.299 198.17 285.727 197.033 286.582 196.16C287.443 195.281 288.557 194.842 289.922 194.842C290.35 194.842 290.757 194.889 291.144 194.982C291.519 195.076 291.861 195.214 292.172 195.396V198.041ZM294.026 204V195.123H297.155V204H294.026ZM294.422 192.838H294.439C294.439 192.51 294.554 192.24 294.782 192.029C295.011 191.801 295.286 191.687 295.608 191.687C295.948 191.687 296.227 191.795 296.443 192.012C296.666 192.229 296.777 192.504 296.777 192.838C296.777 193.178 296.663 193.459 296.435 193.682C296.212 193.91 295.937 194.024 295.608 194.024C295.274 194.024 294.993 193.904 294.765 193.664C294.536 193.441 294.422 193.166 294.422 192.838ZM306.507 199.57C306.507 198.873 306.328 198.328 305.971 197.936C305.59 197.537 305.086 197.338 304.459 197.338C303.826 197.338 303.328 197.537 302.965 197.936C302.602 198.334 302.42 198.879 302.42 199.57C302.42 200.268 302.602 200.815 302.965 201.214C303.322 201.606 303.82 201.803 304.459 201.803C305.092 201.803 305.596 201.606 305.971 201.214C306.328 200.821 306.507 200.273 306.507 199.57ZM309.284 190.377V204H306.401V202.559C306.003 203.162 305.552 203.607 305.048 203.895C304.579 204.193 304.028 204.343 303.396 204.343C302.153 204.343 301.16 203.909 300.416 203.042C299.678 202.175 299.309 201.018 299.309 199.57C299.309 198.164 299.681 197.019 300.425 196.134C301.163 195.272 302.118 194.842 303.29 194.842C304.04 194.842 304.649 194.979 305.118 195.255C305.569 195.507 305.991 195.955 306.384 196.6C306.36 196.441 306.337 196.201 306.313 195.879C306.29 195.527 306.278 195.24 306.278 195.018V190.377H309.284ZM318.372 199.553C318.372 198.85 318.188 198.305 317.818 197.918C317.443 197.508 316.939 197.303 316.307 197.303C315.674 197.303 315.176 197.502 314.812 197.9C314.438 198.311 314.25 198.861 314.25 199.553C314.25 200.25 314.438 200.798 314.812 201.196C315.17 201.589 315.668 201.785 316.307 201.785C316.939 201.785 317.44 201.589 317.81 201.196C318.185 200.804 318.372 200.256 318.372 199.553ZM321.123 195.123V204H318.249V202.559C317.833 203.174 317.367 203.625 316.852 203.912C316.342 204.199 315.744 204.343 315.059 204.343C313.869 204.343 312.923 203.909 312.22 203.042C311.874 202.614 311.61 202.11 311.429 201.53C311.247 200.95 311.156 200.297 311.156 199.57C311.156 198.117 311.528 196.966 312.272 196.116C313.017 195.267 314.013 194.842 315.261 194.842C315.929 194.842 316.503 194.985 316.983 195.272C317.47 195.548 317.886 195.984 318.231 196.582V195.123H321.123ZM330.272 199.57C330.272 198.873 330.094 198.328 329.736 197.936C329.355 197.537 328.852 197.338 328.225 197.338C327.592 197.338 327.094 197.537 326.73 197.936C326.367 198.334 326.186 198.879 326.186 199.57C326.186 200.268 326.367 200.815 326.73 201.214C327.088 201.606 327.586 201.803 328.225 201.803C328.857 201.803 329.361 201.606 329.736 201.214C330.094 200.821 330.272 200.273 330.272 199.57ZM333.05 190.377V204H330.167V202.559C329.769 203.162 329.317 203.607 328.813 203.895C328.345 204.193 327.794 204.343 327.161 204.343C325.919 204.343 324.926 203.909 324.182 203.042C323.443 202.175 323.074 201.018 323.074 199.57C323.074 198.164 323.446 197.019 324.19 196.134C324.929 195.272 325.884 194.842 327.056 194.842C327.806 194.842 328.415 194.979 328.884 195.255C329.335 195.507 329.757 195.955 330.149 196.6C330.126 196.441 330.103 196.201 330.079 195.879C330.056 195.527 330.044 195.24 330.044 195.018V190.377H333.05ZM347.798 199.57C347.798 198.873 347.619 198.328 347.262 197.936C346.881 197.537 346.377 197.338 345.75 197.338C345.117 197.338 344.619 197.537 344.256 197.936C343.893 198.334 343.711 198.879 343.711 199.57C343.711 200.268 343.893 200.815 344.256 201.214C344.613 201.606 345.111 201.803 345.75 201.803C346.383 201.803 346.887 201.606 347.262 201.214C347.619 200.821 347.798 200.273 347.798 199.57ZM350.575 190.377V204H347.692V202.559C347.294 203.162 346.843 203.607 346.339 203.895C345.87 204.193 345.319 204.343 344.687 204.343C343.444 204.343 342.451 203.909 341.707 203.042C340.969 202.175 340.6 201.018 340.6 199.57C340.6 198.164 340.972 197.019 341.716 196.134C342.454 195.272 343.409 194.842 344.581 194.842C345.331 194.842 345.94 194.979 346.409 195.255C346.86 195.507 347.282 195.955 347.675 196.6C347.651 196.441 347.628 196.201 347.604 195.879C347.581 195.527 347.569 195.24 347.569 195.018V190.377H350.575ZM359.013 198.419C358.96 197.927 358.77 197.525 358.441 197.215C358.113 196.904 357.712 196.749 357.237 196.749C356.739 196.749 356.335 196.887 356.024 197.162C355.702 197.473 355.5 197.892 355.418 198.419H359.013ZM362.098 200.186H355.348C355.365 200.877 355.538 201.404 355.866 201.768C356.206 202.143 356.698 202.33 357.343 202.33C357.812 202.33 358.213 202.239 358.547 202.058C358.887 201.864 359.133 201.601 359.285 201.267L361.641 202.216C361.365 202.89 360.867 203.411 360.146 203.78C359.432 204.155 358.556 204.343 357.519 204.343C355.972 204.343 354.729 203.909 353.792 203.042C352.86 202.198 352.395 201.07 352.395 199.658C352.395 198.281 352.86 197.13 353.792 196.204C354.724 195.296 355.907 194.842 357.343 194.842C358.808 194.842 359.965 195.302 360.814 196.222C361.248 196.696 361.57 197.25 361.781 197.883C361.992 198.51 362.098 199.228 362.098 200.036V200.186ZM372.337 199.588C372.337 200.279 372.521 200.827 372.891 201.231C373.23 201.624 373.723 201.82 374.367 201.82C375.006 201.82 375.504 201.624 375.861 201.231C376.219 200.821 376.397 200.273 376.397 199.588C376.397 198.891 376.219 198.346 375.861 197.953C375.498 197.555 375 197.355 374.367 197.355C373.729 197.355 373.236 197.555 372.891 197.953C372.521 198.34 372.337 198.885 372.337 199.588ZM369.56 207.92V195.141H372.442V196.617C372.823 196.049 373.271 195.606 373.787 195.29C374.273 195.003 374.827 194.859 375.448 194.859C376.075 194.859 376.638 194.965 377.136 195.176C377.634 195.381 378.067 195.694 378.437 196.116C379.169 196.954 379.535 198.111 379.535 199.588C379.535 201.006 379.169 202.151 378.437 203.024C378.062 203.47 377.637 203.801 377.162 204.018C376.693 204.234 376.157 204.343 375.554 204.343C374.798 204.343 374.186 204.205 373.717 203.93C373.266 203.666 372.847 203.209 372.46 202.559C372.489 202.699 372.513 202.916 372.53 203.209C372.542 203.379 372.548 203.689 372.548 204.141V207.92H369.56ZM388.192 199.553C388.192 198.85 388.008 198.305 387.639 197.918C387.264 197.508 386.76 197.303 386.127 197.303C385.494 197.303 384.996 197.502 384.633 197.9C384.258 198.311 384.07 198.861 384.07 199.553C384.07 200.25 384.258 200.798 384.633 201.196C384.99 201.589 385.488 201.785 386.127 201.785C386.76 201.785 387.261 201.589 387.63 201.196C388.005 200.804 388.192 200.256 388.192 199.553ZM390.943 195.123V204H388.069V202.559C387.653 203.174 387.188 203.625 386.672 203.912C386.162 204.199 385.564 204.343 384.879 204.343C383.689 204.343 382.743 203.909 382.04 203.042C381.694 202.614 381.431 202.11 381.249 201.53C381.067 200.95 380.977 200.297 380.977 199.57C380.977 198.117 381.349 196.966 382.093 196.116C382.837 195.267 383.833 194.842 385.081 194.842C385.749 194.842 386.323 194.985 386.804 195.272C387.29 195.548 387.706 195.984 388.052 196.582V195.123H390.943ZM400.075 199.535C400.075 198.85 399.896 198.311 399.539 197.918C399.152 197.531 398.643 197.338 398.01 197.338C397.377 197.338 396.867 197.531 396.48 197.918C396.105 198.311 395.918 198.85 395.918 199.535C395.918 200.227 396.105 200.76 396.48 201.135C396.861 201.533 397.371 201.732 398.01 201.732C398.637 201.732 399.141 201.533 399.521 201.135C399.891 200.766 400.075 200.232 400.075 199.535ZM402.826 195.123V203.982C402.826 205.324 402.419 206.314 401.604 206.953C401.212 207.27 400.696 207.51 400.058 207.674C399.419 207.838 398.669 207.92 397.808 207.92C396.407 207.92 395.32 207.662 394.547 207.146C393.773 206.625 393.36 205.901 393.308 204.976H396.551C396.609 205.257 396.765 205.471 397.017 205.617C397.274 205.775 397.617 205.854 398.045 205.854C398.713 205.854 399.179 205.693 399.442 205.371C399.694 205.049 399.82 204.363 399.82 203.314V202.506C399.486 203.068 399.067 203.481 398.563 203.745C398.042 204.021 397.436 204.158 396.744 204.158C395.572 204.158 394.632 203.733 393.923 202.884C393.577 202.468 393.313 201.979 393.132 201.416C392.95 200.848 392.859 200.209 392.859 199.5C392.859 198.082 393.231 196.948 393.976 196.099C394.345 195.677 394.778 195.363 395.276 195.158C395.78 194.947 396.343 194.842 396.964 194.842C397.626 194.842 398.2 194.979 398.687 195.255C399.167 195.513 399.583 195.943 399.935 196.547V195.123H402.826ZM411.492 199.588C411.492 198.926 411.325 198.404 410.991 198.023C410.646 197.643 410.194 197.452 409.638 197.452C409.063 197.452 408.612 197.643 408.284 198.023C407.95 198.393 407.783 198.914 407.783 199.588C407.783 200.244 407.944 200.76 408.267 201.135C408.618 201.521 409.075 201.715 409.638 201.715C410.2 201.715 410.657 201.521 411.009 201.135C411.331 200.748 411.492 200.232 411.492 199.588ZM414.604 199.588C414.604 200.238 414.478 200.845 414.226 201.407C413.962 202.005 413.602 202.521 413.145 202.954C412.629 203.435 412.096 203.783 411.545 204C410.971 204.229 410.335 204.343 409.638 204.343C408.935 204.343 408.299 204.229 407.73 204C407.15 203.771 406.614 203.426 406.122 202.963C405.636 202.494 405.284 201.976 405.067 201.407C404.815 200.862 404.689 200.256 404.689 199.588C404.689 198.938 404.815 198.325 405.067 197.751C405.302 197.171 405.656 196.655 406.131 196.204C406.594 195.759 407.127 195.416 407.73 195.176C408.305 194.953 408.94 194.842 409.638 194.842C410.329 194.842 410.965 194.953 411.545 195.176C412.148 195.416 412.682 195.759 413.145 196.204C413.631 196.644 413.991 197.159 414.226 197.751C414.478 198.325 414.604 198.938 414.604 199.588Z" fill="white"/>
</svg>
