<svg width="461" height="168" viewBox="0 0 461 168" fill="none" xmlns="http://www.w3.org/2000/svg">
<path d="M25.4067 146.4H14.3517C9.93341 146.4 6.35168 142.818 6.35168 138.4V11.2002" stroke="white" stroke-width="1.5"/>
<path d="M11.9534 5.66272C11.9534 8.2973 9.52868 10.5754 6.35168 10.5754C3.17467 10.5754 0.75 8.2973 0.75 5.66272C0.75 3.02814 3.17467 0.75 6.35168 0.75C9.52868 0.75 11.9534 3.02814 11.9534 5.66272Z" stroke="white" stroke-width="1.5"/>
<rect x="24" y="107" width="234" height="61" rx="10" fill="#002A61"/>
<path d="M52.098 129.148L53.7 133H55.374L49.272 118.78L43.008 133H44.664L46.302 129.148H52.098ZM51.504 127.744H46.914L49.236 122.308L51.504 127.744ZM58.564 124.54H57.124V137.752H58.564V124.54ZM57.844 120.328C57.286 120.328 56.818 120.796 56.818 121.354C56.818 121.93 57.286 122.38 57.844 122.38C58.402 122.38 58.87 121.93 58.87 121.354C58.87 120.796 58.402 120.328 57.844 120.328ZM62.8969 124.54H61.4569V129.418C61.4569 131.668 62.3029 133.234 64.8049 133.234C67.3069 133.234 68.1529 131.668 68.1529 129.418V124.54H66.7129V129.256C66.7129 130.678 66.5509 131.902 64.8049 131.902C63.0589 131.902 62.8969 130.678 62.8969 129.256V124.54ZM75.4018 125.872C75.0238 124.99 74.1238 124.306 73.1518 124.306C71.7838 124.306 70.6318 125.278 70.6318 126.7C70.6318 129.364 74.4478 128.716 74.4478 130.606C74.4478 131.38 73.8538 131.902 73.0798 131.902C72.1258 131.902 71.7118 131.344 71.3518 130.552L70.0738 131.092C70.5238 132.424 71.6398 133.234 73.0618 133.234C74.6278 133.234 75.9238 132.082 75.9238 130.48C75.9238 129.058 74.9518 128.464 73.9618 128.05C72.9718 127.636 71.9998 127.348 71.9998 126.574C71.9998 126.034 72.5398 125.638 73.0438 125.638C73.5658 125.638 73.9978 126.052 74.1958 126.502L75.4018 125.872ZM79.4773 125.872H80.9893V124.54H79.4773V121.498H78.0373V124.54H77.1553V125.872H78.0373V133H79.4773V125.872ZM85.7995 125.638C87.5815 125.638 88.6435 127.006 88.6435 128.698C88.6435 130.408 87.6715 131.902 85.8175 131.902C84.0175 131.902 83.0455 130.336 83.0455 128.68C83.0455 127.096 84.1255 125.638 85.7995 125.638ZM90.0115 124.54H88.5715V125.746H88.5355C87.8335 124.846 86.7895 124.306 85.6375 124.306C83.0995 124.306 81.5695 126.376 81.5695 128.788C81.5695 131.128 83.1355 133.234 85.6195 133.234C86.8075 133.234 87.7975 132.766 88.5355 131.83H88.5715V133H90.0115V124.54ZM94.1182 124.54H92.6782V133H94.1182V128.626C94.1182 127.348 94.2982 125.638 95.9902 125.638C97.3762 125.638 97.5022 127.15 97.5022 128.194V133H98.9422V128.518C98.9422 127.24 99.1222 125.638 100.778 125.638C102.254 125.638 102.326 126.988 102.326 128.086V133H103.766V127.852C103.766 126.07 103.226 124.306 101.066 124.306C100.04 124.306 99.0322 124.774 98.5282 125.71C98.0782 124.828 97.1782 124.306 96.1882 124.306C95.3242 124.306 94.6042 124.756 94.1542 125.458H94.1182V124.54ZM110.185 133.234C112.651 133.234 114.631 131.272 114.631 128.788C114.631 126.304 112.669 124.306 110.185 124.306C107.701 124.306 105.739 126.304 105.739 128.788C105.739 131.272 107.719 133.234 110.185 133.234ZM110.185 125.638C111.967 125.638 113.191 127.06 113.191 128.77C113.191 130.498 111.967 131.902 110.185 131.902C108.403 131.902 107.179 130.498 107.179 128.77C107.179 127.06 108.403 125.638 110.185 125.638ZM121.228 125.872C120.85 124.99 119.95 124.306 118.978 124.306C117.61 124.306 116.458 125.278 116.458 126.7C116.458 129.364 120.274 128.716 120.274 130.606C120.274 131.38 119.68 131.902 118.906 131.902C117.952 131.902 117.538 131.344 117.178 130.552L115.9 131.092C116.35 132.424 117.466 133.234 118.888 133.234C120.454 133.234 121.75 132.082 121.75 130.48C121.75 129.058 120.778 128.464 119.788 128.05C118.798 127.636 117.826 127.348 117.826 126.574C117.826 126.034 118.366 125.638 118.87 125.638C119.392 125.638 119.824 126.052 120.022 126.502L121.228 125.872ZM136.691 129.076C136.835 126.556 135.395 124.306 132.677 124.306C130.031 124.306 128.573 126.376 128.573 128.878C128.573 131.308 130.193 133.234 132.713 133.234C134.441 133.234 135.809 132.37 136.619 130.858L135.395 130.156C134.837 131.164 134.045 131.902 132.821 131.902C131.183 131.902 130.067 130.642 130.049 129.076H136.691ZM130.121 127.852C130.301 126.628 131.453 125.638 132.695 125.638C133.955 125.638 134.981 126.628 135.179 127.852H130.121ZM140.067 118.15H138.627V133H140.067V118.15ZM154.56 125.152C153.804 124.612 152.868 124.306 151.95 124.306C149.466 124.306 147.432 126.25 147.432 128.77C147.432 131.326 149.376 133.234 151.932 133.234C152.94 133.234 153.786 132.928 154.614 132.37V130.444H154.578C153.876 131.362 153.03 131.902 151.824 131.902C150.06 131.902 148.908 130.444 148.908 128.77C148.908 127.078 150.15 125.638 151.896 125.638C153.03 125.638 153.858 126.214 154.524 127.06H154.56V125.152ZM158.206 124.54H156.766V133H158.206V128.77C158.206 127.672 158.278 125.638 159.862 125.638C160.24 125.638 160.438 125.818 160.726 126.016L161.41 124.702C160.996 124.468 160.6 124.306 160.114 124.306C159.178 124.306 158.746 124.792 158.242 125.458H158.206V124.54ZM170.23 129.076C170.374 126.556 168.934 124.306 166.216 124.306C163.57 124.306 162.112 126.376 162.112 128.878C162.112 131.308 163.732 133.234 166.252 133.234C167.98 133.234 169.348 132.37 170.158 130.858L168.934 130.156C168.376 131.164 167.584 131.902 166.36 131.902C164.722 131.902 163.606 130.642 163.588 129.076H170.23ZM163.66 127.852C163.84 126.628 164.992 125.638 166.234 125.638C167.494 125.638 168.52 126.628 168.718 127.852H163.66ZM167.224 119.608L165.082 122.56L165.982 123.064L168.736 120.292L167.224 119.608ZM175.712 125.638C177.494 125.638 178.556 127.006 178.556 128.698C178.556 130.408 177.584 131.902 175.73 131.902C173.93 131.902 172.958 130.336 172.958 128.68C172.958 127.096 174.038 125.638 175.712 125.638ZM178.484 133H179.924V118.15H178.484V125.746H178.448C177.764 124.846 176.684 124.306 175.55 124.306C173.012 124.306 171.482 126.376 171.482 128.788C171.482 131.128 173.048 133.234 175.532 133.234C176.684 133.234 177.746 132.748 178.448 131.83H178.484V133ZM184.3 124.54H182.86V133H184.3V124.54ZM183.58 120.328C183.022 120.328 182.554 120.796 182.554 121.354C182.554 121.93 183.022 122.38 183.58 122.38C184.138 122.38 184.606 121.93 184.606 121.354C184.606 120.796 184.138 120.328 183.58 120.328ZM188.813 125.872H190.325V124.54H188.813V121.498H187.373V124.54H186.491V125.872H187.373V133H188.813V125.872ZM195.315 133.234C197.781 133.234 199.761 131.272 199.761 128.788C199.761 126.304 197.799 124.306 195.315 124.306C192.831 124.306 190.869 126.304 190.869 128.788C190.869 131.272 192.849 133.234 195.315 133.234ZM195.315 125.638C197.097 125.638 198.321 127.06 198.321 128.77C198.321 130.498 197.097 131.902 195.315 131.902C193.533 131.902 192.309 130.498 192.309 128.77C192.309 127.06 193.533 125.638 195.315 125.638ZM210.78 125.638C212.562 125.638 213.624 127.006 213.624 128.698C213.624 130.408 212.652 131.902 210.798 131.902C208.998 131.902 208.026 130.336 208.026 128.68C208.026 127.096 209.106 125.638 210.78 125.638ZM214.992 124.54H213.552V125.746H213.516C212.814 124.846 211.77 124.306 210.618 124.306C208.08 124.306 206.55 126.376 206.55 128.788C206.55 131.128 208.116 133.234 210.6 133.234C211.788 133.234 212.778 132.766 213.516 131.83H213.552V133H214.992V124.54ZM224.708 125.872H226.22V124.54H224.708V121.498H223.268V124.54H222.386V125.872H223.268V133H224.708V125.872ZM228.852 124.54H227.412V129.418C227.412 131.668 228.258 133.234 230.76 133.234C233.262 133.234 234.108 131.668 234.108 129.418V124.54H232.668V129.256C232.668 130.678 232.506 131.902 230.76 131.902C229.014 131.902 228.852 130.678 228.852 129.256V124.54ZM50.982 146.754C50.418 146.37 49.848 146.178 49.272 146.178C48.96 146.178 48.666 146.232 48.39 146.34C48.126 146.448 47.892 146.604 47.688 146.808C47.484 147 47.322 147.234 47.202 147.51C47.094 147.774 47.04 148.074 47.04 148.41C47.04 148.734 47.094 149.034 47.202 149.31C47.322 149.574 47.478 149.808 47.67 150.012C47.874 150.204 48.114 150.354 48.39 150.462C48.666 150.57 48.96 150.624 49.272 150.624C49.884 150.624 50.454 150.414 50.982 149.994V152.766C50.178 153.114 49.416 153.288 48.696 153.288C48.024 153.288 47.382 153.174 46.77 152.946C46.17 152.718 45.636 152.394 45.168 151.974C44.712 151.542 44.346 151.032 44.07 150.444C43.794 149.844 43.656 149.178 43.656 148.446C43.656 147.714 43.788 147.048 44.052 146.448C44.316 145.836 44.676 145.314 45.132 144.882C45.588 144.438 46.128 144.096 46.752 143.856C47.388 143.604 48.066 143.478 48.786 143.478C49.578 143.478 50.31 143.646 50.982 143.982V146.754ZM55.8642 148.356C55.8642 148.656 55.9182 148.938 56.0262 149.202C56.1342 149.454 56.2782 149.676 56.4582 149.868C56.6502 150.06 56.8722 150.21 57.1242 150.318C57.3882 150.426 57.6702 150.48 57.9702 150.48C58.2582 150.48 58.5282 150.426 58.7802 150.318C59.0442 150.21 59.2662 150.06 59.4462 149.868C59.6382 149.676 59.7882 149.454 59.8962 149.202C60.0162 148.95 60.0762 148.68 60.0762 148.392C60.0762 148.104 60.0162 147.834 59.8962 147.582C59.7882 147.318 59.6382 147.09 59.4462 146.898C59.2662 146.706 59.0442 146.556 58.7802 146.448C58.5282 146.34 58.2582 146.286 57.9702 146.286C57.6702 146.286 57.3882 146.34 57.1242 146.448C56.8722 146.556 56.6502 146.706 56.4582 146.898C56.2782 147.09 56.1342 147.312 56.0262 147.564C55.9182 147.804 55.8642 148.068 55.8642 148.356ZM59.9682 143.766H63.2442V153H59.9682V151.974C59.2722 152.85 58.3302 153.288 57.1422 153.288C56.4702 153.288 55.8522 153.168 55.2882 152.928C54.7242 152.676 54.2322 152.328 53.8122 151.884C53.3922 151.44 53.0622 150.918 52.8222 150.318C52.5942 149.718 52.4802 149.064 52.4802 148.356C52.4802 147.696 52.5942 147.072 52.8222 146.484C53.0502 145.884 53.3682 145.362 53.7762 144.918C54.1842 144.474 54.6702 144.126 55.2342 143.874C55.7982 143.61 56.4222 143.478 57.1062 143.478C58.2582 143.478 59.2122 143.88 59.9682 144.684V143.766ZM72.8233 148.41C72.8233 148.122 72.7693 147.852 72.6613 147.6C72.5653 147.336 72.4213 147.108 72.2293 146.916C72.0373 146.724 71.8093 146.574 71.5453 146.466C71.2933 146.346 71.0173 146.286 70.7173 146.286C70.4293 146.286 70.1593 146.34 69.9073 146.448C69.6553 146.556 69.4333 146.706 69.2413 146.898C69.0613 147.09 68.9113 147.318 68.7913 147.582C68.6833 147.834 68.6293 148.104 68.6293 148.392C68.6293 148.68 68.6833 148.95 68.7913 149.202C68.8993 149.454 69.0493 149.676 69.2413 149.868C69.4333 150.048 69.6553 150.198 69.9073 150.318C70.1713 150.426 70.4473 150.48 70.7353 150.48C71.0233 150.48 71.2933 150.426 71.5453 150.318C71.7973 150.21 72.0133 150.06 72.1933 149.868C72.3853 149.676 72.5353 149.454 72.6433 149.202C72.7633 148.95 72.8233 148.686 72.8233 148.41ZM68.7193 157.608H65.4613V143.766H68.7193V144.792C69.4153 143.916 70.3633 143.478 71.5633 143.478C72.2233 143.478 72.8353 143.61 73.3993 143.874C73.9753 144.126 74.4733 144.474 74.8933 144.918C75.3133 145.362 75.6373 145.884 75.8653 146.484C76.1053 147.084 76.2253 147.726 76.2253 148.41C76.2253 149.094 76.1053 149.73 75.8653 150.318C75.6373 150.906 75.3133 151.422 74.8933 151.866C74.4853 152.31 73.9993 152.658 73.4353 152.91C72.8713 153.162 72.2593 153.288 71.5993 153.288C70.4473 153.288 69.4873 152.892 68.7193 152.1V157.608ZM81.1064 148.356C81.1064 148.656 81.1604 148.938 81.2684 149.202C81.3764 149.454 81.5204 149.676 81.7004 149.868C81.8924 150.06 82.1144 150.21 82.3664 150.318C82.6304 150.426 82.9124 150.48 83.2124 150.48C83.5004 150.48 83.7704 150.426 84.0224 150.318C84.2864 150.21 84.5084 150.06 84.6884 149.868C84.8804 149.676 85.0304 149.454 85.1384 149.202C85.2584 148.95 85.3184 148.68 85.3184 148.392C85.3184 148.104 85.2584 147.834 85.1384 147.582C85.0304 147.318 84.8804 147.09 84.6884 146.898C84.5084 146.706 84.2864 146.556 84.0224 146.448C83.7704 146.34 83.5004 146.286 83.2124 146.286C82.9124 146.286 82.6304 146.34 82.3664 146.448C82.1144 146.556 81.8924 146.706 81.7004 146.898C81.5204 147.09 81.3764 147.312 81.2684 147.564C81.1604 147.804 81.1064 148.068 81.1064 148.356ZM85.2104 143.766H88.4864V153H85.2104V151.974C84.5144 152.85 83.5724 153.288 82.3844 153.288C81.7124 153.288 81.0944 153.168 80.5304 152.928C79.9664 152.676 79.4744 152.328 79.0544 151.884C78.6344 151.44 78.3044 150.918 78.0644 150.318C77.8364 149.718 77.7224 149.064 77.7224 148.356C77.7224 147.696 77.8364 147.072 78.0644 146.484C78.2924 145.884 78.6104 145.362 79.0184 144.918C79.4264 144.474 79.9124 144.126 80.4764 143.874C81.0404 143.61 81.6644 143.478 82.3484 143.478C83.5004 143.478 84.4544 143.88 85.2104 144.684V143.766ZM97.6695 146.754C97.1055 146.37 96.5355 146.178 95.9595 146.178C95.6475 146.178 95.3535 146.232 95.0775 146.34C94.8135 146.448 94.5795 146.604 94.3755 146.808C94.1715 147 94.0095 147.234 93.8895 147.51C93.7815 147.774 93.7275 148.074 93.7275 148.41C93.7275 148.734 93.7815 149.034 93.8895 149.31C94.0095 149.574 94.1655 149.808 94.3575 150.012C94.5615 150.204 94.8015 150.354 95.0775 150.462C95.3535 150.57 95.6475 150.624 95.9595 150.624C96.5715 150.624 97.1415 150.414 97.6695 149.994V152.766C96.8655 153.114 96.1035 153.288 95.3835 153.288C94.7115 153.288 94.0695 153.174 93.4575 152.946C92.8575 152.718 92.3235 152.394 91.8555 151.974C91.3995 151.542 91.0335 151.032 90.7575 150.444C90.4815 149.844 90.3435 149.178 90.3435 148.446C90.3435 147.714 90.4755 147.048 90.7395 146.448C91.0035 145.836 91.3635 145.314 91.8195 144.882C92.2755 144.438 92.8155 144.096 93.4395 143.856C94.0755 143.604 94.7535 143.478 95.4735 143.478C96.2655 143.478 96.9975 143.646 97.6695 143.982V146.754ZM102.786 143.766V153H99.5277V143.766H102.786ZM99.3117 140.22C99.3117 139.968 99.3597 139.734 99.4557 139.518C99.5517 139.29 99.6837 139.092 99.8517 138.924C100.02 138.756 100.212 138.624 100.428 138.528C100.656 138.432 100.896 138.384 101.148 138.384C101.4 138.384 101.634 138.432 101.85 138.528C102.078 138.624 102.276 138.756 102.444 138.924C102.612 139.092 102.744 139.29 102.84 139.518C102.936 139.734 102.984 139.968 102.984 140.22C102.984 140.472 102.936 140.712 102.84 140.94C102.744 141.156 102.612 141.348 102.444 141.516C102.276 141.684 102.078 141.816 101.85 141.912C101.634 142.008 101.4 142.056 101.148 142.056C100.896 142.056 100.656 142.008 100.428 141.912C100.212 141.816 100.02 141.684 99.8517 141.516C99.6837 141.348 99.5517 141.156 99.4557 140.94C99.3597 140.712 99.3117 140.472 99.3117 140.22ZM108.036 148.356C108.036 148.656 108.09 148.938 108.198 149.202C108.306 149.454 108.45 149.676 108.63 149.868C108.822 150.06 109.044 150.21 109.296 150.318C109.56 150.426 109.842 150.48 110.142 150.48C110.43 150.48 110.7 150.426 110.952 150.318C111.216 150.21 111.438 150.06 111.618 149.868C111.81 149.676 111.96 149.454 112.068 149.202C112.188 148.95 112.248 148.68 112.248 148.392C112.248 148.104 112.188 147.834 112.068 147.582C111.96 147.318 111.81 147.09 111.618 146.898C111.438 146.706 111.216 146.556 110.952 146.448C110.7 146.34 110.43 146.286 110.142 146.286C109.854 146.286 109.578 146.34 109.314 146.448C109.062 146.556 108.84 146.706 108.648 146.898C108.468 147.09 108.318 147.312 108.198 147.564C108.09 147.804 108.036 148.068 108.036 148.356ZM112.14 138.06H115.416V153H112.14V151.974C111.444 152.85 110.502 153.288 109.314 153.288C108.642 153.288 108.024 153.162 107.46 152.91C106.896 152.658 106.404 152.31 105.984 151.866C105.564 151.422 105.234 150.9 104.994 150.3C104.766 149.7 104.652 149.052 104.652 148.356C104.652 147.696 104.76 147.072 104.976 146.484C105.204 145.884 105.522 145.362 105.93 144.918C106.338 144.474 106.824 144.126 107.388 143.874C107.964 143.61 108.594 143.478 109.278 143.478C110.43 143.478 111.384 143.88 112.14 144.684V138.06ZM120.657 148.356C120.657 148.656 120.711 148.938 120.819 149.202C120.927 149.454 121.071 149.676 121.251 149.868C121.443 150.06 121.665 150.21 121.917 150.318C122.181 150.426 122.463 150.48 122.763 150.48C123.051 150.48 123.321 150.426 123.573 150.318C123.837 150.21 124.059 150.06 124.239 149.868C124.431 149.676 124.581 149.454 124.689 149.202C124.809 148.95 124.869 148.68 124.869 148.392C124.869 148.104 124.809 147.834 124.689 147.582C124.581 147.318 124.431 147.09 124.239 146.898C124.059 146.706 123.837 146.556 123.573 146.448C123.321 146.34 123.051 146.286 122.763 146.286C122.463 146.286 122.181 146.34 121.917 146.448C121.665 146.556 121.443 146.706 121.251 146.898C121.071 147.09 120.927 147.312 120.819 147.564C120.711 147.804 120.657 148.068 120.657 148.356ZM124.761 143.766H128.037V153H124.761V151.974C124.065 152.85 123.123 153.288 121.935 153.288C121.263 153.288 120.645 153.168 120.081 152.928C119.517 152.676 119.025 152.328 118.605 151.884C118.185 151.44 117.855 150.918 117.615 150.318C117.387 149.718 117.273 149.064 117.273 148.356C117.273 147.696 117.387 147.072 117.615 146.484C117.843 145.884 118.161 145.362 118.569 144.918C118.977 144.474 119.463 144.126 120.027 143.874C120.591 143.61 121.215 143.478 121.899 143.478C123.051 143.478 124.005 143.88 124.761 144.684V143.766ZM133.278 148.356C133.278 148.656 133.332 148.938 133.44 149.202C133.548 149.454 133.692 149.676 133.872 149.868C134.064 150.06 134.286 150.21 134.538 150.318C134.802 150.426 135.084 150.48 135.384 150.48C135.672 150.48 135.942 150.426 136.194 150.318C136.458 150.21 136.68 150.06 136.86 149.868C137.052 149.676 137.202 149.454 137.31 149.202C137.43 148.95 137.49 148.68 137.49 148.392C137.49 148.104 137.43 147.834 137.31 147.582C137.202 147.318 137.052 147.09 136.86 146.898C136.68 146.706 136.458 146.556 136.194 146.448C135.942 146.34 135.672 146.286 135.384 146.286C135.096 146.286 134.82 146.34 134.556 146.448C134.304 146.556 134.082 146.706 133.89 146.898C133.71 147.09 133.56 147.312 133.44 147.564C133.332 147.804 133.278 148.068 133.278 148.356ZM137.382 138.06H140.658V153H137.382V151.974C136.686 152.85 135.744 153.288 134.556 153.288C133.884 153.288 133.266 153.162 132.702 152.91C132.138 152.658 131.646 152.31 131.226 151.866C130.806 151.422 130.476 150.9 130.236 150.3C130.008 149.7 129.894 149.052 129.894 148.356C129.894 147.696 130.002 147.072 130.218 146.484C130.446 145.884 130.764 145.362 131.172 144.918C131.58 144.474 132.066 144.126 132.63 143.874C133.206 143.61 133.836 143.478 134.52 143.478C135.672 143.478 136.626 143.88 137.382 144.684V138.06ZM152.017 148.356C152.017 148.656 152.071 148.938 152.179 149.202C152.287 149.454 152.431 149.676 152.611 149.868C152.803 150.06 153.025 150.21 153.277 150.318C153.541 150.426 153.823 150.48 154.123 150.48C154.411 150.48 154.681 150.426 154.933 150.318C155.197 150.21 155.419 150.06 155.599 149.868C155.791 149.676 155.941 149.454 156.049 149.202C156.169 148.95 156.229 148.68 156.229 148.392C156.229 148.104 156.169 147.834 156.049 147.582C155.941 147.318 155.791 147.09 155.599 146.898C155.419 146.706 155.197 146.556 154.933 146.448C154.681 146.34 154.411 146.286 154.123 146.286C153.835 146.286 153.559 146.34 153.295 146.448C153.043 146.556 152.821 146.706 152.629 146.898C152.449 147.09 152.299 147.312 152.179 147.564C152.071 147.804 152.017 148.068 152.017 148.356ZM156.121 138.06H159.397V153H156.121V151.974C155.425 152.85 154.483 153.288 153.295 153.288C152.623 153.288 152.005 153.162 151.441 152.91C150.877 152.658 150.385 152.31 149.965 151.866C149.545 151.422 149.215 150.9 148.975 150.3C148.747 149.7 148.633 149.052 148.633 148.356C148.633 147.696 148.741 147.072 148.957 146.484C149.185 145.884 149.503 145.362 149.911 144.918C150.319 144.474 150.805 144.126 151.369 143.874C151.945 143.61 152.575 143.478 153.259 143.478C154.411 143.478 155.365 143.88 156.121 144.684V138.06ZM168.364 147.042C168.256 146.586 168.034 146.22 167.698 145.944C167.362 145.668 166.954 145.53 166.474 145.53C165.97 145.53 165.556 145.662 165.232 145.926C164.92 146.19 164.722 146.562 164.638 147.042H168.364ZM164.548 148.932C164.548 150.336 165.208 151.038 166.528 151.038C167.236 151.038 167.77 150.75 168.13 150.174H171.28C170.644 152.286 169.054 153.342 166.51 153.342C165.73 153.342 165.016 153.228 164.368 153C163.72 152.76 163.162 152.424 162.694 151.992C162.238 151.56 161.884 151.044 161.632 150.444C161.38 149.844 161.254 149.172 161.254 148.428C161.254 147.66 161.374 146.97 161.614 146.358C161.854 145.734 162.196 145.206 162.64 144.774C163.084 144.342 163.618 144.012 164.242 143.784C164.878 143.544 165.592 143.424 166.384 143.424C167.164 143.424 167.866 143.544 168.49 143.784C169.114 144.012 169.642 144.348 170.074 144.792C170.506 145.236 170.836 145.782 171.064 146.43C171.292 147.066 171.406 147.786 171.406 148.59V148.932H164.548ZM186.747 148.41C186.747 148.122 186.693 147.852 186.585 147.6C186.489 147.336 186.345 147.108 186.153 146.916C185.961 146.724 185.733 146.574 185.469 146.466C185.217 146.346 184.941 146.286 184.641 146.286C184.353 146.286 184.083 146.34 183.831 146.448C183.579 146.556 183.357 146.706 183.165 146.898C182.985 147.09 182.835 147.318 182.715 147.582C182.607 147.834 182.553 148.104 182.553 148.392C182.553 148.68 182.607 148.95 182.715 149.202C182.823 149.454 182.973 149.676 183.165 149.868C183.357 150.048 183.579 150.198 183.831 150.318C184.095 150.426 184.371 150.48 184.659 150.48C184.947 150.48 185.217 150.426 185.469 150.318C185.721 150.21 185.937 150.06 186.117 149.868C186.309 149.676 186.459 149.454 186.567 149.202C186.687 148.95 186.747 148.686 186.747 148.41ZM182.643 157.608H179.385V143.766H182.643V144.792C183.339 143.916 184.287 143.478 185.487 143.478C186.147 143.478 186.759 143.61 187.323 143.874C187.899 144.126 188.397 144.474 188.817 144.918C189.237 145.362 189.561 145.884 189.789 146.484C190.029 147.084 190.149 147.726 190.149 148.41C190.149 149.094 190.029 149.73 189.789 150.318C189.561 150.906 189.237 151.422 188.817 151.866C188.409 152.31 187.923 152.658 187.359 152.91C186.795 153.162 186.183 153.288 185.523 153.288C184.371 153.288 183.411 152.892 182.643 152.1V157.608ZM195.03 148.356C195.03 148.656 195.084 148.938 195.192 149.202C195.3 149.454 195.444 149.676 195.624 149.868C195.816 150.06 196.038 150.21 196.29 150.318C196.554 150.426 196.836 150.48 197.136 150.48C197.424 150.48 197.694 150.426 197.946 150.318C198.21 150.21 198.432 150.06 198.612 149.868C198.804 149.676 198.954 149.454 199.062 149.202C199.182 148.95 199.242 148.68 199.242 148.392C199.242 148.104 199.182 147.834 199.062 147.582C198.954 147.318 198.804 147.09 198.612 146.898C198.432 146.706 198.21 146.556 197.946 146.448C197.694 146.34 197.424 146.286 197.136 146.286C196.836 146.286 196.554 146.34 196.29 146.448C196.038 146.556 195.816 146.706 195.624 146.898C195.444 147.09 195.3 147.312 195.192 147.564C195.084 147.804 195.03 148.068 195.03 148.356ZM199.134 143.766H202.41V153H199.134V151.974C198.438 152.85 197.496 153.288 196.308 153.288C195.636 153.288 195.018 153.168 194.454 152.928C193.89 152.676 193.398 152.328 192.978 151.884C192.558 151.44 192.228 150.918 191.988 150.318C191.76 149.718 191.646 149.064 191.646 148.356C191.646 147.696 191.76 147.072 191.988 146.484C192.216 145.884 192.534 145.362 192.942 144.918C193.35 144.474 193.836 144.126 194.4 143.874C194.964 143.61 195.588 143.478 196.272 143.478C197.424 143.478 198.378 143.88 199.134 144.684V143.766ZM207.651 148.338C207.651 148.638 207.705 148.92 207.813 149.184C207.921 149.436 208.065 149.658 208.245 149.85C208.437 150.042 208.659 150.192 208.911 150.3C209.175 150.408 209.457 150.462 209.757 150.462C210.045 150.462 210.315 150.408 210.567 150.3C210.831 150.192 211.053 150.042 211.233 149.85C211.425 149.658 211.575 149.436 211.683 149.184C211.803 148.92 211.863 148.644 211.863 148.356C211.863 148.056 211.803 147.78 211.683 147.528C211.575 147.276 211.425 147.054 211.233 146.862C211.041 146.67 210.813 146.52 210.549 146.412C210.297 146.304 210.033 146.25 209.757 146.25C209.469 146.25 209.199 146.31 208.947 146.43C208.695 146.538 208.473 146.688 208.281 146.88C208.089 147.06 207.933 147.276 207.813 147.528C207.705 147.78 207.651 148.05 207.651 148.338ZM214.959 143.766V152.37C214.959 152.886 214.929 153.348 214.869 153.756C214.809 154.164 214.725 154.524 214.617 154.836C214.473 155.232 214.245 155.598 213.933 155.934C213.633 156.282 213.267 156.582 212.835 156.834C212.403 157.086 211.911 157.284 211.359 157.428C210.819 157.572 210.231 157.644 209.595 157.644C208.875 157.644 208.215 157.554 207.615 157.374C207.015 157.194 206.487 156.942 206.031 156.618C205.587 156.306 205.221 155.934 204.933 155.502C204.645 155.082 204.453 154.62 204.357 154.116H208.029C208.257 154.728 208.773 155.034 209.577 155.034C210.261 155.034 210.783 154.842 211.143 154.458C211.515 154.074 211.701 153.54 211.701 152.856V151.974C211.461 152.202 211.227 152.394 210.999 152.55C210.783 152.694 210.561 152.814 210.333 152.91C210.105 153.006 209.865 153.072 209.613 153.108C209.361 153.156 209.085 153.18 208.785 153.18C208.125 153.18 207.519 153.066 206.967 152.838C206.415 152.61 205.935 152.292 205.527 151.884C205.131 151.476 204.819 150.99 204.591 150.426C204.375 149.85 204.267 149.214 204.267 148.518C204.267 147.81 204.387 147.156 204.627 146.556C204.867 145.944 205.191 145.416 205.599 144.972C206.019 144.516 206.511 144.162 207.075 143.91C207.651 143.646 208.275 143.514 208.947 143.514C210.039 143.514 210.957 143.922 211.701 144.738V143.766H214.959ZM220.256 148.338C220.256 148.65 220.31 148.938 220.418 149.202C220.538 149.454 220.688 149.676 220.868 149.868C221.06 150.06 221.282 150.21 221.534 150.318C221.798 150.426 222.074 150.48 222.362 150.48C222.65 150.48 222.92 150.426 223.172 150.318C223.436 150.21 223.658 150.06 223.838 149.868C224.03 149.676 224.18 149.454 224.288 149.202C224.408 148.938 224.468 148.656 224.468 148.356C224.468 148.068 224.408 147.798 224.288 147.546C224.18 147.282 224.03 147.054 223.838 146.862C223.658 146.67 223.436 146.52 223.172 146.412C222.92 146.304 222.65 146.25 222.362 146.25C222.074 146.25 221.798 146.304 221.534 146.412C221.282 146.52 221.06 146.67 220.868 146.862C220.688 147.054 220.538 147.276 220.418 147.528C220.31 147.78 220.256 148.05 220.256 148.338ZM216.818 148.302C216.818 147.618 216.956 146.982 217.232 146.394C217.508 145.794 217.892 145.278 218.384 144.846C218.876 144.402 219.458 144.054 220.13 143.802C220.814 143.55 221.558 143.424 222.362 143.424C223.154 143.424 223.886 143.55 224.558 143.802C225.242 144.042 225.83 144.384 226.322 144.828C226.826 145.26 227.216 145.782 227.492 146.394C227.768 146.994 227.906 147.66 227.906 148.392C227.906 149.124 227.762 149.796 227.474 150.408C227.198 151.008 226.814 151.53 226.322 151.974C225.83 152.406 225.236 152.742 224.54 152.982C223.856 153.222 223.112 153.342 222.308 153.342C221.516 153.342 220.784 153.222 220.112 152.982C219.44 152.742 218.858 152.4 218.366 151.956C217.886 151.512 217.508 150.984 217.232 150.372C216.956 149.748 216.818 149.058 216.818 148.302Z" fill="white"/>
<path d="M61.1344 8.125V22.3594C61.1344 25.4635 60.3167 27.7812 58.6813 29.3125C57.0459 30.8438 54.5823 31.6094 51.2906 31.6094C47.9469 31.6094 45.4573 30.8438 43.8219 29.3125C42.1865 27.7812 41.3688 25.4635 41.3688 22.3594V8.125H46.2281V21.5938C46.2281 23.4792 46.6448 24.901 47.4781 25.8594C48.3115 26.8073 49.5563 27.2812 51.2125 27.2812C52.8792 27.2812 54.1396 26.8021 54.9938 25.8438C55.8479 24.8854 56.275 23.4688 56.275 21.5938V8.125H61.1344ZM66.2125 31V8.125H71.2906L81.4156 21.4375C81.7073 21.8125 82.025 22.3438 82.3688 23.0312C82.7229 23.7083 83.0875 24.5104 83.4625 25.4375C83.3479 24.7604 83.2646 24.0885 83.2125 23.4219C83.1604 22.7552 83.1344 21.9219 83.1344 20.9219V8.125H87.8063V31H83.0094L72.6031 17.4375C72.3115 17.0625 71.9938 16.5365 71.65 15.8594C71.3063 15.1719 70.9417 14.3542 70.5563 13.4062C70.6709 14.0625 70.7542 14.7292 70.8063 15.4062C70.8584 16.0729 70.8844 16.9167 70.8844 17.9375V31H66.2125ZM121.166 14.0781C120.176 13.1927 119.16 12.5469 118.119 12.1406C117.077 11.724 115.963 11.5156 114.775 11.5156C112.338 11.5156 110.395 12.2448 108.947 13.7031C107.499 15.1615 106.775 17.1198 106.775 19.5781C106.775 21.9844 107.447 23.8958 108.791 25.3125C110.134 26.7188 111.968 27.4219 114.291 27.4219C115.614 27.4219 116.843 27.2031 117.978 26.7656C119.114 26.3177 120.166 25.651 121.134 24.7656L121.103 29.7812C120.061 30.3958 118.968 30.8542 117.822 31.1562C116.686 31.4583 115.489 31.6094 114.228 31.6094C110.582 31.6094 107.588 30.4792 105.244 28.2188C102.91 25.9479 101.744 23.0677 101.744 19.5781C101.744 16.099 102.916 13.2292 105.259 10.9688C107.603 8.70833 110.624 7.57812 114.322 7.57812C115.561 7.57812 116.759 7.70833 117.916 7.96875C119.072 8.22917 120.213 8.63021 121.338 9.17188L121.166 14.0781ZM142.259 31H136.619L130.603 20.3125V31H125.713V8.125H132.713C135.494 8.125 137.577 8.66667 138.963 9.75C140.348 10.8229 141.041 12.4427 141.041 14.6094C141.041 16.1823 140.567 17.526 139.619 18.6406C138.671 19.7552 137.447 20.4062 135.947 20.5938L142.259 31ZM130.603 17.875H131.338C133.317 17.875 134.624 17.6615 135.259 17.2344C135.895 16.7969 136.213 16.0417 136.213 14.9688C136.213 13.8438 135.869 13.0469 135.181 12.5781C134.504 12.099 133.223 11.8594 131.338 11.8594H130.603V17.875ZM145.119 31V8.125H158.588V12.25H150.009V16.9531H158.588V21.1094H150.009V26.8438H158.588V31H145.119ZM156.384 0.1875L151.494 5.95312H149.275L152.353 0.1875H156.384ZM168.291 26.875H171.009C173.572 26.875 175.436 26.2917 176.603 25.125C177.78 23.9583 178.369 22.1094 178.369 19.5781C178.369 17.0573 177.78 15.2135 176.603 14.0469C175.436 12.8698 173.572 12.2812 171.009 12.2812H168.291V26.875ZM163.4 31V8.125H169.634C172.093 8.125 174.03 8.29688 175.447 8.64062C176.864 8.98438 178.108 9.55729 179.181 10.3594C180.567 11.3906 181.614 12.6927 182.322 14.2656C183.041 15.8281 183.4 17.6094 183.4 19.6094C183.4 21.6406 183.035 23.4427 182.306 25.0156C181.577 26.5781 180.509 27.8698 179.103 28.8906C178.061 29.6406 176.9 30.1823 175.619 30.5156C174.348 30.8385 172.483 31 170.025 31H168.291H163.4ZM187.588 31V8.125H192.478V31H187.588ZM206.259 12.2812V31H201.353V12.2812H195.759V8.125H211.884V12.2812H206.259ZM237.916 19.6094C237.916 21.2448 237.608 22.7917 236.994 24.25C236.39 25.7083 235.515 26.9896 234.369 28.0938C233.181 29.2292 231.843 30.099 230.353 30.7031C228.864 31.3073 227.322 31.6094 225.728 31.6094C224.332 31.6094 222.963 31.375 221.619 30.9062C220.285 30.4271 219.061 29.7448 217.947 28.8594C216.509 27.7135 215.405 26.3438 214.634 24.75C213.874 23.1562 213.494 21.4427 213.494 19.6094C213.494 17.9635 213.796 16.4219 214.4 14.9844C215.004 13.5365 215.89 12.25 217.056 11.125C218.202 10.0104 219.53 9.14583 221.041 8.53125C222.561 7.91667 224.124 7.60938 225.728 7.60938C227.322 7.60938 228.869 7.91667 230.369 8.53125C231.879 9.14583 233.213 10.0104 234.369 11.125C235.525 12.25 236.405 13.5365 237.009 14.9844C237.614 16.4323 237.916 17.974 237.916 19.6094ZM225.728 27.25C227.801 27.25 229.509 26.526 230.853 25.0781C232.207 23.6198 232.884 21.7969 232.884 19.6094C232.884 17.4427 232.202 15.6198 230.838 14.1406C229.473 12.6615 227.77 11.9219 225.728 11.9219C223.655 11.9219 221.936 12.6615 220.572 14.1406C219.207 15.6094 218.525 17.4323 218.525 19.6094C218.525 21.8177 219.197 23.6458 220.541 25.0938C221.884 26.5312 223.614 27.25 225.728 27.25ZM256.791 26.875H259.509C262.072 26.875 263.936 26.2917 265.103 25.125C266.28 23.9583 266.869 22.1094 266.869 19.5781C266.869 17.0573 266.28 15.2135 265.103 14.0469C263.936 12.8698 262.072 12.2812 259.509 12.2812H256.791V26.875ZM251.9 31V8.125H258.134C260.593 8.125 262.53 8.29688 263.947 8.64062C265.364 8.98438 266.608 9.55729 267.681 10.3594C269.067 11.3906 270.114 12.6927 270.822 14.2656C271.541 15.8281 271.9 17.6094 271.9 19.6094C271.9 21.6406 271.535 23.4427 270.806 25.0156C270.077 26.5781 269.009 27.8698 267.603 28.8906C266.561 29.6406 265.4 30.1823 264.119 30.5156C262.848 30.8385 260.983 31 258.525 31H256.791H251.9ZM275.994 31V8.125H289.463V12.25H280.884V16.9531H289.463V21.1094H280.884V26.8438H289.463V31H275.994ZM315.963 22.2969L313.4 14.9062C313.327 14.6875 313.233 14.3125 313.119 13.7812C313.004 13.25 312.884 12.599 312.759 11.8281C312.624 12.5677 312.494 13.2344 312.369 13.8281C312.244 14.4115 312.15 14.8021 312.088 15L309.619 22.2969H315.963ZM301.4 31L310.103 8.125H315.697L324.525 31H318.963L317.103 26.1406H308.244L306.65 31H301.4ZM344.791 14.0781C343.801 13.1927 342.785 12.5469 341.744 12.1406C340.702 11.724 339.588 11.5156 338.4 11.5156C335.963 11.5156 334.02 12.2448 332.572 13.7031C331.124 15.1615 330.4 17.1198 330.4 19.5781C330.4 21.9844 331.072 23.8958 332.416 25.3125C333.759 26.7188 335.593 27.4219 337.916 27.4219C339.239 27.4219 340.468 27.2031 341.603 26.7656C342.739 26.3177 343.791 25.651 344.759 24.7656L344.728 29.7812C343.686 30.3958 342.593 30.8542 341.447 31.1562C340.311 31.4583 339.114 31.6094 337.853 31.6094C334.207 31.6094 331.213 30.4792 328.869 28.2188C326.535 25.9479 325.369 23.0677 325.369 19.5781C325.369 16.099 326.541 13.2292 328.884 10.9688C331.228 8.70833 334.249 7.57812 337.947 7.57812C339.186 7.57812 340.384 7.70833 341.541 7.96875C342.697 8.22917 343.838 8.63021 344.963 9.17188L344.791 14.0781ZM369.009 8.125V22.3594C369.009 25.4635 368.192 27.7812 366.556 29.3125C364.921 30.8438 362.457 31.6094 359.166 31.6094C355.822 31.6094 353.332 30.8438 351.697 29.3125C350.061 27.7812 349.244 25.4635 349.244 22.3594V8.125H354.103V21.5938C354.103 23.4792 354.52 24.901 355.353 25.8594C356.186 26.8073 357.431 27.2812 359.088 27.2812C360.754 27.2812 362.015 26.8021 362.869 25.8438C363.723 24.8854 364.15 23.4688 364.15 21.5938V8.125H369.009ZM374.088 31V8.125H387.556V12.25H378.978V16.9531H387.556V21.1094H378.978V26.8438H387.556V31H374.088ZM408.916 31H403.275L397.259 20.3125V31H392.369V8.125H399.369C402.15 8.125 404.233 8.66667 405.619 9.75C407.004 10.8229 407.697 12.4427 407.697 14.6094C407.697 16.1823 407.223 17.526 406.275 18.6406C405.327 19.7552 404.103 20.4062 402.603 20.5938L408.916 31ZM397.259 17.875H397.994C399.973 17.875 401.28 17.6615 401.916 17.2344C402.551 16.7969 402.869 16.0417 402.869 14.9688C402.869 13.8438 402.525 13.0469 401.838 12.5781C401.16 12.099 399.879 11.8594 397.994 11.8594H397.259V17.875ZM416.666 26.875H419.384C421.947 26.875 423.811 26.2917 424.978 25.125C426.155 23.9583 426.744 22.1094 426.744 19.5781C426.744 17.0573 426.155 15.2135 424.978 14.0469C423.811 12.8698 421.947 12.2812 419.384 12.2812H416.666V26.875ZM411.775 31V8.125H418.009C420.468 8.125 422.405 8.29688 423.822 8.64062C425.239 8.98438 426.483 9.55729 427.556 10.3594C428.942 11.3906 429.989 12.6927 430.697 14.2656C431.416 15.8281 431.775 17.6094 431.775 19.6094C431.775 21.6406 431.41 23.4427 430.681 25.0156C429.952 26.5781 428.884 27.8698 427.478 28.8906C426.436 29.6406 425.275 30.1823 423.994 30.5156C422.723 30.8385 420.858 31 418.4 31H416.666H411.775ZM459.291 19.6094C459.291 21.2448 458.983 22.7917 458.369 24.25C457.765 25.7083 456.89 26.9896 455.744 28.0938C454.556 29.2292 453.218 30.099 451.728 30.7031C450.239 31.3073 448.697 31.6094 447.103 31.6094C445.707 31.6094 444.338 31.375 442.994 30.9062C441.66 30.4271 440.436 29.7448 439.322 28.8594C437.884 27.7135 436.78 26.3438 436.009 24.75C435.249 23.1562 434.869 21.4427 434.869 19.6094C434.869 17.9635 435.171 16.4219 435.775 14.9844C436.379 13.5365 437.265 12.25 438.431 11.125C439.577 10.0104 440.905 9.14583 442.416 8.53125C443.936 7.91667 445.499 7.60938 447.103 7.60938C448.697 7.60938 450.244 7.91667 451.744 8.53125C453.254 9.14583 454.588 10.0104 455.744 11.125C456.9 12.25 457.78 13.5365 458.384 14.9844C458.989 16.4323 459.291 17.974 459.291 19.6094ZM447.103 27.25C449.176 27.25 450.884 26.526 452.228 25.0781C453.582 23.6198 454.259 21.7969 454.259 19.6094C454.259 17.4427 453.577 15.6198 452.213 14.1406C450.848 12.6615 449.145 11.9219 447.103 11.9219C445.03 11.9219 443.311 12.6615 441.947 14.1406C440.582 15.6094 439.9 17.4323 439.9 19.6094C439.9 21.8177 440.572 23.6458 441.916 25.0938C443.259 26.5312 444.989 27.25 447.103 27.25ZM53.3063 60.2969L50.7438 52.9062C50.6709 52.6875 50.5771 52.3125 50.4625 51.7812C50.3479 51.25 50.2281 50.599 50.1031 49.8281C49.9677 50.5677 49.8375 51.2344 49.7125 51.8281C49.5875 52.4115 49.4938 52.8021 49.4313 53L46.9625 60.2969H53.3063ZM38.7438 69L47.4469 46.125H53.0406L61.8688 69H56.3063L54.4469 64.1406H45.5875L43.9938 69H38.7438ZM82.6656 50.2812V69H77.7594V50.2812H72.1656V46.125H88.2906V50.2812H82.6656ZM111.134 46.125V60.3594C111.134 63.4635 110.317 65.7812 108.681 67.3125C107.046 68.8438 104.582 69.6094 101.291 69.6094C97.9469 69.6094 95.4573 68.8438 93.8219 67.3125C92.1865 65.7812 91.3688 63.4635 91.3688 60.3594V46.125H96.2281V59.5938C96.2281 61.4792 96.6448 62.901 97.4781 63.8594C98.3115 64.8073 99.5563 65.2812 101.213 65.2812C102.879 65.2812 104.14 64.8021 104.994 63.8438C105.848 62.8854 106.275 61.4688 106.275 59.5938V46.125H111.134ZM114.744 66.0938L117.463 63.0156C117.806 63.8594 118.358 64.526 119.119 65.0156C119.879 65.4948 120.733 65.7344 121.681 65.7344C122.827 65.7344 123.733 65.4635 124.4 64.9219C125.067 64.3802 125.4 63.651 125.4 62.7344C125.4 61.651 124.291 60.5729 122.072 59.5C121.353 59.1562 120.785 58.875 120.369 58.6562C118.369 57.6146 116.983 56.599 116.213 55.6094C115.442 54.6094 115.056 53.4219 115.056 52.0469C115.056 50.1615 115.801 48.6146 117.291 47.4062C118.791 46.1875 120.733 45.5781 123.119 45.5781C124.504 45.5781 125.697 45.8229 126.697 46.3125C127.707 46.7917 128.598 47.5469 129.369 48.5781L126.478 51.3438C126.134 50.6771 125.676 50.1823 125.103 49.8594C124.541 49.526 123.858 49.3594 123.056 49.3594C122.088 49.3594 121.306 49.6042 120.713 50.0938C120.119 50.5729 119.822 51.1979 119.822 51.9688C119.822 53.1771 120.999 54.2812 123.353 55.2812C123.822 55.4792 124.181 55.6354 124.431 55.75C126.369 56.6354 127.801 57.6354 128.728 58.75C129.666 59.8646 130.134 61.1354 130.134 62.5625C130.134 64.7083 129.4 66.4219 127.931 67.7031C126.473 68.974 124.509 69.6094 122.041 69.6094C120.291 69.6094 118.791 69.3073 117.541 68.7031C116.291 68.099 115.358 67.2292 114.744 66.0938ZM143.994 69V46.125H149.072L159.197 59.4375C159.489 59.8125 159.806 60.3438 160.15 61.0312C160.504 61.7083 160.869 62.5104 161.244 63.4375C161.129 62.7604 161.046 62.0885 160.994 61.4219C160.942 60.7552 160.916 59.9219 160.916 58.9219V46.125H165.588V69H160.791L150.384 55.4375C150.093 55.0625 149.775 54.5365 149.431 53.8594C149.088 53.1719 148.723 52.3542 148.338 51.4062C148.452 52.0625 148.535 52.7292 148.588 53.4062C148.64 54.0729 148.666 54.9167 148.666 55.9375V69H143.994ZM170.681 69V46.125H184.15V50.25H175.572V54.9531H184.15V59.1094H175.572V64.8438H184.15V69H170.681ZM207.384 52.0781C206.395 51.1927 205.379 50.5469 204.338 50.1406C203.296 49.724 202.181 49.5156 200.994 49.5156C198.556 49.5156 196.614 50.2448 195.166 51.7031C193.718 53.1615 192.994 55.1198 192.994 57.5781C192.994 59.9844 193.666 61.8958 195.009 63.3125C196.353 64.7188 198.186 65.4219 200.509 65.4219C201.832 65.4219 203.061 65.2031 204.197 64.7656C205.332 64.3177 206.384 63.651 207.353 62.7656L207.322 67.7812C206.28 68.3958 205.186 68.8542 204.041 69.1562C202.905 69.4583 201.707 69.6094 200.447 69.6094C196.801 69.6094 193.806 68.4792 191.463 66.2188C189.129 63.9479 187.963 61.0677 187.963 57.5781C187.963 54.099 189.134 51.2292 191.478 48.9688C193.822 46.7083 196.843 45.5781 200.541 45.5781C201.78 45.5781 202.978 45.7083 204.134 45.9688C205.291 46.2292 206.431 46.6302 207.556 47.1719L207.384 52.0781ZM211.931 69V46.125H225.4V50.25H216.822V54.9531H225.4V59.1094H216.822V64.8438H225.4V69H211.931ZM228.744 66.0938L231.463 63.0156C231.806 63.8594 232.358 64.526 233.119 65.0156C233.879 65.4948 234.733 65.7344 235.681 65.7344C236.827 65.7344 237.733 65.4635 238.4 64.9219C239.067 64.3802 239.4 63.651 239.4 62.7344C239.4 61.651 238.291 60.5729 236.072 59.5C235.353 59.1562 234.785 58.875 234.369 58.6562C232.369 57.6146 230.983 56.599 230.213 55.6094C229.442 54.6094 229.056 53.4219 229.056 52.0469C229.056 50.1615 229.801 48.6146 231.291 47.4062C232.791 46.1875 234.733 45.5781 237.119 45.5781C238.504 45.5781 239.697 45.8229 240.697 46.3125C241.707 46.7917 242.598 47.5469 243.369 48.5781L240.478 51.3438C240.134 50.6771 239.676 50.1823 239.103 49.8594C238.541 49.526 237.858 49.3594 237.056 49.3594C236.088 49.3594 235.306 49.6042 234.713 50.0938C234.119 50.5729 233.822 51.1979 233.822 51.9688C233.822 53.1771 234.999 54.2812 237.353 55.2812C237.822 55.4792 238.181 55.6354 238.431 55.75C240.369 56.6354 241.801 57.6354 242.728 58.75C243.666 59.8646 244.134 61.1354 244.134 62.5625C244.134 64.7083 243.4 66.4219 241.931 67.7031C240.473 68.974 238.509 69.6094 236.041 69.6094C234.291 69.6094 232.791 69.3073 231.541 68.7031C230.291 68.099 229.358 67.2292 228.744 66.0938ZM248.244 69V46.125H253.134V69H248.244ZM263.259 64.875H265.978C268.541 64.875 270.405 64.2917 271.572 63.125C272.749 61.9583 273.338 60.1094 273.338 57.5781C273.338 55.0573 272.749 53.2135 271.572 52.0469C270.405 50.8698 268.541 50.2812 265.978 50.2812H263.259V64.875ZM258.369 69V46.125H264.603C267.061 46.125 268.999 46.2969 270.416 46.6406C271.832 46.9844 273.077 47.5573 274.15 48.3594C275.535 49.3906 276.582 50.6927 277.291 52.2656C278.009 53.8281 278.369 55.6094 278.369 57.6094C278.369 59.6406 278.004 61.4427 277.275 63.0156C276.546 64.5781 275.478 65.8698 274.072 66.8906C273.03 67.6406 271.869 68.1823 270.588 68.5156C269.317 68.8385 267.452 69 264.994 69H263.259H258.369ZM293.744 60.2969L291.181 52.9062C291.108 52.6875 291.015 52.3125 290.9 51.7812C290.785 51.25 290.666 50.599 290.541 49.8281C290.405 50.5677 290.275 51.2344 290.15 51.8281C290.025 52.4115 289.931 52.8021 289.869 53L287.4 60.2969H293.744ZM279.181 69L287.884 46.125H293.478L302.306 69H296.744L294.884 64.1406H286.025L284.431 69H279.181ZM309.603 64.875H312.322C314.884 64.875 316.749 64.2917 317.916 63.125C319.093 61.9583 319.681 60.1094 319.681 57.5781C319.681 55.0573 319.093 53.2135 317.916 52.0469C316.749 50.8698 314.884 50.2812 312.322 50.2812H309.603V64.875ZM304.713 69V46.125H310.947C313.405 46.125 315.343 46.2969 316.759 46.6406C318.176 46.9844 319.421 47.5573 320.494 48.3594C321.879 49.3906 322.926 50.6927 323.634 52.2656C324.353 53.8281 324.713 55.6094 324.713 57.6094C324.713 59.6406 324.348 61.4427 323.619 63.0156C322.89 64.5781 321.822 65.8698 320.416 66.8906C319.374 67.6406 318.213 68.1823 316.931 68.5156C315.66 68.8385 313.796 69 311.338 69H309.603H304.713ZM328.806 69V46.125H342.275V50.25H333.697V54.9531H342.275V59.1094H333.697V64.8438H342.275V69H328.806ZM345.619 66.0938L348.338 63.0156C348.681 63.8594 349.233 64.526 349.994 65.0156C350.754 65.4948 351.608 65.7344 352.556 65.7344C353.702 65.7344 354.608 65.4635 355.275 64.9219C355.942 64.3802 356.275 63.651 356.275 62.7344C356.275 61.651 355.166 60.5729 352.947 59.5C352.228 59.1562 351.66 58.875 351.244 58.6562C349.244 57.6146 347.858 56.599 347.088 55.6094C346.317 54.6094 345.931 53.4219 345.931 52.0469C345.931 50.1615 346.676 48.6146 348.166 47.4062C349.666 46.1875 351.608 45.5781 353.994 45.5781C355.379 45.5781 356.572 45.8229 357.572 46.3125C358.582 46.7917 359.473 47.5469 360.244 48.5781L357.353 51.3438C357.009 50.6771 356.551 50.1823 355.978 49.8594C355.416 49.526 354.733 49.3594 353.931 49.3594C352.963 49.3594 352.181 49.6042 351.588 50.0938C350.994 50.5729 350.697 51.1979 350.697 51.9688C350.697 53.1771 351.874 54.2812 354.228 55.2812C354.697 55.4792 355.056 55.6354 355.306 55.75C357.244 56.6354 358.676 57.6354 359.603 58.75C360.541 59.8646 361.009 61.1354 361.009 62.5625C361.009 64.7083 360.275 66.4219 358.806 67.7031C357.348 68.974 355.384 69.6094 352.916 69.6094C351.166 69.6094 349.666 69.3073 348.416 68.7031C347.166 68.099 346.233 67.2292 345.619 66.0938Z" fill="white"/>
</svg>
