<svg width="550" height="233" viewBox="0 0 550 233" fill="none" xmlns="http://www.w3.org/2000/svg">
<path d="M26.744 189H14.686C10.2678 189 6.68604 185.418 6.68604 181V20" stroke="white" stroke-width="1.5"/>
<path d="M12.622 13.0784C12.622 16.6144 9.92461 19.4068 6.68598 19.4068C3.44736 19.4068 0.75 16.6144 0.75 13.0784C0.75 9.54244 3.44736 6.75 6.68598 6.75C9.92461 6.75 12.622 9.54244 12.622 13.0784Z" stroke="white" stroke-width="1.5"/>
<path d="M46.7725 196.192H50.2617L48.9521 191.947C48.9229 191.871 48.8672 191.66 48.7852 191.314C48.6855 190.91 48.5947 190.544 48.5127 190.216C48.4307 190.515 48.3604 190.816 48.3018 191.121C48.208 191.414 48.1289 191.689 48.0645 191.947L46.7725 196.192ZM41.8594 201L46.2979 188.133H50.6924L55.1396 201H51.6504L51 198.697H46.0166L45.3486 201H41.8594ZM56.0889 189.354C56.0889 188.868 56.2559 188.467 56.5898 188.15C56.9297 187.811 57.3369 187.641 57.8115 187.641C58.2979 187.641 58.7139 187.805 59.0596 188.133C59.3818 188.455 59.543 188.862 59.543 189.354C59.543 189.847 59.373 190.263 59.0332 190.603C58.6992 190.937 58.292 191.104 57.8115 191.104C57.3486 191.104 56.9414 190.928 56.5898 190.576C56.2559 190.242 56.0889 189.835 56.0889 189.354ZM56.2471 204.92V192.123H59.3848V204.92H56.2471ZM70.8896 192.123V196.658C70.8896 197.672 70.8135 198.41 70.6611 198.873C70.4971 199.354 70.2217 199.787 69.835 200.174C69.4658 200.561 68.9795 200.854 68.376 201.053C67.8018 201.246 67.1104 201.343 66.3018 201.343C65.499 201.343 64.8164 201.246 64.2539 201.053C63.6738 200.865 63.1758 200.572 62.7598 200.174C62.3789 199.811 62.1094 199.383 61.9512 198.891C61.793 198.434 61.7139 197.689 61.7139 196.658V192.123H64.7021V196.86C64.7021 197.604 64.8281 198.138 65.0801 198.46C65.3086 198.8 65.7041 198.97 66.2666 198.97C66.8232 198.97 67.2217 198.806 67.4619 198.478C67.708 198.149 67.8311 197.61 67.8311 196.86V192.123H70.8896ZM72.3135 200.262L72.9639 197.871C73.4209 198.275 73.9248 198.58 74.4756 198.785C75.0205 199.002 75.5713 199.11 76.1279 199.11C76.5264 199.11 76.8252 199.043 77.0244 198.908C77.2295 198.785 77.332 198.606 77.332 198.372C77.332 197.979 76.9189 197.687 76.0928 197.493C75.8057 197.429 75.5889 197.373 75.4424 197.326C74.4873 197.045 73.8105 196.702 73.4121 196.298C72.9785 195.882 72.7617 195.343 72.7617 194.681C72.7617 193.825 73.0869 193.137 73.7373 192.615C74.3643 192.1 75.2402 191.842 76.3652 191.842C76.9102 191.842 77.4902 191.906 78.1055 192.035C78.6211 192.141 79.2217 192.346 79.9072 192.65L79.2568 194.804C78.835 194.517 78.4102 194.303 77.9824 194.162C77.5781 194.016 77.1533 193.942 76.708 193.942C76.3447 193.942 76.0723 193.998 75.8906 194.109C75.7148 194.215 75.627 194.376 75.627 194.593C75.627 194.897 76.04 195.161 76.8662 195.384C77.1357 195.466 77.2734 195.507 77.2793 195.507C78.3574 195.812 79.1133 196.172 79.5469 196.588C79.9688 197.027 80.1797 197.599 80.1797 198.302C80.1797 199.21 79.8311 199.942 79.1338 200.499C78.4189 201.062 77.4961 201.343 76.3652 201.343C75.5801 201.343 74.8564 201.252 74.1943 201.07C73.5381 200.895 72.9111 200.625 72.3135 200.262ZM82.3594 201L82.3418 194.338H81.0146V192.123H82.3418V189.478H85.4443V192.123H86.7539V194.338H85.4443V201H82.3594ZM94.9893 196.553C94.9893 195.85 94.8047 195.305 94.4355 194.918C94.0605 194.508 93.5566 194.303 92.9238 194.303C92.291 194.303 91.793 194.502 91.4297 194.9C91.0547 195.311 90.8672 195.861 90.8672 196.553C90.8672 197.25 91.0547 197.798 91.4297 198.196C91.7871 198.589 92.2852 198.785 92.9238 198.785C93.5566 198.785 94.0576 198.589 94.4268 198.196C94.8018 197.804 94.9893 197.256 94.9893 196.553ZM97.7402 192.123V201H94.8662V199.559C94.4502 200.174 93.9844 200.625 93.4688 200.912C92.959 201.199 92.3613 201.343 91.6758 201.343C90.4863 201.343 89.54 200.909 88.8369 200.042C88.4912 199.614 88.2275 199.11 88.0459 198.53C87.8643 197.95 87.7734 197.297 87.7734 196.57C87.7734 195.117 88.1455 193.966 88.8896 193.116C89.6338 192.267 90.6299 191.842 91.8779 191.842C92.5459 191.842 93.1201 191.985 93.6006 192.272C94.0869 192.548 94.5029 192.984 94.8486 193.582V192.123H97.7402ZM111.838 201V196.157C111.838 195.396 111.75 194.868 111.574 194.575C111.375 194.276 111.044 194.127 110.581 194.127C109.989 194.127 109.582 194.329 109.359 194.733C109.131 195.132 109.017 195.967 109.017 197.238V201H105.993V196.157C105.993 195.366 105.896 194.833 105.703 194.558C105.527 194.271 105.202 194.127 104.728 194.127C104.136 194.127 103.723 194.323 103.488 194.716C103.26 195.114 103.146 195.955 103.146 197.238V201H100.104V192.123H103.181V193.67C103.556 193.049 103.983 192.589 104.464 192.29C104.933 191.991 105.501 191.842 106.169 191.842C106.89 191.842 107.484 191.979 107.953 192.255C108.398 192.536 108.724 192.955 108.929 193.512C109.286 192.932 109.711 192.513 110.203 192.255C110.689 191.979 111.272 191.842 111.952 191.842C112.485 191.842 112.951 191.93 113.35 192.105C113.76 192.299 114.097 192.568 114.36 192.914C114.583 193.189 114.738 193.515 114.826 193.89C114.914 194.235 114.958 194.848 114.958 195.727V195.92V201H111.838ZM123.475 196.588C123.475 195.926 123.308 195.404 122.974 195.023C122.628 194.643 122.177 194.452 121.62 194.452C121.046 194.452 120.595 194.643 120.267 195.023C119.933 195.393 119.766 195.914 119.766 196.588C119.766 197.244 119.927 197.76 120.249 198.135C120.601 198.521 121.058 198.715 121.62 198.715C122.183 198.715 122.64 198.521 122.991 198.135C123.313 197.748 123.475 197.232 123.475 196.588ZM126.586 196.588C126.586 197.238 126.46 197.845 126.208 198.407C125.944 199.005 125.584 199.521 125.127 199.954C124.611 200.435 124.078 200.783 123.527 201C122.953 201.229 122.317 201.343 121.62 201.343C120.917 201.343 120.281 201.229 119.713 201C119.133 200.771 118.597 200.426 118.104 199.963C117.618 199.494 117.267 198.976 117.05 198.407C116.798 197.862 116.672 197.256 116.672 196.588C116.672 195.938 116.798 195.325 117.05 194.751C117.284 194.171 117.639 193.655 118.113 193.204C118.576 192.759 119.109 192.416 119.713 192.176C120.287 191.953 120.923 191.842 121.62 191.842C122.312 191.842 122.947 191.953 123.527 192.176C124.131 192.416 124.664 192.759 125.127 193.204C125.613 193.644 125.974 194.159 126.208 194.751C126.46 195.325 126.586 195.938 126.586 196.588ZM127.562 200.262L128.212 197.871C128.669 198.275 129.173 198.58 129.724 198.785C130.269 199.002 130.819 199.11 131.376 199.11C131.774 199.11 132.073 199.043 132.272 198.908C132.478 198.785 132.58 198.606 132.58 198.372C132.58 197.979 132.167 197.687 131.341 197.493C131.054 197.429 130.837 197.373 130.69 197.326C129.735 197.045 129.059 196.702 128.66 196.298C128.227 195.882 128.01 195.343 128.01 194.681C128.01 193.825 128.335 193.137 128.985 192.615C129.612 192.1 130.488 191.842 131.613 191.842C132.158 191.842 132.738 191.906 133.354 192.035C133.869 192.141 134.47 192.346 135.155 192.65L134.505 194.804C134.083 194.517 133.658 194.303 133.23 194.162C132.826 194.016 132.401 193.942 131.956 193.942C131.593 193.942 131.32 193.998 131.139 194.109C130.963 194.215 130.875 194.376 130.875 194.593C130.875 194.897 131.288 195.161 132.114 195.384C132.384 195.466 132.521 195.507 132.527 195.507C133.605 195.812 134.361 196.172 134.795 196.588C135.217 197.027 135.428 197.599 135.428 198.302C135.428 199.21 135.079 199.942 134.382 200.499C133.667 201.062 132.744 201.343 131.613 201.343C130.828 201.343 130.104 201.252 129.442 201.07C128.786 200.895 128.159 200.625 127.562 200.262ZM148.866 195.419C148.813 194.927 148.623 194.525 148.295 194.215C147.967 193.904 147.565 193.749 147.091 193.749C146.593 193.749 146.188 193.887 145.878 194.162C145.556 194.473 145.354 194.892 145.271 195.419H148.866ZM151.951 197.186H145.201C145.219 197.877 145.392 198.404 145.72 198.768C146.06 199.143 146.552 199.33 147.196 199.33C147.665 199.33 148.066 199.239 148.4 199.058C148.74 198.864 148.986 198.601 149.139 198.267L151.494 199.216C151.219 199.89 150.721 200.411 150 200.78C149.285 201.155 148.409 201.343 147.372 201.343C145.825 201.343 144.583 200.909 143.646 200.042C142.714 199.198 142.248 198.07 142.248 196.658C142.248 195.281 142.714 194.13 143.646 193.204C144.577 192.296 145.761 191.842 147.196 191.842C148.661 191.842 149.818 192.302 150.668 193.222C151.102 193.696 151.424 194.25 151.635 194.883C151.846 195.51 151.951 196.228 151.951 197.036V197.186ZM153.841 201V187.377H156.979V201H153.841ZM171.393 195.041C171.088 194.771 170.795 194.575 170.514 194.452C170.262 194.329 169.966 194.268 169.626 194.268C168.999 194.268 168.507 194.473 168.149 194.883C167.78 195.287 167.596 195.844 167.596 196.553C167.596 197.232 167.786 197.771 168.167 198.17C168.536 198.58 169.049 198.785 169.705 198.785C170.016 198.785 170.314 198.721 170.602 198.592C170.906 198.445 171.17 198.252 171.393 198.012V200.728C171.018 200.927 170.64 201.085 170.259 201.202C169.854 201.296 169.471 201.343 169.107 201.343C167.736 201.343 166.632 200.903 165.794 200.024C165.507 199.731 165.27 199.409 165.082 199.058C164.9 198.706 164.76 198.325 164.66 197.915C164.566 197.505 164.52 197.057 164.52 196.57C164.52 195.17 164.947 194.033 165.803 193.16C166.664 192.281 167.777 191.842 169.143 191.842C169.57 191.842 169.978 191.889 170.364 191.982C170.739 192.076 171.082 192.214 171.393 192.396V195.041ZM173.335 201V192.123H176.288V194.215C176.599 193.447 177.012 192.876 177.527 192.501C178.061 192.12 178.702 191.93 179.452 191.93C179.622 191.93 179.748 191.936 179.83 191.947C179.895 191.953 179.953 191.959 180.006 191.965C180.059 191.965 180.126 191.971 180.208 191.982L179.909 194.83C179.692 194.76 179.505 194.71 179.347 194.681C179.112 194.657 178.939 194.646 178.828 194.646C178.066 194.646 177.478 194.88 177.062 195.349C176.651 195.812 176.446 196.471 176.446 197.326V201H173.335ZM187.485 195.419C187.433 194.927 187.242 194.525 186.914 194.215C186.586 193.904 186.185 193.749 185.71 193.749C185.212 193.749 184.808 193.887 184.497 194.162C184.175 194.473 183.973 194.892 183.891 195.419H187.485ZM190.57 197.186H183.82C183.838 197.877 184.011 198.404 184.339 198.768C184.679 199.143 185.171 199.33 185.815 199.33C186.284 199.33 186.686 199.239 187.02 199.058C187.359 198.864 187.605 198.601 187.758 198.267L190.113 199.216C189.838 199.89 189.34 200.411 188.619 200.78C187.904 201.155 187.028 201.343 185.991 201.343C184.444 201.343 183.202 200.909 182.265 200.042C181.333 199.198 180.867 198.07 180.867 196.658C180.867 195.281 181.333 194.13 182.265 193.204C183.196 192.296 184.38 191.842 185.815 191.842C187.28 191.842 188.438 192.302 189.287 193.222C189.721 193.696 190.043 194.25 190.254 194.883C190.465 195.51 190.57 196.228 190.57 197.036V197.186ZM188.408 188.493L186.246 190.937H185.165L186.448 188.493H188.408ZM199.157 196.57C199.157 195.873 198.979 195.328 198.621 194.936C198.24 194.537 197.736 194.338 197.109 194.338C196.477 194.338 195.979 194.537 195.615 194.936C195.252 195.334 195.07 195.879 195.07 196.57C195.07 197.268 195.252 197.815 195.615 198.214C195.973 198.606 196.471 198.803 197.109 198.803C197.742 198.803 198.246 198.606 198.621 198.214C198.979 197.821 199.157 197.273 199.157 196.57ZM201.935 187.377V201H199.052V199.559C198.653 200.162 198.202 200.607 197.698 200.895C197.229 201.193 196.679 201.343 196.046 201.343C194.804 201.343 193.811 200.909 193.066 200.042C192.328 199.175 191.959 198.018 191.959 196.57C191.959 195.164 192.331 194.019 193.075 193.134C193.813 192.272 194.769 191.842 195.94 191.842C196.69 191.842 197.3 191.979 197.769 192.255C198.22 192.507 198.642 192.955 199.034 193.6C199.011 193.441 198.987 193.201 198.964 192.879C198.94 192.527 198.929 192.24 198.929 192.018V187.377H201.935ZM204.185 201V192.123H207.313V201H204.185ZM204.58 189.838H204.598C204.598 189.51 204.712 189.24 204.94 189.029C205.169 188.801 205.444 188.687 205.767 188.687C206.106 188.687 206.385 188.795 206.602 189.012C206.824 189.229 206.936 189.504 206.936 189.838C206.936 190.178 206.821 190.459 206.593 190.682C206.37 190.91 206.095 191.024 205.767 191.024C205.433 191.024 205.151 190.904 204.923 190.664C204.694 190.441 204.58 190.166 204.58 189.838ZM210.381 201L210.363 194.338H209.036V192.123H210.363V189.478H213.466V192.123H214.775V194.338H213.466V201H210.381ZM222.545 196.588C222.545 195.926 222.378 195.404 222.044 195.023C221.698 194.643 221.247 194.452 220.69 194.452C220.116 194.452 219.665 194.643 219.337 195.023C219.003 195.393 218.836 195.914 218.836 196.588C218.836 197.244 218.997 197.76 219.319 198.135C219.671 198.521 220.128 198.715 220.69 198.715C221.253 198.715 221.71 198.521 222.062 198.135C222.384 197.748 222.545 197.232 222.545 196.588ZM225.656 196.588C225.656 197.238 225.53 197.845 225.278 198.407C225.015 199.005 224.654 199.521 224.197 199.954C223.682 200.435 223.148 200.783 222.598 201C222.023 201.229 221.388 201.343 220.69 201.343C219.987 201.343 219.352 201.229 218.783 201C218.203 200.771 217.667 200.426 217.175 199.963C216.688 199.494 216.337 198.976 216.12 198.407C215.868 197.862 215.742 197.256 215.742 196.588C215.742 195.938 215.868 195.325 216.12 194.751C216.354 194.171 216.709 193.655 217.184 193.204C217.646 192.759 218.18 192.416 218.783 192.176C219.357 191.953 219.993 191.842 220.69 191.842C221.382 191.842 222.018 191.953 222.598 192.176C223.201 192.416 223.734 192.759 224.197 193.204C224.684 193.644 225.044 194.159 225.278 194.751C225.53 195.325 225.656 195.938 225.656 196.588ZM239.868 196.553C239.868 195.85 239.684 195.305 239.314 194.918C238.939 194.508 238.436 194.303 237.803 194.303C237.17 194.303 236.672 194.502 236.309 194.9C235.934 195.311 235.746 195.861 235.746 196.553C235.746 197.25 235.934 197.798 236.309 198.196C236.666 198.589 237.164 198.785 237.803 198.785C238.436 198.785 238.937 198.589 239.306 198.196C239.681 197.804 239.868 197.256 239.868 196.553ZM242.619 192.123V201H239.745V199.559C239.329 200.174 238.863 200.625 238.348 200.912C237.838 201.199 237.24 201.343 236.555 201.343C235.365 201.343 234.419 200.909 233.716 200.042C233.37 199.614 233.106 199.11 232.925 198.53C232.743 197.95 232.652 197.297 232.652 196.57C232.652 195.117 233.024 193.966 233.769 193.116C234.513 192.267 235.509 191.842 236.757 191.842C237.425 191.842 237.999 191.985 238.479 192.272C238.966 192.548 239.382 192.984 239.728 193.582V192.123H242.619ZM251.127 201L251.109 194.338H249.782V192.123H251.109V189.478H254.212V192.123H255.521V194.338H254.212V201H251.127ZM266.095 192.123V196.658C266.095 197.672 266.019 198.41 265.866 198.873C265.702 199.354 265.427 199.787 265.04 200.174C264.671 200.561 264.185 200.854 263.581 201.053C263.007 201.246 262.315 201.343 261.507 201.343C260.704 201.343 260.021 201.246 259.459 201.053C258.879 200.865 258.381 200.572 257.965 200.174C257.584 199.811 257.314 199.383 257.156 198.891C256.998 198.434 256.919 197.689 256.919 196.658V192.123H259.907V196.86C259.907 197.604 260.033 198.138 260.285 198.46C260.514 198.8 260.909 198.97 261.472 198.97C262.028 198.97 262.427 198.806 262.667 198.478C262.913 198.149 263.036 197.61 263.036 196.86V192.123H266.095ZM49.5234 215.041C49.2188 214.771 48.9258 214.575 48.6445 214.452C48.3926 214.329 48.0967 214.268 47.7568 214.268C47.1299 214.268 46.6377 214.473 46.2803 214.883C45.9111 215.287 45.7266 215.844 45.7266 216.553C45.7266 217.232 45.917 217.771 46.2979 218.17C46.667 218.58 47.1797 218.785 47.8359 218.785C48.1465 218.785 48.4453 218.721 48.7324 218.592C49.0371 218.445 49.3008 218.252 49.5234 218.012V220.728C49.1484 220.927 48.7705 221.085 48.3896 221.202C47.9854 221.296 47.6016 221.343 47.2383 221.343C45.8672 221.343 44.7627 220.903 43.9248 220.024C43.6377 219.731 43.4004 219.409 43.2129 219.058C43.0312 218.706 42.8906 218.325 42.791 217.915C42.6973 217.505 42.6504 217.057 42.6504 216.57C42.6504 215.17 43.0781 214.033 43.9336 213.16C44.7949 212.281 45.9082 211.842 47.2734 211.842C47.7012 211.842 48.1084 211.889 48.4951 211.982C48.8701 212.076 49.2129 212.214 49.5234 212.396V215.041ZM58.2158 216.553C58.2158 215.85 58.0312 215.305 57.6621 214.918C57.2871 214.508 56.7832 214.303 56.1504 214.303C55.5176 214.303 55.0195 214.502 54.6562 214.9C54.2812 215.311 54.0938 215.861 54.0938 216.553C54.0938 217.25 54.2812 217.798 54.6562 218.196C55.0137 218.589 55.5117 218.785 56.1504 218.785C56.7832 218.785 57.2842 218.589 57.6533 218.196C58.0283 217.804 58.2158 217.256 58.2158 216.553ZM60.9668 212.123V221H58.0928V219.559C57.6768 220.174 57.2109 220.625 56.6953 220.912C56.1855 221.199 55.5879 221.343 54.9023 221.343C53.7129 221.343 52.7666 220.909 52.0635 220.042C51.7178 219.614 51.4541 219.11 51.2725 218.53C51.0908 217.95 51 217.297 51 216.57C51 215.117 51.3721 213.966 52.1162 213.116C52.8604 212.267 53.8564 211.842 55.1045 211.842C55.7725 211.842 56.3467 211.985 56.8271 212.272C57.3135 212.548 57.7295 212.984 58.0752 213.582V212.123H60.9668ZM66.126 216.588C66.126 217.279 66.3105 217.827 66.6797 218.231C67.0195 218.624 67.5117 218.82 68.1562 218.82C68.7949 218.82 69.293 218.624 69.6504 218.231C70.0078 217.821 70.1865 217.273 70.1865 216.588C70.1865 215.891 70.0078 215.346 69.6504 214.953C69.2871 214.555 68.7891 214.355 68.1562 214.355C67.5176 214.355 67.0254 214.555 66.6797 214.953C66.3105 215.34 66.126 215.885 66.126 216.588ZM63.3486 224.92V212.141H66.2314V213.617C66.6123 213.049 67.0605 212.606 67.5762 212.29C68.0625 212.003 68.6162 211.859 69.2373 211.859C69.8643 211.859 70.4268 211.965 70.9248 212.176C71.4229 212.381 71.8564 212.694 72.2256 213.116C72.958 213.954 73.3242 215.111 73.3242 216.588C73.3242 218.006 72.958 219.151 72.2256 220.024C71.8506 220.47 71.4258 220.801 70.9512 221.018C70.4824 221.234 69.9463 221.343 69.3428 221.343C68.5869 221.343 67.9746 221.205 67.5059 220.93C67.0547 220.666 66.6357 220.209 66.249 219.559C66.2783 219.699 66.3018 219.916 66.3193 220.209C66.3311 220.379 66.3369 220.689 66.3369 221.141V224.92H63.3486ZM81.9814 216.553C81.9814 215.85 81.7969 215.305 81.4277 214.918C81.0527 214.508 80.5488 214.303 79.916 214.303C79.2832 214.303 78.7852 214.502 78.4219 214.9C78.0469 215.311 77.8594 215.861 77.8594 216.553C77.8594 217.25 78.0469 217.798 78.4219 218.196C78.7793 218.589 79.2773 218.785 79.916 218.785C80.5488 218.785 81.0498 218.589 81.4189 218.196C81.7939 217.804 81.9814 217.256 81.9814 216.553ZM84.7324 212.123V221H81.8584V219.559C81.4424 220.174 80.9766 220.625 80.4609 220.912C79.9512 221.199 79.3535 221.343 78.668 221.343C77.4785 221.343 76.5322 220.909 75.8291 220.042C75.4834 219.614 75.2197 219.11 75.0381 218.53C74.8564 217.95 74.7656 217.297 74.7656 216.57C74.7656 215.117 75.1377 213.966 75.8818 213.116C76.626 212.267 77.6221 211.842 78.8701 211.842C79.5381 211.842 80.1123 211.985 80.5928 212.272C81.0791 212.548 81.4951 212.984 81.8408 213.582V212.123H84.7324ZM93.4688 215.041C93.1641 214.771 92.8711 214.575 92.5898 214.452C92.3379 214.329 92.042 214.268 91.7021 214.268C91.0752 214.268 90.583 214.473 90.2256 214.883C89.8564 215.287 89.6719 215.844 89.6719 216.553C89.6719 217.232 89.8623 217.771 90.2432 218.17C90.6123 218.58 91.125 218.785 91.7812 218.785C92.0918 218.785 92.3906 218.721 92.6777 218.592C92.9824 218.445 93.2461 218.252 93.4688 218.012V220.728C93.0938 220.927 92.7158 221.085 92.335 221.202C91.9307 221.296 91.5469 221.343 91.1836 221.343C89.8125 221.343 88.708 220.903 87.8701 220.024C87.583 219.731 87.3457 219.409 87.1582 219.058C86.9766 218.706 86.8359 218.325 86.7363 217.915C86.6426 217.505 86.5957 217.057 86.5957 216.57C86.5957 215.17 87.0234 214.033 87.8789 213.16C88.7402 212.281 89.8535 211.842 91.2188 211.842C91.6465 211.842 92.0537 211.889 92.4404 211.982C92.8154 212.076 93.1582 212.214 93.4688 212.396V215.041ZM95.3232 221V212.123H98.4521V221H95.3232ZM95.7188 209.838H95.7363C95.7363 209.51 95.8506 209.24 96.0791 209.029C96.3076 208.801 96.583 208.687 96.9053 208.687C97.2451 208.687 97.5234 208.795 97.7402 209.012C97.9629 209.229 98.0742 209.504 98.0742 209.838C98.0742 210.178 97.96 210.459 97.7314 210.682C97.5088 210.91 97.2334 211.024 96.9053 211.024C96.5713 211.024 96.29 210.904 96.0615 210.664C95.833 210.441 95.7188 210.166 95.7188 209.838ZM107.804 216.57C107.804 215.873 107.625 215.328 107.268 214.936C106.887 214.537 106.383 214.338 105.756 214.338C105.123 214.338 104.625 214.537 104.262 214.936C103.898 215.334 103.717 215.879 103.717 216.57C103.717 217.268 103.898 217.815 104.262 218.214C104.619 218.606 105.117 218.803 105.756 218.803C106.389 218.803 106.893 218.606 107.268 218.214C107.625 217.821 107.804 217.273 107.804 216.57ZM110.581 207.377V221H107.698V219.559C107.3 220.162 106.849 220.607 106.345 220.895C105.876 221.193 105.325 221.343 104.692 221.343C103.45 221.343 102.457 220.909 101.713 220.042C100.975 219.175 100.605 218.018 100.605 216.57C100.605 215.164 100.978 214.019 101.722 213.134C102.46 212.272 103.415 211.842 104.587 211.842C105.337 211.842 105.946 211.979 106.415 212.255C106.866 212.507 107.288 212.955 107.681 213.6C107.657 213.441 107.634 213.201 107.61 212.879C107.587 212.527 107.575 212.24 107.575 212.018V207.377H110.581ZM119.669 216.553C119.669 215.85 119.484 215.305 119.115 214.918C118.74 214.508 118.236 214.303 117.604 214.303C116.971 214.303 116.473 214.502 116.109 214.9C115.734 215.311 115.547 215.861 115.547 216.553C115.547 217.25 115.734 217.798 116.109 218.196C116.467 218.589 116.965 218.785 117.604 218.785C118.236 218.785 118.737 218.589 119.106 218.196C119.481 217.804 119.669 217.256 119.669 216.553ZM122.42 212.123V221H119.546V219.559C119.13 220.174 118.664 220.625 118.148 220.912C117.639 221.199 117.041 221.343 116.355 221.343C115.166 221.343 114.22 220.909 113.517 220.042C113.171 219.614 112.907 219.11 112.726 218.53C112.544 217.95 112.453 217.297 112.453 216.57C112.453 215.117 112.825 213.966 113.569 213.116C114.313 212.267 115.31 211.842 116.558 211.842C117.226 211.842 117.8 211.985 118.28 212.272C118.767 212.548 119.183 212.984 119.528 213.582V212.123H122.42ZM131.569 216.57C131.569 215.873 131.391 215.328 131.033 214.936C130.652 214.537 130.148 214.338 129.521 214.338C128.889 214.338 128.391 214.537 128.027 214.936C127.664 215.334 127.482 215.879 127.482 216.57C127.482 217.268 127.664 217.815 128.027 218.214C128.385 218.606 128.883 218.803 129.521 218.803C130.154 218.803 130.658 218.606 131.033 218.214C131.391 217.821 131.569 217.273 131.569 216.57ZM134.347 207.377V221H131.464V219.559C131.065 220.162 130.614 220.607 130.11 220.895C129.642 221.193 129.091 221.343 128.458 221.343C127.216 221.343 126.223 220.909 125.479 220.042C124.74 219.175 124.371 218.018 124.371 216.57C124.371 215.164 124.743 214.019 125.487 213.134C126.226 212.272 127.181 211.842 128.353 211.842C129.103 211.842 129.712 211.979 130.181 212.255C130.632 212.507 131.054 212.955 131.446 213.6C131.423 213.441 131.399 213.201 131.376 212.879C131.353 212.527 131.341 212.24 131.341 212.018V207.377H134.347ZM149.095 216.57C149.095 215.873 148.916 215.328 148.559 214.936C148.178 214.537 147.674 214.338 147.047 214.338C146.414 214.338 145.916 214.537 145.553 214.936C145.189 215.334 145.008 215.879 145.008 216.57C145.008 217.268 145.189 217.815 145.553 218.214C145.91 218.606 146.408 218.803 147.047 218.803C147.68 218.803 148.184 218.606 148.559 218.214C148.916 217.821 149.095 217.273 149.095 216.57ZM151.872 207.377V221H148.989V219.559C148.591 220.162 148.14 220.607 147.636 220.895C147.167 221.193 146.616 221.343 145.983 221.343C144.741 221.343 143.748 220.909 143.004 220.042C142.266 219.175 141.896 218.018 141.896 216.57C141.896 215.164 142.269 214.019 143.013 213.134C143.751 212.272 144.706 211.842 145.878 211.842C146.628 211.842 147.237 211.979 147.706 212.255C148.157 212.507 148.579 212.955 148.972 213.6C148.948 213.441 148.925 213.201 148.901 212.879C148.878 212.527 148.866 212.24 148.866 212.018V207.377H151.872ZM160.31 215.419C160.257 214.927 160.066 214.525 159.738 214.215C159.41 213.904 159.009 213.749 158.534 213.749C158.036 213.749 157.632 213.887 157.321 214.162C156.999 214.473 156.797 214.892 156.715 215.419H160.31ZM163.395 217.186H156.645C156.662 217.877 156.835 218.404 157.163 218.768C157.503 219.143 157.995 219.33 158.64 219.33C159.108 219.33 159.51 219.239 159.844 219.058C160.184 218.864 160.43 218.601 160.582 218.267L162.938 219.216C162.662 219.89 162.164 220.411 161.443 220.78C160.729 221.155 159.853 221.343 158.815 221.343C157.269 221.343 156.026 220.909 155.089 220.042C154.157 219.198 153.691 218.07 153.691 216.658C153.691 215.281 154.157 214.13 155.089 213.204C156.021 212.296 157.204 211.842 158.64 211.842C160.104 211.842 161.262 212.302 162.111 213.222C162.545 213.696 162.867 214.25 163.078 214.883C163.289 215.51 163.395 216.228 163.395 217.036V217.186ZM173.634 216.588C173.634 217.279 173.818 217.827 174.188 218.231C174.527 218.624 175.02 218.82 175.664 218.82C176.303 218.82 176.801 218.624 177.158 218.231C177.516 217.821 177.694 217.273 177.694 216.588C177.694 215.891 177.516 215.346 177.158 214.953C176.795 214.555 176.297 214.355 175.664 214.355C175.025 214.355 174.533 214.555 174.188 214.953C173.818 215.34 173.634 215.885 173.634 216.588ZM170.856 224.92V212.141H173.739V213.617C174.12 213.049 174.568 212.606 175.084 212.29C175.57 212.003 176.124 211.859 176.745 211.859C177.372 211.859 177.935 211.965 178.433 212.176C178.931 212.381 179.364 212.694 179.733 213.116C180.466 213.954 180.832 215.111 180.832 216.588C180.832 218.006 180.466 219.151 179.733 220.024C179.358 220.47 178.934 220.801 178.459 221.018C177.99 221.234 177.454 221.343 176.851 221.343C176.095 221.343 175.482 221.205 175.014 220.93C174.562 220.666 174.144 220.209 173.757 219.559C173.786 219.699 173.81 219.916 173.827 220.209C173.839 220.379 173.845 220.689 173.845 221.141V224.92H170.856ZM189.489 216.553C189.489 215.85 189.305 215.305 188.936 214.918C188.561 214.508 188.057 214.303 187.424 214.303C186.791 214.303 186.293 214.502 185.93 214.9C185.555 215.311 185.367 215.861 185.367 216.553C185.367 217.25 185.555 217.798 185.93 218.196C186.287 218.589 186.785 218.785 187.424 218.785C188.057 218.785 188.558 218.589 188.927 218.196C189.302 217.804 189.489 217.256 189.489 216.553ZM192.24 212.123V221H189.366V219.559C188.95 220.174 188.484 220.625 187.969 220.912C187.459 221.199 186.861 221.343 186.176 221.343C184.986 221.343 184.04 220.909 183.337 220.042C182.991 219.614 182.728 219.11 182.546 218.53C182.364 217.95 182.273 217.297 182.273 216.57C182.273 215.117 182.646 213.966 183.39 213.116C184.134 212.267 185.13 211.842 186.378 211.842C187.046 211.842 187.62 211.985 188.101 212.272C188.587 212.548 189.003 212.984 189.349 213.582V212.123H192.24ZM201.372 216.535C201.372 215.85 201.193 215.311 200.836 214.918C200.449 214.531 199.939 214.338 199.307 214.338C198.674 214.338 198.164 214.531 197.777 214.918C197.402 215.311 197.215 215.85 197.215 216.535C197.215 217.227 197.402 217.76 197.777 218.135C198.158 218.533 198.668 218.732 199.307 218.732C199.934 218.732 200.438 218.533 200.818 218.135C201.188 217.766 201.372 217.232 201.372 216.535ZM204.123 212.123V220.982C204.123 222.324 203.716 223.314 202.901 223.953C202.509 224.27 201.993 224.51 201.354 224.674C200.716 224.838 199.966 224.92 199.104 224.92C197.704 224.92 196.617 224.662 195.844 224.146C195.07 223.625 194.657 222.901 194.604 221.976H197.848C197.906 222.257 198.062 222.471 198.313 222.617C198.571 222.775 198.914 222.854 199.342 222.854C200.01 222.854 200.476 222.693 200.739 222.371C200.991 222.049 201.117 221.363 201.117 220.314V219.506C200.783 220.068 200.364 220.481 199.86 220.745C199.339 221.021 198.732 221.158 198.041 221.158C196.869 221.158 195.929 220.733 195.22 219.884C194.874 219.468 194.61 218.979 194.429 218.416C194.247 217.848 194.156 217.209 194.156 216.5C194.156 215.082 194.528 213.948 195.272 213.099C195.642 212.677 196.075 212.363 196.573 212.158C197.077 211.947 197.64 211.842 198.261 211.842C198.923 211.842 199.497 211.979 199.983 212.255C200.464 212.513 200.88 212.943 201.231 213.547V212.123H204.123ZM212.789 216.588C212.789 215.926 212.622 215.404 212.288 215.023C211.942 214.643 211.491 214.452 210.935 214.452C210.36 214.452 209.909 214.643 209.581 215.023C209.247 215.393 209.08 215.914 209.08 216.588C209.08 217.244 209.241 217.76 209.563 218.135C209.915 218.521 210.372 218.715 210.935 218.715C211.497 218.715 211.954 218.521 212.306 218.135C212.628 217.748 212.789 217.232 212.789 216.588ZM215.9 216.588C215.9 217.238 215.774 217.845 215.522 218.407C215.259 219.005 214.898 219.521 214.441 219.954C213.926 220.435 213.393 220.783 212.842 221C212.268 221.229 211.632 221.343 210.935 221.343C210.231 221.343 209.596 221.229 209.027 221C208.447 220.771 207.911 220.426 207.419 219.963C206.933 219.494 206.581 218.976 206.364 218.407C206.112 217.862 205.986 217.256 205.986 216.588C205.986 215.938 206.112 215.325 206.364 214.751C206.599 214.171 206.953 213.655 207.428 213.204C207.891 212.759 208.424 212.416 209.027 212.176C209.602 211.953 210.237 211.842 210.935 211.842C211.626 211.842 212.262 211.953 212.842 212.176C213.445 212.416 213.979 212.759 214.441 213.204C214.928 213.644 215.288 214.159 215.522 214.751C215.774 215.325 215.9 215.938 215.9 216.588Z" fill="white"/>
<path d="M61.3516 12.6875V34.0391C61.3516 38.6953 60.125 42.1719 57.6719 44.4688C55.2188 46.7656 51.5234 47.9141 46.5859 47.9141C41.5703 47.9141 37.8359 46.7656 35.3828 44.4688C32.9297 42.1719 31.7031 38.6953 31.7031 34.0391V12.6875H38.9922V32.8906C38.9922 35.7188 39.6172 37.8516 40.8672 39.2891C42.1172 40.7109 43.9844 41.4219 46.4688 41.4219C48.9688 41.4219 50.8594 40.7031 52.1406 39.2656C53.4219 37.8281 54.0625 35.7031 54.0625 32.8906V12.6875H61.3516ZM68.9688 47V12.6875H76.5859L91.7734 32.6562C92.2109 33.2188 92.6875 34.0156 93.2031 35.0469C93.7344 36.0625 94.2812 37.2656 94.8438 38.6562C94.6719 37.6406 94.5469 36.6328 94.4688 35.6328C94.3906 34.6328 94.3516 33.3828 94.3516 31.8828V12.6875H101.359V47H94.1641L78.5547 26.6562C78.1172 26.0938 77.6406 25.3047 77.125 24.2891C76.6094 23.2578 76.0625 22.0312 75.4844 20.6094C75.6562 21.5938 75.7812 22.5938 75.8594 23.6094C75.9375 24.6094 75.9766 25.875 75.9766 27.4062V47H68.9688ZM151.398 21.6172C149.914 20.2891 148.391 19.3203 146.828 18.7109C145.266 18.0859 143.594 17.7734 141.812 17.7734C138.156 17.7734 135.242 18.8672 133.07 21.0547C130.898 23.2422 129.812 26.1797 129.812 29.8672C129.812 33.4766 130.82 36.3438 132.836 38.4688C134.852 40.5781 137.602 41.6328 141.086 41.6328C143.07 41.6328 144.914 41.3047 146.617 40.6484C148.32 39.9766 149.898 38.9766 151.352 37.6484L151.305 45.1719C149.742 46.0938 148.102 46.7812 146.383 47.2344C144.68 47.6875 142.883 47.9141 140.992 47.9141C135.523 47.9141 131.031 46.2188 127.516 42.8281C124.016 39.4219 122.266 35.1016 122.266 29.8672C122.266 24.6484 124.023 20.3438 127.539 16.9531C131.055 13.5625 135.586 11.8672 141.133 11.8672C142.992 11.8672 144.789 12.0625 146.523 12.4531C148.258 12.8438 149.969 13.4453 151.656 14.2578L151.398 21.6172ZM183.039 47H174.578L165.555 30.9688V47H158.219V12.6875H168.719C172.891 12.6875 176.016 13.5 178.094 15.125C180.172 16.7344 181.211 19.1641 181.211 22.4141C181.211 24.7734 180.5 26.7891 179.078 28.4609C177.656 30.1328 175.82 31.1094 173.57 31.3906L183.039 47ZM165.555 27.3125H166.656C169.625 27.3125 171.586 26.9922 172.539 26.3516C173.492 25.6953 173.969 24.5625 173.969 22.9531C173.969 21.2656 173.453 20.0703 172.422 19.3672C171.406 18.6484 169.484 18.2891 166.656 18.2891H165.555V27.3125ZM187.328 47V12.6875H207.531V18.875H194.664V25.9297H207.531V32.1641H194.664V40.7656H207.531V47H187.328ZM204.227 0.78125L196.891 9.42969H193.562L198.18 0.78125H204.227ZM222.086 40.8125H226.164C230.008 40.8125 232.805 39.9375 234.555 38.1875C236.32 36.4375 237.203 33.6641 237.203 29.8672C237.203 26.0859 236.32 23.3203 234.555 21.5703C232.805 19.8047 230.008 18.9219 226.164 18.9219H222.086V40.8125ZM214.75 47V12.6875H224.102C227.789 12.6875 230.695 12.9453 232.82 13.4609C234.945 13.9766 236.812 14.8359 238.422 16.0391C240.5 17.5859 242.07 19.5391 243.133 21.8984C244.211 24.2422 244.75 26.9141 244.75 29.9141C244.75 32.9609 244.203 35.6641 243.109 38.0234C242.016 40.3672 240.414 42.3047 238.305 43.8359C236.742 44.9609 235 45.7734 233.078 46.2734C231.172 46.7578 228.375 47 224.688 47H222.086H214.75ZM251.031 47V12.6875H258.367V47H251.031ZM279.039 18.9219V47H271.68V18.9219H263.289V12.6875H287.477V18.9219H279.039ZM326.523 29.9141C326.523 32.3672 326.062 34.6875 325.141 36.875C324.234 39.0625 322.922 40.9844 321.203 42.6406C319.422 44.3438 317.414 45.6484 315.18 46.5547C312.945 47.4609 310.633 47.9141 308.242 47.9141C306.148 47.9141 304.094 47.5625 302.078 46.8594C300.078 46.1406 298.242 45.1172 296.57 43.7891C294.414 42.0703 292.758 40.0156 291.602 37.625C290.461 35.2344 289.891 32.6641 289.891 29.9141C289.891 27.4453 290.344 25.1328 291.25 22.9766C292.156 20.8047 293.484 18.875 295.234 17.1875C296.953 15.5156 298.945 14.2187 301.211 13.2969C303.492 12.375 305.836 11.9141 308.242 11.9141C310.633 11.9141 312.953 12.375 315.203 13.2969C317.469 14.2187 319.469 15.5156 321.203 17.1875C322.938 18.875 324.258 20.8047 325.164 22.9766C326.07 25.1484 326.523 27.4609 326.523 29.9141ZM308.242 41.375C311.352 41.375 313.914 40.2891 315.93 38.1172C317.961 35.9297 318.977 33.1953 318.977 29.9141C318.977 26.6641 317.953 23.9297 315.906 21.7109C313.859 19.4922 311.305 18.3828 308.242 18.3828C305.133 18.3828 302.555 19.4922 300.508 21.7109C298.461 23.9141 297.438 26.6484 297.438 29.9141C297.438 33.2266 298.445 35.9688 300.461 38.1406C302.477 40.2969 305.07 41.375 308.242 41.375ZM39.1797 88.8125H43.2578C47.1016 88.8125 49.8984 87.9375 51.6484 86.1875C53.4141 84.4375 54.2969 81.6641 54.2969 77.8672C54.2969 74.0859 53.4141 71.3203 51.6484 69.5703C49.8984 67.8047 47.1016 66.9219 43.2578 66.9219H39.1797V88.8125ZM31.8438 95V60.6875H41.1953C44.8828 60.6875 47.7891 60.9453 49.9141 61.4609C52.0391 61.9766 53.9062 62.8359 55.5156 64.0391C57.5938 65.5859 59.1641 67.5391 60.2266 69.8984C61.3047 72.2422 61.8438 74.9141 61.8438 77.9141C61.8438 80.9609 61.2969 83.6641 60.2031 86.0234C59.1094 88.3672 57.5078 90.3047 55.3984 91.8359C53.8359 92.9609 52.0938 93.7734 50.1719 94.2734C48.2656 94.7578 45.4688 95 41.7812 95H39.1797H31.8438ZM67.9844 95V60.6875H88.1875V66.875H75.3203V73.9297H88.1875V80.1641H75.3203V88.7656H88.1875V95H67.9844ZM127.938 81.9453L124.094 70.8594C123.984 70.5312 123.844 69.9688 123.672 69.1719C123.5 68.375 123.32 67.3984 123.133 66.2422C122.93 67.3516 122.734 68.3516 122.547 69.2422C122.359 70.1172 122.219 70.7031 122.125 71L118.422 81.9453H127.938ZM106.094 95L119.148 60.6875H127.539L140.781 95H132.438L129.648 87.7109H116.359L113.969 95H106.094ZM171.18 69.6172C169.695 68.2891 168.172 67.3203 166.609 66.7109C165.047 66.0859 163.375 65.7734 161.594 65.7734C157.938 65.7734 155.023 66.8672 152.852 69.0547C150.68 71.2422 149.594 74.1797 149.594 77.8672C149.594 81.4766 150.602 84.3438 152.617 86.4688C154.633 88.5781 157.383 89.6328 160.867 89.6328C162.852 89.6328 164.695 89.3047 166.398 88.6484C168.102 87.9766 169.68 86.9766 171.133 85.6484L171.086 93.1719C169.523 94.0938 167.883 94.7812 166.164 95.2344C164.461 95.6875 162.664 95.9141 160.773 95.9141C155.305 95.9141 150.812 94.2188 147.297 90.8281C143.797 87.4219 142.047 83.1016 142.047 77.8672C142.047 72.6484 143.805 68.3438 147.32 64.9531C150.836 61.5625 155.367 59.8672 160.914 59.8672C162.773 59.8672 164.57 60.0625 166.305 60.4531C168.039 60.8438 169.75 61.4453 171.438 62.2578L171.18 69.6172ZM207.508 60.6875V82.0391C207.508 86.6953 206.281 90.1719 203.828 92.4688C201.375 94.7656 197.68 95.9141 192.742 95.9141C187.727 95.9141 183.992 94.7656 181.539 92.4688C179.086 90.1719 177.859 86.6953 177.859 82.0391V60.6875H185.148V80.8906C185.148 83.7188 185.773 85.8516 187.023 87.2891C188.273 88.7109 190.141 89.4219 192.625 89.4219C195.125 89.4219 197.016 88.7031 198.297 87.2656C199.578 85.8281 200.219 83.7031 200.219 80.8906V60.6875H207.508ZM215.125 95V60.6875H235.328V66.875H222.461V73.9297H235.328V80.1641H222.461V88.7656H235.328V95H215.125ZM267.367 95H258.906L249.883 78.9688V95H242.547V60.6875H253.047C257.219 60.6875 260.344 61.5 262.422 63.125C264.5 64.7344 265.539 67.1641 265.539 70.4141C265.539 72.7734 264.828 74.7891 263.406 76.4609C261.984 78.1328 260.148 79.1094 257.898 79.3906L267.367 95ZM249.883 75.3125H250.984C253.953 75.3125 255.914 74.9922 256.867 74.3516C257.82 73.6953 258.297 72.5625 258.297 70.9531C258.297 69.2656 257.781 68.0703 256.75 67.3672C255.734 66.6484 253.812 66.2891 250.984 66.2891H249.883V75.3125ZM278.992 88.8125H283.07C286.914 88.8125 289.711 87.9375 291.461 86.1875C293.227 84.4375 294.109 81.6641 294.109 77.8672C294.109 74.0859 293.227 71.3203 291.461 69.5703C289.711 67.8047 286.914 66.9219 283.07 66.9219H278.992V88.8125ZM271.656 95V60.6875H281.008C284.695 60.6875 287.602 60.9453 289.727 61.4609C291.852 61.9766 293.719 62.8359 295.328 64.0391C297.406 65.5859 298.977 67.5391 300.039 69.8984C301.117 72.2422 301.656 74.9141 301.656 77.9141C301.656 80.9609 301.109 83.6641 300.016 86.0234C298.922 88.3672 297.32 90.3047 295.211 91.8359C293.648 92.9609 291.906 93.7734 289.984 94.2734C288.078 94.7578 285.281 95 281.594 95H278.992H271.656ZM342.93 77.9141C342.93 80.3672 342.469 82.6875 341.547 84.875C340.641 87.0625 339.328 88.9844 337.609 90.6406C335.828 92.3438 333.82 93.6484 331.586 94.5547C329.352 95.4609 327.039 95.9141 324.648 95.9141C322.555 95.9141 320.5 95.5625 318.484 94.8594C316.484 94.1406 314.648 93.1172 312.977 91.7891C310.82 90.0703 309.164 88.0156 308.008 85.625C306.867 83.2344 306.297 80.6641 306.297 77.9141C306.297 75.4453 306.75 73.1328 307.656 70.9766C308.562 68.8047 309.891 66.875 311.641 65.1875C313.359 63.5156 315.352 62.2188 317.617 61.2969C319.898 60.375 322.242 59.9141 324.648 59.9141C327.039 59.9141 329.359 60.375 331.609 61.2969C333.875 62.2188 335.875 63.5156 337.609 65.1875C339.344 66.875 340.664 68.8047 341.57 70.9766C342.477 73.1484 342.93 75.4609 342.93 77.9141ZM324.648 89.375C327.758 89.375 330.32 88.2891 332.336 86.1172C334.367 83.9297 335.383 81.1953 335.383 77.9141C335.383 74.6641 334.359 71.9297 332.312 69.7109C330.266 67.4922 327.711 66.3828 324.648 66.3828C321.539 66.3828 318.961 67.4922 316.914 69.7109C314.867 71.9141 313.844 74.6484 313.844 77.9141C313.844 81.2266 314.852 83.9688 316.867 86.1406C318.883 88.2969 321.477 89.375 324.648 89.375ZM381.672 81.9453L377.828 70.8594C377.719 70.5312 377.578 69.9688 377.406 69.1719C377.234 68.375 377.055 67.3984 376.867 66.2422C376.664 67.3516 376.469 68.3516 376.281 69.2422C376.094 70.1172 375.953 70.7031 375.859 71L372.156 81.9453H381.672ZM359.828 95L372.883 60.6875H381.273L394.516 95H386.172L383.383 87.7109H370.094L367.703 95H359.828ZM44.6641 114.922V143H37.3047V114.922H28.9141V108.688H53.1016V114.922H44.6641ZM87.3672 108.688V130.039C87.3672 134.695 86.1406 138.172 83.6875 140.469C81.2344 142.766 77.5391 143.914 72.6016 143.914C67.5859 143.914 63.8516 142.766 61.3984 140.469C58.9453 138.172 57.7188 134.695 57.7188 130.039V108.688H65.0078V128.891C65.0078 131.719 65.6328 133.852 66.8828 135.289C68.1328 136.711 70 137.422 72.4844 137.422C74.9844 137.422 76.875 136.703 78.1562 135.266C79.4375 133.828 80.0781 131.703 80.0781 128.891V108.688H87.3672ZM92.7812 138.641L96.8594 134.023C97.375 135.289 98.2031 136.289 99.3438 137.023C100.484 137.742 101.766 138.102 103.188 138.102C104.906 138.102 106.266 137.695 107.266 136.883C108.266 136.07 108.766 134.977 108.766 133.602C108.766 131.977 107.102 130.359 103.773 128.75C102.695 128.234 101.844 127.812 101.219 127.484C98.2188 125.922 96.1406 124.398 94.9844 122.914C93.8281 121.414 93.25 119.633 93.25 117.57C93.25 114.742 94.3672 112.422 96.6016 110.609C98.8516 108.781 101.766 107.867 105.344 107.867C107.422 107.867 109.211 108.234 110.711 108.969C112.227 109.688 113.562 110.82 114.719 112.367L110.383 116.516C109.867 115.516 109.18 114.773 108.32 114.289C107.477 113.789 106.453 113.539 105.25 113.539C103.797 113.539 102.625 113.906 101.734 114.641C100.844 115.359 100.398 116.297 100.398 117.453C100.398 119.266 102.164 120.922 105.695 122.422C106.398 122.719 106.938 122.953 107.312 123.125C110.219 124.453 112.367 125.953 113.758 127.625C115.164 129.297 115.867 131.203 115.867 133.344C115.867 136.562 114.766 139.133 112.562 141.055C110.375 142.961 107.43 143.914 103.727 143.914C101.102 143.914 98.8516 143.461 96.9766 142.555C95.1016 141.648 93.7031 140.344 92.7812 138.641ZM136.656 143V108.688H144.273L159.461 128.656C159.898 129.219 160.375 130.016 160.891 131.047C161.422 132.062 161.969 133.266 162.531 134.656C162.359 133.641 162.234 132.633 162.156 131.633C162.078 130.633 162.039 129.383 162.039 127.883V108.688H169.047V143H161.852L146.242 122.656C145.805 122.094 145.328 121.305 144.812 120.289C144.297 119.258 143.75 118.031 143.172 116.609C143.344 117.594 143.469 118.594 143.547 119.609C143.625 120.609 143.664 121.875 143.664 123.406V143H136.656ZM176.688 143V108.688H196.891V114.875H184.023V121.93H196.891V128.164H184.023V136.766H196.891V143H176.688ZM231.742 117.617C230.258 116.289 228.734 115.32 227.172 114.711C225.609 114.086 223.938 113.773 222.156 113.773C218.5 113.773 215.586 114.867 213.414 117.055C211.242 119.242 210.156 122.18 210.156 125.867C210.156 129.477 211.164 132.344 213.18 134.469C215.195 136.578 217.945 137.633 221.43 137.633C223.414 137.633 225.258 137.305 226.961 136.648C228.664 135.977 230.242 134.977 231.695 133.648L231.648 141.172C230.086 142.094 228.445 142.781 226.727 143.234C225.023 143.688 223.227 143.914 221.336 143.914C215.867 143.914 211.375 142.219 207.859 138.828C204.359 135.422 202.609 131.102 202.609 125.867C202.609 120.648 204.367 116.344 207.883 112.953C211.398 109.562 215.93 107.867 221.477 107.867C223.336 107.867 225.133 108.062 226.867 108.453C228.602 108.844 230.312 109.445 232 110.258L231.742 117.617ZM238.562 143V108.688H258.766V114.875H245.898V121.93H258.766V128.164H245.898V136.766H258.766V143H238.562ZM263.781 138.641L267.859 134.023C268.375 135.289 269.203 136.289 270.344 137.023C271.484 137.742 272.766 138.102 274.188 138.102C275.906 138.102 277.266 137.695 278.266 136.883C279.266 136.07 279.766 134.977 279.766 133.602C279.766 131.977 278.102 130.359 274.773 128.75C273.695 128.234 272.844 127.812 272.219 127.484C269.219 125.922 267.141 124.398 265.984 122.914C264.828 121.414 264.25 119.633 264.25 117.57C264.25 114.742 265.367 112.422 267.602 110.609C269.852 108.781 272.766 107.867 276.344 107.867C278.422 107.867 280.211 108.234 281.711 108.969C283.227 109.688 284.562 110.82 285.719 112.367L281.383 116.516C280.867 115.516 280.18 114.773 279.32 114.289C278.477 113.789 277.453 113.539 276.25 113.539C274.797 113.539 273.625 113.906 272.734 114.641C271.844 115.359 271.398 116.297 271.398 117.453C271.398 119.266 273.164 120.922 276.695 122.422C277.398 122.719 277.938 122.953 278.312 123.125C281.219 124.453 283.367 125.953 284.758 127.625C286.164 129.297 286.867 131.203 286.867 133.344C286.867 136.562 285.766 139.133 283.562 141.055C281.375 142.961 278.43 143.914 274.727 143.914C272.102 143.914 269.852 143.461 267.977 142.555C266.102 141.648 264.703 140.344 263.781 138.641ZM293.031 143V108.688H300.367V143H293.031ZM315.555 136.812H319.633C323.477 136.812 326.273 135.938 328.023 134.188C329.789 132.438 330.672 129.664 330.672 125.867C330.672 122.086 329.789 119.32 328.023 117.57C326.273 115.805 323.477 114.922 319.633 114.922H315.555V136.812ZM308.219 143V108.688H317.57C321.258 108.688 324.164 108.945 326.289 109.461C328.414 109.977 330.281 110.836 331.891 112.039C333.969 113.586 335.539 115.539 336.602 117.898C337.68 120.242 338.219 122.914 338.219 125.914C338.219 128.961 337.672 131.664 336.578 134.023C335.484 136.367 333.883 138.305 331.773 139.836C330.211 140.961 328.469 141.773 326.547 142.273C324.641 142.758 321.844 143 318.156 143H315.555H308.219ZM361.281 129.945L357.438 118.859C357.328 118.531 357.188 117.969 357.016 117.172C356.844 116.375 356.664 115.398 356.477 114.242C356.273 115.352 356.078 116.352 355.891 117.242C355.703 118.117 355.562 118.703 355.469 119L351.766 129.945H361.281ZM339.438 143L352.492 108.688H360.883L374.125 143H365.781L362.992 135.711H349.703L347.312 143H339.438ZM385.07 136.812H389.148C392.992 136.812 395.789 135.938 397.539 134.188C399.305 132.438 400.188 129.664 400.188 125.867C400.188 122.086 399.305 119.32 397.539 117.57C395.789 115.805 392.992 114.922 389.148 114.922H385.07V136.812ZM377.734 143V108.688H387.086C390.773 108.688 393.68 108.945 395.805 109.461C397.93 109.977 399.797 110.836 401.406 112.039C403.484 113.586 405.055 115.539 406.117 117.898C407.195 120.242 407.734 122.914 407.734 125.914C407.734 128.961 407.188 131.664 406.094 134.023C405 136.367 403.398 138.305 401.289 139.836C399.727 140.961 397.984 141.773 396.062 142.273C394.156 142.758 391.359 143 387.672 143H385.07H377.734ZM413.875 143V108.688H434.078V114.875H421.211V121.93H434.078V128.164H421.211V136.766H434.078V143H413.875ZM439.094 138.641L443.172 134.023C443.688 135.289 444.516 136.289 445.656 137.023C446.797 137.742 448.078 138.102 449.5 138.102C451.219 138.102 452.578 137.695 453.578 136.883C454.578 136.07 455.078 134.977 455.078 133.602C455.078 131.977 453.414 130.359 450.086 128.75C449.008 128.234 448.156 127.812 447.531 127.484C444.531 125.922 442.453 124.398 441.297 122.914C440.141 121.414 439.562 119.633 439.562 117.57C439.562 114.742 440.68 112.422 442.914 110.609C445.164 108.781 448.078 107.867 451.656 107.867C453.734 107.867 455.523 108.234 457.023 108.969C458.539 109.688 459.875 110.82 461.031 112.367L456.695 116.516C456.18 115.516 455.492 114.773 454.633 114.289C453.789 113.789 452.766 113.539 451.562 113.539C450.109 113.539 448.938 113.906 448.047 114.641C447.156 115.359 446.711 116.297 446.711 117.453C446.711 119.266 448.477 120.922 452.008 122.422C452.711 122.719 453.25 122.953 453.625 123.125C456.531 124.453 458.68 125.953 460.07 127.625C461.477 129.297 462.18 131.203 462.18 133.344C462.18 136.562 461.078 139.133 458.875 141.055C456.688 142.961 453.742 143.914 450.039 143.914C447.414 143.914 445.164 143.461 443.289 142.555C441.414 141.648 440.016 140.344 439.094 138.641Z" fill="white"/>
<rect x="28" y="163" width="415" height="70" rx="16" fill="#002A61"/>
<path d="M51.198 199.148L52.8 203H54.474L48.372 188.78L42.108 203H43.764L45.402 199.148H51.198ZM50.604 197.744H46.014L48.336 192.308L50.604 197.744ZM57.6639 194.54H56.2239V207.752H57.6639V194.54ZM56.9439 190.328C56.3859 190.328 55.9179 190.796 55.9179 191.354C55.9179 191.93 56.3859 192.38 56.9439 192.38C57.5019 192.38 57.9699 191.93 57.9699 191.354C57.9699 190.796 57.5019 190.328 56.9439 190.328ZM61.9969 194.54H60.5569V199.418C60.5569 201.668 61.4029 203.234 63.9049 203.234C66.4069 203.234 67.2529 201.668 67.2529 199.418V194.54H65.8129V199.256C65.8129 200.678 65.6509 201.902 63.9049 201.902C62.1589 201.902 61.9969 200.678 61.9969 199.256V194.54ZM74.5018 195.872C74.1238 194.99 73.2238 194.306 72.2518 194.306C70.8838 194.306 69.7318 195.278 69.7318 196.7C69.7318 199.364 73.5478 198.716 73.5478 200.606C73.5478 201.38 72.9538 201.902 72.1798 201.902C71.2258 201.902 70.8118 201.344 70.4518 200.552L69.1738 201.092C69.6238 202.424 70.7398 203.234 72.1618 203.234C73.7278 203.234 75.0238 202.082 75.0238 200.48C75.0238 199.058 74.0518 198.464 73.0618 198.05C72.0718 197.636 71.0998 197.348 71.0998 196.574C71.0998 196.034 71.6398 195.638 72.1438 195.638C72.6658 195.638 73.0978 196.052 73.2958 196.502L74.5018 195.872ZM78.5773 195.872H80.0893V194.54H78.5773V191.498H77.1373V194.54H76.2553V195.872H77.1373V203H78.5773V195.872ZM84.8995 195.638C86.6815 195.638 87.7435 197.006 87.7435 198.698C87.7435 200.408 86.7715 201.902 84.9175 201.902C83.1175 201.902 82.1455 200.336 82.1455 198.68C82.1455 197.096 83.2255 195.638 84.8995 195.638ZM89.1115 194.54H87.6715V195.746H87.6355C86.9335 194.846 85.8895 194.306 84.7375 194.306C82.1995 194.306 80.6695 196.376 80.6695 198.788C80.6695 201.128 82.2355 203.234 84.7195 203.234C85.9075 203.234 86.8975 202.766 87.6355 201.83H87.6715V203H89.1115V194.54ZM93.2182 194.54H91.7782V203H93.2182V198.626C93.2182 197.348 93.3982 195.638 95.0902 195.638C96.4762 195.638 96.6022 197.15 96.6022 198.194V203H98.0422V198.518C98.0422 197.24 98.2222 195.638 99.8782 195.638C101.354 195.638 101.426 196.988 101.426 198.086V203H102.866V197.852C102.866 196.07 102.326 194.306 100.166 194.306C99.1402 194.306 98.1322 194.774 97.6282 195.71C97.1782 194.828 96.2782 194.306 95.2882 194.306C94.4242 194.306 93.7042 194.756 93.2542 195.458H93.2182V194.54ZM109.285 203.234C111.751 203.234 113.731 201.272 113.731 198.788C113.731 196.304 111.769 194.306 109.285 194.306C106.801 194.306 104.839 196.304 104.839 198.788C104.839 201.272 106.819 203.234 109.285 203.234ZM109.285 195.638C111.067 195.638 112.291 197.06 112.291 198.77C112.291 200.498 111.067 201.902 109.285 201.902C107.503 201.902 106.279 200.498 106.279 198.77C106.279 197.06 107.503 195.638 109.285 195.638ZM120.328 195.872C119.95 194.99 119.05 194.306 118.078 194.306C116.71 194.306 115.558 195.278 115.558 196.7C115.558 199.364 119.374 198.716 119.374 200.606C119.374 201.38 118.78 201.902 118.006 201.902C117.052 201.902 116.638 201.344 116.278 200.552L115 201.092C115.45 202.424 116.566 203.234 117.988 203.234C119.554 203.234 120.85 202.082 120.85 200.48C120.85 199.058 119.878 198.464 118.888 198.05C117.898 197.636 116.926 197.348 116.926 196.574C116.926 196.034 117.466 195.638 117.97 195.638C118.492 195.638 118.924 196.052 119.122 196.502L120.328 195.872ZM135.791 199.076C135.935 196.556 134.495 194.306 131.777 194.306C129.131 194.306 127.673 196.376 127.673 198.878C127.673 201.308 129.293 203.234 131.813 203.234C133.541 203.234 134.909 202.37 135.719 200.858L134.495 200.156C133.937 201.164 133.145 201.902 131.921 201.902C130.283 201.902 129.167 200.642 129.149 199.076H135.791ZM129.221 197.852C129.401 196.628 130.553 195.638 131.795 195.638C133.055 195.638 134.081 196.628 134.279 197.852H129.221ZM139.167 188.15H137.727V203H139.167V188.15ZM153.66 195.152C152.904 194.612 151.968 194.306 151.05 194.306C148.566 194.306 146.532 196.25 146.532 198.77C146.532 201.326 148.476 203.234 151.032 203.234C152.04 203.234 152.886 202.928 153.714 202.37V200.444H153.678C152.976 201.362 152.13 201.902 150.924 201.902C149.16 201.902 148.008 200.444 148.008 198.77C148.008 197.078 149.25 195.638 150.996 195.638C152.13 195.638 152.958 196.214 153.624 197.06H153.66V195.152ZM157.306 194.54H155.866V203H157.306V198.77C157.306 197.672 157.378 195.638 158.962 195.638C159.34 195.638 159.538 195.818 159.826 196.016L160.51 194.702C160.096 194.468 159.7 194.306 159.214 194.306C158.278 194.306 157.846 194.792 157.342 195.458H157.306V194.54ZM169.33 199.076C169.474 196.556 168.034 194.306 165.316 194.306C162.67 194.306 161.212 196.376 161.212 198.878C161.212 201.308 162.832 203.234 165.352 203.234C167.08 203.234 168.448 202.37 169.258 200.858L168.034 200.156C167.476 201.164 166.684 201.902 165.46 201.902C163.822 201.902 162.706 200.642 162.688 199.076H169.33ZM162.76 197.852C162.94 196.628 164.092 195.638 165.334 195.638C166.594 195.638 167.62 196.628 167.818 197.852H162.76ZM166.324 189.608L164.182 192.56L165.082 193.064L167.836 190.292L166.324 189.608ZM174.812 195.638C176.594 195.638 177.656 197.006 177.656 198.698C177.656 200.408 176.684 201.902 174.83 201.902C173.03 201.902 172.058 200.336 172.058 198.68C172.058 197.096 173.138 195.638 174.812 195.638ZM177.584 203H179.024V188.15H177.584V195.746H177.548C176.864 194.846 175.784 194.306 174.65 194.306C172.112 194.306 170.582 196.376 170.582 198.788C170.582 201.128 172.148 203.234 174.632 203.234C175.784 203.234 176.846 202.748 177.548 201.83H177.584V203ZM183.4 194.54H181.96V203H183.4V194.54ZM182.68 190.328C182.122 190.328 181.654 190.796 181.654 191.354C181.654 191.93 182.122 192.38 182.68 192.38C183.238 192.38 183.706 191.93 183.706 191.354C183.706 190.796 183.238 190.328 182.68 190.328ZM187.913 195.872H189.425V194.54H187.913V191.498H186.473V194.54H185.591V195.872H186.473V203H187.913V195.872ZM194.415 203.234C196.881 203.234 198.861 201.272 198.861 198.788C198.861 196.304 196.899 194.306 194.415 194.306C191.931 194.306 189.969 196.304 189.969 198.788C189.969 201.272 191.949 203.234 194.415 203.234ZM194.415 195.638C196.197 195.638 197.421 197.06 197.421 198.77C197.421 200.498 196.197 201.902 194.415 201.902C192.633 201.902 191.409 200.498 191.409 198.77C191.409 197.06 192.633 195.638 194.415 195.638ZM209.88 195.638C211.662 195.638 212.724 197.006 212.724 198.698C212.724 200.408 211.752 201.902 209.898 201.902C208.098 201.902 207.126 200.336 207.126 198.68C207.126 197.096 208.206 195.638 209.88 195.638ZM214.092 194.54H212.652V195.746H212.616C211.914 194.846 210.87 194.306 209.718 194.306C207.18 194.306 205.65 196.376 205.65 198.788C205.65 201.128 207.216 203.234 209.7 203.234C210.888 203.234 211.878 202.766 212.616 201.83H212.652V203H214.092V194.54ZM223.808 195.872H225.32V194.54H223.808V191.498H222.368V194.54H221.486V195.872H222.368V203H223.808V195.872ZM227.952 194.54H226.512V199.418C226.512 201.668 227.358 203.234 229.86 203.234C232.362 203.234 233.208 201.668 233.208 199.418V194.54H231.768V199.256C231.768 200.678 231.606 201.902 229.86 201.902C228.114 201.902 227.952 200.678 227.952 199.256V194.54ZM248.082 196.754C247.518 196.37 246.948 196.178 246.372 196.178C246.06 196.178 245.766 196.232 245.49 196.34C245.226 196.448 244.992 196.604 244.788 196.808C244.584 197 244.422 197.234 244.302 197.51C244.194 197.774 244.14 198.074 244.14 198.41C244.14 198.734 244.194 199.034 244.302 199.31C244.422 199.574 244.578 199.808 244.77 200.012C244.974 200.204 245.214 200.354 245.49 200.462C245.766 200.57 246.06 200.624 246.372 200.624C246.984 200.624 247.554 200.414 248.082 199.994V202.766C247.278 203.114 246.516 203.288 245.796 203.288C245.124 203.288 244.482 203.174 243.87 202.946C243.27 202.718 242.736 202.394 242.268 201.974C241.812 201.542 241.446 201.032 241.17 200.444C240.894 199.844 240.756 199.178 240.756 198.446C240.756 197.714 240.888 197.048 241.152 196.448C241.416 195.836 241.776 195.314 242.232 194.882C242.688 194.438 243.228 194.096 243.852 193.856C244.488 193.604 245.166 193.478 245.886 193.478C246.678 193.478 247.41 193.646 248.082 193.982V196.754ZM252.964 198.356C252.964 198.656 253.018 198.938 253.126 199.202C253.234 199.454 253.378 199.676 253.558 199.868C253.75 200.06 253.972 200.21 254.224 200.318C254.488 200.426 254.77 200.48 255.07 200.48C255.358 200.48 255.628 200.426 255.88 200.318C256.144 200.21 256.366 200.06 256.546 199.868C256.738 199.676 256.888 199.454 256.996 199.202C257.116 198.95 257.176 198.68 257.176 198.392C257.176 198.104 257.116 197.834 256.996 197.582C256.888 197.318 256.738 197.09 256.546 196.898C256.366 196.706 256.144 196.556 255.88 196.448C255.628 196.34 255.358 196.286 255.07 196.286C254.77 196.286 254.488 196.34 254.224 196.448C253.972 196.556 253.75 196.706 253.558 196.898C253.378 197.09 253.234 197.312 253.126 197.564C253.018 197.804 252.964 198.068 252.964 198.356ZM257.068 193.766H260.344V203H257.068V201.974C256.372 202.85 255.43 203.288 254.242 203.288C253.57 203.288 252.952 203.168 252.388 202.928C251.824 202.676 251.332 202.328 250.912 201.884C250.492 201.44 250.162 200.918 249.922 200.318C249.694 199.718 249.58 199.064 249.58 198.356C249.58 197.696 249.694 197.072 249.922 196.484C250.15 195.884 250.468 195.362 250.876 194.918C251.284 194.474 251.77 194.126 252.334 193.874C252.898 193.61 253.522 193.478 254.206 193.478C255.358 193.478 256.312 193.88 257.068 194.684V193.766ZM269.923 198.41C269.923 198.122 269.869 197.852 269.761 197.6C269.665 197.336 269.521 197.108 269.329 196.916C269.137 196.724 268.909 196.574 268.645 196.466C268.393 196.346 268.117 196.286 267.817 196.286C267.529 196.286 267.259 196.34 267.007 196.448C266.755 196.556 266.533 196.706 266.341 196.898C266.161 197.09 266.011 197.318 265.891 197.582C265.783 197.834 265.729 198.104 265.729 198.392C265.729 198.68 265.783 198.95 265.891 199.202C265.999 199.454 266.149 199.676 266.341 199.868C266.533 200.048 266.755 200.198 267.007 200.318C267.271 200.426 267.547 200.48 267.835 200.48C268.123 200.48 268.393 200.426 268.645 200.318C268.897 200.21 269.113 200.06 269.293 199.868C269.485 199.676 269.635 199.454 269.743 199.202C269.863 198.95 269.923 198.686 269.923 198.41ZM265.819 207.608H262.561V193.766H265.819V194.792C266.515 193.916 267.463 193.478 268.663 193.478C269.323 193.478 269.935 193.61 270.499 193.874C271.075 194.126 271.573 194.474 271.993 194.918C272.413 195.362 272.737 195.884 272.965 196.484C273.205 197.084 273.325 197.726 273.325 198.41C273.325 199.094 273.205 199.73 272.965 200.318C272.737 200.906 272.413 201.422 271.993 201.866C271.585 202.31 271.099 202.658 270.535 202.91C269.971 203.162 269.359 203.288 268.699 203.288C267.547 203.288 266.587 202.892 265.819 202.1V207.608ZM278.206 198.356C278.206 198.656 278.26 198.938 278.368 199.202C278.476 199.454 278.62 199.676 278.8 199.868C278.992 200.06 279.214 200.21 279.466 200.318C279.73 200.426 280.012 200.48 280.312 200.48C280.6 200.48 280.87 200.426 281.122 200.318C281.386 200.21 281.608 200.06 281.788 199.868C281.98 199.676 282.13 199.454 282.238 199.202C282.358 198.95 282.418 198.68 282.418 198.392C282.418 198.104 282.358 197.834 282.238 197.582C282.13 197.318 281.98 197.09 281.788 196.898C281.608 196.706 281.386 196.556 281.122 196.448C280.87 196.34 280.6 196.286 280.312 196.286C280.012 196.286 279.73 196.34 279.466 196.448C279.214 196.556 278.992 196.706 278.8 196.898C278.62 197.09 278.476 197.312 278.368 197.564C278.26 197.804 278.206 198.068 278.206 198.356ZM282.31 193.766H285.586V203H282.31V201.974C281.614 202.85 280.672 203.288 279.484 203.288C278.812 203.288 278.194 203.168 277.63 202.928C277.066 202.676 276.574 202.328 276.154 201.884C275.734 201.44 275.404 200.918 275.164 200.318C274.936 199.718 274.822 199.064 274.822 198.356C274.822 197.696 274.936 197.072 275.164 196.484C275.392 195.884 275.71 195.362 276.118 194.918C276.526 194.474 277.012 194.126 277.576 193.874C278.14 193.61 278.764 193.478 279.448 193.478C280.6 193.478 281.554 193.88 282.31 194.684V193.766ZM294.77 196.754C294.206 196.37 293.636 196.178 293.06 196.178C292.748 196.178 292.454 196.232 292.178 196.34C291.914 196.448 291.68 196.604 291.476 196.808C291.272 197 291.11 197.234 290.99 197.51C290.882 197.774 290.828 198.074 290.828 198.41C290.828 198.734 290.882 199.034 290.99 199.31C291.11 199.574 291.266 199.808 291.458 200.012C291.662 200.204 291.902 200.354 292.178 200.462C292.454 200.57 292.748 200.624 293.06 200.624C293.672 200.624 294.242 200.414 294.77 199.994V202.766C293.966 203.114 293.204 203.288 292.484 203.288C291.812 203.288 291.17 203.174 290.558 202.946C289.958 202.718 289.424 202.394 288.956 201.974C288.5 201.542 288.134 201.032 287.858 200.444C287.582 199.844 287.444 199.178 287.444 198.446C287.444 197.714 287.576 197.048 287.84 196.448C288.104 195.836 288.464 195.314 288.92 194.882C289.376 194.438 289.916 194.096 290.54 193.856C291.176 193.604 291.854 193.478 292.574 193.478C293.366 193.478 294.098 193.646 294.77 193.982V196.754ZM299.886 193.766V203H296.628V193.766H299.886ZM296.412 190.22C296.412 189.968 296.46 189.734 296.556 189.518C296.652 189.29 296.784 189.092 296.952 188.924C297.12 188.756 297.312 188.624 297.528 188.528C297.756 188.432 297.996 188.384 298.248 188.384C298.5 188.384 298.734 188.432 298.95 188.528C299.178 188.624 299.376 188.756 299.544 188.924C299.712 189.092 299.844 189.29 299.94 189.518C300.036 189.734 300.084 189.968 300.084 190.22C300.084 190.472 300.036 190.712 299.94 190.94C299.844 191.156 299.712 191.348 299.544 191.516C299.376 191.684 299.178 191.816 298.95 191.912C298.734 192.008 298.5 192.056 298.248 192.056C297.996 192.056 297.756 192.008 297.528 191.912C297.312 191.816 297.12 191.684 296.952 191.516C296.784 191.348 296.652 191.156 296.556 190.94C296.46 190.712 296.412 190.472 296.412 190.22ZM305.136 198.356C305.136 198.656 305.19 198.938 305.298 199.202C305.406 199.454 305.55 199.676 305.73 199.868C305.922 200.06 306.144 200.21 306.396 200.318C306.66 200.426 306.942 200.48 307.242 200.48C307.53 200.48 307.8 200.426 308.052 200.318C308.316 200.21 308.538 200.06 308.718 199.868C308.91 199.676 309.06 199.454 309.168 199.202C309.288 198.95 309.348 198.68 309.348 198.392C309.348 198.104 309.288 197.834 309.168 197.582C309.06 197.318 308.91 197.09 308.718 196.898C308.538 196.706 308.316 196.556 308.052 196.448C307.8 196.34 307.53 196.286 307.242 196.286C306.954 196.286 306.678 196.34 306.414 196.448C306.162 196.556 305.94 196.706 305.748 196.898C305.568 197.09 305.418 197.312 305.298 197.564C305.19 197.804 305.136 198.068 305.136 198.356ZM309.24 188.06H312.516V203H309.24V201.974C308.544 202.85 307.602 203.288 306.414 203.288C305.742 203.288 305.124 203.162 304.56 202.91C303.996 202.658 303.504 202.31 303.084 201.866C302.664 201.422 302.334 200.9 302.094 200.3C301.866 199.7 301.752 199.052 301.752 198.356C301.752 197.696 301.86 197.072 302.076 196.484C302.304 195.884 302.622 195.362 303.03 194.918C303.438 194.474 303.924 194.126 304.488 193.874C305.064 193.61 305.694 193.478 306.378 193.478C307.53 193.478 308.484 193.88 309.24 194.684V188.06ZM317.757 198.356C317.757 198.656 317.811 198.938 317.919 199.202C318.027 199.454 318.171 199.676 318.351 199.868C318.543 200.06 318.765 200.21 319.017 200.318C319.281 200.426 319.563 200.48 319.863 200.48C320.151 200.48 320.421 200.426 320.673 200.318C320.937 200.21 321.159 200.06 321.339 199.868C321.531 199.676 321.681 199.454 321.789 199.202C321.909 198.95 321.969 198.68 321.969 198.392C321.969 198.104 321.909 197.834 321.789 197.582C321.681 197.318 321.531 197.09 321.339 196.898C321.159 196.706 320.937 196.556 320.673 196.448C320.421 196.34 320.151 196.286 319.863 196.286C319.563 196.286 319.281 196.34 319.017 196.448C318.765 196.556 318.543 196.706 318.351 196.898C318.171 197.09 318.027 197.312 317.919 197.564C317.811 197.804 317.757 198.068 317.757 198.356ZM321.861 193.766H325.137V203H321.861V201.974C321.165 202.85 320.223 203.288 319.035 203.288C318.363 203.288 317.745 203.168 317.181 202.928C316.617 202.676 316.125 202.328 315.705 201.884C315.285 201.44 314.955 200.918 314.715 200.318C314.487 199.718 314.373 199.064 314.373 198.356C314.373 197.696 314.487 197.072 314.715 196.484C314.943 195.884 315.261 195.362 315.669 194.918C316.077 194.474 316.563 194.126 317.127 193.874C317.691 193.61 318.315 193.478 318.999 193.478C320.151 193.478 321.105 193.88 321.861 194.684V193.766ZM330.378 198.356C330.378 198.656 330.432 198.938 330.54 199.202C330.648 199.454 330.792 199.676 330.972 199.868C331.164 200.06 331.386 200.21 331.638 200.318C331.902 200.426 332.184 200.48 332.484 200.48C332.772 200.48 333.042 200.426 333.294 200.318C333.558 200.21 333.78 200.06 333.96 199.868C334.152 199.676 334.302 199.454 334.41 199.202C334.53 198.95 334.59 198.68 334.59 198.392C334.59 198.104 334.53 197.834 334.41 197.582C334.302 197.318 334.152 197.09 333.96 196.898C333.78 196.706 333.558 196.556 333.294 196.448C333.042 196.34 332.772 196.286 332.484 196.286C332.196 196.286 331.92 196.34 331.656 196.448C331.404 196.556 331.182 196.706 330.99 196.898C330.81 197.09 330.66 197.312 330.54 197.564C330.432 197.804 330.378 198.068 330.378 198.356ZM334.482 188.06H337.758V203H334.482V201.974C333.786 202.85 332.844 203.288 331.656 203.288C330.984 203.288 330.366 203.162 329.802 202.91C329.238 202.658 328.746 202.31 328.326 201.866C327.906 201.422 327.576 200.9 327.336 200.3C327.108 199.7 326.994 199.052 326.994 198.356C326.994 197.696 327.102 197.072 327.318 196.484C327.546 195.884 327.864 195.362 328.272 194.918C328.68 194.474 329.166 194.126 329.73 193.874C330.306 193.61 330.936 193.478 331.62 193.478C332.772 193.478 333.726 193.88 334.482 194.684V188.06ZM349.117 198.356C349.117 198.656 349.171 198.938 349.279 199.202C349.387 199.454 349.531 199.676 349.711 199.868C349.903 200.06 350.125 200.21 350.377 200.318C350.641 200.426 350.923 200.48 351.223 200.48C351.511 200.48 351.781 200.426 352.033 200.318C352.297 200.21 352.519 200.06 352.699 199.868C352.891 199.676 353.041 199.454 353.149 199.202C353.269 198.95 353.329 198.68 353.329 198.392C353.329 198.104 353.269 197.834 353.149 197.582C353.041 197.318 352.891 197.09 352.699 196.898C352.519 196.706 352.297 196.556 352.033 196.448C351.781 196.34 351.511 196.286 351.223 196.286C350.935 196.286 350.659 196.34 350.395 196.448C350.143 196.556 349.921 196.706 349.729 196.898C349.549 197.09 349.399 197.312 349.279 197.564C349.171 197.804 349.117 198.068 349.117 198.356ZM353.221 188.06H356.497V203H353.221V201.974C352.525 202.85 351.583 203.288 350.395 203.288C349.723 203.288 349.105 203.162 348.541 202.91C347.977 202.658 347.485 202.31 347.065 201.866C346.645 201.422 346.315 200.9 346.075 200.3C345.847 199.7 345.733 199.052 345.733 198.356C345.733 197.696 345.841 197.072 346.057 196.484C346.285 195.884 346.603 195.362 347.011 194.918C347.419 194.474 347.905 194.126 348.469 193.874C349.045 193.61 349.675 193.478 350.359 193.478C351.511 193.478 352.465 193.88 353.221 194.684V188.06ZM365.464 197.042C365.356 196.586 365.134 196.22 364.798 195.944C364.462 195.668 364.054 195.53 363.574 195.53C363.07 195.53 362.656 195.662 362.332 195.926C362.02 196.19 361.822 196.562 361.738 197.042H365.464ZM361.648 198.932C361.648 200.336 362.308 201.038 363.628 201.038C364.336 201.038 364.87 200.75 365.23 200.174H368.38C367.744 202.286 366.154 203.342 363.61 203.342C362.83 203.342 362.116 203.228 361.468 203C360.82 202.76 360.262 202.424 359.794 201.992C359.338 201.56 358.984 201.044 358.732 200.444C358.48 199.844 358.354 199.172 358.354 198.428C358.354 197.66 358.474 196.97 358.714 196.358C358.954 195.734 359.296 195.206 359.74 194.774C360.184 194.342 360.718 194.012 361.342 193.784C361.978 193.544 362.692 193.424 363.484 193.424C364.264 193.424 364.966 193.544 365.59 193.784C366.214 194.012 366.742 194.348 367.174 194.792C367.606 195.236 367.936 195.782 368.164 196.43C368.392 197.066 368.506 197.786 368.506 198.59V198.932H361.648ZM383.847 198.41C383.847 198.122 383.793 197.852 383.685 197.6C383.589 197.336 383.445 197.108 383.253 196.916C383.061 196.724 382.833 196.574 382.569 196.466C382.317 196.346 382.041 196.286 381.741 196.286C381.453 196.286 381.183 196.34 380.931 196.448C380.679 196.556 380.457 196.706 380.265 196.898C380.085 197.09 379.935 197.318 379.815 197.582C379.707 197.834 379.653 198.104 379.653 198.392C379.653 198.68 379.707 198.95 379.815 199.202C379.923 199.454 380.073 199.676 380.265 199.868C380.457 200.048 380.679 200.198 380.931 200.318C381.195 200.426 381.471 200.48 381.759 200.48C382.047 200.48 382.317 200.426 382.569 200.318C382.821 200.21 383.037 200.06 383.217 199.868C383.409 199.676 383.559 199.454 383.667 199.202C383.787 198.95 383.847 198.686 383.847 198.41ZM379.743 207.608H376.485V193.766H379.743V194.792C380.439 193.916 381.387 193.478 382.587 193.478C383.247 193.478 383.859 193.61 384.423 193.874C384.999 194.126 385.497 194.474 385.917 194.918C386.337 195.362 386.661 195.884 386.889 196.484C387.129 197.084 387.249 197.726 387.249 198.41C387.249 199.094 387.129 199.73 386.889 200.318C386.661 200.906 386.337 201.422 385.917 201.866C385.509 202.31 385.023 202.658 384.459 202.91C383.895 203.162 383.283 203.288 382.623 203.288C381.471 203.288 380.511 202.892 379.743 202.1V207.608ZM392.13 198.356C392.13 198.656 392.184 198.938 392.292 199.202C392.4 199.454 392.544 199.676 392.724 199.868C392.916 200.06 393.138 200.21 393.39 200.318C393.654 200.426 393.936 200.48 394.236 200.48C394.524 200.48 394.794 200.426 395.046 200.318C395.31 200.21 395.532 200.06 395.712 199.868C395.904 199.676 396.054 199.454 396.162 199.202C396.282 198.95 396.342 198.68 396.342 198.392C396.342 198.104 396.282 197.834 396.162 197.582C396.054 197.318 395.904 197.09 395.712 196.898C395.532 196.706 395.31 196.556 395.046 196.448C394.794 196.34 394.524 196.286 394.236 196.286C393.936 196.286 393.654 196.34 393.39 196.448C393.138 196.556 392.916 196.706 392.724 196.898C392.544 197.09 392.4 197.312 392.292 197.564C392.184 197.804 392.13 198.068 392.13 198.356ZM396.234 193.766H399.51V203H396.234V201.974C395.538 202.85 394.596 203.288 393.408 203.288C392.736 203.288 392.118 203.168 391.554 202.928C390.99 202.676 390.498 202.328 390.078 201.884C389.658 201.44 389.328 200.918 389.088 200.318C388.86 199.718 388.746 199.064 388.746 198.356C388.746 197.696 388.86 197.072 389.088 196.484C389.316 195.884 389.634 195.362 390.042 194.918C390.45 194.474 390.936 194.126 391.5 193.874C392.064 193.61 392.688 193.478 393.372 193.478C394.524 193.478 395.478 193.88 396.234 194.684V193.766ZM404.751 198.338C404.751 198.638 404.805 198.92 404.913 199.184C405.021 199.436 405.165 199.658 405.345 199.85C405.537 200.042 405.759 200.192 406.011 200.3C406.275 200.408 406.557 200.462 406.857 200.462C407.145 200.462 407.415 200.408 407.667 200.3C407.931 200.192 408.153 200.042 408.333 199.85C408.525 199.658 408.675 199.436 408.783 199.184C408.903 198.92 408.963 198.644 408.963 198.356C408.963 198.056 408.903 197.78 408.783 197.528C408.675 197.276 408.525 197.054 408.333 196.862C408.141 196.67 407.913 196.52 407.649 196.412C407.397 196.304 407.133 196.25 406.857 196.25C406.569 196.25 406.299 196.31 406.047 196.43C405.795 196.538 405.573 196.688 405.381 196.88C405.189 197.06 405.033 197.276 404.913 197.528C404.805 197.78 404.751 198.05 404.751 198.338ZM412.059 193.766V202.37C412.059 202.886 412.029 203.348 411.969 203.756C411.909 204.164 411.825 204.524 411.717 204.836C411.573 205.232 411.345 205.598 411.033 205.934C410.733 206.282 410.367 206.582 409.935 206.834C409.503 207.086 409.011 207.284 408.459 207.428C407.919 207.572 407.331 207.644 406.695 207.644C405.975 207.644 405.315 207.554 404.715 207.374C404.115 207.194 403.587 206.942 403.131 206.618C402.687 206.306 402.321 205.934 402.033 205.502C401.745 205.082 401.553 204.62 401.457 204.116H405.129C405.357 204.728 405.873 205.034 406.677 205.034C407.361 205.034 407.883 204.842 408.243 204.458C408.615 204.074 408.801 203.54 408.801 202.856V201.974C408.561 202.202 408.327 202.394 408.099 202.55C407.883 202.694 407.661 202.814 407.433 202.91C407.205 203.006 406.965 203.072 406.713 203.108C406.461 203.156 406.185 203.18 405.885 203.18C405.225 203.18 404.619 203.066 404.067 202.838C403.515 202.61 403.035 202.292 402.627 201.884C402.231 201.476 401.919 200.99 401.691 200.426C401.475 199.85 401.367 199.214 401.367 198.518C401.367 197.81 401.487 197.156 401.727 196.556C401.967 195.944 402.291 195.416 402.699 194.972C403.119 194.516 403.611 194.162 404.175 193.91C404.751 193.646 405.375 193.514 406.047 193.514C407.139 193.514 408.057 193.922 408.801 194.738V193.766H412.059ZM417.356 198.338C417.356 198.65 417.41 198.938 417.518 199.202C417.638 199.454 417.788 199.676 417.968 199.868C418.16 200.06 418.382 200.21 418.634 200.318C418.898 200.426 419.174 200.48 419.462 200.48C419.75 200.48 420.02 200.426 420.272 200.318C420.536 200.21 420.758 200.06 420.938 199.868C421.13 199.676 421.28 199.454 421.388 199.202C421.508 198.938 421.568 198.656 421.568 198.356C421.568 198.068 421.508 197.798 421.388 197.546C421.28 197.282 421.13 197.054 420.938 196.862C420.758 196.67 420.536 196.52 420.272 196.412C420.02 196.304 419.75 196.25 419.462 196.25C419.174 196.25 418.898 196.304 418.634 196.412C418.382 196.52 418.16 196.67 417.968 196.862C417.788 197.054 417.638 197.276 417.518 197.528C417.41 197.78 417.356 198.05 417.356 198.338ZM413.918 198.302C413.918 197.618 414.056 196.982 414.332 196.394C414.608 195.794 414.992 195.278 415.484 194.846C415.976 194.402 416.558 194.054 417.23 193.802C417.914 193.55 418.658 193.424 419.462 193.424C420.254 193.424 420.986 193.55 421.658 193.802C422.342 194.042 422.93 194.384 423.422 194.828C423.926 195.26 424.316 195.782 424.592 196.394C424.868 196.994 425.006 197.66 425.006 198.392C425.006 199.124 424.862 199.796 424.574 200.408C424.298 201.008 423.914 201.53 423.422 201.974C422.93 202.406 422.336 202.742 421.64 202.982C420.956 203.222 420.212 203.342 419.408 203.342C418.616 203.342 417.884 203.222 417.212 202.982C416.54 202.742 415.958 202.4 415.466 201.956C414.986 201.512 414.608 200.984 414.332 200.372C414.056 199.748 413.918 199.058 413.918 198.302Z" fill="white"/>
</svg>
