<svg width="456" height="170" viewBox="0 0 456 170" fill="none" xmlns="http://www.w3.org/2000/svg">
<path d="M25.4067 146.4H14.3517C9.93341 146.4 6.35168 142.818 6.35168 138.4V11.2002" stroke="white" stroke-width="1.5"/>
<path d="M11.9534 5.66272C11.9534 8.2973 9.52868 10.5754 6.35168 10.5754C3.17467 10.5754 0.75 8.2973 0.75 5.66272C0.75 3.02814 3.17467 0.75 6.35168 0.75C9.52868 0.75 11.9534 3.02814 11.9534 5.66272Z" stroke="white" stroke-width="1.5"/>
<rect x="24" y="112" width="432" height="58" rx="10" fill="#002A61"/>
<path d="M52.098 144.148L53.7 148H55.374L49.272 133.78L43.008 148H44.664L46.302 144.148H52.098ZM51.504 142.744H46.914L49.236 137.308L51.504 142.744ZM58.564 139.54H57.124V152.752H58.564V139.54ZM57.844 135.328C57.286 135.328 56.818 135.796 56.818 136.354C56.818 136.93 57.286 137.38 57.844 137.38C58.402 137.38 58.87 136.93 58.87 136.354C58.87 135.796 58.402 135.328 57.844 135.328ZM62.8969 139.54H61.4569V144.418C61.4569 146.668 62.3029 148.234 64.8049 148.234C67.3069 148.234 68.1529 146.668 68.1529 144.418V139.54H66.7129V144.256C66.7129 145.678 66.5509 146.902 64.8049 146.902C63.0589 146.902 62.8969 145.678 62.8969 144.256V139.54ZM75.4018 140.872C75.0238 139.99 74.1238 139.306 73.1518 139.306C71.7838 139.306 70.6318 140.278 70.6318 141.7C70.6318 144.364 74.4478 143.716 74.4478 145.606C74.4478 146.38 73.8538 146.902 73.0798 146.902C72.1258 146.902 71.7118 146.344 71.3518 145.552L70.0738 146.092C70.5238 147.424 71.6398 148.234 73.0618 148.234C74.6278 148.234 75.9238 147.082 75.9238 145.48C75.9238 144.058 74.9518 143.464 73.9618 143.05C72.9718 142.636 71.9998 142.348 71.9998 141.574C71.9998 141.034 72.5398 140.638 73.0438 140.638C73.5658 140.638 73.9978 141.052 74.1958 141.502L75.4018 140.872ZM79.4773 140.872H80.9893V139.54H79.4773V136.498H78.0373V139.54H77.1553V140.872H78.0373V148H79.4773V140.872ZM85.7995 140.638C87.5815 140.638 88.6435 142.006 88.6435 143.698C88.6435 145.408 87.6715 146.902 85.8175 146.902C84.0175 146.902 83.0455 145.336 83.0455 143.68C83.0455 142.096 84.1255 140.638 85.7995 140.638ZM90.0115 139.54H88.5715V140.746H88.5355C87.8335 139.846 86.7895 139.306 85.6375 139.306C83.0995 139.306 81.5695 141.376 81.5695 143.788C81.5695 146.128 83.1355 148.234 85.6195 148.234C86.8075 148.234 87.7975 147.766 88.5355 146.83H88.5715V148H90.0115V139.54ZM94.1182 139.54H92.6782V148H94.1182V143.626C94.1182 142.348 94.2982 140.638 95.9902 140.638C97.3762 140.638 97.5022 142.15 97.5022 143.194V148H98.9422V143.518C98.9422 142.24 99.1222 140.638 100.778 140.638C102.254 140.638 102.326 141.988 102.326 143.086V148H103.766V142.852C103.766 141.07 103.226 139.306 101.066 139.306C100.04 139.306 99.0322 139.774 98.5282 140.71C98.0782 139.828 97.1782 139.306 96.1882 139.306C95.3242 139.306 94.6042 139.756 94.1542 140.458H94.1182V139.54ZM110.185 148.234C112.651 148.234 114.631 146.272 114.631 143.788C114.631 141.304 112.669 139.306 110.185 139.306C107.701 139.306 105.739 141.304 105.739 143.788C105.739 146.272 107.719 148.234 110.185 148.234ZM110.185 140.638C111.967 140.638 113.191 142.06 113.191 143.77C113.191 145.498 111.967 146.902 110.185 146.902C108.403 146.902 107.179 145.498 107.179 143.77C107.179 142.06 108.403 140.638 110.185 140.638ZM121.228 140.872C120.85 139.99 119.95 139.306 118.978 139.306C117.61 139.306 116.458 140.278 116.458 141.7C116.458 144.364 120.274 143.716 120.274 145.606C120.274 146.38 119.68 146.902 118.906 146.902C117.952 146.902 117.538 146.344 117.178 145.552L115.9 146.092C116.35 147.424 117.466 148.234 118.888 148.234C120.454 148.234 121.75 147.082 121.75 145.48C121.75 144.058 120.778 143.464 119.788 143.05C118.798 142.636 117.826 142.348 117.826 141.574C117.826 141.034 118.366 140.638 118.87 140.638C119.392 140.638 119.824 141.052 120.022 141.502L121.228 140.872ZM136.691 144.076C136.835 141.556 135.395 139.306 132.677 139.306C130.031 139.306 128.573 141.376 128.573 143.878C128.573 146.308 130.193 148.234 132.713 148.234C134.441 148.234 135.809 147.37 136.619 145.858L135.395 145.156C134.837 146.164 134.045 146.902 132.821 146.902C131.183 146.902 130.067 145.642 130.049 144.076H136.691ZM130.121 142.852C130.301 141.628 131.453 140.638 132.695 140.638C133.955 140.638 134.981 141.628 135.179 142.852H130.121ZM140.067 133.15H138.627V148H140.067V133.15ZM154.56 140.152C153.804 139.612 152.868 139.306 151.95 139.306C149.466 139.306 147.432 141.25 147.432 143.77C147.432 146.326 149.376 148.234 151.932 148.234C152.94 148.234 153.786 147.928 154.614 147.37V145.444H154.578C153.876 146.362 153.03 146.902 151.824 146.902C150.06 146.902 148.908 145.444 148.908 143.77C148.908 142.078 150.15 140.638 151.896 140.638C153.03 140.638 153.858 141.214 154.524 142.06H154.56V140.152ZM158.206 139.54H156.766V148H158.206V143.77C158.206 142.672 158.278 140.638 159.862 140.638C160.24 140.638 160.438 140.818 160.726 141.016L161.41 139.702C160.996 139.468 160.6 139.306 160.114 139.306C159.178 139.306 158.746 139.792 158.242 140.458H158.206V139.54ZM170.23 144.076C170.374 141.556 168.934 139.306 166.216 139.306C163.57 139.306 162.112 141.376 162.112 143.878C162.112 146.308 163.732 148.234 166.252 148.234C167.98 148.234 169.348 147.37 170.158 145.858L168.934 145.156C168.376 146.164 167.584 146.902 166.36 146.902C164.722 146.902 163.606 145.642 163.588 144.076H170.23ZM163.66 142.852C163.84 141.628 164.992 140.638 166.234 140.638C167.494 140.638 168.52 141.628 168.718 142.852H163.66ZM167.224 134.608L165.082 137.56L165.982 138.064L168.736 135.292L167.224 134.608ZM175.712 140.638C177.494 140.638 178.556 142.006 178.556 143.698C178.556 145.408 177.584 146.902 175.73 146.902C173.93 146.902 172.958 145.336 172.958 143.68C172.958 142.096 174.038 140.638 175.712 140.638ZM178.484 148H179.924V133.15H178.484V140.746H178.448C177.764 139.846 176.684 139.306 175.55 139.306C173.012 139.306 171.482 141.376 171.482 143.788C171.482 146.128 173.048 148.234 175.532 148.234C176.684 148.234 177.746 147.748 178.448 146.83H178.484V148ZM184.3 139.54H182.86V148H184.3V139.54ZM183.58 135.328C183.022 135.328 182.554 135.796 182.554 136.354C182.554 136.93 183.022 137.38 183.58 137.38C184.138 137.38 184.606 136.93 184.606 136.354C184.606 135.796 184.138 135.328 183.58 135.328ZM188.813 140.872H190.325V139.54H188.813V136.498H187.373V139.54H186.491V140.872H187.373V148H188.813V140.872ZM195.315 148.234C197.781 148.234 199.761 146.272 199.761 143.788C199.761 141.304 197.799 139.306 195.315 139.306C192.831 139.306 190.869 141.304 190.869 143.788C190.869 146.272 192.849 148.234 195.315 148.234ZM195.315 140.638C197.097 140.638 198.321 142.06 198.321 143.77C198.321 145.498 197.097 146.902 195.315 146.902C193.533 146.902 192.309 145.498 192.309 143.77C192.309 142.06 193.533 140.638 195.315 140.638ZM210.78 140.638C212.562 140.638 213.624 142.006 213.624 143.698C213.624 145.408 212.652 146.902 210.798 146.902C208.998 146.902 208.026 145.336 208.026 143.68C208.026 142.096 209.106 140.638 210.78 140.638ZM214.992 139.54H213.552V140.746H213.516C212.814 139.846 211.77 139.306 210.618 139.306C208.08 139.306 206.55 141.376 206.55 143.788C206.55 146.128 208.116 148.234 210.6 148.234C211.788 148.234 212.778 147.766 213.516 146.83H213.552V148H214.992V139.54ZM224.708 140.872H226.22V139.54H224.708V136.498H223.268V139.54H222.386V140.872H223.268V148H224.708V140.872ZM228.852 139.54H227.412V144.418C227.412 146.668 228.258 148.234 230.76 148.234C233.262 148.234 234.108 146.668 234.108 144.418V139.54H232.668V144.256C232.668 145.678 232.506 146.902 230.76 146.902C229.014 146.902 228.852 145.678 228.852 144.256V139.54ZM248.982 141.754C248.418 141.37 247.848 141.178 247.272 141.178C246.96 141.178 246.666 141.232 246.39 141.34C246.126 141.448 245.892 141.604 245.688 141.808C245.484 142 245.322 142.234 245.202 142.51C245.094 142.774 245.04 143.074 245.04 143.41C245.04 143.734 245.094 144.034 245.202 144.31C245.322 144.574 245.478 144.808 245.67 145.012C245.874 145.204 246.114 145.354 246.39 145.462C246.666 145.57 246.96 145.624 247.272 145.624C247.884 145.624 248.454 145.414 248.982 144.994V147.766C248.178 148.114 247.416 148.288 246.696 148.288C246.024 148.288 245.382 148.174 244.77 147.946C244.17 147.718 243.636 147.394 243.168 146.974C242.712 146.542 242.346 146.032 242.07 145.444C241.794 144.844 241.656 144.178 241.656 143.446C241.656 142.714 241.788 142.048 242.052 141.448C242.316 140.836 242.676 140.314 243.132 139.882C243.588 139.438 244.128 139.096 244.752 138.856C245.388 138.604 246.066 138.478 246.786 138.478C247.578 138.478 248.31 138.646 248.982 138.982V141.754ZM253.864 143.356C253.864 143.656 253.918 143.938 254.026 144.202C254.134 144.454 254.278 144.676 254.458 144.868C254.65 145.06 254.872 145.21 255.124 145.318C255.388 145.426 255.67 145.48 255.97 145.48C256.258 145.48 256.528 145.426 256.78 145.318C257.044 145.21 257.266 145.06 257.446 144.868C257.638 144.676 257.788 144.454 257.896 144.202C258.016 143.95 258.076 143.68 258.076 143.392C258.076 143.104 258.016 142.834 257.896 142.582C257.788 142.318 257.638 142.09 257.446 141.898C257.266 141.706 257.044 141.556 256.78 141.448C256.528 141.34 256.258 141.286 255.97 141.286C255.67 141.286 255.388 141.34 255.124 141.448C254.872 141.556 254.65 141.706 254.458 141.898C254.278 142.09 254.134 142.312 254.026 142.564C253.918 142.804 253.864 143.068 253.864 143.356ZM257.968 138.766H261.244V148H257.968V146.974C257.272 147.85 256.33 148.288 255.142 148.288C254.47 148.288 253.852 148.168 253.288 147.928C252.724 147.676 252.232 147.328 251.812 146.884C251.392 146.44 251.062 145.918 250.822 145.318C250.594 144.718 250.48 144.064 250.48 143.356C250.48 142.696 250.594 142.072 250.822 141.484C251.05 140.884 251.368 140.362 251.776 139.918C252.184 139.474 252.67 139.126 253.234 138.874C253.798 138.61 254.422 138.478 255.106 138.478C256.258 138.478 257.212 138.88 257.968 139.684V138.766ZM270.823 143.41C270.823 143.122 270.769 142.852 270.661 142.6C270.565 142.336 270.421 142.108 270.229 141.916C270.037 141.724 269.809 141.574 269.545 141.466C269.293 141.346 269.017 141.286 268.717 141.286C268.429 141.286 268.159 141.34 267.907 141.448C267.655 141.556 267.433 141.706 267.241 141.898C267.061 142.09 266.911 142.318 266.791 142.582C266.683 142.834 266.629 143.104 266.629 143.392C266.629 143.68 266.683 143.95 266.791 144.202C266.899 144.454 267.049 144.676 267.241 144.868C267.433 145.048 267.655 145.198 267.907 145.318C268.171 145.426 268.447 145.48 268.735 145.48C269.023 145.48 269.293 145.426 269.545 145.318C269.797 145.21 270.013 145.06 270.193 144.868C270.385 144.676 270.535 144.454 270.643 144.202C270.763 143.95 270.823 143.686 270.823 143.41ZM266.719 152.608H263.461V138.766H266.719V139.792C267.415 138.916 268.363 138.478 269.563 138.478C270.223 138.478 270.835 138.61 271.399 138.874C271.975 139.126 272.473 139.474 272.893 139.918C273.313 140.362 273.637 140.884 273.865 141.484C274.105 142.084 274.225 142.726 274.225 143.41C274.225 144.094 274.105 144.73 273.865 145.318C273.637 145.906 273.313 146.422 272.893 146.866C272.485 147.31 271.999 147.658 271.435 147.91C270.871 148.162 270.259 148.288 269.599 148.288C268.447 148.288 267.487 147.892 266.719 147.1V152.608ZM279.106 143.356C279.106 143.656 279.16 143.938 279.268 144.202C279.376 144.454 279.52 144.676 279.7 144.868C279.892 145.06 280.114 145.21 280.366 145.318C280.63 145.426 280.912 145.48 281.212 145.48C281.5 145.48 281.77 145.426 282.022 145.318C282.286 145.21 282.508 145.06 282.688 144.868C282.88 144.676 283.03 144.454 283.138 144.202C283.258 143.95 283.318 143.68 283.318 143.392C283.318 143.104 283.258 142.834 283.138 142.582C283.03 142.318 282.88 142.09 282.688 141.898C282.508 141.706 282.286 141.556 282.022 141.448C281.77 141.34 281.5 141.286 281.212 141.286C280.912 141.286 280.63 141.34 280.366 141.448C280.114 141.556 279.892 141.706 279.7 141.898C279.52 142.09 279.376 142.312 279.268 142.564C279.16 142.804 279.106 143.068 279.106 143.356ZM283.21 138.766H286.486V148H283.21V146.974C282.514 147.85 281.572 148.288 280.384 148.288C279.712 148.288 279.094 148.168 278.53 147.928C277.966 147.676 277.474 147.328 277.054 146.884C276.634 146.44 276.304 145.918 276.064 145.318C275.836 144.718 275.722 144.064 275.722 143.356C275.722 142.696 275.836 142.072 276.064 141.484C276.292 140.884 276.61 140.362 277.018 139.918C277.426 139.474 277.912 139.126 278.476 138.874C279.04 138.61 279.664 138.478 280.348 138.478C281.5 138.478 282.454 138.88 283.21 139.684V138.766ZM295.67 141.754C295.106 141.37 294.536 141.178 293.96 141.178C293.648 141.178 293.354 141.232 293.078 141.34C292.814 141.448 292.58 141.604 292.376 141.808C292.172 142 292.01 142.234 291.89 142.51C291.782 142.774 291.728 143.074 291.728 143.41C291.728 143.734 291.782 144.034 291.89 144.31C292.01 144.574 292.166 144.808 292.358 145.012C292.562 145.204 292.802 145.354 293.078 145.462C293.354 145.57 293.648 145.624 293.96 145.624C294.572 145.624 295.142 145.414 295.67 144.994V147.766C294.866 148.114 294.104 148.288 293.384 148.288C292.712 148.288 292.07 148.174 291.458 147.946C290.858 147.718 290.324 147.394 289.856 146.974C289.4 146.542 289.034 146.032 288.758 145.444C288.482 144.844 288.344 144.178 288.344 143.446C288.344 142.714 288.476 142.048 288.74 141.448C289.004 140.836 289.364 140.314 289.82 139.882C290.276 139.438 290.816 139.096 291.44 138.856C292.076 138.604 292.754 138.478 293.474 138.478C294.266 138.478 294.998 138.646 295.67 138.982V141.754ZM300.786 138.766V148H297.528V138.766H300.786ZM297.312 135.22C297.312 134.968 297.36 134.734 297.456 134.518C297.552 134.29 297.684 134.092 297.852 133.924C298.02 133.756 298.212 133.624 298.428 133.528C298.656 133.432 298.896 133.384 299.148 133.384C299.4 133.384 299.634 133.432 299.85 133.528C300.078 133.624 300.276 133.756 300.444 133.924C300.612 134.092 300.744 134.29 300.84 134.518C300.936 134.734 300.984 134.968 300.984 135.22C300.984 135.472 300.936 135.712 300.84 135.94C300.744 136.156 300.612 136.348 300.444 136.516C300.276 136.684 300.078 136.816 299.85 136.912C299.634 137.008 299.4 137.056 299.148 137.056C298.896 137.056 298.656 137.008 298.428 136.912C298.212 136.816 298.02 136.684 297.852 136.516C297.684 136.348 297.552 136.156 297.456 135.94C297.36 135.712 297.312 135.472 297.312 135.22ZM306.036 143.356C306.036 143.656 306.09 143.938 306.198 144.202C306.306 144.454 306.45 144.676 306.63 144.868C306.822 145.06 307.044 145.21 307.296 145.318C307.56 145.426 307.842 145.48 308.142 145.48C308.43 145.48 308.7 145.426 308.952 145.318C309.216 145.21 309.438 145.06 309.618 144.868C309.81 144.676 309.96 144.454 310.068 144.202C310.188 143.95 310.248 143.68 310.248 143.392C310.248 143.104 310.188 142.834 310.068 142.582C309.96 142.318 309.81 142.09 309.618 141.898C309.438 141.706 309.216 141.556 308.952 141.448C308.7 141.34 308.43 141.286 308.142 141.286C307.854 141.286 307.578 141.34 307.314 141.448C307.062 141.556 306.84 141.706 306.648 141.898C306.468 142.09 306.318 142.312 306.198 142.564C306.09 142.804 306.036 143.068 306.036 143.356ZM310.14 133.06H313.416V148H310.14V146.974C309.444 147.85 308.502 148.288 307.314 148.288C306.642 148.288 306.024 148.162 305.46 147.91C304.896 147.658 304.404 147.31 303.984 146.866C303.564 146.422 303.234 145.9 302.994 145.3C302.766 144.7 302.652 144.052 302.652 143.356C302.652 142.696 302.76 142.072 302.976 141.484C303.204 140.884 303.522 140.362 303.93 139.918C304.338 139.474 304.824 139.126 305.388 138.874C305.964 138.61 306.594 138.478 307.278 138.478C308.43 138.478 309.384 138.88 310.14 139.684V133.06ZM318.657 143.356C318.657 143.656 318.711 143.938 318.819 144.202C318.927 144.454 319.071 144.676 319.251 144.868C319.443 145.06 319.665 145.21 319.917 145.318C320.181 145.426 320.463 145.48 320.763 145.48C321.051 145.48 321.321 145.426 321.573 145.318C321.837 145.21 322.059 145.06 322.239 144.868C322.431 144.676 322.581 144.454 322.689 144.202C322.809 143.95 322.869 143.68 322.869 143.392C322.869 143.104 322.809 142.834 322.689 142.582C322.581 142.318 322.431 142.09 322.239 141.898C322.059 141.706 321.837 141.556 321.573 141.448C321.321 141.34 321.051 141.286 320.763 141.286C320.463 141.286 320.181 141.34 319.917 141.448C319.665 141.556 319.443 141.706 319.251 141.898C319.071 142.09 318.927 142.312 318.819 142.564C318.711 142.804 318.657 143.068 318.657 143.356ZM322.761 138.766H326.037V148H322.761V146.974C322.065 147.85 321.123 148.288 319.935 148.288C319.263 148.288 318.645 148.168 318.081 147.928C317.517 147.676 317.025 147.328 316.605 146.884C316.185 146.44 315.855 145.918 315.615 145.318C315.387 144.718 315.273 144.064 315.273 143.356C315.273 142.696 315.387 142.072 315.615 141.484C315.843 140.884 316.161 140.362 316.569 139.918C316.977 139.474 317.463 139.126 318.027 138.874C318.591 138.61 319.215 138.478 319.899 138.478C321.051 138.478 322.005 138.88 322.761 139.684V138.766ZM331.278 143.356C331.278 143.656 331.332 143.938 331.44 144.202C331.548 144.454 331.692 144.676 331.872 144.868C332.064 145.06 332.286 145.21 332.538 145.318C332.802 145.426 333.084 145.48 333.384 145.48C333.672 145.48 333.942 145.426 334.194 145.318C334.458 145.21 334.68 145.06 334.86 144.868C335.052 144.676 335.202 144.454 335.31 144.202C335.43 143.95 335.49 143.68 335.49 143.392C335.49 143.104 335.43 142.834 335.31 142.582C335.202 142.318 335.052 142.09 334.86 141.898C334.68 141.706 334.458 141.556 334.194 141.448C333.942 141.34 333.672 141.286 333.384 141.286C333.096 141.286 332.82 141.34 332.556 141.448C332.304 141.556 332.082 141.706 331.89 141.898C331.71 142.09 331.56 142.312 331.44 142.564C331.332 142.804 331.278 143.068 331.278 143.356ZM335.382 133.06H338.658V148H335.382V146.974C334.686 147.85 333.744 148.288 332.556 148.288C331.884 148.288 331.266 148.162 330.702 147.91C330.138 147.658 329.646 147.31 329.226 146.866C328.806 146.422 328.476 145.9 328.236 145.3C328.008 144.7 327.894 144.052 327.894 143.356C327.894 142.696 328.002 142.072 328.218 141.484C328.446 140.884 328.764 140.362 329.172 139.918C329.58 139.474 330.066 139.126 330.63 138.874C331.206 138.61 331.836 138.478 332.52 138.478C333.672 138.478 334.626 138.88 335.382 139.684V133.06ZM350.017 143.356C350.017 143.656 350.071 143.938 350.179 144.202C350.287 144.454 350.431 144.676 350.611 144.868C350.803 145.06 351.025 145.21 351.277 145.318C351.541 145.426 351.823 145.48 352.123 145.48C352.411 145.48 352.681 145.426 352.933 145.318C353.197 145.21 353.419 145.06 353.599 144.868C353.791 144.676 353.941 144.454 354.049 144.202C354.169 143.95 354.229 143.68 354.229 143.392C354.229 143.104 354.169 142.834 354.049 142.582C353.941 142.318 353.791 142.09 353.599 141.898C353.419 141.706 353.197 141.556 352.933 141.448C352.681 141.34 352.411 141.286 352.123 141.286C351.835 141.286 351.559 141.34 351.295 141.448C351.043 141.556 350.821 141.706 350.629 141.898C350.449 142.09 350.299 142.312 350.179 142.564C350.071 142.804 350.017 143.068 350.017 143.356ZM354.121 133.06H357.397V148H354.121V146.974C353.425 147.85 352.483 148.288 351.295 148.288C350.623 148.288 350.005 148.162 349.441 147.91C348.877 147.658 348.385 147.31 347.965 146.866C347.545 146.422 347.215 145.9 346.975 145.3C346.747 144.7 346.633 144.052 346.633 143.356C346.633 142.696 346.741 142.072 346.957 141.484C347.185 140.884 347.503 140.362 347.911 139.918C348.319 139.474 348.805 139.126 349.369 138.874C349.945 138.61 350.575 138.478 351.259 138.478C352.411 138.478 353.365 138.88 354.121 139.684V133.06ZM366.364 142.042C366.256 141.586 366.034 141.22 365.698 140.944C365.362 140.668 364.954 140.53 364.474 140.53C363.97 140.53 363.556 140.662 363.232 140.926C362.92 141.19 362.722 141.562 362.638 142.042H366.364ZM362.548 143.932C362.548 145.336 363.208 146.038 364.528 146.038C365.236 146.038 365.77 145.75 366.13 145.174H369.28C368.644 147.286 367.054 148.342 364.51 148.342C363.73 148.342 363.016 148.228 362.368 148C361.72 147.76 361.162 147.424 360.694 146.992C360.238 146.56 359.884 146.044 359.632 145.444C359.38 144.844 359.254 144.172 359.254 143.428C359.254 142.66 359.374 141.97 359.614 141.358C359.854 140.734 360.196 140.206 360.64 139.774C361.084 139.342 361.618 139.012 362.242 138.784C362.878 138.544 363.592 138.424 364.384 138.424C365.164 138.424 365.866 138.544 366.49 138.784C367.114 139.012 367.642 139.348 368.074 139.792C368.506 140.236 368.836 140.782 369.064 141.43C369.292 142.066 369.406 142.786 369.406 143.59V143.932H362.548ZM384.747 143.41C384.747 143.122 384.693 142.852 384.585 142.6C384.489 142.336 384.345 142.108 384.153 141.916C383.961 141.724 383.733 141.574 383.469 141.466C383.217 141.346 382.941 141.286 382.641 141.286C382.353 141.286 382.083 141.34 381.831 141.448C381.579 141.556 381.357 141.706 381.165 141.898C380.985 142.09 380.835 142.318 380.715 142.582C380.607 142.834 380.553 143.104 380.553 143.392C380.553 143.68 380.607 143.95 380.715 144.202C380.823 144.454 380.973 144.676 381.165 144.868C381.357 145.048 381.579 145.198 381.831 145.318C382.095 145.426 382.371 145.48 382.659 145.48C382.947 145.48 383.217 145.426 383.469 145.318C383.721 145.21 383.937 145.06 384.117 144.868C384.309 144.676 384.459 144.454 384.567 144.202C384.687 143.95 384.747 143.686 384.747 143.41ZM380.643 152.608H377.385V138.766H380.643V139.792C381.339 138.916 382.287 138.478 383.487 138.478C384.147 138.478 384.759 138.61 385.323 138.874C385.899 139.126 386.397 139.474 386.817 139.918C387.237 140.362 387.561 140.884 387.789 141.484C388.029 142.084 388.149 142.726 388.149 143.41C388.149 144.094 388.029 144.73 387.789 145.318C387.561 145.906 387.237 146.422 386.817 146.866C386.409 147.31 385.923 147.658 385.359 147.91C384.795 148.162 384.183 148.288 383.523 148.288C382.371 148.288 381.411 147.892 380.643 147.1V152.608ZM393.03 143.356C393.03 143.656 393.084 143.938 393.192 144.202C393.3 144.454 393.444 144.676 393.624 144.868C393.816 145.06 394.038 145.21 394.29 145.318C394.554 145.426 394.836 145.48 395.136 145.48C395.424 145.48 395.694 145.426 395.946 145.318C396.21 145.21 396.432 145.06 396.612 144.868C396.804 144.676 396.954 144.454 397.062 144.202C397.182 143.95 397.242 143.68 397.242 143.392C397.242 143.104 397.182 142.834 397.062 142.582C396.954 142.318 396.804 142.09 396.612 141.898C396.432 141.706 396.21 141.556 395.946 141.448C395.694 141.34 395.424 141.286 395.136 141.286C394.836 141.286 394.554 141.34 394.29 141.448C394.038 141.556 393.816 141.706 393.624 141.898C393.444 142.09 393.3 142.312 393.192 142.564C393.084 142.804 393.03 143.068 393.03 143.356ZM397.134 138.766H400.41V148H397.134V146.974C396.438 147.85 395.496 148.288 394.308 148.288C393.636 148.288 393.018 148.168 392.454 147.928C391.89 147.676 391.398 147.328 390.978 146.884C390.558 146.44 390.228 145.918 389.988 145.318C389.76 144.718 389.646 144.064 389.646 143.356C389.646 142.696 389.76 142.072 389.988 141.484C390.216 140.884 390.534 140.362 390.942 139.918C391.35 139.474 391.836 139.126 392.4 138.874C392.964 138.61 393.588 138.478 394.272 138.478C395.424 138.478 396.378 138.88 397.134 139.684V138.766ZM405.651 143.338C405.651 143.638 405.705 143.92 405.813 144.184C405.921 144.436 406.065 144.658 406.245 144.85C406.437 145.042 406.659 145.192 406.911 145.3C407.175 145.408 407.457 145.462 407.757 145.462C408.045 145.462 408.315 145.408 408.567 145.3C408.831 145.192 409.053 145.042 409.233 144.85C409.425 144.658 409.575 144.436 409.683 144.184C409.803 143.92 409.863 143.644 409.863 143.356C409.863 143.056 409.803 142.78 409.683 142.528C409.575 142.276 409.425 142.054 409.233 141.862C409.041 141.67 408.813 141.52 408.549 141.412C408.297 141.304 408.033 141.25 407.757 141.25C407.469 141.25 407.199 141.31 406.947 141.43C406.695 141.538 406.473 141.688 406.281 141.88C406.089 142.06 405.933 142.276 405.813 142.528C405.705 142.78 405.651 143.05 405.651 143.338ZM412.959 138.766V147.37C412.959 147.886 412.929 148.348 412.869 148.756C412.809 149.164 412.725 149.524 412.617 149.836C412.473 150.232 412.245 150.598 411.933 150.934C411.633 151.282 411.267 151.582 410.835 151.834C410.403 152.086 409.911 152.284 409.359 152.428C408.819 152.572 408.231 152.644 407.595 152.644C406.875 152.644 406.215 152.554 405.615 152.374C405.015 152.194 404.487 151.942 404.031 151.618C403.587 151.306 403.221 150.934 402.933 150.502C402.645 150.082 402.453 149.62 402.357 149.116H406.029C406.257 149.728 406.773 150.034 407.577 150.034C408.261 150.034 408.783 149.842 409.143 149.458C409.515 149.074 409.701 148.54 409.701 147.856V146.974C409.461 147.202 409.227 147.394 408.999 147.55C408.783 147.694 408.561 147.814 408.333 147.91C408.105 148.006 407.865 148.072 407.613 148.108C407.361 148.156 407.085 148.18 406.785 148.18C406.125 148.18 405.519 148.066 404.967 147.838C404.415 147.61 403.935 147.292 403.527 146.884C403.131 146.476 402.819 145.99 402.591 145.426C402.375 144.85 402.267 144.214 402.267 143.518C402.267 142.81 402.387 142.156 402.627 141.556C402.867 140.944 403.191 140.416 403.599 139.972C404.019 139.516 404.511 139.162 405.075 138.91C405.651 138.646 406.275 138.514 406.947 138.514C408.039 138.514 408.957 138.922 409.701 139.738V138.766H412.959ZM418.256 143.338C418.256 143.65 418.31 143.938 418.418 144.202C418.538 144.454 418.688 144.676 418.868 144.868C419.06 145.06 419.282 145.21 419.534 145.318C419.798 145.426 420.074 145.48 420.362 145.48C420.65 145.48 420.92 145.426 421.172 145.318C421.436 145.21 421.658 145.06 421.838 144.868C422.03 144.676 422.18 144.454 422.288 144.202C422.408 143.938 422.468 143.656 422.468 143.356C422.468 143.068 422.408 142.798 422.288 142.546C422.18 142.282 422.03 142.054 421.838 141.862C421.658 141.67 421.436 141.52 421.172 141.412C420.92 141.304 420.65 141.25 420.362 141.25C420.074 141.25 419.798 141.304 419.534 141.412C419.282 141.52 419.06 141.67 418.868 141.862C418.688 142.054 418.538 142.276 418.418 142.528C418.31 142.78 418.256 143.05 418.256 143.338ZM414.818 143.302C414.818 142.618 414.956 141.982 415.232 141.394C415.508 140.794 415.892 140.278 416.384 139.846C416.876 139.402 417.458 139.054 418.13 138.802C418.814 138.55 419.558 138.424 420.362 138.424C421.154 138.424 421.886 138.55 422.558 138.802C423.242 139.042 423.83 139.384 424.322 139.828C424.826 140.26 425.216 140.782 425.492 141.394C425.768 141.994 425.906 142.66 425.906 143.392C425.906 144.124 425.762 144.796 425.474 145.408C425.198 146.008 424.814 146.53 424.322 146.974C423.83 147.406 423.236 147.742 422.54 147.982C421.856 148.222 421.112 148.342 420.308 148.342C419.516 148.342 418.784 148.222 418.112 147.982C417.44 147.742 416.858 147.4 416.366 146.956C415.886 146.512 415.508 145.984 415.232 145.372C414.956 144.748 414.818 144.058 414.818 143.302Z" fill="white"/>
<path d="M43.1344 8.125V22.3594C43.1344 25.4635 42.3167 27.7812 40.6813 29.3125C39.0459 30.8438 36.5823 31.6094 33.2906 31.6094C29.9469 31.6094 27.4573 30.8438 25.8219 29.3125C24.1865 27.7812 23.3688 25.4635 23.3688 22.3594V8.125H28.2281V21.5938C28.2281 23.4792 28.6448 24.901 29.4781 25.8594C30.3115 26.8073 31.5563 27.2812 33.2125 27.2812C34.8792 27.2812 36.1396 26.8021 36.9938 25.8438C37.8479 24.8854 38.275 23.4688 38.275 21.5938V8.125H43.1344ZM48.2125 31V8.125H53.2906L63.4156 21.4375C63.7073 21.8125 64.025 22.3438 64.3688 23.0312C64.7229 23.7083 65.0875 24.5104 65.4625 25.4375C65.3479 24.7604 65.2646 24.0885 65.2125 23.4219C65.1604 22.7552 65.1344 21.9219 65.1344 20.9219V8.125H69.8063V31H65.0094L54.6031 17.4375C54.3115 17.0625 53.9938 16.5365 53.65 15.8594C53.3063 15.1719 52.9417 14.3542 52.5563 13.4062C52.6709 14.0625 52.7542 14.7292 52.8063 15.4062C52.8584 16.0729 52.8844 16.9167 52.8844 17.9375V31H48.2125ZM103.166 14.0781C102.176 13.1927 101.16 12.5469 100.119 12.1406C99.0771 11.724 97.9625 11.5156 96.775 11.5156C94.3375 11.5156 92.3948 12.2448 90.9469 13.7031C89.499 15.1615 88.775 17.1198 88.775 19.5781C88.775 21.9844 89.4469 23.8958 90.7906 25.3125C92.1344 26.7188 93.9677 27.4219 96.2906 27.4219C97.6136 27.4219 98.8427 27.2031 99.9781 26.7656C101.114 26.3177 102.166 25.651 103.134 24.7656L103.103 29.7812C102.061 30.3958 100.968 30.8542 99.8219 31.1562C98.6865 31.4583 97.4886 31.6094 96.2281 31.6094C92.5823 31.6094 89.5875 30.4792 87.2438 28.2188C84.9104 25.9479 83.7438 23.0677 83.7438 19.5781C83.7438 16.099 84.9156 13.2292 87.2594 10.9688C89.6031 8.70833 92.624 7.57812 96.3219 7.57812C97.5615 7.57812 98.7594 7.70833 99.9156 7.96875C101.072 8.22917 102.213 8.63021 103.338 9.17188L103.166 14.0781ZM124.259 31H118.619L112.603 20.3125V31H107.713V8.125H114.713C117.494 8.125 119.577 8.66667 120.963 9.75C122.348 10.8229 123.041 12.4427 123.041 14.6094C123.041 16.1823 122.567 17.526 121.619 18.6406C120.671 19.7552 119.447 20.4062 117.947 20.5938L124.259 31ZM112.603 17.875H113.338C115.317 17.875 116.624 17.6615 117.259 17.2344C117.895 16.7969 118.213 16.0417 118.213 14.9688C118.213 13.8438 117.869 13.0469 117.181 12.5781C116.504 12.099 115.223 11.8594 113.338 11.8594H112.603V17.875ZM127.119 31V8.125H140.588V12.25H132.009V16.9531H140.588V21.1094H132.009V26.8438H140.588V31H127.119ZM138.384 0.1875L133.494 5.95312H131.275L134.353 0.1875H138.384ZM150.291 26.875H153.009C155.572 26.875 157.436 26.2917 158.603 25.125C159.78 23.9583 160.369 22.1094 160.369 19.5781C160.369 17.0573 159.78 15.2135 158.603 14.0469C157.436 12.8698 155.572 12.2812 153.009 12.2812H150.291V26.875ZM145.4 31V8.125H151.634C154.093 8.125 156.03 8.29688 157.447 8.64062C158.864 8.98438 160.108 9.55729 161.181 10.3594C162.567 11.3906 163.614 12.6927 164.322 14.2656C165.041 15.8281 165.4 17.6094 165.4 19.6094C165.4 21.6406 165.035 23.4427 164.306 25.0156C163.577 26.5781 162.509 27.8698 161.103 28.8906C160.061 29.6406 158.9 30.1823 157.619 30.5156C156.348 30.8385 154.483 31 152.025 31H150.291H145.4ZM169.588 31V8.125H174.478V31H169.588ZM188.259 12.2812V31H183.353V12.2812H177.759V8.125H193.884V12.2812H188.259ZM219.916 19.6094C219.916 21.2448 219.608 22.7917 218.994 24.25C218.39 25.7083 217.515 26.9896 216.369 28.0938C215.181 29.2292 213.843 30.099 212.353 30.7031C210.864 31.3073 209.322 31.6094 207.728 31.6094C206.332 31.6094 204.963 31.375 203.619 30.9062C202.285 30.4271 201.061 29.7448 199.947 28.8594C198.509 27.7135 197.405 26.3438 196.634 24.75C195.874 23.1562 195.494 21.4427 195.494 19.6094C195.494 17.9635 195.796 16.4219 196.4 14.9844C197.004 13.5365 197.89 12.25 199.056 11.125C200.202 10.0104 201.53 9.14583 203.041 8.53125C204.561 7.91667 206.124 7.60938 207.728 7.60938C209.322 7.60938 210.869 7.91667 212.369 8.53125C213.879 9.14583 215.213 10.0104 216.369 11.125C217.525 12.25 218.405 13.5365 219.009 14.9844C219.614 16.4323 219.916 17.974 219.916 19.6094ZM207.728 27.25C209.801 27.25 211.509 26.526 212.853 25.0781C214.207 23.6198 214.884 21.7969 214.884 19.6094C214.884 17.4427 214.202 15.6198 212.838 14.1406C211.473 12.6615 209.77 11.9219 207.728 11.9219C205.655 11.9219 203.936 12.6615 202.572 14.1406C201.207 15.6094 200.525 17.4323 200.525 19.6094C200.525 21.8177 201.197 23.6458 202.541 25.0938C203.884 26.5312 205.614 27.25 207.728 27.25ZM238.791 26.875H241.509C244.072 26.875 245.936 26.2917 247.103 25.125C248.28 23.9583 248.869 22.1094 248.869 19.5781C248.869 17.0573 248.28 15.2135 247.103 14.0469C245.936 12.8698 244.072 12.2812 241.509 12.2812H238.791V26.875ZM233.9 31V8.125H240.134C242.593 8.125 244.53 8.29688 245.947 8.64062C247.364 8.98438 248.608 9.55729 249.681 10.3594C251.067 11.3906 252.114 12.6927 252.822 14.2656C253.541 15.8281 253.9 17.6094 253.9 19.6094C253.9 21.6406 253.535 23.4427 252.806 25.0156C252.077 26.5781 251.009 27.8698 249.603 28.8906C248.561 29.6406 247.4 30.1823 246.119 30.5156C244.848 30.8385 242.983 31 240.525 31H238.791H233.9ZM257.994 31V8.125H271.463V12.25H262.884V16.9531H271.463V21.1094H262.884V26.8438H271.463V31H257.994ZM297.963 22.2969L295.4 14.9062C295.327 14.6875 295.233 14.3125 295.119 13.7812C295.004 13.25 294.884 12.599 294.759 11.8281C294.624 12.5677 294.494 13.2344 294.369 13.8281C294.244 14.4115 294.15 14.8021 294.088 15L291.619 22.2969H297.963ZM283.4 31L292.103 8.125H297.697L306.525 31H300.963L299.103 26.1406H290.244L288.65 31H283.4ZM326.791 14.0781C325.801 13.1927 324.785 12.5469 323.744 12.1406C322.702 11.724 321.588 11.5156 320.4 11.5156C317.963 11.5156 316.02 12.2448 314.572 13.7031C313.124 15.1615 312.4 17.1198 312.4 19.5781C312.4 21.9844 313.072 23.8958 314.416 25.3125C315.759 26.7188 317.593 27.4219 319.916 27.4219C321.239 27.4219 322.468 27.2031 323.603 26.7656C324.739 26.3177 325.791 25.651 326.759 24.7656L326.728 29.7812C325.686 30.3958 324.593 30.8542 323.447 31.1562C322.311 31.4583 321.114 31.6094 319.853 31.6094C316.207 31.6094 313.213 30.4792 310.869 28.2188C308.535 25.9479 307.369 23.0677 307.369 19.5781C307.369 16.099 308.541 13.2292 310.884 10.9688C313.228 8.70833 316.249 7.57812 319.947 7.57812C321.186 7.57812 322.384 7.70833 323.541 7.96875C324.697 8.22917 325.838 8.63021 326.963 9.17188L326.791 14.0781ZM351.009 8.125V22.3594C351.009 25.4635 350.192 27.7812 348.556 29.3125C346.921 30.8438 344.457 31.6094 341.166 31.6094C337.822 31.6094 335.332 30.8438 333.697 29.3125C332.061 27.7812 331.244 25.4635 331.244 22.3594V8.125H336.103V21.5938C336.103 23.4792 336.52 24.901 337.353 25.8594C338.186 26.8073 339.431 27.2812 341.088 27.2812C342.754 27.2812 344.015 26.8021 344.869 25.8438C345.723 24.8854 346.15 23.4688 346.15 21.5938V8.125H351.009ZM356.088 31V8.125H369.556V12.25H360.978V16.9531H369.556V21.1094H360.978V26.8438H369.556V31H356.088ZM390.916 31H385.275L379.259 20.3125V31H374.369V8.125H381.369C384.15 8.125 386.233 8.66667 387.619 9.75C389.004 10.8229 389.697 12.4427 389.697 14.6094C389.697 16.1823 389.223 17.526 388.275 18.6406C387.327 19.7552 386.103 20.4062 384.603 20.5938L390.916 31ZM379.259 17.875H379.994C381.973 17.875 383.28 17.6615 383.916 17.2344C384.551 16.7969 384.869 16.0417 384.869 14.9688C384.869 13.8438 384.525 13.0469 383.838 12.5781C383.16 12.099 381.879 11.8594 379.994 11.8594H379.259V17.875ZM398.666 26.875H401.384C403.947 26.875 405.811 26.2917 406.978 25.125C408.155 23.9583 408.744 22.1094 408.744 19.5781C408.744 17.0573 408.155 15.2135 406.978 14.0469C405.811 12.8698 403.947 12.2812 401.384 12.2812H398.666V26.875ZM393.775 31V8.125H400.009C402.468 8.125 404.405 8.29688 405.822 8.64062C407.239 8.98438 408.483 9.55729 409.556 10.3594C410.942 11.3906 411.989 12.6927 412.697 14.2656C413.416 15.8281 413.775 17.6094 413.775 19.6094C413.775 21.6406 413.41 23.4427 412.681 25.0156C411.952 26.5781 410.884 27.8698 409.478 28.8906C408.436 29.6406 407.275 30.1823 405.994 30.5156C404.723 30.8385 402.858 31 400.4 31H398.666H393.775ZM441.291 19.6094C441.291 21.2448 440.983 22.7917 440.369 24.25C439.765 25.7083 438.89 26.9896 437.744 28.0938C436.556 29.2292 435.218 30.099 433.728 30.7031C432.239 31.3073 430.697 31.6094 429.103 31.6094C427.707 31.6094 426.338 31.375 424.994 30.9062C423.66 30.4271 422.436 29.7448 421.322 28.8594C419.884 27.7135 418.78 26.3438 418.009 24.75C417.249 23.1562 416.869 21.4427 416.869 19.6094C416.869 17.9635 417.171 16.4219 417.775 14.9844C418.379 13.5365 419.265 12.25 420.431 11.125C421.577 10.0104 422.905 9.14583 424.416 8.53125C425.936 7.91667 427.499 7.60938 429.103 7.60938C430.697 7.60938 432.244 7.91667 433.744 8.53125C435.254 9.14583 436.588 10.0104 437.744 11.125C438.9 12.25 439.78 13.5365 440.384 14.9844C440.989 16.4323 441.291 17.974 441.291 19.6094ZM429.103 27.25C431.176 27.25 432.884 26.526 434.228 25.0781C435.582 23.6198 436.259 21.7969 436.259 19.6094C436.259 17.4427 435.577 15.6198 434.213 14.1406C432.848 12.6615 431.145 11.9219 429.103 11.9219C427.03 11.9219 425.311 12.6615 423.947 14.1406C422.582 15.6094 421.9 17.4323 421.9 19.6094C421.9 21.8177 422.572 23.6458 423.916 25.0938C425.259 26.5312 426.989 27.25 429.103 27.25ZM35.3063 60.2969L32.7438 52.9062C32.6709 52.6875 32.5771 52.3125 32.4625 51.7812C32.3479 51.25 32.2281 50.599 32.1031 49.8281C31.9677 50.5677 31.8375 51.2344 31.7125 51.8281C31.5875 52.4115 31.4938 52.8021 31.4313 53L28.9625 60.2969H35.3063ZM20.7438 69L29.4469 46.125H35.0406L43.8688 69H38.3063L36.4469 64.1406H27.5875L25.9938 69H20.7438ZM64.6656 50.2812V69H59.7594V50.2812H54.1656V46.125H70.2906V50.2812H64.6656ZM93.1344 46.125V60.3594C93.1344 63.4635 92.3167 65.7812 90.6813 67.3125C89.0459 68.8438 86.5823 69.6094 83.2906 69.6094C79.9469 69.6094 77.4573 68.8438 75.8219 67.3125C74.1865 65.7812 73.3688 63.4635 73.3688 60.3594V46.125H78.2281V59.5938C78.2281 61.4792 78.6448 62.901 79.4781 63.8594C80.3115 64.8073 81.5563 65.2812 83.2125 65.2812C84.8792 65.2812 86.1396 64.8021 86.9938 63.8438C87.8479 62.8854 88.275 61.4688 88.275 59.5938V46.125H93.1344ZM96.7438 66.0938L99.4625 63.0156C99.8063 63.8594 100.358 64.526 101.119 65.0156C101.879 65.4948 102.733 65.7344 103.681 65.7344C104.827 65.7344 105.733 65.4635 106.4 64.9219C107.067 64.3802 107.4 63.651 107.4 62.7344C107.4 61.651 106.291 60.5729 104.072 59.5C103.353 59.1562 102.785 58.875 102.369 58.6562C100.369 57.6146 98.9834 56.599 98.2125 55.6094C97.4417 54.6094 97.0563 53.4219 97.0563 52.0469C97.0563 50.1615 97.8011 48.6146 99.2906 47.4062C100.791 46.1875 102.733 45.5781 105.119 45.5781C106.504 45.5781 107.697 45.8229 108.697 46.3125C109.707 46.7917 110.598 47.5469 111.369 48.5781L108.478 51.3438C108.134 50.6771 107.676 50.1823 107.103 49.8594C106.541 49.526 105.858 49.3594 105.056 49.3594C104.088 49.3594 103.306 49.6042 102.713 50.0938C102.119 50.5729 101.822 51.1979 101.822 51.9688C101.822 53.1771 102.999 54.2812 105.353 55.2812C105.822 55.4792 106.181 55.6354 106.431 55.75C108.369 56.6354 109.801 57.6354 110.728 58.75C111.666 59.8646 112.134 61.1354 112.134 62.5625C112.134 64.7083 111.4 66.4219 109.931 67.7031C108.473 68.974 106.509 69.6094 104.041 69.6094C102.291 69.6094 100.791 69.3073 99.5406 68.7031C98.2906 68.099 97.3584 67.2292 96.7438 66.0938ZM125.994 69V46.125H131.072L141.197 59.4375C141.489 59.8125 141.806 60.3438 142.15 61.0312C142.504 61.7083 142.869 62.5104 143.244 63.4375C143.129 62.7604 143.046 62.0885 142.994 61.4219C142.942 60.7552 142.916 59.9219 142.916 58.9219V46.125H147.588V69H142.791L132.384 55.4375C132.093 55.0625 131.775 54.5365 131.431 53.8594C131.088 53.1719 130.723 52.3542 130.338 51.4062C130.452 52.0625 130.535 52.7292 130.588 53.4062C130.64 54.0729 130.666 54.9167 130.666 55.9375V69H125.994ZM152.681 69V46.125H166.15V50.25H157.572V54.9531H166.15V59.1094H157.572V64.8438H166.15V69H152.681ZM189.384 52.0781C188.395 51.1927 187.379 50.5469 186.338 50.1406C185.296 49.724 184.181 49.5156 182.994 49.5156C180.556 49.5156 178.614 50.2448 177.166 51.7031C175.718 53.1615 174.994 55.1198 174.994 57.5781C174.994 59.9844 175.666 61.8958 177.009 63.3125C178.353 64.7188 180.186 65.4219 182.509 65.4219C183.832 65.4219 185.061 65.2031 186.197 64.7656C187.332 64.3177 188.384 63.651 189.353 62.7656L189.322 67.7812C188.28 68.3958 187.186 68.8542 186.041 69.1562C184.905 69.4583 183.707 69.6094 182.447 69.6094C178.801 69.6094 175.806 68.4792 173.463 66.2188C171.129 63.9479 169.963 61.0677 169.963 57.5781C169.963 54.099 171.134 51.2292 173.478 48.9688C175.822 46.7083 178.843 45.5781 182.541 45.5781C183.78 45.5781 184.978 45.7083 186.134 45.9688C187.291 46.2292 188.431 46.6302 189.556 47.1719L189.384 52.0781ZM193.931 69V46.125H207.4V50.25H198.822V54.9531H207.4V59.1094H198.822V64.8438H207.4V69H193.931ZM210.744 66.0938L213.463 63.0156C213.806 63.8594 214.358 64.526 215.119 65.0156C215.879 65.4948 216.733 65.7344 217.681 65.7344C218.827 65.7344 219.733 65.4635 220.4 64.9219C221.067 64.3802 221.4 63.651 221.4 62.7344C221.4 61.651 220.291 60.5729 218.072 59.5C217.353 59.1562 216.785 58.875 216.369 58.6562C214.369 57.6146 212.983 56.599 212.213 55.6094C211.442 54.6094 211.056 53.4219 211.056 52.0469C211.056 50.1615 211.801 48.6146 213.291 47.4062C214.791 46.1875 216.733 45.5781 219.119 45.5781C220.504 45.5781 221.697 45.8229 222.697 46.3125C223.707 46.7917 224.598 47.5469 225.369 48.5781L222.478 51.3438C222.134 50.6771 221.676 50.1823 221.103 49.8594C220.541 49.526 219.858 49.3594 219.056 49.3594C218.088 49.3594 217.306 49.6042 216.713 50.0938C216.119 50.5729 215.822 51.1979 215.822 51.9688C215.822 53.1771 216.999 54.2812 219.353 55.2812C219.822 55.4792 220.181 55.6354 220.431 55.75C222.369 56.6354 223.801 57.6354 224.728 58.75C225.666 59.8646 226.134 61.1354 226.134 62.5625C226.134 64.7083 225.4 66.4219 223.931 67.7031C222.473 68.974 220.509 69.6094 218.041 69.6094C216.291 69.6094 214.791 69.3073 213.541 68.7031C212.291 68.099 211.358 67.2292 210.744 66.0938ZM230.244 69V46.125H235.134V69H230.244ZM245.259 64.875H247.978C250.541 64.875 252.405 64.2917 253.572 63.125C254.749 61.9583 255.338 60.1094 255.338 57.5781C255.338 55.0573 254.749 53.2135 253.572 52.0469C252.405 50.8698 250.541 50.2812 247.978 50.2812H245.259V64.875ZM240.369 69V46.125H246.603C249.061 46.125 250.999 46.2969 252.416 46.6406C253.832 46.9844 255.077 47.5573 256.15 48.3594C257.535 49.3906 258.582 50.6927 259.291 52.2656C260.009 53.8281 260.369 55.6094 260.369 57.6094C260.369 59.6406 260.004 61.4427 259.275 63.0156C258.546 64.5781 257.478 65.8698 256.072 66.8906C255.03 67.6406 253.869 68.1823 252.588 68.5156C251.317 68.8385 249.452 69 246.994 69H245.259H240.369ZM275.744 60.2969L273.181 52.9062C273.108 52.6875 273.015 52.3125 272.9 51.7812C272.785 51.25 272.666 50.599 272.541 49.8281C272.405 50.5677 272.275 51.2344 272.15 51.8281C272.025 52.4115 271.931 52.8021 271.869 53L269.4 60.2969H275.744ZM261.181 69L269.884 46.125H275.478L284.306 69H278.744L276.884 64.1406H268.025L266.431 69H261.181ZM291.603 64.875H294.322C296.884 64.875 298.749 64.2917 299.916 63.125C301.093 61.9583 301.681 60.1094 301.681 57.5781C301.681 55.0573 301.093 53.2135 299.916 52.0469C298.749 50.8698 296.884 50.2812 294.322 50.2812H291.603V64.875ZM286.713 69V46.125H292.947C295.405 46.125 297.343 46.2969 298.759 46.6406C300.176 46.9844 301.421 47.5573 302.494 48.3594C303.879 49.3906 304.926 50.6927 305.634 52.2656C306.353 53.8281 306.713 55.6094 306.713 57.6094C306.713 59.6406 306.348 61.4427 305.619 63.0156C304.89 64.5781 303.822 65.8698 302.416 66.8906C301.374 67.6406 300.213 68.1823 298.931 68.5156C297.66 68.8385 295.796 69 293.338 69H291.603H286.713ZM310.806 69V46.125H324.275V50.25H315.697V54.9531H324.275V59.1094H315.697V64.8438H324.275V69H310.806ZM327.619 66.0938L330.338 63.0156C330.681 63.8594 331.233 64.526 331.994 65.0156C332.754 65.4948 333.608 65.7344 334.556 65.7344C335.702 65.7344 336.608 65.4635 337.275 64.9219C337.942 64.3802 338.275 63.651 338.275 62.7344C338.275 61.651 337.166 60.5729 334.947 59.5C334.228 59.1562 333.66 58.875 333.244 58.6562C331.244 57.6146 329.858 56.599 329.088 55.6094C328.317 54.6094 327.931 53.4219 327.931 52.0469C327.931 50.1615 328.676 48.6146 330.166 47.4062C331.666 46.1875 333.608 45.5781 335.994 45.5781C337.379 45.5781 338.572 45.8229 339.572 46.3125C340.582 46.7917 341.473 47.5469 342.244 48.5781L339.353 51.3438C339.009 50.6771 338.551 50.1823 337.978 49.8594C337.416 49.526 336.733 49.3594 335.931 49.3594C334.963 49.3594 334.181 49.6042 333.588 50.0938C332.994 50.5729 332.697 51.1979 332.697 51.9688C332.697 53.1771 333.874 54.2812 336.228 55.2812C336.697 55.4792 337.056 55.6354 337.306 55.75C339.244 56.6354 340.676 57.6354 341.603 58.75C342.541 59.8646 343.009 61.1354 343.009 62.5625C343.009 64.7083 342.275 66.4219 340.806 67.7031C339.348 68.974 337.384 69.6094 334.916 69.6094C333.166 69.6094 331.666 69.3073 330.416 68.7031C329.166 68.099 328.233 67.2292 327.619 66.0938Z" fill="white"/>
</svg>
