<svg width="550" height="246" viewBox="0 0 550 246" fill="none" xmlns="http://www.w3.org/2000/svg">
<path d="M26.744 183H14.686C10.2678 183 6.68604 179.418 6.68604 175V14" stroke="white" stroke-width="1.5"/>
<path d="M12.622 7.0784C12.622 10.6144 9.92461 13.4068 6.68598 13.4068C3.44736 13.4068 0.75 10.6144 0.75 7.0784C0.75 3.54244 3.44736 0.75 6.68598 0.75C9.92461 0.75 12.622 3.54244 12.622 7.0784Z" stroke="white" stroke-width="1.5"/>
<rect x="25" y="161" width="297" height="85" rx="16" fill="#002A61"/>
<path d="M43.5469 197V184.133H50.332V185.53H45.0762V189.222H50.332V190.646H45.0762V197H43.5469ZM51.958 185.082C51.958 184.807 52.0547 184.572 52.248 184.379C52.4473 184.18 52.6875 184.08 52.9688 184.08C53.2441 184.08 53.4785 184.18 53.6719 184.379C53.8711 184.578 53.9707 184.818 53.9707 185.1C53.9707 185.375 53.874 185.609 53.6807 185.803C53.4873 185.996 53.25 186.093 52.9688 186.093C52.6875 186.093 52.4473 185.996 52.248 185.803C52.0547 185.609 51.958 185.369 51.958 185.082ZM52.2832 197V188.958H53.6719V197H52.2832ZM56.5723 197V188.958H57.917V190.197C58.2627 189.682 58.6787 189.298 59.165 189.046C59.6514 188.794 60.2139 188.668 60.8525 188.668C61.8018 188.668 62.543 188.92 63.0762 189.424C63.6094 189.928 63.876 190.628 63.876 191.524V197H62.4697V192.263C62.4697 191.448 62.2969 190.845 61.9512 190.452C61.6113 190.054 61.084 189.854 60.3691 189.854C59.959 189.854 59.584 189.931 59.2441 190.083C58.9102 190.229 58.6318 190.44 58.4092 190.716C58.2393 190.927 58.1162 191.167 58.04 191.437C57.9697 191.706 57.9346 192.175 57.9346 192.843V197H56.5723ZM72.7617 193.054C72.7617 192.146 72.5127 191.416 72.0146 190.865C71.5225 190.309 70.8779 190.03 70.0811 190.03C69.2549 190.03 68.6104 190.285 68.1475 190.795C67.6846 191.305 67.4531 192.017 67.4531 192.931C67.4531 193.903 67.6846 194.653 68.1475 195.181C68.6162 195.708 69.2783 195.972 70.1338 195.972C70.9541 195.972 71.5957 195.717 72.0586 195.207C72.5273 194.691 72.7617 193.974 72.7617 193.054ZM74.0977 188.958V197H72.7617V195.541C72.4395 196.127 72.0264 196.575 71.5225 196.886C71.0244 197.19 70.4648 197.343 69.8438 197.343C68.6895 197.343 67.7578 196.947 67.0488 196.156C66.3457 195.359 65.9941 194.308 65.9941 193.001C65.9941 191.677 66.3369 190.625 67.0225 189.846C67.708 189.061 68.625 188.668 69.7734 188.668C70.4473 188.668 71.0303 188.82 71.5225 189.125C72.0205 189.424 72.4219 189.872 72.7266 190.47V188.958H74.0977ZM76.8574 197V188.958H78.2021V190.197C78.5479 189.682 78.9639 189.298 79.4502 189.046C79.9365 188.794 80.499 188.668 81.1377 188.668C82.0869 188.668 82.8281 188.92 83.3613 189.424C83.8945 189.928 84.1611 190.628 84.1611 191.524V197H82.7549V192.263C82.7549 191.448 82.582 190.845 82.2363 190.452C81.8965 190.054 81.3691 189.854 80.6543 189.854C80.2441 189.854 79.8691 189.931 79.5293 190.083C79.1953 190.229 78.917 190.44 78.6943 190.716C78.5244 190.927 78.4014 191.167 78.3252 191.437C78.2549 191.706 78.2197 192.175 78.2197 192.843V197H76.8574ZM93.0645 195.093V196.692C92.7012 196.909 92.291 197.07 91.834 197.176C91.3828 197.287 90.8936 197.343 90.3662 197.343C89.124 197.343 88.1221 196.95 87.3604 196.165C86.6045 195.374 86.2266 194.337 86.2266 193.054C86.2266 191.765 86.6191 190.713 87.4043 189.898C88.1895 189.078 89.1943 188.668 90.4189 188.668C90.8643 188.668 91.2979 188.715 91.7197 188.809C92.1475 188.902 92.5488 189.04 92.9238 189.222V190.698C92.5723 190.47 92.209 190.297 91.834 190.18C91.459 190.057 91.0781 189.995 90.6914 189.995C89.7891 189.995 89.0654 190.279 88.5205 190.848C87.9756 191.41 87.7031 192.16 87.7031 193.098C87.7031 193.924 87.9756 194.615 88.5205 195.172C89.0713 195.729 89.7598 196.007 90.5859 196.007C91.002 196.007 91.4092 195.934 91.8076 195.787C92.2061 195.641 92.625 195.409 93.0645 195.093ZM94.7256 185.082C94.7256 184.807 94.8223 184.572 95.0156 184.379C95.2148 184.18 95.4551 184.08 95.7363 184.08C96.0117 184.08 96.2461 184.18 96.4395 184.379C96.6387 184.578 96.7383 184.818 96.7383 185.1C96.7383 185.375 96.6416 185.609 96.4482 185.803C96.2549 185.996 96.0176 186.093 95.7363 186.093C95.4551 186.093 95.2148 185.996 95.0156 185.803C94.8223 185.609 94.7256 185.369 94.7256 185.082ZM95.0508 197V188.958H96.4395V197H95.0508ZM105.492 193.054C105.492 192.146 105.243 191.416 104.745 190.865C104.253 190.309 103.608 190.03 102.812 190.03C101.985 190.03 101.341 190.285 100.878 190.795C100.415 191.305 100.184 192.017 100.184 192.931C100.184 193.903 100.415 194.653 100.878 195.181C101.347 195.708 102.009 195.972 102.864 195.972C103.685 195.972 104.326 195.717 104.789 195.207C105.258 194.691 105.492 193.974 105.492 193.054ZM106.828 188.958V197H105.492V195.541C105.17 196.127 104.757 196.575 104.253 196.886C103.755 197.19 103.195 197.343 102.574 197.343C101.42 197.343 100.488 196.947 99.7793 196.156C99.0762 195.359 98.7246 194.308 98.7246 193.001C98.7246 191.677 99.0674 190.625 99.7529 189.846C100.438 189.061 101.355 188.668 102.504 188.668C103.178 188.668 103.761 188.82 104.253 189.125C104.751 189.424 105.152 189.872 105.457 190.47V188.958H106.828ZM120.785 197V192.263C120.785 191.448 120.621 190.845 120.293 190.452C119.965 190.054 119.461 189.854 118.781 189.854C118.412 189.854 118.069 189.931 117.753 190.083C117.442 190.229 117.179 190.44 116.962 190.716C116.804 190.927 116.689 191.173 116.619 191.454C116.549 191.735 116.514 192.198 116.514 192.843V197H115.187V192.263C115.187 191.448 115.022 190.845 114.694 190.452C114.366 190.054 113.862 189.854 113.183 189.854C112.813 189.854 112.468 189.931 112.146 190.083C111.829 190.229 111.562 190.44 111.346 190.716C111.193 190.921 111.082 191.158 111.012 191.428C110.947 191.697 110.915 192.169 110.915 192.843V197H109.588V188.958H110.933V190.197C111.267 189.682 111.665 189.298 112.128 189.046C112.591 188.794 113.124 188.668 113.728 188.668C114.378 188.668 114.932 188.809 115.389 189.09C115.846 189.365 116.191 189.77 116.426 190.303C116.771 189.752 117.179 189.342 117.647 189.072C118.122 188.803 118.67 188.668 119.291 188.668C120.188 188.668 120.888 188.92 121.392 189.424C121.896 189.928 122.147 190.628 122.147 191.524V197H120.785ZM124.608 185.082C124.608 184.807 124.705 184.572 124.898 184.379C125.098 184.18 125.338 184.08 125.619 184.08C125.895 184.08 126.129 184.18 126.322 184.379C126.521 184.578 126.621 184.818 126.621 185.1C126.621 185.375 126.524 185.609 126.331 185.803C126.138 185.996 125.9 186.093 125.619 186.093C125.338 186.093 125.098 185.996 124.898 185.803C124.705 185.609 124.608 185.369 124.608 185.082ZM124.934 197V188.958H126.322V197H124.934ZM134.927 192.069C134.88 191.36 134.643 190.815 134.215 190.435C133.793 190.048 133.213 189.854 132.475 189.854C131.807 189.854 131.25 190.057 130.805 190.461C130.359 190.859 130.102 191.396 130.031 192.069H134.927ZM136.403 193.186H130.031V193.309C130.031 194.17 130.277 194.867 130.77 195.4C131.262 195.928 131.903 196.191 132.694 196.191C133.233 196.191 133.72 196.048 134.153 195.761C134.587 195.468 134.971 195.028 135.305 194.442L136.351 195.146C135.946 195.872 135.431 196.42 134.804 196.789C134.177 197.158 133.45 197.343 132.624 197.343C131.399 197.343 130.409 196.938 129.653 196.13C128.897 195.321 128.52 194.261 128.52 192.948C128.52 191.688 128.895 190.657 129.645 189.854C130.395 189.052 131.358 188.65 132.536 188.65C133.726 188.65 134.666 189.031 135.357 189.793C136.055 190.555 136.403 191.595 136.403 192.913V193.186ZM138.486 197V188.958H139.831V190.197C140.177 189.682 140.593 189.298 141.079 189.046C141.565 188.794 142.128 188.668 142.767 188.668C143.716 188.668 144.457 188.92 144.99 189.424C145.523 189.928 145.79 190.628 145.79 191.524V197H144.384V192.263C144.384 191.448 144.211 190.845 143.865 190.452C143.525 190.054 142.998 189.854 142.283 189.854C141.873 189.854 141.498 189.931 141.158 190.083C140.824 190.229 140.546 190.44 140.323 190.716C140.153 190.927 140.03 191.167 139.954 191.437C139.884 191.706 139.849 192.175 139.849 192.843V197H138.486ZM148.734 190.092H147.258V188.958H148.734V185.715H150.141V188.958H151.617V190.092H150.141V197H148.734V190.092ZM153.99 193.001C153.99 193.851 154.274 194.571 154.843 195.163C155.411 195.749 156.1 196.042 156.908 196.042C157.711 196.042 158.394 195.749 158.956 195.163C159.519 194.571 159.8 193.851 159.8 193.001C159.8 192.151 159.519 191.434 158.956 190.848C158.394 190.256 157.711 189.96 156.908 189.96C156.094 189.96 155.402 190.256 154.834 190.848C154.271 191.434 153.99 192.151 153.99 193.001ZM152.531 193.001C152.531 192.409 152.64 191.853 152.856 191.331C153.073 190.804 153.39 190.335 153.806 189.925C154.222 189.515 154.693 189.204 155.221 188.993C155.748 188.776 156.311 188.668 156.908 188.668C157.494 188.668 158.048 188.776 158.569 188.993C159.097 189.21 159.574 189.526 160.002 189.942C160.418 190.347 160.734 190.812 160.951 191.34C161.168 191.861 161.276 192.415 161.276 193.001C161.276 193.587 161.168 194.141 160.951 194.662C160.734 195.178 160.418 195.638 160.002 196.042C159.574 196.464 159.094 196.786 158.561 197.009C158.033 197.231 157.482 197.343 156.908 197.343C156.316 197.343 155.754 197.231 155.221 197.009C154.693 196.792 154.222 196.479 153.806 196.068C153.39 195.646 153.073 195.178 152.856 194.662C152.64 194.146 152.531 193.593 152.531 193.001ZM174.891 193.054C174.891 192.146 174.642 191.416 174.144 190.865C173.651 190.309 173.007 190.03 172.21 190.03C171.384 190.03 170.739 190.285 170.276 190.795C169.813 191.305 169.582 192.017 169.582 192.931C169.582 193.903 169.813 194.653 170.276 195.181C170.745 195.708 171.407 195.972 172.263 195.972C173.083 195.972 173.725 195.717 174.188 195.207C174.656 194.691 174.891 193.974 174.891 193.054ZM176.227 188.958V197H174.891V195.541C174.568 196.127 174.155 196.575 173.651 196.886C173.153 197.19 172.594 197.343 171.973 197.343C170.818 197.343 169.887 196.947 169.178 196.156C168.475 195.359 168.123 194.308 168.123 193.001C168.123 191.677 168.466 190.625 169.151 189.846C169.837 189.061 170.754 188.668 171.902 188.668C172.576 188.668 173.159 188.82 173.651 189.125C174.149 189.424 174.551 189.872 174.855 190.47V188.958H176.227ZM184.128 197V183.377H187.266V197H184.128ZM196.433 192.553C196.433 191.85 196.248 191.305 195.879 190.918C195.504 190.508 195 190.303 194.367 190.303C193.734 190.303 193.236 190.502 192.873 190.9C192.498 191.311 192.311 191.861 192.311 192.553C192.311 193.25 192.498 193.798 192.873 194.196C193.23 194.589 193.729 194.785 194.367 194.785C195 194.785 195.501 194.589 195.87 194.196C196.245 193.804 196.433 193.256 196.433 192.553ZM199.184 188.123V197H196.31V195.559C195.894 196.174 195.428 196.625 194.912 196.912C194.402 197.199 193.805 197.343 193.119 197.343C191.93 197.343 190.983 196.909 190.28 196.042C189.935 195.614 189.671 195.11 189.489 194.53C189.308 193.95 189.217 193.297 189.217 192.57C189.217 191.117 189.589 189.966 190.333 189.116C191.077 188.267 192.073 187.842 193.321 187.842C193.989 187.842 194.563 187.985 195.044 188.272C195.53 188.548 195.946 188.984 196.292 189.582V188.123H199.184ZM201.565 197V188.123H204.519V190.215C204.829 189.447 205.242 188.876 205.758 188.501C206.291 188.12 206.933 187.93 207.683 187.93C207.853 187.93 207.979 187.936 208.061 187.947C208.125 187.953 208.184 187.959 208.236 187.965C208.289 187.965 208.356 187.971 208.438 187.982L208.14 190.83C207.923 190.76 207.735 190.71 207.577 190.681C207.343 190.657 207.17 190.646 207.059 190.646C206.297 190.646 205.708 190.88 205.292 191.349C204.882 191.812 204.677 192.471 204.677 193.326V197H201.565ZM216.366 192.535C216.366 191.85 216.188 191.311 215.83 190.918C215.443 190.531 214.934 190.338 214.301 190.338C213.668 190.338 213.158 190.531 212.771 190.918C212.396 191.311 212.209 191.85 212.209 192.535C212.209 193.227 212.396 193.76 212.771 194.135C213.152 194.533 213.662 194.732 214.301 194.732C214.928 194.732 215.432 194.533 215.812 194.135C216.182 193.766 216.366 193.232 216.366 192.535ZM219.117 188.123V196.982C219.117 198.324 218.71 199.314 217.896 199.953C217.503 200.27 216.987 200.51 216.349 200.674C215.71 200.838 214.96 200.92 214.099 200.92C212.698 200.92 211.611 200.662 210.838 200.146C210.064 199.625 209.651 198.901 209.599 197.976H212.842C212.9 198.257 213.056 198.471 213.308 198.617C213.565 198.775 213.908 198.854 214.336 198.854C215.004 198.854 215.47 198.693 215.733 198.371C215.985 198.049 216.111 197.363 216.111 196.314V195.506C215.777 196.068 215.358 196.481 214.854 196.745C214.333 197.021 213.727 197.158 213.035 197.158C211.863 197.158 210.923 196.733 210.214 195.884C209.868 195.468 209.604 194.979 209.423 194.416C209.241 193.848 209.15 193.209 209.15 192.5C209.15 191.082 209.522 189.948 210.267 189.099C210.636 188.677 211.069 188.363 211.567 188.158C212.071 187.947 212.634 187.842 213.255 187.842C213.917 187.842 214.491 187.979 214.978 188.255C215.458 188.513 215.874 188.943 216.226 189.547V188.123H219.117ZM227.783 192.588C227.783 191.926 227.616 191.404 227.282 191.023C226.937 190.643 226.485 190.452 225.929 190.452C225.354 190.452 224.903 190.643 224.575 191.023C224.241 191.393 224.074 191.914 224.074 192.588C224.074 193.244 224.235 193.76 224.558 194.135C224.909 194.521 225.366 194.715 225.929 194.715C226.491 194.715 226.948 194.521 227.3 194.135C227.622 193.748 227.783 193.232 227.783 192.588ZM230.895 192.588C230.895 193.238 230.769 193.845 230.517 194.407C230.253 195.005 229.893 195.521 229.436 195.954C228.92 196.435 228.387 196.783 227.836 197C227.262 197.229 226.626 197.343 225.929 197.343C225.226 197.343 224.59 197.229 224.021 197C223.441 196.771 222.905 196.426 222.413 195.963C221.927 195.494 221.575 194.976 221.358 194.407C221.106 193.862 220.98 193.256 220.98 192.588C220.98 191.938 221.106 191.325 221.358 190.751C221.593 190.171 221.947 189.655 222.422 189.204C222.885 188.759 223.418 188.416 224.021 188.176C224.596 187.953 225.231 187.842 225.929 187.842C226.62 187.842 227.256 187.953 227.836 188.176C228.439 188.416 228.973 188.759 229.436 189.204C229.922 189.644 230.282 190.159 230.517 190.751C230.769 191.325 230.895 191.938 230.895 192.588ZM241.134 192.588C241.134 193.279 241.318 193.827 241.688 194.231C242.027 194.624 242.52 194.82 243.164 194.82C243.803 194.82 244.301 194.624 244.658 194.231C245.016 193.821 245.194 193.273 245.194 192.588C245.194 191.891 245.016 191.346 244.658 190.953C244.295 190.555 243.797 190.355 243.164 190.355C242.525 190.355 242.033 190.555 241.688 190.953C241.318 191.34 241.134 191.885 241.134 192.588ZM238.356 200.92V188.141H241.239V189.617C241.62 189.049 242.068 188.606 242.584 188.29C243.07 188.003 243.624 187.859 244.245 187.859C244.872 187.859 245.435 187.965 245.933 188.176C246.431 188.381 246.864 188.694 247.233 189.116C247.966 189.954 248.332 191.111 248.332 192.588C248.332 194.006 247.966 195.151 247.233 196.024C246.858 196.47 246.434 196.801 245.959 197.018C245.49 197.234 244.954 197.343 244.351 197.343C243.595 197.343 242.982 197.205 242.514 196.93C242.062 196.666 241.644 196.209 241.257 195.559C241.286 195.699 241.31 195.916 241.327 196.209C241.339 196.379 241.345 196.689 241.345 197.141V200.92H238.356ZM250.31 197V183.377H253.447V197H250.31ZM262.614 192.553C262.614 191.85 262.43 191.305 262.061 190.918C261.686 190.508 261.182 190.303 260.549 190.303C259.916 190.303 259.418 190.502 259.055 190.9C258.68 191.311 258.492 191.861 258.492 192.553C258.492 193.25 258.68 193.798 259.055 194.196C259.412 194.589 259.91 194.785 260.549 194.785C261.182 194.785 261.683 194.589 262.052 194.196C262.427 193.804 262.614 193.256 262.614 192.553ZM265.365 188.123V197H262.491V195.559C262.075 196.174 261.609 196.625 261.094 196.912C260.584 197.199 259.986 197.343 259.301 197.343C258.111 197.343 257.165 196.909 256.462 196.042C256.116 195.614 255.853 195.11 255.671 194.53C255.489 193.95 255.398 193.297 255.398 192.57C255.398 191.117 255.771 189.966 256.515 189.116C257.259 188.267 258.255 187.842 259.503 187.842C260.171 187.842 260.745 187.985 261.226 188.272C261.712 188.548 262.128 188.984 262.474 189.582V188.123H265.365ZM275.578 197H266.578L271.131 190.408H267.132V188.123H275.974L271.254 194.592H275.578V197ZM283.787 192.588C283.787 191.926 283.62 191.404 283.286 191.023C282.94 190.643 282.489 190.452 281.933 190.452C281.358 190.452 280.907 190.643 280.579 191.023C280.245 191.393 280.078 191.914 280.078 192.588C280.078 193.244 280.239 193.76 280.562 194.135C280.913 194.521 281.37 194.715 281.933 194.715C282.495 194.715 282.952 194.521 283.304 194.135C283.626 193.748 283.787 193.232 283.787 192.588ZM286.898 192.588C286.898 193.238 286.772 193.845 286.521 194.407C286.257 195.005 285.896 195.521 285.439 195.954C284.924 196.435 284.391 196.783 283.84 197C283.266 197.229 282.63 197.343 281.933 197.343C281.229 197.343 280.594 197.229 280.025 197C279.445 196.771 278.909 196.426 278.417 195.963C277.931 195.494 277.579 194.976 277.362 194.407C277.11 193.862 276.984 193.256 276.984 192.588C276.984 191.938 277.11 191.325 277.362 190.751C277.597 190.171 277.951 189.655 278.426 189.204C278.889 188.759 279.422 188.416 280.025 188.176C280.6 187.953 281.235 187.842 281.933 187.842C282.624 187.842 283.26 187.953 283.84 188.176C284.443 188.416 284.977 188.759 285.439 189.204C285.926 189.644 286.286 190.159 286.521 190.751C286.772 191.325 286.898 191.938 286.898 192.588ZM44.7334 213.001C44.7334 213.903 44.9824 214.627 45.4805 215.172C45.9785 215.717 46.6377 215.989 47.458 215.989C48.2607 215.989 48.8906 215.74 49.3477 215.242C49.8105 214.744 50.042 214.053 50.042 213.168C50.042 212.178 49.8105 211.401 49.3477 210.839C48.8906 210.276 48.252 209.995 47.4316 209.995C46.5938 209.995 45.9346 210.262 45.4541 210.795C44.9736 211.328 44.7334 212.063 44.7334 213.001ZM43.4062 220.92V208.958H44.7158V210.47C45.0264 209.89 45.4365 209.444 45.9463 209.134C46.4561 208.823 47.0244 208.668 47.6514 208.668C48.8115 208.668 49.7432 209.063 50.4463 209.854C51.1494 210.646 51.501 211.694 51.501 213.001C51.501 214.331 51.1553 215.389 50.4639 216.174C49.7783 216.953 48.8584 217.343 47.7041 217.343C47.042 217.343 46.4648 217.193 45.9727 216.895C45.4805 216.59 45.0791 216.139 44.7686 215.541V220.92H43.4062ZM59.8594 213.054C59.8594 212.146 59.6104 211.416 59.1123 210.865C58.6201 210.309 57.9756 210.03 57.1787 210.03C56.3525 210.03 55.708 210.285 55.2451 210.795C54.7822 211.305 54.5508 212.017 54.5508 212.931C54.5508 213.903 54.7822 214.653 55.2451 215.181C55.7139 215.708 56.376 215.972 57.2314 215.972C58.0518 215.972 58.6934 215.717 59.1562 215.207C59.625 214.691 59.8594 213.974 59.8594 213.054ZM61.1953 208.958V217H59.8594V215.541C59.5371 216.127 59.124 216.575 58.6201 216.886C58.1221 217.19 57.5625 217.343 56.9414 217.343C55.7871 217.343 54.8555 216.947 54.1465 216.156C53.4434 215.359 53.0918 214.308 53.0918 213.001C53.0918 211.677 53.4346 210.625 54.1201 209.846C54.8057 209.061 55.7227 208.668 56.8711 208.668C57.5449 208.668 58.1279 208.82 58.6201 209.125C59.1182 209.424 59.5195 209.872 59.8242 210.47V208.958H61.1953ZM63.9727 217V208.958H65.1943V210.628C65.5635 209.931 65.9561 209.433 66.3721 209.134C66.7881 208.835 67.2949 208.686 67.8926 208.686C68.0566 208.686 68.2148 208.7 68.3672 208.729C68.5195 208.753 68.6719 208.791 68.8242 208.844L68.3672 210.083C68.209 210.03 68.0596 209.992 67.9189 209.969C67.7783 209.939 67.6436 209.925 67.5146 209.925C66.7881 209.925 66.2432 210.188 65.8799 210.716C65.5166 211.237 65.335 212.025 65.335 213.08V217H63.9727ZM76.4355 213.054C76.4355 212.146 76.1865 211.416 75.6885 210.865C75.1963 210.309 74.5518 210.03 73.7549 210.03C72.9287 210.03 72.2842 210.285 71.8213 210.795C71.3584 211.305 71.127 212.017 71.127 212.931C71.127 213.903 71.3584 214.653 71.8213 215.181C72.29 215.708 72.9521 215.972 73.8076 215.972C74.6279 215.972 75.2695 215.717 75.7324 215.207C76.2012 214.691 76.4355 213.974 76.4355 213.054ZM77.7715 208.958V217H76.4355V215.541C76.1133 216.127 75.7002 216.575 75.1963 216.886C74.6982 217.19 74.1387 217.343 73.5176 217.343C72.3633 217.343 71.4316 216.947 70.7227 216.156C70.0195 215.359 69.668 214.308 69.668 213.001C69.668 211.677 70.0107 210.625 70.6963 209.846C71.3818 209.061 72.2988 208.668 73.4473 208.668C74.1211 208.668 74.7041 208.82 75.1963 209.125C75.6943 209.424 76.0957 209.872 76.4004 210.47V208.958H77.7715ZM91.9922 213.019C91.9922 212.122 91.7432 211.401 91.2451 210.856C90.7471 210.306 90.0908 210.03 89.2764 210.03C88.4619 210.03 87.8262 210.279 87.3691 210.777C86.9121 211.275 86.6836 211.964 86.6836 212.843C86.6836 213.833 86.915 214.609 87.3779 215.172C87.8408 215.729 88.4795 216.007 89.2939 216.007C90.1377 216.007 90.7969 215.743 91.2715 215.216C91.752 214.688 91.9922 213.956 91.9922 213.019ZM93.3281 203.377V217H91.9922V215.541C91.6758 216.121 91.2656 216.566 90.7617 216.877C90.2578 217.188 89.6953 217.343 89.0742 217.343C87.9199 217.343 86.9883 216.947 86.2793 216.156C85.5762 215.359 85.2246 214.308 85.2246 213.001C85.2246 211.683 85.5703 210.631 86.2617 209.846C86.9531 209.061 87.873 208.668 89.0215 208.668C89.6895 208.668 90.2695 208.82 90.7617 209.125C91.2539 209.424 91.6523 209.872 91.957 210.47V203.377H93.3281ZM102.293 213.054C102.293 212.146 102.044 211.416 101.546 210.865C101.054 210.309 100.409 210.03 99.6123 210.03C98.7861 210.03 98.1416 210.285 97.6787 210.795C97.2158 211.305 96.9844 212.017 96.9844 212.931C96.9844 213.903 97.2158 214.653 97.6787 215.181C98.1475 215.708 98.8096 215.972 99.665 215.972C100.485 215.972 101.127 215.717 101.59 215.207C102.059 214.691 102.293 213.974 102.293 213.054ZM103.629 208.958V217H102.293V215.541C101.971 216.127 101.558 216.575 101.054 216.886C100.556 217.19 99.9961 217.343 99.375 217.343C98.2207 217.343 97.2891 216.947 96.5801 216.156C95.877 215.359 95.5254 214.308 95.5254 213.001C95.5254 211.677 95.8682 210.625 96.5537 209.846C97.2393 209.061 98.1562 208.668 99.3047 208.668C99.9785 208.668 100.562 208.82 101.054 209.125C101.552 209.424 101.953 209.872 102.258 210.47V208.958H103.629ZM106.406 217V208.958H107.628V210.628C107.997 209.931 108.39 209.433 108.806 209.134C109.222 208.835 109.729 208.686 110.326 208.686C110.49 208.686 110.648 208.7 110.801 208.729C110.953 208.753 111.105 208.791 111.258 208.844L110.801 210.083C110.643 210.03 110.493 209.992 110.353 209.969C110.212 209.939 110.077 209.925 109.948 209.925C109.222 209.925 108.677 210.188 108.313 210.716C107.95 211.237 107.769 212.025 107.769 213.08V217H106.406ZM112.787 217V203.377H114.193V217H112.787ZM122.78 212.069C122.733 211.36 122.496 210.815 122.068 210.435C121.646 210.048 121.066 209.854 120.328 209.854C119.66 209.854 119.104 210.057 118.658 210.461C118.213 210.859 117.955 211.396 117.885 212.069H122.78ZM124.257 213.186H117.885V213.309C117.885 214.17 118.131 214.867 118.623 215.4C119.115 215.928 119.757 216.191 120.548 216.191C121.087 216.191 121.573 216.048 122.007 215.761C122.44 215.468 122.824 215.028 123.158 214.442L124.204 215.146C123.8 215.872 123.284 216.42 122.657 216.789C122.03 217.158 121.304 217.343 120.478 217.343C119.253 217.343 118.263 216.938 117.507 216.13C116.751 215.321 116.373 214.261 116.373 212.948C116.373 211.688 116.748 210.657 117.498 209.854C118.248 209.052 119.212 208.65 120.39 208.65C121.579 208.65 122.52 209.031 123.211 209.793C123.908 210.555 124.257 211.595 124.257 212.913V213.186ZM134.294 217.501L130.312 208.958H131.859L134.276 214.574L136.702 208.958H138.249L134.294 217.501ZM139.479 205.082C139.479 204.807 139.576 204.572 139.77 204.379C139.969 204.18 140.209 204.08 140.49 204.08C140.766 204.08 141 204.18 141.193 204.379C141.393 204.578 141.492 204.818 141.492 205.1C141.492 205.375 141.396 205.609 141.202 205.803C141.009 205.996 140.771 206.093 140.49 206.093C140.209 206.093 139.969 205.996 139.77 205.803C139.576 205.609 139.479 205.369 139.479 205.082ZM139.805 217V208.958H141.193V217H139.805ZM150.246 213.019C150.246 212.122 149.997 211.401 149.499 210.856C149.001 210.306 148.345 210.03 147.53 210.03C146.716 210.03 146.08 210.279 145.623 210.777C145.166 211.275 144.938 211.964 144.938 212.843C144.938 213.833 145.169 214.609 145.632 215.172C146.095 215.729 146.733 216.007 147.548 216.007C148.392 216.007 149.051 215.743 149.525 215.216C150.006 214.688 150.246 213.956 150.246 213.019ZM151.582 203.377V217H150.246V215.541C149.93 216.121 149.52 216.566 149.016 216.877C148.512 217.188 147.949 217.343 147.328 217.343C146.174 217.343 145.242 216.947 144.533 216.156C143.83 215.359 143.479 214.308 143.479 213.001C143.479 211.683 143.824 210.631 144.516 209.846C145.207 209.061 146.127 208.668 147.275 208.668C147.943 208.668 148.523 208.82 149.016 209.125C149.508 209.424 149.906 209.872 150.211 210.47V203.377H151.582ZM160.547 213.054C160.547 212.146 160.298 211.416 159.8 210.865C159.308 210.309 158.663 210.03 157.866 210.03C157.04 210.03 156.396 210.285 155.933 210.795C155.47 211.305 155.238 212.017 155.238 212.931C155.238 213.903 155.47 214.653 155.933 215.181C156.401 215.708 157.063 215.972 157.919 215.972C158.739 215.972 159.381 215.717 159.844 215.207C160.312 214.691 160.547 213.974 160.547 213.054ZM161.883 208.958V217H160.547V215.541C160.225 216.127 159.812 216.575 159.308 216.886C158.81 217.19 158.25 217.343 157.629 217.343C156.475 217.343 155.543 216.947 154.834 216.156C154.131 215.359 153.779 214.308 153.779 213.001C153.779 211.677 154.122 210.625 154.808 209.846C155.493 209.061 156.41 208.668 157.559 208.668C158.232 208.668 158.815 208.82 159.308 209.125C159.806 209.424 160.207 209.872 160.512 210.47V208.958H161.883ZM176.104 213.054C176.104 212.146 175.854 211.416 175.356 210.865C174.864 210.309 174.22 210.03 173.423 210.03C172.597 210.03 171.952 210.285 171.489 210.795C171.026 211.305 170.795 212.017 170.795 212.931C170.795 213.903 171.026 214.653 171.489 215.181C171.958 215.708 172.62 215.972 173.476 215.972C174.296 215.972 174.938 215.717 175.4 215.207C175.869 214.691 176.104 213.974 176.104 213.054ZM177.439 208.958V217H176.104V215.541C175.781 216.127 175.368 216.575 174.864 216.886C174.366 217.19 173.807 217.343 173.186 217.343C172.031 217.343 171.1 216.947 170.391 216.156C169.688 215.359 169.336 214.308 169.336 213.001C169.336 211.677 169.679 210.625 170.364 209.846C171.05 209.061 171.967 208.668 173.115 208.668C173.789 208.668 174.372 208.82 174.864 209.125C175.362 209.424 175.764 209.872 176.068 210.47V208.958H177.439ZM185.719 210.092H184.242V208.958H185.719V205.715H187.125V208.958H188.602V210.092H187.125V217H185.719V210.092ZM191.458 208.958V212.913C191.458 214.067 191.628 214.876 191.968 215.339C192.313 215.796 192.894 216.024 193.708 216.024C194.522 216.024 195.097 215.799 195.431 215.348C195.771 214.891 195.94 214.079 195.94 212.913V208.958H197.347V213.651C197.347 214.864 197.036 215.784 196.415 216.411C195.794 217.032 194.88 217.343 193.673 217.343C192.478 217.343 191.569 217.029 190.948 216.402C190.327 215.775 190.017 214.858 190.017 213.651V208.958H191.458ZM199.157 215.646L200.335 214.855C200.558 215.283 200.839 215.605 201.179 215.822C201.519 216.033 201.92 216.139 202.383 216.139C202.834 216.139 203.197 216.027 203.473 215.805C203.754 215.582 203.895 215.289 203.895 214.926C203.895 214.645 203.798 214.41 203.604 214.223C203.417 214.035 203.092 213.862 202.629 213.704C202.582 213.687 202.506 213.66 202.4 213.625C200.443 212.951 199.465 212.107 199.465 211.094C199.465 210.379 199.729 209.796 200.256 209.345C200.783 208.894 201.469 208.668 202.312 208.668C203.01 208.668 203.607 208.809 204.105 209.09C204.604 209.365 204.961 209.758 205.178 210.268L204.062 210.953C203.897 210.584 203.654 210.3 203.332 210.101C203.016 209.901 202.646 209.802 202.225 209.802C201.82 209.802 201.489 209.916 201.231 210.145C200.979 210.367 200.854 210.654 200.854 211.006C200.854 211.498 201.387 211.911 202.453 212.245C202.652 212.31 202.811 212.359 202.928 212.395C203.801 212.676 204.407 212.998 204.747 213.361C205.093 213.719 205.266 214.193 205.266 214.785C205.266 215.547 204.993 216.165 204.448 216.64C203.909 217.108 203.203 217.343 202.33 217.343C201.58 217.343 200.941 217.202 200.414 216.921C199.893 216.64 199.474 216.215 199.157 215.646ZM213.976 213.001C213.976 213.903 214.225 214.627 214.723 215.172C215.221 215.717 215.88 215.989 216.7 215.989C217.503 215.989 218.133 215.74 218.59 215.242C219.053 214.744 219.284 214.053 219.284 213.168C219.284 212.178 219.053 211.401 218.59 210.839C218.133 210.276 217.494 209.995 216.674 209.995C215.836 209.995 215.177 210.262 214.696 210.795C214.216 211.328 213.976 212.063 213.976 213.001ZM212.648 220.92V208.958H213.958V210.47C214.269 209.89 214.679 209.444 215.188 209.134C215.698 208.823 216.267 208.668 216.894 208.668C218.054 208.668 218.985 209.063 219.688 209.854C220.392 210.646 220.743 211.694 220.743 213.001C220.743 214.331 220.397 215.389 219.706 216.174C219.021 216.953 218.101 217.343 216.946 217.343C216.284 217.343 215.707 217.193 215.215 216.895C214.723 216.59 214.321 216.139 214.011 215.541V220.92H212.648ZM222.967 217V208.958H224.188V210.628C224.558 209.931 224.95 209.433 225.366 209.134C225.782 208.835 226.289 208.686 226.887 208.686C227.051 208.686 227.209 208.7 227.361 208.729C227.514 208.753 227.666 208.791 227.818 208.844L227.361 210.083C227.203 210.03 227.054 209.992 226.913 209.969C226.772 209.939 226.638 209.925 226.509 209.925C225.782 209.925 225.237 210.188 224.874 210.716C224.511 211.237 224.329 212.025 224.329 213.08V217H222.967ZM230.086 213.001C230.086 213.851 230.37 214.571 230.938 215.163C231.507 215.749 232.195 216.042 233.004 216.042C233.807 216.042 234.489 215.749 235.052 215.163C235.614 214.571 235.896 213.851 235.896 213.001C235.896 212.151 235.614 211.434 235.052 210.848C234.489 210.256 233.807 209.96 233.004 209.96C232.189 209.96 231.498 210.256 230.93 210.848C230.367 211.434 230.086 212.151 230.086 213.001ZM228.627 213.001C228.627 212.409 228.735 211.853 228.952 211.331C229.169 210.804 229.485 210.335 229.901 209.925C230.317 209.515 230.789 209.204 231.316 208.993C231.844 208.776 232.406 208.668 233.004 208.668C233.59 208.668 234.144 208.776 234.665 208.993C235.192 209.21 235.67 209.526 236.098 209.942C236.514 210.347 236.83 210.812 237.047 211.34C237.264 211.861 237.372 212.415 237.372 213.001C237.372 213.587 237.264 214.141 237.047 214.662C236.83 215.178 236.514 215.638 236.098 216.042C235.67 216.464 235.189 216.786 234.656 217.009C234.129 217.231 233.578 217.343 233.004 217.343C232.412 217.343 231.85 217.231 231.316 217.009C230.789 216.792 230.317 216.479 229.901 216.068C229.485 215.646 229.169 215.178 228.952 214.662C228.735 214.146 228.627 213.593 228.627 213.001ZM239.2 220.92L241.38 216.209L238.225 208.958H239.815L242.153 214.732L244.632 208.958H246.144L240.747 220.92H239.2ZM253.157 212.069C253.11 211.36 252.873 210.815 252.445 210.435C252.023 210.048 251.443 209.854 250.705 209.854C250.037 209.854 249.48 210.057 249.035 210.461C248.59 210.859 248.332 211.396 248.262 212.069H253.157ZM254.634 213.186H248.262V213.309C248.262 214.17 248.508 214.867 249 215.4C249.492 215.928 250.134 216.191 250.925 216.191C251.464 216.191 251.95 216.048 252.384 215.761C252.817 215.468 253.201 215.028 253.535 214.442L254.581 215.146C254.177 215.872 253.661 216.42 253.034 216.789C252.407 217.158 251.681 217.343 250.854 217.343C249.63 217.343 248.64 216.938 247.884 216.13C247.128 215.321 246.75 214.261 246.75 212.948C246.75 211.688 247.125 210.657 247.875 209.854C248.625 209.052 249.589 208.65 250.767 208.65C251.956 208.65 252.896 209.031 253.588 209.793C254.285 210.555 254.634 211.595 254.634 212.913V213.186ZM262.887 215.093V216.692C262.523 216.909 262.113 217.07 261.656 217.176C261.205 217.287 260.716 217.343 260.188 217.343C258.946 217.343 257.944 216.95 257.183 216.165C256.427 215.374 256.049 214.337 256.049 213.054C256.049 211.765 256.441 210.713 257.227 209.898C258.012 209.078 259.017 208.668 260.241 208.668C260.687 208.668 261.12 208.715 261.542 208.809C261.97 208.902 262.371 209.04 262.746 209.222V210.698C262.395 210.47 262.031 210.297 261.656 210.18C261.281 210.057 260.9 209.995 260.514 209.995C259.611 209.995 258.888 210.279 258.343 210.848C257.798 211.41 257.525 212.16 257.525 213.098C257.525 213.924 257.798 214.615 258.343 215.172C258.894 215.729 259.582 216.007 260.408 216.007C260.824 216.007 261.231 215.934 261.63 215.787C262.028 215.641 262.447 215.409 262.887 215.093ZM265.014 210.092H263.537V208.958H265.014V205.715H266.42V208.958H267.896V210.092H266.42V217H265.014V210.092ZM270.27 213.001C270.27 213.851 270.554 214.571 271.122 215.163C271.69 215.749 272.379 216.042 273.188 216.042C273.99 216.042 274.673 215.749 275.235 215.163C275.798 214.571 276.079 213.851 276.079 213.001C276.079 212.151 275.798 211.434 275.235 210.848C274.673 210.256 273.99 209.96 273.188 209.96C272.373 209.96 271.682 210.256 271.113 210.848C270.551 211.434 270.27 212.151 270.27 213.001ZM268.811 213.001C268.811 212.409 268.919 211.853 269.136 211.331C269.353 210.804 269.669 210.335 270.085 209.925C270.501 209.515 270.973 209.204 271.5 208.993C272.027 208.776 272.59 208.668 273.188 208.668C273.773 208.668 274.327 208.776 274.849 208.993C275.376 209.21 275.854 209.526 276.281 209.942C276.697 210.347 277.014 210.812 277.23 211.34C277.447 211.861 277.556 212.415 277.556 213.001C277.556 213.587 277.447 214.141 277.23 214.662C277.014 215.178 276.697 215.638 276.281 216.042C275.854 216.464 275.373 216.786 274.84 217.009C274.312 217.231 273.762 217.343 273.188 217.343C272.596 217.343 272.033 217.231 271.5 217.009C270.973 216.792 270.501 216.479 270.085 216.068C269.669 215.646 269.353 215.178 269.136 214.662C268.919 214.146 268.811 213.593 268.811 213.001ZM278.856 215.646L280.034 214.855C280.257 215.283 280.538 215.605 280.878 215.822C281.218 216.033 281.619 216.139 282.082 216.139C282.533 216.139 282.896 216.027 283.172 215.805C283.453 215.582 283.594 215.289 283.594 214.926C283.594 214.645 283.497 214.41 283.304 214.223C283.116 214.035 282.791 213.862 282.328 213.704C282.281 213.687 282.205 213.66 282.1 213.625C280.143 212.951 279.164 212.107 279.164 211.094C279.164 210.379 279.428 209.796 279.955 209.345C280.482 208.894 281.168 208.668 282.012 208.668C282.709 208.668 283.307 208.809 283.805 209.09C284.303 209.365 284.66 209.758 284.877 210.268L283.761 210.953C283.597 210.584 283.354 210.3 283.031 210.101C282.715 209.901 282.346 209.802 281.924 209.802C281.52 209.802 281.188 209.916 280.931 210.145C280.679 210.367 280.553 210.654 280.553 211.006C280.553 211.498 281.086 211.911 282.152 212.245C282.352 212.31 282.51 212.359 282.627 212.395C283.5 212.676 284.106 212.998 284.446 213.361C284.792 213.719 284.965 214.193 284.965 214.785C284.965 215.547 284.692 216.165 284.147 216.64C283.608 217.108 282.902 217.343 282.029 217.343C281.279 217.343 280.641 217.202 280.113 216.921C279.592 216.64 279.173 216.215 278.856 215.646Z" fill="white"/>
<path d="M31.8438 41V6.6875H52.0469V12.875H39.1797V19.9297H52.0469V26.1641H39.1797V34.7656H52.0469V41H31.8438ZM59.2656 41V6.6875H66.6016V34.7656H78.3203V41H59.2656ZM125.336 15.6172C123.852 14.2891 122.328 13.3203 120.766 12.7109C119.203 12.0859 117.531 11.7734 115.75 11.7734C112.094 11.7734 109.18 12.8672 107.008 15.0547C104.836 17.2422 103.75 20.1797 103.75 23.8672C103.75 27.4766 104.758 30.3438 106.773 32.4688C108.789 34.5781 111.539 35.6328 115.023 35.6328C117.008 35.6328 118.852 35.3047 120.555 34.6484C122.258 33.9766 123.836 32.9766 125.289 31.6484L125.242 39.1719C123.68 40.0938 122.039 40.7812 120.32 41.2344C118.617 41.6875 116.82 41.9141 114.93 41.9141C109.461 41.9141 104.969 40.2188 101.453 36.8281C97.9531 33.4219 96.2031 29.1016 96.2031 23.8672C96.2031 18.6484 97.9609 14.3438 101.477 10.9531C104.992 7.5625 109.523 5.86719 115.07 5.86719C116.93 5.86719 118.727 6.0625 120.461 6.45312C122.195 6.84375 123.906 7.44531 125.594 8.25781L125.336 15.6172ZM149.922 27.9453L146.078 16.8594C145.969 16.5312 145.828 15.9688 145.656 15.1719C145.484 14.375 145.305 13.3984 145.117 12.2422C144.914 13.3516 144.719 14.3516 144.531 15.2422C144.344 16.1172 144.203 16.7031 144.109 17L140.406 27.9453H149.922ZM128.078 41L141.133 6.6875H149.523L162.766 41H154.422L151.633 33.7109H138.344L135.953 41H128.078ZM173.758 22.1797H174.812C176.812 22.1797 178.266 21.7656 179.172 20.9375C180.078 20.1094 180.531 18.7812 180.531 16.9531C180.531 15.2656 180.078 14.0391 179.172 13.2734C178.266 12.4922 176.812 12.1016 174.812 12.1016H173.758V22.1797ZM166.375 41V6.6875H174.812C179.312 6.6875 182.633 7.54688 184.773 9.26562C186.93 10.9844 188.008 13.6406 188.008 17.2344C188.008 20.5625 186.922 23.1719 184.75 25.0625C182.594 26.9531 179.602 27.8984 175.773 27.8984H173.758V41H166.375ZM193.234 41V6.6875H200.57V41H193.234ZM221.242 12.9219V41H213.883V12.9219H205.492V6.6875H229.68V12.9219H221.242ZM249.578 27.9453L245.734 16.8594C245.625 16.5312 245.484 15.9688 245.312 15.1719C245.141 14.375 244.961 13.3984 244.773 12.2422C244.57 13.3516 244.375 14.3516 244.188 15.2422C244 16.1172 243.859 16.7031 243.766 17L240.062 27.9453H249.578ZM227.734 41L240.789 6.6875H249.18L262.422 41H254.078L251.289 33.7109H238L235.609 41H227.734ZM266.031 41V6.6875H273.367V34.7656H285.086V41H266.031ZM311.852 22.1797H312.906C314.906 22.1797 316.359 21.7656 317.266 20.9375C318.172 20.1094 318.625 18.7812 318.625 16.9531C318.625 15.2656 318.172 14.0391 317.266 13.2734C316.359 12.4922 314.906 12.1016 312.906 12.1016H311.852V22.1797ZM304.469 41V6.6875H312.906C317.406 6.6875 320.727 7.54688 322.867 9.26562C325.023 10.9844 326.102 13.6406 326.102 17.2344C326.102 20.5625 325.016 23.1719 322.844 25.0625C320.688 26.9531 317.695 27.8984 313.867 27.8984H311.852V41H304.469ZM346.562 27.9453L342.719 16.8594C342.609 16.5312 342.469 15.9688 342.297 15.1719C342.125 14.375 341.945 13.3984 341.758 12.2422C341.555 13.3516 341.359 14.3516 341.172 15.2422C340.984 16.1172 340.844 16.7031 340.75 17L337.047 27.9453H346.562ZM324.719 41L337.773 6.6875H346.164L359.406 41H351.062L348.273 33.7109H334.984L332.594 41H324.719ZM387.836 41H379.375L370.352 24.9688V41H363.016V6.6875H373.516C377.688 6.6875 380.812 7.5 382.891 9.125C384.969 10.7344 386.008 13.1641 386.008 16.4141C386.008 18.7734 385.297 20.7891 383.875 22.4609C382.453 24.1328 380.617 25.1094 378.367 25.3906L387.836 41ZM370.352 21.3125H371.453C374.422 21.3125 376.383 20.9922 377.336 20.3516C378.289 19.6953 378.766 18.5625 378.766 16.9531C378.766 15.2656 378.25 14.0703 377.219 13.3672C376.203 12.6484 374.281 12.2891 371.453 12.2891H370.352V21.3125ZM409.891 27.9453L406.047 16.8594C405.938 16.5312 405.797 15.9688 405.625 15.1719C405.453 14.375 405.273 13.3984 405.086 12.2422C404.883 13.3516 404.688 14.3516 404.5 15.2422C404.312 16.1172 404.172 16.7031 404.078 17L400.375 27.9453H409.891ZM388.047 41L401.102 6.6875H409.492L422.734 41H414.391L411.602 33.7109H398.312L395.922 41H388.047ZM31.9844 89V54.6875H39.3203V89H31.9844ZM44.1953 89L49.4219 54.6875H57.1094L63.7188 74.8906C63.8594 75.3125 64.0078 75.9297 64.1641 76.7422C64.3359 77.5547 64.4922 78.4844 64.6328 79.5312C64.7578 78.4688 64.8984 77.5234 65.0547 76.6953C65.2109 75.8516 65.3594 75.2344 65.5 74.8438L72.2266 54.6875H79.7969L85.0469 89H78.0859L75.5781 68.3047C75.3906 66.7734 75.2656 65.6172 75.2031 64.8359C75.1406 64.0547 75.1094 63.3281 75.1094 62.6562C75.1094 62.2969 75.1094 62.0312 75.1094 61.8594C75.125 61.6719 75.1406 61.5078 75.1562 61.3672C74.9219 62.7109 74.6953 63.875 74.4766 64.8594C74.2734 65.8281 74.0859 66.5625 73.9141 67.0625L66.6484 89H62.5234L55.375 67.0625C55.3125 66.8594 55.1719 66.2969 54.9531 65.375C54.75 64.4531 54.4609 63.1094 54.0859 61.3438V62.3516C54.0859 63.9453 53.9453 65.8984 53.6641 68.2109L53.6406 68.3047L51.1562 89H44.1953ZM97.2109 70.1797H98.2656C100.266 70.1797 101.719 69.7656 102.625 68.9375C103.531 68.1094 103.984 66.7812 103.984 64.9531C103.984 63.2656 103.531 62.0391 102.625 61.2734C101.719 60.4922 100.266 60.1016 98.2656 60.1016H97.2109V70.1797ZM89.8281 89V54.6875H98.2656C102.766 54.6875 106.086 55.5469 108.227 57.2656C110.383 58.9844 111.461 61.6406 111.461 65.2344C111.461 68.5625 110.375 71.1719 108.203 73.0625C106.047 74.9531 103.055 75.8984 99.2266 75.8984H97.2109V89H89.8281ZM146.055 54.6875V76.0391C146.055 80.6953 144.828 84.1719 142.375 86.4688C139.922 88.7656 136.227 89.9141 131.289 89.9141C126.273 89.9141 122.539 88.7656 120.086 86.4688C117.633 84.1719 116.406 80.6953 116.406 76.0391V54.6875H123.695V74.8906C123.695 77.7188 124.32 79.8516 125.57 81.2891C126.82 82.7109 128.688 83.4219 131.172 83.4219C133.672 83.4219 135.562 82.7031 136.844 81.2656C138.125 79.8281 138.766 77.7031 138.766 74.8906V54.6875H146.055ZM153.672 89V54.6875H161.008V82.7656H172.727V89H153.672ZM175.141 84.6406L179.219 80.0234C179.734 81.2891 180.562 82.2891 181.703 83.0234C182.844 83.7422 184.125 84.1016 185.547 84.1016C187.266 84.1016 188.625 83.6953 189.625 82.8828C190.625 82.0703 191.125 80.9766 191.125 79.6016C191.125 77.9766 189.461 76.3594 186.133 74.75C185.055 74.2344 184.203 73.8125 183.578 73.4844C180.578 71.9219 178.5 70.3984 177.344 68.9141C176.188 67.4141 175.609 65.6328 175.609 63.5703C175.609 60.7422 176.727 58.4219 178.961 56.6094C181.211 54.7812 184.125 53.8672 187.703 53.8672C189.781 53.8672 191.57 54.2344 193.07 54.9688C194.586 55.6875 195.922 56.8203 197.078 58.3672L192.742 62.5156C192.227 61.5156 191.539 60.7734 190.68 60.2891C189.836 59.7891 188.812 59.5391 187.609 59.5391C186.156 59.5391 184.984 59.9062 184.094 60.6406C183.203 61.3594 182.758 62.2969 182.758 63.4531C182.758 65.2656 184.523 66.9219 188.055 68.4219C188.758 68.7188 189.297 68.9531 189.672 69.125C192.578 70.4531 194.727 71.9531 196.117 73.625C197.523 75.2969 198.227 77.2031 198.227 79.3438C198.227 82.5625 197.125 85.1328 194.922 87.0547C192.734 88.9609 189.789 89.9141 186.086 89.9141C183.461 89.9141 181.211 89.4609 179.336 88.5547C177.461 87.6484 176.062 86.3438 175.141 84.6406ZM222.016 75.9453L218.172 64.8594C218.062 64.5312 217.922 63.9688 217.75 63.1719C217.578 62.375 217.398 61.3984 217.211 60.2422C217.008 61.3516 216.812 62.3516 216.625 63.2422C216.438 64.1172 216.297 64.7031 216.203 65L212.5 75.9453H222.016ZM200.172 89L213.227 54.6875H221.617L234.859 89H226.516L223.727 81.7109H210.438L208.047 89H200.172ZM263.289 89H254.828L245.805 72.9688V89H238.469V54.6875H248.969C253.141 54.6875 256.266 55.5 258.344 57.125C260.422 58.7344 261.461 61.1641 261.461 64.4141C261.461 66.7734 260.75 68.7891 259.328 70.4609C257.906 72.1328 256.07 73.1094 253.82 73.3906L263.289 89ZM245.805 69.3125H246.906C249.875 69.3125 251.836 68.9922 252.789 68.3516C253.742 67.6953 254.219 66.5625 254.219 64.9531C254.219 63.2656 253.703 62.0703 252.672 61.3672C251.656 60.6484 249.734 60.2891 246.906 60.2891H245.805V69.3125ZM295.164 60.9219V89H287.805V60.9219H279.414V54.6875H303.602V60.9219H295.164ZM337.867 54.6875V76.0391C337.867 80.6953 336.641 84.1719 334.188 86.4688C331.734 88.7656 328.039 89.9141 323.102 89.9141C318.086 89.9141 314.352 88.7656 311.898 86.4688C309.445 84.1719 308.219 80.6953 308.219 76.0391V54.6875H315.508V74.8906C315.508 77.7188 316.133 79.8516 317.383 81.2891C318.633 82.7109 320.5 83.4219 322.984 83.4219C325.484 83.4219 327.375 82.7031 328.656 81.2656C329.938 79.8281 330.578 77.7031 330.578 74.8906V54.6875H337.867ZM31.8438 137V102.688H39.4609L54.6484 122.656C55.0859 123.219 55.5625 124.016 56.0781 125.047C56.6094 126.062 57.1562 127.266 57.7188 128.656C57.5469 127.641 57.4219 126.633 57.3438 125.633C57.2656 124.633 57.2266 123.383 57.2266 121.883V102.688H64.2344V137H57.0391L41.4297 116.656C40.9922 116.094 40.5156 115.305 40 114.289C39.4844 113.258 38.9375 112.031 38.3594 110.609C38.5312 111.594 38.6562 112.594 38.7344 113.609C38.8125 114.609 38.8516 115.875 38.8516 117.406V137H31.8438ZM71.875 137V102.688H92.0781V108.875H79.2109V115.93H92.0781V122.164H79.2109V130.766H92.0781V137H71.875ZM116.336 118.906H131.969C132 119.109 132.016 119.328 132.016 119.562C132.031 119.797 132.039 120.156 132.039 120.641C132.039 125.781 130.57 129.945 127.633 133.133C124.695 136.32 120.898 137.914 116.242 137.914C110.914 137.914 106.523 136.219 103.07 132.828C99.6172 129.422 97.8906 125.102 97.8906 119.867C97.8906 114.68 99.625 110.391 103.094 107C106.562 103.609 110.945 101.914 116.242 101.914C119.039 101.914 121.602 102.5 123.93 103.672C126.258 104.844 128.336 106.594 130.164 108.922L125.219 112.578C123.984 111.047 122.688 109.945 121.328 109.273C119.969 108.586 118.398 108.242 116.617 108.242C113.227 108.242 110.516 109.297 108.484 111.406C106.453 113.516 105.438 116.336 105.438 119.867C105.438 123.336 106.453 126.141 108.484 128.281C110.531 130.406 113.195 131.469 116.477 131.469C118.883 131.469 120.836 130.906 122.336 129.781C123.836 128.641 124.586 127.156 124.586 125.328V124.953H116.336V118.906ZM173.008 119.914C173.008 122.367 172.547 124.688 171.625 126.875C170.719 129.062 169.406 130.984 167.688 132.641C165.906 134.344 163.898 135.648 161.664 136.555C159.43 137.461 157.117 137.914 154.727 137.914C152.633 137.914 150.578 137.562 148.562 136.859C146.562 136.141 144.727 135.117 143.055 133.789C140.898 132.07 139.242 130.016 138.086 127.625C136.945 125.234 136.375 122.664 136.375 119.914C136.375 117.445 136.828 115.133 137.734 112.977C138.641 110.805 139.969 108.875 141.719 107.188C143.438 105.516 145.43 104.219 147.695 103.297C149.977 102.375 152.32 101.914 154.727 101.914C157.117 101.914 159.438 102.375 161.688 103.297C163.953 104.219 165.953 105.516 167.688 107.188C169.422 108.875 170.742 110.805 171.648 112.977C172.555 115.148 173.008 117.461 173.008 119.914ZM154.727 131.375C157.836 131.375 160.398 130.289 162.414 128.117C164.445 125.93 165.461 123.195 165.461 119.914C165.461 116.664 164.438 113.93 162.391 111.711C160.344 109.492 157.789 108.383 154.727 108.383C151.617 108.383 149.039 109.492 146.992 111.711C144.945 113.914 143.922 116.648 143.922 119.914C143.922 123.227 144.93 125.969 146.945 128.141C148.961 130.297 151.555 131.375 154.727 131.375ZM206.852 111.617C205.367 110.289 203.844 109.32 202.281 108.711C200.719 108.086 199.047 107.773 197.266 107.773C193.609 107.773 190.695 108.867 188.523 111.055C186.352 113.242 185.266 116.18 185.266 119.867C185.266 123.477 186.273 126.344 188.289 128.469C190.305 130.578 193.055 131.633 196.539 131.633C198.523 131.633 200.367 131.305 202.07 130.648C203.773 129.977 205.352 128.977 206.805 127.648L206.758 135.172C205.195 136.094 203.555 136.781 201.836 137.234C200.133 137.688 198.336 137.914 196.445 137.914C190.977 137.914 186.484 136.219 182.969 132.828C179.469 129.422 177.719 125.102 177.719 119.867C177.719 114.648 179.477 110.344 182.992 106.953C186.508 103.562 191.039 101.867 196.586 101.867C198.445 101.867 200.242 102.062 201.977 102.453C203.711 102.844 205.422 103.445 207.109 104.258L206.852 111.617ZM213.812 137V102.688H221.148V137H213.812ZM264.133 119.914C264.133 122.367 263.672 124.688 262.75 126.875C261.844 129.062 260.531 130.984 258.812 132.641C257.031 134.344 255.023 135.648 252.789 136.555C250.555 137.461 248.242 137.914 245.852 137.914C243.758 137.914 241.703 137.562 239.688 136.859C237.688 136.141 235.852 135.117 234.18 133.789C232.023 132.07 230.367 130.016 229.211 127.625C228.07 125.234 227.5 122.664 227.5 119.914C227.5 117.445 227.953 115.133 228.859 112.977C229.766 110.805 231.094 108.875 232.844 107.188C234.562 105.516 236.555 104.219 238.82 103.297C241.102 102.375 243.445 101.914 245.852 101.914C248.242 101.914 250.562 102.375 252.812 103.297C255.078 104.219 257.078 105.516 258.812 107.188C260.547 108.875 261.867 110.805 262.773 112.977C263.68 115.148 264.133 117.461 264.133 119.914ZM245.852 131.375C248.961 131.375 251.523 130.289 253.539 128.117C255.57 125.93 256.586 123.195 256.586 119.914C256.586 116.664 255.562 113.93 253.516 111.711C251.469 109.492 248.914 108.383 245.852 108.383C242.742 108.383 240.164 109.492 238.117 111.711C236.07 113.914 235.047 116.648 235.047 119.914C235.047 123.227 236.055 125.969 238.07 128.141C240.086 130.297 242.68 131.375 245.852 131.375Z" fill="white"/>
</svg>
