<svg width="1030" height="266" viewBox="0 0 1030 266" fill="none" xmlns="http://www.w3.org/2000/svg">
<path d="M58.223 8.02865H47.3108V64H73.6634V54.4982H58.223V8.02865ZM112.698 52.197L117.004 64H128.658L107.428 6.544H98.9651L77.1407 64H88.6467L93.2492 52.197H112.698ZM109.655 43.2891H96.3669L102.528 22.9494H102.677L109.655 43.2891ZM173.631 39.6517H175.413C180.906 39.6517 186.845 39.9487 186.845 47.2234C186.845 54.4982 181.797 55.2406 175.933 55.2406H173.631V39.6517ZM162.719 64H179.867C190.037 64 197.757 59.1007 197.757 48.1142C197.757 41.9529 194.788 35.272 188.181 34.0843C191.67 31.8573 193.08 27.2549 193.08 23.2463C193.08 12.1114 186.696 8.02865 176.304 8.02865H162.719V64ZM173.631 16.7881H175.042C179.644 16.7881 182.91 18.2727 182.91 23.9886C182.91 29.7788 180.312 31.3377 174.968 31.3377H173.631V16.7881ZM239.27 52.197L243.576 64H255.23L234 6.544H225.537L203.713 64H215.219L219.821 52.197H239.27ZM236.227 43.2891H222.939L229.101 22.9494H229.249L236.227 43.2891ZM263.194 64H274.106V25.9929H274.255L303.725 65.1135H311.594V8.02865H300.682V45.6646H300.533L271.063 6.544H263.194V64ZM361.574 9.81023C357.788 7.73172 353.482 6.544 349.103 6.544C332.697 6.544 321.488 20.574 321.488 36.4597C321.488 51.9001 333.143 65.4847 348.88 65.4847C353.408 65.4847 357.491 64.0742 361.574 62.1442V49.1535C358.53 52.6424 353.854 55.0921 349.177 55.0921C339.007 55.0921 332.772 45.6646 332.772 36.237C332.772 26.5868 338.784 16.9366 349.251 16.9366C353.928 16.9366 358.53 19.1635 361.574 22.8752V9.81023ZM404.264 52.197L408.569 64H420.224L398.993 6.544H390.531L368.706 64H380.213L384.815 52.197H404.264ZM401.22 43.2891H387.933L394.094 22.9494H394.242L401.22 43.2891ZM508.029 65.262L500.383 56.2056C504.689 50.6381 506.99 43.5118 506.99 35.9401C506.99 20.277 495.633 6.544 479.301 6.544C462.97 6.544 451.613 20.277 451.613 35.9401C451.613 51.9743 462.97 65.4847 479.301 65.4847C484.423 65.4847 489.397 64.2227 493.183 61.6988L497.043 66.3754L508.029 65.262ZM487.244 41.5818L475.961 42.4726L485.166 53.0878C483.681 54.0528 481.306 54.9436 479.301 54.9436C468.612 54.9436 462.896 45.8873 462.896 36.6082C462.896 26.958 468.686 16.9366 479.301 16.9366C489.1 16.9366 495.707 26.5868 495.707 35.6432C495.707 39.5033 494.668 44.1799 492.218 47.2234L487.244 41.5818ZM516.694 41.5075C516.694 55.1663 522.484 65.4847 537.479 65.4847C552.474 65.4847 558.265 55.1663 558.265 41.5075V8.02865H547.352V39.3548C547.352 46.2584 546.758 55.9829 537.479 55.9829C528.2 55.9829 527.606 46.2584 527.606 39.3548V8.02865H516.694V41.5075ZM599.587 17.5304V8.02865H570.636V64H599.587V54.4982H581.548V39.3548H598.918V29.853H581.548V17.5304H599.587ZM655.806 17.5304H667.089V8.02865H633.611V17.5304H644.894V64H655.806V17.5304ZM675.453 41.5075C675.453 55.1663 681.244 65.4847 696.239 65.4847C711.233 65.4847 717.024 55.1663 717.024 41.5075V8.02865H706.111V39.3548C706.111 46.2584 705.518 55.9829 696.239 55.9829C686.959 55.9829 686.366 46.2584 686.366 39.3548V8.02865H675.453V41.5075ZM76.2615 91.5304V82.0286H47.3108V138H76.2615V128.498H58.223V113.355H75.5934V103.853H58.223V91.5304H76.2615ZM134.444 138H145.43L137.042 80.544H129.173L115.96 117.438L102.152 80.544H94.4322L85.0047 138H95.9911L100.965 103.259H101.113L113.362 138.742H117.147L129.841 103.259H129.99L134.444 138ZM165.802 117.066H171.221C182.653 117.066 189.111 111.276 189.111 99.3991C189.111 86.7053 181.465 82.0286 169.737 82.0286H154.89V138H165.802V117.066ZM165.802 91.085H167.732C173.819 91.085 177.976 92.1243 177.976 99.3248C177.976 106.6 174.487 108.01 168.029 108.01H165.802V91.085ZM220.795 114.394C228.293 113.132 232.227 106.006 232.227 98.8794C232.227 86.928 224.581 82.0286 213.52 82.0286H198.748V138H209.66V115.433H209.809L223.393 138H236.607L220.795 114.394ZM209.66 90.9366H211.145C216.935 90.9366 221.315 92.2727 221.315 99.1764C221.315 106.006 217.084 107.787 211.071 107.787H209.66V90.9366ZM273.732 91.5304V82.0286H244.781V138H273.732V128.498H255.693V113.355H273.064V103.853H255.693V91.5304H273.732ZM317.142 86.7795C313.727 82.9937 306.823 80.544 301.85 80.544C292.422 80.544 285.518 88.0415 285.518 97.3206C285.518 106.006 290.789 109.643 297.99 112.612C302.369 114.32 307.714 115.953 307.714 121.743C307.714 126.049 304.967 129.834 300.513 129.834C295.837 129.834 291.902 125.974 290.418 121.669L283.366 128.572C287.226 135.031 292.867 139.485 300.588 139.485C312.019 139.485 318.997 131.542 318.997 120.333C318.997 101.552 296.802 105.486 296.802 96.0586C296.802 92.4212 300.142 89.7488 303.631 89.7488C307.269 89.7488 309.941 91.5304 312.019 94.3513L317.142 86.7795ZM360.261 126.197L364.566 138H376.221L354.99 80.544H346.528L324.703 138H336.209L340.812 126.197H360.261ZM357.217 117.289H343.93L350.091 96.9494H350.239L357.217 117.289ZM410.282 138H421.194V99.9929H421.343L450.813 139.113H458.682V82.0286H447.769V119.665H447.621L418.151 80.544H410.282V138ZM500.199 91.5304V82.0286H471.248V138H500.199V128.498H482.16V113.355H499.531V103.853H482.16V91.5304H500.199ZM549.547 83.8102C545.762 81.7317 541.456 80.544 537.076 80.544C520.671 80.544 509.462 94.574 509.462 110.46C509.462 125.9 521.116 139.485 536.854 139.485C541.382 139.485 545.465 138.074 549.547 136.144V123.153C546.504 126.642 541.827 129.092 537.151 129.092C526.981 129.092 520.745 119.665 520.745 110.237C520.745 100.587 526.758 90.9366 537.225 90.9366C541.901 90.9366 546.504 93.1635 549.547 96.8752V83.8102ZM590.307 91.5304V82.0286H561.357V138H590.307V128.498H572.269V113.355H589.639V103.853H572.269V91.5304H590.307ZM633.717 86.7795C630.303 82.9937 623.399 80.544 618.425 80.544C608.998 80.544 602.094 88.0415 602.094 97.3206C602.094 106.006 607.365 109.643 614.565 112.612C618.945 114.32 624.29 115.953 624.29 121.743C624.29 126.049 621.543 129.834 617.089 129.834C612.413 129.834 608.478 125.974 606.994 121.669L599.941 128.572C603.802 135.031 609.443 139.485 617.163 139.485C628.595 139.485 635.573 131.542 635.573 120.333C635.573 101.552 613.378 105.486 613.378 96.0586C613.378 92.4212 616.718 89.7488 620.207 89.7488C623.844 89.7488 626.517 91.5304 628.595 94.3513L633.717 86.7795ZM656.868 82.0286H645.956V138H656.868V82.0286ZM687.63 91.5304H698.914V82.0286H665.435V91.5304H676.718V138H687.63V91.5304ZM732.511 126.197L736.816 138H748.471L727.24 80.544H718.778L696.954 138H708.46L713.062 126.197H732.511ZM729.467 117.289H716.18L722.341 96.9494H722.49L729.467 117.289Z" fill="white"/>
<path d="M41.7559 204.14H23.1978C16.3649 204.14 10.8257 198.6 10.8257 191.767V21.6512" stroke="white" stroke-width="2.31977"/>
<path d="M19.52 10.9468C19.52 16.4152 15.3485 20.7338 10.3399 20.7338C5.33138 20.7338 1.15988 16.4152 1.15988 10.9468C1.15988 5.47843 5.33138 1.15988 10.3399 1.15988C15.3485 1.15988 19.52 5.47843 19.52 10.9468Z" stroke="white" stroke-width="2.31977"/>
<rect x="38.6628" y="170.116" width="528.907" height="95.8837" rx="24.7442" fill="#002A61"/>
<path d="M70.4386 227.047V207.147H74.5843C76.0432 207.147 77.117 207.224 77.8057 207.378C78.5035 207.523 79.1015 207.777 79.5999 208.139C80.2342 208.611 80.7236 209.218 81.0679 209.961C81.4213 210.695 81.598 211.501 81.598 212.38C81.598 213.431 81.3443 214.31 80.8368 215.017C80.3384 215.724 79.609 216.218 78.6484 216.499C79.8265 216.68 80.7553 217.21 81.4349 218.089C82.1236 218.959 82.4679 220.06 82.4679 221.392C82.4679 222.189 82.3229 222.951 82.033 223.676C81.743 224.401 81.3397 225.021 80.8232 225.538C80.2614 226.091 79.5682 226.48 78.7436 226.707C77.919 226.933 76.5326 227.047 74.5843 227.047H70.4386ZM72.7494 217.722V224.98H74.5843C75.8439 224.98 76.75 224.931 77.3028 224.831C77.8646 224.731 78.3132 224.559 78.6484 224.314C79.0562 224.024 79.3779 223.621 79.6135 223.105C79.8491 222.588 79.9669 222.017 79.9669 221.392C79.9669 220.667 79.8265 220.037 79.5455 219.503C79.2646 218.968 78.8569 218.551 78.3222 218.252C78.0051 218.062 77.6381 217.926 77.2212 217.844C76.8044 217.763 76.1565 217.722 75.2775 217.722H74.5843H72.7494ZM72.7494 209.2V215.86H74.5843C76.2698 215.86 77.4568 215.615 78.1455 215.126C78.8342 214.637 79.1786 213.812 79.1786 212.652C79.1786 211.374 78.8569 210.482 78.2135 209.974C77.5792 209.458 76.3695 209.2 74.5843 209.2H72.7494ZM85.9068 227.047V214.609H87.7961V217.192C88.367 216.114 88.9741 215.343 89.6175 214.881C90.2609 214.419 91.0447 214.188 91.969 214.188C92.2227 214.188 92.4674 214.211 92.703 214.256C92.9386 214.292 93.1742 214.351 93.4098 214.433L92.703 216.349C92.4583 216.268 92.2272 216.209 92.0098 216.173C91.7923 216.127 91.5839 216.105 91.3845 216.105C90.2609 216.105 89.4182 216.512 88.8563 217.328C88.2945 218.134 88.0136 219.353 88.0136 220.984V227.047H85.9068ZM95.2719 208.615C95.2719 208.189 95.4215 207.827 95.7205 207.528C96.0286 207.22 96.4001 207.066 96.8351 207.066C97.261 207.066 97.6234 207.22 97.9225 207.528C98.2305 207.836 98.3846 208.207 98.3846 208.642C98.3846 209.068 98.2351 209.431 97.936 209.73C97.637 210.029 97.27 210.178 96.8351 210.178C96.4001 210.178 96.0286 210.029 95.7205 209.73C95.4215 209.431 95.2719 209.059 95.2719 208.615ZM95.7749 227.047V214.609H97.9225V227.047H95.7749ZM102.408 227.047V214.609H104.488V216.526C105.022 215.729 105.666 215.135 106.418 214.745C107.17 214.356 108.04 214.161 109.027 214.161C110.495 214.161 111.642 214.551 112.466 215.33C113.291 216.109 113.703 217.192 113.703 218.578V227.047H111.528V219.72C111.528 218.461 111.261 217.527 110.726 216.92C110.201 216.304 109.385 215.996 108.28 215.996C107.646 215.996 107.066 216.114 106.54 216.349C106.024 216.576 105.593 216.902 105.249 217.328C104.986 217.654 104.796 218.026 104.678 218.443C104.569 218.859 104.515 219.584 104.515 220.617V227.047H102.408ZM127.445 220.889C127.445 219.503 127.06 218.388 126.29 217.545C125.52 216.694 124.505 216.268 123.245 216.268C121.986 216.268 121.002 216.653 120.296 217.423C119.589 218.193 119.235 219.258 119.235 220.617C119.235 222.149 119.593 223.349 120.309 224.219C121.025 225.08 122.013 225.511 123.272 225.511C124.577 225.511 125.597 225.103 126.331 224.287C127.074 223.472 127.445 222.339 127.445 220.889ZM129.511 205.978V227.047H127.445V224.79C126.956 225.687 126.321 226.376 125.542 226.856C124.763 227.336 123.893 227.577 122.932 227.577C121.147 227.577 119.707 226.965 118.61 225.742C117.523 224.509 116.979 222.883 116.979 220.862C116.979 218.823 117.514 217.197 118.583 215.982C119.652 214.768 121.075 214.161 122.851 214.161C123.884 214.161 124.781 214.397 125.542 214.868C126.303 215.33 126.92 216.023 127.391 216.947V205.978H129.511ZM143.375 220.944C143.375 219.539 142.99 218.411 142.22 217.559C141.459 216.698 140.462 216.268 139.23 216.268C137.952 216.268 136.955 216.662 136.239 217.45C135.524 218.239 135.166 219.34 135.166 220.753C135.166 222.257 135.524 223.417 136.239 224.233C136.964 225.048 137.988 225.456 139.311 225.456C140.58 225.456 141.572 225.062 142.288 224.274C143.013 223.476 143.375 222.366 143.375 220.944ZM145.441 214.609V227.047H143.375V224.79C142.877 225.696 142.238 226.39 141.459 226.87C140.689 227.341 139.823 227.577 138.863 227.577C137.078 227.577 135.637 226.965 134.54 225.742C133.453 224.509 132.909 222.883 132.909 220.862C132.909 218.814 133.439 217.187 134.5 215.982C135.56 214.768 136.978 214.161 138.754 214.161C139.796 214.161 140.698 214.397 141.459 214.868C142.229 215.33 142.85 216.023 143.321 216.947V214.609H145.441ZM167.026 227.047V219.72C167.026 218.461 166.772 217.527 166.265 216.92C165.758 216.304 164.978 215.996 163.927 215.996C163.356 215.996 162.826 216.114 162.337 216.349C161.857 216.576 161.449 216.902 161.113 217.328C160.869 217.654 160.692 218.035 160.583 218.47C160.475 218.905 160.42 219.621 160.42 220.617V227.047H158.368V219.72C158.368 218.461 158.114 217.527 157.607 216.92C157.099 216.304 156.32 215.996 155.269 215.996C154.698 215.996 154.163 216.114 153.665 216.349C153.176 216.576 152.763 216.902 152.428 217.328C152.192 217.645 152.02 218.012 151.911 218.429C151.812 218.846 151.762 219.575 151.762 220.617V227.047H149.709V214.609H151.789V216.526C152.306 215.729 152.922 215.135 153.638 214.745C154.354 214.356 155.178 214.161 156.111 214.161C157.117 214.161 157.974 214.378 158.68 214.813C159.387 215.239 159.922 215.865 160.284 216.689C160.819 215.837 161.449 215.203 162.174 214.786C162.908 214.369 163.755 214.161 164.715 214.161C166.102 214.161 167.185 214.551 167.964 215.33C168.743 216.109 169.133 217.192 169.133 218.578V227.047H167.026ZM174.584 220.862C174.584 222.176 175.023 223.29 175.902 224.206C176.781 225.112 177.846 225.565 179.096 225.565C180.338 225.565 181.393 225.112 182.263 224.206C183.133 223.29 183.568 222.176 183.568 220.862C183.568 219.548 183.133 218.438 182.263 217.532C181.393 216.617 180.338 216.159 179.096 216.159C177.837 216.159 176.767 216.617 175.888 217.532C175.018 218.438 174.584 219.548 174.584 220.862ZM172.327 220.862C172.327 219.947 172.495 219.086 172.83 218.279C173.165 217.464 173.655 216.739 174.298 216.105C174.941 215.47 175.671 214.99 176.486 214.664C177.302 214.329 178.172 214.161 179.096 214.161C180.002 214.161 180.859 214.329 181.665 214.664C182.481 214.999 183.219 215.488 183.881 216.132C184.524 216.757 185.013 217.477 185.349 218.293C185.684 219.099 185.852 219.956 185.852 220.862C185.852 221.768 185.684 222.624 185.349 223.431C185.013 224.228 184.524 224.94 183.881 225.565C183.219 226.217 182.476 226.716 181.652 227.06C180.836 227.404 179.984 227.577 179.096 227.577C178.181 227.577 177.311 227.404 176.486 227.06C175.671 226.725 174.941 226.24 174.298 225.606C173.655 224.953 173.165 224.228 172.83 223.431C172.495 222.634 172.327 221.777 172.327 220.862ZM187.863 224.953L189.685 223.73C190.029 224.391 190.464 224.89 190.99 225.225C191.515 225.551 192.136 225.714 192.852 225.714C193.549 225.714 194.111 225.542 194.537 225.198C194.972 224.854 195.19 224.401 195.19 223.839C195.19 223.404 195.04 223.041 194.741 222.751C194.451 222.461 193.948 222.194 193.232 221.949C193.16 221.922 193.042 221.881 192.879 221.827C189.852 220.785 188.339 219.48 188.339 217.912C188.339 216.807 188.747 215.905 189.562 215.208C190.378 214.51 191.438 214.161 192.743 214.161C193.821 214.161 194.746 214.378 195.516 214.813C196.286 215.239 196.839 215.846 197.174 216.635L195.448 217.695C195.194 217.124 194.818 216.685 194.32 216.376C193.83 216.068 193.259 215.914 192.607 215.914C191.982 215.914 191.47 216.091 191.071 216.444C190.681 216.789 190.487 217.233 190.487 217.777C190.487 218.538 191.311 219.177 192.96 219.693C193.269 219.793 193.513 219.87 193.694 219.924C195.045 220.359 195.982 220.857 196.508 221.419C197.043 221.972 197.31 222.706 197.31 223.621C197.31 224.799 196.889 225.755 196.046 226.489C195.212 227.214 194.12 227.577 192.77 227.577C191.61 227.577 190.623 227.359 189.807 226.924C189.001 226.489 188.353 225.832 187.863 224.953ZM207.056 225.905L208.062 222.208C208.768 222.833 209.548 223.304 210.399 223.621C211.242 223.957 212.094 224.124 212.955 224.124C213.571 224.124 214.033 224.02 214.341 223.812C214.658 223.621 214.817 223.345 214.817 222.982C214.817 222.375 214.178 221.922 212.9 221.623C212.456 221.523 212.121 221.437 211.895 221.365C210.418 220.93 209.371 220.4 208.755 219.775C208.084 219.131 207.749 218.298 207.749 217.274C207.749 215.951 208.252 214.886 209.258 214.079C210.227 213.282 211.582 212.883 213.322 212.883C214.165 212.883 215.062 212.983 216.013 213.182C216.811 213.345 217.739 213.663 218.8 214.134L217.794 217.464C217.141 217.02 216.484 216.689 215.823 216.472C215.198 216.245 214.541 216.132 213.852 216.132C213.29 216.132 212.869 216.218 212.588 216.39C212.316 216.553 212.18 216.802 212.18 217.138C212.18 217.609 212.819 218.017 214.097 218.361C214.513 218.488 214.726 218.551 214.735 218.551C216.403 219.022 217.572 219.58 218.242 220.223C218.895 220.903 219.221 221.786 219.221 222.874C219.221 224.278 218.682 225.411 217.603 226.272C216.498 227.142 215.071 227.577 213.322 227.577C212.108 227.577 210.988 227.436 209.964 227.155C208.95 226.883 207.98 226.467 207.056 225.905ZM231.563 220.223C231.563 219.199 231.305 218.393 230.788 217.804C230.253 217.215 229.556 216.92 228.695 216.92C227.807 216.92 227.109 217.215 226.602 217.804C226.085 218.375 225.827 219.181 225.827 220.223C225.827 221.238 226.076 222.035 226.574 222.615C227.118 223.213 227.825 223.512 228.695 223.512C229.565 223.512 230.272 223.213 230.815 222.615C231.314 222.017 231.563 221.22 231.563 220.223ZM236.375 220.223C236.375 221.229 236.18 222.167 235.79 223.037C235.382 223.961 234.825 224.758 234.118 225.429C233.321 226.172 232.496 226.711 231.644 227.047C230.756 227.4 229.773 227.577 228.695 227.577C227.607 227.577 226.624 227.4 225.745 227.047C224.848 226.693 224.019 226.158 223.258 225.443C222.506 224.718 221.962 223.916 221.627 223.037C221.237 222.194 221.042 221.256 221.042 220.223C221.042 219.217 221.237 218.27 221.627 217.382C221.989 216.485 222.537 215.688 223.271 214.99C223.987 214.301 224.812 213.771 225.745 213.4C226.633 213.055 227.616 212.883 228.695 212.883C229.764 212.883 230.747 213.055 231.644 213.4C232.578 213.771 233.402 214.301 234.118 214.99C234.87 215.67 235.428 216.467 235.79 217.382C236.18 218.27 236.375 219.217 236.375 220.223ZM239.297 227.047V205.978H244.149V227.047H239.297ZM261.942 213.318V220.332C261.942 221.9 261.824 223.041 261.588 223.757C261.335 224.5 260.909 225.171 260.311 225.769C259.74 226.367 258.988 226.82 258.054 227.128C257.166 227.427 256.097 227.577 254.847 227.577C253.605 227.577 252.549 227.427 251.68 227.128C250.782 226.838 250.012 226.385 249.369 225.769C248.78 225.207 248.363 224.546 248.118 223.784C247.874 223.078 247.751 221.927 247.751 220.332V213.318H252.373V220.644C252.373 221.795 252.568 222.62 252.957 223.118C253.311 223.644 253.922 223.907 254.792 223.907C255.653 223.907 256.269 223.653 256.641 223.145C257.021 222.638 257.212 221.804 257.212 220.644V213.318H261.942ZM275.276 217.831C274.805 217.414 274.352 217.11 273.917 216.92C273.527 216.73 273.069 216.635 272.544 216.635C271.574 216.635 270.813 216.952 270.26 217.586C269.689 218.211 269.404 219.072 269.404 220.169C269.404 221.22 269.699 222.054 270.288 222.67C270.858 223.304 271.651 223.621 272.666 223.621C273.146 223.621 273.609 223.522 274.053 223.322C274.524 223.096 274.932 222.797 275.276 222.425V226.625C274.696 226.933 274.112 227.178 273.523 227.359C272.897 227.504 272.304 227.577 271.742 227.577C269.621 227.577 267.913 226.897 266.618 225.538C266.174 225.085 265.807 224.586 265.517 224.043C265.236 223.499 265.018 222.91 264.864 222.276C264.719 221.641 264.647 220.948 264.647 220.196C264.647 218.03 265.308 216.272 266.631 214.922C267.963 213.563 269.685 212.883 271.796 212.883C272.458 212.883 273.088 212.956 273.686 213.101C274.266 213.246 274.796 213.459 275.276 213.74V217.831ZM278.144 227.047V213.318H282.983V227.047H278.144ZM278.756 209.784H278.783C278.783 209.277 278.959 208.86 279.313 208.534C279.666 208.18 280.092 208.004 280.591 208.004C281.116 208.004 281.547 208.171 281.882 208.506C282.226 208.842 282.398 209.268 282.398 209.784C282.398 210.31 282.222 210.745 281.868 211.089C281.524 211.442 281.098 211.619 280.591 211.619C280.074 211.619 279.639 211.433 279.286 211.062C278.932 210.718 278.756 210.292 278.756 209.784ZM296.698 220.223C296.698 219.199 296.439 218.393 295.923 217.804C295.388 217.215 294.69 216.92 293.83 216.92C292.942 216.92 292.244 217.215 291.736 217.804C291.22 218.375 290.962 219.181 290.962 220.223C290.962 221.238 291.211 222.035 291.709 222.615C292.253 223.213 292.96 223.512 293.83 223.512C294.699 223.512 295.406 223.213 295.95 222.615C296.448 222.017 296.698 221.22 296.698 220.223ZM301.509 220.223C301.509 221.229 301.314 222.167 300.925 223.037C300.517 223.961 299.96 224.758 299.253 225.429C298.455 226.172 297.631 226.711 296.779 227.047C295.891 227.4 294.908 227.577 293.83 227.577C292.742 227.577 291.759 227.4 290.88 227.047C289.983 226.693 289.154 226.158 288.393 225.443C287.64 224.718 287.097 223.916 286.761 223.037C286.372 222.194 286.177 221.256 286.177 220.223C286.177 219.217 286.372 218.27 286.761 217.382C287.124 216.485 287.672 215.688 288.406 214.99C289.122 214.301 289.947 213.771 290.88 213.4C291.768 213.055 292.751 212.883 293.83 212.883C294.899 212.883 295.882 213.055 296.779 213.4C297.712 213.771 298.537 214.301 299.253 214.99C300.005 215.67 300.562 216.467 300.925 217.382C301.314 218.27 301.509 219.217 301.509 220.223ZM304.296 227.047V213.318H308.727V216.105C309.352 215.017 310.095 214.202 310.956 213.658C311.79 213.141 312.8 212.883 313.987 212.883C314.884 212.883 315.682 213.019 316.379 213.291C317.068 213.599 317.625 214.016 318.051 214.542C318.441 215.067 318.699 215.624 318.826 216.213C318.98 216.965 319.057 217.958 319.057 219.19V227.047H314.205V219.693C314.205 218.578 314.028 217.781 313.674 217.301C313.321 216.802 312.746 216.553 311.948 216.553C310.951 216.553 310.217 216.925 309.746 217.668C309.284 218.411 309.053 219.616 309.053 221.283V227.047H304.296ZM331.943 218.415C331.861 217.654 331.567 217.033 331.059 216.553C330.552 216.073 329.931 215.833 329.197 215.833C328.427 215.833 327.801 216.046 327.321 216.472C326.823 216.952 326.51 217.6 326.383 218.415H331.943ZM336.714 221.147H326.275C326.302 222.217 326.569 223.032 327.077 223.594C327.602 224.174 328.363 224.464 329.36 224.464C330.085 224.464 330.706 224.324 331.222 224.043C331.748 223.744 332.128 223.336 332.364 222.819L336.007 224.287C335.581 225.329 334.811 226.136 333.696 226.707C332.59 227.287 331.236 227.577 329.632 227.577C327.24 227.577 325.319 226.906 323.869 225.565C322.428 224.26 321.708 222.516 321.708 220.332C321.708 218.202 322.428 216.422 323.869 214.99C325.31 213.586 327.14 212.883 329.36 212.883C331.625 212.883 333.415 213.595 334.729 215.017C335.4 215.751 335.898 216.608 336.224 217.586C336.55 218.556 336.714 219.666 336.714 220.916V221.147ZM338.222 225.905L339.228 222.208C339.935 222.833 340.714 223.304 341.566 223.621C342.409 223.957 343.261 224.124 344.121 224.124C344.738 224.124 345.2 224.02 345.508 223.812C345.825 223.621 345.984 223.345 345.984 222.982C345.984 222.375 345.345 221.922 344.067 221.623C343.623 221.523 343.288 221.437 343.061 221.365C341.584 220.93 340.538 220.4 339.921 219.775C339.251 219.131 338.915 218.298 338.915 217.274C338.915 215.951 339.418 214.886 340.424 214.079C341.394 213.282 342.749 212.883 344.488 212.883C345.331 212.883 346.228 212.983 347.18 213.182C347.977 213.345 348.906 213.663 349.966 214.134L348.96 217.464C348.308 217.02 347.651 216.689 346.989 216.472C346.364 216.245 345.707 216.132 345.018 216.132C344.457 216.132 344.035 216.218 343.754 216.39C343.483 216.553 343.347 216.802 343.347 217.138C343.347 217.609 343.985 218.017 345.263 218.361C345.68 218.488 345.893 218.551 345.902 218.551C347.569 219.022 348.738 219.58 349.409 220.223C350.061 220.903 350.387 221.786 350.387 222.874C350.387 224.278 349.848 225.411 348.77 226.272C347.664 227.142 346.237 227.577 344.488 227.577C343.274 227.577 342.155 227.436 341.131 227.155C340.116 226.883 339.147 226.467 338.222 225.905ZM371.102 220.944C371.102 219.539 370.717 218.411 369.947 217.559C369.186 216.698 368.189 216.268 366.957 216.268C365.679 216.268 364.682 216.662 363.966 217.45C363.25 218.239 362.892 219.34 362.892 220.753C362.892 222.257 363.25 223.417 363.966 224.233C364.691 225.048 365.715 225.456 367.038 225.456C368.307 225.456 369.299 225.062 370.015 224.274C370.74 223.476 371.102 222.366 371.102 220.944ZM373.168 214.609V227.047H371.102V224.79C370.604 225.696 369.965 226.39 369.186 226.87C368.416 227.341 367.55 227.577 366.59 227.577C364.804 227.577 363.364 226.965 362.267 225.742C361.18 224.509 360.636 222.883 360.636 220.862C360.636 218.814 361.166 217.187 362.226 215.982C363.287 214.768 364.705 214.161 366.481 214.161C367.523 214.161 368.425 214.397 369.186 214.868C369.956 215.33 370.577 216.023 371.048 216.947V214.609H373.168ZM385.972 216.363H383.689V214.609H385.972V209.594H388.147V214.609H390.431V216.363H388.147V227.047H385.972V216.363ZM394.848 214.609V220.726C394.848 222.511 395.111 223.762 395.637 224.478C396.171 225.184 397.068 225.538 398.328 225.538C399.587 225.538 400.475 225.189 400.992 224.491C401.517 223.784 401.78 222.529 401.78 220.726V214.609H403.955V221.868C403.955 223.744 403.475 225.166 402.514 226.136C401.554 227.096 400.14 227.577 398.273 227.577C396.425 227.577 395.02 227.092 394.06 226.122C393.099 225.153 392.619 223.734 392.619 221.868V214.609H394.848ZM425.349 218.415C425.268 217.654 424.973 217.033 424.466 216.553C423.959 216.073 423.338 215.833 422.604 215.833C421.834 215.833 421.208 216.046 420.728 216.472C420.23 216.952 419.917 217.6 419.79 218.415H425.349ZM430.12 221.147H419.681C419.709 222.217 419.976 223.032 420.483 223.594C421.009 224.174 421.77 224.464 422.767 224.464C423.492 224.464 424.113 224.324 424.629 224.043C425.155 223.744 425.535 223.336 425.771 222.819L429.414 224.287C428.988 225.329 428.217 226.136 427.103 226.707C425.997 227.287 424.643 227.577 423.039 227.577C420.647 227.577 418.725 226.906 417.276 225.565C415.835 224.26 415.114 222.516 415.114 220.332C415.114 218.202 415.835 216.422 417.276 214.99C418.716 213.586 420.547 212.883 422.767 212.883C425.032 212.883 426.822 213.595 428.136 215.017C428.806 215.751 429.305 216.608 429.631 217.586C429.957 218.556 430.12 219.666 430.12 220.916V221.147ZM451.053 227.047V219.557C451.053 218.379 450.917 217.564 450.645 217.11C450.337 216.648 449.825 216.417 449.109 216.417C448.194 216.417 447.564 216.73 447.22 217.355C446.866 217.971 446.69 219.263 446.69 221.229V227.047H442.014V219.557C442.014 218.334 441.864 217.509 441.565 217.083C441.293 216.639 440.79 216.417 440.056 216.417C439.141 216.417 438.502 216.721 438.14 217.328C437.787 217.944 437.61 219.244 437.61 221.229V227.047H432.907V213.318H437.664V215.71C438.244 214.75 438.906 214.039 439.649 213.576C440.374 213.114 441.253 212.883 442.286 212.883C443.4 212.883 444.32 213.096 445.045 213.522C445.734 213.957 446.236 214.605 446.554 215.466C447.106 214.569 447.763 213.921 448.525 213.522C449.277 213.096 450.178 212.883 451.229 212.883C452.054 212.883 452.774 213.019 453.391 213.291C454.025 213.59 454.546 214.007 454.954 214.542C455.298 214.967 455.538 215.47 455.674 216.05C455.81 216.585 455.878 217.532 455.878 218.891V219.19V227.047H451.053ZM463.626 220.223C463.626 221.292 463.911 222.14 464.482 222.765C465.008 223.372 465.769 223.676 466.765 223.676C467.753 223.676 468.523 223.372 469.076 222.765C469.629 222.131 469.905 221.283 469.905 220.223C469.905 219.145 469.629 218.302 469.076 217.695C468.514 217.079 467.744 216.771 466.765 216.771C465.778 216.771 465.017 217.079 464.482 217.695C463.911 218.293 463.626 219.136 463.626 220.223ZM459.33 233.109V213.345H463.789V215.629C464.378 214.75 465.071 214.066 465.868 213.576C466.62 213.132 467.477 212.91 468.437 212.91C469.407 212.91 470.277 213.074 471.047 213.4C471.817 213.717 472.488 214.202 473.059 214.854C474.191 216.15 474.758 217.94 474.758 220.223C474.758 222.416 474.191 224.188 473.059 225.538C472.479 226.226 471.822 226.738 471.088 227.074C470.363 227.409 469.534 227.577 468.6 227.577C467.431 227.577 466.485 227.364 465.76 226.938C465.062 226.53 464.414 225.823 463.816 224.817C463.861 225.035 463.897 225.37 463.925 225.823C463.943 226.086 463.952 226.566 463.952 227.264V233.109H459.33ZM477.707 227.047V213.318H482.274V216.553C482.755 215.366 483.394 214.483 484.191 213.903C485.016 213.314 486.008 213.019 487.168 213.019C487.43 213.019 487.625 213.028 487.752 213.046C487.852 213.055 487.942 213.064 488.024 213.074C488.106 213.074 488.21 213.083 488.337 213.101L487.874 217.505C487.539 217.396 487.249 217.319 487.005 217.274C486.642 217.237 486.375 217.219 486.203 217.219C485.025 217.219 484.114 217.582 483.471 218.307C482.836 219.022 482.519 220.042 482.519 221.365V227.047H477.707ZM499.591 218.415C499.51 217.654 499.215 217.033 498.708 216.553C498.2 216.073 497.579 215.833 496.845 215.833C496.075 215.833 495.45 216.046 494.97 216.472C494.471 216.952 494.159 217.6 494.032 218.415H499.591ZM504.362 221.147H493.923C493.95 222.217 494.218 223.032 494.725 223.594C495.251 224.174 496.012 224.464 497.009 224.464C497.733 224.464 498.354 224.324 498.871 224.043C499.396 223.744 499.777 223.336 500.012 222.819L503.655 224.287C503.229 225.329 502.459 226.136 501.345 226.707C500.239 227.287 498.884 227.577 497.28 227.577C494.888 227.577 492.967 226.906 491.517 225.565C490.076 224.26 489.356 222.516 489.356 220.332C489.356 218.202 490.076 216.422 491.517 214.99C492.958 213.586 494.788 212.883 497.009 212.883C499.274 212.883 501.064 213.595 502.378 215.017C503.048 215.751 503.546 216.608 503.873 217.586C504.199 218.556 504.362 219.666 504.362 220.916V221.147ZM505.871 225.905L506.877 222.208C507.583 222.833 508.363 223.304 509.215 223.621C510.057 223.957 510.909 224.124 511.77 224.124C512.386 224.124 512.848 224.02 513.156 223.812C513.473 223.621 513.632 223.345 513.632 222.982C513.632 222.375 512.993 221.922 511.716 221.623C511.271 221.523 510.936 221.437 510.71 221.365C509.233 220.93 508.186 220.4 507.57 219.775C506.899 219.131 506.564 218.298 506.564 217.274C506.564 215.951 507.067 214.886 508.073 214.079C509.042 213.282 510.397 212.883 512.137 212.883C512.98 212.883 513.877 212.983 514.828 213.182C515.626 213.345 516.554 213.663 517.615 214.134L516.609 217.464C515.956 217.02 515.299 216.689 514.638 216.472C514.013 216.245 513.356 216.132 512.667 216.132C512.105 216.132 511.684 216.218 511.403 216.39C511.131 216.553 510.995 216.802 510.995 217.138C510.995 217.609 511.634 218.017 512.912 218.361C513.328 218.488 513.541 218.551 513.55 218.551C515.218 219.022 516.387 219.58 517.057 220.223C517.71 220.903 518.036 221.786 518.036 222.874C518.036 224.278 517.497 225.411 516.418 226.272C515.313 227.142 513.886 227.577 512.137 227.577C510.923 227.577 509.804 227.436 508.78 227.155C507.765 226.883 506.795 226.467 505.871 225.905ZM531.098 220.169C531.098 219.081 530.813 218.239 530.242 217.641C529.662 217.006 528.883 216.689 527.904 216.689C526.925 216.689 526.155 216.997 525.593 217.613C525.013 218.248 524.723 219.099 524.723 220.169C524.723 221.247 525.013 222.094 525.593 222.711C526.146 223.318 526.916 223.621 527.904 223.621C528.883 223.621 529.657 223.318 530.228 222.711C530.808 222.103 531.098 221.256 531.098 220.169ZM535.353 213.318V227.047H530.908V224.817C530.265 225.769 529.544 226.467 528.747 226.911C527.958 227.355 527.034 227.577 525.974 227.577C524.134 227.577 522.671 226.906 521.584 225.565C521.049 224.903 520.641 224.124 520.36 223.227C520.079 222.33 519.939 221.32 519.939 220.196C519.939 217.949 520.514 216.168 521.665 214.854C522.816 213.54 524.356 212.883 526.287 212.883C527.32 212.883 528.208 213.105 528.951 213.549C529.703 213.975 530.346 214.65 530.881 215.575V213.318H535.353Z" fill="white"/>
</svg>
