<svg width="453" height="170" viewBox="0 0 453 170" fill="none" xmlns="http://www.w3.org/2000/svg">
<path d="M30.5625 31V8.125H35.4531V26.8438H43.2656V31H30.5625ZM58.1875 22.2969L55.625 14.9062C55.5521 14.6875 55.4583 14.3125 55.3438 13.7812C55.2292 13.25 55.1094 12.599 54.9844 11.8281C54.849 12.5677 54.7188 13.2344 54.5938 13.8281C54.4688 14.4115 54.375 14.8021 54.3125 15L51.8438 22.2969H58.1875ZM43.625 31L52.3281 8.125H57.9219L66.75 31H61.1875L59.3281 26.1406H50.4688L48.875 31H43.625ZM83.8906 27.1875H85.8125C87.0417 27.1875 87.974 26.9219 88.6094 26.3906C89.2448 25.849 89.5625 25.0625 89.5625 24.0312C89.5625 23.0625 89.2448 22.3229 88.6094 21.8125C87.9844 21.3021 87.0729 21.0469 85.875 21.0469H83.8906V27.1875ZM83.8906 17.2656H84.9844C86.4635 17.2656 87.5104 17.0573 88.125 16.6406C88.7396 16.224 89.0469 15.526 89.0469 14.5469C89.0469 13.5885 88.75 12.9062 88.1562 12.5C87.5729 12.0938 86.5469 11.8906 85.0781 11.8906H83.8906V17.2656ZM79 31V8.125H83.2812C85.5 8.125 87.1198 8.21354 88.1406 8.39062C89.1719 8.55729 90.0625 8.83854 90.8125 9.23438C91.6979 9.74479 92.3802 10.4167 92.8594 11.25C93.349 12.0833 93.5938 13.026 93.5938 14.0781C93.5938 15.4323 93.1927 16.5208 92.3906 17.3438C91.5885 18.1562 90.3906 18.6979 88.7969 18.9688C90.6406 19.2396 92.0312 19.8385 92.9688 20.7656C93.9167 21.6927 94.3906 22.9271 94.3906 24.4688C94.3906 25.5938 94.1198 26.625 93.5781 27.5625C93.0365 28.4896 92.2917 29.2083 91.3438 29.7188C90.5 30.1771 89.5104 30.5052 88.375 30.7031C87.2396 30.901 85.3594 31 82.7344 31H82.2344H79ZM109.969 22.2969L107.406 14.9062C107.333 14.6875 107.24 14.3125 107.125 13.7812C107.01 13.25 106.891 12.599 106.766 11.8281C106.63 12.5677 106.5 13.2344 106.375 13.8281C106.25 14.4115 106.156 14.8021 106.094 15L103.625 22.2969H109.969ZM95.4062 31L104.109 8.125H109.703L118.531 31H112.969L111.109 26.1406H102.25L100.656 31H95.4062ZM120.938 31V8.125H126.016L136.141 21.4375C136.432 21.8125 136.75 22.3438 137.094 23.0312C137.448 23.7083 137.812 24.5104 138.188 25.4375C138.073 24.7604 137.99 24.0885 137.938 23.4219C137.885 22.7552 137.859 21.9219 137.859 20.9219V8.125H142.531V31H137.734L127.328 17.4375C127.036 17.0625 126.719 16.5365 126.375 15.8594C126.031 15.1719 125.667 14.3542 125.281 13.4062C125.396 14.0625 125.479 14.7292 125.531 15.4062C125.583 16.0729 125.609 16.9167 125.609 17.9375V31H120.938ZM166.047 14.0781C165.057 13.1927 164.042 12.5469 163 12.1406C161.958 11.724 160.844 11.5156 159.656 11.5156C157.219 11.5156 155.276 12.2448 153.828 13.7031C152.38 15.1615 151.656 17.1198 151.656 19.5781C151.656 21.9844 152.328 23.8958 153.672 25.3125C155.016 26.7188 156.849 27.4219 159.172 27.4219C160.495 27.4219 161.724 27.2031 162.859 26.7656C163.995 26.3177 165.047 25.651 166.016 24.7656L165.984 29.7812C164.943 30.3958 163.849 30.8542 162.703 31.1562C161.568 31.4583 160.37 31.6094 159.109 31.6094C155.464 31.6094 152.469 30.4792 150.125 28.2188C147.792 25.9479 146.625 23.0677 146.625 19.5781C146.625 16.099 147.797 13.2292 150.141 10.9688C152.484 8.70833 155.505 7.57812 159.203 7.57812C160.443 7.57812 161.641 7.70833 162.797 7.96875C163.953 8.22917 165.094 8.63021 166.219 9.17188L166.047 14.0781ZM182.438 22.2969L179.875 14.9062C179.802 14.6875 179.708 14.3125 179.594 13.7812C179.479 13.25 179.359 12.599 179.234 11.8281C179.099 12.5677 178.969 13.2344 178.844 13.8281C178.719 14.4115 178.625 14.8021 178.562 15L176.094 22.2969H182.438ZM167.875 31L176.578 8.125H182.172L191 31H185.438L183.578 26.1406H174.719L173.125 31H167.875ZM217.75 23.25L219.438 25.2344C220.146 24.5052 220.688 23.651 221.062 22.6719C221.448 21.6823 221.641 20.6615 221.641 19.6094C221.641 17.4427 220.958 15.6198 219.594 14.1406C218.229 12.6615 216.526 11.9219 214.484 11.9219C212.411 11.9219 210.693 12.6615 209.328 14.1406C207.964 15.6094 207.281 17.4323 207.281 19.6094C207.281 21.8073 207.948 23.6302 209.281 25.0781C210.625 26.526 212.328 27.25 214.391 27.25C214.568 27.25 214.812 27.2344 215.125 27.2031C215.448 27.1615 215.828 27.1042 216.266 27.0312L212.969 23.25H217.75ZM226.547 33.6562H221.672L219.188 30.7188C218.062 31.0104 217.125 31.2188 216.375 31.3438C215.635 31.4792 214.974 31.5469 214.391 31.5469C212.818 31.5469 211.276 31.2396 209.766 30.625C208.255 30.0104 206.938 29.1562 205.812 28.0625C204.656 26.9375 203.766 25.6458 203.141 24.1875C202.526 22.7188 202.219 21.1823 202.219 19.5781C202.219 17.974 202.526 16.4479 203.141 15C203.755 13.5417 204.646 12.2396 205.812 11.0938C206.948 9.96875 208.26 9.10938 209.75 8.51562C211.25 7.91146 212.828 7.60938 214.484 7.60938C216.109 7.60938 217.667 7.91146 219.156 8.51562C220.646 9.10938 221.969 9.96875 223.125 11.0938C224.281 12.2292 225.167 13.5208 225.781 14.9688C226.396 16.4167 226.703 17.9531 226.703 19.5781C226.703 21.3698 226.333 23.0417 225.594 24.5938C224.854 26.1458 223.771 27.526 222.344 28.7344L226.547 33.6562ZM250.484 8.125V22.3594C250.484 25.4635 249.667 27.7812 248.031 29.3125C246.396 30.8438 243.932 31.6094 240.641 31.6094C237.297 31.6094 234.807 30.8438 233.172 29.3125C231.536 27.7812 230.719 25.4635 230.719 22.3594V8.125H235.578V21.5938C235.578 23.4792 235.995 24.901 236.828 25.8594C237.661 26.8073 238.906 27.2812 240.562 27.2812C242.229 27.2812 243.49 26.8021 244.344 25.8438C245.198 24.8854 245.625 23.4688 245.625 21.5938V8.125H250.484ZM255.562 31V8.125H269.031V12.25H260.453V16.9531H269.031V21.1094H260.453V26.8438H269.031V31H255.562ZM292.234 12.2812V31H287.328V12.2812H281.734V8.125H297.859V12.2812H292.234ZM320.703 8.125V22.3594C320.703 25.4635 319.885 27.7812 318.25 29.3125C316.615 30.8438 314.151 31.6094 310.859 31.6094C307.516 31.6094 305.026 30.8438 303.391 29.3125C301.755 27.7812 300.938 25.4635 300.938 22.3594V8.125H305.797V21.5938C305.797 23.4792 306.214 24.901 307.047 25.8594C307.88 26.8073 309.125 27.2812 310.781 27.2812C312.448 27.2812 313.708 26.8021 314.562 25.8438C315.417 24.8854 315.844 23.4688 315.844 21.5938V8.125H320.703ZM30.5625 69V46.125H44.0312V50.25H35.4531V54.9531H44.0312V59.1094H35.4531V64.8438H44.0312V69H30.5625ZM46.8594 69L50.3438 46.125H55.4688L59.875 59.5938C59.9688 59.875 60.0677 60.2865 60.1719 60.8281C60.2865 61.3698 60.3906 61.9896 60.4844 62.6875C60.5677 61.9792 60.6615 61.349 60.7656 60.7969C60.8698 60.2344 60.9688 59.8229 61.0625 59.5625L65.5469 46.125H70.5938L74.0938 69H69.4531L67.7812 55.2031C67.6562 54.1823 67.5729 53.4115 67.5312 52.8906C67.4896 52.3698 67.4688 51.8854 67.4688 51.4375C67.4688 51.1979 67.4688 51.0208 67.4688 50.9062C67.4792 50.7812 67.4896 50.6719 67.5 50.5781C67.3438 51.474 67.1927 52.25 67.0469 52.9062C66.9115 53.5521 66.7865 54.0417 66.6719 54.375L61.8281 69H59.0781L54.3125 54.375C54.2708 54.2396 54.1771 53.8646 54.0312 53.25C53.8958 52.6354 53.7031 51.7396 53.4531 50.5625V51.2344C53.4531 52.2969 53.3594 53.599 53.1719 55.1406L53.1562 55.2031L51.5 69H46.8594ZM82.2031 56.4531H82.9062C84.2396 56.4531 85.2083 56.1771 85.8125 55.625C86.4167 55.0729 86.7188 54.1875 86.7188 52.9688C86.7188 51.8438 86.4167 51.026 85.8125 50.5156C85.2083 49.9948 84.2396 49.7344 82.9062 49.7344H82.2031V56.4531ZM77.2812 69V46.125H82.9062C85.9062 46.125 88.1198 46.6979 89.5469 47.8438C90.9844 48.9896 91.7031 50.7604 91.7031 53.1562C91.7031 55.375 90.9792 57.1146 89.5312 58.375C88.0938 59.6354 86.099 60.2656 83.5469 60.2656H82.2031V69H77.2812ZM111.641 69H106L99.9844 58.3125V69H95.0938V46.125H102.094C104.875 46.125 106.958 46.6667 108.344 47.75C109.729 48.8229 110.422 50.4427 110.422 52.6094C110.422 54.1823 109.948 55.526 109 56.6406C108.052 57.7552 106.828 58.4062 105.328 58.5938L111.641 69ZM99.9844 55.875H100.719C102.698 55.875 104.005 55.6615 104.641 55.2344C105.276 54.7969 105.594 54.0417 105.594 52.9688C105.594 51.8438 105.25 51.0469 104.562 50.5781C103.885 50.099 102.604 49.8594 100.719 49.8594H99.9844V55.875ZM114.5 69V46.125H127.969V50.25H119.391V54.9531H127.969V59.1094H119.391V64.8438H127.969V69H114.5ZM131.312 66.0938L134.031 63.0156C134.375 63.8594 134.927 64.526 135.688 65.0156C136.448 65.4948 137.302 65.7344 138.25 65.7344C139.396 65.7344 140.302 65.4635 140.969 64.9219C141.635 64.3802 141.969 63.651 141.969 62.7344C141.969 61.651 140.859 60.5729 138.641 59.5C137.922 59.1562 137.354 58.875 136.938 58.6562C134.938 57.6146 133.552 56.599 132.781 55.6094C132.01 54.6094 131.625 53.4219 131.625 52.0469C131.625 50.1615 132.37 48.6146 133.859 47.4062C135.359 46.1875 137.302 45.5781 139.688 45.5781C141.073 45.5781 142.266 45.8229 143.266 46.3125C144.276 46.7917 145.167 47.5469 145.938 48.5781L143.047 51.3438C142.703 50.6771 142.245 50.1823 141.672 49.8594C141.109 49.526 140.427 49.3594 139.625 49.3594C138.656 49.3594 137.875 49.6042 137.281 50.0938C136.688 50.5729 136.391 51.1979 136.391 51.9688C136.391 53.1771 137.568 54.2812 139.922 55.2812C140.391 55.4792 140.75 55.6354 141 55.75C142.938 56.6354 144.37 57.6354 145.297 58.75C146.234 59.8646 146.703 61.1354 146.703 62.5625C146.703 64.7083 145.969 66.4219 144.5 67.7031C143.042 68.974 141.078 69.6094 138.609 69.6094C136.859 69.6094 135.359 69.3073 134.109 68.7031C132.859 68.099 131.927 67.2292 131.312 66.0938ZM162.562 60.2969L160 52.9062C159.927 52.6875 159.833 52.3125 159.719 51.7812C159.604 51.25 159.484 50.599 159.359 49.8281C159.224 50.5677 159.094 51.2344 158.969 51.8281C158.844 52.4115 158.75 52.8021 158.688 53L156.219 60.2969H162.562ZM148 69L156.703 46.125H162.297L171.125 69H165.562L163.703 64.1406H154.844L153.25 69H148ZM183.375 69V46.125H188.453L198.578 59.4375C198.87 59.8125 199.188 60.3438 199.531 61.0312C199.885 61.7083 200.25 62.5104 200.625 63.4375C200.51 62.7604 200.427 62.0885 200.375 61.4219C200.323 60.7552 200.297 59.9219 200.297 58.9219V46.125H204.969V69H200.172L189.766 55.4375C189.474 55.0625 189.156 54.5365 188.812 53.8594C188.469 53.1719 188.104 52.3542 187.719 51.4062C187.833 52.0625 187.917 52.7292 187.969 53.4062C188.021 54.0729 188.047 54.9167 188.047 55.9375V69H183.375ZM210.062 69V46.125H223.531V50.25H214.953V54.9531H223.531V59.1094H214.953V64.8438H223.531V69H210.062ZM246.766 52.0781C245.776 51.1927 244.76 50.5469 243.719 50.1406C242.677 49.724 241.562 49.5156 240.375 49.5156C237.938 49.5156 235.995 50.2448 234.547 51.7031C233.099 53.1615 232.375 55.1198 232.375 57.5781C232.375 59.9844 233.047 61.8958 234.391 63.3125C235.734 64.7188 237.568 65.4219 239.891 65.4219C241.214 65.4219 242.443 65.2031 243.578 64.7656C244.714 64.3177 245.766 63.651 246.734 62.7656L246.703 67.7812C245.661 68.3958 244.568 68.8542 243.422 69.1562C242.286 69.4583 241.089 69.6094 239.828 69.6094C236.182 69.6094 233.188 68.4792 230.844 66.2188C228.51 63.9479 227.344 61.0677 227.344 57.5781C227.344 54.099 228.516 51.2292 230.859 48.9688C233.203 46.7083 236.224 45.5781 239.922 45.5781C241.161 45.5781 242.359 45.7083 243.516 45.9688C244.672 46.2292 245.812 46.6302 246.938 47.1719L246.766 52.0781ZM251.312 69V46.125H264.781V50.25H256.203V54.9531H264.781V59.1094H256.203V64.8438H264.781V69H251.312ZM268.125 66.0938L270.844 63.0156C271.188 63.8594 271.74 64.526 272.5 65.0156C273.26 65.4948 274.115 65.7344 275.062 65.7344C276.208 65.7344 277.115 65.4635 277.781 64.9219C278.448 64.3802 278.781 63.651 278.781 62.7344C278.781 61.651 277.672 60.5729 275.453 59.5C274.734 59.1562 274.167 58.875 273.75 58.6562C271.75 57.6146 270.365 56.599 269.594 55.6094C268.823 54.6094 268.438 53.4219 268.438 52.0469C268.438 50.1615 269.182 48.6146 270.672 47.4062C272.172 46.1875 274.115 45.5781 276.5 45.5781C277.885 45.5781 279.078 45.8229 280.078 46.3125C281.089 46.7917 281.979 47.5469 282.75 48.5781L279.859 51.3438C279.516 50.6771 279.057 50.1823 278.484 49.8594C277.922 49.526 277.24 49.3594 276.438 49.3594C275.469 49.3594 274.688 49.6042 274.094 50.0938C273.5 50.5729 273.203 51.1979 273.203 51.9688C273.203 53.1771 274.38 54.2812 276.734 55.2812C277.203 55.4792 277.562 55.6354 277.812 55.75C279.75 56.6354 281.182 57.6354 282.109 58.75C283.047 59.8646 283.516 61.1354 283.516 62.5625C283.516 64.7083 282.781 66.4219 281.312 67.7031C279.854 68.974 277.891 69.6094 275.422 69.6094C273.672 69.6094 272.172 69.3073 270.922 68.7031C269.672 68.099 268.74 67.2292 268.125 66.0938ZM287.625 69V46.125H292.516V69H287.625ZM306.297 50.2812V69H301.391V50.2812H295.797V46.125H311.922V50.2812H306.297ZM325.188 60.2969L322.625 52.9062C322.552 52.6875 322.458 52.3125 322.344 51.7812C322.229 51.25 322.109 50.599 321.984 49.8281C321.849 50.5677 321.719 51.2344 321.594 51.8281C321.469 52.4115 321.375 52.8021 321.312 53L318.844 60.2969H325.188ZM310.625 69L319.328 46.125H324.922L333.75 69H328.188L326.328 64.1406H317.469L315.875 69H310.625Z" fill="white"/>
<path d="M27 139H15C10.5817 139 7 135.418 7 131V28" stroke="white" stroke-width="1.5"/>
<circle cx="7" cy="21" r="6.25" stroke="white" stroke-width="1.5"/>
<rect x="25" y="108" width="342" height="62" rx="10" fill="#002A61"/>
<path d="M49.5469 146V133.133H52.2275C53.1709 133.133 53.8652 133.183 54.3105 133.282C54.7617 133.376 55.1484 133.54 55.4707 133.774C55.8809 134.079 56.1973 134.472 56.4199 134.952C56.6484 135.427 56.7627 135.948 56.7627 136.517C56.7627 137.196 56.5986 137.765 56.2705 138.222C55.9482 138.679 55.4766 138.998 54.8555 139.18C55.6172 139.297 56.2178 139.64 56.6572 140.208C57.1025 140.771 57.3252 141.482 57.3252 142.344C57.3252 142.859 57.2314 143.352 57.0439 143.82C56.8564 144.289 56.5957 144.69 56.2617 145.024C55.8984 145.382 55.4502 145.634 54.917 145.78C54.3838 145.927 53.4873 146 52.2275 146H49.5469ZM51.041 139.971V144.664H52.2275C53.042 144.664 53.6279 144.632 53.9854 144.567C54.3486 144.503 54.6387 144.392 54.8555 144.233C55.1191 144.046 55.3271 143.785 55.4795 143.451C55.6318 143.117 55.708 142.748 55.708 142.344C55.708 141.875 55.6172 141.468 55.4355 141.122C55.2539 140.776 54.9902 140.507 54.6445 140.313C54.4395 140.19 54.2021 140.103 53.9326 140.05C53.6631 139.997 53.2441 139.971 52.6758 139.971H52.2275H51.041ZM51.041 134.46V138.767H52.2275C53.3174 138.767 54.085 138.608 54.5303 138.292C54.9756 137.976 55.1982 137.442 55.1982 136.692C55.1982 135.866 54.9902 135.289 54.5742 134.961C54.1641 134.627 53.3818 134.46 52.2275 134.46H51.041ZM59.5488 146V137.958H60.7705V139.628C61.1396 138.931 61.5322 138.433 61.9482 138.134C62.3643 137.835 62.8711 137.686 63.4688 137.686C63.6328 137.686 63.791 137.7 63.9434 137.729C64.0957 137.753 64.248 137.791 64.4004 137.844L63.9434 139.083C63.7852 139.03 63.6357 138.992 63.4951 138.969C63.3545 138.939 63.2197 138.925 63.0908 138.925C62.3643 138.925 61.8193 139.188 61.4561 139.716C61.0928 140.237 60.9111 141.025 60.9111 142.08V146H59.5488ZM65.6045 134.082C65.6045 133.807 65.7012 133.572 65.8945 133.379C66.0938 133.18 66.334 133.08 66.6152 133.08C66.8906 133.08 67.125 133.18 67.3184 133.379C67.5176 133.578 67.6172 133.818 67.6172 134.1C67.6172 134.375 67.5205 134.609 67.3271 134.803C67.1338 134.996 66.8965 135.093 66.6152 135.093C66.334 135.093 66.0938 134.996 65.8945 134.803C65.7012 134.609 65.6045 134.369 65.6045 134.082ZM65.9297 146V137.958H67.3184V146H65.9297ZM70.2188 146V137.958H71.5635V139.197C71.9092 138.682 72.3252 138.298 72.8115 138.046C73.2979 137.794 73.8604 137.668 74.499 137.668C75.4482 137.668 76.1895 137.92 76.7227 138.424C77.2559 138.928 77.5225 139.628 77.5225 140.524V146H76.1162V141.263C76.1162 140.448 75.9434 139.845 75.5977 139.452C75.2578 139.054 74.7305 138.854 74.0156 138.854C73.6055 138.854 73.2305 138.931 72.8906 139.083C72.5566 139.229 72.2783 139.44 72.0557 139.716C71.8857 139.927 71.7627 140.167 71.6865 140.437C71.6162 140.706 71.5811 141.175 71.5811 141.843V146H70.2188ZM86.4082 142.019C86.4082 141.122 86.1592 140.401 85.6611 139.856C85.1631 139.306 84.5068 139.03 83.6924 139.03C82.8779 139.03 82.2422 139.279 81.7852 139.777C81.3281 140.275 81.0996 140.964 81.0996 141.843C81.0996 142.833 81.3311 143.609 81.7939 144.172C82.2568 144.729 82.8955 145.007 83.71 145.007C84.5537 145.007 85.2129 144.743 85.6875 144.216C86.168 143.688 86.4082 142.956 86.4082 142.019ZM87.7441 132.377V146H86.4082V144.541C86.0918 145.121 85.6816 145.566 85.1777 145.877C84.6738 146.188 84.1113 146.343 83.4902 146.343C82.3359 146.343 81.4043 145.947 80.6953 145.156C79.9922 144.359 79.6406 143.308 79.6406 142.001C79.6406 140.683 79.9863 139.631 80.6777 138.846C81.3691 138.061 82.2891 137.668 83.4375 137.668C84.1055 137.668 84.6855 137.82 85.1777 138.125C85.6699 138.424 86.0684 138.872 86.373 139.47V132.377H87.7441ZM96.709 142.054C96.709 141.146 96.46 140.416 95.9619 139.865C95.4697 139.309 94.8252 139.03 94.0283 139.03C93.2021 139.03 92.5576 139.285 92.0947 139.795C91.6318 140.305 91.4004 141.017 91.4004 141.931C91.4004 142.903 91.6318 143.653 92.0947 144.181C92.5635 144.708 93.2256 144.972 94.0811 144.972C94.9014 144.972 95.543 144.717 96.0059 144.207C96.4746 143.691 96.709 142.974 96.709 142.054ZM98.0449 137.958V146H96.709V144.541C96.3867 145.127 95.9736 145.575 95.4697 145.886C94.9717 146.19 94.4121 146.343 93.791 146.343C92.6367 146.343 91.7051 145.947 90.9961 145.156C90.293 144.359 89.9414 143.308 89.9414 142.001C89.9414 140.677 90.2842 139.625 90.9697 138.846C91.6553 138.061 92.5723 137.668 93.7207 137.668C94.3945 137.668 94.9775 137.82 95.4697 138.125C95.9678 138.424 96.3691 138.872 96.6738 139.47V137.958H98.0449ZM112.002 146V141.263C112.002 140.448 111.838 139.845 111.51 139.452C111.182 139.054 110.678 138.854 109.998 138.854C109.629 138.854 109.286 138.931 108.97 139.083C108.659 139.229 108.396 139.44 108.179 139.716C108.021 139.927 107.906 140.173 107.836 140.454C107.766 140.735 107.73 141.198 107.73 141.843V146H106.403V141.263C106.403 140.448 106.239 139.845 105.911 139.452C105.583 139.054 105.079 138.854 104.399 138.854C104.03 138.854 103.685 138.931 103.362 139.083C103.046 139.229 102.779 139.44 102.562 139.716C102.41 139.921 102.299 140.158 102.229 140.428C102.164 140.697 102.132 141.169 102.132 141.843V146H100.805V137.958H102.149V139.197C102.483 138.682 102.882 138.298 103.345 138.046C103.808 137.794 104.341 137.668 104.944 137.668C105.595 137.668 106.148 137.809 106.605 138.09C107.062 138.365 107.408 138.77 107.643 139.303C107.988 138.752 108.396 138.342 108.864 138.072C109.339 137.803 109.887 137.668 110.508 137.668C111.404 137.668 112.104 137.92 112.608 138.424C113.112 138.928 113.364 139.628 113.364 140.524V146H112.002ZM116.889 142.001C116.889 142.851 117.173 143.571 117.741 144.163C118.31 144.749 118.998 145.042 119.807 145.042C120.609 145.042 121.292 144.749 121.854 144.163C122.417 143.571 122.698 142.851 122.698 142.001C122.698 141.151 122.417 140.434 121.854 139.848C121.292 139.256 120.609 138.96 119.807 138.96C118.992 138.96 118.301 139.256 117.732 139.848C117.17 140.434 116.889 141.151 116.889 142.001ZM115.43 142.001C115.43 141.409 115.538 140.853 115.755 140.331C115.972 139.804 116.288 139.335 116.704 138.925C117.12 138.515 117.592 138.204 118.119 137.993C118.646 137.776 119.209 137.668 119.807 137.668C120.393 137.668 120.946 137.776 121.468 137.993C121.995 138.21 122.473 138.526 122.9 138.942C123.316 139.347 123.633 139.812 123.85 140.34C124.066 140.861 124.175 141.415 124.175 142.001C124.175 142.587 124.066 143.141 123.85 143.662C123.633 144.178 123.316 144.638 122.9 145.042C122.473 145.464 121.992 145.786 121.459 146.009C120.932 146.231 120.381 146.343 119.807 146.343C119.215 146.343 118.652 146.231 118.119 146.009C117.592 145.792 117.12 145.479 116.704 145.068C116.288 144.646 115.972 144.178 115.755 143.662C115.538 143.146 115.43 142.593 115.43 142.001ZM125.476 144.646L126.653 143.855C126.876 144.283 127.157 144.605 127.497 144.822C127.837 145.033 128.238 145.139 128.701 145.139C129.152 145.139 129.516 145.027 129.791 144.805C130.072 144.582 130.213 144.289 130.213 143.926C130.213 143.645 130.116 143.41 129.923 143.223C129.735 143.035 129.41 142.862 128.947 142.704C128.9 142.687 128.824 142.66 128.719 142.625C126.762 141.951 125.783 141.107 125.783 140.094C125.783 139.379 126.047 138.796 126.574 138.345C127.102 137.894 127.787 137.668 128.631 137.668C129.328 137.668 129.926 137.809 130.424 138.09C130.922 138.365 131.279 138.758 131.496 139.268L130.38 139.953C130.216 139.584 129.973 139.3 129.65 139.101C129.334 138.901 128.965 138.802 128.543 138.802C128.139 138.802 127.808 138.916 127.55 139.145C127.298 139.367 127.172 139.654 127.172 140.006C127.172 140.498 127.705 140.911 128.771 141.245C128.971 141.31 129.129 141.359 129.246 141.395C130.119 141.676 130.726 141.998 131.065 142.361C131.411 142.719 131.584 143.193 131.584 143.785C131.584 144.547 131.312 145.165 130.767 145.64C130.228 146.108 129.521 146.343 128.648 146.343C127.898 146.343 127.26 146.202 126.732 145.921C126.211 145.64 125.792 145.215 125.476 144.646ZM137.938 144.488L139.863 143.495C139.928 143.829 140.101 144.093 140.382 144.286C140.663 144.479 141.012 144.576 141.428 144.576C141.838 144.576 142.16 144.503 142.395 144.356C142.629 144.204 142.746 143.996 142.746 143.732C142.746 143.316 142.33 142.968 141.498 142.687C141.24 142.599 141.035 142.525 140.883 142.467C139.869 142.086 139.166 141.702 138.773 141.315C138.387 140.929 138.193 140.451 138.193 139.883C138.193 139.039 138.524 138.356 139.187 137.835C139.849 137.313 140.722 137.053 141.806 137.053C142.579 137.053 143.247 137.208 143.81 137.519C144.378 137.829 144.791 138.269 145.049 138.837L143.212 139.751C143.112 139.429 142.939 139.186 142.693 139.021C142.447 138.852 142.14 138.767 141.771 138.767C141.401 138.767 141.103 138.843 140.874 138.995C140.646 139.147 140.531 139.347 140.531 139.593C140.531 140.021 141.1 140.419 142.236 140.788C142.371 140.829 142.474 140.861 142.544 140.885C143.487 141.195 144.158 141.559 144.557 141.975C144.955 142.385 145.154 142.909 145.154 143.548C145.154 144.403 144.823 145.083 144.161 145.587C143.499 146.091 142.605 146.343 141.48 146.343C140.59 146.343 139.828 146.179 139.195 145.851C138.568 145.517 138.149 145.062 137.938 144.488ZM153.513 141.702C153.513 140.999 153.308 140.439 152.897 140.023C152.487 139.602 151.937 139.391 151.245 139.391C150.554 139.391 150.006 139.599 149.602 140.015C149.197 140.431 148.995 140.993 148.995 141.702C148.995 142.405 149.197 142.968 149.602 143.39C150.006 143.812 150.554 144.022 151.245 144.022C151.931 144.022 152.479 143.812 152.889 143.39C153.305 142.968 153.513 142.405 153.513 141.702ZM156.062 141.72C156.062 143.044 155.607 144.146 154.699 145.024C153.797 145.903 152.651 146.343 151.263 146.343C149.862 146.343 148.708 145.903 147.8 145.024C146.892 144.146 146.438 143.044 146.438 141.72C146.438 140.401 146.895 139.3 147.809 138.415C148.723 137.53 149.874 137.088 151.263 137.088C152.657 137.088 153.806 137.524 154.708 138.397C155.61 139.271 156.062 140.378 156.062 141.72ZM158.057 146V132.377H160.553V146H158.057ZM165.545 137.378V141.913C165.545 142.675 165.691 143.22 165.984 143.548C166.283 143.876 166.767 144.04 167.435 144.04C168.097 144.04 168.577 143.876 168.876 143.548C169.175 143.214 169.324 142.669 169.324 141.913V137.378H171.829V141.913C171.829 143.431 171.475 144.55 170.766 145.271C170.057 145.985 168.958 146.343 167.47 146.343C165.952 146.343 164.836 145.985 164.121 145.271C163.412 144.556 163.058 143.437 163.058 141.913V137.378H165.545ZM180.592 145.745C180.252 145.95 179.895 146.1 179.52 146.193C179.145 146.293 178.734 146.343 178.289 146.343C176.93 146.343 175.822 145.912 174.967 145.051C174.111 144.184 173.684 143.059 173.684 141.676C173.684 140.322 174.114 139.221 174.976 138.371C175.837 137.516 176.953 137.088 178.324 137.088C178.781 137.088 179.191 137.132 179.555 137.22C179.918 137.308 180.264 137.445 180.592 137.633L180.574 140.146C180.311 139.877 180.006 139.669 179.66 139.522C179.314 139.376 178.948 139.303 178.562 139.303C177.858 139.303 177.296 139.52 176.874 139.953C176.452 140.381 176.241 140.949 176.241 141.658C176.241 142.385 176.455 142.965 176.883 143.398C177.316 143.826 177.899 144.04 178.632 144.04C179.036 144.04 179.394 143.967 179.704 143.82C180.021 143.674 180.311 143.445 180.574 143.135L180.592 145.745ZM182.358 133.836C182.358 133.438 182.502 133.095 182.789 132.808C183.076 132.521 183.419 132.377 183.817 132.377C184.222 132.377 184.567 132.521 184.854 132.808C185.147 133.089 185.294 133.432 185.294 133.836C185.294 134.24 185.147 134.586 184.854 134.873C184.567 135.16 184.222 135.304 183.817 135.304C183.419 135.304 183.076 135.157 182.789 134.864C182.502 134.571 182.358 134.229 182.358 133.836ZM182.578 146V137.378H185.074V146H182.578ZM194.136 141.702C194.136 140.999 193.931 140.439 193.521 140.023C193.11 139.602 192.56 139.391 191.868 139.391C191.177 139.391 190.629 139.599 190.225 140.015C189.82 140.431 189.618 140.993 189.618 141.702C189.618 142.405 189.82 142.968 190.225 143.39C190.629 143.812 191.177 144.022 191.868 144.022C192.554 144.022 193.102 143.812 193.512 143.39C193.928 142.968 194.136 142.405 194.136 141.702ZM196.685 141.72C196.685 143.044 196.23 144.146 195.322 145.024C194.42 145.903 193.274 146.343 191.886 146.343C190.485 146.343 189.331 145.903 188.423 145.024C187.515 144.146 187.061 143.044 187.061 141.72C187.061 140.401 187.518 139.3 188.432 138.415C189.346 137.53 190.497 137.088 191.886 137.088C193.28 137.088 194.429 137.524 195.331 138.397C196.233 139.271 196.685 140.378 196.685 141.72ZM198.583 146V137.378H201.035V138.731C201.486 138.169 201.97 137.756 202.485 137.492C203.007 137.223 203.584 137.088 204.217 137.088C204.885 137.088 205.444 137.202 205.896 137.431C206.353 137.653 206.713 137.996 206.977 138.459C207.105 138.699 207.196 138.972 207.249 139.276C207.308 139.575 207.337 140.047 207.337 140.691V140.964V146H204.832V141.737C204.832 140.677 204.709 139.977 204.463 139.637C204.217 139.297 203.795 139.127 203.197 139.127C202.852 139.127 202.532 139.2 202.239 139.347C201.952 139.487 201.712 139.689 201.519 139.953C201.366 140.158 201.255 140.393 201.185 140.656C201.12 140.92 201.088 141.321 201.088 141.86V142.203V146H198.583ZM215.651 140.797C215.581 140.252 215.382 139.842 215.054 139.566C214.731 139.285 214.289 139.145 213.727 139.145C213.164 139.145 212.713 139.285 212.373 139.566C212.039 139.842 211.825 140.252 211.731 140.797H215.651ZM218.13 142.309H211.652C211.752 142.93 211.978 143.396 212.329 143.706C212.681 144.011 213.158 144.163 213.762 144.163C214.219 144.163 214.611 144.075 214.939 143.899C215.273 143.724 215.552 143.457 215.774 143.1L217.796 144.11C217.327 144.866 216.759 145.429 216.091 145.798C215.423 146.161 214.629 146.343 213.709 146.343C212.314 146.343 211.21 145.927 210.396 145.095C209.581 144.263 209.174 143.144 209.174 141.737C209.174 140.384 209.599 139.271 210.448 138.397C211.304 137.524 212.396 137.088 213.727 137.088C215.098 137.088 216.182 137.498 216.979 138.318C217.775 139.133 218.174 140.246 218.174 141.658C218.174 141.734 218.171 141.819 218.165 141.913C218.159 142.001 218.147 142.133 218.13 142.309ZM219.185 144.488L221.109 143.495C221.174 143.829 221.347 144.093 221.628 144.286C221.909 144.479 222.258 144.576 222.674 144.576C223.084 144.576 223.406 144.503 223.641 144.356C223.875 144.204 223.992 143.996 223.992 143.732C223.992 143.316 223.576 142.968 222.744 142.687C222.486 142.599 222.281 142.525 222.129 142.467C221.115 142.086 220.412 141.702 220.02 141.315C219.633 140.929 219.439 140.451 219.439 139.883C219.439 139.039 219.771 138.356 220.433 137.835C221.095 137.313 221.968 137.053 223.052 137.053C223.825 137.053 224.493 137.208 225.056 137.519C225.624 137.829 226.037 138.269 226.295 138.837L224.458 139.751C224.358 139.429 224.186 139.186 223.939 139.021C223.693 138.852 223.386 138.767 223.017 138.767C222.647 138.767 222.349 138.843 222.12 138.995C221.892 139.147 221.777 139.347 221.777 139.593C221.777 140.021 222.346 140.419 223.482 140.788C223.617 140.829 223.72 140.861 223.79 140.885C224.733 141.195 225.404 141.559 225.803 141.975C226.201 142.385 226.4 142.909 226.4 143.548C226.4 144.403 226.069 145.083 225.407 145.587C224.745 146.091 223.852 146.343 222.727 146.343C221.836 146.343 221.074 146.179 220.441 145.851C219.814 145.517 219.396 145.062 219.185 144.488ZM239.883 142.054C239.883 141.146 239.634 140.416 239.136 139.865C238.644 139.309 237.999 139.03 237.202 139.03C236.376 139.03 235.731 139.285 235.269 139.795C234.806 140.305 234.574 141.017 234.574 141.931C234.574 142.903 234.806 143.653 235.269 144.181C235.737 144.708 236.399 144.972 237.255 144.972C238.075 144.972 238.717 144.717 239.18 144.207C239.648 143.691 239.883 142.974 239.883 142.054ZM241.219 137.958V146H239.883V144.541C239.561 145.127 239.147 145.575 238.644 145.886C238.146 146.19 237.586 146.343 236.965 146.343C235.811 146.343 234.879 145.947 234.17 145.156C233.467 144.359 233.115 143.308 233.115 142.001C233.115 140.677 233.458 139.625 234.144 138.846C234.829 138.061 235.746 137.668 236.895 137.668C237.568 137.668 238.151 137.82 238.644 138.125C239.142 138.424 239.543 138.872 239.848 139.47V137.958H241.219ZM249.498 139.092H248.021V137.958H249.498V134.715H250.904V137.958H252.381V139.092H250.904V146H249.498V139.092ZM255.237 137.958V141.913C255.237 143.067 255.407 143.876 255.747 144.339C256.093 144.796 256.673 145.024 257.487 145.024C258.302 145.024 258.876 144.799 259.21 144.348C259.55 143.891 259.72 143.079 259.72 141.913V137.958H261.126V142.651C261.126 143.864 260.815 144.784 260.194 145.411C259.573 146.032 258.659 146.343 257.452 146.343C256.257 146.343 255.349 146.029 254.728 145.402C254.106 144.775 253.796 143.858 253.796 142.651V137.958H255.237ZM274.854 140.797C274.784 140.252 274.585 139.842 274.257 139.566C273.935 139.285 273.492 139.145 272.93 139.145C272.367 139.145 271.916 139.285 271.576 139.566C271.242 139.842 271.028 140.252 270.935 140.797H274.854ZM277.333 142.309H270.855C270.955 142.93 271.181 143.396 271.532 143.706C271.884 144.011 272.361 144.163 272.965 144.163C273.422 144.163 273.814 144.075 274.143 143.899C274.477 143.724 274.755 143.457 274.978 143.1L276.999 144.11C276.53 144.866 275.962 145.429 275.294 145.798C274.626 146.161 273.832 146.343 272.912 146.343C271.518 146.343 270.413 145.927 269.599 145.095C268.784 144.263 268.377 143.144 268.377 141.737C268.377 140.384 268.802 139.271 269.651 138.397C270.507 137.524 271.6 137.088 272.93 137.088C274.301 137.088 275.385 137.498 276.182 138.318C276.979 139.133 277.377 140.246 277.377 141.658C277.377 141.734 277.374 141.819 277.368 141.913C277.362 142.001 277.351 142.133 277.333 142.309ZM281.701 146H279.196V137.378H281.701V138.731C282.111 138.163 282.548 137.747 283.011 137.483C283.479 137.22 284.01 137.088 284.602 137.088C285.316 137.088 285.896 137.234 286.342 137.527C286.793 137.82 287.112 138.263 287.3 138.854C287.698 138.269 288.149 137.829 288.653 137.536C289.163 137.237 289.72 137.088 290.323 137.088C290.933 137.088 291.448 137.202 291.87 137.431C292.298 137.653 292.629 137.99 292.863 138.441C292.986 138.688 293.074 138.966 293.127 139.276C293.18 139.587 293.206 140.059 293.206 140.691V140.964V146H290.701V141.737C290.701 140.688 290.593 139.991 290.376 139.646C290.165 139.3 289.793 139.127 289.26 139.127C288.615 139.127 288.146 139.367 287.854 139.848C287.566 140.328 287.423 141.113 287.423 142.203V146H284.918V141.737C284.918 140.724 284.818 140.038 284.619 139.681C284.42 139.323 284.077 139.145 283.591 139.145C282.929 139.145 282.448 139.388 282.149 139.874C281.851 140.354 281.701 141.131 281.701 142.203V146ZM297.882 141.676C297.882 142.455 298.072 143.062 298.453 143.495C298.84 143.929 299.376 144.146 300.062 144.146C300.747 144.146 301.28 143.929 301.661 143.495C302.048 143.062 302.241 142.455 302.241 141.676C302.241 140.896 302.045 140.284 301.652 139.839C301.266 139.388 300.729 139.162 300.044 139.162C299.382 139.162 298.854 139.388 298.462 139.839C298.075 140.29 297.882 140.902 297.882 141.676ZM295.597 149.92V137.378H297.996V138.802C298.324 138.228 298.726 137.8 299.2 137.519C299.681 137.231 300.237 137.088 300.87 137.088C302.095 137.088 303.053 137.495 303.744 138.31C304.436 139.118 304.781 140.249 304.781 141.702C304.781 143.103 304.433 144.228 303.735 145.077C303.038 145.921 302.121 146.343 300.984 146.343C300.299 146.343 299.716 146.217 299.235 145.965C298.761 145.707 298.354 145.306 298.014 144.761C298.043 144.978 298.063 145.215 298.075 145.473C298.093 145.725 298.102 146.015 298.102 146.343V149.92H295.597ZM309.105 139.593C309.357 138.755 309.718 138.128 310.187 137.712C310.661 137.296 311.247 137.088 311.944 137.088C312.103 137.088 312.363 137.117 312.727 137.176C312.797 137.188 312.85 137.196 312.885 137.202L312.507 139.892C312.319 139.815 312.129 139.76 311.936 139.725C311.748 139.684 311.549 139.663 311.338 139.663C310.576 139.663 310.028 139.859 309.694 140.252C309.36 140.639 309.193 141.289 309.193 142.203V146H306.688V137.378H309.158L309.105 139.593ZM319.96 140.797C319.89 140.252 319.69 139.842 319.362 139.566C319.04 139.285 318.598 139.145 318.035 139.145C317.473 139.145 317.021 139.285 316.682 139.566C316.348 139.842 316.134 140.252 316.04 140.797H319.96ZM322.438 142.309H315.961C316.061 142.93 316.286 143.396 316.638 143.706C316.989 144.011 317.467 144.163 318.07 144.163C318.527 144.163 318.92 144.075 319.248 143.899C319.582 143.724 319.86 143.457 320.083 143.1L322.104 144.11C321.636 144.866 321.067 145.429 320.399 145.798C319.731 146.161 318.938 146.343 318.018 146.343C316.623 146.343 315.519 145.927 314.704 145.095C313.89 144.263 313.482 143.144 313.482 141.737C313.482 140.384 313.907 139.271 314.757 138.397C315.612 137.524 316.705 137.088 318.035 137.088C319.406 137.088 320.49 137.498 321.287 138.318C322.084 139.133 322.482 140.246 322.482 141.658C322.482 141.734 322.479 141.819 322.474 141.913C322.468 142.001 322.456 142.133 322.438 142.309ZM323.493 144.488L325.418 143.495C325.482 143.829 325.655 144.093 325.937 144.286C326.218 144.479 326.566 144.576 326.982 144.576C327.393 144.576 327.715 144.503 327.949 144.356C328.184 144.204 328.301 143.996 328.301 143.732C328.301 143.316 327.885 142.968 327.053 142.687C326.795 142.599 326.59 142.525 326.438 142.467C325.424 142.086 324.721 141.702 324.328 141.315C323.941 140.929 323.748 140.451 323.748 139.883C323.748 139.039 324.079 138.356 324.741 137.835C325.403 137.313 326.276 137.053 327.36 137.053C328.134 137.053 328.802 137.208 329.364 137.519C329.933 137.829 330.346 138.269 330.604 138.837L328.767 139.751C328.667 139.429 328.494 139.186 328.248 139.021C328.002 138.852 327.694 138.767 327.325 138.767C326.956 138.767 326.657 138.843 326.429 138.995C326.2 139.147 326.086 139.347 326.086 139.593C326.086 140.021 326.654 140.419 327.791 140.788C327.926 140.829 328.028 140.861 328.099 140.885C329.042 141.195 329.713 141.559 330.111 141.975C330.51 142.385 330.709 142.909 330.709 143.548C330.709 144.403 330.378 145.083 329.716 145.587C329.054 146.091 328.16 146.343 327.035 146.343C326.145 146.343 325.383 146.179 324.75 145.851C324.123 145.517 323.704 145.062 323.493 144.488ZM338.9 141.676C338.9 140.902 338.704 140.29 338.312 139.839C337.925 139.388 337.4 139.162 336.738 139.162C336.059 139.162 335.522 139.388 335.13 139.839C334.743 140.284 334.55 140.896 334.55 141.676C334.55 142.455 334.74 143.062 335.121 143.495C335.508 143.929 336.041 144.146 336.721 144.146C337.412 144.146 337.948 143.929 338.329 143.495C338.71 143.062 338.9 142.455 338.9 141.676ZM341.186 146H338.76L338.795 144.761C338.455 145.306 338.045 145.707 337.564 145.965C337.09 146.217 336.51 146.343 335.824 146.343C334.682 146.343 333.759 145.918 333.056 145.068C332.358 144.219 332.01 143.097 332.01 141.702C332.01 140.249 332.353 139.118 333.038 138.31C333.729 137.495 334.688 137.088 335.912 137.088C336.551 137.088 337.11 137.231 337.591 137.519C338.077 137.806 338.484 138.233 338.812 138.802V137.378H341.186V146Z" fill="white"/>
</svg>
