<svg width="399" height="180" viewBox="0 0 399 180" fill="none" xmlns="http://www.w3.org/2000/svg">
<path d="M25.4067 146.4H14.3517C9.93341 146.4 6.35168 142.818 6.35168 138.4V11.2002" stroke="white" stroke-width="1.5"/>
<path d="M11.9534 5.66272C11.9534 8.2973 9.52868 10.5754 6.35168 10.5754C3.17467 10.5754 0.75 8.2973 0.75 5.66272C0.75 3.02814 3.17467 0.75 6.35168 0.75C9.52868 0.75 11.9534 3.02814 11.9534 5.66272Z" stroke="white" stroke-width="1.5"/>
<rect x="23.9" y="112" width="291" height="68" rx="10" fill="#002A61"/>
<path d="M50.442 129.032V127.628H44.268V141.2H45.78V134.468H50.298V133.064H45.78V129.032H50.442ZM54.5737 132.74H53.1337V141.2H54.5737V132.74ZM53.8537 128.528C53.2957 128.528 52.8277 128.996 52.8277 129.554C52.8277 130.13 53.2957 130.58 53.8537 130.58C54.4117 130.58 54.8797 130.13 54.8797 129.554C54.8797 128.996 54.4117 128.528 53.8537 128.528ZM59.0147 132.74H57.5747V141.2H59.0147V137.186C59.0147 135.674 59.1407 133.838 61.1207 133.838C62.7947 133.838 62.9027 135.062 62.9027 136.43V141.2H64.3427V136.178C64.3427 134.198 63.8027 132.506 61.4627 132.506C60.4187 132.506 59.6447 132.956 59.0507 133.766H59.0147V132.74ZM70.5944 133.838C72.3764 133.838 73.4384 135.206 73.4384 136.898C73.4384 138.608 72.4664 140.102 70.6124 140.102C68.8124 140.102 67.8404 138.536 67.8404 136.88C67.8404 135.296 68.9204 133.838 70.5944 133.838ZM74.8064 132.74H73.3664V133.946H73.3304C72.6284 133.046 71.5844 132.506 70.4324 132.506C67.8944 132.506 66.3644 134.576 66.3644 136.988C66.3644 139.328 67.9304 141.434 70.4144 141.434C71.6024 141.434 72.5924 140.966 73.3304 140.03H73.3664V141.2H74.8064V132.74ZM78.9131 132.74H77.4731V141.2H78.9131V137.186C78.9131 135.674 79.0391 133.838 81.0191 133.838C82.6931 133.838 82.8011 135.062 82.8011 136.43V141.2H84.2411V136.178C84.2411 134.198 83.7011 132.506 81.3611 132.506C80.3171 132.506 79.5431 132.956 78.9491 133.766H78.9131V132.74ZM93.2649 133.352C92.5089 132.812 91.5729 132.506 90.6549 132.506C88.1709 132.506 86.1369 134.45 86.1369 136.97C86.1369 139.526 88.0809 141.434 90.6369 141.434C91.6449 141.434 92.4909 141.128 93.3189 140.57V138.644H93.2829C92.5809 139.562 91.7349 140.102 90.5289 140.102C88.7649 140.102 87.6129 138.644 87.6129 136.97C87.6129 135.278 88.8549 133.838 90.6009 133.838C91.7349 133.838 92.5629 134.414 93.2289 135.26H93.2649V133.352ZM97.2534 132.74H95.8134V141.2H97.2534V132.74ZM96.5334 128.528C95.9754 128.528 95.5074 128.996 95.5074 129.554C95.5074 130.13 95.9754 130.58 96.5334 130.58C97.0914 130.58 97.5594 130.13 97.5594 129.554C97.5594 128.996 97.0914 128.528 96.5334 128.528ZM103.764 133.838C105.546 133.838 106.608 135.206 106.608 136.898C106.608 138.608 105.636 140.102 103.782 140.102C101.982 140.102 101.01 138.536 101.01 136.88C101.01 135.296 102.09 133.838 103.764 133.838ZM107.976 132.74H106.536V133.946H106.5C105.798 133.046 104.754 132.506 103.602 132.506C101.064 132.506 99.5344 134.576 99.5344 136.988C99.5344 139.328 101.1 141.434 103.584 141.434C104.772 141.434 105.762 140.966 106.5 140.03H106.536V141.2H107.976V132.74ZM112.083 132.74H110.643V141.2H112.083V136.826C112.083 135.548 112.263 133.838 113.955 133.838C115.341 133.838 115.467 135.35 115.467 136.394V141.2H116.907V136.718C116.907 135.44 117.087 133.838 118.743 133.838C120.219 133.838 120.291 135.188 120.291 136.286V141.2H121.731V136.052C121.731 134.27 121.191 132.506 119.031 132.506C118.005 132.506 116.997 132.974 116.493 133.91C116.043 133.028 115.143 132.506 114.153 132.506C113.289 132.506 112.569 132.956 112.119 133.658H112.083V132.74ZM126.169 132.74H124.729V141.2H126.169V132.74ZM125.449 128.528C124.891 128.528 124.423 128.996 124.423 129.554C124.423 130.13 124.891 130.58 125.449 130.58C126.007 130.58 126.475 130.13 126.475 129.554C126.475 128.996 126.007 128.528 125.449 128.528ZM136.532 137.276C136.676 134.756 135.236 132.506 132.518 132.506C129.872 132.506 128.414 134.576 128.414 137.078C128.414 139.508 130.034 141.434 132.554 141.434C134.282 141.434 135.65 140.57 136.46 139.058L135.236 138.356C134.678 139.364 133.886 140.102 132.662 140.102C131.024 140.102 129.908 138.842 129.89 137.276H136.532ZM129.962 136.052C130.142 134.828 131.294 133.838 132.536 133.838C133.796 133.838 134.822 134.828 135.02 136.052H129.962ZM139.944 132.74H138.504V141.2H139.944V137.186C139.944 135.674 140.07 133.838 142.05 133.838C143.724 133.838 143.832 135.062 143.832 136.43V141.2H145.272V136.178C145.272 134.198 144.732 132.506 142.392 132.506C141.348 132.506 140.574 132.956 139.98 133.766H139.944V132.74ZM149.526 134.072H151.038V132.74H149.526V129.698H148.086V132.74H147.204V134.072H148.086V141.2H149.526V134.072ZM156.028 141.434C158.494 141.434 160.474 139.472 160.474 136.988C160.474 134.504 158.512 132.506 156.028 132.506C153.544 132.506 151.582 134.504 151.582 136.988C151.582 139.472 153.562 141.434 156.028 141.434ZM156.028 133.838C157.81 133.838 159.034 135.26 159.034 136.97C159.034 138.698 157.81 140.102 156.028 140.102C154.246 140.102 153.022 138.698 153.022 136.97C153.022 135.26 154.246 133.838 156.028 133.838ZM171.493 133.838C173.275 133.838 174.337 135.206 174.337 136.898C174.337 138.608 173.365 140.102 171.511 140.102C169.711 140.102 168.739 138.536 168.739 136.88C168.739 135.296 169.819 133.838 171.493 133.838ZM175.705 132.74H174.265V133.946H174.229C173.527 133.046 172.483 132.506 171.331 132.506C168.793 132.506 167.263 134.576 167.263 136.988C167.263 139.328 168.829 141.434 171.313 141.434C172.501 141.434 173.491 140.966 174.229 140.03H174.265V141.2H175.705V132.74ZM186.915 126.26V141.2H183.657V126.26H186.915ZM192.165 136.556C192.165 136.856 192.219 137.138 192.327 137.402C192.435 137.654 192.579 137.876 192.759 138.068C192.951 138.26 193.173 138.41 193.425 138.518C193.689 138.626 193.971 138.68 194.271 138.68C194.559 138.68 194.829 138.626 195.081 138.518C195.345 138.41 195.567 138.26 195.747 138.068C195.939 137.876 196.089 137.654 196.197 137.402C196.317 137.15 196.377 136.88 196.377 136.592C196.377 136.304 196.317 136.034 196.197 135.782C196.089 135.518 195.939 135.29 195.747 135.098C195.567 134.906 195.345 134.756 195.081 134.648C194.829 134.54 194.559 134.486 194.271 134.486C193.971 134.486 193.689 134.54 193.425 134.648C193.173 134.756 192.951 134.906 192.759 135.098C192.579 135.29 192.435 135.512 192.327 135.764C192.219 136.004 192.165 136.268 192.165 136.556ZM196.269 131.966H199.545V141.2H196.269V140.174C195.573 141.05 194.631 141.488 193.443 141.488C192.771 141.488 192.153 141.368 191.589 141.128C191.025 140.876 190.533 140.528 190.113 140.084C189.693 139.64 189.363 139.118 189.123 138.518C188.895 137.918 188.781 137.264 188.781 136.556C188.781 135.896 188.895 135.272 189.123 134.684C189.351 134.084 189.669 133.562 190.077 133.118C190.485 132.674 190.971 132.326 191.535 132.074C192.099 131.81 192.723 131.678 193.407 131.678C194.559 131.678 195.513 132.08 196.269 132.884V131.966ZM201.762 131.966H205.02V133.478C205.368 132.926 205.794 132.506 206.298 132.218C206.802 131.918 207.39 131.768 208.062 131.768C208.146 131.768 208.236 131.768 208.332 131.768C208.44 131.768 208.56 131.78 208.692 131.804V134.918C208.26 134.702 207.792 134.594 207.288 134.594C206.532 134.594 205.962 134.822 205.578 135.278C205.206 135.722 205.02 136.376 205.02 137.24V141.2H201.762V131.966ZM213.259 136.538C213.259 136.838 213.313 137.12 213.421 137.384C213.529 137.636 213.673 137.858 213.853 138.05C214.045 138.242 214.267 138.392 214.519 138.5C214.783 138.608 215.065 138.662 215.365 138.662C215.653 138.662 215.923 138.608 216.175 138.5C216.439 138.392 216.661 138.242 216.841 138.05C217.033 137.858 217.183 137.636 217.291 137.384C217.411 137.12 217.471 136.844 217.471 136.556C217.471 136.256 217.411 135.98 217.291 135.728C217.183 135.476 217.033 135.254 216.841 135.062C216.649 134.87 216.421 134.72 216.157 134.612C215.905 134.504 215.641 134.45 215.365 134.45C215.077 134.45 214.807 134.51 214.555 134.63C214.303 134.738 214.081 134.888 213.889 135.08C213.697 135.26 213.541 135.476 213.421 135.728C213.313 135.98 213.259 136.25 213.259 136.538ZM220.567 131.966V140.57C220.567 141.086 220.537 141.548 220.477 141.956C220.417 142.364 220.333 142.724 220.225 143.036C220.081 143.432 219.853 143.798 219.541 144.134C219.241 144.482 218.875 144.782 218.443 145.034C218.011 145.286 217.519 145.484 216.967 145.628C216.427 145.772 215.839 145.844 215.203 145.844C214.483 145.844 213.823 145.754 213.223 145.574C212.623 145.394 212.095 145.142 211.639 144.818C211.195 144.506 210.829 144.134 210.541 143.702C210.253 143.282 210.061 142.82 209.965 142.316H213.637C213.865 142.928 214.381 143.234 215.185 143.234C215.869 143.234 216.391 143.042 216.751 142.658C217.123 142.274 217.309 141.74 217.309 141.056V140.174C217.069 140.402 216.835 140.594 216.607 140.75C216.391 140.894 216.169 141.014 215.941 141.11C215.713 141.206 215.473 141.272 215.221 141.308C214.969 141.356 214.693 141.38 214.393 141.38C213.733 141.38 213.127 141.266 212.575 141.038C212.023 140.81 211.543 140.492 211.135 140.084C210.739 139.676 210.427 139.19 210.199 138.626C209.983 138.05 209.875 137.414 209.875 136.718C209.875 136.01 209.995 135.356 210.235 134.756C210.475 134.144 210.799 133.616 211.207 133.172C211.627 132.716 212.119 132.362 212.683 132.11C213.259 131.846 213.883 131.714 214.555 131.714C215.647 131.714 216.565 132.122 217.309 132.938V131.966H220.567ZM225.864 136.538C225.864 136.85 225.918 137.138 226.026 137.402C226.146 137.654 226.296 137.876 226.476 138.068C226.668 138.26 226.89 138.41 227.142 138.518C227.406 138.626 227.682 138.68 227.97 138.68C228.258 138.68 228.528 138.626 228.78 138.518C229.044 138.41 229.266 138.26 229.446 138.068C229.638 137.876 229.788 137.654 229.896 137.402C230.016 137.138 230.076 136.856 230.076 136.556C230.076 136.268 230.016 135.998 229.896 135.746C229.788 135.482 229.638 135.254 229.446 135.062C229.266 134.87 229.044 134.72 228.78 134.612C228.528 134.504 228.258 134.45 227.97 134.45C227.682 134.45 227.406 134.504 227.142 134.612C226.89 134.72 226.668 134.87 226.476 135.062C226.296 135.254 226.146 135.476 226.026 135.728C225.918 135.98 225.864 136.25 225.864 136.538ZM222.426 136.502C222.426 135.818 222.564 135.182 222.84 134.594C223.116 133.994 223.5 133.478 223.992 133.046C224.484 132.602 225.066 132.254 225.738 132.002C226.422 131.75 227.166 131.624 227.97 131.624C228.762 131.624 229.494 131.75 230.166 132.002C230.85 132.242 231.438 132.584 231.93 133.028C232.434 133.46 232.824 133.982 233.1 134.594C233.376 135.194 233.514 135.86 233.514 136.592C233.514 137.324 233.37 137.996 233.082 138.608C232.806 139.208 232.422 139.73 231.93 140.174C231.438 140.606 230.844 140.942 230.148 141.182C229.464 141.422 228.72 141.542 227.916 141.542C227.124 141.542 226.392 141.422 225.72 141.182C225.048 140.942 224.466 140.6 223.974 140.156C223.494 139.712 223.116 139.184 222.84 138.572C222.564 137.948 222.426 137.258 222.426 136.502ZM248.868 136.61C248.868 136.322 248.814 136.052 248.706 135.8C248.61 135.536 248.466 135.308 248.274 135.116C248.082 134.924 247.854 134.774 247.59 134.666C247.338 134.546 247.062 134.486 246.762 134.486C246.474 134.486 246.204 134.54 245.952 134.648C245.7 134.756 245.478 134.906 245.286 135.098C245.106 135.29 244.956 135.518 244.836 135.782C244.728 136.034 244.674 136.304 244.674 136.592C244.674 136.88 244.728 137.15 244.836 137.402C244.944 137.654 245.094 137.876 245.286 138.068C245.478 138.248 245.7 138.398 245.952 138.518C246.216 138.626 246.492 138.68 246.78 138.68C247.068 138.68 247.338 138.626 247.59 138.518C247.842 138.41 248.058 138.26 248.238 138.068C248.43 137.876 248.58 137.654 248.688 137.402C248.808 137.15 248.868 136.886 248.868 136.61ZM244.764 145.808H241.506V131.966H244.764V132.992C245.46 132.116 246.408 131.678 247.608 131.678C248.268 131.678 248.88 131.81 249.444 132.074C250.02 132.326 250.518 132.674 250.938 133.118C251.358 133.562 251.682 134.084 251.91 134.684C252.15 135.284 252.27 135.926 252.27 136.61C252.27 137.294 252.15 137.93 251.91 138.518C251.682 139.106 251.358 139.622 250.938 140.066C250.53 140.51 250.044 140.858 249.48 141.11C248.916 141.362 248.304 141.488 247.644 141.488C246.492 141.488 245.532 141.092 244.764 140.3V145.808ZM257.385 126.26V141.2H254.127V126.26H257.385ZM262.636 136.556C262.636 136.856 262.69 137.138 262.798 137.402C262.906 137.654 263.05 137.876 263.23 138.068C263.422 138.26 263.644 138.41 263.896 138.518C264.16 138.626 264.442 138.68 264.742 138.68C265.03 138.68 265.3 138.626 265.552 138.518C265.816 138.41 266.038 138.26 266.218 138.068C266.41 137.876 266.56 137.654 266.668 137.402C266.788 137.15 266.848 136.88 266.848 136.592C266.848 136.304 266.788 136.034 266.668 135.782C266.56 135.518 266.41 135.29 266.218 135.098C266.038 134.906 265.816 134.756 265.552 134.648C265.3 134.54 265.03 134.486 264.742 134.486C264.442 134.486 264.16 134.54 263.896 134.648C263.644 134.756 263.422 134.906 263.23 135.098C263.05 135.29 262.906 135.512 262.798 135.764C262.69 136.004 262.636 136.268 262.636 136.556ZM266.74 131.966H270.016V141.2H266.74V140.174C266.044 141.05 265.102 141.488 263.914 141.488C263.242 141.488 262.624 141.368 262.06 141.128C261.496 140.876 261.004 140.528 260.584 140.084C260.164 139.64 259.834 139.118 259.594 138.518C259.366 137.918 259.252 137.264 259.252 136.556C259.252 135.896 259.366 135.272 259.594 134.684C259.822 134.084 260.14 133.562 260.548 133.118C260.956 132.674 261.442 132.326 262.006 132.074C262.57 131.81 263.194 131.678 263.878 131.678C265.03 131.678 265.984 132.08 266.74 132.884V131.966ZM276.985 138.482H280.873V141.2H271.513L275.869 134.684H272.107V131.966H281.305L276.985 138.482ZM285.91 136.538C285.91 136.85 285.964 137.138 286.072 137.402C286.192 137.654 286.342 137.876 286.522 138.068C286.714 138.26 286.936 138.41 287.188 138.518C287.452 138.626 287.728 138.68 288.016 138.68C288.304 138.68 288.574 138.626 288.826 138.518C289.09 138.41 289.312 138.26 289.492 138.068C289.684 137.876 289.834 137.654 289.942 137.402C290.062 137.138 290.122 136.856 290.122 136.556C290.122 136.268 290.062 135.998 289.942 135.746C289.834 135.482 289.684 135.254 289.492 135.062C289.312 134.87 289.09 134.72 288.826 134.612C288.574 134.504 288.304 134.45 288.016 134.45C287.728 134.45 287.452 134.504 287.188 134.612C286.936 134.72 286.714 134.87 286.522 135.062C286.342 135.254 286.192 135.476 286.072 135.728C285.964 135.98 285.91 136.25 285.91 136.538ZM282.472 136.502C282.472 135.818 282.61 135.182 282.886 134.594C283.162 133.994 283.546 133.478 284.038 133.046C284.53 132.602 285.112 132.254 285.784 132.002C286.468 131.75 287.212 131.624 288.016 131.624C288.808 131.624 289.54 131.75 290.212 132.002C290.896 132.242 291.484 132.584 291.976 133.028C292.48 133.46 292.87 133.982 293.146 134.594C293.422 135.194 293.56 135.86 293.56 136.592C293.56 137.324 293.416 137.996 293.128 138.608C292.852 139.208 292.468 139.73 291.976 140.174C291.484 140.606 290.89 140.942 290.194 141.182C289.51 141.422 288.766 141.542 287.962 141.542C287.17 141.542 286.438 141.422 285.766 141.182C285.094 140.942 284.512 140.6 284.02 140.156C283.54 139.712 283.162 139.184 282.886 138.572C282.61 137.948 282.472 137.258 282.472 136.502ZM48.318 156.838C50.1 156.838 51.162 158.206 51.162 159.898C51.162 161.608 50.19 163.102 48.336 163.102C46.536 163.102 45.564 161.536 45.564 159.88C45.564 158.296 46.644 156.838 48.318 156.838ZM45.636 155.74H44.196V168.952H45.636V163.012H45.672C46.356 163.93 47.418 164.434 48.57 164.434C51.108 164.434 52.638 162.4 52.638 159.988C52.638 157.648 51.072 155.506 48.588 155.506C47.418 155.506 46.374 156.01 45.672 156.946H45.636V155.74ZM58.1667 156.838C59.9487 156.838 61.0107 158.206 61.0107 159.898C61.0107 161.608 60.0387 163.102 58.1847 163.102C56.3847 163.102 55.4127 161.536 55.4127 159.88C55.4127 158.296 56.4927 156.838 58.1667 156.838ZM62.3787 155.74H60.9387V156.946H60.9027C60.2007 156.046 59.1567 155.506 58.0047 155.506C55.4667 155.506 53.9367 157.576 53.9367 159.988C53.9367 162.328 55.5027 164.434 57.9867 164.434C59.1747 164.434 60.1647 163.966 60.9027 163.03H60.9387V164.2H62.3787V155.74ZM66.4134 155.74H64.9734V164.2H66.4134V159.97C66.4134 158.872 66.4854 156.838 68.0694 156.838C68.4474 156.838 68.6454 157.018 68.9334 157.216L69.6174 155.902C69.2034 155.668 68.8074 155.506 68.3214 155.506C67.3854 155.506 66.9534 155.992 66.4494 156.658H66.4134V155.74ZM74.5847 156.838C76.3667 156.838 77.4287 158.206 77.4287 159.898C77.4287 161.608 76.4567 163.102 74.6027 163.102C72.8027 163.102 71.8307 161.536 71.8307 159.88C71.8307 158.296 72.9107 156.838 74.5847 156.838ZM78.7967 155.74H77.3567V156.946H77.3207C76.6187 156.046 75.5747 155.506 74.4227 155.506C71.8847 155.506 70.3547 157.576 70.3547 159.988C70.3547 162.328 71.9207 164.434 74.4047 164.434C75.5927 164.434 76.5827 163.966 77.3207 163.03H77.3567V164.2H78.7967V155.74ZM90.5104 156.838C92.2924 156.838 93.3544 158.206 93.3544 159.898C93.3544 161.608 92.3824 163.102 90.5284 163.102C88.7284 163.102 87.7564 161.536 87.7564 159.88C87.7564 158.296 88.8364 156.838 90.5104 156.838ZM93.2824 164.2H94.7224V149.35H93.2824V156.946H93.2464C92.5624 156.046 91.4824 155.506 90.3484 155.506C87.8104 155.506 86.2804 157.576 86.2804 159.988C86.2804 162.328 87.8464 164.434 90.3304 164.434C91.4824 164.434 92.5444 163.948 93.2464 163.03H93.2824V164.2ZM100.899 156.838C102.681 156.838 103.743 158.206 103.743 159.898C103.743 161.608 102.771 163.102 100.917 163.102C99.1171 163.102 98.1451 161.536 98.1451 159.88C98.1451 158.296 99.2251 156.838 100.899 156.838ZM105.111 155.74H103.671V156.946H103.635C102.933 156.046 101.889 155.506 100.737 155.506C98.1991 155.506 96.6691 157.576 96.6691 159.988C96.6691 162.328 98.2351 164.434 100.719 164.434C101.907 164.434 102.897 163.966 103.635 163.03H103.671V164.2H105.111V155.74ZM109.146 155.74H107.706V164.2H109.146V159.97C109.146 158.872 109.218 156.838 110.802 156.838C111.18 156.838 111.378 157.018 111.666 157.216L112.35 155.902C111.936 155.668 111.54 155.506 111.054 155.506C110.118 155.506 109.686 155.992 109.182 156.658H109.146V155.74ZM115.211 149.35H113.771V164.2H115.211V149.35ZM125.247 160.276C125.391 157.756 123.951 155.506 121.233 155.506C118.587 155.506 117.129 157.576 117.129 160.078C117.129 162.508 118.749 164.434 121.269 164.434C122.997 164.434 124.365 163.57 125.175 162.058L123.951 161.356C123.393 162.364 122.601 163.102 121.377 163.102C119.739 163.102 118.623 161.842 118.605 160.276H125.247ZM118.677 159.052C118.857 157.828 120.009 156.838 121.251 156.838C122.511 156.838 123.537 157.828 123.735 159.052H118.677ZM133.044 155.74H131.406L135.564 164.758L139.704 155.74H138.084L135.564 161.428L133.044 155.74ZM142.798 155.74H141.358V164.2H142.798V155.74ZM142.078 151.528C141.52 151.528 141.052 151.996 141.052 152.554C141.052 153.13 141.52 153.58 142.078 153.58C142.636 153.58 143.104 153.13 143.104 152.554C143.104 151.996 142.636 151.528 142.078 151.528ZM149.309 156.838C151.091 156.838 152.153 158.206 152.153 159.898C152.153 161.608 151.181 163.102 149.327 163.102C147.527 163.102 146.555 161.536 146.555 159.88C146.555 158.296 147.635 156.838 149.309 156.838ZM152.081 164.2H153.521V149.35H152.081V156.946H152.045C151.361 156.046 150.281 155.506 149.147 155.506C146.609 155.506 145.079 157.576 145.079 159.988C145.079 162.328 146.645 164.434 149.129 164.434C150.281 164.434 151.343 163.948 152.045 163.03H152.081V164.2ZM159.698 156.838C161.48 156.838 162.542 158.206 162.542 159.898C162.542 161.608 161.57 163.102 159.716 163.102C157.916 163.102 156.944 161.536 156.944 159.88C156.944 158.296 158.024 156.838 159.698 156.838ZM163.91 155.74H162.47V156.946H162.434C161.732 156.046 160.688 155.506 159.536 155.506C156.998 155.506 155.468 157.576 155.468 159.988C155.468 162.328 157.034 164.434 159.518 164.434C160.706 164.434 161.696 163.966 162.434 163.03H162.47V164.2H163.91V155.74ZM175.624 156.838C177.406 156.838 178.468 158.206 178.468 159.898C178.468 161.608 177.496 163.102 175.642 163.102C173.842 163.102 172.87 161.536 172.87 159.88C172.87 158.296 173.95 156.838 175.624 156.838ZM179.836 155.74H178.396V156.946H178.36C177.658 156.046 176.614 155.506 175.462 155.506C172.924 155.506 171.394 157.576 171.394 159.988C171.394 162.328 172.96 164.434 175.444 164.434C176.632 164.434 177.622 163.966 178.36 163.03H178.396V164.2H179.836V155.74ZM189.552 157.072H191.064V155.74H189.552V152.698H188.112V155.74H187.23V157.072H188.112V164.2H189.552V157.072ZM193.696 155.74H192.256V160.618C192.256 162.868 193.102 164.434 195.604 164.434C198.106 164.434 198.952 162.868 198.952 160.618V155.74H197.512V160.456C197.512 161.878 197.35 163.102 195.604 163.102C193.858 163.102 193.696 161.878 193.696 160.456V155.74ZM206.201 157.072C205.823 156.19 204.923 155.506 203.951 155.506C202.583 155.506 201.431 156.478 201.431 157.9C201.431 160.564 205.247 159.916 205.247 161.806C205.247 162.58 204.653 163.102 203.879 163.102C202.925 163.102 202.511 162.544 202.151 161.752L200.873 162.292C201.323 163.624 202.439 164.434 203.861 164.434C205.427 164.434 206.723 163.282 206.723 161.68C206.723 160.258 205.751 159.664 204.761 159.25C203.771 158.836 202.799 158.548 202.799 157.774C202.799 157.234 203.339 156.838 203.843 156.838C204.365 156.838 204.797 157.252 204.995 157.702L206.201 157.072ZM218.351 156.838C220.133 156.838 221.195 158.206 221.195 159.898C221.195 161.608 220.223 163.102 218.369 163.102C216.569 163.102 215.597 161.536 215.597 159.88C215.597 158.296 216.677 156.838 218.351 156.838ZM215.669 155.74H214.229V168.952H215.669V163.012H215.705C216.389 163.93 217.451 164.434 218.603 164.434C221.141 164.434 222.671 162.4 222.671 159.988C222.671 157.648 221.105 155.506 218.621 155.506C217.451 155.506 216.407 156.01 215.705 156.946H215.669V155.74ZM226.058 155.74H224.618V164.2H226.058V159.97C226.058 158.872 226.13 156.838 227.714 156.838C228.092 156.838 228.29 157.018 228.578 157.216L229.262 155.902C228.848 155.668 228.452 155.506 227.966 155.506C227.03 155.506 226.598 155.992 226.094 156.658H226.058V155.74ZM234.409 164.434C236.875 164.434 238.855 162.472 238.855 159.988C238.855 157.504 236.893 155.506 234.409 155.506C231.925 155.506 229.963 157.504 229.963 159.988C229.963 162.472 231.943 164.434 234.409 164.434ZM234.409 156.838C236.191 156.838 237.415 158.26 237.415 159.97C237.415 161.698 236.191 163.102 234.409 163.102C232.627 163.102 231.403 161.698 231.403 159.97C231.403 158.26 232.627 156.838 234.409 156.838ZM243.311 163.408L240.575 168.952H242.213L248.459 155.74H246.821L244.085 161.806L241.097 155.74H239.423L243.311 163.408ZM257.153 160.276C257.297 157.756 255.857 155.506 253.139 155.506C250.493 155.506 249.035 157.576 249.035 160.078C249.035 162.508 250.655 164.434 253.175 164.434C254.903 164.434 256.271 163.57 257.081 162.058L255.857 161.356C255.299 162.364 254.507 163.102 253.283 163.102C251.645 163.102 250.529 161.842 250.511 160.276H257.153ZM250.583 159.052C250.763 157.828 251.915 156.838 253.157 156.838C254.417 156.838 255.443 157.828 255.641 159.052H250.583ZM265.407 156.352C264.651 155.812 263.715 155.506 262.797 155.506C260.313 155.506 258.279 157.45 258.279 159.97C258.279 162.526 260.223 164.434 262.779 164.434C263.787 164.434 264.633 164.128 265.461 163.57V161.644H265.425C264.723 162.562 263.877 163.102 262.671 163.102C260.907 163.102 259.755 161.644 259.755 159.97C259.755 158.278 260.997 156.838 262.743 156.838C263.877 156.838 264.705 157.414 265.371 158.26H265.407V156.352ZM269.198 157.072H270.71V155.74H269.198V152.698H267.758V155.74H266.876V157.072H267.758V164.2H269.198V157.072ZM275.7 164.434C278.166 164.434 280.146 162.472 280.146 159.988C280.146 157.504 278.184 155.506 275.7 155.506C273.216 155.506 271.254 157.504 271.254 159.988C271.254 162.472 273.234 164.434 275.7 164.434ZM275.7 156.838C277.482 156.838 278.706 158.26 278.706 159.97C278.706 161.698 277.482 163.102 275.7 163.102C273.918 163.102 272.694 161.698 272.694 159.97C272.694 158.26 273.918 156.838 275.7 156.838ZM286.744 157.072C286.366 156.19 285.466 155.506 284.494 155.506C283.126 155.506 281.974 156.478 281.974 157.9C281.974 160.564 285.79 159.916 285.79 161.806C285.79 162.58 285.196 163.102 284.422 163.102C283.468 163.102 283.054 162.544 282.694 161.752L281.416 162.292C281.866 163.624 282.982 164.434 284.404 164.434C285.97 164.434 287.266 163.282 287.266 161.68C287.266 160.258 286.294 159.664 285.304 159.25C284.314 158.836 283.342 158.548 283.342 157.774C283.342 157.234 283.882 156.838 284.386 156.838C284.908 156.838 285.34 157.252 285.538 157.702L286.744 157.072Z" fill="white"/>
<path d="M23.4625 31V8.125H36.9313V12.25H28.3531V16.9531H36.9313V21.1094H28.3531V26.8438H36.9313V31H23.4625ZM41.7438 31V8.125H46.6344V26.8438H54.4469V31H41.7438ZM85.7906 14.0781C84.8011 13.1927 83.7854 12.5469 82.7438 12.1406C81.7021 11.724 80.5875 11.5156 79.4 11.5156C76.9625 11.5156 75.0198 12.2448 73.5719 13.7031C72.124 15.1615 71.4 17.1198 71.4 19.5781C71.4 21.9844 72.0719 23.8958 73.4156 25.3125C74.7594 26.7188 76.5927 27.4219 78.9156 27.4219C80.2386 27.4219 81.4677 27.2031 82.6031 26.7656C83.7386 26.3177 84.7906 25.651 85.7594 24.7656L85.7281 29.7812C84.6865 30.3958 83.5927 30.8542 82.4469 31.1562C81.3115 31.4583 80.1136 31.6094 78.8531 31.6094C75.2073 31.6094 72.2125 30.4792 69.8688 28.2188C67.5354 25.9479 66.3688 23.0677 66.3688 19.5781C66.3688 16.099 67.5406 13.2292 69.8844 10.9688C72.2281 8.70833 75.249 7.57812 78.9469 7.57812C80.1865 7.57812 81.3844 7.70833 82.5406 7.96875C83.6969 8.22917 84.8375 8.63021 85.9625 9.17188L85.7906 14.0781ZM102.181 22.2969L99.6188 14.9062C99.5459 14.6875 99.4521 14.3125 99.3375 13.7812C99.2229 13.25 99.1031 12.599 98.9781 11.8281C98.8427 12.5677 98.7125 13.2344 98.5875 13.8281C98.4625 14.4115 98.3688 14.8021 98.3063 15L95.8375 22.2969H102.181ZM87.6188 31L96.3219 8.125H101.916L110.744 31H105.181L103.322 26.1406H94.4625L92.8688 31H87.6188ZM118.072 18.4531H118.775C120.108 18.4531 121.077 18.1771 121.681 17.625C122.285 17.0729 122.588 16.1875 122.588 14.9688C122.588 13.8438 122.285 13.026 121.681 12.5156C121.077 11.9948 120.108 11.7344 118.775 11.7344H118.072V18.4531ZM113.15 31V8.125H118.775C121.775 8.125 123.989 8.69792 125.416 9.84375C126.853 10.9896 127.572 12.7604 127.572 15.1562C127.572 17.375 126.848 19.1146 125.4 20.375C123.963 21.6354 121.968 22.2656 119.416 22.2656H118.072V31H113.15ZM131.056 31V8.125H135.947V31H131.056ZM149.728 12.2812V31H144.822V12.2812H139.228V8.125H155.353V12.2812H149.728ZM168.619 22.2969L166.056 14.9062C165.983 14.6875 165.89 14.3125 165.775 13.7812C165.66 13.25 165.541 12.599 165.416 11.8281C165.28 12.5677 165.15 13.2344 165.025 13.8281C164.9 14.4115 164.806 14.8021 164.744 15L162.275 22.2969H168.619ZM154.056 31L162.759 8.125H168.353L177.181 31H171.619L169.759 26.1406H160.9L159.306 31H154.056ZM179.588 31V8.125H184.478V26.8438H192.291V31H179.588ZM210.134 18.4531H210.838C212.171 18.4531 213.14 18.1771 213.744 17.625C214.348 17.0729 214.65 16.1875 214.65 14.9688C214.65 13.8438 214.348 13.026 213.744 12.5156C213.14 11.9948 212.171 11.7344 210.838 11.7344H210.134V18.4531ZM205.213 31V8.125H210.838C213.838 8.125 216.051 8.69792 217.478 9.84375C218.916 10.9896 219.634 12.7604 219.634 15.1562C219.634 17.375 218.91 19.1146 217.463 20.375C216.025 21.6354 214.03 22.2656 211.478 22.2656H210.134V31H205.213ZM233.275 22.2969L230.713 14.9062C230.64 14.6875 230.546 14.3125 230.431 13.7812C230.317 13.25 230.197 12.599 230.072 11.8281C229.936 12.5677 229.806 13.2344 229.681 13.8281C229.556 14.4115 229.463 14.8021 229.4 15L226.931 22.2969H233.275ZM218.713 31L227.416 8.125H233.009L241.838 31H236.275L234.416 26.1406H225.556L223.963 31H218.713ZM260.791 31H255.15L249.134 20.3125V31H244.244V8.125H251.244C254.025 8.125 256.108 8.66667 257.494 9.75C258.879 10.8229 259.572 12.4427 259.572 14.6094C259.572 16.1823 259.098 17.526 258.15 18.6406C257.202 19.7552 255.978 20.4062 254.478 20.5938L260.791 31ZM249.134 17.875H249.869C251.848 17.875 253.155 17.6615 253.791 17.2344C254.426 16.7969 254.744 16.0417 254.744 14.9688C254.744 13.8438 254.4 13.0469 253.713 12.5781C253.035 12.099 251.754 11.8594 249.869 11.8594H249.134V17.875ZM275.494 22.2969L272.931 14.9062C272.858 14.6875 272.765 14.3125 272.65 13.7812C272.535 13.25 272.416 12.599 272.291 11.8281C272.155 12.5677 272.025 13.2344 271.9 13.8281C271.775 14.4115 271.681 14.8021 271.619 15L269.15 22.2969H275.494ZM260.931 31L269.634 8.125H275.228L284.056 31H278.494L276.634 26.1406H267.775L266.181 31H260.931ZM23.5563 69V46.125H28.4469V69H23.5563ZM31.6969 69L35.1813 46.125H40.3063L44.7125 59.5938C44.8063 59.875 44.9052 60.2865 45.0094 60.8281C45.124 61.3698 45.2281 61.9896 45.3219 62.6875C45.4052 61.9792 45.499 61.349 45.6031 60.7969C45.7073 60.2344 45.8063 59.8229 45.9 59.5625L50.3844 46.125H55.4313L58.9313 69H54.2906L52.6188 55.2031C52.4938 54.1823 52.4104 53.4115 52.3688 52.8906C52.3271 52.3698 52.3063 51.8854 52.3063 51.4375C52.3063 51.1979 52.3063 51.0208 52.3063 50.9062C52.3167 50.7812 52.3271 50.6719 52.3375 50.5781C52.1813 51.474 52.0302 52.25 51.8844 52.9062C51.749 53.5521 51.624 54.0417 51.5094 54.375L46.6656 69H43.9156L39.15 54.375C39.1084 54.2396 39.0146 53.8646 38.8688 53.25C38.7334 52.6354 38.5406 51.7396 38.2906 50.5625V51.2344C38.2906 52.2969 38.1969 53.599 38.0094 55.1406L37.9938 55.2031L36.3375 69H31.6969ZM67.0406 56.4531H67.7438C69.0771 56.4531 70.0459 56.1771 70.65 55.625C71.2542 55.0729 71.5563 54.1875 71.5563 52.9688C71.5563 51.8438 71.2542 51.026 70.65 50.5156C70.0459 49.9948 69.0771 49.7344 67.7438 49.7344H67.0406V56.4531ZM62.1188 69V46.125H67.7438C70.7438 46.125 72.9573 46.6979 74.3844 47.8438C75.8219 48.9896 76.5406 50.7604 76.5406 53.1562C76.5406 55.375 75.8167 57.1146 74.3688 58.375C72.9313 59.6354 70.9365 60.2656 68.3844 60.2656H67.0406V69H62.1188ZM99.6031 46.125V60.3594C99.6031 63.4635 98.7854 65.7812 97.15 67.3125C95.5146 68.8438 93.0511 69.6094 89.7594 69.6094C86.4156 69.6094 83.9261 68.8438 82.2906 67.3125C80.6552 65.7812 79.8375 63.4635 79.8375 60.3594V46.125H84.6969V59.5938C84.6969 61.4792 85.1136 62.901 85.9469 63.8594C86.7802 64.8073 88.025 65.2812 89.6813 65.2812C91.3479 65.2812 92.6084 64.8021 93.4625 63.8438C94.3167 62.8854 94.7438 61.4688 94.7438 59.5938V46.125H99.6031ZM104.681 69V46.125H109.572V64.8438H117.384V69H104.681ZM118.994 66.0938L121.713 63.0156C122.056 63.8594 122.608 64.526 123.369 65.0156C124.129 65.4948 124.983 65.7344 125.931 65.7344C127.077 65.7344 127.983 65.4635 128.65 64.9219C129.317 64.3802 129.65 63.651 129.65 62.7344C129.65 61.651 128.541 60.5729 126.322 59.5C125.603 59.1562 125.035 58.875 124.619 58.6562C122.619 57.6146 121.233 56.599 120.463 55.6094C119.692 54.6094 119.306 53.4219 119.306 52.0469C119.306 50.1615 120.051 48.6146 121.541 47.4062C123.041 46.1875 124.983 45.5781 127.369 45.5781C128.754 45.5781 129.947 45.8229 130.947 46.3125C131.957 46.7917 132.848 47.5469 133.619 48.5781L130.728 51.3438C130.384 50.6771 129.926 50.1823 129.353 49.8594C128.791 49.526 128.108 49.3594 127.306 49.3594C126.338 49.3594 125.556 49.6042 124.963 50.0938C124.369 50.5729 124.072 51.1979 124.072 51.9688C124.072 53.1771 125.249 54.2812 127.603 55.2812C128.072 55.4792 128.431 55.6354 128.681 55.75C130.619 56.6354 132.051 57.6354 132.978 58.75C133.916 59.8646 134.384 61.1354 134.384 62.5625C134.384 64.7083 133.65 66.4219 132.181 67.7031C130.723 68.974 128.759 69.6094 126.291 69.6094C124.541 69.6094 123.041 69.3073 121.791 68.7031C120.541 68.099 119.608 67.2292 118.994 66.0938ZM150.244 60.2969L147.681 52.9062C147.608 52.6875 147.515 52.3125 147.4 51.7812C147.285 51.25 147.166 50.599 147.041 49.8281C146.905 50.5677 146.775 51.2344 146.65 51.8281C146.525 52.4115 146.431 52.8021 146.369 53L143.9 60.2969H150.244ZM135.681 69L144.384 46.125H149.978L158.806 69H153.244L151.384 64.1406H142.525L140.931 69H135.681ZM177.759 69H172.119L166.103 58.3125V69H161.213V46.125H168.213C170.994 46.125 173.077 46.6667 174.463 47.75C175.848 48.8229 176.541 50.4427 176.541 52.6094C176.541 54.1823 176.067 55.526 175.119 56.6406C174.171 57.7552 172.947 58.4062 171.447 58.5938L177.759 69ZM166.103 55.875H166.838C168.817 55.875 170.124 55.6615 170.759 55.2344C171.395 54.7969 171.713 54.0417 171.713 52.9688C171.713 51.8438 171.369 51.0469 170.681 50.5781C170.004 50.099 168.723 49.8594 166.838 49.8594H166.103V55.875ZM199.009 50.2812V69H194.103V50.2812H188.509V46.125H204.634V50.2812H199.009ZM227.478 46.125V60.3594C227.478 63.4635 226.66 65.7812 225.025 67.3125C223.39 68.8438 220.926 69.6094 217.634 69.6094C214.291 69.6094 211.801 68.8438 210.166 67.3125C208.53 65.7812 207.713 63.4635 207.713 60.3594V46.125H212.572V59.5938C212.572 61.4792 212.989 62.901 213.822 63.8594C214.655 64.8073 215.9 65.2812 217.556 65.2812C219.223 65.2812 220.483 64.8021 221.338 63.8438C222.192 62.8854 222.619 61.4688 222.619 59.5938V46.125H227.478ZM242.4 69V46.125H247.478L257.603 59.4375C257.895 59.8125 258.213 60.3438 258.556 61.0312C258.91 61.7083 259.275 62.5104 259.65 63.4375C259.535 62.7604 259.452 62.0885 259.4 61.4219C259.348 60.7552 259.322 59.9219 259.322 58.9219V46.125H263.994V69H259.197L248.791 55.4375C248.499 55.0625 248.181 54.5365 247.838 53.8594C247.494 53.1719 247.129 52.3542 246.744 51.4062C246.858 52.0625 246.942 52.7292 246.994 53.4062C247.046 54.0729 247.072 54.9167 247.072 55.9375V69H242.4ZM269.088 69V46.125H282.556V50.25H273.978V54.9531H282.556V59.1094H273.978V64.8438H282.556V69H269.088ZM298.728 56.9375H309.15C309.171 57.0729 309.181 57.2188 309.181 57.375C309.192 57.5312 309.197 57.7708 309.197 58.0938C309.197 61.5208 308.218 64.2969 306.259 66.4219C304.301 68.5469 301.77 69.6094 298.666 69.6094C295.114 69.6094 292.186 68.4792 289.884 66.2188C287.582 63.9479 286.431 61.0677 286.431 57.5781C286.431 54.1198 287.588 51.2604 289.9 49C292.213 46.7396 295.134 45.6094 298.666 45.6094C300.53 45.6094 302.239 46 303.791 46.7812C305.343 47.5625 306.728 48.7292 307.947 50.2812L304.65 52.7188C303.827 51.6979 302.963 50.9635 302.056 50.5156C301.15 50.0573 300.103 49.8281 298.916 49.8281C296.655 49.8281 294.848 50.5312 293.494 51.9375C292.14 53.3438 291.463 55.224 291.463 57.5781C291.463 59.8906 292.14 61.7604 293.494 63.1875C294.858 64.6042 296.634 65.3125 298.822 65.3125C300.426 65.3125 301.728 64.9375 302.728 64.1875C303.728 63.4271 304.228 62.4375 304.228 61.2188V60.9688H298.728V56.9375ZM336.509 57.6094C336.509 59.2448 336.202 60.7917 335.588 62.25C334.983 63.7083 334.108 64.9896 332.963 66.0938C331.775 67.2292 330.436 68.099 328.947 68.7031C327.457 69.3073 325.916 69.6094 324.322 69.6094C322.926 69.6094 321.556 69.375 320.213 68.9062C318.879 68.4271 317.655 67.7448 316.541 66.8594C315.103 65.7135 313.999 64.3438 313.228 62.75C312.468 61.1562 312.088 59.4427 312.088 57.6094C312.088 55.9635 312.39 54.4219 312.994 52.9844C313.598 51.5365 314.483 50.25 315.65 49.125C316.796 48.0104 318.124 47.1458 319.634 46.5312C321.155 45.9167 322.718 45.6094 324.322 45.6094C325.916 45.6094 327.463 45.9167 328.963 46.5312C330.473 47.1458 331.806 48.0104 332.963 49.125C334.119 50.25 334.999 51.5365 335.603 52.9844C336.207 54.4323 336.509 55.974 336.509 57.6094ZM324.322 65.25C326.395 65.25 328.103 64.526 329.447 63.0781C330.801 61.6198 331.478 59.7969 331.478 57.6094C331.478 55.4427 330.796 53.6198 329.431 52.1406C328.067 50.6615 326.364 49.9219 324.322 49.9219C322.249 49.9219 320.53 50.6615 319.166 52.1406C317.801 53.6094 317.119 55.4323 317.119 57.6094C317.119 59.8177 317.791 61.6458 319.134 63.0938C320.478 64.5312 322.207 65.25 324.322 65.25ZM359.072 52.0781C358.082 51.1927 357.067 50.5469 356.025 50.1406C354.983 49.724 353.869 49.5156 352.681 49.5156C350.244 49.5156 348.301 50.2448 346.853 51.7031C345.405 53.1615 344.681 55.1198 344.681 57.5781C344.681 59.9844 345.353 61.8958 346.697 63.3125C348.041 64.7188 349.874 65.4219 352.197 65.4219C353.52 65.4219 354.749 65.2031 355.884 64.7656C357.02 64.3177 358.072 63.651 359.041 62.7656L359.009 67.7812C357.968 68.3958 356.874 68.8542 355.728 69.1562C354.593 69.4583 353.395 69.6094 352.134 69.6094C348.489 69.6094 345.494 68.4792 343.15 66.2188C340.817 63.9479 339.65 61.0677 339.65 57.5781C339.65 54.099 340.822 51.2292 343.166 48.9688C345.509 46.7083 348.53 45.5781 352.228 45.5781C353.468 45.5781 354.666 45.7083 355.822 45.9688C356.978 46.2292 358.119 46.6302 359.244 47.1719L359.072 52.0781ZM363.713 69V46.125H368.603V69H363.713ZM397.259 57.6094C397.259 59.2448 396.952 60.7917 396.338 62.25C395.733 63.7083 394.858 64.9896 393.713 66.0938C392.525 67.2292 391.186 68.099 389.697 68.7031C388.207 69.3073 386.666 69.6094 385.072 69.6094C383.676 69.6094 382.306 69.375 380.963 68.9062C379.629 68.4271 378.405 67.7448 377.291 66.8594C375.853 65.7135 374.749 64.3438 373.978 62.75C373.218 61.1562 372.838 59.4427 372.838 57.6094C372.838 55.9635 373.14 54.4219 373.744 52.9844C374.348 51.5365 375.233 50.25 376.4 49.125C377.546 48.0104 378.874 47.1458 380.384 46.5312C381.905 45.9167 383.468 45.6094 385.072 45.6094C386.666 45.6094 388.213 45.9167 389.713 46.5312C391.223 47.1458 392.556 48.0104 393.713 49.125C394.869 50.25 395.749 51.5365 396.353 52.9844C396.957 54.4323 397.259 55.974 397.259 57.6094ZM385.072 65.25C387.145 65.25 388.853 64.526 390.197 63.0781C391.551 61.6198 392.228 59.7969 392.228 57.6094C392.228 55.4427 391.546 53.6198 390.181 52.1406C388.817 50.6615 387.114 49.9219 385.072 49.9219C382.999 49.9219 381.28 50.6615 379.916 52.1406C378.551 53.6094 377.869 55.4323 377.869 57.6094C377.869 59.8177 378.541 61.6458 379.884 63.0938C381.228 64.5312 382.957 65.25 385.072 65.25Z" fill="white"/>
</svg>
