<svg width="524" height="186" viewBox="0 0 524 186" fill="none" xmlns="http://www.w3.org/2000/svg">
<path d="M40.322 6.03506H32.7254V45H51.071V38.3853H40.322V6.03506ZM78.2453 36.7833L81.2426 45H89.356L74.5762 5.00151H68.685L53.4917 45H61.5018L64.7058 36.7833H78.2453ZM76.1265 30.5819H66.8762L71.1655 16.4223H71.2688L76.1265 30.5819ZM120.665 28.0497H121.905C125.729 28.0497 129.863 28.2564 129.863 33.3209C129.863 38.3853 126.349 38.902 122.267 38.902H120.665V28.0497ZM113.068 45H125.006C132.085 45 137.46 41.5893 137.46 33.941C137.46 29.6517 135.393 25.0008 130.793 24.1739C133.222 22.6236 134.204 19.4196 134.204 16.629C134.204 8.87733 129.76 6.03506 122.525 6.03506H113.068V45ZM120.665 12.133H121.646C124.85 12.133 127.124 13.1666 127.124 17.1458C127.124 21.1766 125.316 22.2618 121.595 22.2618H120.665V12.133ZM166.36 36.7833L169.357 45H177.47L162.691 5.00151H156.799L141.606 45H149.616L152.82 36.7833H166.36ZM164.241 30.5819H154.991L159.28 16.4223H159.383L164.241 30.5819ZM183.014 45H190.611V18.541H190.714L211.23 45.7752H216.708V6.03506H209.112V32.2356H209.008L188.492 5.00151H183.014V45ZM251.502 7.27533C248.867 5.82835 245.869 5.00151 242.82 5.00151C231.4 5.00151 223.596 14.7686 223.596 25.8276C223.596 36.5765 231.71 46.0336 242.665 46.0336C245.818 46.0336 248.66 45.0517 251.502 43.7081V34.6645C249.383 37.0933 246.128 38.7987 242.872 38.7987C235.792 38.7987 231.451 32.2356 231.451 25.6726C231.451 18.9545 235.637 12.2364 242.924 12.2364C246.179 12.2364 249.383 13.7867 251.502 16.3706V7.27533ZM281.221 36.7833L284.219 45H292.332L277.552 5.00151H271.661L256.468 45H264.478L267.682 36.7833H281.221ZM279.103 30.5819H269.852L274.142 16.4223H274.245L279.103 30.5819ZM353.459 45.8785L348.136 39.5738C351.133 35.698 352.735 30.737 352.735 25.4659C352.735 14.5619 344.828 5.00151 333.459 5.00151C322.09 5.00151 314.184 14.5619 314.184 25.4659C314.184 36.6282 322.09 46.0336 333.459 46.0336C337.025 46.0336 340.488 45.155 343.123 43.398L345.81 46.6537L353.459 45.8785ZM338.989 29.3934L331.134 30.0135L337.542 37.4034C336.508 38.0752 334.855 38.6953 333.459 38.6953C326.018 38.6953 322.039 32.3907 322.039 25.931C322.039 19.2129 326.069 12.2364 333.459 12.2364C340.281 12.2364 344.88 18.9545 344.88 25.2591C344.88 27.9464 344.157 31.2021 342.451 33.3209L338.989 29.3934ZM359.491 29.3417C359.491 38.8504 363.522 46.0336 373.961 46.0336C384.399 46.0336 388.43 38.8504 388.43 29.3417V6.03506H380.834V27.843C380.834 32.649 380.42 39.4188 373.961 39.4188C367.501 39.4188 367.087 32.649 367.087 27.843V6.03506H359.491V29.3417ZM417.197 12.6498V6.03506H397.043V45H417.197V38.3853H404.639V27.843H416.732V21.2283H404.639V12.6498H417.197ZM456.335 12.6498H464.19V6.03506H440.883V12.6498H448.738V45H456.335V12.6498ZM470.012 29.3417C470.012 38.8504 474.043 46.0336 484.482 46.0336C494.921 46.0336 498.952 38.8504 498.952 29.3417V6.03506H491.355V27.843C491.355 32.649 490.942 39.4188 484.482 39.4188C478.022 39.4188 477.609 32.649 477.609 27.843V6.03506H470.012V29.3417ZM52.8797 64.6498V58.0351H32.7254V97H52.8797V90.3853H40.322V79.843H52.4146V73.2283H40.322V64.6498H52.8797ZM93.3836 97H101.032L95.1924 57.0015H89.7145L80.5159 82.6853L70.9039 57.0015H65.5294L58.9663 97H66.6146L70.077 72.8149H70.1804L78.7072 97.5168H81.3428L90.1796 72.8149H90.283L93.3836 97ZM115.214 82.4269H118.987C126.945 82.4269 131.441 78.3961 131.441 70.1276C131.441 61.2908 126.118 58.0351 117.953 58.0351H107.618V97H115.214V82.4269ZM115.214 64.3397H116.558C120.795 64.3397 123.689 65.0632 123.689 70.076C123.689 75.1404 121.261 76.1222 116.765 76.1222H115.214V64.3397ZM153.498 80.5665C158.717 79.688 161.456 74.7269 161.456 69.7659C161.456 61.4458 156.134 58.0351 148.434 58.0351H138.15V97H145.746V81.29H145.85L155.307 97H164.505L153.498 80.5665ZM145.746 64.2364H146.78C150.811 64.2364 153.86 65.1666 153.86 69.9726C153.86 74.7269 150.914 75.9672 146.728 75.9672H145.746V64.2364ZM190.35 64.6498V58.0351H170.196V97H190.35V90.3853H177.793V79.843H189.885V73.2283H177.793V64.6498H190.35ZM220.57 61.3424C218.193 58.7069 213.387 57.0015 209.925 57.0015C203.362 57.0015 198.556 62.2209 198.556 68.6807C198.556 74.7269 202.225 77.2591 207.238 79.3262C210.287 80.5148 214.007 81.6517 214.007 85.6826C214.007 88.6799 212.095 91.3155 208.995 91.3155C205.739 91.3155 203 88.6282 201.966 85.6309L197.057 90.4369C199.744 94.9329 203.672 98.0336 209.046 98.0336C217.005 98.0336 221.862 92.504 221.862 84.7007C221.862 71.6263 206.411 74.3652 206.411 67.8021C206.411 65.2699 208.736 63.4095 211.165 63.4095C213.697 63.4095 215.558 64.6498 217.005 66.6136L220.57 61.3424ZM250.588 88.7833L253.586 97H261.699L246.919 57.0015H241.028L225.835 97H233.845L237.049 88.7833H250.588ZM248.469 82.5819H239.219L243.508 68.4223H243.612L248.469 82.5819ZM285.411 97H293.007V70.541H293.111L313.627 97.7752H319.105V58.0351H311.508V84.2356H311.405L290.889 57.0015H285.411V97ZM348.007 64.6498V58.0351H327.853V97H348.007V90.3853H335.45V79.843H347.542V73.2283H335.45V64.6498H348.007ZM382.362 59.2753C379.726 57.8284 376.729 57.0015 373.68 57.0015C362.259 57.0015 354.456 66.7686 354.456 77.8276C354.456 88.5765 362.569 98.0336 373.525 98.0336C376.677 98.0336 379.519 97.0517 382.362 95.7081V86.6645C380.243 89.0933 376.987 90.7987 373.732 90.7987C366.652 90.7987 362.311 84.2356 362.311 77.6726C362.311 70.9545 366.497 64.2364 373.783 64.2364C377.039 64.2364 380.243 65.7867 382.362 68.3706V59.2753ZM410.737 64.6498V58.0351H390.583V97H410.737V90.3853H398.18V79.843H410.272V73.2283H398.18V64.6498H410.737ZM440.957 61.3424C438.58 58.7069 433.774 57.0015 430.312 57.0015C423.749 57.0015 418.943 62.2209 418.943 68.6807C418.943 74.7269 422.612 77.2591 427.625 79.3262C430.673 80.5148 434.394 81.6517 434.394 85.6826C434.394 88.6799 432.482 91.3155 429.382 91.3155C426.126 91.3155 423.387 88.6282 422.353 85.6309L417.444 90.4369C420.131 94.9329 424.059 98.0336 429.433 98.0336C437.392 98.0336 442.249 92.504 442.249 84.7007C442.249 71.6263 426.798 74.3652 426.798 67.8021C426.798 65.2699 429.123 63.4095 431.552 63.4095C434.084 63.4095 435.945 64.6498 437.392 66.6136L440.957 61.3424ZM457.074 58.0351H449.477V97H457.074V58.0351ZM478.489 64.6498H486.344V58.0351H463.038V64.6498H470.893V97H478.489V64.6498ZM509.733 88.7833L512.731 97H520.844L506.064 57.0015H500.173L484.98 97H492.99L496.194 88.7833H509.733ZM507.615 82.5819H498.364L502.654 68.4223H502.757L507.615 82.5819Z" fill="white"/>
<path d="M29.0687 142.113H16.1493C11.3925 142.113 7.53638 138.257 7.53638 133.501V15.0726" stroke="white" stroke-width="1.61493"/>
<path d="M13.589 7.62073C13.589 11.4276 10.685 14.434 7.19824 14.434C3.71148 14.434 0.807463 11.4276 0.807463 7.62073C0.807463 3.81386 3.71148 0.807463 7.19824 0.807463C10.685 0.807463 13.589 3.81386 13.589 7.62073Z" stroke="white" stroke-width="1.61493"/>
<rect x="26.9155" y="118.428" width="368.203" height="66.7503" rx="17.2259" fill="#002A61"/>
<path d="M49.0365 157.96V144.107H51.9225C52.9382 144.107 53.6857 144.161 54.1651 144.268C54.6509 144.369 55.0672 144.546 55.4142 144.798C55.8558 145.126 56.1964 145.549 56.4361 146.066C56.6822 146.577 56.8052 147.138 56.8052 147.75C56.8052 148.482 56.6285 149.094 56.2753 149.586C55.9283 150.078 55.4205 150.422 54.7518 150.617C55.5719 150.744 56.2185 151.113 56.6916 151.724C57.171 152.33 57.4108 153.097 57.4108 154.024C57.4108 154.579 57.3098 155.109 57.108 155.614C56.9061 156.118 56.6254 156.55 56.2658 156.91C55.8747 157.295 55.3921 157.566 54.818 157.724C54.244 157.881 53.2788 157.96 51.9225 157.96H49.0365ZM50.6451 151.469V156.522H51.9225C52.7994 156.522 53.4302 156.487 53.815 156.418C54.2061 156.348 54.5184 156.229 54.7518 156.058C55.0357 155.856 55.2596 155.576 55.4236 155.216C55.5877 154.857 55.6697 154.459 55.6697 154.024C55.6697 153.519 55.5719 153.081 55.3763 152.709C55.1808 152.336 54.8969 152.046 54.5247 151.838C54.3039 151.706 54.0484 151.611 53.7583 151.554C53.4681 151.497 53.017 151.469 52.4051 151.469H51.9225H50.6451ZM50.6451 145.536V150.173H51.9225C53.0959 150.173 53.9223 150.002 54.4017 149.662C54.8811 149.321 55.1208 148.747 55.1208 147.939C55.1208 147.05 54.8969 146.429 54.449 146.075C54.0074 145.716 53.1653 145.536 51.9225 145.536H50.6451ZM59.8048 157.96V149.302H61.12V151.1C61.5175 150.349 61.9401 149.813 62.388 149.491C62.8359 149.17 63.3816 149.009 64.025 149.009C64.2017 149.009 64.372 149.024 64.536 149.056C64.7 149.081 64.864 149.122 65.028 149.179L64.536 150.513C64.3657 150.456 64.2048 150.415 64.0534 150.39C63.902 150.359 63.7569 150.343 63.6181 150.343C62.8359 150.343 62.2492 150.627 61.8581 151.195C61.467 151.756 61.2714 152.604 61.2714 153.74V157.96H59.8048ZM66.3244 145.129C66.3244 144.833 66.4285 144.58 66.6367 144.372C66.8511 144.158 67.1098 144.05 67.4126 144.05C67.7091 144.05 67.9614 144.158 68.1696 144.372C68.3841 144.587 68.4913 144.845 68.4913 145.148C68.4913 145.445 68.3872 145.697 68.179 145.905C67.9709 146.113 67.7154 146.217 67.4126 146.217C67.1098 146.217 66.8511 146.113 66.6367 145.905C66.4285 145.697 66.3244 145.438 66.3244 145.129ZM66.6745 157.96V149.302H68.1696V157.96H66.6745ZM71.2922 157.96V149.302H72.7399V150.636C73.1121 150.081 73.56 149.668 74.0836 149.397C74.6072 149.125 75.2128 148.99 75.9004 148.99C76.9224 148.99 77.7204 149.261 78.2944 149.804C78.8685 150.346 79.1555 151.1 79.1555 152.065V157.96H77.6415V152.86C77.6415 151.983 77.4554 151.333 77.0832 150.911C76.7173 150.482 76.1496 150.267 75.38 150.267C74.9384 150.267 74.5347 150.349 74.1688 150.513C73.8092 150.671 73.5096 150.898 73.2698 151.195C73.0869 151.422 72.9544 151.68 72.8724 151.97C72.7967 152.261 72.7589 152.765 72.7589 153.484V157.96H71.2922ZM88.722 153.674C88.722 152.709 88.4539 151.933 87.9177 151.346C87.3815 150.753 86.675 150.456 85.7981 150.456C84.9213 150.456 84.2368 150.725 83.7448 151.261C83.2527 151.797 83.0067 152.538 83.0067 153.484C83.0067 154.551 83.2559 155.386 83.7542 155.992C84.2526 156.591 84.9402 156.891 85.8171 156.891C86.7255 156.891 87.4351 156.607 87.9461 156.039C88.4634 155.472 88.722 154.683 88.722 153.674ZM90.1603 143.293V157.96H88.722V156.389C88.3814 157.014 87.9398 157.493 87.3973 157.828C86.8548 158.162 86.2492 158.329 85.5805 158.329C84.3378 158.329 83.3347 157.903 82.5714 157.052C81.8144 156.194 81.4359 155.062 81.4359 153.655C81.4359 152.235 81.8081 151.103 82.5525 150.258C83.2969 149.412 84.2873 148.99 85.5237 148.99C86.2429 148.99 86.8674 149.154 87.3973 149.482C87.9272 149.804 88.3562 150.286 88.6842 150.93V143.293H90.1603ZM99.812 153.712C99.812 152.734 99.5439 151.948 99.0077 151.355C98.4778 150.756 97.7839 150.456 96.926 150.456C96.0365 150.456 95.3426 150.731 94.8442 151.28C94.3459 151.829 94.0967 152.595 94.0967 153.579C94.0967 154.626 94.3459 155.434 94.8442 156.001C95.3489 156.569 96.0618 156.853 96.9828 156.853C97.8659 156.853 98.5567 156.579 99.055 156.03C99.5597 155.475 99.812 154.702 99.812 153.712ZM101.25 149.302V157.96H99.812V156.389C99.4651 157.02 99.0203 157.503 98.4778 157.837C97.9416 158.165 97.3392 158.329 96.6705 158.329C95.4278 158.329 94.4247 157.903 93.6614 157.052C92.9044 156.194 92.5259 155.062 92.5259 153.655C92.5259 152.229 92.895 151.097 93.6331 150.258C94.3711 149.412 95.3584 148.99 96.5948 148.99C97.3203 148.99 97.9479 149.154 98.4778 149.482C99.014 149.804 99.4462 150.286 99.7742 150.93V149.302H101.25ZM116.277 157.96V152.86C116.277 151.983 116.1 151.333 115.747 150.911C115.394 150.482 114.851 150.267 114.119 150.267C113.722 150.267 113.353 150.349 113.012 150.513C112.678 150.671 112.394 150.898 112.161 151.195C111.99 151.422 111.867 151.687 111.792 151.989C111.716 152.292 111.678 152.791 111.678 153.484V157.96H110.249V152.86C110.249 151.983 110.072 151.333 109.719 150.911C109.366 150.482 108.823 150.267 108.092 150.267C107.694 150.267 107.322 150.349 106.975 150.513C106.634 150.671 106.347 150.898 106.114 151.195C105.95 151.415 105.83 151.671 105.754 151.961C105.685 152.251 105.65 152.759 105.65 153.484V157.96H104.222V149.302H105.669V150.636C106.029 150.081 106.458 149.668 106.956 149.397C107.455 149.125 108.029 148.99 108.678 148.99C109.379 148.99 109.975 149.141 110.467 149.444C110.959 149.74 111.331 150.176 111.583 150.75C111.956 150.157 112.394 149.715 112.899 149.425C113.41 149.135 113.999 148.99 114.668 148.99C115.633 148.99 116.387 149.261 116.93 149.804C117.472 150.346 117.743 151.1 117.743 152.065V157.96H116.277ZM121.538 153.655C121.538 154.569 121.844 155.345 122.456 155.983C123.068 156.613 123.809 156.929 124.679 156.929C125.544 156.929 126.279 156.613 126.884 155.983C127.49 155.345 127.793 154.569 127.793 153.655C127.793 152.74 127.49 151.967 126.884 151.336C126.279 150.699 125.544 150.381 124.679 150.381C123.803 150.381 123.058 150.699 122.446 151.336C121.841 151.967 121.538 152.74 121.538 153.655ZM119.967 153.655C119.967 153.018 120.084 152.418 120.317 151.857C120.551 151.289 120.891 150.785 121.339 150.343C121.787 149.901 122.295 149.567 122.863 149.34C123.43 149.106 124.036 148.99 124.679 148.99C125.31 148.99 125.906 149.106 126.468 149.34C127.036 149.573 127.55 149.914 128.01 150.362C128.458 150.797 128.799 151.299 129.032 151.866C129.266 152.428 129.382 153.024 129.382 153.655C129.382 154.286 129.266 154.882 129.032 155.443C128.799 155.998 128.458 156.494 128.01 156.929C127.55 157.383 127.032 157.73 126.458 157.97C125.891 158.209 125.298 158.329 124.679 158.329C124.042 158.329 123.437 158.209 122.863 157.97C122.295 157.736 121.787 157.399 121.339 156.957C120.891 156.503 120.551 155.998 120.317 155.443C120.084 154.888 119.967 154.292 119.967 153.655ZM130.783 156.503L132.051 155.651C132.29 156.112 132.593 156.459 132.959 156.692C133.325 156.919 133.757 157.033 134.255 157.033C134.741 157.033 135.132 156.913 135.429 156.673C135.732 156.434 135.883 156.118 135.883 155.727C135.883 155.424 135.779 155.172 135.571 154.97C135.369 154.768 135.019 154.582 134.52 154.412C134.47 154.393 134.388 154.364 134.274 154.327C132.167 153.601 131.114 152.693 131.114 151.601C131.114 150.832 131.398 150.204 131.965 149.718C132.533 149.233 133.271 148.99 134.18 148.99C134.93 148.99 135.574 149.141 136.11 149.444C136.646 149.74 137.031 150.163 137.264 150.712L136.063 151.45C135.886 151.053 135.624 150.747 135.277 150.532C134.937 150.318 134.539 150.21 134.085 150.21C133.65 150.21 133.293 150.333 133.016 150.579C132.745 150.819 132.609 151.128 132.609 151.507C132.609 152.037 133.183 152.481 134.331 152.841C134.546 152.91 134.716 152.964 134.842 153.002C135.782 153.305 136.435 153.652 136.801 154.043C137.173 154.428 137.359 154.939 137.359 155.576C137.359 156.396 137.066 157.061 136.479 157.572C135.899 158.077 135.139 158.329 134.199 158.329C133.391 158.329 132.704 158.178 132.136 157.875C131.574 157.572 131.123 157.115 130.783 156.503ZM144.144 157.165L144.844 154.592C145.336 155.027 145.878 155.355 146.471 155.576C147.058 155.809 147.651 155.926 148.25 155.926C148.679 155.926 149.001 155.853 149.216 155.708C149.436 155.576 149.547 155.383 149.547 155.131C149.547 154.708 149.102 154.393 148.213 154.185C147.903 154.115 147.67 154.055 147.512 154.005C146.484 153.702 145.755 153.333 145.326 152.898C144.86 152.45 144.626 151.87 144.626 151.157C144.626 150.236 144.976 149.494 145.677 148.933C146.352 148.378 147.295 148.1 148.506 148.1C149.093 148.1 149.717 148.17 150.379 148.308C150.935 148.422 151.581 148.643 152.319 148.971L151.619 151.289C151.165 150.98 150.707 150.75 150.247 150.598C149.812 150.441 149.354 150.362 148.875 150.362C148.484 150.362 148.19 150.422 147.995 150.542C147.806 150.655 147.711 150.829 147.711 151.062C147.711 151.39 148.156 151.674 149.045 151.914C149.335 152.002 149.484 152.046 149.49 152.046C150.651 152.374 151.464 152.762 151.931 153.21C152.385 153.683 152.613 154.298 152.613 155.055C152.613 156.033 152.237 156.822 151.487 157.421C150.717 158.026 149.723 158.329 148.506 158.329C147.661 158.329 146.881 158.231 146.169 158.036C145.462 157.847 144.787 157.556 144.144 157.165ZM161.204 153.21C161.204 152.497 161.025 151.936 160.665 151.526C160.293 151.116 159.807 150.911 159.208 150.911C158.59 150.911 158.104 151.116 157.751 151.526C157.391 151.923 157.211 152.485 157.211 153.21C157.211 153.917 157.385 154.472 157.732 154.875C158.11 155.292 158.602 155.5 159.208 155.5C159.813 155.5 160.306 155.292 160.684 154.875C161.031 154.459 161.204 153.904 161.204 153.21ZM164.554 153.21C164.554 153.91 164.419 154.563 164.147 155.169C163.863 155.812 163.475 156.367 162.983 156.834C162.428 157.351 161.854 157.727 161.261 157.96C160.643 158.206 159.959 158.329 159.208 158.329C158.451 158.329 157.766 158.206 157.155 157.96C156.53 157.714 155.953 157.342 155.423 156.844C154.899 156.339 154.521 155.781 154.287 155.169C154.016 154.582 153.881 153.929 153.881 153.21C153.881 152.51 154.016 151.851 154.287 151.232C154.54 150.608 154.921 150.053 155.432 149.567C155.931 149.088 156.505 148.719 157.155 148.46C157.773 148.22 158.457 148.1 159.208 148.1C159.952 148.1 160.637 148.22 161.261 148.46C161.911 148.719 162.485 149.088 162.983 149.567C163.507 150.04 163.895 150.595 164.147 151.232C164.419 151.851 164.554 152.51 164.554 153.21ZM166.589 157.96V143.293H169.967V157.96H166.589ZM182.353 148.403V153.286C182.353 154.377 182.271 155.172 182.107 155.67C181.93 156.188 181.634 156.654 181.218 157.071C180.82 157.487 180.297 157.802 179.647 158.017C179.029 158.225 178.284 158.329 177.414 158.329C176.549 158.329 175.815 158.225 175.209 158.017C174.584 157.815 174.048 157.5 173.6 157.071C173.19 156.68 172.9 156.219 172.73 155.689C172.559 155.197 172.474 154.396 172.474 153.286V148.403H175.691V153.503C175.691 154.305 175.827 154.879 176.098 155.226C176.344 155.591 176.77 155.774 177.376 155.774C177.975 155.774 178.404 155.598 178.663 155.244C178.928 154.891 179.06 154.311 179.06 153.503V148.403H182.353ZM191.636 151.545C191.308 151.254 190.992 151.043 190.689 150.911C190.418 150.778 190.1 150.712 189.734 150.712C189.059 150.712 188.529 150.933 188.144 151.374C187.747 151.81 187.548 152.409 187.548 153.172C187.548 153.904 187.753 154.484 188.163 154.913C188.56 155.355 189.112 155.576 189.819 155.576C190.153 155.576 190.475 155.506 190.784 155.367C191.112 155.21 191.396 155.002 191.636 154.743V157.667C191.232 157.881 190.825 158.052 190.415 158.178C189.98 158.279 189.567 158.329 189.175 158.329C187.699 158.329 186.51 157.856 185.608 156.91C185.299 156.594 185.044 156.248 184.842 155.869C184.646 155.491 184.495 155.08 184.387 154.639C184.287 154.197 184.236 153.715 184.236 153.191C184.236 151.683 184.697 150.46 185.618 149.52C186.545 148.573 187.744 148.1 189.213 148.1C189.674 148.1 190.112 148.151 190.529 148.252C190.932 148.353 191.301 148.501 191.636 148.696V151.545ZM193.632 157.96V148.403H197.001V157.96H193.632ZM194.058 145.943H194.077C194.077 145.59 194.2 145.299 194.446 145.072C194.692 144.826 194.989 144.703 195.336 144.703C195.701 144.703 196.001 144.82 196.234 145.053C196.474 145.287 196.594 145.583 196.594 145.943C196.594 146.309 196.471 146.612 196.225 146.851C195.985 147.097 195.689 147.22 195.336 147.22C194.976 147.22 194.673 147.091 194.427 146.832C194.181 146.593 194.058 146.296 194.058 145.943ZM206.549 153.21C206.549 152.497 206.369 151.936 206.009 151.526C205.637 151.116 205.151 150.911 204.552 150.911C203.934 150.911 203.448 151.116 203.095 151.526C202.735 151.923 202.555 152.485 202.555 153.21C202.555 153.917 202.729 154.472 203.076 154.875C203.454 155.292 203.946 155.5 204.552 155.5C205.158 155.5 205.65 155.292 206.028 154.875C206.375 154.459 206.549 153.904 206.549 153.21ZM209.898 153.21C209.898 153.91 209.763 154.563 209.491 155.169C209.208 155.812 208.82 156.367 208.328 156.834C207.772 157.351 207.198 157.727 206.605 157.96C205.987 158.206 205.303 158.329 204.552 158.329C203.795 158.329 203.111 158.206 202.499 157.96C201.874 157.714 201.297 157.342 200.767 156.844C200.243 156.339 199.865 155.781 199.632 155.169C199.36 154.582 199.225 153.929 199.225 153.21C199.225 152.51 199.36 151.851 199.632 151.232C199.884 150.608 200.265 150.053 200.776 149.567C201.275 149.088 201.849 148.719 202.499 148.46C203.117 148.22 203.801 148.1 204.552 148.1C205.296 148.1 205.981 148.22 206.605 148.46C207.255 148.719 207.829 149.088 208.328 149.567C208.851 150.04 209.239 150.595 209.491 151.232C209.763 151.851 209.898 152.51 209.898 153.21ZM211.838 157.96V148.403H214.923V150.343C215.358 149.586 215.875 149.018 216.475 148.64C217.055 148.28 217.758 148.1 218.585 148.1C219.209 148.1 219.764 148.195 220.25 148.384C220.73 148.599 221.118 148.889 221.414 149.255C221.685 149.621 221.865 150.009 221.953 150.419C222.061 150.942 222.114 151.633 222.114 152.491V157.96H218.736V152.841C218.736 152.065 218.613 151.51 218.367 151.176C218.121 150.829 217.721 150.655 217.165 150.655C216.472 150.655 215.961 150.914 215.633 151.431C215.311 151.948 215.15 152.787 215.15 153.948V157.96H211.838ZM231.085 151.952C231.028 151.422 230.823 150.99 230.47 150.655C230.116 150.321 229.684 150.154 229.173 150.154C228.637 150.154 228.202 150.302 227.867 150.598C227.521 150.933 227.303 151.384 227.215 151.952H231.085ZM234.406 153.853H227.139C227.158 154.598 227.344 155.166 227.697 155.557C228.063 155.96 228.593 156.162 229.287 156.162C229.792 156.162 230.224 156.065 230.583 155.869C230.949 155.661 231.214 155.377 231.378 155.017L233.914 156.039C233.617 156.765 233.081 157.326 232.305 157.724C231.536 158.127 230.593 158.329 229.476 158.329C227.811 158.329 226.473 157.862 225.464 156.929C224.461 156.02 223.959 154.806 223.959 153.286C223.959 151.803 224.461 150.564 225.464 149.567C226.467 148.589 227.741 148.1 229.287 148.1C230.864 148.1 232.11 148.596 233.025 149.586C233.491 150.097 233.838 150.693 234.065 151.374C234.292 152.049 234.406 152.822 234.406 153.693V153.853ZM235.456 157.165L236.157 154.592C236.649 155.027 237.191 155.355 237.784 155.576C238.371 155.809 238.964 155.926 239.563 155.926C239.992 155.926 240.314 155.853 240.528 155.708C240.749 155.576 240.859 155.383 240.859 155.131C240.859 154.708 240.415 154.393 239.525 154.185C239.216 154.115 238.983 154.055 238.825 154.005C237.797 153.702 237.068 153.333 236.639 152.898C236.172 152.45 235.939 151.87 235.939 151.157C235.939 150.236 236.289 149.494 236.989 148.933C237.664 148.378 238.607 148.1 239.819 148.1C240.405 148.1 241.03 148.17 241.692 148.308C242.247 148.422 242.894 148.643 243.632 148.971L242.932 151.289C242.478 150.98 242.02 150.75 241.56 150.598C241.124 150.441 240.667 150.362 240.188 150.362C239.796 150.362 239.503 150.422 239.308 150.542C239.118 150.655 239.024 150.829 239.024 151.062C239.024 151.39 239.468 151.674 240.358 151.914C240.648 152.002 240.796 152.046 240.803 152.046C241.963 152.374 242.777 152.762 243.244 153.21C243.698 153.683 243.925 154.298 243.925 155.055C243.925 156.033 243.55 156.822 242.799 157.421C242.03 158.026 241.036 158.329 239.819 158.329C238.973 158.329 238.194 158.231 237.481 158.036C236.775 157.847 236.1 157.556 235.456 157.165ZM258.346 153.712C258.346 152.734 258.078 151.948 257.542 151.355C257.012 150.756 256.318 150.456 255.46 150.456C254.571 150.456 253.877 150.731 253.378 151.28C252.88 151.829 252.631 152.595 252.631 153.579C252.631 154.626 252.88 155.434 253.378 156.001C253.883 156.569 254.596 156.853 255.517 156.853C256.4 156.853 257.091 156.579 257.589 156.03C258.094 155.475 258.346 154.702 258.346 153.712ZM259.784 149.302V157.96H258.346V156.389C257.999 157.02 257.554 157.503 257.012 157.837C256.476 158.165 255.873 158.329 255.205 158.329C253.962 158.329 252.959 157.903 252.195 157.052C251.438 156.194 251.06 155.062 251.06 153.655C251.06 152.229 251.429 151.097 252.167 150.258C252.905 149.412 253.892 148.99 255.129 148.99C255.854 148.99 256.482 149.154 257.012 149.482C257.548 149.804 257.98 150.286 258.308 150.93V149.302H259.784ZM268.698 150.523H267.108V149.302H268.698V145.81H270.212V149.302H271.802V150.523H270.212V157.96H268.698V150.523ZM274.877 149.302V153.56C274.877 154.803 275.06 155.673 275.426 156.172C275.798 156.664 276.423 156.91 277.299 156.91C278.176 156.91 278.794 156.667 279.154 156.181C279.52 155.689 279.703 154.816 279.703 153.56V149.302H281.217V154.355C281.217 155.661 280.882 156.651 280.214 157.326C279.545 157.995 278.561 158.329 277.262 158.329C275.975 158.329 274.997 157.992 274.328 157.317C273.659 156.642 273.325 155.655 273.325 154.355V149.302H274.877ZM296.111 151.952C296.054 151.422 295.849 150.99 295.496 150.655C295.142 150.321 294.71 150.154 294.199 150.154C293.663 150.154 293.228 150.302 292.893 150.598C292.547 150.933 292.329 151.384 292.241 151.952H296.111ZM299.432 153.853H292.165C292.184 154.598 292.37 155.166 292.723 155.557C293.089 155.96 293.619 156.162 294.313 156.162C294.818 156.162 295.25 156.065 295.609 155.869C295.975 155.661 296.24 155.377 296.404 155.017L298.94 156.039C298.644 156.765 298.107 157.326 297.331 157.724C296.562 158.127 295.619 158.329 294.502 158.329C292.837 158.329 291.499 157.862 290.49 156.929C289.487 156.02 288.986 154.806 288.986 153.286C288.986 151.803 289.487 150.564 290.49 149.567C291.493 148.589 292.767 148.1 294.313 148.1C295.89 148.1 297.136 148.596 298.051 149.586C298.517 150.097 298.864 150.693 299.091 151.374C299.319 152.049 299.432 152.822 299.432 153.693V153.853ZM314.004 157.96V152.746C314.004 151.926 313.91 151.359 313.72 151.043C313.506 150.721 313.149 150.561 312.651 150.561C312.014 150.561 311.576 150.778 311.336 151.213C311.09 151.642 310.967 152.541 310.967 153.91V157.96H307.712V152.746C307.712 151.895 307.608 151.321 307.399 151.024C307.21 150.715 306.86 150.561 306.349 150.561C305.712 150.561 305.267 150.772 305.015 151.195C304.769 151.624 304.646 152.529 304.646 153.91V157.96H301.372V148.403H304.684V150.069C305.087 149.4 305.548 148.905 306.065 148.583C306.57 148.261 307.182 148.1 307.901 148.1C308.677 148.1 309.317 148.249 309.822 148.545C310.301 148.848 310.651 149.299 310.872 149.898C311.257 149.274 311.714 148.823 312.244 148.545C312.768 148.249 313.395 148.1 314.127 148.1C314.701 148.1 315.203 148.195 315.632 148.384C316.073 148.592 316.436 148.883 316.72 149.255C316.96 149.551 317.127 149.901 317.221 150.305C317.316 150.677 317.363 151.336 317.363 152.283V152.491V157.96H314.004ZM322.757 153.21C322.757 153.954 322.956 154.544 323.353 154.98C323.719 155.402 324.249 155.614 324.943 155.614C325.63 155.614 326.167 155.402 326.551 154.98C326.936 154.538 327.129 153.948 327.129 153.21C327.129 152.459 326.936 151.873 326.551 151.45C326.16 151.021 325.624 150.807 324.943 150.807C324.255 150.807 323.725 151.021 323.353 151.45C322.956 151.866 322.757 152.453 322.757 153.21ZM319.767 162.18V148.422H322.871V150.012C323.281 149.4 323.763 148.924 324.318 148.583C324.842 148.274 325.438 148.119 326.107 148.119C326.782 148.119 327.387 148.233 327.924 148.46C328.46 148.681 328.927 149.018 329.324 149.472C330.112 150.374 330.507 151.62 330.507 153.21C330.507 154.737 330.112 155.97 329.324 156.91C328.92 157.389 328.463 157.746 327.952 157.979C327.447 158.213 326.87 158.329 326.22 158.329C325.406 158.329 324.747 158.181 324.243 157.885C323.757 157.601 323.306 157.109 322.889 156.408C322.921 156.56 322.946 156.793 322.965 157.109C322.978 157.292 322.984 157.626 322.984 158.112V162.18H319.767ZM332.56 157.96V148.403H335.739V150.655C336.074 149.829 336.519 149.214 337.074 148.81C337.648 148.4 338.339 148.195 339.146 148.195C339.329 148.195 339.465 148.201 339.553 148.214C339.622 148.22 339.685 148.226 339.742 148.233C339.799 148.233 339.871 148.239 339.96 148.252L339.638 151.318C339.405 151.242 339.203 151.188 339.032 151.157C338.78 151.131 338.594 151.119 338.474 151.119C337.654 151.119 337.02 151.371 336.572 151.876C336.131 152.374 335.91 153.084 335.91 154.005V157.96H332.56ZM347.795 151.952C347.738 151.422 347.533 150.99 347.18 150.655C346.826 150.321 346.394 150.154 345.883 150.154C345.347 150.154 344.912 150.302 344.577 150.598C344.23 150.933 344.013 151.384 343.925 151.952H347.795ZM351.116 153.853H343.849C343.868 154.598 344.054 155.166 344.407 155.557C344.773 155.96 345.303 156.162 345.997 156.162C346.501 156.162 346.934 156.065 347.293 155.869C347.659 155.661 347.924 155.377 348.088 155.017L350.624 156.039C350.327 156.765 349.791 157.326 349.015 157.724C348.246 158.127 347.303 158.329 346.186 158.329C344.521 158.329 343.183 157.862 342.174 156.929C341.171 156.02 340.669 154.806 340.669 153.286C340.669 151.803 341.171 150.564 342.174 149.567C343.177 148.589 344.451 148.1 345.997 148.1C347.574 148.1 348.82 148.596 349.734 149.586C350.201 150.097 350.548 150.693 350.775 151.374C351.002 152.049 351.116 152.822 351.116 153.693V153.853ZM352.166 157.165L352.867 154.592C353.359 155.027 353.901 155.355 354.494 155.576C355.081 155.809 355.674 155.926 356.273 155.926C356.702 155.926 357.024 155.853 357.238 155.708C357.459 155.576 357.569 155.383 357.569 155.131C357.569 154.708 357.125 154.393 356.235 154.185C355.926 154.115 355.693 154.055 355.535 154.005C354.507 153.702 353.778 153.333 353.349 152.898C352.882 152.45 352.649 151.87 352.649 151.157C352.649 150.236 352.999 149.494 353.699 148.933C354.374 148.378 355.317 148.1 356.529 148.1C357.115 148.1 357.74 148.17 358.402 148.308C358.957 148.422 359.604 148.643 360.342 148.971L359.642 151.289C359.187 150.98 358.73 150.75 358.27 150.598C357.834 150.441 357.377 150.362 356.898 150.362C356.506 150.362 356.213 150.422 356.018 150.542C355.828 150.655 355.734 150.829 355.734 151.062C355.734 151.39 356.178 151.674 357.068 151.914C357.358 152.002 357.506 152.046 357.513 152.046C358.673 152.374 359.487 152.762 359.954 153.21C360.408 153.683 360.635 154.298 360.635 155.055C360.635 156.033 360.26 156.822 359.509 157.421C358.74 158.026 357.746 158.329 356.529 158.329C355.683 158.329 354.904 158.231 354.191 158.036C353.485 157.847 352.81 157.556 352.166 157.165ZM369.729 153.172C369.729 152.415 369.53 151.829 369.133 151.412C368.729 150.971 368.186 150.75 367.505 150.75C366.824 150.75 366.287 150.964 365.896 151.393C365.493 151.835 365.291 152.428 365.291 153.172C365.291 153.923 365.493 154.513 365.896 154.942C366.281 155.364 366.817 155.576 367.505 155.576C368.186 155.576 368.726 155.364 369.123 154.942C369.527 154.519 369.729 153.929 369.729 153.172ZM372.69 148.403V157.96H369.596V156.408C369.148 157.071 368.647 157.556 368.092 157.866C367.543 158.175 366.899 158.329 366.161 158.329C364.881 158.329 363.862 157.862 363.105 156.929C362.733 156.468 362.449 155.926 362.253 155.301C362.058 154.677 361.96 153.973 361.96 153.191C361.96 151.627 362.361 150.387 363.162 149.472C363.963 148.558 365.035 148.1 366.379 148.1C367.098 148.1 367.716 148.255 368.234 148.564C368.757 148.86 369.205 149.33 369.577 149.974V148.403H372.69Z" fill="white"/>
</svg>
