<svg width="430" height="175" viewBox="0 0 430 175" fill="none" xmlns="http://www.w3.org/2000/svg">
<path d="M25 140H14C9.58172 140 6 136.418 6 132V11" stroke="white" stroke-width="1.5"/>
<path d="M11.9534 5.66272C11.9534 8.2973 9.52868 10.5754 6.35168 10.5754C3.17467 10.5754 0.75 8.2973 0.75 5.66272C0.75 3.02814 3.17467 0.75 6.35168 0.75C9.52868 0.75 11.9534 3.02814 11.9534 5.66272Z" stroke="white" stroke-width="1.5"/>
<rect x="23.9" y="107" width="291" height="68" rx="10" fill="#002A61"/>
<path d="M44.4469 135.2V122.333H51.2321V123.73H45.9762V127.422H51.2321V128.846H45.9762V135.2H44.4469ZM52.858 123.282C52.858 123.007 52.9547 122.772 53.1481 122.579C53.3473 122.38 53.5875 122.28 53.8688 122.28C54.1442 122.28 54.3785 122.38 54.5719 122.579C54.7711 122.778 54.8707 123.019 54.8707 123.3C54.8707 123.575 54.774 123.81 54.5807 124.003C54.3873 124.196 54.15 124.293 53.8688 124.293C53.5875 124.293 53.3473 124.196 53.1481 124.003C52.9547 123.81 52.858 123.569 52.858 123.282ZM53.1832 135.2V127.158H54.5719V135.2H53.1832ZM57.4723 135.2V127.158H58.817V128.397C59.1627 127.882 59.5787 127.498 60.0651 127.246C60.5514 126.994 61.1139 126.868 61.7526 126.868C62.7018 126.868 63.443 127.12 63.9762 127.624C64.5094 128.128 64.776 128.828 64.776 129.725V135.2H63.3698V130.463C63.3698 129.648 63.1969 129.045 62.8512 128.652C62.5114 128.254 61.984 128.055 61.2692 128.055C60.859 128.055 60.484 128.131 60.1442 128.283C59.8102 128.43 59.5319 128.641 59.3092 128.916C59.1393 129.127 59.0162 129.367 58.9401 129.637C58.8698 129.906 58.8346 130.375 58.8346 131.043V135.2H57.4723ZM73.6617 131.254C73.6617 130.346 73.4127 129.616 72.9147 129.065C72.4225 128.509 71.778 128.23 70.9811 128.23C70.1549 128.23 69.5104 128.485 69.0475 128.995C68.5846 129.505 68.3531 130.217 68.3531 131.131C68.3531 132.104 68.5846 132.854 69.0475 133.381C69.5162 133.908 70.1783 134.172 71.0338 134.172C71.8541 134.172 72.4957 133.917 72.9586 133.407C73.4274 132.892 73.6617 132.174 73.6617 131.254ZM74.9977 127.158V135.2H73.6617V133.741C73.3395 134.327 72.9264 134.775 72.4225 135.086C71.9244 135.391 71.3649 135.543 70.7438 135.543C69.5895 135.543 68.6578 135.147 67.9489 134.356C67.2457 133.56 66.8942 132.508 66.8942 131.201C66.8942 129.877 67.2369 128.825 67.9225 128.046C68.608 127.261 69.525 126.868 70.6735 126.868C71.3473 126.868 71.9303 127.021 72.4225 127.325C72.9205 127.624 73.3219 128.072 73.6266 128.67V127.158H74.9977ZM77.7574 135.2V127.158H79.1022V128.397C79.4479 127.882 79.8639 127.498 80.3502 127.246C80.8365 126.994 81.399 126.868 82.0377 126.868C82.9869 126.868 83.7281 127.12 84.2614 127.624C84.7946 128.128 85.0612 128.828 85.0612 129.725V135.2H83.6549V130.463C83.6549 129.648 83.4821 129.045 83.1364 128.652C82.7965 128.254 82.2692 128.055 81.5543 128.055C81.1442 128.055 80.7692 128.131 80.4293 128.283C80.0953 128.43 79.817 128.641 79.5944 128.916C79.4244 129.127 79.3014 129.367 79.2252 129.637C79.1549 129.906 79.1198 130.375 79.1198 131.043V135.2H77.7574ZM93.9645 133.293V134.893C93.6012 135.109 93.191 135.271 92.734 135.376C92.2828 135.487 91.7936 135.543 91.2662 135.543C90.024 135.543 89.0221 135.15 88.2604 134.365C87.5045 133.574 87.1266 132.537 87.1266 131.254C87.1266 129.965 87.5192 128.913 88.3043 128.099C89.0895 127.278 90.0944 126.868 91.319 126.868C91.7643 126.868 92.1979 126.915 92.6198 127.009C93.0475 127.103 93.4489 127.24 93.8239 127.422V128.898C93.4723 128.67 93.109 128.497 92.734 128.38C92.359 128.257 91.9781 128.195 91.5914 128.195C90.6891 128.195 89.9655 128.479 89.4205 129.048C88.8756 129.61 88.6031 130.36 88.6031 131.298C88.6031 132.124 88.8756 132.815 89.4205 133.372C89.9713 133.929 90.6598 134.207 91.486 134.207C91.902 134.207 92.3092 134.134 92.7076 133.987C93.1061 133.841 93.525 133.609 93.9645 133.293ZM95.6256 123.282C95.6256 123.007 95.7223 122.772 95.9156 122.579C96.1149 122.38 96.3551 122.28 96.6364 122.28C96.9117 122.28 97.1461 122.38 97.3395 122.579C97.5387 122.778 97.6383 123.019 97.6383 123.3C97.6383 123.575 97.5416 123.81 97.3483 124.003C97.1549 124.196 96.9176 124.293 96.6364 124.293C96.3551 124.293 96.1149 124.196 95.9156 124.003C95.7223 123.81 95.6256 123.569 95.6256 123.282ZM95.9508 135.2V127.158H97.3395V135.2H95.9508ZM106.392 131.254C106.392 130.346 106.143 129.616 105.645 129.065C105.153 128.509 104.508 128.23 103.712 128.23C102.885 128.23 102.241 128.485 101.778 128.995C101.315 129.505 101.084 130.217 101.084 131.131C101.084 132.104 101.315 132.854 101.778 133.381C102.247 133.908 102.909 134.172 103.764 134.172C104.585 134.172 105.226 133.917 105.689 133.407C106.158 132.892 106.392 132.174 106.392 131.254ZM107.728 127.158V135.2H106.392V133.741C106.07 134.327 105.657 134.775 105.153 135.086C104.655 135.391 104.095 135.543 103.474 135.543C102.32 135.543 101.388 135.147 100.679 134.356C99.9762 133.56 99.6246 132.508 99.6246 131.201C99.6246 129.877 99.9674 128.825 100.653 128.046C101.339 127.261 102.255 126.868 103.404 126.868C104.078 126.868 104.661 127.021 105.153 127.325C105.651 127.624 106.052 128.072 106.357 128.67V127.158H107.728ZM121.685 135.2V130.463C121.685 129.648 121.521 129.045 121.193 128.652C120.865 128.254 120.361 128.055 119.681 128.055C119.312 128.055 118.969 128.131 118.653 128.283C118.342 128.43 118.079 128.641 117.862 128.916C117.704 129.127 117.589 129.373 117.519 129.654C117.449 129.936 117.414 130.398 117.414 131.043V135.2H116.087V130.463C116.087 129.648 115.922 129.045 115.594 128.652C115.266 128.254 114.762 128.055 114.083 128.055C113.714 128.055 113.368 128.131 113.046 128.283C112.729 128.43 112.463 128.641 112.246 128.916C112.093 129.121 111.982 129.358 111.912 129.628C111.847 129.897 111.815 130.369 111.815 131.043V135.2H110.488V127.158H111.833V128.397C112.167 127.882 112.565 127.498 113.028 127.246C113.491 126.994 114.024 126.868 114.628 126.868C115.278 126.868 115.832 127.009 116.289 127.29C116.746 127.565 117.091 127.97 117.326 128.503C117.672 127.952 118.079 127.542 118.547 127.272C119.022 127.003 119.57 126.868 120.191 126.868C121.088 126.868 121.788 127.12 122.292 127.624C122.796 128.128 123.047 128.828 123.047 129.725V135.2H121.685ZM125.508 123.282C125.508 123.007 125.605 122.772 125.798 122.579C125.998 122.38 126.238 122.28 126.519 122.28C126.795 122.28 127.029 122.38 127.222 122.579C127.422 122.778 127.521 123.019 127.521 123.3C127.521 123.575 127.424 123.81 127.231 124.003C127.038 124.196 126.8 124.293 126.519 124.293C126.238 124.293 125.998 124.196 125.798 124.003C125.605 123.81 125.508 123.569 125.508 123.282ZM125.834 135.2V127.158H127.222V135.2H125.834ZM135.827 130.27C135.78 129.561 135.543 129.016 135.115 128.635C134.693 128.248 134.113 128.055 133.375 128.055C132.707 128.055 132.15 128.257 131.705 128.661C131.259 129.06 131.002 129.596 130.931 130.27H135.827ZM137.303 131.386H130.931V131.509C130.931 132.37 131.177 133.067 131.67 133.601C132.162 134.128 132.803 134.392 133.594 134.392C134.133 134.392 134.62 134.248 135.053 133.961C135.487 133.668 135.871 133.229 136.205 132.643L137.251 133.346C136.846 134.072 136.331 134.62 135.704 134.989C135.077 135.358 134.35 135.543 133.524 135.543C132.299 135.543 131.309 135.139 130.553 134.33C129.797 133.521 129.42 132.461 129.42 131.148C129.42 129.889 129.795 128.857 130.545 128.055C131.295 127.252 132.258 126.851 133.436 126.851C134.626 126.851 135.566 127.231 136.257 127.993C136.955 128.755 137.303 129.795 137.303 131.113V131.386ZM139.386 135.2V127.158H140.731V128.397C141.077 127.882 141.493 127.498 141.979 127.246C142.465 126.994 143.028 126.868 143.667 126.868C144.616 126.868 145.357 127.12 145.89 127.624C146.423 128.128 146.69 128.828 146.69 129.725V135.2H145.284V130.463C145.284 129.648 145.111 129.045 144.765 128.652C144.425 128.254 143.898 128.055 143.183 128.055C142.773 128.055 142.398 128.131 142.058 128.283C141.724 128.43 141.446 128.641 141.223 128.916C141.053 129.127 140.93 129.367 140.854 129.637C140.784 129.906 140.749 130.375 140.749 131.043V135.2H139.386ZM149.634 128.292H148.158V127.158H149.634V123.915H151.041V127.158H152.517V128.292H151.041V135.2H149.634V128.292ZM154.89 131.201C154.89 132.051 155.174 132.771 155.743 133.363C156.311 133.949 157 134.242 157.808 134.242C158.611 134.242 159.294 133.949 159.856 133.363C160.419 132.771 160.7 132.051 160.7 131.201C160.7 130.352 160.419 129.634 159.856 129.048C159.294 128.456 158.611 128.16 157.808 128.16C156.994 128.16 156.302 128.456 155.734 129.048C155.172 129.634 154.89 130.352 154.89 131.201ZM153.431 131.201C153.431 130.609 153.54 130.053 153.756 129.531C153.973 129.004 154.29 128.535 154.706 128.125C155.122 127.715 155.593 127.404 156.121 127.193C156.648 126.977 157.211 126.868 157.808 126.868C158.394 126.868 158.948 126.977 159.469 127.193C159.997 127.41 160.474 127.727 160.902 128.143C161.318 128.547 161.634 129.013 161.851 129.54C162.068 130.062 162.176 130.615 162.176 131.201C162.176 131.787 162.068 132.341 161.851 132.862C161.634 133.378 161.318 133.838 160.902 134.242C160.474 134.664 159.994 134.986 159.461 135.209C158.933 135.432 158.382 135.543 157.808 135.543C157.216 135.543 156.654 135.432 156.121 135.209C155.593 134.992 155.122 134.679 154.706 134.269C154.29 133.847 153.973 133.378 153.756 132.862C153.54 132.347 153.431 131.793 153.431 131.201ZM175.791 131.254C175.791 130.346 175.542 129.616 175.044 129.065C174.551 128.509 173.907 128.23 173.11 128.23C172.284 128.23 171.639 128.485 171.176 128.995C170.714 129.505 170.482 130.217 170.482 131.131C170.482 132.104 170.714 132.854 171.176 133.381C171.645 133.908 172.307 134.172 173.163 134.172C173.983 134.172 174.625 133.917 175.088 133.407C175.556 132.892 175.791 132.174 175.791 131.254ZM177.127 127.158V135.2H175.791V133.741C175.468 134.327 175.055 134.775 174.551 135.086C174.053 135.391 173.494 135.543 172.873 135.543C171.718 135.543 170.787 135.147 170.078 134.356C169.375 133.56 169.023 132.508 169.023 131.201C169.023 129.877 169.366 128.825 170.051 128.046C170.737 127.261 171.654 126.868 172.802 126.868C173.476 126.868 174.059 127.021 174.551 127.325C175.049 127.624 175.451 128.072 175.755 128.67V127.158H177.127ZM185.028 135.2V121.577H188.166V135.2H185.028ZM197.333 130.753C197.333 130.062 197.148 129.514 196.779 129.109C196.41 128.705 195.906 128.503 195.267 128.503C194.629 128.503 194.125 128.705 193.755 129.109C193.392 129.508 193.211 130.056 193.211 130.753C193.211 131.444 193.395 131.989 193.764 132.388C194.133 132.786 194.634 132.985 195.267 132.985C195.906 132.985 196.41 132.786 196.779 132.388C197.148 131.989 197.333 131.444 197.333 130.753ZM200.084 126.323V135.2H197.21V133.759C196.799 134.374 196.337 134.825 195.821 135.112C195.311 135.399 194.711 135.543 194.019 135.543C192.836 135.543 191.889 135.112 191.18 134.251C190.471 133.384 190.117 132.224 190.117 130.771C190.117 129.323 190.486 128.175 191.224 127.325C191.968 126.47 192.967 126.042 194.221 126.042C194.889 126.042 195.464 126.186 195.944 126.473C196.43 126.754 196.846 127.19 197.192 127.782V126.323H200.084ZM202.465 135.2V126.323H205.419V128.415C205.723 127.653 206.139 127.082 206.667 126.701C207.194 126.32 207.833 126.13 208.583 126.13C208.706 126.13 208.829 126.136 208.952 126.147C209.081 126.153 209.21 126.165 209.339 126.183L209.04 129.03C208.852 128.966 208.668 128.919 208.486 128.89C208.304 128.86 208.129 128.846 207.959 128.846C207.197 128.846 206.608 129.08 206.192 129.549C205.782 130.012 205.577 130.671 205.577 131.526V135.2H202.465ZM217.266 130.735C217.266 130.05 217.082 129.514 216.713 129.127C216.349 128.734 215.845 128.538 215.201 128.538C214.55 128.538 214.038 128.734 213.663 129.127C213.294 129.514 213.109 130.05 213.109 130.735C213.109 131.415 213.294 131.951 213.663 132.344C214.038 132.736 214.55 132.933 215.201 132.933C215.839 132.933 216.343 132.736 216.713 132.344C217.082 131.951 217.266 131.415 217.266 130.735ZM220.017 126.323V135.183C220.017 136.524 219.607 137.515 218.787 138.153C217.972 138.798 216.71 139.12 214.999 139.12C213.616 139.12 212.532 138.862 211.747 138.347C210.962 137.837 210.546 137.113 210.499 136.176H213.742C213.789 136.451 213.941 136.665 214.199 136.817C214.463 136.976 214.808 137.055 215.236 137.055C215.91 137.055 216.373 136.891 216.625 136.562C216.882 136.24 217.011 135.558 217.011 134.515V133.706C216.683 134.263 216.264 134.679 215.755 134.954C215.245 135.224 214.638 135.358 213.935 135.358C212.763 135.358 211.823 134.937 211.114 134.093C210.405 133.243 210.05 132.112 210.05 130.7C210.05 129.276 210.42 128.146 211.158 127.308C211.902 126.464 212.901 126.042 214.155 126.042C214.817 126.042 215.388 126.18 215.869 126.455C216.355 126.73 216.774 127.161 217.126 127.747V126.323H220.017ZM228.683 130.788C228.683 130.126 228.516 129.604 228.182 129.224C227.848 128.843 227.397 128.652 226.829 128.652C226.255 128.652 225.8 128.843 225.466 129.224C225.138 129.604 224.974 130.126 224.974 130.788C224.974 131.45 225.138 131.972 225.466 132.353C225.795 132.728 226.249 132.915 226.829 132.915C227.403 132.915 227.854 132.728 228.182 132.353C228.516 131.972 228.683 131.45 228.683 130.788ZM231.795 130.788C231.795 131.427 231.669 132.033 231.417 132.607C231.171 133.182 230.81 133.697 230.336 134.154C229.855 134.611 229.316 134.957 228.718 135.191C228.127 135.426 227.497 135.543 226.829 135.543C226.149 135.543 225.51 135.426 224.913 135.191C224.321 134.957 223.791 134.611 223.322 134.154C222.853 133.709 222.496 133.199 222.25 132.625C222.004 132.045 221.88 131.433 221.88 130.788C221.88 130.138 222.001 129.525 222.241 128.951C222.487 128.377 222.847 127.861 223.322 127.404C223.785 126.953 224.312 126.613 224.904 126.385C225.502 126.156 226.143 126.042 226.829 126.042C227.514 126.042 228.153 126.156 228.745 126.385C229.337 126.613 229.867 126.953 230.336 127.404C230.816 127.867 231.179 128.386 231.425 128.96C231.672 129.534 231.795 130.144 231.795 130.788ZM242.034 130.788C242.034 131.479 242.213 132.024 242.57 132.423C242.933 132.821 243.431 133.021 244.064 133.021C244.697 133.021 245.195 132.821 245.558 132.423C245.927 132.024 246.112 131.479 246.112 130.788C246.112 130.097 245.93 129.552 245.567 129.153C245.204 128.755 244.703 128.556 244.064 128.556C243.431 128.556 242.933 128.755 242.57 129.153C242.213 129.552 242.034 130.097 242.034 130.788ZM239.256 139.12V126.323H242.139V127.817C242.538 127.22 242.986 126.774 243.484 126.481C243.982 126.188 244.536 126.042 245.145 126.042C246.393 126.042 247.386 126.47 248.125 127.325C248.863 128.175 249.232 129.329 249.232 130.788C249.232 132.206 248.863 133.354 248.125 134.233C247.392 135.106 246.434 135.543 245.251 135.543C244.501 135.543 243.888 135.405 243.414 135.13C242.945 134.854 242.526 134.4 242.157 133.768C242.186 133.943 242.207 134.157 242.218 134.409C242.236 134.661 242.245 134.972 242.245 135.341V139.12H239.256ZM251.21 135.2V121.577H254.347V135.2H251.21ZM263.514 130.753C263.514 130.062 263.33 129.514 262.961 129.109C262.591 128.705 262.088 128.503 261.449 128.503C260.81 128.503 260.306 128.705 259.937 129.109C259.574 129.508 259.392 130.056 259.392 130.753C259.392 131.444 259.577 131.989 259.946 132.388C260.315 132.786 260.816 132.985 261.449 132.985C262.088 132.985 262.591 132.786 262.961 132.388C263.33 131.989 263.514 131.444 263.514 130.753ZM266.265 126.323V135.2H263.391V133.759C262.981 134.374 262.518 134.825 262.003 135.112C261.493 135.399 260.892 135.543 260.201 135.543C259.017 135.543 258.071 135.112 257.362 134.251C256.653 133.384 256.298 132.224 256.298 130.771C256.298 129.323 256.668 128.175 257.406 127.325C258.15 126.47 259.149 126.042 260.403 126.042C261.071 126.042 261.645 126.186 262.126 126.473C262.612 126.754 263.028 127.19 263.374 127.782V126.323H266.265ZM276.478 135.2H267.478L272.031 128.608H268.032V126.323H276.874L272.154 132.792H276.478V135.2ZM284.687 130.788C284.687 130.126 284.52 129.604 284.186 129.224C283.852 128.843 283.401 128.652 282.833 128.652C282.258 128.652 281.804 128.843 281.47 129.224C281.142 129.604 280.978 130.126 280.978 130.788C280.978 131.45 281.142 131.972 281.47 132.353C281.798 132.728 282.253 132.915 282.833 132.915C283.407 132.915 283.858 132.728 284.186 132.353C284.52 131.972 284.687 131.45 284.687 130.788ZM287.798 130.788C287.798 131.427 287.672 132.033 287.421 132.607C287.174 133.182 286.814 133.697 286.339 134.154C285.859 134.611 285.32 134.957 284.722 135.191C284.13 135.426 283.501 135.543 282.833 135.543C282.153 135.543 281.514 135.426 280.917 135.191C280.325 134.957 279.795 134.611 279.326 134.154C278.857 133.709 278.5 133.199 278.254 132.625C278.007 132.045 277.884 131.433 277.884 130.788C277.884 130.138 278.005 129.525 278.245 128.951C278.491 128.377 278.851 127.861 279.326 127.404C279.789 126.953 280.316 126.613 280.908 126.385C281.505 126.156 282.147 126.042 282.833 126.042C283.518 126.042 284.157 126.156 284.749 126.385C285.34 126.613 285.871 126.953 286.339 127.404C286.82 127.867 287.183 128.386 287.429 128.96C287.675 129.534 287.798 130.144 287.798 130.788ZM45.6334 153.201C45.6334 154.104 45.8824 154.827 46.3805 155.372C46.8785 155.917 47.5377 156.189 48.358 156.189C49.1608 156.189 49.7906 155.94 50.2477 155.442C50.7106 154.944 50.942 154.253 50.942 153.368C50.942 152.378 50.7106 151.602 50.2477 151.039C49.7906 150.477 49.152 150.195 48.3317 150.195C47.4938 150.195 46.8346 150.462 46.3541 150.995C45.8737 151.528 45.6334 152.264 45.6334 153.201ZM44.3063 161.12V149.158H45.6158V150.67C45.9264 150.09 46.3365 149.645 46.8463 149.334C47.3561 149.023 47.9244 148.868 48.5514 148.868C49.7115 148.868 50.6432 149.264 51.3463 150.055C52.0494 150.846 52.401 151.895 52.401 153.201C52.401 154.531 52.0553 155.589 51.3639 156.374C50.6783 157.153 49.7584 157.543 48.6041 157.543C47.942 157.543 47.3649 157.394 46.8727 157.095C46.3805 156.79 45.9791 156.339 45.6686 155.741V161.12H44.3063ZM60.7594 153.254C60.7594 152.346 60.5104 151.616 60.0123 151.065C59.5201 150.509 58.8756 150.23 58.0787 150.23C57.2526 150.23 56.608 150.485 56.1451 150.995C55.6823 151.505 55.4508 152.217 55.4508 153.131C55.4508 154.104 55.6823 154.854 56.1451 155.381C56.6139 155.908 57.276 156.172 58.1315 156.172C58.9518 156.172 59.5934 155.917 60.0563 155.407C60.525 154.892 60.7594 154.174 60.7594 153.254ZM62.0953 149.158V157.2H60.7594V155.741C60.4371 156.327 60.024 156.775 59.5201 157.086C59.0221 157.391 58.4625 157.543 57.8414 157.543C56.6871 157.543 55.7555 157.147 55.0465 156.356C54.3434 155.56 53.9918 154.508 53.9918 153.201C53.9918 151.877 54.3346 150.825 55.0201 150.046C55.7057 149.261 56.6227 148.868 57.7711 148.868C58.4449 148.868 59.028 149.021 59.5201 149.325C60.0182 149.624 60.4196 150.072 60.7242 150.67V149.158H62.0953ZM64.8727 157.2V149.158H66.0944V150.828C66.4635 150.131 66.8561 149.633 67.2721 149.334C67.6881 149.035 68.1949 148.886 68.7926 148.886C68.9567 148.886 69.1149 148.9 69.2672 148.93C69.4196 148.953 69.5719 148.991 69.7242 149.044L69.2672 150.283C69.109 150.23 68.9596 150.192 68.819 150.169C68.6783 150.14 68.5436 150.125 68.4147 150.125C67.6881 150.125 67.1432 150.389 66.7799 150.916C66.4166 151.438 66.235 152.226 66.235 153.28V157.2H64.8727ZM77.3356 153.254C77.3356 152.346 77.0865 151.616 76.5885 151.065C76.0963 150.509 75.4518 150.23 74.6549 150.23C73.8287 150.23 73.1842 150.485 72.7213 150.995C72.2584 151.505 72.027 152.217 72.027 153.131C72.027 154.104 72.2584 154.854 72.7213 155.381C73.1901 155.908 73.8522 156.172 74.7076 156.172C75.528 156.172 76.1696 155.917 76.6324 155.407C77.1012 154.892 77.3356 154.174 77.3356 153.254ZM78.6715 149.158V157.2H77.3356V155.741C77.0133 156.327 76.6002 156.775 76.0963 157.086C75.5983 157.391 75.0387 157.543 74.4176 157.543C73.2633 157.543 72.3317 157.147 71.6227 156.356C70.9196 155.56 70.568 154.508 70.568 153.201C70.568 151.877 70.9108 150.825 71.5963 150.046C72.2819 149.261 73.1989 148.868 74.3473 148.868C75.0211 148.868 75.6041 149.021 76.0963 149.325C76.5944 149.624 76.9957 150.072 77.3004 150.67V149.158H78.6715ZM92.8922 153.219C92.8922 152.322 92.6432 151.602 92.1451 151.057C91.6471 150.506 90.9908 150.23 90.1764 150.23C89.3619 150.23 88.7262 150.479 88.2692 150.978C87.8121 151.476 87.5836 152.164 87.5836 153.043C87.5836 154.033 87.8151 154.81 88.278 155.372C88.7408 155.929 89.3795 156.207 90.194 156.207C91.0377 156.207 91.6969 155.943 92.1715 155.416C92.652 154.889 92.8922 154.156 92.8922 153.219ZM94.2281 143.577V157.2H92.8922V155.741C92.5758 156.321 92.1656 156.767 91.6617 157.077C91.1578 157.388 90.5953 157.543 89.9742 157.543C88.8199 157.543 87.8883 157.147 87.1793 156.356C86.4762 155.56 86.1246 154.508 86.1246 153.201C86.1246 151.883 86.4703 150.831 87.1617 150.046C87.8531 149.261 88.7731 148.868 89.9215 148.868C90.5895 148.868 91.1696 149.021 91.6617 149.325C92.1539 149.624 92.5524 150.072 92.8571 150.67V143.577H94.2281ZM103.193 153.254C103.193 152.346 102.944 151.616 102.446 151.065C101.954 150.509 101.309 150.23 100.512 150.23C99.6862 150.23 99.0416 150.485 98.5787 150.995C98.1158 151.505 97.8844 152.217 97.8844 153.131C97.8844 154.104 98.1158 154.854 98.5787 155.381C99.0475 155.908 99.7096 156.172 100.565 156.172C101.385 156.172 102.027 155.917 102.49 155.407C102.959 154.892 103.193 154.174 103.193 153.254ZM104.529 149.158V157.2H103.193V155.741C102.871 156.327 102.458 156.775 101.954 157.086C101.456 157.391 100.896 157.543 100.275 157.543C99.1207 157.543 98.1891 157.147 97.4801 156.356C96.777 155.56 96.4254 154.508 96.4254 153.201C96.4254 151.877 96.7682 150.825 97.4537 150.046C98.1393 149.261 99.0563 148.868 100.205 148.868C100.879 148.868 101.462 149.021 101.954 149.325C102.452 149.624 102.853 150.072 103.158 150.67V149.158H104.529ZM107.306 157.2V149.158H108.528V150.828C108.897 150.131 109.29 149.633 109.706 149.334C110.122 149.035 110.629 148.886 111.226 148.886C111.39 148.886 111.548 148.9 111.701 148.93C111.853 148.953 112.005 148.991 112.158 149.044L111.701 150.283C111.543 150.23 111.393 150.192 111.253 150.169C111.112 150.14 110.977 150.125 110.848 150.125C110.122 150.125 109.577 150.389 109.214 150.916C108.85 151.438 108.669 152.226 108.669 153.28V157.2H107.306ZM113.687 157.2V143.577H115.093V157.2H113.687ZM123.68 152.27C123.633 151.561 123.396 151.016 122.968 150.635C122.547 150.248 121.966 150.055 121.228 150.055C120.56 150.055 120.004 150.257 119.558 150.661C119.113 151.06 118.855 151.596 118.785 152.27H123.68ZM125.157 153.386H118.785V153.509C118.785 154.37 119.031 155.067 119.523 155.601C120.015 156.128 120.657 156.392 121.448 156.392C121.987 156.392 122.473 156.248 122.907 155.961C123.34 155.668 123.724 155.229 124.058 154.643L125.104 155.346C124.7 156.072 124.184 156.62 123.557 156.989C122.93 157.358 122.204 157.543 121.378 157.543C120.153 157.543 119.163 157.139 118.407 156.33C117.651 155.521 117.273 154.461 117.273 153.148C117.273 151.889 117.648 150.857 118.398 150.055C119.148 149.252 120.112 148.851 121.29 148.851C122.479 148.851 123.42 149.231 124.111 149.993C124.808 150.755 125.157 151.795 125.157 153.113V153.386ZM135.194 157.701L131.213 149.158H132.759L135.176 154.774L137.602 149.158H139.149L135.194 157.701ZM140.38 145.282C140.38 145.007 140.476 144.772 140.67 144.579C140.869 144.38 141.109 144.28 141.39 144.28C141.666 144.28 141.9 144.38 142.093 144.579C142.293 144.778 142.392 145.019 142.392 145.3C142.392 145.575 142.296 145.81 142.102 146.003C141.909 146.196 141.672 146.293 141.39 146.293C141.109 146.293 140.869 146.196 140.67 146.003C140.476 145.81 140.38 145.569 140.38 145.282ZM140.705 157.2V149.158H142.093V157.2H140.705ZM151.146 153.219C151.146 152.322 150.897 151.602 150.399 151.057C149.901 150.506 149.245 150.23 148.43 150.23C147.616 150.23 146.98 150.479 146.523 150.978C146.066 151.476 145.838 152.164 145.838 153.043C145.838 154.033 146.069 154.81 146.532 155.372C146.995 155.929 147.633 156.207 148.448 156.207C149.292 156.207 149.951 155.943 150.425 155.416C150.906 154.889 151.146 154.156 151.146 153.219ZM152.482 143.577V157.2H151.146V155.741C150.83 156.321 150.42 156.767 149.916 157.077C149.412 157.388 148.849 157.543 148.228 157.543C147.074 157.543 146.142 157.147 145.433 156.356C144.73 155.56 144.379 154.508 144.379 153.201C144.379 151.883 144.724 150.831 145.416 150.046C146.107 149.261 147.027 148.868 148.175 148.868C148.843 148.868 149.423 149.021 149.916 149.325C150.408 149.624 150.806 150.072 151.111 150.67V143.577H152.482ZM161.447 153.254C161.447 152.346 161.198 151.616 160.7 151.065C160.208 150.509 159.563 150.23 158.766 150.23C157.94 150.23 157.296 150.485 156.833 150.995C156.37 151.505 156.138 152.217 156.138 153.131C156.138 154.104 156.37 154.854 156.833 155.381C157.301 155.908 157.964 156.172 158.819 156.172C159.639 156.172 160.281 155.917 160.744 155.407C161.213 154.892 161.447 154.174 161.447 153.254ZM162.783 149.158V157.2H161.447V155.741C161.125 156.327 160.712 156.775 160.208 157.086C159.71 157.391 159.15 157.543 158.529 157.543C157.375 157.543 156.443 157.147 155.734 156.356C155.031 155.56 154.679 154.508 154.679 153.201C154.679 151.877 155.022 150.825 155.708 150.046C156.393 149.261 157.31 148.868 158.459 148.868C159.132 148.868 159.715 149.021 160.208 149.325C160.706 149.624 161.107 150.072 161.412 150.67V149.158H162.783ZM177.004 153.254C177.004 152.346 176.755 151.616 176.256 151.065C175.764 150.509 175.12 150.23 174.323 150.23C173.497 150.23 172.852 150.485 172.389 150.995C171.926 151.505 171.695 152.217 171.695 153.131C171.695 154.104 171.926 154.854 172.389 155.381C172.858 155.908 173.52 156.172 174.376 156.172C175.196 156.172 175.838 155.917 176.3 155.407C176.769 154.892 177.004 154.174 177.004 153.254ZM178.339 149.158V157.2H177.004V155.741C176.681 156.327 176.268 156.775 175.764 157.086C175.266 157.391 174.707 157.543 174.086 157.543C172.931 157.543 172 157.147 171.291 156.356C170.588 155.56 170.236 154.508 170.236 153.201C170.236 151.877 170.579 150.825 171.264 150.046C171.95 149.261 172.867 148.868 174.015 148.868C174.689 148.868 175.272 149.021 175.764 149.325C176.262 149.624 176.664 150.072 176.968 150.67V149.158H178.339ZM186.619 150.292H185.142V149.158H186.619V145.915H188.025V149.158H189.502V150.292H188.025V157.2H186.619V150.292ZM192.358 149.158V153.113C192.358 154.268 192.528 155.076 192.868 155.539C193.214 155.996 193.794 156.225 194.608 156.225C195.422 156.225 195.997 155.999 196.331 155.548C196.671 155.091 196.84 154.279 196.84 153.113V149.158H198.247V153.852C198.247 155.064 197.936 155.984 197.315 156.611C196.694 157.232 195.78 157.543 194.573 157.543C193.378 157.543 192.469 157.229 191.848 156.603C191.227 155.976 190.917 155.059 190.917 153.852V149.158H192.358ZM200.057 155.847L201.235 155.056C201.458 155.483 201.739 155.806 202.079 156.022C202.419 156.233 202.82 156.339 203.283 156.339C203.734 156.339 204.097 156.228 204.373 156.005C204.654 155.782 204.795 155.489 204.795 155.126C204.795 154.845 204.698 154.61 204.505 154.423C204.317 154.235 203.992 154.062 203.529 153.904C203.482 153.887 203.406 153.86 203.3 153.825C201.343 153.151 200.365 152.308 200.365 151.294C200.365 150.579 200.629 149.996 201.156 149.545C201.683 149.094 202.369 148.868 203.213 148.868C203.91 148.868 204.507 149.009 205.005 149.29C205.504 149.565 205.861 149.958 206.078 150.468L204.962 151.153C204.797 150.784 204.554 150.5 204.232 150.301C203.916 150.102 203.547 150.002 203.125 150.002C202.72 150.002 202.389 150.116 202.131 150.345C201.88 150.567 201.754 150.854 201.754 151.206C201.754 151.698 202.287 152.111 203.353 152.445C203.552 152.51 203.711 152.56 203.828 152.595C204.701 152.876 205.307 153.198 205.647 153.562C205.993 153.919 206.166 154.394 206.166 154.985C206.166 155.747 205.893 156.365 205.348 156.84C204.809 157.309 204.103 157.543 203.23 157.543C202.48 157.543 201.841 157.402 201.314 157.121C200.793 156.84 200.374 156.415 200.057 155.847ZM214.876 153.201C214.876 154.104 215.125 154.827 215.623 155.372C216.121 155.917 216.78 156.189 217.6 156.189C218.403 156.189 219.033 155.94 219.49 155.442C219.953 154.944 220.184 154.253 220.184 153.368C220.184 152.378 219.953 151.602 219.49 151.039C219.033 150.477 218.394 150.195 217.574 150.195C216.736 150.195 216.077 150.462 215.596 150.995C215.116 151.528 214.876 152.264 214.876 153.201ZM213.548 161.12V149.158H214.858V150.67C215.169 150.09 215.579 149.645 216.089 149.334C216.598 149.023 217.167 148.868 217.794 148.868C218.954 148.868 219.885 149.264 220.589 150.055C221.292 150.846 221.643 151.895 221.643 153.201C221.643 154.531 221.297 155.589 220.606 156.374C219.921 157.153 219.001 157.543 217.846 157.543C217.184 157.543 216.607 157.394 216.115 157.095C215.623 156.79 215.221 156.339 214.911 155.741V161.12H213.548ZM223.867 157.2V149.158H225.089V150.828C225.458 150.131 225.85 149.633 226.266 149.334C226.682 149.035 227.189 148.886 227.787 148.886C227.951 148.886 228.109 148.9 228.261 148.93C228.414 148.953 228.566 148.991 228.718 149.044L228.261 150.283C228.103 150.23 227.954 150.192 227.813 150.169C227.672 150.14 227.538 150.125 227.409 150.125C226.682 150.125 226.137 150.389 225.774 150.916C225.411 151.438 225.229 152.226 225.229 153.28V157.2H223.867ZM230.986 153.201C230.986 154.051 231.27 154.771 231.839 155.363C232.407 155.949 233.095 156.242 233.904 156.242C234.707 156.242 235.389 155.949 235.952 155.363C236.514 154.771 236.796 154.051 236.796 153.201C236.796 152.352 236.514 151.634 235.952 151.048C235.389 150.456 234.707 150.16 233.904 150.16C233.089 150.16 232.398 150.456 231.83 151.048C231.267 151.634 230.986 152.352 230.986 153.201ZM229.527 153.201C229.527 152.609 229.635 152.053 229.852 151.531C230.069 151.004 230.385 150.535 230.801 150.125C231.217 149.715 231.689 149.404 232.216 149.193C232.744 148.977 233.306 148.868 233.904 148.868C234.49 148.868 235.044 148.977 235.565 149.193C236.092 149.41 236.57 149.727 236.998 150.143C237.414 150.547 237.73 151.013 237.947 151.54C238.164 152.062 238.272 152.615 238.272 153.201C238.272 153.787 238.164 154.341 237.947 154.862C237.73 155.378 237.414 155.838 236.998 156.242C236.57 156.664 236.089 156.986 235.556 157.209C235.029 157.432 234.478 157.543 233.904 157.543C233.312 157.543 232.75 157.432 232.216 157.209C231.689 156.992 231.217 156.679 230.801 156.269C230.385 155.847 230.069 155.378 229.852 154.862C229.635 154.347 229.527 153.793 229.527 153.201ZM240.1 161.12L242.28 156.409L239.125 149.158H240.715L243.053 154.933L245.532 149.158H247.044L241.647 161.12H240.1ZM254.057 152.27C254.01 151.561 253.773 151.016 253.345 150.635C252.923 150.248 252.343 150.055 251.605 150.055C250.937 150.055 250.38 150.257 249.935 150.661C249.49 151.06 249.232 151.596 249.162 152.27H254.057ZM255.534 153.386H249.162V153.509C249.162 154.37 249.408 155.067 249.9 155.601C250.392 156.128 251.034 156.392 251.825 156.392C252.364 156.392 252.85 156.248 253.284 155.961C253.717 155.668 254.101 155.229 254.435 154.643L255.481 155.346C255.077 156.072 254.561 156.62 253.934 156.989C253.307 157.358 252.581 157.543 251.755 157.543C250.53 157.543 249.54 157.139 248.784 156.33C248.028 155.521 247.65 154.461 247.65 153.148C247.65 151.889 248.025 150.857 248.775 150.055C249.525 149.252 250.489 148.851 251.667 148.851C252.856 148.851 253.797 149.231 254.488 149.993C255.185 150.755 255.534 151.795 255.534 153.113V153.386ZM263.787 155.293V156.893C263.423 157.109 263.013 157.271 262.556 157.376C262.105 157.487 261.616 157.543 261.089 157.543C259.846 157.543 258.844 157.15 258.083 156.365C257.327 155.574 256.949 154.537 256.949 153.254C256.949 151.965 257.341 150.913 258.127 150.099C258.912 149.278 259.917 148.868 261.141 148.868C261.587 148.868 262.02 148.915 262.442 149.009C262.87 149.103 263.271 149.24 263.646 149.422V150.898C263.295 150.67 262.931 150.497 262.556 150.38C262.181 150.257 261.8 150.195 261.414 150.195C260.511 150.195 259.788 150.479 259.243 151.048C258.698 151.61 258.425 152.36 258.425 153.298C258.425 154.124 258.698 154.815 259.243 155.372C259.794 155.929 260.482 156.207 261.308 156.207C261.724 156.207 262.131 156.134 262.53 155.987C262.928 155.841 263.347 155.609 263.787 155.293ZM265.914 150.292H264.437V149.158H265.914V145.915H267.32V149.158H268.797V150.292H267.32V157.2H265.914V150.292ZM271.17 153.201C271.17 154.051 271.454 154.771 272.022 155.363C272.59 155.949 273.279 156.242 274.088 156.242C274.89 156.242 275.573 155.949 276.135 155.363C276.698 154.771 276.979 154.051 276.979 153.201C276.979 152.352 276.698 151.634 276.135 151.048C275.573 150.456 274.89 150.16 274.088 150.16C273.273 150.16 272.582 150.456 272.013 151.048C271.451 151.634 271.17 152.352 271.17 153.201ZM269.711 153.201C269.711 152.609 269.819 152.053 270.036 151.531C270.253 151.004 270.569 150.535 270.985 150.125C271.401 149.715 271.873 149.404 272.4 149.193C272.927 148.977 273.49 148.868 274.088 148.868C274.673 148.868 275.227 148.977 275.749 149.193C276.276 149.41 276.754 149.727 277.181 150.143C277.597 150.547 277.914 151.013 278.13 151.54C278.347 152.062 278.456 152.615 278.456 153.201C278.456 153.787 278.347 154.341 278.13 154.862C277.914 155.378 277.597 155.838 277.181 156.242C276.754 156.664 276.273 156.986 275.74 157.209C275.213 157.432 274.662 157.543 274.088 157.543C273.496 157.543 272.933 157.432 272.4 157.209C271.873 156.992 271.401 156.679 270.985 156.269C270.569 155.847 270.253 155.378 270.036 154.862C269.819 154.347 269.711 153.793 269.711 153.201ZM279.756 155.847L280.934 155.056C281.157 155.483 281.438 155.806 281.778 156.022C282.118 156.233 282.519 156.339 282.982 156.339C283.433 156.339 283.797 156.228 284.072 156.005C284.353 155.782 284.494 155.489 284.494 155.126C284.494 154.845 284.397 154.61 284.204 154.423C284.016 154.235 283.691 154.062 283.228 153.904C283.181 153.887 283.105 153.86 283 153.825C281.043 153.151 280.064 152.308 280.064 151.294C280.064 150.579 280.328 149.996 280.855 149.545C281.382 149.094 282.068 148.868 282.912 148.868C283.609 148.868 284.207 149.009 284.705 149.29C285.203 149.565 285.56 149.958 285.777 150.468L284.661 151.153C284.497 150.784 284.254 150.5 283.931 150.301C283.615 150.102 283.246 150.002 282.824 150.002C282.42 150.002 282.089 150.116 281.831 150.345C281.579 150.567 281.453 150.854 281.453 151.206C281.453 151.698 281.986 152.111 283.052 152.445C283.252 152.51 283.41 152.56 283.527 152.595C284.4 152.876 285.006 153.198 285.346 153.562C285.692 153.919 285.865 154.394 285.865 154.985C285.865 155.747 285.592 156.365 285.047 156.84C284.508 157.309 283.802 157.543 282.929 157.543C282.179 157.543 281.541 157.402 281.013 157.121C280.492 156.84 280.073 156.415 279.756 155.847Z" fill="white"/>
<path d="M23.4625 31V8.125H36.9313V12.25H28.3531V16.9531H36.9313V21.1094H28.3531V26.8438H36.9313V31H23.4625ZM41.7438 31V8.125H46.6344V26.8438H54.4469V31H41.7438ZM85.7906 14.0781C84.8011 13.1927 83.7854 12.5469 82.7438 12.1406C81.7021 11.724 80.5875 11.5156 79.4 11.5156C76.9625 11.5156 75.0198 12.2448 73.5719 13.7031C72.124 15.1615 71.4 17.1198 71.4 19.5781C71.4 21.9844 72.0719 23.8958 73.4156 25.3125C74.7594 26.7188 76.5927 27.4219 78.9156 27.4219C80.2386 27.4219 81.4677 27.2031 82.6031 26.7656C83.7386 26.3177 84.7906 25.651 85.7594 24.7656L85.7281 29.7812C84.6865 30.3958 83.5927 30.8542 82.4469 31.1562C81.3115 31.4583 80.1136 31.6094 78.8531 31.6094C75.2073 31.6094 72.2125 30.4792 69.8688 28.2188C67.5354 25.9479 66.3688 23.0677 66.3688 19.5781C66.3688 16.099 67.5406 13.2292 69.8844 10.9688C72.2281 8.70833 75.249 7.57812 78.9469 7.57812C80.1865 7.57812 81.3844 7.70833 82.5406 7.96875C83.6969 8.22917 84.8375 8.63021 85.9625 9.17188L85.7906 14.0781ZM102.181 22.2969L99.6188 14.9062C99.5459 14.6875 99.4521 14.3125 99.3375 13.7812C99.2229 13.25 99.1031 12.599 98.9781 11.8281C98.8427 12.5677 98.7125 13.2344 98.5875 13.8281C98.4625 14.4115 98.3688 14.8021 98.3063 15L95.8375 22.2969H102.181ZM87.6188 31L96.3219 8.125H101.916L110.744 31H105.181L103.322 26.1406H94.4625L92.8688 31H87.6188ZM118.072 18.4531H118.775C120.108 18.4531 121.077 18.1771 121.681 17.625C122.285 17.0729 122.588 16.1875 122.588 14.9688C122.588 13.8438 122.285 13.026 121.681 12.5156C121.077 11.9948 120.108 11.7344 118.775 11.7344H118.072V18.4531ZM113.15 31V8.125H118.775C121.775 8.125 123.989 8.69792 125.416 9.84375C126.853 10.9896 127.572 12.7604 127.572 15.1562C127.572 17.375 126.848 19.1146 125.4 20.375C123.963 21.6354 121.968 22.2656 119.416 22.2656H118.072V31H113.15ZM131.056 31V8.125H135.947V31H131.056ZM149.728 12.2812V31H144.822V12.2812H139.228V8.125H155.353V12.2812H149.728ZM168.619 22.2969L166.056 14.9062C165.983 14.6875 165.89 14.3125 165.775 13.7812C165.66 13.25 165.541 12.599 165.416 11.8281C165.28 12.5677 165.15 13.2344 165.025 13.8281C164.9 14.4115 164.806 14.8021 164.744 15L162.275 22.2969H168.619ZM154.056 31L162.759 8.125H168.353L177.181 31H171.619L169.759 26.1406H160.9L159.306 31H154.056ZM179.588 31V8.125H184.478V26.8438H192.291V31H179.588ZM210.134 18.4531H210.838C212.171 18.4531 213.14 18.1771 213.744 17.625C214.348 17.0729 214.65 16.1875 214.65 14.9688C214.65 13.8438 214.348 13.026 213.744 12.5156C213.14 11.9948 212.171 11.7344 210.838 11.7344H210.134V18.4531ZM205.213 31V8.125H210.838C213.838 8.125 216.051 8.69792 217.478 9.84375C218.916 10.9896 219.634 12.7604 219.634 15.1562C219.634 17.375 218.91 19.1146 217.463 20.375C216.025 21.6354 214.03 22.2656 211.478 22.2656H210.134V31H205.213ZM233.275 22.2969L230.713 14.9062C230.64 14.6875 230.546 14.3125 230.431 13.7812C230.317 13.25 230.197 12.599 230.072 11.8281C229.936 12.5677 229.806 13.2344 229.681 13.8281C229.556 14.4115 229.463 14.8021 229.4 15L226.931 22.2969H233.275ZM218.713 31L227.416 8.125H233.009L241.838 31H236.275L234.416 26.1406H225.556L223.963 31H218.713ZM260.791 31H255.15L249.134 20.3125V31H244.244V8.125H251.244C254.025 8.125 256.108 8.66667 257.494 9.75C258.879 10.8229 259.572 12.4427 259.572 14.6094C259.572 16.1823 259.098 17.526 258.15 18.6406C257.202 19.7552 255.978 20.4062 254.478 20.5938L260.791 31ZM249.134 17.875H249.869C251.848 17.875 253.155 17.6615 253.791 17.2344C254.426 16.7969 254.744 16.0417 254.744 14.9688C254.744 13.8438 254.4 13.0469 253.713 12.5781C253.035 12.099 251.754 11.8594 249.869 11.8594H249.134V17.875ZM275.494 22.2969L272.931 14.9062C272.858 14.6875 272.765 14.3125 272.65 13.7812C272.535 13.25 272.416 12.599 272.291 11.8281C272.155 12.5677 272.025 13.2344 271.9 13.8281C271.775 14.4115 271.681 14.8021 271.619 15L269.15 22.2969H275.494ZM260.931 31L269.634 8.125H275.228L284.056 31H278.494L276.634 26.1406H267.775L266.181 31H260.931ZM23.5563 69V46.125H28.4469V69H23.5563ZM31.6969 69L35.1813 46.125H40.3063L44.7125 59.5938C44.8063 59.875 44.9052 60.2865 45.0094 60.8281C45.124 61.3698 45.2281 61.9896 45.3219 62.6875C45.4052 61.9792 45.499 61.349 45.6031 60.7969C45.7073 60.2344 45.8063 59.8229 45.9 59.5625L50.3844 46.125H55.4313L58.9313 69H54.2906L52.6188 55.2031C52.4938 54.1823 52.4104 53.4115 52.3688 52.8906C52.3271 52.3698 52.3063 51.8854 52.3063 51.4375C52.3063 51.1979 52.3063 51.0208 52.3063 50.9062C52.3167 50.7812 52.3271 50.6719 52.3375 50.5781C52.1813 51.474 52.0302 52.25 51.8844 52.9062C51.749 53.5521 51.624 54.0417 51.5094 54.375L46.6656 69H43.9156L39.15 54.375C39.1084 54.2396 39.0146 53.8646 38.8688 53.25C38.7334 52.6354 38.5406 51.7396 38.2906 50.5625V51.2344C38.2906 52.2969 38.1969 53.599 38.0094 55.1406L37.9938 55.2031L36.3375 69H31.6969ZM67.0406 56.4531H67.7438C69.0771 56.4531 70.0459 56.1771 70.65 55.625C71.2542 55.0729 71.5563 54.1875 71.5563 52.9688C71.5563 51.8438 71.2542 51.026 70.65 50.5156C70.0459 49.9948 69.0771 49.7344 67.7438 49.7344H67.0406V56.4531ZM62.1188 69V46.125H67.7438C70.7438 46.125 72.9573 46.6979 74.3844 47.8438C75.8219 48.9896 76.5406 50.7604 76.5406 53.1562C76.5406 55.375 75.8167 57.1146 74.3688 58.375C72.9313 59.6354 70.9365 60.2656 68.3844 60.2656H67.0406V69H62.1188ZM99.6031 46.125V60.3594C99.6031 63.4635 98.7854 65.7812 97.15 67.3125C95.5146 68.8438 93.0511 69.6094 89.7594 69.6094C86.4156 69.6094 83.9261 68.8438 82.2906 67.3125C80.6552 65.7812 79.8375 63.4635 79.8375 60.3594V46.125H84.6969V59.5938C84.6969 61.4792 85.1136 62.901 85.9469 63.8594C86.7802 64.8073 88.025 65.2812 89.6813 65.2812C91.3479 65.2812 92.6084 64.8021 93.4625 63.8438C94.3167 62.8854 94.7438 61.4688 94.7438 59.5938V46.125H99.6031ZM104.681 69V46.125H109.572V64.8438H117.384V69H104.681ZM118.994 66.0938L121.713 63.0156C122.056 63.8594 122.608 64.526 123.369 65.0156C124.129 65.4948 124.983 65.7344 125.931 65.7344C127.077 65.7344 127.983 65.4635 128.65 64.9219C129.317 64.3802 129.65 63.651 129.65 62.7344C129.65 61.651 128.541 60.5729 126.322 59.5C125.603 59.1562 125.035 58.875 124.619 58.6562C122.619 57.6146 121.233 56.599 120.463 55.6094C119.692 54.6094 119.306 53.4219 119.306 52.0469C119.306 50.1615 120.051 48.6146 121.541 47.4062C123.041 46.1875 124.983 45.5781 127.369 45.5781C128.754 45.5781 129.947 45.8229 130.947 46.3125C131.957 46.7917 132.848 47.5469 133.619 48.5781L130.728 51.3438C130.384 50.6771 129.926 50.1823 129.353 49.8594C128.791 49.526 128.108 49.3594 127.306 49.3594C126.338 49.3594 125.556 49.6042 124.963 50.0938C124.369 50.5729 124.072 51.1979 124.072 51.9688C124.072 53.1771 125.249 54.2812 127.603 55.2812C128.072 55.4792 128.431 55.6354 128.681 55.75C130.619 56.6354 132.051 57.6354 132.978 58.75C133.916 59.8646 134.384 61.1354 134.384 62.5625C134.384 64.7083 133.65 66.4219 132.181 67.7031C130.723 68.974 128.759 69.6094 126.291 69.6094C124.541 69.6094 123.041 69.3073 121.791 68.7031C120.541 68.099 119.608 67.2292 118.994 66.0938ZM150.244 60.2969L147.681 52.9062C147.608 52.6875 147.515 52.3125 147.4 51.7812C147.285 51.25 147.166 50.599 147.041 49.8281C146.905 50.5677 146.775 51.2344 146.65 51.8281C146.525 52.4115 146.431 52.8021 146.369 53L143.9 60.2969H150.244ZM135.681 69L144.384 46.125H149.978L158.806 69H153.244L151.384 64.1406H142.525L140.931 69H135.681ZM177.759 69H172.119L166.103 58.3125V69H161.213V46.125H168.213C170.994 46.125 173.077 46.6667 174.463 47.75C175.848 48.8229 176.541 50.4427 176.541 52.6094C176.541 54.1823 176.067 55.526 175.119 56.6406C174.171 57.7552 172.947 58.4062 171.447 58.5938L177.759 69ZM166.103 55.875H166.838C168.817 55.875 170.124 55.6615 170.759 55.2344C171.395 54.7969 171.713 54.0417 171.713 52.9688C171.713 51.8438 171.369 51.0469 170.681 50.5781C170.004 50.099 168.723 49.8594 166.838 49.8594H166.103V55.875ZM199.009 50.2812V69H194.103V50.2812H188.509V46.125H204.634V50.2812H199.009ZM227.478 46.125V60.3594C227.478 63.4635 226.66 65.7812 225.025 67.3125C223.39 68.8438 220.926 69.6094 217.634 69.6094C214.291 69.6094 211.801 68.8438 210.166 67.3125C208.53 65.7812 207.713 63.4635 207.713 60.3594V46.125H212.572V59.5938C212.572 61.4792 212.989 62.901 213.822 63.8594C214.655 64.8073 215.9 65.2812 217.556 65.2812C219.223 65.2812 220.483 64.8021 221.338 63.8438C222.192 62.8854 222.619 61.4688 222.619 59.5938V46.125H227.478ZM242.4 69V46.125H247.478L257.603 59.4375C257.895 59.8125 258.213 60.3438 258.556 61.0312C258.91 61.7083 259.275 62.5104 259.65 63.4375C259.535 62.7604 259.452 62.0885 259.4 61.4219C259.348 60.7552 259.322 59.9219 259.322 58.9219V46.125H263.994V69H259.197L248.791 55.4375C248.499 55.0625 248.181 54.5365 247.838 53.8594C247.494 53.1719 247.129 52.3542 246.744 51.4062C246.858 52.0625 246.942 52.7292 246.994 53.4062C247.046 54.0729 247.072 54.9167 247.072 55.9375V69H242.4ZM269.088 69V46.125H282.556V50.25H273.978V54.9531H282.556V59.1094H273.978V64.8438H282.556V69H269.088ZM298.728 56.9375H309.15C309.171 57.0729 309.181 57.2188 309.181 57.375C309.192 57.5312 309.197 57.7708 309.197 58.0938C309.197 61.5208 308.218 64.2969 306.259 66.4219C304.301 68.5469 301.77 69.6094 298.666 69.6094C295.114 69.6094 292.186 68.4792 289.884 66.2188C287.582 63.9479 286.431 61.0677 286.431 57.5781C286.431 54.1198 287.588 51.2604 289.9 49C292.213 46.7396 295.134 45.6094 298.666 45.6094C300.53 45.6094 302.239 46 303.791 46.7812C305.343 47.5625 306.728 48.7292 307.947 50.2812L304.65 52.7188C303.827 51.6979 302.963 50.9635 302.056 50.5156C301.15 50.0573 300.103 49.8281 298.916 49.8281C296.655 49.8281 294.848 50.5312 293.494 51.9375C292.14 53.3438 291.463 55.224 291.463 57.5781C291.463 59.8906 292.14 61.7604 293.494 63.1875C294.858 64.6042 296.634 65.3125 298.822 65.3125C300.426 65.3125 301.728 64.9375 302.728 64.1875C303.728 63.4271 304.228 62.4375 304.228 61.2188V60.9688H298.728V56.9375ZM336.509 57.6094C336.509 59.2448 336.202 60.7917 335.588 62.25C334.983 63.7083 334.108 64.9896 332.963 66.0938C331.775 67.2292 330.436 68.099 328.947 68.7031C327.457 69.3073 325.916 69.6094 324.322 69.6094C322.926 69.6094 321.556 69.375 320.213 68.9062C318.879 68.4271 317.655 67.7448 316.541 66.8594C315.103 65.7135 313.999 64.3438 313.228 62.75C312.468 61.1562 312.088 59.4427 312.088 57.6094C312.088 55.9635 312.39 54.4219 312.994 52.9844C313.598 51.5365 314.483 50.25 315.65 49.125C316.796 48.0104 318.124 47.1458 319.634 46.5312C321.155 45.9167 322.718 45.6094 324.322 45.6094C325.916 45.6094 327.463 45.9167 328.963 46.5312C330.473 47.1458 331.806 48.0104 332.963 49.125C334.119 50.25 334.999 51.5365 335.603 52.9844C336.207 54.4323 336.509 55.974 336.509 57.6094ZM324.322 65.25C326.395 65.25 328.103 64.526 329.447 63.0781C330.801 61.6198 331.478 59.7969 331.478 57.6094C331.478 55.4427 330.796 53.6198 329.431 52.1406C328.067 50.6615 326.364 49.9219 324.322 49.9219C322.249 49.9219 320.53 50.6615 319.166 52.1406C317.801 53.6094 317.119 55.4323 317.119 57.6094C317.119 59.8177 317.791 61.6458 319.134 63.0938C320.478 64.5312 322.207 65.25 324.322 65.25ZM359.072 52.0781C358.082 51.1927 357.067 50.5469 356.025 50.1406C354.983 49.724 353.869 49.5156 352.681 49.5156C350.244 49.5156 348.301 50.2448 346.853 51.7031C345.405 53.1615 344.681 55.1198 344.681 57.5781C344.681 59.9844 345.353 61.8958 346.697 63.3125C348.041 64.7188 349.874 65.4219 352.197 65.4219C353.52 65.4219 354.749 65.2031 355.884 64.7656C357.02 64.3177 358.072 63.651 359.041 62.7656L359.009 67.7812C357.968 68.3958 356.874 68.8542 355.728 69.1562C354.593 69.4583 353.395 69.6094 352.134 69.6094C348.489 69.6094 345.494 68.4792 343.15 66.2188C340.817 63.9479 339.65 61.0677 339.65 57.5781C339.65 54.099 340.822 51.2292 343.166 48.9688C345.509 46.7083 348.53 45.5781 352.228 45.5781C353.468 45.5781 354.666 45.7083 355.822 45.9688C356.978 46.2292 358.119 46.6302 359.244 47.1719L359.072 52.0781ZM363.713 69V46.125H368.603V69H363.713ZM397.259 57.6094C397.259 59.2448 396.952 60.7917 396.338 62.25C395.733 63.7083 394.858 64.9896 393.713 66.0938C392.525 67.2292 391.186 68.099 389.697 68.7031C388.207 69.3073 386.666 69.6094 385.072 69.6094C383.676 69.6094 382.306 69.375 380.963 68.9062C379.629 68.4271 378.405 67.7448 377.291 66.8594C375.853 65.7135 374.749 64.3438 373.978 62.75C373.218 61.1562 372.838 59.4427 372.838 57.6094C372.838 55.9635 373.14 54.4219 373.744 52.9844C374.348 51.5365 375.233 50.25 376.4 49.125C377.546 48.0104 378.874 47.1458 380.384 46.5312C381.905 45.9167 383.468 45.6094 385.072 45.6094C386.666 45.6094 388.213 45.9167 389.713 46.5312C391.223 47.1458 392.556 48.0104 393.713 49.125C394.869 50.25 395.749 51.5365 396.353 52.9844C396.957 54.4323 397.259 55.974 397.259 57.6094ZM385.072 65.25C387.145 65.25 388.853 64.526 390.197 63.0781C391.551 61.6198 392.228 59.7969 392.228 57.6094C392.228 55.4427 391.546 53.6198 390.181 52.1406C388.817 50.6615 387.114 49.9219 385.072 49.9219C382.999 49.9219 381.28 50.6615 379.916 52.1406C378.551 53.6094 377.869 55.4323 377.869 57.6094C377.869 59.8177 378.541 61.6458 379.884 63.0938C381.228 64.5312 382.957 65.25 385.072 65.25Z" fill="white"/>
</svg>
