<svg width="701" height="241" viewBox="0 0 701 241" fill="none" xmlns="http://www.w3.org/2000/svg">
<path d="M44.3674 58V10.0865H54.6111V49.2944H70.975V58H44.3674ZM102.23 39.7706L96.8627 24.2904C96.71 23.8322 96.5136 23.0467 96.2736 21.934C96.0336 20.8213 95.7827 19.4576 95.5209 17.843C95.2372 19.3921 94.9645 20.7885 94.7027 22.0322C94.4408 23.254 94.2445 24.0722 94.1136 24.4868L88.9426 39.7706H102.23ZM71.7278 58L89.9571 10.0865H101.674L120.165 58H108.514L104.619 47.8217H86.0625L82.7243 58H71.7278ZM156.067 50.0144H160.093C162.667 50.0144 164.62 49.4581 165.951 48.3453C167.282 47.2107 167.947 45.5634 167.947 43.4034C167.947 41.3743 167.282 39.8252 165.951 38.7561C164.642 37.687 162.733 37.1524 160.224 37.1524H156.067V50.0144ZM156.067 29.2323H158.358C161.456 29.2323 163.649 28.7959 164.936 27.9232C166.224 27.0504 166.867 25.5886 166.867 23.5377C166.867 21.5304 166.246 20.1012 165.002 19.2503C163.78 18.3994 161.631 17.9739 158.555 17.9739H156.067V29.2323ZM145.823 58V10.0865H154.791C159.438 10.0865 162.831 10.272 164.969 10.6429C167.129 10.992 168.995 11.5811 170.566 12.4102C172.42 13.4793 173.849 14.8866 174.853 16.6321C175.878 18.3776 176.391 20.3522 176.391 22.5558C176.391 25.3922 175.551 27.6723 173.871 29.3959C172.191 31.0978 169.682 32.2323 166.344 32.7996C170.206 33.3669 173.118 34.6215 175.082 36.5633C177.068 38.5052 178.06 41.0907 178.06 44.3198C178.06 46.6762 177.493 48.8362 176.358 50.7999C175.224 52.7417 173.664 54.2472 171.678 55.3163C169.911 56.2763 167.838 56.9636 165.46 57.3782C163.082 57.7927 159.144 58 153.645 58H152.598H145.823ZM210.69 39.7706L205.323 24.2904C205.17 23.8322 204.973 23.0467 204.733 21.934C204.493 20.8213 204.243 19.4576 203.981 17.843C203.697 19.3921 203.424 20.7885 203.162 22.0322C202.901 23.254 202.704 24.0722 202.573 24.4868L197.402 39.7706H210.69ZM180.188 58L198.417 10.0865H210.134L228.625 58H216.974L213.079 47.8217H194.522L191.184 58H180.188ZM233.665 58V10.0865H244.301L265.509 37.9706C266.12 38.7561 266.785 39.8688 267.505 41.3088C268.247 42.727 269.011 44.4071 269.796 46.3489C269.556 44.9307 269.382 43.5234 269.273 42.127C269.164 40.7306 269.109 38.9852 269.109 36.8906V10.0865H278.895V58H268.847L247.05 29.5923C246.44 28.8068 245.774 27.705 245.054 26.2868C244.334 24.8468 243.57 23.134 242.763 21.1485C243.003 22.5231 243.178 23.9195 243.287 25.3377C243.396 26.7341 243.45 28.5014 243.45 30.6396V58H233.665ZM328.15 22.5558C326.077 20.7013 323.95 19.3485 321.768 18.4976C319.586 17.6248 317.252 17.1885 314.764 17.1885C309.659 17.1885 305.59 18.7158 302.557 21.7704C299.524 24.8249 298.008 28.9268 298.008 34.076C298.008 39.1161 299.415 43.1198 302.229 46.0871C305.044 49.0326 308.884 50.5053 313.75 50.5053C316.521 50.5053 319.095 50.0472 321.473 49.1308C323.852 48.1926 326.055 46.7962 328.084 44.9416L328.019 55.4472C325.837 56.7345 323.546 57.6945 321.146 58.3273C318.768 58.96 316.259 59.2764 313.619 59.2764C305.982 59.2764 299.709 56.9091 294.8 52.1745C289.913 47.418 287.469 41.3852 287.469 34.076C287.469 26.7886 289.924 20.7776 294.833 16.043C299.742 11.3084 306.07 8.94107 313.815 8.94107C316.411 8.94107 318.921 9.2138 321.342 9.75927C323.764 10.3047 326.153 11.1447 328.51 12.2793L328.15 22.5558ZM362.481 39.7706L357.114 24.2904C356.961 23.8322 356.765 23.0467 356.525 21.934C356.285 20.8213 356.034 19.4576 355.772 17.843C355.488 19.3921 355.216 20.7885 354.954 22.0322C354.692 23.254 354.496 24.0722 354.365 24.4868L349.194 39.7706H362.481ZM331.979 58L350.208 10.0865H361.925L380.416 58H368.765L364.87 47.8217H346.314L342.976 58H331.979ZM436.446 41.767L439.981 45.9235C441.464 44.3962 442.599 42.607 443.384 40.5561C444.192 38.4833 444.595 36.3451 444.595 34.1415C444.595 29.6032 443.166 25.785 440.308 22.6867C437.45 19.5885 433.882 18.0394 429.606 18.0394C425.264 18.0394 421.664 19.5885 418.806 22.6867C415.948 25.7631 414.518 29.5814 414.518 34.1415C414.518 38.7452 415.915 42.5634 418.708 45.5962C421.522 48.6289 425.089 50.1453 429.41 50.1453C429.78 50.1453 430.293 50.1126 430.948 50.0472C431.624 49.9599 432.421 49.8399 433.337 49.6871L426.431 41.767H436.446ZM454.872 63.5637H444.661L439.457 57.4109C437.101 58.0218 435.137 58.4582 433.566 58.72C432.017 59.0037 430.631 59.1455 429.41 59.1455C426.115 59.1455 422.886 58.5018 419.722 57.2145C416.558 55.9272 413.798 54.1381 411.442 51.8472C409.02 49.4908 407.155 46.7853 405.846 43.7307C404.558 40.6543 403.915 37.4361 403.915 34.076C403.915 30.7159 404.558 27.5195 405.846 24.4868C407.133 21.4322 408.998 18.7049 411.442 16.3048C413.82 13.9484 416.569 12.1484 419.689 10.9047C422.831 9.63926 426.137 9.00653 429.606 9.00653C433.01 9.00653 436.271 9.63926 439.392 10.9047C442.512 12.1484 445.283 13.9484 447.704 16.3048C450.126 18.683 451.981 21.3885 453.268 24.4213C454.555 27.4541 455.199 30.6723 455.199 34.076C455.199 37.8288 454.424 41.3307 452.875 44.5816C451.326 47.8326 449.057 50.7235 446.068 53.2545L454.872 63.5637ZM505.011 10.0865V39.9015C505.011 46.4035 503.298 51.2581 499.872 54.4654C496.447 57.6727 491.287 59.2764 484.392 59.2764C477.388 59.2764 472.174 57.6727 468.748 54.4654C465.323 51.2581 463.61 46.4035 463.61 39.9015V10.0865H473.788V38.2979C473.788 42.247 474.661 45.2253 476.407 47.2326C478.152 49.218 480.759 50.2108 484.229 50.2108C487.72 50.2108 490.36 49.2071 492.149 47.1998C493.938 45.1925 494.832 42.2252 494.832 38.2979V10.0865H505.011ZM515.647 58V10.0865H543.859V18.7267H525.891V28.5777H543.859V37.2833H525.891V49.2944H543.859V58H515.647ZM592.459 18.7921V58H582.183V18.7921H570.466V10.0865H604.241V18.7921H592.459ZM652.089 10.0865V39.9015C652.089 46.4035 650.377 51.2581 646.951 54.4654C643.526 57.6727 638.365 59.2764 631.471 59.2764C624.467 59.2764 619.252 57.6727 615.827 54.4654C612.401 51.2581 610.689 46.4035 610.689 39.9015V10.0865H620.867V38.2979C620.867 42.247 621.74 45.2253 623.485 47.2326C625.231 49.218 627.838 50.2108 631.307 50.2108C634.798 50.2108 637.438 49.2071 639.227 47.1998C641.016 45.1925 641.911 42.2252 641.911 38.2979V10.0865H652.089ZM44.3674 125V77.0865H72.5787V85.7267H54.6111V95.5777H72.5787V104.283H54.6111V116.294H72.5787V125H44.3674ZM78.5024 125L85.8007 77.0865H96.5354L105.765 105.298C105.961 105.887 106.168 106.749 106.386 107.883C106.626 109.018 106.845 110.316 107.041 111.778C107.216 110.294 107.412 108.974 107.63 107.818C107.848 106.64 108.056 105.778 108.252 105.232L117.645 77.0865H128.216L135.547 125H125.827L122.325 96.1014C122.063 93.9632 121.889 92.3486 121.801 91.2577C121.714 90.1667 121.67 89.1522 121.67 88.214C121.67 87.7122 121.67 87.3412 121.67 87.1012C121.692 86.8394 121.714 86.6103 121.736 86.414C121.409 88.2904 121.092 89.9158 120.787 91.2904C120.503 92.6431 120.241 93.6686 120.001 94.3668L109.856 125H104.096L94.1136 94.3668C94.0263 94.0832 93.8299 93.2977 93.5245 92.0104C93.2408 90.7231 92.8372 88.8467 92.3135 86.3812V87.7885C92.3135 90.014 92.1172 92.7413 91.7244 95.9705L91.6917 96.1014L88.2226 125H78.5024ZM152.533 98.7196H154.005C156.798 98.7196 158.827 98.1414 160.093 96.985C161.358 95.8286 161.991 93.9741 161.991 91.4213C161.991 89.0649 161.358 87.3522 160.093 86.283C158.827 85.1921 156.798 84.6467 154.005 84.6467H152.533V98.7196ZM142.223 125V77.0865H154.005C160.289 77.0865 164.926 78.2866 167.915 80.6866C170.926 83.0866 172.431 86.7958 172.431 91.814C172.431 96.4614 170.915 100.105 167.882 102.745C164.871 105.385 160.693 106.705 155.347 106.705H152.533V125H142.223ZM214.192 125H202.377L189.777 102.614V125H179.533V77.0865H194.195C200.021 77.0865 204.384 78.2211 207.286 80.4902C210.188 82.7375 211.639 86.1303 211.639 90.6686C211.639 93.9632 210.646 96.7778 208.661 99.1123C206.675 101.447 204.112 102.811 200.97 103.203L214.192 125ZM189.777 97.5087H191.315C195.461 97.5087 198.199 97.0614 199.53 96.1668C200.861 95.2505 201.526 93.6686 201.526 91.4213C201.526 89.0649 200.806 87.3958 199.366 86.414C197.948 85.4103 195.264 84.9085 191.315 84.9085H189.777V97.5087ZM220.181 125V77.0865H248.392V85.7267H230.425V95.5777H248.392V104.283H230.425V116.294H248.392V125H220.181ZM255.396 118.913L261.091 112.465C261.811 114.233 262.967 115.629 264.56 116.654C266.153 117.658 267.942 118.16 269.927 118.16C272.327 118.16 274.225 117.593 275.622 116.458C277.018 115.323 277.716 113.796 277.716 111.876C277.716 109.607 275.393 107.349 270.745 105.102C269.24 104.382 268.051 103.792 267.178 103.334C262.989 101.152 260.087 99.0251 258.472 96.9523C256.858 94.8577 256.051 92.3704 256.051 89.4904C256.051 85.5412 257.611 82.3012 260.731 79.7702C263.873 77.2175 267.942 75.9411 272.938 75.9411C275.84 75.9411 278.338 76.4538 280.433 77.4793C282.549 78.4829 284.415 80.0648 286.029 82.2248L279.975 88.0176C279.255 86.6212 278.295 85.5849 277.095 84.9085C275.916 84.2103 274.487 83.8612 272.807 83.8612C270.778 83.8612 269.142 84.3739 267.898 85.3994C266.654 86.403 266.033 87.7122 266.033 89.3267C266.033 91.8577 268.498 94.1704 273.429 96.265C274.411 96.6796 275.164 97.0068 275.687 97.2469C279.745 99.1014 282.746 101.196 284.687 103.531C286.651 105.865 287.633 108.527 287.633 111.516C287.633 116.011 286.095 119.6 283.018 122.284C279.964 124.945 275.851 126.276 270.68 126.276C267.014 126.276 263.873 125.644 261.254 124.378C258.636 123.113 256.683 121.291 255.396 118.913ZM320.852 106.771L315.484 91.2904C315.331 90.8322 315.135 90.0467 314.895 88.934C314.655 87.8213 314.404 86.4576 314.142 84.843C313.859 86.3921 313.586 87.7885 313.324 89.0322C313.062 90.254 312.866 91.0722 312.735 91.4868L307.564 106.771H320.852ZM290.349 125L308.579 77.0865H320.295L338.786 125H327.135L323.241 114.822H304.684L301.346 125H290.349ZM364.445 125V77.0865H375.081L396.289 104.971C396.9 105.756 397.565 106.869 398.285 108.309C399.027 109.727 399.791 111.407 400.576 113.349C400.336 111.931 400.162 110.523 400.053 109.127C399.944 107.731 399.889 105.985 399.889 103.891V77.0865H409.675V125H399.627L377.831 96.5923C377.22 95.8068 376.554 94.705 375.834 93.2868C375.114 91.8468 374.351 90.134 373.543 88.1485C373.783 89.5231 373.958 90.9195 374.067 92.3377C374.176 93.7341 374.231 95.5014 374.231 97.6396V125H364.445ZM420.344 125V77.0865H448.555V85.7267H430.588V95.5777H448.555V104.283H430.588V116.294H448.555V125H420.344ZM497.222 89.5558C495.149 87.7013 493.021 86.3485 490.84 85.4976C488.658 84.6248 486.323 84.1885 483.836 84.1885C478.73 84.1885 474.661 85.7158 471.628 88.7704C468.596 91.8249 467.079 95.9268 467.079 101.076C467.079 106.116 468.487 110.12 471.301 113.087C474.116 116.033 477.956 117.505 482.821 117.505C485.592 117.505 488.167 117.047 490.545 116.131C492.923 115.193 495.127 113.796 497.156 111.942L497.091 122.447C494.909 123.735 492.618 124.695 490.218 125.327C487.84 125.96 485.33 126.276 482.69 126.276C475.054 126.276 468.781 123.909 463.872 119.174C458.985 114.418 456.541 108.385 456.541 101.076C456.541 93.7886 458.995 87.7776 463.905 83.043C468.814 78.3084 475.141 75.9411 482.887 75.9411C485.483 75.9411 487.992 76.2138 490.414 76.7593C492.836 77.3047 495.225 78.1447 497.582 79.2793L497.222 89.5558ZM506.745 125V77.0865H534.957V85.7267H516.989V95.5777H534.957V104.283H516.989V116.294H534.957V125H506.745ZM541.96 118.913L547.655 112.465C548.375 114.233 549.531 115.629 551.124 116.654C552.717 117.658 554.506 118.16 556.492 118.16C558.892 118.16 560.79 117.593 562.186 116.458C563.583 115.323 564.281 113.796 564.281 111.876C564.281 109.607 561.957 107.349 557.31 105.102C555.804 104.382 554.615 103.792 553.742 103.334C549.553 101.152 546.651 99.0251 545.037 96.9523C543.422 94.8577 542.615 92.3704 542.615 89.4904C542.615 85.5412 544.175 82.3012 547.295 79.7702C550.437 77.2175 554.506 75.9411 559.502 75.9411C562.404 75.9411 564.903 76.4538 566.997 77.4793C569.114 78.4829 570.979 80.0648 572.594 82.2248L566.539 88.0176C565.819 86.6212 564.859 85.5849 563.659 84.9085C562.481 84.2103 561.052 83.8612 559.372 83.8612C557.342 83.8612 555.706 84.3739 554.462 85.3994C553.219 86.403 552.597 87.7122 552.597 89.3267C552.597 91.8577 555.062 94.1704 559.993 96.265C560.975 96.6796 561.728 97.0068 562.252 97.2469C566.31 99.1014 569.31 101.196 571.252 103.531C573.215 105.865 574.197 108.527 574.197 111.516C574.197 116.011 572.659 119.6 569.583 122.284C566.528 124.945 562.415 126.276 557.244 126.276C553.579 126.276 550.437 125.644 547.819 124.378C545.2 123.113 543.248 121.291 541.96 118.913ZM582.805 125V77.0865H593.048V125H582.805ZM621.914 85.7921V125H611.638V85.7921H599.921V77.0865H633.696V85.7921H621.914ZM661.482 106.771L656.115 91.2904C655.962 90.8322 655.766 90.0467 655.526 88.934C655.286 87.8213 655.035 86.4576 654.773 84.843C654.489 86.3921 654.217 87.7885 653.955 89.0322C653.693 90.254 653.497 91.0722 653.366 91.4868L648.195 106.771H661.482ZM630.98 125L649.209 77.0865H660.926L679.417 125H667.766L663.871 114.822H645.315L641.976 125H630.98Z" fill="white"/>
<path d="M37.7026 184.323H20.946C14.7764 184.323 9.7749 179.321 9.7749 173.152V19.5493" stroke="white" stroke-width="2.09458"/>
<path d="M17.6251 9.88417C17.6251 14.8217 13.8586 18.7211 9.3362 18.7211C4.81384 18.7211 1.04729 14.8217 1.04729 9.88417C1.04729 4.94662 4.81384 1.04729 9.3362 1.04729C13.8586 1.04729 17.6251 4.94662 17.6251 9.88417Z" stroke="white" stroke-width="2.09458"/>
<rect x="34.9097" y="153.602" width="477.564" height="86.5759" rx="22.3422" fill="#002A61"/>
<path d="M63.601 204.53V186.562H67.3442C68.6615 186.562 69.631 186.632 70.2529 186.771C70.8829 186.902 71.4229 187.131 71.8729 187.458C72.4456 187.884 72.8875 188.432 73.1984 189.103C73.5175 189.766 73.677 190.494 73.677 191.288C73.677 192.237 73.4479 193.03 72.9897 193.669C72.5397 194.307 71.8811 194.753 71.0138 195.006C72.0774 195.17 72.9161 195.649 73.5297 196.442C74.1516 197.228 74.4625 198.222 74.4625 199.424C74.4625 200.145 74.3316 200.832 74.0697 201.486C73.8079 202.141 73.4438 202.701 72.9775 203.168C72.4702 203.667 71.8443 204.019 71.0997 204.223C70.3551 204.428 69.1033 204.53 67.3442 204.53H63.601ZM65.6873 196.111V202.665H67.3442C68.4815 202.665 69.2997 202.62 69.7988 202.53C70.3061 202.44 70.7111 202.284 71.0138 202.063C71.382 201.801 71.6724 201.437 71.8852 200.971C72.0979 200.505 72.2043 199.989 72.2043 199.424C72.2043 198.77 72.0774 198.201 71.8238 197.719C71.5702 197.236 71.202 196.859 70.7192 196.589C70.4329 196.418 70.1015 196.295 69.7251 196.221C69.3488 196.148 68.7638 196.111 67.9701 196.111H67.3442H65.6873ZM65.6873 188.416V194.429H67.3442C68.866 194.429 69.9379 194.209 70.5597 193.767C71.1815 193.325 71.4924 192.58 71.4924 191.533C71.4924 190.379 71.202 189.573 70.6211 189.115C70.0483 188.649 68.956 188.416 67.3442 188.416H65.6873ZM77.5675 204.53V193.3H79.2735V195.632C79.7889 194.659 80.3371 193.963 80.918 193.546C81.499 193.128 82.2067 192.92 83.0412 192.92C83.2703 192.92 83.4913 192.94 83.704 192.981C83.9167 193.014 84.1294 193.067 84.3422 193.141L83.704 194.871C83.4831 194.798 83.2744 194.744 83.0781 194.712C82.8817 194.671 82.6935 194.65 82.5135 194.65C81.499 194.65 80.738 195.019 80.2307 195.755C79.7235 196.483 79.4698 197.584 79.4698 199.056V204.53H77.5675ZM86.0236 187.888C86.0236 187.503 86.1586 187.176 86.4286 186.906C86.7068 186.628 87.0422 186.489 87.435 186.489C87.8195 186.489 88.1468 186.628 88.4168 186.906C88.695 187.184 88.8341 187.52 88.8341 187.913C88.8341 188.297 88.6991 188.624 88.4291 188.894C88.1591 189.164 87.8277 189.299 87.435 189.299C87.0422 189.299 86.7068 189.164 86.4286 188.894C86.1586 188.624 86.0236 188.289 86.0236 187.888ZM86.4777 204.53V193.3H88.4168V204.53H86.4777ZM92.4668 204.53V193.3H94.3446V195.031C94.8273 194.311 95.4083 193.775 96.0874 193.423C96.7665 193.071 97.5519 192.895 98.4438 192.895C99.7692 192.895 100.804 193.247 101.549 193.951C102.293 194.654 102.666 195.632 102.666 196.884V204.53H100.702V197.915C100.702 196.778 100.461 195.935 99.9779 195.387C99.5033 194.83 98.7669 194.552 97.7687 194.552C97.196 194.552 96.6724 194.659 96.1978 194.871C95.7314 195.076 95.3428 195.37 95.0319 195.755C94.7946 196.049 94.6228 196.385 94.5164 196.761C94.4182 197.138 94.3691 197.792 94.3691 198.725V204.53H92.4668ZM115.074 198.97C115.074 197.719 114.726 196.712 114.03 195.951C113.335 195.182 112.419 194.798 111.281 194.798C110.144 194.798 109.256 195.145 108.618 195.841C107.98 196.536 107.661 197.498 107.661 198.725C107.661 200.108 107.984 201.192 108.63 201.977C109.277 202.755 110.168 203.143 111.306 203.143C112.484 203.143 113.404 202.775 114.067 202.039C114.738 201.302 115.074 200.28 115.074 198.97ZM116.939 185.507V204.53H115.074V202.493C114.632 203.303 114.059 203.925 113.355 204.358C112.652 204.792 111.866 205.009 110.999 205.009C109.387 205.009 108.086 204.456 107.096 203.352C106.114 202.239 105.623 200.77 105.623 198.946C105.623 197.105 106.106 195.636 107.072 194.54C108.037 193.443 109.322 192.895 110.925 192.895C111.858 192.895 112.668 193.108 113.355 193.533C114.043 193.951 114.599 194.577 115.024 195.411V185.507H116.939ZM129.457 199.019C129.457 197.751 129.11 196.733 128.414 195.964C127.727 195.186 126.827 194.798 125.714 194.798C124.561 194.798 123.661 195.154 123.014 195.865C122.368 196.577 122.045 197.571 122.045 198.848C122.045 200.206 122.368 201.253 123.014 201.99C123.669 202.726 124.593 203.094 125.788 203.094C126.933 203.094 127.829 202.738 128.476 202.026C129.13 201.306 129.457 200.304 129.457 199.019ZM131.323 193.3V204.53H129.457V202.493C129.007 203.311 128.431 203.937 127.727 204.37C127.031 204.796 126.25 205.009 125.383 205.009C123.771 205.009 122.47 204.456 121.48 203.352C120.498 202.239 120.007 200.77 120.007 198.946C120.007 197.097 120.486 195.628 121.443 194.54C122.4 193.443 123.681 192.895 125.285 192.895C126.226 192.895 127.04 193.108 127.727 193.533C128.422 193.951 128.983 194.577 129.408 195.411V193.3H131.323ZM150.812 204.53V197.915C150.812 196.778 150.583 195.935 150.125 195.387C149.667 194.83 148.963 194.552 148.014 194.552C147.499 194.552 147.02 194.659 146.578 194.871C146.144 195.076 145.776 195.37 145.474 195.755C145.253 196.049 145.093 196.393 144.995 196.786C144.897 197.179 144.848 197.825 144.848 198.725V204.53H142.994V197.915C142.994 196.778 142.765 195.935 142.307 195.387C141.849 194.83 141.145 194.552 140.196 194.552C139.681 194.552 139.198 194.659 138.748 194.871C138.306 195.076 137.934 195.37 137.631 195.755C137.418 196.041 137.263 196.373 137.165 196.749C137.075 197.125 137.03 197.784 137.03 198.725V204.53H135.177V193.3H137.054V195.031C137.521 194.311 138.077 193.775 138.723 193.423C139.37 193.071 140.114 192.895 140.957 192.895C141.865 192.895 142.639 193.092 143.277 193.484C143.915 193.869 144.398 194.434 144.725 195.178C145.208 194.409 145.776 193.836 146.431 193.46C147.094 193.083 147.859 192.895 148.726 192.895C149.978 192.895 150.955 193.247 151.659 193.951C152.363 194.654 152.715 195.632 152.715 196.884V204.53H150.812ZM157.636 198.946C157.636 200.132 158.033 201.139 158.826 201.965C159.62 202.783 160.582 203.192 161.711 203.192C162.832 203.192 163.785 202.783 164.57 201.965C165.356 201.139 165.748 200.132 165.748 198.946C165.748 197.759 165.356 196.757 164.57 195.939C163.785 195.113 162.832 194.699 161.711 194.699C160.573 194.699 159.608 195.113 158.814 195.939C158.029 196.757 157.636 197.759 157.636 198.946ZM155.599 198.946C155.599 198.119 155.75 197.342 156.053 196.614C156.356 195.878 156.797 195.223 157.378 194.65C157.959 194.078 158.618 193.644 159.354 193.349C160.091 193.047 160.876 192.895 161.711 192.895C162.529 192.895 163.302 193.047 164.03 193.349C164.767 193.652 165.433 194.094 166.031 194.675C166.612 195.239 167.053 195.89 167.356 196.626C167.659 197.354 167.81 198.128 167.81 198.946C167.81 199.764 167.659 200.537 167.356 201.265C167.053 201.985 166.612 202.628 166.031 203.192C165.433 203.781 164.762 204.231 164.018 204.542C163.282 204.853 162.512 205.009 161.711 205.009C160.884 205.009 160.099 204.853 159.354 204.542C158.618 204.24 157.959 203.802 157.378 203.229C156.797 202.64 156.356 201.985 156.053 201.265C155.75 200.545 155.599 199.772 155.599 198.946ZM169.627 202.64L171.271 201.535C171.582 202.133 171.975 202.583 172.449 202.885C172.924 203.18 173.484 203.327 174.131 203.327C174.761 203.327 175.268 203.172 175.653 202.861C176.045 202.55 176.242 202.141 176.242 201.634C176.242 201.241 176.107 200.914 175.837 200.652C175.575 200.39 175.121 200.149 174.474 199.928C174.409 199.903 174.303 199.866 174.155 199.817C171.423 198.876 170.056 197.698 170.056 196.283C170.056 195.284 170.424 194.47 171.161 193.84C171.897 193.21 172.854 192.895 174.033 192.895C175.006 192.895 175.841 193.092 176.536 193.484C177.232 193.869 177.731 194.417 178.034 195.129L176.475 196.086C176.246 195.571 175.906 195.174 175.456 194.896C175.014 194.618 174.499 194.479 173.91 194.479C173.345 194.479 172.883 194.638 172.523 194.957C172.171 195.268 171.995 195.669 171.995 196.16C171.995 196.847 172.74 197.424 174.229 197.89C174.507 197.98 174.728 198.05 174.892 198.099C176.111 198.492 176.958 198.942 177.432 199.449C177.915 199.948 178.156 200.611 178.156 201.437C178.156 202.501 177.776 203.364 177.015 204.027C176.262 204.681 175.276 205.009 174.057 205.009C173.01 205.009 172.118 204.812 171.382 204.42C170.653 204.027 170.068 203.434 169.627 202.64ZM186.956 203.499L187.864 200.161C188.502 200.725 189.206 201.151 189.975 201.437C190.736 201.74 191.505 201.891 192.282 201.891C192.839 201.891 193.256 201.797 193.534 201.609C193.821 201.437 193.964 201.188 193.964 200.86C193.964 200.312 193.387 199.903 192.233 199.633C191.832 199.543 191.53 199.465 191.325 199.4C189.992 199.007 189.046 198.529 188.49 197.964C187.885 197.383 187.582 196.63 187.582 195.706C187.582 194.511 188.036 193.55 188.944 192.822C189.82 192.102 191.043 191.742 192.614 191.742C193.375 191.742 194.185 191.832 195.044 192.012C195.764 192.159 196.603 192.445 197.56 192.871L196.652 195.878C196.063 195.477 195.469 195.178 194.872 194.982C194.307 194.777 193.714 194.675 193.092 194.675C192.585 194.675 192.205 194.753 191.951 194.908C191.706 195.055 191.583 195.28 191.583 195.583C191.583 196.009 192.16 196.377 193.313 196.688C193.69 196.802 193.882 196.859 193.89 196.859C195.396 197.285 196.451 197.788 197.057 198.369C197.646 198.983 197.94 199.78 197.94 200.762C197.94 202.03 197.453 203.053 196.48 203.83C195.482 204.616 194.193 205.009 192.614 205.009C191.517 205.009 190.507 204.882 189.582 204.628C188.666 204.383 187.791 204.006 186.956 203.499ZM209.084 198.369C209.084 197.444 208.851 196.716 208.385 196.184C207.902 195.653 207.272 195.387 206.494 195.387C205.693 195.387 205.063 195.653 204.604 196.184C204.138 196.7 203.905 197.428 203.905 198.369C203.905 199.285 204.13 200.005 204.58 200.529C205.071 201.069 205.709 201.339 206.494 201.339C207.28 201.339 207.918 201.069 208.409 200.529C208.859 199.989 209.084 199.269 209.084 198.369ZM213.429 198.369C213.429 199.277 213.253 200.124 212.901 200.91C212.533 201.744 212.03 202.464 211.391 203.07C210.671 203.74 209.927 204.227 209.158 204.53C208.356 204.849 207.468 205.009 206.494 205.009C205.513 205.009 204.625 204.849 203.831 204.53C203.021 204.211 202.273 203.728 201.585 203.082C200.906 202.427 200.415 201.703 200.113 200.91C199.761 200.149 199.585 199.302 199.585 198.369C199.585 197.461 199.761 196.606 200.113 195.804C200.44 194.994 200.935 194.274 201.598 193.644C202.244 193.022 202.989 192.543 203.831 192.208C204.633 191.897 205.521 191.742 206.494 191.742C207.46 191.742 208.348 191.897 209.158 192.208C210 192.543 210.745 193.022 211.391 193.644C212.07 194.258 212.574 194.978 212.901 195.804C213.253 196.606 213.429 197.461 213.429 198.369ZM216.067 204.53V185.507H220.449V204.53H216.067ZM236.514 192.134V198.467C236.514 199.883 236.408 200.914 236.195 201.56C235.966 202.231 235.581 202.836 235.041 203.376C234.526 203.916 233.847 204.325 233.004 204.604C232.202 204.874 231.237 205.009 230.108 205.009C228.987 205.009 228.033 204.874 227.248 204.604C226.438 204.342 225.743 203.933 225.162 203.376C224.63 202.869 224.253 202.272 224.032 201.585C223.812 200.946 223.701 199.907 223.701 198.467V192.134H227.874V198.749C227.874 199.789 228.05 200.533 228.402 200.983C228.721 201.458 229.273 201.695 230.058 201.695C230.836 201.695 231.392 201.466 231.728 201.008C232.071 200.55 232.243 199.797 232.243 198.749V192.134H236.514ZM248.554 196.209C248.128 195.833 247.719 195.559 247.326 195.387C246.975 195.215 246.561 195.129 246.087 195.129C245.211 195.129 244.524 195.415 244.025 195.988C243.51 196.553 243.252 197.33 243.252 198.32C243.252 199.269 243.518 200.022 244.05 200.578C244.565 201.151 245.281 201.437 246.197 201.437C246.631 201.437 247.048 201.347 247.449 201.167C247.875 200.963 248.243 200.693 248.554 200.357V204.15C248.03 204.428 247.502 204.649 246.971 204.812C246.406 204.943 245.87 205.009 245.363 205.009C243.448 205.009 241.906 204.395 240.736 203.168C240.335 202.759 240.004 202.309 239.742 201.818C239.488 201.327 239.292 200.795 239.153 200.222C239.022 199.65 238.956 199.024 238.956 198.344C238.956 196.389 239.554 194.802 240.748 193.583C241.951 192.355 243.506 191.742 245.412 191.742C246.009 191.742 246.578 191.807 247.118 191.938C247.641 192.069 248.12 192.261 248.554 192.515V196.209ZM251.143 204.53V192.134H255.512V204.53H251.143ZM251.696 188.943H251.72C251.72 188.485 251.88 188.109 252.199 187.814C252.518 187.495 252.902 187.336 253.352 187.336C253.827 187.336 254.216 187.487 254.518 187.79C254.829 188.093 254.985 188.477 254.985 188.943C254.985 189.418 254.825 189.811 254.506 190.122C254.195 190.441 253.811 190.6 253.352 190.6C252.886 190.6 252.493 190.433 252.174 190.097C251.855 189.786 251.696 189.402 251.696 188.943ZM267.896 198.369C267.896 197.444 267.663 196.716 267.196 196.184C266.714 195.653 266.084 195.387 265.306 195.387C264.504 195.387 263.874 195.653 263.416 196.184C262.95 196.7 262.717 197.428 262.717 198.369C262.717 199.285 262.942 200.005 263.392 200.529C263.883 201.069 264.521 201.339 265.306 201.339C266.092 201.339 266.73 201.069 267.221 200.529C267.671 199.989 267.896 199.269 267.896 198.369ZM272.24 198.369C272.24 199.277 272.065 200.124 271.713 200.91C271.345 201.744 270.841 202.464 270.203 203.07C269.483 203.74 268.739 204.227 267.97 204.53C267.168 204.849 266.28 205.009 265.306 205.009C264.324 205.009 263.437 204.849 262.643 204.53C261.833 204.211 261.084 203.728 260.397 203.082C259.718 202.427 259.227 201.703 258.924 200.91C258.573 200.149 258.397 199.302 258.397 198.369C258.397 197.461 258.573 196.606 258.924 195.804C259.252 194.994 259.747 194.274 260.409 193.644C261.056 193.022 261.8 192.543 262.643 192.208C263.445 191.897 264.333 191.742 265.306 191.742C266.272 191.742 267.16 191.897 267.97 192.208C268.812 192.543 269.557 193.022 270.203 193.644C270.882 194.258 271.385 194.978 271.713 195.804C272.065 196.606 272.24 197.461 272.24 198.369ZM274.756 204.53V192.134H278.757V194.65C279.322 193.669 279.993 192.932 280.77 192.441C281.523 191.975 282.435 191.742 283.507 191.742C284.317 191.742 285.037 191.864 285.667 192.11C286.289 192.388 286.792 192.764 287.177 193.239C287.528 193.714 287.762 194.217 287.876 194.749C288.015 195.428 288.085 196.324 288.085 197.436V204.53H283.703V197.89C283.703 196.884 283.544 196.164 283.225 195.73C282.906 195.28 282.386 195.055 281.666 195.055C280.766 195.055 280.103 195.391 279.678 196.062C279.261 196.733 279.052 197.821 279.052 199.326V204.53H274.756ZM299.72 196.737C299.646 196.049 299.38 195.489 298.922 195.055C298.464 194.622 297.903 194.405 297.24 194.405C296.545 194.405 295.98 194.597 295.547 194.982C295.097 195.415 294.814 196 294.7 196.737H299.72ZM304.027 199.204H294.602C294.626 200.169 294.868 200.905 295.326 201.413C295.8 201.936 296.488 202.198 297.388 202.198C298.042 202.198 298.603 202.071 299.069 201.818C299.544 201.548 299.887 201.18 300.1 200.713L303.389 202.039C303.005 202.98 302.309 203.708 301.303 204.223C300.305 204.747 299.081 205.009 297.633 205.009C295.473 205.009 293.739 204.403 292.429 203.192C291.128 202.014 290.478 200.439 290.478 198.467C290.478 196.544 291.128 194.937 292.429 193.644C293.73 192.376 295.383 191.742 297.388 191.742C299.433 191.742 301.049 192.384 302.235 193.669C302.841 194.331 303.291 195.104 303.586 195.988C303.88 196.864 304.027 197.866 304.027 198.995V199.204ZM305.39 203.499L306.298 200.161C306.936 200.725 307.64 201.151 308.409 201.437C309.17 201.74 309.939 201.891 310.716 201.891C311.272 201.891 311.69 201.797 311.968 201.609C312.254 201.437 312.397 201.188 312.397 200.86C312.397 200.312 311.821 199.903 310.667 199.633C310.266 199.543 309.963 199.465 309.759 199.4C308.425 199.007 307.48 198.529 306.924 197.964C306.318 197.383 306.016 196.63 306.016 195.706C306.016 194.511 306.47 193.55 307.378 192.822C308.253 192.102 309.477 191.742 311.047 191.742C311.808 191.742 312.618 191.832 313.477 192.012C314.197 192.159 315.036 192.445 315.993 192.871L315.085 195.878C314.496 195.477 313.903 195.178 313.306 194.982C312.741 194.777 312.148 194.675 311.526 194.675C311.019 194.675 310.638 194.753 310.385 194.908C310.139 195.055 310.017 195.28 310.017 195.583C310.017 196.009 310.593 196.377 311.747 196.688C312.123 196.802 312.316 196.859 312.324 196.859C313.829 197.285 314.885 197.788 315.49 198.369C316.079 198.983 316.374 199.78 316.374 200.762C316.374 202.03 315.887 203.053 314.913 203.83C313.915 204.616 312.627 205.009 311.047 205.009C309.951 205.009 308.941 204.882 308.016 204.628C307.1 204.383 306.224 204.006 305.39 203.499ZM335.078 199.019C335.078 197.751 334.73 196.733 334.035 195.964C333.347 195.186 332.447 194.798 331.335 194.798C330.181 194.798 329.281 195.154 328.635 195.865C327.988 196.577 327.665 197.571 327.665 198.848C327.665 200.206 327.988 201.253 328.635 201.99C329.289 202.726 330.214 203.094 331.408 203.094C332.554 203.094 333.45 202.738 334.096 202.026C334.751 201.306 335.078 200.304 335.078 199.019ZM336.943 193.3V204.53H335.078V202.493C334.628 203.311 334.051 203.937 333.347 204.37C332.652 204.796 331.87 205.009 331.003 205.009C329.391 205.009 328.09 204.456 327.1 203.352C326.119 202.239 325.628 200.77 325.628 198.946C325.628 197.097 326.106 195.628 327.064 194.54C328.021 193.443 329.301 192.895 330.905 192.895C331.846 192.895 332.66 193.108 333.347 193.533C334.043 193.951 334.603 194.577 335.029 195.411V193.3H336.943ZM348.504 194.884H346.443V193.3H348.504V188.772H350.468V193.3H352.53V194.884H350.468V204.53H348.504V194.884ZM356.519 193.3V198.823C356.519 200.435 356.756 201.564 357.23 202.21C357.713 202.849 358.523 203.168 359.66 203.168C360.798 203.168 361.6 202.853 362.066 202.223C362.54 201.585 362.778 200.451 362.778 198.823V193.3H364.741V199.854C364.741 201.548 364.308 202.832 363.441 203.708C362.573 204.575 361.297 205.009 359.611 205.009C357.942 205.009 356.674 204.571 355.807 203.695C354.939 202.82 354.506 201.54 354.506 199.854V193.3H356.519ZM384.059 196.737C383.985 196.049 383.719 195.489 383.261 195.055C382.803 194.622 382.243 194.405 381.58 194.405C380.884 194.405 380.32 194.597 379.886 194.982C379.436 195.415 379.154 196 379.039 196.737H384.059ZM388.367 199.204H378.941C378.966 200.169 379.207 200.905 379.665 201.413C380.14 201.936 380.827 202.198 381.727 202.198C382.382 202.198 382.942 202.071 383.409 201.818C383.883 201.548 384.227 201.18 384.439 200.713L387.729 202.039C387.344 202.98 386.649 203.708 385.642 204.223C384.644 204.747 383.421 205.009 381.973 205.009C379.813 205.009 378.078 204.403 376.769 203.192C375.468 202.014 374.817 200.439 374.817 198.467C374.817 196.544 375.468 194.937 376.769 193.644C378.07 192.376 379.723 191.742 381.727 191.742C383.773 191.742 385.389 192.384 386.575 193.669C387.18 194.331 387.63 195.104 387.925 195.988C388.22 196.864 388.367 197.866 388.367 198.995V199.204ZM407.267 204.53V197.768C407.267 196.704 407.144 195.968 406.899 195.559C406.621 195.141 406.158 194.933 405.512 194.933C404.686 194.933 404.117 195.215 403.806 195.779C403.487 196.336 403.327 197.502 403.327 199.277V204.53H399.106V197.768C399.106 196.663 398.971 195.919 398.701 195.534C398.455 195.133 398.001 194.933 397.338 194.933C396.512 194.933 395.935 195.207 395.608 195.755C395.289 196.311 395.129 197.485 395.129 199.277V204.53H390.883V192.134H395.178V194.294C395.702 193.427 396.299 192.785 396.97 192.368C397.625 191.95 398.418 191.742 399.351 191.742C400.357 191.742 401.188 191.934 401.842 192.318C402.464 192.711 402.918 193.296 403.205 194.074C403.704 193.263 404.297 192.678 404.984 192.318C405.663 191.934 406.478 191.742 407.427 191.742C408.171 191.742 408.822 191.864 409.378 192.11C409.951 192.38 410.421 192.756 410.789 193.239C411.1 193.623 411.317 194.078 411.44 194.601C411.563 195.084 411.624 195.939 411.624 197.166V197.436V204.53H407.267ZM418.62 198.369C418.62 199.334 418.877 200.1 419.393 200.664C419.867 201.212 420.555 201.486 421.455 201.486C422.346 201.486 423.042 201.212 423.541 200.664C424.04 200.091 424.29 199.326 424.29 198.369C424.29 197.395 424.04 196.634 423.541 196.086C423.034 195.53 422.338 195.252 421.455 195.252C420.563 195.252 419.875 195.53 419.393 196.086C418.877 196.626 418.62 197.387 418.62 198.369ZM414.741 210.004V192.159H418.767V194.221C419.299 193.427 419.925 192.809 420.645 192.368C421.324 191.967 422.097 191.766 422.964 191.766C423.84 191.766 424.625 191.913 425.321 192.208C426.016 192.494 426.621 192.932 427.137 193.521C428.16 194.691 428.671 196.307 428.671 198.369C428.671 200.349 428.16 201.949 427.137 203.168C426.613 203.79 426.02 204.252 425.357 204.555C424.703 204.857 423.954 205.009 423.111 205.009C422.056 205.009 421.201 204.816 420.546 204.432C419.916 204.064 419.331 203.425 418.791 202.517C418.832 202.714 418.865 203.016 418.89 203.425C418.906 203.663 418.914 204.096 418.914 204.726V210.004H414.741ZM431.334 204.53V192.134H435.458V195.055C435.892 193.984 436.468 193.186 437.188 192.662C437.933 192.13 438.829 191.864 439.876 191.864C440.113 191.864 440.289 191.873 440.404 191.889C440.494 191.897 440.576 191.905 440.649 191.913C440.723 191.913 440.817 191.922 440.932 191.938L440.514 195.914C440.212 195.816 439.95 195.747 439.729 195.706C439.402 195.673 439.16 195.657 439.005 195.657C437.941 195.657 437.119 195.984 436.538 196.639C435.965 197.285 435.679 198.205 435.679 199.4V204.53H431.334ZM451.094 196.737C451.02 196.049 450.754 195.489 450.296 195.055C449.838 194.622 449.277 194.405 448.615 194.405C447.919 194.405 447.355 194.597 446.921 194.982C446.471 195.415 446.189 196 446.074 196.737H451.094ZM455.401 199.204H445.976C446 200.169 446.242 200.905 446.7 201.413C447.175 201.936 447.862 202.198 448.762 202.198C449.416 202.198 449.977 202.071 450.443 201.818C450.918 201.548 451.261 201.18 451.474 200.713L454.763 202.039C454.379 202.98 453.683 203.708 452.677 204.223C451.679 204.747 450.455 205.009 449.007 205.009C446.847 205.009 445.113 204.403 443.804 203.192C442.503 202.014 441.852 200.439 441.852 198.467C441.852 196.544 442.503 194.937 443.804 193.644C445.104 192.376 446.757 191.742 448.762 191.742C450.807 191.742 452.423 192.384 453.61 193.669C454.215 194.331 454.665 195.104 454.96 195.988C455.254 196.864 455.401 197.866 455.401 198.995V199.204ZM456.764 203.499L457.672 200.161C458.31 200.725 459.014 201.151 459.783 201.437C460.544 201.74 461.313 201.891 462.09 201.891C462.647 201.891 463.064 201.797 463.342 201.609C463.628 201.437 463.772 201.188 463.772 200.86C463.772 200.312 463.195 199.903 462.041 199.633C461.64 199.543 461.337 199.465 461.133 199.4C459.799 199.007 458.854 198.529 458.298 197.964C457.692 197.383 457.39 196.63 457.39 195.706C457.39 194.511 457.844 193.55 458.752 192.822C459.627 192.102 460.851 191.742 462.422 191.742C463.182 191.742 463.993 191.832 464.852 192.012C465.572 192.159 466.41 192.445 467.368 192.871L466.459 195.878C465.87 195.477 465.277 195.178 464.68 194.982C464.115 194.777 463.522 194.675 462.9 194.675C462.393 194.675 462.012 194.753 461.759 194.908C461.513 195.055 461.391 195.28 461.391 195.583C461.391 196.009 461.967 196.377 463.121 196.688C463.497 196.802 463.69 196.859 463.698 196.859C465.203 197.285 466.259 197.788 466.864 198.369C467.453 198.983 467.748 199.78 467.748 200.762C467.748 202.03 467.261 203.053 466.288 203.83C465.289 204.616 464.001 205.009 462.422 205.009C461.325 205.009 460.315 204.882 459.39 204.628C458.474 204.383 457.598 204.006 456.764 203.499ZM479.542 198.32C479.542 197.338 479.285 196.577 478.769 196.037C478.245 195.464 477.542 195.178 476.658 195.178C475.774 195.178 475.079 195.456 474.572 196.013C474.048 196.585 473.786 197.354 473.786 198.32C473.786 199.294 474.048 200.059 474.572 200.615C475.071 201.163 475.766 201.437 476.658 201.437C477.542 201.437 478.241 201.163 478.757 200.615C479.28 200.067 479.542 199.302 479.542 198.32ZM483.384 192.134V204.53H479.37V202.517C478.79 203.376 478.139 204.006 477.419 204.407C476.707 204.808 475.873 205.009 474.915 205.009C473.254 205.009 471.933 204.403 470.951 203.192C470.468 202.595 470.1 201.891 469.847 201.081C469.593 200.271 469.466 199.359 469.466 198.344C469.466 196.315 469.986 194.708 471.025 193.521C472.064 192.335 473.455 191.742 475.198 191.742C476.13 191.742 476.932 191.942 477.603 192.343C478.282 192.728 478.863 193.337 479.346 194.172V192.134H483.384Z" fill="white"/>
</svg>
