<svg width="430" height="175" viewBox="0 0 430 175" fill="none" xmlns="http://www.w3.org/2000/svg">
<path d="M25 140H14C9.58172 140 6 136.418 6 132V11" stroke="white" stroke-width="1.5"/>
<path d="M11.9534 5.66272C11.9534 8.2973 9.52868 10.5754 6.35168 10.5754C3.17467 10.5754 0.75 8.2973 0.75 5.66272C0.75 3.02814 3.17467 0.75 6.35168 0.75C9.52868 0.75 11.9534 3.02814 11.9534 5.66272Z" stroke="white" stroke-width="1.5"/>
<rect x="24" y="107" width="274" height="68" rx="10" fill="#002A61"/>
<path d="M54.618 123.726C53.412 122.826 52.08 122.394 50.568 122.394C46.68 122.394 43.494 125.58 43.494 129.468C43.494 133.32 46.734 136.434 50.568 136.434C52.008 136.434 53.448 135.948 54.618 135.102V133.23C53.538 134.31 52.044 135.03 50.514 135.03C47.472 135.03 45.006 132.402 45.006 129.414C45.006 126.426 47.454 123.798 50.478 123.798C52.044 123.798 53.538 124.482 54.618 125.598V123.726ZM58.5384 127.74H57.0984V136.2H58.5384V131.97C58.5384 130.872 58.6104 128.838 60.1944 128.838C60.5724 128.838 60.7704 129.018 61.0584 129.216L61.7424 127.902C61.3284 127.668 60.9324 127.506 60.4464 127.506C59.5104 127.506 59.0784 127.992 58.5744 128.658H58.5384V127.74ZM70.5617 132.276C70.7057 129.756 69.2657 127.506 66.5477 127.506C63.9017 127.506 62.4437 129.576 62.4437 132.078C62.4437 134.508 64.0637 136.434 66.5837 136.434C68.3117 136.434 69.6797 135.57 70.4897 134.058L69.2657 133.356C68.7077 134.364 67.9157 135.102 66.6917 135.102C65.0537 135.102 63.9377 133.842 63.9197 132.276H70.5617ZM63.9917 131.052C64.1717 129.828 65.3237 128.838 66.5657 128.838C67.8257 128.838 68.8517 129.828 69.0497 131.052H63.9917ZM67.5557 122.808L65.4137 125.76L66.3137 126.264L69.0677 123.492L67.5557 122.808ZM76.0436 128.838C77.8256 128.838 78.8876 130.206 78.8876 131.898C78.8876 133.608 77.9156 135.102 76.0616 135.102C74.2616 135.102 73.2896 133.536 73.2896 131.88C73.2896 130.296 74.3696 128.838 76.0436 128.838ZM78.8156 136.2H80.2556V121.35H78.8156V128.946H78.7796C78.0956 128.046 77.0156 127.506 75.8816 127.506C73.3436 127.506 71.8136 129.576 71.8136 131.988C71.8136 134.328 73.3796 136.434 75.8636 136.434C77.0156 136.434 78.0776 135.948 78.7796 135.03H78.8156V136.2ZM84.6323 127.74H83.1923V136.2H84.6323V127.74ZM83.9123 123.528C83.3543 123.528 82.8863 123.996 82.8863 124.554C82.8863 125.13 83.3543 125.58 83.9123 125.58C84.4703 125.58 84.9383 125.13 84.9383 124.554C84.9383 123.996 84.4703 123.528 83.9123 123.528ZM89.1453 129.072H90.6573V127.74H89.1453V124.698H87.7053V127.74H86.8233V129.072H87.7053V136.2H89.1453V129.072ZM95.6475 136.434C98.1135 136.434 100.093 134.472 100.093 131.988C100.093 129.504 98.1315 127.506 95.6475 127.506C93.1635 127.506 91.2015 129.504 91.2015 131.988C91.2015 134.472 93.1815 136.434 95.6475 136.434ZM95.6475 128.838C97.4295 128.838 98.6535 130.26 98.6535 131.97C98.6535 133.698 97.4295 135.102 95.6475 135.102C93.8655 135.102 92.6415 133.698 92.6415 131.97C92.6415 130.26 93.8655 128.838 95.6475 128.838ZM111.112 128.838C112.894 128.838 113.956 130.206 113.956 131.898C113.956 133.608 112.984 135.102 111.13 135.102C109.33 135.102 108.358 133.536 108.358 131.88C108.358 130.296 109.438 128.838 111.112 128.838ZM115.324 127.74H113.884V128.946H113.848C113.146 128.046 112.102 127.506 110.95 127.506C108.412 127.506 106.882 129.576 106.882 131.988C106.882 134.328 108.448 136.434 110.932 136.434C112.12 136.434 113.11 135.966 113.848 135.03H113.884V136.2H115.324V127.74ZM126.534 121.26V136.2H123.276V121.26H126.534ZM131.784 131.556C131.784 131.856 131.838 132.138 131.946 132.402C132.054 132.654 132.198 132.876 132.378 133.068C132.57 133.26 132.792 133.41 133.044 133.518C133.308 133.626 133.59 133.68 133.89 133.68C134.178 133.68 134.448 133.626 134.7 133.518C134.964 133.41 135.186 133.26 135.366 133.068C135.558 132.876 135.708 132.654 135.816 132.402C135.936 132.15 135.996 131.88 135.996 131.592C135.996 131.304 135.936 131.034 135.816 130.782C135.708 130.518 135.558 130.29 135.366 130.098C135.186 129.906 134.964 129.756 134.7 129.648C134.448 129.54 134.178 129.486 133.89 129.486C133.59 129.486 133.308 129.54 133.044 129.648C132.792 129.756 132.57 129.906 132.378 130.098C132.198 130.29 132.054 130.512 131.946 130.764C131.838 131.004 131.784 131.268 131.784 131.556ZM135.888 126.966H139.164V136.2H135.888V135.174C135.192 136.05 134.25 136.488 133.062 136.488C132.39 136.488 131.772 136.368 131.208 136.128C130.644 135.876 130.152 135.528 129.732 135.084C129.312 134.64 128.982 134.118 128.742 133.518C128.514 132.918 128.4 132.264 128.4 131.556C128.4 130.896 128.514 130.272 128.742 129.684C128.97 129.084 129.288 128.562 129.696 128.118C130.104 127.674 130.59 127.326 131.154 127.074C131.718 126.81 132.342 126.678 133.026 126.678C134.178 126.678 135.132 127.08 135.888 127.884V126.966ZM141.381 126.966H144.639V128.478C144.987 127.926 145.413 127.506 145.917 127.218C146.421 126.918 147.009 126.768 147.681 126.768C147.765 126.768 147.855 126.768 147.951 126.768C148.059 126.768 148.179 126.78 148.311 126.804V129.918C147.879 129.702 147.411 129.594 146.907 129.594C146.151 129.594 145.581 129.822 145.197 130.278C144.825 130.722 144.639 131.376 144.639 132.24V136.2H141.381V126.966ZM152.878 131.538C152.878 131.838 152.932 132.12 153.04 132.384C153.148 132.636 153.292 132.858 153.472 133.05C153.664 133.242 153.886 133.392 154.138 133.5C154.402 133.608 154.684 133.662 154.984 133.662C155.272 133.662 155.542 133.608 155.794 133.5C156.058 133.392 156.28 133.242 156.46 133.05C156.652 132.858 156.802 132.636 156.91 132.384C157.03 132.12 157.09 131.844 157.09 131.556C157.09 131.256 157.03 130.98 156.91 130.728C156.802 130.476 156.652 130.254 156.46 130.062C156.268 129.87 156.04 129.72 155.776 129.612C155.524 129.504 155.26 129.45 154.984 129.45C154.696 129.45 154.426 129.51 154.174 129.63C153.922 129.738 153.7 129.888 153.508 130.08C153.316 130.26 153.16 130.476 153.04 130.728C152.932 130.98 152.878 131.25 152.878 131.538ZM160.186 126.966V135.57C160.186 136.086 160.156 136.548 160.096 136.956C160.036 137.364 159.952 137.724 159.844 138.036C159.7 138.432 159.472 138.798 159.16 139.134C158.86 139.482 158.494 139.782 158.062 140.034C157.63 140.286 157.138 140.484 156.586 140.628C156.046 140.772 155.458 140.844 154.822 140.844C154.102 140.844 153.442 140.754 152.842 140.574C152.242 140.394 151.714 140.142 151.258 139.818C150.814 139.506 150.448 139.134 150.16 138.702C149.872 138.282 149.68 137.82 149.584 137.316H153.256C153.484 137.928 154 138.234 154.804 138.234C155.488 138.234 156.01 138.042 156.37 137.658C156.742 137.274 156.928 136.74 156.928 136.056V135.174C156.688 135.402 156.454 135.594 156.226 135.75C156.01 135.894 155.788 136.014 155.56 136.11C155.332 136.206 155.092 136.272 154.84 136.308C154.588 136.356 154.312 136.38 154.012 136.38C153.352 136.38 152.746 136.266 152.194 136.038C151.642 135.81 151.162 135.492 150.754 135.084C150.358 134.676 150.046 134.19 149.818 133.626C149.602 133.05 149.494 132.414 149.494 131.718C149.494 131.01 149.614 130.356 149.854 129.756C150.094 129.144 150.418 128.616 150.826 128.172C151.246 127.716 151.738 127.362 152.302 127.11C152.878 126.846 153.502 126.714 154.174 126.714C155.266 126.714 156.184 127.122 156.928 127.938V126.966H160.186ZM165.483 131.538C165.483 131.85 165.537 132.138 165.645 132.402C165.765 132.654 165.915 132.876 166.095 133.068C166.287 133.26 166.509 133.41 166.761 133.518C167.025 133.626 167.301 133.68 167.589 133.68C167.877 133.68 168.147 133.626 168.399 133.518C168.663 133.41 168.885 133.26 169.065 133.068C169.257 132.876 169.407 132.654 169.515 132.402C169.635 132.138 169.695 131.856 169.695 131.556C169.695 131.268 169.635 130.998 169.515 130.746C169.407 130.482 169.257 130.254 169.065 130.062C168.885 129.87 168.663 129.72 168.399 129.612C168.147 129.504 167.877 129.45 167.589 129.45C167.301 129.45 167.025 129.504 166.761 129.612C166.509 129.72 166.287 129.87 166.095 130.062C165.915 130.254 165.765 130.476 165.645 130.728C165.537 130.98 165.483 131.25 165.483 131.538ZM162.045 131.502C162.045 130.818 162.183 130.182 162.459 129.594C162.735 128.994 163.119 128.478 163.611 128.046C164.103 127.602 164.685 127.254 165.357 127.002C166.041 126.75 166.785 126.624 167.589 126.624C168.381 126.624 169.113 126.75 169.785 127.002C170.469 127.242 171.057 127.584 171.549 128.028C172.053 128.46 172.443 128.982 172.719 129.594C172.995 130.194 173.133 130.86 173.133 131.592C173.133 132.324 172.989 132.996 172.701 133.608C172.425 134.208 172.041 134.73 171.549 135.174C171.057 135.606 170.463 135.942 169.767 136.182C169.083 136.422 168.339 136.542 167.535 136.542C166.743 136.542 166.011 136.422 165.339 136.182C164.667 135.942 164.085 135.6 163.593 135.156C163.113 134.712 162.735 134.184 162.459 133.572C162.183 132.948 162.045 132.258 162.045 131.502ZM188.487 131.61C188.487 131.322 188.433 131.052 188.325 130.8C188.229 130.536 188.085 130.308 187.893 130.116C187.701 129.924 187.473 129.774 187.209 129.666C186.957 129.546 186.681 129.486 186.381 129.486C186.093 129.486 185.823 129.54 185.571 129.648C185.319 129.756 185.097 129.906 184.905 130.098C184.725 130.29 184.575 130.518 184.455 130.782C184.347 131.034 184.293 131.304 184.293 131.592C184.293 131.88 184.347 132.15 184.455 132.402C184.563 132.654 184.713 132.876 184.905 133.068C185.097 133.248 185.319 133.398 185.571 133.518C185.835 133.626 186.111 133.68 186.399 133.68C186.687 133.68 186.957 133.626 187.209 133.518C187.461 133.41 187.677 133.26 187.857 133.068C188.049 132.876 188.199 132.654 188.307 132.402C188.427 132.15 188.487 131.886 188.487 131.61ZM184.383 140.808H181.125V126.966H184.383V127.992C185.079 127.116 186.027 126.678 187.227 126.678C187.887 126.678 188.499 126.81 189.063 127.074C189.639 127.326 190.137 127.674 190.557 128.118C190.977 128.562 191.301 129.084 191.529 129.684C191.769 130.284 191.889 130.926 191.889 131.61C191.889 132.294 191.769 132.93 191.529 133.518C191.301 134.106 190.977 134.622 190.557 135.066C190.149 135.51 189.663 135.858 189.099 136.11C188.535 136.362 187.923 136.488 187.263 136.488C186.111 136.488 185.151 136.092 184.383 135.3V140.808ZM197.004 121.26V136.2H193.746V121.26H197.004ZM202.255 131.556C202.255 131.856 202.309 132.138 202.417 132.402C202.525 132.654 202.669 132.876 202.849 133.068C203.041 133.26 203.263 133.41 203.515 133.518C203.779 133.626 204.061 133.68 204.361 133.68C204.649 133.68 204.919 133.626 205.171 133.518C205.435 133.41 205.657 133.26 205.837 133.068C206.029 132.876 206.179 132.654 206.287 132.402C206.407 132.15 206.467 131.88 206.467 131.592C206.467 131.304 206.407 131.034 206.287 130.782C206.179 130.518 206.029 130.29 205.837 130.098C205.657 129.906 205.435 129.756 205.171 129.648C204.919 129.54 204.649 129.486 204.361 129.486C204.061 129.486 203.779 129.54 203.515 129.648C203.263 129.756 203.041 129.906 202.849 130.098C202.669 130.29 202.525 130.512 202.417 130.764C202.309 131.004 202.255 131.268 202.255 131.556ZM206.359 126.966H209.635V136.2H206.359V135.174C205.663 136.05 204.721 136.488 203.533 136.488C202.861 136.488 202.243 136.368 201.679 136.128C201.115 135.876 200.623 135.528 200.203 135.084C199.783 134.64 199.453 134.118 199.213 133.518C198.985 132.918 198.871 132.264 198.871 131.556C198.871 130.896 198.985 130.272 199.213 129.684C199.441 129.084 199.759 128.562 200.167 128.118C200.575 127.674 201.061 127.326 201.625 127.074C202.189 126.81 202.813 126.678 203.497 126.678C204.649 126.678 205.603 127.08 206.359 127.884V126.966ZM216.604 133.482H220.492V136.2H211.132L215.488 129.684H211.726V126.966H220.924L216.604 133.482ZM225.53 131.538C225.53 131.85 225.584 132.138 225.692 132.402C225.812 132.654 225.962 132.876 226.142 133.068C226.334 133.26 226.556 133.41 226.808 133.518C227.072 133.626 227.348 133.68 227.636 133.68C227.924 133.68 228.194 133.626 228.446 133.518C228.71 133.41 228.932 133.26 229.112 133.068C229.304 132.876 229.454 132.654 229.562 132.402C229.682 132.138 229.742 131.856 229.742 131.556C229.742 131.268 229.682 130.998 229.562 130.746C229.454 130.482 229.304 130.254 229.112 130.062C228.932 129.87 228.71 129.72 228.446 129.612C228.194 129.504 227.924 129.45 227.636 129.45C227.348 129.45 227.072 129.504 226.808 129.612C226.556 129.72 226.334 129.87 226.142 130.062C225.962 130.254 225.812 130.476 225.692 130.728C225.584 130.98 225.53 131.25 225.53 131.538ZM222.092 131.502C222.092 130.818 222.23 130.182 222.506 129.594C222.782 128.994 223.166 128.478 223.658 128.046C224.15 127.602 224.732 127.254 225.404 127.002C226.088 126.75 226.832 126.624 227.636 126.624C228.428 126.624 229.16 126.75 229.832 127.002C230.516 127.242 231.104 127.584 231.596 128.028C232.1 128.46 232.49 128.982 232.766 129.594C233.042 130.194 233.18 130.86 233.18 131.592C233.18 132.324 233.036 132.996 232.748 133.608C232.472 134.208 232.088 134.73 231.596 135.174C231.104 135.606 230.51 135.942 229.814 136.182C229.13 136.422 228.386 136.542 227.582 136.542C226.79 136.542 226.058 136.422 225.386 136.182C224.714 135.942 224.132 135.6 223.64 135.156C223.16 134.712 222.782 134.184 222.506 133.572C222.23 132.948 222.092 132.258 222.092 131.502ZM245.474 128.838C247.256 128.838 248.318 130.206 248.318 131.898C248.318 133.608 247.346 135.102 245.492 135.102C243.692 135.102 242.72 133.536 242.72 131.88C242.72 130.296 243.8 128.838 245.474 128.838ZM242.792 127.74H241.352V140.952H242.792V135.012H242.828C243.512 135.93 244.574 136.434 245.726 136.434C248.264 136.434 249.794 134.4 249.794 131.988C249.794 129.648 248.228 127.506 245.744 127.506C244.574 127.506 243.53 128.01 242.828 128.946H242.792V127.74ZM255.323 128.838C257.105 128.838 258.167 130.206 258.167 131.898C258.167 133.608 257.195 135.102 255.341 135.102C253.541 135.102 252.569 133.536 252.569 131.88C252.569 130.296 253.649 128.838 255.323 128.838ZM259.535 127.74H258.095V128.946H258.059C257.357 128.046 256.313 127.506 255.161 127.506C252.623 127.506 251.093 129.576 251.093 131.988C251.093 134.328 252.659 136.434 255.143 136.434C256.331 136.434 257.321 135.966 258.059 135.03H258.095V136.2H259.535V127.74ZM263.57 127.74H262.13V136.2H263.57V131.97C263.57 130.872 263.642 128.838 265.226 128.838C265.604 128.838 265.802 129.018 266.09 129.216L266.774 127.902C266.36 127.668 265.964 127.506 265.478 127.506C264.542 127.506 264.11 127.992 263.606 128.658H263.57V127.74ZM271.741 128.838C273.523 128.838 274.585 130.206 274.585 131.898C274.585 133.608 273.613 135.102 271.759 135.102C269.959 135.102 268.987 133.536 268.987 131.88C268.987 130.296 270.067 128.838 271.741 128.838ZM275.953 127.74H274.513V128.946H274.477C273.775 128.046 272.731 127.506 271.579 127.506C269.041 127.506 267.511 129.576 267.511 131.988C267.511 134.328 269.077 136.434 271.561 136.434C272.749 136.434 273.739 135.966 274.477 135.03H274.513V136.2H275.953V127.74ZM47.778 151.838C49.56 151.838 50.622 153.206 50.622 154.898C50.622 156.608 49.65 158.102 47.796 158.102C45.996 158.102 45.024 156.536 45.024 154.88C45.024 153.296 46.104 151.838 47.778 151.838ZM50.55 159.2H51.99V144.35H50.55V151.946H50.514C49.83 151.046 48.75 150.506 47.616 150.506C45.078 150.506 43.548 152.576 43.548 154.988C43.548 157.328 45.114 159.434 47.598 159.434C48.75 159.434 49.812 158.948 50.514 158.03H50.55V159.2ZM58.1667 151.838C59.9487 151.838 61.0107 153.206 61.0107 154.898C61.0107 156.608 60.0387 158.102 58.1847 158.102C56.3847 158.102 55.4127 156.536 55.4127 154.88C55.4127 153.296 56.4927 151.838 58.1667 151.838ZM62.3787 150.74H60.9387V151.946H60.9027C60.2007 151.046 59.1567 150.506 58.0047 150.506C55.4667 150.506 53.9367 152.576 53.9367 154.988C53.9367 157.328 55.5027 159.434 57.9867 159.434C59.1747 159.434 60.1647 158.966 60.9027 158.03H60.9387V159.2H62.3787V150.74ZM66.4134 150.74H64.9734V159.2H66.4134V154.97C66.4134 153.872 66.4854 151.838 68.0694 151.838C68.4474 151.838 68.6454 152.018 68.9334 152.216L69.6174 150.902C69.2034 150.668 68.8074 150.506 68.3214 150.506C67.3854 150.506 66.9534 150.992 66.4494 151.658H66.4134V150.74ZM72.4787 144.35H71.0387V159.2H72.4787V144.35ZM82.5148 155.276C82.6588 152.756 81.2188 150.506 78.5008 150.506C75.8548 150.506 74.3968 152.576 74.3968 155.078C74.3968 157.508 76.0168 159.434 78.5368 159.434C80.2648 159.434 81.6328 158.57 82.4428 157.058L81.2188 156.356C80.6608 157.364 79.8688 158.102 78.6448 158.102C77.0068 158.102 75.8908 156.842 75.8728 155.276H82.5148ZM75.9448 154.052C76.1248 152.828 77.2768 151.838 78.5188 151.838C79.7788 151.838 80.8048 152.828 81.0028 154.052H75.9448ZM90.3119 150.74H88.6739L92.8319 159.758L96.9719 150.74H95.3519L92.8319 156.428L90.3119 150.74ZM100.066 150.74H98.6259V159.2H100.066V150.74ZM99.3459 146.528C98.7879 146.528 98.3199 146.996 98.3199 147.554C98.3199 148.13 98.7879 148.58 99.3459 148.58C99.9039 148.58 100.372 148.13 100.372 147.554C100.372 146.996 99.9039 146.528 99.3459 146.528ZM106.577 151.838C108.359 151.838 109.421 153.206 109.421 154.898C109.421 156.608 108.449 158.102 106.595 158.102C104.795 158.102 103.823 156.536 103.823 154.88C103.823 153.296 104.903 151.838 106.577 151.838ZM109.349 159.2H110.789V144.35H109.349V151.946H109.313C108.629 151.046 107.549 150.506 106.415 150.506C103.877 150.506 102.347 152.576 102.347 154.988C102.347 157.328 103.913 159.434 106.397 159.434C107.549 159.434 108.611 158.948 109.313 158.03H109.349V159.2ZM116.966 151.838C118.748 151.838 119.81 153.206 119.81 154.898C119.81 156.608 118.838 158.102 116.984 158.102C115.184 158.102 114.212 156.536 114.212 154.88C114.212 153.296 115.292 151.838 116.966 151.838ZM121.178 150.74H119.738V151.946H119.702C119 151.046 117.956 150.506 116.804 150.506C114.266 150.506 112.736 152.576 112.736 154.988C112.736 157.328 114.302 159.434 116.786 159.434C117.974 159.434 118.964 158.966 119.702 158.03H119.738V159.2H121.178V150.74ZM132.891 151.838C134.673 151.838 135.735 153.206 135.735 154.898C135.735 156.608 134.763 158.102 132.909 158.102C131.109 158.102 130.137 156.536 130.137 154.88C130.137 153.296 131.217 151.838 132.891 151.838ZM137.103 150.74H135.663V151.946H135.627C134.925 151.046 133.881 150.506 132.729 150.506C130.191 150.506 128.661 152.576 128.661 154.988C128.661 157.328 130.227 159.434 132.711 159.434C133.899 159.434 134.889 158.966 135.627 158.03H135.663V159.2H137.103V150.74ZM146.819 152.072H148.331V150.74H146.819V147.698H145.379V150.74H144.497V152.072H145.379V159.2H146.819V152.072ZM150.963 150.74H149.523V155.618C149.523 157.868 150.369 159.434 152.871 159.434C155.373 159.434 156.219 157.868 156.219 155.618V150.74H154.779V155.456C154.779 156.878 154.617 158.102 152.871 158.102C151.125 158.102 150.963 156.878 150.963 155.456V150.74ZM163.468 152.072C163.09 151.19 162.19 150.506 161.218 150.506C159.85 150.506 158.698 151.478 158.698 152.9C158.698 155.564 162.514 154.916 162.514 156.806C162.514 157.58 161.92 158.102 161.146 158.102C160.192 158.102 159.778 157.544 159.418 156.752L158.14 157.292C158.59 158.624 159.706 159.434 161.128 159.434C162.694 159.434 163.99 158.282 163.99 156.68C163.99 155.258 163.018 154.664 162.028 154.25C161.038 153.836 160.066 153.548 160.066 152.774C160.066 152.234 160.606 151.838 161.11 151.838C161.632 151.838 162.064 152.252 162.262 152.702L163.468 152.072ZM175.619 151.838C177.401 151.838 178.463 153.206 178.463 154.898C178.463 156.608 177.491 158.102 175.637 158.102C173.837 158.102 172.865 156.536 172.865 154.88C172.865 153.296 173.945 151.838 175.619 151.838ZM172.937 150.74H171.497V163.952H172.937V158.012H172.973C173.657 158.93 174.719 159.434 175.871 159.434C178.409 159.434 179.939 157.4 179.939 154.988C179.939 152.648 178.373 150.506 175.889 150.506C174.719 150.506 173.675 151.01 172.973 151.946H172.937V150.74ZM183.325 150.74H181.885V159.2H183.325V154.97C183.325 153.872 183.397 151.838 184.981 151.838C185.359 151.838 185.557 152.018 185.845 152.216L186.529 150.902C186.115 150.668 185.719 150.506 185.233 150.506C184.297 150.506 183.865 150.992 183.361 151.658H183.325V150.74ZM191.677 159.434C194.143 159.434 196.123 157.472 196.123 154.988C196.123 152.504 194.161 150.506 191.677 150.506C189.193 150.506 187.231 152.504 187.231 154.988C187.231 157.472 189.211 159.434 191.677 159.434ZM191.677 151.838C193.459 151.838 194.683 153.26 194.683 154.97C194.683 156.698 193.459 158.102 191.677 158.102C189.895 158.102 188.671 156.698 188.671 154.97C188.671 153.26 189.895 151.838 191.677 151.838ZM200.578 158.408L197.842 163.952H199.48L205.726 150.74H204.088L201.352 156.806L198.364 150.74H196.69L200.578 158.408ZM214.421 155.276C214.565 152.756 213.125 150.506 210.407 150.506C207.761 150.506 206.303 152.576 206.303 155.078C206.303 157.508 207.923 159.434 210.443 159.434C212.171 159.434 213.539 158.57 214.349 157.058L213.125 156.356C212.567 157.364 211.775 158.102 210.551 158.102C208.913 158.102 207.797 156.842 207.779 155.276H214.421ZM207.851 154.052C208.031 152.828 209.183 151.838 210.425 151.838C211.685 151.838 212.711 152.828 212.909 154.052H207.851ZM222.675 151.352C221.919 150.812 220.983 150.506 220.065 150.506C217.581 150.506 215.547 152.45 215.547 154.97C215.547 157.526 217.491 159.434 220.047 159.434C221.055 159.434 221.901 159.128 222.729 158.57V156.644H222.693C221.991 157.562 221.145 158.102 219.939 158.102C218.175 158.102 217.023 156.644 217.023 154.97C217.023 153.278 218.265 151.838 220.011 151.838C221.145 151.838 221.973 152.414 222.639 153.26H222.675V151.352ZM226.466 152.072H227.978V150.74H226.466V147.698H225.026V150.74H224.144V152.072H225.026V159.2H226.466V152.072ZM232.968 159.434C235.434 159.434 237.414 157.472 237.414 154.988C237.414 152.504 235.452 150.506 232.968 150.506C230.484 150.506 228.522 152.504 228.522 154.988C228.522 157.472 230.502 159.434 232.968 159.434ZM232.968 151.838C234.75 151.838 235.974 153.26 235.974 154.97C235.974 156.698 234.75 158.102 232.968 158.102C231.186 158.102 229.962 156.698 229.962 154.97C229.962 153.26 231.186 151.838 232.968 151.838ZM244.011 152.072C243.633 151.19 242.733 150.506 241.761 150.506C240.393 150.506 239.241 151.478 239.241 152.9C239.241 155.564 243.057 154.916 243.057 156.806C243.057 157.58 242.463 158.102 241.689 158.102C240.735 158.102 240.321 157.544 239.961 156.752L238.683 157.292C239.133 158.624 240.249 159.434 241.671 159.434C243.237 159.434 244.533 158.282 244.533 156.68C244.533 155.258 243.561 154.664 242.571 154.25C241.581 153.836 240.609 153.548 240.609 152.774C240.609 152.234 241.149 151.838 241.653 151.838C242.175 151.838 242.607 152.252 242.805 152.702L244.011 152.072Z" fill="white"/>
<path d="M23.4625 31V8.125H36.9313V12.25H28.3531V16.9531H36.9313V21.1094H28.3531V31H23.4625ZM40.8063 31V8.125H45.6969V31H40.8063ZM50.9313 31V8.125H56.0094L66.1344 21.4375C66.4261 21.8125 66.7438 22.3438 67.0875 23.0312C67.4417 23.7083 67.8063 24.5104 68.1813 25.4375C68.0667 24.7604 67.9834 24.0885 67.9313 23.4219C67.8792 22.7552 67.8531 21.9219 67.8531 20.9219V8.125H72.525V31H67.7281L57.3219 17.4375C57.0302 17.0625 56.7125 16.5365 56.3688 15.8594C56.025 15.1719 55.6604 14.3542 55.275 13.4062C55.3896 14.0625 55.4729 14.7292 55.525 15.4062C55.5771 16.0729 55.6031 16.9167 55.6031 17.9375V31H50.9313ZM89.4625 22.2969L86.9 14.9062C86.8271 14.6875 86.7334 14.3125 86.6188 13.7812C86.5042 13.25 86.3844 12.599 86.2594 11.8281C86.124 12.5677 85.9938 13.2344 85.8688 13.8281C85.7438 14.4115 85.65 14.8021 85.5875 15L83.1188 22.2969H89.4625ZM74.9 31L83.6031 8.125H89.1969L98.025 31H92.4625L90.6031 26.1406H81.7438L80.15 31H74.9ZM100.431 31V8.125H105.509L115.634 21.4375C115.926 21.8125 116.244 22.3438 116.588 23.0312C116.942 23.7083 117.306 24.5104 117.681 25.4375C117.567 24.7604 117.483 24.0885 117.431 23.4219C117.379 22.7552 117.353 21.9219 117.353 20.9219V8.125H122.025V31H117.228L106.822 17.4375C106.53 17.0625 106.213 16.5365 105.869 15.8594C105.525 15.1719 105.16 14.3542 104.775 13.4062C104.89 14.0625 104.973 14.7292 105.025 15.4062C105.077 16.0729 105.103 16.9167 105.103 17.9375V31H100.431ZM145.541 14.0781C144.551 13.1927 143.535 12.5469 142.494 12.1406C141.452 11.724 140.338 11.5156 139.15 11.5156C136.713 11.5156 134.77 12.2448 133.322 13.7031C131.874 15.1615 131.15 17.1198 131.15 19.5781C131.15 21.9844 131.822 23.8958 133.166 25.3125C134.509 26.7188 136.343 27.4219 138.666 27.4219C139.989 27.4219 141.218 27.2031 142.353 26.7656C143.489 26.3177 144.541 25.651 145.509 24.7656L145.478 29.7812C144.436 30.3958 143.343 30.8542 142.197 31.1562C141.061 31.4583 139.864 31.6094 138.603 31.6094C134.957 31.6094 131.963 30.4792 129.619 28.2188C127.285 25.9479 126.119 23.0677 126.119 19.5781C126.119 16.099 127.291 13.2292 129.634 10.9688C131.978 8.70833 134.999 7.57812 138.697 7.57812C139.936 7.57812 141.134 7.70833 142.291 7.96875C143.447 8.22917 144.588 8.63021 145.713 9.17188L145.541 14.0781ZM150.181 31V8.125H155.072V31H150.181ZM172.15 22.2969L169.588 14.9062C169.515 14.6875 169.421 14.3125 169.306 13.7812C169.192 13.25 169.072 12.599 168.947 11.8281C168.811 12.5677 168.681 13.2344 168.556 13.8281C168.431 14.4115 168.338 14.8021 168.275 15L165.806 22.2969H172.15ZM157.588 31L166.291 8.125H171.884L180.713 31H175.15L173.291 26.1406H164.431L162.838 31H157.588ZM181.134 31L184.619 8.125H189.744L194.15 21.5938C194.244 21.875 194.343 22.2865 194.447 22.8281C194.561 23.3698 194.666 23.9896 194.759 24.6875C194.843 23.9792 194.936 23.349 195.041 22.7969C195.145 22.2344 195.244 21.8229 195.338 21.5625L199.822 8.125H204.869L208.369 31H203.728L202.056 17.2031C201.931 16.1823 201.848 15.4115 201.806 14.8906C201.765 14.3698 201.744 13.8854 201.744 13.4375C201.744 13.1979 201.744 13.0208 201.744 12.9062C201.754 12.7812 201.765 12.6719 201.775 12.5781C201.619 13.474 201.468 14.25 201.322 14.9062C201.186 15.5521 201.061 16.0417 200.947 16.375L196.103 31H193.353L188.588 16.375C188.546 16.2396 188.452 15.8646 188.306 15.25C188.171 14.6354 187.978 13.7396 187.728 12.5625V13.2344C187.728 14.2969 187.634 15.599 187.447 17.1406L187.431 17.2031L185.775 31H181.134ZM211.65 31V8.125H216.541V31H211.65ZM221.775 31V8.125H235.244V12.25H226.666V16.9531H235.244V21.1094H226.666V26.8438H235.244V31H221.775ZM240.056 31V8.125H245.134L255.259 21.4375C255.551 21.8125 255.869 22.3438 256.213 23.0312C256.567 23.7083 256.931 24.5104 257.306 25.4375C257.192 24.7604 257.108 24.0885 257.056 23.4219C257.004 22.7552 256.978 21.9219 256.978 20.9219V8.125H261.65V31H256.853L246.447 17.4375C246.155 17.0625 245.838 16.5365 245.494 15.8594C245.15 15.1719 244.785 14.3542 244.4 13.4062C244.515 14.0625 244.598 14.7292 244.65 15.4062C244.702 16.0729 244.728 16.9167 244.728 17.9375V31H240.056ZM275.291 12.2812V31H270.384V12.2812H264.791V8.125H280.916V12.2812H275.291ZM306.947 19.6094C306.947 21.2448 306.64 22.7917 306.025 24.25C305.421 25.7083 304.546 26.9896 303.4 28.0938C302.213 29.2292 300.874 30.099 299.384 30.7031C297.895 31.3073 296.353 31.6094 294.759 31.6094C293.364 31.6094 291.994 31.375 290.65 30.9062C289.317 30.4271 288.093 29.7448 286.978 28.8594C285.541 27.7135 284.436 26.3438 283.666 24.75C282.905 23.1562 282.525 21.4427 282.525 19.6094C282.525 17.9635 282.827 16.4219 283.431 14.9844C284.035 13.5365 284.921 12.25 286.088 11.125C287.233 10.0104 288.561 9.14583 290.072 8.53125C291.593 7.91667 293.155 7.60938 294.759 7.60938C296.353 7.60938 297.9 7.91667 299.4 8.53125C300.91 9.14583 302.244 10.0104 303.4 11.125C304.556 12.25 305.436 13.5365 306.041 14.9844C306.645 16.4323 306.947 17.974 306.947 19.6094ZM294.759 27.25C296.832 27.25 298.541 26.526 299.884 25.0781C301.239 23.6198 301.916 21.7969 301.916 19.6094C301.916 17.4427 301.233 15.6198 299.869 14.1406C298.504 12.6615 296.801 11.9219 294.759 11.9219C292.686 11.9219 290.968 12.6615 289.603 14.1406C288.239 15.6094 287.556 17.4323 287.556 19.6094C287.556 21.8177 288.228 23.6458 289.572 25.0938C290.916 26.5312 292.645 27.25 294.759 27.25ZM325.853 18.4531H326.556C327.89 18.4531 328.858 18.1771 329.463 17.625C330.067 17.0729 330.369 16.1875 330.369 14.9688C330.369 13.8438 330.067 13.026 329.463 12.5156C328.858 11.9948 327.89 11.7344 326.556 11.7344H325.853V18.4531ZM320.931 31V8.125H326.556C329.556 8.125 331.77 8.69792 333.197 9.84375C334.634 10.9896 335.353 12.7604 335.353 15.1562C335.353 17.375 334.629 19.1146 333.181 20.375C331.744 21.6354 329.749 22.2656 327.197 22.2656H325.853V31H320.931ZM348.994 22.2969L346.431 14.9062C346.358 14.6875 346.265 14.3125 346.15 13.7812C346.035 13.25 345.916 12.599 345.791 11.8281C345.655 12.5677 345.525 13.2344 345.4 13.8281C345.275 14.4115 345.181 14.8021 345.119 15L342.65 22.2969H348.994ZM334.431 31L343.134 8.125H348.728L357.556 31H351.994L350.134 26.1406H341.275L339.681 31H334.431ZM376.509 31H370.869L364.853 20.3125V31H359.963V8.125H366.963C369.744 8.125 371.827 8.66667 373.213 9.75C374.598 10.8229 375.291 12.4427 375.291 14.6094C375.291 16.1823 374.817 17.526 373.869 18.6406C372.921 19.7552 371.697 20.4062 370.197 20.5938L376.509 31ZM364.853 17.875H365.588C367.567 17.875 368.874 17.6615 369.509 17.2344C370.145 16.7969 370.463 16.0417 370.463 14.9688C370.463 13.8438 370.119 13.0469 369.431 12.5781C368.754 12.099 367.473 11.8594 365.588 11.8594H364.853V17.875ZM391.213 22.2969L388.65 14.9062C388.577 14.6875 388.483 14.3125 388.369 13.7812C388.254 13.25 388.134 12.599 388.009 11.8281C387.874 12.5677 387.744 13.2344 387.619 13.8281C387.494 14.4115 387.4 14.8021 387.338 15L384.869 22.2969H391.213ZM376.65 31L385.353 8.125H390.947L399.775 31H394.213L392.353 26.1406H383.494L381.9 31H376.65ZM23.5563 69V46.125H28.4469V69H23.5563ZM31.6969 69L35.1813 46.125H40.3063L44.7125 59.5938C44.8063 59.875 44.9052 60.2865 45.0094 60.8281C45.124 61.3698 45.2281 61.9896 45.3219 62.6875C45.4052 61.9792 45.499 61.349 45.6031 60.7969C45.7073 60.2344 45.8063 59.8229 45.9 59.5625L50.3844 46.125H55.4313L58.9313 69H54.2906L52.6188 55.2031C52.4938 54.1823 52.4104 53.4115 52.3688 52.8906C52.3271 52.3698 52.3063 51.8854 52.3063 51.4375C52.3063 51.1979 52.3063 51.0208 52.3063 50.9062C52.3167 50.7812 52.3271 50.6719 52.3375 50.5781C52.1813 51.474 52.0302 52.25 51.8844 52.9062C51.749 53.5521 51.624 54.0417 51.5094 54.375L46.6656 69H43.9156L39.15 54.375C39.1084 54.2396 39.0146 53.8646 38.8688 53.25C38.7334 52.6354 38.5406 51.7396 38.2906 50.5625V51.2344C38.2906 52.2969 38.1969 53.599 38.0094 55.1406L37.9938 55.2031L36.3375 69H31.6969ZM67.0406 56.4531H67.7438C69.0771 56.4531 70.0459 56.1771 70.65 55.625C71.2542 55.0729 71.5563 54.1875 71.5563 52.9688C71.5563 51.8438 71.2542 51.026 70.65 50.5156C70.0459 49.9948 69.0771 49.7344 67.7438 49.7344H67.0406V56.4531ZM62.1188 69V46.125H67.7438C70.7438 46.125 72.9573 46.6979 74.3844 47.8438C75.8219 48.9896 76.5406 50.7604 76.5406 53.1562C76.5406 55.375 75.8167 57.1146 74.3688 58.375C72.9313 59.6354 70.9365 60.2656 68.3844 60.2656H67.0406V69H62.1188ZM99.6031 46.125V60.3594C99.6031 63.4635 98.7854 65.7812 97.15 67.3125C95.5146 68.8438 93.0511 69.6094 89.7594 69.6094C86.4156 69.6094 83.9261 68.8438 82.2906 67.3125C80.6552 65.7812 79.8375 63.4635 79.8375 60.3594V46.125H84.6969V59.5938C84.6969 61.4792 85.1136 62.901 85.9469 63.8594C86.7802 64.8073 88.025 65.2812 89.6813 65.2812C91.3479 65.2812 92.6084 64.8021 93.4625 63.8438C94.3167 62.8854 94.7438 61.4688 94.7438 59.5938V46.125H99.6031ZM104.681 69V46.125H109.572V64.8438H117.384V69H104.681ZM118.994 66.0938L121.713 63.0156C122.056 63.8594 122.608 64.526 123.369 65.0156C124.129 65.4948 124.983 65.7344 125.931 65.7344C127.077 65.7344 127.983 65.4635 128.65 64.9219C129.317 64.3802 129.65 63.651 129.65 62.7344C129.65 61.651 128.541 60.5729 126.322 59.5C125.603 59.1562 125.035 58.875 124.619 58.6562C122.619 57.6146 121.233 56.599 120.463 55.6094C119.692 54.6094 119.306 53.4219 119.306 52.0469C119.306 50.1615 120.051 48.6146 121.541 47.4062C123.041 46.1875 124.983 45.5781 127.369 45.5781C128.754 45.5781 129.947 45.8229 130.947 46.3125C131.957 46.7917 132.848 47.5469 133.619 48.5781L130.728 51.3438C130.384 50.6771 129.926 50.1823 129.353 49.8594C128.791 49.526 128.108 49.3594 127.306 49.3594C126.338 49.3594 125.556 49.6042 124.963 50.0938C124.369 50.5729 124.072 51.1979 124.072 51.9688C124.072 53.1771 125.249 54.2812 127.603 55.2812C128.072 55.4792 128.431 55.6354 128.681 55.75C130.619 56.6354 132.051 57.6354 132.978 58.75C133.916 59.8646 134.384 61.1354 134.384 62.5625C134.384 64.7083 133.65 66.4219 132.181 67.7031C130.723 68.974 128.759 69.6094 126.291 69.6094C124.541 69.6094 123.041 69.3073 121.791 68.7031C120.541 68.099 119.608 67.2292 118.994 66.0938ZM150.244 60.2969L147.681 52.9062C147.608 52.6875 147.515 52.3125 147.4 51.7812C147.285 51.25 147.166 50.599 147.041 49.8281C146.905 50.5677 146.775 51.2344 146.65 51.8281C146.525 52.4115 146.431 52.8021 146.369 53L143.9 60.2969H150.244ZM135.681 69L144.384 46.125H149.978L158.806 69H153.244L151.384 64.1406H142.525L140.931 69H135.681ZM177.759 69H172.119L166.103 58.3125V69H161.213V46.125H168.213C170.994 46.125 173.077 46.6667 174.463 47.75C175.848 48.8229 176.541 50.4427 176.541 52.6094C176.541 54.1823 176.067 55.526 175.119 56.6406C174.171 57.7552 172.947 58.4062 171.447 58.5938L177.759 69ZM166.103 55.875H166.838C168.817 55.875 170.124 55.6615 170.759 55.2344C171.395 54.7969 171.713 54.0417 171.713 52.9688C171.713 51.8438 171.369 51.0469 170.681 50.5781C170.004 50.099 168.723 49.8594 166.838 49.8594H166.103V55.875ZM199.009 50.2812V69H194.103V50.2812H188.509V46.125H204.634V50.2812H199.009ZM227.478 46.125V60.3594C227.478 63.4635 226.66 65.7812 225.025 67.3125C223.39 68.8438 220.926 69.6094 217.634 69.6094C214.291 69.6094 211.801 68.8438 210.166 67.3125C208.53 65.7812 207.713 63.4635 207.713 60.3594V46.125H212.572V59.5938C212.572 61.4792 212.989 62.901 213.822 63.8594C214.655 64.8073 215.9 65.2812 217.556 65.2812C219.223 65.2812 220.483 64.8021 221.338 63.8438C222.192 62.8854 222.619 61.4688 222.619 59.5938V46.125H227.478ZM242.4 69V46.125H247.478L257.603 59.4375C257.895 59.8125 258.213 60.3438 258.556 61.0312C258.91 61.7083 259.275 62.5104 259.65 63.4375C259.535 62.7604 259.452 62.0885 259.4 61.4219C259.348 60.7552 259.322 59.9219 259.322 58.9219V46.125H263.994V69H259.197L248.791 55.4375C248.499 55.0625 248.181 54.5365 247.838 53.8594C247.494 53.1719 247.129 52.3542 246.744 51.4062C246.858 52.0625 246.942 52.7292 246.994 53.4062C247.046 54.0729 247.072 54.9167 247.072 55.9375V69H242.4ZM269.088 69V46.125H282.556V50.25H273.978V54.9531H282.556V59.1094H273.978V64.8438H282.556V69H269.088ZM298.728 56.9375H309.15C309.171 57.0729 309.181 57.2188 309.181 57.375C309.192 57.5312 309.197 57.7708 309.197 58.0938C309.197 61.5208 308.218 64.2969 306.259 66.4219C304.301 68.5469 301.77 69.6094 298.666 69.6094C295.114 69.6094 292.186 68.4792 289.884 66.2188C287.582 63.9479 286.431 61.0677 286.431 57.5781C286.431 54.1198 287.588 51.2604 289.9 49C292.213 46.7396 295.134 45.6094 298.666 45.6094C300.53 45.6094 302.239 46 303.791 46.7812C305.343 47.5625 306.728 48.7292 307.947 50.2812L304.65 52.7188C303.827 51.6979 302.963 50.9635 302.056 50.5156C301.15 50.0573 300.103 49.8281 298.916 49.8281C296.655 49.8281 294.848 50.5312 293.494 51.9375C292.14 53.3438 291.463 55.224 291.463 57.5781C291.463 59.8906 292.14 61.7604 293.494 63.1875C294.858 64.6042 296.634 65.3125 298.822 65.3125C300.426 65.3125 301.728 64.9375 302.728 64.1875C303.728 63.4271 304.228 62.4375 304.228 61.2188V60.9688H298.728V56.9375ZM336.509 57.6094C336.509 59.2448 336.202 60.7917 335.588 62.25C334.983 63.7083 334.108 64.9896 332.963 66.0938C331.775 67.2292 330.436 68.099 328.947 68.7031C327.457 69.3073 325.916 69.6094 324.322 69.6094C322.926 69.6094 321.556 69.375 320.213 68.9062C318.879 68.4271 317.655 67.7448 316.541 66.8594C315.103 65.7135 313.999 64.3438 313.228 62.75C312.468 61.1562 312.088 59.4427 312.088 57.6094C312.088 55.9635 312.39 54.4219 312.994 52.9844C313.598 51.5365 314.483 50.25 315.65 49.125C316.796 48.0104 318.124 47.1458 319.634 46.5312C321.155 45.9167 322.718 45.6094 324.322 45.6094C325.916 45.6094 327.463 45.9167 328.963 46.5312C330.473 47.1458 331.806 48.0104 332.963 49.125C334.119 50.25 334.999 51.5365 335.603 52.9844C336.207 54.4323 336.509 55.974 336.509 57.6094ZM324.322 65.25C326.395 65.25 328.103 64.526 329.447 63.0781C330.801 61.6198 331.478 59.7969 331.478 57.6094C331.478 55.4427 330.796 53.6198 329.431 52.1406C328.067 50.6615 326.364 49.9219 324.322 49.9219C322.249 49.9219 320.53 50.6615 319.166 52.1406C317.801 53.6094 317.119 55.4323 317.119 57.6094C317.119 59.8177 317.791 61.6458 319.134 63.0938C320.478 64.5312 322.207 65.25 324.322 65.25ZM359.072 52.0781C358.082 51.1927 357.067 50.5469 356.025 50.1406C354.983 49.724 353.869 49.5156 352.681 49.5156C350.244 49.5156 348.301 50.2448 346.853 51.7031C345.405 53.1615 344.681 55.1198 344.681 57.5781C344.681 59.9844 345.353 61.8958 346.697 63.3125C348.041 64.7188 349.874 65.4219 352.197 65.4219C353.52 65.4219 354.749 65.2031 355.884 64.7656C357.02 64.3177 358.072 63.651 359.041 62.7656L359.009 67.7812C357.968 68.3958 356.874 68.8542 355.728 69.1562C354.593 69.4583 353.395 69.6094 352.134 69.6094C348.489 69.6094 345.494 68.4792 343.15 66.2188C340.817 63.9479 339.65 61.0677 339.65 57.5781C339.65 54.099 340.822 51.2292 343.166 48.9688C345.509 46.7083 348.53 45.5781 352.228 45.5781C353.468 45.5781 354.666 45.7083 355.822 45.9688C356.978 46.2292 358.119 46.6302 359.244 47.1719L359.072 52.0781ZM363.713 69V46.125H368.603V69H363.713ZM397.259 57.6094C397.259 59.2448 396.952 60.7917 396.338 62.25C395.733 63.7083 394.858 64.9896 393.713 66.0938C392.525 67.2292 391.186 68.099 389.697 68.7031C388.207 69.3073 386.666 69.6094 385.072 69.6094C383.676 69.6094 382.306 69.375 380.963 68.9062C379.629 68.4271 378.405 67.7448 377.291 66.8594C375.853 65.7135 374.749 64.3438 373.978 62.75C373.218 61.1562 372.838 59.4427 372.838 57.6094C372.838 55.9635 373.14 54.4219 373.744 52.9844C374.348 51.5365 375.233 50.25 376.4 49.125C377.546 48.0104 378.874 47.1458 380.384 46.5312C381.905 45.9167 383.468 45.6094 385.072 45.6094C386.666 45.6094 388.213 45.9167 389.713 46.5312C391.223 47.1458 392.556 48.0104 393.713 49.125C394.869 50.25 395.749 51.5365 396.353 52.9844C396.957 54.4323 397.259 55.974 397.259 57.6094ZM385.072 65.25C387.145 65.25 388.853 64.526 390.197 63.0781C391.551 61.6198 392.228 59.7969 392.228 57.6094C392.228 55.4427 391.546 53.6198 390.181 52.1406C388.817 50.6615 387.114 49.9219 385.072 49.9219C382.999 49.9219 381.28 50.6615 379.916 52.1406C378.551 53.6094 377.869 55.4323 377.869 57.6094C377.869 59.8177 378.541 61.6458 379.884 63.0938C381.228 64.5312 382.957 65.25 385.072 65.25Z" fill="white"/>
</svg>
