<svg width="494" height="172" viewBox="0 0 494 172" fill="none" xmlns="http://www.w3.org/2000/svg">
<path d="M37.648 5.808H30.592V42H47.632V35.856H37.648V5.808ZM72.8725 34.368L75.6565 42H83.1925L69.4645 4.848H63.9925L49.8805 42H57.3205L60.2965 34.368H72.8725ZM70.9045 28.608H62.3125L66.2965 15.456H66.3925L70.9045 28.608ZM112.273 26.256H113.425C116.977 26.256 120.817 26.448 120.817 31.152C120.817 35.856 117.553 36.336 113.761 36.336H112.273V26.256ZM105.217 42H116.305C122.881 42 127.873 38.832 127.873 31.728C127.873 27.744 125.953 23.424 121.681 22.656C123.937 21.216 124.849 18.24 124.849 15.648C124.849 8.448 120.721 5.808 114.001 5.808H105.217V42ZM112.273 11.472H113.185C116.161 11.472 118.273 12.432 118.273 16.128C118.273 19.872 116.593 20.88 113.137 20.88H112.273V11.472ZM154.716 34.368L157.5 42H165.036L151.308 4.848H145.836L131.724 42H139.164L142.14 34.368H154.716ZM152.748 28.608H144.156L148.14 15.456H148.236L152.748 28.608ZM170.186 42H177.242V17.424H177.338L196.394 42.72H201.482V5.808H194.426V30.144H194.33L175.274 4.848H170.186V42ZM233.8 6.96C231.352 5.616 228.568 4.848 225.736 4.848C215.128 4.848 207.88 13.92 207.88 24.192C207.88 34.176 215.416 42.96 225.592 42.96C228.52 42.96 231.16 42.048 233.8 40.8V32.4C231.832 34.656 228.808 36.24 225.784 36.24C219.208 36.24 215.176 30.144 215.176 24.048C215.176 17.808 219.064 11.568 225.832 11.568C228.856 11.568 231.832 13.008 233.8 15.408V6.96ZM261.404 34.368L264.188 42H271.724L257.996 4.848H252.524L238.412 42H245.852L248.828 34.368H261.404ZM259.436 28.608H250.844L254.828 15.456H254.924L259.436 28.608ZM328.5 42.816L323.556 36.96C326.34 33.36 327.828 28.752 327.828 23.856C327.828 13.728 320.484 4.848 309.924 4.848C299.364 4.848 292.02 13.728 292.02 23.856C292.02 34.224 299.364 42.96 309.924 42.96C313.236 42.96 316.452 42.144 318.9 40.512L321.396 43.536L328.5 42.816ZM315.06 27.504L307.764 28.08L313.716 34.944C312.756 35.568 311.22 36.144 309.924 36.144C303.012 36.144 299.316 30.288 299.316 24.288C299.316 18.048 303.06 11.568 309.924 11.568C316.26 11.568 320.532 17.808 320.532 23.664C320.532 26.16 319.86 29.184 318.276 31.152L315.06 27.504ZM334.103 27.456C334.103 36.288 337.847 42.96 347.543 42.96C357.239 42.96 360.983 36.288 360.983 27.456V5.808H353.927V26.064C353.927 30.528 353.543 36.816 347.543 36.816C341.543 36.816 341.159 30.528 341.159 26.064V5.808H334.103V27.456ZM387.703 11.952V5.808H368.983V42H387.703V35.856H376.039V26.064H387.271V19.92H376.039V11.952H387.703ZM424.055 11.952H431.351V5.808H409.703V11.952H416.999V42H424.055V11.952ZM436.759 27.456C436.759 36.288 440.503 42.96 450.199 42.96C459.895 42.96 463.639 36.288 463.639 27.456V5.808H456.583V26.064C456.583 30.528 456.199 36.816 450.199 36.816C444.199 36.816 443.815 30.528 443.815 26.064V5.808H436.759V27.456ZM49.312 59.952V53.808H30.592V90H49.312V83.856H37.648V74.064H48.88V67.92H37.648V59.952H49.312ZM86.9335 90H94.0375L88.6135 52.848H83.5255L74.9815 76.704L66.0535 52.848H61.0615L54.9655 90H62.0695L65.2855 67.536H65.3815L73.3015 90.48H75.7495L83.9575 67.536H84.0535L86.9335 90ZM107.211 76.464H110.715C118.107 76.464 122.283 72.72 122.283 65.04C122.283 56.832 117.339 53.808 109.755 53.808H100.155V90H107.211V76.464ZM107.211 59.664H108.459C112.395 59.664 115.083 60.336 115.083 64.992C115.083 69.696 112.827 70.608 108.651 70.608H107.211V59.664ZM142.77 74.736C147.618 73.92 150.162 69.312 150.162 64.704C150.162 56.976 145.218 53.808 138.066 53.808H128.514V90H135.57V75.408H135.666L144.45 90H152.994L142.77 74.736ZM135.57 59.568H136.53C140.274 59.568 143.106 60.432 143.106 64.896C143.106 69.312 140.37 70.464 136.482 70.464H135.57V59.568ZM177 59.952V53.808H158.28V90H177V83.856H165.336V74.064H176.568V67.92H165.336V59.952H177ZM205.069 56.88C202.861 54.432 198.397 52.848 195.181 52.848C189.085 52.848 184.621 57.696 184.621 63.696C184.621 69.312 188.029 71.664 192.685 73.584C195.517 74.688 198.973 75.744 198.973 79.488C198.973 82.272 197.197 84.72 194.317 84.72C191.293 84.72 188.749 82.224 187.789 79.44L183.229 83.904C185.725 88.08 189.373 90.96 194.365 90.96C201.757 90.96 206.269 85.824 206.269 78.576C206.269 66.432 191.917 68.976 191.917 62.88C191.917 60.528 194.077 58.8 196.333 58.8C198.685 58.8 200.413 59.952 201.757 61.776L205.069 56.88ZM232.951 82.368L235.735 90H243.271L229.543 52.848H224.071L209.959 90H217.399L220.375 82.368H232.951ZM230.983 76.608H222.391L226.375 63.456H226.471L230.983 76.608ZM265.295 90H272.351V65.424H272.447L291.503 90.72H296.591V53.808H289.535V78.144H289.439L270.383 52.848H265.295V90ZM323.437 59.952V53.808H304.717V90H323.437V83.856H311.773V74.064H323.005V67.92H311.773V59.952H323.437ZM355.347 54.96C352.899 53.616 350.115 52.848 347.283 52.848C336.675 52.848 329.427 61.92 329.427 72.192C329.427 82.176 336.963 90.96 347.139 90.96C350.067 90.96 352.707 90.048 355.347 88.8V80.4C353.379 82.656 350.355 84.24 347.331 84.24C340.755 84.24 336.723 78.144 336.723 72.048C336.723 65.808 340.611 59.568 347.379 59.568C350.403 59.568 353.379 61.008 355.347 63.408V54.96ZM381.703 59.952V53.808H362.983V90H381.703V83.856H370.039V74.064H381.271V67.92H370.039V59.952H381.703ZM409.772 56.88C407.564 54.432 403.1 52.848 399.884 52.848C393.788 52.848 389.324 57.696 389.324 63.696C389.324 69.312 392.732 71.664 397.388 73.584C400.22 74.688 403.676 75.744 403.676 79.488C403.676 82.272 401.9 84.72 399.02 84.72C395.996 84.72 393.452 82.224 392.492 79.44L387.932 83.904C390.428 88.08 394.076 90.96 399.068 90.96C406.46 90.96 410.972 85.824 410.972 78.576C410.972 66.432 396.62 68.976 396.62 62.88C396.62 60.528 398.78 58.8 401.036 58.8C403.388 58.8 405.116 59.952 406.46 61.776L409.772 56.88ZM424.742 53.808H417.686V90H424.742V53.808ZM444.633 59.952H451.929V53.808H430.281V59.952H437.577V90H444.633V59.952ZM473.654 82.368L476.438 90H483.974L470.246 52.848H464.774L450.662 90H458.102L461.078 82.368H473.654ZM471.686 76.608H463.094L467.078 63.456H467.174L471.686 76.608Z" fill="white"/>
<path d="M27 132H15C10.5817 132 7 128.418 7 124V14" stroke="white" stroke-width="1.5"/>
<path d="M12.622 7.0784C12.622 10.6144 9.92461 13.4068 6.68598 13.4068C3.44736 13.4068 0.75 10.6144 0.75 7.0784C0.75 3.54244 3.44736 0.75 6.68598 0.75C9.92461 0.75 12.622 3.54244 12.622 7.0784Z" stroke="white" stroke-width="1.5"/>
<rect x="25" y="110" width="342" height="62" rx="16" fill="#002A61"/>
<path d="M45.5469 147V134.133H48.2275C49.1709 134.133 49.8652 134.183 50.3105 134.282C50.7617 134.376 51.1484 134.54 51.4707 134.774C51.8809 135.079 52.1973 135.472 52.4199 135.952C52.6484 136.427 52.7627 136.948 52.7627 137.517C52.7627 138.196 52.5986 138.765 52.2705 139.222C51.9482 139.679 51.4766 139.998 50.8555 140.18C51.6172 140.297 52.2178 140.64 52.6572 141.208C53.1025 141.771 53.3252 142.482 53.3252 143.344C53.3252 143.859 53.2314 144.352 53.0439 144.82C52.8564 145.289 52.5957 145.69 52.2617 146.024C51.8984 146.382 51.4502 146.634 50.917 146.78C50.3838 146.927 49.4873 147 48.2275 147H45.5469ZM47.041 140.971V145.664H48.2275C49.042 145.664 49.6279 145.632 49.9854 145.567C50.3486 145.503 50.6387 145.392 50.8555 145.233C51.1191 145.046 51.3271 144.785 51.4795 144.451C51.6318 144.117 51.708 143.748 51.708 143.344C51.708 142.875 51.6172 142.468 51.4355 142.122C51.2539 141.776 50.9902 141.507 50.6445 141.313C50.4395 141.19 50.2021 141.103 49.9326 141.05C49.6631 140.997 49.2441 140.971 48.6758 140.971H48.2275H47.041ZM47.041 135.46V139.767H48.2275C49.3174 139.767 50.085 139.608 50.5303 139.292C50.9756 138.976 51.1982 138.442 51.1982 137.692C51.1982 136.866 50.9902 136.289 50.5742 135.961C50.1641 135.627 49.3818 135.46 48.2275 135.46H47.041ZM55.5488 147V138.958H56.7705V140.628C57.1396 139.931 57.5322 139.433 57.9482 139.134C58.3643 138.835 58.8711 138.686 59.4688 138.686C59.6328 138.686 59.791 138.7 59.9434 138.729C60.0957 138.753 60.248 138.791 60.4004 138.844L59.9434 140.083C59.7852 140.03 59.6357 139.992 59.4951 139.969C59.3545 139.939 59.2197 139.925 59.0908 139.925C58.3643 139.925 57.8193 140.188 57.4561 140.716C57.0928 141.237 56.9111 142.025 56.9111 143.08V147H55.5488ZM61.6045 135.082C61.6045 134.807 61.7012 134.572 61.8945 134.379C62.0938 134.18 62.334 134.08 62.6152 134.08C62.8906 134.08 63.125 134.18 63.3184 134.379C63.5176 134.578 63.6172 134.818 63.6172 135.1C63.6172 135.375 63.5205 135.609 63.3271 135.803C63.1338 135.996 62.8965 136.093 62.6152 136.093C62.334 136.093 62.0938 135.996 61.8945 135.803C61.7012 135.609 61.6045 135.369 61.6045 135.082ZM61.9297 147V138.958H63.3184V147H61.9297ZM66.2188 147V138.958H67.5635V140.197C67.9092 139.682 68.3252 139.298 68.8115 139.046C69.2979 138.794 69.8604 138.668 70.499 138.668C71.4482 138.668 72.1895 138.92 72.7227 139.424C73.2559 139.928 73.5225 140.628 73.5225 141.524V147H72.1162V142.263C72.1162 141.448 71.9434 140.845 71.5977 140.452C71.2578 140.054 70.7305 139.854 70.0156 139.854C69.6055 139.854 69.2305 139.931 68.8906 140.083C68.5566 140.229 68.2783 140.44 68.0557 140.716C67.8857 140.927 67.7627 141.167 67.6865 141.437C67.6162 141.706 67.5811 142.175 67.5811 142.843V147H66.2188ZM82.4082 143.019C82.4082 142.122 82.1592 141.401 81.6611 140.856C81.1631 140.306 80.5068 140.03 79.6924 140.03C78.8779 140.03 78.2422 140.279 77.7852 140.777C77.3281 141.275 77.0996 141.964 77.0996 142.843C77.0996 143.833 77.3311 144.609 77.7939 145.172C78.2568 145.729 78.8955 146.007 79.71 146.007C80.5537 146.007 81.2129 145.743 81.6875 145.216C82.168 144.688 82.4082 143.956 82.4082 143.019ZM83.7441 133.377V147H82.4082V145.541C82.0918 146.121 81.6816 146.566 81.1777 146.877C80.6738 147.188 80.1113 147.343 79.4902 147.343C78.3359 147.343 77.4043 146.947 76.6953 146.156C75.9922 145.359 75.6406 144.308 75.6406 143.001C75.6406 141.683 75.9863 140.631 76.6777 139.846C77.3691 139.061 78.2891 138.668 79.4375 138.668C80.1055 138.668 80.6855 138.82 81.1777 139.125C81.6699 139.424 82.0684 139.872 82.373 140.47V133.377H83.7441ZM92.709 143.054C92.709 142.146 92.46 141.416 91.9619 140.865C91.4697 140.309 90.8252 140.03 90.0283 140.03C89.2021 140.03 88.5576 140.285 88.0947 140.795C87.6318 141.305 87.4004 142.017 87.4004 142.931C87.4004 143.903 87.6318 144.653 88.0947 145.181C88.5635 145.708 89.2256 145.972 90.0811 145.972C90.9014 145.972 91.543 145.717 92.0059 145.207C92.4746 144.691 92.709 143.974 92.709 143.054ZM94.0449 138.958V147H92.709V145.541C92.3867 146.127 91.9736 146.575 91.4697 146.886C90.9717 147.19 90.4121 147.343 89.791 147.343C88.6367 147.343 87.7051 146.947 86.9961 146.156C86.293 145.359 85.9414 144.308 85.9414 143.001C85.9414 141.677 86.2842 140.625 86.9697 139.846C87.6553 139.061 88.5723 138.668 89.7207 138.668C90.3945 138.668 90.9775 138.82 91.4697 139.125C91.9678 139.424 92.3691 139.872 92.6738 140.47V138.958H94.0449ZM108.002 147V142.263C108.002 141.448 107.838 140.845 107.51 140.452C107.182 140.054 106.678 139.854 105.998 139.854C105.629 139.854 105.286 139.931 104.97 140.083C104.659 140.229 104.396 140.44 104.179 140.716C104.021 140.927 103.906 141.173 103.836 141.454C103.766 141.735 103.73 142.198 103.73 142.843V147H102.403V142.263C102.403 141.448 102.239 140.845 101.911 140.452C101.583 140.054 101.079 139.854 100.399 139.854C100.03 139.854 99.6846 139.931 99.3623 140.083C99.0459 140.229 98.7793 140.44 98.5625 140.716C98.4102 140.921 98.2988 141.158 98.2285 141.428C98.1641 141.697 98.1318 142.169 98.1318 142.843V147H96.8047V138.958H98.1494V140.197C98.4834 139.682 98.8818 139.298 99.3447 139.046C99.8076 138.794 100.341 138.668 100.944 138.668C101.595 138.668 102.148 138.809 102.605 139.09C103.062 139.365 103.408 139.77 103.643 140.303C103.988 139.752 104.396 139.342 104.864 139.072C105.339 138.803 105.887 138.668 106.508 138.668C107.404 138.668 108.104 138.92 108.608 139.424C109.112 139.928 109.364 140.628 109.364 141.524V147H108.002ZM112.889 143.001C112.889 143.851 113.173 144.571 113.741 145.163C114.31 145.749 114.998 146.042 115.807 146.042C116.609 146.042 117.292 145.749 117.854 145.163C118.417 144.571 118.698 143.851 118.698 143.001C118.698 142.151 118.417 141.434 117.854 140.848C117.292 140.256 116.609 139.96 115.807 139.96C114.992 139.96 114.301 140.256 113.732 140.848C113.17 141.434 112.889 142.151 112.889 143.001ZM111.43 143.001C111.43 142.409 111.538 141.853 111.755 141.331C111.972 140.804 112.288 140.335 112.704 139.925C113.12 139.515 113.592 139.204 114.119 138.993C114.646 138.776 115.209 138.668 115.807 138.668C116.393 138.668 116.946 138.776 117.468 138.993C117.995 139.21 118.473 139.526 118.9 139.942C119.316 140.347 119.633 140.812 119.85 141.34C120.066 141.861 120.175 142.415 120.175 143.001C120.175 143.587 120.066 144.141 119.85 144.662C119.633 145.178 119.316 145.638 118.9 146.042C118.473 146.464 117.992 146.786 117.459 147.009C116.932 147.231 116.381 147.343 115.807 147.343C115.215 147.343 114.652 147.231 114.119 147.009C113.592 146.792 113.12 146.479 112.704 146.068C112.288 145.646 111.972 145.178 111.755 144.662C111.538 144.146 111.43 143.593 111.43 143.001ZM121.476 145.646L122.653 144.855C122.876 145.283 123.157 145.605 123.497 145.822C123.837 146.033 124.238 146.139 124.701 146.139C125.152 146.139 125.516 146.027 125.791 145.805C126.072 145.582 126.213 145.289 126.213 144.926C126.213 144.645 126.116 144.41 125.923 144.223C125.735 144.035 125.41 143.862 124.947 143.704C124.9 143.687 124.824 143.66 124.719 143.625C122.762 142.951 121.783 142.107 121.783 141.094C121.783 140.379 122.047 139.796 122.574 139.345C123.102 138.894 123.787 138.668 124.631 138.668C125.328 138.668 125.926 138.809 126.424 139.09C126.922 139.365 127.279 139.758 127.496 140.268L126.38 140.953C126.216 140.584 125.973 140.3 125.65 140.101C125.334 139.901 124.965 139.802 124.543 139.802C124.139 139.802 123.808 139.916 123.55 140.145C123.298 140.367 123.172 140.654 123.172 141.006C123.172 141.498 123.705 141.911 124.771 142.245C124.971 142.31 125.129 142.359 125.246 142.395C126.119 142.676 126.726 142.998 127.065 143.361C127.411 143.719 127.584 144.193 127.584 144.785C127.584 145.547 127.312 146.165 126.767 146.64C126.228 147.108 125.521 147.343 124.648 147.343C123.898 147.343 123.26 147.202 122.732 146.921C122.211 146.64 121.792 146.215 121.476 145.646ZM133.886 146.262L134.536 143.871C134.993 144.275 135.497 144.58 136.048 144.785C136.593 145.002 137.144 145.11 137.7 145.11C138.099 145.11 138.397 145.043 138.597 144.908C138.802 144.785 138.904 144.606 138.904 144.372C138.904 143.979 138.491 143.687 137.665 143.493C137.378 143.429 137.161 143.373 137.015 143.326C136.06 143.045 135.383 142.702 134.984 142.298C134.551 141.882 134.334 141.343 134.334 140.681C134.334 139.825 134.659 139.137 135.31 138.615C135.937 138.1 136.812 137.842 137.938 137.842C138.482 137.842 139.062 137.906 139.678 138.035C140.193 138.141 140.794 138.346 141.479 138.65L140.829 140.804C140.407 140.517 139.982 140.303 139.555 140.162C139.15 140.016 138.726 139.942 138.28 139.942C137.917 139.942 137.645 139.998 137.463 140.109C137.287 140.215 137.199 140.376 137.199 140.593C137.199 140.897 137.612 141.161 138.438 141.384C138.708 141.466 138.846 141.507 138.852 141.507C139.93 141.812 140.686 142.172 141.119 142.588C141.541 143.027 141.752 143.599 141.752 144.302C141.752 145.21 141.403 145.942 140.706 146.499C139.991 147.062 139.068 147.343 137.938 147.343C137.152 147.343 136.429 147.252 135.767 147.07C135.11 146.895 134.483 146.625 133.886 146.262ZM149.732 142.588C149.732 141.926 149.565 141.404 149.231 141.023C148.886 140.643 148.435 140.452 147.878 140.452C147.304 140.452 146.853 140.643 146.524 141.023C146.19 141.393 146.023 141.914 146.023 142.588C146.023 143.244 146.185 143.76 146.507 144.135C146.858 144.521 147.315 144.715 147.878 144.715C148.44 144.715 148.897 144.521 149.249 144.135C149.571 143.748 149.732 143.232 149.732 142.588ZM152.844 142.588C152.844 143.238 152.718 143.845 152.466 144.407C152.202 145.005 151.842 145.521 151.385 145.954C150.869 146.435 150.336 146.783 149.785 147C149.211 147.229 148.575 147.343 147.878 147.343C147.175 147.343 146.539 147.229 145.971 147C145.391 146.771 144.854 146.426 144.362 145.963C143.876 145.494 143.524 144.976 143.308 144.407C143.056 143.862 142.93 143.256 142.93 142.588C142.93 141.938 143.056 141.325 143.308 140.751C143.542 140.171 143.896 139.655 144.371 139.204C144.834 138.759 145.367 138.416 145.971 138.176C146.545 137.953 147.181 137.842 147.878 137.842C148.569 137.842 149.205 137.953 149.785 138.176C150.389 138.416 150.922 138.759 151.385 139.204C151.871 139.644 152.231 140.159 152.466 140.751C152.718 141.325 152.844 141.938 152.844 142.588ZM154.733 147V133.377H157.871V147H154.733ZM169.376 138.123V142.658C169.376 143.672 169.3 144.41 169.147 144.873C168.983 145.354 168.708 145.787 168.321 146.174C167.952 146.561 167.466 146.854 166.862 147.053C166.288 147.246 165.597 147.343 164.788 147.343C163.985 147.343 163.303 147.246 162.74 147.053C162.16 146.865 161.662 146.572 161.246 146.174C160.865 145.811 160.596 145.383 160.438 144.891C160.279 144.434 160.2 143.689 160.2 142.658V138.123H163.188V142.86C163.188 143.604 163.314 144.138 163.566 144.46C163.795 144.8 164.19 144.97 164.753 144.97C165.31 144.97 165.708 144.806 165.948 144.478C166.194 144.149 166.317 143.61 166.317 142.86V138.123H169.376ZM177.998 141.041C177.693 140.771 177.4 140.575 177.119 140.452C176.867 140.329 176.571 140.268 176.231 140.268C175.604 140.268 175.112 140.473 174.755 140.883C174.386 141.287 174.201 141.844 174.201 142.553C174.201 143.232 174.392 143.771 174.772 144.17C175.142 144.58 175.654 144.785 176.311 144.785C176.621 144.785 176.92 144.721 177.207 144.592C177.512 144.445 177.775 144.252 177.998 144.012V146.728C177.623 146.927 177.245 147.085 176.864 147.202C176.46 147.296 176.076 147.343 175.713 147.343C174.342 147.343 173.237 146.903 172.399 146.024C172.112 145.731 171.875 145.409 171.688 145.058C171.506 144.706 171.365 144.325 171.266 143.915C171.172 143.505 171.125 143.057 171.125 142.57C171.125 141.17 171.553 140.033 172.408 139.16C173.27 138.281 174.383 137.842 175.748 137.842C176.176 137.842 176.583 137.889 176.97 137.982C177.345 138.076 177.688 138.214 177.998 138.396V141.041ZM179.853 147V138.123H182.981V147H179.853ZM180.248 135.838H180.266C180.266 135.51 180.38 135.24 180.608 135.029C180.837 134.801 181.112 134.687 181.435 134.687C181.774 134.687 182.053 134.795 182.27 135.012C182.492 135.229 182.604 135.504 182.604 135.838C182.604 136.178 182.489 136.459 182.261 136.682C182.038 136.91 181.763 137.024 181.435 137.024C181.101 137.024 180.819 136.904 180.591 136.664C180.362 136.441 180.248 136.166 180.248 135.838ZM191.85 142.588C191.85 141.926 191.683 141.404 191.349 141.023C191.003 140.643 190.552 140.452 189.995 140.452C189.421 140.452 188.97 140.643 188.642 141.023C188.308 141.393 188.141 141.914 188.141 142.588C188.141 143.244 188.302 143.76 188.624 144.135C188.976 144.521 189.433 144.715 189.995 144.715C190.558 144.715 191.015 144.521 191.366 144.135C191.688 143.748 191.85 143.232 191.85 142.588ZM194.961 142.588C194.961 143.238 194.835 143.845 194.583 144.407C194.319 145.005 193.959 145.521 193.502 145.954C192.986 146.435 192.453 146.783 191.902 147C191.328 147.229 190.692 147.343 189.995 147.343C189.292 147.343 188.656 147.229 188.088 147C187.508 146.771 186.972 146.426 186.479 145.963C185.993 145.494 185.642 144.976 185.425 144.407C185.173 143.862 185.047 143.256 185.047 142.588C185.047 141.938 185.173 141.325 185.425 140.751C185.659 140.171 186.014 139.655 186.488 139.204C186.951 138.759 187.484 138.416 188.088 138.176C188.662 137.953 189.298 137.842 189.995 137.842C190.687 137.842 191.322 137.953 191.902 138.176C192.506 138.416 193.039 138.759 193.502 139.204C193.988 139.644 194.349 140.159 194.583 140.751C194.835 141.325 194.961 141.938 194.961 142.588ZM196.763 147V138.123H199.628V139.925C200.032 139.222 200.513 138.694 201.069 138.343C201.608 138.009 202.262 137.842 203.029 137.842C203.609 137.842 204.125 137.93 204.576 138.105C205.021 138.305 205.382 138.574 205.657 138.914C205.909 139.254 206.076 139.614 206.158 139.995C206.258 140.481 206.308 141.123 206.308 141.92V147H203.17V142.245C203.17 141.524 203.056 141.009 202.827 140.698C202.599 140.376 202.227 140.215 201.711 140.215C201.066 140.215 200.592 140.455 200.287 140.936C199.988 141.416 199.839 142.195 199.839 143.273V147H196.763ZM214.64 141.419C214.587 140.927 214.396 140.525 214.068 140.215C213.74 139.904 213.339 139.749 212.864 139.749C212.366 139.749 211.962 139.887 211.651 140.162C211.329 140.473 211.127 140.892 211.045 141.419H214.64ZM217.725 143.186H210.975C210.992 143.877 211.165 144.404 211.493 144.768C211.833 145.143 212.325 145.33 212.97 145.33C213.438 145.33 213.84 145.239 214.174 145.058C214.514 144.864 214.76 144.601 214.912 144.267L217.268 145.216C216.992 145.89 216.494 146.411 215.773 146.78C215.059 147.155 214.183 147.343 213.146 147.343C211.599 147.343 210.356 146.909 209.419 146.042C208.487 145.198 208.021 144.07 208.021 142.658C208.021 141.281 208.487 140.13 209.419 139.204C210.351 138.296 211.534 137.842 212.97 137.842C214.435 137.842 215.592 138.302 216.441 139.222C216.875 139.696 217.197 140.25 217.408 140.883C217.619 141.51 217.725 142.228 217.725 143.036V143.186ZM218.7 146.262L219.351 143.871C219.808 144.275 220.312 144.58 220.862 144.785C221.407 145.002 221.958 145.11 222.515 145.11C222.913 145.11 223.212 145.043 223.411 144.908C223.616 144.785 223.719 144.606 223.719 144.372C223.719 143.979 223.306 143.687 222.479 143.493C222.192 143.429 221.976 143.373 221.829 143.326C220.874 143.045 220.197 142.702 219.799 142.298C219.365 141.882 219.148 141.343 219.148 140.681C219.148 139.825 219.474 139.137 220.124 138.615C220.751 138.1 221.627 137.842 222.752 137.842C223.297 137.842 223.877 137.906 224.492 138.035C225.008 138.141 225.608 138.346 226.294 138.65L225.644 140.804C225.222 140.517 224.797 140.303 224.369 140.162C223.965 140.016 223.54 139.942 223.095 139.942C222.731 139.942 222.459 139.998 222.277 140.109C222.102 140.215 222.014 140.376 222.014 140.593C222.014 140.897 222.427 141.161 223.253 141.384C223.522 141.466 223.66 141.507 223.666 141.507C224.744 141.812 225.5 142.172 225.934 142.588C226.355 143.027 226.566 143.599 226.566 144.302C226.566 145.21 226.218 145.942 225.521 146.499C224.806 147.062 223.883 147.343 222.752 147.343C221.967 147.343 221.243 147.252 220.581 147.07C219.925 146.895 219.298 146.625 218.7 146.262ZM239.961 143.054C239.961 142.146 239.712 141.416 239.214 140.865C238.722 140.309 238.077 140.03 237.28 140.03C236.454 140.03 235.81 140.285 235.347 140.795C234.884 141.305 234.652 142.017 234.652 142.931C234.652 143.903 234.884 144.653 235.347 145.181C235.815 145.708 236.478 145.972 237.333 145.972C238.153 145.972 238.795 145.717 239.258 145.207C239.727 144.691 239.961 143.974 239.961 143.054ZM241.297 138.958V147H239.961V145.541C239.639 146.127 239.226 146.575 238.722 146.886C238.224 147.19 237.664 147.343 237.043 147.343C235.889 147.343 234.957 146.947 234.248 146.156C233.545 145.359 233.193 144.308 233.193 143.001C233.193 141.677 233.536 140.625 234.222 139.846C234.907 139.061 235.824 138.668 236.973 138.668C237.646 138.668 238.229 138.82 238.722 139.125C239.22 139.424 239.621 139.872 239.926 140.47V138.958H241.297ZM249.576 140.092H248.1V138.958H249.576V135.715H250.982V138.958H252.459V140.092H250.982V147H249.576V140.092ZM255.315 138.958V142.913C255.315 144.067 255.485 144.876 255.825 145.339C256.171 145.796 256.751 146.024 257.565 146.024C258.38 146.024 258.954 145.799 259.288 145.348C259.628 144.891 259.798 144.079 259.798 142.913V138.958H261.204V143.651C261.204 144.864 260.894 145.784 260.272 146.411C259.651 147.032 258.737 147.343 257.53 147.343C256.335 147.343 255.427 147.029 254.806 146.402C254.185 145.775 253.874 144.858 253.874 143.651V138.958H255.315ZM275.038 141.419C274.985 140.927 274.795 140.525 274.467 140.215C274.139 139.904 273.737 139.749 273.263 139.749C272.765 139.749 272.36 139.887 272.05 140.162C271.728 140.473 271.525 140.892 271.443 141.419H275.038ZM278.123 143.186H271.373C271.391 143.877 271.563 144.404 271.892 144.768C272.231 145.143 272.724 145.33 273.368 145.33C273.837 145.33 274.238 145.239 274.572 145.058C274.912 144.864 275.158 144.601 275.311 144.267L277.666 145.216C277.391 145.89 276.893 146.411 276.172 146.78C275.457 147.155 274.581 147.343 273.544 147.343C271.997 147.343 270.755 146.909 269.817 146.042C268.886 145.198 268.42 144.07 268.42 142.658C268.42 141.281 268.886 140.13 269.817 139.204C270.749 138.296 271.933 137.842 273.368 137.842C274.833 137.842 275.99 138.302 276.84 139.222C277.273 139.696 277.596 140.25 277.807 140.883C278.018 141.51 278.123 142.228 278.123 143.036V143.186ZM291.658 147V142.157C291.658 141.396 291.57 140.868 291.395 140.575C291.195 140.276 290.864 140.127 290.401 140.127C289.81 140.127 289.402 140.329 289.18 140.733C288.951 141.132 288.837 141.967 288.837 143.238V147H285.813V142.157C285.813 141.366 285.717 140.833 285.523 140.558C285.348 140.271 285.022 140.127 284.548 140.127C283.956 140.127 283.543 140.323 283.309 140.716C283.08 141.114 282.966 141.955 282.966 143.238V147H279.925V138.123H283.001V139.67C283.376 139.049 283.804 138.589 284.284 138.29C284.753 137.991 285.321 137.842 285.989 137.842C286.71 137.842 287.305 137.979 287.773 138.255C288.219 138.536 288.544 138.955 288.749 139.512C289.106 138.932 289.531 138.513 290.023 138.255C290.51 137.979 291.093 137.842 291.772 137.842C292.306 137.842 292.771 137.93 293.17 138.105C293.58 138.299 293.917 138.568 294.181 138.914C294.403 139.189 294.559 139.515 294.646 139.89C294.734 140.235 294.778 140.848 294.778 141.727V141.92V147H291.658ZM299.788 142.588C299.788 143.279 299.973 143.827 300.342 144.231C300.682 144.624 301.174 144.82 301.818 144.82C302.457 144.82 302.955 144.624 303.312 144.231C303.67 143.821 303.849 143.273 303.849 142.588C303.849 141.891 303.67 141.346 303.312 140.953C302.949 140.555 302.451 140.355 301.818 140.355C301.18 140.355 300.688 140.555 300.342 140.953C299.973 141.34 299.788 141.885 299.788 142.588ZM297.011 150.92V138.141H299.894V139.617C300.274 139.049 300.723 138.606 301.238 138.29C301.725 138.003 302.278 137.859 302.899 137.859C303.526 137.859 304.089 137.965 304.587 138.176C305.085 138.381 305.519 138.694 305.888 139.116C306.62 139.954 306.986 141.111 306.986 142.588C306.986 144.006 306.62 145.151 305.888 146.024C305.513 146.47 305.088 146.801 304.613 147.018C304.145 147.234 303.608 147.343 303.005 147.343C302.249 147.343 301.637 147.205 301.168 146.93C300.717 146.666 300.298 146.209 299.911 145.559C299.94 145.699 299.964 145.916 299.981 146.209C299.993 146.379 299.999 146.689 299.999 147.141V150.92H297.011ZM308.894 147V138.123H311.847V140.215C312.157 139.447 312.57 138.876 313.086 138.501C313.619 138.12 314.261 137.93 315.011 137.93C315.181 137.93 315.307 137.936 315.389 137.947C315.453 137.953 315.512 137.959 315.564 137.965C315.617 137.965 315.685 137.971 315.767 137.982L315.468 140.83C315.251 140.76 315.063 140.71 314.905 140.681C314.671 140.657 314.498 140.646 314.387 140.646C313.625 140.646 313.036 140.88 312.62 141.349C312.21 141.812 312.005 142.471 312.005 143.326V147H308.894ZM323.044 141.419C322.991 140.927 322.801 140.525 322.473 140.215C322.145 139.904 321.743 139.749 321.269 139.749C320.771 139.749 320.366 139.887 320.056 140.162C319.733 140.473 319.531 140.892 319.449 141.419H323.044ZM326.129 143.186H319.379C319.396 143.877 319.569 144.404 319.897 144.768C320.237 145.143 320.729 145.33 321.374 145.33C321.843 145.33 322.244 145.239 322.578 145.058C322.918 144.864 323.164 144.601 323.316 144.267L325.672 145.216C325.396 145.89 324.898 146.411 324.178 146.78C323.463 147.155 322.587 147.343 321.55 147.343C320.003 147.343 318.761 146.909 317.823 146.042C316.892 145.198 316.426 144.07 316.426 142.658C316.426 141.281 316.892 140.13 317.823 139.204C318.755 138.296 319.938 137.842 321.374 137.842C322.839 137.842 323.996 138.302 324.846 139.222C325.279 139.696 325.602 140.25 325.812 140.883C326.023 141.51 326.129 142.228 326.129 143.036V143.186ZM327.104 146.262L327.755 143.871C328.212 144.275 328.716 144.58 329.267 144.785C329.812 145.002 330.362 145.11 330.919 145.11C331.317 145.11 331.616 145.043 331.815 144.908C332.021 144.785 332.123 144.606 332.123 144.372C332.123 143.979 331.71 143.687 330.884 143.493C330.597 143.429 330.38 143.373 330.233 143.326C329.278 143.045 328.602 142.702 328.203 142.298C327.77 141.882 327.553 141.343 327.553 140.681C327.553 139.825 327.878 139.137 328.528 138.615C329.155 138.1 330.031 137.842 331.156 137.842C331.701 137.842 332.281 137.906 332.896 138.035C333.412 138.141 334.013 138.346 334.698 138.65L334.048 140.804C333.626 140.517 333.201 140.303 332.773 140.162C332.369 140.016 331.944 139.942 331.499 139.942C331.136 139.942 330.863 139.998 330.682 140.109C330.506 140.215 330.418 140.376 330.418 140.593C330.418 140.897 330.831 141.161 331.657 141.384C331.927 141.466 332.064 141.507 332.07 141.507C333.148 141.812 333.904 142.172 334.338 142.588C334.76 143.027 334.971 143.599 334.971 144.302C334.971 145.21 334.622 145.942 333.925 146.499C333.21 147.062 332.287 147.343 331.156 147.343C330.371 147.343 329.647 147.252 328.985 147.07C328.329 146.895 327.702 146.625 327.104 146.262ZM343.417 142.553C343.417 141.85 343.232 141.305 342.863 140.918C342.488 140.508 341.984 140.303 341.352 140.303C340.719 140.303 340.221 140.502 339.857 140.9C339.482 141.311 339.295 141.861 339.295 142.553C339.295 143.25 339.482 143.798 339.857 144.196C340.215 144.589 340.713 144.785 341.352 144.785C341.984 144.785 342.485 144.589 342.854 144.196C343.229 143.804 343.417 143.256 343.417 142.553ZM346.168 138.123V147H343.294V145.559C342.878 146.174 342.412 146.625 341.896 146.912C341.387 147.199 340.789 147.343 340.104 147.343C338.914 147.343 337.968 146.909 337.265 146.042C336.919 145.614 336.655 145.11 336.474 144.53C336.292 143.95 336.201 143.297 336.201 142.57C336.201 141.117 336.573 139.966 337.317 139.116C338.062 138.267 339.058 137.842 340.306 137.842C340.974 137.842 341.548 137.985 342.028 138.272C342.515 138.548 342.931 138.984 343.276 139.582V138.123H346.168Z" fill="white"/>
</svg>
