<svg width="20" height="20" viewBox="0 0 20 20" fill="none" xmlns="http://www.w3.org/2000/svg">
    <path fill-rule="evenodd" clip-rule="evenodd" d="M11 3.33333C11 2.78104 10.5523 2.33333 9.99998 2.33333C9.44769 2.33333 8.99998 2.78104 8.99998 3.33333V8.99999H3.33331C2.78103 8.99999 2.33331 9.44771 2.33331 9.99999C2.33331 10.5523 2.78103 11 3.33331 11H8.99998V16.6667C8.99998 17.2189 9.44769 17.6667 9.99998 17.6667C10.5523 17.6667 11 17.2189 11 16.6667V11H16.6666C17.2189 11 17.6666 10.5523 17.6666 9.99999C17.6666 9.44771 17.2189 8.99999 16.6666 8.99999H11V3.33333Z" fill="#002A61" />
</svg>