<svg width="40" height="41" viewBox="0 0 40 41" fill="none" xmlns="http://www.w3.org/2000/svg">
<path d="M25.8387 16.0711L25.3634 15.8705C25.5475 15.4518 25.6117 15.0244 25.5389 14.6145C25.4319 14.0126 25.0379 13.5111 24.4598 13.2451C22.9996 12.5473 20.9869 13.6812 20.4045 14.0475C20.3703 14.0693 20.336 14.0955 20.306 14.1217C19.3297 14.6799 18.4775 14.8587 18.1906 14.7061C18.1178 14.6668 18.1049 14.6319 18.1007 14.584C18.075 14.4008 18.1991 14.0606 18.5332 13.7205C19.1284 13.1186 20.0277 12.9224 20.4345 13.1448C20.8499 13.3716 21.368 13.2146 21.5907 12.7959C21.8134 12.3729 21.6592 11.8452 21.2481 11.6184C20.276 11.082 18.8843 11.2913 17.8095 12.0807L17.0643 11.6402C16.6575 11.4003 16.1351 11.5399 15.8996 11.9542C15.664 12.3685 15.8011 12.9006 16.2079 13.1404L16.6661 13.4108C16.4391 13.8775 16.3449 14.3659 16.4134 14.8325C16.4991 15.4387 16.8417 15.9359 17.3898 16.2412C17.7281 16.42 18.1007 16.4941 18.4818 16.4941C19.6594 16.4941 20.9227 15.792 21.5093 15.4213C21.5393 15.4038 21.5693 15.382 21.595 15.3602C22.5756 14.8107 23.4149 14.6625 23.7532 14.8238C23.8218 14.8543 23.8603 14.8892 23.8689 14.9241C23.886 15.0288 23.8046 15.2948 23.4963 15.6044C22.8497 16.2586 21.8391 16.5334 21.4023 16.3284C20.9741 16.1278 20.4687 16.324 20.2718 16.7601C20.0791 17.1963 20.2675 17.7109 20.6957 17.9115C21.0083 18.0554 21.368 18.1252 21.7491 18.1252C22.5628 18.1252 23.4663 17.8155 24.2072 17.2617L25.1835 17.6803C25.2906 17.7283 25.4019 17.7501 25.5132 17.7501C25.8473 17.7501 26.1642 17.5495 26.3012 17.2181C26.4768 16.7645 26.2712 16.2543 25.8387 16.0711Z" fill="#002A61"/>
<path d="M0.739922 24.0089L16.717 32.029C16.837 32.0901 16.9654 32.1206 17.0939 32.1206C17.3123 32.1206 17.5307 32.0334 17.6934 31.8677L39.7471 9.61727C39.944 9.42102 40.034 9.13755 39.9869 8.85844C39.944 8.57933 39.7685 8.34383 39.5201 8.21736L23.543 0.201631C23.2175 0.0359088 22.8236 0.101325 22.5666 0.362992L0.517244 22.609C0.32026 22.8053 0.230333 23.0888 0.277438 23.3679C0.32026 23.647 0.491551 23.8825 0.739922 24.0089ZM11.4156 17.2579C11.9081 19.046 13.1456 20.5506 14.9656 21.5449C15.0812 21.606 15.2054 21.6409 15.3296 21.6452C16.6357 22.1947 18.1687 22.4826 19.7789 22.4826C20.1814 22.4826 20.5839 22.4651 20.9822 22.4302L16.5115 27.0923L6.7094 22.1729L11.4156 17.2579ZM19.7746 20.7468C18.2929 20.7468 16.9055 20.4677 15.7578 19.9444C15.685 19.9095 15.6079 19.8877 15.5309 19.879C14.0706 19.0068 13.1542 17.7115 12.9358 16.2069C12.7046 14.6238 13.2955 12.9797 14.5502 11.6932C14.5631 11.6844 14.5716 11.6714 14.5759 11.667L14.593 11.6496C15.882 10.3587 17.8304 9.65216 20.0786 9.65216C21.8986 9.65216 23.7828 10.1362 25.3886 11.0128C25.4058 11.0216 25.4229 11.0303 25.44 11.039C27.4869 11.981 28.8059 13.3242 29.0543 14.7329C29.2298 15.7403 28.8359 16.7651 27.9023 17.6984C26.0781 19.5475 22.8878 20.7468 19.7746 20.7468ZM30.2619 13.0277C29.5381 11.6103 28.1122 10.3499 26.168 9.45591C24.5022 8.55316 22.5795 8.01675 20.6824 7.9208L24.1639 4.56711L33.9446 9.47772L30.2619 13.0277ZM23.3374 2.0333L37.6959 9.24222L30.6601 16.3421C30.7929 15.8231 30.8228 15.3391 30.7929 14.9117L36.0129 9.87894C36.2142 9.68269 36.3127 9.39922 36.2699 9.11575C36.227 8.83227 36.0558 8.59241 35.8031 8.46594L24.3909 2.7398C24.0697 2.57844 23.6886 2.63949 23.4274 2.88808L18.1088 8.00802C18.0831 8.03419 18.0617 8.06036 18.0403 8.08652C17.7319 8.14322 17.4279 8.213 17.1324 8.2915L23.3374 2.0333ZM11.3214 14.1528C11.2572 14.4494 11.2186 14.7503 11.1972 15.0556C11.1201 15.0992 11.043 15.1515 10.9788 15.2213L4.66676 21.8153C4.47406 22.0159 4.38841 22.295 4.43552 22.5698C4.48262 22.8445 4.65391 23.08 4.898 23.2021L16.3102 28.9326C16.4301 28.9937 16.5586 29.0242 16.6871 29.0242C16.914 29.0242 17.1324 28.9326 17.2994 28.7626L23.8727 21.9025C24.5836 21.6976 25.2644 21.4403 25.9111 21.135L16.9269 30.1974L2.56845 22.9884L11.3214 14.1528Z" fill="#002A61"/>
<path d="M0.740382 28.3959L16.7175 36.416C16.8374 36.4771 16.9659 36.5076 17.0943 36.5076C17.3127 36.5076 17.5311 36.4204 17.6939 36.2546L39.7475 14.0042C40.0815 13.6684 40.0858 13.1146 39.7518 12.7744C39.4221 12.4342 38.8782 12.4299 38.5442 12.77L16.9273 34.58L1.49406 26.8346C1.07012 26.6209 0.560527 26.7998 0.350696 27.2315C0.145147 27.6633 0.32072 28.1822 0.740382 28.3959Z" fill="#002A61"/>
<path d="M38.5441 17.1573L16.9273 38.9672L1.494 31.2218C1.07005 31.0081 0.560462 31.187 0.350631 31.6187C0.1408 32.0505 0.316373 32.5694 0.740317 32.7831L16.7174 40.8032C16.8373 40.8643 16.9658 40.8948 17.0943 40.8948C17.3127 40.8948 17.5311 40.8076 17.6938 40.6418L39.7475 18.3914C40.0815 18.0556 40.0858 17.5018 39.7517 17.1616C39.422 16.8214 38.8824 16.8171 38.5441 17.1573Z" fill="#002A61"/>
</svg>
