<svg width="40" height="28" viewBox="0 0 40 28" fill="none" xmlns="http://www.w3.org/2000/svg">
<path fill-rule="evenodd" clip-rule="evenodd" d="M8.63796 5.70259V1.61893C8.63796 0.7248 9.35429 0 10.238 0H38.4C39.2837 0 40 0.7248 40 1.61893V14.9759C40 15.87 39.2837 16.5948 38.4 16.5948H35.6269V26.3811C35.6269 27.2752 34.9106 28 34.0269 28H5.8649C4.98123 28 4.2649 27.2752 4.2649 26.3811V22.2974H1.6C0.716327 22.2974 0 21.5726 0 20.6785V7.32151C0 6.42739 0.716327 5.70259 1.6 5.70259H8.63796ZM34.0269 13.0241H5.8649V26.3811H34.0269V13.0241ZM19.1457 15.2415V14.5613C19.1457 14.1144 19.5041 13.7518 19.9457 13.7518C20.3873 13.7518 20.7457 14.1144 20.7457 14.5613V15.2415H22.2469C22.6882 15.2415 23.0469 15.6041 23.0469 16.0509C23.0469 16.4974 22.6882 16.8604 22.2469 16.8604H20.7457V18.9658H20.9367C22.3559 18.9658 23.5065 20.1304 23.5065 21.5664V21.7093C23.5065 23.1453 22.3559 24.3095 20.9367 24.3095H20.7457V24.8443C20.7457 25.2908 20.3873 25.6538 19.9457 25.6538C19.5041 25.6538 19.1457 25.2908 19.1457 24.8443V24.3095H17.6449C17.2033 24.3095 16.8449 23.9469 16.8449 23.5C16.8449 23.0536 17.2033 22.6906 17.6449 22.6906H19.1457V20.5847H18.9551C17.5355 20.5847 16.3849 19.4205 16.3849 17.9845V17.8416C16.3849 16.4057 17.5355 15.2415 18.9551 15.2415H19.1457ZM20.7457 20.5847V22.6906H20.9367C21.4722 22.6906 21.9065 22.2512 21.9065 21.7093V21.5664C21.9065 21.0242 21.4722 20.5847 20.9367 20.5847H20.7457ZM29.762 11.4052V7.32151H1.6V20.6785H4.2649V13.0241C4.2649 12.13 4.98123 11.4052 5.8649 11.4052H29.762ZM19.1457 16.8604H18.9551C18.4192 16.8604 17.9849 17.2998 17.9849 17.8416V17.9845C17.9849 18.5264 18.4192 18.9658 18.9551 18.9658H19.1457V16.8604ZM35.6269 14.9759H38.4V1.61893H10.238V5.70259H29.762C30.6457 5.70259 31.362 6.42739 31.362 7.32151V11.4052H34.0269C34.9106 11.4052 35.6269 12.13 35.6269 13.0241V14.9759Z" fill="#002A61"/>
</svg>
