<svg width="40" height="25" viewBox="0 0 40 25" fill="none" xmlns="http://www.w3.org/2000/svg">
<path d="M39.2857 0H0.714286C0.319857 0 0 0.319857 0 0.714286V23.5714C0 23.9659 0.319857 24.2857 0.714286 24.2857H39.2857C39.6805 24.2857 40 23.9659 40 23.5714V0.714286C40 0.319857 39.6805 0 39.2857 0ZM38.5714 22.8571H1.42857V1.42857H38.5714V22.8571Z" fill="#002A61"/>
<path d="M3.57122 17.1429C5.54036 17.1429 7.14265 18.7452 7.14265 20.7143C7.14265 21.1087 7.4625 21.4286 7.85693 21.4286H32.1426C32.5374 21.4286 32.8569 21.1087 32.8569 20.7143C32.8569 18.7452 34.4592 17.1429 36.4284 17.1429C36.8231 17.1429 37.1426 16.823 37.1426 16.4286V7.85718C37.1426 7.46275 36.8231 7.14289 36.4284 7.14289C34.4592 7.14289 32.8569 5.54061 32.8569 3.57146C32.8569 3.17703 32.5374 2.85718 32.1426 2.85718H7.85693C7.4625 2.85718 7.14265 3.17703 7.14265 3.57146C7.14265 5.54061 5.54036 7.14289 3.57122 7.14289C3.17679 7.14289 2.85693 7.46275 2.85693 7.85718V16.4286C2.85693 16.823 3.17679 17.1429 3.57122 17.1429ZM4.2855 8.52053C6.47193 8.20632 8.20608 6.47218 8.52029 4.28575H31.4793C31.7932 6.47218 33.5273 8.20632 35.7141 8.52053V15.7653C33.5273 16.0795 31.7931 17.8136 31.4793 20H8.52029C8.20608 17.8136 6.47193 16.0795 4.2855 15.7653V8.52053Z" fill="#002A61"/>
<path d="M19.9998 19.2857C23.9381 19.2857 27.1426 16.0816 27.1426 12.1429C27.1426 8.20414 23.9381 5 19.9998 5C16.0611 5 12.8569 8.20414 12.8569 12.1429C12.8569 16.0816 16.0611 19.2857 19.9998 19.2857ZM19.9998 6.42857C23.1506 6.42857 25.7141 8.99207 25.7141 12.1429C25.7141 15.2936 23.1506 17.8571 19.9998 17.8571C16.849 17.8571 14.2855 15.2936 14.2855 12.1429C14.2855 8.99207 16.849 6.42857 19.9998 6.42857Z" fill="#002A61"/>
<path d="M20.7145 14.2857H17.8574C17.4629 14.2857 17.1431 14.6055 17.1431 15C17.1431 15.3944 17.4629 15.7143 17.8574 15.7143H19.2859V16.4285C19.2859 16.823 19.6058 17.1428 20.0002 17.1428C20.3946 17.1428 20.7145 16.823 20.7145 16.4285V15.7143C21.8961 15.7143 22.8574 14.753 22.8574 13.5714C22.8574 12.3898 21.8961 11.4285 20.7145 11.4285H19.2859C18.8921 11.4285 18.5716 11.108 18.5716 10.7143C18.5716 10.3205 18.8921 9.99997 19.2859 9.99997H22.1431C22.5379 9.99997 22.8574 9.68011 22.8574 9.28568C22.8574 8.89125 22.5379 8.57139 22.1431 8.57139H20.7145V7.85711C20.7145 7.46268 20.3946 7.14282 20.0002 7.14282C19.6058 7.14282 19.2859 7.46268 19.2859 7.85711V8.57139C18.1043 8.57139 17.1431 9.53261 17.1431 10.7143C17.1431 11.8959 18.1043 12.8571 19.2859 12.8571H20.7145C21.1086 12.8571 21.4288 13.1776 21.4288 13.5714C21.4288 13.9652 21.1086 14.2857 20.7145 14.2857Z" fill="#002A61"/>
<path d="M30.7141 14.2857C31.8958 14.2857 32.857 13.3245 32.857 12.1429C32.857 10.9612 31.8958 10 30.7141 10C29.5325 10 28.5713 10.9612 28.5713 12.1429C28.5713 13.3245 29.5325 14.2857 30.7141 14.2857ZM30.7141 11.4286C31.1083 11.4286 31.4284 11.7491 31.4284 12.1429C31.4284 12.5366 31.1083 12.8571 30.7141 12.8571C30.32 12.8571 29.9999 12.5366 29.9999 12.1429C29.9999 11.7491 30.32 11.4286 30.7141 11.4286Z" fill="#002A61"/>
<path d="M9.28592 14.2857C10.4676 14.2857 11.4288 13.3245 11.4288 12.1429C11.4288 10.9612 10.4676 10 9.28592 10C8.10428 10 7.14307 10.9612 7.14307 12.1429C7.14307 13.3245 8.10428 14.2857 9.28592 14.2857ZM9.28592 11.4286C9.67971 11.4286 10.0002 11.7491 10.0002 12.1429C10.0002 12.5366 9.67971 12.8571 9.28592 12.8571C8.89214 12.8571 8.57164 12.5366 8.57164 12.1429C8.57164 11.7491 8.89214 11.4286 9.28592 11.4286Z" fill="#002A61"/>
</svg>
