<svg width="38" height="38" viewBox="0 0 38 38" fill="none" xmlns="http://www.w3.org/2000/svg">
<path d="M19 0C8.53959 0 0.0160534 8.51934 1.96845e-05 18.9913C-0.00731003 24.1609 2.03264 29.1729 5.59809 32.7425C8.98487 36.1326 13.4839 38 18.2675 38C18.5227 38 18.7797 37.995 19.038 37.984C29.6707 37.5485 38 29.2064 38 18.9927C38 8.5198 29.4769 0 19 0ZM18.9624 36.1541C18.7297 36.1637 18.4975 36.1683 18.267 36.1683C14.4794 36.1683 10.8911 34.8623 8.01094 32.465C8.01185 32.4467 8.01643 32.4293 8.01643 32.4105C8.01643 27.5976 10.8393 23.5019 15.0667 22.1084C16.1304 22.6529 17.3311 22.9666 18.6065 22.9666C19.8814 22.9666 21.0826 22.6529 22.1467 22.1084C26.4745 23.5294 29.4783 27.6915 29.5003 32.3583C26.6073 34.593 22.9663 35.9897 18.9624 36.1541ZM18.6065 21.1349C15.3164 21.1349 12.6401 18.4596 12.6401 15.1708C12.6401 11.8819 15.3164 9.20669 18.6065 9.20669C21.8966 9.20669 24.5729 11.8824 24.5729 15.1708C24.5729 18.4592 21.8966 21.1349 18.6065 21.1349ZM31.2269 30.8393C30.6813 26.456 27.8937 22.6378 23.9379 20.845C25.4529 19.4222 26.4053 17.4078 26.4053 15.1708C26.4053 10.8722 22.9067 7.37497 18.6065 7.37497C14.3062 7.37497 10.8077 10.8722 10.8077 15.1708C10.8077 17.4091 11.7615 19.424 13.2778 20.8473C9.43382 22.6112 6.80199 26.3548 6.28662 30.8041C3.4404 27.6311 1.82649 23.3774 1.83336 18.9936C1.84757 9.53045 9.5488 1.83126 19.0009 1.83126C28.4663 1.83172 36.1676 9.52999 36.1676 18.9927C36.1676 23.5839 34.2957 27.7561 31.2269 30.8393Z" fill="#002A61"/>
</svg>
