<svg width="36" height="36" viewBox="0 0 36 36" fill="none" xmlns="http://www.w3.org/2000/svg">
<path d="M17.4294 4.85065H16.2314V6.04862H17.4294V4.85065Z" fill="#002A61"/>
<path d="M8.7839 7.93596L7.93652 8.78278L8.78331 9.63018L9.63068 8.78337L8.7839 7.93596Z" fill="#002A61"/>
<path d="M6.04856 16.2314H4.85059V17.4294H6.04856V16.2314Z" fill="#002A61"/>
<path d="M8.78232 24.0306L7.93555 24.8781L8.78291 25.7249L9.62968 24.8775L8.78232 24.0306Z" fill="#002A61"/>
<path d="M17.4294 27.6121H16.2314V28.8101H17.4294V27.6121Z" fill="#002A61"/>
<path d="M28.8103 16.2314H27.6123V17.4294H28.8103V16.2314Z" fill="#002A61"/>
<path d="M24.8781 7.93601L24.0312 8.78339L24.8787 9.63017L25.7255 8.7828L24.8781 7.93601Z" fill="#002A61"/>
<path d="M17.4298 14.8884V7.84552H16.2318V14.8884L14.8883 16.2313H9.04395V17.4293H14.8883L16.4073 18.9477C16.5196 19.06 16.6719 19.1231 16.8308 19.1231C16.9896 19.1231 17.1419 19.06 17.2543 18.9477L18.9488 17.2538C19.0611 17.1415 19.1242 16.9891 19.1242 16.8303C19.1242 16.6715 19.0611 16.5192 18.9488 16.4068L17.4298 14.8884ZM16.8308 17.6773L15.9838 16.8303L16.8308 15.9834L17.6777 16.8303L16.8308 17.6773Z" fill="#002A61"/>
<path d="M33.0138 21.2077C33.9852 17.6338 33.7485 13.839 32.3404 10.4134C30.9323 6.9879 28.4317 4.12364 25.2276 2.26605C22.0235 0.408469 18.2954 -0.338327 14.623 0.141794C10.9506 0.621916 7.53979 2.30205 4.92092 4.92092C2.30205 7.53979 0.621916 10.9506 0.141794 14.623C-0.338327 18.2954 0.408469 22.0235 2.26605 25.2276C4.12364 28.4317 6.9879 30.9323 10.4134 32.3404C13.839 33.7485 17.6338 33.9852 21.2077 33.0138C21.9551 33.9025 22.879 34.6261 23.9208 35.1389C24.9627 35.6516 26.0997 35.9422 27.2598 35.9922C28.4199 36.0422 29.5777 35.8506 30.6598 35.4295C31.7419 35.0083 32.7247 34.3669 33.5458 33.5458C34.3669 32.7247 35.0083 31.7419 35.4295 30.6598C35.8506 29.5777 36.0422 28.4199 35.9922 27.2598C35.9422 26.0997 35.6516 24.9627 35.1389 23.9208C34.6261 22.879 33.9025 21.9551 33.0138 21.2077ZM16.8303 32.404C13.587 32.4091 10.4227 31.4031 7.77779 29.5258C5.13289 27.6486 3.13894 24.9937 2.07339 21.9303C1.00784 18.867 0.923692 15.5477 1.83266 12.4343C2.74164 9.32092 4.59851 6.56831 7.1449 4.55951C9.69129 2.55071 12.8005 1.38563 16.04 1.2264C19.2794 1.06716 22.488 1.9217 25.2191 3.67109C27.9502 5.42048 30.0681 7.97772 31.278 10.9869C32.4879 13.9962 32.7297 17.3077 31.9697 20.4608C31.6188 20.2425 31.2522 20.0505 30.873 19.8864C31.5386 16.8459 31.201 13.6716 29.9109 10.839C28.6207 8.00652 26.4475 5.66833 23.7167 4.1748C20.9859 2.68127 17.8448 2.11283 14.7638 2.55464C11.6828 2.99646 8.82793 4.42475 6.62694 6.62549C4.42595 8.82624 2.99736 11.6809 2.5552 14.7619C2.11305 17.8428 2.68115 20.9841 4.17438 23.715C5.66761 26.4459 8.00557 28.6194 10.8379 29.9099C13.6703 31.2003 16.8446 31.5383 19.8852 30.873C20.0493 31.2522 20.2413 31.6188 20.4596 31.9697C19.271 32.2562 18.0529 32.4019 16.8303 32.404ZM19.2263 27.6121C19.229 28.3274 19.3236 29.0395 19.5078 29.7307C16.7274 30.31 13.8342 29.9765 11.2586 28.7797C8.68292 27.5828 6.56234 25.5867 5.21216 23.088C3.86198 20.5893 3.35433 17.7216 3.76469 14.9112C4.17506 12.1009 5.48152 9.49808 7.4898 7.4898C9.49808 5.48152 12.1009 4.17506 14.9112 3.76469C17.7216 3.35433 20.5893 3.86198 23.088 5.21216C25.5867 6.56234 27.5828 8.68292 28.7797 11.2586C29.9765 13.8342 30.31 16.7274 29.7307 19.5078C28.4909 19.1775 27.1917 19.1373 25.9338 19.3902C24.6759 19.643 23.4931 20.1823 22.4773 20.966C21.4614 21.7498 20.6397 22.757 20.0759 23.9096C19.5121 25.0621 19.2214 26.329 19.2263 27.6121ZM27.6121 34.7999C26.1905 34.7999 24.8008 34.3784 23.6187 33.5886C22.4367 32.7988 21.5154 31.6762 20.9714 30.3628C20.4274 29.0494 20.285 27.6041 20.5624 26.2098C20.8397 24.8155 21.5243 23.5348 22.5295 22.5295C23.5348 21.5243 24.8155 20.8397 26.2098 20.5624C27.6041 20.285 29.0494 20.4274 30.3628 20.9714C31.6762 21.5154 32.7988 22.4367 33.5886 23.6187C34.3784 24.8008 34.7999 26.1905 34.7999 27.6121C34.7979 29.5178 34.0399 31.3449 32.6924 32.6924C31.3449 34.0399 29.5178 34.7979 27.6121 34.7999Z" fill="#002A61"/>
<path d="M27.6431 29.4687C26.6803 29.4687 25.9346 29.0418 25.9346 28.6726C25.9346 28.3034 25.598 28.0048 25.1817 28.0048C24.7655 28.0048 24.4289 28.3034 24.4289 28.6726C24.4289 29.7095 25.4894 30.5474 26.9445 30.756V31.4751C26.9445 31.8443 27.2812 32.1429 27.6974 32.1429C28.1137 32.1429 28.4503 31.8443 28.4503 31.4751V30.74C29.8511 30.5089 30.8574 29.6838 30.8574 28.6758C30.8574 27.6325 29.6774 26.7625 27.7047 26.3516C27.6649 26.3451 27.6287 26.3387 27.5925 26.3355C26.5608 26.069 25.9346 25.6549 25.9346 25.3885C25.9346 25.0193 26.6803 24.5923 27.6431 24.5923C28.606 24.5923 29.3516 25.0193 29.3516 25.3885C29.3516 25.7577 29.6883 26.0562 30.1045 26.0562C30.5208 26.0562 30.8574 25.7577 30.8574 25.3885C30.8574 24.3804 29.8511 23.5554 28.4503 23.3243V22.5249C28.4503 22.1557 28.1137 21.8572 27.6974 21.8572C27.2812 21.8572 26.9445 22.1557 26.9445 22.5249V23.3082C25.4894 23.5137 24.4289 24.3548 24.4289 25.3917C24.4289 26.435 25.6089 27.305 27.5816 27.7159C27.6214 27.7223 27.6576 27.7288 27.6938 27.732C28.7254 27.9984 29.3516 28.4125 29.3516 28.679C29.3516 29.0385 28.606 29.4687 27.6431 29.4687Z" fill="#002A61"/>
</svg>
