<svg width="37" height="52" viewBox="0 0 37 52" fill="none" xmlns="http://www.w3.org/2000/svg">
<path d="M17.7429 44.4102C17.7958 44.4102 17.8487 44.4102 17.8487 44.4102C18.6946 44.4102 19.3819 43.7229 19.3819 42.877C19.3819 42.0311 18.6946 41.3438 17.8487 41.3438H17.7958H17.7429C16.897 41.3438 16.2097 42.0311 16.2097 42.877C16.1568 43.7229 16.897 44.4102 17.7429 44.4102Z" fill="#002A61"/>
<path d="M20.598 3.33075H14.9409C14.5709 3.33075 14.3594 3.64797 14.3594 3.91231C14.3594 4.17666 14.6766 4.49388 14.9409 4.49388H20.598C20.9681 4.49388 21.1795 4.17666 21.1795 3.91231C21.1795 3.64797 20.9152 3.33075 20.598 3.33075Z" fill="#002A61"/>
<path d="M33.7093 47.8997C34.8724 46.8423 37.8331 43.5644 36.7757 38.3303C35.6126 32.409 36.0884 25.8003 36.5642 23.6855C36.8814 22.3109 37.0929 20.8834 36.4056 19.7732C35.9298 19.0859 35.1896 18.6629 34.1322 18.5043C32.9691 18.2928 31.9117 18.61 31.1187 19.0859V3.96521C31.0658 1.74469 29.3211 0 27.1006 0H8.54342C6.3229 0 4.57821 1.74469 4.57821 3.96521V25.906L3.8909 25.7474C2.5163 25.3773 1.08882 26.1704 0.718737 27.545L0.612999 27.8622C0.401521 28.7081 0.612999 29.6069 1.14169 30.2413C0.718738 30.5585 0.348651 31.0344 0.190043 31.6159L0.0843042 31.9331C-0.0743041 32.6204 -0.0214347 33.3078 0.348651 33.8893C0.612999 34.3651 0.983085 34.6824 1.45891 34.9467C1.19456 35.211 0.983085 35.5811 0.877346 36.0041L0.771607 36.3213C0.612998 37.0086 0.665868 37.6959 1.03595 38.2775C1.40604 38.859 1.93473 39.3349 2.62204 39.4935L4.52534 40.0222V43.2472C4.52534 45.4677 6.27003 47.2124 8.49055 47.2124H27.1006C29.3211 47.2124 31.0658 45.4677 31.0658 43.2472V21.2006C31.6474 20.7248 32.6519 20.0375 33.815 20.249C34.7138 20.4076 34.8724 20.672 34.9253 20.7777C35.2954 21.3064 35.031 22.4695 34.8724 23.3154C34.238 26.0646 33.9207 32.8848 35.0839 38.6476C36.1413 43.9345 32.3875 46.7366 32.2289 46.8952C31.9646 47.1067 31.8588 47.4239 31.9117 47.7411L32.4933 50.8075C32.5461 51.2305 32.9162 51.4948 33.3392 51.4948C33.3921 51.4948 33.4449 51.4948 33.4978 51.4948C33.9736 51.3891 34.2908 50.9661 34.1851 50.4903L33.7093 47.8997ZM6.05855 7.66607H29.5326V38.859H8.80776C8.86063 38.7004 8.96637 38.5418 8.96637 38.3832L9.07211 38.066C9.33646 37.1143 9.01924 36.1098 8.33194 35.4754C8.70202 35.1582 8.96637 34.7352 9.07211 34.2594L9.17785 33.9422C9.33646 33.2549 9.28359 32.5676 8.9135 31.986C8.86063 31.9331 8.80776 31.8274 8.75489 31.7745C9.23072 31.4573 9.6008 30.9815 9.81228 30.3999C9.86515 30.2413 10.0238 29.7655 10.0238 29.2368C10.0238 28.1265 9.28359 27.0692 8.12046 26.7519L6.11142 26.2232V7.66607H6.05855ZM1.61752 32.2504L1.72326 31.9331C1.77613 31.6688 1.9876 31.4045 2.25195 31.2458C2.5163 31.0872 2.78065 31.0872 3.09786 31.1401L6.95733 32.1975C7.22168 32.2504 7.48603 32.4618 7.64463 32.7262C7.80324 32.9905 7.80324 33.2549 7.75037 33.5721L7.64463 33.8893C7.59176 34.1537 7.38029 34.418 7.11594 34.5766C6.85159 34.7352 6.58725 34.7352 6.27003 34.6824L2.41056 33.625C2.14621 33.5721 1.88187 33.3606 1.72326 33.0963C1.61752 32.8319 1.56465 32.5147 1.61752 32.2504ZM2.09334 28.2323L2.19908 27.9151C2.35769 27.4392 2.78065 27.122 3.25647 27.122C3.36221 27.122 3.46795 27.122 3.52082 27.1749L7.64463 28.2852C7.90898 28.338 8.17333 28.5495 8.33194 28.8138C8.49055 29.0782 8.49055 29.3425 8.43768 29.6598L8.33194 29.977C8.27907 30.2413 8.06759 30.5057 7.80324 30.6643C7.5389 30.8229 7.27455 30.8229 6.95733 30.77L2.83351 29.6598C2.30482 29.3954 1.93473 28.8138 2.09334 28.2323ZM2.46343 37.4316C2.30482 37.1672 2.30482 36.9029 2.35769 36.5857L2.41056 36.3213C2.56917 35.7397 3.2036 35.3697 3.78517 35.5283L6.85159 36.3742C7.43316 36.5328 7.80324 37.1143 7.64463 37.7488L7.5389 38.066C7.38029 38.6476 6.74585 39.0177 6.16429 38.859L3.09786 38.0131C2.83351 37.8545 2.56917 37.6959 2.46343 37.4316ZM29.5855 43.1415C29.5326 44.4632 28.4223 45.5735 27.1006 45.5735H8.54342C7.16881 45.5735 6.11142 44.4632 6.11142 43.1415V40.3923H29.5855V43.1415ZM29.5855 6.13286H6.05855V3.96521C6.05855 2.5906 7.16881 1.53321 8.54342 1.53321H27.1535C28.5281 1.53321 29.5855 2.64347 29.5855 3.96521V6.13286Z" fill="#002A61"/>
<path d="M18.4824 21.9407L21.8132 13.5873L22.3419 13.7988C24.6153 14.6976 26.4128 16.6009 27.2059 18.9272L27.4174 19.5087L18.4824 21.9407ZM22.4476 15.1734L20.3857 20.2489L25.8841 18.7685C25.1968 17.1825 23.9808 15.9136 22.4476 15.1734Z" fill="#002A61"/>
<path d="M20.7559 22.7867L26.7301 26.2761C26.783 26.1703 26.8358 26.0646 26.8358 25.9589C26.9416 25.6417 27.1002 25.2716 27.1531 24.9015L22.5534 22.2051L20.7559 22.7867Z" fill="#002A61"/>
<path d="M19.8574 28.9725L20.439 31.5631C21.2849 31.4045 22.0779 31.0873 22.7652 30.7172L19.8574 28.9725Z" fill="#002A61"/>
<path d="M27.3654 23.844C27.4711 22.8395 27.4182 21.7821 27.1539 20.8304L23.876 21.7821L27.3654 23.844Z" fill="#002A61"/>
<path d="M19.3819 23.1568L18.5889 23.4211L18.8532 24.4785L25.5148 28.3909C25.7791 28.0208 26.0435 27.6507 26.2549 27.2277L19.3819 23.1568Z" fill="#002A61"/>
<path d="M23.7696 30.0826C24.1397 29.8183 24.5097 29.5011 24.827 29.1839L19.1699 25.8531L19.5929 27.5978L23.7696 30.0826Z" fill="#002A61"/>
<path d="M17.5315 21.4651L20.5979 13.1646C17.5315 12.4244 14.4122 13.2704 12.0859 15.2265L17.5315 21.4651Z" fill="#002A61"/>
<path d="M17.1083 22.7867L11.187 16.0723C10.3411 16.971 9.70662 18.0284 9.2308 19.2444C7.38036 24.267 9.9181 29.8183 14.9936 31.6688C16.3682 32.1974 17.7956 32.3561 19.2231 32.2503L17.1083 22.7867Z" fill="#002A61"/>
</svg>
