<svg width="40" height="31" viewBox="0 0 40 31" fill="none" xmlns="http://www.w3.org/2000/svg">
<path d="M36.25 22.1663H3.75C3.23242 22.1663 2.8125 21.7463 2.8125 21.2288V6.22876C2.8125 3.06958 5.38269 0.5 8.54187 0.5H31.4581C34.6173 0.5 37.1875 3.06958 37.1875 6.22876V21.2288C37.1875 21.7463 36.7676 22.1663 36.25 22.1663ZM4.6875 20.2913H35.3125V6.22876C35.3125 4.10352 33.5834 2.375 31.4581 2.375H8.54187C6.41663 2.375 4.6875 4.10352 4.6875 6.22876V20.2913Z" fill="#002A61"/>
<path d="M30.7294 30.5001H9.27063C4.15894 30.5001 0 26.3412 0 21.2289C0 20.7113 0.419922 20.2914 0.9375 20.2914H39.0625C39.5801 20.2914 40 20.7113 40 21.2289C40 26.3412 35.8411 30.5001 30.7294 30.5001ZM1.9342 22.1664C2.39624 25.8041 5.51025 28.6251 9.27063 28.6251H30.7294C34.4897 28.6251 37.6038 25.8041 38.0658 22.1664H1.9342Z" fill="#002A61"/>
<path d="M22.9756 26.3339H17.0247C15.6428 26.3339 14.5186 25.2096 14.5186 23.8265V21.2289C14.5186 20.7113 14.9385 20.2914 15.4561 20.2914H24.5442C25.0618 20.2914 25.4817 20.7113 25.4817 21.2289V23.8265C25.4817 25.2096 24.3574 26.3339 22.9756 26.3339ZM16.3936 22.1664V23.8265C16.3936 24.1757 16.6768 24.4589 17.0247 24.4589H22.9756C23.3235 24.4589 23.6067 24.1757 23.6067 23.8265V22.1664H16.3936Z" fill="#002A61"/>
<path d="M19.5104 7.28168V7.91588C18.3442 8.2492 17.498 9.21938 17.498 10.3625C17.498 11.7797 18.7998 12.9335 20.3993 12.9335C21.0081 12.9335 21.5228 13.2966 21.5228 13.7268C21.5228 14.157 21.0081 14.5201 20.3993 14.5201C19.8349 14.5201 19.4255 14.2188 19.3122 13.9214C19.1371 13.4623 18.6224 13.2321 18.1651 13.4068C17.7065 13.5814 17.4763 14.0948 17.6509 14.5539C17.95 15.3396 18.6504 15.9302 19.5109 16.1742V16.8075C19.5109 17.2982 19.9091 17.6964 20.3997 17.6964C20.8904 17.6964 21.2886 17.2982 21.2886 16.8075V16.1734C22.4548 15.84 23.3009 14.8698 23.3009 13.7272C23.3009 12.3099 21.9992 11.1562 20.3997 11.1562C19.7909 11.1562 19.2762 10.7931 19.2762 10.3629C19.2762 9.93269 19.7909 9.56959 20.3997 9.56959C21.0081 9.56959 21.4241 9.90914 21.5059 10.2287C21.6281 10.7038 22.1112 10.9913 22.5885 10.8682C23.0636 10.746 23.3503 10.2616 23.2281 9.78603C22.9947 8.87851 22.245 8.18787 21.2886 7.9181V7.28168C21.2886 6.79103 20.8904 6.39282 20.3997 6.39282C19.9091 6.39282 19.5104 6.79103 19.5104 7.28168Z" fill="#002A61"/>
</svg>
