<svg width="40" height="37" viewBox="0 0 40 37" fill="none" xmlns="http://www.w3.org/2000/svg">
<path d="M36.4361 0.5802H3.56387C1.61423 0.5802 0 2.13641 0 4.09116V25.5606C0.0066778 26.5054 0.384596 27.4094 1.05178 28.0766C1.71895 28.7438 2.62159 29.1204 3.56387 29.1246H14.0541V34.9057H11.9019C11.663 34.9057 11.4338 35.0009 11.2649 35.1703C11.0959 35.3397 11.001 35.5695 11.001 35.809C11.001 36.0486 11.0959 36.2784 11.2649 36.4478C11.4338 36.6172 11.663 36.7123 11.9019 36.7123H28.5723C28.8112 36.7123 29.0403 36.6172 29.2093 36.4478C29.3782 36.2784 29.4732 36.0486 29.4732 35.809C29.4732 35.5695 29.3782 35.3397 29.2093 35.1703C29.0403 35.0009 28.8112 34.9057 28.5723 34.9057H25.9459V29.1246H36.4361C37.3784 29.1204 38.281 28.7438 38.9482 28.0766C39.6154 27.4094 39.9933 26.5054 40 25.5606V4.09116C40 2.13641 38.3858 0.5802 36.4361 0.5802ZM3.56387 2.38681H36.4361C37.3923 2.38681 38.1982 3.13248 38.1982 4.09116V22.2595H1.8018V4.09116C1.8018 3.13248 2.60775 2.38681 3.56387 2.38681ZM24.1441 34.9057H15.8559V29.1246H24.1441V34.9057ZM36.4361 27.318H3.56387C3.09929 27.3143 2.65464 27.1283 2.32524 26.7998C1.99585 26.4712 1.80794 26.0264 1.8018 25.5606V24.0661H38.1982V25.5606C38.1921 26.0264 38.0042 26.4712 37.6748 26.7998C37.3454 27.1283 36.9007 27.3143 36.4361 27.318Z" fill="#002A61"/>
<path d="M19.9997 16.1306C18.8962 16.1306 18.0416 15.5788 18.0416 15.1018C18.0416 14.6247 17.6558 14.2389 17.1787 14.2389C16.7016 14.2389 16.3158 14.6247 16.3158 15.1018C16.3158 16.4417 17.5313 17.5245 19.199 17.7941V18.7234C19.199 19.2005 19.5849 19.5863 20.0619 19.5863C20.539 19.5863 20.9248 19.2005 20.9248 18.7234V17.7734C22.5303 17.4747 23.6836 16.4085 23.6836 15.1059C23.6836 13.7576 22.3312 12.6334 20.0702 12.1024C20.0246 12.0941 19.9831 12.0858 19.9416 12.0816C18.7593 11.7373 18.0416 11.2021 18.0416 10.8578C18.0416 10.3807 18.8962 9.82899 19.9997 9.82899C21.1032 9.82899 21.9578 10.3807 21.9578 10.8578C21.9578 11.3349 22.3436 11.7207 22.8207 11.7207C23.2978 11.7207 23.6836 11.3349 23.6836 10.8578C23.6836 9.55519 22.5303 8.48902 20.9248 8.19033V7.15734C20.9248 6.68026 20.539 6.29445 20.0619 6.29445C19.5849 6.29445 19.199 6.68026 19.199 7.15734V8.16958C17.5313 8.43509 16.3158 9.522 16.3158 10.862C16.3158 12.2102 17.6682 13.3345 19.9292 13.8655C19.9748 13.8738 20.0163 13.8821 20.0578 13.8862C21.2401 14.2306 21.9578 14.7657 21.9578 15.1101C21.9578 15.5747 21.1032 16.1306 19.9997 16.1306Z" fill="#002A61"/>
</svg>
