<svg width="40" height="34" viewBox="0 0 40 34" fill="none" xmlns="http://www.w3.org/2000/svg">
<path d="M14 22H12V23H14V22Z" fill="#002A61"/>
<path d="M28 22H26V23H28V22Z" fill="#002A61"/>
<path d="M19.25 16V17.3298C18.6394 17.3758 18.0686 17.6504 17.6516 18.0987C17.2345 18.5471 17.0019 19.1362 17 19.7485V20.311C17.0008 20.9572 17.2579 21.5767 17.7148 22.0337C18.1718 22.4906 18.7913 22.7477 19.4375 22.7485H20.5625C20.8113 22.7489 21.0497 22.848 21.2255 23.0241C21.4013 23.2001 21.5 23.4387 21.5 23.6875V24.25C21.4996 24.4985 21.4007 24.7367 21.225 24.9125C21.0492 25.0882 20.811 25.1871 20.5625 25.1875H19.4375C19.189 25.1871 18.9508 25.0882 18.775 24.9125C18.5993 24.7367 18.5004 24.4985 18.5 24.25H17C17.002 24.8623 17.2348 25.4513 17.6518 25.8996C18.0688 26.3479 18.6395 26.6225 19.25 26.6688V28H20.75V26.6688C21.3605 26.6225 21.9312 26.3479 22.3482 25.8996C22.7652 25.4513 22.998 24.8623 23 24.25V23.6875C22.9992 23.0413 22.7421 22.4218 22.2852 21.9648C21.8282 21.5079 21.2087 21.2508 20.5625 21.25H19.4375C19.189 21.2496 18.9508 21.1507 18.775 20.975C18.5993 20.7992 18.5004 20.561 18.5 20.3125V19.75C18.5004 19.5015 18.5993 19.2633 18.775 19.0875C18.9508 18.9118 19.189 18.8129 19.4375 18.8125H20.5625C20.811 18.8129 21.0492 18.9118 21.225 19.0875C21.4007 19.2633 21.4996 19.5015 21.5 19.75H23C22.9985 19.1374 22.766 18.5479 22.3489 18.0993C21.9318 17.6506 21.3608 17.3758 20.75 17.3298V16H19.25Z" fill="#002A61"/>
<path d="M0.0847701 25.024C0.147551 25.1407 0.241805 25.2385 0.357346 25.3067C0.472887 25.3749 0.60532 25.411 0.740332 25.411H0.752925L2.67443 25.3792C3.25073 27.4329 5.68705 34 13.279 34C13.5985 34 13.9276 33.9879 14.2664 33.9638C14.4483 33.9502 14.6187 33.8715 14.7449 33.7427C14.871 33.614 14.9441 33.4443 14.9501 33.2662C14.956 33.0881 14.8945 32.9141 14.7772 32.7776C14.6599 32.6411 14.4952 32.5516 14.3145 32.5264C12.0352 32.0906 10.0026 30.8439 8.61078 29.028H12.0656C13.3755 30.5604 15.1221 31.6781 17.0837 32.2391C19.0453 32.8002 21.1334 32.7793 23.0828 32.1792C23.4702 32.4794 23.9498 32.6435 24.4443 32.6451H37.037C37.6264 32.6451 38.1916 32.4164 38.6084 32.0094C39.0251 31.6024 39.2593 31.0504 39.2593 30.4748V29.7514C39.2593 29.1759 39.0251 28.6239 38.6084 28.2169C38.1916 27.8099 37.6264 27.5812 37.037 27.5812H36.16C36.2477 27.3496 36.2938 27.1048 36.2963 26.8578V26.1344C36.2943 25.5988 36.0884 25.0831 35.7185 24.6876C36.0884 24.2922 36.2943 23.7764 36.2963 23.2408V22.5174C36.2943 21.9818 36.0884 21.4661 35.7185 21.0706C36.0884 20.6751 36.2943 20.1594 36.2963 19.6238V18.9004C36.2963 18.3248 36.0621 17.7728 35.6454 17.3658C35.2286 16.9588 34.6634 16.7302 34.074 16.7302H28.4984C27.6147 15.493 26.459 14.4645 25.1159 13.7197C23.7727 12.975 22.276 12.533 20.7354 12.4259C20.7354 12.4136 20.7405 12.402 20.7405 12.3897V11.6663C20.7385 11.1652 20.5572 10.6806 20.2279 10.2962L25.2191 5.42553L30.6266 10.0445C30.7724 10.1698 30.9628 10.2343 31.1568 10.2238C31.3507 10.2134 31.5328 10.129 31.6636 9.98877L38.5185 2.6766V4.34043H40V0.723404C40 0.531546 39.922 0.347545 39.783 0.21188C39.6441 0.0762157 39.4557 0 39.2593 0H35.5555V1.44681H37.6615L31.054 8.48553L25.6724 3.88757C25.531 3.7669 25.3479 3.7032 25.1602 3.70938C24.9724 3.71556 24.7941 3.79115 24.6613 3.92085L20.7124 7.77732C20.6565 7.34005 20.4647 6.93002 20.1628 6.60251C20.5326 6.20705 20.7386 5.69131 20.7405 5.1557V4.4323C20.7405 3.85672 20.5064 3.30472 20.0897 2.89773C19.6729 2.49073 19.1077 2.26208 18.5183 2.26208H5.92557C5.33619 2.26208 4.77096 2.49073 4.35421 2.89773C3.93745 3.30472 3.70333 3.85672 3.70333 4.4323V5.1557C3.70525 5.69131 3.91122 6.20705 4.28111 6.60251C3.91122 6.99797 3.70525 7.51371 3.70333 8.04932V8.77272C3.70525 9.30833 3.91122 9.82407 4.28111 10.2195C3.91122 10.615 3.70525 11.1307 3.70333 11.6663V12.3897C3.70525 12.9254 3.91122 13.4411 4.28111 13.8366C3.91122 14.232 3.70525 14.7478 3.70333 15.2834V16.0068C3.70525 16.5424 3.91122 17.0581 4.28111 17.4536C3.91122 17.849 3.70525 18.3648 3.70333 18.9004V19.3923L0.138104 24.2673C0.0583693 24.3763 0.0111654 24.5047 0.00174892 24.6383C-0.00766755 24.7719 0.021073 24.9054 0.0847701 25.024ZM7.69374 27.5812C7.33741 26.8883 7.05613 26.161 6.85447 25.411H10.0664C10.2985 26.169 10.6218 26.8975 11.0293 27.5812H7.69374ZM5.18482 18.9004C5.18482 18.7085 5.26287 18.5245 5.40178 18.3889C5.5407 18.2532 5.72911 18.177 5.92557 18.177H10.6441C10.3036 18.8692 10.0456 19.5974 9.87524 20.3472H6.05372L5.18482 19.3568V18.9004ZM5.18482 16.0068V15.2834C5.18482 15.0915 5.26287 14.9075 5.40178 14.7718C5.5407 14.6362 5.72911 14.56 5.92557 14.56H13.6057C12.7988 15.1785 12.0897 15.9097 11.5012 16.7302H5.92557C5.72911 16.7302 5.5407 16.654 5.40178 16.5183C5.26287 16.3826 5.18482 16.1986 5.18482 16.0068ZM5.18482 12.3897V11.6663C5.18482 11.4745 5.26287 11.2905 5.40178 11.1548C5.5407 11.0192 5.72911 10.9429 5.92557 10.9429H18.5183C18.7148 10.9429 18.9032 11.0192 19.0421 11.1548C19.181 11.2905 19.259 11.4745 19.259 11.6663V12.3897C19.259 12.402 19.2546 12.4143 19.2539 12.4266C18.1968 12.4991 17.1577 12.7307 16.1731 13.1131H5.92557C5.82829 13.1131 5.73197 13.0944 5.6421 13.0581C5.55223 13.0217 5.47057 12.9684 5.40178 12.9013C5.333 12.8341 5.27843 12.7543 5.24121 12.6666C5.20398 12.5788 5.18482 12.4847 5.18482 12.3897ZM5.18482 8.77272V8.04932C5.18482 7.85746 5.26287 7.67346 5.40178 7.5378C5.5407 7.40213 5.72911 7.32592 5.92557 7.32592H18.5183C18.7148 7.32592 18.9032 7.40213 19.0421 7.5378C19.181 7.67346 19.259 7.85746 19.259 8.04932V8.77272C19.259 8.96458 19.181 9.14858 19.0421 9.28425C18.9032 9.41991 18.7148 9.49613 18.5183 9.49613H5.92557C5.82829 9.49613 5.73197 9.47742 5.6421 9.44106C5.55223 9.40471 5.47057 9.35142 5.40178 9.28425C5.333 9.21707 5.27843 9.13733 5.24121 9.04956C5.20398 8.96179 5.18482 8.86772 5.18482 8.77272ZM9.66709 21.794C9.64931 22.0342 9.62931 22.2729 9.62931 22.5174C9.63304 23.0018 9.67265 23.4854 9.74783 23.9642H9.22931L7.32484 21.794H9.66709ZM37.7778 29.7514V30.4748C37.7778 30.6667 37.6997 30.8507 37.5608 30.9864C37.4219 31.122 37.2335 31.1983 37.037 31.1983H24.4443C24.2478 31.1983 24.0594 31.122 23.9205 30.9864C23.7816 30.8507 23.7035 30.6667 23.7035 30.4748V29.7514C23.7035 29.5596 23.7816 29.3756 23.9205 29.2399C24.0594 29.1043 24.2478 29.028 24.4443 29.028H37.037C37.2335 29.028 37.4219 29.1043 37.5608 29.2399C37.6997 29.3756 37.7778 29.5596 37.7778 29.7514ZM28.9754 27.5812C29.3839 26.8979 29.7072 26.1693 29.9384 25.411H34.074C34.2705 25.411 34.4589 25.4872 34.5978 25.6229C34.7367 25.7586 34.8148 25.9426 34.8148 26.1344V26.8578C34.8148 27.0497 34.7367 27.2337 34.5978 27.3694C34.4589 27.505 34.2705 27.5812 34.074 27.5812H28.9754ZM30.3325 21.794H34.074C34.2705 21.794 34.4589 21.8702 34.5978 22.0059C34.7367 22.1415 34.8148 22.3255 34.8148 22.5174V23.2408C34.8148 23.4327 34.7367 23.6167 34.5978 23.7523C34.4589 23.888 34.2705 23.9642 34.074 23.9642H30.2592C30.331 23.4851 30.3681 23.0016 30.3703 22.5174C30.3703 22.2729 30.3503 22.0342 30.3325 21.794ZM34.074 18.177C34.2705 18.177 34.4589 18.2532 34.5978 18.3889C34.7367 18.5245 34.8148 18.7085 34.8148 18.9004V19.6238C34.8148 19.8156 34.7367 19.9996 34.5978 20.1353C34.4589 20.271 34.2705 20.3472 34.074 20.3472H30.1243C29.954 19.5974 29.696 18.8692 29.3554 18.177H34.074ZM28.8888 22.5174C28.893 24.3363 28.3054 26.1095 27.211 27.5812H24.4443C23.8549 27.5812 23.2897 27.8099 22.8729 28.2169C22.4562 28.6239 22.222 29.1759 22.222 29.7514V30.4748C22.2221 30.6206 22.2373 30.7661 22.2672 30.9089C20.4727 31.3712 18.575 31.2734 16.8403 30.6292C15.1055 29.985 13.6208 28.8266 12.5943 27.3166C11.5678 25.8066 11.0509 24.0207 11.1163 22.2094C11.1817 20.3981 11.826 18.6521 12.9588 17.2165C14.0917 15.7808 15.6563 14.7275 17.4331 14.2041C19.21 13.6808 21.11 13.7137 22.8668 14.2983C24.6235 14.8829 26.1488 15.9898 27.2288 17.4638C28.3088 18.9378 28.8892 20.7049 28.8888 22.5174ZM5.18482 4.4323C5.18482 4.24044 5.26287 4.05644 5.40178 3.92077C5.5407 3.78511 5.72911 3.70889 5.92557 3.70889H18.5183C18.7148 3.70889 18.9032 3.78511 19.0421 3.92077C19.181 4.05644 19.259 4.24044 19.259 4.4323V5.1557C19.259 5.34756 19.181 5.53156 19.0421 5.66723C18.9032 5.80289 18.7148 5.87911 18.5183 5.87911H5.92557C5.72911 5.87911 5.5407 5.80289 5.40178 5.66723C5.26287 5.53156 5.18482 5.34756 5.18482 5.1557V4.4323ZM4.49667 20.7957L7.27818 23.9642H5.92557C5.81641 23.9643 5.70863 23.9879 5.60992 24.0334C5.51121 24.079 5.42402 24.1452 5.35458 24.2275C5.28515 24.3097 5.23519 24.4059 5.20827 24.5093C5.18136 24.6126 5.17816 24.7204 5.1989 24.8251C5.64905 27.4933 7.05929 29.9171 9.17597 31.6605C4.99445 29.6234 4.0337 24.7882 3.98407 24.5176C3.95333 24.3507 3.86349 24.1996 3.73025 24.0908C3.59702 23.9819 3.42886 23.9223 3.25517 23.9223H3.24258L2.19738 23.9403L4.49667 20.7957Z" fill="#002A61"/>
</svg>
