<svg width="38" height="31" viewBox="0 0 38 31" fill="none" xmlns="http://www.w3.org/2000/svg">
<path d="M35.8208 7.97491V8.10592L35.9409 8.15826C37.0365 8.63567 37.7996 9.7167 37.8 10.9675C37.8 10.9675 37.8 10.9676 37.8 10.9676V20.0325C37.8 21.2832 37.0366 22.3639 35.9408 22.8422L35.8208 22.8946V23.0255V27.2344C35.8208 29.1974 34.2 30.8 32.2027 30.8H3.81771C1.82075 30.8 0.2 29.1974 0.2 27.2344V3.76476C0.2 1.80221 1.82032 0.2 3.81771 0.2H32.2022C34.1997 0.2 35.8208 1.80187 35.8208 3.76476V7.97491ZM33.362 7.89655H33.562V7.69655V3.76476C33.562 3.02185 32.9498 2.42226 32.2027 2.42226H3.81771C3.07134 2.42226 2.45914 3.02149 2.45914 3.76476V27.2344C2.45914 27.9779 3.07075 28.5777 3.81771 28.5777H32.2022C32.9491 28.5777 33.5612 27.978 33.5612 27.2344V23.3031V23.1031H33.3612H24.942C23.2206 23.1031 21.8242 21.723 21.8242 20.0325V10.9679C21.8242 9.2773 23.2203 7.89655 24.942 7.89655H33.362ZM34.683 20.8808C35.1532 20.8808 35.5404 20.5035 35.5404 20.0325V10.9675C35.5404 10.4971 35.1538 10.1192 34.683 10.1192H24.942C24.4715 10.1192 24.0833 10.4968 24.0833 10.9683V20.0325C24.0833 20.5033 24.4712 20.8808 24.942 20.8808H34.683ZM25.592 13.3316C25.592 12.7205 26.095 12.2205 26.7215 12.2205C27.3481 12.2205 27.8511 12.7205 27.8511 13.3316V13.6342C27.8511 14.2452 27.3481 14.7453 26.7215 14.7453C26.095 14.7453 25.592 14.2452 25.592 13.6342V13.3316ZM25.592 17.3658C25.592 16.7548 26.095 16.2547 26.7215 16.2547C27.3481 16.2547 27.8511 16.7548 27.8511 17.3658V17.6684C27.8511 18.2795 27.3481 18.7795 26.7215 18.7795C26.095 18.7795 25.592 18.2795 25.592 17.6684V17.3658Z" fill="#002A61" stroke="white" stroke-width="0.4"/>
</svg>
