<svg width="34" height="57" viewBox="0 0 34 57" fill="none" xmlns="http://www.w3.org/2000/svg">
<path d="M31.7415 49.2642H31.8045V49.084V7.31595C31.8045 4.52849 29.5133 2.30262 26.7316 2.30262H7.10057C4.31741 2.30262 2.02758 4.5896 2.02758 7.31595V49.084C2.02758 51.8715 4.31887 54.0973 7.10057 54.0973H26.6719C29.3935 54.0973 31.6434 51.9104 31.7415 49.2642ZM7.10057 0.51488H26.6719C30.5124 0.51488 33.593 3.53923 33.652 7.31724V49.084C33.652 52.8013 30.5722 55.8851 26.7316 55.8851H7.10057C3.25894 55.8851 0.180163 52.86 0.180163 49.084V7.31595C0.180163 3.53996 3.25894 0.51488 7.10057 0.51488Z" fill="#002A61" stroke="white" stroke-width="0.360327"/>
<path d="M5.66717 45.5636V45.7437H5.84733H27.6849H27.8651H27.9247V45.5636H28.0452V10.0011V9.82089H27.8651H5.84733H5.66717V10.0011V45.5636ZM5.01197 8.39116H28.7601C29.1833 8.39116 29.4798 8.715 29.5346 9.11772V46.3989C29.5346 46.7768 29.1976 47.1138 28.8198 47.1138H5.01197C4.63413 47.1138 4.29711 46.7768 4.29711 46.3989V9.10603C4.29711 8.72818 4.63413 8.39116 5.01197 8.39116Z" fill="#002A61" stroke="#002A61" stroke-width="0.360327"/>
<path d="M16.8152 31.4191C15.7358 31.4191 14.8999 30.8208 14.8999 30.3035C14.8999 29.7862 14.5226 29.3678 14.0559 29.3678C13.5893 29.3678 13.2119 29.7862 13.2119 30.3035C13.2119 31.7565 14.4008 32.9306 16.032 33.223V34.2306C16.032 34.748 16.4094 35.1663 16.8761 35.1663C17.3427 35.1663 17.7201 34.748 17.7201 34.2306V33.2005C19.2904 32.8766 20.4185 31.7205 20.4185 30.308C20.4185 28.846 19.0956 27.6269 16.8842 27.0511C16.8395 27.0421 16.799 27.0331 16.7584 27.0286C15.6019 26.6552 14.8999 26.0749 14.8999 25.7016C14.8999 25.1842 15.7358 24.5859 16.8152 24.5859C17.8945 24.5859 18.7304 25.1842 18.7304 25.7016C18.7304 26.2189 19.1078 26.6372 19.5744 26.6372C20.0411 26.6372 20.4185 26.2189 20.4185 25.7016C20.4185 24.289 19.2904 23.1329 17.7201 22.8091V21.6889C17.7201 21.1716 17.3427 20.7533 16.8761 20.7533C16.4094 20.7533 16.032 21.1716 16.032 21.6889V22.7866C14.4008 23.0745 13.2119 24.2531 13.2119 25.7061C13.2119 27.1681 14.5347 28.3871 16.7462 28.9629C16.7908 28.9719 16.8314 28.9809 16.872 28.9854C18.0285 29.3588 18.7304 29.9391 18.7304 30.3125C18.7304 30.8163 17.8945 31.4191 16.8152 31.4191Z" fill="#002A61"/>
<path d="M10.7402 6.24184H21.4209C21.8983 6.24184 22.316 5.82416 22.316 5.34681C22.316 4.86946 21.8983 4.45178 21.4209 4.45178H10.7402C10.2629 4.45178 9.84521 4.86946 9.84521 5.34681C9.90488 5.82416 10.2629 6.24184 10.7402 6.24184Z" fill="#002A61"/>
<path d="M25.0012 6.24184C25.4955 6.24184 25.8963 5.84112 25.8963 5.34681C25.8963 4.8525 25.4955 4.45178 25.0012 4.45178C24.5069 4.45178 24.1062 4.8525 24.1062 5.34681C24.1062 5.84112 24.5069 6.24184 25.0012 6.24184Z" fill="#002A61"/>
<path d="M16.8859 48.8454C15.7522 48.8454 14.8572 49.7404 14.8572 50.8145C14.8572 51.8885 15.7522 52.7835 16.8859 52.7835C18.0196 52.7835 18.9146 51.8885 18.9146 50.8145C18.9146 49.7404 18.0196 48.8454 16.8859 48.8454ZM16.8859 51.8885C16.2892 51.8885 15.7522 51.4112 15.7522 50.8145C15.7522 50.2178 16.2296 49.7404 16.8859 49.7404C17.5423 49.7404 18.0196 50.2178 18.0196 50.8145C18.0196 51.4112 17.4826 51.8885 16.8859 51.8885Z" fill="#002A61"/>
</svg>
