<svg width="50" height="50" viewBox="0 0 50 50" fill="none" xmlns="http://www.w3.org/2000/svg">
<path d="M7.14285 28.8091V16.3963H11.4067C12.822 16.3963 13.885 16.6748 14.5956 17.2318C15.3123 17.7888 15.6706 18.6129 15.6706 19.7041C15.6706 20.2838 15.4974 20.7982 15.151 21.2472C14.8047 21.6905 14.3329 22.0344 13.7357 22.2787C14.4404 22.4663 14.9958 22.8244 15.4018 23.3529C15.8139 23.8758 16.0199 24.501 16.0199 25.2285C16.0199 26.3425 15.6407 27.2177 14.8823 27.8543C14.1239 28.4908 13.0519 28.8091 11.6665 28.8091H7.14285ZM8.86273 23.0034V27.4706H11.7023C12.5025 27.4706 13.1326 27.2745 13.5924 26.8824C14.0582 26.4845 14.2911 25.9389 14.2911 25.2455C14.2911 23.7508 13.4371 23.0034 11.7292 23.0034H8.86273ZM8.86273 21.6905H11.4605C12.2129 21.6905 12.8131 21.5115 13.261 21.1534C13.7148 20.7953 13.9417 20.3094 13.9417 19.6956C13.9417 19.0136 13.7327 18.5191 13.3147 18.2122C12.8967 17.8996 12.2607 17.7433 11.4067 17.7433H8.86273V21.6905Z" fill="white"/>
<path d="M24.2968 27.8969C23.6519 28.6187 22.7053 28.9796 21.4572 28.9796C20.4241 28.9796 19.6358 28.6954 19.0924 28.1271C18.5549 27.553 18.2832 26.7062 18.2773 25.5865V19.5848H19.9344V25.5439C19.9344 26.9421 20.5316 27.6411 21.726 27.6411C22.992 27.6411 23.834 27.1921 24.252 26.2941V19.5848H25.9092V28.8091H24.3326L24.2968 27.8969Z" fill="white"/>
<path d="M33.1201 21C32.8693 20.9602 32.5976 20.9403 32.305 20.9403C31.2181 20.9403 30.4806 21.3808 30.0924 22.2617V28.8091H28.4353V19.5848H30.0476L30.0745 20.6504C30.618 19.8263 31.3883 19.4143 32.3856 19.4143C32.7081 19.4143 32.9529 19.454 33.1201 19.5336V21Z" fill="white"/>
<path d="M34.0338 24.1117C34.0338 23.208 34.2189 22.3953 34.5892 21.6735C34.9654 20.9516 35.485 20.3947 36.1478 20.0025C36.8167 19.6103 37.5781 19.4143 38.432 19.4143C39.7518 19.4143 40.8178 19.849 41.6299 20.7186C42.4481 21.5882 42.8571 22.7448 42.8571 24.1884V24.2992C42.8571 25.1972 42.675 26.0043 42.3107 26.7204C41.9524 27.4308 41.4359 27.985 40.761 28.3828C40.0922 28.7807 39.3218 28.9796 38.45 28.9796C37.1362 28.9796 36.0702 28.5448 35.2521 27.6752C34.4399 26.8057 34.0338 25.6547 34.0338 24.2225V24.1117ZM35.6999 24.2992C35.6999 25.3223 35.9478 26.1435 36.4434 26.763C36.9451 27.3825 37.6139 27.6923 38.45 27.6923C39.292 27.6923 39.9608 27.3797 40.4565 26.7545C40.9521 26.1236 41.2 25.2427 41.2 24.1117C41.2 23.1 40.9462 22.2816 40.4386 21.6564C39.9369 21.0255 39.2681 20.7101 38.432 20.7101C37.6139 20.7101 36.954 21.0198 36.4524 21.6394C35.9508 22.2589 35.6999 23.1455 35.6999 24.2992ZM39.1845 15.7143H41.191L38.7903 18.2207H37.4557L39.1845 15.7143Z" fill="white"/>
<path d="M5.20435 34.8089V32.0399H5.93264C6.15056 32.0399 6.34364 32.0944 6.51188 32.2035C6.68125 32.3125 6.81223 32.4672 6.90482 32.6675C6.99741 32.8678 7.0437 33.0973 7.0437 33.3559V33.4948C7.0437 33.7572 6.99684 33.988 6.90312 34.187C6.81054 34.3861 6.67786 34.5395 6.50511 34.6473C6.33348 34.755 6.13644 34.8089 5.914 34.8089H5.20435ZM5.63285 32.4279V34.4247H5.91231C6.13701 34.4247 6.3092 34.3461 6.42889 34.1889C6.54971 34.0304 6.61124 33.8035 6.6135 33.5081V33.354C6.6135 33.0536 6.55535 32.8241 6.43905 32.6656C6.32275 32.5071 6.15395 32.4279 5.93264 32.4279H5.63285Z" fill="white"/>
<path d="M8.13545 34.8469C7.87462 34.8469 7.66291 34.755 7.50031 34.5712C7.33884 34.3861 7.25811 34.1401 7.25811 33.8333V33.7762C7.25811 33.5708 7.29311 33.3876 7.36312 33.2266C7.43426 33.0643 7.53362 32.9382 7.66121 32.8482C7.7888 32.7581 7.93107 32.7131 8.08802 32.7131C8.33756 32.7131 8.53008 32.8025 8.66557 32.9813C8.8022 33.1601 8.87051 33.413 8.87051 33.7401V33.9265H7.67307C7.68549 34.0964 7.73573 34.2308 7.82381 34.3297C7.91301 34.4285 8.02479 34.478 8.15916 34.478C8.34772 34.478 8.50129 34.3924 8.61984 34.2213L8.84172 34.459C8.76833 34.582 8.67009 34.6777 8.54702 34.7461C8.42507 34.8133 8.28788 34.8469 8.13545 34.8469ZM8.08633 33.084C7.97342 33.084 7.88196 33.1284 7.81195 33.2171C7.74307 33.3059 7.69904 33.4295 7.67984 33.588H8.46402V33.5537C8.45499 33.399 8.41829 33.2824 8.35393 33.2038C8.28957 33.1239 8.20037 33.084 8.08633 33.084Z" fill="white"/>
<path d="M11.7206 33.5727H10.7077V34.4247H11.8916V34.8089H10.2792V32.0399H11.8798V32.4279H10.7077V33.1924H11.7206V33.5727Z" fill="white"/>
<path d="M12.5622 32.7512L12.5741 32.9889C12.7095 32.8051 12.8874 32.7131 13.1076 32.7131C13.4892 32.7131 13.6834 32.9585 13.6902 33.4491V34.8089H13.2786V33.4758C13.2786 33.3452 13.2532 33.2488 13.2024 33.1867C13.1527 33.1233 13.0709 33.0916 12.9568 33.0916C12.7908 33.0916 12.6672 33.1759 12.5859 33.3445V34.8089H12.1743V32.7512H12.5622Z" fill="white"/>
<path d="M14.6882 32.0399V32.7512H15.0117V33.0935H14.6882V34.2422C14.6882 34.3208 14.7018 34.3778 14.7289 34.4133C14.7571 34.4476 14.8068 34.4647 14.8779 34.4647C14.9253 34.4647 15.072 34.4374 15.1206 34.4247V34.7823C15.0269 34.8114 14.8378 34.8469 14.7509 34.8469C14.4347 34.8469 14.2766 34.6511 14.2766 34.2593V33.0935H13.9752V32.7512H14.2766V32.0399H14.6882Z" fill="white"/>
<path d="M15.8336 34.8089H15.422V32.7512H15.8336V34.8089ZM15.3966 32.2168C15.3966 32.1458 15.4164 32.0868 15.4559 32.0399C15.4966 31.993 15.5541 31.9695 15.6287 31.9695C15.7032 31.9695 15.7608 31.993 15.8014 32.0399C15.8421 32.0868 15.8624 32.1458 15.8624 32.2168C15.8624 32.2865 15.8421 32.3448 15.8014 32.3917C15.7608 32.4374 15.7032 32.4602 15.6287 32.4602C15.5541 32.4602 15.4966 32.4374 15.4559 32.3917C15.4164 32.3448 15.3966 32.2865 15.3966 32.2168Z" fill="white"/>
<path d="M16.3563 33.7648C16.3563 33.4479 16.4218 33.1937 16.5528 33.0022C16.6837 32.8095 16.8593 32.7131 17.0795 32.7131C17.2737 32.7131 17.4307 32.7892 17.5503 32.9413V31.8878H17.9619V34.8089H17.5893L17.569 34.5959C17.4459 34.7633 17.2816 34.8469 17.0761 34.8469C16.8616 34.8469 16.6877 34.7499 16.5545 34.556C16.4223 34.362 16.3563 34.0983 16.3563 33.7648ZM16.7679 33.8048C16.7679 34.014 16.8034 34.1775 16.8746 34.2954C16.9468 34.4121 17.049 34.4704 17.1811 34.4704C17.3494 34.4704 17.4724 34.3861 17.5503 34.2174V33.3388C17.4747 33.174 17.3528 33.0916 17.1845 33.0916C17.0513 33.0916 16.9485 33.1512 16.8763 33.2704C16.804 33.3883 16.7679 33.5664 16.7679 33.8048Z" fill="white"/>
<path d="M19.4527 34.8089C19.4347 34.7696 19.4189 34.7056 19.4053 34.6168C19.2743 34.7702 19.114 34.8469 18.9243 34.8469C18.7403 34.8469 18.5901 34.788 18.4738 34.6701C18.3575 34.5522 18.2993 34.4064 18.2993 34.2327C18.2993 34.0133 18.3716 33.8453 18.5161 33.7287C18.6618 33.6108 18.8695 33.5518 19.1394 33.5518H19.3918V33.4168C19.3918 33.3103 19.3652 33.2253 19.3122 33.162C19.2591 33.0973 19.1784 33.065 19.07 33.065C18.9762 33.065 18.8995 33.0916 18.8396 33.1448C18.7798 33.1968 18.7498 33.2634 18.7498 33.3445H18.3383C18.3383 33.2317 18.3716 33.1265 18.4382 33.0288C18.5048 32.9299 18.5952 32.8526 18.7092 32.7968C18.8244 32.741 18.9525 32.7131 19.0937 32.7131C19.3082 32.7131 19.4793 32.774 19.6069 32.8957C19.7345 33.0162 19.7999 33.186 19.8033 33.4054V34.3335C19.8033 34.5186 19.8265 34.6663 19.8728 34.7766V34.8089H19.4527ZM19.0005 34.4761C19.0818 34.4761 19.158 34.4539 19.2292 34.4095C19.3014 34.3652 19.3556 34.3056 19.3918 34.2308V33.8428H19.1699C19.0175 33.8428 18.9028 33.8726 18.8261 33.9322C18.7493 33.9918 18.7109 34.0761 18.7109 34.1851C18.7109 34.2739 18.7369 34.3449 18.7888 34.3981C18.8419 34.4501 18.9124 34.4761 19.0005 34.4761Z" fill="white"/>
<path d="M20.109 33.7648C20.109 33.4479 20.1745 33.1937 20.3054 33.0022C20.4364 32.8095 20.612 32.7131 20.8322 32.7131C21.0264 32.7131 21.1833 32.7892 21.303 32.9413V31.8878H21.7146V34.8089H21.342L21.3217 34.5959C21.1986 34.7633 21.0343 34.8469 20.8288 34.8469C20.6143 34.8469 20.4404 34.7499 20.3071 34.556C20.175 34.362 20.109 34.0983 20.109 33.7648ZM20.5205 33.8048C20.5205 34.014 20.5561 34.1775 20.6272 34.2954C20.6995 34.4121 20.8017 34.4704 20.9338 34.4704C21.102 34.4704 21.2251 34.3861 21.303 34.2174V33.3388C21.2274 33.174 21.1054 33.0916 20.9372 33.0916C20.8039 33.0916 20.7012 33.1512 20.6289 33.2704C20.5567 33.3883 20.5205 33.5664 20.5205 33.8048Z" fill="white"/>
<path d="M22.8317 34.8469C22.5708 34.8469 22.3591 34.755 22.1965 34.5712C22.0351 34.3861 21.9543 34.1401 21.9543 33.8333V33.7762C21.9543 33.5708 21.9893 33.3876 22.0593 33.2266C22.1305 33.0643 22.2298 32.9382 22.3574 32.8482C22.485 32.7581 22.6273 32.7131 22.7842 32.7131C23.0338 32.7131 23.2263 32.8025 23.3618 32.9813C23.4984 33.1601 23.5667 33.413 23.5667 33.7401V33.9265H22.3693C22.3817 34.0964 22.4319 34.2308 22.52 34.3297C22.6092 34.4285 22.721 34.478 22.8554 34.478C23.0439 34.478 23.1975 34.3924 23.3161 34.2213L23.5379 34.459C23.4645 34.582 23.3663 34.6777 23.2432 34.7461C23.1213 34.8133 22.9841 34.8469 22.8317 34.8469ZM22.7825 33.084C22.6696 33.084 22.5782 33.1284 22.5082 33.2171C22.4393 33.3059 22.3953 33.4295 22.3761 33.588H23.1602V33.5537C23.1512 33.399 23.1145 33.2824 23.0501 33.2038C22.9858 33.1239 22.8966 33.084 22.7825 33.084Z" fill="white"/>
<path d="M24.6727 34.2498C24.6727 34.1674 24.6422 34.1046 24.5812 34.0615C24.5214 34.0184 24.4215 33.9804 24.2815 33.9474C24.1415 33.9144 24.0246 33.8726 23.9309 33.8219C23.7254 33.7103 23.6226 33.5487 23.6226 33.3369C23.6226 33.1594 23.6892 33.0111 23.8225 32.8919C23.9557 32.7727 24.1251 32.7131 24.3306 32.7131C24.5496 32.7131 24.7263 32.774 24.8607 32.8957C24.9962 33.0174 25.064 33.1753 25.064 33.3693H24.6524C24.6524 33.2805 24.623 33.207 24.5643 33.1486C24.5056 33.0891 24.4277 33.0593 24.3306 33.0593C24.2403 33.0593 24.1663 33.0827 24.1087 33.1296C24.0522 33.1765 24.024 33.2393 24.024 33.3179C24.024 33.3889 24.0506 33.4441 24.1036 33.4834C24.1567 33.5227 24.264 33.5626 24.4254 33.6032C24.5869 33.6425 24.7134 33.69 24.8048 33.7458C24.8974 33.8003 24.9657 33.8663 25.0098 33.9436C25.0549 34.0209 25.0775 34.1148 25.0775 34.2251C25.0775 34.4102 25.0092 34.5604 24.8726 34.6758C24.7359 34.7899 24.557 34.8469 24.3357 34.8469C24.1855 34.8469 24.0517 34.8165 23.9343 34.7557C23.8168 34.6948 23.7254 34.6111 23.6599 34.5046C23.5944 34.3981 23.5616 34.2834 23.5616 34.1604H23.9614C23.967 34.2694 24.0037 34.3537 24.0714 34.4133C24.1392 34.4717 24.229 34.5008 24.3407 34.5008C24.4491 34.5008 24.5316 34.478 24.588 34.4324C24.6445 34.3854 24.6727 34.3246 24.6727 34.2498Z" fill="white"/>
<path d="M27.762 33.6355H26.7695V34.8089H26.341V32.0399H27.9077V32.4279H26.7695V33.2513H27.762V33.6355Z" fill="white"/>
<path d="M28.6461 34.8089H28.2346V32.7512H28.6461V34.8089ZM28.2091 32.2168C28.2091 32.1458 28.2289 32.0868 28.2684 32.0399C28.3091 31.993 28.3667 31.9695 28.4412 31.9695C28.5157 31.9695 28.5733 31.993 28.6139 32.0399C28.6546 32.0868 28.6749 32.1458 28.6749 32.2168C28.6749 32.2865 28.6546 32.3448 28.6139 32.3917C28.5733 32.4374 28.5157 32.4602 28.4412 32.4602C28.3667 32.4602 28.3091 32.4374 28.2684 32.3917C28.2289 32.3448 28.2091 32.2865 28.2091 32.2168Z" fill="white"/>
<path d="M29.4777 32.7512L29.4896 32.9889C29.6251 32.8051 29.8029 32.7131 30.0231 32.7131C30.4047 32.7131 30.599 32.9585 30.6057 33.4491V34.8089H30.1942V33.4758C30.1942 33.3452 30.1688 33.2488 30.1179 33.1867C30.0683 33.1233 29.9864 33.0916 29.8724 33.0916C29.7064 33.0916 29.5827 33.1759 29.5014 33.3445V34.8089H29.0899V32.7512H29.4777Z" fill="white"/>
<path d="M32.1216 34.8089C32.1035 34.7696 32.0877 34.7056 32.0742 34.6168C31.9432 34.7702 31.7829 34.8469 31.5932 34.8469C31.4091 34.8469 31.2589 34.788 31.1426 34.6701C31.0263 34.5522 30.9682 34.4064 30.9682 34.2327C30.9682 34.0133 31.0404 33.8453 31.185 33.7287C31.3306 33.6108 31.5384 33.5518 31.8083 33.5518H32.0606V33.4168C32.0606 33.3103 32.0341 33.2253 31.981 33.162C31.9279 33.0973 31.8472 33.065 31.7388 33.065C31.6451 33.065 31.5683 33.0916 31.5085 33.1448C31.4486 33.1968 31.4187 33.2634 31.4187 33.3445H31.0071C31.0071 33.2317 31.0404 33.1265 31.1071 33.0288C31.1737 32.9299 31.264 32.8526 31.3781 32.7968C31.4932 32.741 31.6214 32.7131 31.7625 32.7131C31.9771 32.7131 32.1481 32.774 32.2757 32.8957C32.4033 33.0162 32.4688 33.186 32.4722 33.4054V34.3335C32.4722 34.5186 32.4953 34.6663 32.5416 34.7766V34.8089H32.1216ZM31.6694 34.4761C31.7507 34.4761 31.8269 34.4539 31.898 34.4095C31.9703 34.3652 32.0245 34.3056 32.0606 34.2308V33.8428H31.8387C31.6863 33.8428 31.5717 33.8726 31.4949 33.9322C31.4181 33.9918 31.3798 34.0761 31.3798 34.1851C31.3798 34.2739 31.4057 34.3449 31.4577 34.3981C31.5107 34.4501 31.5813 34.4761 31.6694 34.4761Z" fill="white"/>
<path d="M33.2852 32.7512L33.297 32.9889C33.4325 32.8051 33.6103 32.7131 33.8305 32.7131C34.2122 32.7131 34.4064 32.9585 34.4132 33.4491V34.8089H34.0016V33.4758C34.0016 33.3452 33.9762 33.2488 33.9254 33.1867C33.8757 33.1233 33.7938 33.0916 33.6798 33.0916C33.5138 33.0916 33.3902 33.1759 33.3089 33.3445V34.8089H32.8973V32.7512H33.2852Z" fill="white"/>
<path d="M35.5869 34.478C35.6896 34.478 35.7749 34.4444 35.8426 34.3772C35.9104 34.31 35.9465 34.227 35.951 34.1281H36.3389C36.3344 34.2561 36.2988 34.3759 36.2322 34.4875C36.1656 34.5978 36.0752 34.6853 35.9612 34.7499C35.8472 34.8146 35.7241 34.8469 35.592 34.8469C35.3357 34.8469 35.1324 34.7538 34.9822 34.5674C34.8321 34.381 34.757 34.1236 34.757 33.7953V33.7477C34.757 33.4345 34.8315 33.1841 34.9806 32.9965C35.1296 32.8076 35.3328 32.7131 35.5903 32.7131C35.8082 32.7131 35.9855 32.7848 36.1221 32.928C36.2599 33.07 36.3321 33.257 36.3389 33.4891H35.951C35.9465 33.3712 35.9104 33.2742 35.8426 33.1981C35.776 33.122 35.6908 33.084 35.5869 33.084C35.4537 33.084 35.3509 33.1385 35.2786 33.2475C35.2064 33.3553 35.1697 33.5195 35.1686 33.7401V33.8143C35.1686 34.0374 35.2041 34.2041 35.2753 34.3144C35.3475 34.4235 35.4514 34.478 35.5869 34.478Z" fill="white"/>
<path d="M37.0875 34.8089H36.6759V32.7512H37.0875V34.8089ZM36.6505 32.2168C36.6505 32.1458 36.6703 32.0868 36.7098 32.0399C36.7505 31.993 36.8081 31.9695 36.8826 31.9695C36.9571 31.9695 37.0147 31.993 37.0553 32.0399C37.096 32.0868 37.1163 32.1458 37.1163 32.2168C37.1163 32.2865 37.096 32.3448 37.0553 32.3917C37.0147 32.4374 36.9571 32.4602 36.8826 32.4602C36.8081 32.4602 36.7505 32.4374 36.7098 32.3917C36.6703 32.3448 36.6505 32.2865 36.6505 32.2168Z" fill="white"/>
<path d="M38.3442 34.8469C38.0834 34.8469 37.8717 34.755 37.7091 34.5712C37.5476 34.3861 37.4669 34.1401 37.4669 33.8333V33.7762C37.4669 33.5708 37.5019 33.3876 37.5719 33.2266C37.643 33.0643 37.7424 32.9382 37.87 32.8482C37.9976 32.7581 38.1399 32.7131 38.2968 32.7131C38.5464 32.7131 38.7389 32.8025 38.8744 32.9813C39.011 33.1601 39.0793 33.413 39.0793 33.7401V33.9265H37.8819C37.8943 34.0964 37.9445 34.2308 38.0326 34.3297C38.1218 34.4285 38.2336 34.478 38.3679 34.478C38.5565 34.478 38.7101 34.3924 38.8286 34.2213L39.0505 34.459C38.9771 34.582 38.8789 34.6777 38.7558 34.7461C38.6339 34.8133 38.4967 34.8469 38.3442 34.8469ZM38.2951 33.084C38.1822 33.084 38.0907 33.1284 38.0207 33.2171C37.9519 33.3059 37.9078 33.4295 37.8886 33.588H38.6728V33.5537C38.6638 33.399 38.6271 33.2824 38.5627 33.2038C38.4984 33.1239 38.4092 33.084 38.2951 33.084Z" fill="white"/>
<path d="M40.3597 33.1734C40.3055 33.1632 40.2496 33.1582 40.1921 33.1582C40.0035 33.1582 39.8765 33.2393 39.811 33.4016V34.8089H39.3994V32.7512H39.7923L39.8025 32.9813C39.9019 32.8025 40.0396 32.7131 40.2158 32.7131C40.2745 32.7131 40.323 32.722 40.3614 32.7398L40.3597 33.1734Z" fill="white"/>
<path d="M41.6639 34.8089C41.6458 34.7696 41.63 34.7056 41.6165 34.6168C41.4855 34.7702 41.3251 34.8469 41.1354 34.8469C40.9514 34.8469 40.8012 34.788 40.6849 34.6701C40.5686 34.5522 40.5105 34.4064 40.5105 34.2327C40.5105 34.0133 40.5827 33.8453 40.7273 33.7287C40.8729 33.6108 41.0807 33.5518 41.3505 33.5518H41.6029V33.4168C41.6029 33.3103 41.5764 33.2253 41.5233 33.162C41.4702 33.0973 41.3895 33.065 41.2811 33.065C41.1874 33.065 41.1106 33.0916 41.0508 33.1448C40.9909 33.1968 40.961 33.2634 40.961 33.3445H40.5494C40.5494 33.2317 40.5827 33.1265 40.6494 33.0288C40.716 32.9299 40.8063 32.8526 40.9203 32.7968C41.0355 32.741 41.1637 32.7131 41.3048 32.7131C41.5194 32.7131 41.6904 32.774 41.818 32.8957C41.9456 33.0162 42.0111 33.186 42.0145 33.4054V34.3335C42.0145 34.5186 42.0376 34.6663 42.0839 34.7766V34.8089H41.6639ZM41.2117 34.4761C41.293 34.4761 41.3692 34.4539 41.4403 34.4095C41.5126 34.3652 41.5668 34.3056 41.6029 34.2308V33.8428H41.381C41.2286 33.8428 41.114 33.8726 41.0372 33.9322C40.9604 33.9918 40.922 34.0761 40.922 34.1851C40.922 34.2739 40.948 34.3449 41 34.3981C41.053 34.4501 41.1236 34.4761 41.2117 34.4761Z" fill="white"/>
<path d="M43.4727 34.2498C43.4727 34.1674 43.4423 34.1046 43.3813 34.0615C43.3214 34.0184 43.2215 33.9804 43.0815 33.9474C42.9415 33.9144 42.8246 33.8726 42.7309 33.8219C42.5254 33.7103 42.4227 33.5487 42.4227 33.3369C42.4227 33.1594 42.4893 33.0111 42.6225 32.8919C42.7558 32.7727 42.9251 32.7131 43.1306 32.7131C43.3497 32.7131 43.5264 32.774 43.6608 32.8957C43.7962 33.0174 43.864 33.1753 43.864 33.3693H43.4524C43.4524 33.2805 43.4231 33.207 43.3644 33.1486C43.3056 33.0891 43.2277 33.0593 43.1306 33.0593C43.0403 33.0593 42.9663 33.0827 42.9088 33.1296C42.8523 33.1765 42.8241 33.2393 42.8241 33.3179C42.8241 33.3889 42.8506 33.4441 42.9037 33.4834C42.9567 33.5227 43.064 33.5626 43.2255 33.6032C43.3869 33.6425 43.5134 33.69 43.6049 33.7458C43.6974 33.8003 43.7658 33.8663 43.8098 33.9436C43.855 34.0209 43.8775 34.1148 43.8775 34.2251C43.8775 34.4102 43.8092 34.5604 43.6726 34.6758C43.536 34.7899 43.357 34.8469 43.1357 34.8469C42.9855 34.8469 42.8517 34.8165 42.7343 34.7557C42.6169 34.6948 42.5254 34.6111 42.4599 34.5046C42.3944 34.3981 42.3617 34.2834 42.3617 34.1604H42.7614C42.767 34.2694 42.8037 34.3537 42.8715 34.4133C42.9392 34.4717 43.029 34.5008 43.1408 34.5008C43.2492 34.5008 43.3316 34.478 43.3881 34.4324C43.4445 34.3854 43.4727 34.3246 43.4727 34.2498Z" fill="white"/>
<line x1="4.69388" y1="35.4643" x2="44.4898" y2="35.4643" stroke="white" stroke-width="0.5"/>
<path fill-rule="evenodd" clip-rule="evenodd" d="M3 0C1.34315 0 0 1.34315 0 3V47C0 48.6569 1.34315 50 3 50H47C48.6569 50 50 48.6569 50 47V3C50 1.34315 48.6569 0 47 0H3ZM6 3C4.34315 3 3 4.34315 3 6V44C3 45.6569 4.34315 47 6 47H44C45.6569 47 47 45.6569 47 44V6C47 4.34315 45.6569 3 44 3H6Z" fill="white"/>
</svg>
