<svg width="43" height="42" viewBox="0 0 43 42" fill="none" xmlns="http://www.w3.org/2000/svg">
<mask id="path-1-outside-1" maskUnits="userSpaceOnUse" x="0" y="0" width="43" height="42" fill="black">
<rect fill="white" width="43" height="42"/>
<path d="M37.5891 5.30198V3.72207C37.5891 3.00013 37.3023 2.30776 36.7918 1.79728C36.2813 1.28679 35.5889 1 34.867 1C34.1451 1 33.4527 1.28679 32.9422 1.79728C32.4317 2.30776 32.1449 3.00013 32.1449 3.72207V5.29976H28.9496V3.72207C28.9496 3.00013 28.6628 2.30776 28.1523 1.79728C27.6418 1.28679 26.9494 1 26.2275 1C25.5056 1 24.8132 1.28679 24.3027 1.79728C23.7922 2.30776 23.5054 3.00013 23.5054 3.72207V5.29976H20.3056V3.72207C20.3056 3.00013 20.0188 2.30776 19.5083 1.79728C18.9978 1.28679 18.3055 1 17.5835 1C16.8616 1 16.1692 1.28679 15.6587 1.79728C15.1482 2.30776 14.8615 3.00013 14.8615 3.72207V5.29976H11.6661V3.72207C11.6661 3.00013 11.3793 2.30776 10.8688 1.79728C10.3583 1.28679 9.66594 1 8.944 1C8.22207 1 7.5297 1.28679 7.01921 1.79728C6.50872 2.30776 6.22193 3.00013 6.22193 3.72207V5.29976H6.00861C4.68071 5.30129 3.40764 5.82947 2.46868 6.76844C1.52971 7.7074 1.00153 8.98047 1 10.3084V35.9909C1.00141 37.3189 1.52954 38.5921 2.46852 39.5312C3.4075 40.4702 4.68064 40.9985 6.00861 41H37.5446C38.8726 40.9985 40.1458 40.4702 41.0847 39.5312C42.0237 38.5921 42.5518 37.3189 42.5532 35.9909V10.3084C42.5516 8.98841 42.0293 7.72238 41.0999 6.78508C40.1705 5.84778 38.909 5.31485 37.5891 5.30198ZM33.7004 3.72207C33.7015 3.41281 33.8251 3.11659 34.0442 2.89833C34.2633 2.68007 34.56 2.55757 34.8692 2.55769C35.178 2.55793 35.474 2.68068 35.6923 2.89899C35.9106 3.1173 36.0334 3.41333 36.0336 3.72207V8.43292C36.0336 8.74232 35.9107 9.03905 35.6919 9.25783C35.4731 9.47661 35.1764 9.59952 34.867 9.59952C34.5576 9.59952 34.2609 9.47661 34.0421 9.25783C33.8233 9.03905 33.7004 8.74232 33.7004 8.43292V3.72207ZM25.0609 3.72207C25.0609 3.41267 25.1838 3.11594 25.4026 2.89716C25.6214 2.67838 25.9181 2.55547 26.2275 2.55547C26.5369 2.55547 26.8336 2.67838 27.0524 2.89716C27.2712 3.11594 27.3941 3.41267 27.3941 3.72207V8.43292C27.3941 8.74232 27.2712 9.03905 27.0524 9.25783C26.8336 9.47661 26.5369 9.59952 26.2275 9.59952C25.9181 9.59952 25.6214 9.47661 25.4026 9.25783C25.1838 9.03905 25.0609 8.74232 25.0609 8.43292V3.72207ZM16.4169 3.72207C16.418 3.41281 16.5416 3.11659 16.7607 2.89833C16.9798 2.68007 17.2765 2.55757 17.5857 2.55769C17.8946 2.55769 18.1907 2.68037 18.4091 2.89873C18.6274 3.11709 18.7501 3.41326 18.7501 3.72207V8.43292C18.7501 8.74232 18.6272 9.03905 18.4084 9.25783C18.1897 9.47661 17.8929 9.59952 17.5835 9.59952C17.2741 9.59952 16.9774 9.47661 16.7586 9.25783C16.5398 9.03905 16.4169 8.74232 16.4169 8.43292V3.72207ZM7.7774 3.72207C7.7774 3.41267 7.90031 3.11594 8.11909 2.89716C8.33787 2.67838 8.6346 2.55547 8.944 2.55547C9.25341 2.55547 9.55014 2.67838 9.76892 2.89716C9.9877 3.11594 10.1106 3.41267 10.1106 3.72207V8.43292C10.1106 8.74232 9.9877 9.03905 9.76892 9.25783C9.55014 9.47661 9.25341 9.59952 8.944 9.59952C8.6346 9.59952 8.33787 9.47661 8.11909 9.25783C7.90031 9.03905 7.7774 8.74232 7.7774 8.43292V3.72207ZM2.55547 10.3084C2.55653 9.39287 2.92068 8.51516 3.56804 7.8678C4.2154 7.22044 5.09311 6.85629 6.00861 6.85523H6.22193V8.43292C6.22193 8.79039 6.29234 9.14435 6.42914 9.47461C6.56593 9.80487 6.76644 10.1049 7.01921 10.3577C7.27198 10.6105 7.57205 10.811 7.90231 10.9478C8.23257 11.0846 8.58654 11.155 8.944 11.155C9.30147 11.155 9.65544 11.0846 9.98569 10.9478C10.316 10.811 10.616 10.6105 10.8688 10.3577C11.1216 10.1049 11.3221 9.80487 11.4589 9.47461C11.5957 9.14435 11.6661 8.79039 11.6661 8.43292V6.85523H14.8615V8.43292C14.8615 9.15486 15.1482 9.84723 15.6587 10.3577C16.1692 10.8682 16.8616 11.155 17.5835 11.155C18.3055 11.155 18.9978 10.8682 19.5083 10.3577C20.0188 9.84723 20.3056 9.15486 20.3056 8.43292V6.85523H23.5054V8.43292C23.5054 9.15486 23.7922 9.84723 24.3027 10.3577C24.8132 10.8682 25.5056 11.155 26.2275 11.155C26.9494 11.155 27.6418 10.8682 28.1523 10.3577C28.6628 9.84723 28.9496 9.15486 28.9496 8.43292V6.85523H32.1449V8.43292C32.1449 9.15486 32.4317 9.84723 32.9422 10.3577C33.4527 10.8682 34.1451 11.155 34.867 11.155C35.5889 11.155 36.2813 10.8682 36.7918 10.3577C37.3023 9.84723 37.5891 9.15486 37.5891 8.43292V6.85568C38.4967 6.86851 39.363 7.23778 40.0007 7.88376C40.6385 8.52974 40.9966 9.40062 40.9978 10.3084V12.4816H2.55547V10.3084ZM40.9978 35.9909C40.9968 36.9065 40.6327 37.7843 39.9854 38.4318C39.338 39.0793 38.4602 39.4435 37.5446 39.4445H6.00861C5.09303 39.4435 4.21526 39.0793 3.56788 38.4318C2.92051 37.7843 2.55641 36.9065 2.55547 35.9909V14.0371H40.9978V35.9909Z"/>
</mask>
<path d="M37.5891 5.30198V3.72207C37.5891 3.00013 37.3023 2.30776 36.7918 1.79728C36.2813 1.28679 35.5889 1 34.867 1C34.1451 1 33.4527 1.28679 32.9422 1.79728C32.4317 2.30776 32.1449 3.00013 32.1449 3.72207V5.29976H28.9496V3.72207C28.9496 3.00013 28.6628 2.30776 28.1523 1.79728C27.6418 1.28679 26.9494 1 26.2275 1C25.5056 1 24.8132 1.28679 24.3027 1.79728C23.7922 2.30776 23.5054 3.00013 23.5054 3.72207V5.29976H20.3056V3.72207C20.3056 3.00013 20.0188 2.30776 19.5083 1.79728C18.9978 1.28679 18.3055 1 17.5835 1C16.8616 1 16.1692 1.28679 15.6587 1.79728C15.1482 2.30776 14.8615 3.00013 14.8615 3.72207V5.29976H11.6661V3.72207C11.6661 3.00013 11.3793 2.30776 10.8688 1.79728C10.3583 1.28679 9.66594 1 8.944 1C8.22207 1 7.5297 1.28679 7.01921 1.79728C6.50872 2.30776 6.22193 3.00013 6.22193 3.72207V5.29976H6.00861C4.68071 5.30129 3.40764 5.82947 2.46868 6.76844C1.52971 7.7074 1.00153 8.98047 1 10.3084V35.9909C1.00141 37.3189 1.52954 38.5921 2.46852 39.5312C3.4075 40.4702 4.68064 40.9985 6.00861 41H37.5446C38.8726 40.9985 40.1458 40.4702 41.0847 39.5312C42.0237 38.5921 42.5518 37.3189 42.5532 35.9909V10.3084C42.5516 8.98841 42.0293 7.72238 41.0999 6.78508C40.1705 5.84778 38.909 5.31485 37.5891 5.30198ZM33.7004 3.72207C33.7015 3.41281 33.8251 3.11659 34.0442 2.89833C34.2633 2.68007 34.56 2.55757 34.8692 2.55769C35.178 2.55793 35.474 2.68068 35.6923 2.89899C35.9106 3.1173 36.0334 3.41333 36.0336 3.72207V8.43292C36.0336 8.74232 35.9107 9.03905 35.6919 9.25783C35.4731 9.47661 35.1764 9.59952 34.867 9.59952C34.5576 9.59952 34.2609 9.47661 34.0421 9.25783C33.8233 9.03905 33.7004 8.74232 33.7004 8.43292V3.72207ZM25.0609 3.72207C25.0609 3.41267 25.1838 3.11594 25.4026 2.89716C25.6214 2.67838 25.9181 2.55547 26.2275 2.55547C26.5369 2.55547 26.8336 2.67838 27.0524 2.89716C27.2712 3.11594 27.3941 3.41267 27.3941 3.72207V8.43292C27.3941 8.74232 27.2712 9.03905 27.0524 9.25783C26.8336 9.47661 26.5369 9.59952 26.2275 9.59952C25.9181 9.59952 25.6214 9.47661 25.4026 9.25783C25.1838 9.03905 25.0609 8.74232 25.0609 8.43292V3.72207ZM16.4169 3.72207C16.418 3.41281 16.5416 3.11659 16.7607 2.89833C16.9798 2.68007 17.2765 2.55757 17.5857 2.55769C17.8946 2.55769 18.1907 2.68037 18.4091 2.89873C18.6274 3.11709 18.7501 3.41326 18.7501 3.72207V8.43292C18.7501 8.74232 18.6272 9.03905 18.4084 9.25783C18.1897 9.47661 17.8929 9.59952 17.5835 9.59952C17.2741 9.59952 16.9774 9.47661 16.7586 9.25783C16.5398 9.03905 16.4169 8.74232 16.4169 8.43292V3.72207ZM7.7774 3.72207C7.7774 3.41267 7.90031 3.11594 8.11909 2.89716C8.33787 2.67838 8.6346 2.55547 8.944 2.55547C9.25341 2.55547 9.55014 2.67838 9.76892 2.89716C9.9877 3.11594 10.1106 3.41267 10.1106 3.72207V8.43292C10.1106 8.74232 9.9877 9.03905 9.76892 9.25783C9.55014 9.47661 9.25341 9.59952 8.944 9.59952C8.6346 9.59952 8.33787 9.47661 8.11909 9.25783C7.90031 9.03905 7.7774 8.74232 7.7774 8.43292V3.72207ZM2.55547 10.3084C2.55653 9.39287 2.92068 8.51516 3.56804 7.8678C4.2154 7.22044 5.09311 6.85629 6.00861 6.85523H6.22193V8.43292C6.22193 8.79039 6.29234 9.14435 6.42914 9.47461C6.56593 9.80487 6.76644 10.1049 7.01921 10.3577C7.27198 10.6105 7.57205 10.811 7.90231 10.9478C8.23257 11.0846 8.58654 11.155 8.944 11.155C9.30147 11.155 9.65544 11.0846 9.98569 10.9478C10.316 10.811 10.616 10.6105 10.8688 10.3577C11.1216 10.1049 11.3221 9.80487 11.4589 9.47461C11.5957 9.14435 11.6661 8.79039 11.6661 8.43292V6.85523H14.8615V8.43292C14.8615 9.15486 15.1482 9.84723 15.6587 10.3577C16.1692 10.8682 16.8616 11.155 17.5835 11.155C18.3055 11.155 18.9978 10.8682 19.5083 10.3577C20.0188 9.84723 20.3056 9.15486 20.3056 8.43292V6.85523H23.5054V8.43292C23.5054 9.15486 23.7922 9.84723 24.3027 10.3577C24.8132 10.8682 25.5056 11.155 26.2275 11.155C26.9494 11.155 27.6418 10.8682 28.1523 10.3577C28.6628 9.84723 28.9496 9.15486 28.9496 8.43292V6.85523H32.1449V8.43292C32.1449 9.15486 32.4317 9.84723 32.9422 10.3577C33.4527 10.8682 34.1451 11.155 34.867 11.155C35.5889 11.155 36.2813 10.8682 36.7918 10.3577C37.3023 9.84723 37.5891 9.15486 37.5891 8.43292V6.85568C38.4967 6.86851 39.363 7.23778 40.0007 7.88376C40.6385 8.52974 40.9966 9.40062 40.9978 10.3084V12.4816H2.55547V10.3084ZM40.9978 35.9909C40.9968 36.9065 40.6327 37.7843 39.9854 38.4318C39.338 39.0793 38.4602 39.4435 37.5446 39.4445H6.00861C5.09303 39.4435 4.21526 39.0793 3.56788 38.4318C2.92051 37.7843 2.55641 36.9065 2.55547 35.9909V14.0371H40.9978V35.9909Z" fill="#002A61"/>
<path d="M37.5891 5.30198V3.72207C37.5891 3.00013 37.3023 2.30776 36.7918 1.79728C36.2813 1.28679 35.5889 1 34.867 1C34.1451 1 33.4527 1.28679 32.9422 1.79728C32.4317 2.30776 32.1449 3.00013 32.1449 3.72207V5.29976H28.9496V3.72207C28.9496 3.00013 28.6628 2.30776 28.1523 1.79728C27.6418 1.28679 26.9494 1 26.2275 1C25.5056 1 24.8132 1.28679 24.3027 1.79728C23.7922 2.30776 23.5054 3.00013 23.5054 3.72207V5.29976H20.3056V3.72207C20.3056 3.00013 20.0188 2.30776 19.5083 1.79728C18.9978 1.28679 18.3055 1 17.5835 1C16.8616 1 16.1692 1.28679 15.6587 1.79728C15.1482 2.30776 14.8615 3.00013 14.8615 3.72207V5.29976H11.6661V3.72207C11.6661 3.00013 11.3793 2.30776 10.8688 1.79728C10.3583 1.28679 9.66594 1 8.944 1C8.22207 1 7.5297 1.28679 7.01921 1.79728C6.50872 2.30776 6.22193 3.00013 6.22193 3.72207V5.29976H6.00861C4.68071 5.30129 3.40764 5.82947 2.46868 6.76844C1.52971 7.7074 1.00153 8.98047 1 10.3084V35.9909C1.00141 37.3189 1.52954 38.5921 2.46852 39.5312C3.4075 40.4702 4.68064 40.9985 6.00861 41H37.5446C38.8726 40.9985 40.1458 40.4702 41.0847 39.5312C42.0237 38.5921 42.5518 37.3189 42.5532 35.9909V10.3084C42.5516 8.98841 42.0293 7.72238 41.0999 6.78508C40.1705 5.84778 38.909 5.31485 37.5891 5.30198ZM33.7004 3.72207C33.7015 3.41281 33.8251 3.11659 34.0442 2.89833C34.2633 2.68007 34.56 2.55757 34.8692 2.55769C35.178 2.55793 35.474 2.68068 35.6923 2.89899C35.9106 3.1173 36.0334 3.41333 36.0336 3.72207V8.43292C36.0336 8.74232 35.9107 9.03905 35.6919 9.25783C35.4731 9.47661 35.1764 9.59952 34.867 9.59952C34.5576 9.59952 34.2609 9.47661 34.0421 9.25783C33.8233 9.03905 33.7004 8.74232 33.7004 8.43292V3.72207ZM25.0609 3.72207C25.0609 3.41267 25.1838 3.11594 25.4026 2.89716C25.6214 2.67838 25.9181 2.55547 26.2275 2.55547C26.5369 2.55547 26.8336 2.67838 27.0524 2.89716C27.2712 3.11594 27.3941 3.41267 27.3941 3.72207V8.43292C27.3941 8.74232 27.2712 9.03905 27.0524 9.25783C26.8336 9.47661 26.5369 9.59952 26.2275 9.59952C25.9181 9.59952 25.6214 9.47661 25.4026 9.25783C25.1838 9.03905 25.0609 8.74232 25.0609 8.43292V3.72207ZM16.4169 3.72207C16.418 3.41281 16.5416 3.11659 16.7607 2.89833C16.9798 2.68007 17.2765 2.55757 17.5857 2.55769C17.8946 2.55769 18.1907 2.68037 18.4091 2.89873C18.6274 3.11709 18.7501 3.41326 18.7501 3.72207V8.43292C18.7501 8.74232 18.6272 9.03905 18.4084 9.25783C18.1897 9.47661 17.8929 9.59952 17.5835 9.59952C17.2741 9.59952 16.9774 9.47661 16.7586 9.25783C16.5398 9.03905 16.4169 8.74232 16.4169 8.43292V3.72207ZM7.7774 3.72207C7.7774 3.41267 7.90031 3.11594 8.11909 2.89716C8.33787 2.67838 8.6346 2.55547 8.944 2.55547C9.25341 2.55547 9.55014 2.67838 9.76892 2.89716C9.9877 3.11594 10.1106 3.41267 10.1106 3.72207V8.43292C10.1106 8.74232 9.9877 9.03905 9.76892 9.25783C9.55014 9.47661 9.25341 9.59952 8.944 9.59952C8.6346 9.59952 8.33787 9.47661 8.11909 9.25783C7.90031 9.03905 7.7774 8.74232 7.7774 8.43292V3.72207ZM2.55547 10.3084C2.55653 9.39287 2.92068 8.51516 3.56804 7.8678C4.2154 7.22044 5.09311 6.85629 6.00861 6.85523H6.22193V8.43292C6.22193 8.79039 6.29234 9.14435 6.42914 9.47461C6.56593 9.80487 6.76644 10.1049 7.01921 10.3577C7.27198 10.6105 7.57205 10.811 7.90231 10.9478C8.23257 11.0846 8.58654 11.155 8.944 11.155C9.30147 11.155 9.65544 11.0846 9.98569 10.9478C10.316 10.811 10.616 10.6105 10.8688 10.3577C11.1216 10.1049 11.3221 9.80487 11.4589 9.47461C11.5957 9.14435 11.6661 8.79039 11.6661 8.43292V6.85523H14.8615V8.43292C14.8615 9.15486 15.1482 9.84723 15.6587 10.3577C16.1692 10.8682 16.8616 11.155 17.5835 11.155C18.3055 11.155 18.9978 10.8682 19.5083 10.3577C20.0188 9.84723 20.3056 9.15486 20.3056 8.43292V6.85523H23.5054V8.43292C23.5054 9.15486 23.7922 9.84723 24.3027 10.3577C24.8132 10.8682 25.5056 11.155 26.2275 11.155C26.9494 11.155 27.6418 10.8682 28.1523 10.3577C28.6628 9.84723 28.9496 9.15486 28.9496 8.43292V6.85523H32.1449V8.43292C32.1449 9.15486 32.4317 9.84723 32.9422 10.3577C33.4527 10.8682 34.1451 11.155 34.867 11.155C35.5889 11.155 36.2813 10.8682 36.7918 10.3577C37.3023 9.84723 37.5891 9.15486 37.5891 8.43292V6.85568C38.4967 6.86851 39.363 7.23778 40.0007 7.88376C40.6385 8.52974 40.9966 9.40062 40.9978 10.3084V12.4816H2.55547V10.3084ZM40.9978 35.9909C40.9968 36.9065 40.6327 37.7843 39.9854 38.4318C39.338 39.0793 38.4602 39.4435 37.5446 39.4445H6.00861C5.09303 39.4435 4.21526 39.0793 3.56788 38.4318C2.92051 37.7843 2.55641 36.9065 2.55547 35.9909V14.0371H40.9978V35.9909Z" stroke="#002A61" stroke-width="0.4" mask="url(#path-1-outside-1)"/>
<path d="M6.24131 21.4414C6.24112 21.5567 6.26368 21.671 6.30769 21.7777C6.35171 21.8843 6.41634 21.9813 6.49786 22.0629C6.57938 22.1446 6.67621 22.2094 6.7828 22.2536C6.88939 22.2978 7.00365 22.3205 7.11904 22.3205H10.4038C10.6365 22.3205 10.8598 22.2281 11.0244 22.0635C11.189 21.8988 11.2815 21.6756 11.2815 21.4428V18.1568C11.2815 17.924 11.189 17.7007 11.0244 17.5361C10.8598 17.3715 10.6365 17.279 10.4038 17.279H7.11904C6.88625 17.279 6.663 17.3715 6.49839 17.5361C6.33379 17.7007 6.24131 17.924 6.24131 18.1568V21.4414ZM6.24131 21.4414C6.24131 21.4414 6.24131 21.4413 6.24131 21.4413L6.34131 21.4415H6.24131V21.4414ZM7.99678 19.0358H9.52602V20.5651H7.99678V19.0358Z" fill="#002A61" stroke="#002A61" stroke-width="0.2"/>
<path d="M14.9181 21.4414C14.9179 21.5567 14.9404 21.671 14.9844 21.7777C15.0285 21.8843 15.0931 21.9813 15.1746 22.0629C15.2561 22.1446 15.353 22.2094 15.4596 22.2536C15.5661 22.2978 15.6804 22.3205 15.7958 22.3205H19.081C19.3137 22.3205 19.537 22.2281 19.7016 22.0635C19.8662 21.8988 19.9587 21.6756 19.9587 21.4428V18.1568C19.9587 17.924 19.8662 17.7007 19.7016 17.5361C19.537 17.3715 19.3137 17.279 19.081 17.279H15.7958C15.563 17.279 15.3398 17.3715 15.1751 17.5361C15.0105 17.7007 14.9181 17.924 14.9181 18.1568V21.4414ZM14.9181 21.4414C14.9181 21.4414 14.9181 21.4413 14.9181 21.4413L15.0181 21.4415H14.9181V21.4414ZM16.6735 19.0358H18.2032V20.5651H16.6735V19.0358Z" fill="#002A61" stroke="#002A61" stroke-width="0.2"/>
<path d="M27.7572 22.3205H24.4726C24.3572 22.3205 24.2429 22.2978 24.1363 22.2536C24.0297 22.2094 23.9329 22.1446 23.8514 22.0629C23.7698 21.9813 23.7052 21.8843 23.6612 21.7777C23.6172 21.671 23.5946 21.5568 23.5948 21.4414M27.7572 22.3205L28.535 21.4428M27.7572 22.3205C27.8725 22.3206 27.9867 22.2979 28.0932 22.2539C28.1997 22.2098 28.2965 22.1451 28.3781 22.0636C28.4596 21.9821 28.5242 21.8853 28.5683 21.7787C28.6124 21.6722 28.6351 21.558 28.635 21.4428M27.7572 22.3205L27.7573 22.2205V22.3205H27.7572ZM27.7572 22.3205L28.535 21.4428M23.5948 21.4414C23.5948 21.4414 23.5948 21.4413 23.5948 21.4413L23.6948 21.4415H23.5948V21.4414ZM23.5948 21.4414V18.1568C23.5948 17.924 23.6873 17.7007 23.8519 17.5361C24.0165 17.3715 24.2398 17.279 24.4726 17.279L27.7572 17.279C27.7572 17.279 27.7573 17.279 27.7573 17.279C27.8725 17.279 27.9867 17.3016 28.0932 17.3457C28.1997 17.3898 28.2965 17.4545 28.3781 17.536C28.4596 17.6175 28.5242 17.7143 28.5683 17.8208C28.6124 17.9274 28.6351 18.0415 28.635 18.1568M28.635 18.1568L28.535 18.1568H28.635V18.1568ZM28.635 18.1568V21.4428M28.635 21.4428L28.535 21.4428M28.635 21.4428V21.4428H28.535M25.3503 19.0358H26.8795V20.5651H25.3503V19.0358Z" fill="#002A61" stroke="#002A61" stroke-width="0.2"/>
<path d="M36.434 22.3205H33.1494H33.1493V22.2205C33.0471 22.2206 32.9458 22.2005 32.8513 22.1613C32.7568 22.1222 32.671 22.0648 32.5988 21.9924C32.5265 21.92 32.4693 21.8341 32.4303 21.7396C32.3913 21.645 32.3714 21.5437 32.3716 21.4415L36.434 22.3205ZM36.434 22.3205C36.6668 22.3205 36.8901 22.2281 37.0547 22.0635C37.2193 21.8989 37.3118 21.6756 37.3118 21.4428V18.1568C37.3118 17.924 37.2193 17.7007 37.0547 17.5361C36.8901 17.3715 36.6668 17.279 36.434 17.279H33.1493C33.1493 17.279 33.1493 17.279 33.1493 17.279C33.034 17.279 32.9199 17.3016 32.8134 17.3457C32.7069 17.3898 32.6101 17.4545 32.5285 17.536C32.447 17.6175 32.3824 17.7143 32.3383 17.8208C32.2942 17.9273 32.2715 18.0415 32.2716 18.1568C32.2716 18.1568 32.2716 18.1568 32.2716 18.1568L32.2716 21.4414L36.434 22.3205ZM34.0271 19.0358H35.5563V20.5651H34.0271V19.0358Z" fill="#002A61" stroke="#002A61" stroke-width="0.2"/>
<path d="M7.11904 29.2607H10.4038C10.6365 29.2607 10.8598 29.1682 11.0244 29.0036C11.189 28.839 11.2815 28.6157 11.2815 28.3829V25.0987C11.2815 24.8659 11.189 24.6426 11.0244 24.478C10.8598 24.3134 10.6365 24.2209 10.4038 24.2209H7.11904C6.88625 24.2209 6.663 24.3134 6.49839 24.478C6.33378 24.6426 6.24131 24.8659 6.24131 25.0987V28.3829C6.24131 28.6157 6.33378 28.839 6.49839 29.0036C6.663 29.1682 6.88625 29.2607 7.11904 29.2607ZM7.99678 25.9764H9.52602V27.5052H7.99678V25.9764Z" fill="#002A61" stroke="#002A61" stroke-width="0.2"/>
<path d="M15.7958 29.2607H19.081C19.3137 29.2607 19.537 29.1682 19.7016 29.0036C19.8662 28.839 19.9587 28.6157 19.9587 28.3829V25.0987C19.9587 24.8659 19.8662 24.6426 19.7016 24.478C19.537 24.3134 19.3137 24.2209 19.081 24.2209H15.7958C15.563 24.2209 15.3398 24.3134 15.1751 24.478C15.0105 24.6426 14.9181 24.8659 14.9181 25.0987V28.3829C14.9181 28.6157 15.0105 28.839 15.1751 29.0036C15.3398 29.1682 15.563 29.2607 15.7958 29.2607ZM16.6735 25.9764H18.2032V27.5052H16.6735V25.9764Z" fill="#002A61" stroke="#002A61" stroke-width="0.2"/>
<path d="M27.7572 29.2607H24.4726C24.2398 29.2607 24.0165 29.1682 23.8519 29.0036C23.6873 28.839 23.5948 28.6157 23.5948 28.3829V25.0987C23.5948 24.8659 23.6873 24.6426 23.8519 24.478C24.0165 24.3134 24.2398 24.2209 24.4726 24.2209L27.7572 24.2209C27.7572 24.2209 27.7572 24.2209 27.7573 24.2209C27.8725 24.2209 27.9867 24.2435 28.0932 24.2876C28.1997 24.3317 28.2965 24.3964 28.378 24.4779C28.4596 24.5594 28.5242 24.6562 28.5683 24.7627C28.6124 24.8692 28.6351 24.9834 28.635 25.0987M27.7572 29.2607L28.535 28.3829M27.7572 29.2607C27.8725 29.2607 27.9867 29.2381 28.0932 29.194C28.1997 29.1499 28.2965 29.0852 28.378 29.0037C28.4596 28.9222 28.5242 28.8254 28.5683 28.7189C28.6124 28.6123 28.6351 28.4982 28.635 28.3829M27.7572 29.2607L27.7573 29.1607V29.2607H27.7572ZM27.7572 29.2607L28.535 28.3829M28.635 25.0987L28.535 25.0987H28.635V25.0987ZM28.635 25.0987V28.3829M28.635 28.3829L28.535 28.3829M28.635 28.3829V28.3829H28.535M25.3503 25.9764H26.8795V27.5052H25.3503V25.9764Z" fill="#002A61" stroke="#002A61" stroke-width="0.2"/>
<path d="M36.434 29.2607H33.1494H33.1493V29.1607C33.0472 29.1607 32.946 29.1406 32.8516 29.1016C32.7572 29.0625 32.6715 29.0052 32.5992 28.933C32.527 28.8608 32.4697 28.775 32.4307 28.6806C32.3916 28.5862 32.3715 28.4851 32.3716 28.3829L36.434 29.2607ZM36.434 29.2607C36.6668 29.2607 36.8901 29.1682 37.0547 29.0036C37.2193 28.839 37.3118 28.6157 37.3118 28.3829V25.0987C37.3118 24.8659 37.2193 24.6426 37.0547 24.478C36.8901 24.3134 36.6668 24.2209 36.434 24.2209H33.1493C33.1493 24.2209 33.1493 24.2209 33.1493 24.2209C33.034 24.2209 32.9199 24.2435 32.8134 24.2876C32.7069 24.3317 32.6101 24.3964 32.5285 24.4779C32.447 24.5594 32.3824 24.6562 32.3383 24.7627C32.2942 24.8692 32.2715 24.9834 32.2716 25.0987L36.434 29.2607ZM34.0271 25.9764H35.5563V27.5052H34.0271V25.9764Z" fill="#002A61" stroke="#002A61" stroke-width="0.2"/>
<path d="M36.434 36.2016H36.4341C36.6668 36.2015 36.89 36.109 37.0545 35.9444C37.2191 35.7798 37.3116 35.5567 37.3118 35.3239V35.3239V32.0387C37.3118 31.8059 37.2193 31.5827 37.0547 31.4181C36.8901 31.2535 36.6668 31.161 36.434 31.161H33.1493C33.1493 31.161 33.1493 31.161 33.1493 31.161C33.034 31.1609 32.9199 31.1836 32.8134 31.2277C32.7069 31.2718 32.6101 31.3364 32.5285 31.4179C32.447 31.4995 32.3824 31.5963 32.3383 31.7028C32.2942 31.8093 32.2715 31.9234 32.2716 32.0387C32.2716 32.0387 32.2716 32.0388 32.2716 32.0388L32.2716 35.3239C32.2716 35.5567 32.3641 35.7799 32.5287 35.9445C32.6933 36.1091 32.9165 36.2016 33.1493 36.2016H36.434ZM34.0271 32.9165H35.5563V34.4461H34.0271V32.9165Z" fill="#002A61" stroke="#002A61" stroke-width="0.2"/>
<path d="M7.11899 36.2016H7.11904H10.4038H10.4038C10.6365 36.2015 10.8597 36.109 11.0243 35.9444C11.1888 35.7798 11.2814 35.5567 11.2815 35.3239V35.3239V32.0387C11.2815 31.8059 11.189 31.5827 11.0244 31.4181C10.8598 31.2535 10.6365 31.161 10.4038 31.161H7.11904C6.88625 31.161 6.663 31.2535 6.49839 31.4181C6.33378 31.5827 6.24131 31.8059 6.24131 32.0387L6.24131 35.3239L6.24131 35.3239C6.24144 35.5567 6.33395 35.7798 6.49852 35.9444C6.66309 36.109 6.88625 36.2015 7.11899 36.2016ZM7.99678 32.9165H9.52602V34.4461H7.99678V32.9165Z" fill="#002A61" stroke="#002A61" stroke-width="0.2"/>
<path d="M15.7957 36.2016H15.7958H19.081H19.081C19.3137 36.2015 19.5369 36.109 19.7015 35.9444C19.866 35.7798 19.9586 35.5567 19.9587 35.3239V35.3239V32.0387C19.9587 31.8059 19.8662 31.5827 19.7016 31.4181C19.537 31.2535 19.3137 31.161 19.081 31.161H15.7958C15.563 31.161 15.3398 31.2535 15.1751 31.4181C15.0105 31.5827 14.9181 31.8059 14.9181 32.0387L14.9181 35.3239L14.9181 35.3239C14.9182 35.5567 15.0107 35.7798 15.1753 35.9444C15.3398 36.109 15.563 36.2015 15.7957 36.2016ZM16.6735 32.9165H18.2032V34.4461H16.6735V32.9165Z" fill="#002A61" stroke="#002A61" stroke-width="0.2"/>
<path d="M28.635 32.0388C28.6351 31.9235 28.6124 31.8093 28.5683 31.7028C28.5242 31.5963 28.4596 31.4995 28.378 31.4179C28.2965 31.3364 28.1997 31.2718 28.0932 31.2277C27.9867 31.1836 27.8725 31.1609 27.7573 31.161C27.7572 31.161 27.7572 31.161 27.7572 31.161L24.4726 31.161C24.2398 31.161 24.0165 31.2535 23.8519 31.4181C23.6873 31.5827 23.5948 31.8059 23.5948 32.0387L23.5948 35.3239L23.5948 35.3239C23.595 35.5567 23.6875 35.7798 23.852 35.9444C24.0166 36.109 24.2398 36.2015 24.4725 36.2016H24.4726H27.7573C27.9901 36.2016 28.2133 36.1091 28.3779 35.9445C28.5425 35.7799 28.635 35.5567 28.635 35.3239V32.0388ZM28.635 32.0388L28.535 32.0387M28.635 32.0388V32.0387H28.535M28.535 32.0387V35.3239C28.535 35.5301 28.4531 35.728 28.3072 35.8738C28.1613 36.0197 27.9635 36.1016 27.7573 36.1016H24.4726L23.6948 32.0387C23.6948 31.8325 23.7768 31.6346 23.9226 31.4888C24.0685 31.3429 24.2663 31.261 24.4726 31.261H27.7573C27.8594 31.2609 27.9606 31.281 28.055 31.3201C28.1493 31.3591 28.2351 31.4164 28.3073 31.4886C28.3796 31.5609 28.4369 31.6466 28.4759 31.741C28.515 31.8354 28.5351 31.9366 28.535 32.0387ZM25.3503 32.9165H26.8795V34.4461H25.3503V32.9165Z" fill="#002A61" stroke="#002A61" stroke-width="0.2"/>
</svg>
