<svg width="66" height="66" viewBox="0 0 66 66" fill="none" xmlns="http://www.w3.org/2000/svg">
<path d="M43.9996 50.6002C45.3427 50.6002 46.1996 51.2514 46.1996 51.7002C46.1996 51.9919 46.3155 52.2717 46.5218 52.478C46.7281 52.6843 47.0079 52.8002 47.2996 52.8002C47.5913 52.8002 47.8711 52.6843 48.0774 52.478C48.2837 52.2717 48.3996 51.9919 48.3996 51.7002C48.3996 50.1371 47.0147 48.8721 45.0996 48.5102V47.3002C45.0996 47.0085 44.9837 46.7287 44.7774 46.5224C44.5711 46.3161 44.2913 46.2002 43.9996 46.2002C43.7079 46.2002 43.4281 46.3161 43.2218 46.5224C43.0155 46.7287 42.8996 47.0085 42.8996 47.3002V48.5102C40.9845 48.8699 39.5996 50.1349 39.5996 51.7002C39.5996 53.5504 41.5323 55.0002 43.9996 55.0002C45.3427 55.0002 46.1996 55.6514 46.1996 56.1002C46.1996 56.549 45.3427 57.2002 43.9996 57.2002C42.6565 57.2002 41.7996 56.549 41.7996 56.1002C41.7996 55.8085 41.6837 55.5287 41.4774 55.3224C41.2711 55.1161 40.9913 55.0002 40.6996 55.0002C40.4079 55.0002 40.1281 55.1161 39.9218 55.3224C39.7155 55.5287 39.5996 55.8085 39.5996 56.1002C39.5996 57.6633 40.9845 58.9283 42.8996 59.2902V60.5002C42.8996 60.7919 43.0155 61.0717 43.2218 61.278C43.4281 61.4843 43.7079 61.6002 43.9996 61.6002C44.2913 61.6002 44.5711 61.4843 44.7774 61.278C44.9837 61.0717 45.0996 60.7919 45.0996 60.5002V59.2902C47.0147 58.9305 48.3996 57.6655 48.3996 56.1002C48.3996 54.25 46.4669 52.8002 43.9996 52.8002C42.6565 52.8002 41.7996 52.149 41.7996 51.7002C41.7996 51.2514 42.6565 50.6002 43.9996 50.6002Z" fill="white"/>
<path d="M64.9 41.8H57.2V7.7C57.1974 6.82559 56.8489 5.98774 56.2306 5.36943C55.6123 4.75113 54.7744 4.40261 53.9 4.4H48.4V3.3C48.4 2.42479 48.0523 1.58542 47.4335 0.966548C46.8146 0.347678 45.9752 0 45.1 0C44.2248 0 43.3854 0.347678 42.7666 0.966548C42.1477 1.58542 41.8 2.42479 41.8 3.3V4.4H15.4V3.3C15.4 2.42479 15.0523 1.58542 14.4335 0.966548C13.8146 0.347678 12.9752 0 12.1 0C11.2248 0 10.3854 0.347678 9.76655 0.966548C9.14768 1.58542 8.8 2.42479 8.8 3.3V4.4H3.3C2.42559 4.40261 1.58774 4.75113 0.969433 5.36943C0.351128 5.98774 0.0026115 6.82559 0 7.7V53.9C0.0026115 54.7744 0.351128 55.6123 0.969433 56.2306C1.58774 56.8489 2.42559 57.1974 3.3 57.2H22V64.9C22 65.1917 22.1159 65.4715 22.3222 65.6778C22.5285 65.8841 22.8083 66 23.1 66H64.9C65.1917 66 65.4715 65.8841 65.6778 65.6778C65.8841 65.4715 66 65.1917 66 64.9V42.9C66 42.6083 65.8841 42.3285 65.6778 42.1222C65.4715 41.9159 65.1917 41.8 64.9 41.8ZM44 3.3C44 3.00826 44.1159 2.72847 44.3222 2.52218C44.5285 2.31589 44.8083 2.2 45.1 2.2C45.3917 2.2 45.6715 2.31589 45.8778 2.52218C46.0841 2.72847 46.2 3.00826 46.2 3.3V7.7C46.2 7.99174 46.0841 8.27153 45.8778 8.47782C45.6715 8.68411 45.3917 8.8 45.1 8.8C44.8083 8.8 44.5285 8.68411 44.3222 8.47782C44.1159 8.27153 44 7.99174 44 7.7V3.3ZM11 3.3C11 3.00826 11.1159 2.72847 11.3222 2.52218C11.5285 2.31589 11.8083 2.2 12.1 2.2C12.3917 2.2 12.6715 2.31589 12.8778 2.52218C13.0841 2.72847 13.2 3.00826 13.2 3.3V7.7C13.2 7.99174 13.0841 8.27153 12.8778 8.47782C12.6715 8.68411 12.3917 8.8 12.1 8.8C11.8083 8.8 11.5285 8.68411 11.3222 8.47782C11.1159 8.27153 11 7.99174 11 7.7V3.3ZM2.2 7.7C2.2 7.40826 2.31589 7.12847 2.52218 6.92218C2.72847 6.71589 3.00826 6.6 3.3 6.6H8.8V7.7C8.8 8.57521 9.14768 9.41458 9.76655 10.0335C10.3854 10.6523 11.2248 11 12.1 11C12.9752 11 13.8146 10.6523 14.4335 10.0335C15.0523 9.41458 15.4 8.57521 15.4 7.7V6.6H41.8V7.7C41.8 8.57521 42.1477 9.41458 42.7666 10.0335C43.3854 10.6523 44.2248 11 45.1 11C45.9752 11 46.8146 10.6523 47.4335 10.0335C48.0523 9.41458 48.4 8.57521 48.4 7.7V6.6H53.9C54.1917 6.6 54.4715 6.71589 54.6778 6.92218C54.8841 7.12847 55 7.40826 55 7.7V13.2H2.2V7.7ZM35.2 63.8H24.2V61.6H35.2V63.8ZM35.2 59.4H24.2V57.2H35.2V59.4ZM35.2 55H24.2V52.8H35.2V55ZM35.2 50.6H24.2V48.4H35.2V50.6ZM35.2 46.2H24.2V44H35.2V46.2ZM50.6 63.8H37.4V44H50.6V63.8ZM23.1 41.8C22.8083 41.8 22.5285 41.9159 22.3222 42.1222C22.1159 42.3285 22 42.6083 22 42.9V55H3.3C3.00826 55 2.72847 54.8841 2.52218 54.6778C2.31589 54.4715 2.2 54.1917 2.2 53.9V15.4H55V41.8H23.1ZM63.8 63.8H52.8V61.6H63.8V63.8ZM63.8 59.4H52.8V57.2H63.8V59.4ZM63.8 55H52.8V52.8H63.8V55ZM63.8 50.6H52.8V48.4H63.8V50.6ZM63.8 46.2H52.8V44H63.8V46.2Z" fill="white"/>
<path d="M15.3997 19.7998H8.79971C8.50797 19.7998 8.22818 19.9157 8.02189 20.122C7.8156 20.3283 7.69971 20.6081 7.69971 20.8998V27.4998C7.69971 27.7915 7.8156 28.0713 8.02189 28.2776C8.22818 28.4839 8.50797 28.5998 8.79971 28.5998H15.3997C15.6914 28.5998 15.9712 28.4839 16.1775 28.2776C16.3838 28.0713 16.4997 27.7915 16.4997 27.4998V20.8998C16.4997 20.6081 16.3838 20.3283 16.1775 20.122C15.9712 19.9157 15.6914 19.7998 15.3997 19.7998ZM14.2997 26.3998H9.89971V21.9998H14.2997V26.3998Z" fill="white"/>
<path d="M19.7995 28.5998H26.3995C26.6912 28.5998 26.971 28.4839 27.1773 28.2776C27.3836 28.0713 27.4995 27.7915 27.4995 27.4998V20.8998C27.4995 20.6081 27.3836 20.3283 27.1773 20.122C26.971 19.9157 26.6912 19.7998 26.3995 19.7998H19.7995C19.5077 19.7998 19.2279 19.9157 19.0216 20.122C18.8154 20.3283 18.6995 20.6081 18.6995 20.8998V27.4998C18.6995 27.7915 18.8154 28.0713 19.0216 28.2776C19.2279 28.4839 19.5077 28.5998 19.7995 28.5998ZM20.8995 21.9998H25.2995V26.3998H20.8995V21.9998Z" fill="white"/>
<path d="M30.8004 28.5998H37.4004C37.6921 28.5998 37.9719 28.4839 38.1782 28.2776C38.3845 28.0713 38.5004 27.7915 38.5004 27.4998V20.8998C38.5004 20.6081 38.3845 20.3283 38.1782 20.122C37.9719 19.9157 37.6921 19.7998 37.4004 19.7998H30.8004C30.5086 19.7998 30.2289 19.9157 30.0226 20.122C29.8163 20.3283 29.7004 20.6081 29.7004 20.8998V27.4998C29.7004 27.7915 29.8163 28.0713 30.0226 28.2776C30.2289 28.4839 30.5086 28.5998 30.8004 28.5998ZM31.9004 21.9998H36.3004V26.3998H31.9004V21.9998Z" fill="white"/>
<path d="M41.7997 28.5998H48.3997C48.6914 28.5998 48.9712 28.4839 49.1775 28.2776C49.3838 28.0713 49.4997 27.7915 49.4997 27.4998V20.8998C49.4997 20.6081 49.3838 20.3283 49.1775 20.122C48.9712 19.9157 48.6914 19.7998 48.3997 19.7998H41.7997C41.508 19.7998 41.2282 19.9157 41.0219 20.122C40.8156 20.3283 40.6997 20.6081 40.6997 20.8998V27.4998C40.6997 27.7915 40.8156 28.0713 41.0219 28.2776C41.2282 28.4839 41.508 28.5998 41.7997 28.5998ZM42.8997 21.9998H47.2997V26.3998H42.8997V21.9998Z" fill="white"/>
<path d="M30.8004 39.5998H37.4004C37.6921 39.5998 37.9719 39.4839 38.1782 39.2776C38.3845 39.0713 38.5004 38.7915 38.5004 38.4998V31.8998C38.5004 31.6081 38.3845 31.3283 38.1782 31.122C37.9719 30.9157 37.6921 30.7998 37.4004 30.7998H30.8004C30.5086 30.7998 30.2289 30.9157 30.0226 31.122C29.8163 31.3283 29.7004 31.6081 29.7004 31.8998V38.4998C29.7004 38.7915 29.8163 39.0713 30.0226 39.2776C30.2289 39.4839 30.5086 39.5998 30.8004 39.5998ZM31.9004 32.9998H36.3004V37.3998H31.9004V32.9998Z" fill="white"/>
<path d="M41.7997 39.5998H48.3997C48.6914 39.5998 48.9712 39.4839 49.1775 39.2776C49.3838 39.0713 49.4997 38.7915 49.4997 38.4998V31.8998C49.4997 31.6081 49.3838 31.3283 49.1775 31.122C48.9712 30.9157 48.6914 30.7998 48.3997 30.7998H41.7997C41.508 30.7998 41.2282 30.9157 41.0219 31.122C40.8156 31.3283 40.6997 31.6081 40.6997 31.8998V38.4998C40.6997 38.7915 40.8156 39.0713 41.0219 39.2776C41.2282 39.4839 41.508 39.5998 41.7997 39.5998ZM42.8997 32.9998H47.2997V37.3998H42.8997V32.9998Z" fill="white"/>
<path d="M15.3997 30.7998H8.79971C8.50797 30.7998 8.22818 30.9157 8.02189 31.122C7.8156 31.3283 7.69971 31.6081 7.69971 31.8998V38.4998C7.69971 38.7915 7.8156 39.0713 8.02189 39.2776C8.22818 39.4839 8.50797 39.5998 8.79971 39.5998H15.3997C15.6914 39.5998 15.9712 39.4839 16.1775 39.2776C16.3838 39.0713 16.4997 38.7915 16.4997 38.4998V31.8998C16.4997 31.6081 16.3838 31.3283 16.1775 31.122C15.9712 30.9157 15.6914 30.7998 15.3997 30.7998ZM14.2997 37.3998H9.89971V32.9998H14.2997V37.3998Z" fill="white"/>
<path d="M26.3995 39.5998C26.6912 39.5998 26.971 39.4839 27.1773 39.2776C27.3836 39.0713 27.4995 38.7915 27.4995 38.4998V31.8998C27.4995 31.6081 27.3836 31.3283 27.1773 31.122C26.971 30.9157 26.6912 30.7998 26.3995 30.7998H19.7995C19.5077 30.7998 19.2279 30.9157 19.0216 31.122C18.8154 31.3283 18.6995 31.6081 18.6995 31.8998V38.4998C18.6995 38.7915 18.8154 39.0713 19.0216 39.2776C19.2279 39.4839 19.5077 39.5998 19.7995 39.5998H26.3995ZM20.8995 32.9998H25.2995V37.3998H20.8995V32.9998Z" fill="white"/>
<path d="M15.3997 41.7998H8.79971C8.50797 41.7998 8.22818 41.9157 8.02189 42.122C7.8156 42.3283 7.69971 42.6081 7.69971 42.8998V49.4998C7.69971 49.7915 7.8156 50.0713 8.02189 50.2776C8.22818 50.4839 8.50797 50.5998 8.79971 50.5998H15.3997C15.6914 50.5998 15.9712 50.4839 16.1775 50.2776C16.3838 50.0713 16.4997 49.7915 16.4997 49.4998V42.8998C16.4997 42.6081 16.3838 42.3283 16.1775 42.122C15.9712 41.9157 15.6914 41.7998 15.3997 41.7998ZM14.2997 48.3998H9.89971V43.9998H14.2997V48.3998Z" fill="white"/>
</svg>
