<svg width="66" height="66" viewBox="0 0 66 66" fill="none" xmlns="http://www.w3.org/2000/svg">
<path d="M24.4834 37.2578H20.2253C18.4646 37.2578 17.0317 38.6907 17.0317 40.4514C17.0317 42.2121 18.4646 43.6449 20.2253 43.6449H24.4834C26.2441 43.6449 27.6769 42.2121 27.6769 40.4514C27.6769 38.6907 26.2441 37.2578 24.4834 37.2578ZM24.4834 41.5159H20.2253C19.6377 41.5159 19.1608 41.039 19.1608 40.4514C19.1608 39.8637 19.6377 39.3868 20.2253 39.3868H24.4834C25.071 39.3868 25.5479 39.8637 25.5479 40.4514C25.5479 41.039 25.071 41.5159 24.4834 41.5159Z" fill="white"/>
<path d="M53.2258 38.3769V21.2903C53.2258 19.5296 51.793 18.0968 50.0323 18.0968H27.0004C27.4358 16.7544 27.6774 15.3248 27.6774 13.8387C27.6774 6.20826 21.4692 0 13.8387 0C6.20826 0 0 6.20826 0 13.8387C0 21.1094 5.64087 27.076 12.7742 27.6231V44.7097C12.7742 46.4704 14.207 47.9032 15.9677 47.9032H38.9996C38.5642 49.2456 38.3226 50.6752 38.3226 52.1613C38.3226 59.7917 44.5308 66 52.1613 66C59.7917 66 66 59.7917 66 52.1613C66 44.8906 60.3591 38.924 53.2258 38.3769ZM22.6689 24.4839H51.0968V28.7419H14.9032V27.6231C17.8413 27.3985 20.5271 26.2627 22.6689 24.4839ZM50.0323 20.2258C50.6199 20.2258 51.0968 20.7027 51.0968 21.2903V22.3548H24.7234C25.245 21.6906 25.7081 20.9795 26.1019 20.2258H50.0323ZM2.12903 13.8387C2.12903 7.38242 7.38242 2.12903 13.8387 2.12903C20.295 2.12903 25.5484 7.38242 25.5484 13.8387C25.5484 20.295 20.295 25.5484 13.8387 25.5484C7.38242 25.5484 2.12903 20.295 2.12903 13.8387ZM15.9677 45.7742C15.3801 45.7742 14.9032 45.2973 14.9032 44.7097V30.871H51.0968V38.3769C46.2234 38.7505 42.0537 41.6513 39.897 45.7742H15.9677ZM52.1613 63.871C45.705 63.871 40.4516 58.6176 40.4516 52.1613C40.4516 45.705 45.705 40.4516 52.1613 40.4516C58.6176 40.4516 63.871 45.705 63.871 52.1613C63.871 58.6176 58.6176 63.871 52.1613 63.871Z" fill="white"/>
<path d="M50.4127 43.9115V44.9695C48.5179 45.5256 47.143 47.1441 47.143 49.051C47.143 51.4154 49.2581 53.3401 51.8569 53.3401C52.8462 53.3401 53.6824 53.9458 53.6824 54.6635C53.6824 55.3812 52.8462 55.987 51.8569 55.987C50.9399 55.987 50.2748 55.4843 50.0907 54.9883C49.8061 54.2224 48.9699 53.8383 48.2269 54.1297C47.4817 54.4211 47.1076 55.2774 47.3914 56.0433C47.8774 57.3541 49.0154 58.3395 50.4134 58.7465V59.803C50.4134 60.6215 51.0604 61.2859 51.8577 61.2859C52.6549 61.2859 53.3019 60.6215 53.3019 59.803V58.745C55.1967 58.189 56.5716 56.5705 56.5716 54.6643C56.5716 52.2999 54.4565 50.3752 51.8577 50.3752C50.8684 50.3752 50.0322 49.7695 50.0322 49.0518C50.0322 48.3341 50.8684 47.7283 51.8577 47.7283C52.8462 47.7283 53.5221 48.2948 53.655 48.8279C53.8536 49.6204 54.6385 50.1001 55.414 49.8948C56.186 49.6909 56.6517 48.8827 56.4531 48.0894C56.074 46.5754 54.8558 45.4233 53.3019 44.9732V43.9115C53.3019 43.093 52.6549 42.4287 51.8577 42.4287C51.0604 42.4287 50.4127 43.093 50.4127 43.9115Z" fill="white"/>
<path d="M12.6984 6.01183V6.93758C10.8036 7.42413 9.42871 8.84033 9.42871 10.5089C9.42871 12.5777 11.5438 14.2618 14.1426 14.2618C15.1319 14.2618 15.9681 14.7919 15.9681 15.4198C15.9681 16.0478 15.1319 16.5778 14.1426 16.5778C13.2256 16.5778 12.5605 16.138 12.3764 15.704C12.0918 15.0338 11.2556 14.6978 10.5126 14.9527C9.76738 15.2077 9.39333 15.957 9.67712 16.6271C10.1631 17.7741 11.3011 18.6363 12.6991 18.9924V19.9169C12.6991 20.6331 13.3461 21.2144 14.1434 21.2144C14.9406 21.2144 15.5876 20.6331 15.5876 19.9169V18.9911C17.4824 18.5046 18.8573 17.0884 18.8573 15.4205C18.8573 13.3517 16.7422 11.6675 14.1434 11.6675C13.1541 11.6675 12.3179 11.1375 12.3179 10.5095C12.3179 9.88155 13.1541 9.35153 14.1434 9.35153C15.1319 9.35153 15.8078 9.84717 15.9407 10.3136C16.1393 11.0071 16.9242 11.4268 17.6997 11.2471C18.4717 11.0687 18.9374 10.3616 18.7389 9.66747C18.3597 8.34275 17.1416 7.33461 15.5876 6.94082V6.01183C15.5876 5.29562 14.9406 4.71436 14.1434 4.71436C13.3461 4.71436 12.6984 5.29562 12.6984 6.01183Z" fill="white"/>
<path d="M59.515 30.7973L57.0581 28.9546L55.7806 30.6578L60.6774 34.3304L65.5742 30.6578L64.2968 28.9546L61.6589 30.9325C60.5955 16.0463 48.1523 4.25781 33 4.25781V6.38684C46.9324 6.38684 58.3898 17.1502 59.515 30.7973Z" fill="white"/>
<path d="M6.48501 35.2021L8.94191 37.0448L10.2183 35.3415L5.32256 31.6689L0.425781 35.3415L1.7032 37.0448L4.34107 35.0669C5.40452 49.9531 17.8477 61.7415 33 61.7415V59.6125C19.0676 59.6125 7.6102 48.8492 6.48501 35.2021Z" fill="white"/>
</svg>
