<svg width="47" height="48" viewBox="0 0 47 48" fill="none" xmlns="http://www.w3.org/2000/svg">
<path d="M21.5774 34.4984H16.873V36.0665H21.5774V34.4984Z" fill="#002A61"/>
<path d="M20.0091 21.9535H18.441C18.2331 21.9535 18.0337 21.8709 17.8866 21.7239C17.7396 21.5768 17.657 21.3774 17.657 21.1695H16.0889C16.0889 21.7933 16.3367 22.3916 16.7778 22.8327C17.2189 23.2738 17.8172 23.5216 18.441 23.5216V24.3057H20.0091V23.5216C20.633 23.5216 21.2312 23.2738 21.6724 22.8327C22.1135 22.3916 22.3613 21.7933 22.3613 21.1695C22.3613 20.5456 22.1135 19.9473 21.6724 19.5062C21.2312 19.0651 20.633 18.8173 20.0091 18.8173H18.441C18.2331 18.8173 18.0337 18.7347 17.8866 18.5877C17.7396 18.4406 17.657 18.2412 17.657 18.0332C17.657 17.8253 17.7396 17.6259 17.8866 17.4788C18.0337 17.3318 18.2331 17.2492 18.441 17.2492H20.0091C20.2171 17.2492 20.4165 17.3318 20.5635 17.4788C20.7106 17.6259 20.7932 17.8253 20.7932 18.0332H22.3613C22.3613 17.4094 22.1135 16.8111 21.6724 16.37C21.2312 15.9289 20.633 15.6811 20.0091 15.6811V14.897H18.441V15.6811C17.8172 15.6811 17.2189 15.9289 16.7778 16.37C16.3367 16.8111 16.0889 17.4094 16.0889 18.0332C16.0889 18.6571 16.3367 19.2554 16.7778 19.6965C17.2189 20.1376 17.8172 20.3854 18.441 20.3854H20.0091C20.2171 20.3854 20.4165 20.468 20.5635 20.615C20.7106 20.7621 20.7932 20.9615 20.7932 21.1695C20.7932 21.3774 20.7106 21.5768 20.5635 21.7239C20.4165 21.8709 20.2171 21.9535 20.0091 21.9535Z" fill="#002A61"/>
<path d="M44.3146 0H28.6335C28.1464 0.00250619 27.672 0.156228 27.2759 0.439932C26.8799 0.723636 26.5817 1.12332 26.4225 1.58379C26.376 1.57469 26.3288 1.56945 26.2814 1.56811H12.1684C10.7133 1.56977 9.31831 2.14854 8.2894 3.17745C7.26049 4.20636 6.68172 5.60138 6.68006 7.05648V16.5827L1.78757 25.0505C0.358527 27.5092 -0.238221 30.3637 0.0861705 33.189L1.18385 43.0916L0.423313 46.8864L1.96006 47.2L2.74411 43.2797C2.75846 43.1995 2.7611 43.1176 2.75195 43.0367L1.6386 33.0165C1.35881 30.5221 1.88938 28.004 3.15182 25.8346L6.68006 19.7189V29.8881L6.24099 30.6565L7.5974 31.4405L11.5177 24.6506C11.6199 24.4717 11.7565 24.3148 11.9197 24.1891C12.0829 24.0633 12.2694 23.9711 12.4685 23.9179C12.6675 23.8647 12.8752 23.8515 13.0794 23.879C13.2836 23.9065 13.4803 23.9742 13.6581 24.0783C13.8388 24.1772 13.997 24.3126 14.1225 24.4759C14.248 24.6393 14.3382 24.8269 14.3873 25.027C14.442 25.226 14.4562 25.434 14.4293 25.6387C14.4024 25.8434 14.3348 26.0406 14.2305 26.2187L11.4863 30.9701C11.4287 31.0733 11.3946 31.188 11.3865 31.3059C11.3783 31.4238 11.3964 31.5421 11.4393 31.6522L12.4507 34.169C12.7811 35.0054 12.9513 35.8964 12.9525 36.7956V37.8149C12.953 39.0935 12.6061 40.3483 11.9489 41.445L10.7101 43.5071C10.6383 43.6281 10.6004 43.7663 10.6003 43.907V47.0432H12.1684V44.1265L13.2896 42.2526C13.8494 41.3158 14.2246 40.2805 14.3951 39.2027H26.2814C27.7365 39.201 29.1315 38.6222 30.1604 37.5933C31.1893 36.5644 31.7681 35.1694 31.7698 33.7143V15.6811H33.3379V18.0724C33.3387 18.2282 33.3852 18.3803 33.4716 18.5099C33.558 18.6395 33.6805 18.7409 33.824 18.8016C33.9685 18.8583 34.1264 18.8715 34.2783 18.8395C34.4302 18.8074 34.5694 18.7315 34.6786 18.6213L37.5874 15.6811H44.3146C44.9379 15.6792 45.5351 15.4308 45.9758 14.9901C46.4165 14.5494 46.6649 13.9522 46.6668 13.3289V2.35216C46.6649 1.7289 46.4165 1.1317 45.9758 0.690988C45.5351 0.250275 44.9379 0.00186141 44.3146 0ZM12.1684 3.13621H26.2814V6.27243H8.32657C8.50963 5.38809 8.9914 4.59368 9.69099 4.02259C10.3906 3.4515 11.2654 3.13852 12.1684 3.13621ZM13.6346 22.4082C12.9452 21.0465 12.772 19.4813 13.1468 18.0017C13.5216 16.5221 14.4191 15.2281 15.6737 14.3588C16.9282 13.4895 18.455 13.1035 19.9719 13.2721C21.4889 13.4408 22.8936 14.1527 23.9265 15.2764C24.9594 16.4001 25.5509 17.8596 25.5915 19.3854C25.6322 20.9111 25.1193 22.4001 24.1477 23.5771C23.176 24.7542 21.8112 25.5399 20.3054 25.7891C18.7996 26.0383 17.2545 25.7342 15.9554 24.9329C15.9397 24.831 15.9319 24.7212 15.9084 24.6193C15.8013 24.2209 15.6167 23.8475 15.3651 23.5206C15.1135 23.1936 14.7999 22.9196 14.4422 22.714C14.1898 22.5724 13.9175 22.4693 13.6346 22.4082ZM30.2017 33.7143C30.2017 34.2291 30.1003 34.7389 29.9032 35.2145C29.7062 35.6901 29.4175 36.1223 29.0534 36.4863C28.6894 36.8504 28.2572 37.1391 27.7816 37.3361C27.306 37.5331 26.7962 37.6346 26.2814 37.6346H14.5206V36.7956C14.5237 35.6967 14.3133 34.6076 13.9012 33.5888L13.6424 32.9302H30.2017V33.7143ZM30.2017 31.3621H13.0701L15.5947 27.0028C15.6575 26.8852 15.7045 26.7519 15.7594 26.6343C17.4118 27.459 19.3008 27.6792 21.0986 27.2567C22.8964 26.8342 24.4895 25.7956 25.6016 24.3212C26.7136 22.8467 27.2744 21.0295 27.1865 19.1848C27.0987 17.3401 26.3678 15.5844 25.1207 14.2222C23.8736 12.8601 22.189 11.9776 20.3592 11.7278C18.5293 11.478 16.6698 11.8767 15.1033 12.8548C13.5367 13.8328 12.362 15.3284 11.7829 17.082C11.2039 18.8357 11.257 20.7367 11.9332 22.4553C11.1861 22.6862 10.5534 23.1901 10.1613 23.8666L8.24816 27.1753V7.84053H26.2814V13.3289C26.2832 13.9522 26.5317 14.5494 26.9724 14.9901C27.4131 15.4308 28.0103 15.6792 28.6335 15.6811H30.2017V31.3621ZM45.0987 13.3289C45.0987 13.5368 45.0161 13.7363 44.869 13.8833C44.722 14.0304 44.5226 14.113 44.3146 14.113H37.2581C37.1544 14.1134 37.0518 14.1344 36.9562 14.1748C36.8607 14.2152 36.7741 14.2741 36.7015 14.3482L34.906 16.1672V14.897C34.906 14.6891 34.8234 14.4896 34.6763 14.3426C34.5293 14.1956 34.3299 14.113 34.1219 14.113H28.6335C28.4256 14.113 28.2262 14.0304 28.0791 13.8833C27.9321 13.7363 27.8495 13.5368 27.8495 13.3289V2.35216C27.8495 2.14422 27.9321 1.94479 28.0791 1.79775C28.2262 1.65071 28.4256 1.56811 28.6335 1.56811H44.3146C44.5226 1.56811 44.722 1.65071 44.869 1.79775C45.0161 1.94479 45.0987 2.14422 45.0987 2.35216V13.3289Z" fill="#002A61"/>
<path d="M42.747 7.05652H30.2021V8.62462H42.747V7.05652Z" fill="#002A61"/>
<path d="M42.7465 3.92029H33.3379V5.48839H42.7465V3.92029Z" fill="#002A61"/>
<path d="M42.747 10.1928H30.2021V11.7609H42.747V10.1928Z" fill="#002A61"/>
<path d="M31.7703 3.92029H30.2021V5.48839H31.7703V3.92029Z" fill="#002A61"/>
</svg>
