<svg width="40" height="40" viewBox="0 0 40 40" fill="none" xmlns="http://www.w3.org/2000/svg">
<g clip-path="url(#clip0)">
<path d="M20.0002 23.1947C18.8967 23.1947 18.0421 22.6429 18.0421 22.1658C18.0421 21.6888 17.6563 21.303 17.1792 21.303C16.7021 21.303 16.3163 21.6888 16.3163 22.1658C16.3163 23.5058 17.5318 24.5886 19.1995 24.8582V25.7875C19.1995 26.2646 19.5853 26.6504 20.0624 26.6504C20.5395 26.6504 20.9253 26.2646 20.9253 25.7875V24.8375C22.5308 24.5388 23.6841 23.4726 23.6841 22.17C23.6841 20.8217 22.3317 19.6975 20.0707 19.1665C20.0251 19.1582 19.9836 19.1499 19.9421 19.1457C18.7598 18.8014 18.0421 18.2662 18.0421 17.9219C18.0421 17.4448 18.8967 16.8931 20.0002 16.8931C21.1037 16.8931 21.9583 17.4448 21.9583 17.9219C21.9583 18.399 22.3441 18.7848 22.8212 18.7848C23.2983 18.7848 23.6841 18.399 23.6841 17.9219C23.6841 16.6193 22.5308 15.5531 20.9253 15.2544V14.2214C20.9253 13.7444 20.5395 13.3585 20.0624 13.3585C19.5853 13.3585 19.1995 13.7444 19.1995 14.2214V15.2337C17.5318 15.4992 16.3163 16.5861 16.3163 17.9261C16.3163 19.2743 17.6687 20.3986 19.9297 20.9296C19.9753 20.9379 20.0168 20.9462 20.0583 20.9503C21.2406 21.2947 21.9583 21.8298 21.9583 22.1741C21.9583 22.6388 21.1037 23.1947 20.0002 23.1947Z" fill="#002A61"/>
<path d="M16.4654 39.6806C17.6436 39.8921 18.8384 40 20.0207 40C29.7034 40 37.9714 33.0761 39.6847 23.5304C41.6345 12.6779 34.387 2.26094 23.5345 0.315285C22.3605 0.10371 21.1616 -0.00415039 19.9792 -0.00415039C10.3007 -0.00415039 2.03274 6.91972 0.319405 16.4655C-1.6304 27.318 5.61291 37.7349 16.4654 39.6806ZM37.9879 23.2275C36.424 31.9477 28.8695 38.2742 20.0249 38.2742C19.3113 38.2742 18.5978 38.2327 17.8842 38.1456L19.2989 30.2717C19.5395 30.2883 19.776 30.3008 20.0166 30.3008C25.0031 30.3008 29.2636 26.733 30.1431 21.817C30.3754 20.5186 30.3505 19.2325 30.1099 18.0087L37.8179 15.9427C38.3489 18.2659 38.4318 20.7343 37.9879 23.2275ZM11.5577 18.4858C11.7859 17.208 12.292 16.0382 13.0056 15.0342C13.13 14.972 13.242 14.8807 13.3292 14.7604C13.3997 14.6609 13.4453 14.553 13.4702 14.4368C15.0549 12.5783 17.403 11.425 19.9917 11.425C20.4978 11.425 21.0122 11.4706 21.5183 11.5619C26.173 12.3958 29.2802 16.8637 28.4464 21.5184C27.7121 25.6088 24.1651 28.5833 20.0166 28.5833C19.6515 28.5833 19.2823 28.5584 18.9172 28.5128C18.8633 28.492 18.8093 28.4754 18.7471 28.463C18.6973 28.4547 18.6434 28.4505 18.5936 28.4505C18.5729 28.4505 18.5563 28.4547 18.5397 28.4547C18.5231 28.4505 18.5065 28.4505 18.4899 28.4464C13.8311 27.6042 10.7239 23.1404 11.5577 18.4858ZM19.9792 1.72163C21.062 1.72163 22.1531 1.8212 23.2317 2.01203C30.0518 3.23999 35.3122 8.1228 37.3532 14.2792L29.6328 16.3535C28.3883 13.0844 25.5092 10.5206 21.8212 9.86102C21.2155 9.75316 20.6015 9.69923 19.9917 9.69923C17.0172 9.69923 14.2999 10.9728 12.404 13.0429L5.87427 8.40489C9.24287 4.28957 14.3497 1.72163 19.9792 1.72163ZM2.01615 16.7725C2.47663 14.2004 3.45983 11.8399 4.84129 9.78635L11.3462 14.4036C10.6243 15.5237 10.1099 16.7973 9.86099 18.1788C8.89439 23.5719 12.3294 28.7492 17.5897 30.0145L16.1792 37.8677C6.59196 35.8224 0.269623 26.4883 2.01615 16.7725Z" fill="#002A61"/>
</g>
<defs>
<clipPath id="clip0">
<rect width="40" height="40" fill="white" transform="translate(40 40) rotate(-180)"/>
</clipPath>
</defs>
</svg>
