<svg width="41" height="41" viewBox="0 0 41 41" fill="none" xmlns="http://www.w3.org/2000/svg">
<path d="M21.3534 38.5834C30.6361 38.0709 38.0709 30.6361 38.5834 21.3534H36.6096C35.2614 21.3534 35.2614 19.3062 36.6096 19.3062H38.5834C38.0709 10.0235 30.6361 2.5888 21.3534 2.07624V4.05007C21.3534 5.39823 19.3062 5.39823 19.3062 4.05007V2.07624C10.0235 2.5888 2.5888 10.0235 2.07624 19.3062H4.05007C5.39823 19.3062 5.39823 21.3534 4.05007 21.3534H2.07624C2.5888 30.6361 10.0235 38.0709 19.3062 38.5834V36.6096C19.3062 35.2614 21.3534 35.2614 21.3534 36.6096V38.5834ZM27.947 19.3062C29.2951 19.3062 29.2951 21.3534 27.947 21.3534H20.3298C19.9161 21.3534 19.56 21.1084 19.3985 20.7553L14.2315 11.8058C13.5626 10.6446 15.3285 9.6256 15.999 10.7898L20.9158 19.3062H27.947ZM20.3298 0C31.5578 0 40.6597 9.10183 40.6597 20.3298C40.6597 31.5578 31.5578 40.6597 20.3298 40.6597C9.10183 40.6597 0 31.5578 0 20.3298C0 9.10183 9.10183 0 20.3298 0Z" fill="#002A61"/>
</svg>
