<svg width="40" height="44" viewBox="0 0 40 44" fill="none" xmlns="http://www.w3.org/2000/svg">
<path d="M18.2124 10.6206C15.3616 10.6206 12.5748 11.466 10.2045 13.0498C7.83417 14.6336 5.98672 16.8847 4.89577 19.5185C3.80483 22.1522 3.51939 25.0504 4.07555 27.8464C4.63171 30.6424 6.00448 33.2106 8.02029 35.2264C10.0361 37.2422 12.6044 38.615 15.4004 39.1712C18.1964 39.7273 21.0945 39.4419 23.7283 38.351C26.362 37.26 28.6132 35.4126 30.197 33.0422C31.7808 30.6719 32.6261 27.8851 32.6261 25.0344C32.6261 21.2116 31.1075 17.5454 28.4044 14.8423C25.7013 12.1392 22.0351 10.6206 18.2124 10.6206ZM28.833 25.793H31.1089C30.9279 28.9532 29.5909 31.9364 27.3527 34.1747C25.1144 36.413 22.1312 37.7499 18.971 37.9309V35.655C18.971 35.4538 18.8911 35.2609 18.7488 35.1186C18.6065 34.9763 18.4136 34.8964 18.2124 34.8964C18.0112 34.8964 17.8182 34.9763 17.6759 35.1186C17.5337 35.2609 17.4537 35.4538 17.4537 35.655V37.9309C14.3003 37.7409 11.3262 36.4 9.09583 34.1627C6.86544 31.9253 5.53388 28.947 5.35376 25.793H7.59169C7.79289 25.793 7.98584 25.7131 8.12811 25.5708C8.27038 25.4285 8.35031 25.2356 8.35031 25.0344C8.35031 24.8332 8.27038 24.6402 8.12811 24.4979C7.98584 24.3557 7.79289 24.2758 7.59169 24.2758H5.35376C5.54283 21.1284 6.87834 18.1594 9.10786 15.9299C11.3374 13.7004 14.3064 12.3648 17.4537 12.1758V14.4137C17.4537 14.6149 17.5337 14.8079 17.6759 14.9501C17.8182 15.0924 18.0112 15.1723 18.2124 15.1723C18.4136 15.1723 18.6065 15.0924 18.7488 14.9501C18.8911 14.8079 18.971 14.6149 18.971 14.4137V12.1758C22.125 12.3559 25.1033 13.6875 27.3406 15.9178C29.578 18.1482 30.9189 21.1223 31.1089 24.2758H28.833C28.6318 24.2758 28.4389 24.3557 28.2966 24.4979C28.1543 24.6402 28.0744 24.8332 28.0744 25.0344C28.0744 25.2356 28.1543 25.4285 28.2966 25.5708C28.4389 25.7131 28.6318 25.793 28.833 25.793Z" fill="#002A61"/>
<path d="M18.2122 16.6896C18.011 16.6896 17.8181 16.7696 17.6758 16.9118C17.5335 17.0541 17.4536 17.2471 17.4536 17.4483V25.7931C17.4536 25.9943 17.5335 26.1872 17.6758 26.3295C17.8181 26.4718 18.011 26.5517 18.2122 26.5517C18.4134 26.5517 18.6064 26.4718 18.7487 26.3295C18.8909 26.1872 18.9709 25.9943 18.9709 25.7931V17.4483C18.9709 17.2471 18.8909 17.0541 18.7487 16.9118C18.6064 16.7696 18.4134 16.6896 18.2122 16.6896Z" fill="#002A61"/>
<path d="M39.7724 10.7345L34.4089 5.37103C34.2668 5.22973 34.0745 5.15042 33.8741 5.15042C33.6737 5.15042 33.4814 5.22973 33.3393 5.37103L31.1924 7.51033C31.1213 7.58085 31.0648 7.66476 31.0263 7.7572C30.9878 7.84965 30.968 7.9488 30.968 8.04895C30.968 8.1491 30.9878 8.24825 31.0263 8.3407C31.0648 8.43314 31.1213 8.51705 31.1924 8.58757L32.2696 9.65722L30.4034 11.5234C27.8374 9.20043 24.6601 7.66047 21.2469 7.08551V4.55172H23.5227C23.7239 4.55172 23.9169 4.47179 24.0592 4.32952C24.2014 4.18725 24.2813 3.9943 24.2813 3.7931V0.758619C24.2813 0.557421 24.2014 0.364463 24.0592 0.222194C23.9169 0.0799257 23.7239 0 23.5227 0H12.9021C12.7009 0 12.5079 0.0799257 12.3656 0.222194C12.2234 0.364463 12.1434 0.557421 12.1434 0.758619V3.7931C12.1434 3.9943 12.2234 4.18725 12.3656 4.32952C12.5079 4.47179 12.7009 4.55172 12.9021 4.55172H15.1779V7.08551C11.3069 7.7386 7.75069 9.62537 5.03949 12.4645C2.32829 15.3036 0.607353 18.943 0.133272 22.8399C-0.340808 26.7369 0.457368 30.6827 2.40879 34.0891C4.36021 37.4954 7.36034 40.1798 10.9618 41.7419C14.5633 43.3041 18.5733 43.6603 22.3938 42.7576C26.2143 41.8548 29.6407 39.7414 32.162 36.7324C34.6834 33.7234 36.1647 29.9801 36.385 26.0606C36.6054 22.1411 35.553 18.2553 33.3848 14.9827L35.4862 12.8965L36.5558 13.9738C36.6267 14.0441 36.7108 14.0997 36.8032 14.1375C36.8956 14.1752 36.9946 14.1943 37.0944 14.1938C37.1943 14.1943 37.2932 14.1752 37.3857 14.1375C37.4781 14.0997 37.5622 14.0441 37.633 13.9738L39.7724 11.8269C39.844 11.7566 39.9011 11.6728 39.9401 11.5804C39.9792 11.4879 39.9995 11.3886 39.9999 11.2883C40.0016 11.1853 39.9822 11.0832 39.9431 10.988C39.904 10.8928 39.8459 10.8065 39.7724 10.7345ZM13.6607 3.03448V1.51724H22.7641V3.03448H13.6607ZM19.7296 4.55172V6.89585C19.2289 6.82757 18.7207 6.82757 18.2124 6.82757C17.7041 6.82757 17.1958 6.82757 16.6952 6.89585V4.55172H19.7296ZM34.902 25.0344C34.902 28.3353 33.9232 31.5621 32.0893 34.3067C30.2554 37.0513 27.6489 39.1904 24.5992 40.4536C21.5496 41.7168 18.1939 42.0474 14.9564 41.4034C11.7189 40.7594 8.74513 39.1699 6.41105 36.8358C4.07696 34.5017 2.48743 31.5279 1.84346 28.2904C1.19948 25.053 1.52999 21.6972 2.79319 18.6476C4.05639 15.598 6.19554 12.9914 8.94014 11.1575C11.6847 9.32364 14.9115 8.34481 18.2124 8.34481C22.6388 8.34481 26.8838 10.1032 30.0137 13.2331C33.1437 16.363 34.902 20.6081 34.902 25.0344ZM32.4744 13.7386C32.1634 13.3441 31.8296 12.98 31.4806 12.5855L33.3393 10.7345L33.8779 11.2655L34.4089 11.8041L32.4744 13.7386ZM37.0944 12.3427L36.0248 11.2655L34.9551 10.1958L32.8082 8.04895L33.8855 6.9793L38.1717 11.2655L37.0944 12.3427Z" fill="#002A61"/>
</svg>
