<svg width="42" height="42" viewBox="0 0 42 42" fill="none" xmlns="http://www.w3.org/2000/svg">
<path d="M15.8389 23.5806H13.2582C12.1911 23.5806 11.3228 24.449 11.3228 25.5161C11.3228 26.5831 12.1911 27.4515 13.2582 27.4515H15.8389C16.906 27.4515 17.7744 26.5831 17.7744 25.5161C17.7744 24.449 16.906 23.5806 15.8389 23.5806ZM15.8389 26.1612H13.2582C12.9021 26.1612 12.6131 25.8722 12.6131 25.5161C12.6131 25.1599 12.9021 24.8709 13.2582 24.8709H15.8389C16.195 24.8709 16.484 25.1599 16.484 25.5161C16.484 25.8722 16.195 26.1612 15.8389 26.1612Z" fill="#002A61"/>
<path d="M33.2581 24.2587V13.9032C33.2581 12.8361 32.3897 11.9677 31.3226 11.9677H17.3639C17.6277 11.1542 17.7742 10.2877 17.7742 9.3871C17.7742 4.76258 14.0116 1 9.3871 1C4.76258 1 1 4.76258 1 9.3871C1 13.7935 4.41871 17.4097 8.74194 17.7413V28.0968C8.74194 29.1639 9.61032 30.0323 10.6774 30.0323H24.6361C24.3723 30.8458 24.2258 31.7123 24.2258 32.6129C24.2258 37.2374 27.9884 41 32.6129 41C37.2374 41 41 37.2374 41 32.6129C41 28.2065 37.5813 24.5903 33.2581 24.2587ZM14.7387 15.8387H31.9677V18.4194H10.0323V17.7413C11.8129 17.6052 13.4406 16.9168 14.7387 15.8387ZM31.3226 13.2581C31.6787 13.2581 31.9677 13.5471 31.9677 13.9032V14.5484H15.9839C16.3 14.1458 16.5806 13.7148 16.8194 13.2581H31.3226ZM2.29032 9.3871C2.29032 5.47419 5.47419 2.29032 9.3871 2.29032C13.3 2.29032 16.4839 5.47419 16.4839 9.3871C16.4839 13.3 13.3 16.4839 9.3871 16.4839C5.47419 16.4839 2.29032 13.3 2.29032 9.3871ZM10.6774 28.7419C10.3213 28.7419 10.0323 28.4529 10.0323 28.0968V19.7097H31.9677V24.2587C29.0142 24.4852 26.4871 26.2432 25.18 28.7419H10.6774ZM32.6129 39.7097C28.7 39.7097 25.5161 36.5258 25.5161 32.6129C25.5161 28.7 28.7 25.5161 32.6129 25.5161C36.5258 25.5161 39.7097 28.7 39.7097 32.6129C39.7097 36.5258 36.5258 39.7097 32.6129 39.7097Z" fill="#002A61" stroke="#002A61" stroke-width="0.5"/>
<path d="M31.5529 27.6129V28.2541C30.4046 28.5911 29.5713 29.5721 29.5713 30.7278C29.5713 32.1607 30.8531 33.3272 32.4282 33.3272C33.0278 33.3272 33.5346 33.6943 33.5346 34.1293C33.5346 34.5642 33.0278 34.9314 32.4282 34.9314C31.8724 34.9314 31.4693 34.6267 31.3577 34.3261C31.1853 33.8619 30.6785 33.6292 30.2282 33.8058C29.7765 33.9823 29.5498 34.5013 29.7218 34.9655C30.0164 35.7599 30.7061 36.3571 31.5534 36.6038V37.2441C31.5534 37.7402 31.9455 38.1428 32.4287 38.1428C32.9118 38.1428 33.3039 37.7402 33.3039 37.2441V36.6029C34.4523 36.2659 35.2856 35.285 35.2856 34.1297C35.2856 32.6968 34.0037 31.5303 32.4287 31.5303C31.8291 31.5303 31.3223 31.1632 31.3223 30.7282C31.3223 30.2932 31.8291 29.9261 32.4287 29.9261C33.0278 29.9261 33.4374 30.2694 33.5179 30.5925C33.6383 31.0729 34.114 31.3636 34.584 31.2391C35.0519 31.1155 35.3342 30.6258 35.2138 30.145C34.984 29.2274 34.2457 28.5291 33.3039 28.2564V27.6129C33.3039 27.1168 32.9118 26.7142 32.4287 26.7142C31.9455 26.7142 31.5529 27.1168 31.5529 27.6129Z" fill="#002A61"/>
<path d="M8.696 4.64353V5.20459C7.54762 5.49947 6.71436 6.35777 6.71436 7.36901C6.71436 8.62285 7.99621 9.64353 9.57128 9.64353C10.1708 9.64353 10.6776 9.96475 10.6776 10.3453C10.6776 10.7259 10.1708 11.0472 9.57128 11.0472C9.01547 11.0472 8.61241 10.7806 8.50081 10.5176C8.32838 10.1114 7.82159 9.90774 7.37126 10.0623C6.91961 10.2168 6.69291 10.6709 6.8649 11.077C7.15944 11.7722 7.84916 12.2947 8.69643 12.5106V13.0708C8.69643 13.5049 9.08856 13.8572 9.57172 13.8572C10.0549 13.8572 10.447 13.5049 10.447 13.0708V12.5098C11.5954 12.2149 12.4286 11.3566 12.4286 10.3457C12.4286 9.0919 11.1468 8.07122 9.57172 8.07122C8.97215 8.07122 8.46536 7.75 8.46536 7.36941C8.46536 6.98881 8.97215 6.66759 9.57172 6.66759C10.1708 6.66759 10.5805 6.96797 10.661 7.25067C10.7814 7.67097 11.2571 7.92535 11.7271 7.81645C12.1949 7.70832 12.4772 7.27976 12.3569 6.85906C12.1271 6.0562 11.3888 5.44521 10.447 5.20655V4.64353C10.447 4.20946 10.0549 3.85718 9.57172 3.85718C9.08856 3.85718 8.696 4.20946 8.696 4.64353Z" fill="#002A61"/>
<path d="M37.0697 19.6651L35.5806 18.5483L34.8065 19.5806L37.7742 21.8064L40.7419 19.5806L39.9677 18.5483L38.369 19.747C37.7245 10.7251 30.1832 3.58057 21 3.58057V4.87089C29.4439 4.87089 36.3877 11.3941 37.0697 19.6651Z" fill="#002A61" stroke="#002A61" stroke-width="0.5"/>
<path d="M4.93056 22.3348L6.41959 23.4515L7.19314 22.4193L4.22604 20.1935L1.2583 22.4193L2.03249 23.4515L3.6312 22.2528C4.27572 31.2748 11.817 38.4193 21.0002 38.4193V37.129C12.5564 37.129 5.61249 30.6057 4.93056 22.3348Z" fill="#002A61" stroke="#002A61" stroke-width="0.5"/>
</svg>
