<svg width="26" height="31" viewBox="0 0 26 31" fill="none" xmlns="http://www.w3.org/2000/svg">
<circle cx="10.8679" cy="10.8679" r="10.8679" fill="#225AA7"/>
<path fill-rule="evenodd" clip-rule="evenodd" d="M8.67952 11.0312V16.6564C8.67952 16.7276 8.75101 16.7988 8.82249 16.7988H10.9313C11.0028 16.7988 11.0743 16.7276 11.0743 16.6564V10.9244H12.6113C12.6827 10.9244 12.7542 10.8531 12.7542 10.7819L12.8972 9.07302C12.8972 9.00181 12.8257 8.93061 12.7542 8.93061H11.0743V7.68452C11.0743 7.3997 11.3245 7.15048 11.6105 7.15048H12.79C12.8615 7.15048 12.933 7.07928 12.933 7.00807V5.29915C12.933 5.22794 12.8615 5.15674 12.79 5.15674H10.7884C9.64459 5.15674 8.67952 6.0824 8.67952 7.25729V8.93061H7.64297C7.57149 8.93061 7.5 8.96621 7.5 9.07302V10.7819C7.5 10.8531 7.57149 10.9244 7.64297 10.9244H8.67952V11.0312Z" fill="white"/>
</svg>
