<svg width="41" height="41" viewBox="0 0 41 41" fill="none" xmlns="http://www.w3.org/2000/svg">
<path d="M15.3643 28.9094C15.2766 28.9094 15.1897 28.9268 15.1087 28.9606C15.0276 28.9944 14.954 29.0439 14.8919 29.1063C14.8299 29.1688 14.7807 29.2429 14.7471 29.3245C14.7136 29.406 14.6963 29.4934 14.6963 29.5817V39.6664C14.6963 39.7547 14.7136 39.8421 14.7471 39.9237C14.7807 40.0053 14.8299 40.0794 14.8919 40.1418C14.954 40.2042 15.0276 40.2538 15.1087 40.2876C15.1897 40.3213 15.2766 40.3387 15.3643 40.3387H24.7163C24.804 40.3387 24.8909 40.3213 24.972 40.2876C25.053 40.2538 25.1266 40.2042 25.1887 40.1418C25.2507 40.0794 25.2999 40.0053 25.3335 39.9237C25.3671 39.8421 25.3843 39.7547 25.3843 39.6664V29.5817C25.3843 29.4934 25.3671 29.406 25.3335 29.3245C25.2999 29.2429 25.2507 29.1688 25.1887 29.1063C25.1266 29.0439 25.053 28.9944 24.972 28.9606C24.8909 28.9268 24.804 28.9094 24.7163 28.9094H15.3643ZM16.0323 33.6156H24.0483V35.6325H16.0323V33.6156ZM16.0323 30.254H24.0483V32.271H16.0323V30.254ZM24.0483 38.9941H16.0323V36.9772H24.0483V38.9941Z" fill="#002A61"/>
<path d="M0.668002 26.8925H2.00401V28.9094C1.91628 28.9094 1.82942 28.9268 1.74837 28.9606C1.66732 28.9944 1.59368 29.0439 1.53165 29.1063C1.46962 29.1687 1.42042 29.2429 1.38685 29.3244C1.35328 29.406 1.336 29.4934 1.336 29.5817V32.9433C1.336 33.0316 1.35328 33.119 1.38685 33.2006C1.42042 33.2821 1.46962 33.3562 1.53165 33.4187C1.59368 33.4811 1.66732 33.5306 1.74837 33.5644C1.82942 33.5982 1.91628 33.6156 2.00401 33.6156H2.67201V39.6664C2.67201 39.7547 2.68928 39.8421 2.72285 39.9237C2.75642 40.0052 2.80563 40.0794 2.86766 40.1418C2.92969 40.2042 3.00333 40.2537 3.08438 40.2875C3.16542 40.3213 3.25229 40.3387 3.34001 40.3387H12.692C12.7798 40.3387 12.8666 40.3213 12.9477 40.2875C13.0287 40.2537 13.1024 40.2042 13.1644 40.1418C13.2264 40.0794 13.2756 40.0052 13.3092 39.9237C13.3428 39.8421 13.3601 39.7547 13.36 39.6664V32.9433C13.3601 32.855 13.3428 32.7676 13.3092 32.686C13.2756 32.6044 13.2264 32.5303 13.1644 32.4679C13.1024 32.4054 13.0287 32.3559 12.9477 32.3221C12.8666 32.2883 12.7798 32.271 12.692 32.271H12.024V30.254C12.1118 30.254 12.1986 30.2366 12.2797 30.2028C12.3607 30.1691 12.4344 30.1195 12.4964 30.0571C12.5584 29.9947 12.6076 29.9206 12.6412 29.839C12.6748 29.7574 12.692 29.67 12.692 29.5817V26.2202C12.692 26.1319 12.6748 26.0444 12.6412 25.9629C12.6076 25.8813 12.5584 25.8072 12.4964 25.7447C12.4344 25.6823 12.3607 25.6328 12.2797 25.599C12.1986 25.5652 12.1118 25.5478 12.024 25.5478H10.688V22.8586C10.688 22.7703 10.6708 22.6829 10.6372 22.6013C10.6036 22.5197 10.5544 22.4456 10.4924 22.3832C10.4304 22.3208 10.3567 22.2712 10.2757 22.2375C10.1946 22.2037 10.1078 22.1863 10.02 22.1863H0.668002C0.580278 22.1863 0.493413 22.2037 0.412366 22.2375C0.331319 22.2712 0.257678 22.3208 0.195648 22.3832C0.133618 22.4456 0.0844129 22.5197 0.0508435 22.6013C0.0172741 22.6829 -2.5219e-06 22.7703 2.76114e-10 22.8586V26.2202C-2.5219e-06 26.3084 0.0172741 26.3959 0.0508435 26.4774C0.0844129 26.559 0.133618 26.6331 0.195648 26.6956C0.257678 26.758 0.331319 26.8075 0.412366 26.8413C0.493413 26.8751 0.580278 26.8925 0.668002 26.8925ZM12.024 33.6156V35.6325H4.00801V33.6156H12.024ZM12.024 38.9941H4.00801V36.9771H12.024V38.9941ZM10.688 32.271H2.67201V30.254H10.688V32.271ZM11.356 28.9094H3.34001V26.8925H11.356V28.9094ZM1.336 23.5309H9.35203V25.5478H1.336V23.5309Z" fill="#002A61"/>
<path d="M39.4118 22.1863H30.0597C29.972 22.1863 29.8851 22.2037 29.8041 22.2375C29.7231 22.2712 29.6494 22.3208 29.5874 22.3832C29.5254 22.4456 29.4762 22.5197 29.4426 22.6013C29.409 22.6829 29.3917 22.7703 29.3917 22.8586V25.5478H27.3877C27.3 25.5478 27.2131 25.5652 27.1321 25.599C27.051 25.6328 26.9774 25.6823 26.9154 25.7447C26.8533 25.8072 26.8041 25.8813 26.7706 25.9629C26.737 26.0444 26.7197 26.1319 26.7197 26.2202V29.5817C26.7197 29.67 26.737 29.7574 26.7706 29.839C26.8041 29.9206 26.8533 29.9947 26.9154 30.0571C26.9774 30.1195 27.051 30.1691 27.1321 30.2028C27.2131 30.2366 27.3 30.254 27.3877 30.254H28.0557V32.271H27.3877C27.3 32.271 27.2131 32.2883 27.1321 32.3221C27.051 32.3559 26.9774 32.4054 26.9154 32.4679C26.8533 32.5303 26.8041 32.6044 26.7706 32.686C26.737 32.7676 26.7197 32.855 26.7197 32.9433V39.6664C26.7197 39.7547 26.737 39.8421 26.7706 39.9237C26.8041 40.0052 26.8533 40.0794 26.9154 40.1418C26.9774 40.2042 27.051 40.2537 27.1321 40.2875C27.2131 40.3213 27.3 40.3387 27.3877 40.3387H36.7398C36.8275 40.3387 36.9144 40.3213 36.9954 40.2875C37.0764 40.2537 37.1501 40.2042 37.2121 40.1418C37.2741 40.0794 37.3233 40.0052 37.3569 39.9237C37.3905 39.8421 37.4078 39.7547 37.4078 39.6664V33.6156H38.0758C38.1635 33.6156 38.2504 33.5982 38.3314 33.5644C38.4124 33.5306 38.4861 33.4811 38.5481 33.4187C38.6102 33.3562 38.6594 33.2821 38.6929 33.2006C38.7265 33.119 38.7438 33.0316 38.7438 32.9433V29.5817C38.7438 29.4934 38.7265 29.406 38.6929 29.3244C38.6594 29.2429 38.6102 29.1687 38.5481 29.1063C38.4861 29.0439 38.4124 28.9944 38.3314 28.9606C38.2504 28.9268 38.1635 28.9094 38.0758 28.9094H37.4078V26.8925H39.4118C39.4995 26.8925 39.5864 26.8751 39.6674 26.8413C39.7485 26.8075 39.8221 26.758 39.8841 26.6956C39.9462 26.6331 39.9954 26.559 40.0289 26.4774C40.0625 26.3959 40.0798 26.3084 40.0798 26.2202V22.8586C40.0798 22.7703 40.0625 22.6829 40.0289 22.6013C39.9954 22.5197 39.9462 22.4456 39.8841 22.3832C39.8221 22.3208 39.7485 22.2712 39.6674 22.2375C39.5864 22.2037 39.4995 22.1863 39.4118 22.1863ZM36.0718 38.9941H28.0557V36.9771H36.0718V38.9941ZM36.0718 35.6325H28.0557V33.6156H36.0718V35.6325ZM37.4078 32.271H29.3917V30.254H37.4078V32.271ZM36.0718 28.9094H28.0557V26.8925H36.0718V28.9094ZM38.7438 25.5478H30.7277V23.5309H38.7438V25.5478Z" fill="#002A61"/>
<path d="M13.3605 23.5706V24.8755C13.3605 25.5106 13.5837 26.1252 13.9907 26.6104C14.3978 27.0957 14.9623 27.4203 15.5844 27.5267C16.2064 27.6332 16.8458 27.5146 17.3894 27.1921C17.9329 26.8695 18.3454 26.3637 18.5539 25.7643C18.956 26.0358 19.4238 26.1922 19.9074 26.2168C20.3909 26.2413 20.872 26.1331 21.2992 25.9037C21.7263 25.6743 22.0835 25.3323 22.3325 24.9144C22.5814 24.4964 22.7128 24.0182 22.7126 23.5309V23.1691C23.0872 23.3875 23.5091 23.5109 23.9417 23.5287C24.3743 23.5464 24.8047 23.458 25.1958 23.2711C25.5869 23.0841 25.927 22.8042 26.1867 22.4555C26.4463 22.1068 26.6178 21.6998 26.6864 21.2695C27.0427 21.4472 27.4383 21.5304 27.8355 21.5113C28.2328 21.4922 28.6186 21.3713 28.9565 21.1602C29.2943 20.949 29.5731 20.6546 29.7663 20.3047C29.9595 19.9549 30.0608 19.5612 30.0606 19.1609V0.672312C30.0606 0.584022 30.0433 0.496596 30.0097 0.415026C29.9762 0.333457 29.927 0.25934 29.8649 0.19691C29.8029 0.13448 29.7293 0.0849575 29.6482 0.0511715C29.5672 0.0173856 29.4803 -2.53817e-06 29.3926 2.77896e-10H17.3685C17.2808 -2.53817e-06 17.1939 0.0173856 17.1129 0.0511715C17.0318 0.0849575 16.9582 0.13448 16.8962 0.19691C16.8341 0.25934 16.7849 0.333457 16.7514 0.415026C16.7178 0.496596 16.7005 0.584022 16.7005 0.672312V4.53198L13.4446 10.4305C13.3895 10.5304 13.3605 10.6427 13.3605 10.757V12.7342C12.3576 13.2346 11.5135 14.007 10.9233 14.9643C10.3332 15.9216 10.0205 17.0258 10.0205 18.1524C10.0205 19.279 10.3332 20.3832 10.9233 21.3406C11.5135 22.2979 12.3576 23.0703 13.3605 23.5706ZM16.0325 26.2202C15.6783 26.2198 15.3387 26.078 15.0883 25.8259C14.8378 25.5738 14.6969 25.232 14.6965 24.8755V24.0508C15.1348 24.1518 15.5829 24.2029 16.0325 24.2032C16.482 24.2034 16.9301 24.1533 17.3685 24.054V24.8755C17.3681 25.232 17.2272 25.5738 16.9768 25.8259C16.7263 26.078 16.3867 26.2198 16.0325 26.2202ZM20.0405 24.8755C19.6943 24.875 19.3618 24.7392 19.113 24.4969C18.8643 24.2545 18.7186 23.9245 18.7068 23.5762C19.8559 23.0036 20.7918 22.0746 21.3765 20.926V23.5309C21.3761 23.8874 21.2353 24.2292 20.9848 24.4813C20.7343 24.7333 20.3947 24.8751 20.0405 24.8755ZM18.0365 1.34462H28.7246V4.03387H18.0365V1.34462ZM14.6965 10.9312L17.7616 5.3785H28.7246V19.1609C28.7246 19.4284 28.619 19.6849 28.4311 19.874C28.2432 20.0631 27.9883 20.1694 27.7226 20.1694C27.4568 20.1694 27.202 20.0631 27.014 19.874C26.8261 19.6849 26.7206 19.4284 26.7206 19.1609V16.1355H25.3846V20.8417C25.3846 21.1983 25.2438 21.5403 24.9933 21.7925C24.7427 22.0446 24.4029 22.1863 24.0486 22.1863C23.6942 22.1863 23.3544 22.0446 23.1039 21.7925C22.8533 21.5403 22.7126 21.1983 22.7126 20.8417V20.4799C23.1185 20.2439 23.4556 19.9046 23.6901 19.4961C23.9246 19.0876 24.0482 18.6242 24.0486 18.1524V14.4547L24.8501 13.8496C25.4296 13.41 25.9 12.8414 26.2245 12.1882C26.5491 11.535 26.7188 10.815 26.7206 10.0847V8.06774H25.3846V10.0847C25.3833 10.6063 25.2621 11.1206 25.0303 11.5872C24.7985 12.0538 24.4624 12.46 24.0485 12.7739L22.9797 13.5807C22.8968 13.6433 22.8294 13.7245 22.7831 13.8179C22.7367 13.9112 22.7126 14.0142 22.7126 14.1186V18.1524C22.7126 18.509 22.5718 18.8511 22.3212 19.1032C22.0707 19.3554 21.7309 19.497 21.3765 19.497C21.0222 19.497 20.6824 19.3554 20.4318 19.1032C20.1813 18.8511 20.0405 18.509 20.0405 18.1524V9.41237H18.7045V12.733C17.4638 12.1117 16.0474 11.9424 14.6965 12.2541V10.9312ZM16.0325 13.4462C16.9886 13.4426 17.9222 13.7377 18.7045 14.2907V18.1524C18.7049 18.6328 18.833 19.1042 19.0755 19.5179C19.3181 19.9316 19.6662 20.2724 20.0838 20.505C19.6736 21.2206 19.0834 21.815 18.3725 22.2284C17.6617 22.6417 16.8553 22.8594 16.0343 22.8596C15.2134 22.8599 14.4068 22.6426 13.6958 22.2296C12.9847 21.8167 12.3942 21.2226 11.9836 20.5072C11.5729 19.7917 11.3567 18.9801 11.3565 18.1538C11.3564 17.3276 11.5723 16.5159 11.9827 15.8003C12.393 15.0846 12.9833 14.4904 13.6942 14.0771C14.4051 13.6639 15.2116 13.4463 16.0325 13.4462Z" fill="#002A61"/>
<path d="M15.791 20.0403C15.361 20.0403 15.028 19.8019 15.028 19.5958C15.028 19.3897 14.8776 19.2231 14.6917 19.2231C14.5058 19.2231 14.3555 19.3897 14.3555 19.5958C14.3555 20.1747 14.8291 20.6425 15.479 20.759V21.1604C15.479 21.3665 15.6294 21.5332 15.8153 21.5332C16.0012 21.5332 16.1515 21.3665 16.1515 21.1604V20.75C16.7771 20.621 17.2266 20.1604 17.2266 19.5976C17.2266 19.0152 16.6996 18.5295 15.8185 18.3001C15.8007 18.2965 15.7846 18.2929 15.7684 18.2911C15.3077 18.1424 15.028 17.9112 15.028 17.7624C15.028 17.5563 15.361 17.318 15.791 17.318C16.221 17.318 16.5541 17.5563 16.5541 17.7624C16.5541 17.9685 16.7044 18.1352 16.8903 18.1352C17.0762 18.1352 17.2266 17.9685 17.2266 17.7624C17.2266 17.1997 16.7771 16.7391 16.1515 16.6101V16.1638C16.1515 15.9577 16.0012 15.791 15.8153 15.791C15.6294 15.791 15.479 15.9577 15.479 16.1638V16.6011C14.8291 16.7158 14.3555 17.1854 14.3555 17.7642C14.3555 18.3467 14.8825 18.8324 15.7635 19.0618C15.7813 19.0654 15.7975 19.0689 15.8137 19.0707C16.2744 19.2195 16.5541 19.4507 16.5541 19.5994C16.5541 19.8002 16.221 20.0403 15.791 20.0403Z" fill="#002A61"/>
</svg>
