<svg width="594" height="273" viewBox="0 0 594 273" fill="none" xmlns="http://www.w3.org/2000/svg">
<path d="M39.4219 37H30.6562V2.6875H40.4297C44.2266 2.6875 46.9219 2.875 48.5156 3.25C50.0781 3.65625 51.3828 4.29688 52.4297 5.17188C53.6797 6.21875 54.6406 7.51562 55.3125 9.0625C55.9844 10.6406 56.3203 12.3984 56.3203 14.3359C56.3203 16.3984 55.9844 18.1953 55.3125 19.7266C54.7188 21.2734 53.7578 22.5547 52.4297 23.5703C51.4766 24.3203 50.3281 24.8594 48.9844 25.1875C47.7812 25.5156 45.6875 25.6797 42.7031 25.6797H41.1094H39.4219V37ZM39.4219 18.1328H41.2031C43.4219 18.1328 44.9922 17.8125 45.9141 17.1719C46.8047 16.5781 47.25 15.5391 47.25 14.0547C47.25 12.6328 46.8125 11.6172 45.9375 11.0078C45.0781 10.3828 43.5312 10.0703 41.2969 10.0703H39.4219V18.1328ZM61.0781 37V2.6875H70.8516C72.7422 2.6875 74.3359 2.72656 75.6328 2.80469C76.9453 2.88281 78.0234 3.01562 78.8672 3.20312C80.3203 3.54688 81.6172 4.14062 82.7578 4.98438C84.0078 5.92188 84.9531 7.125 85.5938 8.59375C86.2656 10 86.6016 11.5938 86.6016 13.375C86.6016 16.0156 85.9453 18.1797 84.6328 19.8672C83.3516 21.5547 81.4531 22.6562 78.9375 23.1719L88.2891 37H77.7188L69.8438 23.5703V37H61.0781ZM69.8438 18.9062H71.5781C73.625 18.9062 75.1016 18.5703 76.0078 17.8984C76.9297 17.1484 77.3906 16.0625 77.3906 14.6406C77.3906 12.9219 76.9609 11.7031 76.1016 10.9844C75.2266 10.25 73.7656 9.88281 71.7188 9.88281H69.8438V18.9062ZM127.102 19.9141C127.102 22.3984 126.656 24.7188 125.766 26.875C124.875 28.9844 123.547 30.9062 121.781 32.6406C120.031 34.3281 118.031 35.625 115.781 36.5312C113.422 37.4531 111.086 37.9141 108.773 37.9141C106.43 37.9141 104.094 37.4531 101.766 36.5312C99.4688 35.6094 97.4844 34.3125 95.8125 32.6406C94.125 31.0312 92.7969 29.0938 91.8281 26.8281C90.8906 24.6094 90.4219 22.3047 90.4219 19.9141C90.4219 17.5234 90.8906 15.2188 91.8281 13C92.7969 10.7344 94.125 8.79688 95.8125 7.1875C97.5312 5.46875 99.5156 4.15625 101.766 3.25C103.953 2.35938 106.289 1.91406 108.773 1.91406C111.258 1.91406 113.609 2.36719 115.828 3.27344C118.047 4.16406 120.023 5.46875 121.758 7.1875C123.508 8.90625 124.844 10.8438 125.766 13C126.656 15.1562 127.102 17.4609 127.102 19.9141ZM108.773 29.9922C111.352 29.9922 113.508 29.0312 115.242 27.1094C116.102 26.1562 116.734 25.0859 117.141 23.8984C117.547 22.7109 117.75 21.3828 117.75 19.9141C117.75 17.0547 116.898 14.6562 115.195 12.7188C113.461 10.7969 111.32 9.83594 108.773 9.83594C106.164 9.83594 104.016 10.7969 102.328 12.7188C100.641 14.6406 99.7969 17.0391 99.7969 19.9141C99.7969 22.8984 100.625 25.3125 102.281 27.1562C103.984 29.0469 106.148 29.9922 108.773 29.9922ZM132.984 37V2.6875H140.133C145.539 2.6875 149.312 2.9375 151.453 3.4375C153.672 3.9375 155.609 4.77344 157.266 5.94531C159.453 7.44531 161.102 9.38281 162.211 11.7578C163.336 14.1484 163.898 16.8516 163.898 19.8672C163.898 22.8828 163.336 25.5859 162.211 27.9766C161.102 30.3203 159.453 32.2578 157.266 33.7891C155.547 34.9609 153.656 35.7734 151.594 36.2266C149.531 36.7422 146.234 37 141.703 37H140.133H132.984ZM142.242 29.3125H143.812C147.5 29.3125 150.18 28.5469 151.852 27.0156C153.539 25.5156 154.383 23.1328 154.383 19.8672C154.383 16.6172 153.539 14.2188 151.852 12.6719C150.164 11.125 147.484 10.3516 143.812 10.3516H142.242V29.3125ZM169.523 2.6875H178.898V19.375C178.898 21.9219 178.961 23.6875 179.086 24.6719C179.242 25.8438 179.453 26.7344 179.719 27.3438C180.047 28.2344 180.664 28.8906 181.57 29.3125C182.477 29.7969 183.57 30.0391 184.852 30.0391C186.117 30.0391 187.203 29.7969 188.109 29.3125C188.938 28.9062 189.562 28.25 189.984 27.3438C190.234 26.7188 190.438 25.8281 190.594 24.6719C190.734 23.7344 190.805 21.9688 190.805 19.375V17.0312V2.6875H200.109V20.8281C200.109 24.5469 199.883 27.3125 199.43 29.125C199.008 30.9219 198.242 32.4609 197.133 33.7422C195.914 35.1641 194.297 36.2031 192.281 36.8594C190.281 37.5625 187.805 37.9141 184.852 37.9141C181.836 37.9141 179.352 37.5625 177.398 36.8594C175.414 36.2031 173.797 35.1641 172.547 33.7422C171.469 32.4922 170.703 30.9531 170.25 29.125C169.766 27.2812 169.523 24.5156 169.523 20.8281V17.2656V2.6875ZM232.102 4.02344V14.2422C230.758 12.7891 229.492 11.7344 228.305 11.0781C226.977 10.4375 225.602 10.1172 224.18 10.1172C221.508 10.1172 219.328 11.0312 217.641 12.8594C217.062 13.5156 216.594 14.2031 216.234 14.9219C215.875 15.625 215.602 16.4297 215.414 17.3359C215.242 18.2266 215.156 19.1328 215.156 20.0547C215.156 22.8047 216 25.0938 217.688 26.9219C219.391 28.7188 221.555 29.6172 224.18 29.6172C225.586 29.6172 226.961 29.2812 228.305 28.6094C229.492 28 230.758 26.9531 232.102 25.4688V35.7109C230.367 36.5234 228.891 37.0625 227.672 37.3281C226.156 37.6875 224.672 37.8672 223.219 37.8672C221.375 37.8672 219.641 37.6406 218.016 37.1875C216.391 36.75 214.938 36.0781 213.656 35.1719C211.094 33.4219 209.141 31.2656 207.797 28.7031C206.453 26.0469 205.781 23.1016 205.781 19.8672C205.781 17.2734 206.219 14.8906 207.094 12.7188C207.484 11.6719 207.977 10.6875 208.57 9.76562C209.18 8.82812 209.961 7.85938 210.914 6.85938C212.555 5.17188 214.398 3.92188 216.445 3.10938C218.477 2.28125 220.734 1.86719 223.219 1.86719C224.641 1.86719 226.125 2.03906 227.672 2.38281C229.203 2.78906 230.68 3.33594 232.102 4.02344ZM242.32 37V10.7969H234.633V2.6875H259.359V10.7969H251.672V37H242.32ZM299.18 19.9141C299.18 22.3984 298.734 24.7188 297.844 26.875C296.953 28.9844 295.625 30.9062 293.859 32.6406C292.109 34.3281 290.109 35.625 287.859 36.5312C285.5 37.4531 283.164 37.9141 280.852 37.9141C278.508 37.9141 276.172 37.4531 273.844 36.5312C271.547 35.6094 269.562 34.3125 267.891 32.6406C266.203 31.0312 264.875 29.0938 263.906 26.8281C262.969 24.6094 262.5 22.3047 262.5 19.9141C262.5 17.5234 262.969 15.2188 263.906 13C264.875 10.7344 266.203 8.79688 267.891 7.1875C269.609 5.46875 271.594 4.15625 273.844 3.25C276.031 2.35938 278.367 1.91406 280.852 1.91406C283.336 1.91406 285.688 2.36719 287.906 3.27344C290.125 4.16406 292.102 5.46875 293.836 7.1875C295.586 8.90625 296.922 10.8438 297.844 13C298.734 15.1562 299.18 17.4609 299.18 19.9141ZM280.852 29.9922C283.43 29.9922 285.586 29.0312 287.32 27.1094C288.18 26.1562 288.812 25.0859 289.219 23.8984C289.625 22.7109 289.828 21.3828 289.828 19.9141C289.828 17.0547 288.977 14.6562 287.273 12.7188C285.539 10.7969 283.398 9.83594 280.852 9.83594C278.242 9.83594 276.094 10.7969 274.406 12.7188C272.719 14.6406 271.875 17.0391 271.875 19.9141C271.875 22.8984 272.703 25.3125 274.359 27.1562C276.062 29.0469 278.227 29.9922 280.852 29.9922ZM320.109 37V2.6875H327.258C332.664 2.6875 336.438 2.9375 338.578 3.4375C340.797 3.9375 342.734 4.77344 344.391 5.94531C346.578 7.44531 348.227 9.38281 349.336 11.7578C350.461 14.1484 351.023 16.8516 351.023 19.8672C351.023 22.8828 350.461 25.5859 349.336 27.9766C348.227 30.3203 346.578 32.2578 344.391 33.7891C342.672 34.9609 340.781 35.7734 338.719 36.2266C336.656 36.7422 333.359 37 328.828 37H327.258H320.109ZM329.367 29.3125H330.938C334.625 29.3125 337.305 28.5469 338.977 27.0156C340.664 25.5156 341.508 23.1328 341.508 19.8672C341.508 16.6172 340.664 14.2188 338.977 12.6719C337.289 11.125 334.609 10.3516 330.938 10.3516H329.367V29.3125ZM356.906 37V2.6875H377.93V10.2109H366.023V16.1641H377.25V23.5234H366.023V29.3125H377.93V37H356.906ZM30.6562 85V50.6875H51.6797V58.2109H39.7734V64.1641H51V71.5234H39.7734V85H30.6562ZM57 85V50.6875H66.4453V85H57ZM74.0156 85V50.6875H83.0391L96 68.3359C96.3281 68.8203 96.7422 69.5469 97.2422 70.5156C97.8828 71.7656 98.5078 73.0547 99.1172 74.3828C98.8828 72.5859 98.75 71.3281 98.7188 70.6094C98.625 69.4844 98.5781 68.4922 98.5781 67.6328V50.6875H107.555V85H98.5781L85.6172 67.2812C85.4297 67.0312 85.0156 66.2969 84.375 65.0781C83.8125 64.0781 83.1875 62.8125 82.5 61.2812C82.6562 62.5 82.8047 63.7656 82.9453 65.0781C83.0078 66.5469 83.0391 67.5391 83.0391 68.0547V85H74.0156ZM124.008 72.1797H133.312L129.82 60.8594C129.742 60.6562 129.594 60.0938 129.375 59.1719C129.109 58.0938 128.867 57.1172 128.648 56.2422C128.43 57.0391 128.242 57.8438 128.086 58.6562C127.836 59.4375 127.625 60.1719 127.453 60.8594L124.008 72.1797ZM110.906 85L122.742 50.6875H134.461L146.32 85H137.016L135.281 78.8594H121.992L120.211 85H110.906ZM149.625 85V50.6875H158.648L171.609 68.3359C171.938 68.8203 172.352 69.5469 172.852 70.5156C173.492 71.7656 174.117 73.0547 174.727 74.3828C174.492 72.5859 174.359 71.3281 174.328 70.6094C174.234 69.4844 174.188 68.4922 174.188 67.6328V50.6875H183.164V85H174.188L161.227 67.2812C161.039 67.0312 160.625 66.2969 159.984 65.0781C159.422 64.0781 158.797 62.8125 158.109 61.2812C158.266 62.5 158.414 63.7656 158.555 65.0781C158.617 66.5469 158.648 67.5391 158.648 68.0547V85H149.625ZM215.414 52.0234V62.2422C214.07 60.7891 212.805 59.7344 211.617 59.0781C210.289 58.4375 208.914 58.1172 207.492 58.1172C204.82 58.1172 202.641 59.0312 200.953 60.8594C200.375 61.5156 199.906 62.2031 199.547 62.9219C199.188 63.625 198.914 64.4297 198.727 65.3359C198.555 66.2266 198.469 67.1328 198.469 68.0547C198.469 70.8047 199.312 73.0938 201 74.9219C202.703 76.7188 204.867 77.6172 207.492 77.6172C208.898 77.6172 210.273 77.2812 211.617 76.6094C212.805 76 214.07 74.9531 215.414 73.4688V83.7109C213.68 84.5234 212.203 85.0625 210.984 85.3281C209.469 85.6875 207.984 85.8672 206.531 85.8672C204.688 85.8672 202.953 85.6406 201.328 85.1875C199.703 84.75 198.25 84.0781 196.969 83.1719C194.406 81.4219 192.453 79.2656 191.109 76.7031C189.766 74.0469 189.094 71.1016 189.094 67.8672C189.094 65.2734 189.531 62.8906 190.406 60.7188C190.797 59.6719 191.289 58.6875 191.883 57.7656C192.492 56.8281 193.273 55.8594 194.227 54.8594C195.867 53.1719 197.711 51.9219 199.758 51.1094C201.789 50.2812 204.047 49.8672 206.531 49.8672C207.953 49.8672 209.438 50.0391 210.984 50.3828C212.516 50.7891 213.992 51.3359 215.414 52.0234ZM220.922 85V50.6875H230.367V85H220.922ZM247.008 72.1797H256.312L252.82 60.8594C252.742 60.6562 252.594 60.0938 252.375 59.1719C252.109 58.0938 251.867 57.1172 251.648 56.2422C251.43 57.0391 251.242 57.8438 251.086 58.6562C250.836 59.4375 250.625 60.1719 250.453 60.8594L247.008 72.1797ZM233.906 85L245.742 50.6875H257.461L269.32 85H260.016L258.281 78.8594H244.992L243.211 85H233.906ZM311.977 85H303.234L301.219 70.1641C301.047 68.8359 300.922 67.6719 300.844 66.6719C300.734 65.6875 300.625 64.2891 300.516 62.4766C300.234 64.1016 299.797 65.9141 299.203 67.9141C299.078 68.3047 298.984 68.6406 298.922 68.9219L294.258 85H288.023L283.359 68.9219C283.312 68.6562 283.219 68.3203 283.078 67.9141C282.422 65.8047 281.992 63.9922 281.789 62.4766C281.664 64.1953 281.547 65.4766 281.438 66.3203C281.391 66.7578 281.32 67.3984 281.227 68.2422C281.133 69.0859 281.062 69.7266 281.016 70.1641L279 85H270.305L275.602 50.6875H284.859L290.039 68.3828C290.133 68.7109 290.195 68.9219 290.227 69.0156C290.68 70.4844 290.984 71.8281 291.141 73.0469C291.172 72.625 291.289 71.9375 291.492 70.9844C291.555 70.75 291.789 69.8672 292.195 68.3359L297.422 50.6875H306.703L311.977 85ZM317.25 85V50.6875H326.695V85H317.25ZM334.266 85V50.6875H355.289V58.2109H343.383V64.1641H354.609V71.5234H343.383V77.3125H355.289V85H334.266ZM361.5 85V50.6875H370.523L383.484 68.3359C383.812 68.8203 384.227 69.5469 384.727 70.5156C385.367 71.7656 385.992 73.0547 386.602 74.3828C386.367 72.5859 386.234 71.3281 386.203 70.6094C386.109 69.4844 386.062 68.4922 386.062 67.6328V50.6875H395.039V85H386.062L373.102 67.2812C372.914 67.0312 372.5 66.2969 371.859 65.0781C371.297 64.0781 370.672 62.8125 369.984 61.2812C370.141 62.5 370.289 63.7656 370.43 65.0781C370.492 66.5469 370.523 67.5391 370.523 68.0547V85H361.5ZM407.367 85V58.7969H399.68V50.6875H424.406V58.7969H416.719V85H407.367ZM464.227 67.9141C464.227 70.3984 463.781 72.7188 462.891 74.875C462 76.9844 460.672 78.9062 458.906 80.6406C457.156 82.3281 455.156 83.625 452.906 84.5312C450.547 85.4531 448.211 85.9141 445.898 85.9141C443.555 85.9141 441.219 85.4531 438.891 84.5312C436.594 83.6094 434.609 82.3125 432.938 80.6406C431.25 79.0312 429.922 77.0938 428.953 74.8281C428.016 72.6094 427.547 70.3047 427.547 67.9141C427.547 65.5234 428.016 63.2188 428.953 61C429.922 58.7344 431.25 56.7969 432.938 55.1875C434.656 53.4688 436.641 52.1562 438.891 51.25C441.078 50.3594 443.414 49.9141 445.898 49.9141C448.383 49.9141 450.734 50.3672 452.953 51.2734C455.172 52.1641 457.148 53.4688 458.883 55.1875C460.633 56.9062 461.969 58.8438 462.891 61C463.781 63.1562 464.227 65.4609 464.227 67.9141ZM445.898 77.9922C448.477 77.9922 450.633 77.0312 452.367 75.1094C453.227 74.1562 453.859 73.0859 454.266 71.8984C454.672 70.7109 454.875 69.3828 454.875 67.9141C454.875 65.0547 454.023 62.6562 452.32 60.7188C450.586 58.7969 448.445 57.8359 445.898 57.8359C443.289 57.8359 441.141 58.7969 439.453 60.7188C437.766 62.6406 436.922 65.0391 436.922 67.9141C436.922 70.8984 437.75 73.3125 439.406 75.1562C441.109 77.0469 443.273 77.9922 445.898 77.9922ZM39.4219 133H30.6562V98.6875H40.4297C44.2266 98.6875 46.9219 98.875 48.5156 99.25C50.0781 99.6562 51.3828 100.297 52.4297 101.172C53.6797 102.219 54.6406 103.516 55.3125 105.062C55.9844 106.641 56.3203 108.398 56.3203 110.336C56.3203 112.398 55.9844 114.195 55.3125 115.727C54.7188 117.273 53.7578 118.555 52.4297 119.57C51.4766 120.32 50.3281 120.859 48.9844 121.188C47.7812 121.516 45.6875 121.68 42.7031 121.68H41.1094H39.4219V133ZM39.4219 114.133H41.2031C43.4219 114.133 44.9922 113.812 45.9141 113.172C46.8047 112.578 47.25 111.539 47.25 110.055C47.25 108.633 46.8125 107.617 45.9375 107.008C45.0781 106.383 43.5312 106.07 41.2969 106.07H39.4219V114.133ZM61.0781 133V98.6875H82.1016V106.211H70.1953V112.164H81.4219V119.523H70.1953V125.312H82.1016V133H61.0781ZM88.3125 133V98.6875H97.3359L110.297 116.336C110.625 116.82 111.039 117.547 111.539 118.516C112.18 119.766 112.805 121.055 113.414 122.383C113.18 120.586 113.047 119.328 113.016 118.609C112.922 117.484 112.875 116.492 112.875 115.633V98.6875H121.852V133H112.875L99.9141 115.281C99.7266 115.031 99.3125 114.297 98.6719 113.078C98.1094 112.078 97.4844 110.812 96.7969 109.281C96.9531 110.5 97.1016 111.766 97.2422 113.078C97.3047 114.547 97.3359 115.539 97.3359 116.055V133H88.3125ZM130.758 121.914C132.195 123.508 133.57 124.688 134.883 125.453C136.258 126.234 137.602 126.625 138.914 126.625C140.148 126.625 141.172 126.289 141.984 125.617C142.797 124.945 143.203 124.094 143.203 123.062C143.203 121.938 142.867 121.055 142.195 120.414C141.477 119.805 139.891 119.172 137.438 118.516C134.094 117.609 131.727 116.438 130.336 115C128.93 113.531 128.227 111.531 128.227 109C128.227 105.719 129.328 103.047 131.531 100.984C133.703 98.9062 136.547 97.8672 140.062 97.8672C142.047 97.8672 143.844 98.125 145.453 98.6406C147.141 99.1562 148.742 99.9219 150.258 100.938L147.328 107.664C146.297 106.773 145.203 106.086 144.047 105.602C142.922 105.148 141.82 104.922 140.742 104.922C139.648 104.922 138.734 105.195 138 105.742C137.297 106.258 136.945 106.945 136.945 107.805C136.945 108.633 137.25 109.32 137.859 109.867C138.5 110.383 139.703 110.875 141.469 111.344C141.531 111.359 141.586 111.375 141.633 111.391C141.68 111.391 141.75 111.406 141.844 111.438C145.656 112.453 148.172 113.594 149.391 114.859C150.188 115.656 150.812 116.664 151.266 117.883C151.672 119.039 151.875 120.352 151.875 121.82C151.875 125.445 150.68 128.375 148.289 130.609C145.883 132.812 142.695 133.914 138.727 133.914C136.289 133.914 134.109 133.516 132.188 132.719C130.281 131.922 128.398 130.641 126.539 128.875L130.758 121.914ZM166.195 120.18H175.5L172.008 108.859C171.93 108.656 171.781 108.094 171.562 107.172C171.297 106.094 171.055 105.117 170.836 104.242C170.617 105.039 170.43 105.844 170.273 106.656C170.023 107.438 169.812 108.172 169.641 108.859L166.195 120.18ZM153.094 133L164.93 98.6875H176.648L188.508 133H179.203L177.469 126.859H164.18L162.398 133H153.094ZM191.812 133V98.6875H198.961C204.367 98.6875 208.141 98.9375 210.281 99.4375C212.5 99.9375 214.438 100.773 216.094 101.945C218.281 103.445 219.93 105.383 221.039 107.758C222.164 110.148 222.727 112.852 222.727 115.867C222.727 118.883 222.164 121.586 221.039 123.977C219.93 126.32 218.281 128.258 216.094 129.789C214.375 130.961 212.484 131.773 210.422 132.227C208.359 132.742 205.062 133 200.531 133H198.961H191.812ZM201.07 125.312H202.641C206.328 125.312 209.008 124.547 210.68 123.016C212.367 121.516 213.211 119.133 213.211 115.867C213.211 112.617 212.367 110.219 210.68 108.672C208.992 107.125 206.312 106.352 202.641 106.352H201.07V125.312ZM263.836 115.914C263.836 118.398 263.391 120.719 262.5 122.875C261.609 124.984 260.281 126.906 258.516 128.641C256.766 130.328 254.766 131.625 252.516 132.531C250.156 133.453 247.82 133.914 245.508 133.914C243.164 133.914 240.828 133.453 238.5 132.531C236.203 131.609 234.219 130.312 232.547 128.641C230.859 127.031 229.531 125.094 228.562 122.828C227.625 120.609 227.156 118.305 227.156 115.914C227.156 113.523 227.625 111.219 228.562 109C229.531 106.734 230.859 104.797 232.547 103.188C234.266 101.469 236.25 100.156 238.5 99.25C240.688 98.3594 243.023 97.9141 245.508 97.9141C247.992 97.9141 250.344 98.3672 252.562 99.2734C254.781 100.164 256.758 101.469 258.492 103.188C260.242 104.906 261.578 106.844 262.5 109C263.391 111.156 263.836 113.461 263.836 115.914ZM245.508 125.992C248.086 125.992 250.242 125.031 251.977 123.109C252.836 122.156 253.469 121.086 253.875 119.898C254.281 118.711 254.484 117.383 254.484 115.914C254.484 113.055 253.633 110.656 251.93 108.719C250.195 106.797 248.055 105.836 245.508 105.836C242.898 105.836 240.75 106.797 239.062 108.719C237.375 110.641 236.531 113.039 236.531 115.914C236.531 118.898 237.359 121.312 239.016 123.156C240.719 125.047 242.883 125.992 245.508 125.992ZM293.531 133H284.766V98.6875H294.539C298.336 98.6875 301.031 98.875 302.625 99.25C304.188 99.6562 305.492 100.297 306.539 101.172C307.789 102.219 308.75 103.516 309.422 105.062C310.094 106.641 310.43 108.398 310.43 110.336C310.43 112.398 310.094 114.195 309.422 115.727C308.828 117.273 307.867 118.555 306.539 119.57C305.586 120.32 304.438 120.859 303.094 121.188C301.891 121.516 299.797 121.68 296.812 121.68H295.219H293.531V133ZM293.531 114.133H295.312C297.531 114.133 299.102 113.812 300.023 113.172C300.914 112.578 301.359 111.539 301.359 110.055C301.359 108.633 300.922 107.617 300.047 107.008C299.188 106.383 297.641 106.07 295.406 106.07H293.531V114.133ZM324.258 120.18H333.562L330.07 108.859C329.992 108.656 329.844 108.094 329.625 107.172C329.359 106.094 329.117 105.117 328.898 104.242C328.68 105.039 328.492 105.844 328.336 106.656C328.086 107.438 327.875 108.172 327.703 108.859L324.258 120.18ZM311.156 133L322.992 98.6875H334.711L346.57 133H337.266L335.531 126.859H322.242L320.461 133H311.156ZM349.875 133V98.6875H359.648C361.539 98.6875 363.133 98.7266 364.43 98.8047C365.742 98.8828 366.82 99.0156 367.664 99.2031C369.117 99.5469 370.414 100.141 371.555 100.984C372.805 101.922 373.75 103.125 374.391 104.594C375.062 106 375.398 107.594 375.398 109.375C375.398 112.016 374.742 114.18 373.43 115.867C372.148 117.555 370.25 118.656 367.734 119.172L377.086 133H366.516L358.641 119.57V133H349.875ZM358.641 114.906H360.375C362.422 114.906 363.898 114.57 364.805 113.898C365.727 113.148 366.188 112.062 366.188 110.641C366.188 108.922 365.758 107.703 364.898 106.984C364.023 106.25 362.562 105.883 360.516 105.883H358.641V114.906ZM389.742 120.18H399.047L395.555 108.859C395.477 108.656 395.328 108.094 395.109 107.172C394.844 106.094 394.602 105.117 394.383 104.242C394.164 105.039 393.977 105.844 393.82 106.656C393.57 107.438 393.359 108.172 393.188 108.859L389.742 120.18ZM376.641 133L388.477 98.6875H400.195L412.055 133H402.75L401.016 126.859H387.727L385.945 133H376.641ZM430.406 133V98.6875H439.758V112.023H452.227V98.6875H461.602V133H452.227V119.031H439.758V133H430.406ZM477.961 120.18H487.266L483.773 108.859C483.695 108.656 483.547 108.094 483.328 107.172C483.062 106.094 482.82 105.117 482.602 104.242C482.383 105.039 482.195 105.844 482.039 106.656C481.789 107.438 481.578 108.172 481.406 108.859L477.961 120.18ZM464.859 133L476.695 98.6875H488.414L500.273 133H490.969L489.234 126.859H475.945L474.164 133H464.859ZM528.445 100.023V110.242C527.102 108.789 525.836 107.734 524.648 107.078C523.32 106.438 521.945 106.117 520.523 106.117C517.852 106.117 515.672 107.031 513.984 108.859C513.406 109.516 512.938 110.203 512.578 110.922C512.219 111.625 511.945 112.43 511.758 113.336C511.586 114.227 511.5 115.133 511.5 116.055C511.5 118.805 512.344 121.094 514.031 122.922C515.734 124.719 517.898 125.617 520.523 125.617C521.93 125.617 523.305 125.281 524.648 124.609C525.836 124 527.102 122.953 528.445 121.469V131.711C526.711 132.523 525.234 133.062 524.016 133.328C522.5 133.688 521.016 133.867 519.562 133.867C517.719 133.867 515.984 133.641 514.359 133.188C512.734 132.75 511.281 132.078 510 131.172C507.438 129.422 505.484 127.266 504.141 124.703C502.797 122.047 502.125 119.102 502.125 115.867C502.125 113.273 502.562 110.891 503.438 108.719C503.828 107.672 504.32 106.688 504.914 105.766C505.523 104.828 506.305 103.859 507.258 102.859C508.898 101.172 510.742 99.9219 512.789 99.1094C514.82 98.2812 517.078 97.8672 519.562 97.8672C520.984 97.8672 522.469 98.0391 524.016 98.3828C525.547 98.7891 527.023 99.3359 528.445 100.023ZM533.719 133V98.6875H554.742V106.211H542.836V112.164H554.062V119.523H542.836V125.312H554.742V133H533.719ZM560.953 133V98.6875H570.727C572.617 98.6875 574.211 98.7266 575.508 98.8047C576.82 98.8828 577.898 99.0156 578.742 99.2031C580.195 99.5469 581.492 100.141 582.633 100.984C583.883 101.922 584.828 103.125 585.469 104.594C586.141 106 586.477 107.594 586.477 109.375C586.477 112.016 585.82 114.18 584.508 115.867C583.227 117.555 581.328 118.656 578.812 119.172L588.164 133H577.594L569.719 119.57V133H560.953ZM569.719 114.906H571.453C573.5 114.906 574.977 114.57 575.883 113.898C576.805 113.148 577.266 112.062 577.266 110.641C577.266 108.922 576.836 107.703 575.977 106.984C575.102 106.25 573.641 105.883 571.594 105.883H569.719V114.906ZM55.5234 148.023V158.242C54.1797 156.789 52.9141 155.734 51.7266 155.078C50.3984 154.438 49.0234 154.117 47.6016 154.117C44.9297 154.117 42.75 155.031 41.0625 156.859C40.4844 157.516 40.0156 158.203 39.6562 158.922C39.2969 159.625 39.0234 160.43 38.8359 161.336C38.6641 162.227 38.5781 163.133 38.5781 164.055C38.5781 166.805 39.4219 169.094 41.1094 170.922C42.8125 172.719 44.9766 173.617 47.6016 173.617C49.0078 173.617 50.3828 173.281 51.7266 172.609C52.9141 172 54.1797 170.953 55.5234 169.469V179.711C53.7891 180.523 52.3125 181.062 51.0938 181.328C49.5781 181.688 48.0938 181.867 46.6406 181.867C44.7969 181.867 43.0625 181.641 41.4375 181.188C39.8125 180.75 38.3594 180.078 37.0781 179.172C34.5156 177.422 32.5625 175.266 31.2188 172.703C29.875 170.047 29.2031 167.102 29.2031 163.867C29.2031 161.273 29.6406 158.891 30.5156 156.719C30.9062 155.672 31.3984 154.688 31.9922 153.766C32.6016 152.828 33.3828 151.859 34.3359 150.859C35.9766 149.172 37.8203 147.922 39.8672 147.109C41.8984 146.281 44.1562 145.867 46.6406 145.867C48.0625 145.867 49.5469 146.039 51.0938 146.383C52.625 146.789 54.1016 147.336 55.5234 148.023ZM60.7969 181V146.688H70.5703C72.4609 146.688 74.0547 146.727 75.3516 146.805C76.6641 146.883 77.7422 147.016 78.5859 147.203C80.0391 147.547 81.3359 148.141 82.4766 148.984C83.7266 149.922 84.6719 151.125 85.3125 152.594C85.9844 154 86.3203 155.594 86.3203 157.375C86.3203 160.016 85.6641 162.18 84.3516 163.867C83.0703 165.555 81.1719 166.656 78.6562 167.172L88.0078 181H77.4375L69.5625 167.57V181H60.7969ZM69.5625 162.906H71.2969C73.3438 162.906 74.8203 162.57 75.7266 161.898C76.6484 161.148 77.1094 160.062 77.1094 158.641C77.1094 156.922 76.6797 155.703 75.8203 154.984C74.9453 154.25 73.4844 153.883 71.4375 153.883H69.5625V162.906ZM91.5938 181V146.688H112.617V154.211H100.711V160.164H111.938V167.523H100.711V173.312H112.617V181H91.5938ZM143.695 148.023V158.242C142.352 156.789 141.086 155.734 139.898 155.078C138.57 154.438 137.195 154.117 135.773 154.117C133.102 154.117 130.922 155.031 129.234 156.859C128.656 157.516 128.188 158.203 127.828 158.922C127.469 159.625 127.195 160.43 127.008 161.336C126.836 162.227 126.75 163.133 126.75 164.055C126.75 166.805 127.594 169.094 129.281 170.922C130.984 172.719 133.148 173.617 135.773 173.617C137.18 173.617 138.555 173.281 139.898 172.609C141.086 172 142.352 170.953 143.695 169.469V179.711C141.961 180.523 140.484 181.062 139.266 181.328C137.75 181.688 136.266 181.867 134.812 181.867C132.969 181.867 131.234 181.641 129.609 181.188C127.984 180.75 126.531 180.078 125.25 179.172C122.688 177.422 120.734 175.266 119.391 172.703C118.047 170.047 117.375 167.102 117.375 163.867C117.375 161.273 117.812 158.891 118.688 156.719C119.078 155.672 119.57 154.688 120.164 153.766C120.773 152.828 121.555 151.859 122.508 150.859C124.148 149.172 125.992 147.922 128.039 147.109C130.07 146.281 132.328 145.867 134.812 145.867C136.234 145.867 137.719 146.039 139.266 146.383C140.797 146.789 142.273 147.336 143.695 148.023ZM148.969 181V146.688H169.992V154.211H158.086V160.164H169.312V167.523H158.086V173.312H169.992V181H148.969ZM176.203 181V146.688H185.977C187.867 146.688 189.461 146.727 190.758 146.805C192.07 146.883 193.148 147.016 193.992 147.203C195.445 147.547 196.742 148.141 197.883 148.984C199.133 149.922 200.078 151.125 200.719 152.594C201.391 154 201.727 155.594 201.727 157.375C201.727 160.016 201.07 162.18 199.758 163.867C198.477 165.555 196.578 166.656 194.062 167.172L203.414 181H192.844L184.969 167.57V181H176.203ZM184.969 162.906H186.703C188.75 162.906 190.227 162.57 191.133 161.898C192.055 161.148 192.516 160.062 192.516 158.641C192.516 156.922 192.086 155.703 191.227 154.984C190.352 154.25 188.891 153.883 186.844 153.883H184.969V162.906ZM226.992 181V154.797H219.305V146.688H244.031V154.797H236.344V181H226.992ZM248.367 146.688H257.742V163.375C257.742 165.922 257.805 167.688 257.93 168.672C258.086 169.844 258.297 170.734 258.562 171.344C258.891 172.234 259.508 172.891 260.414 173.312C261.32 173.797 262.414 174.039 263.695 174.039C264.961 174.039 266.047 173.797 266.953 173.312C267.781 172.906 268.406 172.25 268.828 171.344C269.078 170.719 269.281 169.828 269.438 168.672C269.578 167.734 269.648 165.969 269.648 163.375V161.031V146.688H278.953V164.828C278.953 168.547 278.727 171.312 278.273 173.125C277.852 174.922 277.086 176.461 275.977 177.742C274.758 179.164 273.141 180.203 271.125 180.859C269.125 181.562 266.648 181.914 263.695 181.914C260.68 181.914 258.195 181.562 256.242 180.859C254.258 180.203 252.641 179.164 251.391 177.742C250.312 176.492 249.547 174.953 249.094 173.125C248.609 171.281 248.367 168.516 248.367 164.828V161.266V146.688ZM301.125 181V146.688H322.148V154.211H310.242V160.164H321.469V167.523H310.242V173.312H322.148V181H301.125ZM367.711 181H358.969L356.953 166.164C356.781 164.836 356.656 163.672 356.578 162.672C356.469 161.688 356.359 160.289 356.25 158.477C355.969 160.102 355.531 161.914 354.938 163.914C354.812 164.305 354.719 164.641 354.656 164.922L349.992 181H343.758L339.094 164.922C339.047 164.656 338.953 164.32 338.812 163.914C338.156 161.805 337.727 159.992 337.523 158.477C337.398 160.195 337.281 161.477 337.172 162.32C337.125 162.758 337.055 163.398 336.961 164.242C336.867 165.086 336.797 165.727 336.75 166.164L334.734 181H326.039L331.336 146.688H340.594L345.773 164.383C345.867 164.711 345.93 164.922 345.961 165.016C346.414 166.484 346.719 167.828 346.875 169.047C346.906 168.625 347.023 167.938 347.227 166.984C347.289 166.75 347.523 165.867 347.93 164.336L353.156 146.688H362.438L367.711 181ZM381.516 181H372.75V146.688H382.523C386.32 146.688 389.016 146.875 390.609 147.25C392.172 147.656 393.477 148.297 394.523 149.172C395.773 150.219 396.734 151.516 397.406 153.062C398.078 154.641 398.414 156.398 398.414 158.336C398.414 160.398 398.078 162.195 397.406 163.727C396.812 165.273 395.852 166.555 394.523 167.57C393.57 168.32 392.422 168.859 391.078 169.188C389.875 169.516 387.781 169.68 384.797 169.68H383.203H381.516V181ZM381.516 162.133H383.297C385.516 162.133 387.086 161.812 388.008 161.172C388.898 160.578 389.344 159.539 389.344 158.055C389.344 156.633 388.906 155.617 388.031 155.008C387.172 154.383 385.625 154.07 383.391 154.07H381.516V162.133ZM403.172 181V146.688H412.945C414.836 146.688 416.43 146.727 417.727 146.805C419.039 146.883 420.117 147.016 420.961 147.203C422.414 147.547 423.711 148.141 424.852 148.984C426.102 149.922 427.047 151.125 427.688 152.594C428.359 154 428.695 155.594 428.695 157.375C428.695 160.016 428.039 162.18 426.727 163.867C425.445 165.555 423.547 166.656 421.031 167.172L430.383 181H419.812L411.938 167.57V181H403.172ZM411.938 162.906H413.672C415.719 162.906 417.195 162.57 418.102 161.898C419.023 161.148 419.484 160.062 419.484 158.641C419.484 156.922 419.055 155.703 418.195 154.984C417.32 154.25 415.859 153.883 413.812 153.883H411.938V162.906ZM433.969 181V146.688H454.992V154.211H443.086V160.164H454.312V167.523H443.086V173.312H454.992V181H433.969ZM462.727 169.914C464.164 171.508 465.539 172.688 466.852 173.453C468.227 174.234 469.57 174.625 470.883 174.625C472.117 174.625 473.141 174.289 473.953 173.617C474.766 172.945 475.172 172.094 475.172 171.062C475.172 169.938 474.836 169.055 474.164 168.414C473.445 167.805 471.859 167.172 469.406 166.516C466.062 165.609 463.695 164.438 462.305 163C460.898 161.531 460.195 159.531 460.195 157C460.195 153.719 461.297 151.047 463.5 148.984C465.672 146.906 468.516 145.867 472.031 145.867C474.016 145.867 475.812 146.125 477.422 146.641C479.109 147.156 480.711 147.922 482.227 148.938L479.297 155.664C478.266 154.773 477.172 154.086 476.016 153.602C474.891 153.148 473.789 152.922 472.711 152.922C471.617 152.922 470.703 153.195 469.969 153.742C469.266 154.258 468.914 154.945 468.914 155.805C468.914 156.633 469.219 157.32 469.828 157.867C470.469 158.383 471.672 158.875 473.438 159.344C473.5 159.359 473.555 159.375 473.602 159.391C473.648 159.391 473.719 159.406 473.812 159.438C477.625 160.453 480.141 161.594 481.359 162.859C482.156 163.656 482.781 164.664 483.234 165.883C483.641 167.039 483.844 168.352 483.844 169.82C483.844 173.445 482.648 176.375 480.258 178.609C477.852 180.812 474.664 181.914 470.695 181.914C468.258 181.914 466.078 181.516 464.156 180.719C462.25 179.922 460.367 178.641 458.508 176.875L462.727 169.914ZM498.164 168.18H507.469L503.977 156.859C503.898 156.656 503.75 156.094 503.531 155.172C503.266 154.094 503.023 153.117 502.805 152.242C502.586 153.039 502.398 153.844 502.242 154.656C501.992 155.438 501.781 156.172 501.609 156.859L498.164 168.18ZM485.062 181L496.898 146.688H508.617L520.477 181H511.172L509.438 174.859H496.148L494.367 181H485.062Z" fill="white"/>
<path d="M26 231H14C9.58172 231 6 227.418 6 223V13" stroke="white" stroke-width="1.5"/>
<path d="M12.622 7.0784C12.622 10.6144 9.92461 13.4068 6.68598 13.4068C3.44736 13.4068 0.75 10.6144 0.75 7.0784C0.75 3.54244 3.44736 0.75 6.68598 0.75C9.92461 0.75 12.622 3.54244 12.622 7.0784Z" stroke="white" stroke-width="1.5"/>
<rect x="24" y="209" width="466" height="64" rx="16" fill="#002A61"/>
<path d="M42.3711 246V233.133H50.2549V235.954H45.79V238.187H50V240.946H45.79V243.117H50.2549V246H42.3711ZM52.4521 246V232.377H55.5898V246H52.4521ZM75.3652 246V241.157C75.3652 240.396 75.2773 239.868 75.1016 239.575C74.9023 239.276 74.5713 239.127 74.1084 239.127C73.5166 239.127 73.1094 239.329 72.8867 239.733C72.6582 240.132 72.5439 240.967 72.5439 242.238V246H69.5205V241.157C69.5205 240.366 69.4238 239.833 69.2305 239.558C69.0547 239.271 68.7295 239.127 68.2549 239.127C67.6631 239.127 67.25 239.323 67.0156 239.716C66.7871 240.114 66.6729 240.955 66.6729 242.238V246H63.6318V237.123H66.708V238.67C67.083 238.049 67.5107 237.589 67.9912 237.29C68.46 236.991 69.0283 236.842 69.6963 236.842C70.417 236.842 71.0117 236.979 71.4805 237.255C71.9258 237.536 72.251 237.955 72.4561 238.512C72.8135 237.932 73.2383 237.513 73.7305 237.255C74.2168 236.979 74.7998 236.842 75.4795 236.842C76.0127 236.842 76.4785 236.93 76.877 237.105C77.2871 237.299 77.624 237.568 77.8877 237.914C78.1104 238.189 78.2656 238.515 78.3535 238.89C78.4414 239.235 78.4854 239.848 78.4854 240.727V240.92V246H75.3652ZM87.4678 241.553C87.4678 240.85 87.2832 240.305 86.9141 239.918C86.5391 239.508 86.0352 239.303 85.4023 239.303C84.7695 239.303 84.2715 239.502 83.9082 239.9C83.5332 240.311 83.3457 240.861 83.3457 241.553C83.3457 242.25 83.5332 242.798 83.9082 243.196C84.2656 243.589 84.7637 243.785 85.4023 243.785C86.0352 243.785 86.5361 243.589 86.9053 243.196C87.2803 242.804 87.4678 242.256 87.4678 241.553ZM90.2188 237.123V246H87.3447V244.559C86.9287 245.174 86.4629 245.625 85.9473 245.912C85.4375 246.199 84.8398 246.343 84.1543 246.343C82.9648 246.343 82.0186 245.909 81.3154 245.042C80.9697 244.614 80.7061 244.11 80.5244 243.53C80.3428 242.95 80.252 242.297 80.252 241.57C80.252 240.117 80.624 238.966 81.3682 238.116C82.1123 237.267 83.1084 236.842 84.3564 236.842C85.0244 236.842 85.5986 236.985 86.0791 237.272C86.5654 237.548 86.9814 237.984 87.3271 238.582V237.123H90.2188ZM92.583 246V237.123H95.4482V238.925C95.8525 238.222 96.333 237.694 96.8896 237.343C97.4287 237.009 98.082 236.842 98.8496 236.842C99.4297 236.842 99.9453 236.93 100.396 237.105C100.842 237.305 101.202 237.574 101.478 237.914C101.729 238.254 101.896 238.614 101.979 238.995C102.078 239.481 102.128 240.123 102.128 240.92V246H98.9902V241.245C98.9902 240.524 98.876 240.009 98.6475 239.698C98.4189 239.376 98.0469 239.215 97.5312 239.215C96.8867 239.215 96.4121 239.455 96.1074 239.936C95.8086 240.416 95.6592 241.195 95.6592 242.273V246H92.583ZM110.46 240.419C110.407 239.927 110.217 239.525 109.889 239.215C109.561 238.904 109.159 238.749 108.685 238.749C108.187 238.749 107.782 238.887 107.472 239.162C107.149 239.473 106.947 239.892 106.865 240.419H110.46ZM113.545 242.186H106.795C106.812 242.877 106.985 243.404 107.313 243.768C107.653 244.143 108.146 244.33 108.79 244.33C109.259 244.33 109.66 244.239 109.994 244.058C110.334 243.864 110.58 243.601 110.732 243.267L113.088 244.216C112.812 244.89 112.314 245.411 111.594 245.78C110.879 246.155 110.003 246.343 108.966 246.343C107.419 246.343 106.177 245.909 105.239 245.042C104.308 244.198 103.842 243.07 103.842 241.658C103.842 240.281 104.308 239.13 105.239 238.204C106.171 237.296 107.354 236.842 108.79 236.842C110.255 236.842 111.412 237.302 112.262 238.222C112.695 238.696 113.018 239.25 113.229 239.883C113.439 240.51 113.545 241.228 113.545 242.036V242.186ZM115.276 234.354C115.276 233.868 115.443 233.467 115.777 233.15C116.117 232.811 116.524 232.641 116.999 232.641C117.485 232.641 117.901 232.805 118.247 233.133C118.569 233.455 118.73 233.862 118.73 234.354C118.73 234.847 118.561 235.263 118.221 235.603C117.887 235.937 117.479 236.104 116.999 236.104C116.536 236.104 116.129 235.928 115.777 235.576C115.443 235.242 115.276 234.835 115.276 234.354ZM115.435 249.92V237.123H118.572V249.92H115.435ZM127.273 241.588C127.273 240.926 127.106 240.404 126.772 240.023C126.427 239.643 125.976 239.452 125.419 239.452C124.845 239.452 124.394 239.643 124.065 240.023C123.731 240.393 123.564 240.914 123.564 241.588C123.564 242.244 123.726 242.76 124.048 243.135C124.399 243.521 124.856 243.715 125.419 243.715C125.981 243.715 126.438 243.521 126.79 243.135C127.112 242.748 127.273 242.232 127.273 241.588ZM130.385 241.588C130.385 242.238 130.259 242.845 130.007 243.407C129.743 244.005 129.383 244.521 128.926 244.954C128.41 245.435 127.877 245.783 127.326 246C126.752 246.229 126.116 246.343 125.419 246.343C124.716 246.343 124.08 246.229 123.512 246C122.932 245.771 122.396 245.426 121.903 244.963C121.417 244.494 121.065 243.976 120.849 243.407C120.597 242.862 120.471 242.256 120.471 241.588C120.471 240.938 120.597 240.325 120.849 239.751C121.083 239.171 121.438 238.655 121.912 238.204C122.375 237.759 122.908 237.416 123.512 237.176C124.086 236.953 124.722 236.842 125.419 236.842C126.11 236.842 126.746 236.953 127.326 237.176C127.93 237.416 128.463 237.759 128.926 238.204C129.412 238.644 129.772 239.159 130.007 239.751C130.259 240.325 130.385 240.938 130.385 241.588ZM144.614 241.57C144.614 240.873 144.436 240.328 144.078 239.936C143.697 239.537 143.193 239.338 142.566 239.338C141.934 239.338 141.436 239.537 141.072 239.936C140.709 240.334 140.527 240.879 140.527 241.57C140.527 242.268 140.709 242.815 141.072 243.214C141.43 243.606 141.928 243.803 142.566 243.803C143.199 243.803 143.703 243.606 144.078 243.214C144.436 242.821 144.614 242.273 144.614 241.57ZM147.392 232.377V246H144.509V244.559C144.11 245.162 143.659 245.607 143.155 245.895C142.687 246.193 142.136 246.343 141.503 246.343C140.261 246.343 139.268 245.909 138.523 245.042C137.785 244.175 137.416 243.018 137.416 241.57C137.416 240.164 137.788 239.019 138.532 238.134C139.271 237.272 140.226 236.842 141.397 236.842C142.147 236.842 142.757 236.979 143.226 237.255C143.677 237.507 144.099 237.955 144.491 238.6C144.468 238.441 144.444 238.201 144.421 237.879C144.397 237.527 144.386 237.24 144.386 237.018V232.377H147.392ZM155.829 240.419C155.776 239.927 155.586 239.525 155.258 239.215C154.93 238.904 154.528 238.749 154.054 238.749C153.556 238.749 153.151 238.887 152.841 239.162C152.519 239.473 152.316 239.892 152.234 240.419H155.829ZM158.914 242.186H152.164C152.182 242.877 152.354 243.404 152.683 243.768C153.022 244.143 153.515 244.33 154.159 244.33C154.628 244.33 155.029 244.239 155.363 244.058C155.703 243.864 155.949 243.601 156.102 243.267L158.457 244.216C158.182 244.89 157.684 245.411 156.963 245.78C156.248 246.155 155.372 246.343 154.335 246.343C152.788 246.343 151.546 245.909 150.608 245.042C149.677 244.198 149.211 243.07 149.211 241.658C149.211 240.281 149.677 239.13 150.608 238.204C151.54 237.296 152.724 236.842 154.159 236.842C155.624 236.842 156.781 237.302 157.631 238.222C158.064 238.696 158.387 239.25 158.598 239.883C158.809 240.51 158.914 241.228 158.914 242.036V242.186ZM166.859 246L166.842 239.338H165.515V237.123H166.842V234.478H169.944V237.123H171.254V239.338H169.944V246H166.859ZM181.827 237.123V241.658C181.827 242.672 181.751 243.41 181.599 243.873C181.435 244.354 181.159 244.787 180.772 245.174C180.403 245.561 179.917 245.854 179.313 246.053C178.739 246.246 178.048 246.343 177.239 246.343C176.437 246.343 175.754 246.246 175.191 246.053C174.611 245.865 174.113 245.572 173.697 245.174C173.316 244.811 173.047 244.383 172.889 243.891C172.73 243.434 172.651 242.689 172.651 241.658V237.123H175.64V241.86C175.64 242.604 175.766 243.138 176.018 243.46C176.246 243.8 176.642 243.97 177.204 243.97C177.761 243.97 178.159 243.806 178.399 243.478C178.646 243.149 178.769 242.61 178.769 241.86V237.123H181.827ZM183.251 245.262L183.901 242.871C184.358 243.275 184.862 243.58 185.413 243.785C185.958 244.002 186.509 244.11 187.065 244.11C187.464 244.11 187.763 244.043 187.962 243.908C188.167 243.785 188.27 243.606 188.27 243.372C188.27 242.979 187.856 242.687 187.03 242.493C186.743 242.429 186.526 242.373 186.38 242.326C185.425 242.045 184.748 241.702 184.35 241.298C183.916 240.882 183.699 240.343 183.699 239.681C183.699 238.825 184.024 238.137 184.675 237.615C185.302 237.1 186.178 236.842 187.303 236.842C187.848 236.842 188.428 236.906 189.043 237.035C189.559 237.141 190.159 237.346 190.845 237.65L190.194 239.804C189.772 239.517 189.348 239.303 188.92 239.162C188.516 239.016 188.091 238.942 187.646 238.942C187.282 238.942 187.01 238.998 186.828 239.109C186.652 239.215 186.564 239.376 186.564 239.593C186.564 239.897 186.978 240.161 187.804 240.384C188.073 240.466 188.211 240.507 188.217 240.507C189.295 240.812 190.051 241.172 190.484 241.588C190.906 242.027 191.117 242.599 191.117 243.302C191.117 244.21 190.769 244.942 190.071 245.499C189.356 246.062 188.434 246.343 187.303 246.343C186.518 246.343 185.794 246.252 185.132 246.07C184.476 245.895 183.849 245.625 183.251 245.262ZM204.811 240.041C204.506 239.771 204.213 239.575 203.932 239.452C203.68 239.329 203.384 239.268 203.044 239.268C202.417 239.268 201.925 239.473 201.567 239.883C201.198 240.287 201.014 240.844 201.014 241.553C201.014 242.232 201.204 242.771 201.585 243.17C201.954 243.58 202.467 243.785 203.123 243.785C203.434 243.785 203.732 243.721 204.02 243.592C204.324 243.445 204.588 243.252 204.811 243.012V245.728C204.436 245.927 204.058 246.085 203.677 246.202C203.272 246.296 202.889 246.343 202.525 246.343C201.154 246.343 200.05 245.903 199.212 245.024C198.925 244.731 198.688 244.409 198.5 244.058C198.318 243.706 198.178 243.325 198.078 242.915C197.984 242.505 197.938 242.057 197.938 241.57C197.938 240.17 198.365 239.033 199.221 238.16C200.082 237.281 201.195 236.842 202.561 236.842C202.988 236.842 203.396 236.889 203.782 236.982C204.157 237.076 204.5 237.214 204.811 237.396V240.041ZM213.037 241.588C213.037 240.926 212.87 240.404 212.536 240.023C212.19 239.643 211.739 239.452 211.183 239.452C210.608 239.452 210.157 239.643 209.829 240.023C209.495 240.393 209.328 240.914 209.328 241.588C209.328 242.244 209.489 242.76 209.812 243.135C210.163 243.521 210.62 243.715 211.183 243.715C211.745 243.715 212.202 243.521 212.554 243.135C212.876 242.748 213.037 242.232 213.037 241.588ZM216.148 241.588C216.148 242.238 216.022 242.845 215.771 243.407C215.507 244.005 215.146 244.521 214.689 244.954C214.174 245.435 213.641 245.783 213.09 246C212.516 246.229 211.88 246.343 211.183 246.343C210.479 246.343 209.844 246.229 209.275 246C208.695 245.771 208.159 245.426 207.667 244.963C207.181 244.494 206.829 243.976 206.612 243.407C206.36 242.862 206.234 242.256 206.234 241.588C206.234 240.938 206.36 240.325 206.612 239.751C206.847 239.171 207.201 238.655 207.676 238.204C208.139 237.759 208.672 237.416 209.275 237.176C209.85 236.953 210.485 236.842 211.183 236.842C211.874 236.842 212.51 236.953 213.09 237.176C213.693 237.416 214.227 237.759 214.689 238.204C215.176 238.644 215.536 239.159 215.771 239.751C216.022 240.325 216.148 240.938 216.148 241.588ZM220.745 241.57C220.745 242.279 220.93 242.827 221.299 243.214C221.639 243.606 222.131 243.803 222.775 243.803C223.414 243.803 223.912 243.606 224.27 243.214C224.627 242.821 224.806 242.273 224.806 241.57C224.806 240.873 224.627 240.328 224.27 239.936C223.906 239.537 223.408 239.338 222.775 239.338C222.137 239.338 221.645 239.537 221.299 239.936C220.93 240.322 220.745 240.867 220.745 241.57ZM217.968 232.377H220.956V237.018C220.956 237.475 220.95 237.788 220.938 237.958C220.915 238.257 220.892 238.471 220.868 238.6C221.237 237.961 221.656 237.513 222.125 237.255C222.594 236.979 223.206 236.842 223.962 236.842C225.146 236.842 226.106 237.272 226.845 238.134C227.577 239.007 227.943 240.152 227.943 241.57C227.943 243.029 227.577 244.187 226.845 245.042C226.106 245.909 225.11 246.343 223.856 246.343C223.229 246.343 222.676 246.193 222.195 245.895C221.697 245.607 221.249 245.162 220.851 244.559V246H217.968V232.377ZM229.851 246V237.123H232.804V239.215C233.114 238.447 233.527 237.876 234.043 237.501C234.576 237.12 235.218 236.93 235.968 236.93C236.138 236.93 236.264 236.936 236.346 236.947C236.41 236.953 236.469 236.959 236.521 236.965C236.574 236.965 236.642 236.971 236.724 236.982L236.425 239.83C236.208 239.76 236.021 239.71 235.862 239.681C235.628 239.657 235.455 239.646 235.344 239.646C234.582 239.646 233.993 239.88 233.577 240.349C233.167 240.812 232.962 241.471 232.962 242.326V246H229.851ZM244.186 241.588C244.186 240.926 244.019 240.404 243.685 240.023C243.339 239.643 242.888 239.452 242.331 239.452C241.757 239.452 241.306 239.643 240.978 240.023C240.644 240.393 240.477 240.914 240.477 241.588C240.477 242.244 240.638 242.76 240.96 243.135C241.312 243.521 241.769 243.715 242.331 243.715C242.894 243.715 243.351 243.521 243.702 243.135C244.024 242.748 244.186 242.232 244.186 241.588ZM247.297 241.588C247.297 242.238 247.171 242.845 246.919 243.407C246.655 244.005 246.295 244.521 245.838 244.954C245.322 245.435 244.789 245.783 244.238 246C243.664 246.229 243.028 246.343 242.331 246.343C241.628 246.343 240.992 246.229 240.424 246C239.844 245.771 239.308 245.426 238.815 244.963C238.329 244.494 237.978 243.976 237.761 243.407C237.509 242.862 237.383 242.256 237.383 241.588C237.383 240.938 237.509 240.325 237.761 239.751C237.995 239.171 238.35 238.655 238.824 238.204C239.287 237.759 239.82 237.416 240.424 237.176C240.998 236.953 241.634 236.842 242.331 236.842C243.022 236.842 243.658 236.953 244.238 237.176C244.842 237.416 245.375 237.759 245.838 238.204C246.324 238.644 246.685 239.159 246.919 239.751C247.171 240.325 247.297 240.938 247.297 241.588ZM248.272 245.262L248.923 242.871C249.38 243.275 249.884 243.58 250.435 243.785C250.979 244.002 251.53 244.11 252.087 244.11C252.485 244.11 252.784 244.043 252.983 243.908C253.188 243.785 253.291 243.606 253.291 243.372C253.291 242.979 252.878 242.687 252.052 242.493C251.765 242.429 251.548 242.373 251.401 242.326C250.446 242.045 249.77 241.702 249.371 241.298C248.938 240.882 248.721 240.343 248.721 239.681C248.721 238.825 249.046 238.137 249.696 237.615C250.323 237.1 251.199 236.842 252.324 236.842C252.869 236.842 253.449 236.906 254.064 237.035C254.58 237.141 255.181 237.346 255.866 237.65L255.216 239.804C254.794 239.517 254.369 239.303 253.941 239.162C253.537 239.016 253.112 238.942 252.667 238.942C252.304 238.942 252.031 238.998 251.85 239.109C251.674 239.215 251.586 239.376 251.586 239.593C251.586 239.897 251.999 240.161 252.825 240.384C253.095 240.466 253.232 240.507 253.238 240.507C254.316 240.812 255.072 241.172 255.506 241.588C255.928 242.027 256.139 242.599 256.139 243.302C256.139 244.21 255.79 244.942 255.093 245.499C254.378 246.062 253.455 246.343 252.324 246.343C251.539 246.343 250.815 246.252 250.153 246.07C249.497 245.895 248.87 245.625 248.272 245.262ZM269.577 240.419C269.524 239.927 269.334 239.525 269.006 239.215C268.678 238.904 268.276 238.749 267.802 238.749C267.304 238.749 266.899 238.887 266.589 239.162C266.267 239.473 266.064 239.892 265.982 240.419H269.577ZM272.662 242.186H265.912C265.93 242.877 266.103 243.404 266.431 243.768C266.771 244.143 267.263 244.33 267.907 244.33C268.376 244.33 268.777 244.239 269.111 244.058C269.451 243.864 269.697 243.601 269.85 243.267L272.205 244.216C271.93 244.89 271.432 245.411 270.711 245.78C269.996 246.155 269.12 246.343 268.083 246.343C266.536 246.343 265.294 245.909 264.356 245.042C263.425 244.198 262.959 243.07 262.959 241.658C262.959 240.281 263.425 239.13 264.356 238.204C265.288 237.296 266.472 236.842 267.907 236.842C269.372 236.842 270.529 237.302 271.379 238.222C271.812 238.696 272.135 239.25 272.346 239.883C272.557 240.51 272.662 241.228 272.662 242.036V242.186ZM273.638 245.262L274.288 242.871C274.745 243.275 275.249 243.58 275.8 243.785C276.345 244.002 276.896 244.11 277.452 244.11C277.851 244.11 278.149 244.043 278.349 243.908C278.554 243.785 278.656 243.606 278.656 243.372C278.656 242.979 278.243 242.687 277.417 242.493C277.13 242.429 276.913 242.373 276.767 242.326C275.812 242.045 275.135 241.702 274.736 241.298C274.303 240.882 274.086 240.343 274.086 239.681C274.086 238.825 274.411 238.137 275.062 237.615C275.688 237.1 276.564 236.842 277.689 236.842C278.234 236.842 278.814 236.906 279.43 237.035C279.945 237.141 280.546 237.346 281.231 237.65L280.581 239.804C280.159 239.517 279.734 239.303 279.307 239.162C278.902 239.016 278.478 238.942 278.032 238.942C277.669 238.942 277.396 238.998 277.215 239.109C277.039 239.215 276.951 239.376 276.951 239.593C276.951 239.897 277.364 240.161 278.19 240.384C278.46 240.466 278.598 240.507 278.604 240.507C279.682 240.812 280.438 241.172 280.871 241.588C281.293 242.027 281.504 242.599 281.504 243.302C281.504 244.21 281.155 244.942 280.458 245.499C279.743 246.062 278.82 246.343 277.689 246.343C276.904 246.343 276.181 246.252 275.519 246.07C274.862 245.895 274.235 245.625 273.638 245.262ZM283.684 246L283.666 239.338H282.339V237.123H283.666V234.478H286.769V237.123H288.078V239.338H286.769V246H283.684ZM296.313 241.553C296.313 240.85 296.129 240.305 295.76 239.918C295.385 239.508 294.881 239.303 294.248 239.303C293.615 239.303 293.117 239.502 292.754 239.9C292.379 240.311 292.191 240.861 292.191 241.553C292.191 242.25 292.379 242.798 292.754 243.196C293.111 243.589 293.609 243.785 294.248 243.785C294.881 243.785 295.382 243.589 295.751 243.196C296.126 242.804 296.313 242.256 296.313 241.553ZM299.064 237.123V246H296.19V244.559C295.774 245.174 295.309 245.625 294.793 245.912C294.283 246.199 293.686 246.343 293 246.343C291.811 246.343 290.864 245.909 290.161 245.042C289.815 244.614 289.552 244.11 289.37 243.53C289.188 242.95 289.098 242.297 289.098 241.57C289.098 240.117 289.47 238.966 290.214 238.116C290.958 237.267 291.954 236.842 293.202 236.842C293.87 236.842 294.444 236.985 294.925 237.272C295.411 237.548 295.827 237.984 296.173 238.582V237.123H299.064ZM297.5 233.396L295.347 235.849H294.266L295.54 233.396H297.5ZM313.188 240.419C313.136 239.927 312.945 239.525 312.617 239.215C312.289 238.904 311.888 238.749 311.413 238.749C310.915 238.749 310.511 238.887 310.2 239.162C309.878 239.473 309.676 239.892 309.594 240.419H313.188ZM316.273 242.186H309.523C309.541 242.877 309.714 243.404 310.042 243.768C310.382 244.143 310.874 244.33 311.519 244.33C311.987 244.33 312.389 244.239 312.723 244.058C313.062 243.864 313.309 243.601 313.461 243.267L315.816 244.216C315.541 244.89 315.043 245.411 314.322 245.78C313.607 246.155 312.731 246.343 311.694 246.343C310.147 246.343 308.905 245.909 307.968 245.042C307.036 244.198 306.57 243.07 306.57 241.658C306.57 240.281 307.036 239.13 307.968 238.204C308.899 237.296 310.083 236.842 311.519 236.842C312.983 236.842 314.141 237.302 314.99 238.222C315.424 238.696 315.746 239.25 315.957 239.883C316.168 240.51 316.273 241.228 316.273 242.036V242.186ZM318.075 246V237.123H320.94V238.925C321.345 238.222 321.825 237.694 322.382 237.343C322.921 237.009 323.574 236.842 324.342 236.842C324.922 236.842 325.438 236.93 325.889 237.105C326.334 237.305 326.694 237.574 326.97 237.914C327.222 238.254 327.389 238.614 327.471 238.995C327.57 239.481 327.62 240.123 327.62 240.92V246H324.482V241.245C324.482 240.524 324.368 240.009 324.14 239.698C323.911 239.376 323.539 239.215 323.023 239.215C322.379 239.215 321.904 239.455 321.6 239.936C321.301 240.416 321.151 241.195 321.151 242.273V246H318.075ZM338.272 241.57C338.272 242.279 338.457 242.827 338.826 243.214C339.166 243.606 339.658 243.803 340.303 243.803C340.941 243.803 341.439 243.606 341.797 243.214C342.154 242.821 342.333 242.273 342.333 241.57C342.333 240.873 342.154 240.328 341.797 239.936C341.434 239.537 340.936 239.338 340.303 239.338C339.664 239.338 339.172 239.537 338.826 239.936C338.457 240.322 338.272 240.867 338.272 241.57ZM335.495 232.377H338.483V237.018C338.483 237.475 338.478 237.788 338.466 237.958C338.442 238.257 338.419 238.471 338.396 238.6C338.765 237.961 339.184 237.513 339.652 237.255C340.121 236.979 340.733 236.842 341.489 236.842C342.673 236.842 343.634 237.272 344.372 238.134C345.104 239.007 345.471 240.152 345.471 241.57C345.471 243.029 345.104 244.187 344.372 245.042C343.634 245.909 342.638 246.343 341.384 246.343C340.757 246.343 340.203 246.193 339.723 245.895C339.225 245.607 338.776 245.162 338.378 244.559V246H335.495V232.377ZM356.466 237.123V241.658C356.466 242.672 356.39 243.41 356.237 243.873C356.073 244.354 355.798 244.787 355.411 245.174C355.042 245.561 354.556 245.854 353.952 246.053C353.378 246.246 352.687 246.343 351.878 246.343C351.075 246.343 350.393 246.246 349.83 246.053C349.25 245.865 348.752 245.572 348.336 245.174C347.955 244.811 347.686 244.383 347.527 243.891C347.369 243.434 347.29 242.689 347.29 241.658V237.123H350.278V241.86C350.278 242.604 350.404 243.138 350.656 243.46C350.885 243.8 351.28 243.97 351.843 243.97C352.399 243.97 352.798 243.806 353.038 243.478C353.284 243.149 353.407 242.61 353.407 241.86V237.123H356.466ZM364.833 240.419C364.78 239.927 364.59 239.525 364.262 239.215C363.934 238.904 363.532 238.749 363.058 238.749C362.56 238.749 362.155 238.887 361.845 239.162C361.522 239.473 361.32 239.892 361.238 240.419H364.833ZM367.918 242.186H361.168C361.186 242.877 361.358 243.404 361.687 243.768C362.026 244.143 362.519 244.33 363.163 244.33C363.632 244.33 364.033 244.239 364.367 244.058C364.707 243.864 364.953 243.601 365.105 243.267L367.461 244.216C367.186 244.89 366.688 245.411 365.967 245.78C365.252 246.155 364.376 246.343 363.339 246.343C361.792 246.343 360.55 245.909 359.612 245.042C358.681 244.198 358.215 243.07 358.215 241.658C358.215 240.281 358.681 239.13 359.612 238.204C360.544 237.296 361.728 236.842 363.163 236.842C364.628 236.842 365.785 237.302 366.635 238.222C367.068 238.696 367.391 239.25 367.602 239.883C367.812 240.51 367.918 241.228 367.918 242.036V242.186ZM369.72 246V237.123H372.585V238.925C372.989 238.222 373.47 237.694 374.026 237.343C374.565 237.009 375.219 236.842 375.986 236.842C376.566 236.842 377.082 236.93 377.533 237.105C377.979 237.305 378.339 237.574 378.614 237.914C378.866 238.254 379.033 238.614 379.115 238.995C379.215 239.481 379.265 240.123 379.265 240.92V246H376.127V241.245C376.127 240.524 376.013 240.009 375.784 239.698C375.556 239.376 375.184 239.215 374.668 239.215C374.023 239.215 373.549 239.455 373.244 239.936C372.945 240.416 372.796 241.195 372.796 242.273V246H369.72ZM388.247 241.553C388.247 240.85 388.062 240.305 387.693 239.918C387.318 239.508 386.814 239.303 386.182 239.303C385.549 239.303 385.051 239.502 384.688 239.9C384.312 240.311 384.125 240.861 384.125 241.553C384.125 242.25 384.312 242.798 384.688 243.196C385.045 243.589 385.543 243.785 386.182 243.785C386.814 243.785 387.315 243.589 387.685 243.196C388.06 242.804 388.247 242.256 388.247 241.553ZM390.998 237.123V246H388.124V244.559C387.708 245.174 387.242 245.625 386.727 245.912C386.217 246.199 385.619 246.343 384.934 246.343C383.744 246.343 382.798 245.909 382.095 245.042C381.749 244.614 381.485 244.11 381.304 243.53C381.122 242.95 381.031 242.297 381.031 241.57C381.031 240.117 381.403 238.966 382.147 238.116C382.892 237.267 383.888 236.842 385.136 236.842C385.804 236.842 386.378 236.985 386.858 237.272C387.345 237.548 387.761 237.984 388.106 238.582V237.123H390.998ZM392.536 245.262L393.187 242.871C393.644 243.275 394.147 243.58 394.698 243.785C395.243 244.002 395.794 244.11 396.351 244.11C396.749 244.11 397.048 244.043 397.247 243.908C397.452 243.785 397.555 243.606 397.555 243.372C397.555 242.979 397.142 242.687 396.315 242.493C396.028 242.429 395.812 242.373 395.665 242.326C394.71 242.045 394.033 241.702 393.635 241.298C393.201 240.882 392.984 240.343 392.984 239.681C392.984 238.825 393.31 238.137 393.96 237.615C394.587 237.1 395.463 236.842 396.588 236.842C397.133 236.842 397.713 236.906 398.328 237.035C398.844 237.141 399.444 237.346 400.13 237.65L399.479 239.804C399.058 239.517 398.633 239.303 398.205 239.162C397.801 239.016 397.376 238.942 396.931 238.942C396.567 238.942 396.295 238.998 396.113 239.109C395.938 239.215 395.85 239.376 395.85 239.593C395.85 239.897 396.263 240.161 397.089 240.384C397.358 240.466 397.496 240.507 397.502 240.507C398.58 240.812 399.336 241.172 399.77 241.588C400.191 242.027 400.402 242.599 400.402 243.302C400.402 244.21 400.054 244.942 399.356 245.499C398.642 246.062 397.719 246.343 396.588 246.343C395.803 246.343 395.079 246.252 394.417 246.07C393.761 245.895 393.134 245.625 392.536 245.262ZM419.457 246V241.157C419.457 240.396 419.369 239.868 419.193 239.575C418.994 239.276 418.663 239.127 418.2 239.127C417.608 239.127 417.201 239.329 416.979 239.733C416.75 240.132 416.636 240.967 416.636 242.238V246H413.612V241.157C413.612 240.366 413.516 239.833 413.322 239.558C413.146 239.271 412.821 239.127 412.347 239.127C411.755 239.127 411.342 239.323 411.107 239.716C410.879 240.114 410.765 240.955 410.765 242.238V246H407.724V237.123H410.8V238.67C411.175 238.049 411.603 237.589 412.083 237.29C412.552 236.991 413.12 236.842 413.788 236.842C414.509 236.842 415.104 236.979 415.572 237.255C416.018 237.536 416.343 237.955 416.548 238.512C416.905 237.932 417.33 237.513 417.822 237.255C418.309 236.979 418.892 236.842 419.571 236.842C420.104 236.842 420.57 236.93 420.969 237.105C421.379 237.299 421.716 237.568 421.979 237.914C422.202 238.189 422.357 238.515 422.445 238.89C422.533 239.235 422.577 239.848 422.577 240.727V240.92V246H419.457ZM431.56 241.553C431.56 240.85 431.375 240.305 431.006 239.918C430.631 239.508 430.127 239.303 429.494 239.303C428.861 239.303 428.363 239.502 428 239.9C427.625 240.311 427.438 240.861 427.438 241.553C427.438 242.25 427.625 242.798 428 243.196C428.357 243.589 428.855 243.785 429.494 243.785C430.127 243.785 430.628 243.589 430.997 243.196C431.372 242.804 431.56 242.256 431.56 241.553ZM434.311 237.123V246H431.437V244.559C431.021 245.174 430.555 245.625 430.039 245.912C429.529 246.199 428.932 246.343 428.246 246.343C427.057 246.343 426.11 245.909 425.407 245.042C425.062 244.614 424.798 244.11 424.616 243.53C424.435 242.95 424.344 242.297 424.344 241.57C424.344 240.117 424.716 238.966 425.46 238.116C426.204 237.267 427.2 236.842 428.448 236.842C429.116 236.842 429.69 236.985 430.171 237.272C430.657 237.548 431.073 237.984 431.419 238.582V237.123H434.311ZM436.675 246V237.123H439.54V238.925C439.944 238.222 440.425 237.694 440.981 237.343C441.521 237.009 442.174 236.842 442.941 236.842C443.521 236.842 444.037 236.93 444.488 237.105C444.934 237.305 445.294 237.574 445.569 237.914C445.821 238.254 445.988 238.614 446.07 238.995C446.17 239.481 446.22 240.123 446.22 240.92V246H443.082V241.245C443.082 240.524 442.968 240.009 442.739 239.698C442.511 239.376 442.139 239.215 441.623 239.215C440.979 239.215 440.504 239.455 440.199 239.936C439.9 240.416 439.751 241.195 439.751 242.273V246H436.675ZM454.736 241.588C454.736 240.926 454.569 240.404 454.235 240.023C453.89 239.643 453.438 239.452 452.882 239.452C452.308 239.452 451.856 239.643 451.528 240.023C451.194 240.393 451.027 240.914 451.027 241.588C451.027 242.244 451.188 242.76 451.511 243.135C451.862 243.521 452.319 243.715 452.882 243.715C453.444 243.715 453.901 243.521 454.253 243.135C454.575 242.748 454.736 242.232 454.736 241.588ZM457.848 241.588C457.848 242.238 457.722 242.845 457.47 243.407C457.206 244.005 456.846 244.521 456.389 244.954C455.873 245.435 455.34 245.783 454.789 246C454.215 246.229 453.579 246.343 452.882 246.343C452.179 246.343 451.543 246.229 450.975 246C450.395 245.771 449.858 245.426 449.366 244.963C448.88 244.494 448.528 243.976 448.312 243.407C448.06 242.862 447.934 242.256 447.934 241.588C447.934 240.938 448.06 240.325 448.312 239.751C448.546 239.171 448.9 238.655 449.375 238.204C449.838 237.759 450.371 237.416 450.975 237.176C451.549 236.953 452.185 236.842 452.882 236.842C453.573 236.842 454.209 236.953 454.789 237.176C455.393 237.416 455.926 237.759 456.389 238.204C456.875 238.644 457.235 239.159 457.47 239.751C457.722 240.325 457.848 240.938 457.848 241.588ZM458.823 245.262L459.474 242.871C459.931 243.275 460.435 243.58 460.985 243.785C461.53 244.002 462.081 244.11 462.638 244.11C463.036 244.11 463.335 244.043 463.534 243.908C463.739 243.785 463.842 243.606 463.842 243.372C463.842 242.979 463.429 242.687 462.603 242.493C462.315 242.429 462.099 242.373 461.952 242.326C460.997 242.045 460.32 241.702 459.922 241.298C459.488 240.882 459.271 240.343 459.271 239.681C459.271 238.825 459.597 238.137 460.247 237.615C460.874 237.1 461.75 236.842 462.875 236.842C463.42 236.842 464 236.906 464.615 237.035C465.131 237.141 465.731 237.346 466.417 237.65L465.767 239.804C465.345 239.517 464.92 239.303 464.492 239.162C464.088 239.016 463.663 238.942 463.218 238.942C462.854 238.942 462.582 238.998 462.4 239.109C462.225 239.215 462.137 239.376 462.137 239.593C462.137 239.897 462.55 240.161 463.376 240.384C463.646 240.466 463.783 240.507 463.789 240.507C464.867 240.812 465.623 241.172 466.057 241.588C466.479 242.027 466.689 242.599 466.689 243.302C466.689 244.21 466.341 244.942 465.644 245.499C464.929 246.062 464.006 246.343 462.875 246.343C462.09 246.343 461.366 246.252 460.704 246.07C460.048 245.895 459.421 245.625 458.823 245.262Z" fill="white"/>
</svg>
