<svg width="34" height="43" viewBox="0 0 34 43" fill="none" xmlns="http://www.w3.org/2000/svg">
<path d="M12.3635 5.3125H4.63623V7.08333H12.3635V5.3125Z" fill="#002A61"/>
<path d="M6.18169 8.854H4.63623V10.6248H6.18169V8.854Z" fill="#002A61"/>
<path d="M9.27275 8.854H7.72729V10.6248H9.27275V8.854Z" fill="#002A61"/>
<path d="M1.54545 2.65625C1.54545 2.42142 1.62687 2.19621 1.77178 2.03017C1.9167 1.86412 2.11324 1.77083 2.31818 1.77083H21.6364V6.19792C21.6364 6.9024 21.8806 7.57803 22.3153 8.07617C22.7501 8.57431 23.3397 8.85417 23.9545 8.85417H25.5V7.08333H23.9545C23.7496 7.08333 23.5531 6.99005 23.4081 6.824C23.2632 6.65795 23.1818 6.43274 23.1818 6.19792V3.02281L27.8182 8.33531V16.8229H29.3636V7.96875C29.3636 7.73394 29.2822 7.50877 29.1372 7.34276L22.9554 0.259427C22.8105 0.0933678 22.614 5.01477e-05 22.4091 0L2.31818 0C1.70336 0 1.11372 0.279854 0.67898 0.777998C0.244236 1.27614 0 1.95177 0 2.65625V23.9062H1.54545V2.65625Z" fill="#002A61"/>
<path d="M1.54545 39.8436V32.7603H0V39.8436C0 40.5481 0.244236 41.2237 0.67898 41.7218C1.11372 42.22 1.70336 42.4998 2.31818 42.4998H5.40909V40.729H2.31818C2.11324 40.729 1.9167 40.6357 1.77178 40.4697C1.62687 40.3036 1.54545 40.0784 1.54545 39.8436Z" fill="#002A61"/>
<path d="M32.4546 23.021H21.6364C21.2265 23.021 20.8334 23.2076 20.5436 23.5397C20.2538 23.8718 20.0909 24.3222 20.0909 24.7918V30.1043H8.50002C8.29508 30.1043 8.09854 30.1976 7.95362 30.3637C7.80871 30.5297 7.72729 30.7549 7.72729 30.9897V33.646C7.72884 33.9578 7.803 34.2634 7.94211 34.5314C7.803 34.7994 7.72884 35.105 7.72729 35.4168V40.7293C7.72729 41.199 7.89012 41.6494 8.17995 41.9815C8.46978 42.3136 8.86287 42.5002 9.27275 42.5002H20.0909C20.363 42.4984 20.6298 42.4134 20.8637 42.254C21.0975 42.4134 21.3643 42.4984 21.6364 42.5002H32.4546C32.8644 42.5002 33.2575 42.3136 33.5474 41.9815C33.8372 41.6494 34 41.199 34 40.7293V35.4168C33.9985 35.105 33.9243 34.7994 33.7852 34.5314C33.9243 34.2634 33.9985 33.9578 34 33.646V30.9897C33.9981 30.8617 33.9717 30.7357 33.9228 30.6205C33.9709 30.4539 33.997 30.2799 34 30.1043V24.7918C34 24.3222 33.8372 23.8718 33.5474 23.5397C33.2575 23.2076 32.8644 23.021 32.4546 23.021ZM32.4546 33.646H21.6364V31.8752H32.4546V33.646ZM32.4546 37.1877H21.6364V35.4168H32.4546V37.1877ZM9.27275 35.4168H20.0909V37.1877H9.27275V35.4168ZM21.6364 28.3335H32.4546V30.1043H21.6364V28.3335ZM21.6364 24.7918H32.4546V26.5627H21.6364V24.7918ZM9.27275 31.8752H20.0909V33.646H9.27275V31.8752ZM9.27275 40.7293V38.9585H20.0909V40.7293H9.27275ZM32.4546 40.7293H21.6364V38.9585H32.4546V40.7293Z" fill="#002A61"/>
<path d="M23.1827 18.5936V12.3957C23.1827 12.1608 23.1013 11.9356 22.9564 11.7696C22.8115 11.6035 22.6149 11.5103 22.41 11.5103H16.2282V13.2811H20.5446L15.9082 18.5936H9.27361C9.06869 18.5936 8.87218 18.687 8.72729 18.853L0.227295 28.5926L1.31993 29.8446L9.59352 20.3644H16.2282C16.4331 20.3644 16.6296 20.2711 16.7745 20.105L21.6372 14.5331V18.5936H23.1827Z" fill="#002A61"/>
</svg>
