<svg width="543" height="240" viewBox="0 0 543 240" fill="none" xmlns="http://www.w3.org/2000/svg">
<path d="M30.6562 43V8.6875H37.8047C43.2109 8.6875 46.9844 8.9375 49.125 9.4375C51.3438 9.9375 53.2812 10.7734 54.9375 11.9453C57.125 13.4453 58.7734 15.3828 59.8828 17.7578C61.0078 20.1484 61.5703 22.8516 61.5703 25.8672C61.5703 28.8828 61.0078 31.5859 59.8828 33.9766C58.7734 36.3203 57.125 38.2578 54.9375 39.7891C53.2188 40.9609 51.3281 41.7734 49.2656 42.2266C47.2031 42.7422 43.9062 43 39.375 43H37.8047H30.6562ZM39.9141 35.3125H41.4844C45.1719 35.3125 47.8516 34.5469 49.5234 33.0156C51.2109 31.5156 52.0547 29.1328 52.0547 25.8672C52.0547 22.6172 51.2109 20.2188 49.5234 18.6719C47.8359 17.125 45.1562 16.3516 41.4844 16.3516H39.9141V35.3125ZM67.6875 43V8.6875H77.1328V43H67.6875ZM86.2266 31.9141C87.6641 33.5078 89.0391 34.6875 90.3516 35.4531C91.7266 36.2344 93.0703 36.625 94.3828 36.625C95.6172 36.625 96.6406 36.2891 97.4531 35.6172C98.2656 34.9453 98.6719 34.0938 98.6719 33.0625C98.6719 31.9375 98.3359 31.0547 97.6641 30.4141C96.9453 29.8047 95.3594 29.1719 92.9062 28.5156C89.5625 27.6094 87.1953 26.4375 85.8047 25C84.3984 23.5312 83.6953 21.5312 83.6953 19C83.6953 15.7188 84.7969 13.0469 87 10.9844C89.1719 8.90625 92.0156 7.86719 95.5312 7.86719C97.5156 7.86719 99.3125 8.125 100.922 8.64062C102.609 9.15625 104.211 9.92188 105.727 10.9375L102.797 17.6641C101.766 16.7734 100.672 16.0859 99.5156 15.6016C98.3906 15.1484 97.2891 14.9219 96.2109 14.9219C95.1172 14.9219 94.2031 15.1953 93.4688 15.7422C92.7656 16.2578 92.4141 16.9453 92.4141 17.8047C92.4141 18.6328 92.7188 19.3203 93.3281 19.8672C93.9688 20.3828 95.1719 20.875 96.9375 21.3438C97 21.3594 97.0547 21.375 97.1016 21.3906C97.1484 21.3906 97.2188 21.4062 97.3125 21.4375C101.125 22.4531 103.641 23.5938 104.859 24.8594C105.656 25.6562 106.281 26.6641 106.734 27.8828C107.141 29.0391 107.344 30.3516 107.344 31.8203C107.344 35.4453 106.148 38.375 103.758 40.6094C101.352 42.8125 98.1641 43.9141 94.1953 43.9141C91.7578 43.9141 89.5781 43.5156 87.6562 42.7188C85.75 41.9219 83.8672 40.6406 82.0078 38.875L86.2266 31.9141ZM112.594 43V8.6875H133.617V16.2109H121.711V22.1641H132.938V29.5234H121.711V35.3125H133.617V43H112.594ZM139.828 43V8.6875H148.852L161.812 26.3359C162.141 26.8203 162.555 27.5469 163.055 28.5156C163.695 29.7656 164.32 31.0547 164.93 32.3828C164.695 30.5859 164.562 29.3281 164.531 28.6094C164.438 27.4844 164.391 26.4922 164.391 25.6328V8.6875H173.367V43H164.391L151.43 25.2812C151.242 25.0312 150.828 24.2969 150.188 23.0781C149.625 22.0781 149 20.8125 148.312 19.2812C148.469 20.5 148.617 21.7656 148.758 23.0781C148.82 24.5469 148.852 25.5391 148.852 26.0547V43H139.828ZM162.141 0.53125L162.047 0.625C161.641 2.25 161.141 3.39844 160.547 4.07031C159.938 4.83594 159.109 5.21875 158.062 5.21875H157.383H156.82L155.086 4.75C154.555 4.59375 154.172 4.51562 153.938 4.51562C153.562 4.51562 153.258 4.60938 153.023 4.79688C152.789 5.03125 152.578 5.41406 152.391 5.94531H150.188C150.516 4.38281 150.992 3.22656 151.617 2.47656C152.258 1.71094 153.078 1.32812 154.078 1.32812H154.711C154.961 1.32812 155.273 1.375 155.648 1.46875L157.383 1.96094H157.875H158.438C158.859 1.96094 159.18 1.85156 159.398 1.63281C159.664 1.33594 159.844 0.96875 159.938 0.53125H162.141ZM189.82 30.1797H199.125L195.633 18.8594C195.555 18.6562 195.406 18.0938 195.188 17.1719C194.922 16.0938 194.68 15.1172 194.461 14.2422C194.242 15.0391 194.055 15.8437 193.898 16.6562C193.648 17.4375 193.438 18.1719 193.266 18.8594L189.82 30.1797ZM176.719 43L188.555 8.6875H200.273L212.133 43H202.828L201.094 36.8594H187.805L186.023 43H176.719ZM215.438 43V8.6875H222.586C227.992 8.6875 231.766 8.9375 233.906 9.4375C236.125 9.9375 238.062 10.7734 239.719 11.9453C241.906 13.4453 243.555 15.3828 244.664 17.7578C245.789 20.1484 246.352 22.8516 246.352 25.8672C246.352 28.8828 245.789 31.5859 244.664 33.9766C243.555 36.3203 241.906 38.2578 239.719 39.7891C238 40.9609 236.109 41.7734 234.047 42.2266C231.984 42.7422 228.688 43 224.156 43H222.586H215.438ZM224.695 35.3125H226.266C229.953 35.3125 232.633 34.5469 234.305 33.0156C235.992 31.5156 236.836 29.1328 236.836 25.8672C236.836 22.6172 235.992 20.2188 234.305 18.6719C232.617 17.125 229.938 16.3516 226.266 16.3516H224.695V35.3125ZM287.461 25.9141C287.461 28.3984 287.016 30.7188 286.125 32.875C285.234 34.9844 283.906 36.9062 282.141 38.6406C280.391 40.3281 278.391 41.625 276.141 42.5312C273.781 43.4531 271.445 43.9141 269.133 43.9141C266.789 43.9141 264.453 43.4531 262.125 42.5312C259.828 41.6094 257.844 40.3125 256.172 38.6406C254.484 37.0312 253.156 35.0938 252.188 32.8281C251.25 30.6094 250.781 28.3047 250.781 25.9141C250.781 23.5234 251.25 21.2188 252.188 19C253.156 16.7344 254.484 14.7969 256.172 13.1875C257.891 11.4688 259.875 10.1563 262.125 9.25C264.312 8.35938 266.648 7.91406 269.133 7.91406C271.617 7.91406 273.969 8.36719 276.188 9.27344C278.406 10.1641 280.383 11.4688 282.117 13.1875C283.867 14.9062 285.203 16.8438 286.125 19C287.016 21.1562 287.461 23.4609 287.461 25.9141ZM269.133 35.9922C271.711 35.9922 273.867 35.0312 275.602 33.1094C276.461 32.1562 277.094 31.0859 277.5 29.8984C277.906 28.7109 278.109 27.3828 278.109 25.9141C278.109 23.0547 277.258 20.6562 275.555 18.7188C273.82 16.7969 271.68 15.8359 269.133 15.8359C266.523 15.8359 264.375 16.7969 262.688 18.7188C261 20.6406 260.156 23.0391 260.156 25.9141C260.156 28.8984 260.984 31.3125 262.641 33.1562C264.344 35.0469 266.508 35.9922 269.133 35.9922ZM317.156 43H308.391V8.6875H318.164C321.961 8.6875 324.656 8.875 326.25 9.25C327.812 9.65625 329.117 10.2969 330.164 11.1719C331.414 12.2188 332.375 13.5156 333.047 15.0625C333.719 16.6406 334.055 18.3984 334.055 20.3359C334.055 22.3984 333.719 24.1953 333.047 25.7266C332.453 27.2734 331.492 28.5547 330.164 29.5703C329.211 30.3203 328.062 30.8594 326.719 31.1875C325.516 31.5156 323.422 31.6797 320.438 31.6797H318.844H317.156V43ZM317.156 24.1328H318.938C321.156 24.1328 322.727 23.8125 323.648 23.1719C324.539 22.5781 324.984 21.5391 324.984 20.0547C324.984 18.6328 324.547 17.6172 323.672 17.0078C322.812 16.3828 321.266 16.0703 319.031 16.0703H317.156V24.1328ZM347.883 30.1797H357.188L353.695 18.8594C353.617 18.6562 353.469 18.0938 353.25 17.1719C352.984 16.0938 352.742 15.1172 352.523 14.2422C352.305 15.0391 352.117 15.8437 351.961 16.6562C351.711 17.4375 351.5 18.1719 351.328 18.8594L347.883 30.1797ZM334.781 43L346.617 8.6875H358.336L370.195 43H360.891L359.156 36.8594H345.867L344.086 43H334.781ZM373.5 43V8.6875H383.273C385.164 8.6875 386.758 8.72656 388.055 8.80469C389.367 8.88281 390.445 9.01562 391.289 9.20312C392.742 9.54688 394.039 10.1406 395.18 10.9844C396.43 11.9219 397.375 13.125 398.016 14.5938C398.688 16 399.023 17.5938 399.023 19.375C399.023 22.0156 398.367 24.1797 397.055 25.8672C395.773 27.5547 393.875 28.6562 391.359 29.1719L400.711 43H390.141L382.266 29.5703V43H373.5ZM382.266 24.9062H384C386.047 24.9062 387.523 24.5703 388.43 23.8984C389.352 23.1484 389.812 22.0625 389.812 20.6406C389.812 18.9219 389.383 17.7031 388.523 16.9844C387.648 16.25 386.188 15.8828 384.141 15.8828H382.266V24.9062ZM413.367 30.1797H422.672L419.18 18.8594C419.102 18.6562 418.953 18.0938 418.734 17.1719C418.469 16.0938 418.227 15.1172 418.008 14.2422C417.789 15.0391 417.602 15.8437 417.445 16.6562C417.195 17.4375 416.984 18.1719 416.812 18.8594L413.367 30.1797ZM400.266 43L412.102 8.6875H423.82L435.68 43H426.375L424.641 36.8594H411.352L409.57 43H400.266ZM30.6562 91V56.6875H40.4297C42.3203 56.6875 43.9141 56.7266 45.2109 56.8047C46.5234 56.8828 47.6016 57.0156 48.4453 57.2031C49.8984 57.5469 51.1953 58.1406 52.3359 58.9844C53.5859 59.9219 54.5312 61.125 55.1719 62.5938C55.8438 64 56.1797 65.5938 56.1797 67.375C56.1797 70.0156 55.5234 72.1797 54.2109 73.8672C52.9297 75.5547 51.0312 76.6562 48.5156 77.1719L57.8672 91H47.2969L39.4219 77.5703V91H30.6562ZM39.4219 72.9062H41.1562C43.2031 72.9062 44.6797 72.5703 45.5859 71.8984C46.5078 71.1484 46.9688 70.0625 46.9688 68.6406C46.9688 66.9219 46.5391 65.7031 45.6797 64.9844C44.8047 64.25 43.3438 63.8828 41.2969 63.8828H39.4219V72.9062ZM61.4531 91V56.6875H82.4766V64.2109H70.5703V70.1641H81.7969V77.5234H70.5703V83.3125H82.4766V91H61.4531ZM90.2109 79.9141C91.6484 81.5078 93.0234 82.6875 94.3359 83.4531C95.7109 84.2344 97.0547 84.625 98.3672 84.625C99.6016 84.625 100.625 84.2891 101.438 83.6172C102.25 82.9453 102.656 82.0938 102.656 81.0625C102.656 79.9375 102.32 79.0547 101.648 78.4141C100.93 77.8047 99.3438 77.1719 96.8906 76.5156C93.5469 75.6094 91.1797 74.4375 89.7891 73C88.3828 71.5312 87.6797 69.5312 87.6797 67C87.6797 63.7188 88.7812 61.0469 90.9844 58.9844C93.1562 56.9062 96 55.8672 99.5156 55.8672C101.5 55.8672 103.297 56.125 104.906 56.6406C106.594 57.1562 108.195 57.9219 109.711 58.9375L106.781 65.6641C105.75 64.7734 104.656 64.0859 103.5 63.6016C102.375 63.1484 101.273 62.9219 100.195 62.9219C99.1016 62.9219 98.1875 63.1953 97.4531 63.7422C96.75 64.2578 96.3984 64.9453 96.3984 65.8047C96.3984 66.6328 96.7031 67.3203 97.3125 67.8672C97.9531 68.3828 99.1562 68.875 100.922 69.3438C100.984 69.3594 101.039 69.375 101.086 69.3906C101.133 69.3906 101.203 69.4062 101.297 69.4375C105.109 70.4531 107.625 71.5938 108.844 72.8594C109.641 73.6562 110.266 74.6641 110.719 75.8828C111.125 77.0391 111.328 78.3516 111.328 79.8203C111.328 83.4453 110.133 86.375 107.742 88.6094C105.336 90.8125 102.148 91.9141 98.1797 91.9141C95.7422 91.9141 93.5625 91.5156 91.6406 90.7188C89.7344 89.9219 87.8516 88.6406 85.9922 86.875L90.2109 79.9141ZM151.805 73.9141C151.805 76.3984 151.359 78.7188 150.469 80.875C149.578 82.9844 148.25 84.9062 146.484 86.6406C144.734 88.3281 142.734 89.625 140.484 90.5312C138.125 91.4531 135.789 91.9141 133.477 91.9141C131.133 91.9141 128.797 91.4531 126.469 90.5312C124.172 89.6094 122.188 88.3125 120.516 86.6406C118.828 85.0312 117.5 83.0938 116.531 80.8281C115.594 78.6094 115.125 76.3047 115.125 73.9141C115.125 71.5234 115.594 69.2188 116.531 67C117.5 64.7344 118.828 62.7969 120.516 61.1875C122.234 59.4688 124.219 58.1562 126.469 57.25C128.656 56.3594 130.992 55.9141 133.477 55.9141C135.961 55.9141 138.312 56.3672 140.531 57.2734C142.75 58.1641 144.727 59.4688 146.461 61.1875C148.211 62.9062 149.547 64.8438 150.469 67C151.359 69.1562 151.805 71.4609 151.805 73.9141ZM133.477 83.9922C136.055 83.9922 138.211 83.0312 139.945 81.1094C140.805 80.1562 141.438 79.0859 141.844 77.8984C142.25 76.7109 142.453 75.3828 142.453 73.9141C142.453 71.0547 141.602 68.6562 139.898 66.7188C138.164 64.7969 136.023 63.8359 133.477 63.8359C130.867 63.8359 128.719 64.7969 127.031 66.7188C125.344 68.6406 124.5 71.0391 124.5 73.9141C124.5 76.8984 125.328 79.3125 126.984 81.1562C128.688 83.0469 130.852 83.9922 133.477 83.9922ZM157.688 91V56.6875H167.039V82.9844H178.664V91H157.688ZM193.055 91L178.664 56.6875H188.602L195.469 75.8828C195.469 75.8828 195.492 75.9922 195.539 76.2109C195.602 76.4141 195.703 76.7812 195.844 77.3125C196.031 78.125 196.289 79.1797 196.617 80.4766C196.82 79.5391 197.062 78.6016 197.344 77.6641C197.547 76.7422 197.703 76.1484 197.812 75.8828L204.633 56.6875H214.57L200.18 91H193.055ZM217.359 91V56.6875H238.383V64.2109H226.477V70.1641H237.703V77.5234H226.477V83.3125H238.383V91H217.359ZM244.594 91V56.6875H254.367C256.258 56.6875 257.852 56.7266 259.148 56.8047C260.461 56.8828 261.539 57.0156 262.383 57.2031C263.836 57.5469 265.133 58.1406 266.273 58.9844C267.523 59.9219 268.469 61.125 269.109 62.5938C269.781 64 270.117 65.5938 270.117 67.375C270.117 70.0156 269.461 72.1797 268.148 73.8672C266.867 75.5547 264.969 76.6562 262.453 77.1719L271.805 91H261.234L253.359 77.5703V91H244.594ZM253.359 72.9062H255.094C257.141 72.9062 258.617 72.5703 259.523 71.8984C260.445 71.1484 260.906 70.0625 260.906 68.6406C260.906 66.9219 260.477 65.7031 259.617 64.9844C258.742 64.25 257.281 63.8828 255.234 63.8828H253.359V72.9062ZM295.383 91V64.7969H287.695V56.6875H312.422V64.7969H304.734V91H295.383ZM316.758 56.6875H326.133V73.375C326.133 75.9219 326.195 77.6875 326.32 78.6719C326.477 79.8438 326.688 80.7344 326.953 81.3438C327.281 82.2344 327.898 82.8906 328.805 83.3125C329.711 83.7969 330.805 84.0391 332.086 84.0391C333.352 84.0391 334.438 83.7969 335.344 83.3125C336.172 82.9062 336.797 82.25 337.219 81.3438C337.469 80.7188 337.672 79.8281 337.828 78.6719C337.969 77.7344 338.039 75.9688 338.039 73.375V71.0312V56.6875H347.344V74.8281C347.344 78.5469 347.117 81.3125 346.664 83.125C346.242 84.9219 345.477 86.4609 344.367 87.7422C343.148 89.1641 341.531 90.2031 339.516 90.8594C337.516 91.5625 335.039 91.9141 332.086 91.9141C329.07 91.9141 326.586 91.5625 324.633 90.8594C322.648 90.2031 321.031 89.1641 319.781 87.7422C318.703 86.4922 317.938 84.9531 317.484 83.125C317 81.2812 316.758 78.5156 316.758 74.8281V71.2656V56.6875ZM355.992 79.9141C357.43 81.5078 358.805 82.6875 360.117 83.4531C361.492 84.2344 362.836 84.625 364.148 84.625C365.383 84.625 366.406 84.2891 367.219 83.6172C368.031 82.9453 368.438 82.0938 368.438 81.0625C368.438 79.9375 368.102 79.0547 367.43 78.4141C366.711 77.8047 365.125 77.1719 362.672 76.5156C359.328 75.6094 356.961 74.4375 355.57 73C354.164 71.5312 353.461 69.5312 353.461 67C353.461 63.7188 354.562 61.0469 356.766 58.9844C358.938 56.9062 361.781 55.8672 365.297 55.8672C367.281 55.8672 369.078 56.125 370.688 56.6406C372.375 57.1562 373.977 57.9219 375.492 58.9375L372.562 65.6641C371.531 64.7734 370.438 64.0859 369.281 63.6016C368.156 63.1484 367.055 62.9219 365.977 62.9219C364.883 62.9219 363.969 63.1953 363.234 63.7422C362.531 64.2578 362.18 64.9453 362.18 65.8047C362.18 66.6328 362.484 67.3203 363.094 67.8672C363.734 68.3828 364.938 68.875 366.703 69.3438C366.766 69.3594 366.82 69.375 366.867 69.3906C366.914 69.3906 366.984 69.4062 367.078 69.4375C370.891 70.4531 373.406 71.5938 374.625 72.8594C375.422 73.6562 376.047 74.6641 376.5 75.8828C376.906 77.0391 377.109 78.3516 377.109 79.8203C377.109 83.4453 375.914 86.375 373.523 88.6094C371.117 90.8125 367.93 91.9141 363.961 91.9141C361.523 91.9141 359.344 91.5156 357.422 90.7188C355.516 89.9219 353.633 88.6406 351.773 86.875L355.992 79.9141ZM30.8906 139V104.688H40.3359V139H30.8906ZM87.2578 139H78.5156L76.5 124.164C76.3281 122.836 76.2031 121.672 76.125 120.672C76.0156 119.688 75.9062 118.289 75.7969 116.477C75.5156 118.102 75.0781 119.914 74.4844 121.914C74.3594 122.305 74.2656 122.641 74.2031 122.922L69.5391 139H63.3047L58.6406 122.922C58.5938 122.656 58.5 122.32 58.3594 121.914C57.7031 119.805 57.2734 117.992 57.0703 116.477C56.9453 118.195 56.8281 119.477 56.7188 120.32C56.6719 120.758 56.6016 121.398 56.5078 122.242C56.4141 123.086 56.3438 123.727 56.2969 124.164L54.2812 139H45.5859L50.8828 104.688H60.1406L65.3203 122.383C65.4141 122.711 65.4766 122.922 65.5078 123.016C65.9609 124.484 66.2656 125.828 66.4219 127.047C66.4531 126.625 66.5703 125.938 66.7734 124.984C66.8359 124.75 67.0703 123.867 67.4766 122.336L72.7031 104.688H81.9844L87.2578 139ZM101.062 139H92.2969V104.688H102.07C105.867 104.688 108.562 104.875 110.156 105.25C111.719 105.656 113.023 106.297 114.07 107.172C115.32 108.219 116.281 109.516 116.953 111.062C117.625 112.641 117.961 114.398 117.961 116.336C117.961 118.398 117.625 120.195 116.953 121.727C116.359 123.273 115.398 124.555 114.07 125.57C113.117 126.32 111.969 126.859 110.625 127.188C109.422 127.516 107.328 127.68 104.344 127.68H102.75H101.062V139ZM101.062 120.133H102.844C105.062 120.133 106.633 119.812 107.555 119.172C108.445 118.578 108.891 117.539 108.891 116.055C108.891 114.633 108.453 113.617 107.578 113.008C106.719 112.383 105.172 112.07 102.938 112.07H101.062V120.133ZM122.719 139V104.688H132.492C134.383 104.688 135.977 104.727 137.273 104.805C138.586 104.883 139.664 105.016 140.508 105.203C141.961 105.547 143.258 106.141 144.398 106.984C145.648 107.922 146.594 109.125 147.234 110.594C147.906 112 148.242 113.594 148.242 115.375C148.242 118.016 147.586 120.18 146.273 121.867C144.992 123.555 143.094 124.656 140.578 125.172L149.93 139H139.359L131.484 125.57V139H122.719ZM131.484 120.906H133.219C135.266 120.906 136.742 120.57 137.648 119.898C138.57 119.148 139.031 118.062 139.031 116.641C139.031 114.922 138.602 113.703 137.742 112.984C136.867 112.25 135.406 111.883 133.359 111.883H131.484V120.906ZM153.516 139V104.688H174.539V112.211H162.633V118.164H173.859V125.523H162.633V131.312H174.539V139H153.516ZM190.57 139L176.18 104.688H186.117L192.984 123.883C192.984 123.883 193.008 123.992 193.055 124.211C193.117 124.414 193.219 124.781 193.359 125.312C193.547 126.125 193.805 127.18 194.133 128.477C194.336 127.539 194.578 126.602 194.859 125.664C195.062 124.742 195.219 124.148 195.328 123.883L202.148 104.688H212.086L197.695 139H190.57ZM215.109 139V104.688H224.555V139H215.109ZM233.648 127.914C235.086 129.508 236.461 130.688 237.773 131.453C239.148 132.234 240.492 132.625 241.805 132.625C243.039 132.625 244.062 132.289 244.875 131.617C245.688 130.945 246.094 130.094 246.094 129.062C246.094 127.938 245.758 127.055 245.086 126.414C244.367 125.805 242.781 125.172 240.328 124.516C236.984 123.609 234.617 122.438 233.227 121C231.82 119.531 231.117 117.531 231.117 115C231.117 111.719 232.219 109.047 234.422 106.984C236.594 104.906 239.438 103.867 242.953 103.867C244.938 103.867 246.734 104.125 248.344 104.641C250.031 105.156 251.633 105.922 253.148 106.938L250.219 113.664C249.188 112.773 248.094 112.086 246.938 111.602C245.812 111.148 244.711 110.922 243.633 110.922C242.539 110.922 241.625 111.195 240.891 111.742C240.188 112.258 239.836 112.945 239.836 113.805C239.836 114.633 240.141 115.32 240.75 115.867C241.391 116.383 242.594 116.875 244.359 117.344C244.422 117.359 244.477 117.375 244.523 117.391C244.57 117.391 244.641 117.406 244.734 117.438C248.547 118.453 251.062 119.594 252.281 120.859C253.078 121.656 253.703 122.664 254.156 123.883C254.562 125.039 254.766 126.352 254.766 127.82C254.766 131.445 253.57 134.375 251.18 136.609C248.773 138.812 245.586 139.914 241.617 139.914C239.18 139.914 237 139.516 235.078 138.719C233.172 137.922 231.289 136.641 229.43 134.875L233.648 127.914ZM264.961 139V112.797H257.273V104.688H282V112.797H274.312V139H264.961ZM321.82 121.914C321.82 124.398 321.375 126.719 320.484 128.875C319.594 130.984 318.266 132.906 316.5 134.641C314.75 136.328 312.75 137.625 310.5 138.531C308.141 139.453 305.805 139.914 303.492 139.914C301.148 139.914 298.812 139.453 296.484 138.531C294.188 137.609 292.203 136.312 290.531 134.641C288.844 133.031 287.516 131.094 286.547 128.828C285.609 126.609 285.141 124.305 285.141 121.914C285.141 119.523 285.609 117.219 286.547 115C287.516 112.734 288.844 110.797 290.531 109.188C292.25 107.469 294.234 106.156 296.484 105.25C298.672 104.359 301.008 103.914 303.492 103.914C305.977 103.914 308.328 104.367 310.547 105.273C312.766 106.164 314.742 107.469 316.477 109.188C318.227 110.906 319.562 112.844 320.484 115C321.375 117.156 321.82 119.461 321.82 121.914ZM303.492 131.992C306.07 131.992 308.227 131.031 309.961 129.109C310.82 128.156 311.453 127.086 311.859 125.898C312.266 124.711 312.469 123.383 312.469 121.914C312.469 119.055 311.617 116.656 309.914 114.719C308.18 112.797 306.039 111.836 303.492 111.836C300.883 111.836 298.734 112.797 297.047 114.719C295.359 116.641 294.516 119.039 294.516 121.914C294.516 124.898 295.344 127.312 297 129.156C298.703 131.047 300.867 131.992 303.492 131.992ZM329.227 127.914C330.664 129.508 332.039 130.688 333.352 131.453C334.727 132.234 336.07 132.625 337.383 132.625C338.617 132.625 339.641 132.289 340.453 131.617C341.266 130.945 341.672 130.094 341.672 129.062C341.672 127.938 341.336 127.055 340.664 126.414C339.945 125.805 338.359 125.172 335.906 124.516C332.562 123.609 330.195 122.438 328.805 121C327.398 119.531 326.695 117.531 326.695 115C326.695 111.719 327.797 109.047 330 106.984C332.172 104.906 335.016 103.867 338.531 103.867C340.516 103.867 342.312 104.125 343.922 104.641C345.609 105.156 347.211 105.922 348.727 106.938L345.797 113.664C344.766 112.773 343.672 112.086 342.516 111.602C341.391 111.148 340.289 110.922 339.211 110.922C338.117 110.922 337.203 111.195 336.469 111.742C335.766 112.258 335.414 112.945 335.414 113.805C335.414 114.633 335.719 115.32 336.328 115.867C336.969 116.383 338.172 116.875 339.938 117.344C340 117.359 340.055 117.375 340.102 117.391C340.148 117.391 340.219 117.406 340.312 117.438C344.125 118.453 346.641 119.594 347.859 120.859C348.656 121.656 349.281 122.664 349.734 123.883C350.141 125.039 350.344 126.352 350.344 127.82C350.344 131.445 349.148 134.375 346.758 136.609C344.352 138.812 341.164 139.914 337.195 139.914C334.758 139.914 332.578 139.516 330.656 138.719C328.75 137.922 326.867 136.641 325.008 134.875L329.227 127.914Z" fill="white"/>
<path d="M26 198H14C9.58172 198 6 194.418 6 190V19.5" stroke="white" stroke-width="1.5"/>
<path d="M12.622 13.0784C12.622 16.6144 9.92461 19.4068 6.68598 19.4068C3.44736 19.4068 0.75 16.6144 0.75 13.0784C0.75 9.54244 3.44736 6.75 6.68598 6.75C9.92461 6.75 12.622 9.54244 12.622 13.0784Z" stroke="white" stroke-width="1.5"/>
<rect x="24" y="176" width="347" height="64" rx="16" fill="#002A61"/>
<path d="M42.3711 204V191.133H45.7549L50.6152 197.751C50.7383 197.933 50.8936 198.205 51.0811 198.568C51.3213 199.037 51.5557 199.521 51.7842 200.019C51.6963 199.345 51.6465 198.873 51.6348 198.604C51.5996 198.182 51.582 197.81 51.582 197.487V191.133H54.9482V204H51.582L46.7217 197.355C46.6514 197.262 46.4961 196.986 46.2559 196.529C46.0449 196.154 45.8105 195.68 45.5527 195.105C45.6113 195.562 45.667 196.037 45.7197 196.529C45.7432 197.08 45.7549 197.452 45.7549 197.646V204H42.3711ZM63.7988 199.588C63.7988 198.926 63.6318 198.404 63.2979 198.023C62.9521 197.643 62.501 197.452 61.9443 197.452C61.3701 197.452 60.9189 197.643 60.5908 198.023C60.2568 198.393 60.0898 198.914 60.0898 199.588C60.0898 200.244 60.251 200.76 60.5732 201.135C60.9248 201.521 61.3818 201.715 61.9443 201.715C62.5068 201.715 62.9639 201.521 63.3154 201.135C63.6377 200.748 63.7988 200.232 63.7988 199.588ZM66.9102 199.588C66.9102 200.238 66.7842 200.845 66.5322 201.407C66.2686 202.005 65.9082 202.521 65.4512 202.954C64.9355 203.435 64.4023 203.783 63.8516 204C63.2773 204.229 62.6416 204.343 61.9443 204.343C61.2412 204.343 60.6055 204.229 60.0371 204C59.457 203.771 58.9209 203.426 58.4287 202.963C57.9424 202.494 57.5908 201.976 57.374 201.407C57.1221 200.862 56.9961 200.256 56.9961 199.588C56.9961 198.938 57.1221 198.325 57.374 197.751C57.6084 197.171 57.9629 196.655 58.4375 196.204C58.9004 195.759 59.4336 195.416 60.0371 195.176C60.6113 194.953 61.2471 194.842 61.9443 194.842C62.6357 194.842 63.2715 194.953 63.8516 195.176C64.4551 195.416 64.9883 195.759 65.4512 196.204C65.9375 196.644 66.2979 197.159 66.5322 197.751C66.7842 198.325 66.9102 198.938 66.9102 199.588ZM74.8555 204L74.8379 197.338H73.5107V195.123H74.8379V192.478H77.9404V195.123H79.25V197.338H77.9404V204H74.8555ZM86.835 198.419C86.7822 197.927 86.5918 197.525 86.2637 197.215C85.9355 196.904 85.5342 196.749 85.0596 196.749C84.5615 196.749 84.1572 196.887 83.8467 197.162C83.5244 197.473 83.3223 197.892 83.2402 198.419H86.835ZM89.9199 200.186H83.1699C83.1875 200.877 83.3604 201.404 83.6885 201.768C84.0283 202.143 84.5205 202.33 85.165 202.33C85.6338 202.33 86.0352 202.239 86.3691 202.058C86.709 201.864 86.9551 201.601 87.1074 201.267L89.4629 202.216C89.1875 202.89 88.6895 203.411 87.9688 203.78C87.2539 204.155 86.3779 204.343 85.3408 204.343C83.7939 204.343 82.5518 203.909 81.6143 203.042C80.6826 202.198 80.2168 201.07 80.2168 199.658C80.2168 198.281 80.6826 197.13 81.6143 196.204C82.5459 195.296 83.7295 194.842 85.165 194.842C86.6299 194.842 87.7871 195.302 88.6367 196.222C89.0703 196.696 89.3926 197.25 89.6035 197.883C89.8145 198.51 89.9199 199.228 89.9199 200.036V200.186ZM104.149 199.588C104.149 198.908 103.971 198.363 103.613 197.953C103.232 197.555 102.729 197.355 102.102 197.355C101.469 197.355 100.971 197.555 100.607 197.953C100.244 198.352 100.062 198.896 100.062 199.588C100.062 200.268 100.244 200.815 100.607 201.231C100.965 201.624 101.463 201.82 102.102 201.82C102.734 201.82 103.238 201.624 103.613 201.231C103.971 200.821 104.149 200.273 104.149 199.588ZM106.927 207.92H103.921V204.141C103.921 203.93 103.933 203.643 103.956 203.279C103.974 202.963 103.997 202.723 104.026 202.559C103.634 203.215 103.212 203.672 102.761 203.93C102.274 204.205 101.665 204.343 100.933 204.343C99.7549 204.343 98.7998 203.903 98.0674 203.024C97.3232 202.14 96.9512 200.994 96.9512 199.588C96.9512 198.123 97.3232 196.966 98.0674 196.116C98.4424 195.688 98.876 195.372 99.3682 195.167C99.8604 194.962 100.417 194.859 101.038 194.859C101.659 194.859 102.21 195.003 102.69 195.29C103.206 195.601 103.657 196.043 104.044 196.617V195.141L106.927 195.123V207.92ZM118.353 195.123V199.658C118.353 200.672 118.276 201.41 118.124 201.873C117.96 202.354 117.685 202.787 117.298 203.174C116.929 203.561 116.442 203.854 115.839 204.053C115.265 204.246 114.573 204.343 113.765 204.343C112.962 204.343 112.279 204.246 111.717 204.053C111.137 203.865 110.639 203.572 110.223 203.174C109.842 202.811 109.572 202.383 109.414 201.891C109.256 201.434 109.177 200.689 109.177 199.658V195.123H112.165V199.86C112.165 200.604 112.291 201.138 112.543 201.46C112.771 201.8 113.167 201.97 113.729 201.97C114.286 201.97 114.685 201.806 114.925 201.478C115.171 201.149 115.294 200.61 115.294 199.86V195.123H118.353ZM126.72 198.419C126.667 197.927 126.477 197.525 126.148 197.215C125.82 196.904 125.419 196.749 124.944 196.749C124.446 196.749 124.042 196.887 123.731 197.162C123.409 197.473 123.207 197.892 123.125 198.419H126.72ZM129.805 200.186H123.055C123.072 200.877 123.245 201.404 123.573 201.768C123.913 202.143 124.405 202.33 125.05 202.33C125.519 202.33 125.92 202.239 126.254 202.058C126.594 201.864 126.84 201.601 126.992 201.267L129.348 202.216C129.072 202.89 128.574 203.411 127.854 203.78C127.139 204.155 126.263 204.343 125.226 204.343C123.679 204.343 122.437 203.909 121.499 203.042C120.567 202.198 120.102 201.07 120.102 199.658C120.102 198.281 120.567 197.13 121.499 196.204C122.431 195.296 123.614 194.842 125.05 194.842C126.515 194.842 127.672 195.302 128.521 196.222C128.955 196.696 129.277 197.25 129.488 197.883C129.699 198.51 129.805 199.228 129.805 200.036V200.186ZM138.392 199.57C138.392 198.873 138.213 198.328 137.855 197.936C137.475 197.537 136.971 197.338 136.344 197.338C135.711 197.338 135.213 197.537 134.85 197.936C134.486 198.334 134.305 198.879 134.305 199.57C134.305 200.268 134.486 200.815 134.85 201.214C135.207 201.606 135.705 201.803 136.344 201.803C136.977 201.803 137.48 201.606 137.855 201.214C138.213 200.821 138.392 200.273 138.392 199.57ZM141.169 190.377V204H138.286V202.559C137.888 203.162 137.437 203.607 136.933 203.895C136.464 204.193 135.913 204.343 135.28 204.343C134.038 204.343 133.045 203.909 132.301 203.042C131.562 202.175 131.193 201.018 131.193 199.57C131.193 198.164 131.565 197.019 132.31 196.134C133.048 195.272 134.003 194.842 135.175 194.842C135.925 194.842 136.534 194.979 137.003 195.255C137.454 195.507 137.876 195.955 138.269 196.6C138.245 196.441 138.222 196.201 138.198 195.879C138.175 195.527 138.163 195.24 138.163 195.018V190.377H141.169ZM149.606 198.419C149.554 197.927 149.363 197.525 149.035 197.215C148.707 196.904 148.306 196.749 147.831 196.749C147.333 196.749 146.929 196.887 146.618 197.162C146.296 197.473 146.094 197.892 146.012 198.419H149.606ZM152.691 200.186H145.941C145.959 200.877 146.132 201.404 146.46 201.768C146.8 202.143 147.292 202.33 147.937 202.33C148.405 202.33 148.807 202.239 149.141 202.058C149.48 201.864 149.727 201.601 149.879 201.267L152.234 202.216C151.959 202.89 151.461 203.411 150.74 203.78C150.025 204.155 149.149 204.343 148.112 204.343C146.565 204.343 145.323 203.909 144.386 203.042C143.454 202.198 142.988 201.07 142.988 199.658C142.988 198.281 143.454 197.13 144.386 196.204C145.317 195.296 146.501 194.842 147.937 194.842C149.401 194.842 150.559 195.302 151.408 196.222C151.842 196.696 152.164 197.25 152.375 197.883C152.586 198.51 152.691 199.228 152.691 200.036V200.186ZM153.667 203.262L154.317 200.871C154.774 201.275 155.278 201.58 155.829 201.785C156.374 202.002 156.925 202.11 157.481 202.11C157.88 202.11 158.179 202.043 158.378 201.908C158.583 201.785 158.686 201.606 158.686 201.372C158.686 200.979 158.272 200.687 157.446 200.493C157.159 200.429 156.942 200.373 156.796 200.326C155.841 200.045 155.164 199.702 154.766 199.298C154.332 198.882 154.115 198.343 154.115 197.681C154.115 196.825 154.44 196.137 155.091 195.615C155.718 195.1 156.594 194.842 157.719 194.842C158.264 194.842 158.844 194.906 159.459 195.035C159.975 195.141 160.575 195.346 161.261 195.65L160.61 197.804C160.188 197.517 159.764 197.303 159.336 197.162C158.932 197.016 158.507 196.942 158.062 196.942C157.698 196.942 157.426 196.998 157.244 197.109C157.068 197.215 156.98 197.376 156.98 197.593C156.98 197.897 157.394 198.161 158.22 198.384C158.489 198.466 158.627 198.507 158.633 198.507C159.711 198.812 160.467 199.172 160.9 199.588C161.322 200.027 161.533 200.599 161.533 201.302C161.533 202.21 161.185 202.942 160.487 203.499C159.772 204.062 158.85 204.343 157.719 204.343C156.934 204.343 156.21 204.252 155.548 204.07C154.892 203.895 154.265 203.625 153.667 203.262ZM168.028 203.262L168.679 200.871C169.136 201.275 169.64 201.58 170.19 201.785C170.735 202.002 171.286 202.11 171.843 202.11C172.241 202.11 172.54 202.043 172.739 201.908C172.944 201.785 173.047 201.606 173.047 201.372C173.047 200.979 172.634 200.687 171.808 200.493C171.521 200.429 171.304 200.373 171.157 200.326C170.202 200.045 169.525 199.702 169.127 199.298C168.693 198.882 168.477 198.343 168.477 197.681C168.477 196.825 168.802 196.137 169.452 195.615C170.079 195.1 170.955 194.842 172.08 194.842C172.625 194.842 173.205 194.906 173.82 195.035C174.336 195.141 174.937 195.346 175.622 195.65L174.972 197.804C174.55 197.517 174.125 197.303 173.697 197.162C173.293 197.016 172.868 196.942 172.423 196.942C172.06 196.942 171.787 196.998 171.605 197.109C171.43 197.215 171.342 197.376 171.342 197.593C171.342 197.897 171.755 198.161 172.581 198.384C172.851 198.466 172.988 198.507 172.994 198.507C174.072 198.812 174.828 199.172 175.262 199.588C175.684 200.027 175.895 200.599 175.895 201.302C175.895 202.21 175.546 202.942 174.849 203.499C174.134 204.062 173.211 204.343 172.08 204.343C171.295 204.343 170.571 204.252 169.909 204.07C169.253 203.895 168.626 203.625 168.028 203.262ZM177.503 204V195.123H180.632V204H177.503ZM177.898 192.838H177.916C177.916 192.51 178.03 192.24 178.259 192.029C178.487 191.801 178.763 191.687 179.085 191.687C179.425 191.687 179.703 191.795 179.92 192.012C180.143 192.229 180.254 192.504 180.254 192.838C180.254 193.178 180.14 193.459 179.911 193.682C179.688 193.91 179.413 194.024 179.085 194.024C178.751 194.024 178.47 193.904 178.241 193.664C178.013 193.441 177.898 193.166 177.898 192.838ZM183.198 204V195.123H186.063V196.925C186.468 196.222 186.948 195.694 187.505 195.343C188.044 195.009 188.697 194.842 189.465 194.842C190.045 194.842 190.561 194.93 191.012 195.105C191.457 195.305 191.817 195.574 192.093 195.914C192.345 196.254 192.512 196.614 192.594 196.995C192.693 197.481 192.743 198.123 192.743 198.92V204H189.605V199.245C189.605 198.524 189.491 198.009 189.263 197.698C189.034 197.376 188.662 197.215 188.146 197.215C187.502 197.215 187.027 197.455 186.723 197.936C186.424 198.416 186.274 199.195 186.274 200.273V204H183.198ZM200.688 204V190.377H203.826V204H200.688ZM212.527 199.588C212.527 198.926 212.36 198.404 212.026 198.023C211.681 197.643 211.229 197.452 210.673 197.452C210.099 197.452 209.647 197.643 209.319 198.023C208.985 198.393 208.818 198.914 208.818 199.588C208.818 200.244 208.979 200.76 209.302 201.135C209.653 201.521 210.11 201.715 210.673 201.715C211.235 201.715 211.692 201.521 212.044 201.135C212.366 200.748 212.527 200.232 212.527 199.588ZM215.639 199.588C215.639 200.238 215.513 200.845 215.261 201.407C214.997 202.005 214.637 202.521 214.18 202.954C213.664 203.435 213.131 203.783 212.58 204C212.006 204.229 211.37 204.343 210.673 204.343C209.97 204.343 209.334 204.229 208.766 204C208.186 203.771 207.649 203.426 207.157 202.963C206.671 202.494 206.319 201.976 206.103 201.407C205.851 200.862 205.725 200.256 205.725 199.588C205.725 198.938 205.851 198.325 206.103 197.751C206.337 197.171 206.691 196.655 207.166 196.204C207.629 195.759 208.162 195.416 208.766 195.176C209.34 194.953 209.976 194.842 210.673 194.842C211.364 194.842 212 194.953 212.58 195.176C213.184 195.416 213.717 195.759 214.18 196.204C214.666 196.644 215.026 197.159 215.261 197.751C215.513 198.325 215.639 198.938 215.639 199.588ZM223.013 204V195.123H226.142V204H223.013ZM223.408 192.838H223.426C223.426 192.51 223.54 192.24 223.769 192.029C223.997 191.801 224.272 191.687 224.595 191.687C224.935 191.687 225.213 191.795 225.43 192.012C225.652 192.229 225.764 192.504 225.764 192.838C225.764 193.178 225.649 193.459 225.421 193.682C225.198 193.91 224.923 194.024 224.595 194.024C224.261 194.024 223.979 193.904 223.751 193.664C223.522 193.441 223.408 193.166 223.408 192.838ZM228.708 204V195.123H231.573V196.925C231.978 196.222 232.458 195.694 233.015 195.343C233.554 195.009 234.207 194.842 234.975 194.842C235.555 194.842 236.07 194.93 236.521 195.105C236.967 195.305 237.327 195.574 237.603 195.914C237.854 196.254 238.021 196.614 238.104 196.995C238.203 197.481 238.253 198.123 238.253 198.92V204H235.115V199.245C235.115 198.524 235.001 198.009 234.772 197.698C234.544 197.376 234.172 197.215 233.656 197.215C233.012 197.215 232.537 197.455 232.232 197.936C231.934 198.416 231.784 199.195 231.784 200.273V204H228.708ZM247.253 199.57C247.253 198.873 247.074 198.328 246.717 197.936C246.336 197.537 245.832 197.338 245.205 197.338C244.572 197.338 244.074 197.537 243.711 197.936C243.348 198.334 243.166 198.879 243.166 199.57C243.166 200.268 243.348 200.815 243.711 201.214C244.068 201.606 244.566 201.803 245.205 201.803C245.838 201.803 246.342 201.606 246.717 201.214C247.074 200.821 247.253 200.273 247.253 199.57ZM250.03 190.377V204H247.147V202.559C246.749 203.162 246.298 203.607 245.794 203.895C245.325 204.193 244.774 204.343 244.142 204.343C242.899 204.343 241.906 203.909 241.162 203.042C240.424 202.175 240.055 201.018 240.055 199.57C240.055 198.164 240.427 197.019 241.171 196.134C241.909 195.272 242.864 194.842 244.036 194.842C244.786 194.842 245.396 194.979 245.864 195.255C246.315 195.507 246.737 195.955 247.13 196.6C247.106 196.441 247.083 196.201 247.06 195.879C247.036 195.527 247.024 195.24 247.024 195.018V190.377H250.03ZM252.28 204V195.123H255.409V204H252.28ZM252.676 192.838H252.693C252.693 192.51 252.808 192.24 253.036 192.029C253.265 191.801 253.54 191.687 253.862 191.687C254.202 191.687 254.48 191.795 254.697 192.012C254.92 192.229 255.031 192.504 255.031 192.838C255.031 193.178 254.917 193.459 254.688 193.682C254.466 193.91 254.19 194.024 253.862 194.024C253.528 194.024 253.247 193.904 253.019 193.664C252.79 193.441 252.676 193.166 252.676 192.838ZM257.149 203.262L257.8 200.871C258.257 201.275 258.761 201.58 259.312 201.785C259.856 202.002 260.407 202.11 260.964 202.11C261.362 202.11 261.661 202.043 261.86 201.908C262.065 201.785 262.168 201.606 262.168 201.372C262.168 200.979 261.755 200.687 260.929 200.493C260.642 200.429 260.425 200.373 260.278 200.326C259.323 200.045 258.646 199.702 258.248 199.298C257.814 198.882 257.598 198.343 257.598 197.681C257.598 196.825 257.923 196.137 258.573 195.615C259.2 195.1 260.076 194.842 261.201 194.842C261.746 194.842 262.326 194.906 262.941 195.035C263.457 195.141 264.058 195.346 264.743 195.65L264.093 197.804C263.671 197.517 263.246 197.303 262.818 197.162C262.414 197.016 261.989 196.942 261.544 196.942C261.181 196.942 260.908 196.998 260.727 197.109C260.551 197.215 260.463 197.376 260.463 197.593C260.463 197.897 260.876 198.161 261.702 198.384C261.972 198.466 262.109 198.507 262.115 198.507C263.193 198.812 263.949 199.172 264.383 199.588C264.805 200.027 265.016 200.599 265.016 201.302C265.016 202.21 264.667 202.942 263.97 203.499C263.255 204.062 262.332 204.343 261.201 204.343C260.416 204.343 259.692 204.252 259.03 204.07C258.374 203.895 257.747 203.625 257.149 203.262ZM269.489 199.588C269.489 200.279 269.674 200.827 270.043 201.231C270.383 201.624 270.875 201.82 271.52 201.82C272.158 201.82 272.656 201.624 273.014 201.231C273.371 200.821 273.55 200.273 273.55 199.588C273.55 198.891 273.371 198.346 273.014 197.953C272.65 197.555 272.152 197.355 271.52 197.355C270.881 197.355 270.389 197.555 270.043 197.953C269.674 198.34 269.489 198.885 269.489 199.588ZM266.712 207.92V195.141H269.595V196.617C269.976 196.049 270.424 195.606 270.939 195.29C271.426 195.003 271.979 194.859 272.601 194.859C273.228 194.859 273.79 194.965 274.288 195.176C274.786 195.381 275.22 195.694 275.589 196.116C276.321 196.954 276.688 198.111 276.688 199.588C276.688 201.006 276.321 202.151 275.589 203.024C275.214 203.47 274.789 203.801 274.314 204.018C273.846 204.234 273.31 204.343 272.706 204.343C271.95 204.343 271.338 204.205 270.869 203.93C270.418 203.666 269.999 203.209 269.612 202.559C269.642 202.699 269.665 202.916 269.683 203.209C269.694 203.379 269.7 203.689 269.7 204.141V207.92H266.712ZM284.694 198.419C284.642 197.927 284.451 197.525 284.123 197.215C283.795 196.904 283.394 196.749 282.919 196.749C282.421 196.749 282.017 196.887 281.706 197.162C281.384 197.473 281.182 197.892 281.1 198.419H284.694ZM287.779 200.186H281.029C281.047 200.877 281.22 201.404 281.548 201.768C281.888 202.143 282.38 202.33 283.024 202.33C283.493 202.33 283.895 202.239 284.229 202.058C284.568 201.864 284.814 201.601 284.967 201.267L287.322 202.216C287.047 202.89 286.549 203.411 285.828 203.78C285.113 204.155 284.237 204.343 283.2 204.343C281.653 204.343 280.411 203.909 279.474 203.042C278.542 202.198 278.076 201.07 278.076 199.658C278.076 198.281 278.542 197.13 279.474 196.204C280.405 195.296 281.589 194.842 283.024 194.842C284.489 194.842 285.646 195.302 286.496 196.222C286.93 196.696 287.252 197.25 287.463 197.883C287.674 198.51 287.779 199.228 287.779 200.036V200.186ZM289.581 204V195.123H292.446V196.925C292.851 196.222 293.331 195.694 293.888 195.343C294.427 195.009 295.08 194.842 295.848 194.842C296.428 194.842 296.943 194.93 297.395 195.105C297.84 195.305 298.2 195.574 298.476 195.914C298.728 196.254 298.895 196.614 298.977 196.995C299.076 197.481 299.126 198.123 299.126 198.92V204H295.988V199.245C295.988 198.524 295.874 198.009 295.646 197.698C295.417 197.376 295.045 197.215 294.529 197.215C293.885 197.215 293.41 197.455 293.105 197.936C292.807 198.416 292.657 199.195 292.657 200.273V204H289.581ZM300.515 203.262L301.165 200.871C301.622 201.275 302.126 201.58 302.677 201.785C303.222 202.002 303.772 202.11 304.329 202.11C304.728 202.11 305.026 202.043 305.226 201.908C305.431 201.785 305.533 201.606 305.533 201.372C305.533 200.979 305.12 200.687 304.294 200.493C304.007 200.429 303.79 200.373 303.644 200.326C302.688 200.045 302.012 199.702 301.613 199.298C301.18 198.882 300.963 198.343 300.963 197.681C300.963 196.825 301.288 196.137 301.938 195.615C302.565 195.1 303.441 194.842 304.566 194.842C305.111 194.842 305.691 194.906 306.307 195.035C306.822 195.141 307.423 195.346 308.108 195.65L307.458 197.804C307.036 197.517 306.611 197.303 306.184 197.162C305.779 197.016 305.354 196.942 304.909 196.942C304.546 196.942 304.273 196.998 304.092 197.109C303.916 197.215 303.828 197.376 303.828 197.593C303.828 197.897 304.241 198.161 305.067 198.384C305.337 198.466 305.475 198.507 305.48 198.507C306.559 198.812 307.314 199.172 307.748 199.588C308.17 200.027 308.381 200.599 308.381 201.302C308.381 202.21 308.032 202.942 307.335 203.499C306.62 204.062 305.697 204.343 304.566 204.343C303.781 204.343 303.058 204.252 302.396 204.07C301.739 203.895 301.112 203.625 300.515 203.262ZM316.827 199.553C316.827 198.85 316.643 198.305 316.273 197.918C315.898 197.508 315.395 197.303 314.762 197.303C314.129 197.303 313.631 197.502 313.268 197.9C312.893 198.311 312.705 198.861 312.705 199.553C312.705 200.25 312.893 200.798 313.268 201.196C313.625 201.589 314.123 201.785 314.762 201.785C315.395 201.785 315.896 201.589 316.265 201.196C316.64 200.804 316.827 200.256 316.827 199.553ZM319.578 195.123V204H316.704V202.559C316.288 203.174 315.822 203.625 315.307 203.912C314.797 204.199 314.199 204.343 313.514 204.343C312.324 204.343 311.378 203.909 310.675 203.042C310.329 202.614 310.065 202.11 309.884 201.53C309.702 200.95 309.611 200.297 309.611 199.57C309.611 198.117 309.983 196.966 310.728 196.116C311.472 195.267 312.468 194.842 313.716 194.842C314.384 194.842 314.958 194.985 315.438 195.272C315.925 195.548 316.341 195.984 316.687 196.582V195.123H319.578ZM324.737 199.57C324.737 200.279 324.922 200.827 325.291 201.214C325.631 201.606 326.123 201.803 326.768 201.803C327.406 201.803 327.904 201.606 328.262 201.214C328.619 200.821 328.798 200.273 328.798 199.57C328.798 198.873 328.619 198.328 328.262 197.936C327.898 197.537 327.4 197.338 326.768 197.338C326.129 197.338 325.637 197.537 325.291 197.936C324.922 198.322 324.737 198.867 324.737 199.57ZM321.96 190.377H324.948V195.018C324.948 195.475 324.942 195.788 324.931 195.958C324.907 196.257 324.884 196.471 324.86 196.6C325.229 195.961 325.648 195.513 326.117 195.255C326.586 194.979 327.198 194.842 327.954 194.842C329.138 194.842 330.099 195.272 330.837 196.134C331.569 197.007 331.936 198.152 331.936 199.57C331.936 201.029 331.569 202.187 330.837 203.042C330.099 203.909 329.103 204.343 327.849 204.343C327.222 204.343 326.668 204.193 326.188 203.895C325.689 203.607 325.241 203.162 324.843 202.559V204H321.96V190.377ZM333.913 204V190.377H337.051V204H333.913ZM345.567 198.419C345.515 197.927 345.324 197.525 344.996 197.215C344.668 196.904 344.267 196.749 343.792 196.749C343.294 196.749 342.89 196.887 342.579 197.162C342.257 197.473 342.055 197.892 341.973 198.419H345.567ZM348.652 200.186H341.902C341.92 200.877 342.093 201.404 342.421 201.768C342.761 202.143 343.253 202.33 343.897 202.33C344.366 202.33 344.768 202.239 345.102 202.058C345.441 201.864 345.688 201.601 345.84 201.267L348.195 202.216C347.92 202.89 347.422 203.411 346.701 203.78C345.986 204.155 345.11 204.343 344.073 204.343C342.526 204.343 341.284 203.909 340.347 203.042C339.415 202.198 338.949 201.07 338.949 199.658C338.949 198.281 339.415 197.13 340.347 196.204C341.278 195.296 342.462 194.842 343.897 194.842C345.362 194.842 346.52 195.302 347.369 196.222C347.803 196.696 348.125 197.25 348.336 197.883C348.547 198.51 348.652 199.228 348.652 200.036V200.186ZM44.9463 219.588C44.9463 220.279 45.1309 220.827 45.5 221.231C45.8398 221.624 46.332 221.82 46.9766 221.82C47.6152 221.82 48.1133 221.624 48.4707 221.231C48.8281 220.821 49.0068 220.273 49.0068 219.588C49.0068 218.891 48.8281 218.346 48.4707 217.953C48.1074 217.555 47.6094 217.355 46.9766 217.355C46.3379 217.355 45.8457 217.555 45.5 217.953C45.1309 218.34 44.9463 218.885 44.9463 219.588ZM42.1689 227.92V215.141H45.0518V216.617C45.4326 216.049 45.8809 215.606 46.3965 215.29C46.8828 215.003 47.4365 214.859 48.0576 214.859C48.6846 214.859 49.2471 214.965 49.7451 215.176C50.2432 215.381 50.6768 215.694 51.0459 216.116C51.7783 216.954 52.1445 218.111 52.1445 219.588C52.1445 221.006 51.7783 222.151 51.0459 223.024C50.6709 223.47 50.2461 223.801 49.7715 224.018C49.3027 224.234 48.7666 224.343 48.1631 224.343C47.4072 224.343 46.7949 224.205 46.3262 223.93C45.875 223.666 45.4561 223.209 45.0693 222.559C45.0986 222.699 45.1221 222.916 45.1396 223.209C45.1514 223.379 45.1572 223.689 45.1572 224.141V227.92H42.1689ZM60.8018 219.553C60.8018 218.85 60.6172 218.305 60.248 217.918C59.873 217.508 59.3691 217.303 58.7363 217.303C58.1035 217.303 57.6055 217.502 57.2422 217.9C56.8672 218.311 56.6797 218.861 56.6797 219.553C56.6797 220.25 56.8672 220.798 57.2422 221.196C57.5996 221.589 58.0977 221.785 58.7363 221.785C59.3691 221.785 59.8701 221.589 60.2393 221.196C60.6143 220.804 60.8018 220.256 60.8018 219.553ZM63.5527 215.123V224H60.6787V222.559C60.2627 223.174 59.7969 223.625 59.2812 223.912C58.7715 224.199 58.1738 224.343 57.4883 224.343C56.2988 224.343 55.3525 223.909 54.6494 223.042C54.3037 222.614 54.04 222.11 53.8584 221.53C53.6768 220.95 53.5859 220.297 53.5859 219.57C53.5859 218.117 53.958 216.966 54.7021 216.116C55.4463 215.267 56.4424 214.842 57.6904 214.842C58.3584 214.842 58.9326 214.985 59.4131 215.272C59.8994 215.548 60.3154 215.984 60.6611 216.582V215.123H63.5527ZM65.9346 224V215.123H68.8877V217.215C69.1982 216.447 69.6113 215.876 70.127 215.501C70.6602 215.12 71.3018 214.93 72.0518 214.93C72.2217 214.93 72.3477 214.936 72.4297 214.947C72.4941 214.953 72.5527 214.959 72.6055 214.965C72.6582 214.965 72.7256 214.971 72.8076 214.982L72.5088 217.83C72.292 217.76 72.1045 217.71 71.9463 217.681C71.7119 217.657 71.5391 217.646 71.4277 217.646C70.666 217.646 70.0771 217.88 69.6611 218.349C69.251 218.812 69.0459 219.471 69.0459 220.326V224H65.9346ZM80.7354 219.553C80.7354 218.85 80.5508 218.305 80.1816 217.918C79.8066 217.508 79.3027 217.303 78.6699 217.303C78.0371 217.303 77.5391 217.502 77.1758 217.9C76.8008 218.311 76.6133 218.861 76.6133 219.553C76.6133 220.25 76.8008 220.798 77.1758 221.196C77.5332 221.589 78.0312 221.785 78.6699 221.785C79.3027 221.785 79.8037 221.589 80.1729 221.196C80.5479 220.804 80.7354 220.256 80.7354 219.553ZM83.4863 215.123V224H80.6123V222.559C80.1963 223.174 79.7305 223.625 79.2148 223.912C78.7051 224.199 78.1074 224.343 77.4219 224.343C76.2324 224.343 75.2861 223.909 74.583 223.042C74.2373 222.614 73.9736 222.11 73.792 221.53C73.6104 220.95 73.5195 220.297 73.5195 219.57C73.5195 218.117 73.8916 216.966 74.6357 216.116C75.3799 215.267 76.376 214.842 77.624 214.842C78.292 214.842 78.8662 214.985 79.3467 215.272C79.833 215.548 80.249 215.984 80.5947 216.582V215.123H83.4863ZM91.9941 224L91.9766 217.338H90.6494V215.123H91.9766V212.478H95.0791V215.123H96.3887V217.338H95.0791V224H91.9941ZM106.962 215.123V219.658C106.962 220.672 106.886 221.41 106.733 221.873C106.569 222.354 106.294 222.787 105.907 223.174C105.538 223.561 105.052 223.854 104.448 224.053C103.874 224.246 103.183 224.343 102.374 224.343C101.571 224.343 100.889 224.246 100.326 224.053C99.7461 223.865 99.248 223.572 98.832 223.174C98.4512 222.811 98.1816 222.383 98.0234 221.891C97.8652 221.434 97.7861 220.689 97.7861 219.658V215.123H100.774V219.86C100.774 220.604 100.9 221.138 101.152 221.46C101.381 221.8 101.776 221.97 102.339 221.97C102.896 221.97 103.294 221.806 103.534 221.478C103.78 221.149 103.903 220.61 103.903 219.86V215.123H106.962ZM114.854 224V215.123H117.72V216.925C118.124 216.222 118.604 215.694 119.161 215.343C119.7 215.009 120.354 214.842 121.121 214.842C121.701 214.842 122.217 214.93 122.668 215.105C123.113 215.305 123.474 215.574 123.749 215.914C124.001 216.254 124.168 216.614 124.25 216.995C124.35 217.481 124.399 218.123 124.399 218.92V224H121.262V219.245C121.262 218.524 121.147 218.009 120.919 217.698C120.69 217.376 120.318 217.215 119.803 217.215C119.158 217.215 118.684 217.455 118.379 217.936C118.08 218.416 117.931 219.195 117.931 220.273V224H114.854ZM132.731 218.419C132.679 217.927 132.488 217.525 132.16 217.215C131.832 216.904 131.431 216.749 130.956 216.749C130.458 216.749 130.054 216.887 129.743 217.162C129.421 217.473 129.219 217.892 129.137 218.419H132.731ZM135.816 220.186H129.066C129.084 220.877 129.257 221.404 129.585 221.768C129.925 222.143 130.417 222.33 131.062 222.33C131.53 222.33 131.932 222.239 132.266 222.058C132.605 221.864 132.852 221.601 133.004 221.267L135.359 222.216C135.084 222.89 134.586 223.411 133.865 223.78C133.15 224.155 132.274 224.343 131.237 224.343C129.69 224.343 128.448 223.909 127.511 223.042C126.579 222.198 126.113 221.07 126.113 219.658C126.113 218.281 126.579 217.13 127.511 216.204C128.442 215.296 129.626 214.842 131.062 214.842C132.526 214.842 133.684 215.302 134.533 216.222C134.967 216.696 135.289 217.25 135.5 217.883C135.711 218.51 135.816 219.228 135.816 220.036V220.186ZM144.386 219.535C144.386 218.85 144.207 218.311 143.85 217.918C143.463 217.531 142.953 217.338 142.32 217.338C141.688 217.338 141.178 217.531 140.791 217.918C140.416 218.311 140.229 218.85 140.229 219.535C140.229 220.227 140.416 220.76 140.791 221.135C141.172 221.533 141.682 221.732 142.32 221.732C142.947 221.732 143.451 221.533 143.832 221.135C144.201 220.766 144.386 220.232 144.386 219.535ZM147.137 215.123V223.982C147.137 225.324 146.729 226.314 145.915 226.953C145.522 227.27 145.007 227.51 144.368 227.674C143.729 227.838 142.979 227.92 142.118 227.92C140.718 227.92 139.631 227.662 138.857 227.146C138.084 226.625 137.671 225.901 137.618 224.976H140.861C140.92 225.257 141.075 225.471 141.327 225.617C141.585 225.775 141.928 225.854 142.355 225.854C143.023 225.854 143.489 225.693 143.753 225.371C144.005 225.049 144.131 224.363 144.131 223.314V222.506C143.797 223.068 143.378 223.481 142.874 223.745C142.353 224.021 141.746 224.158 141.055 224.158C139.883 224.158 138.942 223.733 138.233 222.884C137.888 222.468 137.624 221.979 137.442 221.416C137.261 220.848 137.17 220.209 137.17 219.5C137.17 218.082 137.542 216.948 138.286 216.099C138.655 215.677 139.089 215.363 139.587 215.158C140.091 214.947 140.653 214.842 141.274 214.842C141.937 214.842 142.511 214.979 142.997 215.255C143.478 215.513 143.894 215.943 144.245 216.547V215.123H147.137ZM155.803 219.588C155.803 218.926 155.636 218.404 155.302 218.023C154.956 217.643 154.505 217.452 153.948 217.452C153.374 217.452 152.923 217.643 152.595 218.023C152.261 218.393 152.094 218.914 152.094 219.588C152.094 220.244 152.255 220.76 152.577 221.135C152.929 221.521 153.386 221.715 153.948 221.715C154.511 221.715 154.968 221.521 155.319 221.135C155.642 220.748 155.803 220.232 155.803 219.588ZM158.914 219.588C158.914 220.238 158.788 220.845 158.536 221.407C158.272 222.005 157.912 222.521 157.455 222.954C156.939 223.435 156.406 223.783 155.855 224C155.281 224.229 154.646 224.343 153.948 224.343C153.245 224.343 152.609 224.229 152.041 224C151.461 223.771 150.925 223.426 150.433 222.963C149.946 222.494 149.595 221.976 149.378 221.407C149.126 220.862 149 220.256 149 219.588C149 218.938 149.126 218.325 149.378 217.751C149.612 217.171 149.967 216.655 150.441 216.204C150.904 215.759 151.438 215.416 152.041 215.176C152.615 214.953 153.251 214.842 153.948 214.842C154.64 214.842 155.275 214.953 155.855 215.176C156.459 215.416 156.992 215.759 157.455 216.204C157.941 216.644 158.302 217.159 158.536 217.751C158.788 218.325 158.914 218.938 158.914 219.588ZM167.088 218.041C166.783 217.771 166.49 217.575 166.209 217.452C165.957 217.329 165.661 217.268 165.321 217.268C164.694 217.268 164.202 217.473 163.845 217.883C163.476 218.287 163.291 218.844 163.291 219.553C163.291 220.232 163.481 220.771 163.862 221.17C164.231 221.58 164.744 221.785 165.4 221.785C165.711 221.785 166.01 221.721 166.297 221.592C166.602 221.445 166.865 221.252 167.088 221.012V223.728C166.713 223.927 166.335 224.085 165.954 224.202C165.55 224.296 165.166 224.343 164.803 224.343C163.432 224.343 162.327 223.903 161.489 223.024C161.202 222.731 160.965 222.409 160.777 222.058C160.596 221.706 160.455 221.325 160.355 220.915C160.262 220.505 160.215 220.057 160.215 219.57C160.215 218.17 160.643 217.033 161.498 216.16C162.359 215.281 163.473 214.842 164.838 214.842C165.266 214.842 165.673 214.889 166.06 214.982C166.435 215.076 166.777 215.214 167.088 215.396V218.041ZM168.942 224V215.123H172.071V224H168.942ZM169.338 212.838H169.355C169.355 212.51 169.47 212.24 169.698 212.029C169.927 211.801 170.202 211.687 170.524 211.687C170.864 211.687 171.143 211.795 171.359 212.012C171.582 212.229 171.693 212.504 171.693 212.838C171.693 213.178 171.579 213.459 171.351 213.682C171.128 213.91 170.853 214.024 170.524 214.024C170.19 214.024 169.909 213.904 169.681 213.664C169.452 213.441 169.338 213.166 169.338 212.838ZM180.939 219.588C180.939 218.926 180.772 218.404 180.438 218.023C180.093 217.643 179.642 217.452 179.085 217.452C178.511 217.452 178.06 217.643 177.731 218.023C177.397 218.393 177.23 218.914 177.23 219.588C177.23 220.244 177.392 220.76 177.714 221.135C178.065 221.521 178.522 221.715 179.085 221.715C179.647 221.715 180.104 221.521 180.456 221.135C180.778 220.748 180.939 220.232 180.939 219.588ZM184.051 219.588C184.051 220.238 183.925 220.845 183.673 221.407C183.409 222.005 183.049 222.521 182.592 222.954C182.076 223.435 181.543 223.783 180.992 224C180.418 224.229 179.782 224.343 179.085 224.343C178.382 224.343 177.746 224.229 177.178 224C176.598 223.771 176.062 223.426 175.569 222.963C175.083 222.494 174.731 221.976 174.515 221.407C174.263 220.862 174.137 220.256 174.137 219.588C174.137 218.938 174.263 218.325 174.515 217.751C174.749 217.171 175.104 216.655 175.578 216.204C176.041 215.759 176.574 215.416 177.178 215.176C177.752 214.953 178.388 214.842 179.085 214.842C179.776 214.842 180.412 214.953 180.992 215.176C181.596 215.416 182.129 215.759 182.592 216.204C183.078 216.644 183.438 217.159 183.673 217.751C183.925 218.325 184.051 218.938 184.051 219.588Z" fill="white"/>
</svg>
