<svg width="50" height="44" viewBox="0 0 50 44" fill="none" xmlns="http://www.w3.org/2000/svg">
<path fill-rule="evenodd" clip-rule="evenodd" d="M1.06634 15.9369C0.676878 13.771 2.03187 11.6544 4.3524 10.8007L27.2737 2.37682C28.8559 1.79829 30.6491 1.89001 32.1339 2.62375L46.2193 9.58725C48.1423 10.5397 49.2214 12.3952 48.9618 14.3001L47.2903 26.7244C47.0875 28.2624 46.0408 29.617 44.483 30.3578L31.2495 36.6793C29.935 37.3072 28.3853 37.4412 26.9573 37.0532L6.98126 31.6136C4.98528 31.0704 3.51669 29.5888 3.19214 27.7897L1.06634 15.9369ZM7.97662 19.2368V17.5082H11.3925V16.8874H7.97662V16.8733H7.03543V19.2368H7.02731V19.8576H7.03543V22.0306H7.97662V19.8576H11.141V19.2368H7.97662ZM13.2019 16.8733H12.496V22.0306H13.2019V16.8733ZM25.4049 17.099H23.3765V17.092H22.9383V17.099H20.9099V17.48H22.9383V22.0306H23.3765V17.48H25.4049V17.099ZM38.5735 19.2509H42.1923V17.0779H42.6467V22.0447H42.1923V19.646H38.5735V22.0447H38.1192V17.0779H38.5735V19.2509ZM30.1839 19.272H27.0114V17.48H30.622V17.099H27.0114V17.092H26.5246V22.0306H30.622V21.6497H27.0114V19.653H30.1839V19.272ZM15.2871 16.8733L19.0843 20.923V16.8733H19.7902V22.0306H19.1979L19.1817 21.9813L15.4737 17.988V22.0306H14.7678V16.8733H15.2871ZM36.9508 17.7199L36.9751 17.734C36.4477 17.2331 35.7012 16.9227 34.8655 16.9227C33.259 16.9227 31.9608 18.0868 31.9608 19.526C31.9608 20.9653 33.259 22.1294 34.8655 22.1294C35.7256 22.1294 36.4964 21.7908 37.0319 21.2616L36.683 20.9724C36.2205 21.4733 35.5227 21.7908 34.7438 21.7908C33.3645 21.7908 32.2367 20.7819 32.2367 19.5401C32.2367 18.2984 33.3564 17.2895 34.7438 17.2895C35.4741 17.2895 36.1313 17.5647 36.5938 18.0162L36.9508 17.7199ZM30.1515 24.3165L30.9872 25.403L31.8635 24.3165H32.1312V26.426H31.7986V24.8739L31.0602 25.8404H30.9223L30.1839 24.9162V26.3978H29.8756V24.3165H30.1515ZM34.4274 26.1297H32.9751V25.4806H34.2651V25.2055H32.9751V24.5917H34.3868V24.3165H32.6343V26.426H34.4274V26.1297ZM33.754 23.6463L33.3158 24.1119V24.119H33.6566L34.0947 23.8227L33.754 23.6463ZM35.6769 25.1349L36.4153 24.3165H36.7885L35.8554 25.3395L36.821 26.3978H36.4477L35.6769 25.5441L34.898 26.3978H34.5248L35.4903 25.3395L34.5653 24.3165H34.9305L35.6769 25.1349ZM37.1212 24.3165H37.4619V26.426H37.1212V24.3165ZM40.0827 24.6411L39.8474 24.8386C39.6851 24.6481 39.4255 24.5211 39.1334 24.5211C38.6303 24.5211 38.2246 24.888 38.2246 25.3466C38.2246 25.7981 38.6303 26.1721 39.1334 26.1721C39.4417 26.1721 39.7175 26.0309 39.8798 25.8193L40.1232 26.0027C39.896 26.2638 39.539 26.426 39.1334 26.426C38.4437 26.426 37.892 25.9392 37.892 25.3466C37.892 24.754 38.4518 24.2671 39.1334 24.2671C39.5147 24.2601 39.8555 24.4083 40.0827 24.6411ZM40.1882 25.3466C40.1882 25.9392 40.7399 26.419 41.4215 26.419C42.103 26.419 42.6548 25.9392 42.6548 25.3466C42.6548 24.7539 42.103 24.2742 41.4215 24.2742C40.7399 24.2742 40.1882 24.7539 40.1882 25.3466ZM42.3221 25.3395C42.3221 25.7981 41.9245 26.172 41.4377 26.172C40.9509 26.172 40.5533 25.7981 40.5533 25.3395C40.5533 24.8809 40.9509 24.507 41.4377 24.507C41.9245 24.507 42.3221 24.8809 42.3221 25.3395Z" fill="white"/>
</svg>
