<svg width="40" height="35" viewBox="0 0 40 35" fill="none" xmlns="http://www.w3.org/2000/svg">
<path d="M0.790109 0.00533341C0.569676 0.0295569 0.366312 0.135473 0.2201 0.302205C0.0738885 0.468938 -0.00456409 0.684392 0.000205369 0.906101V33.7217C0.000228875 33.957 0.0936784 34.1825 0.260001 34.3489C0.426324 34.5152 0.651899 34.6086 0.887115 34.6087H38.1373C38.2548 34.6103 38.3715 34.5886 38.4806 34.5448C38.5896 34.501 38.6889 34.4359 38.7726 34.3534C38.8563 34.2708 38.9228 34.1725 38.9681 34.0641C39.0135 33.9557 39.0368 33.8393 39.0368 33.7217C39.0368 33.6042 39.0135 33.4878 38.9681 33.3794C38.9228 33.271 38.8563 33.1726 38.7726 33.0901C38.6889 33.0076 38.5896 32.9425 38.4806 32.8987C38.3715 32.8549 38.2548 32.8332 38.1373 32.8348H1.77402V0.906101C1.77674 0.779844 1.75247 0.654461 1.70283 0.53834C1.65319 0.422219 1.57933 0.318037 1.48618 0.232762C1.39303 0.147486 1.28275 0.083084 1.16271 0.0438627C1.04267 0.00464153 0.915636 -0.00849445 0.790109 0.00533341ZM25.194 9.7752C25.0775 9.78063 24.9632 9.80896 24.8577 9.85857C24.7521 9.90817 24.6574 9.97808 24.5789 10.0643C24.5004 10.1505 24.4396 10.2514 24.4001 10.3611C24.3605 10.4708 24.343 10.5872 24.3485 10.7037C24.3539 10.8202 24.3823 10.9344 24.4319 11.04C24.4815 11.1455 24.5515 11.2402 24.6377 11.3187C24.7239 11.3972 24.8248 11.4579 24.9345 11.4975C25.0442 11.537 25.1606 11.5545 25.2771 11.549H29.4068L22.8243 18.4364C22.4885 18.2821 22.1203 18.2008 21.7295 18.2008C21.1334 18.2008 20.5816 18.4045 20.1358 18.7413L17.6552 17.0783C17.709 16.8689 17.7384 16.6521 17.7384 16.427C17.7384 14.968 16.5366 13.7663 15.0777 13.7663C13.6187 13.7663 12.4169 14.968 12.4169 16.427C12.4169 16.8569 12.5235 17.2578 12.708 17.6188L8.84158 21.6515C8.45464 21.4307 8.01228 21.305 7.53893 21.305C6.07997 21.305 4.87821 22.5068 4.87821 23.9657C4.87821 25.4247 6.07997 26.6265 7.53893 26.6265C8.9979 26.6265 10.1997 25.4247 10.1997 23.9657C10.1997 23.6234 10.1396 23.2975 10.0195 22.9957L13.9829 18.8522C14.3186 19.0065 14.6868 19.0877 15.0777 19.0877C15.6738 19.0877 16.2255 18.8841 16.6713 18.5473L19.1519 20.2102C19.0981 20.4196 19.0688 20.6364 19.0688 20.8616C19.0688 22.3205 20.2705 23.5223 21.7295 23.5223C23.1885 23.5223 24.3902 22.3205 24.3902 20.8616C24.3902 20.4317 24.2837 20.0308 24.0992 19.6698L30.5986 12.8655V16.8705C30.5969 16.988 30.6186 17.1047 30.6625 17.2137C30.7063 17.3228 30.7713 17.4221 30.8539 17.5058C30.9364 17.5895 31.0347 17.6559 31.1432 17.7013C31.2516 17.7466 31.3679 17.77 31.4855 17.77C31.603 17.77 31.7194 17.7466 31.8278 17.7013C31.9363 17.6559 32.0346 17.5895 32.1171 17.5058C32.1996 17.4221 32.2647 17.3228 32.3085 17.2137C32.3523 17.1047 32.3741 16.988 32.3724 16.8705V10.6621C32.3724 10.4269 32.2789 10.2013 32.1126 10.035C31.9463 9.86867 31.7207 9.77522 31.4855 9.7752H25.2771C25.2494 9.7739 25.2217 9.7739 25.194 9.7752ZM15.0777 15.5401C15.578 15.5401 15.9646 15.9267 15.9646 16.427C15.9646 16.9273 15.578 17.3139 15.0777 17.3139C14.5773 17.3139 14.1908 16.9273 14.1908 16.427C14.1908 15.9267 14.5773 15.5401 15.0777 15.5401ZM21.7295 19.9747C22.2298 19.9747 22.6164 20.3612 22.6164 20.8616C22.6164 21.3619 22.2298 21.7485 21.7295 21.7485C21.2292 21.7485 20.8426 21.3619 20.8426 20.8616C20.8426 20.3612 21.2292 19.9747 21.7295 19.9747ZM7.53893 23.0788C8.03926 23.0788 8.42584 23.4654 8.42584 23.9657C8.42584 24.4661 8.03926 24.8527 7.53893 24.8527C7.03861 24.8527 6.65203 24.4661 6.65203 23.9657C6.65203 23.4654 7.03861 23.0788 7.53893 23.0788Z" fill="#002A61"/>
</svg>
