<svg width="40" height="40" viewBox="0 0 40 40" fill="none" xmlns="http://www.w3.org/2000/svg">
<path d="M20 11.8572C18.3895 11.8572 16.8152 12.3347 15.4761 13.2295C14.137 14.1242 13.0933 15.396 12.477 16.8839C11.8607 18.3718 11.6995 20.0091 12.0136 21.5886C12.3278 23.1682 13.1034 24.6191 14.2422 25.7579C15.381 26.8967 16.8319 27.6722 18.4114 27.9864C19.991 28.3006 21.6283 28.1394 23.1162 27.5231C24.6041 26.9067 25.8758 25.863 26.7706 24.524C27.6653 23.1849 28.1429 21.6105 28.1429 20C28.1403 17.8412 27.2816 15.7715 25.7551 14.245C24.2286 12.7184 22.1589 11.8597 20 11.8572ZM20 26.6624C18.6824 26.6624 17.3943 26.2716 16.2986 25.5396C15.203 24.8075 14.3491 23.767 13.8448 22.5496C13.3406 21.3322 13.2086 19.9926 13.4657 18.7003C13.7228 17.4079 14.3573 16.2208 15.2891 15.2891C16.2208 14.3573 17.4079 13.7228 18.7003 13.4657C19.9926 13.2086 21.3322 13.3406 22.5496 13.8448C23.767 14.3491 24.8075 15.203 25.5396 16.2986C26.2716 17.3943 26.6624 18.6823 26.6624 20C26.6602 21.7663 25.9576 23.4597 24.7086 24.7086C23.4597 25.9576 21.7663 26.6602 20 26.6624Z" fill="#002A61" stroke="#002A61" stroke-width="0.5"/>
<path d="M19.1682 15.4253V16.0344C18.0773 16.3546 17.2856 17.2865 17.2856 18.3844C17.2856 19.7457 18.5034 20.8539 19.9997 20.8539C20.5693 20.8539 21.0508 21.2026 21.0508 21.6158C21.0508 22.029 20.5693 22.3778 19.9997 22.3778C19.4717 22.3778 19.0888 22.0884 18.9828 21.8028C18.819 21.3618 18.3375 21.1407 17.9097 21.3085C17.4806 21.4762 17.2653 21.9693 17.4287 22.4102C17.7085 23.165 18.3637 23.7323 19.1686 23.9666V24.5749C19.1686 25.0462 19.5411 25.4287 20.0001 25.4287C20.4591 25.4287 20.8317 25.0462 20.8317 24.5749V23.9658C21.9226 23.6456 22.7142 22.7137 22.7142 21.6163C22.7142 20.2549 21.4965 19.1468 20.0001 19.1468C19.4305 19.1468 18.9491 18.798 18.9491 18.3848C18.9491 17.9716 19.4305 17.6228 20.0001 17.6228C20.5693 17.6228 20.9585 17.949 21.035 18.2559C21.1493 18.7122 21.6012 18.9884 22.0478 18.8702C22.4922 18.7528 22.7604 18.2875 22.646 17.8307C22.4278 16.959 21.7264 16.2957 20.8317 16.0366V15.4253C20.8317 14.954 20.4591 14.5715 20.0001 14.5715C19.5411 14.5715 19.1682 14.954 19.1682 15.4253Z" fill="#002A61"/>
<path d="M38.3667 16.5414C37.546 16.5414 36.7437 16.2981 36.0614 15.8422C35.379 15.3862 34.8472 14.7382 34.5331 13.98C34.2191 13.2218 34.137 12.3874 34.2972 11.5826C34.4574 10.7777 34.8527 10.0384 35.4331 9.45817C35.5518 9.3394 35.6185 9.17834 35.6185 9.0104C35.6185 8.84246 35.5518 8.6814 35.4331 8.56263L31.4367 4.56693C31.318 4.4482 31.1569 4.3815 30.989 4.3815C30.821 4.3815 30.66 4.4482 30.5412 4.56693C29.9659 5.15491 29.2264 5.55537 28.4196 5.71585C27.6128 5.87633 26.7763 5.78933 26.0198 5.46627C25.2567 5.15949 24.6039 4.62949 24.1469 3.9456C23.6899 3.26171 23.45 2.4558 23.4586 1.63333C23.4586 1.46536 23.3919 1.30427 23.2731 1.1855C23.1544 1.06673 22.9933 1 22.8253 1H17.1747C17.0067 1 16.8456 1.06673 16.7269 1.1855C16.6081 1.30427 16.5414 1.46536 16.5414 1.63333C16.5502 2.45544 16.3108 3.26108 15.8544 3.94493C15.398 4.62877 14.7459 5.159 13.9833 5.46627C13.2266 5.78895 12.3902 5.87573 11.5834 5.71528C10.7766 5.55482 10.037 5.15458 9.46133 4.56693C9.34033 4.45251 9.18011 4.38875 9.01357 4.38875C8.84703 4.38875 8.68681 4.45251 8.5658 4.56693L4.5701 8.56327C4.45137 8.68203 4.38467 8.8431 4.38467 9.01103C4.38467 9.17897 4.45137 9.34003 4.5701 9.4588C5.15789 10.0349 5.55794 10.7751 5.71786 11.5825C5.87777 12.3898 5.79007 13.2267 5.46627 13.9833C5.159 14.7459 4.62877 15.398 3.94493 15.8544C3.26108 16.3108 2.45544 16.5502 1.63333 16.5414C1.46536 16.5414 1.30427 16.6081 1.1855 16.7269C1.06673 16.8456 1 17.0067 1 17.1747V22.8253C1 22.9933 1.06673 23.1544 1.1855 23.2731C1.30427 23.3919 1.46536 23.4586 1.63333 23.4586C2.4558 23.45 3.26171 23.6899 3.9456 24.1469C4.62949 24.6039 5.15949 25.2567 5.46627 26.0198C5.78898 26.7764 5.87579 27.6128 5.71533 28.4195C5.55486 29.2262 5.15461 29.9657 4.56693 30.5412C4.4482 30.66 4.3815 30.821 4.3815 30.989C4.3815 31.1569 4.4482 31.318 4.56693 31.4367L8.56263 35.4331C8.6814 35.5518 8.84246 35.6185 9.0104 35.6185C9.17834 35.6185 9.3394 35.5518 9.45817 35.4331C10.0384 34.8527 10.7777 34.4574 11.5826 34.2972C12.3874 34.137 13.2218 34.2191 13.98 34.5331C14.7382 34.8472 15.3862 35.379 15.8422 36.0614C16.2981 36.7437 16.5414 37.546 16.5414 38.3667C16.5414 38.5346 16.6081 38.6957 16.7269 38.8145C16.8456 38.9333 17.0067 39 17.1747 39H22.8253C22.9933 39 23.1544 38.9333 23.2731 38.8145C23.3919 38.6957 23.4586 38.5346 23.4586 38.3667C23.4586 37.546 23.7019 36.7437 24.1578 36.0614C24.6138 35.379 25.2618 34.8472 26.02 34.5331C26.7782 34.2191 27.6126 34.137 28.4174 34.2972C29.2223 34.4574 29.9616 34.8527 30.5418 35.4331C30.6606 35.5518 30.8217 35.6185 30.9896 35.6185C31.1575 35.6185 31.3186 35.5518 31.4374 35.4331L35.4331 31.4367C35.5518 31.318 35.6185 31.1569 35.6185 30.989C35.6185 30.821 35.5518 30.66 35.4331 30.5412C34.8529 29.961 34.4578 29.2217 34.2977 28.4169C34.1377 27.6122 34.2198 26.778 34.5338 26.0199C34.8478 25.2618 35.3796 24.6139 36.0618 24.158C36.744 23.7021 37.5461 23.4587 38.3667 23.4586C38.5346 23.4586 38.6957 23.3919 38.8145 23.2731C38.9333 23.1544 39 22.9933 39 22.8253V17.1747C39 17.0067 38.9333 16.8456 38.8145 16.7269C38.6957 16.6081 38.5346 16.5414 38.3667 16.5414ZM37.7333 22.2274C36.7767 22.3407 35.8676 22.7069 35.0995 23.2883C34.3315 23.8698 33.7323 24.6454 33.3636 25.5354C32.995 26.4254 32.8702 27.3975 33.0022 28.3517C33.1342 29.3059 33.5181 30.2077 34.1145 30.9643L30.9649 34.1145C30.2084 33.5179 29.3065 33.1339 28.3522 33.0018C27.3979 32.8698 26.4256 32.9945 25.5356 33.3631C24.6455 33.7318 23.8697 34.331 23.2883 35.0992C22.7068 35.8673 22.3406 36.7766 22.2274 37.7333H17.7726C17.6593 36.7767 17.2931 35.8676 16.7117 35.0995C16.1302 34.3315 15.3546 33.7323 14.4646 33.3636C13.5746 32.995 12.6025 32.8702 11.6483 33.0022C10.6941 33.1342 9.79225 33.5181 9.03573 34.1145L5.88553 30.9643C6.49158 30.2127 6.88167 29.3103 7.01399 28.354C7.14631 27.3976 7.01588 26.4232 6.63667 25.5353C6.277 24.6393 5.68026 23.8581 4.91042 23.2753C4.14059 22.6926 3.22668 22.3304 2.26667 22.2274V17.7726C3.22668 17.6696 4.14059 17.3074 4.91042 16.7247C5.68026 16.1419 6.277 15.3607 6.63667 14.4647C7.01588 13.5768 7.14631 12.6024 7.01399 11.646C6.88167 10.6897 6.49158 9.78731 5.88553 9.03573L9.03573 5.88553C9.78731 6.49158 10.6897 6.88167 11.646 7.01399C12.6024 7.14631 13.5768 7.01588 14.4647 6.63667C15.3607 6.277 16.1419 5.68026 16.7247 4.91042C17.3074 4.14059 17.6696 3.22668 17.7726 2.26667H22.2274C22.3304 3.22668 22.6926 4.14059 23.2753 4.91042C23.8581 5.68026 24.6393 6.277 25.5353 6.63667C26.4233 7.016 27.3978 7.1465 28.3543 7.01418C29.3108 6.88186 30.2133 6.4917 30.9649 5.88553L34.1145 9.03573C33.5181 9.79225 33.1342 10.6941 33.0022 11.6483C32.8702 12.6025 32.995 13.5746 33.3636 14.4646C33.7323 15.3546 34.3315 16.1302 35.0995 16.7117C35.8676 17.2931 36.7767 17.6593 37.7333 17.7726V22.2274Z" fill="#002A61" stroke="#002A61" stroke-width="0.5"/>
<path d="M20.0002 7.33325C17.4949 7.33325 15.046 8.07614 12.9629 9.46797C10.8799 10.8598 9.2564 12.8381 8.29769 15.1526C7.33898 17.4671 7.08814 20.014 7.57689 22.4711C8.06563 24.9282 9.27202 27.1851 11.0435 28.9566C12.8149 30.7281 15.0719 31.9345 17.529 32.4232C19.9861 32.9119 22.533 32.6611 24.8475 31.7024C27.162 30.7437 29.1403 29.1202 30.5321 27.0371C31.9239 24.9541 32.6668 22.5051 32.6668 19.9999C32.663 16.6417 31.3272 13.4221 28.9526 11.0475C26.578 8.67287 23.3584 7.33711 20.0002 7.33325ZM20.0002 31.3999C17.7455 31.3999 15.5414 30.7313 13.6667 29.4787C11.7919 28.226 10.3308 26.4456 9.46794 24.3625C8.6051 22.2794 8.37934 19.9873 8.81922 17.7759C9.25909 15.5645 10.3448 13.5332 11.9392 11.9389C13.5335 10.3446 15.5648 9.25884 17.7761 8.81897C19.9875 8.3791 22.2797 8.60485 24.3628 9.46769C26.4458 10.3305 28.2263 11.7917 29.4789 13.6664C30.7316 15.5411 31.4002 17.7452 31.4002 19.9999C31.3966 23.0223 30.1944 25.9199 28.0573 28.057C25.9201 30.1942 23.0226 31.3964 20.0002 31.3999Z" fill="#002A61" stroke="#002A61" stroke-width="0.5"/>
</svg>
