<svg width="65" height="65" viewBox="0 0 65 65" fill="none" xmlns="http://www.w3.org/2000/svg">
<path d="M32.4999 18.5713C29.7451 18.5713 27.0521 19.3882 24.7616 20.9187C22.471 22.4492 20.6858 24.6245 19.6315 27.1696C18.5773 29.7147 18.3015 32.5153 18.8389 35.2172C19.3764 37.9191 20.7029 40.4009 22.6509 42.3488C24.5988 44.2968 27.0807 45.6234 29.7825 46.1608C32.4844 46.6982 35.285 46.4224 37.8301 45.3682C40.3752 44.314 42.5505 42.5287 44.081 40.2382C45.6115 37.9476 46.4284 35.2547 46.4284 32.4999C46.4241 28.8071 44.9552 25.2669 42.344 22.6557C39.7329 20.0445 36.1926 18.5756 32.4999 18.5713ZM32.4999 43.896C30.2459 43.896 28.0426 43.2276 26.1685 41.9754C24.2944 40.7231 22.8338 38.9433 21.9712 36.861C21.1087 34.7786 20.883 32.4872 21.3227 30.2766C21.7625 28.066 22.8478 26.0354 24.4416 24.4416C26.0354 22.8478 28.066 21.7624 30.2766 21.3227C32.4872 20.883 34.7786 21.1087 36.861 21.9712C38.9433 22.8338 40.7232 24.2944 41.9754 26.1685C43.2276 28.0426 43.896 30.2459 43.896 32.4999C43.8923 35.5212 42.6904 38.4177 40.5541 40.554C38.4177 42.6904 35.5212 43.8923 32.4999 43.896Z" fill="white"/>
<path d="M31.0772 24.6747V25.7167C29.2111 26.2643 27.8571 27.8583 27.8571 29.7363C27.8571 32.0649 29.9401 33.9604 32.4996 33.9604C33.4739 33.9604 34.2974 34.557 34.2974 35.2638C34.2974 35.9706 33.4739 36.5672 32.4996 36.5672C31.5964 36.5672 30.9414 36.0721 30.76 35.5836C30.4798 34.8293 29.6563 34.4511 28.9245 34.7381C28.1906 35.025 27.8222 35.8684 28.1017 36.6227C28.5803 37.9136 29.7011 38.884 31.0779 39.2849V40.3254C31.0779 41.1315 31.7151 41.7858 32.5003 41.7858C33.2854 41.7858 33.9226 41.1315 33.9226 40.3254V39.2835C35.7887 38.7358 37.1428 37.1418 37.1428 35.2645C37.1428 32.936 35.0598 31.0404 32.5003 31.0404C31.526 31.0404 30.7024 30.4439 30.7024 29.7371C30.7024 29.0302 31.526 28.4337 32.5003 28.4337C33.4739 28.4337 34.1395 28.9915 34.2704 29.5166C34.4659 30.2971 35.239 30.7695 36.0028 30.5673C36.763 30.3665 37.2217 29.5706 37.0261 28.7893C36.6528 27.2983 35.453 26.1636 33.9226 25.7203V24.6747C33.9226 23.8686 33.2854 23.2144 32.5003 23.2144C31.7151 23.2144 31.0772 23.8686 31.0772 24.6747Z" fill="white"/>
<path d="M63.9167 26.5839C62.5129 26.584 61.1406 26.1678 59.9734 25.3879C58.8062 24.6081 57.8965 23.4995 57.3593 22.2026C56.8222 20.9056 56.6817 19.4785 56.9557 18.1018C57.2297 16.725 57.9059 15.4604 58.8987 14.4679C59.1018 14.2648 59.2159 13.9893 59.2159 13.702C59.2159 13.4147 59.1018 13.1392 58.8987 12.9361L52.0628 6.10133C51.8597 5.89824 51.5842 5.78415 51.2969 5.78415C51.0097 5.78415 50.7342 5.89824 50.531 6.10133C49.5469 7.10708 48.282 7.79209 46.902 8.06659C45.5219 8.34109 44.0911 8.19228 42.7971 7.63967C41.4917 7.11492 40.3751 6.20833 39.5934 5.03853C38.8117 3.86872 38.4014 2.49019 38.4161 1.08333C38.4161 0.796016 38.3019 0.520465 38.0988 0.317301C37.8956 0.114137 37.6201 0 37.3327 0H27.6672C27.3799 0 27.1044 0.114137 26.9012 0.317301C26.6981 0.520465 26.5839 0.796016 26.5839 1.08333C26.5991 2.48956 26.1895 3.86764 25.4089 5.03738C24.6282 6.20711 23.5127 7.11407 22.2083 7.63967C20.914 8.19162 19.4832 8.34007 18.1032 8.0656C16.7231 7.79113 15.458 7.10653 14.4733 6.10133C14.2663 5.90561 13.9923 5.79655 13.7074 5.79655C13.4225 5.79655 13.1485 5.90561 12.9415 6.10133L6.10675 12.9372C5.90366 13.1403 5.78956 13.4158 5.78956 13.7031C5.78956 13.9903 5.90366 14.2658 6.10675 14.469C7.11218 15.4544 7.79648 16.7206 8.07002 18.1016C8.34355 19.4826 8.19355 20.914 7.63967 22.2083C7.11407 23.5127 6.20711 24.6282 5.03738 25.4089C3.86764 26.1895 2.48956 26.5991 1.08333 26.5839C0.796016 26.5839 0.520465 26.6981 0.317301 26.9012C0.114137 27.1044 0 27.3799 0 27.6672V37.3327C0 37.6201 0.114137 37.8956 0.317301 38.0988C0.520465 38.3019 0.796016 38.4161 1.08333 38.4161C2.49019 38.4014 3.86872 38.8117 5.03853 39.5934C6.20833 40.3751 7.11492 41.4917 7.63967 42.7971C8.19168 44.0912 8.34017 45.5219 8.06569 46.9018C7.79121 48.2817 7.10656 49.5466 6.10133 50.531C5.89824 50.7342 5.78415 51.0097 5.78415 51.2969C5.78415 51.5842 5.89824 51.8597 6.10133 52.0628L12.9361 58.8987C13.1392 59.1018 13.4147 59.2159 13.702 59.2159C13.9893 59.2159 14.2648 59.1018 14.4679 58.8987C15.4604 57.9059 16.725 57.2297 18.1018 56.9557C19.4785 56.6817 20.9056 56.8222 22.2026 57.3593C23.4995 57.8965 24.6081 58.8062 25.3879 59.9734C26.1678 61.1406 26.584 62.5129 26.5839 63.9167C26.5839 64.204 26.6981 64.4795 26.9012 64.6827C27.1044 64.8859 27.3799 65 27.6672 65H37.3327C37.6201 65 37.8956 64.8859 38.0988 64.6827C38.3019 64.4795 38.4161 64.204 38.4161 63.9167C38.416 62.5129 38.8322 61.1406 39.6121 59.9734C40.392 58.8062 41.5005 57.8965 42.7974 57.3593C44.0944 56.8222 45.5215 56.6817 46.8983 56.9557C48.275 57.2297 49.5396 57.9059 50.5321 58.8987C50.7352 59.1018 51.0107 59.2159 51.298 59.2159C51.5853 59.2159 51.8608 59.1018 52.0639 58.8987L58.8987 52.0628C59.1018 51.8597 59.2159 51.5842 59.2159 51.2969C59.2159 51.0097 59.1018 50.7342 58.8987 50.531C57.9063 49.5385 57.2304 48.274 56.9566 46.8974C56.6828 45.5208 56.8234 44.0939 57.3605 42.7972C57.8976 41.5005 58.8071 40.3921 59.9741 39.6123C61.1411 38.8325 62.5131 38.4162 63.9167 38.4161C64.204 38.4161 64.4795 38.3019 64.6827 38.0988C64.8859 37.8956 65 37.6201 65 37.3327V27.6672C65 27.3799 64.8859 27.1044 64.6827 26.9012C64.4795 26.6981 64.204 26.5839 63.9167 26.5839ZM62.8333 36.3101C61.197 36.5038 59.6419 37.1302 58.3281 38.1248C57.0144 39.1193 55.9894 40.4461 55.3589 41.9684C54.7283 43.4907 54.5149 45.1536 54.7406 46.7858C54.9664 48.4181 55.6231 49.9606 56.6432 51.2547L51.2558 56.6432C49.9617 55.6228 48.4191 54.9659 46.7867 54.74C45.1543 54.5141 43.4912 54.7274 41.9687 55.358C40.4462 55.9886 39.1193 57.0136 38.1247 58.3276C37.1301 59.6415 36.5037 61.1968 36.3101 62.8333H28.6899C28.4962 61.197 27.8698 59.6419 26.8752 58.3281C25.8807 57.0144 24.5539 55.9894 23.0316 55.3589C21.5093 54.7283 19.8464 54.5149 18.2142 54.7406C16.5819 54.9664 15.0394 55.6231 13.7453 56.6432L8.35683 51.2547C9.39349 49.9691 10.0608 48.4256 10.2871 46.7897C10.5134 45.1538 10.2903 43.4871 9.64167 41.9683C9.02644 40.4357 8.00571 39.0993 6.68888 38.1025C5.37206 37.1058 3.8088 36.4861 2.16667 36.3101V28.6899C3.8088 28.5139 5.37206 27.8942 6.68888 26.8975C8.00571 25.9007 9.02644 24.5643 9.64167 23.0317C10.2903 21.5129 10.5134 19.8462 10.2871 18.2103C10.0608 16.5744 9.39349 15.0309 8.35683 13.7453L13.7453 8.35683C15.0309 9.39349 16.5744 10.0608 18.2103 10.2871C19.8462 10.5134 21.5129 10.2903 23.0317 9.64167C24.5643 9.02644 25.9007 8.00571 26.8975 6.68888C27.8942 5.37206 28.5139 3.8088 28.6899 2.16667H36.3101C36.4861 3.8088 37.1058 5.37206 38.1025 6.68888C39.0993 8.00571 40.4357 9.02644 41.9683 9.64167C43.4873 10.2905 45.1541 10.5138 46.7902 10.2874C48.4264 10.0611 49.97 9.39369 51.2558 8.35683L56.6432 13.7453C55.6231 15.0394 54.9664 16.5819 54.7406 18.2142C54.5149 19.8464 54.7283 21.5093 55.3589 23.0316C55.9894 24.5539 57.0144 25.8807 58.3281 26.8752C59.6419 27.8698 61.197 28.4962 62.8333 28.6899V36.3101Z" fill="white"/>
<path d="M32.4997 10.8335C28.2145 10.8335 24.0255 12.1042 20.4624 14.485C16.8993 16.8658 14.1223 20.2496 12.4824 24.2087C10.8425 28.1678 10.4134 32.5242 11.2494 36.7271C12.0854 40.93 14.149 44.7907 17.1791 47.8208C20.2092 50.8509 24.0699 52.9145 28.2728 53.7505C32.4757 54.5865 36.8322 54.1575 40.7912 52.5176C44.7503 50.8777 48.1342 48.1006 50.5149 44.5375C52.8957 40.9745 54.1664 36.7854 54.1664 32.5002C54.1598 26.7558 51.875 21.2487 47.8131 17.1868C43.7513 13.1249 38.2441 10.8401 32.4997 10.8335ZM32.4997 52.0002C28.643 52.0002 24.8729 50.8565 21.6661 48.7138C18.4594 46.5711 15.96 43.5256 14.4841 39.9625C13.0082 36.3993 12.622 32.4785 13.3744 28.6959C14.1268 24.9133 15.984 21.4387 18.7112 18.7116C21.4383 15.9845 24.9129 14.1273 28.6955 13.3749C32.4781 12.6224 36.3989 13.0086 39.9621 14.4845C43.5252 15.9604 46.5707 18.4598 48.7134 21.6665C50.8561 24.8733 51.9997 28.6434 51.9997 32.5002C51.9937 37.67 49.9373 42.6264 46.2817 46.2821C42.626 49.9377 37.6696 51.9941 32.4997 52.0002Z" fill="white"/>
</svg>
