<svg width="40" height="34" viewBox="0 0 40 34" fill="none" xmlns="http://www.w3.org/2000/svg">
<path d="M38.9328 22.5881C38.2532 22.0779 37.3954 21.9162 36.5789 22.1521L27.2828 24.816C27.336 24.5849 27.3703 24.3469 27.3703 24.0998C27.3703 22.3349 25.9351 20.8998 24.1703 20.8998H21.6734C20.768 20.8998 19.8789 20.5514 19.1695 19.9193C18.4297 19.26 17.1821 18.306 15.4367 17.5053C12.8538 16.324 9.24047 17.3742 7.43143 18.0486C7.33413 17.1064 6.54469 16.3662 5.57652 16.3662H1.87343C0.84062 16.3662 0 17.2068 0 18.2396V31.8264C0 32.8592 0.84062 33.6998 1.87343 33.6998H5.57652C6.61015 33.6998 7.45077 32.8592 7.45077 31.8264V31.4471C10.6577 31.9875 21.0791 33.6998 24.3703 33.6998C27.6625 33.6998 35.5157 29.017 38.7399 27.0037C39.5289 26.51 40 25.66 40 24.7295C40 23.8803 39.611 23.0998 38.9328 22.5881ZM5.85078 31.8264C5.85078 31.9771 5.72811 32.0998 5.57652 32.0998H1.87343C1.72266 32.0998 1.59999 31.9771 1.59999 31.8264V18.2396C1.59999 18.0889 1.72266 17.9662 1.87343 17.9662H5.57652C5.72811 17.9662 5.85078 18.0889 5.85078 18.2396V31.8264ZM37.8922 25.6466C32.8969 28.7662 26.7211 32.0998 24.3703 32.0998C21.1502 32.0998 10.2566 30.2974 7.45077 29.8242V19.7562C9.11431 19.0661 12.6425 17.9859 14.7695 18.9599C16.3352 19.6771 17.4469 20.5271 18.1047 21.1131C19.1078 22.0076 20.375 22.4998 21.6734 22.4998H24.1703C25.0523 22.4998 25.7703 23.2178 25.7703 24.0998C25.7703 24.9818 25.0523 25.6998 24.1703 25.6998H16.5703C16.1281 25.6998 15.7703 26.0576 15.7703 26.4998C15.7703 26.942 16.1281 27.2998 16.5703 27.2998H24.1703C24.6634 27.2998 25.1252 27.1785 25.5427 26.9785L37.0196 23.6896C37.35 23.5975 37.6953 23.6599 37.9696 23.8662C38.243 24.0725 38.4 24.3873 38.4 24.7295C38.4 25.1053 38.2102 25.4482 37.8922 25.6466Z" fill="#002A61"/>
<path d="M28.2532 19.3998C33.6017 19.3998 37.9533 15.0483 37.9533 9.69977C37.9533 4.35134 33.6017 -0.000244141 28.2532 -0.000244141C22.9048 -0.000244141 18.5532 4.35134 18.5532 9.69977C18.5532 15.0483 22.9048 19.3998 28.2532 19.3998ZM28.2532 1.59981C32.7196 1.59981 36.3533 5.23338 36.3533 9.69977C36.3533 14.1662 32.7196 17.7998 28.2532 17.7998C23.7868 17.7998 20.1532 14.1662 20.1532 9.69977C20.1532 5.23338 23.7868 1.59981 28.2532 1.59981Z" fill="#002A61"/>
<path d="M28.2533 12.8766C27.4049 12.8766 26.6877 12.3321 26.6877 11.6883C26.6877 11.2462 26.3298 10.8884 25.8877 10.8884C25.4455 10.8884 25.0876 11.2462 25.0876 11.6883C25.0876 12.9809 26.0964 14.0607 27.4533 14.3752V14.8422C27.4533 15.2844 27.8111 15.6423 28.2533 15.6423C28.6955 15.6423 29.0533 15.2844 29.0533 14.8422V14.3752C30.4103 14.0607 31.4189 12.9809 31.4189 11.6883C31.4189 10.3532 30.4197 9.42348 28.4502 8.92429C27.6463 8.72037 26.6877 8.34456 26.6877 7.71097C26.6877 7.06723 27.4049 6.5227 28.2533 6.5227C29.1017 6.5227 29.8189 7.06723 29.8189 7.71097C29.8189 8.15319 30.1767 8.51099 30.6189 8.51099C31.0611 8.51099 31.4189 8.15319 31.4189 7.71097C31.4189 6.41836 30.4103 5.33861 29.0533 5.02413V4.55711C29.0533 4.11488 28.6955 3.75708 28.2533 3.75708C27.8111 3.75708 27.4533 4.11488 27.4533 4.55711V5.02413C26.0964 5.33861 25.0876 6.41836 25.0876 7.71097C25.0876 8.62897 25.6025 9.85321 28.0572 10.4758C29.8189 10.9219 29.8189 11.4985 29.8189 11.6883C29.8189 12.3321 29.1017 12.8766 28.2533 12.8766Z" fill="#002A61"/>
</svg>
