<svg width="65" height="65" viewBox="0 0 65 65" fill="none" xmlns="http://www.w3.org/2000/svg">
<path d="M8.12311 53.8301C7.52067 53.8301 6.93177 54.0087 6.43086 54.3434C5.92996 54.6781 5.53955 55.1538 5.30901 55.7104C5.07847 56.267 5.01815 56.8794 5.13568 57.4703C5.25321 58.0611 5.54331 58.6039 5.96929 59.0299C6.39527 59.4558 6.93801 59.7459 7.52887 59.8635C8.11973 59.981 8.73217 59.9207 9.28874 59.6901C9.84532 59.4596 10.321 59.0692 10.6557 58.5683C10.9904 58.0674 11.1691 57.4785 11.1691 56.876C11.1691 56.0682 10.8482 55.2934 10.2769 54.7222C9.7057 54.151 8.93095 53.8301 8.12311 53.8301ZM8.12311 57.8914C7.9223 57.8914 7.72599 57.8318 7.55903 57.7202C7.39206 57.6087 7.26192 57.4501 7.18507 57.2646C7.10823 57.0791 7.08812 56.8749 7.1273 56.678C7.16647 56.481 7.26317 56.3001 7.40517 56.1581C7.54716 56.0161 7.72808 55.9194 7.92503 55.8802C8.12198 55.841 8.32613 55.8612 8.51165 55.938C8.69718 56.0149 8.85575 56.145 8.96731 56.312C9.07888 56.4789 9.13843 56.6752 9.13843 56.876C9.13843 57.1453 9.03146 57.4036 8.84105 57.594C8.65064 57.7844 8.39239 57.8914 8.12311 57.8914Z" fill="white"/>
<path d="M63.9715 0.013048H49.7556C49.4863 0.013048 49.2281 0.12003 49.0376 0.310458C48.8472 0.500886 48.7402 0.759163 48.7402 1.02847V3.89196L25.0809 0.013048C24.8579 -0.0230509 24.6292 0.0162546 24.431 0.124744L5.98083 10.0962C5.14538 10.5373 4.51719 11.2896 4.23215 12.1903C3.9471 13.0911 4.02813 14.0678 4.4577 14.9093C4.82992 15.6309 5.4294 16.2098 6.16353 16.5567C6.89765 16.9036 7.72557 16.9991 8.51938 16.8284L12.1851 16.0567C9.11319 19.6814 7.10713 24.0872 6.39006 28.784C5.67298 33.4809 6.273 38.2846 8.12337 42.6607H1.01542C0.746115 42.6607 0.487838 42.7677 0.29741 42.9581C0.106982 43.1486 0 43.4069 0 43.6762L0 63.9846C0 64.2539 0.106982 64.5122 0.29741 64.7026C0.487838 64.893 0.746115 65 1.01542 65H15.2313C15.5006 65 15.7589 64.893 15.9493 64.7026C16.1398 64.5122 16.2467 64.2539 16.2467 63.9846V61.1211L39.9061 65H40.0685C40.2352 64.9992 40.3991 64.9573 40.5458 64.8782L58.996 54.9169C59.8314 54.4757 60.4596 53.7234 60.7447 52.8227C61.0297 51.922 60.9487 50.9452 60.5191 50.1038C60.1469 49.3822 59.5474 48.8032 58.8133 48.4563C58.0791 48.1095 57.2512 48.014 56.4574 48.1846L52.6394 48.9868C56.5996 43.9605 58.8944 37.9898 58.8944 32.5065C58.9012 29.0202 58.2107 25.5678 56.8636 22.3523H63.9715C64.2408 22.3523 64.4991 22.2453 64.6895 22.0549C64.88 21.8645 64.987 21.6062 64.987 21.3369V1.02847C64.987 0.759163 64.88 0.500886 64.6895 0.310458C64.4991 0.12003 64.2408 0.013048 63.9715 0.013048ZM8.12337 14.8382C7.76735 14.9155 7.3958 14.874 7.06567 14.7199C6.73553 14.5658 6.46502 14.3078 6.29561 13.9852C6.10707 13.6147 6.0728 13.1846 6.20026 12.7889C6.32773 12.3932 6.60658 12.064 6.97594 11.8732L25.0911 2.04389L48.7402 5.95326V17.2752C48.7402 19.5701 43.1452 20.3215 40.4442 20.3215C34.4025 20.3215 34.2197 17.3767 34.2095 17.2752C34.2095 17.0059 34.1026 16.7476 33.9121 16.5572C33.7217 16.3668 33.4634 16.2598 33.1941 16.2598H23.8827C23.3441 16.2598 22.8275 16.0458 22.4467 15.665C22.0658 15.2841 21.8519 14.7676 21.8519 14.2289C21.8519 13.6903 22.0658 13.1738 22.4467 12.7929C22.8275 12.4121 23.3441 12.1981 23.8827 12.1981H33.5089V10.1673H23.8827C23.1536 10.1727 22.4389 10.371 21.8111 10.7419C21.1834 11.1128 20.6649 11.6433 20.3084 12.2793L8.12337 14.8382ZM14.2159 62.9692H2.03084V44.6916H14.2159V62.9692ZM56.8636 50.1749C57.2197 50.0958 57.5919 50.1365 57.9224 50.2908C58.2529 50.445 58.5232 50.7041 58.6913 51.0278C58.8767 51.3973 58.9092 51.8249 58.7819 52.2182C58.6546 52.6115 58.3777 52.9389 58.011 53.1297L39.8959 62.9692L16.2467 59.0598V47.7378C16.2467 45.443 21.8417 44.6916 24.5427 44.6916C30.5845 44.6916 30.7673 47.6363 30.7774 47.7378C30.7774 48.0071 30.8844 48.2654 31.0748 48.4559C31.2653 48.6463 31.5235 48.7533 31.7928 48.7533H41.1042C41.6429 48.7533 42.1594 48.9672 42.5403 49.3481C42.9211 49.7289 43.1351 50.2455 43.1351 50.7841C43.1351 51.3227 42.9211 51.8393 42.5403 52.2201C42.1594 52.601 41.6429 52.8149 41.1042 52.8149H31.4781V54.8458H41.1042C41.8334 54.8403 42.5481 54.6421 43.1758 54.2712C43.8036 53.9002 44.322 53.3698 44.6785 52.7337L56.8636 50.1749ZM56.8636 32.5065C56.8636 39.2388 53.0761 45.707 49.4002 49.6671L45.2167 50.5506C45.1566 49.5055 44.6954 48.524 43.9291 47.8107C43.1629 47.0975 42.1509 46.7076 41.1042 46.7224H32.6255C32.1584 45.2399 30.4931 42.6607 24.5021 42.6607C23.7609 42.6607 18.9985 42.742 16.2061 44.4783V43.6762C16.2061 43.4069 16.0991 43.1486 15.9087 42.9581C15.7183 42.7677 15.46 42.6607 15.1907 42.6607H10.3471C8.87687 39.4778 8.118 36.0126 8.12337 32.5065C8.249 26.0317 10.9193 19.8667 15.5563 15.3459L19.7702 14.4625C19.8303 15.5076 20.2916 16.4891 21.0578 17.2023C21.824 17.9156 22.836 18.3054 23.8827 18.2906H32.3615C32.8286 19.7731 34.4939 22.3523 40.4848 22.3523C41.2261 22.3523 45.9884 22.2711 48.7808 20.5347V21.3369C48.7808 21.6062 48.8878 21.8645 49.0782 22.0549C49.2687 22.2453 49.5269 22.3523 49.7963 22.3523H54.6804C56.1367 25.5384 56.8817 29.0034 56.8636 32.5065ZM62.9561 20.3215H50.7711V2.04389H62.9561V20.3215Z" fill="white"/>
<path d="M56.8636 11.1818C57.466 11.1818 58.0549 11.0031 58.5558 10.6684C59.0567 10.3337 59.4471 9.85802 59.6777 9.30144C59.9082 8.74486 59.9685 8.13242 59.851 7.54157C59.7335 6.95071 59.4434 6.40797 59.0174 5.98199C58.5914 5.556 58.0487 5.2659 57.4578 5.14837C56.867 5.03084 56.2545 5.09116 55.6979 5.3217C55.1414 5.55225 54.6657 5.94265 54.331 6.44356C53.9963 6.94446 53.8176 7.53337 53.8176 8.1358C53.8176 8.94364 54.1385 9.71839 54.7098 10.2896C55.281 10.8608 56.0557 11.1818 56.8636 11.1818ZM56.8636 7.12048C57.0644 7.12048 57.2607 7.18003 57.4277 7.2916C57.5946 7.40316 57.7248 7.56173 57.8016 7.74726C57.8785 7.93278 57.8986 8.13693 57.8594 8.33388C57.8202 8.53083 57.7235 8.71175 57.5815 8.85374C57.4395 8.99574 57.2586 9.09244 57.0617 9.13161C56.8647 9.17079 56.6606 9.15068 56.475 9.07384C56.2895 8.99699 56.1309 8.86685 56.0194 8.69988C55.9078 8.53292 55.8483 8.33661 55.8483 8.1358C55.8483 7.86652 55.9552 7.60827 56.1456 7.41786C56.3361 7.22745 56.5943 7.12048 56.8636 7.12048Z" fill="white"/>
<path d="M30.4625 29.4603H34.5242C34.7935 29.4603 35.0518 29.5673 35.2422 29.7577C35.4326 29.9482 35.5396 30.2064 35.5396 30.4757H37.5705C37.5705 29.6678 37.2495 28.893 36.6782 28.3217C36.107 27.7504 35.3321 27.4295 34.5242 27.4295H33.5088V26.4141H31.4779V27.4295H30.4625C29.6546 27.4295 28.8798 27.7504 28.3085 28.3217C27.7372 28.893 27.4163 29.6678 27.4163 30.4757C27.4163 31.2837 27.7372 32.0585 28.3085 32.6298C28.8798 33.2011 29.6546 33.522 30.4625 33.522H34.5242C34.7935 33.522 35.0518 33.629 35.2422 33.8194C35.4326 34.0098 35.5396 34.2681 35.5396 34.5374C35.5396 34.8067 35.4326 35.065 35.2422 35.2554C35.0518 35.4459 34.7935 35.5529 34.5242 35.5529H30.4625C30.1932 35.5529 29.9349 35.4459 29.7445 35.2554C29.5541 35.065 29.4471 34.8067 29.4471 34.5374H27.4163C27.4163 35.3454 27.7372 36.1202 28.3085 36.6915C28.8798 37.2627 29.6546 37.5837 30.4625 37.5837H31.4779V38.5991H33.5088V37.5837H34.5242C35.3321 37.5837 36.107 37.2627 36.6782 36.6915C37.2495 36.1202 37.5705 35.3454 37.5705 34.5374C37.5705 33.7295 37.2495 32.9547 36.6782 32.3834C36.107 31.8121 35.3321 31.4912 34.5242 31.4912H30.4625C30.1932 31.4912 29.9349 31.3842 29.7445 31.1938C29.5541 31.0033 29.4471 30.7451 29.4471 30.4757C29.4471 30.2064 29.5541 29.9482 29.7445 29.7577C29.9349 29.5673 30.1932 29.4603 30.4625 29.4603Z" fill="white"/>
<path d="M32.4936 22.3516C30.4853 22.3516 28.522 22.9471 26.8522 24.0629C25.1823 25.1786 23.8809 26.7645 23.1123 28.6199C22.3438 30.4754 22.1427 32.517 22.5345 34.4868C22.9263 36.4565 23.8934 38.2658 25.3135 39.6859C26.7336 41.106 28.5429 42.0731 30.5126 42.4649C32.4823 42.8567 34.524 42.6556 36.3794 41.887C38.2349 41.1185 39.8207 39.817 40.9365 38.1472C42.0523 36.4773 42.6478 34.5141 42.6478 32.5058C42.6478 29.8127 41.578 27.2299 39.6737 25.3257C37.7694 23.4214 35.1866 22.3516 32.4936 22.3516ZM32.4936 40.6291C30.8869 40.6291 29.3164 40.1527 27.9805 39.2601C26.6446 38.3675 25.6034 37.0988 24.9886 35.6145C24.3737 34.1301 24.2128 32.4968 24.5263 30.921C24.8397 29.3452 25.6134 27.8978 26.7495 26.7617C27.8856 25.6256 29.333 24.8519 30.9088 24.5385C32.4846 24.2251 34.1179 24.3859 35.6023 25.0008C37.0866 25.6156 38.3553 26.6568 39.2479 27.9927C40.1405 29.3286 40.6169 30.8991 40.6169 32.5058C40.6169 34.6602 39.7611 36.7264 38.2377 38.2499C36.7142 39.7733 34.648 40.6291 32.4936 40.6291Z" fill="white"/>
</svg>
