<svg width="63" height="67" viewBox="0 0 63 67" fill="none" xmlns="http://www.w3.org/2000/svg">
<path d="M56.0086 30.3986C56.2453 22.311 51.8211 14.4497 45.0228 10.155C44.9156 10.0872 44.8144 10.0135 44.7064 9.94801L47.0135 1.40849C47.1043 1.07274 47.0328 0.713922 46.8221 0.437733C46.6107 0.162289 46.2824 0 45.9348 0H33.1504C32.8028 0 32.4752 0.161544 32.2645 0.437733C32.0531 0.713178 31.9824 1.072 32.0725 1.40774L34.372 9.94205C27.3676 14.2234 23.0513 21.7378 23.0513 29.7554C23.0513 31.2838 23.2039 32.795 23.5039 34.2653H23.093C21.3904 34.2653 19.7765 34.9115 18.5474 36.0847L13.4934 40.9176C12.8129 40.5596 12.0506 40.3675 11.2556 40.3675C9.99074 40.3675 8.79889 40.8521 7.8996 41.7321L1.43857 48.0561C0.52439 48.9502 0.0144451 50.1502 0.000300645 51.4344C-0.0138438 52.7186 0.471534 53.9298 1.36487 54.8425L11.8578 65.5617C12.7638 66.4893 13.9817 67 15.286 67C16.5508 67 17.7434 66.5154 18.6419 65.6354L25.103 59.3114C26.0171 58.4173 26.5271 57.2173 26.5412 55.9331C26.5494 55.1715 26.3782 54.4375 26.0544 53.7749L26.3067 53.5866C27.5775 52.6456 29.0828 52.1483 30.6595 52.1483H40.6112C43.1252 52.1483 45.5782 51.2818 47.5182 49.7095L53.0591 45.2257C53.2757 45.0806 53.4842 44.9138 53.6956 44.7106C53.703 44.7046 53.7075 44.6972 53.7149 44.6912C53.7455 44.6615 53.7782 44.6376 53.808 44.6064L61.6269 36.2716C62.1815 35.676 62.4875 34.8988 62.4875 34.0844C62.4875 33.2134 62.1242 32.3655 61.4802 31.7498C59.966 30.3309 57.8824 29.8932 56.0086 30.3986ZM25.2839 29.7554C25.2839 22.3482 29.3798 15.4167 35.9838 11.5903H38.5476C39.164 11.5903 39.6643 11.09 39.6643 10.4736C39.6643 9.85719 39.164 9.35692 38.5476 9.35692H36.5265L34.608 2.23333H44.4771L42.5527 9.35618H42.4143C41.7979 9.35618 41.2976 9.85644 41.2976 10.4728C41.2976 11.0892 41.7979 11.5895 42.4143 11.5895H43.0858C49.6957 15.4085 53.7953 22.3415 53.7953 29.7547C53.7953 30.386 53.7566 31.0143 53.6971 31.6337C53.5616 31.7535 53.4291 31.8786 53.3025 32.0126L49.5729 35.9924L48.7577 36.4837C48.7525 36.4867 48.7488 36.4912 48.7443 36.4942C48.7383 36.4979 48.7316 36.5001 48.7257 36.5038L46.2526 38.1096C45.4859 37.2587 44.3789 36.7197 43.1461 36.7197L34.55 36.7227L32.7797 35.4735C31.6645 34.6822 30.352 34.2645 28.9845 34.2645H25.7975C25.4633 32.8017 25.2839 31.2905 25.2839 29.7554ZM23.5411 57.7145L17.0801 64.0386C16.1056 64.9922 14.4046 64.9744 13.4524 63.9999L2.96021 53.2806C2.48302 52.7938 2.22545 52.1468 2.23215 51.4582C2.23959 50.7704 2.51206 50.1287 2.99818 49.6522L9.45921 43.3282C9.93938 42.8592 10.5759 42.6001 11.2533 42.6001C11.9524 42.6001 12.6037 42.8726 13.0876 43.3661L23.5798 54.0854C24.057 54.5722 24.3146 55.2192 24.3079 55.9078C24.3005 56.5964 24.028 57.2388 23.5411 57.7145ZM59.9951 34.7462L52.2305 43.0237L51.6268 43.512C51.5948 43.5366 51.562 43.5604 51.5337 43.5872L46.1127 47.9742C44.568 49.2264 42.6145 49.915 40.6105 49.915H30.6595C28.6294 49.915 26.612 50.582 24.9749 51.794L24.6779 52.0151L15.2212 42.3537L20.0891 37.6987C20.8998 36.9244 21.9659 36.4979 23.0915 36.4979H28.9838C29.8726 36.4979 30.7615 36.7808 31.4881 37.2967L33.5502 38.7513C33.5532 38.7535 33.5569 38.755 33.5606 38.7573C33.6015 38.7856 33.647 38.8086 33.6924 38.8317C33.7125 38.8421 33.7318 38.8555 33.7527 38.8645C33.7921 38.8816 33.8353 38.892 33.877 38.9047C33.9053 38.9129 33.9328 38.9248 33.9619 38.9307C33.9924 38.9374 34.0236 38.9382 34.0549 38.9419C34.0973 38.9471 34.1398 38.9545 34.1822 38.9545C34.1867 38.9545 34.1904 38.956 34.1949 38.956L43.1461 38.9531C44.2225 38.9531 45.098 39.8285 45.098 40.905C45.098 41.9815 44.2225 42.8569 43.1461 42.8569H32.866C32.2496 42.8569 31.7494 43.3572 31.7494 43.9736C31.7494 44.59 32.2496 45.0903 32.866 45.0903H43.1468C45.4546 45.0903 47.3321 43.2128 47.3321 40.905C47.3321 40.637 47.3045 40.3757 47.2561 40.1211L49.9354 38.3806L50.8518 37.8275C50.933 37.7783 51.0029 37.718 51.067 37.654C51.0744 37.6466 51.0848 37.6436 51.0923 37.6361L54.9299 33.5417C55.0907 33.3712 55.2656 33.2223 55.4495 33.0906C55.4562 33.0853 55.4622 33.0794 55.4681 33.0742C56.8185 32.1191 58.7012 32.2076 59.9437 33.3705C60.144 33.5618 60.2534 33.8149 60.2534 34.0836C60.2542 34.2593 60.2087 34.5169 59.9951 34.7462Z" fill="white"/>
<path d="M40.1492 28.6107C38.9213 28.6107 38.2656 28.0232 38.2656 27.7832C38.2656 27.0884 37.6934 26.5262 36.9863 26.5262C36.2791 26.5262 35.707 27.0884 35.707 27.7832C35.707 29.2992 36.9863 30.5562 38.7992 30.9731V31.8637C38.7992 32.5585 39.3713 33.1207 40.0785 33.1207C40.7856 33.1207 41.3578 32.5585 41.3578 31.8637V31.0046C43.2478 30.6193 44.5978 29.3434 44.5978 27.7832C44.5978 26.1409 42.9906 24.7891 40.3035 24.1701C40.2456 24.1575 40.1942 24.1512 40.1427 24.1448C38.8827 23.7785 38.2977 23.2731 38.272 23.1026C38.272 22.8184 39.0049 22.2751 40.1556 22.2751C41.3063 22.2751 42.0392 22.8184 42.0392 23.1026C42.0392 23.7974 42.6113 24.3596 43.3185 24.3596C44.0256 24.3596 44.5978 23.7974 44.5978 23.1026C44.5978 21.5424 43.2478 20.2665 41.3578 19.8811V19.1105C41.3578 18.4157 40.7856 17.8535 40.0785 17.8535C39.3713 17.8535 38.7992 18.4157 38.7992 19.1105V19.9127C36.9863 20.3359 35.707 21.5866 35.707 23.1026C35.707 24.7449 37.3142 26.0903 40.0013 26.7157C40.0592 26.7283 40.1106 26.7346 40.1685 26.741C41.4285 27.1073 42.007 27.6126 42.0392 27.7832C42.0328 28.0232 41.377 28.6107 40.1492 28.6107Z" fill="white"/>
<path d="M20.5435 58.4535C21.7185 58.4535 22.6711 57.5009 22.6711 56.3259C22.6711 55.1508 21.7185 54.1982 20.5435 54.1982C19.3684 54.1982 18.4158 55.1508 18.4158 56.3259C18.4158 57.5009 19.3684 58.4535 20.5435 58.4535Z" fill="white"/>
</svg>
