<svg width="38" height="41" viewBox="0 0 38 41" fill="none" xmlns="http://www.w3.org/2000/svg">
<path d="M11.8901 19.7387L11.3806 23.2097C11.3384 23.4975 11.4593 23.7849 11.6948 23.9558C11.8308 24.0547 11.9921 24.1051 12.1543 24.1051C12.2726 24.1051 12.3915 24.0782 12.5014 24.0238L15.6466 22.4646L18.7939 24.0238C19.0545 24.1529 19.3654 24.1267 19.6007 23.9557C19.8359 23.7846 19.9569 23.4971 19.9144 23.2092L19.403 19.7387L21.8579 17.2297C22.0615 17.0218 22.1326 16.718 22.0427 16.4413C21.9528 16.1646 21.7167 15.9607 21.4298 15.912L17.9675 15.3248L16.3388 12.2186C16.2038 11.9611 15.9371 11.7998 15.6464 11.7998C15.3557 11.7998 15.0889 11.9611 14.954 12.2186L13.3253 15.3248L9.86516 15.9119C9.57838 15.9606 9.34234 16.1644 9.25242 16.4411C9.16251 16.7177 9.23358 17.0215 9.43694 17.2294L11.8901 19.7387ZM13.9688 16.8018C14.2093 16.761 14.4171 16.6102 14.5305 16.394L15.6465 14.2654L16.7626 16.394C16.8759 16.6102 17.0837 16.7609 17.3243 16.8018L19.6956 17.204L18.0143 18.9223C17.8434 19.0969 17.764 19.3414 17.7996 19.5831L18.1498 21.9596L15.9936 20.8914C15.7748 20.7831 15.518 20.783 15.2992 20.8914L13.1445 21.9596L13.4935 19.5826C13.5289 19.3412 13.4495 19.097 13.2789 18.9225L11.5988 17.2041L13.9688 16.8018Z" fill="#002A61"/>
<path d="M24.725 15.912C24.4382 15.9607 24.2022 16.1645 24.1123 16.4412C24.0224 16.7178 24.0934 17.0215 24.2968 17.2295L26.7499 19.7387L26.2404 23.2097C26.1982 23.4975 26.3191 23.7849 26.5545 23.9558C26.6906 24.0547 26.8519 24.1051 27.014 24.1051C27.1324 24.1051 27.2513 24.0782 27.3612 24.0238L30.5064 22.4646L33.6537 24.0239C33.9143 24.1529 34.2251 24.1267 34.4604 23.9557C34.6957 23.7846 34.8166 23.4971 34.7742 23.2092L34.2628 19.7387L36.7177 17.2297C36.9212 17.0218 36.9924 16.718 36.9025 16.4413C36.8126 16.1646 36.5764 15.9607 36.2896 15.912L32.8272 15.3248L31.1986 12.2186C31.0635 11.9611 30.7969 11.7998 30.5062 11.7998C30.2155 11.7998 29.9487 11.9611 29.8138 12.2186L28.1851 15.3248L24.725 15.912ZM29.3902 16.3939L30.5063 14.2654L31.6223 16.3939C31.7357 16.6101 31.9434 16.7609 32.1841 16.8018L34.5554 17.2039L32.8741 18.9222C32.7032 19.0968 32.6238 19.3413 32.6594 19.583L33.0096 21.9595L30.8534 20.8913C30.6346 20.783 30.3778 20.7829 30.159 20.8914L28.0044 21.9595L28.3533 19.5826C28.3888 19.3411 28.3094 19.097 28.1388 18.9224L26.4587 17.2039L28.8286 16.8018C29.0692 16.7609 29.2769 16.6101 29.3902 16.3939Z" fill="#002A61"/>
<path d="M19.3199 8.90869L18.8105 12.3796C18.7683 12.6674 18.8892 12.9547 19.1245 13.1257C19.3597 13.2967 19.6704 13.3228 19.931 13.1938L23.0765 11.6365L26.2241 13.1939C26.334 13.2483 26.4526 13.275 26.5708 13.275C26.7332 13.275 26.8947 13.2245 27.0308 13.1254C27.266 12.9544 27.3868 12.667 27.3444 12.3792L26.833 8.90869L29.2877 6.40209C29.4913 6.19419 29.5626 5.89052 29.4729 5.61383C29.3831 5.33705 29.1472 5.13307 28.8604 5.08428L25.3977 4.495L23.7688 1.38848C23.6338 1.13102 23.3671 0.969727 23.0763 0.969727C22.7856 0.969727 22.5189 1.13102 22.3839 1.38848L20.7551 4.49492L17.2946 5.0842C17.0079 5.13307 16.772 5.33698 16.6822 5.61359C16.5925 5.89021 16.6637 6.19388 16.8671 6.40177L19.3199 8.90869ZM21.3991 5.9716C21.6395 5.93063 21.847 5.77989 21.9603 5.56387L23.0764 3.43529L24.1924 5.56387C24.3057 5.77989 24.5133 5.93063 24.7537 5.9716L27.1255 6.37527L25.4444 8.09182C25.2733 8.26648 25.1938 8.51104 25.2295 8.75287L25.5797 11.1304L23.4231 10.0633C23.3139 10.0093 23.195 9.98225 23.0763 9.98225C22.9575 9.98225 22.8387 10.0093 22.7294 10.0634L20.5743 11.1304L20.9233 8.7524C20.9588 8.51081 20.8793 8.26656 20.7085 8.09205L19.0286 6.37527L21.3991 5.9716Z" fill="#002A61"/>
<path d="M37.5724 28.2083C36.7646 26.9019 35.0583 26.4813 33.6039 27.2295L27.0476 30.5926C26.5008 30.0149 25.7278 29.6534 24.8715 29.6534H20.3993C20.1285 29.6534 20.0711 29.6308 20.0654 29.6283C20.0303 29.6124 19.9113 29.5004 19.8157 29.4104L19.7725 29.3696C16.1736 25.9828 13.1291 26.1969 9.66353 27.5608C9.10115 27.7836 9.07965 27.7844 8.52829 27.8088L7.47053 27.81C7.19571 26.9444 6.3851 26.3154 5.43015 26.3154H2.14046C0.960184 26.3154 0 27.2761 0 28.4569V29.2002C0 29.6319 0.350032 29.982 0.781845 29.982C1.21366 29.982 1.56369 29.6319 1.56369 29.2002V28.4569C1.56369 28.1437 1.8278 27.8791 2.14046 27.8791H5.43007C5.74273 27.8791 6.00684 28.1437 6.00684 28.4569V37.0778C6.00684 37.3897 5.74273 37.6533 5.43007 37.6533H2.14046C1.8278 37.6533 1.56369 37.3897 1.56369 37.0778V36.2878C1.56369 35.856 1.21366 35.5059 0.781845 35.5059C0.350032 35.5059 0 35.856 0 36.2878V37.0778C0 38.2573 0.960184 39.217 2.14046 39.217H5.43007C6.38588 39.217 7.1972 38.5875 7.47123 37.7216H9.3522C9.56986 37.7216 9.76775 37.7932 9.97666 37.8487L18.4843 40.1222C18.8588 40.2236 19.2023 40.3233 19.5344 40.4197C20.6209 40.7349 21.5339 41 22.4854 41C23.5588 41 24.6811 40.6627 26.1559 39.6799C26.1624 39.6755 26.1691 39.671 26.1756 39.6664L36.6658 32.2026C38.0025 31.2514 38.3923 29.5342 37.5724 28.2083ZM35.7593 30.9286L25.2791 38.3852C23.1088 39.8288 22.1887 39.5618 19.9703 38.9179C19.6315 38.8196 19.2812 38.7179 18.8906 38.6122L10.3788 36.3376C10.2066 36.2919 10.0359 36.2373 9.86165 36.2001C9.69386 36.1642 9.52327 36.1579 9.35212 36.1579H7.57045V29.3746H8.49913C8.5107 29.3746 8.52227 29.3743 8.53384 29.3738L8.59694 29.371C9.25916 29.3418 9.46432 29.3215 10.2376 29.0154C13.3086 27.8068 15.6779 27.6636 18.7011 30.5088L18.7435 30.5487C19.2479 31.0236 19.5388 31.2171 20.3991 31.2171H24.8714C25.6622 31.2171 26.3056 31.8607 26.3056 32.6517C26.3056 33.4416 25.6622 34.084 24.8714 34.084H17.624C17.1922 34.084 16.8421 34.4341 16.8421 34.8658C16.8421 35.2976 17.1922 35.6477 17.624 35.6477H24.8714C26.5244 35.6477 27.8693 34.3037 27.8693 32.6517C27.8693 32.4169 27.8413 32.1886 27.79 31.9693L34.3183 28.6205C34.948 28.2965 35.8112 28.3335 36.2423 29.0307C36.6229 29.6459 36.4151 30.4619 35.7593 30.9286Z" fill="#002A61"/>
<path d="M0.781848 33.5474C1.21366 33.5474 1.5637 33.195 1.5637 32.7633C1.5637 32.3316 1.21366 31.9814 0.781848 31.9814C0.350033 31.9814 0 32.3316 0 32.7633V32.7678C0 33.1996 0.350033 33.5474 0.781848 33.5474Z" fill="#002A61"/>
</svg>
