<svg width="42" height="42" viewBox="0 0 42 42" fill="none" xmlns="http://www.w3.org/2000/svg">
<path d="M6 34.1331C5.62916 34.1331 5.26665 34.243 4.95831 34.4491C4.64996 34.6551 4.40964 34.9479 4.26773 35.2905C4.12581 35.6331 4.08868 36.0101 4.16103 36.3739C4.23338 36.7376 4.41195 37.0717 4.67418 37.3339C4.9364 37.5961 5.27049 37.7747 5.63421 37.847C5.99792 37.9194 6.37492 37.8822 6.71753 37.7403C7.06014 37.5984 7.35298 37.3581 7.55901 37.0498C7.76503 36.7414 7.875 36.3789 7.875 36.0081C7.875 35.5108 7.67746 35.0339 7.32583 34.6822C6.9742 34.3306 6.49728 34.1331 6 34.1331ZM6 36.6331C5.87639 36.6331 5.75555 36.5964 5.65277 36.5277C5.54999 36.459 5.46988 36.3614 5.42258 36.2472C5.37527 36.133 5.36289 36.0074 5.38701 35.8861C5.41113 35.7649 5.47065 35.6535 5.55806 35.5661C5.64547 35.4787 5.75683 35.4192 5.87807 35.3951C5.99931 35.3709 6.12497 35.3833 6.23918 35.4306C6.35338 35.4779 6.45099 35.558 6.51967 35.6608C6.58835 35.7636 6.625 35.8844 6.625 36.0081C6.625 36.1738 6.55915 36.3328 6.44194 36.45C6.32473 36.5672 6.16576 36.6331 6 36.6331Z" fill="#002A61" stroke="#002A61" stroke-width="0.5"/>
<path d="M40.375 1.00803H31.625C31.4592 1.00803 31.3003 1.07388 31.1831 1.19109C31.0658 1.3083 31 1.46727 31 1.63303V3.39553L16.4375 1.00803C16.3002 0.985812 16.1595 1.01 16.0375 1.07678L4.68125 7.21428C4.16702 7.4858 3.78037 7.94885 3.60492 8.50326C3.42947 9.05767 3.47935 9.65886 3.74375 10.1768C3.97286 10.6209 4.34184 10.9773 4.7937 11.1908C5.24556 11.4043 5.75515 11.4631 6.24375 11.358L8.5 10.883C6.60924 13.114 5.3745 15.8259 4.93313 18.7168C4.49177 21.6078 4.86108 24.5645 6 27.258H1.625C1.45924 27.258 1.30027 27.3239 1.18306 27.4411C1.06585 27.5583 1 27.7173 1 27.883L1 40.383C1 40.5488 1.06585 40.7078 1.18306 40.825C1.30027 40.9422 1.45924 41.008 1.625 41.008H10.375C10.5408 41.008 10.6997 40.9422 10.8169 40.825C10.9342 40.7078 11 40.5488 11 40.383V38.6205L25.5625 41.008H25.6625C25.7651 41.0075 25.866 40.9818 25.9562 40.933L37.3125 34.8018C37.8267 34.5303 38.2134 34.0672 38.3888 33.5128C38.5643 32.9584 38.5144 32.3572 38.25 31.8393C38.0209 31.3951 37.6519 31.0388 37.2001 30.8253C36.7482 30.6118 36.2386 30.553 35.75 30.658L33.4 31.1518C35.8375 28.058 37.25 24.383 37.25 21.008C37.2542 18.8622 36.8292 16.7372 36 14.758H40.375C40.5408 14.758 40.6997 14.6922 40.8169 14.575C40.9342 14.4578 41 14.2988 41 14.133V1.63303C41 1.46727 40.9342 1.3083 40.8169 1.19109C40.6997 1.07388 40.5408 1.00803 40.375 1.00803ZM6 10.133C5.78087 10.1806 5.55218 10.1551 5.34898 10.0602C5.14577 9.9654 4.97928 9.80655 4.875 9.60803C4.75895 9.37997 4.73786 9.11525 4.81631 8.87168C4.89477 8.62812 5.06641 8.42549 5.29375 8.30803L16.4437 2.25803L31 4.66428V11.633C31 13.0455 27.5563 13.508 25.8938 13.508C22.175 13.508 22.0625 11.6955 22.0562 11.633C22.0562 11.4673 21.9904 11.3083 21.8732 11.1911C21.756 11.0739 21.597 11.008 21.4312 11.008H15.7C15.3685 11.008 15.0505 10.8763 14.8161 10.6419C14.5817 10.4075 14.45 10.0896 14.45 9.75803C14.45 9.42651 14.5817 9.10857 14.8161 8.87415C15.0505 8.63973 15.3685 8.50803 15.7 8.50803H21.625V7.25803H15.7C15.2512 7.26138 14.8113 7.38341 14.4249 7.61173C14.0385 7.84005 13.7194 8.16653 13.5 8.55803L6 10.133ZM9.75 39.758H2.25V28.508H9.75V39.758ZM36 31.883C36.2192 31.8344 36.4483 31.8594 36.6517 31.9544C36.8551 32.0493 37.0215 32.2088 37.125 32.408C37.2391 32.6355 37.2591 32.8986 37.1808 33.1407C37.1024 33.3828 36.932 33.5843 36.7062 33.7018L25.5563 39.758L11 37.3518V30.383C11 28.9705 14.4438 28.508 16.1062 28.508C19.825 28.508 19.9375 30.3205 19.9438 30.383C19.9438 30.5488 20.0096 30.7078 20.1268 30.825C20.244 30.9422 20.403 31.008 20.5688 31.008H26.3C26.6315 31.008 26.9495 31.1397 27.1839 31.3741C27.4183 31.6086 27.55 31.9265 27.55 32.258C27.55 32.5896 27.4183 32.9075 27.1839 33.1419C26.9495 33.3763 26.6315 33.508 26.3 33.508H20.375V34.758H26.3C26.7488 34.7547 27.1887 34.6327 27.5751 34.4043C27.9615 34.176 28.2806 33.8495 28.5 33.458L36 31.883ZM36 21.008C36 25.1518 33.6688 29.133 31.4062 31.5705L28.8312 32.1143C28.7943 31.471 28.5104 30.8669 28.0387 30.4279C27.5671 29.9889 26.9442 29.7489 26.3 29.758H21.0813C20.7938 28.8455 19.7687 27.258 16.0812 27.258C15.625 27.258 12.6938 27.308 10.975 28.3768V27.883C10.975 27.7173 10.9092 27.5583 10.7919 27.4411C10.6747 27.3239 10.5158 27.258 10.35 27.258H7.36875C6.46379 25.2989 5.9967 23.1661 6 21.008C6.07733 17.0227 7.7209 13.2281 10.575 10.4455L13.1687 9.90178C13.2057 10.545 13.4896 11.1492 13.9612 11.5882C14.4329 12.0272 15.0558 12.2671 15.7 12.258H20.9188C21.2063 13.1705 22.2312 14.758 25.9187 14.758C26.375 14.758 29.3063 14.708 31.025 13.6393V14.133C31.025 14.2988 31.0908 14.4578 31.2081 14.575C31.3253 14.6922 31.4842 14.758 31.65 14.758H34.6562C35.5526 16.7191 36.0111 18.8519 36 21.008ZM39.75 13.508H32.25V2.25803H39.75V13.508Z" fill="#002A61" stroke="#002A61" stroke-width="0.5"/>
<path d="M36 7.88306C36.3708 7.88306 36.7334 7.77309 37.0417 7.56706C37.35 7.36103 37.5904 7.0682 37.7323 6.72559C37.8742 6.38298 37.9113 6.00598 37.839 5.64226C37.7666 5.27855 37.588 4.94446 37.3258 4.68223C37.0636 4.42001 36.7295 4.24143 36.3658 4.16909C36.0021 4.09674 35.6251 4.13387 35.2825 4.27578C34.9399 4.4177 34.647 4.65802 34.441 4.96636C34.235 5.27471 34.125 5.63722 34.125 6.00806C34.125 6.50534 34.3225 6.98225 34.6742 7.33388C35.0258 7.68551 35.5027 7.88306 36 7.88306ZM36 5.38306C36.1236 5.38306 36.2444 5.41971 36.3472 5.48839C36.45 5.55706 36.5301 5.65468 36.5774 5.76888C36.6247 5.88308 36.6371 6.00875 36.613 6.12999C36.5889 6.25123 36.5294 6.36259 36.4419 6.45C36.3545 6.53741 36.2432 6.59693 36.1219 6.62105C36.0007 6.64516 35.875 6.63279 35.7608 6.58548C35.6466 6.53818 35.549 6.45807 35.4803 6.35529C35.4117 6.25251 35.375 6.13167 35.375 6.00806C35.375 5.8423 35.4408 5.68333 35.5581 5.56612C35.6753 5.44891 35.8342 5.38306 36 5.38306Z" fill="#002A61" stroke="#002A61" stroke-width="0.5"/>
<path d="M19.75 19.1331H22.25C22.4158 19.1331 22.5747 19.1989 22.6919 19.3161C22.8092 19.4333 22.875 19.5923 22.875 19.7581H24.125C24.125 19.2608 23.9275 18.7839 23.5758 18.4322C23.2242 18.0806 22.7473 17.8831 22.25 17.8831H21.625V17.2581H20.375V17.8831H19.75C19.2527 17.8831 18.7758 18.0806 18.4242 18.4322C18.0725 18.7839 17.875 19.2608 17.875 19.7581C17.875 20.2553 18.0725 20.7323 18.4242 21.0839C18.7758 21.4355 19.2527 21.6331 19.75 21.6331H22.25C22.4158 21.6331 22.5747 21.6989 22.6919 21.8161C22.8092 21.9333 22.875 22.0923 22.875 22.2581C22.875 22.4238 22.8092 22.5828 22.6919 22.7C22.5747 22.8172 22.4158 22.8831 22.25 22.8831H19.75C19.5842 22.8831 19.4253 22.8172 19.3081 22.7C19.1908 22.5828 19.125 22.4238 19.125 22.2581H17.875C17.875 22.7553 18.0725 23.2323 18.4242 23.5839C18.7758 23.9355 19.2527 24.1331 19.75 24.1331H20.375V24.7581H21.625V24.1331H22.25C22.7473 24.1331 23.2242 23.9355 23.5758 23.5839C23.9275 23.2323 24.125 22.7553 24.125 22.2581C24.125 21.7608 23.9275 21.2839 23.5758 20.9322C23.2242 20.5806 22.7473 20.3831 22.25 20.3831H19.75C19.5842 20.3831 19.4253 20.3172 19.3081 20.2C19.1908 20.0828 19.125 19.9238 19.125 19.7581C19.125 19.5923 19.1908 19.4333 19.3081 19.3161C19.4253 19.1989 19.5842 19.1331 19.75 19.1331Z" fill="#002A61" stroke="#002A61" stroke-width="0.5"/>
<path d="M21 14.7581C19.7639 14.7581 18.5555 15.1246 17.5277 15.8114C16.4999 16.4981 15.6988 17.4742 15.2258 18.6163C14.7527 19.7583 14.6289 21.015 14.8701 22.2274C15.1113 23.4398 15.7065 24.5534 16.5806 25.4275C17.4547 26.3016 18.5683 26.8968 19.7807 27.138C20.9931 27.3791 22.2497 27.2554 23.3918 26.7823C24.5338 26.3093 25.5099 25.5082 26.1967 24.4804C26.8834 23.4526 27.25 22.2442 27.25 21.0081C27.25 19.3505 26.5915 17.7607 25.4194 16.5886C24.2473 15.4165 22.6576 14.7581 21 14.7581ZM21 26.0081C20.0111 26.0081 19.0444 25.7148 18.2222 25.1654C17.3999 24.616 16.759 23.8351 16.3806 22.9215C16.0022 22.0078 15.9032 21.0025 16.0961 20.0326C16.289 19.0627 16.7652 18.1718 17.4645 17.4725C18.1637 16.7733 19.0546 16.2971 20.0246 16.1041C20.9945 15.9112 21.9998 16.0102 22.9134 16.3887C23.8271 16.7671 24.6079 17.408 25.1574 18.2302C25.7068 19.0525 26 20.0192 26 21.0081C26 22.3341 25.4732 23.6059 24.5355 24.5436C23.5979 25.4813 22.3261 26.0081 21 26.0081Z" fill="#002A61" stroke="#002A61" stroke-width="0.5"/>
</svg>
