<svg width="44" height="47" viewBox="0 0 44 47" fill="none" xmlns="http://www.w3.org/2000/svg">
<path d="M38.8342 21.0773C38.9983 15.4696 35.9308 10.0188 31.2171 7.04107C31.1428 6.99409 31.0726 6.94299 30.9977 6.89757L32.5973 0.976592C32.6603 0.7438 32.6108 0.495006 32.4647 0.303507C32.3181 0.112525 32.0905 0 31.8494 0H22.9852C22.7442 0 22.5171 0.112009 22.371 0.303507C22.2244 0.49449 22.1754 0.743284 22.2378 0.976076L23.8323 6.89344C18.9756 9.86193 15.9829 15.0721 15.9829 20.6313C15.9829 21.691 16.0887 22.7388 16.2967 23.7582H16.0118C14.8313 23.7582 13.7122 24.2063 12.8601 25.0198L9.35578 28.3707C8.884 28.1225 8.35544 27.9893 7.80417 27.9893C6.9272 27.9893 6.10081 28.3253 5.47728 28.9354L0.997448 33.3203C0.363592 33.9402 0.0100157 34.7723 0.000208456 35.6627C-0.00959876 36.553 0.326944 37.3929 0.946347 38.0257L8.22175 45.458C8.84993 46.1011 9.69438 46.4552 10.5987 46.4552C11.4757 46.4552 12.3026 46.1192 12.9256 45.5091L17.4054 41.1242C18.0393 40.5043 18.3929 39.6723 18.4027 38.7819C18.4084 38.2538 18.2896 37.7449 18.0651 37.2855L18.2401 37.1549C19.1212 36.5025 20.1649 36.1577 21.2581 36.1577H28.1583C29.9014 36.1577 31.6022 35.5568 32.9473 34.4667L36.7891 31.3578C36.9394 31.2571 37.0839 31.1415 37.2305 31.0006C37.2356 30.9965 37.2387 30.9913 37.2439 30.9872C37.2651 30.9665 37.2878 30.95 37.3084 30.9283L42.7297 25.1493C43.1143 24.7364 43.3264 24.1975 43.3264 23.6328C43.3264 23.0289 43.0745 22.441 42.6281 22.0141C41.5782 21.0303 40.1334 20.7268 38.8342 21.0773ZM17.5309 20.6313C17.5309 15.4954 20.3708 10.6894 24.9498 8.03624H26.7275C27.1548 8.03624 27.5017 7.68937 27.5017 7.26199C27.5017 6.8346 27.1548 6.48773 26.7275 6.48773H25.3261L23.9959 1.54851H30.8387L29.5044 6.48722H29.4084C28.981 6.48722 28.6342 6.83408 28.6342 7.26147C28.6342 7.68886 28.981 8.03572 29.4084 8.03572H29.874C34.4571 10.6837 37.2996 15.4908 37.2996 20.6308C37.2996 21.0685 37.2728 21.5041 37.2315 21.9336C37.1376 22.0167 37.0457 22.1034 36.9579 22.1963L34.3719 24.9558L33.8067 25.2964C33.8031 25.2985 33.8005 25.3016 33.7974 25.3037C33.7933 25.3062 33.7887 25.3078 33.7845 25.3104L32.0698 26.4237C31.5382 25.8338 30.7706 25.4601 29.9158 25.4601L23.9556 25.4621L22.7282 24.596C21.955 24.0473 21.0449 23.7577 20.0967 23.7577H17.887C17.6553 22.7435 17.5309 21.6956 17.5309 20.6313ZM16.3225 40.0171L11.8427 44.4019C11.167 45.0631 9.98757 45.0507 9.32739 44.3751L2.0525 36.9428C1.72163 36.6052 1.54304 36.1566 1.54768 35.6792C1.55285 35.2022 1.74176 34.7573 2.07882 34.4269L6.55866 30.0421C6.89159 29.7169 7.33291 29.5373 7.80262 29.5373C8.28731 29.5373 8.73896 29.7262 9.07446 30.0684L16.3494 37.5007C16.6802 37.8383 16.8588 38.2869 16.8542 38.7643C16.849 39.2418 16.6601 39.6872 16.3225 40.0171ZM41.5983 24.0917L36.2146 29.831L35.796 30.1696C35.7738 30.1866 35.7511 30.2031 35.7315 30.2217L31.9728 33.2635C30.9017 34.1317 29.5473 34.6092 28.1578 34.6092H21.2581C19.8505 34.6092 18.4517 35.0716 17.3167 35.912L17.1107 36.0653L10.5538 29.3664L13.929 26.1388C14.4911 25.602 15.2303 25.3062 16.0107 25.3062H20.0962C20.7125 25.3062 21.3288 25.5024 21.8326 25.8601L23.2624 26.8687C23.2645 26.8702 23.2671 26.8713 23.2696 26.8728C23.298 26.8924 23.3295 26.9084 23.361 26.9244C23.3749 26.9317 23.3884 26.9409 23.4028 26.9471C23.4302 26.959 23.4601 26.9662 23.489 26.975C23.5086 26.9807 23.5277 26.9889 23.5479 26.9931C23.569 26.9977 23.5907 26.9982 23.6124 27.0008C23.6418 27.0044 23.6712 27.0096 23.7006 27.0096C23.7037 27.0096 23.7063 27.0106 23.7094 27.0106L29.9158 27.0086C30.6622 27.0086 31.2692 27.6156 31.2692 28.362C31.2692 29.1083 30.6622 29.7154 29.9158 29.7154H22.7881C22.3607 29.7154 22.0138 30.0622 22.0138 30.4896C22.0138 30.917 22.3607 31.2639 22.7881 31.2639H29.9163C31.5165 31.2639 32.8183 29.9621 32.8183 28.362C32.8183 28.1761 32.7992 27.995 32.7656 27.8184L34.6233 26.6116L35.2587 26.2281C35.315 26.194 35.3635 26.1522 35.4079 26.1078C35.413 26.1027 35.4203 26.1006 35.4254 26.0955L38.0863 23.2565C38.1978 23.1383 38.3191 23.0351 38.4466 22.9437C38.4512 22.9401 38.4553 22.936 38.4595 22.9324C39.3958 22.2701 40.7012 22.3315 41.5627 23.1378C41.7015 23.2705 41.7774 23.446 41.7774 23.6323C41.7779 23.7541 41.7464 23.9327 41.5983 24.0917Z" fill="#002A61"/>
<path d="M27.8383 19.8375C26.987 19.8375 26.5323 19.4302 26.5323 19.2638C26.5323 18.782 26.1356 18.3922 25.6453 18.3922C25.155 18.3922 24.7583 18.782 24.7583 19.2638C24.7583 20.3149 25.6453 21.1864 26.9023 21.4755V22.093C26.9023 22.5748 27.299 22.9646 27.7893 22.9646C28.2796 22.9646 28.6763 22.5748 28.6763 22.093V21.4974C29.9868 21.2302 30.9228 20.3455 30.9228 19.2638C30.9228 18.125 29.8085 17.1878 27.9453 16.7586C27.9052 16.7498 27.8695 16.7454 27.8339 16.7411C26.9602 16.487 26.5546 16.1367 26.5368 16.0184C26.5368 15.8213 27.0449 15.4447 27.8428 15.4447C28.6407 15.4447 29.1488 15.8213 29.1488 16.0184C29.1488 16.5002 29.5455 16.89 30.0358 16.89C30.5261 16.89 30.9228 16.5002 30.9228 16.0184C30.9228 14.9366 29.9868 14.0519 28.6763 13.7848V13.2505C28.6763 12.7687 28.2796 12.3789 27.7893 12.3789C27.299 12.3789 26.9023 12.7687 26.9023 13.2505V13.8067C25.6453 14.1001 24.7583 14.9673 24.7583 16.0184C24.7583 17.1571 25.8726 18.09 27.7358 18.5236C27.7759 18.5324 27.8116 18.5367 27.8517 18.5411C28.7253 18.7951 29.1265 19.1455 29.1488 19.2638C29.1443 19.4302 28.6897 19.8375 27.8383 19.8375Z" fill="#002A61"/>
<path d="M14.2445 40.5295C15.0592 40.5295 15.7197 39.8691 15.7197 39.0543C15.7197 38.2396 15.0592 37.5791 14.2445 37.5791C13.4298 37.5791 12.7693 38.2396 12.7693 39.0543C12.7693 39.8691 13.4298 40.5295 14.2445 40.5295Z" fill="#002A61"/>
</svg>
