<svg width="40" height="37" viewBox="0 0 40 37" fill="none" xmlns="http://www.w3.org/2000/svg">
<path d="M2.09192 35.7252H9.70364C10.8569 35.7252 11.7951 34.7871 11.7951 33.6333V33.6218L19.0797 36.0341C20.1673 36.3946 21.2881 36.5732 22.4058 36.5732C23.9627 36.5732 25.5128 36.2261 26.9572 35.5373L38.3488 29.9655C39.055 29.6201 39.5843 29.0206 39.8394 28.2766C40.0945 27.5327 40.0443 26.7349 39.6985 26.0283C38.9861 24.5741 37.2231 23.9679 35.7662 24.6781L29.258 27.8535C28.9372 26.5242 27.7408 25.5327 26.3146 25.5327H21.7619L20.153 24.6745C18.626 23.8603 16.9052 23.4301 15.1759 23.4301H11.7951V23.379C11.7951 22.2257 10.8569 21.2871 9.70364 21.2871H2.09192C0.938188 21.2876 0 22.2257 0 23.379V33.6333C0 34.7871 0.938188 35.7252 2.09192 35.7252ZM15.1759 25.2079C16.6145 25.2079 18.0464 25.5661 19.3162 26.2429L21.1228 27.2064C21.1334 27.2122 21.1446 27.214 21.1557 27.2189C21.1948 27.238 21.2357 27.2527 21.2779 27.266C21.3014 27.2736 21.3245 27.2824 21.3485 27.2878C21.3903 27.2971 21.4334 27.3002 21.4774 27.3033C21.4983 27.3047 21.5197 27.3109 21.5405 27.3109C21.5437 27.3109 21.5468 27.3096 21.5503 27.3096H26.3146C27.0057 27.3096 27.5679 27.8718 27.5679 28.5664C27.5679 29.2575 27.0052 29.8197 26.3146 29.8197H19.6477C19.1571 29.8197 18.7589 30.2179 18.7589 30.7085C18.7589 31.1992 19.1571 31.5974 19.6477 31.5974H26.3146C27.4857 31.5974 28.5012 30.929 29.006 29.9535L36.5458 26.2754C37.1222 25.994 37.8204 26.2345 38.1022 26.8096C38.239 27.0891 38.2586 27.4051 38.1577 27.6993C38.0568 27.9935 37.8475 28.2309 37.568 28.3677L26.1839 33.9364C24.1276 34.9173 21.8036 35.0635 19.6384 34.3466L11.7951 31.7494V25.2079H15.1759ZM1.77771 23.379C1.77771 23.2057 1.9186 23.0648 2.09192 23.0648H9.70364C9.87697 23.0648 10.0174 23.2057 10.0174 23.379V33.6333C10.0174 33.8066 9.87697 33.9475 9.70364 33.9475H2.09192C1.9186 33.9475 1.77771 33.8066 1.77771 33.6333V23.379Z" fill="#002A61"/>
<path d="M35.3967 24.1515C35.8873 24.1515 36.2855 23.7533 36.2855 23.2626V12.6781L37.4788 13.7074C37.8503 14.0283 38.4117 13.9869 38.7321 13.615C39.053 13.2434 39.0116 12.6821 38.6401 12.3612L25.2637 0.820318C24.9295 0.532328 24.4357 0.532773 24.1024 0.820318L10.7282 12.3621C10.3567 12.683 10.3154 13.2439 10.6362 13.6158C10.8122 13.8194 11.0598 13.9238 11.3095 13.9238C11.5153 13.9238 11.722 13.8527 11.89 13.7078L13.085 12.6763V21.9293C13.085 22.42 13.4832 22.8182 13.9739 22.8182C14.4645 22.8182 14.8627 22.42 14.8627 21.9293V11.1417L24.6833 2.66736L34.5082 11.1444V23.2626C34.5078 23.7533 34.906 24.1515 35.3967 24.1515Z" fill="#002A61"/>
<path d="M23.7956 11.569V12.2032C22.6294 12.5366 21.7832 13.5067 21.7832 14.6498C21.7832 16.0671 23.0849 17.2208 24.6844 17.2208C25.2933 17.2208 25.8079 17.5839 25.8079 18.0141C25.8079 18.4443 25.2933 18.8074 24.6844 18.8074C24.12 18.8074 23.7107 18.5061 23.5974 18.2088C23.4223 17.7497 22.9076 17.5195 22.4503 17.6941C21.9916 17.8688 21.7614 18.3821 21.9361 18.8412C22.2352 19.627 22.9356 20.2176 23.796 20.4616V21.0949C23.796 21.5856 24.1942 21.9838 24.6849 21.9838C25.1755 21.9838 25.5737 21.5856 25.5737 21.0949V20.4607C26.7399 20.1274 27.5861 19.1572 27.5861 18.0146C27.5861 16.5973 26.2844 15.4436 24.6849 15.4436C24.076 15.4436 23.5614 15.0805 23.5614 14.6503C23.5614 14.22 24.076 13.8569 24.6849 13.8569C25.2933 13.8569 25.7093 14.1965 25.7911 14.516C25.9133 14.9911 26.3964 15.2787 26.8737 15.1556C27.3488 15.0333 27.6354 14.5489 27.5132 14.0734C27.2799 13.1659 26.5301 12.4752 25.5737 12.2055V11.569C25.5737 11.0784 25.1755 10.6802 24.6849 10.6802C24.1942 10.6802 23.7956 11.0784 23.7956 11.569Z" fill="#002A61"/>
<path d="M16.0513 16.3317C16.0513 21.0916 19.924 24.9643 24.6843 24.9643C29.4446 24.9643 33.3173 21.0916 33.3173 16.3317C33.3173 11.5715 29.4446 7.69873 24.6843 7.69873C19.924 7.69873 16.0513 11.5715 16.0513 16.3317ZM31.5396 16.3317C31.5396 20.1116 28.4641 23.1866 24.6843 23.1866C20.9044 23.1866 17.829 20.1116 17.829 16.3317C17.829 12.5519 20.9044 9.47644 24.6843 9.47644C28.4641 9.47644 31.5396 12.5514 31.5396 16.3317Z" fill="#002A61"/>
</svg>
