<svg width="80" height="80" viewBox="0 0 80 80" fill="none" xmlns="http://www.w3.org/2000/svg">
<path d="M33.5186 48.0166C33.3729 48.0166 33.2286 48.0455 33.094 48.1016C32.9594 48.1577 32.8371 48.24 32.7341 48.3437C32.631 48.4473 32.5493 48.5705 32.4936 48.7059C32.4378 48.8414 32.4091 48.9866 32.4091 49.1333V65.8833C32.4091 66.0299 32.4378 66.1751 32.4936 66.3106C32.5493 66.4461 32.631 66.5692 32.7341 66.6729C32.8371 66.7766 32.9594 66.8588 33.094 66.9149C33.2286 66.9711 33.3729 66.9999 33.5186 66.9999H49.0517C49.1975 66.9999 49.3417 66.9711 49.4763 66.9149C49.611 66.8588 49.7333 66.7766 49.8363 66.6729C49.9393 66.5692 50.021 66.4461 50.0768 66.3106C50.1326 66.1751 50.1613 66.0299 50.1613 65.8833V49.1333C50.1613 48.9866 50.1326 48.8414 50.0768 48.7059C50.021 48.5705 49.9393 48.4473 49.8363 48.3437C49.7333 48.24 49.611 48.1577 49.4763 48.1016C49.3417 48.0455 49.1975 48.0166 49.0517 48.0166H33.5186ZM34.6281 55.8333H47.9422V59.1833H34.6281V55.8333ZM34.6281 50.2499H47.9422V53.5999H34.6281V50.2499ZM47.9422 64.7666H34.6281V61.4166H47.9422V64.7666Z" fill="white"/>
<path d="M9.10951 44.6668H11.3285V48.0168C11.1828 48.0168 11.0385 48.0456 10.9039 48.1018C10.7693 48.1579 10.647 48.2401 10.544 48.3438C10.4409 48.4475 10.3592 48.5706 10.3035 48.7061C10.2477 48.8416 10.219 48.9868 10.219 49.1334V54.7168C10.219 54.8634 10.2477 55.0086 10.3035 55.1441C10.3592 55.2796 10.4409 55.4027 10.544 55.5064C10.647 55.6101 10.7693 55.6923 10.9039 55.7484C11.0385 55.8046 11.1828 55.8334 11.3285 55.8334H12.438V65.8834C12.438 66.0301 12.4667 66.1753 12.5225 66.3108C12.5782 66.4462 12.66 66.5693 12.763 66.673C12.866 66.7767 12.9883 66.859 13.1229 66.9151C13.2576 66.9712 13.4018 67.0001 13.5475 67.0001H29.0807C29.2264 67.0001 29.3706 66.9712 29.5053 66.9151C29.6399 66.859 29.7622 66.7767 29.8652 66.673C29.9682 66.5693 30.05 66.4462 30.1057 66.3108C30.1615 66.1753 30.1902 66.0301 30.1902 65.8834V54.7168C30.1902 54.5701 30.1615 54.4249 30.1057 54.2894C30.05 54.1539 29.9682 54.0308 29.8652 53.9272C29.7622 53.8235 29.6399 53.7412 29.5053 53.6851C29.3706 53.629 29.2264 53.6001 29.0807 53.6001H27.9712V50.2501C28.1169 50.2501 28.2611 50.2212 28.3958 50.1651C28.5304 50.109 28.6527 50.0267 28.7557 49.923C28.8587 49.8194 28.9405 49.6962 28.9962 49.5608C29.052 49.4253 29.0807 49.2801 29.0807 49.1334V43.5501C29.0807 43.4035 29.052 43.2582 28.9962 43.1228C28.9405 42.9873 28.8587 42.8642 28.7557 42.7605C28.6527 42.6568 28.5304 42.5745 28.3958 42.5184C28.2611 42.4623 28.1169 42.4334 27.9712 42.4334H25.7521V37.9668C25.7521 37.8201 25.7234 37.6749 25.6677 37.5394C25.6119 37.4039 25.5302 37.2808 25.4272 37.1772C25.3242 37.0735 25.2018 36.9912 25.0672 36.9351C24.9326 36.879 24.7883 36.8501 24.6426 36.8501H9.10951C8.9638 36.8501 8.81953 36.879 8.68491 36.9351C8.5503 36.9912 8.42799 37.0735 8.32496 37.1772C8.22193 37.2808 8.1402 37.4039 8.08445 37.5394C8.02869 37.6749 8 37.8201 8 37.9668V43.5501C8 43.6967 8.02869 43.8419 8.08445 43.9774C8.1402 44.1129 8.22193 44.236 8.32496 44.3397C8.42799 44.4434 8.5503 44.5257 8.68491 44.5818C8.81953 44.6379 8.9638 44.6668 9.10951 44.6668ZM27.9712 55.8334V59.1834H14.6571V55.8334H27.9712ZM27.9712 64.7668H14.6571V61.4168H27.9712V64.7668ZM25.7521 53.6001H12.438V50.2501H25.7521V53.6001ZM26.8616 48.0168H13.5475V44.6668H26.8616V48.0168ZM10.219 39.0834H23.5331V42.4334H10.219V39.0834Z" fill="white"/>
<path d="M73.461 36.8501H57.9279C57.7821 36.8501 57.6379 36.879 57.5033 36.9351C57.3686 36.9912 57.2463 37.0735 57.1433 37.1772C57.0403 37.2808 56.9586 37.4039 56.9028 37.5394C56.847 37.6749 56.8183 37.8201 56.8183 37.9668V42.4334H53.4898C53.3441 42.4334 53.1998 42.4623 53.0652 42.5184C52.9306 42.5745 52.8083 42.6568 52.7053 42.7605C52.6022 42.8642 52.5205 42.9873 52.4648 43.1228C52.409 43.2582 52.3803 43.4035 52.3803 43.5501V49.1334C52.3803 49.2801 52.409 49.4253 52.4648 49.5608C52.5205 49.6962 52.6022 49.8194 52.7053 49.923C52.8083 50.0267 52.9306 50.109 53.0652 50.1651C53.1998 50.2212 53.3441 50.2501 53.4898 50.2501H54.5993V53.6001H53.4898C53.3441 53.6001 53.1998 53.629 53.0652 53.6851C52.9306 53.7412 52.8083 53.8235 52.7053 53.9272C52.6022 54.0308 52.5205 54.1539 52.4648 54.2894C52.409 54.4249 52.3803 54.5701 52.3803 54.7168V65.8834C52.3803 66.0301 52.409 66.1753 52.4648 66.3108C52.5205 66.4462 52.6022 66.5693 52.7053 66.673C52.8083 66.7767 52.9306 66.859 53.0652 66.9151C53.1998 66.9712 53.3441 67.0001 53.4898 67.0001H69.0229C69.1686 67.0001 69.3129 66.9712 69.4475 66.9151C69.5821 66.859 69.7045 66.7767 69.8075 66.673C69.9105 66.5693 69.9922 66.4462 70.048 66.3108C70.1038 66.1753 70.1325 66.0301 70.1325 65.8834V55.8334H71.242C71.3877 55.8334 71.5319 55.8046 71.6666 55.7484C71.8012 55.6923 71.9235 55.6101 72.0265 55.5064C72.1295 55.4027 72.2113 55.2796 72.267 55.1441C72.3228 55.0086 72.3515 54.8634 72.3515 54.7168V49.1334C72.3515 48.9868 72.3228 48.8416 72.267 48.7061C72.2113 48.5706 72.1295 48.4475 72.0265 48.3438C71.9235 48.2401 71.8012 48.1579 71.6666 48.1018C71.5319 48.0456 71.3877 48.0168 71.242 48.0168H70.1325V44.6668H73.461C73.6067 44.6668 73.751 44.6379 73.8856 44.5818C74.0202 44.5257 74.1425 44.4434 74.2455 44.3397C74.3486 44.236 74.4303 44.1129 74.486 43.9774C74.5418 43.8419 74.5705 43.6967 74.5705 43.5501V37.9668C74.5705 37.8201 74.5418 37.6749 74.486 37.5394C74.4303 37.4039 74.3486 37.2808 74.2455 37.1772C74.1425 37.0735 74.0202 36.9912 73.8856 36.9351C73.751 36.879 73.6067 36.8501 73.461 36.8501ZM67.9134 64.7668H54.5993V61.4168H67.9134V64.7668ZM67.9134 59.1834H54.5993V55.8334H67.9134V59.1834ZM70.1325 53.6001H56.8183V50.2501H70.1325V53.6001ZM67.9134 48.0168H54.5993V44.6668H67.9134V48.0168ZM72.3515 42.4334H59.0374V39.0834H72.3515V42.4334Z" fill="white"/>
<path d="M30.1901 39.1493V41.3167C30.19 42.3714 30.5608 43.3922 31.2368 44.1982C31.9129 45.0042 32.8506 45.5433 33.8837 45.7201C34.9169 45.8969 35.979 45.7 36.8817 45.1642C37.7844 44.6285 38.4696 43.7884 38.8159 42.7929C39.4837 43.2438 40.2608 43.5036 41.0639 43.5443C41.8671 43.5851 42.6662 43.4054 43.3756 43.0243C44.0851 42.6433 44.6784 42.0753 45.0919 41.3811C45.5054 40.687 45.7236 39.8927 45.7232 39.0833V38.4824C46.3455 38.8452 47.0461 39.0501 47.7647 39.0796C48.4832 39.1091 49.1981 38.9623 49.8477 38.6517C50.4973 38.3412 51.0621 37.8763 51.4934 37.2971C51.9247 36.718 52.2096 36.0419 52.3235 35.3272C52.9153 35.6224 53.5723 35.7606 54.2321 35.7289C54.8919 35.6971 55.5327 35.4964 56.0939 35.1457C56.6551 34.795 57.1181 34.3059 57.439 33.7248C57.7599 33.1437 57.9281 32.4898 57.9278 31.825V1.11667C57.9278 0.970023 57.8991 0.824814 57.8433 0.689332C57.7876 0.55385 57.7058 0.430748 57.6028 0.327055C57.4998 0.223362 57.3775 0.141109 57.2429 0.0849926C57.1082 0.0288763 56.964 -4.21573e-06 56.8183 4.61567e-10H36.8471C36.7014 -4.21573e-06 36.5571 0.0288763 36.4225 0.0849926C36.2879 0.141109 36.1656 0.223362 36.0626 0.327055C35.9595 0.430748 35.8778 0.55385 35.8221 0.689332C35.7663 0.824814 35.7376 0.970023 35.7376 1.11667V7.52732L30.3297 17.3244C30.2381 17.4902 30.1901 17.6769 30.1901 17.8667V21.1507C28.5243 21.9818 27.1222 23.2647 26.1421 24.8547C25.1619 26.4448 24.6425 28.2788 24.6425 30.15C24.6425 32.0212 25.1619 33.8552 26.1421 35.4453C27.1222 37.0353 28.5243 38.3182 30.1901 39.1493ZM34.6281 43.55C34.0398 43.5493 33.4758 43.3138 33.0598 42.8951C32.6438 42.4764 32.4098 41.9088 32.4091 41.3167V39.9468C33.137 40.1145 33.8813 40.1995 34.6281 40.2C35.3746 40.2003 36.1188 40.1171 36.8471 39.9521V41.3167C36.8464 41.9088 36.6124 42.4764 36.1964 42.8951C35.7804 43.3138 35.2164 43.5493 34.6281 43.55ZM41.2851 41.3167C40.7101 41.3158 40.1578 41.0903 39.7446 40.6877C39.3314 40.2852 39.0895 39.737 39.0699 39.1586C40.9785 38.2075 42.533 36.6644 43.5042 34.7568V39.0833C43.5035 39.6754 43.2695 40.2431 42.8535 40.6618C42.4375 41.0805 41.8735 41.316 41.2851 41.3167ZM37.9566 2.23333H55.7088V6.7H37.9566V2.23333ZM32.4091 18.1561L37.5 8.93333H55.7088V31.825C55.7088 32.2692 55.5334 32.6953 55.2213 33.0094C54.9092 33.3235 54.4859 33.5 54.0445 33.5C53.6031 33.5 53.1798 33.3235 52.8677 33.0094C52.5556 32.6953 52.3802 32.2692 52.3802 31.825V26.8H50.1612V34.6167C50.1612 35.209 49.9274 35.777 49.5113 36.1959C49.0951 36.6147 48.5307 36.85 47.9422 36.85C47.3537 36.85 46.7893 36.6147 46.3731 36.1959C45.957 35.777 45.7232 35.209 45.7232 34.6167V34.0158C46.3974 33.6238 46.9573 33.0603 47.3468 32.3818C47.7363 31.7033 47.9416 30.9336 47.9422 30.15V24.0083L49.2736 23.0033C50.236 22.2732 51.0174 21.3287 51.5564 20.2438C52.0954 19.1588 52.3774 17.963 52.3802 16.75V13.4H50.1612V16.75C50.1592 17.6164 49.9577 18.4706 49.5727 19.2456C49.1877 20.0205 48.6296 20.6952 47.9421 21.2167L46.1669 22.5567C46.0292 22.6607 45.9173 22.7956 45.8403 22.9506C45.7633 23.1057 45.7232 23.2766 45.7232 23.45V30.15C45.7232 30.7423 45.4894 31.3104 45.0732 31.7292C44.6571 32.148 44.0927 32.3833 43.5042 32.3833C42.9156 32.3833 42.3512 32.148 41.9351 31.7292C41.5189 31.3104 41.2851 30.7423 41.2851 30.15V15.6333H39.0661V21.1487C37.0053 20.1167 34.6527 19.8356 32.4091 20.3532V18.1561ZM34.6281 22.3333C36.216 22.3273 37.7666 22.8174 39.0661 23.7359V30.15C39.0667 30.9478 39.2795 31.7309 39.6823 32.418C40.0852 33.1051 40.6634 33.6711 41.357 34.0574C40.6756 35.2461 39.6953 36.2333 38.5147 36.9199C37.334 37.6064 35.9946 37.968 34.6311 37.9684C33.2675 37.9688 31.9279 37.6079 30.7469 36.922C29.5659 36.2361 28.585 35.2494 27.903 34.0611C27.221 32.8728 26.8618 31.5247 26.8615 30.1524C26.8613 28.78 27.22 27.4318 27.9015 26.2432C28.5831 25.0546 29.5636 24.0675 30.7443 23.3812C31.9251 22.6949 33.2646 22.3335 34.6281 22.3333Z" fill="white"/>
<path d="M34.2279 33.2855C33.5137 33.2855 32.9605 32.8896 32.9605 32.5473C32.9605 32.205 32.7108 31.9282 32.4021 31.9282C32.0933 31.9282 31.8436 32.205 31.8436 32.5473C31.8436 33.5088 32.6303 34.2857 33.7097 34.4792V35.146C33.7097 35.4883 33.9594 35.7651 34.2682 35.7651C34.577 35.7651 34.8267 35.4883 34.8267 35.146V34.4643C35.8658 34.25 36.6122 33.485 36.6122 32.5503C36.6122 31.5829 35.7369 30.7762 34.2735 30.3952C34.244 30.3892 34.2172 30.3832 34.1903 30.3803C33.4251 30.1332 32.9605 29.7492 32.9605 29.5021C32.9605 29.1598 33.5137 28.7639 34.2279 28.7639C34.9421 28.7639 35.4953 29.1598 35.4953 29.5021C35.4953 29.8445 35.745 30.1213 36.0537 30.1213C36.3625 30.1213 36.6122 29.8445 36.6122 29.5021C36.6122 28.5675 35.8658 27.8024 34.8267 27.5881V26.8469C34.8267 26.5046 34.577 26.2278 34.2682 26.2278C33.9594 26.2278 33.7097 26.5046 33.7097 26.8469V27.5732C32.6303 27.7637 31.8436 28.5436 31.8436 29.5051C31.8436 30.4726 32.7189 31.2792 34.1823 31.6603C34.2118 31.6662 34.2386 31.6722 34.2655 31.6751C35.0307 31.9222 35.4953 32.3062 35.4953 32.5533C35.4953 32.8867 34.9421 33.2855 34.2279 33.2855Z" fill="white"/>
</svg>
