<svg width="506" height="227" viewBox="0 0 506 227" fill="none" xmlns="http://www.w3.org/2000/svg">
<path d="M31.6562 37V2.6875H41.0078V28.9844H52.6328V37H31.6562ZM92.4297 19.9141C92.4297 22.3984 91.9844 24.7188 91.0938 26.875C90.2031 28.9844 88.875 30.9062 87.1094 32.6406C85.3594 34.3281 83.3594 35.625 81.1094 36.5312C78.75 37.4531 76.4141 37.9141 74.1016 37.9141C71.7578 37.9141 69.4219 37.4531 67.0938 36.5312C64.7969 35.6094 62.8125 34.3125 61.1406 32.6406C59.4531 31.0312 58.125 29.0938 57.1562 26.8281C56.2188 24.6094 55.75 22.3047 55.75 19.9141C55.75 17.5234 56.2188 15.2188 57.1562 13C58.125 10.7344 59.4531 8.79688 61.1406 7.1875C62.8594 5.46875 64.8438 4.15625 67.0938 3.25C69.2812 2.35938 71.6172 1.91406 74.1016 1.91406C76.5859 1.91406 78.9375 2.36719 81.1562 3.27344C83.375 4.16406 85.3516 5.46875 87.0859 7.1875C88.8359 8.90625 90.1719 10.8438 91.0938 13C91.9844 15.1562 92.4297 17.4609 92.4297 19.9141ZM74.1016 29.9922C76.6797 29.9922 78.8359 29.0312 80.5703 27.1094C81.4297 26.1562 82.0625 25.0859 82.4688 23.8984C82.875 22.7109 83.0781 21.3828 83.0781 19.9141C83.0781 17.0547 82.2266 14.6562 80.5234 12.7188C78.7891 10.7969 76.6484 9.83594 74.1016 9.83594C71.4922 9.83594 69.3438 10.7969 67.6562 12.7188C65.9688 14.6406 65.125 17.0391 65.125 19.9141C65.125 22.8984 65.9531 25.3125 67.6094 27.1562C69.3125 29.0469 71.4766 29.9922 74.1016 29.9922ZM99.8359 25.9141C101.273 27.5078 102.648 28.6875 103.961 29.4531C105.336 30.2344 106.68 30.625 107.992 30.625C109.227 30.625 110.25 30.2891 111.062 29.6172C111.875 28.9453 112.281 28.0938 112.281 27.0625C112.281 25.9375 111.945 25.0547 111.273 24.4141C110.555 23.8047 108.969 23.1719 106.516 22.5156C103.172 21.6094 100.805 20.4375 99.4141 19C98.0078 17.5312 97.3047 15.5312 97.3047 13C97.3047 9.71875 98.4062 7.04688 100.609 4.98438C102.781 2.90625 105.625 1.86719 109.141 1.86719C111.125 1.86719 112.922 2.125 114.531 2.64062C116.219 3.15625 117.82 3.92188 119.336 4.9375L116.406 11.6641C115.375 10.7734 114.281 10.0859 113.125 9.60156C112 9.14844 110.898 8.92188 109.82 8.92188C108.727 8.92188 107.812 9.19531 107.078 9.74219C106.375 10.2578 106.023 10.9453 106.023 11.8047C106.023 12.6328 106.328 13.3203 106.938 13.8672C107.578 14.3828 108.781 14.875 110.547 15.3438C110.609 15.3594 110.664 15.375 110.711 15.3906C110.758 15.3906 110.828 15.4062 110.922 15.4375C114.734 16.4531 117.25 17.5938 118.469 18.8594C119.266 19.6562 119.891 20.6641 120.344 21.8828C120.75 23.0391 120.953 24.3516 120.953 25.8203C120.953 29.4453 119.758 32.375 117.367 34.6094C114.961 36.8125 111.773 37.9141 107.805 37.9141C105.367 37.9141 103.188 37.5156 101.266 36.7188C99.3594 35.9219 97.4766 34.6406 95.6172 32.875L99.8359 25.9141ZM149.922 16.3984H151.797C154.125 16.3984 155.711 16.1484 156.555 15.6484C157.414 15.1172 157.844 14.2344 157.844 13C157.844 11.7031 157.445 10.7891 156.648 10.2578C155.773 9.71094 154.203 9.4375 151.938 9.4375H149.922V16.3984ZM141.25 37V2.6875H150.648C154.43 2.6875 157.133 2.8125 158.758 3.0625C160.273 3.29688 161.602 3.72656 162.742 4.35156C163.992 5.08594 164.953 6.01562 165.625 7.14062C166.297 8.32813 166.633 9.70312 166.633 11.2656C166.633 13.25 166.133 14.8125 165.133 15.9531C164.148 17.0781 162.57 17.9375 160.398 18.5312C162.773 18.7188 164.68 19.5625 166.117 21.0625C167.492 22.5938 168.18 24.6406 168.18 27.2031C168.18 29.0156 167.789 30.6172 167.008 32.0078C166.227 33.4453 165.125 34.5312 163.703 35.2656C162.609 35.8438 161.172 36.2969 159.391 36.625C157.547 36.875 154.727 37 150.93 37H141.25ZM149.922 29.9922H153.203C155.422 29.9922 156.984 29.7031 157.891 29.125C158.828 28.5938 159.297 27.6797 159.297 26.3828C159.297 24.9766 158.875 23.9688 158.031 23.3594C157.188 22.7969 155.625 22.5156 153.344 22.5156H149.922V29.9922ZM173.828 37V2.6875H194.852V10.2109H182.945V16.1641H194.172V23.5234H182.945V29.3125H194.852V37H173.828ZM201.062 37V2.6875H210.086L223.047 20.3359C223.375 20.8203 223.789 21.5469 224.289 22.5156C224.93 23.7656 225.555 25.0547 226.164 26.3828C225.93 24.5859 225.797 23.3281 225.766 22.6094C225.672 21.4844 225.625 20.4922 225.625 19.6328V2.6875H234.602V37H225.625L212.664 19.2812C212.477 19.0312 212.062 18.2969 211.422 17.0781C210.859 16.0781 210.234 14.8125 209.547 13.2812C209.703 14.5 209.852 15.7656 209.992 17.0781C210.055 18.5469 210.086 19.5391 210.086 20.0547V37H201.062ZM241.984 37V2.6875H263.008V10.2109H251.102V16.1641H262.328V23.5234H251.102V29.3125H263.008V37H241.984ZM269.219 37V2.6875H290.242V10.2109H278.336V16.1641H289.562V23.5234H278.336V37H269.219ZM295.562 37V2.6875H305.008V37H295.562ZM337.445 4.02344V14.2422C336.102 12.7891 334.836 11.7344 333.648 11.0781C332.32 10.4375 330.945 10.1172 329.523 10.1172C326.852 10.1172 324.672 11.0312 322.984 12.8594C322.406 13.5156 321.938 14.2031 321.578 14.9219C321.219 15.625 320.945 16.4297 320.758 17.3359C320.586 18.2266 320.5 19.1328 320.5 20.0547C320.5 22.8047 321.344 25.0938 323.031 26.9219C324.734 28.7188 326.898 29.6172 329.523 29.6172C330.93 29.6172 332.305 29.2812 333.648 28.6094C334.836 28 336.102 26.9531 337.445 25.4688V35.7109C335.711 36.5234 334.234 37.0625 333.016 37.3281C331.5 37.6875 330.016 37.8672 328.562 37.8672C326.719 37.8672 324.984 37.6406 323.359 37.1875C321.734 36.75 320.281 36.0781 319 35.1719C316.438 33.4219 314.484 31.2656 313.141 28.7031C311.797 26.0469 311.125 23.1016 311.125 19.8672C311.125 17.2734 311.562 14.8906 312.438 12.7188C312.828 11.6719 313.32 10.6875 313.914 9.76562C314.523 8.82812 315.305 7.85938 316.258 6.85938C317.898 5.17188 319.742 3.92188 321.789 3.10938C323.82 2.28125 326.078 1.86719 328.562 1.86719C329.984 1.86719 331.469 2.03906 333.016 2.38281C334.547 2.78906 336.023 3.33594 337.445 4.02344ZM342.953 37V2.6875H352.398V37H342.953ZM395.195 19.9141C395.195 22.3984 394.75 24.7188 393.859 26.875C392.969 28.9844 391.641 30.9062 389.875 32.6406C388.125 34.3281 386.125 35.625 383.875 36.5312C381.516 37.4531 379.18 37.9141 376.867 37.9141C374.523 37.9141 372.188 37.4531 369.859 36.5312C367.562 35.6094 365.578 34.3125 363.906 32.6406C362.219 31.0312 360.891 29.0938 359.922 26.8281C358.984 24.6094 358.516 22.3047 358.516 19.9141C358.516 17.5234 358.984 15.2188 359.922 13C360.891 10.7344 362.219 8.79688 363.906 7.1875C365.625 5.46875 367.609 4.15625 369.859 3.25C372.047 2.35938 374.383 1.91406 376.867 1.91406C379.352 1.91406 381.703 2.36719 383.922 3.27344C386.141 4.16406 388.117 5.46875 389.852 7.1875C391.602 8.90625 392.938 10.8438 393.859 13C394.75 15.1562 395.195 17.4609 395.195 19.9141ZM376.867 29.9922C379.445 29.9922 381.602 29.0312 383.336 27.1094C384.195 26.1562 384.828 25.0859 385.234 23.8984C385.641 22.7109 385.844 21.3828 385.844 19.9141C385.844 17.0547 384.992 14.6562 383.289 12.7188C381.555 10.7969 379.414 9.83594 376.867 9.83594C374.258 9.83594 372.109 10.7969 370.422 12.7188C368.734 14.6406 367.891 17.0391 367.891 19.9141C367.891 22.8984 368.719 25.3125 370.375 27.1562C372.078 29.0469 374.242 29.9922 376.867 29.9922ZM402.602 25.9141C404.039 27.5078 405.414 28.6875 406.727 29.4531C408.102 30.2344 409.445 30.625 410.758 30.625C411.992 30.625 413.016 30.2891 413.828 29.6172C414.641 28.9453 415.047 28.0938 415.047 27.0625C415.047 25.9375 414.711 25.0547 414.039 24.4141C413.32 23.8047 411.734 23.1719 409.281 22.5156C405.938 21.6094 403.57 20.4375 402.18 19C400.773 17.5312 400.07 15.5312 400.07 13C400.07 9.71875 401.172 7.04688 403.375 4.98438C405.547 2.90625 408.391 1.86719 411.906 1.86719C413.891 1.86719 415.688 2.125 417.297 2.64062C418.984 3.15625 420.586 3.92188 422.102 4.9375L419.172 11.6641C418.141 10.7734 417.047 10.0859 415.891 9.60156C414.766 9.14844 413.664 8.92188 412.586 8.92188C411.492 8.92188 410.578 9.19531 409.844 9.74219C409.141 10.2578 408.789 10.9453 408.789 11.8047C408.789 12.6328 409.094 13.3203 409.703 13.8672C410.344 14.3828 411.547 14.875 413.312 15.3438C413.375 15.3594 413.43 15.375 413.477 15.3906C413.523 15.3906 413.594 15.4062 413.688 15.4375C417.5 16.4531 420.016 17.5938 421.234 18.8594C422.031 19.6562 422.656 20.6641 423.109 21.8828C423.516 23.0391 423.719 24.3516 423.719 25.8203C423.719 29.4453 422.523 32.375 420.133 34.6094C417.727 36.8125 414.539 37.9141 410.57 37.9141C408.133 37.9141 405.953 37.5156 404.031 36.7188C402.125 35.9219 400.242 34.6406 398.383 32.875L402.602 25.9141ZM31.6562 85V50.6875H38.8047C44.2109 50.6875 47.9844 50.9375 50.125 51.4375C52.3438 51.9375 54.2812 52.7734 55.9375 53.9453C58.125 55.4453 59.7734 57.3828 60.8828 59.7578C62.0078 62.1484 62.5703 64.8516 62.5703 67.8672C62.5703 70.8828 62.0078 73.5859 60.8828 75.9766C59.7734 78.3203 58.125 80.2578 55.9375 81.7891C54.2188 82.9609 52.3281 83.7734 50.2656 84.2266C48.2031 84.7422 44.9062 85 40.375 85H38.8047H31.6562ZM40.9141 77.3125H42.4844C46.1719 77.3125 48.8516 76.5469 50.5234 75.0156C52.2109 73.5156 53.0547 71.1328 53.0547 67.8672C53.0547 64.6172 52.2109 62.2188 50.5234 60.6719C48.8359 59.125 46.1562 58.3516 42.4844 58.3516H40.9141V77.3125ZM68.4531 85V50.6875H89.4766V58.2109H77.5703V64.1641H88.7969V71.5234H77.5703V77.3125H89.4766V85H68.4531ZM110.734 85V50.6875H120.086V76.9844H131.711V85H110.734ZM145.352 72.1797H154.656L151.164 60.8594C151.086 60.6562 150.938 60.0938 150.719 59.1719C150.453 58.0938 150.211 57.1172 149.992 56.2422C149.773 57.0391 149.586 57.8438 149.43 58.6562C149.18 59.4375 148.969 60.1719 148.797 60.8594L145.352 72.1797ZM132.25 85L144.086 50.6875H155.805L167.664 85H158.359L156.625 78.8594H143.336L141.555 85H132.25ZM194.688 64.3984H196.562C198.891 64.3984 200.477 64.1484 201.32 63.6484C202.18 63.1172 202.609 62.2344 202.609 61C202.609 59.7031 202.211 58.7891 201.414 58.2578C200.539 57.7109 198.969 57.4375 196.703 57.4375H194.688V64.3984ZM186.016 85V50.6875H195.414C199.195 50.6875 201.898 50.8125 203.523 51.0625C205.039 51.2969 206.367 51.7266 207.508 52.3516C208.758 53.0859 209.719 54.0156 210.391 55.1406C211.062 56.3281 211.398 57.7031 211.398 59.2656C211.398 61.25 210.898 62.8125 209.898 63.9531C208.914 65.0781 207.336 65.9375 205.164 66.5312C207.539 66.7188 209.445 67.5625 210.883 69.0625C212.258 70.5938 212.945 72.6406 212.945 75.2031C212.945 77.0156 212.555 78.6172 211.773 80.0078C210.992 81.4453 209.891 82.5312 208.469 83.2656C207.375 83.8438 205.938 84.2969 204.156 84.625C202.312 84.875 199.492 85 195.695 85H186.016ZM194.688 77.9922H197.969C200.188 77.9922 201.75 77.7031 202.656 77.125C203.594 76.5938 204.062 75.6797 204.062 74.3828C204.062 72.9766 203.641 71.9688 202.797 71.3594C201.953 70.7969 200.391 70.5156 198.109 70.5156H194.688V77.9922ZM227.664 72.1797H236.969L233.477 60.8594C233.398 60.6562 233.25 60.0938 233.031 59.1719C232.766 58.0938 232.523 57.1172 232.305 56.2422C232.086 57.0391 231.898 57.8438 231.742 58.6562C231.492 59.4375 231.281 60.1719 231.109 60.8594L227.664 72.1797ZM214.562 85L226.398 50.6875H238.117L249.977 85H240.672L238.938 78.8594H225.648L223.867 85H214.562ZM253.281 85V50.6875H262.305L275.266 68.3359C275.594 68.8203 276.008 69.5469 276.508 70.5156C277.148 71.7656 277.773 73.0547 278.383 74.3828C278.148 72.5859 278.016 71.3281 277.984 70.6094C277.891 69.4844 277.844 68.4922 277.844 67.6328V50.6875H286.82V85H277.844L264.883 67.2812C264.695 67.0312 264.281 66.2969 263.641 65.0781C263.078 64.0781 262.453 62.8125 261.766 61.2812C261.922 62.5 262.07 63.7656 262.211 65.0781C262.273 66.5469 262.305 67.5391 262.305 68.0547V85H253.281ZM319.07 52.0234V62.2422C317.727 60.7891 316.461 59.7344 315.273 59.0781C313.945 58.4375 312.57 58.1172 311.148 58.1172C308.477 58.1172 306.297 59.0312 304.609 60.8594C304.031 61.5156 303.562 62.2031 303.203 62.9219C302.844 63.625 302.57 64.4297 302.383 65.3359C302.211 66.2266 302.125 67.1328 302.125 68.0547C302.125 70.8047 302.969 73.0938 304.656 74.9219C306.359 76.7188 308.523 77.6172 311.148 77.6172C312.555 77.6172 313.93 77.2812 315.273 76.6094C316.461 76 317.727 74.9531 319.07 73.4688V83.7109C317.336 84.5234 315.859 85.0625 314.641 85.3281C313.125 85.6875 311.641 85.8672 310.188 85.8672C308.344 85.8672 306.609 85.6406 304.984 85.1875C303.359 84.75 301.906 84.0781 300.625 83.1719C298.062 81.4219 296.109 79.2656 294.766 76.7031C293.422 74.0469 292.75 71.1016 292.75 67.8672C292.75 65.2734 293.188 62.8906 294.062 60.7188C294.453 59.6719 294.945 58.6875 295.539 57.7656C296.148 56.8281 296.93 55.8594 297.883 54.8594C299.523 53.1719 301.367 51.9219 303.414 51.1094C305.445 50.2812 307.703 49.8672 310.188 49.8672C311.609 49.8672 313.094 50.0391 314.641 50.3828C316.172 50.7891 317.648 51.3359 319.07 52.0234ZM333.414 72.1797H342.719L339.227 60.8594C339.148 60.6562 339 60.0938 338.781 59.1719C338.516 58.0938 338.273 57.1172 338.055 56.2422C337.836 57.0391 337.648 57.8438 337.492 58.6562C337.242 59.4375 337.031 60.1719 336.859 60.8594L333.414 72.1797ZM320.312 85L332.148 50.6875H343.867L355.727 85H346.422L344.688 78.8594H331.398L329.617 85H320.312ZM375.602 73.9141C377.039 75.5078 378.414 76.6875 379.727 77.4531C381.102 78.2344 382.445 78.625 383.758 78.625C384.992 78.625 386.016 78.2891 386.828 77.6172C387.641 76.9453 388.047 76.0938 388.047 75.0625C388.047 73.9375 387.711 73.0547 387.039 72.4141C386.32 71.8047 384.734 71.1719 382.281 70.5156C378.938 69.6094 376.57 68.4375 375.18 67C373.773 65.5312 373.07 63.5312 373.07 61C373.07 57.7188 374.172 55.0469 376.375 52.9844C378.547 50.9062 381.391 49.8672 384.906 49.8672C386.891 49.8672 388.688 50.125 390.297 50.6406C391.984 51.1562 393.586 51.9219 395.102 52.9375L392.172 59.6641C391.141 58.7734 390.047 58.0859 388.891 57.6016C387.766 57.1484 386.664 56.9219 385.586 56.9219C384.492 56.9219 383.578 57.1953 382.844 57.7422C382.141 58.2578 381.789 58.9453 381.789 59.8047C381.789 60.6328 382.094 61.3203 382.703 61.8672C383.344 62.3828 384.547 62.875 386.312 63.3438C386.375 63.3594 386.43 63.375 386.477 63.3906C386.523 63.3906 386.594 63.4062 386.688 63.4375C390.5 64.4531 393.016 65.5938 394.234 66.8594C395.031 67.6562 395.656 68.6641 396.109 69.8828C396.516 71.0391 396.719 72.3516 396.719 73.8203C396.719 77.4453 395.523 80.375 393.133 82.6094C390.727 84.8125 387.539 85.9141 383.57 85.9141C381.133 85.9141 378.953 85.5156 377.031 84.7188C375.125 83.9219 373.242 82.6406 371.383 80.875L375.602 73.9141ZM402.203 85V50.6875H411.648V85H402.203ZM419.219 85V50.6875H428.242L441.203 68.3359C441.531 68.8203 441.945 69.5469 442.445 70.5156C443.086 71.7656 443.711 73.0547 444.32 74.3828C444.086 72.5859 443.953 71.3281 443.922 70.6094C443.828 69.4844 443.781 68.4922 443.781 67.6328V50.6875H452.758V85H443.781L430.82 67.2812C430.633 67.0312 430.219 66.2969 429.578 65.0781C429.016 64.0781 428.391 62.8125 427.703 61.2812C427.859 62.5 428.008 63.7656 428.148 65.0781C428.211 66.5469 428.242 67.5391 428.242 68.0547V85H419.219ZM33.1797 121.914C34.6172 123.508 35.9922 124.688 37.3047 125.453C38.6797 126.234 40.0234 126.625 41.3359 126.625C42.5703 126.625 43.5938 126.289 44.4062 125.617C45.2188 124.945 45.625 124.094 45.625 123.062C45.625 121.938 45.2891 121.055 44.6172 120.414C43.8984 119.805 42.3125 119.172 39.8594 118.516C36.5156 117.609 34.1484 116.438 32.7578 115C31.3516 113.531 30.6484 111.531 30.6484 109C30.6484 105.719 31.75 103.047 33.9531 100.984C36.125 98.9062 38.9688 97.8672 42.4844 97.8672C44.4688 97.8672 46.2656 98.125 47.875 98.6406C49.5625 99.1562 51.1641 99.9219 52.6797 100.938L49.75 107.664C48.7188 106.773 47.625 106.086 46.4688 105.602C45.3438 105.148 44.2422 104.922 43.1641 104.922C42.0703 104.922 41.1562 105.195 40.4219 105.742C39.7188 106.258 39.3672 106.945 39.3672 107.805C39.3672 108.633 39.6719 109.32 40.2812 109.867C40.9219 110.383 42.125 110.875 43.8906 111.344C43.9531 111.359 44.0078 111.375 44.0547 111.391C44.1016 111.391 44.1719 111.406 44.2656 111.438C48.0781 112.453 50.5938 113.594 51.8125 114.859C52.6094 115.656 53.2344 116.664 53.6875 117.883C54.0938 119.039 54.2969 120.352 54.2969 121.82C54.2969 125.445 53.1016 128.375 50.7109 130.609C48.3047 132.812 45.1172 133.914 41.1484 133.914C38.7109 133.914 36.5312 133.516 34.6094 132.719C32.7031 131.922 30.8203 130.641 28.9609 128.875L33.1797 121.914ZM68.6172 120.18H77.9219L74.4297 108.859C74.3516 108.656 74.2031 108.094 73.9844 107.172C73.7188 106.094 73.4766 105.117 73.2578 104.242C73.0391 105.039 72.8516 105.844 72.6953 106.656C72.4453 107.438 72.2344 108.172 72.0625 108.859L68.6172 120.18ZM55.5156 133L67.3516 98.6875H79.0703L90.9297 133H81.625L79.8906 126.859H66.6016L64.8203 133H55.5156ZM94.2344 133V98.6875H103.586V124.984H115.211V133H94.2344ZM120.016 133V98.6875H129.461V133H120.016ZM137.031 133V98.6875H146.805C148.695 98.6875 150.289 98.7266 151.586 98.8047C152.898 98.8828 153.977 99.0156 154.82 99.2031C156.273 99.5469 157.57 100.141 158.711 100.984C159.961 101.922 160.906 103.125 161.547 104.594C162.219 106 162.555 107.594 162.555 109.375C162.555 112.016 161.898 114.18 160.586 115.867C159.305 117.555 157.406 118.656 154.891 119.172L164.242 133H153.672L145.797 119.57V133H137.031ZM145.797 114.906H147.531C149.578 114.906 151.055 114.57 151.961 113.898C152.883 113.148 153.344 112.062 153.344 110.641C153.344 108.922 152.914 107.703 152.055 106.984C151.18 106.25 149.719 105.883 147.672 105.883H145.797V114.906ZM182.875 133V98.6875H190.023C195.43 98.6875 199.203 98.9375 201.344 99.4375C203.562 99.9375 205.5 100.773 207.156 101.945C209.344 103.445 210.992 105.383 212.102 107.758C213.227 110.148 213.789 112.852 213.789 115.867C213.789 118.883 213.227 121.586 212.102 123.977C210.992 126.32 209.344 128.258 207.156 129.789C205.438 130.961 203.547 131.773 201.484 132.227C199.422 132.742 196.125 133 191.594 133H190.023H182.875ZM192.133 125.312H193.703C197.391 125.312 200.07 124.547 201.742 123.016C203.43 121.516 204.273 119.133 204.273 115.867C204.273 112.617 203.43 110.219 201.742 108.672C200.055 107.125 197.375 106.352 193.703 106.352H192.133V125.312ZM219.672 133V98.6875H240.695V106.211H228.789V112.164H240.016V119.523H228.789V125.312H240.695V133H219.672ZM286.82 100.023V110.242C285.477 108.789 284.211 107.734 283.023 107.078C281.695 106.438 280.32 106.117 278.898 106.117C276.227 106.117 274.047 107.031 272.359 108.859C271.781 109.516 271.312 110.203 270.953 110.922C270.594 111.625 270.32 112.43 270.133 113.336C269.961 114.227 269.875 115.133 269.875 116.055C269.875 118.805 270.719 121.094 272.406 122.922C274.109 124.719 276.273 125.617 278.898 125.617C280.305 125.617 281.68 125.281 283.023 124.609C284.211 124 285.477 122.953 286.82 121.469V131.711C285.086 132.523 283.609 133.062 282.391 133.328C280.875 133.688 279.391 133.867 277.938 133.867C276.094 133.867 274.359 133.641 272.734 133.188C271.109 132.75 269.656 132.078 268.375 131.172C265.812 129.422 263.859 127.266 262.516 124.703C261.172 122.047 260.5 119.102 260.5 115.867C260.5 113.273 260.938 110.891 261.812 108.719C262.203 107.672 262.695 106.688 263.289 105.766C263.898 104.828 264.68 103.859 265.633 102.859C267.273 101.172 269.117 99.9219 271.164 99.1094C273.195 98.2812 275.453 97.8672 277.938 97.8672C279.359 97.8672 280.844 98.0391 282.391 98.3828C283.922 98.7891 285.398 99.3359 286.82 100.023ZM301.164 120.18H310.469L306.977 108.859C306.898 108.656 306.75 108.094 306.531 107.172C306.266 106.094 306.023 105.117 305.805 104.242C305.586 105.039 305.398 105.844 305.242 106.656C304.992 107.438 304.781 108.172 304.609 108.859L301.164 120.18ZM288.062 133L299.898 98.6875H311.617L323.477 133H314.172L312.438 126.859H299.148L297.367 133H288.062ZM328.305 121.914C329.742 123.508 331.117 124.688 332.43 125.453C333.805 126.234 335.148 126.625 336.461 126.625C337.695 126.625 338.719 126.289 339.531 125.617C340.344 124.945 340.75 124.094 340.75 123.062C340.75 121.938 340.414 121.055 339.742 120.414C339.023 119.805 337.438 119.172 334.984 118.516C331.641 117.609 329.273 116.438 327.883 115C326.477 113.531 325.773 111.531 325.773 109C325.773 105.719 326.875 103.047 329.078 100.984C331.25 98.9062 334.094 97.8672 337.609 97.8672C339.594 97.8672 341.391 98.125 343 98.6406C344.688 99.1562 346.289 99.9219 347.805 100.938L344.875 107.664C343.844 106.773 342.75 106.086 341.594 105.602C340.469 105.148 339.367 104.922 338.289 104.922C337.195 104.922 336.281 105.195 335.547 105.742C334.844 106.258 334.492 106.945 334.492 107.805C334.492 108.633 334.797 109.32 335.406 109.867C336.047 110.383 337.25 110.875 339.016 111.344C339.078 111.359 339.133 111.375 339.18 111.391C339.227 111.391 339.297 111.406 339.391 111.438C343.203 112.453 345.719 113.594 346.938 114.859C347.734 115.656 348.359 116.664 348.812 117.883C349.219 119.039 349.422 120.352 349.422 121.82C349.422 125.445 348.227 128.375 345.836 130.609C343.43 132.812 340.242 133.914 336.273 133.914C333.836 133.914 331.656 133.516 329.734 132.719C327.828 131.922 325.945 130.641 324.086 128.875L328.305 121.914ZM363.742 120.18H373.047L369.555 108.859C369.477 108.656 369.328 108.094 369.109 107.172C368.844 106.094 368.602 105.117 368.383 104.242C368.164 105.039 367.977 105.844 367.82 106.656C367.57 107.438 367.359 108.172 367.188 108.859L363.742 120.18ZM350.641 133L362.477 98.6875H374.195L386.055 133H376.75L375.016 126.859H361.727L359.945 133H350.641Z" fill="white"/>
<path d="M27 191H15C10.5817 191 7 187.418 7 183V13.5" stroke="white" stroke-width="1.5"/>
<path d="M12.622 7.0784C12.622 10.6144 9.92461 13.4068 6.68598 13.4068C3.44736 13.4068 0.75 10.6144 0.75 7.0784C0.75 3.54244 3.44736 0.75 6.68598 0.75C9.92461 0.75 12.622 3.54244 12.622 7.0784Z" stroke="white" stroke-width="1.5"/>
<rect x="25" y="157" width="281" height="70" rx="16" fill="#002A61"/>
<path d="M58.1279 187H54.8496L54.0938 181.437C54.0293 180.938 53.9824 180.502 53.9531 180.127C53.9121 179.758 53.8711 179.233 53.8301 178.554C53.7246 179.163 53.5605 179.843 53.3379 180.593C53.291 180.739 53.2559 180.865 53.2324 180.971L51.4834 187H49.1455L47.3965 180.971C47.3789 180.871 47.3438 180.745 47.291 180.593C47.0449 179.802 46.8838 179.122 46.8076 178.554C46.7607 179.198 46.7168 179.679 46.6758 179.995C46.6582 180.159 46.6318 180.399 46.5967 180.716C46.5615 181.032 46.5352 181.272 46.5176 181.437L45.7617 187H42.501L44.4873 174.133H47.959L49.9014 180.769C49.9365 180.892 49.96 180.971 49.9717 181.006C50.1416 181.557 50.2559 182.061 50.3145 182.518C50.3262 182.359 50.3701 182.102 50.4463 181.744C50.4697 181.656 50.5576 181.325 50.71 180.751L52.6699 174.133H56.1504L58.1279 187ZM66.5654 182.553C66.5654 181.85 66.3809 181.305 66.0117 180.918C65.6367 180.508 65.1328 180.303 64.5 180.303C63.8672 180.303 63.3691 180.502 63.0059 180.9C62.6309 181.311 62.4434 181.861 62.4434 182.553C62.4434 183.25 62.6309 183.798 63.0059 184.196C63.3633 184.589 63.8613 184.785 64.5 184.785C65.1328 184.785 65.6338 184.589 66.0029 184.196C66.3779 183.804 66.5654 183.256 66.5654 182.553ZM69.3164 178.123V187H66.4424V185.559C66.0264 186.174 65.5605 186.625 65.0449 186.912C64.5352 187.199 63.9375 187.343 63.252 187.343C62.0625 187.343 61.1162 186.909 60.4131 186.042C60.0674 185.614 59.8037 185.11 59.6221 184.53C59.4404 183.95 59.3496 183.297 59.3496 182.57C59.3496 181.117 59.7217 179.966 60.4658 179.116C61.21 178.267 62.2061 177.842 63.4541 177.842C64.1221 177.842 64.6963 177.985 65.1768 178.272C65.6631 178.548 66.0791 178.984 66.4248 179.582V178.123H69.3164ZM71.6807 187V178.123H74.5459V179.925C74.9502 179.222 75.4307 178.694 75.9873 178.343C76.5264 178.009 77.1797 177.842 77.9473 177.842C78.5273 177.842 79.043 177.93 79.4941 178.105C79.9395 178.305 80.2998 178.574 80.5752 178.914C80.8271 179.254 80.9941 179.614 81.0762 179.995C81.1758 180.481 81.2256 181.123 81.2256 181.92V187H78.0879V182.245C78.0879 181.524 77.9736 181.009 77.7451 180.698C77.5166 180.376 77.1445 180.215 76.6289 180.215C75.9844 180.215 75.5098 180.455 75.2051 180.936C74.9062 181.416 74.7568 182.195 74.7568 183.273V187H71.6807ZM89.5576 181.419C89.5049 180.927 89.3145 180.525 88.9863 180.215C88.6582 179.904 88.2568 179.749 87.7822 179.749C87.2842 179.749 86.8799 179.887 86.5693 180.162C86.2471 180.473 86.0449 180.892 85.9629 181.419H89.5576ZM92.6426 183.186H85.8926C85.9102 183.877 86.083 184.404 86.4111 184.768C86.751 185.143 87.2432 185.33 87.8877 185.33C88.3564 185.33 88.7578 185.239 89.0918 185.058C89.4316 184.864 89.6777 184.601 89.8301 184.267L92.1855 185.216C91.9102 185.89 91.4121 186.411 90.6914 186.78C89.9766 187.155 89.1006 187.343 88.0635 187.343C86.5166 187.343 85.2744 186.909 84.3369 186.042C83.4053 185.198 82.9395 184.07 82.9395 182.658C82.9395 181.281 83.4053 180.13 84.3369 179.204C85.2686 178.296 86.4521 177.842 87.8877 177.842C89.3525 177.842 90.5098 178.302 91.3594 179.222C91.793 179.696 92.1152 180.25 92.3262 180.883C92.5371 181.51 92.6426 182.228 92.6426 183.036V183.186ZM94.374 175.354C94.374 174.868 94.541 174.467 94.875 174.15C95.2148 173.811 95.6221 173.641 96.0967 173.641C96.583 173.641 96.999 173.805 97.3447 174.133C97.667 174.455 97.8281 174.862 97.8281 175.354C97.8281 175.847 97.6582 176.263 97.3184 176.603C96.9844 176.937 96.5771 177.104 96.0967 177.104C95.6338 177.104 95.2266 176.928 94.875 176.576C94.541 176.242 94.374 175.835 94.374 175.354ZM94.5322 190.92V178.123H97.6699V190.92H94.5322ZM106.837 182.553C106.837 181.85 106.652 181.305 106.283 180.918C105.908 180.508 105.404 180.303 104.771 180.303C104.139 180.303 103.641 180.502 103.277 180.9C102.902 181.311 102.715 181.861 102.715 182.553C102.715 183.25 102.902 183.798 103.277 184.196C103.635 184.589 104.133 184.785 104.771 184.785C105.404 184.785 105.905 184.589 106.274 184.196C106.649 183.804 106.837 183.256 106.837 182.553ZM109.588 178.123V187H106.714V185.559C106.298 186.174 105.832 186.625 105.316 186.912C104.807 187.199 104.209 187.343 103.523 187.343C102.334 187.343 101.388 186.909 100.685 186.042C100.339 185.614 100.075 185.11 99.8936 184.53C99.7119 183.95 99.6211 183.297 99.6211 182.57C99.6211 181.117 99.9932 179.966 100.737 179.116C101.481 178.267 102.478 177.842 103.726 177.842C104.394 177.842 104.968 177.985 105.448 178.272C105.935 178.548 106.351 178.984 106.696 179.582V178.123H109.588ZM118.096 187L118.078 180.338H116.751V178.123H118.078V175.478H121.181V178.123H122.49V180.338H121.181V187H118.096ZM133.063 178.123V182.658C133.063 183.672 132.987 184.41 132.835 184.873C132.671 185.354 132.396 185.787 132.009 186.174C131.64 186.561 131.153 186.854 130.55 187.053C129.976 187.246 129.284 187.343 128.476 187.343C127.673 187.343 126.99 187.246 126.428 187.053C125.848 186.865 125.35 186.572 124.934 186.174C124.553 185.811 124.283 185.383 124.125 184.891C123.967 184.434 123.888 183.689 123.888 182.658V178.123H126.876V182.86C126.876 183.604 127.002 184.138 127.254 184.46C127.482 184.8 127.878 184.97 128.44 184.97C128.997 184.97 129.396 184.806 129.636 184.478C129.882 184.149 130.005 183.61 130.005 182.86V178.123H133.063ZM134.487 186.262L135.138 183.871C135.595 184.275 136.099 184.58 136.649 184.785C137.194 185.002 137.745 185.11 138.302 185.11C138.7 185.11 138.999 185.043 139.198 184.908C139.403 184.785 139.506 184.606 139.506 184.372C139.506 183.979 139.093 183.687 138.267 183.493C137.979 183.429 137.763 183.373 137.616 183.326C136.661 183.045 135.984 182.702 135.586 182.298C135.152 181.882 134.936 181.343 134.936 180.681C134.936 179.825 135.261 179.137 135.911 178.615C136.538 178.1 137.414 177.842 138.539 177.842C139.084 177.842 139.664 177.906 140.279 178.035C140.795 178.141 141.396 178.346 142.081 178.65L141.431 180.804C141.009 180.517 140.584 180.303 140.156 180.162C139.752 180.016 139.327 179.942 138.882 179.942C138.519 179.942 138.246 179.998 138.064 180.109C137.889 180.215 137.801 180.376 137.801 180.593C137.801 180.897 138.214 181.161 139.04 181.384C139.31 181.466 139.447 181.507 139.453 181.507C140.531 181.812 141.287 182.172 141.721 182.588C142.143 183.027 142.354 183.599 142.354 184.302C142.354 185.21 142.005 185.942 141.308 186.499C140.593 187.062 139.67 187.343 138.539 187.343C137.754 187.343 137.03 187.252 136.368 187.07C135.712 186.895 135.085 186.625 134.487 186.262ZM156.047 181.041C155.742 180.771 155.449 180.575 155.168 180.452C154.916 180.329 154.62 180.268 154.28 180.268C153.653 180.268 153.161 180.473 152.804 180.883C152.435 181.287 152.25 181.844 152.25 182.553C152.25 183.232 152.44 183.771 152.821 184.17C153.19 184.58 153.703 184.785 154.359 184.785C154.67 184.785 154.969 184.721 155.256 184.592C155.561 184.445 155.824 184.252 156.047 184.012V186.728C155.672 186.927 155.294 187.085 154.913 187.202C154.509 187.296 154.125 187.343 153.762 187.343C152.391 187.343 151.286 186.903 150.448 186.024C150.161 185.731 149.924 185.409 149.736 185.058C149.555 184.706 149.414 184.325 149.314 183.915C149.221 183.505 149.174 183.057 149.174 182.57C149.174 181.17 149.602 180.033 150.457 179.16C151.318 178.281 152.432 177.842 153.797 177.842C154.225 177.842 154.632 177.889 155.019 177.982C155.394 178.076 155.736 178.214 156.047 178.396V181.041ZM167.077 178.123V182.658C167.077 183.672 167.001 184.41 166.849 184.873C166.685 185.354 166.409 185.787 166.022 186.174C165.653 186.561 165.167 186.854 164.563 187.053C163.989 187.246 163.298 187.343 162.489 187.343C161.687 187.343 161.004 187.246 160.441 187.053C159.861 186.865 159.363 186.572 158.947 186.174C158.566 185.811 158.297 185.383 158.139 184.891C157.98 184.434 157.901 183.689 157.901 182.658V178.123H160.89V182.86C160.89 183.604 161.016 184.138 161.268 184.46C161.496 184.8 161.892 184.97 162.454 184.97C163.011 184.97 163.409 184.806 163.649 184.478C163.896 184.149 164.019 183.61 164.019 182.86V178.123H167.077ZM175.444 181.419C175.392 180.927 175.201 180.525 174.873 180.215C174.545 179.904 174.144 179.749 173.669 179.749C173.171 179.749 172.767 179.887 172.456 180.162C172.134 180.473 171.932 180.892 171.85 181.419H175.444ZM178.529 183.186H171.779C171.797 183.877 171.97 184.404 172.298 184.768C172.638 185.143 173.13 185.33 173.774 185.33C174.243 185.33 174.645 185.239 174.979 185.058C175.318 184.864 175.564 184.601 175.717 184.267L178.072 185.216C177.797 185.89 177.299 186.411 176.578 186.78C175.863 187.155 174.987 187.343 173.95 187.343C172.403 187.343 171.161 186.909 170.224 186.042C169.292 185.198 168.826 184.07 168.826 182.658C168.826 181.281 169.292 180.13 170.224 179.204C171.155 178.296 172.339 177.842 173.774 177.842C175.239 177.842 176.396 178.302 177.246 179.222C177.68 179.696 178.002 180.25 178.213 180.883C178.424 181.51 178.529 182.228 178.529 183.036V183.186ZM180.331 187V178.123H183.196V179.925C183.601 179.222 184.081 178.694 184.638 178.343C185.177 178.009 185.83 177.842 186.598 177.842C187.178 177.842 187.693 177.93 188.145 178.105C188.59 178.305 188.95 178.574 189.226 178.914C189.478 179.254 189.645 179.614 189.727 179.995C189.826 180.481 189.876 181.123 189.876 181.92V187H186.738V182.245C186.738 181.524 186.624 181.009 186.396 180.698C186.167 180.376 185.795 180.215 185.279 180.215C184.635 180.215 184.16 180.455 183.855 180.936C183.557 181.416 183.407 182.195 183.407 183.273V187H180.331ZM192.592 187L192.574 180.338H191.247V178.123H192.574V175.478H195.677V178.123H196.986V180.338H195.677V187H192.592ZM205.222 182.553C205.222 181.85 205.037 181.305 204.668 180.918C204.293 180.508 203.789 180.303 203.156 180.303C202.523 180.303 202.025 180.502 201.662 180.9C201.287 181.311 201.1 181.861 201.1 182.553C201.1 183.25 201.287 183.798 201.662 184.196C202.02 184.589 202.518 184.785 203.156 184.785C203.789 184.785 204.29 184.589 204.659 184.196C205.034 183.804 205.222 183.256 205.222 182.553ZM207.973 178.123V187H205.099V185.559C204.683 186.174 204.217 186.625 203.701 186.912C203.191 187.199 202.594 187.343 201.908 187.343C200.719 187.343 199.772 186.909 199.069 186.042C198.724 185.614 198.46 185.11 198.278 184.53C198.097 183.95 198.006 183.297 198.006 182.57C198.006 181.117 198.378 179.966 199.122 179.116C199.866 178.267 200.862 177.842 202.11 177.842C202.778 177.842 203.353 177.985 203.833 178.272C204.319 178.548 204.735 178.984 205.081 179.582V178.123H207.973ZM209.511 186.262L210.161 183.871C210.618 184.275 211.122 184.58 211.673 184.785C212.218 185.002 212.769 185.11 213.325 185.11C213.724 185.11 214.022 185.043 214.222 184.908C214.427 184.785 214.529 184.606 214.529 184.372C214.529 183.979 214.116 183.687 213.29 183.493C213.003 183.429 212.786 183.373 212.64 183.326C211.685 183.045 211.008 182.702 210.609 182.298C210.176 181.882 209.959 181.343 209.959 180.681C209.959 179.825 210.284 179.137 210.935 178.615C211.562 178.1 212.438 177.842 213.562 177.842C214.107 177.842 214.688 177.906 215.303 178.035C215.818 178.141 216.419 178.346 217.104 178.65L216.454 180.804C216.032 180.517 215.607 180.303 215.18 180.162C214.775 180.016 214.351 179.942 213.905 179.942C213.542 179.942 213.27 179.998 213.088 180.109C212.912 180.215 212.824 180.376 212.824 180.593C212.824 180.897 213.237 181.161 214.063 181.384C214.333 181.466 214.471 181.507 214.477 181.507C215.555 181.812 216.311 182.172 216.744 182.588C217.166 183.027 217.377 183.599 217.377 184.302C217.377 185.21 217.028 185.942 216.331 186.499C215.616 187.062 214.693 187.343 213.562 187.343C212.777 187.343 212.054 187.252 211.392 187.07C210.735 186.895 210.108 186.625 209.511 186.262ZM231.483 182.57C231.483 181.873 231.305 181.328 230.947 180.936C230.566 180.537 230.062 180.338 229.436 180.338C228.803 180.338 228.305 180.537 227.941 180.936C227.578 181.334 227.396 181.879 227.396 182.57C227.396 183.268 227.578 183.815 227.941 184.214C228.299 184.606 228.797 184.803 229.436 184.803C230.068 184.803 230.572 184.606 230.947 184.214C231.305 183.821 231.483 183.273 231.483 182.57ZM234.261 173.377V187H231.378V185.559C230.979 186.162 230.528 186.607 230.024 186.895C229.556 187.193 229.005 187.343 228.372 187.343C227.13 187.343 226.137 186.909 225.393 186.042C224.654 185.175 224.285 184.018 224.285 182.57C224.285 181.164 224.657 180.019 225.401 179.134C226.14 178.272 227.095 177.842 228.267 177.842C229.017 177.842 229.626 177.979 230.095 178.255C230.546 178.507 230.968 178.955 231.36 179.6C231.337 179.441 231.313 179.201 231.29 178.879C231.267 178.527 231.255 178.24 231.255 178.018V173.377H234.261ZM242.698 181.419C242.646 180.927 242.455 180.525 242.127 180.215C241.799 179.904 241.397 179.749 240.923 179.749C240.425 179.749 240.021 179.887 239.71 180.162C239.388 180.473 239.186 180.892 239.104 181.419H242.698ZM245.783 183.186H239.033C239.051 183.877 239.224 184.404 239.552 184.768C239.892 185.143 240.384 185.33 241.028 185.33C241.497 185.33 241.898 185.239 242.232 185.058C242.572 184.864 242.818 184.601 242.971 184.267L245.326 185.216C245.051 185.89 244.553 186.411 243.832 186.78C243.117 187.155 242.241 187.343 241.204 187.343C239.657 187.343 238.415 186.909 237.478 186.042C236.546 185.198 236.08 184.07 236.08 182.658C236.08 181.281 236.546 180.13 237.478 179.204C238.409 178.296 239.593 177.842 241.028 177.842C242.493 177.842 243.65 178.302 244.5 179.222C244.934 179.696 245.256 180.25 245.467 180.883C245.678 181.51 245.783 182.228 245.783 183.036V183.186ZM246.759 186.262L247.409 183.871C247.866 184.275 248.37 184.58 248.921 184.785C249.466 185.002 250.017 185.11 250.573 185.11C250.972 185.11 251.271 185.043 251.47 184.908C251.675 184.785 251.777 184.606 251.777 184.372C251.777 183.979 251.364 183.687 250.538 183.493C250.251 183.429 250.034 183.373 249.888 183.326C248.933 183.045 248.256 182.702 247.857 182.298C247.424 181.882 247.207 181.343 247.207 180.681C247.207 179.825 247.532 179.137 248.183 178.615C248.81 178.1 249.686 177.842 250.811 177.842C251.355 177.842 251.936 177.906 252.551 178.035C253.066 178.141 253.667 178.346 254.353 178.65L253.702 180.804C253.28 180.517 252.855 180.303 252.428 180.162C252.023 180.016 251.599 179.942 251.153 179.942C250.79 179.942 250.518 179.998 250.336 180.109C250.16 180.215 250.072 180.376 250.072 180.593C250.072 180.897 250.485 181.161 251.312 181.384C251.581 181.466 251.719 181.507 251.725 181.507C252.803 181.812 253.559 182.172 253.992 182.588C254.414 183.027 254.625 183.599 254.625 184.302C254.625 185.21 254.276 185.942 253.579 186.499C252.864 187.062 251.941 187.343 250.811 187.343C250.025 187.343 249.302 187.252 248.64 187.07C247.983 186.895 247.356 186.625 246.759 186.262ZM263.089 182.57C263.089 181.873 262.91 181.328 262.553 180.936C262.172 180.537 261.668 180.338 261.041 180.338C260.408 180.338 259.91 180.537 259.547 180.936C259.184 181.334 259.002 181.879 259.002 182.57C259.002 183.268 259.184 183.815 259.547 184.214C259.904 184.606 260.402 184.803 261.041 184.803C261.674 184.803 262.178 184.606 262.553 184.214C262.91 183.821 263.089 183.273 263.089 182.57ZM265.866 173.377V187H262.983V185.559C262.585 186.162 262.134 186.607 261.63 186.895C261.161 187.193 260.61 187.343 259.978 187.343C258.735 187.343 257.742 186.909 256.998 186.042C256.26 185.175 255.891 184.018 255.891 182.57C255.891 181.164 256.263 180.019 257.007 179.134C257.745 178.272 258.7 177.842 259.872 177.842C260.622 177.842 261.231 177.979 261.7 178.255C262.151 178.507 262.573 178.955 262.966 179.6C262.942 179.441 262.919 179.201 262.896 178.879C262.872 178.527 262.86 178.24 262.86 178.018V173.377H265.866ZM274.304 181.419C274.251 180.927 274.061 180.525 273.732 180.215C273.404 179.904 273.003 179.749 272.528 179.749C272.03 179.749 271.626 179.887 271.315 180.162C270.993 180.473 270.791 180.892 270.709 181.419H274.304ZM277.389 183.186H270.639C270.656 183.877 270.829 184.404 271.157 184.768C271.497 185.143 271.989 185.33 272.634 185.33C273.103 185.33 273.504 185.239 273.838 185.058C274.178 184.864 274.424 184.601 274.576 184.267L276.932 185.216C276.656 185.89 276.158 186.411 275.438 186.78C274.723 187.155 273.847 187.343 272.81 187.343C271.263 187.343 270.021 186.909 269.083 186.042C268.151 185.198 267.686 184.07 267.686 182.658C267.686 181.281 268.151 180.13 269.083 179.204C270.015 178.296 271.198 177.842 272.634 177.842C274.099 177.842 275.256 178.302 276.105 179.222C276.539 179.696 276.861 180.25 277.072 180.883C277.283 181.51 277.389 182.228 277.389 183.036V183.186ZM43.2393 207V193.377H46.377V207H43.2393ZM55.5439 202.553C55.5439 201.85 55.3594 201.305 54.9902 200.918C54.6152 200.508 54.1113 200.303 53.4785 200.303C52.8457 200.303 52.3477 200.502 51.9844 200.9C51.6094 201.311 51.4219 201.861 51.4219 202.553C51.4219 203.25 51.6094 203.798 51.9844 204.196C52.3418 204.589 52.8398 204.785 53.4785 204.785C54.1113 204.785 54.6123 204.589 54.9814 204.196C55.3564 203.804 55.5439 203.256 55.5439 202.553ZM58.2949 198.123V207H55.4209V205.559C55.0049 206.174 54.5391 206.625 54.0234 206.912C53.5137 207.199 52.916 207.343 52.2305 207.343C51.041 207.343 50.0947 206.909 49.3916 206.042C49.0459 205.614 48.7822 205.11 48.6006 204.53C48.4189 203.95 48.3281 203.297 48.3281 202.57C48.3281 201.117 48.7002 199.966 49.4443 199.116C50.1885 198.267 51.1846 197.842 52.4326 197.842C53.1006 197.842 53.6748 197.985 54.1553 198.272C54.6416 198.548 55.0576 198.984 55.4033 199.582V198.123H58.2949ZM72.6738 201.041C72.3691 200.771 72.0762 200.575 71.7949 200.452C71.543 200.329 71.2471 200.268 70.9072 200.268C70.2803 200.268 69.7881 200.473 69.4307 200.883C69.0615 201.287 68.877 201.844 68.877 202.553C68.877 203.232 69.0674 203.771 69.4482 204.17C69.8174 204.58 70.3301 204.785 70.9863 204.785C71.2969 204.785 71.5957 204.721 71.8828 204.592C72.1875 204.445 72.4512 204.252 72.6738 204.012V206.728C72.2988 206.927 71.9209 207.085 71.54 207.202C71.1357 207.296 70.752 207.343 70.3887 207.343C69.0176 207.343 67.9131 206.903 67.0752 206.024C66.7881 205.731 66.5508 205.409 66.3633 205.058C66.1816 204.706 66.041 204.325 65.9414 203.915C65.8477 203.505 65.8008 203.057 65.8008 202.57C65.8008 201.17 66.2285 200.033 67.084 199.16C67.9453 198.281 69.0586 197.842 70.4238 197.842C70.8516 197.842 71.2588 197.889 71.6455 197.982C72.0205 198.076 72.3633 198.214 72.6738 198.396V201.041ZM80.9004 202.588C80.9004 201.926 80.7334 201.404 80.3994 201.023C80.0537 200.643 79.6025 200.452 79.0459 200.452C78.4717 200.452 78.0205 200.643 77.6924 201.023C77.3584 201.393 77.1914 201.914 77.1914 202.588C77.1914 203.244 77.3525 203.76 77.6748 204.135C78.0264 204.521 78.4834 204.715 79.0459 204.715C79.6084 204.715 80.0654 204.521 80.417 204.135C80.7393 203.748 80.9004 203.232 80.9004 202.588ZM84.0117 202.588C84.0117 203.238 83.8857 203.845 83.6338 204.407C83.3701 205.005 83.0098 205.521 82.5527 205.954C82.0371 206.435 81.5039 206.783 80.9531 207C80.3789 207.229 79.7432 207.343 79.0459 207.343C78.3428 207.343 77.707 207.229 77.1387 207C76.5586 206.771 76.0225 206.426 75.5303 205.963C75.0439 205.494 74.6924 204.976 74.4756 204.407C74.2236 203.862 74.0977 203.256 74.0977 202.588C74.0977 201.938 74.2236 201.325 74.4756 200.751C74.71 200.171 75.0645 199.655 75.5391 199.204C76.002 198.759 76.5352 198.416 77.1387 198.176C77.7129 197.953 78.3486 197.842 79.0459 197.842C79.7373 197.842 80.373 197.953 80.9531 198.176C81.5566 198.416 82.0898 198.759 82.5527 199.204C83.0391 199.644 83.3994 200.159 83.6338 200.751C83.8857 201.325 84.0117 201.938 84.0117 202.588ZM97.5469 207V202.157C97.5469 201.396 97.459 200.868 97.2832 200.575C97.084 200.276 96.7529 200.127 96.29 200.127C95.6982 200.127 95.291 200.329 95.0684 200.733C94.8398 201.132 94.7256 201.967 94.7256 203.238V207H91.7021V202.157C91.7021 201.366 91.6055 200.833 91.4121 200.558C91.2363 200.271 90.9111 200.127 90.4365 200.127C89.8447 200.127 89.4316 200.323 89.1973 200.716C88.9688 201.114 88.8545 201.955 88.8545 203.238V207H85.8135V198.123H88.8896V199.67C89.2646 199.049 89.6924 198.589 90.1729 198.29C90.6416 197.991 91.21 197.842 91.8779 197.842C92.5986 197.842 93.1934 197.979 93.6621 198.255C94.1074 198.536 94.4326 198.955 94.6377 199.512C94.9951 198.932 95.4199 198.513 95.9121 198.255C96.3984 197.979 96.9814 197.842 97.6611 197.842C98.1943 197.842 98.6602 197.93 99.0586 198.105C99.4688 198.299 99.8057 198.568 100.069 198.914C100.292 199.189 100.447 199.515 100.535 199.89C100.623 200.235 100.667 200.848 100.667 201.727V201.92V207H97.5469ZM109.184 202.588C109.184 201.926 109.017 201.404 108.683 201.023C108.337 200.643 107.886 200.452 107.329 200.452C106.755 200.452 106.304 200.643 105.976 201.023C105.642 201.393 105.475 201.914 105.475 202.588C105.475 203.244 105.636 203.76 105.958 204.135C106.31 204.521 106.767 204.715 107.329 204.715C107.892 204.715 108.349 204.521 108.7 204.135C109.022 203.748 109.184 203.232 109.184 202.588ZM112.295 202.588C112.295 203.238 112.169 203.845 111.917 204.407C111.653 205.005 111.293 205.521 110.836 205.954C110.32 206.435 109.787 206.783 109.236 207C108.662 207.229 108.026 207.343 107.329 207.343C106.626 207.343 105.99 207.229 105.422 207C104.842 206.771 104.306 206.426 103.813 205.963C103.327 205.494 102.976 204.976 102.759 204.407C102.507 203.862 102.381 203.256 102.381 202.588C102.381 201.938 102.507 201.325 102.759 200.751C102.993 200.171 103.348 199.655 103.822 199.204C104.285 198.759 104.818 198.416 105.422 198.176C105.996 197.953 106.632 197.842 107.329 197.842C108.021 197.842 108.656 197.953 109.236 198.176C109.84 198.416 110.373 198.759 110.836 199.204C111.322 199.644 111.683 200.159 111.917 200.751C112.169 201.325 112.295 201.938 112.295 202.588ZM120.882 202.57C120.882 201.873 120.703 201.328 120.346 200.936C119.965 200.537 119.461 200.338 118.834 200.338C118.201 200.338 117.703 200.537 117.34 200.936C116.977 201.334 116.795 201.879 116.795 202.57C116.795 203.268 116.977 203.815 117.34 204.214C117.697 204.606 118.195 204.803 118.834 204.803C119.467 204.803 119.971 204.606 120.346 204.214C120.703 203.821 120.882 203.273 120.882 202.57ZM123.659 193.377V207H120.776V205.559C120.378 206.162 119.927 206.607 119.423 206.895C118.954 207.193 118.403 207.343 117.771 207.343C116.528 207.343 115.535 206.909 114.791 206.042C114.053 205.175 113.684 204.018 113.684 202.57C113.684 201.164 114.056 200.019 114.8 199.134C115.538 198.272 116.493 197.842 117.665 197.842C118.415 197.842 119.024 197.979 119.493 198.255C119.944 198.507 120.366 198.955 120.759 199.6C120.735 199.441 120.712 199.201 120.688 198.879C120.665 198.527 120.653 198.24 120.653 198.018V193.377H123.659ZM125.909 207V198.123H129.038V207H125.909ZM126.305 195.838H126.322C126.322 195.51 126.437 195.24 126.665 195.029C126.894 194.801 127.169 194.687 127.491 194.687C127.831 194.687 128.109 194.795 128.326 195.012C128.549 195.229 128.66 195.504 128.66 195.838C128.66 196.178 128.546 196.459 128.317 196.682C128.095 196.91 127.819 197.024 127.491 197.024C127.157 197.024 126.876 196.904 126.647 196.664C126.419 196.441 126.305 196.166 126.305 195.838ZM138.39 202.57C138.39 201.873 138.211 201.328 137.854 200.936C137.473 200.537 136.969 200.338 136.342 200.338C135.709 200.338 135.211 200.537 134.848 200.936C134.484 201.334 134.303 201.879 134.303 202.57C134.303 203.268 134.484 203.815 134.848 204.214C135.205 204.606 135.703 204.803 136.342 204.803C136.975 204.803 137.479 204.606 137.854 204.214C138.211 203.821 138.39 203.273 138.39 202.57ZM141.167 193.377V207H138.284V205.559C137.886 206.162 137.435 206.607 136.931 206.895C136.462 207.193 135.911 207.343 135.278 207.343C134.036 207.343 133.043 206.909 132.299 206.042C131.561 205.175 131.191 204.018 131.191 202.57C131.191 201.164 131.563 200.019 132.308 199.134C133.046 198.272 134.001 197.842 135.173 197.842C135.923 197.842 136.532 197.979 137.001 198.255C137.452 198.507 137.874 198.955 138.267 199.6C138.243 199.441 138.22 199.201 138.196 198.879C138.173 198.527 138.161 198.24 138.161 198.018V193.377H141.167ZM150.255 202.553C150.255 201.85 150.07 201.305 149.701 200.918C149.326 200.508 148.822 200.303 148.189 200.303C147.557 200.303 147.059 200.502 146.695 200.9C146.32 201.311 146.133 201.861 146.133 202.553C146.133 203.25 146.32 203.798 146.695 204.196C147.053 204.589 147.551 204.785 148.189 204.785C148.822 204.785 149.323 204.589 149.692 204.196C150.067 203.804 150.255 203.256 150.255 202.553ZM153.006 198.123V207H150.132V205.559C149.716 206.174 149.25 206.625 148.734 206.912C148.225 207.199 147.627 207.343 146.941 207.343C145.752 207.343 144.806 206.909 144.103 206.042C143.757 205.614 143.493 205.11 143.312 204.53C143.13 203.95 143.039 203.297 143.039 202.57C143.039 201.117 143.411 199.966 144.155 199.116C144.899 198.267 145.896 197.842 147.144 197.842C147.812 197.842 148.386 197.985 148.866 198.272C149.353 198.548 149.769 198.984 150.114 199.582V198.123H153.006ZM162.155 202.57C162.155 201.873 161.977 201.328 161.619 200.936C161.238 200.537 160.734 200.338 160.107 200.338C159.475 200.338 158.977 200.537 158.613 200.936C158.25 201.334 158.068 201.879 158.068 202.57C158.068 203.268 158.25 203.815 158.613 204.214C158.971 204.606 159.469 204.803 160.107 204.803C160.74 204.803 161.244 204.606 161.619 204.214C161.977 203.821 162.155 203.273 162.155 202.57ZM164.933 193.377V207H162.05V205.559C161.651 206.162 161.2 206.607 160.696 206.895C160.228 207.193 159.677 207.343 159.044 207.343C157.802 207.343 156.809 206.909 156.064 206.042C155.326 205.175 154.957 204.018 154.957 202.57C154.957 201.164 155.329 200.019 156.073 199.134C156.812 198.272 157.767 197.842 158.938 197.842C159.688 197.842 160.298 197.979 160.767 198.255C161.218 198.507 161.64 198.955 162.032 199.6C162.009 199.441 161.985 199.201 161.962 198.879C161.938 198.527 161.927 198.24 161.927 198.018V193.377H164.933ZM179.681 202.57C179.681 201.873 179.502 201.328 179.145 200.936C178.764 200.537 178.26 200.338 177.633 200.338C177 200.338 176.502 200.537 176.139 200.936C175.775 201.334 175.594 201.879 175.594 202.57C175.594 203.268 175.775 203.815 176.139 204.214C176.496 204.606 176.994 204.803 177.633 204.803C178.266 204.803 178.77 204.606 179.145 204.214C179.502 203.821 179.681 203.273 179.681 202.57ZM182.458 193.377V207H179.575V205.559C179.177 206.162 178.726 206.607 178.222 206.895C177.753 207.193 177.202 207.343 176.569 207.343C175.327 207.343 174.334 206.909 173.59 206.042C172.852 205.175 172.482 204.018 172.482 202.57C172.482 201.164 172.854 200.019 173.599 199.134C174.337 198.272 175.292 197.842 176.464 197.842C177.214 197.842 177.823 197.979 178.292 198.255C178.743 198.507 179.165 198.955 179.558 199.6C179.534 199.441 179.511 199.201 179.487 198.879C179.464 198.527 179.452 198.24 179.452 198.018V193.377H182.458ZM190.896 201.419C190.843 200.927 190.652 200.525 190.324 200.215C189.996 199.904 189.595 199.749 189.12 199.749C188.622 199.749 188.218 199.887 187.907 200.162C187.585 200.473 187.383 200.892 187.301 201.419H190.896ZM193.98 203.186H187.23C187.248 203.877 187.421 204.404 187.749 204.768C188.089 205.143 188.581 205.33 189.226 205.33C189.694 205.33 190.096 205.239 190.43 205.058C190.77 204.864 191.016 204.601 191.168 204.267L193.523 205.216C193.248 205.89 192.75 206.411 192.029 206.78C191.314 207.155 190.438 207.343 189.401 207.343C187.854 207.343 186.612 206.909 185.675 206.042C184.743 205.198 184.277 204.07 184.277 202.658C184.277 201.281 184.743 200.13 185.675 199.204C186.606 198.296 187.79 197.842 189.226 197.842C190.69 197.842 191.848 198.302 192.697 199.222C193.131 199.696 193.453 200.25 193.664 200.883C193.875 201.51 193.98 202.228 193.98 203.036V203.186ZM201.926 207L201.908 200.338H200.581V198.123H201.908V195.478H205.011V198.123H206.32V200.338H205.011V207H201.926ZM216.894 198.123V202.658C216.894 203.672 216.817 204.41 216.665 204.873C216.501 205.354 216.226 205.787 215.839 206.174C215.47 206.561 214.983 206.854 214.38 207.053C213.806 207.246 213.114 207.343 212.306 207.343C211.503 207.343 210.82 207.246 210.258 207.053C209.678 206.865 209.18 206.572 208.764 206.174C208.383 205.811 208.113 205.383 207.955 204.891C207.797 204.434 207.718 203.689 207.718 202.658V198.123H210.706V202.86C210.706 203.604 210.832 204.138 211.084 204.46C211.312 204.8 211.708 204.97 212.271 204.97C212.827 204.97 213.226 204.806 213.466 204.478C213.712 204.149 213.835 203.61 213.835 202.86V198.123H216.894ZM224.786 207V193.377H227.862V198.158C227.862 198.387 227.851 198.683 227.827 199.046C227.81 199.362 227.786 199.603 227.757 199.767C228.149 199.104 228.612 198.618 229.146 198.308C229.685 197.997 230.32 197.842 231.053 197.842C231.633 197.842 232.148 197.93 232.6 198.105C233.045 198.305 233.405 198.574 233.681 198.914C233.933 199.254 234.1 199.614 234.182 199.995C234.281 200.481 234.331 201.123 234.331 201.92V207H231.193V202.245C231.193 201.524 231.079 201.009 230.851 200.698C230.622 200.376 230.25 200.215 229.734 200.215C229.09 200.215 228.615 200.455 228.311 200.936C228.012 201.416 227.862 202.195 227.862 203.273V207H224.786ZM242.848 202.588C242.848 201.926 242.681 201.404 242.347 201.023C242.001 200.643 241.55 200.452 240.993 200.452C240.419 200.452 239.968 200.643 239.64 201.023C239.306 201.393 239.139 201.914 239.139 202.588C239.139 203.244 239.3 203.76 239.622 204.135C239.974 204.521 240.431 204.715 240.993 204.715C241.556 204.715 242.013 204.521 242.364 204.135C242.687 203.748 242.848 203.232 242.848 202.588ZM245.959 202.588C245.959 203.238 245.833 203.845 245.581 204.407C245.317 205.005 244.957 205.521 244.5 205.954C243.984 206.435 243.451 206.783 242.9 207C242.326 207.229 241.69 207.343 240.993 207.343C240.29 207.343 239.654 207.229 239.086 207C238.506 206.771 237.97 206.426 237.478 205.963C236.991 205.494 236.64 204.976 236.423 204.407C236.171 203.862 236.045 203.256 236.045 202.588C236.045 201.938 236.171 201.325 236.423 200.751C236.657 200.171 237.012 199.655 237.486 199.204C237.949 198.759 238.482 198.416 239.086 198.176C239.66 197.953 240.296 197.842 240.993 197.842C241.685 197.842 242.32 197.953 242.9 198.176C243.504 198.416 244.037 198.759 244.5 199.204C244.986 199.644 245.347 200.159 245.581 200.751C245.833 201.325 245.959 201.938 245.959 202.588ZM254.528 202.535C254.528 201.85 254.35 201.311 253.992 200.918C253.605 200.531 253.096 200.338 252.463 200.338C251.83 200.338 251.32 200.531 250.934 200.918C250.559 201.311 250.371 201.85 250.371 202.535C250.371 203.227 250.559 203.76 250.934 204.135C251.314 204.533 251.824 204.732 252.463 204.732C253.09 204.732 253.594 204.533 253.975 204.135C254.344 203.766 254.528 203.232 254.528 202.535ZM257.279 198.123V206.982C257.279 208.324 256.872 209.314 256.058 209.953C255.665 210.27 255.149 210.51 254.511 210.674C253.872 210.838 253.122 210.92 252.261 210.92C250.86 210.92 249.773 210.662 249 210.146C248.227 209.625 247.813 208.901 247.761 207.976H251.004C251.062 208.257 251.218 208.471 251.47 208.617C251.728 208.775 252.07 208.854 252.498 208.854C253.166 208.854 253.632 208.693 253.896 208.371C254.147 208.049 254.273 207.363 254.273 206.314V205.506C253.939 206.068 253.521 206.481 253.017 206.745C252.495 207.021 251.889 207.158 251.197 207.158C250.025 207.158 249.085 206.733 248.376 205.884C248.03 205.468 247.767 204.979 247.585 204.416C247.403 203.848 247.312 203.209 247.312 202.5C247.312 201.082 247.685 199.948 248.429 199.099C248.798 198.677 249.231 198.363 249.729 198.158C250.233 197.947 250.796 197.842 251.417 197.842C252.079 197.842 252.653 197.979 253.14 198.255C253.62 198.513 254.036 198.943 254.388 199.547V198.123H257.279ZM266.411 202.553C266.411 201.85 266.227 201.305 265.857 200.918C265.482 200.508 264.979 200.303 264.346 200.303C263.713 200.303 263.215 200.502 262.852 200.9C262.477 201.311 262.289 201.861 262.289 202.553C262.289 203.25 262.477 203.798 262.852 204.196C263.209 204.589 263.707 204.785 264.346 204.785C264.979 204.785 265.479 204.589 265.849 204.196C266.224 203.804 266.411 203.256 266.411 202.553ZM269.162 198.123V207H266.288V205.559C265.872 206.174 265.406 206.625 264.891 206.912C264.381 207.199 263.783 207.343 263.098 207.343C261.908 207.343 260.962 206.909 260.259 206.042C259.913 205.614 259.649 205.11 259.468 204.53C259.286 203.95 259.195 203.297 259.195 202.57C259.195 201.117 259.567 199.966 260.312 199.116C261.056 198.267 262.052 197.842 263.3 197.842C263.968 197.842 264.542 197.985 265.022 198.272C265.509 198.548 265.925 198.984 266.271 199.582V198.123H269.162ZM271.544 207V198.123H274.497V200.215C274.808 199.447 275.221 198.876 275.736 198.501C276.27 198.12 276.911 197.93 277.661 197.93C277.831 197.93 277.957 197.936 278.039 197.947C278.104 197.953 278.162 197.959 278.215 197.965C278.268 197.965 278.335 197.971 278.417 197.982L278.118 200.83C277.901 200.76 277.714 200.71 277.556 200.681C277.321 200.657 277.148 200.646 277.037 200.646C276.275 200.646 275.687 200.88 275.271 201.349C274.86 201.812 274.655 202.471 274.655 203.326V207H271.544Z" fill="white"/>
</svg>
