<svg width="550" height="246" viewBox="0 0 550 246" fill="none" xmlns="http://www.w3.org/2000/svg">
<path d="M26.744 183H14.686C10.2678 183 6.68604 179.418 6.68604 175V14" stroke="white" stroke-width="1.5"/>
<path d="M12.622 7.0784C12.622 10.6144 9.92461 13.4068 6.68598 13.4068C3.44736 13.4068 0.75 10.6144 0.75 7.0784C0.75 3.54244 3.44736 0.75 6.68598 0.75C9.92461 0.75 12.622 3.54244 12.622 7.0784Z" stroke="white" stroke-width="1.5"/>
<rect x="25" y="161" width="281" height="85" rx="16" fill="#002A61"/>
<path d="M45.8848 195.133H49.4004V203.482C49.4004 204.42 49.3389 205.117 49.2158 205.574C49.1162 206.031 48.9258 206.462 48.6445 206.866C48.2637 207.376 47.8242 207.742 47.3262 207.965C46.8164 208.217 46.2305 208.343 45.5684 208.343C44.7715 208.343 44.0508 208.17 43.4062 207.824C42.7969 207.496 42.2549 206.983 41.7803 206.286L43.9248 204.344C43.9775 204.742 44.0977 205.038 44.2852 205.231C44.4961 205.431 44.7422 205.53 45.0234 205.53C45.3691 205.53 45.6035 205.346 45.7266 204.977C45.832 204.602 45.8848 203.679 45.8848 202.208V195.133ZM60.8877 199.123V203.658C60.8877 204.672 60.8115 205.41 60.6592 205.873C60.4951 206.354 60.2197 206.787 59.833 207.174C59.4639 207.561 58.9775 207.854 58.374 208.053C57.7998 208.246 57.1084 208.343 56.2998 208.343C55.4971 208.343 54.8145 208.246 54.252 208.053C53.6719 207.865 53.1738 207.572 52.7578 207.174C52.377 206.811 52.1074 206.383 51.9492 205.891C51.791 205.434 51.7119 204.689 51.7119 203.658V199.123H54.7002V203.86C54.7002 204.604 54.8262 205.138 55.0781 205.46C55.3066 205.8 55.7021 205.97 56.2646 205.97C56.8213 205.97 57.2197 205.806 57.46 205.478C57.7061 205.149 57.8291 204.61 57.8291 203.86V199.123H60.8877ZM63.1377 208V199.123H66.0029V200.925C66.4072 200.222 66.8877 199.694 67.4443 199.343C67.9834 199.009 68.6367 198.842 69.4043 198.842C69.9844 198.842 70.5 198.93 70.9512 199.105C71.3965 199.305 71.7568 199.574 72.0322 199.914C72.2842 200.254 72.4512 200.614 72.5332 200.995C72.6328 201.481 72.6826 202.123 72.6826 202.92V208H69.5449V203.245C69.5449 202.524 69.4307 202.009 69.2021 201.698C68.9736 201.376 68.6016 201.215 68.0859 201.215C67.4414 201.215 66.9668 201.455 66.6621 201.936C66.3633 202.416 66.2139 203.195 66.2139 204.273V208H63.1377ZM75.3984 208L75.3809 201.338H74.0537V199.123H75.3809V196.478H78.4834V199.123H79.793V201.338H78.4834V208H75.3984ZM87.5625 203.588C87.5625 202.926 87.3955 202.404 87.0615 202.023C86.7158 201.643 86.2646 201.452 85.708 201.452C85.1338 201.452 84.6826 201.643 84.3545 202.023C84.0205 202.393 83.8535 202.914 83.8535 203.588C83.8535 204.244 84.0146 204.76 84.3369 205.135C84.6885 205.521 85.1455 205.715 85.708 205.715C86.2705 205.715 86.7275 205.521 87.0791 205.135C87.4014 204.748 87.5625 204.232 87.5625 203.588ZM90.6738 203.588C90.6738 204.238 90.5479 204.845 90.2959 205.407C90.0322 206.005 89.6719 206.521 89.2148 206.954C88.6992 207.435 88.166 207.783 87.6152 208C87.041 208.229 86.4053 208.343 85.708 208.343C85.0049 208.343 84.3691 208.229 83.8008 208C83.2207 207.771 82.6846 207.426 82.1924 206.963C81.7061 206.494 81.3545 205.976 81.1377 205.407C80.8857 204.862 80.7598 204.256 80.7598 203.588C80.7598 202.938 80.8857 202.325 81.1377 201.751C81.3721 201.171 81.7266 200.655 82.2012 200.204C82.6641 199.759 83.1973 199.416 83.8008 199.176C84.375 198.953 85.0107 198.842 85.708 198.842C86.3994 198.842 87.0352 198.953 87.6152 199.176C88.2188 199.416 88.752 199.759 89.2148 200.204C89.7012 200.644 90.0615 201.159 90.2959 201.751C90.5479 202.325 90.6738 202.938 90.6738 203.588ZM91.6494 207.262L92.2998 204.871C92.7568 205.275 93.2607 205.58 93.8115 205.785C94.3564 206.002 94.9072 206.11 95.4639 206.11C95.8623 206.11 96.1611 206.043 96.3604 205.908C96.5654 205.785 96.668 205.606 96.668 205.372C96.668 204.979 96.2549 204.687 95.4287 204.493C95.1416 204.429 94.9248 204.373 94.7783 204.326C93.8232 204.045 93.1465 203.702 92.748 203.298C92.3145 202.882 92.0977 202.343 92.0977 201.681C92.0977 200.825 92.4229 200.137 93.0732 199.615C93.7002 199.1 94.5762 198.842 95.7012 198.842C96.2461 198.842 96.8262 198.906 97.4414 199.035C97.957 199.141 98.5576 199.346 99.2432 199.65L98.5928 201.804C98.1709 201.517 97.7461 201.303 97.3184 201.162C96.9141 201.016 96.4893 200.942 96.0439 200.942C95.6807 200.942 95.4082 200.998 95.2266 201.109C95.0508 201.215 94.9629 201.376 94.9629 201.593C94.9629 201.897 95.376 202.161 96.2021 202.384C96.4717 202.466 96.6094 202.507 96.6152 202.507C97.6934 202.812 98.4492 203.172 98.8828 203.588C99.3047 204.027 99.5156 204.599 99.5156 205.302C99.5156 206.21 99.167 206.942 98.4697 207.499C97.7549 208.062 96.832 208.343 95.7012 208.343C94.916 208.343 94.1924 208.252 93.5303 208.07C92.874 207.895 92.2471 207.625 91.6494 207.262ZM113.209 202.041C112.904 201.771 112.611 201.575 112.33 201.452C112.078 201.329 111.782 201.268 111.442 201.268C110.815 201.268 110.323 201.473 109.966 201.883C109.597 202.287 109.412 202.844 109.412 203.553C109.412 204.232 109.603 204.771 109.983 205.17C110.353 205.58 110.865 205.785 111.521 205.785C111.832 205.785 112.131 205.721 112.418 205.592C112.723 205.445 112.986 205.252 113.209 205.012V207.728C112.834 207.927 112.456 208.085 112.075 208.202C111.671 208.296 111.287 208.343 110.924 208.343C109.553 208.343 108.448 207.903 107.61 207.024C107.323 206.731 107.086 206.409 106.898 206.058C106.717 205.706 106.576 205.325 106.477 204.915C106.383 204.505 106.336 204.057 106.336 203.57C106.336 202.17 106.764 201.033 107.619 200.16C108.48 199.281 109.594 198.842 110.959 198.842C111.387 198.842 111.794 198.889 112.181 198.982C112.556 199.076 112.898 199.214 113.209 199.396V202.041ZM121.436 203.588C121.436 202.926 121.269 202.404 120.935 202.023C120.589 201.643 120.138 201.452 119.581 201.452C119.007 201.452 118.556 201.643 118.228 202.023C117.894 202.393 117.727 202.914 117.727 203.588C117.727 204.244 117.888 204.76 118.21 205.135C118.562 205.521 119.019 205.715 119.581 205.715C120.144 205.715 120.601 205.521 120.952 205.135C121.274 204.748 121.436 204.232 121.436 203.588ZM124.547 203.588C124.547 204.238 124.421 204.845 124.169 205.407C123.905 206.005 123.545 206.521 123.088 206.954C122.572 207.435 122.039 207.783 121.488 208C120.914 208.229 120.278 208.343 119.581 208.343C118.878 208.343 118.242 208.229 117.674 208C117.094 207.771 116.558 207.426 116.065 206.963C115.579 206.494 115.228 205.976 115.011 205.407C114.759 204.862 114.633 204.256 114.633 203.588C114.633 202.938 114.759 202.325 115.011 201.751C115.245 201.171 115.6 200.655 116.074 200.204C116.537 199.759 117.07 199.416 117.674 199.176C118.248 198.953 118.884 198.842 119.581 198.842C120.272 198.842 120.908 198.953 121.488 199.176C122.092 199.416 122.625 199.759 123.088 200.204C123.574 200.644 123.935 201.159 124.169 201.751C124.421 202.325 124.547 202.938 124.547 203.588ZM126.349 208V199.123H129.214V200.925C129.618 200.222 130.099 199.694 130.655 199.343C131.194 199.009 131.848 198.842 132.615 198.842C133.195 198.842 133.711 198.93 134.162 199.105C134.607 199.305 134.968 199.574 135.243 199.914C135.495 200.254 135.662 200.614 135.744 200.995C135.844 201.481 135.894 202.123 135.894 202.92V208H132.756V203.245C132.756 202.524 132.642 202.009 132.413 201.698C132.185 201.376 131.812 201.215 131.297 201.215C130.652 201.215 130.178 201.455 129.873 201.936C129.574 202.416 129.425 203.195 129.425 204.273V208H126.349ZM137.282 207.262L137.933 204.871C138.39 205.275 138.894 205.58 139.444 205.785C139.989 206.002 140.54 206.11 141.097 206.11C141.495 206.11 141.794 206.043 141.993 205.908C142.198 205.785 142.301 205.606 142.301 205.372C142.301 204.979 141.888 204.687 141.062 204.493C140.774 204.429 140.558 204.373 140.411 204.326C139.456 204.045 138.779 203.702 138.381 203.298C137.947 202.882 137.73 202.343 137.73 201.681C137.73 200.825 138.056 200.137 138.706 199.615C139.333 199.1 140.209 198.842 141.334 198.842C141.879 198.842 142.459 198.906 143.074 199.035C143.59 199.141 144.19 199.346 144.876 199.65L144.226 201.804C143.804 201.517 143.379 201.303 142.951 201.162C142.547 201.016 142.122 200.942 141.677 200.942C141.313 200.942 141.041 200.998 140.859 201.109C140.684 201.215 140.596 201.376 140.596 201.593C140.596 201.897 141.009 202.161 141.835 202.384C142.104 202.466 142.242 202.507 142.248 202.507C143.326 202.812 144.082 203.172 144.516 203.588C144.938 204.027 145.148 204.599 145.148 205.302C145.148 206.21 144.8 206.942 144.103 207.499C143.388 208.062 142.465 208.343 141.334 208.343C140.549 208.343 139.825 208.252 139.163 208.07C138.507 207.895 137.88 207.625 137.282 207.262ZM147.328 208L147.311 201.338H145.983V199.123H147.311V196.478H150.413V199.123H151.723V201.338H150.413V208H147.328ZM153.208 208V199.123H156.161V201.215C156.472 200.447 156.885 199.876 157.4 199.501C157.934 199.12 158.575 198.93 159.325 198.93C159.495 198.93 159.621 198.936 159.703 198.947C159.768 198.953 159.826 198.959 159.879 198.965C159.932 198.965 159.999 198.971 160.081 198.982L159.782 201.83C159.565 201.76 159.378 201.71 159.22 201.681C158.985 201.657 158.812 201.646 158.701 201.646C157.939 201.646 157.351 201.88 156.935 202.349C156.524 202.812 156.319 203.471 156.319 204.326V208H153.208ZM170.347 199.123V203.658C170.347 204.672 170.271 205.41 170.118 205.873C169.954 206.354 169.679 206.787 169.292 207.174C168.923 207.561 168.437 207.854 167.833 208.053C167.259 208.246 166.567 208.343 165.759 208.343C164.956 208.343 164.273 208.246 163.711 208.053C163.131 207.865 162.633 207.572 162.217 207.174C161.836 206.811 161.566 206.383 161.408 205.891C161.25 205.434 161.171 204.689 161.171 203.658V199.123H164.159V203.86C164.159 204.604 164.285 205.138 164.537 205.46C164.766 205.8 165.161 205.97 165.724 205.97C166.28 205.97 166.679 205.806 166.919 205.478C167.165 205.149 167.288 204.61 167.288 203.86V199.123H170.347ZM172.526 208V199.123H175.655V208H172.526ZM172.922 196.838H172.939C172.939 196.51 173.054 196.24 173.282 196.029C173.511 195.801 173.786 195.687 174.108 195.687C174.448 195.687 174.727 195.795 174.943 196.012C175.166 196.229 175.277 196.504 175.277 196.838C175.277 197.178 175.163 197.459 174.935 197.682C174.712 197.91 174.437 198.024 174.108 198.024C173.774 198.024 173.493 197.904 173.265 197.664C173.036 197.441 172.922 197.166 172.922 196.838ZM189.955 208V203.157C189.955 202.396 189.867 201.868 189.691 201.575C189.492 201.276 189.161 201.127 188.698 201.127C188.106 201.127 187.699 201.329 187.477 201.733C187.248 202.132 187.134 202.967 187.134 204.238V208H184.11V203.157C184.11 202.366 184.014 201.833 183.82 201.558C183.645 201.271 183.319 201.127 182.845 201.127C182.253 201.127 181.84 201.323 181.605 201.716C181.377 202.114 181.263 202.955 181.263 204.238V208H178.222V199.123H181.298V200.67C181.673 200.049 182.101 199.589 182.581 199.29C183.05 198.991 183.618 198.842 184.286 198.842C185.007 198.842 185.602 198.979 186.07 199.255C186.516 199.536 186.841 199.955 187.046 200.512C187.403 199.932 187.828 199.513 188.32 199.255C188.807 198.979 189.39 198.842 190.069 198.842C190.603 198.842 191.068 198.93 191.467 199.105C191.877 199.299 192.214 199.568 192.478 199.914C192.7 200.189 192.855 200.515 192.943 200.89C193.031 201.235 193.075 201.848 193.075 202.727V202.92V208H189.955ZM201.592 203.588C201.592 202.926 201.425 202.404 201.091 202.023C200.745 201.643 200.294 201.452 199.737 201.452C199.163 201.452 198.712 201.643 198.384 202.023C198.05 202.393 197.883 202.914 197.883 203.588C197.883 204.244 198.044 204.76 198.366 205.135C198.718 205.521 199.175 205.715 199.737 205.715C200.3 205.715 200.757 205.521 201.108 205.135C201.431 204.748 201.592 204.232 201.592 203.588ZM204.703 203.588C204.703 204.238 204.577 204.845 204.325 205.407C204.062 206.005 203.701 206.521 203.244 206.954C202.729 207.435 202.195 207.783 201.645 208C201.07 208.229 200.435 208.343 199.737 208.343C199.034 208.343 198.398 208.229 197.83 208C197.25 207.771 196.714 207.426 196.222 206.963C195.735 206.494 195.384 205.976 195.167 205.407C194.915 204.862 194.789 204.256 194.789 203.588C194.789 202.938 194.915 202.325 195.167 201.751C195.401 201.171 195.756 200.655 196.23 200.204C196.693 199.759 197.227 199.416 197.83 199.176C198.404 198.953 199.04 198.842 199.737 198.842C200.429 198.842 201.064 198.953 201.645 199.176C202.248 199.416 202.781 199.759 203.244 200.204C203.73 200.644 204.091 201.159 204.325 201.751C204.577 202.325 204.703 202.938 204.703 203.588ZM205.679 207.262L206.329 204.871C206.786 205.275 207.29 205.58 207.841 205.785C208.386 206.002 208.937 206.11 209.493 206.11C209.892 206.11 210.19 206.043 210.39 205.908C210.595 205.785 210.697 205.606 210.697 205.372C210.697 204.979 210.284 204.687 209.458 204.493C209.171 204.429 208.954 204.373 208.808 204.326C207.853 204.045 207.176 203.702 206.777 203.298C206.344 202.882 206.127 202.343 206.127 201.681C206.127 200.825 206.452 200.137 207.103 199.615C207.729 199.1 208.605 198.842 209.73 198.842C210.275 198.842 210.855 198.906 211.471 199.035C211.986 199.141 212.587 199.346 213.272 199.65L212.622 201.804C212.2 201.517 211.775 201.303 211.348 201.162C210.943 201.016 210.519 200.942 210.073 200.942C209.71 200.942 209.438 200.998 209.256 201.109C209.08 201.215 208.992 201.376 208.992 201.593C208.992 201.897 209.405 202.161 210.231 202.384C210.501 202.466 210.639 202.507 210.645 202.507C211.723 202.812 212.479 203.172 212.912 203.588C213.334 204.027 213.545 204.599 213.545 205.302C213.545 206.21 213.196 206.942 212.499 207.499C211.784 208.062 210.861 208.343 209.73 208.343C208.945 208.343 208.222 208.252 207.56 208.07C206.903 207.895 206.276 207.625 205.679 207.262ZM235.843 208H232.564L231.809 202.437C231.744 201.938 231.697 201.502 231.668 201.127C231.627 200.758 231.586 200.233 231.545 199.554C231.439 200.163 231.275 200.843 231.053 201.593C231.006 201.739 230.971 201.865 230.947 201.971L229.198 208H226.86L225.111 201.971C225.094 201.871 225.059 201.745 225.006 201.593C224.76 200.802 224.599 200.122 224.522 199.554C224.476 200.198 224.432 200.679 224.391 200.995C224.373 201.159 224.347 201.399 224.312 201.716C224.276 202.032 224.25 202.272 224.232 202.437L223.477 208H220.216L222.202 195.133H225.674L227.616 201.769C227.651 201.892 227.675 201.971 227.687 202.006C227.856 202.557 227.971 203.061 228.029 203.518C228.041 203.359 228.085 203.102 228.161 202.744C228.185 202.656 228.272 202.325 228.425 201.751L230.385 195.133H233.865L235.843 208ZM243.63 202.419C243.577 201.927 243.387 201.525 243.059 201.215C242.73 200.904 242.329 200.749 241.854 200.749C241.356 200.749 240.952 200.887 240.642 201.162C240.319 201.473 240.117 201.892 240.035 202.419H243.63ZM246.715 204.186H239.965C239.982 204.877 240.155 205.404 240.483 205.768C240.823 206.143 241.315 206.33 241.96 206.33C242.429 206.33 242.83 206.239 243.164 206.058C243.504 205.864 243.75 205.601 243.902 205.267L246.258 206.216C245.982 206.89 245.484 207.411 244.764 207.78C244.049 208.155 243.173 208.343 242.136 208.343C240.589 208.343 239.347 207.909 238.409 207.042C237.478 206.198 237.012 205.07 237.012 203.658C237.012 202.281 237.478 201.13 238.409 200.204C239.341 199.296 240.524 198.842 241.96 198.842C243.425 198.842 244.582 199.302 245.432 200.222C245.865 200.696 246.188 201.25 246.398 201.883C246.609 202.51 246.715 203.228 246.715 204.036V204.186ZM244.553 195.493L242.391 197.937H241.31L242.593 195.493H244.553ZM251.628 200.635C251.786 200.945 251.883 201.153 251.918 201.259C251.953 201.358 251.985 201.452 252.015 201.54C252.044 201.622 252.062 201.675 252.067 201.698C252.085 201.628 252.132 201.479 252.208 201.25C252.278 201.068 252.375 200.863 252.498 200.635L253.342 199.123H256.884L253.843 203.245L257.394 208H253.86L252.533 205.768C252.445 205.633 252.354 205.46 252.261 205.249C252.243 205.185 252.22 205.1 252.19 204.994C252.161 204.889 252.132 204.792 252.103 204.704C252.026 204.962 251.965 205.144 251.918 205.249C251.859 205.425 251.774 205.598 251.663 205.768L250.354 208H246.882L250.371 203.245L247.383 199.123H250.802L251.628 200.635ZM257.991 208V199.123H261.12V208H257.991ZM258.387 196.838H258.404C258.404 196.51 258.519 196.24 258.747 196.029C258.976 195.801 259.251 195.687 259.573 195.687C259.913 195.687 260.191 195.795 260.408 196.012C260.631 196.229 260.742 196.504 260.742 196.838C260.742 197.178 260.628 197.459 260.399 197.682C260.177 197.91 259.901 198.024 259.573 198.024C259.239 198.024 258.958 197.904 258.729 197.664C258.501 197.441 258.387 197.166 258.387 196.838ZM270.059 202.041C269.754 201.771 269.461 201.575 269.18 201.452C268.928 201.329 268.632 201.268 268.292 201.268C267.665 201.268 267.173 201.473 266.815 201.883C266.446 202.287 266.262 202.844 266.262 203.553C266.262 204.232 266.452 204.771 266.833 205.17C267.202 205.58 267.715 205.785 268.371 205.785C268.682 205.785 268.98 205.721 269.268 205.592C269.572 205.445 269.836 205.252 270.059 205.012V207.728C269.684 207.927 269.306 208.085 268.925 208.202C268.521 208.296 268.137 208.343 267.773 208.343C266.402 208.343 265.298 207.903 264.46 207.024C264.173 206.731 263.936 206.409 263.748 206.058C263.566 205.706 263.426 205.325 263.326 204.915C263.232 204.505 263.186 204.057 263.186 203.57C263.186 202.17 263.613 201.033 264.469 200.16C265.33 199.281 266.443 198.842 267.809 198.842C268.236 198.842 268.644 198.889 269.03 198.982C269.405 199.076 269.748 199.214 270.059 199.396V202.041ZM278.285 203.588C278.285 202.926 278.118 202.404 277.784 202.023C277.438 201.643 276.987 201.452 276.431 201.452C275.856 201.452 275.405 201.643 275.077 202.023C274.743 202.393 274.576 202.914 274.576 203.588C274.576 204.244 274.737 204.76 275.06 205.135C275.411 205.521 275.868 205.715 276.431 205.715C276.993 205.715 277.45 205.521 277.802 205.135C278.124 204.748 278.285 204.232 278.285 203.588ZM281.396 203.588C281.396 204.238 281.271 204.845 281.019 205.407C280.755 206.005 280.395 206.521 279.938 206.954C279.422 207.435 278.889 207.783 278.338 208C277.764 208.229 277.128 208.343 276.431 208.343C275.728 208.343 275.092 208.229 274.523 208C273.943 207.771 273.407 207.426 272.915 206.963C272.429 206.494 272.077 205.976 271.86 205.407C271.608 204.862 271.482 204.256 271.482 203.588C271.482 202.938 271.608 202.325 271.86 201.751C272.095 201.171 272.449 200.655 272.924 200.204C273.387 199.759 273.92 199.416 274.523 199.176C275.098 198.953 275.733 198.842 276.431 198.842C277.122 198.842 277.758 198.953 278.338 199.176C278.941 199.416 279.475 199.759 279.938 200.204C280.424 200.644 280.784 201.159 281.019 201.751C281.271 202.325 281.396 202.938 281.396 203.588ZM283.093 206.559C283.093 206.055 283.26 205.636 283.594 205.302C283.934 204.962 284.353 204.792 284.851 204.792C285.366 204.792 285.794 204.962 286.134 205.302C286.468 205.636 286.635 206.055 286.635 206.559C286.635 207.068 286.468 207.49 286.134 207.824C285.776 208.17 285.349 208.343 284.851 208.343C284.37 208.343 283.951 208.17 283.594 207.824C283.26 207.49 283.093 207.068 283.093 206.559Z" fill="white"/>
<path d="M40.4219 37H31.6562V2.6875H41.4297C45.2266 2.6875 47.9219 2.875 49.5156 3.25C51.0781 3.65625 52.3828 4.29688 53.4297 5.17188C54.6797 6.21875 55.6406 7.51562 56.3125 9.0625C56.9844 10.6406 57.3203 12.3984 57.3203 14.3359C57.3203 16.3984 56.9844 18.1953 56.3125 19.7266C55.7188 21.2734 54.7578 22.5547 53.4297 23.5703C52.4766 24.3203 51.3281 24.8594 49.9844 25.1875C48.7812 25.5156 46.6875 25.6797 43.7031 25.6797H42.1094H40.4219V37ZM40.4219 18.1328H42.2031C44.4219 18.1328 45.9922 17.8125 46.9141 17.1719C47.8047 16.5781 48.25 15.5391 48.25 14.0547C48.25 12.6328 47.8125 11.6172 46.9375 11.0078C46.0781 10.3828 44.5312 10.0703 42.2969 10.0703H40.4219V18.1328ZM62.0781 37V2.6875H83.1016V10.2109H71.1953V16.1641H82.4219V23.5234H71.1953V29.3125H83.1016V37H62.0781ZM89.3125 37V2.6875H98.3359L111.297 20.3359C111.625 20.8203 112.039 21.5469 112.539 22.5156C113.18 23.7656 113.805 25.0547 114.414 26.3828C114.18 24.5859 114.047 23.3281 114.016 22.6094C113.922 21.4844 113.875 20.4922 113.875 19.6328V2.6875H122.852V37H113.875L100.914 19.2812C100.727 19.0312 100.312 18.2969 99.6719 17.0781C99.1094 16.0781 98.4844 14.8125 97.7969 13.2812C97.9531 14.5 98.1016 15.7656 98.2422 17.0781C98.3047 18.5469 98.3359 19.5391 98.3359 20.0547V37H89.3125ZM131.758 25.9141C133.195 27.5078 134.57 28.6875 135.883 29.4531C137.258 30.2344 138.602 30.625 139.914 30.625C141.148 30.625 142.172 30.2891 142.984 29.6172C143.797 28.9453 144.203 28.0938 144.203 27.0625C144.203 25.9375 143.867 25.0547 143.195 24.4141C142.477 23.8047 140.891 23.1719 138.438 22.5156C135.094 21.6094 132.727 20.4375 131.336 19C129.93 17.5312 129.227 15.5312 129.227 13C129.227 9.71875 130.328 7.04688 132.531 4.98438C134.703 2.90625 137.547 1.86719 141.062 1.86719C143.047 1.86719 144.844 2.125 146.453 2.64062C148.141 3.15625 149.742 3.92188 151.258 4.9375L148.328 11.6641C147.297 10.7734 146.203 10.0859 145.047 9.60156C143.922 9.14844 142.82 8.92188 141.742 8.92188C140.648 8.92188 139.734 9.19531 139 9.74219C138.297 10.2578 137.945 10.9453 137.945 11.8047C137.945 12.6328 138.25 13.3203 138.859 13.8672C139.5 14.3828 140.703 14.875 142.469 15.3438C142.531 15.3594 142.586 15.375 142.633 15.3906C142.68 15.3906 142.75 15.4062 142.844 15.4375C146.656 16.4531 149.172 17.5938 150.391 18.8594C151.188 19.6562 151.812 20.6641 152.266 21.8828C152.672 23.0391 152.875 24.3516 152.875 25.8203C152.875 29.4453 151.68 32.375 149.289 34.6094C146.883 36.8125 143.695 37.9141 139.727 37.9141C137.289 37.9141 135.109 37.5156 133.188 36.7188C131.281 35.9219 129.398 34.6406 127.539 32.875L131.758 25.9141ZM167.195 24.1797H176.5L173.008 12.8594C172.93 12.6562 172.781 12.0937 172.562 11.1719C172.297 10.0938 172.055 9.11719 171.836 8.24219C171.617 9.03906 171.43 9.84375 171.273 10.6562C171.023 11.4375 170.812 12.1719 170.641 12.8594L167.195 24.1797ZM154.094 37L165.93 2.6875H177.648L189.508 37H180.203L178.469 30.8594H165.18L163.398 37H154.094ZM192.812 37V2.6875H199.961C205.367 2.6875 209.141 2.9375 211.281 3.4375C213.5 3.9375 215.438 4.77344 217.094 5.94531C219.281 7.44531 220.93 9.38281 222.039 11.7578C223.164 14.1484 223.727 16.8516 223.727 19.8672C223.727 22.8828 223.164 25.5859 222.039 27.9766C220.93 30.3203 219.281 32.2578 217.094 33.7891C215.375 34.9609 213.484 35.7734 211.422 36.2266C209.359 36.7422 206.062 37 201.531 37H199.961H192.812ZM202.07 29.3125H203.641C207.328 29.3125 210.008 28.5469 211.68 27.0156C213.367 25.5156 214.211 23.1328 214.211 19.8672C214.211 16.6172 213.367 14.2188 211.68 12.6719C209.992 11.125 207.312 10.3516 203.641 10.3516H202.07V29.3125ZM264.836 19.9141C264.836 22.3984 264.391 24.7188 263.5 26.875C262.609 28.9844 261.281 30.9062 259.516 32.6406C257.766 34.3281 255.766 35.625 253.516 36.5312C251.156 37.4531 248.82 37.9141 246.508 37.9141C244.164 37.9141 241.828 37.4531 239.5 36.5312C237.203 35.6094 235.219 34.3125 233.547 32.6406C231.859 31.0312 230.531 29.0938 229.562 26.8281C228.625 24.6094 228.156 22.3047 228.156 19.9141C228.156 17.5234 228.625 15.2188 229.562 13C230.531 10.7344 231.859 8.79688 233.547 7.1875C235.266 5.46875 237.25 4.15625 239.5 3.25C241.688 2.35938 244.023 1.91406 246.508 1.91406C248.992 1.91406 251.344 2.36719 253.562 3.27344C255.781 4.16406 257.758 5.46875 259.492 7.1875C261.242 8.90625 262.578 10.8438 263.5 13C264.391 15.1562 264.836 17.4609 264.836 19.9141ZM246.508 29.9922C249.086 29.9922 251.242 29.0312 252.977 27.1094C253.836 26.1562 254.469 25.0859 254.875 23.8984C255.281 22.7109 255.484 21.3828 255.484 19.9141C255.484 17.0547 254.633 14.6562 252.93 12.7188C251.195 10.7969 249.055 9.83594 246.508 9.83594C243.898 9.83594 241.75 10.7969 240.062 12.7188C238.375 14.6406 237.531 17.0391 237.531 19.9141C237.531 22.8984 238.359 25.3125 240.016 27.1562C241.719 29.0469 243.883 29.9922 246.508 29.9922ZM294.531 37H285.766V2.6875H295.539C299.336 2.6875 302.031 2.875 303.625 3.25C305.188 3.65625 306.492 4.29688 307.539 5.17188C308.789 6.21875 309.75 7.51562 310.422 9.0625C311.094 10.6406 311.43 12.3984 311.43 14.3359C311.43 16.3984 311.094 18.1953 310.422 19.7266C309.828 21.2734 308.867 22.5547 307.539 23.5703C306.586 24.3203 305.438 24.8594 304.094 25.1875C302.891 25.5156 300.797 25.6797 297.812 25.6797H296.219H294.531V37ZM294.531 18.1328H296.312C298.531 18.1328 300.102 17.8125 301.023 17.1719C301.914 16.5781 302.359 15.5391 302.359 14.0547C302.359 12.6328 301.922 11.6172 301.047 11.0078C300.188 10.3828 298.641 10.0703 296.406 10.0703H294.531V18.1328ZM325.258 24.1797H334.562L331.07 12.8594C330.992 12.6562 330.844 12.0937 330.625 11.1719C330.359 10.0938 330.117 9.11719 329.898 8.24219C329.68 9.03906 329.492 9.84375 329.336 10.6562C329.086 11.4375 328.875 12.1719 328.703 12.8594L325.258 24.1797ZM312.156 37L323.992 2.6875H335.711L347.57 37H338.266L336.531 30.8594H323.242L321.461 37H312.156ZM350.875 37V2.6875H360.648C362.539 2.6875 364.133 2.72656 365.43 2.80469C366.742 2.88281 367.82 3.01562 368.664 3.20312C370.117 3.54688 371.414 4.14062 372.555 4.98438C373.805 5.92188 374.75 7.125 375.391 8.59375C376.062 10 376.398 11.5938 376.398 13.375C376.398 16.0156 375.742 18.1797 374.43 19.8672C373.148 21.5547 371.25 22.6562 368.734 23.1719L378.086 37H367.516L359.641 23.5703V37H350.875ZM359.641 18.9062H361.375C363.422 18.9062 364.898 18.5703 365.805 17.8984C366.727 17.1484 367.188 16.0625 367.188 14.6406C367.188 12.9219 366.758 11.7031 365.898 10.9844C365.023 10.25 363.562 9.88281 361.516 9.88281H359.641V18.9062ZM390.742 24.1797H400.047L396.555 12.8594C396.477 12.6562 396.328 12.0937 396.109 11.1719C395.844 10.0938 395.602 9.11719 395.383 8.24219C395.164 9.03906 394.977 9.84375 394.82 10.6562C394.57 11.4375 394.359 12.1719 394.188 12.8594L390.742 24.1797ZM377.641 37L389.477 2.6875H401.195L413.055 37H403.75L402.016 30.8594H388.727L386.945 37H377.641ZM56.5234 52.0234V62.2422C55.1797 60.7891 53.9141 59.7344 52.7266 59.0781C51.3984 58.4375 50.0234 58.1172 48.6016 58.1172C45.9297 58.1172 43.75 59.0312 42.0625 60.8594C41.4844 61.5156 41.0156 62.2031 40.6562 62.9219C40.2969 63.625 40.0234 64.4297 39.8359 65.3359C39.6641 66.2266 39.5781 67.1328 39.5781 68.0547C39.5781 70.8047 40.4219 73.0938 42.1094 74.9219C43.8125 76.7188 45.9766 77.6172 48.6016 77.6172C50.0078 77.6172 51.3828 77.2812 52.7266 76.6094C53.9141 76 55.1797 74.9531 56.5234 73.4688V83.7109C54.7891 84.5234 53.3125 85.0625 52.0938 85.3281C50.5781 85.6875 49.0938 85.8672 47.6406 85.8672C45.7969 85.8672 44.0625 85.6406 42.4375 85.1875C40.8125 84.75 39.3594 84.0781 38.0781 83.1719C35.5156 81.4219 33.5625 79.2656 32.2188 76.7031C30.875 74.0469 30.2031 71.1016 30.2031 67.8672C30.2031 65.2734 30.6406 62.8906 31.5156 60.7188C31.9062 59.6719 32.3984 58.6875 32.9922 57.7656C33.6016 56.8281 34.3828 55.8594 35.3359 54.8594C36.9766 53.1719 38.8203 51.9219 40.8672 51.1094C42.8984 50.2812 45.1562 49.8672 47.6406 49.8672C49.0625 49.8672 50.5469 50.0391 52.0938 50.3828C53.625 50.7891 55.1016 51.3359 56.5234 52.0234ZM61.7969 85V50.6875H71.5703C73.4609 50.6875 75.0547 50.7266 76.3516 50.8047C77.6641 50.8828 78.7422 51.0156 79.5859 51.2031C81.0391 51.5469 82.3359 52.1406 83.4766 52.9844C84.7266 53.9219 85.6719 55.125 86.3125 56.5938C86.9844 58 87.3203 59.5938 87.3203 61.375C87.3203 64.0156 86.6641 66.1797 85.3516 67.8672C84.0703 69.5547 82.1719 70.6562 79.6562 71.1719L89.0078 85H78.4375L70.5625 71.5703V85H61.7969ZM70.5625 66.9062H72.2969C74.3438 66.9062 75.8203 66.5703 76.7266 65.8984C77.6484 65.1484 78.1094 64.0625 78.1094 62.6406C78.1094 60.9219 77.6797 59.7031 76.8203 58.9844C75.9453 58.25 74.4844 57.8828 72.4375 57.8828H70.5625V66.9062ZM92.5938 85V50.6875H113.617V58.2109H101.711V64.1641H112.938V71.5234H101.711V77.3125H113.617V85H92.5938ZM128.898 72.1797H138.203L134.711 60.8594C134.633 60.6562 134.484 60.0938 134.266 59.1719C134 58.0938 133.758 57.1172 133.539 56.2422C133.32 57.0391 133.133 57.8438 132.977 58.6562C132.727 59.4375 132.516 60.1719 132.344 60.8594L128.898 72.1797ZM115.797 85L127.633 50.6875H139.352L151.211 85H141.906L140.172 78.8594H126.883L125.102 85H115.797ZM154.516 85V50.6875H164.289C166.18 50.6875 167.773 50.7266 169.07 50.8047C170.383 50.8828 171.461 51.0156 172.305 51.2031C173.758 51.5469 175.055 52.1406 176.195 52.9844C177.445 53.9219 178.391 55.125 179.031 56.5938C179.703 58 180.039 59.5938 180.039 61.375C180.039 64.0156 179.383 66.1797 178.07 67.8672C176.789 69.5547 174.891 70.6562 172.375 71.1719L181.727 85H171.156L163.281 71.5703V85H154.516ZM163.281 66.9062H165.016C167.062 66.9062 168.539 66.5703 169.445 65.8984C170.367 65.1484 170.828 64.0625 170.828 62.6406C170.828 60.9219 170.398 59.7031 169.539 58.9844C168.664 58.25 167.203 57.8828 165.156 57.8828H163.281V66.9062ZM209.125 85H200.359V50.6875H210.133C213.93 50.6875 216.625 50.875 218.219 51.25C219.781 51.6562 221.086 52.2969 222.133 53.1719C223.383 54.2188 224.344 55.5156 225.016 57.0625C225.688 58.6406 226.023 60.3984 226.023 62.3359C226.023 64.3984 225.688 66.1953 225.016 67.7266C224.422 69.2734 223.461 70.5547 222.133 71.5703C221.18 72.3203 220.031 72.8594 218.688 73.1875C217.484 73.5156 215.391 73.6797 212.406 73.6797H210.812H209.125V85ZM209.125 66.1328H210.906C213.125 66.1328 214.695 65.8125 215.617 65.1719C216.508 64.5781 216.953 63.5391 216.953 62.0547C216.953 60.6328 216.516 59.6172 215.641 59.0078C214.781 58.3828 213.234 58.0703 211 58.0703H209.125V66.1328ZM230.781 85V50.6875H240.555C242.445 50.6875 244.039 50.7266 245.336 50.8047C246.648 50.8828 247.727 51.0156 248.57 51.2031C250.023 51.5469 251.32 52.1406 252.461 52.9844C253.711 53.9219 254.656 55.125 255.297 56.5938C255.969 58 256.305 59.5938 256.305 61.375C256.305 64.0156 255.648 66.1797 254.336 67.8672C253.055 69.5547 251.156 70.6562 248.641 71.1719L257.992 85H247.422L239.547 71.5703V85H230.781ZM239.547 66.9062H241.281C243.328 66.9062 244.805 66.5703 245.711 65.8984C246.633 65.1484 247.094 64.0625 247.094 62.6406C247.094 60.9219 246.664 59.7031 245.805 58.9844C244.93 58.25 243.469 57.8828 241.422 57.8828H239.547V66.9062ZM296.805 67.9141C296.805 70.3984 296.359 72.7188 295.469 74.875C294.578 76.9844 293.25 78.9062 291.484 80.6406C289.734 82.3281 287.734 83.625 285.484 84.5312C283.125 85.4531 280.789 85.9141 278.477 85.9141C276.133 85.9141 273.797 85.4531 271.469 84.5312C269.172 83.6094 267.188 82.3125 265.516 80.6406C263.828 79.0312 262.5 77.0938 261.531 74.8281C260.594 72.6094 260.125 70.3047 260.125 67.9141C260.125 65.5234 260.594 63.2188 261.531 61C262.5 58.7344 263.828 56.7969 265.516 55.1875C267.234 53.4688 269.219 52.1562 271.469 51.25C273.656 50.3594 275.992 49.9141 278.477 49.9141C280.961 49.9141 283.312 50.3672 285.531 51.2734C287.75 52.1641 289.727 53.4688 291.461 55.1875C293.211 56.9062 294.547 58.8438 295.469 61C296.359 63.1562 296.805 65.4609 296.805 67.9141ZM278.477 77.9922C281.055 77.9922 283.211 77.0312 284.945 75.1094C285.805 74.1562 286.438 73.0859 286.844 71.8984C287.25 70.7109 287.453 69.3828 287.453 67.9141C287.453 65.0547 286.602 62.6562 284.898 60.7188C283.164 58.7969 281.023 57.8359 278.477 57.8359C275.867 57.8359 273.719 58.7969 272.031 60.7188C270.344 62.6406 269.5 65.0391 269.5 67.9141C269.5 70.8984 270.328 73.3125 271.984 75.1562C273.688 77.0469 275.852 77.9922 278.477 77.9922ZM308.781 85V69.3438L296.781 50.6875H307.516L312.133 59.5234C312.18 59.5703 312.227 59.6641 312.273 59.8047C312.758 60.6953 313.094 61.5703 313.281 62.4297C313.422 61.6797 313.758 60.8359 314.289 59.8984C314.414 59.6484 314.477 59.5234 314.477 59.5234L319.047 50.6875H329.805L317.805 69.3438V85H308.781ZM331.375 85V50.6875H352.398V58.2109H340.492V64.1641H351.719V71.5234H340.492V77.3125H352.398V85H331.375ZM383.477 52.0234V62.2422C382.133 60.7891 380.867 59.7344 379.68 59.0781C378.352 58.4375 376.977 58.1172 375.555 58.1172C372.883 58.1172 370.703 59.0312 369.016 60.8594C368.438 61.5156 367.969 62.2031 367.609 62.9219C367.25 63.625 366.977 64.4297 366.789 65.3359C366.617 66.2266 366.531 67.1328 366.531 68.0547C366.531 70.8047 367.375 73.0938 369.062 74.9219C370.766 76.7188 372.93 77.6172 375.555 77.6172C376.961 77.6172 378.336 77.2812 379.68 76.6094C380.867 76 382.133 74.9531 383.477 73.4688V83.7109C381.742 84.5234 380.266 85.0625 379.047 85.3281C377.531 85.6875 376.047 85.8672 374.594 85.8672C372.75 85.8672 371.016 85.6406 369.391 85.1875C367.766 84.75 366.312 84.0781 365.031 83.1719C362.469 81.4219 360.516 79.2656 359.172 76.7031C357.828 74.0469 357.156 71.1016 357.156 67.8672C357.156 65.2734 357.594 62.8906 358.469 60.7188C358.859 59.6719 359.352 58.6875 359.945 57.7656C360.555 56.8281 361.336 55.8594 362.289 54.8594C363.93 53.1719 365.773 51.9219 367.82 51.1094C369.852 50.2812 372.109 49.8672 374.594 49.8672C376.016 49.8672 377.5 50.0391 379.047 50.3828C380.578 50.7891 382.055 51.3359 383.477 52.0234ZM393.695 85V58.7969H386.008V50.6875H410.734V58.7969H403.047V85H393.695ZM450.555 67.9141C450.555 70.3984 450.109 72.7188 449.219 74.875C448.328 76.9844 447 78.9062 445.234 80.6406C443.484 82.3281 441.484 83.625 439.234 84.5312C436.875 85.4531 434.539 85.9141 432.227 85.9141C429.883 85.9141 427.547 85.4531 425.219 84.5312C422.922 83.6094 420.938 82.3125 419.266 80.6406C417.578 79.0312 416.25 77.0938 415.281 74.8281C414.344 72.6094 413.875 70.3047 413.875 67.9141C413.875 65.5234 414.344 63.2188 415.281 61C416.25 58.7344 417.578 56.7969 419.266 55.1875C420.984 53.4688 422.969 52.1562 425.219 51.25C427.406 50.3594 429.742 49.9141 432.227 49.9141C434.711 49.9141 437.062 50.3672 439.281 51.2734C441.5 52.1641 443.477 53.4688 445.211 55.1875C446.961 56.9062 448.297 58.8438 449.219 61C450.109 63.1562 450.555 65.4609 450.555 67.9141ZM432.227 77.9922C434.805 77.9922 436.961 77.0312 438.695 75.1094C439.555 74.1562 440.188 73.0859 440.594 71.8984C441 70.7109 441.203 69.3828 441.203 67.9141C441.203 65.0547 440.352 62.6562 438.648 60.7188C436.914 58.7969 434.773 57.8359 432.227 57.8359C429.617 57.8359 427.469 58.7969 425.781 60.7188C424.094 62.6406 423.25 65.0391 423.25 67.9141C423.25 70.8984 424.078 73.3125 425.734 75.1562C427.438 77.0469 429.602 77.9922 432.227 77.9922ZM457.961 73.9141C459.398 75.5078 460.773 76.6875 462.086 77.4531C463.461 78.2344 464.805 78.625 466.117 78.625C467.352 78.625 468.375 78.2891 469.188 77.6172C470 76.9453 470.406 76.0938 470.406 75.0625C470.406 73.9375 470.07 73.0547 469.398 72.4141C468.68 71.8047 467.094 71.1719 464.641 70.5156C461.297 69.6094 458.93 68.4375 457.539 67C456.133 65.5312 455.43 63.5312 455.43 61C455.43 57.7188 456.531 55.0469 458.734 52.9844C460.906 50.9062 463.75 49.8672 467.266 49.8672C469.25 49.8672 471.047 50.125 472.656 50.6406C474.344 51.1562 475.945 51.9219 477.461 52.9375L474.531 59.6641C473.5 58.7734 472.406 58.0859 471.25 57.6016C470.125 57.1484 469.023 56.9219 467.945 56.9219C466.852 56.9219 465.938 57.1953 465.203 57.7422C464.5 58.2578 464.148 58.9453 464.148 59.8047C464.148 60.6328 464.453 61.3203 465.062 61.8672C465.703 62.3828 466.906 62.875 468.672 63.3438C468.734 63.3594 468.789 63.375 468.836 63.3906C468.883 63.3906 468.953 63.4062 469.047 63.4375C472.859 64.4531 475.375 65.5938 476.594 66.8594C477.391 67.6562 478.016 68.6641 478.469 69.8828C478.875 71.0391 479.078 72.3516 479.078 73.8203C479.078 77.4453 477.883 80.375 475.492 82.6094C473.086 84.8125 469.898 85.9141 465.93 85.9141C463.492 85.9141 461.312 85.5156 459.391 84.7188C457.484 83.9219 455.602 82.6406 453.742 80.875L457.961 73.9141ZM31.6562 133V98.6875H41.0078V112.023H53.4766V98.6875H62.8516V133H53.4766V119.031H41.0078V133H31.6562ZM79.2109 120.18H88.5156L85.0234 108.859C84.9453 108.656 84.7969 108.094 84.5781 107.172C84.3125 106.094 84.0703 105.117 83.8516 104.242C83.6328 105.039 83.4453 105.844 83.2891 106.656C83.0391 107.438 82.8281 108.172 82.6562 108.859L79.2109 120.18ZM66.1094 133L77.9453 98.6875H89.6641L101.523 133H92.2188L90.4844 126.859H77.1953L75.4141 133H66.1094ZM113.5 112.398H115.375C117.703 112.398 119.289 112.148 120.133 111.648C120.992 111.117 121.422 110.234 121.422 109C121.422 107.703 121.023 106.789 120.227 106.258C119.352 105.711 117.781 105.438 115.516 105.438H113.5V112.398ZM104.828 133V98.6875H114.227C118.008 98.6875 120.711 98.8125 122.336 99.0625C123.852 99.2969 125.18 99.7266 126.32 100.352C127.57 101.086 128.531 102.016 129.203 103.141C129.875 104.328 130.211 105.703 130.211 107.266C130.211 109.25 129.711 110.812 128.711 111.953C127.727 113.078 126.148 113.938 123.977 114.531C126.352 114.719 128.258 115.562 129.695 117.062C131.07 118.594 131.758 120.641 131.758 123.203C131.758 125.016 131.367 126.617 130.586 128.008C129.805 129.445 128.703 130.531 127.281 131.266C126.188 131.844 124.75 132.297 122.969 132.625C121.125 132.875 118.305 133 114.508 133H104.828ZM113.5 125.992H116.781C119 125.992 120.562 125.703 121.469 125.125C122.406 124.594 122.875 123.68 122.875 122.383C122.875 120.977 122.453 119.969 121.609 119.359C120.766 118.797 119.203 118.516 116.922 118.516H113.5V125.992ZM137.641 133V98.6875H147.086V133H137.641ZM159.602 133V106.797H151.914V98.6875H176.641V106.797H168.953V133H159.602ZM190.305 120.18H199.609L196.117 108.859C196.039 108.656 195.891 108.094 195.672 107.172C195.406 106.094 195.164 105.117 194.945 104.242C194.727 105.039 194.539 105.844 194.383 106.656C194.133 107.438 193.922 108.172 193.75 108.859L190.305 120.18ZM177.203 133L189.039 98.6875H200.758L212.617 133H203.312L201.578 126.859H188.289L186.508 133H177.203ZM240.789 100.023V110.242C239.445 108.789 238.18 107.734 236.992 107.078C235.664 106.438 234.289 106.117 232.867 106.117C230.195 106.117 228.016 107.031 226.328 108.859C225.75 109.516 225.281 110.203 224.922 110.922C224.562 111.625 224.289 112.43 224.102 113.336C223.93 114.227 223.844 115.133 223.844 116.055C223.844 118.805 224.688 121.094 226.375 122.922C228.078 124.719 230.242 125.617 232.867 125.617C234.273 125.617 235.648 125.281 236.992 124.609C238.18 124 239.445 122.953 240.789 121.469V131.711C239.055 132.523 237.578 133.062 236.359 133.328C234.844 133.688 233.359 133.867 231.906 133.867C230.062 133.867 228.328 133.641 226.703 133.188C225.078 132.75 223.625 132.078 222.344 131.172C219.781 129.422 217.828 127.266 216.484 124.703C215.141 122.047 214.469 119.102 214.469 115.867C214.469 113.273 214.906 110.891 215.781 108.719C216.172 107.672 216.664 106.688 217.258 105.766C217.867 104.828 218.648 103.859 219.602 102.859C221.242 101.172 223.086 99.9219 225.133 99.1094C227.164 98.2812 229.422 97.8672 231.906 97.8672C233.328 97.8672 234.812 98.0391 236.359 98.3828C237.891 98.7891 239.367 99.3359 240.789 100.023ZM246.297 133V98.6875H255.742V133H246.297ZM298.539 115.914C298.539 118.398 298.094 120.719 297.203 122.875C296.312 124.984 294.984 126.906 293.219 128.641C291.469 130.328 289.469 131.625 287.219 132.531C284.859 133.453 282.523 133.914 280.211 133.914C277.867 133.914 275.531 133.453 273.203 132.531C270.906 131.609 268.922 130.312 267.25 128.641C265.562 127.031 264.234 125.094 263.266 122.828C262.328 120.609 261.859 118.305 261.859 115.914C261.859 113.523 262.328 111.219 263.266 109C264.234 106.734 265.562 104.797 267.25 103.188C268.969 101.469 270.953 100.156 273.203 99.25C275.391 98.3594 277.727 97.9141 280.211 97.9141C282.695 97.9141 285.047 98.3672 287.266 99.2734C289.484 100.164 291.461 101.469 293.195 103.188C294.945 104.906 296.281 106.844 297.203 109C298.094 111.156 298.539 113.461 298.539 115.914ZM280.211 125.992C282.789 125.992 284.945 125.031 286.68 123.109C287.539 122.156 288.172 121.086 288.578 119.898C288.984 118.711 289.188 117.383 289.188 115.914C289.188 113.055 288.336 110.656 286.633 108.719C284.898 106.797 282.758 105.836 280.211 105.836C277.602 105.836 275.453 106.797 273.766 108.719C272.078 110.641 271.234 113.039 271.234 115.914C271.234 118.898 272.062 121.312 273.719 123.156C275.422 125.047 277.586 125.992 280.211 125.992ZM304.422 133V98.6875H313.445L326.406 116.336C326.734 116.82 327.148 117.547 327.648 118.516C328.289 119.766 328.914 121.055 329.523 122.383C329.289 120.586 329.156 119.328 329.125 118.609C329.031 117.484 328.984 116.492 328.984 115.633V98.6875H337.961V133H328.984L316.023 115.281C315.836 115.031 315.422 114.297 314.781 113.078C314.219 112.078 313.594 110.812 312.906 109.281C313.062 110.5 313.211 111.766 313.352 113.078C313.414 114.547 313.445 115.539 313.445 116.055V133H304.422ZM354.414 120.18H363.719L360.227 108.859C360.148 108.656 360 108.094 359.781 107.172C359.516 106.094 359.273 105.117 359.055 104.242C358.836 105.039 358.648 105.844 358.492 106.656C358.242 107.438 358.031 108.172 357.859 108.859L354.414 120.18ZM341.312 133L353.148 98.6875H364.867L376.727 133H367.422L365.688 126.859H352.398L350.617 133H341.312ZM380.031 133V98.6875H389.383V124.984H401.008V133H380.031ZM405.578 133V98.6875H426.602V106.211H414.695V112.164H425.922V119.523H414.695V125.312H426.602V133H405.578ZM434.336 121.914C435.773 123.508 437.148 124.688 438.461 125.453C439.836 126.234 441.18 126.625 442.492 126.625C443.727 126.625 444.75 126.289 445.562 125.617C446.375 124.945 446.781 124.094 446.781 123.062C446.781 121.938 446.445 121.055 445.773 120.414C445.055 119.805 443.469 119.172 441.016 118.516C437.672 117.609 435.305 116.438 433.914 115C432.508 113.531 431.805 111.531 431.805 109C431.805 105.719 432.906 103.047 435.109 100.984C437.281 98.9062 440.125 97.8672 443.641 97.8672C445.625 97.8672 447.422 98.125 449.031 98.6406C450.719 99.1562 452.32 99.9219 453.836 100.938L450.906 107.664C449.875 106.773 448.781 106.086 447.625 105.602C446.5 105.148 445.398 104.922 444.32 104.922C443.227 104.922 442.312 105.195 441.578 105.742C440.875 106.258 440.523 106.945 440.523 107.805C440.523 108.633 440.828 109.32 441.438 109.867C442.078 110.383 443.281 110.875 445.047 111.344C445.109 111.359 445.164 111.375 445.211 111.391C445.258 111.391 445.328 111.406 445.422 111.438C449.234 112.453 451.75 113.594 452.969 114.859C453.766 115.656 454.391 116.664 454.844 117.883C455.25 119.039 455.453 120.352 455.453 121.82C455.453 125.445 454.258 128.375 451.867 130.609C449.461 132.812 446.273 133.914 442.305 133.914C439.867 133.914 437.688 133.516 435.766 132.719C433.859 131.922 431.977 130.641 430.117 128.875L434.336 121.914Z" fill="white"/>
</svg>
