<svg width="550" height="253" viewBox="0 0 550 253" fill="none" xmlns="http://www.w3.org/2000/svg">
<path d="M26.744 190H14.686C10.2678 190 6.68604 186.418 6.68604 182V21" stroke="white" stroke-width="1.5"/>
<path d="M12.622 14.0784C12.622 17.6144 9.92461 20.4068 6.68598 20.4068C3.44736 20.4068 0.75 17.6144 0.75 14.0784C0.75 10.5424 3.44736 7.75 6.68598 7.75C9.92461 7.75 12.622 10.5424 12.622 14.0784Z" stroke="white" stroke-width="1.5"/>
<path d="M46.7725 197.192H50.2617L48.9521 192.947C48.9229 192.871 48.8672 192.66 48.7852 192.314C48.6855 191.91 48.5947 191.544 48.5127 191.216C48.4307 191.515 48.3604 191.816 48.3018 192.121C48.208 192.414 48.1289 192.689 48.0645 192.947L46.7725 197.192ZM41.8594 202L46.2979 189.133H50.6924L55.1396 202H51.6504L51 199.697H46.0166L45.3486 202H41.8594ZM56.0889 190.354C56.0889 189.868 56.2559 189.467 56.5898 189.15C56.9297 188.811 57.3369 188.641 57.8115 188.641C58.2979 188.641 58.7139 188.805 59.0596 189.133C59.3818 189.455 59.543 189.862 59.543 190.354C59.543 190.847 59.373 191.263 59.0332 191.603C58.6992 191.937 58.292 192.104 57.8115 192.104C57.3486 192.104 56.9414 191.928 56.5898 191.576C56.2559 191.242 56.0889 190.835 56.0889 190.354ZM56.2471 205.92V193.123H59.3848V205.92H56.2471ZM70.8896 193.123V197.658C70.8896 198.672 70.8135 199.41 70.6611 199.873C70.4971 200.354 70.2217 200.787 69.835 201.174C69.4658 201.561 68.9795 201.854 68.376 202.053C67.8018 202.246 67.1104 202.343 66.3018 202.343C65.499 202.343 64.8164 202.246 64.2539 202.053C63.6738 201.865 63.1758 201.572 62.7598 201.174C62.3789 200.811 62.1094 200.383 61.9512 199.891C61.793 199.434 61.7139 198.689 61.7139 197.658V193.123H64.7021V197.86C64.7021 198.604 64.8281 199.138 65.0801 199.46C65.3086 199.8 65.7041 199.97 66.2666 199.97C66.8232 199.97 67.2217 199.806 67.4619 199.478C67.708 199.149 67.8311 198.61 67.8311 197.86V193.123H70.8896ZM72.3135 201.262L72.9639 198.871C73.4209 199.275 73.9248 199.58 74.4756 199.785C75.0205 200.002 75.5713 200.11 76.1279 200.11C76.5264 200.11 76.8252 200.043 77.0244 199.908C77.2295 199.785 77.332 199.606 77.332 199.372C77.332 198.979 76.9189 198.687 76.0928 198.493C75.8057 198.429 75.5889 198.373 75.4424 198.326C74.4873 198.045 73.8105 197.702 73.4121 197.298C72.9785 196.882 72.7617 196.343 72.7617 195.681C72.7617 194.825 73.0869 194.137 73.7373 193.615C74.3643 193.1 75.2402 192.842 76.3652 192.842C76.9102 192.842 77.4902 192.906 78.1055 193.035C78.6211 193.141 79.2217 193.346 79.9072 193.65L79.2568 195.804C78.835 195.517 78.4102 195.303 77.9824 195.162C77.5781 195.016 77.1533 194.942 76.708 194.942C76.3447 194.942 76.0723 194.998 75.8906 195.109C75.7148 195.215 75.627 195.376 75.627 195.593C75.627 195.897 76.04 196.161 76.8662 196.384C77.1357 196.466 77.2734 196.507 77.2793 196.507C78.3574 196.812 79.1133 197.172 79.5469 197.588C79.9688 198.027 80.1797 198.599 80.1797 199.302C80.1797 200.21 79.8311 200.942 79.1338 201.499C78.4189 202.062 77.4961 202.343 76.3652 202.343C75.5801 202.343 74.8564 202.252 74.1943 202.07C73.5381 201.895 72.9111 201.625 72.3135 201.262ZM82.3594 202L82.3418 195.338H81.0146V193.123H82.3418V190.478H85.4443V193.123H86.7539V195.338H85.4443V202H82.3594ZM94.9893 197.553C94.9893 196.85 94.8047 196.305 94.4355 195.918C94.0605 195.508 93.5566 195.303 92.9238 195.303C92.291 195.303 91.793 195.502 91.4297 195.9C91.0547 196.311 90.8672 196.861 90.8672 197.553C90.8672 198.25 91.0547 198.798 91.4297 199.196C91.7871 199.589 92.2852 199.785 92.9238 199.785C93.5566 199.785 94.0576 199.589 94.4268 199.196C94.8018 198.804 94.9893 198.256 94.9893 197.553ZM97.7402 193.123V202H94.8662V200.559C94.4502 201.174 93.9844 201.625 93.4688 201.912C92.959 202.199 92.3613 202.343 91.6758 202.343C90.4863 202.343 89.54 201.909 88.8369 201.042C88.4912 200.614 88.2275 200.11 88.0459 199.53C87.8643 198.95 87.7734 198.297 87.7734 197.57C87.7734 196.117 88.1455 194.966 88.8896 194.116C89.6338 193.267 90.6299 192.842 91.8779 192.842C92.5459 192.842 93.1201 192.985 93.6006 193.272C94.0869 193.548 94.5029 193.984 94.8486 194.582V193.123H97.7402ZM111.838 202V197.157C111.838 196.396 111.75 195.868 111.574 195.575C111.375 195.276 111.044 195.127 110.581 195.127C109.989 195.127 109.582 195.329 109.359 195.733C109.131 196.132 109.017 196.967 109.017 198.238V202H105.993V197.157C105.993 196.366 105.896 195.833 105.703 195.558C105.527 195.271 105.202 195.127 104.728 195.127C104.136 195.127 103.723 195.323 103.488 195.716C103.26 196.114 103.146 196.955 103.146 198.238V202H100.104V193.123H103.181V194.67C103.556 194.049 103.983 193.589 104.464 193.29C104.933 192.991 105.501 192.842 106.169 192.842C106.89 192.842 107.484 192.979 107.953 193.255C108.398 193.536 108.724 193.955 108.929 194.512C109.286 193.932 109.711 193.513 110.203 193.255C110.689 192.979 111.272 192.842 111.952 192.842C112.485 192.842 112.951 192.93 113.35 193.105C113.76 193.299 114.097 193.568 114.36 193.914C114.583 194.189 114.738 194.515 114.826 194.89C114.914 195.235 114.958 195.848 114.958 196.727V196.92V202H111.838ZM123.475 197.588C123.475 196.926 123.308 196.404 122.974 196.023C122.628 195.643 122.177 195.452 121.62 195.452C121.046 195.452 120.595 195.643 120.267 196.023C119.933 196.393 119.766 196.914 119.766 197.588C119.766 198.244 119.927 198.76 120.249 199.135C120.601 199.521 121.058 199.715 121.62 199.715C122.183 199.715 122.64 199.521 122.991 199.135C123.313 198.748 123.475 198.232 123.475 197.588ZM126.586 197.588C126.586 198.238 126.46 198.845 126.208 199.407C125.944 200.005 125.584 200.521 125.127 200.954C124.611 201.435 124.078 201.783 123.527 202C122.953 202.229 122.317 202.343 121.62 202.343C120.917 202.343 120.281 202.229 119.713 202C119.133 201.771 118.597 201.426 118.104 200.963C117.618 200.494 117.267 199.976 117.05 199.407C116.798 198.862 116.672 198.256 116.672 197.588C116.672 196.938 116.798 196.325 117.05 195.751C117.284 195.171 117.639 194.655 118.113 194.204C118.576 193.759 119.109 193.416 119.713 193.176C120.287 192.953 120.923 192.842 121.62 192.842C122.312 192.842 122.947 192.953 123.527 193.176C124.131 193.416 124.664 193.759 125.127 194.204C125.613 194.644 125.974 195.159 126.208 195.751C126.46 196.325 126.586 196.938 126.586 197.588ZM127.562 201.262L128.212 198.871C128.669 199.275 129.173 199.58 129.724 199.785C130.269 200.002 130.819 200.11 131.376 200.11C131.774 200.11 132.073 200.043 132.272 199.908C132.478 199.785 132.58 199.606 132.58 199.372C132.58 198.979 132.167 198.687 131.341 198.493C131.054 198.429 130.837 198.373 130.69 198.326C129.735 198.045 129.059 197.702 128.66 197.298C128.227 196.882 128.01 196.343 128.01 195.681C128.01 194.825 128.335 194.137 128.985 193.615C129.612 193.1 130.488 192.842 131.613 192.842C132.158 192.842 132.738 192.906 133.354 193.035C133.869 193.141 134.47 193.346 135.155 193.65L134.505 195.804C134.083 195.517 133.658 195.303 133.23 195.162C132.826 195.016 132.401 194.942 131.956 194.942C131.593 194.942 131.32 194.998 131.139 195.109C130.963 195.215 130.875 195.376 130.875 195.593C130.875 195.897 131.288 196.161 132.114 196.384C132.384 196.466 132.521 196.507 132.527 196.507C133.605 196.812 134.361 197.172 134.795 197.588C135.217 198.027 135.428 198.599 135.428 199.302C135.428 200.21 135.079 200.942 134.382 201.499C133.667 202.062 132.744 202.343 131.613 202.343C130.828 202.343 130.104 202.252 129.442 202.07C128.786 201.895 128.159 201.625 127.562 201.262ZM148.866 196.419C148.813 195.927 148.623 195.525 148.295 195.215C147.967 194.904 147.565 194.749 147.091 194.749C146.593 194.749 146.188 194.887 145.878 195.162C145.556 195.473 145.354 195.892 145.271 196.419H148.866ZM151.951 198.186H145.201C145.219 198.877 145.392 199.404 145.72 199.768C146.06 200.143 146.552 200.33 147.196 200.33C147.665 200.33 148.066 200.239 148.4 200.058C148.74 199.864 148.986 199.601 149.139 199.267L151.494 200.216C151.219 200.89 150.721 201.411 150 201.78C149.285 202.155 148.409 202.343 147.372 202.343C145.825 202.343 144.583 201.909 143.646 201.042C142.714 200.198 142.248 199.07 142.248 197.658C142.248 196.281 142.714 195.13 143.646 194.204C144.577 193.296 145.761 192.842 147.196 192.842C148.661 192.842 149.818 193.302 150.668 194.222C151.102 194.696 151.424 195.25 151.635 195.883C151.846 196.51 151.951 197.228 151.951 198.036V198.186ZM153.841 202V188.377H156.979V202H153.841ZM171.393 196.041C171.088 195.771 170.795 195.575 170.514 195.452C170.262 195.329 169.966 195.268 169.626 195.268C168.999 195.268 168.507 195.473 168.149 195.883C167.78 196.287 167.596 196.844 167.596 197.553C167.596 198.232 167.786 198.771 168.167 199.17C168.536 199.58 169.049 199.785 169.705 199.785C170.016 199.785 170.314 199.721 170.602 199.592C170.906 199.445 171.17 199.252 171.393 199.012V201.728C171.018 201.927 170.64 202.085 170.259 202.202C169.854 202.296 169.471 202.343 169.107 202.343C167.736 202.343 166.632 201.903 165.794 201.024C165.507 200.731 165.27 200.409 165.082 200.058C164.9 199.706 164.76 199.325 164.66 198.915C164.566 198.505 164.52 198.057 164.52 197.57C164.52 196.17 164.947 195.033 165.803 194.16C166.664 193.281 167.777 192.842 169.143 192.842C169.57 192.842 169.978 192.889 170.364 192.982C170.739 193.076 171.082 193.214 171.393 193.396V196.041ZM173.335 202V193.123H176.288V195.215C176.599 194.447 177.012 193.876 177.527 193.501C178.061 193.12 178.702 192.93 179.452 192.93C179.622 192.93 179.748 192.936 179.83 192.947C179.895 192.953 179.953 192.959 180.006 192.965C180.059 192.965 180.126 192.971 180.208 192.982L179.909 195.83C179.692 195.76 179.505 195.71 179.347 195.681C179.112 195.657 178.939 195.646 178.828 195.646C178.066 195.646 177.478 195.88 177.062 196.349C176.651 196.812 176.446 197.471 176.446 198.326V202H173.335ZM187.485 196.419C187.433 195.927 187.242 195.525 186.914 195.215C186.586 194.904 186.185 194.749 185.71 194.749C185.212 194.749 184.808 194.887 184.497 195.162C184.175 195.473 183.973 195.892 183.891 196.419H187.485ZM190.57 198.186H183.82C183.838 198.877 184.011 199.404 184.339 199.768C184.679 200.143 185.171 200.33 185.815 200.33C186.284 200.33 186.686 200.239 187.02 200.058C187.359 199.864 187.605 199.601 187.758 199.267L190.113 200.216C189.838 200.89 189.34 201.411 188.619 201.78C187.904 202.155 187.028 202.343 185.991 202.343C184.444 202.343 183.202 201.909 182.265 201.042C181.333 200.198 180.867 199.07 180.867 197.658C180.867 196.281 181.333 195.13 182.265 194.204C183.196 193.296 184.38 192.842 185.815 192.842C187.28 192.842 188.438 193.302 189.287 194.222C189.721 194.696 190.043 195.25 190.254 195.883C190.465 196.51 190.57 197.228 190.57 198.036V198.186ZM188.408 189.493L186.246 191.937H185.165L186.448 189.493H188.408ZM199.157 197.57C199.157 196.873 198.979 196.328 198.621 195.936C198.24 195.537 197.736 195.338 197.109 195.338C196.477 195.338 195.979 195.537 195.615 195.936C195.252 196.334 195.07 196.879 195.07 197.57C195.07 198.268 195.252 198.815 195.615 199.214C195.973 199.606 196.471 199.803 197.109 199.803C197.742 199.803 198.246 199.606 198.621 199.214C198.979 198.821 199.157 198.273 199.157 197.57ZM201.935 188.377V202H199.052V200.559C198.653 201.162 198.202 201.607 197.698 201.895C197.229 202.193 196.679 202.343 196.046 202.343C194.804 202.343 193.811 201.909 193.066 201.042C192.328 200.175 191.959 199.018 191.959 197.57C191.959 196.164 192.331 195.019 193.075 194.134C193.813 193.272 194.769 192.842 195.94 192.842C196.69 192.842 197.3 192.979 197.769 193.255C198.22 193.507 198.642 193.955 199.034 194.6C199.011 194.441 198.987 194.201 198.964 193.879C198.94 193.527 198.929 193.24 198.929 193.018V188.377H201.935ZM204.185 202V193.123H207.313V202H204.185ZM204.58 190.838H204.598C204.598 190.51 204.712 190.24 204.94 190.029C205.169 189.801 205.444 189.687 205.767 189.687C206.106 189.687 206.385 189.795 206.602 190.012C206.824 190.229 206.936 190.504 206.936 190.838C206.936 191.178 206.821 191.459 206.593 191.682C206.37 191.91 206.095 192.024 205.767 192.024C205.433 192.024 205.151 191.904 204.923 191.664C204.694 191.441 204.58 191.166 204.58 190.838ZM210.381 202L210.363 195.338H209.036V193.123H210.363V190.478H213.466V193.123H214.775V195.338H213.466V202H210.381ZM222.545 197.588C222.545 196.926 222.378 196.404 222.044 196.023C221.698 195.643 221.247 195.452 220.69 195.452C220.116 195.452 219.665 195.643 219.337 196.023C219.003 196.393 218.836 196.914 218.836 197.588C218.836 198.244 218.997 198.76 219.319 199.135C219.671 199.521 220.128 199.715 220.69 199.715C221.253 199.715 221.71 199.521 222.062 199.135C222.384 198.748 222.545 198.232 222.545 197.588ZM225.656 197.588C225.656 198.238 225.53 198.845 225.278 199.407C225.015 200.005 224.654 200.521 224.197 200.954C223.682 201.435 223.148 201.783 222.598 202C222.023 202.229 221.388 202.343 220.69 202.343C219.987 202.343 219.352 202.229 218.783 202C218.203 201.771 217.667 201.426 217.175 200.963C216.688 200.494 216.337 199.976 216.12 199.407C215.868 198.862 215.742 198.256 215.742 197.588C215.742 196.938 215.868 196.325 216.12 195.751C216.354 195.171 216.709 194.655 217.184 194.204C217.646 193.759 218.18 193.416 218.783 193.176C219.357 192.953 219.993 192.842 220.69 192.842C221.382 192.842 222.018 192.953 222.598 193.176C223.201 193.416 223.734 193.759 224.197 194.204C224.684 194.644 225.044 195.159 225.278 195.751C225.53 196.325 225.656 196.938 225.656 197.588ZM239.868 197.553C239.868 196.85 239.684 196.305 239.314 195.918C238.939 195.508 238.436 195.303 237.803 195.303C237.17 195.303 236.672 195.502 236.309 195.9C235.934 196.311 235.746 196.861 235.746 197.553C235.746 198.25 235.934 198.798 236.309 199.196C236.666 199.589 237.164 199.785 237.803 199.785C238.436 199.785 238.937 199.589 239.306 199.196C239.681 198.804 239.868 198.256 239.868 197.553ZM242.619 193.123V202H239.745V200.559C239.329 201.174 238.863 201.625 238.348 201.912C237.838 202.199 237.24 202.343 236.555 202.343C235.365 202.343 234.419 201.909 233.716 201.042C233.37 200.614 233.106 200.11 232.925 199.53C232.743 198.95 232.652 198.297 232.652 197.57C232.652 196.117 233.024 194.966 233.769 194.116C234.513 193.267 235.509 192.842 236.757 192.842C237.425 192.842 237.999 192.985 238.479 193.272C238.966 193.548 239.382 193.984 239.728 194.582V193.123H242.619ZM251.127 202L251.109 195.338H249.782V193.123H251.109V190.478H254.212V193.123H255.521V195.338H254.212V202H251.127ZM266.095 193.123V197.658C266.095 198.672 266.019 199.41 265.866 199.873C265.702 200.354 265.427 200.787 265.04 201.174C264.671 201.561 264.185 201.854 263.581 202.053C263.007 202.246 262.315 202.343 261.507 202.343C260.704 202.343 260.021 202.246 259.459 202.053C258.879 201.865 258.381 201.572 257.965 201.174C257.584 200.811 257.314 200.383 257.156 199.891C256.998 199.434 256.919 198.689 256.919 197.658V193.123H259.907V197.86C259.907 198.604 260.033 199.138 260.285 199.46C260.514 199.8 260.909 199.97 261.472 199.97C262.028 199.97 262.427 199.806 262.667 199.478C262.913 199.149 263.036 198.61 263.036 197.86V193.123H266.095ZM49.5234 216.041C49.2188 215.771 48.9258 215.575 48.6445 215.452C48.3926 215.329 48.0967 215.268 47.7568 215.268C47.1299 215.268 46.6377 215.473 46.2803 215.883C45.9111 216.287 45.7266 216.844 45.7266 217.553C45.7266 218.232 45.917 218.771 46.2979 219.17C46.667 219.58 47.1797 219.785 47.8359 219.785C48.1465 219.785 48.4453 219.721 48.7324 219.592C49.0371 219.445 49.3008 219.252 49.5234 219.012V221.728C49.1484 221.927 48.7705 222.085 48.3896 222.202C47.9854 222.296 47.6016 222.343 47.2383 222.343C45.8672 222.343 44.7627 221.903 43.9248 221.024C43.6377 220.731 43.4004 220.409 43.2129 220.058C43.0312 219.706 42.8906 219.325 42.791 218.915C42.6973 218.505 42.6504 218.057 42.6504 217.57C42.6504 216.17 43.0781 215.033 43.9336 214.16C44.7949 213.281 45.9082 212.842 47.2734 212.842C47.7012 212.842 48.1084 212.889 48.4951 212.982C48.8701 213.076 49.2129 213.214 49.5234 213.396V216.041ZM58.2158 217.553C58.2158 216.85 58.0312 216.305 57.6621 215.918C57.2871 215.508 56.7832 215.303 56.1504 215.303C55.5176 215.303 55.0195 215.502 54.6562 215.9C54.2812 216.311 54.0938 216.861 54.0938 217.553C54.0938 218.25 54.2812 218.798 54.6562 219.196C55.0137 219.589 55.5117 219.785 56.1504 219.785C56.7832 219.785 57.2842 219.589 57.6533 219.196C58.0283 218.804 58.2158 218.256 58.2158 217.553ZM60.9668 213.123V222H58.0928V220.559C57.6768 221.174 57.2109 221.625 56.6953 221.912C56.1855 222.199 55.5879 222.343 54.9023 222.343C53.7129 222.343 52.7666 221.909 52.0635 221.042C51.7178 220.614 51.4541 220.11 51.2725 219.53C51.0908 218.95 51 218.297 51 217.57C51 216.117 51.3721 214.966 52.1162 214.116C52.8604 213.267 53.8564 212.842 55.1045 212.842C55.7725 212.842 56.3467 212.985 56.8271 213.272C57.3135 213.548 57.7295 213.984 58.0752 214.582V213.123H60.9668ZM66.126 217.588C66.126 218.279 66.3105 218.827 66.6797 219.231C67.0195 219.624 67.5117 219.82 68.1562 219.82C68.7949 219.82 69.293 219.624 69.6504 219.231C70.0078 218.821 70.1865 218.273 70.1865 217.588C70.1865 216.891 70.0078 216.346 69.6504 215.953C69.2871 215.555 68.7891 215.355 68.1562 215.355C67.5176 215.355 67.0254 215.555 66.6797 215.953C66.3105 216.34 66.126 216.885 66.126 217.588ZM63.3486 225.92V213.141H66.2314V214.617C66.6123 214.049 67.0605 213.606 67.5762 213.29C68.0625 213.003 68.6162 212.859 69.2373 212.859C69.8643 212.859 70.4268 212.965 70.9248 213.176C71.4229 213.381 71.8564 213.694 72.2256 214.116C72.958 214.954 73.3242 216.111 73.3242 217.588C73.3242 219.006 72.958 220.151 72.2256 221.024C71.8506 221.47 71.4258 221.801 70.9512 222.018C70.4824 222.234 69.9463 222.343 69.3428 222.343C68.5869 222.343 67.9746 222.205 67.5059 221.93C67.0547 221.666 66.6357 221.209 66.249 220.559C66.2783 220.699 66.3018 220.916 66.3193 221.209C66.3311 221.379 66.3369 221.689 66.3369 222.141V225.92H63.3486ZM81.9814 217.553C81.9814 216.85 81.7969 216.305 81.4277 215.918C81.0527 215.508 80.5488 215.303 79.916 215.303C79.2832 215.303 78.7852 215.502 78.4219 215.9C78.0469 216.311 77.8594 216.861 77.8594 217.553C77.8594 218.25 78.0469 218.798 78.4219 219.196C78.7793 219.589 79.2773 219.785 79.916 219.785C80.5488 219.785 81.0498 219.589 81.4189 219.196C81.7939 218.804 81.9814 218.256 81.9814 217.553ZM84.7324 213.123V222H81.8584V220.559C81.4424 221.174 80.9766 221.625 80.4609 221.912C79.9512 222.199 79.3535 222.343 78.668 222.343C77.4785 222.343 76.5322 221.909 75.8291 221.042C75.4834 220.614 75.2197 220.11 75.0381 219.53C74.8564 218.95 74.7656 218.297 74.7656 217.57C74.7656 216.117 75.1377 214.966 75.8818 214.116C76.626 213.267 77.6221 212.842 78.8701 212.842C79.5381 212.842 80.1123 212.985 80.5928 213.272C81.0791 213.548 81.4951 213.984 81.8408 214.582V213.123H84.7324ZM93.4688 216.041C93.1641 215.771 92.8711 215.575 92.5898 215.452C92.3379 215.329 92.042 215.268 91.7021 215.268C91.0752 215.268 90.583 215.473 90.2256 215.883C89.8564 216.287 89.6719 216.844 89.6719 217.553C89.6719 218.232 89.8623 218.771 90.2432 219.17C90.6123 219.58 91.125 219.785 91.7812 219.785C92.0918 219.785 92.3906 219.721 92.6777 219.592C92.9824 219.445 93.2461 219.252 93.4688 219.012V221.728C93.0938 221.927 92.7158 222.085 92.335 222.202C91.9307 222.296 91.5469 222.343 91.1836 222.343C89.8125 222.343 88.708 221.903 87.8701 221.024C87.583 220.731 87.3457 220.409 87.1582 220.058C86.9766 219.706 86.8359 219.325 86.7363 218.915C86.6426 218.505 86.5957 218.057 86.5957 217.57C86.5957 216.17 87.0234 215.033 87.8789 214.16C88.7402 213.281 89.8535 212.842 91.2188 212.842C91.6465 212.842 92.0537 212.889 92.4404 212.982C92.8154 213.076 93.1582 213.214 93.4688 213.396V216.041ZM95.3232 222V213.123H98.4521V222H95.3232ZM95.7188 210.838H95.7363C95.7363 210.51 95.8506 210.24 96.0791 210.029C96.3076 209.801 96.583 209.687 96.9053 209.687C97.2451 209.687 97.5234 209.795 97.7402 210.012C97.9629 210.229 98.0742 210.504 98.0742 210.838C98.0742 211.178 97.96 211.459 97.7314 211.682C97.5088 211.91 97.2334 212.024 96.9053 212.024C96.5713 212.024 96.29 211.904 96.0615 211.664C95.833 211.441 95.7188 211.166 95.7188 210.838ZM107.804 217.57C107.804 216.873 107.625 216.328 107.268 215.936C106.887 215.537 106.383 215.338 105.756 215.338C105.123 215.338 104.625 215.537 104.262 215.936C103.898 216.334 103.717 216.879 103.717 217.57C103.717 218.268 103.898 218.815 104.262 219.214C104.619 219.606 105.117 219.803 105.756 219.803C106.389 219.803 106.893 219.606 107.268 219.214C107.625 218.821 107.804 218.273 107.804 217.57ZM110.581 208.377V222H107.698V220.559C107.3 221.162 106.849 221.607 106.345 221.895C105.876 222.193 105.325 222.343 104.692 222.343C103.45 222.343 102.457 221.909 101.713 221.042C100.975 220.175 100.605 219.018 100.605 217.57C100.605 216.164 100.978 215.019 101.722 214.134C102.46 213.272 103.415 212.842 104.587 212.842C105.337 212.842 105.946 212.979 106.415 213.255C106.866 213.507 107.288 213.955 107.681 214.6C107.657 214.441 107.634 214.201 107.61 213.879C107.587 213.527 107.575 213.24 107.575 213.018V208.377H110.581ZM119.669 217.553C119.669 216.85 119.484 216.305 119.115 215.918C118.74 215.508 118.236 215.303 117.604 215.303C116.971 215.303 116.473 215.502 116.109 215.9C115.734 216.311 115.547 216.861 115.547 217.553C115.547 218.25 115.734 218.798 116.109 219.196C116.467 219.589 116.965 219.785 117.604 219.785C118.236 219.785 118.737 219.589 119.106 219.196C119.481 218.804 119.669 218.256 119.669 217.553ZM122.42 213.123V222H119.546V220.559C119.13 221.174 118.664 221.625 118.148 221.912C117.639 222.199 117.041 222.343 116.355 222.343C115.166 222.343 114.22 221.909 113.517 221.042C113.171 220.614 112.907 220.11 112.726 219.53C112.544 218.95 112.453 218.297 112.453 217.57C112.453 216.117 112.825 214.966 113.569 214.116C114.313 213.267 115.31 212.842 116.558 212.842C117.226 212.842 117.8 212.985 118.28 213.272C118.767 213.548 119.183 213.984 119.528 214.582V213.123H122.42ZM131.569 217.57C131.569 216.873 131.391 216.328 131.033 215.936C130.652 215.537 130.148 215.338 129.521 215.338C128.889 215.338 128.391 215.537 128.027 215.936C127.664 216.334 127.482 216.879 127.482 217.57C127.482 218.268 127.664 218.815 128.027 219.214C128.385 219.606 128.883 219.803 129.521 219.803C130.154 219.803 130.658 219.606 131.033 219.214C131.391 218.821 131.569 218.273 131.569 217.57ZM134.347 208.377V222H131.464V220.559C131.065 221.162 130.614 221.607 130.11 221.895C129.642 222.193 129.091 222.343 128.458 222.343C127.216 222.343 126.223 221.909 125.479 221.042C124.74 220.175 124.371 219.018 124.371 217.57C124.371 216.164 124.743 215.019 125.487 214.134C126.226 213.272 127.181 212.842 128.353 212.842C129.103 212.842 129.712 212.979 130.181 213.255C130.632 213.507 131.054 213.955 131.446 214.6C131.423 214.441 131.399 214.201 131.376 213.879C131.353 213.527 131.341 213.24 131.341 213.018V208.377H134.347ZM149.095 217.57C149.095 216.873 148.916 216.328 148.559 215.936C148.178 215.537 147.674 215.338 147.047 215.338C146.414 215.338 145.916 215.537 145.553 215.936C145.189 216.334 145.008 216.879 145.008 217.57C145.008 218.268 145.189 218.815 145.553 219.214C145.91 219.606 146.408 219.803 147.047 219.803C147.68 219.803 148.184 219.606 148.559 219.214C148.916 218.821 149.095 218.273 149.095 217.57ZM151.872 208.377V222H148.989V220.559C148.591 221.162 148.14 221.607 147.636 221.895C147.167 222.193 146.616 222.343 145.983 222.343C144.741 222.343 143.748 221.909 143.004 221.042C142.266 220.175 141.896 219.018 141.896 217.57C141.896 216.164 142.269 215.019 143.013 214.134C143.751 213.272 144.706 212.842 145.878 212.842C146.628 212.842 147.237 212.979 147.706 213.255C148.157 213.507 148.579 213.955 148.972 214.6C148.948 214.441 148.925 214.201 148.901 213.879C148.878 213.527 148.866 213.24 148.866 213.018V208.377H151.872ZM160.31 216.419C160.257 215.927 160.066 215.525 159.738 215.215C159.41 214.904 159.009 214.749 158.534 214.749C158.036 214.749 157.632 214.887 157.321 215.162C156.999 215.473 156.797 215.892 156.715 216.419H160.31ZM163.395 218.186H156.645C156.662 218.877 156.835 219.404 157.163 219.768C157.503 220.143 157.995 220.33 158.64 220.33C159.108 220.33 159.51 220.239 159.844 220.058C160.184 219.864 160.43 219.601 160.582 219.267L162.938 220.216C162.662 220.89 162.164 221.411 161.443 221.78C160.729 222.155 159.853 222.343 158.815 222.343C157.269 222.343 156.026 221.909 155.089 221.042C154.157 220.198 153.691 219.07 153.691 217.658C153.691 216.281 154.157 215.13 155.089 214.204C156.021 213.296 157.204 212.842 158.64 212.842C160.104 212.842 161.262 213.302 162.111 214.222C162.545 214.696 162.867 215.25 163.078 215.883C163.289 216.51 163.395 217.228 163.395 218.036V218.186ZM173.634 217.588C173.634 218.279 173.818 218.827 174.188 219.231C174.527 219.624 175.02 219.82 175.664 219.82C176.303 219.82 176.801 219.624 177.158 219.231C177.516 218.821 177.694 218.273 177.694 217.588C177.694 216.891 177.516 216.346 177.158 215.953C176.795 215.555 176.297 215.355 175.664 215.355C175.025 215.355 174.533 215.555 174.188 215.953C173.818 216.34 173.634 216.885 173.634 217.588ZM170.856 225.92V213.141H173.739V214.617C174.12 214.049 174.568 213.606 175.084 213.29C175.57 213.003 176.124 212.859 176.745 212.859C177.372 212.859 177.935 212.965 178.433 213.176C178.931 213.381 179.364 213.694 179.733 214.116C180.466 214.954 180.832 216.111 180.832 217.588C180.832 219.006 180.466 220.151 179.733 221.024C179.358 221.47 178.934 221.801 178.459 222.018C177.99 222.234 177.454 222.343 176.851 222.343C176.095 222.343 175.482 222.205 175.014 221.93C174.562 221.666 174.144 221.209 173.757 220.559C173.786 220.699 173.81 220.916 173.827 221.209C173.839 221.379 173.845 221.689 173.845 222.141V225.92H170.856ZM189.489 217.553C189.489 216.85 189.305 216.305 188.936 215.918C188.561 215.508 188.057 215.303 187.424 215.303C186.791 215.303 186.293 215.502 185.93 215.9C185.555 216.311 185.367 216.861 185.367 217.553C185.367 218.25 185.555 218.798 185.93 219.196C186.287 219.589 186.785 219.785 187.424 219.785C188.057 219.785 188.558 219.589 188.927 219.196C189.302 218.804 189.489 218.256 189.489 217.553ZM192.24 213.123V222H189.366V220.559C188.95 221.174 188.484 221.625 187.969 221.912C187.459 222.199 186.861 222.343 186.176 222.343C184.986 222.343 184.04 221.909 183.337 221.042C182.991 220.614 182.728 220.11 182.546 219.53C182.364 218.95 182.273 218.297 182.273 217.57C182.273 216.117 182.646 214.966 183.39 214.116C184.134 213.267 185.13 212.842 186.378 212.842C187.046 212.842 187.62 212.985 188.101 213.272C188.587 213.548 189.003 213.984 189.349 214.582V213.123H192.24ZM201.372 217.535C201.372 216.85 201.193 216.311 200.836 215.918C200.449 215.531 199.939 215.338 199.307 215.338C198.674 215.338 198.164 215.531 197.777 215.918C197.402 216.311 197.215 216.85 197.215 217.535C197.215 218.227 197.402 218.76 197.777 219.135C198.158 219.533 198.668 219.732 199.307 219.732C199.934 219.732 200.438 219.533 200.818 219.135C201.188 218.766 201.372 218.232 201.372 217.535ZM204.123 213.123V221.982C204.123 223.324 203.716 224.314 202.901 224.953C202.509 225.27 201.993 225.51 201.354 225.674C200.716 225.838 199.966 225.92 199.104 225.92C197.704 225.92 196.617 225.662 195.844 225.146C195.07 224.625 194.657 223.901 194.604 222.976H197.848C197.906 223.257 198.062 223.471 198.313 223.617C198.571 223.775 198.914 223.854 199.342 223.854C200.01 223.854 200.476 223.693 200.739 223.371C200.991 223.049 201.117 222.363 201.117 221.314V220.506C200.783 221.068 200.364 221.481 199.86 221.745C199.339 222.021 198.732 222.158 198.041 222.158C196.869 222.158 195.929 221.733 195.22 220.884C194.874 220.468 194.61 219.979 194.429 219.416C194.247 218.848 194.156 218.209 194.156 217.5C194.156 216.082 194.528 214.948 195.272 214.099C195.642 213.677 196.075 213.363 196.573 213.158C197.077 212.947 197.64 212.842 198.261 212.842C198.923 212.842 199.497 212.979 199.983 213.255C200.464 213.513 200.88 213.943 201.231 214.547V213.123H204.123ZM212.789 217.588C212.789 216.926 212.622 216.404 212.288 216.023C211.942 215.643 211.491 215.452 210.935 215.452C210.36 215.452 209.909 215.643 209.581 216.023C209.247 216.393 209.08 216.914 209.08 217.588C209.08 218.244 209.241 218.76 209.563 219.135C209.915 219.521 210.372 219.715 210.935 219.715C211.497 219.715 211.954 219.521 212.306 219.135C212.628 218.748 212.789 218.232 212.789 217.588ZM215.9 217.588C215.9 218.238 215.774 218.845 215.522 219.407C215.259 220.005 214.898 220.521 214.441 220.954C213.926 221.435 213.393 221.783 212.842 222C212.268 222.229 211.632 222.343 210.935 222.343C210.231 222.343 209.596 222.229 209.027 222C208.447 221.771 207.911 221.426 207.419 220.963C206.933 220.494 206.581 219.976 206.364 219.407C206.112 218.862 205.986 218.256 205.986 217.588C205.986 216.938 206.112 216.325 206.364 215.751C206.599 215.171 206.953 214.655 207.428 214.204C207.891 213.759 208.424 213.416 209.027 213.176C209.602 212.953 210.237 212.842 210.935 212.842C211.626 212.842 212.262 212.953 212.842 213.176C213.445 213.416 213.979 213.759 214.441 214.204C214.928 214.644 215.288 215.159 215.522 215.751C215.774 216.325 215.9 216.938 215.9 217.588Z" fill="white"/>
<path d="M31.3984 9.6875H40.7734V26.375C40.7734 28.9219 40.8359 30.6875 40.9609 31.6719C41.1172 32.8438 41.3281 33.7344 41.5938 34.3438C41.9219 35.2344 42.5391 35.8906 43.4453 36.3125C44.3516 36.7969 45.4453 37.0391 46.7266 37.0391C47.9922 37.0391 49.0781 36.7969 49.9844 36.3125C50.8125 35.9062 51.4375 35.25 51.8594 34.3438C52.1094 33.7188 52.3125 32.8281 52.4688 31.6719C52.6094 30.7344 52.6797 28.9688 52.6797 26.375V24.0312V9.6875H61.9844V27.8281C61.9844 31.5469 61.7578 34.3125 61.3047 36.125C60.8828 37.9219 60.1172 39.4609 59.0078 40.7422C57.7891 42.1641 56.1719 43.2031 54.1562 43.8594C52.1562 44.5625 49.6797 44.9141 46.7266 44.9141C43.7109 44.9141 41.2266 44.5625 39.2734 43.8594C37.2891 43.2031 35.6719 42.1641 34.4219 40.7422C33.3438 39.4922 32.5781 37.9531 32.125 36.125C31.6406 34.2812 31.3984 31.5156 31.3984 27.8281V24.2656V9.6875ZM69.1094 44V9.6875H78.1328L91.0938 27.3359C91.4219 27.8203 91.8359 28.5469 92.3359 29.5156C92.9766 30.7656 93.6016 32.0547 94.2109 33.3828C93.9766 31.5859 93.8438 30.3281 93.8125 29.6094C93.7188 28.4844 93.6719 27.4922 93.6719 26.6328V9.6875H102.648V44H93.6719L80.7109 26.2812C80.5234 26.0312 80.1094 25.2969 79.4688 24.0781C78.9062 23.0781 78.2812 21.8125 77.5938 20.2812C77.75 21.5 77.8984 22.7656 78.0391 24.0781C78.1016 25.5469 78.1328 26.5391 78.1328 27.0547V44H69.1094ZM149.945 11.0234V21.2422C148.602 19.7891 147.336 18.7344 146.148 18.0781C144.82 17.4375 143.445 17.1172 142.023 17.1172C139.352 17.1172 137.172 18.0312 135.484 19.8594C134.906 20.5156 134.438 21.2031 134.078 21.9219C133.719 22.625 133.445 23.4297 133.258 24.3359C133.086 25.2266 133 26.1328 133 27.0547C133 29.8047 133.844 32.0938 135.531 33.9219C137.234 35.7188 139.398 36.6172 142.023 36.6172C143.43 36.6172 144.805 36.2812 146.148 35.6094C147.336 35 148.602 33.9531 149.945 32.4688V42.7109C148.211 43.5234 146.734 44.0625 145.516 44.3281C144 44.6875 142.516 44.8672 141.062 44.8672C139.219 44.8672 137.484 44.6406 135.859 44.1875C134.234 43.75 132.781 43.0781 131.5 42.1719C128.938 40.4219 126.984 38.2656 125.641 35.7031C124.297 33.0469 123.625 30.1016 123.625 26.8672C123.625 24.2734 124.062 21.8906 124.938 19.7188C125.328 18.6719 125.82 17.6875 126.414 16.7656C127.023 15.8281 127.805 14.8594 128.758 13.8594C130.398 12.1719 132.242 10.9219 134.289 10.1094C136.32 9.28125 138.578 8.86719 141.062 8.86719C142.484 8.86719 143.969 9.03906 145.516 9.38281C147.047 9.78906 148.523 10.3359 149.945 11.0234ZM155.219 44V9.6875H164.992C166.883 9.6875 168.477 9.72656 169.773 9.80469C171.086 9.88281 172.164 10.0156 173.008 10.2031C174.461 10.5469 175.758 11.1406 176.898 11.9844C178.148 12.9219 179.094 14.125 179.734 15.5938C180.406 17 180.742 18.5938 180.742 20.375C180.742 23.0156 180.086 25.1797 178.773 26.8672C177.492 28.5547 175.594 29.6562 173.078 30.1719L182.43 44H171.859L163.984 30.5703V44H155.219ZM163.984 25.9062H165.719C167.766 25.9062 169.242 25.5703 170.148 24.8984C171.07 24.1484 171.531 23.0625 171.531 21.6406C171.531 19.9219 171.102 18.7031 170.242 17.9844C169.367 17.25 167.906 16.8828 165.859 16.8828H163.984V25.9062ZM186.016 44V9.6875H207.039V17.2109H195.133V23.1641H206.359V30.5234H195.133V36.3125H207.039V44H186.016ZM202.75 0.757812L197.008 7.27344H194.125L197.523 0.757812H202.75ZM213.25 44V9.6875H220.398C225.805 9.6875 229.578 9.9375 231.719 10.4375C233.938 10.9375 235.875 11.7734 237.531 12.9453C239.719 14.4453 241.367 16.3828 242.477 18.7578C243.602 21.1484 244.164 23.8516 244.164 26.8672C244.164 29.8828 243.602 32.5859 242.477 34.9766C241.367 37.3203 239.719 39.2578 237.531 40.7891C235.812 41.9609 233.922 42.7734 231.859 43.2266C229.797 43.7422 226.5 44 221.969 44H220.398H213.25ZM222.508 36.3125H224.078C227.766 36.3125 230.445 35.5469 232.117 34.0156C233.805 32.5156 234.648 30.1328 234.648 26.8672C234.648 23.6172 233.805 21.2188 232.117 19.6719C230.43 18.125 227.75 17.3516 224.078 17.3516H222.508V36.3125ZM250.281 44V9.6875H259.727V44H250.281ZM272.242 44V17.7969H264.555V9.6875H289.281V17.7969H281.594V44H272.242ZM329.102 26.9141C329.102 29.3984 328.656 31.7188 327.766 33.875C326.875 35.9844 325.547 37.9062 323.781 39.6406C322.031 41.3281 320.031 42.625 317.781 43.5312C315.422 44.4531 313.086 44.9141 310.773 44.9141C308.43 44.9141 306.094 44.4531 303.766 43.5312C301.469 42.6094 299.484 41.3125 297.812 39.6406C296.125 38.0312 294.797 36.0938 293.828 33.8281C292.891 31.6094 292.422 29.3047 292.422 26.9141C292.422 24.5234 292.891 22.2188 293.828 20C294.797 17.7344 296.125 15.7969 297.812 14.1875C299.531 12.4688 301.516 11.1563 303.766 10.25C305.953 9.35938 308.289 8.91406 310.773 8.91406C313.258 8.91406 315.609 9.36719 317.828 10.2734C320.047 11.1641 322.023 12.4688 323.758 14.1875C325.508 15.9062 326.844 17.8438 327.766 20C328.656 22.1562 329.102 24.4609 329.102 26.9141ZM310.773 36.9922C313.352 36.9922 315.508 36.0312 317.242 34.1094C318.102 33.1562 318.734 32.0859 319.141 30.8984C319.547 29.7109 319.75 28.3828 319.75 26.9141C319.75 24.0547 318.898 21.6562 317.195 19.7188C315.461 17.7969 313.32 16.8359 310.773 16.8359C308.164 16.8359 306.016 17.7969 304.328 19.7188C302.641 21.6406 301.797 24.0391 301.797 26.9141C301.797 29.8984 302.625 32.3125 304.281 34.1562C305.984 36.0469 308.148 36.9922 310.773 36.9922ZM31.6562 92V57.6875H38.8047C44.2109 57.6875 47.9844 57.9375 50.125 58.4375C52.3438 58.9375 54.2812 59.7734 55.9375 60.9453C58.125 62.4453 59.7734 64.3828 60.8828 66.7578C62.0078 69.1484 62.5703 71.8516 62.5703 74.8672C62.5703 77.8828 62.0078 80.5859 60.8828 82.9766C59.7734 85.3203 58.125 87.2578 55.9375 88.7891C54.2188 89.9609 52.3281 90.7734 50.2656 91.2266C48.2031 91.7422 44.9062 92 40.375 92H38.8047H31.6562ZM40.9141 84.3125H42.4844C46.1719 84.3125 48.8516 83.5469 50.5234 82.0156C52.2109 80.5156 53.0547 78.1328 53.0547 74.8672C53.0547 71.6172 52.2109 69.2188 50.5234 67.6719C48.8359 66.125 46.1562 65.3516 42.4844 65.3516H40.9141V84.3125ZM68.4531 92V57.6875H89.4766V65.2109H77.5703V71.1641H88.7969V78.5234H77.5703V84.3125H89.4766V92H68.4531ZM119.805 79.1797H129.109L125.617 67.8594C125.539 67.6562 125.391 67.0938 125.172 66.1719C124.906 65.0938 124.664 64.1172 124.445 63.2422C124.227 64.0391 124.039 64.8438 123.883 65.6562C123.633 66.4375 123.422 67.1719 123.25 67.8594L119.805 79.1797ZM106.703 92L118.539 57.6875H130.258L142.117 92H132.812L131.078 85.8594H117.789L116.008 92H106.703ZM170.289 59.0234V69.2422C168.945 67.7891 167.68 66.7344 166.492 66.0781C165.164 65.4375 163.789 65.1172 162.367 65.1172C159.695 65.1172 157.516 66.0312 155.828 67.8594C155.25 68.5156 154.781 69.2031 154.422 69.9219C154.062 70.625 153.789 71.4297 153.602 72.3359C153.43 73.2266 153.344 74.1328 153.344 75.0547C153.344 77.8047 154.188 80.0938 155.875 81.9219C157.578 83.7188 159.742 84.6172 162.367 84.6172C163.773 84.6172 165.148 84.2812 166.492 83.6094C167.68 83 168.945 81.9531 170.289 80.4688V90.7109C168.555 91.5234 167.078 92.0625 165.859 92.3281C164.344 92.6875 162.859 92.8672 161.406 92.8672C159.562 92.8672 157.828 92.6406 156.203 92.1875C154.578 91.75 153.125 91.0781 151.844 90.1719C149.281 88.4219 147.328 86.2656 145.984 83.7031C144.641 81.0469 143.969 78.1016 143.969 74.8672C143.969 72.2734 144.406 69.8906 145.281 67.7188C145.672 66.6719 146.164 65.6875 146.758 64.7656C147.367 63.8281 148.148 62.8594 149.102 61.8594C150.742 60.1719 152.586 58.9219 154.633 58.1094C156.664 57.2812 158.922 56.8672 161.406 56.8672C162.828 56.8672 164.312 57.0391 165.859 57.3828C167.391 57.7891 168.867 58.3359 170.289 59.0234ZM175.305 57.6875H184.68V74.375C184.68 76.9219 184.742 78.6875 184.867 79.6719C185.023 80.8438 185.234 81.7344 185.5 82.3438C185.828 83.2344 186.445 83.8906 187.352 84.3125C188.258 84.7969 189.352 85.0391 190.633 85.0391C191.898 85.0391 192.984 84.7969 193.891 84.3125C194.719 83.9062 195.344 83.25 195.766 82.3438C196.016 81.7188 196.219 80.8281 196.375 79.6719C196.516 78.7344 196.586 76.9688 196.586 74.375V72.0312V57.6875H205.891V75.8281C205.891 79.5469 205.664 82.3125 205.211 84.125C204.789 85.9219 204.023 87.4609 202.914 88.7422C201.695 90.1641 200.078 91.2031 198.062 91.8594C196.062 92.5625 193.586 92.9141 190.633 92.9141C187.617 92.9141 185.133 92.5625 183.18 91.8594C181.195 91.2031 179.578 90.1641 178.328 88.7422C177.25 87.4922 176.484 85.9531 176.031 84.125C175.547 82.2812 175.305 79.5156 175.305 75.8281V72.2656V57.6875ZM213.016 92V57.6875H234.039V65.2109H222.133V71.1641H233.359V78.5234H222.133V84.3125H234.039V92H213.016ZM240.25 92V57.6875H250.023C251.914 57.6875 253.508 57.7266 254.805 57.8047C256.117 57.8828 257.195 58.0156 258.039 58.2031C259.492 58.5469 260.789 59.1406 261.93 59.9844C263.18 60.9219 264.125 62.125 264.766 63.5938C265.438 65 265.773 66.5938 265.773 68.375C265.773 71.0156 265.117 73.1797 263.805 74.8672C262.523 76.5547 260.625 77.6562 258.109 78.1719L267.461 92H256.891L249.016 78.5703V92H240.25ZM249.016 73.9062H250.75C252.797 73.9062 254.273 73.5703 255.18 72.8984C256.102 72.1484 256.562 71.0625 256.562 69.6406C256.562 67.9219 256.133 66.7031 255.273 65.9844C254.398 65.25 252.938 64.8828 250.891 64.8828H249.016V73.9062ZM271.047 92V57.6875H278.195C283.602 57.6875 287.375 57.9375 289.516 58.4375C291.734 58.9375 293.672 59.7734 295.328 60.9453C297.516 62.4453 299.164 64.3828 300.273 66.7578C301.398 69.1484 301.961 71.8516 301.961 74.8672C301.961 77.8828 301.398 80.5859 300.273 82.9766C299.164 85.3203 297.516 87.2578 295.328 88.7891C293.609 89.9609 291.719 90.7734 289.656 91.2266C287.594 91.7422 284.297 92 279.766 92H278.195H271.047ZM280.305 84.3125H281.875C285.562 84.3125 288.242 83.5469 289.914 82.0156C291.602 80.5156 292.445 78.1328 292.445 74.8672C292.445 71.6172 291.602 69.2188 289.914 67.6719C288.227 66.125 285.547 65.3516 281.875 65.3516H280.305V84.3125ZM343.07 74.9141C343.07 77.3984 342.625 79.7188 341.734 81.875C340.844 83.9844 339.516 85.9062 337.75 87.6406C336 89.3281 334 90.625 331.75 91.5312C329.391 92.4531 327.055 92.9141 324.742 92.9141C322.398 92.9141 320.062 92.4531 317.734 91.5312C315.438 90.6094 313.453 89.3125 311.781 87.6406C310.094 86.0312 308.766 84.0938 307.797 81.8281C306.859 79.6094 306.391 77.3047 306.391 74.9141C306.391 72.5234 306.859 70.2188 307.797 68C308.766 65.7344 310.094 63.7969 311.781 62.1875C313.5 60.4688 315.484 59.1562 317.734 58.25C319.922 57.3594 322.258 56.9141 324.742 56.9141C327.227 56.9141 329.578 57.3672 331.797 58.2734C334.016 59.1641 335.992 60.4688 337.727 62.1875C339.477 63.9062 340.812 65.8438 341.734 68C342.625 70.1562 343.07 72.4609 343.07 74.9141ZM324.742 84.9922C327.32 84.9922 329.477 84.0312 331.211 82.1094C332.07 81.1562 332.703 80.0859 333.109 78.8984C333.516 77.7109 333.719 76.3828 333.719 74.9141C333.719 72.0547 332.867 69.6562 331.164 67.7188C329.43 65.7969 327.289 64.8359 324.742 64.8359C322.133 64.8359 319.984 65.7969 318.297 67.7188C316.609 69.6406 315.766 72.0391 315.766 74.9141C315.766 77.8984 316.594 80.3125 318.25 82.1562C319.953 84.0469 322.117 84.9922 324.742 84.9922ZM373.07 79.1797H382.375L378.883 67.8594C378.805 67.6562 378.656 67.0938 378.438 66.1719C378.172 65.0938 377.93 64.1172 377.711 63.2422C377.492 64.0391 377.305 64.8438 377.148 65.6562C376.898 66.4375 376.688 67.1719 376.516 67.8594L373.07 79.1797ZM359.969 92L371.805 57.6875H383.523L395.383 92H386.078L384.344 85.8594H371.055L369.273 92H359.969ZM36.6016 140V113.797H28.9141V105.688H53.6406V113.797H45.9531V140H36.6016ZM57.9766 105.688H67.3516V122.375C67.3516 124.922 67.4141 126.688 67.5391 127.672C67.6953 128.844 67.9062 129.734 68.1719 130.344C68.5 131.234 69.1172 131.891 70.0234 132.312C70.9297 132.797 72.0234 133.039 73.3047 133.039C74.5703 133.039 75.6562 132.797 76.5625 132.312C77.3906 131.906 78.0156 131.25 78.4375 130.344C78.6875 129.719 78.8906 128.828 79.0469 127.672C79.1875 126.734 79.2578 124.969 79.2578 122.375V120.031V105.688H88.5625V123.828C88.5625 127.547 88.3359 130.312 87.8828 132.125C87.4609 133.922 86.6953 135.461 85.5859 136.742C84.3672 138.164 82.75 139.203 80.7344 139.859C78.7344 140.562 76.2578 140.914 73.3047 140.914C70.2891 140.914 67.8047 140.562 65.8516 139.859C63.8672 139.203 62.25 138.164 61 136.742C59.9219 135.492 59.1562 133.953 58.7031 132.125C58.2188 130.281 57.9766 127.516 57.9766 123.828V120.266V105.688ZM97.2109 128.914C98.6484 130.508 100.023 131.688 101.336 132.453C102.711 133.234 104.055 133.625 105.367 133.625C106.602 133.625 107.625 133.289 108.438 132.617C109.25 131.945 109.656 131.094 109.656 130.062C109.656 128.938 109.32 128.055 108.648 127.414C107.93 126.805 106.344 126.172 103.891 125.516C100.547 124.609 98.1797 123.438 96.7891 122C95.3828 120.531 94.6797 118.531 94.6797 116C94.6797 112.719 95.7812 110.047 97.9844 107.984C100.156 105.906 103 104.867 106.516 104.867C108.5 104.867 110.297 105.125 111.906 105.641C113.594 106.156 115.195 106.922 116.711 107.938L113.781 114.664C112.75 113.773 111.656 113.086 110.5 112.602C109.375 112.148 108.273 111.922 107.195 111.922C106.102 111.922 105.188 112.195 104.453 112.742C103.75 113.258 103.398 113.945 103.398 114.805C103.398 115.633 103.703 116.32 104.312 116.867C104.953 117.383 106.156 117.875 107.922 118.344C107.984 118.359 108.039 118.375 108.086 118.391C108.133 118.391 108.203 118.406 108.297 118.438C112.109 119.453 114.625 120.594 115.844 121.859C116.641 122.656 117.266 123.664 117.719 124.883C118.125 126.039 118.328 127.352 118.328 128.82C118.328 132.445 117.133 135.375 114.742 137.609C112.336 139.812 109.148 140.914 105.18 140.914C102.742 140.914 100.562 140.516 98.6406 139.719C96.7344 138.922 94.8516 137.641 92.9922 135.875L97.2109 128.914ZM138.625 140V105.688H147.648L160.609 123.336C160.938 123.82 161.352 124.547 161.852 125.516C162.492 126.766 163.117 128.055 163.727 129.383C163.492 127.586 163.359 126.328 163.328 125.609C163.234 124.484 163.188 123.492 163.188 122.633V105.688H172.164V140H163.188L150.227 122.281C150.039 122.031 149.625 121.297 148.984 120.078C148.422 119.078 147.797 117.812 147.109 116.281C147.266 117.5 147.414 118.766 147.555 120.078C147.617 121.547 147.648 122.539 147.648 123.055V140H138.625ZM179.547 140V105.688H200.57V113.211H188.664V119.164H199.891V126.523H188.664V132.312H200.57V140H179.547ZM231.648 107.023V117.242C230.305 115.789 229.039 114.734 227.852 114.078C226.523 113.438 225.148 113.117 223.727 113.117C221.055 113.117 218.875 114.031 217.188 115.859C216.609 116.516 216.141 117.203 215.781 117.922C215.422 118.625 215.148 119.43 214.961 120.336C214.789 121.227 214.703 122.133 214.703 123.055C214.703 125.805 215.547 128.094 217.234 129.922C218.938 131.719 221.102 132.617 223.727 132.617C225.133 132.617 226.508 132.281 227.852 131.609C229.039 131 230.305 129.953 231.648 128.469V138.711C229.914 139.523 228.438 140.062 227.219 140.328C225.703 140.688 224.219 140.867 222.766 140.867C220.922 140.867 219.188 140.641 217.562 140.188C215.938 139.75 214.484 139.078 213.203 138.172C210.641 136.422 208.688 134.266 207.344 131.703C206 129.047 205.328 126.102 205.328 122.867C205.328 120.273 205.766 117.891 206.641 115.719C207.031 114.672 207.523 113.688 208.117 112.766C208.727 111.828 209.508 110.859 210.461 109.859C212.102 108.172 213.945 106.922 215.992 106.109C218.023 105.281 220.281 104.867 222.766 104.867C224.188 104.867 225.672 105.039 227.219 105.383C228.75 105.789 230.227 106.336 231.648 107.023ZM236.922 140V105.688H257.945V113.211H246.039V119.164H257.266V126.523H246.039V132.312H257.945V140H236.922ZM265.68 128.914C267.117 130.508 268.492 131.688 269.805 132.453C271.18 133.234 272.523 133.625 273.836 133.625C275.07 133.625 276.094 133.289 276.906 132.617C277.719 131.945 278.125 131.094 278.125 130.062C278.125 128.938 277.789 128.055 277.117 127.414C276.398 126.805 274.812 126.172 272.359 125.516C269.016 124.609 266.648 123.438 265.258 122C263.852 120.531 263.148 118.531 263.148 116C263.148 112.719 264.25 110.047 266.453 107.984C268.625 105.906 271.469 104.867 274.984 104.867C276.969 104.867 278.766 105.125 280.375 105.641C282.062 106.156 283.664 106.922 285.18 107.938L282.25 114.664C281.219 113.773 280.125 113.086 278.969 112.602C277.844 112.148 276.742 111.922 275.664 111.922C274.57 111.922 273.656 112.195 272.922 112.742C272.219 113.258 271.867 113.945 271.867 114.805C271.867 115.633 272.172 116.32 272.781 116.867C273.422 117.383 274.625 117.875 276.391 118.344C276.453 118.359 276.508 118.375 276.555 118.391C276.602 118.391 276.672 118.406 276.766 118.438C280.578 119.453 283.094 120.594 284.312 121.859C285.109 122.656 285.734 123.664 286.188 124.883C286.594 126.039 286.797 127.352 286.797 128.82C286.797 132.445 285.602 135.375 283.211 137.609C280.805 139.812 277.617 140.914 273.648 140.914C271.211 140.914 269.031 140.516 267.109 139.719C265.203 138.922 263.32 137.641 261.461 135.875L265.68 128.914ZM292.281 140V105.688H301.727V140H292.281ZM309.297 140V105.688H316.445C321.852 105.688 325.625 105.938 327.766 106.438C329.984 106.938 331.922 107.773 333.578 108.945C335.766 110.445 337.414 112.383 338.523 114.758C339.648 117.148 340.211 119.852 340.211 122.867C340.211 125.883 339.648 128.586 338.523 130.977C337.414 133.32 335.766 135.258 333.578 136.789C331.859 137.961 329.969 138.773 327.906 139.227C325.844 139.742 322.547 140 318.016 140H316.445H309.297ZM318.555 132.312H320.125C323.812 132.312 326.492 131.547 328.164 130.016C329.852 128.516 330.695 126.133 330.695 122.867C330.695 119.617 329.852 117.219 328.164 115.672C326.477 114.125 323.797 113.352 320.125 113.352H318.555V132.312ZM355.164 127.18H364.469L360.977 115.859C360.898 115.656 360.75 115.094 360.531 114.172C360.266 113.094 360.023 112.117 359.805 111.242C359.586 112.039 359.398 112.844 359.242 113.656C358.992 114.438 358.781 115.172 358.609 115.859L355.164 127.18ZM342.062 140L353.898 105.688H365.617L377.477 140H368.172L366.438 133.859H353.148L351.367 140H342.062ZM380.781 140V105.688H387.93C393.336 105.688 397.109 105.938 399.25 106.438C401.469 106.938 403.406 107.773 405.062 108.945C407.25 110.445 408.898 112.383 410.008 114.758C411.133 117.148 411.695 119.852 411.695 122.867C411.695 125.883 411.133 128.586 410.008 130.977C408.898 133.32 407.25 135.258 405.062 136.789C403.344 137.961 401.453 138.773 399.391 139.227C397.328 139.742 394.031 140 389.5 140H387.93H380.781ZM390.039 132.312H391.609C395.297 132.312 397.977 131.547 399.648 130.016C401.336 128.516 402.18 126.133 402.18 122.867C402.18 119.617 401.336 117.219 399.648 115.672C397.961 114.125 395.281 113.352 391.609 113.352H390.039V132.312ZM417.578 140V105.688H438.602V113.211H426.695V119.164H437.922V126.523H426.695V132.312H438.602V140H417.578ZM446.336 128.914C447.773 130.508 449.148 131.688 450.461 132.453C451.836 133.234 453.18 133.625 454.492 133.625C455.727 133.625 456.75 133.289 457.562 132.617C458.375 131.945 458.781 131.094 458.781 130.062C458.781 128.938 458.445 128.055 457.773 127.414C457.055 126.805 455.469 126.172 453.016 125.516C449.672 124.609 447.305 123.438 445.914 122C444.508 120.531 443.805 118.531 443.805 116C443.805 112.719 444.906 110.047 447.109 107.984C449.281 105.906 452.125 104.867 455.641 104.867C457.625 104.867 459.422 105.125 461.031 105.641C462.719 106.156 464.32 106.922 465.836 107.938L462.906 114.664C461.875 113.773 460.781 113.086 459.625 112.602C458.5 112.148 457.398 111.922 456.32 111.922C455.227 111.922 454.312 112.195 453.578 112.742C452.875 113.258 452.523 113.945 452.523 114.805C452.523 115.633 452.828 116.32 453.438 116.867C454.078 117.383 455.281 117.875 457.047 118.344C457.109 118.359 457.164 118.375 457.211 118.391C457.258 118.391 457.328 118.406 457.422 118.438C461.234 119.453 463.75 120.594 464.969 121.859C465.766 122.656 466.391 123.664 466.844 124.883C467.25 126.039 467.453 127.352 467.453 128.82C467.453 132.445 466.258 135.375 463.867 137.609C461.461 139.812 458.273 140.914 454.305 140.914C451.867 140.914 449.688 140.516 447.766 139.719C445.859 138.922 443.977 137.641 442.117 135.875L446.336 128.914Z" fill="white"/>
<rect x="28" y="164" width="441" height="70" rx="16" fill="#002A61"/>
<path d="M44.7725 199.192H48.2617L46.9521 194.947C46.9229 194.871 46.8672 194.66 46.7852 194.314C46.6855 193.91 46.5947 193.544 46.5127 193.216C46.4307 193.515 46.3604 193.816 46.3018 194.121C46.208 194.414 46.1289 194.689 46.0645 194.947L44.7725 199.192ZM39.8594 204L44.2979 191.133H48.6924L53.1396 204H49.6504L49 201.697H44.0166L43.3486 204H39.8594ZM54.0889 192.354C54.0889 191.868 54.2559 191.467 54.5898 191.15C54.9297 190.811 55.3369 190.641 55.8115 190.641C56.2979 190.641 56.7139 190.805 57.0596 191.133C57.3818 191.455 57.543 191.862 57.543 192.354C57.543 192.847 57.373 193.263 57.0332 193.603C56.6992 193.937 56.292 194.104 55.8115 194.104C55.3486 194.104 54.9414 193.928 54.5898 193.576C54.2559 193.242 54.0889 192.835 54.0889 192.354ZM54.2471 207.92V195.123H57.3848V207.92H54.2471ZM68.8896 195.123V199.658C68.8896 200.672 68.8135 201.41 68.6611 201.873C68.4971 202.354 68.2217 202.787 67.835 203.174C67.4658 203.561 66.9795 203.854 66.376 204.053C65.8018 204.246 65.1104 204.343 64.3018 204.343C63.499 204.343 62.8164 204.246 62.2539 204.053C61.6738 203.865 61.1758 203.572 60.7598 203.174C60.3789 202.811 60.1094 202.383 59.9512 201.891C59.793 201.434 59.7139 200.689 59.7139 199.658V195.123H62.7021V199.86C62.7021 200.604 62.8281 201.138 63.0801 201.46C63.3086 201.8 63.7041 201.97 64.2666 201.97C64.8232 201.97 65.2217 201.806 65.4619 201.478C65.708 201.149 65.8311 200.61 65.8311 199.86V195.123H68.8896ZM70.3135 203.262L70.9639 200.871C71.4209 201.275 71.9248 201.58 72.4756 201.785C73.0205 202.002 73.5713 202.11 74.1279 202.11C74.5264 202.11 74.8252 202.043 75.0244 201.908C75.2295 201.785 75.332 201.606 75.332 201.372C75.332 200.979 74.9189 200.687 74.0928 200.493C73.8057 200.429 73.5889 200.373 73.4424 200.326C72.4873 200.045 71.8105 199.702 71.4121 199.298C70.9785 198.882 70.7617 198.343 70.7617 197.681C70.7617 196.825 71.0869 196.137 71.7373 195.615C72.3643 195.1 73.2402 194.842 74.3652 194.842C74.9102 194.842 75.4902 194.906 76.1055 195.035C76.6211 195.141 77.2217 195.346 77.9072 195.65L77.2568 197.804C76.835 197.517 76.4102 197.303 75.9824 197.162C75.5781 197.016 75.1533 196.942 74.708 196.942C74.3447 196.942 74.0723 196.998 73.8906 197.109C73.7148 197.215 73.627 197.376 73.627 197.593C73.627 197.897 74.04 198.161 74.8662 198.384C75.1357 198.466 75.2734 198.507 75.2793 198.507C76.3574 198.812 77.1133 199.172 77.5469 199.588C77.9688 200.027 78.1797 200.599 78.1797 201.302C78.1797 202.21 77.8311 202.942 77.1338 203.499C76.4189 204.062 75.4961 204.343 74.3652 204.343C73.5801 204.343 72.8564 204.252 72.1943 204.07C71.5381 203.895 70.9111 203.625 70.3135 203.262ZM80.3594 204L80.3418 197.338H79.0146V195.123H80.3418V192.478H83.4443V195.123H84.7539V197.338H83.4443V204H80.3594ZM92.9893 199.553C92.9893 198.85 92.8047 198.305 92.4355 197.918C92.0605 197.508 91.5566 197.303 90.9238 197.303C90.291 197.303 89.793 197.502 89.4297 197.9C89.0547 198.311 88.8672 198.861 88.8672 199.553C88.8672 200.25 89.0547 200.798 89.4297 201.196C89.7871 201.589 90.2852 201.785 90.9238 201.785C91.5566 201.785 92.0576 201.589 92.4268 201.196C92.8018 200.804 92.9893 200.256 92.9893 199.553ZM95.7402 195.123V204H92.8662V202.559C92.4502 203.174 91.9844 203.625 91.4688 203.912C90.959 204.199 90.3613 204.343 89.6758 204.343C88.4863 204.343 87.54 203.909 86.8369 203.042C86.4912 202.614 86.2275 202.11 86.0459 201.53C85.8643 200.95 85.7734 200.297 85.7734 199.57C85.7734 198.117 86.1455 196.966 86.8896 196.116C87.6338 195.267 88.6299 194.842 89.8779 194.842C90.5459 194.842 91.1201 194.985 91.6006 195.272C92.0869 195.548 92.5029 195.984 92.8486 196.582V195.123H95.7402ZM109.838 204V199.157C109.838 198.396 109.75 197.868 109.574 197.575C109.375 197.276 109.044 197.127 108.581 197.127C107.989 197.127 107.582 197.329 107.359 197.733C107.131 198.132 107.017 198.967 107.017 200.238V204H103.993V199.157C103.993 198.366 103.896 197.833 103.703 197.558C103.527 197.271 103.202 197.127 102.728 197.127C102.136 197.127 101.723 197.323 101.488 197.716C101.26 198.114 101.146 198.955 101.146 200.238V204H98.1045V195.123H101.181V196.67C101.556 196.049 101.983 195.589 102.464 195.29C102.933 194.991 103.501 194.842 104.169 194.842C104.89 194.842 105.484 194.979 105.953 195.255C106.398 195.536 106.724 195.955 106.929 196.512C107.286 195.932 107.711 195.513 108.203 195.255C108.689 194.979 109.272 194.842 109.952 194.842C110.485 194.842 110.951 194.93 111.35 195.105C111.76 195.299 112.097 195.568 112.36 195.914C112.583 196.189 112.738 196.515 112.826 196.89C112.914 197.235 112.958 197.848 112.958 198.727V198.92V204H109.838ZM121.475 199.588C121.475 198.926 121.308 198.404 120.974 198.023C120.628 197.643 120.177 197.452 119.62 197.452C119.046 197.452 118.595 197.643 118.267 198.023C117.933 198.393 117.766 198.914 117.766 199.588C117.766 200.244 117.927 200.76 118.249 201.135C118.601 201.521 119.058 201.715 119.62 201.715C120.183 201.715 120.64 201.521 120.991 201.135C121.313 200.748 121.475 200.232 121.475 199.588ZM124.586 199.588C124.586 200.238 124.46 200.845 124.208 201.407C123.944 202.005 123.584 202.521 123.127 202.954C122.611 203.435 122.078 203.783 121.527 204C120.953 204.229 120.317 204.343 119.62 204.343C118.917 204.343 118.281 204.229 117.713 204C117.133 203.771 116.597 203.426 116.104 202.963C115.618 202.494 115.267 201.976 115.05 201.407C114.798 200.862 114.672 200.256 114.672 199.588C114.672 198.938 114.798 198.325 115.05 197.751C115.284 197.171 115.639 196.655 116.113 196.204C116.576 195.759 117.109 195.416 117.713 195.176C118.287 194.953 118.923 194.842 119.62 194.842C120.312 194.842 120.947 194.953 121.527 195.176C122.131 195.416 122.664 195.759 123.127 196.204C123.613 196.644 123.974 197.159 124.208 197.751C124.46 198.325 124.586 198.938 124.586 199.588ZM125.562 203.262L126.212 200.871C126.669 201.275 127.173 201.58 127.724 201.785C128.269 202.002 128.819 202.11 129.376 202.11C129.774 202.11 130.073 202.043 130.272 201.908C130.478 201.785 130.58 201.606 130.58 201.372C130.58 200.979 130.167 200.687 129.341 200.493C129.054 200.429 128.837 200.373 128.69 200.326C127.735 200.045 127.059 199.702 126.66 199.298C126.227 198.882 126.01 198.343 126.01 197.681C126.01 196.825 126.335 196.137 126.985 195.615C127.612 195.1 128.488 194.842 129.613 194.842C130.158 194.842 130.738 194.906 131.354 195.035C131.869 195.141 132.47 195.346 133.155 195.65L132.505 197.804C132.083 197.517 131.658 197.303 131.23 197.162C130.826 197.016 130.401 196.942 129.956 196.942C129.593 196.942 129.32 196.998 129.139 197.109C128.963 197.215 128.875 197.376 128.875 197.593C128.875 197.897 129.288 198.161 130.114 198.384C130.384 198.466 130.521 198.507 130.527 198.507C131.605 198.812 132.361 199.172 132.795 199.588C133.217 200.027 133.428 200.599 133.428 201.302C133.428 202.21 133.079 202.942 132.382 203.499C131.667 204.062 130.744 204.343 129.613 204.343C128.828 204.343 128.104 204.252 127.442 204.07C126.786 203.895 126.159 203.625 125.562 203.262ZM146.866 198.419C146.813 197.927 146.623 197.525 146.295 197.215C145.967 196.904 145.565 196.749 145.091 196.749C144.593 196.749 144.188 196.887 143.878 197.162C143.556 197.473 143.354 197.892 143.271 198.419H146.866ZM149.951 200.186H143.201C143.219 200.877 143.392 201.404 143.72 201.768C144.06 202.143 144.552 202.33 145.196 202.33C145.665 202.33 146.066 202.239 146.4 202.058C146.74 201.864 146.986 201.601 147.139 201.267L149.494 202.216C149.219 202.89 148.721 203.411 148 203.78C147.285 204.155 146.409 204.343 145.372 204.343C143.825 204.343 142.583 203.909 141.646 203.042C140.714 202.198 140.248 201.07 140.248 199.658C140.248 198.281 140.714 197.13 141.646 196.204C142.577 195.296 143.761 194.842 145.196 194.842C146.661 194.842 147.818 195.302 148.668 196.222C149.102 196.696 149.424 197.25 149.635 197.883C149.846 198.51 149.951 199.228 149.951 200.036V200.186ZM151.841 204V190.377H154.979V204H151.841ZM169.393 198.041C169.088 197.771 168.795 197.575 168.514 197.452C168.262 197.329 167.966 197.268 167.626 197.268C166.999 197.268 166.507 197.473 166.149 197.883C165.78 198.287 165.596 198.844 165.596 199.553C165.596 200.232 165.786 200.771 166.167 201.17C166.536 201.58 167.049 201.785 167.705 201.785C168.016 201.785 168.314 201.721 168.602 201.592C168.906 201.445 169.17 201.252 169.393 201.012V203.728C169.018 203.927 168.64 204.085 168.259 204.202C167.854 204.296 167.471 204.343 167.107 204.343C165.736 204.343 164.632 203.903 163.794 203.024C163.507 202.731 163.27 202.409 163.082 202.058C162.9 201.706 162.76 201.325 162.66 200.915C162.566 200.505 162.52 200.057 162.52 199.57C162.52 198.17 162.947 197.033 163.803 196.16C164.664 195.281 165.777 194.842 167.143 194.842C167.57 194.842 167.978 194.889 168.364 194.982C168.739 195.076 169.082 195.214 169.393 195.396V198.041ZM171.335 204V195.123H174.288V197.215C174.599 196.447 175.012 195.876 175.527 195.501C176.061 195.12 176.702 194.93 177.452 194.93C177.622 194.93 177.748 194.936 177.83 194.947C177.895 194.953 177.953 194.959 178.006 194.965C178.059 194.965 178.126 194.971 178.208 194.982L177.909 197.83C177.692 197.76 177.505 197.71 177.347 197.681C177.112 197.657 176.939 197.646 176.828 197.646C176.066 197.646 175.478 197.88 175.062 198.349C174.651 198.812 174.446 199.471 174.446 200.326V204H171.335ZM185.485 198.419C185.433 197.927 185.242 197.525 184.914 197.215C184.586 196.904 184.185 196.749 183.71 196.749C183.212 196.749 182.808 196.887 182.497 197.162C182.175 197.473 181.973 197.892 181.891 198.419H185.485ZM188.57 200.186H181.82C181.838 200.877 182.011 201.404 182.339 201.768C182.679 202.143 183.171 202.33 183.815 202.33C184.284 202.33 184.686 202.239 185.02 202.058C185.359 201.864 185.605 201.601 185.758 201.267L188.113 202.216C187.838 202.89 187.34 203.411 186.619 203.78C185.904 204.155 185.028 204.343 183.991 204.343C182.444 204.343 181.202 203.909 180.265 203.042C179.333 202.198 178.867 201.07 178.867 199.658C178.867 198.281 179.333 197.13 180.265 196.204C181.196 195.296 182.38 194.842 183.815 194.842C185.28 194.842 186.438 195.302 187.287 196.222C187.721 196.696 188.043 197.25 188.254 197.883C188.465 198.51 188.57 199.228 188.57 200.036V200.186ZM186.408 191.493L184.246 193.937H183.165L184.448 191.493H186.408ZM197.157 199.57C197.157 198.873 196.979 198.328 196.621 197.936C196.24 197.537 195.736 197.338 195.109 197.338C194.477 197.338 193.979 197.537 193.615 197.936C193.252 198.334 193.07 198.879 193.07 199.57C193.07 200.268 193.252 200.815 193.615 201.214C193.973 201.606 194.471 201.803 195.109 201.803C195.742 201.803 196.246 201.606 196.621 201.214C196.979 200.821 197.157 200.273 197.157 199.57ZM199.935 190.377V204H197.052V202.559C196.653 203.162 196.202 203.607 195.698 203.895C195.229 204.193 194.679 204.343 194.046 204.343C192.804 204.343 191.811 203.909 191.066 203.042C190.328 202.175 189.959 201.018 189.959 199.57C189.959 198.164 190.331 197.019 191.075 196.134C191.813 195.272 192.769 194.842 193.94 194.842C194.69 194.842 195.3 194.979 195.769 195.255C196.22 195.507 196.642 195.955 197.034 196.6C197.011 196.441 196.987 196.201 196.964 195.879C196.94 195.527 196.929 195.24 196.929 195.018V190.377H199.935ZM202.185 204V195.123H205.313V204H202.185ZM202.58 192.838H202.598C202.598 192.51 202.712 192.24 202.94 192.029C203.169 191.801 203.444 191.687 203.767 191.687C204.106 191.687 204.385 191.795 204.602 192.012C204.824 192.229 204.936 192.504 204.936 192.838C204.936 193.178 204.821 193.459 204.593 193.682C204.37 193.91 204.095 194.024 203.767 194.024C203.433 194.024 203.151 193.904 202.923 193.664C202.694 193.441 202.58 193.166 202.58 192.838ZM208.381 204L208.363 197.338H207.036V195.123H208.363V192.478H211.466V195.123H212.775V197.338H211.466V204H208.381ZM220.545 199.588C220.545 198.926 220.378 198.404 220.044 198.023C219.698 197.643 219.247 197.452 218.69 197.452C218.116 197.452 217.665 197.643 217.337 198.023C217.003 198.393 216.836 198.914 216.836 199.588C216.836 200.244 216.997 200.76 217.319 201.135C217.671 201.521 218.128 201.715 218.69 201.715C219.253 201.715 219.71 201.521 220.062 201.135C220.384 200.748 220.545 200.232 220.545 199.588ZM223.656 199.588C223.656 200.238 223.53 200.845 223.278 201.407C223.015 202.005 222.654 202.521 222.197 202.954C221.682 203.435 221.148 203.783 220.598 204C220.023 204.229 219.388 204.343 218.69 204.343C217.987 204.343 217.352 204.229 216.783 204C216.203 203.771 215.667 203.426 215.175 202.963C214.688 202.494 214.337 201.976 214.12 201.407C213.868 200.862 213.742 200.256 213.742 199.588C213.742 198.938 213.868 198.325 214.12 197.751C214.354 197.171 214.709 196.655 215.184 196.204C215.646 195.759 216.18 195.416 216.783 195.176C217.357 194.953 217.993 194.842 218.69 194.842C219.382 194.842 220.018 194.953 220.598 195.176C221.201 195.416 221.734 195.759 222.197 196.204C222.684 196.644 223.044 197.159 223.278 197.751C223.53 198.325 223.656 198.938 223.656 199.588ZM237.868 199.553C237.868 198.85 237.684 198.305 237.314 197.918C236.939 197.508 236.436 197.303 235.803 197.303C235.17 197.303 234.672 197.502 234.309 197.9C233.934 198.311 233.746 198.861 233.746 199.553C233.746 200.25 233.934 200.798 234.309 201.196C234.666 201.589 235.164 201.785 235.803 201.785C236.436 201.785 236.937 201.589 237.306 201.196C237.681 200.804 237.868 200.256 237.868 199.553ZM240.619 195.123V204H237.745V202.559C237.329 203.174 236.863 203.625 236.348 203.912C235.838 204.199 235.24 204.343 234.555 204.343C233.365 204.343 232.419 203.909 231.716 203.042C231.37 202.614 231.106 202.11 230.925 201.53C230.743 200.95 230.652 200.297 230.652 199.57C230.652 198.117 231.024 196.966 231.769 196.116C232.513 195.267 233.509 194.842 234.757 194.842C235.425 194.842 235.999 194.985 236.479 195.272C236.966 195.548 237.382 195.984 237.728 196.582V195.123H240.619ZM249.127 204L249.109 197.338H247.782V195.123H249.109V192.478H252.212V195.123H253.521V197.338H252.212V204H249.127ZM264.095 195.123V199.658C264.095 200.672 264.019 201.41 263.866 201.873C263.702 202.354 263.427 202.787 263.04 203.174C262.671 203.561 262.185 203.854 261.581 204.053C261.007 204.246 260.315 204.343 259.507 204.343C258.704 204.343 258.021 204.246 257.459 204.053C256.879 203.865 256.381 203.572 255.965 203.174C255.584 202.811 255.314 202.383 255.156 201.891C254.998 201.434 254.919 200.689 254.919 199.658V195.123H257.907V199.86C257.907 200.604 258.033 201.138 258.285 201.46C258.514 201.8 258.909 201.97 259.472 201.97C260.028 201.97 260.427 201.806 260.667 201.478C260.913 201.149 261.036 200.61 261.036 199.86V195.123H264.095ZM278.359 198.041C278.055 197.771 277.762 197.575 277.48 197.452C277.229 197.329 276.933 197.268 276.593 197.268C275.966 197.268 275.474 197.473 275.116 197.883C274.747 198.287 274.562 198.844 274.562 199.553C274.562 200.232 274.753 200.771 275.134 201.17C275.503 201.58 276.016 201.785 276.672 201.785C276.982 201.785 277.281 201.721 277.568 201.592C277.873 201.445 278.137 201.252 278.359 201.012V203.728C277.984 203.927 277.606 204.085 277.226 204.202C276.821 204.296 276.438 204.343 276.074 204.343C274.703 204.343 273.599 203.903 272.761 203.024C272.474 202.731 272.236 202.409 272.049 202.058C271.867 201.706 271.727 201.325 271.627 200.915C271.533 200.505 271.486 200.057 271.486 199.57C271.486 198.17 271.914 197.033 272.77 196.16C273.631 195.281 274.744 194.842 276.109 194.842C276.537 194.842 276.944 194.889 277.331 194.982C277.706 195.076 278.049 195.214 278.359 195.396V198.041ZM287.052 199.553C287.052 198.85 286.867 198.305 286.498 197.918C286.123 197.508 285.619 197.303 284.986 197.303C284.354 197.303 283.855 197.502 283.492 197.9C283.117 198.311 282.93 198.861 282.93 199.553C282.93 200.25 283.117 200.798 283.492 201.196C283.85 201.589 284.348 201.785 284.986 201.785C285.619 201.785 286.12 201.589 286.489 201.196C286.864 200.804 287.052 200.256 287.052 199.553ZM289.803 195.123V204H286.929V202.559C286.513 203.174 286.047 203.625 285.531 203.912C285.021 204.199 284.424 204.343 283.738 204.343C282.549 204.343 281.603 203.909 280.899 203.042C280.554 202.614 280.29 202.11 280.108 201.53C279.927 200.95 279.836 200.297 279.836 199.57C279.836 198.117 280.208 196.966 280.952 196.116C281.696 195.267 282.692 194.842 283.94 194.842C284.608 194.842 285.183 194.985 285.663 195.272C286.149 195.548 286.565 195.984 286.911 196.582V195.123H289.803ZM294.962 199.588C294.962 200.279 295.146 200.827 295.516 201.231C295.855 201.624 296.348 201.82 296.992 201.82C297.631 201.82 298.129 201.624 298.486 201.231C298.844 200.821 299.022 200.273 299.022 199.588C299.022 198.891 298.844 198.346 298.486 197.953C298.123 197.555 297.625 197.355 296.992 197.355C296.354 197.355 295.861 197.555 295.516 197.953C295.146 198.34 294.962 198.885 294.962 199.588ZM292.185 207.92V195.141H295.067V196.617C295.448 196.049 295.896 195.606 296.412 195.29C296.898 195.003 297.452 194.859 298.073 194.859C298.7 194.859 299.263 194.965 299.761 195.176C300.259 195.381 300.692 195.694 301.062 196.116C301.794 196.954 302.16 198.111 302.16 199.588C302.16 201.006 301.794 202.151 301.062 203.024C300.687 203.47 300.262 203.801 299.787 204.018C299.318 204.234 298.782 204.343 298.179 204.343C297.423 204.343 296.811 204.205 296.342 203.93C295.891 203.666 295.472 203.209 295.085 202.559C295.114 202.699 295.138 202.916 295.155 203.209C295.167 203.379 295.173 203.689 295.173 204.141V207.92H292.185ZM310.817 199.553C310.817 198.85 310.633 198.305 310.264 197.918C309.889 197.508 309.385 197.303 308.752 197.303C308.119 197.303 307.621 197.502 307.258 197.9C306.883 198.311 306.695 198.861 306.695 199.553C306.695 200.25 306.883 200.798 307.258 201.196C307.615 201.589 308.113 201.785 308.752 201.785C309.385 201.785 309.886 201.589 310.255 201.196C310.63 200.804 310.817 200.256 310.817 199.553ZM313.568 195.123V204H310.694V202.559C310.278 203.174 309.812 203.625 309.297 203.912C308.787 204.199 308.189 204.343 307.504 204.343C306.314 204.343 305.368 203.909 304.665 203.042C304.319 202.614 304.056 202.11 303.874 201.53C303.692 200.95 303.602 200.297 303.602 199.57C303.602 198.117 303.974 196.966 304.718 196.116C305.462 195.267 306.458 194.842 307.706 194.842C308.374 194.842 308.948 194.985 309.429 195.272C309.915 195.548 310.331 195.984 310.677 196.582V195.123H313.568ZM322.305 198.041C322 197.771 321.707 197.575 321.426 197.452C321.174 197.329 320.878 197.268 320.538 197.268C319.911 197.268 319.419 197.473 319.062 197.883C318.692 198.287 318.508 198.844 318.508 199.553C318.508 200.232 318.698 200.771 319.079 201.17C319.448 201.58 319.961 201.785 320.617 201.785C320.928 201.785 321.227 201.721 321.514 201.592C321.818 201.445 322.082 201.252 322.305 201.012V203.728C321.93 203.927 321.552 204.085 321.171 204.202C320.767 204.296 320.383 204.343 320.02 204.343C318.648 204.343 317.544 203.903 316.706 203.024C316.419 202.731 316.182 202.409 315.994 202.058C315.812 201.706 315.672 201.325 315.572 200.915C315.479 200.505 315.432 200.057 315.432 199.57C315.432 198.17 315.859 197.033 316.715 196.16C317.576 195.281 318.689 194.842 320.055 194.842C320.482 194.842 320.89 194.889 321.276 194.982C321.651 195.076 321.994 195.214 322.305 195.396V198.041ZM324.159 204V195.123H327.288V204H324.159ZM324.555 192.838H324.572C324.572 192.51 324.687 192.24 324.915 192.029C325.144 191.801 325.419 191.687 325.741 191.687C326.081 191.687 326.359 191.795 326.576 192.012C326.799 192.229 326.91 192.504 326.91 192.838C326.91 193.178 326.796 193.459 326.567 193.682C326.345 193.91 326.069 194.024 325.741 194.024C325.407 194.024 325.126 193.904 324.897 193.664C324.669 193.441 324.555 193.166 324.555 192.838ZM336.64 199.57C336.64 198.873 336.461 198.328 336.104 197.936C335.723 197.537 335.219 197.338 334.592 197.338C333.959 197.338 333.461 197.537 333.098 197.936C332.734 198.334 332.553 198.879 332.553 199.57C332.553 200.268 332.734 200.815 333.098 201.214C333.455 201.606 333.953 201.803 334.592 201.803C335.225 201.803 335.729 201.606 336.104 201.214C336.461 200.821 336.64 200.273 336.64 199.57ZM339.417 190.377V204H336.534V202.559C336.136 203.162 335.685 203.607 335.181 203.895C334.712 204.193 334.161 204.343 333.528 204.343C332.286 204.343 331.293 203.909 330.549 203.042C329.811 202.175 329.441 201.018 329.441 199.57C329.441 198.164 329.813 197.019 330.558 196.134C331.296 195.272 332.251 194.842 333.423 194.842C334.173 194.842 334.782 194.979 335.251 195.255C335.702 195.507 336.124 195.955 336.517 196.6C336.493 196.441 336.47 196.201 336.446 195.879C336.423 195.527 336.411 195.24 336.411 195.018V190.377H339.417ZM348.505 199.553C348.505 198.85 348.32 198.305 347.951 197.918C347.576 197.508 347.072 197.303 346.439 197.303C345.807 197.303 345.309 197.502 344.945 197.9C344.57 198.311 344.383 198.861 344.383 199.553C344.383 200.25 344.57 200.798 344.945 201.196C345.303 201.589 345.801 201.785 346.439 201.785C347.072 201.785 347.573 201.589 347.942 201.196C348.317 200.804 348.505 200.256 348.505 199.553ZM351.256 195.123V204H348.382V202.559C347.966 203.174 347.5 203.625 346.984 203.912C346.475 204.199 345.877 204.343 345.191 204.343C344.002 204.343 343.056 203.909 342.353 203.042C342.007 202.614 341.743 202.11 341.562 201.53C341.38 200.95 341.289 200.297 341.289 199.57C341.289 198.117 341.661 196.966 342.405 196.116C343.149 195.267 344.146 194.842 345.394 194.842C346.062 194.842 346.636 194.985 347.116 195.272C347.603 195.548 348.019 195.984 348.364 196.582V195.123H351.256ZM360.405 199.57C360.405 198.873 360.227 198.328 359.869 197.936C359.488 197.537 358.984 197.338 358.357 197.338C357.725 197.338 357.227 197.537 356.863 197.936C356.5 198.334 356.318 198.879 356.318 199.57C356.318 200.268 356.5 200.815 356.863 201.214C357.221 201.606 357.719 201.803 358.357 201.803C358.99 201.803 359.494 201.606 359.869 201.214C360.227 200.821 360.405 200.273 360.405 199.57ZM363.183 190.377V204H360.3V202.559C359.901 203.162 359.45 203.607 358.946 203.895C358.478 204.193 357.927 204.343 357.294 204.343C356.052 204.343 355.059 203.909 354.314 203.042C353.576 202.175 353.207 201.018 353.207 199.57C353.207 198.164 353.579 197.019 354.323 196.134C355.062 195.272 356.017 194.842 357.188 194.842C357.938 194.842 358.548 194.979 359.017 195.255C359.468 195.507 359.89 195.955 360.282 196.6C360.259 196.441 360.235 196.201 360.212 195.879C360.188 195.527 360.177 195.24 360.177 195.018V190.377H363.183ZM377.931 199.57C377.931 198.873 377.752 198.328 377.395 197.936C377.014 197.537 376.51 197.338 375.883 197.338C375.25 197.338 374.752 197.537 374.389 197.936C374.025 198.334 373.844 198.879 373.844 199.57C373.844 200.268 374.025 200.815 374.389 201.214C374.746 201.606 375.244 201.803 375.883 201.803C376.516 201.803 377.02 201.606 377.395 201.214C377.752 200.821 377.931 200.273 377.931 199.57ZM380.708 190.377V204H377.825V202.559C377.427 203.162 376.976 203.607 376.472 203.895C376.003 204.193 375.452 204.343 374.819 204.343C373.577 204.343 372.584 203.909 371.84 203.042C371.102 202.175 370.732 201.018 370.732 199.57C370.732 198.164 371.104 197.019 371.849 196.134C372.587 195.272 373.542 194.842 374.714 194.842C375.464 194.842 376.073 194.979 376.542 195.255C376.993 195.507 377.415 195.955 377.808 196.6C377.784 196.441 377.761 196.201 377.737 195.879C377.714 195.527 377.702 195.24 377.702 195.018V190.377H380.708ZM389.146 198.419C389.093 197.927 388.902 197.525 388.574 197.215C388.246 196.904 387.845 196.749 387.37 196.749C386.872 196.749 386.468 196.887 386.157 197.162C385.835 197.473 385.633 197.892 385.551 198.419H389.146ZM392.23 200.186H385.48C385.498 200.877 385.671 201.404 385.999 201.768C386.339 202.143 386.831 202.33 387.476 202.33C387.944 202.33 388.346 202.239 388.68 202.058C389.02 201.864 389.266 201.601 389.418 201.267L391.773 202.216C391.498 202.89 391 203.411 390.279 203.78C389.564 204.155 388.688 204.343 387.651 204.343C386.104 204.343 384.862 203.909 383.925 203.042C382.993 202.198 382.527 201.07 382.527 199.658C382.527 198.281 382.993 197.13 383.925 196.204C384.856 195.296 386.04 194.842 387.476 194.842C388.94 194.842 390.098 195.302 390.947 196.222C391.381 196.696 391.703 197.25 391.914 197.883C392.125 198.51 392.23 199.228 392.23 200.036V200.186ZM402.47 199.588C402.47 200.279 402.654 200.827 403.023 201.231C403.363 201.624 403.855 201.82 404.5 201.82C405.139 201.82 405.637 201.624 405.994 201.231C406.352 200.821 406.53 200.273 406.53 199.588C406.53 198.891 406.352 198.346 405.994 197.953C405.631 197.555 405.133 197.355 404.5 197.355C403.861 197.355 403.369 197.555 403.023 197.953C402.654 198.34 402.47 198.885 402.47 199.588ZM399.692 207.92V195.141H402.575V196.617C402.956 196.049 403.404 195.606 403.92 195.29C404.406 195.003 404.96 194.859 405.581 194.859C406.208 194.859 406.771 194.965 407.269 195.176C407.767 195.381 408.2 195.694 408.569 196.116C409.302 196.954 409.668 198.111 409.668 199.588C409.668 201.006 409.302 202.151 408.569 203.024C408.194 203.47 407.77 203.801 407.295 204.018C406.826 204.234 406.29 204.343 405.687 204.343C404.931 204.343 404.318 204.205 403.85 203.93C403.398 203.666 402.979 203.209 402.593 202.559C402.622 202.699 402.646 202.916 402.663 203.209C402.675 203.379 402.681 203.689 402.681 204.141V207.92H399.692ZM418.325 199.553C418.325 198.85 418.141 198.305 417.771 197.918C417.396 197.508 416.893 197.303 416.26 197.303C415.627 197.303 415.129 197.502 414.766 197.9C414.391 198.311 414.203 198.861 414.203 199.553C414.203 200.25 414.391 200.798 414.766 201.196C415.123 201.589 415.621 201.785 416.26 201.785C416.893 201.785 417.394 201.589 417.763 201.196C418.138 200.804 418.325 200.256 418.325 199.553ZM421.076 195.123V204H418.202V202.559C417.786 203.174 417.32 203.625 416.805 203.912C416.295 204.199 415.697 204.343 415.012 204.343C413.822 204.343 412.876 203.909 412.173 203.042C411.827 202.614 411.563 202.11 411.382 201.53C411.2 200.95 411.109 200.297 411.109 199.57C411.109 198.117 411.481 196.966 412.226 196.116C412.97 195.267 413.966 194.842 415.214 194.842C415.882 194.842 416.456 194.985 416.937 195.272C417.423 195.548 417.839 195.984 418.185 196.582V195.123H421.076ZM430.208 199.535C430.208 198.85 430.029 198.311 429.672 197.918C429.285 197.531 428.775 197.338 428.143 197.338C427.51 197.338 427 197.531 426.613 197.918C426.238 198.311 426.051 198.85 426.051 199.535C426.051 200.227 426.238 200.76 426.613 201.135C426.994 201.533 427.504 201.732 428.143 201.732C428.77 201.732 429.273 201.533 429.654 201.135C430.023 200.766 430.208 200.232 430.208 199.535ZM432.959 195.123V203.982C432.959 205.324 432.552 206.314 431.737 206.953C431.345 207.27 430.829 207.51 430.19 207.674C429.552 207.838 428.802 207.92 427.94 207.92C426.54 207.92 425.453 207.662 424.68 207.146C423.906 206.625 423.493 205.901 423.44 204.976H426.684C426.742 205.257 426.897 205.471 427.149 205.617C427.407 205.775 427.75 205.854 428.178 205.854C428.846 205.854 429.312 205.693 429.575 205.371C429.827 205.049 429.953 204.363 429.953 203.314V202.506C429.619 203.068 429.2 203.481 428.696 203.745C428.175 204.021 427.568 204.158 426.877 204.158C425.705 204.158 424.765 203.733 424.056 202.884C423.71 202.468 423.446 201.979 423.265 201.416C423.083 200.848 422.992 200.209 422.992 199.5C422.992 198.082 423.364 196.948 424.108 196.099C424.478 195.677 424.911 195.363 425.409 195.158C425.913 194.947 426.476 194.842 427.097 194.842C427.759 194.842 428.333 194.979 428.819 195.255C429.3 195.513 429.716 195.943 430.067 196.547V195.123H432.959ZM441.625 199.588C441.625 198.926 441.458 198.404 441.124 198.023C440.778 197.643 440.327 197.452 439.771 197.452C439.196 197.452 438.745 197.643 438.417 198.023C438.083 198.393 437.916 198.914 437.916 199.588C437.916 200.244 438.077 200.76 438.399 201.135C438.751 201.521 439.208 201.715 439.771 201.715C440.333 201.715 440.79 201.521 441.142 201.135C441.464 200.748 441.625 200.232 441.625 199.588ZM444.736 199.588C444.736 200.238 444.61 200.845 444.358 201.407C444.095 202.005 443.734 202.521 443.277 202.954C442.762 203.435 442.229 203.783 441.678 204C441.104 204.229 440.468 204.343 439.771 204.343C439.067 204.343 438.432 204.229 437.863 204C437.283 203.771 436.747 203.426 436.255 202.963C435.769 202.494 435.417 201.976 435.2 201.407C434.948 200.862 434.822 200.256 434.822 199.588C434.822 198.938 434.948 198.325 435.2 197.751C435.435 197.171 435.789 196.655 436.264 196.204C436.727 195.759 437.26 195.416 437.863 195.176C438.438 194.953 439.073 194.842 439.771 194.842C440.462 194.842 441.098 194.953 441.678 195.176C442.281 195.416 442.814 195.759 443.277 196.204C443.764 196.644 444.124 197.159 444.358 197.751C444.61 198.325 444.736 198.938 444.736 199.588Z" fill="white"/>
</svg>
