<svg width="505" height="189" viewBox="0 0 505 189" fill="none" xmlns="http://www.w3.org/2000/svg">
<path d="M30.6562 51V16.6875H40.0078V42.9844H51.6328V51H30.6562ZM65.2734 38.1797H74.5781L71.0859 26.8594C71.0078 26.6562 70.8594 26.0938 70.6406 25.1719C70.375 24.0938 70.1328 23.1172 69.9141 22.2422C69.6953 23.0391 69.5078 23.8438 69.3516 24.6562C69.1016 25.4375 68.8906 26.1719 68.7188 26.8594L65.2734 38.1797ZM52.1719 51L64.0078 16.6875H75.7266L87.5859 51H78.2812L76.5469 44.8594H63.2578L61.4766 51H52.1719ZM130.805 18.0234V28.2422C129.461 26.7891 128.195 25.7344 127.008 25.0781C125.68 24.4375 124.305 24.1172 122.883 24.1172C120.211 24.1172 118.031 25.0312 116.344 26.8594C115.766 27.5156 115.297 28.2031 114.938 28.9219C114.578 29.625 114.305 30.4297 114.117 31.3359C113.945 32.2266 113.859 33.1328 113.859 34.0547C113.859 36.8047 114.703 39.0938 116.391 40.9219C118.094 42.7188 120.258 43.6172 122.883 43.6172C124.289 43.6172 125.664 43.2812 127.008 42.6094C128.195 42 129.461 40.9531 130.805 39.4688V49.7109C129.07 50.5234 127.594 51.0625 126.375 51.3281C124.859 51.6875 123.375 51.8672 121.922 51.8672C120.078 51.8672 118.344 51.6406 116.719 51.1875C115.094 50.75 113.641 50.0781 112.359 49.1719C109.797 47.4219 107.844 45.2656 106.5 42.7031C105.156 40.0469 104.484 37.1016 104.484 33.8672C104.484 31.2734 104.922 28.8906 105.797 26.7188C106.188 25.6719 106.68 24.6875 107.273 23.7656C107.883 22.8281 108.664 21.8594 109.617 20.8594C111.258 19.1719 113.102 17.9219 115.148 17.1094C117.18 16.2812 119.438 15.8672 121.922 15.8672C123.344 15.8672 124.828 16.0391 126.375 16.3828C127.906 16.7891 129.383 17.3359 130.805 18.0234ZM135.82 16.6875H145.195V33.375C145.195 35.9219 145.258 37.6875 145.383 38.6719C145.539 39.8438 145.75 40.7344 146.016 41.3438C146.344 42.2344 146.961 42.8906 147.867 43.3125C148.773 43.7969 149.867 44.0391 151.148 44.0391C152.414 44.0391 153.5 43.7969 154.406 43.3125C155.234 42.9062 155.859 42.25 156.281 41.3438C156.531 40.7188 156.734 39.8281 156.891 38.6719C157.031 37.7344 157.102 35.9688 157.102 33.375V31.0312V16.6875H166.406V34.8281C166.406 38.5469 166.18 41.3125 165.727 43.125C165.305 44.9219 164.539 46.4609 163.43 47.7422C162.211 49.1641 160.594 50.2031 158.578 50.8594C156.578 51.5625 154.102 51.9141 151.148 51.9141C148.133 51.9141 145.648 51.5625 143.695 50.8594C141.711 50.2031 140.094 49.1641 138.844 47.7422C137.766 46.4922 137 44.9531 136.547 43.125C136.062 41.2812 135.82 38.5156 135.82 34.8281V31.2656V16.6875ZM173.531 51V16.6875H194.555V24.2109H182.648V30.1641H193.875V37.5234H182.648V43.3125H194.555V51H173.531ZM200.766 51V16.6875H209.789L222.75 34.3359C223.078 34.8203 223.492 35.5469 223.992 36.5156C224.633 37.7656 225.258 39.0547 225.867 40.3828C225.633 38.5859 225.5 37.3281 225.469 36.6094C225.375 35.4844 225.328 34.4922 225.328 33.6328V16.6875H234.305V51H225.328L212.367 33.2812C212.18 33.0312 211.766 32.2969 211.125 31.0781C210.562 30.0781 209.938 28.8125 209.25 27.2812C209.406 28.5 209.555 29.7656 209.695 31.0781C209.758 32.5469 209.789 33.5391 209.789 34.0547V51H200.766ZM246.633 51V24.7969H238.945V16.6875H263.672V24.7969H255.984V51H246.633ZM277.336 38.1797H286.641L283.148 26.8594C283.07 26.6562 282.922 26.0938 282.703 25.1719C282.438 24.0938 282.195 23.1172 281.977 22.2422C281.758 23.0391 281.57 23.8438 281.414 24.6562C281.164 25.4375 280.953 26.1719 280.781 26.8594L277.336 38.1797ZM264.234 51L276.07 16.6875H287.789L299.648 51H290.344L288.609 44.8594H275.32L273.539 51H264.234ZM340.547 37.3125L342.328 39.6797C342.859 38.9297 343.242 38.0625 343.477 37.0781C343.742 36.0469 343.875 35.0703 343.875 34.1484C343.875 31.1484 343.039 28.6719 341.367 26.7188C339.648 24.7656 337.492 23.7891 334.898 23.7891C332.352 23.7891 330.219 24.7656 328.5 26.7188C326.781 28.625 325.922 31.0234 325.922 33.9141C325.922 36.8516 326.766 39.2812 328.453 41.2031C330.188 43.125 332.352 44.0859 334.945 44.0859C335.258 44.0859 335.641 44.0391 336.094 43.9453C336.438 43.8984 336.836 43.7734 337.289 43.5703L332.438 37.3125H340.547ZM353.953 55.0312H345.984L342.328 50.2266C341.406 50.7266 340.305 51.125 339.023 51.4219C337.773 51.6875 336.445 51.8203 335.039 51.8203C332.992 51.8203 331.117 51.5625 329.414 51.0469C327.648 50.5312 325.984 49.7656 324.422 48.75C321.984 47.1094 320.062 44.9609 318.656 42.3047C317.25 39.6328 316.547 36.8203 316.547 33.8672C316.547 31.4766 317.016 29.1797 317.953 26.9766C318.891 24.7578 320.219 22.8125 321.938 21.1406C323.625 19.4688 325.586 18.1719 327.82 17.25C330.039 16.3594 332.398 15.9141 334.898 15.9141C337.383 15.9141 339.734 16.3594 341.953 17.25C344.172 18.1719 346.141 19.4688 347.859 21.1406C349.609 22.875 350.93 24.8125 351.82 26.9531C352.758 29.1719 353.227 31.4766 353.227 33.8672C353.227 36.3672 352.758 38.75 351.82 41.0156C350.898 43.1562 349.523 45.0625 347.695 46.7344L353.953 55.0312ZM358.852 16.6875H368.227V33.375C368.227 35.9219 368.289 37.6875 368.414 38.6719C368.57 39.8438 368.781 40.7344 369.047 41.3438C369.375 42.2344 369.992 42.8906 370.898 43.3125C371.805 43.7969 372.898 44.0391 374.18 44.0391C375.445 44.0391 376.531 43.7969 377.438 43.3125C378.266 42.9062 378.891 42.25 379.312 41.3438C379.562 40.7188 379.766 39.8281 379.922 38.6719C380.062 37.7344 380.133 35.9688 380.133 33.375V31.0312V16.6875H389.438V34.8281C389.438 38.5469 389.211 41.3125 388.758 43.125C388.336 44.9219 387.57 46.4609 386.461 47.7422C385.242 49.1641 383.625 50.2031 381.609 50.8594C379.609 51.5625 377.133 51.9141 374.18 51.9141C371.164 51.9141 368.68 51.5625 366.727 50.8594C364.742 50.2031 363.125 49.1641 361.875 47.7422C360.797 46.4922 360.031 44.9531 359.578 43.125C359.094 41.2812 358.852 38.5156 358.852 34.8281V31.2656V16.6875ZM396.562 51V16.6875H417.586V24.2109H405.68V30.1641H416.906V37.5234H405.68V43.3125H417.586V51H396.562ZM443.789 51V24.7969H436.102V16.6875H460.828V24.7969H453.141V51H443.789ZM465.164 16.6875H474.539V33.375C474.539 35.9219 474.602 37.6875 474.727 38.6719C474.883 39.8438 475.094 40.7344 475.359 41.3438C475.688 42.2344 476.305 42.8906 477.211 43.3125C478.117 43.7969 479.211 44.0391 480.492 44.0391C481.758 44.0391 482.844 43.7969 483.75 43.3125C484.578 42.9062 485.203 42.25 485.625 41.3438C485.875 40.7188 486.078 39.8281 486.234 38.6719C486.375 37.7344 486.445 35.9688 486.445 33.375V31.0312V16.6875H495.75V34.8281C495.75 38.5469 495.523 41.3125 495.07 43.125C494.648 44.9219 493.883 46.4609 492.773 47.7422C491.555 49.1641 489.938 50.2031 487.922 50.8594C485.922 51.5625 483.445 51.9141 480.492 51.9141C477.477 51.9141 474.992 51.5625 473.039 50.8594C471.055 50.2031 469.438 49.1641 468.188 47.7422C467.109 46.4922 466.344 44.9531 465.891 43.125C465.406 41.2812 465.164 38.5156 465.164 34.8281V31.2656V16.6875ZM30.6562 99V64.6875H51.6797V72.2109H39.7734V78.1641H51V85.5234H39.7734V91.3125H51.6797V99H30.6562ZM97.2422 99H88.5L86.4844 84.1641C86.3125 82.8359 86.1875 81.6719 86.1094 80.6719C86 79.6875 85.8906 78.2891 85.7812 76.4766C85.5 78.1016 85.0625 79.9141 84.4688 81.9141C84.3438 82.3047 84.25 82.6406 84.1875 82.9219L79.5234 99H73.2891L68.625 82.9219C68.5781 82.6562 68.4844 82.3203 68.3438 81.9141C67.6875 79.8047 67.2578 77.9922 67.0547 76.4766C66.9297 78.1953 66.8125 79.4766 66.7031 80.3203C66.6562 80.7578 66.5859 81.3984 66.4922 82.2422C66.3984 83.0859 66.3281 83.7266 66.2812 84.1641L64.2656 99H55.5703L60.8672 64.6875H70.125L75.3047 82.3828C75.3984 82.7109 75.4609 82.9219 75.4922 83.0156C75.9453 84.4844 76.25 85.8281 76.4062 87.0469C76.4375 86.625 76.5547 85.9375 76.7578 84.9844C76.8203 84.75 77.0547 83.8672 77.4609 82.3359L82.6875 64.6875H91.9688L97.2422 99ZM111.047 99H102.281V64.6875H112.055C115.852 64.6875 118.547 64.875 120.141 65.25C121.703 65.6562 123.008 66.2969 124.055 67.1719C125.305 68.2188 126.266 69.5156 126.938 71.0625C127.609 72.6406 127.945 74.3984 127.945 76.3359C127.945 78.3984 127.609 80.1953 126.938 81.7266C126.344 83.2734 125.383 84.5547 124.055 85.5703C123.102 86.3203 121.953 86.8594 120.609 87.1875C119.406 87.5156 117.312 87.6797 114.328 87.6797H112.734H111.047V99ZM111.047 80.1328H112.828C115.047 80.1328 116.617 79.8125 117.539 79.1719C118.43 78.5781 118.875 77.5391 118.875 76.0547C118.875 74.6328 118.438 73.6172 117.562 73.0078C116.703 72.3828 115.156 72.0703 112.922 72.0703H111.047V80.1328ZM132.703 99V64.6875H142.477C144.367 64.6875 145.961 64.7266 147.258 64.8047C148.57 64.8828 149.648 65.0156 150.492 65.2031C151.945 65.5469 153.242 66.1406 154.383 66.9844C155.633 67.9219 156.578 69.125 157.219 70.5938C157.891 72 158.227 73.5938 158.227 75.375C158.227 78.0156 157.57 80.1797 156.258 81.8672C154.977 83.5547 153.078 84.6562 150.562 85.1719L159.914 99H149.344L141.469 85.5703V99H132.703ZM141.469 80.9062H143.203C145.25 80.9062 146.727 80.5703 147.633 79.8984C148.555 79.1484 149.016 78.0625 149.016 76.6406C149.016 74.9219 148.586 73.7031 147.727 72.9844C146.852 72.25 145.391 71.8828 143.344 71.8828H141.469V80.9062ZM163.5 99V64.6875H184.523V72.2109H172.617V78.1641H183.844V85.5234H172.617V91.3125H184.523V99H163.5ZM192.258 87.9141C193.695 89.5078 195.07 90.6875 196.383 91.4531C197.758 92.2344 199.102 92.625 200.414 92.625C201.648 92.625 202.672 92.2891 203.484 91.6172C204.297 90.9453 204.703 90.0938 204.703 89.0625C204.703 87.9375 204.367 87.0547 203.695 86.4141C202.977 85.8047 201.391 85.1719 198.938 84.5156C195.594 83.6094 193.227 82.4375 191.836 81C190.43 79.5312 189.727 77.5312 189.727 75C189.727 71.7188 190.828 69.0469 193.031 66.9844C195.203 64.9062 198.047 63.8672 201.562 63.8672C203.547 63.8672 205.344 64.125 206.953 64.6406C208.641 65.1562 210.242 65.9219 211.758 66.9375L208.828 73.6641C207.797 72.7734 206.703 72.0859 205.547 71.6016C204.422 71.1484 203.32 70.9219 202.242 70.9219C201.148 70.9219 200.234 71.1953 199.5 71.7422C198.797 72.2578 198.445 72.9453 198.445 73.8047C198.445 74.6328 198.75 75.3203 199.359 75.8672C200 76.3828 201.203 76.875 202.969 77.3438C203.031 77.3594 203.086 77.375 203.133 77.3906C203.18 77.3906 203.25 77.4062 203.344 77.4375C207.156 78.4531 209.672 79.5938 210.891 80.8594C211.688 81.6562 212.312 82.6641 212.766 83.8828C213.172 85.0391 213.375 86.3516 213.375 87.8203C213.375 91.4453 212.18 94.375 209.789 96.6094C207.383 98.8125 204.195 99.9141 200.227 99.9141C197.789 99.9141 195.609 99.5156 193.688 98.7188C191.781 97.9219 189.898 96.6406 188.039 94.875L192.258 87.9141ZM227.695 86.1797H237L233.508 74.8594C233.43 74.6562 233.281 74.0938 233.062 73.1719C232.797 72.0938 232.555 71.1172 232.336 70.2422C232.117 71.0391 231.93 71.8438 231.773 72.6562C231.523 73.4375 231.312 74.1719 231.141 74.8594L227.695 86.1797ZM214.594 99L226.43 64.6875H238.148L250.008 99H240.703L238.969 92.8594H225.68L223.898 99H214.594ZM268.359 99V64.6875H277.383L290.344 82.3359C290.672 82.8203 291.086 83.5469 291.586 84.5156C292.227 85.7656 292.852 87.0547 293.461 88.3828C293.227 86.5859 293.094 85.3281 293.062 84.6094C292.969 83.4844 292.922 82.4922 292.922 81.6328V64.6875H301.898V99H292.922L279.961 81.2812C279.773 81.0312 279.359 80.2969 278.719 79.0781C278.156 78.0781 277.531 76.8125 276.844 75.2812C277 76.5 277.148 77.7656 277.289 79.0781C277.352 80.5469 277.383 81.5391 277.383 82.0547V99H268.359ZM309.281 99V64.6875H330.305V72.2109H318.398V78.1641H329.625V85.5234H318.398V91.3125H330.305V99H309.281ZM361.383 66.0234V76.2422C360.039 74.7891 358.773 73.7344 357.586 73.0781C356.258 72.4375 354.883 72.1172 353.461 72.1172C350.789 72.1172 348.609 73.0312 346.922 74.8594C346.344 75.5156 345.875 76.2031 345.516 76.9219C345.156 77.625 344.883 78.4297 344.695 79.3359C344.523 80.2266 344.438 81.1328 344.438 82.0547C344.438 84.8047 345.281 87.0938 346.969 88.9219C348.672 90.7188 350.836 91.6172 353.461 91.6172C354.867 91.6172 356.242 91.2812 357.586 90.6094C358.773 90 360.039 88.9531 361.383 87.4688V97.7109C359.648 98.5234 358.172 99.0625 356.953 99.3281C355.438 99.6875 353.953 99.8672 352.5 99.8672C350.656 99.8672 348.922 99.6406 347.297 99.1875C345.672 98.75 344.219 98.0781 342.938 97.1719C340.375 95.4219 338.422 93.2656 337.078 90.7031C335.734 88.0469 335.062 85.1016 335.062 81.8672C335.062 79.2734 335.5 76.8906 336.375 74.7188C336.766 73.6719 337.258 72.6875 337.852 71.7656C338.461 70.8281 339.242 69.8594 340.195 68.8594C341.836 67.1719 343.68 65.9219 345.727 65.1094C347.758 64.2812 350.016 63.8672 352.5 63.8672C353.922 63.8672 355.406 64.0391 356.953 64.3828C358.484 64.7891 359.961 65.3359 361.383 66.0234ZM366.656 99V64.6875H387.68V72.2109H375.773V78.1641H387V85.5234H375.773V91.3125H387.68V99H366.656ZM395.414 87.9141C396.852 89.5078 398.227 90.6875 399.539 91.4531C400.914 92.2344 402.258 92.625 403.57 92.625C404.805 92.625 405.828 92.2891 406.641 91.6172C407.453 90.9453 407.859 90.0938 407.859 89.0625C407.859 87.9375 407.523 87.0547 406.852 86.4141C406.133 85.8047 404.547 85.1719 402.094 84.5156C398.75 83.6094 396.383 82.4375 394.992 81C393.586 79.5312 392.883 77.5312 392.883 75C392.883 71.7188 393.984 69.0469 396.188 66.9844C398.359 64.9062 401.203 63.8672 404.719 63.8672C406.703 63.8672 408.5 64.125 410.109 64.6406C411.797 65.1562 413.398 65.9219 414.914 66.9375L411.984 73.6641C410.953 72.7734 409.859 72.0859 408.703 71.6016C407.578 71.1484 406.477 70.9219 405.398 70.9219C404.305 70.9219 403.391 71.1953 402.656 71.7422C401.953 72.2578 401.602 72.9453 401.602 73.8047C401.602 74.6328 401.906 75.3203 402.516 75.8672C403.156 76.3828 404.359 76.875 406.125 77.3438C406.188 77.3594 406.242 77.375 406.289 77.3906C406.336 77.3906 406.406 77.4062 406.5 77.4375C410.312 78.4531 412.828 79.5938 414.047 80.8594C414.844 81.6562 415.469 82.6641 415.922 83.8828C416.328 85.0391 416.531 86.3516 416.531 87.8203C416.531 91.4453 415.336 94.375 412.945 96.6094C410.539 98.8125 407.352 99.9141 403.383 99.9141C400.945 99.9141 398.766 99.5156 396.844 98.7188C394.938 97.9219 393.055 96.6406 391.195 94.875L395.414 87.9141ZM422.016 99V64.6875H431.461V99H422.016ZM443.977 99V72.7969H436.289V64.6875H461.016V72.7969H453.328V99H443.977ZM474.68 86.1797H483.984L480.492 74.8594C480.414 74.6562 480.266 74.0938 480.047 73.1719C479.781 72.0938 479.539 71.1172 479.32 70.2422C479.102 71.0391 478.914 71.8438 478.758 72.6562C478.508 73.4375 478.297 74.1719 478.125 74.8594L474.68 86.1797ZM461.578 99L473.414 64.6875H485.133L496.992 99H487.688L485.953 92.8594H472.664L470.883 99H461.578Z" fill="white"/>
<path d="M26 149H14C9.58172 149 6 145.418 6 141V13.5" stroke="white" stroke-width="1.5"/>
<path d="M12.622 7.0784C12.622 10.6144 9.92461 13.4068 6.68598 13.4068C3.44736 13.4068 0.75 10.6144 0.75 7.0784C0.75 3.54244 3.44736 0.75 6.68598 0.75C9.92461 0.75 12.622 3.54244 12.622 7.0784Z" stroke="white" stroke-width="1.5"/>
<rect x="24" y="127" width="438" height="62" rx="16" fill="#002A61"/>
<path d="M45.7725 157.192H49.2617L47.9521 152.947C47.9229 152.871 47.8672 152.66 47.7852 152.314C47.6855 151.91 47.5947 151.544 47.5127 151.216C47.4307 151.515 47.3604 151.816 47.3018 152.121C47.208 152.414 47.1289 152.689 47.0645 152.947L45.7725 157.192ZM40.8594 162L45.2979 149.133H49.6924L54.1396 162H50.6504L50 159.697H45.0166L44.3486 162H40.8594ZM61.9443 157.57C61.9443 156.873 61.7656 156.328 61.4082 155.936C61.0273 155.537 60.5234 155.338 59.8965 155.338C59.2637 155.338 58.7656 155.537 58.4023 155.936C58.0391 156.334 57.8574 156.879 57.8574 157.57C57.8574 158.268 58.0391 158.815 58.4023 159.214C58.7598 159.606 59.2578 159.803 59.8965 159.803C60.5293 159.803 61.0332 159.606 61.4082 159.214C61.7656 158.821 61.9443 158.273 61.9443 157.57ZM64.7217 148.377V162H61.8389V160.559C61.4404 161.162 60.9893 161.607 60.4854 161.895C60.0166 162.193 59.4658 162.343 58.833 162.343C57.5908 162.343 56.5977 161.909 55.8535 161.042C55.1152 160.175 54.7461 159.018 54.7461 157.57C54.7461 156.164 55.1182 155.019 55.8623 154.134C56.6006 153.272 57.5557 152.842 58.7275 152.842C59.4775 152.842 60.0869 152.979 60.5557 153.255C61.0068 153.507 61.4287 153.955 61.8213 154.6C61.7979 154.441 61.7744 154.201 61.751 153.879C61.7275 153.527 61.7158 153.24 61.7158 153.018V148.377H64.7217ZM78.7754 162V157.157C78.7754 156.396 78.6875 155.868 78.5117 155.575C78.3125 155.276 77.9814 155.127 77.5186 155.127C76.9268 155.127 76.5195 155.329 76.2969 155.733C76.0684 156.132 75.9541 156.967 75.9541 158.238V162H72.9307V157.157C72.9307 156.366 72.834 155.833 72.6406 155.558C72.4648 155.271 72.1396 155.127 71.665 155.127C71.0732 155.127 70.6602 155.323 70.4258 155.716C70.1973 156.114 70.083 156.955 70.083 158.238V162H67.042V153.123H70.1182V154.67C70.4932 154.049 70.9209 153.589 71.4014 153.29C71.8701 152.991 72.4385 152.842 73.1064 152.842C73.8271 152.842 74.4219 152.979 74.8906 153.255C75.3359 153.536 75.6611 153.955 75.8662 154.512C76.2236 153.932 76.6484 153.513 77.1406 153.255C77.627 152.979 78.21 152.842 78.8896 152.842C79.4229 152.842 79.8887 152.93 80.2871 153.105C80.6973 153.299 81.0342 153.568 81.2979 153.914C81.5205 154.189 81.6758 154.515 81.7637 154.89C81.8516 155.235 81.8955 155.848 81.8955 156.727V156.92V162H78.7754ZM84.04 162V153.123H87.1689V162H84.04ZM84.4355 150.838H84.4531C84.4531 150.51 84.5674 150.24 84.7959 150.029C85.0244 149.801 85.2998 149.687 85.6221 149.687C85.9619 149.687 86.2402 149.795 86.457 150.012C86.6797 150.229 86.791 150.504 86.791 150.838C86.791 151.178 86.6768 151.459 86.4482 151.682C86.2256 151.91 85.9502 152.024 85.6221 152.024C85.2881 152.024 85.0068 151.904 84.7783 151.664C84.5498 151.441 84.4355 151.166 84.4355 150.838ZM89.7354 162V153.123H92.6006V154.925C93.0049 154.222 93.4854 153.694 94.042 153.343C94.5811 153.009 95.2344 152.842 96.002 152.842C96.582 152.842 97.0977 152.93 97.5488 153.105C97.9941 153.305 98.3545 153.574 98.6299 153.914C98.8818 154.254 99.0488 154.614 99.1309 154.995C99.2305 155.481 99.2803 156.123 99.2803 156.92V162H96.1426V157.245C96.1426 156.524 96.0283 156.009 95.7998 155.698C95.5713 155.376 95.1992 155.215 94.6836 155.215C94.0391 155.215 93.5645 155.455 93.2598 155.936C92.9609 156.416 92.8115 157.195 92.8115 158.273V162H89.7354ZM101.425 162V153.123H104.554V162H101.425ZM101.82 150.838H101.838C101.838 150.51 101.952 150.24 102.181 150.029C102.409 149.801 102.685 149.687 103.007 149.687C103.347 149.687 103.625 149.795 103.842 150.012C104.064 150.229 104.176 150.504 104.176 150.838C104.176 151.178 104.062 151.459 103.833 151.682C103.61 151.91 103.335 152.024 103.007 152.024C102.673 152.024 102.392 151.904 102.163 151.664C101.935 151.441 101.82 151.166 101.82 150.838ZM106.294 161.262L106.944 158.871C107.401 159.275 107.905 159.58 108.456 159.785C109.001 160.002 109.552 160.11 110.108 160.11C110.507 160.11 110.806 160.043 111.005 159.908C111.21 159.785 111.312 159.606 111.312 159.372C111.312 158.979 110.899 158.687 110.073 158.493C109.786 158.429 109.569 158.373 109.423 158.326C108.468 158.045 107.791 157.702 107.393 157.298C106.959 156.882 106.742 156.343 106.742 155.681C106.742 154.825 107.067 154.137 107.718 153.615C108.345 153.1 109.221 152.842 110.346 152.842C110.891 152.842 111.471 152.906 112.086 153.035C112.602 153.141 113.202 153.346 113.888 153.65L113.237 155.804C112.815 155.517 112.391 155.303 111.963 155.162C111.559 155.016 111.134 154.942 110.688 154.942C110.325 154.942 110.053 154.998 109.871 155.109C109.695 155.215 109.607 155.376 109.607 155.593C109.607 155.897 110.021 156.161 110.847 156.384C111.116 156.466 111.254 156.507 111.26 156.507C112.338 156.812 113.094 157.172 113.527 157.588C113.949 158.027 114.16 158.599 114.16 159.302C114.16 160.21 113.812 160.942 113.114 161.499C112.399 162.062 111.477 162.343 110.346 162.343C109.561 162.343 108.837 162.252 108.175 162.07C107.519 161.895 106.892 161.625 106.294 161.262ZM116.34 162L116.322 155.338H114.995V153.123H116.322V150.478H119.425V153.123H120.734V155.338H119.425V162H116.34ZM122.22 162V153.123H125.173V155.215C125.483 154.447 125.896 153.876 126.412 153.501C126.945 153.12 127.587 152.93 128.337 152.93C128.507 152.93 128.633 152.936 128.715 152.947C128.779 152.953 128.838 152.959 128.891 152.965C128.943 152.965 129.011 152.971 129.093 152.982L128.794 155.83C128.577 155.76 128.39 155.71 128.231 155.681C127.997 155.657 127.824 155.646 127.713 155.646C126.951 155.646 126.362 155.88 125.946 156.349C125.536 156.812 125.331 157.471 125.331 158.326V162H122.22ZM137.021 157.553C137.021 156.85 136.836 156.305 136.467 155.918C136.092 155.508 135.588 155.303 134.955 155.303C134.322 155.303 133.824 155.502 133.461 155.9C133.086 156.311 132.898 156.861 132.898 157.553C132.898 158.25 133.086 158.798 133.461 159.196C133.818 159.589 134.316 159.785 134.955 159.785C135.588 159.785 136.089 159.589 136.458 159.196C136.833 158.804 137.021 158.256 137.021 157.553ZM139.771 153.123V162H136.897V160.559C136.481 161.174 136.016 161.625 135.5 161.912C134.99 162.199 134.393 162.343 133.707 162.343C132.518 162.343 131.571 161.909 130.868 161.042C130.522 160.614 130.259 160.11 130.077 159.53C129.896 158.95 129.805 158.297 129.805 157.57C129.805 156.117 130.177 154.966 130.921 154.116C131.665 153.267 132.661 152.842 133.909 152.842C134.577 152.842 135.151 152.985 135.632 153.272C136.118 153.548 136.534 153.984 136.88 154.582V153.123H139.771ZM148.279 162L148.262 155.338H146.935V153.123H148.262V150.478H151.364V153.123H152.674V155.338H151.364V162H148.279ZM163.247 153.123V157.658C163.247 158.672 163.171 159.41 163.019 159.873C162.854 160.354 162.579 160.787 162.192 161.174C161.823 161.561 161.337 161.854 160.733 162.053C160.159 162.246 159.468 162.343 158.659 162.343C157.856 162.343 157.174 162.246 156.611 162.053C156.031 161.865 155.533 161.572 155.117 161.174C154.736 160.811 154.467 160.383 154.309 159.891C154.15 159.434 154.071 158.689 154.071 157.658V153.123H157.06V157.86C157.06 158.604 157.186 159.138 157.438 159.46C157.666 159.8 158.062 159.97 158.624 159.97C159.181 159.97 159.579 159.806 159.819 159.478C160.065 159.149 160.188 158.61 160.188 157.86V153.123H163.247ZM164.671 161.262L165.321 158.871C165.778 159.275 166.282 159.58 166.833 159.785C167.378 160.002 167.929 160.11 168.485 160.11C168.884 160.11 169.183 160.043 169.382 159.908C169.587 159.785 169.689 159.606 169.689 159.372C169.689 158.979 169.276 158.687 168.45 158.493C168.163 158.429 167.946 158.373 167.8 158.326C166.845 158.045 166.168 157.702 165.77 157.298C165.336 156.882 165.119 156.343 165.119 155.681C165.119 154.825 165.444 154.137 166.095 153.615C166.722 153.1 167.598 152.842 168.723 152.842C169.268 152.842 169.848 152.906 170.463 153.035C170.979 153.141 171.579 153.346 172.265 153.65L171.614 155.804C171.192 155.517 170.768 155.303 170.34 155.162C169.936 155.016 169.511 154.942 169.065 154.942C168.702 154.942 168.43 154.998 168.248 155.109C168.072 155.215 167.984 155.376 167.984 155.593C167.984 155.897 168.397 156.161 169.224 156.384C169.493 156.466 169.631 156.507 169.637 156.507C170.715 156.812 171.471 157.172 171.904 157.588C172.326 158.027 172.537 158.599 172.537 159.302C172.537 160.21 172.188 160.942 171.491 161.499C170.776 162.062 169.854 162.343 168.723 162.343C167.938 162.343 167.214 162.252 166.552 162.07C165.896 161.895 165.269 161.625 164.671 161.262ZM179.876 162V153.123H182.829V155.215C183.14 154.447 183.553 153.876 184.068 153.501C184.602 153.12 185.243 152.93 185.993 152.93C186.163 152.93 186.289 152.936 186.371 152.947C186.436 152.953 186.494 152.959 186.547 152.965C186.6 152.965 186.667 152.971 186.749 152.982L186.45 155.83C186.233 155.76 186.046 155.71 185.888 155.681C185.653 155.657 185.48 155.646 185.369 155.646C184.607 155.646 184.019 155.88 183.603 156.349C183.192 156.812 182.987 157.471 182.987 158.326V162H179.876ZM194.026 156.419C193.974 155.927 193.783 155.525 193.455 155.215C193.127 154.904 192.726 154.749 192.251 154.749C191.753 154.749 191.349 154.887 191.038 155.162C190.716 155.473 190.514 155.892 190.432 156.419H194.026ZM197.111 158.186H190.361C190.379 158.877 190.552 159.404 190.88 159.768C191.22 160.143 191.712 160.33 192.356 160.33C192.825 160.33 193.227 160.239 193.561 160.058C193.9 159.864 194.146 159.601 194.299 159.267L196.654 160.216C196.379 160.89 195.881 161.411 195.16 161.78C194.445 162.155 193.569 162.343 192.532 162.343C190.985 162.343 189.743 161.909 188.806 161.042C187.874 160.198 187.408 159.07 187.408 157.658C187.408 156.281 187.874 155.13 188.806 154.204C189.737 153.296 190.921 152.842 192.356 152.842C193.821 152.842 194.979 153.302 195.828 154.222C196.262 154.696 196.584 155.25 196.795 155.883C197.006 156.51 197.111 157.228 197.111 158.036V158.186ZM205.285 156.041C204.98 155.771 204.688 155.575 204.406 155.452C204.154 155.329 203.858 155.268 203.519 155.268C202.892 155.268 202.399 155.473 202.042 155.883C201.673 156.287 201.488 156.844 201.488 157.553C201.488 158.232 201.679 158.771 202.06 159.17C202.429 159.58 202.941 159.785 203.598 159.785C203.908 159.785 204.207 159.721 204.494 159.592C204.799 159.445 205.062 159.252 205.285 159.012V161.728C204.91 161.927 204.532 162.085 204.151 162.202C203.747 162.296 203.363 162.343 203 162.343C201.629 162.343 200.524 161.903 199.687 161.024C199.399 160.731 199.162 160.409 198.975 160.058C198.793 159.706 198.652 159.325 198.553 158.915C198.459 158.505 198.412 158.057 198.412 157.57C198.412 156.17 198.84 155.033 199.695 154.16C200.557 153.281 201.67 152.842 203.035 152.842C203.463 152.842 203.87 152.889 204.257 152.982C204.632 153.076 204.975 153.214 205.285 153.396V156.041ZM216.315 153.123V157.658C216.315 158.672 216.239 159.41 216.087 159.873C215.923 160.354 215.647 160.787 215.261 161.174C214.892 161.561 214.405 161.854 213.802 162.053C213.228 162.246 212.536 162.343 211.728 162.343C210.925 162.343 210.242 162.246 209.68 162.053C209.1 161.865 208.602 161.572 208.186 161.174C207.805 160.811 207.535 160.383 207.377 159.891C207.219 159.434 207.14 158.689 207.14 157.658V153.123H210.128V157.86C210.128 158.604 210.254 159.138 210.506 159.46C210.734 159.8 211.13 159.97 211.692 159.97C212.249 159.97 212.647 159.806 212.888 159.478C213.134 159.149 213.257 158.61 213.257 157.86V153.123H216.315ZM218.583 162V153.123H221.536V155.215C221.847 154.447 222.26 153.876 222.775 153.501C223.309 153.12 223.95 152.93 224.7 152.93C224.87 152.93 224.996 152.936 225.078 152.947C225.143 152.953 225.201 152.959 225.254 152.965C225.307 152.965 225.374 152.971 225.456 152.982L225.157 155.83C224.94 155.76 224.753 155.71 224.595 155.681C224.36 155.657 224.188 155.646 224.076 155.646C223.314 155.646 222.726 155.88 222.31 156.349C221.899 156.812 221.694 157.471 221.694 158.326V162H218.583ZM225.79 161.262L226.44 158.871C226.897 159.275 227.401 159.58 227.952 159.785C228.497 160.002 229.048 160.11 229.604 160.11C230.003 160.11 230.302 160.043 230.501 159.908C230.706 159.785 230.809 159.606 230.809 159.372C230.809 158.979 230.396 158.687 229.569 158.493C229.282 158.429 229.065 158.373 228.919 158.326C227.964 158.045 227.287 157.702 226.889 157.298C226.455 156.882 226.238 156.343 226.238 155.681C226.238 154.825 226.563 154.137 227.214 153.615C227.841 153.1 228.717 152.842 229.842 152.842C230.387 152.842 230.967 152.906 231.582 153.035C232.098 153.141 232.698 153.346 233.384 153.65L232.733 155.804C232.312 155.517 231.887 155.303 231.459 155.162C231.055 155.016 230.63 154.942 230.185 154.942C229.821 154.942 229.549 154.998 229.367 155.109C229.191 155.215 229.104 155.376 229.104 155.593C229.104 155.897 229.517 156.161 230.343 156.384C230.612 156.466 230.75 156.507 230.756 156.507C231.834 156.812 232.59 157.172 233.023 157.588C233.445 158.027 233.656 158.599 233.656 159.302C233.656 160.21 233.308 160.942 232.61 161.499C231.896 162.062 230.973 162.343 229.842 162.343C229.057 162.343 228.333 162.252 227.671 162.07C227.015 161.895 226.388 161.625 225.79 161.262ZM241.637 157.588C241.637 156.926 241.47 156.404 241.136 156.023C240.79 155.643 240.339 155.452 239.782 155.452C239.208 155.452 238.757 155.643 238.429 156.023C238.095 156.393 237.928 156.914 237.928 157.588C237.928 158.244 238.089 158.76 238.411 159.135C238.763 159.521 239.22 159.715 239.782 159.715C240.345 159.715 240.802 159.521 241.153 159.135C241.476 158.748 241.637 158.232 241.637 157.588ZM244.748 157.588C244.748 158.238 244.622 158.845 244.37 159.407C244.106 160.005 243.746 160.521 243.289 160.954C242.773 161.435 242.24 161.783 241.689 162C241.115 162.229 240.479 162.343 239.782 162.343C239.079 162.343 238.443 162.229 237.875 162C237.295 161.771 236.759 161.426 236.267 160.963C235.78 160.494 235.429 159.976 235.212 159.407C234.96 158.862 234.834 158.256 234.834 157.588C234.834 156.938 234.96 156.325 235.212 155.751C235.446 155.171 235.801 154.655 236.275 154.204C236.738 153.759 237.271 153.416 237.875 153.176C238.449 152.953 239.085 152.842 239.782 152.842C240.474 152.842 241.109 152.953 241.689 153.176C242.293 153.416 242.826 153.759 243.289 154.204C243.775 154.644 244.136 155.159 244.37 155.751C244.622 156.325 244.748 156.938 244.748 157.588ZM245.724 161.262L246.374 158.871C246.831 159.275 247.335 159.58 247.886 159.785C248.431 160.002 248.981 160.11 249.538 160.11C249.937 160.11 250.235 160.043 250.435 159.908C250.64 159.785 250.742 159.606 250.742 159.372C250.742 158.979 250.329 158.687 249.503 158.493C249.216 158.429 248.999 158.373 248.853 158.326C247.897 158.045 247.221 157.702 246.822 157.298C246.389 156.882 246.172 156.343 246.172 155.681C246.172 154.825 246.497 154.137 247.147 153.615C247.774 153.1 248.65 152.842 249.775 152.842C250.32 152.842 250.9 152.906 251.516 153.035C252.031 153.141 252.632 153.346 253.317 153.65L252.667 155.804C252.245 155.517 251.82 155.303 251.393 155.162C250.988 155.016 250.563 154.942 250.118 154.942C249.755 154.942 249.482 154.998 249.301 155.109C249.125 155.215 249.037 155.376 249.037 155.593C249.037 155.897 249.45 156.161 250.276 156.384C250.546 156.466 250.684 156.507 250.689 156.507C251.768 156.812 252.523 157.172 252.957 157.588C253.379 158.027 253.59 158.599 253.59 159.302C253.59 160.21 253.241 160.942 252.544 161.499C251.829 162.062 250.906 162.343 249.775 162.343C248.99 162.343 248.267 162.252 247.604 162.07C246.948 161.895 246.321 161.625 245.724 161.262ZM267.696 157.57C267.696 156.873 267.518 156.328 267.16 155.936C266.779 155.537 266.275 155.338 265.648 155.338C265.016 155.338 264.518 155.537 264.154 155.936C263.791 156.334 263.609 156.879 263.609 157.57C263.609 158.268 263.791 158.815 264.154 159.214C264.512 159.606 265.01 159.803 265.648 159.803C266.281 159.803 266.785 159.606 267.16 159.214C267.518 158.821 267.696 158.273 267.696 157.57ZM270.474 148.377V162H267.591V160.559C267.192 161.162 266.741 161.607 266.237 161.895C265.769 162.193 265.218 162.343 264.585 162.343C263.343 162.343 262.35 161.909 261.605 161.042C260.867 160.175 260.498 159.018 260.498 157.57C260.498 156.164 260.87 155.019 261.614 154.134C262.353 153.272 263.308 152.842 264.479 152.842C265.229 152.842 265.839 152.979 266.308 153.255C266.759 153.507 267.181 153.955 267.573 154.6C267.55 154.441 267.526 154.201 267.503 153.879C267.479 153.527 267.468 153.24 267.468 153.018V148.377H270.474ZM278.911 156.419C278.858 155.927 278.668 155.525 278.34 155.215C278.012 154.904 277.61 154.749 277.136 154.749C276.638 154.749 276.233 154.887 275.923 155.162C275.601 155.473 275.398 155.892 275.316 156.419H278.911ZM281.996 158.186H275.246C275.264 158.877 275.437 159.404 275.765 159.768C276.104 160.143 276.597 160.33 277.241 160.33C277.71 160.33 278.111 160.239 278.445 160.058C278.785 159.864 279.031 159.601 279.184 159.267L281.539 160.216C281.264 160.89 280.766 161.411 280.045 161.78C279.33 162.155 278.454 162.343 277.417 162.343C275.87 162.343 274.628 161.909 273.69 161.042C272.759 160.198 272.293 159.07 272.293 157.658C272.293 156.281 272.759 155.13 273.69 154.204C274.622 153.296 275.806 152.842 277.241 152.842C278.706 152.842 279.863 153.302 280.713 154.222C281.146 154.696 281.469 155.25 281.68 155.883C281.891 156.51 281.996 157.228 281.996 158.036V158.186ZM301.174 162V157.157C301.174 156.396 301.086 155.868 300.91 155.575C300.711 155.276 300.38 155.127 299.917 155.127C299.325 155.127 298.918 155.329 298.695 155.733C298.467 156.132 298.353 156.967 298.353 158.238V162H295.329V157.157C295.329 156.366 295.232 155.833 295.039 155.558C294.863 155.271 294.538 155.127 294.063 155.127C293.472 155.127 293.059 155.323 292.824 155.716C292.596 156.114 292.481 156.955 292.481 158.238V162H289.44V153.123H292.517V154.67C292.892 154.049 293.319 153.589 293.8 153.29C294.269 152.991 294.837 152.842 295.505 152.842C296.226 152.842 296.82 152.979 297.289 153.255C297.734 153.536 298.06 153.955 298.265 154.512C298.622 153.932 299.047 153.513 299.539 153.255C300.025 152.979 300.608 152.842 301.288 152.842C301.821 152.842 302.287 152.93 302.686 153.105C303.096 153.299 303.433 153.568 303.696 153.914C303.919 154.189 304.074 154.515 304.162 154.89C304.25 155.235 304.294 155.848 304.294 156.727V156.92V162H301.174ZM313.276 157.553C313.276 156.85 313.092 156.305 312.723 155.918C312.348 155.508 311.844 155.303 311.211 155.303C310.578 155.303 310.08 155.502 309.717 155.9C309.342 156.311 309.154 156.861 309.154 157.553C309.154 158.25 309.342 158.798 309.717 159.196C310.074 159.589 310.572 159.785 311.211 159.785C311.844 159.785 312.345 159.589 312.714 159.196C313.089 158.804 313.276 158.256 313.276 157.553ZM316.027 153.123V162H313.153V160.559C312.737 161.174 312.271 161.625 311.756 161.912C311.246 162.199 310.648 162.343 309.963 162.343C308.773 162.343 307.827 161.909 307.124 161.042C306.778 160.614 306.515 160.11 306.333 159.53C306.151 158.95 306.061 158.297 306.061 157.57C306.061 156.117 306.433 154.966 307.177 154.116C307.921 153.267 308.917 152.842 310.165 152.842C310.833 152.842 311.407 152.985 311.888 153.272C312.374 153.548 312.79 153.984 313.136 154.582V153.123H316.027ZM318.392 162V153.123H321.257V154.925C321.661 154.222 322.142 153.694 322.698 153.343C323.237 153.009 323.891 152.842 324.658 152.842C325.238 152.842 325.754 152.93 326.205 153.105C326.65 153.305 327.011 153.574 327.286 153.914C327.538 154.254 327.705 154.614 327.787 154.995C327.887 155.481 327.937 156.123 327.937 156.92V162H324.799V157.245C324.799 156.524 324.685 156.009 324.456 155.698C324.228 155.376 323.855 155.215 323.34 155.215C322.695 155.215 322.221 155.455 321.916 155.936C321.617 156.416 321.468 157.195 321.468 158.273V162H318.392ZM336.269 156.419C336.216 155.927 336.025 155.525 335.697 155.215C335.369 154.904 334.968 154.749 334.493 154.749C333.995 154.749 333.591 154.887 333.28 155.162C332.958 155.473 332.756 155.892 332.674 156.419H336.269ZM339.354 158.186H332.604C332.621 158.877 332.794 159.404 333.122 159.768C333.462 160.143 333.954 160.33 334.599 160.33C335.067 160.33 335.469 160.239 335.803 160.058C336.143 159.864 336.389 159.601 336.541 159.267L338.896 160.216C338.621 160.89 338.123 161.411 337.402 161.78C336.688 162.155 335.812 162.343 334.774 162.343C333.228 162.343 331.985 161.909 331.048 161.042C330.116 160.198 329.65 159.07 329.65 157.658C329.65 156.281 330.116 155.13 331.048 154.204C331.979 153.296 333.163 152.842 334.599 152.842C336.063 152.842 337.221 153.302 338.07 154.222C338.504 154.696 338.826 155.25 339.037 155.883C339.248 156.51 339.354 157.228 339.354 158.036V158.186ZM341.173 162V153.123H344.126V155.215C344.437 154.447 344.85 153.876 345.365 153.501C345.898 153.12 346.54 152.93 347.29 152.93C347.46 152.93 347.586 152.936 347.668 152.947C347.732 152.953 347.791 152.959 347.844 152.965C347.896 152.965 347.964 152.971 348.046 152.982L347.747 155.83C347.53 155.76 347.343 155.71 347.185 155.681C346.95 155.657 346.777 155.646 346.666 155.646C345.904 155.646 345.315 155.88 344.899 156.349C344.489 156.812 344.284 157.471 344.284 158.326V162H341.173ZM355.974 157.553C355.974 156.85 355.789 156.305 355.42 155.918C355.045 155.508 354.541 155.303 353.908 155.303C353.275 155.303 352.777 155.502 352.414 155.9C352.039 156.311 351.852 156.861 351.852 157.553C351.852 158.25 352.039 158.798 352.414 159.196C352.771 159.589 353.27 159.785 353.908 159.785C354.541 159.785 355.042 159.589 355.411 159.196C355.786 158.804 355.974 158.256 355.974 157.553ZM358.725 153.123V162H355.851V160.559C355.435 161.174 354.969 161.625 354.453 161.912C353.943 162.199 353.346 162.343 352.66 162.343C351.471 162.343 350.524 161.909 349.821 161.042C349.476 160.614 349.212 160.11 349.03 159.53C348.849 158.95 348.758 158.297 348.758 157.57C348.758 156.117 349.13 154.966 349.874 154.116C350.618 153.267 351.614 152.842 352.862 152.842C353.53 152.842 354.104 152.985 354.585 153.272C355.071 153.548 355.487 153.984 355.833 154.582V153.123H358.725ZM372.849 156.419C372.796 155.927 372.605 155.525 372.277 155.215C371.949 154.904 371.548 154.749 371.073 154.749C370.575 154.749 370.171 154.887 369.86 155.162C369.538 155.473 369.336 155.892 369.254 156.419H372.849ZM375.934 158.186H369.184C369.201 158.877 369.374 159.404 369.702 159.768C370.042 160.143 370.534 160.33 371.179 160.33C371.647 160.33 372.049 160.239 372.383 160.058C372.723 159.864 372.969 159.601 373.121 159.267L375.477 160.216C375.201 160.89 374.703 161.411 373.982 161.78C373.268 162.155 372.392 162.343 371.354 162.343C369.808 162.343 368.565 161.909 367.628 161.042C366.696 160.198 366.23 159.07 366.23 157.658C366.23 156.281 366.696 155.13 367.628 154.204C368.56 153.296 369.743 152.842 371.179 152.842C372.644 152.842 373.801 153.302 374.65 154.222C375.084 154.696 375.406 155.25 375.617 155.883C375.828 156.51 375.934 157.228 375.934 158.036V158.186ZM378.043 162V155.338H376.707V153.123H378.043V151.304C378.043 150.278 378.324 149.499 378.887 148.966C379.443 148.45 380.284 148.192 381.409 148.192C381.485 148.192 381.676 148.204 381.98 148.228C382.309 148.28 382.543 148.324 382.684 148.359V150.75C382.578 150.709 382.446 150.668 382.288 150.627C382.124 150.604 382.016 150.592 381.963 150.592C381.658 150.592 381.444 150.68 381.321 150.855C381.187 151.043 381.119 151.327 381.119 151.708V153.123H382.684V155.338H381.119V162H378.043ZM383.993 162V153.123H387.122V162H383.993ZM384.389 150.838H384.406C384.406 150.51 384.521 150.24 384.749 150.029C384.978 149.801 385.253 149.687 385.575 149.687C385.915 149.687 386.193 149.795 386.41 150.012C386.633 150.229 386.744 150.504 386.744 150.838C386.744 151.178 386.63 151.459 386.401 151.682C386.179 151.91 385.903 152.024 385.575 152.024C385.241 152.024 384.96 151.904 384.731 151.664C384.503 151.441 384.389 151.166 384.389 150.838ZM396.061 156.041C395.756 155.771 395.463 155.575 395.182 155.452C394.93 155.329 394.634 155.268 394.294 155.268C393.667 155.268 393.175 155.473 392.817 155.883C392.448 156.287 392.264 156.844 392.264 157.553C392.264 158.232 392.454 158.771 392.835 159.17C393.204 159.58 393.717 159.785 394.373 159.785C394.684 159.785 394.982 159.721 395.27 159.592C395.574 159.445 395.838 159.252 396.061 159.012V161.728C395.686 161.927 395.308 162.085 394.927 162.202C394.522 162.296 394.139 162.343 393.775 162.343C392.404 162.343 391.3 161.903 390.462 161.024C390.175 160.731 389.938 160.409 389.75 160.058C389.568 159.706 389.428 159.325 389.328 158.915C389.234 158.505 389.188 158.057 389.188 157.57C389.188 156.17 389.615 155.033 390.471 154.16C391.332 153.281 392.445 152.842 393.811 152.842C394.238 152.842 394.646 152.889 395.032 152.982C395.407 153.076 395.75 153.214 396.061 153.396V156.041ZM397.915 162V153.123H401.044V162H397.915ZM398.311 150.838H398.328C398.328 150.51 398.442 150.24 398.671 150.029C398.899 149.801 399.175 149.687 399.497 149.687C399.837 149.687 400.115 149.795 400.332 150.012C400.555 150.229 400.666 150.504 400.666 150.838C400.666 151.178 400.552 151.459 400.323 151.682C400.101 151.91 399.825 152.024 399.497 152.024C399.163 152.024 398.882 151.904 398.653 151.664C398.425 151.441 398.311 151.166 398.311 150.838ZM409.728 156.419C409.675 155.927 409.484 155.525 409.156 155.215C408.828 154.904 408.427 154.749 407.952 154.749C407.454 154.749 407.05 154.887 406.739 155.162C406.417 155.473 406.215 155.892 406.133 156.419H409.728ZM412.812 158.186H406.062C406.08 158.877 406.253 159.404 406.581 159.768C406.921 160.143 407.413 160.33 408.058 160.33C408.526 160.33 408.928 160.239 409.262 160.058C409.602 159.864 409.848 159.601 410 159.267L412.355 160.216C412.08 160.89 411.582 161.411 410.861 161.78C410.146 162.155 409.271 162.343 408.233 162.343C406.687 162.343 405.444 161.909 404.507 161.042C403.575 160.198 403.109 159.07 403.109 157.658C403.109 156.281 403.575 155.13 404.507 154.204C405.438 153.296 406.622 152.842 408.058 152.842C409.522 152.842 410.68 153.302 411.529 154.222C411.963 154.696 412.285 155.25 412.496 155.883C412.707 156.51 412.812 157.228 412.812 158.036V158.186ZM414.614 162V153.123H417.479V154.925C417.884 154.222 418.364 153.694 418.921 153.343C419.46 153.009 420.113 152.842 420.881 152.842C421.461 152.842 421.977 152.93 422.428 153.105C422.873 153.305 423.233 153.574 423.509 153.914C423.761 154.254 423.928 154.614 424.01 154.995C424.109 155.481 424.159 156.123 424.159 156.92V162H421.021V157.245C421.021 156.524 420.907 156.009 420.679 155.698C420.45 155.376 420.078 155.215 419.562 155.215C418.918 155.215 418.443 155.455 418.139 155.936C417.84 156.416 417.69 157.195 417.69 158.273V162H414.614ZM426.875 162L426.857 155.338H425.53V153.123H426.857V150.478H429.96V153.123H431.27V155.338H429.96V162H426.875ZM438.854 156.419C438.802 155.927 438.611 155.525 438.283 155.215C437.955 154.904 437.554 154.749 437.079 154.749C436.581 154.749 436.177 154.887 435.866 155.162C435.544 155.473 435.342 155.892 435.26 156.419H438.854ZM441.939 158.186H435.189C435.207 158.877 435.38 159.404 435.708 159.768C436.048 160.143 436.54 160.33 437.185 160.33C437.653 160.33 438.055 160.239 438.389 160.058C438.729 159.864 438.975 159.601 439.127 159.267L441.482 160.216C441.207 160.89 440.709 161.411 439.988 161.78C439.273 162.155 438.397 162.343 437.36 162.343C435.813 162.343 434.571 161.909 433.634 161.042C432.702 160.198 432.236 159.07 432.236 157.658C432.236 156.281 432.702 155.13 433.634 154.204C434.565 153.296 435.749 152.842 437.185 152.842C438.649 152.842 439.807 153.302 440.656 154.222C441.09 154.696 441.412 155.25 441.623 155.883C441.834 156.51 441.939 157.228 441.939 158.036V158.186Z" fill="white"/>
</svg>
