<svg width="550" height="246" viewBox="0 0 550 246" fill="none" xmlns="http://www.w3.org/2000/svg">
<path d="M26.744 183H14.686C10.2678 183 6.68604 179.418 6.68604 175V14" stroke="white" stroke-width="1.5"/>
<path d="M12.622 7.0784C12.622 10.6144 9.92461 13.4068 6.68598 13.4068C3.44736 13.4068 0.75 10.6144 0.75 7.0784C0.75 3.54244 3.44736 0.75 6.68598 0.75C9.92461 0.75 12.622 3.54244 12.622 7.0784Z" stroke="white" stroke-width="1.5"/>
<rect x="25" y="161" width="353" height="85" rx="16" fill="#002A61"/>
<path d="M43.3711 195V182.133H51.2549V184.954H46.79V187.187H51V189.946H46.79V195H43.3711ZM52.8721 195V186.123H56.001V195H52.8721ZM53.2676 183.838H53.2852C53.2852 183.51 53.3994 183.24 53.6279 183.029C53.8564 182.801 54.1318 182.687 54.4541 182.687C54.7939 182.687 55.0723 182.795 55.2891 183.012C55.5117 183.229 55.623 183.504 55.623 183.838C55.623 184.178 55.5088 184.459 55.2803 184.682C55.0576 184.91 54.7822 185.024 54.4541 185.024C54.1201 185.024 53.8389 184.904 53.6104 184.664C53.3818 184.441 53.2676 184.166 53.2676 183.838ZM58.5674 195V186.123H61.4326V187.925C61.8369 187.222 62.3174 186.694 62.874 186.343C63.4131 186.009 64.0664 185.842 64.834 185.842C65.4141 185.842 65.9297 185.93 66.3809 186.105C66.8262 186.305 67.1865 186.574 67.4619 186.914C67.7139 187.254 67.8809 187.614 67.9629 187.995C68.0625 188.481 68.1123 189.123 68.1123 189.92V195H64.9746V190.245C64.9746 189.524 64.8604 189.009 64.6318 188.698C64.4033 188.376 64.0312 188.215 63.5156 188.215C62.8711 188.215 62.3965 188.455 62.0918 188.936C61.793 189.416 61.6436 190.195 61.6436 191.273V195H58.5674ZM77.0947 190.553C77.0947 189.85 76.9102 189.305 76.541 188.918C76.166 188.508 75.6621 188.303 75.0293 188.303C74.3965 188.303 73.8984 188.502 73.5352 188.9C73.1602 189.311 72.9727 189.861 72.9727 190.553C72.9727 191.25 73.1602 191.798 73.5352 192.196C73.8926 192.589 74.3906 192.785 75.0293 192.785C75.6621 192.785 76.1631 192.589 76.5322 192.196C76.9072 191.804 77.0947 191.256 77.0947 190.553ZM79.8457 186.123V195H76.9717V193.559C76.5557 194.174 76.0898 194.625 75.5742 194.912C75.0645 195.199 74.4668 195.343 73.7812 195.343C72.5918 195.343 71.6455 194.909 70.9424 194.042C70.5967 193.614 70.333 193.11 70.1514 192.53C69.9697 191.95 69.8789 191.297 69.8789 190.57C69.8789 189.117 70.251 187.966 70.9951 187.116C71.7393 186.267 72.7354 185.842 73.9834 185.842C74.6514 185.842 75.2256 185.985 75.7061 186.272C76.1924 186.548 76.6084 186.984 76.9541 187.582V186.123H79.8457ZM82.21 195V186.123H85.0752V187.925C85.4795 187.222 85.96 186.694 86.5166 186.343C87.0557 186.009 87.709 185.842 88.4766 185.842C89.0566 185.842 89.5723 185.93 90.0234 186.105C90.4688 186.305 90.8291 186.574 91.1045 186.914C91.3564 187.254 91.5234 187.614 91.6055 187.995C91.7051 188.481 91.7549 189.123 91.7549 189.92V195H88.6172V190.245C88.6172 189.524 88.5029 189.009 88.2744 188.698C88.0459 188.376 87.6738 188.215 87.1582 188.215C86.5137 188.215 86.0391 188.455 85.7344 188.936C85.4355 189.416 85.2861 190.195 85.2861 191.273V195H82.21ZM100.342 189.041C100.037 188.771 99.7441 188.575 99.4629 188.452C99.2109 188.329 98.915 188.268 98.5752 188.268C97.9482 188.268 97.4561 188.473 97.0986 188.883C96.7295 189.287 96.5449 189.844 96.5449 190.553C96.5449 191.232 96.7354 191.771 97.1162 192.17C97.4854 192.58 97.998 192.785 98.6543 192.785C98.9648 192.785 99.2637 192.721 99.5508 192.592C99.8555 192.445 100.119 192.252 100.342 192.012V194.728C99.9668 194.927 99.5889 195.085 99.208 195.202C98.8037 195.296 98.4199 195.343 98.0566 195.343C96.6855 195.343 95.5811 194.903 94.7432 194.024C94.4561 193.731 94.2188 193.409 94.0312 193.058C93.8496 192.706 93.709 192.325 93.6094 191.915C93.5156 191.505 93.4688 191.057 93.4688 190.57C93.4688 189.17 93.8965 188.033 94.752 187.16C95.6133 186.281 96.7266 185.842 98.0918 185.842C98.5195 185.842 98.9268 185.889 99.3135 185.982C99.6885 186.076 100.031 186.214 100.342 186.396V189.041ZM102.196 195V186.123H105.325V195H102.196ZM102.592 183.838H102.609C102.609 183.51 102.724 183.24 102.952 183.029C103.181 182.801 103.456 182.687 103.778 182.687C104.118 182.687 104.396 182.795 104.613 183.012C104.836 183.229 104.947 183.504 104.947 183.838C104.947 184.178 104.833 184.459 104.604 184.682C104.382 184.91 104.106 185.024 103.778 185.024C103.444 185.024 103.163 184.904 102.935 184.664C102.706 184.441 102.592 184.166 102.592 183.838ZM114.659 190.553C114.659 189.85 114.475 189.305 114.105 188.918C113.73 188.508 113.227 188.303 112.594 188.303C111.961 188.303 111.463 188.502 111.1 188.9C110.725 189.311 110.537 189.861 110.537 190.553C110.537 191.25 110.725 191.798 111.1 192.196C111.457 192.589 111.955 192.785 112.594 192.785C113.227 192.785 113.728 192.589 114.097 192.196C114.472 191.804 114.659 191.256 114.659 190.553ZM117.41 186.123V195H114.536V193.559C114.12 194.174 113.654 194.625 113.139 194.912C112.629 195.199 112.031 195.343 111.346 195.343C110.156 195.343 109.21 194.909 108.507 194.042C108.161 193.614 107.897 193.11 107.716 192.53C107.534 191.95 107.443 191.297 107.443 190.57C107.443 189.117 107.815 187.966 108.56 187.116C109.304 186.267 110.3 185.842 111.548 185.842C112.216 185.842 112.79 185.985 113.271 186.272C113.757 186.548 114.173 186.984 114.519 187.582V186.123H117.41ZM131.508 195V190.157C131.508 189.396 131.42 188.868 131.244 188.575C131.045 188.276 130.714 188.127 130.251 188.127C129.659 188.127 129.252 188.329 129.029 188.733C128.801 189.132 128.687 189.967 128.687 191.238V195H125.663V190.157C125.663 189.366 125.566 188.833 125.373 188.558C125.197 188.271 124.872 188.127 124.397 188.127C123.806 188.127 123.393 188.323 123.158 188.716C122.93 189.114 122.815 189.955 122.815 191.238V195H119.774V186.123H122.851V187.67C123.226 187.049 123.653 186.589 124.134 186.29C124.603 185.991 125.171 185.842 125.839 185.842C126.56 185.842 127.154 185.979 127.623 186.255C128.068 186.536 128.394 186.955 128.599 187.512C128.956 186.932 129.381 186.513 129.873 186.255C130.359 185.979 130.942 185.842 131.622 185.842C132.155 185.842 132.621 185.93 133.02 186.105C133.43 186.299 133.767 186.568 134.03 186.914C134.253 187.189 134.408 187.515 134.496 187.89C134.584 188.235 134.628 188.848 134.628 189.727V189.92V195H131.508ZM136.772 195V186.123H139.901V195H136.772ZM137.168 183.838H137.186C137.186 183.51 137.3 183.24 137.528 183.029C137.757 182.801 138.032 182.687 138.354 182.687C138.694 182.687 138.973 182.795 139.189 183.012C139.412 183.229 139.523 183.504 139.523 183.838C139.523 184.178 139.409 184.459 139.181 184.682C138.958 184.91 138.683 185.024 138.354 185.024C138.021 185.024 137.739 184.904 137.511 184.664C137.282 184.441 137.168 184.166 137.168 183.838ZM148.585 189.419C148.532 188.927 148.342 188.525 148.014 188.215C147.686 187.904 147.284 187.749 146.81 187.749C146.312 187.749 145.907 187.887 145.597 188.162C145.274 188.473 145.072 188.892 144.99 189.419H148.585ZM151.67 191.186H144.92C144.938 191.877 145.11 192.404 145.438 192.768C145.778 193.143 146.271 193.33 146.915 193.33C147.384 193.33 147.785 193.239 148.119 193.058C148.459 192.864 148.705 192.601 148.857 192.267L151.213 193.216C150.938 193.89 150.439 194.411 149.719 194.78C149.004 195.155 148.128 195.343 147.091 195.343C145.544 195.343 144.302 194.909 143.364 194.042C142.433 193.198 141.967 192.07 141.967 190.658C141.967 189.281 142.433 188.13 143.364 187.204C144.296 186.296 145.479 185.842 146.915 185.842C148.38 185.842 149.537 186.302 150.387 187.222C150.82 187.696 151.143 188.25 151.354 188.883C151.564 189.51 151.67 190.228 151.67 191.036V191.186ZM153.472 195V186.123H156.337V187.925C156.741 187.222 157.222 186.694 157.778 186.343C158.317 186.009 158.971 185.842 159.738 185.842C160.318 185.842 160.834 185.93 161.285 186.105C161.73 186.305 162.091 186.574 162.366 186.914C162.618 187.254 162.785 187.614 162.867 187.995C162.967 188.481 163.017 189.123 163.017 189.92V195H159.879V190.245C159.879 189.524 159.765 189.009 159.536 188.698C159.308 188.376 158.936 188.215 158.42 188.215C157.775 188.215 157.301 188.455 156.996 188.936C156.697 189.416 156.548 190.195 156.548 191.273V195H153.472ZM165.732 195L165.715 188.338H164.388V186.123H165.715V183.478H168.817V186.123H170.127V188.338H168.817V195H165.732ZM177.896 190.588C177.896 189.926 177.729 189.404 177.396 189.023C177.05 188.643 176.599 188.452 176.042 188.452C175.468 188.452 175.017 188.643 174.688 189.023C174.354 189.393 174.188 189.914 174.188 190.588C174.188 191.244 174.349 191.76 174.671 192.135C175.022 192.521 175.479 192.715 176.042 192.715C176.604 192.715 177.062 192.521 177.413 192.135C177.735 191.748 177.896 191.232 177.896 190.588ZM181.008 190.588C181.008 191.238 180.882 191.845 180.63 192.407C180.366 193.005 180.006 193.521 179.549 193.954C179.033 194.435 178.5 194.783 177.949 195C177.375 195.229 176.739 195.343 176.042 195.343C175.339 195.343 174.703 195.229 174.135 195C173.555 194.771 173.019 194.426 172.526 193.963C172.04 193.494 171.688 192.976 171.472 192.407C171.22 191.862 171.094 191.256 171.094 190.588C171.094 189.938 171.22 189.325 171.472 188.751C171.706 188.171 172.061 187.655 172.535 187.204C172.998 186.759 173.531 186.416 174.135 186.176C174.709 185.953 175.345 185.842 176.042 185.842C176.733 185.842 177.369 185.953 177.949 186.176C178.553 186.416 179.086 186.759 179.549 187.204C180.035 187.644 180.396 188.159 180.63 188.751C180.882 189.325 181.008 189.938 181.008 190.588ZM195.22 190.553C195.22 189.85 195.035 189.305 194.666 188.918C194.291 188.508 193.787 188.303 193.154 188.303C192.521 188.303 192.023 188.502 191.66 188.9C191.285 189.311 191.098 189.861 191.098 190.553C191.098 191.25 191.285 191.798 191.66 192.196C192.018 192.589 192.516 192.785 193.154 192.785C193.787 192.785 194.288 192.589 194.657 192.196C195.032 191.804 195.22 191.256 195.22 190.553ZM197.971 186.123V195H195.097V193.559C194.681 194.174 194.215 194.625 193.699 194.912C193.189 195.199 192.592 195.343 191.906 195.343C190.717 195.343 189.771 194.909 189.067 194.042C188.722 193.614 188.458 193.11 188.276 192.53C188.095 191.95 188.004 191.297 188.004 190.57C188.004 189.117 188.376 187.966 189.12 187.116C189.864 186.267 190.86 185.842 192.108 185.842C192.776 185.842 193.351 185.985 193.831 186.272C194.317 186.548 194.733 186.984 195.079 187.582V186.123H197.971ZM206.065 195V181.377H209.203V195H206.065ZM218.37 190.553C218.37 189.85 218.186 189.305 217.816 188.918C217.441 188.508 216.938 188.303 216.305 188.303C215.672 188.303 215.174 188.502 214.811 188.9C214.436 189.311 214.248 189.861 214.248 190.553C214.248 191.25 214.436 191.798 214.811 192.196C215.168 192.589 215.666 192.785 216.305 192.785C216.938 192.785 217.438 192.589 217.808 192.196C218.183 191.804 218.37 191.256 218.37 190.553ZM221.121 186.123V195H218.247V193.559C217.831 194.174 217.365 194.625 216.85 194.912C216.34 195.199 215.742 195.343 215.057 195.343C213.867 195.343 212.921 194.909 212.218 194.042C211.872 193.614 211.608 193.11 211.427 192.53C211.245 191.95 211.154 191.297 211.154 190.57C211.154 189.117 211.526 187.966 212.271 187.116C213.015 186.267 214.011 185.842 215.259 185.842C215.927 185.842 216.501 185.985 216.981 186.272C217.468 186.548 217.884 186.984 218.229 187.582V186.123H221.121ZM223.503 195V186.123H226.456V188.215C226.767 187.447 227.18 186.876 227.695 186.501C228.229 186.12 228.87 185.93 229.62 185.93C229.79 185.93 229.916 185.936 229.998 185.947C230.062 185.953 230.121 185.959 230.174 185.965C230.227 185.965 230.294 185.971 230.376 185.982L230.077 188.83C229.86 188.76 229.673 188.71 229.515 188.681C229.28 188.657 229.107 188.646 228.996 188.646C228.234 188.646 227.646 188.88 227.229 189.349C226.819 189.812 226.614 190.471 226.614 191.326V195H223.503ZM238.304 190.535C238.304 189.85 238.125 189.311 237.768 188.918C237.381 188.531 236.871 188.338 236.238 188.338C235.605 188.338 235.096 188.531 234.709 188.918C234.334 189.311 234.146 189.85 234.146 190.535C234.146 191.227 234.334 191.76 234.709 192.135C235.09 192.533 235.6 192.732 236.238 192.732C236.865 192.732 237.369 192.533 237.75 192.135C238.119 191.766 238.304 191.232 238.304 190.535ZM241.055 186.123V194.982C241.055 196.324 240.647 197.314 239.833 197.953C239.44 198.27 238.925 198.51 238.286 198.674C237.647 198.838 236.897 198.92 236.036 198.92C234.636 198.92 233.549 198.662 232.775 198.146C232.002 197.625 231.589 196.901 231.536 195.976H234.779C234.838 196.257 234.993 196.471 235.245 196.617C235.503 196.775 235.846 196.854 236.273 196.854C236.941 196.854 237.407 196.693 237.671 196.371C237.923 196.049 238.049 195.363 238.049 194.314V193.506C237.715 194.068 237.296 194.481 236.792 194.745C236.271 195.021 235.664 195.158 234.973 195.158C233.801 195.158 232.86 194.733 232.151 193.884C231.806 193.468 231.542 192.979 231.36 192.416C231.179 191.848 231.088 191.209 231.088 190.5C231.088 189.082 231.46 187.948 232.204 187.099C232.573 186.677 233.007 186.363 233.505 186.158C234.009 185.947 234.571 185.842 235.192 185.842C235.854 185.842 236.429 185.979 236.915 186.255C237.396 186.513 237.812 186.943 238.163 187.547V186.123H241.055ZM249.721 190.588C249.721 189.926 249.554 189.404 249.22 189.023C248.874 188.643 248.423 188.452 247.866 188.452C247.292 188.452 246.841 188.643 246.513 189.023C246.179 189.393 246.012 189.914 246.012 190.588C246.012 191.244 246.173 191.76 246.495 192.135C246.847 192.521 247.304 192.715 247.866 192.715C248.429 192.715 248.886 192.521 249.237 192.135C249.56 191.748 249.721 191.232 249.721 190.588ZM252.832 190.588C252.832 191.238 252.706 191.845 252.454 192.407C252.19 193.005 251.83 193.521 251.373 193.954C250.857 194.435 250.324 194.783 249.773 195C249.199 195.229 248.563 195.343 247.866 195.343C247.163 195.343 246.527 195.229 245.959 195C245.379 194.771 244.843 194.426 244.351 193.963C243.864 193.494 243.513 192.976 243.296 192.407C243.044 191.862 242.918 191.256 242.918 190.588C242.918 189.938 243.044 189.325 243.296 188.751C243.53 188.171 243.885 187.655 244.359 187.204C244.822 186.759 245.355 186.416 245.959 186.176C246.533 185.953 247.169 185.842 247.866 185.842C248.558 185.842 249.193 185.953 249.773 186.176C250.377 186.416 250.91 186.759 251.373 187.204C251.859 187.644 252.22 188.159 252.454 188.751C252.706 189.325 252.832 189.938 252.832 190.588ZM263.071 190.588C263.071 191.279 263.256 191.827 263.625 192.231C263.965 192.624 264.457 192.82 265.102 192.82C265.74 192.82 266.238 192.624 266.596 192.231C266.953 191.821 267.132 191.273 267.132 190.588C267.132 189.891 266.953 189.346 266.596 188.953C266.232 188.555 265.734 188.355 265.102 188.355C264.463 188.355 263.971 188.555 263.625 188.953C263.256 189.34 263.071 189.885 263.071 190.588ZM260.294 198.92V186.141H263.177V187.617C263.558 187.049 264.006 186.606 264.521 186.29C265.008 186.003 265.562 185.859 266.183 185.859C266.81 185.859 267.372 185.965 267.87 186.176C268.368 186.381 268.802 186.694 269.171 187.116C269.903 187.954 270.27 189.111 270.27 190.588C270.27 192.006 269.903 193.151 269.171 194.024C268.796 194.47 268.371 194.801 267.896 195.018C267.428 195.234 266.892 195.343 266.288 195.343C265.532 195.343 264.92 195.205 264.451 194.93C264 194.666 263.581 194.209 263.194 193.559C263.224 193.699 263.247 193.916 263.265 194.209C263.276 194.379 263.282 194.689 263.282 195.141V198.92H260.294ZM272.247 195V181.377H275.385V195H272.247ZM284.552 190.553C284.552 189.85 284.367 189.305 283.998 188.918C283.623 188.508 283.119 188.303 282.486 188.303C281.854 188.303 281.355 188.502 280.992 188.9C280.617 189.311 280.43 189.861 280.43 190.553C280.43 191.25 280.617 191.798 280.992 192.196C281.35 192.589 281.848 192.785 282.486 192.785C283.119 192.785 283.62 192.589 283.989 192.196C284.364 191.804 284.552 191.256 284.552 190.553ZM287.303 186.123V195H284.429V193.559C284.013 194.174 283.547 194.625 283.031 194.912C282.521 195.199 281.924 195.343 281.238 195.343C280.049 195.343 279.103 194.909 278.399 194.042C278.054 193.614 277.79 193.11 277.608 192.53C277.427 191.95 277.336 191.297 277.336 190.57C277.336 189.117 277.708 187.966 278.452 187.116C279.196 186.267 280.192 185.842 281.44 185.842C282.108 185.842 282.683 185.985 283.163 186.272C283.649 186.548 284.065 186.984 284.411 187.582V186.123H287.303ZM297.516 195H288.516L293.068 188.408H289.069V186.123H297.911L293.191 192.592H297.516V195ZM305.725 190.588C305.725 189.926 305.558 189.404 305.224 189.023C304.878 188.643 304.427 188.452 303.87 188.452C303.296 188.452 302.845 188.643 302.517 189.023C302.183 189.393 302.016 189.914 302.016 190.588C302.016 191.244 302.177 191.76 302.499 192.135C302.851 192.521 303.308 192.715 303.87 192.715C304.433 192.715 304.89 192.521 305.241 192.135C305.563 191.748 305.725 191.232 305.725 190.588ZM308.836 190.588C308.836 191.238 308.71 191.845 308.458 192.407C308.194 193.005 307.834 193.521 307.377 193.954C306.861 194.435 306.328 194.783 305.777 195C305.203 195.229 304.567 195.343 303.87 195.343C303.167 195.343 302.531 195.229 301.963 195C301.383 194.771 300.847 194.426 300.354 193.963C299.868 193.494 299.517 192.976 299.3 192.407C299.048 191.862 298.922 191.256 298.922 190.588C298.922 189.938 299.048 189.325 299.3 188.751C299.534 188.171 299.889 187.655 300.363 187.204C300.826 186.759 301.359 186.416 301.963 186.176C302.537 185.953 303.173 185.842 303.87 185.842C304.562 185.842 305.197 185.953 305.777 186.176C306.381 186.416 306.914 186.759 307.377 187.204C307.863 187.644 308.224 188.159 308.458 188.751C308.71 189.325 308.836 189.938 308.836 190.588ZM319.075 190.588C319.075 191.279 319.26 191.827 319.629 192.231C319.969 192.624 320.461 192.82 321.105 192.82C321.744 192.82 322.242 192.624 322.6 192.231C322.957 191.821 323.136 191.273 323.136 190.588C323.136 189.891 322.957 189.346 322.6 188.953C322.236 188.555 321.738 188.355 321.105 188.355C320.467 188.355 319.975 188.555 319.629 188.953C319.26 189.34 319.075 189.885 319.075 190.588ZM316.298 198.92V186.141H319.181V187.617C319.562 187.049 320.01 186.606 320.525 186.29C321.012 186.003 321.565 185.859 322.187 185.859C322.813 185.859 323.376 185.965 323.874 186.176C324.372 186.381 324.806 186.694 325.175 187.116C325.907 187.954 326.273 189.111 326.273 190.588C326.273 192.006 325.907 193.151 325.175 194.024C324.8 194.47 324.375 194.801 323.9 195.018C323.432 195.234 322.896 195.343 322.292 195.343C321.536 195.343 320.924 195.205 320.455 194.93C320.004 194.666 319.585 194.209 319.198 193.559C319.228 193.699 319.251 193.916 319.269 194.209C319.28 194.379 319.286 194.689 319.286 195.141V198.92H316.298ZM334.931 190.553C334.931 189.85 334.746 189.305 334.377 188.918C334.002 188.508 333.498 188.303 332.865 188.303C332.232 188.303 331.734 188.502 331.371 188.9C330.996 189.311 330.809 189.861 330.809 190.553C330.809 191.25 330.996 191.798 331.371 192.196C331.729 192.589 332.227 192.785 332.865 192.785C333.498 192.785 333.999 192.589 334.368 192.196C334.743 191.804 334.931 191.256 334.931 190.553ZM337.682 186.123V195H334.808V193.559C334.392 194.174 333.926 194.625 333.41 194.912C332.9 195.199 332.303 195.343 331.617 195.343C330.428 195.343 329.481 194.909 328.778 194.042C328.433 193.614 328.169 193.11 327.987 192.53C327.806 191.95 327.715 191.297 327.715 190.57C327.715 189.117 328.087 187.966 328.831 187.116C329.575 186.267 330.571 185.842 331.819 185.842C332.487 185.842 333.062 185.985 333.542 186.272C334.028 186.548 334.444 186.984 334.79 187.582V186.123H337.682ZM340.063 195V186.123H343.017V188.215C343.327 187.447 343.74 186.876 344.256 186.501C344.789 186.12 345.431 185.93 346.181 185.93C346.351 185.93 346.477 185.936 346.559 185.947C346.623 185.953 346.682 185.959 346.734 185.965C346.787 185.965 346.854 185.971 346.937 185.982L346.638 188.83C346.421 188.76 346.233 188.71 346.075 188.681C345.841 188.657 345.668 188.646 345.557 188.646C344.795 188.646 344.206 188.88 343.79 189.349C343.38 189.812 343.175 190.471 343.175 191.326V195H340.063ZM354.864 190.553C354.864 189.85 354.68 189.305 354.311 188.918C353.936 188.508 353.432 188.303 352.799 188.303C352.166 188.303 351.668 188.502 351.305 188.9C350.93 189.311 350.742 189.861 350.742 190.553C350.742 191.25 350.93 191.798 351.305 192.196C351.662 192.589 352.16 192.785 352.799 192.785C353.432 192.785 353.933 192.589 354.302 192.196C354.677 191.804 354.864 191.256 354.864 190.553ZM357.615 186.123V195H354.741V193.559C354.325 194.174 353.859 194.625 353.344 194.912C352.834 195.199 352.236 195.343 351.551 195.343C350.361 195.343 349.415 194.909 348.712 194.042C348.366 193.614 348.103 193.11 347.921 192.53C347.739 191.95 347.648 191.297 347.648 190.57C347.648 189.117 348.021 187.966 348.765 187.116C349.509 186.267 350.505 185.842 351.753 185.842C352.421 185.842 352.995 185.985 353.476 186.272C353.962 186.548 354.378 186.984 354.724 187.582V186.123H357.615ZM49.9365 210.57C49.9365 209.873 49.7578 209.328 49.4004 208.936C49.0195 208.537 48.5156 208.338 47.8887 208.338C47.2559 208.338 46.7578 208.537 46.3945 208.936C46.0312 209.334 45.8496 209.879 45.8496 210.57C45.8496 211.268 46.0312 211.815 46.3945 212.214C46.752 212.606 47.25 212.803 47.8887 212.803C48.5215 212.803 49.0254 212.606 49.4004 212.214C49.7578 211.821 49.9365 211.273 49.9365 210.57ZM52.7139 201.377V215H49.8311V213.559C49.4326 214.162 48.9814 214.607 48.4775 214.895C48.0088 215.193 47.458 215.343 46.8252 215.343C45.583 215.343 44.5898 214.909 43.8457 214.042C43.1074 213.175 42.7383 212.018 42.7383 210.57C42.7383 209.164 43.1104 208.019 43.8545 207.134C44.5928 206.272 45.5479 205.842 46.7197 205.842C47.4697 205.842 48.0791 205.979 48.5479 206.255C48.999 206.507 49.4209 206.955 49.8135 207.6C49.79 207.441 49.7666 207.201 49.7432 206.879C49.7197 206.527 49.708 206.24 49.708 206.018V201.377H52.7139ZM61.8018 210.553C61.8018 209.85 61.6172 209.305 61.248 208.918C60.873 208.508 60.3691 208.303 59.7363 208.303C59.1035 208.303 58.6055 208.502 58.2422 208.9C57.8672 209.311 57.6797 209.861 57.6797 210.553C57.6797 211.25 57.8672 211.798 58.2422 212.196C58.5996 212.589 59.0977 212.785 59.7363 212.785C60.3691 212.785 60.8701 212.589 61.2393 212.196C61.6143 211.804 61.8018 211.256 61.8018 210.553ZM64.5527 206.123V215H61.6787V213.559C61.2627 214.174 60.7969 214.625 60.2812 214.912C59.7715 215.199 59.1738 215.343 58.4883 215.343C57.2988 215.343 56.3525 214.909 55.6494 214.042C55.3037 213.614 55.04 213.11 54.8584 212.53C54.6768 211.95 54.5859 211.297 54.5859 210.57C54.5859 209.117 54.958 207.966 55.7021 207.116C56.4463 206.267 57.4424 205.842 58.6904 205.842C59.3584 205.842 59.9326 205.985 60.4131 206.272C60.8994 206.548 61.3154 206.984 61.6611 207.582V206.123H64.5527ZM66.9346 215V206.123H69.8877V208.215C70.1982 207.447 70.6113 206.876 71.127 206.501C71.6602 206.12 72.3018 205.93 73.0518 205.93C73.2217 205.93 73.3477 205.936 73.4297 205.947C73.4941 205.953 73.5527 205.959 73.6055 205.965C73.6582 205.965 73.7256 205.971 73.8076 205.982L73.5088 208.83C73.292 208.76 73.1045 208.71 72.9463 208.681C72.7119 208.657 72.5391 208.646 72.4277 208.646C71.666 208.646 71.0771 208.88 70.6611 209.349C70.251 209.812 70.0459 210.471 70.0459 211.326V215H66.9346ZM75.0557 215V201.377H78.1934V215H75.0557ZM86.71 209.419C86.6572 208.927 86.4668 208.525 86.1387 208.215C85.8105 207.904 85.4092 207.749 84.9346 207.749C84.4365 207.749 84.0322 207.887 83.7217 208.162C83.3994 208.473 83.1973 208.892 83.1152 209.419H86.71ZM89.7949 211.186H83.0449C83.0625 211.877 83.2354 212.404 83.5635 212.768C83.9033 213.143 84.3955 213.33 85.04 213.33C85.5088 213.33 85.9102 213.239 86.2441 213.058C86.584 212.864 86.8301 212.601 86.9824 212.267L89.3379 213.216C89.0625 213.89 88.5645 214.411 87.8438 214.78C87.1289 215.155 86.2529 215.343 85.2158 215.343C83.6689 215.343 82.4268 214.909 81.4893 214.042C80.5576 213.198 80.0918 212.07 80.0918 210.658C80.0918 209.281 80.5576 208.13 81.4893 207.204C82.4209 206.296 83.6045 205.842 85.04 205.842C86.5049 205.842 87.6621 206.302 88.5117 207.222C88.9453 207.696 89.2676 208.25 89.4785 208.883C89.6895 209.51 89.7949 210.228 89.7949 211.036V211.186ZM99.9199 215L95.9297 206.123H99.2695L100.79 210.052C100.802 210.075 100.819 210.122 100.843 210.192C101.001 210.626 101.121 211.039 101.203 211.432C101.262 211.115 101.376 210.731 101.546 210.28C101.569 210.233 101.599 210.157 101.634 210.052L103.146 206.123H106.406L102.372 215H99.9199ZM107.329 215V206.123H110.458V215H107.329ZM107.725 203.838H107.742C107.742 203.51 107.856 203.24 108.085 203.029C108.313 202.801 108.589 202.687 108.911 202.687C109.251 202.687 109.529 202.795 109.746 203.012C109.969 203.229 110.08 203.504 110.08 203.838C110.08 204.178 109.966 204.459 109.737 204.682C109.515 204.91 109.239 205.024 108.911 205.024C108.577 205.024 108.296 204.904 108.067 204.664C107.839 204.441 107.725 204.166 107.725 203.838ZM119.81 210.57C119.81 209.873 119.631 209.328 119.273 208.936C118.893 208.537 118.389 208.338 117.762 208.338C117.129 208.338 116.631 208.537 116.268 208.936C115.904 209.334 115.723 209.879 115.723 210.57C115.723 211.268 115.904 211.815 116.268 212.214C116.625 212.606 117.123 212.803 117.762 212.803C118.395 212.803 118.898 212.606 119.273 212.214C119.631 211.821 119.81 211.273 119.81 210.57ZM122.587 201.377V215H119.704V213.559C119.306 214.162 118.854 214.607 118.351 214.895C117.882 215.193 117.331 215.343 116.698 215.343C115.456 215.343 114.463 214.909 113.719 214.042C112.98 213.175 112.611 212.018 112.611 210.57C112.611 209.164 112.983 208.019 113.728 207.134C114.466 206.272 115.421 205.842 116.593 205.842C117.343 205.842 117.952 205.979 118.421 206.255C118.872 206.507 119.294 206.955 119.687 207.6C119.663 207.441 119.64 207.201 119.616 206.879C119.593 206.527 119.581 206.24 119.581 206.018V201.377H122.587ZM131.675 210.553C131.675 209.85 131.49 209.305 131.121 208.918C130.746 208.508 130.242 208.303 129.609 208.303C128.977 208.303 128.479 208.502 128.115 208.9C127.74 209.311 127.553 209.861 127.553 210.553C127.553 211.25 127.74 211.798 128.115 212.196C128.473 212.589 128.971 212.785 129.609 212.785C130.242 212.785 130.743 212.589 131.112 212.196C131.487 211.804 131.675 211.256 131.675 210.553ZM134.426 206.123V215H131.552V213.559C131.136 214.174 130.67 214.625 130.154 214.912C129.645 215.199 129.047 215.343 128.361 215.343C127.172 215.343 126.226 214.909 125.522 214.042C125.177 213.614 124.913 213.11 124.731 212.53C124.55 211.95 124.459 211.297 124.459 210.57C124.459 209.117 124.831 207.966 125.575 207.116C126.319 206.267 127.315 205.842 128.563 205.842C129.231 205.842 129.806 205.985 130.286 206.272C130.772 206.548 131.188 206.984 131.534 207.582V206.123H134.426ZM149.2 210.553C149.2 209.85 149.016 209.305 148.646 208.918C148.271 208.508 147.768 208.303 147.135 208.303C146.502 208.303 146.004 208.502 145.641 208.9C145.266 209.311 145.078 209.861 145.078 210.553C145.078 211.25 145.266 211.798 145.641 212.196C145.998 212.589 146.496 212.785 147.135 212.785C147.768 212.785 148.269 212.589 148.638 212.196C149.013 211.804 149.2 211.256 149.2 210.553ZM151.951 206.123V215H149.077V213.559C148.661 214.174 148.195 214.625 147.68 214.912C147.17 215.199 146.572 215.343 145.887 215.343C144.697 215.343 143.751 214.909 143.048 214.042C142.702 213.614 142.438 213.11 142.257 212.53C142.075 211.95 141.984 211.297 141.984 210.57C141.984 209.117 142.356 207.966 143.101 207.116C143.845 206.267 144.841 205.842 146.089 205.842C146.757 205.842 147.331 205.985 147.812 206.272C148.298 206.548 148.714 206.984 149.06 207.582V206.123H151.951ZM160.459 215L160.441 208.338H159.114V206.123H160.441V203.478H163.544V206.123H164.854V208.338H163.544V215H160.459ZM175.427 206.123V210.658C175.427 211.672 175.351 212.41 175.198 212.873C175.034 213.354 174.759 213.787 174.372 214.174C174.003 214.561 173.517 214.854 172.913 215.053C172.339 215.246 171.647 215.343 170.839 215.343C170.036 215.343 169.354 215.246 168.791 215.053C168.211 214.865 167.713 214.572 167.297 214.174C166.916 213.811 166.646 213.383 166.488 212.891C166.33 212.434 166.251 211.689 166.251 210.658V206.123H169.239V210.86C169.239 211.604 169.365 212.138 169.617 212.46C169.846 212.8 170.241 212.97 170.804 212.97C171.36 212.97 171.759 212.806 171.999 212.478C172.245 212.149 172.368 211.61 172.368 210.86V206.123H175.427ZM176.851 214.262L177.501 211.871C177.958 212.275 178.462 212.58 179.013 212.785C179.558 213.002 180.108 213.11 180.665 213.11C181.063 213.11 181.362 213.043 181.562 212.908C181.767 212.785 181.869 212.606 181.869 212.372C181.869 211.979 181.456 211.687 180.63 211.493C180.343 211.429 180.126 211.373 179.979 211.326C179.024 211.045 178.348 210.702 177.949 210.298C177.516 209.882 177.299 209.343 177.299 208.681C177.299 207.825 177.624 207.137 178.274 206.615C178.901 206.1 179.777 205.842 180.902 205.842C181.447 205.842 182.027 205.906 182.643 206.035C183.158 206.141 183.759 206.346 184.444 206.65L183.794 208.804C183.372 208.517 182.947 208.303 182.52 208.162C182.115 208.016 181.69 207.942 181.245 207.942C180.882 207.942 180.609 207.998 180.428 208.109C180.252 208.215 180.164 208.376 180.164 208.593C180.164 208.897 180.577 209.161 181.403 209.384C181.673 209.466 181.811 209.507 181.816 209.507C182.895 209.812 183.65 210.172 184.084 210.588C184.506 211.027 184.717 211.599 184.717 212.302C184.717 213.21 184.368 213.942 183.671 214.499C182.956 215.062 182.033 215.343 180.902 215.343C180.117 215.343 179.394 215.252 178.731 215.07C178.075 214.895 177.448 214.625 176.851 214.262ZM194.833 210.588C194.833 211.279 195.018 211.827 195.387 212.231C195.727 212.624 196.219 212.82 196.863 212.82C197.502 212.82 198 212.624 198.357 212.231C198.715 211.821 198.894 211.273 198.894 210.588C198.894 209.891 198.715 209.346 198.357 208.953C197.994 208.555 197.496 208.355 196.863 208.355C196.225 208.355 195.732 208.555 195.387 208.953C195.018 209.34 194.833 209.885 194.833 210.588ZM192.056 218.92V206.141H194.938V207.617C195.319 207.049 195.768 206.606 196.283 206.29C196.77 206.003 197.323 205.859 197.944 205.859C198.571 205.859 199.134 205.965 199.632 206.176C200.13 206.381 200.563 206.694 200.933 207.116C201.665 207.954 202.031 209.111 202.031 210.588C202.031 212.006 201.665 213.151 200.933 214.024C200.558 214.47 200.133 214.801 199.658 215.018C199.189 215.234 198.653 215.343 198.05 215.343C197.294 215.343 196.682 215.205 196.213 214.93C195.762 214.666 195.343 214.209 194.956 213.559C194.985 213.699 195.009 213.916 195.026 214.209C195.038 214.379 195.044 214.689 195.044 215.141V218.92H192.056ZM203.938 215V206.123H206.892V208.215C207.202 207.447 207.615 206.876 208.131 206.501C208.664 206.12 209.306 205.93 210.056 205.93C210.226 205.93 210.352 205.936 210.434 205.947C210.498 205.953 210.557 205.959 210.609 205.965C210.662 205.965 210.729 205.971 210.812 205.982L210.513 208.83C210.296 208.76 210.108 208.71 209.95 208.681C209.716 208.657 209.543 208.646 209.432 208.646C208.67 208.646 208.081 208.88 207.665 209.349C207.255 209.812 207.05 210.471 207.05 211.326V215H203.938ZM218.273 210.588C218.273 209.926 218.106 209.404 217.772 209.023C217.427 208.643 216.976 208.452 216.419 208.452C215.845 208.452 215.394 208.643 215.065 209.023C214.731 209.393 214.564 209.914 214.564 210.588C214.564 211.244 214.726 211.76 215.048 212.135C215.399 212.521 215.856 212.715 216.419 212.715C216.981 212.715 217.438 212.521 217.79 212.135C218.112 211.748 218.273 211.232 218.273 210.588ZM221.385 210.588C221.385 211.238 221.259 211.845 221.007 212.407C220.743 213.005 220.383 213.521 219.926 213.954C219.41 214.435 218.877 214.783 218.326 215C217.752 215.229 217.116 215.343 216.419 215.343C215.716 215.343 215.08 215.229 214.512 215C213.932 214.771 213.396 214.426 212.903 213.963C212.417 213.494 212.065 212.976 211.849 212.407C211.597 211.862 211.471 211.256 211.471 210.588C211.471 209.938 211.597 209.325 211.849 208.751C212.083 208.171 212.438 207.655 212.912 207.204C213.375 206.759 213.908 206.416 214.512 206.176C215.086 205.953 215.722 205.842 216.419 205.842C217.11 205.842 217.746 205.953 218.326 206.176C218.93 206.416 219.463 206.759 219.926 207.204C220.412 207.644 220.772 208.159 221.007 208.751C221.259 209.325 221.385 209.938 221.385 210.588ZM222.703 218.92L225.199 213.646L221.622 206.123H225.094L226.333 209.331C226.456 209.624 226.541 209.876 226.588 210.087C226.652 210.304 226.708 210.521 226.755 210.737C226.79 210.526 226.843 210.304 226.913 210.069C226.96 209.864 227.045 209.618 227.168 209.331L228.425 206.123H231.773L226.192 218.92H222.703ZM238.884 209.419C238.831 208.927 238.641 208.525 238.312 208.215C237.984 207.904 237.583 207.749 237.108 207.749C236.61 207.749 236.206 207.887 235.896 208.162C235.573 208.473 235.371 208.892 235.289 209.419H238.884ZM241.969 211.186H235.219C235.236 211.877 235.409 212.404 235.737 212.768C236.077 213.143 236.569 213.33 237.214 213.33C237.683 213.33 238.084 213.239 238.418 213.058C238.758 212.864 239.004 212.601 239.156 212.267L241.512 213.216C241.236 213.89 240.738 214.411 240.018 214.78C239.303 215.155 238.427 215.343 237.39 215.343C235.843 215.343 234.601 214.909 233.663 214.042C232.731 213.198 232.266 212.07 232.266 210.658C232.266 209.281 232.731 208.13 233.663 207.204C234.595 206.296 235.778 205.842 237.214 205.842C238.679 205.842 239.836 206.302 240.686 207.222C241.119 207.696 241.441 208.25 241.652 208.883C241.863 209.51 241.969 210.228 241.969 211.036V211.186ZM250.143 209.041C249.838 208.771 249.545 208.575 249.264 208.452C249.012 208.329 248.716 208.268 248.376 208.268C247.749 208.268 247.257 208.473 246.899 208.883C246.53 209.287 246.346 209.844 246.346 210.553C246.346 211.232 246.536 211.771 246.917 212.17C247.286 212.58 247.799 212.785 248.455 212.785C248.766 212.785 249.064 212.721 249.352 212.592C249.656 212.445 249.92 212.252 250.143 212.012V214.728C249.768 214.927 249.39 215.085 249.009 215.202C248.604 215.296 248.221 215.343 247.857 215.343C246.486 215.343 245.382 214.903 244.544 214.024C244.257 213.731 244.02 213.409 243.832 213.058C243.65 212.706 243.51 212.325 243.41 211.915C243.316 211.505 243.27 211.057 243.27 210.57C243.27 209.17 243.697 208.033 244.553 207.16C245.414 206.281 246.527 205.842 247.893 205.842C248.32 205.842 248.728 205.889 249.114 205.982C249.489 206.076 249.832 206.214 250.143 206.396V209.041ZM252.568 215L252.551 208.338H251.224V206.123H252.551V203.478H255.653V206.123H256.963V208.338H255.653V215H252.568ZM264.732 210.588C264.732 209.926 264.565 209.404 264.231 209.023C263.886 208.643 263.435 208.452 262.878 208.452C262.304 208.452 261.853 208.643 261.524 209.023C261.19 209.393 261.023 209.914 261.023 210.588C261.023 211.244 261.185 211.76 261.507 212.135C261.858 212.521 262.315 212.715 262.878 212.715C263.44 212.715 263.897 212.521 264.249 212.135C264.571 211.748 264.732 211.232 264.732 210.588ZM267.844 210.588C267.844 211.238 267.718 211.845 267.466 212.407C267.202 213.005 266.842 213.521 266.385 213.954C265.869 214.435 265.336 214.783 264.785 215C264.211 215.229 263.575 215.343 262.878 215.343C262.175 215.343 261.539 215.229 260.971 215C260.391 214.771 259.854 214.426 259.362 213.963C258.876 213.494 258.524 212.976 258.308 212.407C258.056 211.862 257.93 211.256 257.93 210.588C257.93 209.938 258.056 209.325 258.308 208.751C258.542 208.171 258.896 207.655 259.371 207.204C259.834 206.759 260.367 206.416 260.971 206.176C261.545 205.953 262.181 205.842 262.878 205.842C263.569 205.842 264.205 205.953 264.785 206.176C265.389 206.416 265.922 206.759 266.385 207.204C266.871 207.644 267.231 208.159 267.466 208.751C267.718 209.325 267.844 209.938 267.844 210.588ZM268.819 214.262L269.47 211.871C269.927 212.275 270.431 212.58 270.981 212.785C271.526 213.002 272.077 213.11 272.634 213.11C273.032 213.11 273.331 213.043 273.53 212.908C273.735 212.785 273.838 212.606 273.838 212.372C273.838 211.979 273.425 211.687 272.599 211.493C272.312 211.429 272.095 211.373 271.948 211.326C270.993 211.045 270.316 210.702 269.918 210.298C269.484 209.882 269.268 209.343 269.268 208.681C269.268 207.825 269.593 207.137 270.243 206.615C270.87 206.1 271.746 205.842 272.871 205.842C273.416 205.842 273.996 205.906 274.611 206.035C275.127 206.141 275.728 206.346 276.413 206.65L275.763 208.804C275.341 208.517 274.916 208.303 274.488 208.162C274.084 208.016 273.659 207.942 273.214 207.942C272.851 207.942 272.578 207.998 272.396 208.109C272.221 208.215 272.133 208.376 272.133 208.593C272.133 208.897 272.546 209.161 273.372 209.384C273.642 209.466 273.779 209.507 273.785 209.507C274.863 209.812 275.619 210.172 276.053 210.588C276.475 211.027 276.686 211.599 276.686 212.302C276.686 213.21 276.337 213.942 275.64 214.499C274.925 215.062 274.002 215.343 272.871 215.343C272.086 215.343 271.362 215.252 270.7 215.07C270.044 214.895 269.417 214.625 268.819 214.262Z" fill="white"/>
<path d="M31.6562 37V2.6875H52.6797V10.2109H40.7734V16.1641H52V23.5234H40.7734V29.3125H52.6797V37H31.6562ZM58.8906 37V2.6875H68.2422V28.9844H79.8672V37H58.8906ZM124.352 4.02344V14.2422C123.008 12.7891 121.742 11.7344 120.555 11.0781C119.227 10.4375 117.852 10.1172 116.43 10.1172C113.758 10.1172 111.578 11.0312 109.891 12.8594C109.312 13.5156 108.844 14.2031 108.484 14.9219C108.125 15.625 107.852 16.4297 107.664 17.3359C107.492 18.2266 107.406 19.1328 107.406 20.0547C107.406 22.8047 108.25 25.0938 109.938 26.9219C111.641 28.7188 113.805 29.6172 116.43 29.6172C117.836 29.6172 119.211 29.2812 120.555 28.6094C121.742 28 123.008 26.9531 124.352 25.4688V35.7109C122.617 36.5234 121.141 37.0625 119.922 37.3281C118.406 37.6875 116.922 37.8672 115.469 37.8672C113.625 37.8672 111.891 37.6406 110.266 37.1875C108.641 36.75 107.188 36.0781 105.906 35.1719C103.344 33.4219 101.391 31.2656 100.047 28.7031C98.7031 26.0469 98.0312 23.1016 98.0312 19.8672C98.0312 17.2734 98.4688 14.8906 99.3438 12.7188C99.7344 11.6719 100.227 10.6875 100.82 9.76562C101.43 8.82812 102.211 7.85938 103.164 6.85938C104.805 5.17188 106.648 3.92188 108.695 3.10938C110.727 2.28125 112.984 1.86719 115.469 1.86719C116.891 1.86719 118.375 2.03906 119.922 2.38281C121.453 2.78906 122.93 3.33594 124.352 4.02344ZM138.695 24.1797H148L144.508 12.8594C144.43 12.6562 144.281 12.0937 144.062 11.1719C143.797 10.0938 143.555 9.11719 143.336 8.24219C143.117 9.03906 142.93 9.84375 142.773 10.6562C142.523 11.4375 142.312 12.1719 142.141 12.8594L138.695 24.1797ZM125.594 37L137.43 2.6875H149.148L161.008 37H151.703L149.969 30.8594H136.68L134.898 37H125.594ZM173.078 37H164.312V2.6875H174.086C177.883 2.6875 180.578 2.875 182.172 3.25C183.734 3.65625 185.039 4.29688 186.086 5.17188C187.336 6.21875 188.297 7.51562 188.969 9.0625C189.641 10.6406 189.977 12.3984 189.977 14.3359C189.977 16.3984 189.641 18.1953 188.969 19.7266C188.375 21.2734 187.414 22.5547 186.086 23.5703C185.133 24.3203 183.984 24.8594 182.641 25.1875C181.438 25.5156 179.344 25.6797 176.359 25.6797H174.766H173.078V37ZM173.078 18.1328H174.859C177.078 18.1328 178.648 17.8125 179.57 17.1719C180.461 16.5781 180.906 15.5391 180.906 14.0547C180.906 12.6328 180.469 11.6172 179.594 11.0078C178.734 10.3828 177.188 10.0703 174.953 10.0703H173.078V18.1328ZM194.969 37V2.6875H204.414V37H194.969ZM216.93 37V10.7969H209.242V2.6875H233.969V10.7969H226.281V37H216.93ZM247.633 24.1797H256.938L253.445 12.8594C253.367 12.6562 253.219 12.0937 253 11.1719C252.734 10.0938 252.492 9.11719 252.273 8.24219C252.055 9.03906 251.867 9.84375 251.711 10.6562C251.461 11.4375 251.25 12.1719 251.078 12.8594L247.633 24.1797ZM234.531 37L246.367 2.6875H258.086L269.945 37H260.641L258.906 30.8594H245.617L243.836 37H234.531ZM273.25 37V2.6875H282.602V28.9844H294.227V37H273.25ZM322.609 37H313.844V2.6875H323.617C327.414 2.6875 330.109 2.875 331.703 3.25C333.266 3.65625 334.57 4.29688 335.617 5.17188C336.867 6.21875 337.828 7.51562 338.5 9.0625C339.172 10.6406 339.508 12.3984 339.508 14.3359C339.508 16.3984 339.172 18.1953 338.5 19.7266C337.906 21.2734 336.945 22.5547 335.617 23.5703C334.664 24.3203 333.516 24.8594 332.172 25.1875C330.969 25.5156 328.875 25.6797 325.891 25.6797H324.297H322.609V37ZM322.609 18.1328H324.391C326.609 18.1328 328.18 17.8125 329.102 17.1719C329.992 16.5781 330.438 15.5391 330.438 14.0547C330.438 12.6328 330 11.6172 329.125 11.0078C328.266 10.3828 326.719 10.0703 324.484 10.0703H322.609V18.1328ZM353.336 24.1797H362.641L359.148 12.8594C359.07 12.6562 358.922 12.0937 358.703 11.1719C358.438 10.0938 358.195 9.11719 357.977 8.24219C357.758 9.03906 357.57 9.84375 357.414 10.6562C357.164 11.4375 356.953 12.1719 356.781 12.8594L353.336 24.1797ZM340.234 37L352.07 2.6875H363.789L375.648 37H366.344L364.609 30.8594H351.32L349.539 37H340.234ZM378.953 37V2.6875H388.727C390.617 2.6875 392.211 2.72656 393.508 2.80469C394.82 2.88281 395.898 3.01562 396.742 3.20312C398.195 3.54688 399.492 4.14062 400.633 4.98438C401.883 5.92188 402.828 7.125 403.469 8.59375C404.141 10 404.477 11.5938 404.477 13.375C404.477 16.0156 403.82 18.1797 402.508 19.8672C401.227 21.5547 399.328 22.6562 396.812 23.1719L406.164 37H395.594L387.719 23.5703V37H378.953ZM387.719 18.9062H389.453C391.5 18.9062 392.977 18.5703 393.883 17.8984C394.805 17.1484 395.266 16.0625 395.266 14.6406C395.266 12.9219 394.836 11.7031 393.977 10.9844C393.102 10.25 391.641 9.88281 389.594 9.88281H387.719V18.9062ZM418.82 24.1797H428.125L424.633 12.8594C424.555 12.6562 424.406 12.0937 424.188 11.1719C423.922 10.0938 423.68 9.11719 423.461 8.24219C423.242 9.03906 423.055 9.84375 422.898 10.6562C422.648 11.4375 422.438 12.1719 422.266 12.8594L418.82 24.1797ZM405.719 37L417.555 2.6875H429.273L441.133 37H431.828L430.094 30.8594H416.805L415.023 37H405.719ZM31.8906 85V50.6875H41.3359V85H31.8906ZM88.2578 85H79.5156L77.5 70.1641C77.3281 68.8359 77.2031 67.6719 77.125 66.6719C77.0156 65.6875 76.9062 64.2891 76.7969 62.4766C76.5156 64.1016 76.0781 65.9141 75.4844 67.9141C75.3594 68.3047 75.2656 68.6406 75.2031 68.9219L70.5391 85H64.3047L59.6406 68.9219C59.5938 68.6562 59.5 68.3203 59.3594 67.9141C58.7031 65.8047 58.2734 63.9922 58.0703 62.4766C57.9453 64.1953 57.8281 65.4766 57.7188 66.3203C57.6719 66.7578 57.6016 67.3984 57.5078 68.2422C57.4141 69.0859 57.3438 69.7266 57.2969 70.1641L55.2812 85H46.5859L51.8828 50.6875H61.1406L66.3203 68.3828C66.4141 68.7109 66.4766 68.9219 66.5078 69.0156C66.9609 70.4844 67.2656 71.8281 67.4219 73.0469C67.4531 72.625 67.5703 71.9375 67.7734 70.9844C67.8359 70.75 68.0703 69.8672 68.4766 68.3359L73.7031 50.6875H82.9844L88.2578 85ZM102.062 85H93.2969V50.6875H103.07C106.867 50.6875 109.562 50.875 111.156 51.25C112.719 51.6562 114.023 52.2969 115.07 53.1719C116.32 54.2188 117.281 55.5156 117.953 57.0625C118.625 58.6406 118.961 60.3984 118.961 62.3359C118.961 64.3984 118.625 66.1953 117.953 67.7266C117.359 69.2734 116.398 70.5547 115.07 71.5703C114.117 72.3203 112.969 72.8594 111.625 73.1875C110.422 73.5156 108.328 73.6797 105.344 73.6797H103.75H102.062V85ZM102.062 66.1328H103.844C106.062 66.1328 107.633 65.8125 108.555 65.1719C109.445 64.5781 109.891 63.5391 109.891 62.0547C109.891 60.6328 109.453 59.6172 108.578 59.0078C107.719 58.3828 106.172 58.0703 103.938 58.0703H102.062V66.1328ZM123.461 50.6875H132.836V67.375C132.836 69.9219 132.898 71.6875 133.023 72.6719C133.18 73.8438 133.391 74.7344 133.656 75.3438C133.984 76.2344 134.602 76.8906 135.508 77.3125C136.414 77.7969 137.508 78.0391 138.789 78.0391C140.055 78.0391 141.141 77.7969 142.047 77.3125C142.875 76.9062 143.5 76.25 143.922 75.3438C144.172 74.7188 144.375 73.8281 144.531 72.6719C144.672 71.7344 144.742 69.9688 144.742 67.375V65.0312V50.6875H154.047V68.8281C154.047 72.5469 153.82 75.3125 153.367 77.125C152.945 78.9219 152.18 80.4609 151.07 81.7422C149.852 83.1641 148.234 84.2031 146.219 84.8594C144.219 85.5625 141.742 85.9141 138.789 85.9141C135.773 85.9141 133.289 85.5625 131.336 84.8594C129.352 84.2031 127.734 83.1641 126.484 81.7422C125.406 80.4922 124.641 78.9531 124.188 77.125C123.703 75.2812 123.461 72.5156 123.461 68.8281V65.2656V50.6875ZM161.172 85V50.6875H170.523V76.9844H182.148V85H161.172ZM188.242 73.9141C189.68 75.5078 191.055 76.6875 192.367 77.4531C193.742 78.2344 195.086 78.625 196.398 78.625C197.633 78.625 198.656 78.2891 199.469 77.6172C200.281 76.9453 200.688 76.0938 200.688 75.0625C200.688 73.9375 200.352 73.0547 199.68 72.4141C198.961 71.8047 197.375 71.1719 194.922 70.5156C191.578 69.6094 189.211 68.4375 187.82 67C186.414 65.5312 185.711 63.5312 185.711 61C185.711 57.7188 186.812 55.0469 189.016 52.9844C191.188 50.9062 194.031 49.8672 197.547 49.8672C199.531 49.8672 201.328 50.125 202.938 50.6406C204.625 51.1562 206.227 51.9219 207.742 52.9375L204.812 59.6641C203.781 58.7734 202.688 58.0859 201.531 57.6016C200.406 57.1484 199.305 56.9219 198.227 56.9219C197.133 56.9219 196.219 57.1953 195.484 57.7422C194.781 58.2578 194.43 58.9453 194.43 59.8047C194.43 60.6328 194.734 61.3203 195.344 61.8672C195.984 62.3828 197.188 62.875 198.953 63.3438C199.016 63.3594 199.07 63.375 199.117 63.3906C199.164 63.3906 199.234 63.4062 199.328 63.4375C203.141 64.4531 205.656 65.5938 206.875 66.8594C207.672 67.6562 208.297 68.6641 208.75 69.8828C209.156 71.0391 209.359 72.3516 209.359 73.8203C209.359 77.4453 208.164 80.375 205.773 82.6094C203.367 84.8125 200.18 85.9141 196.211 85.9141C193.773 85.9141 191.594 85.5156 189.672 84.7188C187.766 83.9219 185.883 82.6406 184.023 80.875L188.242 73.9141ZM223.68 72.1797H232.984L229.492 60.8594C229.414 60.6562 229.266 60.0938 229.047 59.1719C228.781 58.0938 228.539 57.1172 228.32 56.2422C228.102 57.0391 227.914 57.8438 227.758 58.6562C227.508 59.4375 227.297 60.1719 227.125 60.8594L223.68 72.1797ZM210.578 85L222.414 50.6875H234.133L245.992 85H236.688L234.953 78.8594H221.664L219.883 85H210.578ZM249.297 85V50.6875H259.07C260.961 50.6875 262.555 50.7266 263.852 50.8047C265.164 50.8828 266.242 51.0156 267.086 51.2031C268.539 51.5469 269.836 52.1406 270.977 52.9844C272.227 53.9219 273.172 55.125 273.812 56.5938C274.484 58 274.82 59.5938 274.82 61.375C274.82 64.0156 274.164 66.1797 272.852 67.8672C271.57 69.5547 269.672 70.6562 267.156 71.1719L276.508 85H265.938L258.062 71.5703V85H249.297ZM258.062 66.9062H259.797C261.844 66.9062 263.32 66.5703 264.227 65.8984C265.148 65.1484 265.609 64.0625 265.609 62.6406C265.609 60.9219 265.18 59.7031 264.32 58.9844C263.445 58.25 261.984 57.8828 259.938 57.8828H258.062V66.9062ZM300.086 85V58.7969H292.398V50.6875H317.125V58.7969H309.438V85H300.086ZM321.461 50.6875H330.836V67.375C330.836 69.9219 330.898 71.6875 331.023 72.6719C331.18 73.8438 331.391 74.7344 331.656 75.3438C331.984 76.2344 332.602 76.8906 333.508 77.3125C334.414 77.7969 335.508 78.0391 336.789 78.0391C338.055 78.0391 339.141 77.7969 340.047 77.3125C340.875 76.9062 341.5 76.25 341.922 75.3438C342.172 74.7188 342.375 73.8281 342.531 72.6719C342.672 71.7344 342.742 69.9688 342.742 67.375V65.0312V50.6875H352.047V68.8281C352.047 72.5469 351.82 75.3125 351.367 77.125C350.945 78.9219 350.18 80.4609 349.07 81.7422C347.852 83.1641 346.234 84.2031 344.219 84.8594C342.219 85.5625 339.742 85.9141 336.789 85.9141C333.773 85.9141 331.289 85.5625 329.336 84.8594C327.352 84.2031 325.734 83.1641 324.484 81.7422C323.406 80.4922 322.641 78.9531 322.188 77.125C321.703 75.2812 321.461 72.5156 321.461 68.8281V65.2656V50.6875ZM31.6562 133V98.6875H40.6797L53.6406 116.336C53.9688 116.82 54.3828 117.547 54.8828 118.516C55.5234 119.766 56.1484 121.055 56.7578 122.383C56.5234 120.586 56.3906 119.328 56.3594 118.609C56.2656 117.484 56.2188 116.492 56.2188 115.633V98.6875H65.1953V133H56.2188L43.2578 115.281C43.0703 115.031 42.6562 114.297 42.0156 113.078C41.4531 112.078 40.8281 110.812 40.1406 109.281C40.2969 110.5 40.4453 111.766 40.5859 113.078C40.6484 114.547 40.6797 115.539 40.6797 116.055V133H31.6562ZM72.5781 133V98.6875H93.6016V106.211H81.6953V112.164H92.9219V119.523H81.6953V125.312H93.6016V133H72.5781ZM116.125 120.367V113.172H134.5C134.5 113.5 134.516 113.758 134.547 113.945V115.188C134.547 121.109 133 125.688 129.906 128.922C126.781 132.188 122.383 133.82 116.711 133.82C114.008 133.82 111.539 133.406 109.305 132.578C107.148 131.75 105.211 130.469 103.492 128.734C101.852 127.062 100.594 125.125 99.7188 122.922C99.25 121.75 98.9062 120.578 98.6875 119.406C98.4688 118.219 98.3594 117.039 98.3594 115.867C98.3594 113.336 98.7969 110.984 99.6719 108.812C100.547 106.703 101.852 104.766 103.586 103C105.242 101.344 107.211 100.078 109.492 99.2031C111.742 98.3438 114.148 97.9141 116.711 97.9141C120.055 97.9141 123.023 98.5859 125.617 99.9297C126.445 100.336 127.258 100.844 128.055 101.453C128.867 102.047 129.609 102.711 130.281 103.445C130.969 104.18 131.594 104.977 132.156 105.836L124.047 109.727C123.078 108.398 121.992 107.406 120.789 106.75C119.555 106.109 118.195 105.789 116.711 105.789C113.898 105.789 111.703 106.719 110.125 108.578C108.531 110.422 107.734 112.977 107.734 116.242C107.734 119.523 108.531 122.102 110.125 123.977C111.703 125.836 113.898 126.766 116.711 126.766C119.102 126.766 121.078 126.172 122.641 124.984C124.266 123.812 125.195 122.273 125.43 120.367H116.125ZM175.492 115.914C175.492 118.398 175.047 120.719 174.156 122.875C173.266 124.984 171.938 126.906 170.172 128.641C168.422 130.328 166.422 131.625 164.172 132.531C161.812 133.453 159.477 133.914 157.164 133.914C154.82 133.914 152.484 133.453 150.156 132.531C147.859 131.609 145.875 130.312 144.203 128.641C142.516 127.031 141.188 125.094 140.219 122.828C139.281 120.609 138.812 118.305 138.812 115.914C138.812 113.523 139.281 111.219 140.219 109C141.188 106.734 142.516 104.797 144.203 103.188C145.922 101.469 147.906 100.156 150.156 99.25C152.344 98.3594 154.68 97.9141 157.164 97.9141C159.648 97.9141 162 98.3672 164.219 99.2734C166.438 100.164 168.414 101.469 170.148 103.188C171.898 104.906 173.234 106.844 174.156 109C175.047 111.156 175.492 113.461 175.492 115.914ZM157.164 125.992C159.742 125.992 161.898 125.031 163.633 123.109C164.492 122.156 165.125 121.086 165.531 119.898C165.938 118.711 166.141 117.383 166.141 115.914C166.141 113.055 165.289 110.656 163.586 108.719C161.852 106.797 159.711 105.836 157.164 105.836C154.555 105.836 152.406 106.797 150.719 108.719C149.031 110.641 148.188 113.039 148.188 115.914C148.188 118.898 149.016 121.312 150.672 123.156C152.375 125.047 154.539 125.992 157.164 125.992ZM206.242 100.023V110.242C204.898 108.789 203.633 107.734 202.445 107.078C201.117 106.438 199.742 106.117 198.32 106.117C195.648 106.117 193.469 107.031 191.781 108.859C191.203 109.516 190.734 110.203 190.375 110.922C190.016 111.625 189.742 112.43 189.555 113.336C189.383 114.227 189.297 115.133 189.297 116.055C189.297 118.805 190.141 121.094 191.828 122.922C193.531 124.719 195.695 125.617 198.32 125.617C199.727 125.617 201.102 125.281 202.445 124.609C203.633 124 204.898 122.953 206.242 121.469V131.711C204.508 132.523 203.031 133.062 201.812 133.328C200.297 133.688 198.812 133.867 197.359 133.867C195.516 133.867 193.781 133.641 192.156 133.188C190.531 132.75 189.078 132.078 187.797 131.172C185.234 129.422 183.281 127.266 181.938 124.703C180.594 122.047 179.922 119.102 179.922 115.867C179.922 113.273 180.359 110.891 181.234 108.719C181.625 107.672 182.117 106.688 182.711 105.766C183.32 104.828 184.102 103.859 185.055 102.859C186.695 101.172 188.539 99.9219 190.586 99.1094C192.617 98.2812 194.875 97.8672 197.359 97.8672C198.781 97.8672 200.266 98.0391 201.812 98.3828C203.344 98.7891 204.82 99.3359 206.242 100.023ZM211.75 133V98.6875H221.195V133H211.75ZM263.992 115.914C263.992 118.398 263.547 120.719 262.656 122.875C261.766 124.984 260.438 126.906 258.672 128.641C256.922 130.328 254.922 131.625 252.672 132.531C250.312 133.453 247.977 133.914 245.664 133.914C243.32 133.914 240.984 133.453 238.656 132.531C236.359 131.609 234.375 130.312 232.703 128.641C231.016 127.031 229.688 125.094 228.719 122.828C227.781 120.609 227.312 118.305 227.312 115.914C227.312 113.523 227.781 111.219 228.719 109C229.688 106.734 231.016 104.797 232.703 103.188C234.422 101.469 236.406 100.156 238.656 99.25C240.844 98.3594 243.18 97.9141 245.664 97.9141C248.148 97.9141 250.5 98.3672 252.719 99.2734C254.938 100.164 256.914 101.469 258.648 103.188C260.398 104.906 261.734 106.844 262.656 109C263.547 111.156 263.992 113.461 263.992 115.914ZM245.664 125.992C248.242 125.992 250.398 125.031 252.133 123.109C252.992 122.156 253.625 121.086 254.031 119.898C254.438 118.711 254.641 117.383 254.641 115.914C254.641 113.055 253.789 110.656 252.086 108.719C250.352 106.797 248.211 105.836 245.664 105.836C243.055 105.836 240.906 106.797 239.219 108.719C237.531 110.641 236.688 113.039 236.688 115.914C236.688 118.898 237.516 121.312 239.172 123.156C240.875 125.047 243.039 125.992 245.664 125.992Z" fill="white"/>
</svg>
