<svg width="588" height="172" viewBox="0 0 588 172" fill="none" xmlns="http://www.w3.org/2000/svg">
<path d="M36.6016 37V10.7969H28.9141V2.6875H53.6406V10.7969H45.9531V37H36.6016ZM57.9766 2.6875H67.3516V19.375C67.3516 21.9219 67.4141 23.6875 67.5391 24.6719C67.6953 25.8438 67.9062 26.7344 68.1719 27.3438C68.5 28.2344 69.1172 28.8906 70.0234 29.3125C70.9297 29.7969 72.0234 30.0391 73.3047 30.0391C74.5703 30.0391 75.6562 29.7969 76.5625 29.3125C77.3906 28.9062 78.0156 28.25 78.4375 27.3438C78.6875 26.7188 78.8906 25.8281 79.0469 24.6719C79.1875 23.7344 79.2578 21.9688 79.2578 19.375V17.0312V2.6875H88.5625V20.8281C88.5625 24.5469 88.3359 27.3125 87.8828 29.125C87.4609 30.9219 86.6953 32.4609 85.5859 33.7422C84.3672 35.1641 82.75 36.2031 80.7344 36.8594C78.7344 37.5625 76.2578 37.9141 73.3047 37.9141C70.2891 37.9141 67.8047 37.5625 65.8516 36.8594C63.8672 36.2031 62.25 35.1641 61 33.7422C59.9219 32.4922 59.1562 30.9531 58.7031 29.125C58.2188 27.2812 57.9766 24.5156 57.9766 20.8281V17.2656V2.6875ZM119.805 24.1797H129.109L125.617 12.8594C125.539 12.6562 125.391 12.0937 125.172 11.1719C124.906 10.0938 124.664 9.11719 124.445 8.24219C124.227 9.03906 124.039 9.84375 123.883 10.6562C123.633 11.4375 123.422 12.1719 123.25 12.8594L119.805 24.1797ZM106.703 37L118.539 2.6875H130.258L142.117 37H132.812L131.078 30.8594H117.789L116.008 37H106.703ZM145.422 37V2.6875H154.773V28.9844H166.398V37H145.422ZM171.203 37V2.6875H180.648V37H171.203ZM197.289 24.1797H206.594L203.102 12.8594C203.023 12.6562 202.875 12.0937 202.656 11.1719C202.391 10.0938 202.148 9.11719 201.93 8.24219C201.711 9.03906 201.523 9.84375 201.367 10.6562C201.117 11.4375 200.906 12.1719 200.734 12.8594L197.289 24.1797ZM184.188 37L196.023 2.6875H207.742L219.602 37H210.297L208.562 30.8594H195.273L193.492 37H184.188ZM222.906 37V2.6875H230.055C235.461 2.6875 239.234 2.9375 241.375 3.4375C243.594 3.9375 245.531 4.77344 247.188 5.94531C249.375 7.44531 251.023 9.38281 252.133 11.7578C253.258 14.1484 253.82 16.8516 253.82 19.8672C253.82 22.8828 253.258 25.5859 252.133 27.9766C251.023 30.3203 249.375 32.2578 247.188 33.7891C245.469 34.9609 243.578 35.7734 241.516 36.2266C239.453 36.7422 236.156 37 231.625 37H230.055H222.906ZM232.164 29.3125H233.734C237.422 29.3125 240.102 28.5469 241.773 27.0156C243.461 25.5156 244.305 23.1328 244.305 19.8672C244.305 16.6172 243.461 14.2188 241.773 12.6719C240.086 11.125 237.406 10.3516 233.734 10.3516H232.164V29.3125ZM294.93 19.9141C294.93 22.3984 294.484 24.7188 293.594 26.875C292.703 28.9844 291.375 30.9062 289.609 32.6406C287.859 34.3281 285.859 35.625 283.609 36.5312C281.25 37.4531 278.914 37.9141 276.602 37.9141C274.258 37.9141 271.922 37.4531 269.594 36.5312C267.297 35.6094 265.312 34.3125 263.641 32.6406C261.953 31.0312 260.625 29.0938 259.656 26.8281C258.719 24.6094 258.25 22.3047 258.25 19.9141C258.25 17.5234 258.719 15.2188 259.656 13C260.625 10.7344 261.953 8.79688 263.641 7.1875C265.359 5.46875 267.344 4.15625 269.594 3.25C271.781 2.35938 274.117 1.91406 276.602 1.91406C279.086 1.91406 281.438 2.36719 283.656 3.27344C285.875 4.16406 287.852 5.46875 289.586 7.1875C291.336 8.90625 292.672 10.8438 293.594 13C294.484 15.1562 294.93 17.4609 294.93 19.9141ZM276.602 29.9922C279.18 29.9922 281.336 29.0312 283.07 27.1094C283.93 26.1562 284.562 25.0859 284.969 23.8984C285.375 22.7109 285.578 21.3828 285.578 19.9141C285.578 17.0547 284.727 14.6562 283.023 12.7188C281.289 10.7969 279.148 9.83594 276.602 9.83594C273.992 9.83594 271.844 10.7969 270.156 12.7188C268.469 14.6406 267.625 17.0391 267.625 19.9141C267.625 22.8984 268.453 25.3125 270.109 27.1562C271.812 29.0469 273.977 29.9922 276.602 29.9922ZM315.859 37V2.6875H336.883V10.2109H324.977V16.1641H336.203V23.5234H324.977V29.3125H336.883V37H315.859ZM343.094 37V2.6875H352.117L365.078 20.3359C365.406 20.8203 365.82 21.5469 366.32 22.5156C366.961 23.7656 367.586 25.0547 368.195 26.3828C367.961 24.5859 367.828 23.3281 367.797 22.6094C367.703 21.4844 367.656 20.4922 367.656 19.6328V2.6875H376.633V37H367.656L354.695 19.2812C354.508 19.0312 354.094 18.2969 353.453 17.0781C352.891 16.0781 352.266 14.8125 351.578 13.2812C351.734 14.5 351.883 15.7656 352.023 17.0781C352.086 18.5469 352.117 19.5391 352.117 20.0547V37H343.094Z" fill="white"/>
<path d="M40.3281 64.3984H42.2031C44.5312 64.3984 46.1172 64.1484 46.9609 63.6484C47.8203 63.1172 48.25 62.2344 48.25 61C48.25 59.7031 47.8516 58.7891 47.0547 58.2578C46.1797 57.7109 44.6094 57.4375 42.3438 57.4375H40.3281V64.3984ZM31.6562 85V50.6875H41.0547C44.8359 50.6875 47.5391 50.8125 49.1641 51.0625C50.6797 51.2969 52.0078 51.7266 53.1484 52.3516C54.3984 53.0859 55.3594 54.0156 56.0312 55.1406C56.7031 56.3281 57.0391 57.7031 57.0391 59.2656C57.0391 61.25 56.5391 62.8125 55.5391 63.9531C54.5547 65.0781 52.9766 65.9375 50.8047 66.5312C53.1797 66.7188 55.0859 67.5625 56.5234 69.0625C57.8984 70.5938 58.5859 72.6406 58.5859 75.2031C58.5859 77.0156 58.1953 78.6172 57.4141 80.0078C56.6328 81.4453 55.5312 82.5312 54.1094 83.2656C53.0156 83.8438 51.5781 84.2969 49.7969 84.625C47.9531 84.875 45.1328 85 41.3359 85H31.6562ZM40.3281 77.9922H43.6094C45.8281 77.9922 47.3906 77.7031 48.2969 77.125C49.2344 76.5938 49.7031 75.6797 49.7031 74.3828C49.7031 72.9766 49.2812 71.9688 48.4375 71.3594C47.5938 70.7969 46.0312 70.5156 43.75 70.5156H40.3281V77.9922ZM73.3047 72.1797H82.6094L79.1172 60.8594C79.0391 60.6562 78.8906 60.0938 78.6719 59.1719C78.4062 58.0938 78.1641 57.1172 77.9453 56.2422C77.7266 57.0391 77.5391 57.8438 77.3828 58.6562C77.1328 59.4375 76.9219 60.1719 76.75 60.8594L73.3047 72.1797ZM60.2031 85L72.0391 50.6875H83.7578L95.6172 85H86.3125L84.5781 78.8594H71.2891L69.5078 85H60.2031ZM98.9219 85V50.6875H107.945L120.906 68.3359C121.234 68.8203 121.648 69.5469 122.148 70.5156C122.789 71.7656 123.414 73.0547 124.023 74.3828C123.789 72.5859 123.656 71.3281 123.625 70.6094C123.531 69.4844 123.484 68.4922 123.484 67.6328V50.6875H132.461V85H123.484L110.523 67.2812C110.336 67.0312 109.922 66.2969 109.281 65.0781C108.719 64.0781 108.094 62.8125 107.406 61.2812C107.562 62.5 107.711 63.7656 107.852 65.0781C107.914 66.5469 107.945 67.5391 107.945 68.0547V85H98.9219ZM164.711 52.0234V62.2422C163.367 60.7891 162.102 59.7344 160.914 59.0781C159.586 58.4375 158.211 58.1172 156.789 58.1172C154.117 58.1172 151.938 59.0312 150.25 60.8594C149.672 61.5156 149.203 62.2031 148.844 62.9219C148.484 63.625 148.211 64.4297 148.023 65.3359C147.852 66.2266 147.766 67.1328 147.766 68.0547C147.766 70.8047 148.609 73.0938 150.297 74.9219C152 76.7188 154.164 77.6172 156.789 77.6172C158.195 77.6172 159.57 77.2812 160.914 76.6094C162.102 76 163.367 74.9531 164.711 73.4688V83.7109C162.977 84.5234 161.5 85.0625 160.281 85.3281C158.766 85.6875 157.281 85.8672 155.828 85.8672C153.984 85.8672 152.25 85.6406 150.625 85.1875C149 84.75 147.547 84.0781 146.266 83.1719C143.703 81.4219 141.75 79.2656 140.406 76.7031C139.062 74.0469 138.391 71.1016 138.391 67.8672C138.391 65.2734 138.828 62.8906 139.703 60.7188C140.094 59.6719 140.586 58.6875 141.18 57.7656C141.789 56.8281 142.57 55.8594 143.523 54.8594C145.164 53.1719 147.008 51.9219 149.055 51.1094C151.086 50.2812 153.344 49.8672 155.828 49.8672C157.25 49.8672 158.734 50.0391 160.281 50.3828C161.812 50.7891 163.289 51.3359 164.711 52.0234ZM179.055 72.1797H188.359L184.867 60.8594C184.789 60.6562 184.641 60.0938 184.422 59.1719C184.156 58.0938 183.914 57.1172 183.695 56.2422C183.477 57.0391 183.289 57.8438 183.133 58.6562C182.883 59.4375 182.672 60.1719 182.5 60.8594L179.055 72.1797ZM165.953 85L177.789 50.6875H189.508L201.367 85H192.062L190.328 78.8594H177.039L175.258 85H165.953ZM219.719 85V50.6875H240.742V58.2109H228.836V64.1641H240.062V71.5234H228.836V77.3125H240.742V85H219.719ZM286.305 85H277.562L275.547 70.1641C275.375 68.8359 275.25 67.6719 275.172 66.6719C275.062 65.6875 274.953 64.2891 274.844 62.4766C274.562 64.1016 274.125 65.9141 273.531 67.9141C273.406 68.3047 273.312 68.6406 273.25 68.9219L268.586 85H262.352L257.688 68.9219C257.641 68.6562 257.547 68.3203 257.406 67.9141C256.75 65.8047 256.32 63.9922 256.117 62.4766C255.992 64.1953 255.875 65.4766 255.766 66.3203C255.719 66.7578 255.648 67.3984 255.555 68.2422C255.461 69.0859 255.391 69.7266 255.344 70.1641L253.328 85H244.633L249.93 50.6875H259.188L264.367 68.3828C264.461 68.7109 264.523 68.9219 264.555 69.0156C265.008 70.4844 265.312 71.8281 265.469 73.0469C265.5 72.625 265.617 71.9375 265.82 70.9844C265.883 70.75 266.117 69.8672 266.523 68.3359L271.75 50.6875H281.031L286.305 85ZM300.109 85H291.344V50.6875H301.117C304.914 50.6875 307.609 50.875 309.203 51.25C310.766 51.6562 312.07 52.2969 313.117 53.1719C314.367 54.2188 315.328 55.5156 316 57.0625C316.672 58.6406 317.008 60.3984 317.008 62.3359C317.008 64.3984 316.672 66.1953 316 67.7266C315.406 69.2734 314.445 70.5547 313.117 71.5703C312.164 72.3203 311.016 72.8594 309.672 73.1875C308.469 73.5156 306.375 73.6797 303.391 73.6797H301.797H300.109V85ZM300.109 66.1328H301.891C304.109 66.1328 305.68 65.8125 306.602 65.1719C307.492 64.5781 307.938 63.5391 307.938 62.0547C307.938 60.6328 307.5 59.6172 306.625 59.0078C305.766 58.3828 304.219 58.0703 301.984 58.0703H300.109V66.1328ZM321.766 85V50.6875H331.539C333.43 50.6875 335.023 50.7266 336.32 50.8047C337.633 50.8828 338.711 51.0156 339.555 51.2031C341.008 51.5469 342.305 52.1406 343.445 52.9844C344.695 53.9219 345.641 55.125 346.281 56.5938C346.953 58 347.289 59.5938 347.289 61.375C347.289 64.0156 346.633 66.1797 345.32 67.8672C344.039 69.5547 342.141 70.6562 339.625 71.1719L348.977 85H338.406L330.531 71.5703V85H321.766ZM330.531 66.9062H332.266C334.312 66.9062 335.789 66.5703 336.695 65.8984C337.617 65.1484 338.078 64.0625 338.078 62.6406C338.078 60.9219 337.648 59.7031 336.789 58.9844C335.914 58.25 334.453 57.8828 332.406 57.8828H330.531V66.9062ZM352.562 85V50.6875H373.586V58.2109H361.68V64.1641H372.906V71.5234H361.68V77.3125H373.586V85H352.562ZM381.32 73.9141C382.758 75.5078 384.133 76.6875 385.445 77.4531C386.82 78.2344 388.164 78.625 389.477 78.625C390.711 78.625 391.734 78.2891 392.547 77.6172C393.359 76.9453 393.766 76.0938 393.766 75.0625C393.766 73.9375 393.43 73.0547 392.758 72.4141C392.039 71.8047 390.453 71.1719 388 70.5156C384.656 69.6094 382.289 68.4375 380.898 67C379.492 65.5312 378.789 63.5312 378.789 61C378.789 57.7188 379.891 55.0469 382.094 52.9844C384.266 50.9062 387.109 49.8672 390.625 49.8672C392.609 49.8672 394.406 50.125 396.016 50.6406C397.703 51.1562 399.305 51.9219 400.82 52.9375L397.891 59.6641C396.859 58.7734 395.766 58.0859 394.609 57.6016C393.484 57.1484 392.383 56.9219 391.305 56.9219C390.211 56.9219 389.297 57.1953 388.562 57.7422C387.859 58.2578 387.508 58.9453 387.508 59.8047C387.508 60.6328 387.812 61.3203 388.422 61.8672C389.062 62.3828 390.266 62.875 392.031 63.3438C392.094 63.3594 392.148 63.375 392.195 63.3906C392.242 63.3906 392.312 63.4062 392.406 63.4375C396.219 64.4531 398.734 65.5938 399.953 66.8594C400.75 67.6562 401.375 68.6641 401.828 69.8828C402.234 71.0391 402.438 72.3516 402.438 73.8203C402.438 77.4453 401.242 80.375 398.852 82.6094C396.445 84.8125 393.258 85.9141 389.289 85.9141C386.852 85.9141 384.672 85.5156 382.75 84.7188C380.844 83.9219 378.961 82.6406 377.102 80.875L381.32 73.9141ZM416.758 72.1797H426.062L422.57 60.8594C422.492 60.6562 422.344 60.0938 422.125 59.1719C421.859 58.0938 421.617 57.1172 421.398 56.2422C421.18 57.0391 420.992 57.8438 420.836 58.6562C420.586 59.4375 420.375 60.1719 420.203 60.8594L416.758 72.1797ZM403.656 85L415.492 50.6875H427.211L439.07 85H429.766L428.031 78.8594H414.742L412.961 85H403.656ZM442.375 85V50.6875H452.148C454.039 50.6875 455.633 50.7266 456.93 50.8047C458.242 50.8828 459.32 51.0156 460.164 51.2031C461.617 51.5469 462.914 52.1406 464.055 52.9844C465.305 53.9219 466.25 55.125 466.891 56.5938C467.562 58 467.898 59.5938 467.898 61.375C467.898 64.0156 467.242 66.1797 465.93 67.8672C464.648 69.5547 462.75 70.6562 460.234 71.1719L469.586 85H459.016L451.141 71.5703V85H442.375ZM451.141 66.9062H452.875C454.922 66.9062 456.398 66.5703 457.305 65.8984C458.227 65.1484 458.688 64.0625 458.688 62.6406C458.688 60.9219 458.258 59.7031 457.398 58.9844C456.523 58.25 455.062 57.8828 453.016 57.8828H451.141V66.9062ZM473.406 85V50.6875H482.852V85H473.406ZM499.492 72.1797H508.797L505.305 60.8594C505.227 60.6562 505.078 60.0938 504.859 59.1719C504.594 58.0938 504.352 57.1172 504.133 56.2422C503.914 57.0391 503.727 57.8438 503.57 58.6562C503.32 59.4375 503.109 60.1719 502.938 60.8594L499.492 72.1797ZM486.391 85L498.227 50.6875H509.945L521.805 85H512.5L510.766 78.8594H497.477L495.695 85H486.391ZM525.109 85V50.6875H534.461V76.9844H546.086V85H525.109Z" fill="#F4F6F9"/>
<path d="M27 132H15C10.5817 132 7 128.418 7 124V14" stroke="white" stroke-width="1.5"/>
<path d="M12.622 7.0784C12.622 10.6144 9.92461 13.4068 6.68598 13.4068C3.44736 13.4068 0.75 10.6144 0.75 7.0784C0.75 3.54244 3.44736 0.75 6.68598 0.75C9.92461 0.75 12.622 3.54244 12.622 7.0784Z" stroke="white" stroke-width="1.5"/>
<rect x="25" y="110" width="369" height="62" rx="16" fill="#002A61"/>
<path d="M46.623 137.274H47.3262C48.1992 137.274 48.7939 137.181 49.1104 136.993C49.4326 136.794 49.5938 136.463 49.5938 136C49.5938 135.514 49.4443 135.171 49.1455 134.972C48.8174 134.767 48.2285 134.664 47.3789 134.664H46.623V137.274ZM43.3711 145V132.133H46.8955C48.3135 132.133 49.3271 132.18 49.9365 132.273C50.5049 132.361 51.0029 132.522 51.4307 132.757C51.8994 133.032 52.2598 133.381 52.5117 133.803C52.7637 134.248 52.8896 134.764 52.8896 135.35C52.8896 136.094 52.7021 136.68 52.3271 137.107C51.958 137.529 51.3662 137.852 50.5518 138.074C51.4424 138.145 52.1572 138.461 52.6963 139.023C53.2119 139.598 53.4697 140.365 53.4697 141.326C53.4697 142.006 53.3232 142.606 53.0303 143.128C52.7373 143.667 52.3242 144.074 51.791 144.35C51.3809 144.566 50.8418 144.736 50.1738 144.859C49.4824 144.953 48.4248 145 47.001 145H43.3711ZM46.623 142.372H47.8535C48.6855 142.372 49.2715 142.264 49.6113 142.047C49.9629 141.848 50.1387 141.505 50.1387 141.019C50.1387 140.491 49.9805 140.113 49.6641 139.885C49.3477 139.674 48.7617 139.568 47.9062 139.568H46.623V142.372ZM55.3857 145V136.123H58.3389V138.215C58.6494 137.447 59.0625 136.876 59.5781 136.501C60.1113 136.12 60.7529 135.93 61.5029 135.93C61.6729 135.93 61.7988 135.936 61.8809 135.947C61.9453 135.953 62.0039 135.959 62.0566 135.965C62.1094 135.965 62.1768 135.971 62.2588 135.982L61.96 138.83C61.7432 138.76 61.5557 138.71 61.3975 138.681C61.1631 138.657 60.9902 138.646 60.8789 138.646C60.1172 138.646 59.5283 138.88 59.1123 139.349C58.7021 139.812 58.4971 140.471 58.4971 141.326V145H55.3857ZM63.3486 145V136.123H66.4775V145H63.3486ZM63.7441 133.838H63.7617C63.7617 133.51 63.876 133.24 64.1045 133.029C64.333 132.801 64.6084 132.687 64.9307 132.687C65.2705 132.687 65.5488 132.795 65.7656 133.012C65.9883 133.229 66.0996 133.504 66.0996 133.838C66.0996 134.178 65.9854 134.459 65.7568 134.682C65.5342 134.91 65.2588 135.024 64.9307 135.024C64.5967 135.024 64.3154 134.904 64.0869 134.664C63.8584 134.441 63.7441 134.166 63.7441 133.838ZM69.0439 145V136.123H71.9092V137.925C72.3135 137.222 72.7939 136.694 73.3506 136.343C73.8896 136.009 74.543 135.842 75.3105 135.842C75.8906 135.842 76.4062 135.93 76.8574 136.105C77.3027 136.305 77.6631 136.574 77.9385 136.914C78.1904 137.254 78.3574 137.614 78.4395 137.995C78.5391 138.481 78.5889 139.123 78.5889 139.92V145H75.4512V140.245C75.4512 139.524 75.3369 139.009 75.1084 138.698C74.8799 138.376 74.5078 138.215 73.9922 138.215C73.3477 138.215 72.873 138.455 72.5684 138.936C72.2695 139.416 72.1201 140.195 72.1201 141.273V145H69.0439ZM87.5889 140.57C87.5889 139.873 87.4102 139.328 87.0527 138.936C86.6719 138.537 86.168 138.338 85.541 138.338C84.9082 138.338 84.4102 138.537 84.0469 138.936C83.6836 139.334 83.502 139.879 83.502 140.57C83.502 141.268 83.6836 141.815 84.0469 142.214C84.4043 142.606 84.9023 142.803 85.541 142.803C86.1738 142.803 86.6777 142.606 87.0527 142.214C87.4102 141.821 87.5889 141.273 87.5889 140.57ZM90.3662 131.377V145H87.4834V143.559C87.085 144.162 86.6338 144.607 86.1299 144.895C85.6611 145.193 85.1104 145.343 84.4775 145.343C83.2354 145.343 82.2422 144.909 81.498 144.042C80.7598 143.175 80.3906 142.018 80.3906 140.57C80.3906 139.164 80.7627 138.019 81.5068 137.134C82.2451 136.272 83.2002 135.842 84.3721 135.842C85.1221 135.842 85.7314 135.979 86.2002 136.255C86.6514 136.507 87.0732 136.955 87.4658 137.6C87.4424 137.441 87.4189 137.201 87.3955 136.879C87.3721 136.527 87.3604 136.24 87.3604 136.018V131.377H90.3662ZM99.4541 140.553C99.4541 139.85 99.2695 139.305 98.9004 138.918C98.5254 138.508 98.0215 138.303 97.3887 138.303C96.7559 138.303 96.2578 138.502 95.8945 138.9C95.5195 139.311 95.332 139.861 95.332 140.553C95.332 141.25 95.5195 141.798 95.8945 142.196C96.252 142.589 96.75 142.785 97.3887 142.785C98.0215 142.785 98.5225 142.589 98.8916 142.196C99.2666 141.804 99.4541 141.256 99.4541 140.553ZM102.205 136.123V145H99.3311V143.559C98.915 144.174 98.4492 144.625 97.9336 144.912C97.4238 145.199 96.8262 145.343 96.1406 145.343C94.9512 145.343 94.0049 144.909 93.3018 144.042C92.9561 143.614 92.6924 143.11 92.5107 142.53C92.3291 141.95 92.2383 141.297 92.2383 140.57C92.2383 139.117 92.6104 137.966 93.3545 137.116C94.0986 136.267 95.0947 135.842 96.3428 135.842C97.0107 135.842 97.585 135.985 98.0654 136.272C98.5518 136.548 98.9678 136.984 99.3135 137.582V136.123H102.205ZM116.303 145V140.157C116.303 139.396 116.215 138.868 116.039 138.575C115.84 138.276 115.509 138.127 115.046 138.127C114.454 138.127 114.047 138.329 113.824 138.733C113.596 139.132 113.481 139.967 113.481 141.238V145H110.458V140.157C110.458 139.366 110.361 138.833 110.168 138.558C109.992 138.271 109.667 138.127 109.192 138.127C108.601 138.127 108.188 138.323 107.953 138.716C107.725 139.114 107.61 139.955 107.61 141.238V145H104.569V136.123H107.646V137.67C108.021 137.049 108.448 136.589 108.929 136.29C109.397 135.991 109.966 135.842 110.634 135.842C111.354 135.842 111.949 135.979 112.418 136.255C112.863 136.536 113.188 136.955 113.394 137.512C113.751 136.932 114.176 136.513 114.668 136.255C115.154 135.979 115.737 135.842 116.417 135.842C116.95 135.842 117.416 135.93 117.814 136.105C118.225 136.299 118.562 136.568 118.825 136.914C119.048 137.189 119.203 137.515 119.291 137.89C119.379 138.235 119.423 138.848 119.423 139.727V139.92V145H116.303ZM127.939 140.588C127.939 139.926 127.772 139.404 127.438 139.023C127.093 138.643 126.642 138.452 126.085 138.452C125.511 138.452 125.06 138.643 124.731 139.023C124.397 139.393 124.23 139.914 124.23 140.588C124.23 141.244 124.392 141.76 124.714 142.135C125.065 142.521 125.522 142.715 126.085 142.715C126.647 142.715 127.104 142.521 127.456 142.135C127.778 141.748 127.939 141.232 127.939 140.588ZM131.051 140.588C131.051 141.238 130.925 141.845 130.673 142.407C130.409 143.005 130.049 143.521 129.592 143.954C129.076 144.435 128.543 144.783 127.992 145C127.418 145.229 126.782 145.343 126.085 145.343C125.382 145.343 124.746 145.229 124.178 145C123.598 144.771 123.062 144.426 122.569 143.963C122.083 143.494 121.731 142.976 121.515 142.407C121.263 141.862 121.137 141.256 121.137 140.588C121.137 139.938 121.263 139.325 121.515 138.751C121.749 138.171 122.104 137.655 122.578 137.204C123.041 136.759 123.574 136.416 124.178 136.176C124.752 135.953 125.388 135.842 126.085 135.842C126.776 135.842 127.412 135.953 127.992 136.176C128.596 136.416 129.129 136.759 129.592 137.204C130.078 137.644 130.438 138.159 130.673 138.751C130.925 139.325 131.051 139.938 131.051 140.588ZM132.026 144.262L132.677 141.871C133.134 142.275 133.638 142.58 134.188 142.785C134.733 143.002 135.284 143.11 135.841 143.11C136.239 143.11 136.538 143.043 136.737 142.908C136.942 142.785 137.045 142.606 137.045 142.372C137.045 141.979 136.632 141.687 135.806 141.493C135.519 141.429 135.302 141.373 135.155 141.326C134.2 141.045 133.523 140.702 133.125 140.298C132.691 139.882 132.475 139.343 132.475 138.681C132.475 137.825 132.8 137.137 133.45 136.615C134.077 136.1 134.953 135.842 136.078 135.842C136.623 135.842 137.203 135.906 137.818 136.035C138.334 136.141 138.935 136.346 139.62 136.65L138.97 138.804C138.548 138.517 138.123 138.303 137.695 138.162C137.291 138.016 136.866 137.942 136.421 137.942C136.058 137.942 135.785 137.998 135.604 138.109C135.428 138.215 135.34 138.376 135.34 138.593C135.34 138.897 135.753 139.161 136.579 139.384C136.849 139.466 136.986 139.507 136.992 139.507C138.07 139.812 138.826 140.172 139.26 140.588C139.682 141.027 139.893 141.599 139.893 142.302C139.893 143.21 139.544 143.942 138.847 144.499C138.132 145.062 137.209 145.343 136.078 145.343C135.293 145.343 134.569 145.252 133.907 145.07C133.251 144.895 132.624 144.625 132.026 144.262ZM146.388 144.262L147.038 141.871C147.495 142.275 147.999 142.58 148.55 142.785C149.095 143.002 149.646 143.11 150.202 143.11C150.601 143.11 150.899 143.043 151.099 142.908C151.304 142.785 151.406 142.606 151.406 142.372C151.406 141.979 150.993 141.687 150.167 141.493C149.88 141.429 149.663 141.373 149.517 141.326C148.562 141.045 147.885 140.702 147.486 140.298C147.053 139.882 146.836 139.343 146.836 138.681C146.836 137.825 147.161 137.137 147.812 136.615C148.438 136.1 149.314 135.842 150.439 135.842C150.984 135.842 151.564 135.906 152.18 136.035C152.695 136.141 153.296 136.346 153.981 136.65L153.331 138.804C152.909 138.517 152.484 138.303 152.057 138.162C151.652 138.016 151.228 137.942 150.782 137.942C150.419 137.942 150.146 137.998 149.965 138.109C149.789 138.215 149.701 138.376 149.701 138.593C149.701 138.897 150.114 139.161 150.94 139.384C151.21 139.466 151.348 139.507 151.354 139.507C152.432 139.812 153.188 140.172 153.621 140.588C154.043 141.027 154.254 141.599 154.254 142.302C154.254 143.21 153.905 143.942 153.208 144.499C152.493 145.062 151.57 145.343 150.439 145.343C149.654 145.343 148.931 145.252 148.269 145.07C147.612 144.895 146.985 144.625 146.388 144.262ZM162.234 140.588C162.234 139.926 162.067 139.404 161.733 139.023C161.388 138.643 160.937 138.452 160.38 138.452C159.806 138.452 159.354 138.643 159.026 139.023C158.692 139.393 158.525 139.914 158.525 140.588C158.525 141.244 158.687 141.76 159.009 142.135C159.36 142.521 159.817 142.715 160.38 142.715C160.942 142.715 161.399 142.521 161.751 142.135C162.073 141.748 162.234 141.232 162.234 140.588ZM165.346 140.588C165.346 141.238 165.22 141.845 164.968 142.407C164.704 143.005 164.344 143.521 163.887 143.954C163.371 144.435 162.838 144.783 162.287 145C161.713 145.229 161.077 145.343 160.38 145.343C159.677 145.343 159.041 145.229 158.473 145C157.893 144.771 157.356 144.426 156.864 143.963C156.378 143.494 156.026 142.976 155.81 142.407C155.558 141.862 155.432 141.256 155.432 140.588C155.432 139.938 155.558 139.325 155.81 138.751C156.044 138.171 156.398 137.655 156.873 137.204C157.336 136.759 157.869 136.416 158.473 136.176C159.047 135.953 159.683 135.842 160.38 135.842C161.071 135.842 161.707 135.953 162.287 136.176C162.891 136.416 163.424 136.759 163.887 137.204C164.373 137.644 164.733 138.159 164.968 138.751C165.22 139.325 165.346 139.938 165.346 140.588ZM167.235 145V131.377H170.373V145H167.235ZM181.878 136.123V140.658C181.878 141.672 181.802 142.41 181.649 142.873C181.485 143.354 181.21 143.787 180.823 144.174C180.454 144.561 179.968 144.854 179.364 145.053C178.79 145.246 178.099 145.343 177.29 145.343C176.487 145.343 175.805 145.246 175.242 145.053C174.662 144.865 174.164 144.572 173.748 144.174C173.367 143.811 173.098 143.383 172.939 142.891C172.781 142.434 172.702 141.689 172.702 140.658V136.123H175.69V140.86C175.69 141.604 175.816 142.138 176.068 142.46C176.297 142.8 176.692 142.97 177.255 142.97C177.812 142.97 178.21 142.806 178.45 142.478C178.696 142.149 178.819 141.61 178.819 140.86V136.123H181.878ZM190.5 139.041C190.195 138.771 189.902 138.575 189.621 138.452C189.369 138.329 189.073 138.268 188.733 138.268C188.106 138.268 187.614 138.473 187.257 138.883C186.888 139.287 186.703 139.844 186.703 140.553C186.703 141.232 186.894 141.771 187.274 142.17C187.644 142.58 188.156 142.785 188.812 142.785C189.123 142.785 189.422 142.721 189.709 142.592C190.014 142.445 190.277 142.252 190.5 142.012V144.728C190.125 144.927 189.747 145.085 189.366 145.202C188.962 145.296 188.578 145.343 188.215 145.343C186.844 145.343 185.739 144.903 184.901 144.024C184.614 143.731 184.377 143.409 184.189 143.058C184.008 142.706 183.867 142.325 183.768 141.915C183.674 141.505 183.627 141.057 183.627 140.57C183.627 139.17 184.055 138.033 184.91 137.16C185.771 136.281 186.885 135.842 188.25 135.842C188.678 135.842 189.085 135.889 189.472 135.982C189.847 136.076 190.189 136.214 190.5 136.396V139.041ZM192.354 145V136.123H195.483V145H192.354ZM192.75 133.838H192.768C192.768 133.51 192.882 133.24 193.11 133.029C193.339 132.801 193.614 132.687 193.937 132.687C194.276 132.687 194.555 132.795 194.771 133.012C194.994 133.229 195.105 133.504 195.105 133.838C195.105 134.178 194.991 134.459 194.763 134.682C194.54 134.91 194.265 135.024 193.937 135.024C193.603 135.024 193.321 134.904 193.093 134.664C192.864 134.441 192.75 134.166 192.75 133.838ZM204.352 140.588C204.352 139.926 204.185 139.404 203.851 139.023C203.505 138.643 203.054 138.452 202.497 138.452C201.923 138.452 201.472 138.643 201.144 139.023C200.81 139.393 200.643 139.914 200.643 140.588C200.643 141.244 200.804 141.76 201.126 142.135C201.478 142.521 201.935 142.715 202.497 142.715C203.06 142.715 203.517 142.521 203.868 142.135C204.19 141.748 204.352 141.232 204.352 140.588ZM207.463 140.588C207.463 141.238 207.337 141.845 207.085 142.407C206.821 143.005 206.461 143.521 206.004 143.954C205.488 144.435 204.955 144.783 204.404 145C203.83 145.229 203.194 145.343 202.497 145.343C201.794 145.343 201.158 145.229 200.59 145C200.01 144.771 199.474 144.426 198.981 143.963C198.495 143.494 198.144 142.976 197.927 142.407C197.675 141.862 197.549 141.256 197.549 140.588C197.549 139.938 197.675 139.325 197.927 138.751C198.161 138.171 198.516 137.655 198.99 137.204C199.453 136.759 199.986 136.416 200.59 136.176C201.164 135.953 201.8 135.842 202.497 135.842C203.188 135.842 203.824 135.953 204.404 136.176C205.008 136.416 205.541 136.759 206.004 137.204C206.49 137.644 206.851 138.159 207.085 138.751C207.337 139.325 207.463 139.938 207.463 140.588ZM209.265 145V136.123H212.13V137.925C212.534 137.222 213.015 136.694 213.571 136.343C214.11 136.009 214.764 135.842 215.531 135.842C216.111 135.842 216.627 135.93 217.078 136.105C217.523 136.305 217.884 136.574 218.159 136.914C218.411 137.254 218.578 137.614 218.66 137.995C218.76 138.481 218.81 139.123 218.81 139.92V145H215.672V140.245C215.672 139.524 215.558 139.009 215.329 138.698C215.101 138.376 214.729 138.215 214.213 138.215C213.568 138.215 213.094 138.455 212.789 138.936C212.49 139.416 212.341 140.195 212.341 141.273V145H209.265ZM227.142 139.419C227.089 138.927 226.898 138.525 226.57 138.215C226.242 137.904 225.841 137.749 225.366 137.749C224.868 137.749 224.464 137.887 224.153 138.162C223.831 138.473 223.629 138.892 223.547 139.419H227.142ZM230.227 141.186H223.477C223.494 141.877 223.667 142.404 223.995 142.768C224.335 143.143 224.827 143.33 225.472 143.33C225.94 143.33 226.342 143.239 226.676 143.058C227.016 142.864 227.262 142.601 227.414 142.267L229.77 143.216C229.494 143.89 228.996 144.411 228.275 144.78C227.561 145.155 226.685 145.343 225.647 145.343C224.101 145.343 222.858 144.909 221.921 144.042C220.989 143.198 220.523 142.07 220.523 140.658C220.523 139.281 220.989 138.13 221.921 137.204C222.853 136.296 224.036 135.842 225.472 135.842C226.937 135.842 228.094 136.302 228.943 137.222C229.377 137.696 229.699 138.25 229.91 138.883C230.121 139.51 230.227 140.228 230.227 141.036V141.186ZM231.202 144.262L231.853 141.871C232.31 142.275 232.813 142.58 233.364 142.785C233.909 143.002 234.46 143.11 235.017 143.11C235.415 143.11 235.714 143.043 235.913 142.908C236.118 142.785 236.221 142.606 236.221 142.372C236.221 141.979 235.808 141.687 234.981 141.493C234.694 141.429 234.478 141.373 234.331 141.326C233.376 141.045 232.699 140.702 232.301 140.298C231.867 139.882 231.65 139.343 231.65 138.681C231.65 137.825 231.976 137.137 232.626 136.615C233.253 136.1 234.129 135.842 235.254 135.842C235.799 135.842 236.379 135.906 236.994 136.035C237.51 136.141 238.11 136.346 238.796 136.65L238.146 138.804C237.724 138.517 237.299 138.303 236.871 138.162C236.467 138.016 236.042 137.942 235.597 137.942C235.233 137.942 234.961 137.998 234.779 138.109C234.604 138.215 234.516 138.376 234.516 138.593C234.516 138.897 234.929 139.161 235.755 139.384C236.024 139.466 236.162 139.507 236.168 139.507C237.246 139.812 238.002 140.172 238.436 140.588C238.857 141.027 239.068 141.599 239.068 142.302C239.068 143.21 238.72 143.942 238.022 144.499C237.308 145.062 236.385 145.343 235.254 145.343C234.469 145.343 233.745 145.252 233.083 145.07C232.427 144.895 231.8 144.625 231.202 144.262ZM253.157 140.553C253.157 139.85 252.973 139.305 252.604 138.918C252.229 138.508 251.725 138.303 251.092 138.303C250.459 138.303 249.961 138.502 249.598 138.9C249.223 139.311 249.035 139.861 249.035 140.553C249.035 141.25 249.223 141.798 249.598 142.196C249.955 142.589 250.453 142.785 251.092 142.785C251.725 142.785 252.226 142.589 252.595 142.196C252.97 141.804 253.157 141.256 253.157 140.553ZM255.908 136.123V145H253.034V143.559C252.618 144.174 252.152 144.625 251.637 144.912C251.127 145.199 250.529 145.343 249.844 145.343C248.654 145.343 247.708 144.909 247.005 144.042C246.659 143.614 246.396 143.11 246.214 142.53C246.032 141.95 245.941 141.297 245.941 140.57C245.941 139.117 246.313 137.966 247.058 137.116C247.802 136.267 248.798 135.842 250.046 135.842C250.714 135.842 251.288 135.985 251.769 136.272C252.255 136.548 252.671 136.984 253.017 137.582V136.123H255.908ZM264.416 145L264.398 138.338H263.071V136.123H264.398V133.478H267.501V136.123H268.811V138.338H267.501V145H264.416ZM279.384 136.123V140.658C279.384 141.672 279.308 142.41 279.155 142.873C278.991 143.354 278.716 143.787 278.329 144.174C277.96 144.561 277.474 144.854 276.87 145.053C276.296 145.246 275.604 145.343 274.796 145.343C273.993 145.343 273.311 145.246 272.748 145.053C272.168 144.865 271.67 144.572 271.254 144.174C270.873 143.811 270.604 143.383 270.445 142.891C270.287 142.434 270.208 141.689 270.208 140.658V136.123H273.196V140.86C273.196 141.604 273.322 142.138 273.574 142.46C273.803 142.8 274.198 142.97 274.761 142.97C275.317 142.97 275.716 142.806 275.956 142.478C276.202 142.149 276.325 141.61 276.325 140.86V136.123H279.384ZM293.394 139.419C293.341 138.927 293.15 138.525 292.822 138.215C292.494 137.904 292.093 137.749 291.618 137.749C291.12 137.749 290.716 137.887 290.405 138.162C290.083 138.473 289.881 138.892 289.799 139.419H293.394ZM296.479 141.186H289.729C289.746 141.877 289.919 142.404 290.247 142.768C290.587 143.143 291.079 143.33 291.724 143.33C292.192 143.33 292.594 143.239 292.928 143.058C293.268 142.864 293.514 142.601 293.666 142.267L296.021 143.216C295.746 143.89 295.248 144.411 294.527 144.78C293.812 145.155 292.937 145.343 291.899 145.343C290.353 145.343 289.11 144.909 288.173 144.042C287.241 143.198 286.775 142.07 286.775 140.658C286.775 139.281 287.241 138.13 288.173 137.204C289.104 136.296 290.288 135.842 291.724 135.842C293.188 135.842 294.346 136.302 295.195 137.222C295.629 137.696 295.951 138.25 296.162 138.883C296.373 139.51 296.479 140.228 296.479 141.036V141.186ZM310.014 145V140.157C310.014 139.396 309.926 138.868 309.75 138.575C309.551 138.276 309.22 138.127 308.757 138.127C308.165 138.127 307.758 138.329 307.535 138.733C307.307 139.132 307.192 139.967 307.192 141.238V145H304.169V140.157C304.169 139.366 304.072 138.833 303.879 138.558C303.703 138.271 303.378 138.127 302.903 138.127C302.312 138.127 301.898 138.323 301.664 138.716C301.436 139.114 301.321 139.955 301.321 141.238V145H298.28V136.123H301.356V137.67C301.731 137.049 302.159 136.589 302.64 136.29C303.108 135.991 303.677 135.842 304.345 135.842C305.065 135.842 305.66 135.979 306.129 136.255C306.574 136.536 306.899 136.955 307.104 137.512C307.462 136.932 307.887 136.513 308.379 136.255C308.865 135.979 309.448 135.842 310.128 135.842C310.661 135.842 311.127 135.93 311.525 136.105C311.936 136.299 312.272 136.568 312.536 136.914C312.759 137.189 312.914 137.515 313.002 137.89C313.09 138.235 313.134 138.848 313.134 139.727V139.92V145H310.014ZM318.144 140.588C318.144 141.279 318.328 141.827 318.697 142.231C319.037 142.624 319.529 142.82 320.174 142.82C320.812 142.82 321.311 142.624 321.668 142.231C322.025 141.821 322.204 141.273 322.204 140.588C322.204 139.891 322.025 139.346 321.668 138.953C321.305 138.555 320.807 138.355 320.174 138.355C319.535 138.355 319.043 138.555 318.697 138.953C318.328 139.34 318.144 139.885 318.144 140.588ZM315.366 148.92V136.141H318.249V137.617C318.63 137.049 319.078 136.606 319.594 136.29C320.08 136.003 320.634 135.859 321.255 135.859C321.882 135.859 322.444 135.965 322.942 136.176C323.44 136.381 323.874 136.694 324.243 137.116C324.976 137.954 325.342 139.111 325.342 140.588C325.342 142.006 324.976 143.151 324.243 144.024C323.868 144.47 323.443 144.801 322.969 145.018C322.5 145.234 321.964 145.343 321.36 145.343C320.604 145.343 319.992 145.205 319.523 144.93C319.072 144.666 318.653 144.209 318.267 143.559C318.296 143.699 318.319 143.916 318.337 144.209C318.349 144.379 318.354 144.689 318.354 145.141V148.92H315.366ZM327.249 145V136.123H330.202V138.215C330.513 137.447 330.926 136.876 331.441 136.501C331.975 136.12 332.616 135.93 333.366 135.93C333.536 135.93 333.662 135.936 333.744 135.947C333.809 135.953 333.867 135.959 333.92 135.965C333.973 135.965 334.04 135.971 334.122 135.982L333.823 138.83C333.606 138.76 333.419 138.71 333.261 138.681C333.026 138.657 332.854 138.646 332.742 138.646C331.98 138.646 331.392 138.88 330.976 139.349C330.565 139.812 330.36 140.471 330.36 141.326V145H327.249ZM341.399 139.419C341.347 138.927 341.156 138.525 340.828 138.215C340.5 137.904 340.099 137.749 339.624 137.749C339.126 137.749 338.722 137.887 338.411 138.162C338.089 138.473 337.887 138.892 337.805 139.419H341.399ZM344.484 141.186H337.734C337.752 141.877 337.925 142.404 338.253 142.768C338.593 143.143 339.085 143.33 339.729 143.33C340.198 143.33 340.6 143.239 340.934 143.058C341.273 142.864 341.52 142.601 341.672 142.267L344.027 143.216C343.752 143.89 343.254 144.411 342.533 144.78C341.818 145.155 340.942 145.343 339.905 145.343C338.358 145.343 337.116 144.909 336.179 144.042C335.247 143.198 334.781 142.07 334.781 140.658C334.781 139.281 335.247 138.13 336.179 137.204C337.11 136.296 338.294 135.842 339.729 135.842C341.194 135.842 342.352 136.302 343.201 137.222C343.635 137.696 343.957 138.25 344.168 138.883C344.379 139.51 344.484 140.228 344.484 141.036V141.186ZM345.46 144.262L346.11 141.871C346.567 142.275 347.071 142.58 347.622 142.785C348.167 143.002 348.718 143.11 349.274 143.11C349.673 143.11 349.972 143.043 350.171 142.908C350.376 142.785 350.479 142.606 350.479 142.372C350.479 141.979 350.065 141.687 349.239 141.493C348.952 141.429 348.735 141.373 348.589 141.326C347.634 141.045 346.957 140.702 346.559 140.298C346.125 139.882 345.908 139.343 345.908 138.681C345.908 137.825 346.233 137.137 346.884 136.615C347.511 136.1 348.387 135.842 349.512 135.842C350.057 135.842 350.637 135.906 351.252 136.035C351.768 136.141 352.368 136.346 353.054 136.65L352.403 138.804C351.981 138.517 351.557 138.303 351.129 138.162C350.725 138.016 350.3 137.942 349.854 137.942C349.491 137.942 349.219 137.998 349.037 138.109C348.861 138.215 348.773 138.376 348.773 138.593C348.773 138.897 349.187 139.161 350.013 139.384C350.282 139.466 350.42 139.507 350.426 139.507C351.504 139.812 352.26 140.172 352.693 140.588C353.115 141.027 353.326 141.599 353.326 142.302C353.326 143.21 352.978 143.942 352.28 144.499C351.565 145.062 350.643 145.343 349.512 145.343C348.727 145.343 348.003 145.252 347.341 145.07C346.685 144.895 346.058 144.625 345.46 144.262ZM361.772 140.553C361.772 139.85 361.588 139.305 361.219 138.918C360.844 138.508 360.34 138.303 359.707 138.303C359.074 138.303 358.576 138.502 358.213 138.9C357.838 139.311 357.65 139.861 357.65 140.553C357.65 141.25 357.838 141.798 358.213 142.196C358.57 142.589 359.068 142.785 359.707 142.785C360.34 142.785 360.841 142.589 361.21 142.196C361.585 141.804 361.772 141.256 361.772 140.553ZM364.523 136.123V145H361.649V143.559C361.233 144.174 360.768 144.625 360.252 144.912C359.742 145.199 359.145 145.343 358.459 145.343C357.27 145.343 356.323 144.909 355.62 144.042C355.274 143.614 355.011 143.11 354.829 142.53C354.647 141.95 354.557 141.297 354.557 140.57C354.557 139.117 354.929 137.966 355.673 137.116C356.417 136.267 357.413 135.842 358.661 135.842C359.329 135.842 359.903 135.985 360.384 136.272C360.87 136.548 361.286 136.984 361.632 137.582V136.123H364.523ZM366.782 143.559C366.782 143.055 366.949 142.636 367.283 142.302C367.623 141.962 368.042 141.792 368.54 141.792C369.056 141.792 369.483 141.962 369.823 142.302C370.157 142.636 370.324 143.055 370.324 143.559C370.324 144.068 370.157 144.49 369.823 144.824C369.466 145.17 369.038 145.343 368.54 145.343C368.06 145.343 367.641 145.17 367.283 144.824C366.949 144.49 366.782 144.068 366.782 143.559Z" fill="white"/>
</svg>
