<svg width="514" height="288" viewBox="0 0 514 288" fill="none" xmlns="http://www.w3.org/2000/svg">
<path d="M26.744 225H14.686C10.2678 225 6.68604 221.418 6.68604 217V16" stroke="white" stroke-width="1.5"/>
<path d="M12.622 10.0784C12.622 13.6144 9.92461 16.4068 6.68598 16.4068C3.44736 16.4068 0.75 13.6144 0.75 10.0784C0.75 6.54244 3.44736 3.75 6.68598 3.75C9.92461 3.75 12.622 6.54244 12.622 10.0784Z" stroke="white" stroke-width="1.5"/>
<rect x="25" y="203" width="315" height="85" rx="16" fill="#002A61"/>
<path d="M43.3711 240V227.133H51.2549V229.954H46.79V232.187H51V234.946H46.79V237.117H51.2549V240H43.3711ZM53.3643 240V231.123H56.2295V232.925C56.6338 232.222 57.1143 231.694 57.6709 231.343C58.21 231.009 58.8633 230.842 59.6309 230.842C60.2109 230.842 60.7266 230.93 61.1777 231.105C61.623 231.305 61.9834 231.574 62.2588 231.914C62.5107 232.254 62.6777 232.614 62.7598 232.995C62.8594 233.481 62.9092 234.123 62.9092 234.92V240H59.7715V235.245C59.7715 234.524 59.6572 234.009 59.4287 233.698C59.2002 233.376 58.8281 233.215 58.3125 233.215C57.668 233.215 57.1934 233.455 56.8887 233.936C56.5898 234.416 56.4404 235.195 56.4404 236.273V240H53.3643ZM71.4961 234.041C71.1914 233.771 70.8984 233.575 70.6172 233.452C70.3652 233.329 70.0693 233.268 69.7295 233.268C69.1025 233.268 68.6104 233.473 68.2529 233.883C67.8838 234.287 67.6992 234.844 67.6992 235.553C67.6992 236.232 67.8896 236.771 68.2705 237.17C68.6396 237.58 69.1523 237.785 69.8086 237.785C70.1191 237.785 70.418 237.721 70.7051 237.592C71.0098 237.445 71.2734 237.252 71.4961 237.012V239.728C71.1211 239.927 70.7432 240.085 70.3623 240.202C69.958 240.296 69.5742 240.343 69.2109 240.343C67.8398 240.343 66.7354 239.903 65.8975 239.024C65.6104 238.731 65.373 238.409 65.1855 238.058C65.0039 237.706 64.8633 237.325 64.7637 236.915C64.6699 236.505 64.623 236.057 64.623 235.57C64.623 234.17 65.0508 233.033 65.9062 232.16C66.7676 231.281 67.8809 230.842 69.2461 230.842C69.6738 230.842 70.0811 230.889 70.4678 230.982C70.8428 231.076 71.1855 231.214 71.4961 231.396V234.041ZM82.5264 231.123V235.658C82.5264 236.672 82.4502 237.41 82.2979 237.873C82.1338 238.354 81.8584 238.787 81.4717 239.174C81.1025 239.561 80.6162 239.854 80.0127 240.053C79.4385 240.246 78.7471 240.343 77.9385 240.343C77.1357 240.343 76.4531 240.246 75.8906 240.053C75.3105 239.865 74.8125 239.572 74.3965 239.174C74.0156 238.811 73.7461 238.383 73.5879 237.891C73.4297 237.434 73.3506 236.689 73.3506 235.658V231.123H76.3389V235.86C76.3389 236.604 76.4648 237.138 76.7168 237.46C76.9453 237.8 77.3408 237.97 77.9033 237.97C78.46 237.97 78.8584 237.806 79.0986 237.478C79.3447 237.149 79.4678 236.61 79.4678 235.86V231.123H82.5264ZM90.8936 234.419C90.8408 233.927 90.6504 233.525 90.3223 233.215C89.9941 232.904 89.5928 232.749 89.1182 232.749C88.6201 232.749 88.2158 232.887 87.9053 233.162C87.583 233.473 87.3809 233.892 87.2988 234.419H90.8936ZM93.9785 236.186H87.2285C87.2461 236.877 87.4189 237.404 87.7471 237.768C88.0869 238.143 88.5791 238.33 89.2236 238.33C89.6924 238.33 90.0938 238.239 90.4277 238.058C90.7676 237.864 91.0137 237.601 91.166 237.267L93.5215 238.216C93.2461 238.89 92.748 239.411 92.0273 239.78C91.3125 240.155 90.4365 240.343 89.3994 240.343C87.8525 240.343 86.6104 239.909 85.6729 239.042C84.7412 238.198 84.2754 237.07 84.2754 235.658C84.2754 234.281 84.7412 233.13 85.6729 232.204C86.6045 231.296 87.7881 230.842 89.2236 230.842C90.6885 230.842 91.8457 231.302 92.6953 232.222C93.1289 232.696 93.4512 233.25 93.6621 233.883C93.873 234.51 93.9785 235.228 93.9785 236.036V236.186ZM95.7803 240V231.123H98.6455V232.925C99.0498 232.222 99.5303 231.694 100.087 231.343C100.626 231.009 101.279 230.842 102.047 230.842C102.627 230.842 103.143 230.93 103.594 231.105C104.039 231.305 104.399 231.574 104.675 231.914C104.927 232.254 105.094 232.614 105.176 232.995C105.275 233.481 105.325 234.123 105.325 234.92V240H102.188V235.245C102.188 234.524 102.073 234.009 101.845 233.698C101.616 233.376 101.244 233.215 100.729 233.215C100.084 233.215 99.6094 233.455 99.3047 233.936C99.0059 234.416 98.8564 235.195 98.8564 236.273V240H95.7803ZM108.041 240L108.023 233.338H106.696V231.123H108.023V228.478H111.126V231.123H112.436V233.338H111.126V240H108.041ZM113.921 240V231.123H116.874V233.215C117.185 232.447 117.598 231.876 118.113 231.501C118.646 231.12 119.288 230.93 120.038 230.93C120.208 230.93 120.334 230.936 120.416 230.947C120.48 230.953 120.539 230.959 120.592 230.965C120.645 230.965 120.712 230.971 120.794 230.982L120.495 233.83C120.278 233.76 120.091 233.71 119.933 233.681C119.698 233.657 119.525 233.646 119.414 233.646C118.652 233.646 118.063 233.88 117.647 234.349C117.237 234.812 117.032 235.471 117.032 236.326V240H113.921ZM128.722 235.553C128.722 234.85 128.537 234.305 128.168 233.918C127.793 233.508 127.289 233.303 126.656 233.303C126.023 233.303 125.525 233.502 125.162 233.9C124.787 234.311 124.6 234.861 124.6 235.553C124.6 236.25 124.787 236.798 125.162 237.196C125.52 237.589 126.018 237.785 126.656 237.785C127.289 237.785 127.79 237.589 128.159 237.196C128.534 236.804 128.722 236.256 128.722 235.553ZM131.473 231.123V240H128.599V238.559C128.183 239.174 127.717 239.625 127.201 239.912C126.691 240.199 126.094 240.343 125.408 240.343C124.219 240.343 123.272 239.909 122.569 239.042C122.224 238.614 121.96 238.11 121.778 237.53C121.597 236.95 121.506 236.297 121.506 235.57C121.506 234.117 121.878 232.966 122.622 232.116C123.366 231.267 124.362 230.842 125.61 230.842C126.278 230.842 126.853 230.985 127.333 231.272C127.819 231.548 128.235 231.984 128.581 232.582V231.123H131.473ZM145.597 234.419C145.544 233.927 145.354 233.525 145.025 233.215C144.697 232.904 144.296 232.749 143.821 232.749C143.323 232.749 142.919 232.887 142.608 233.162C142.286 233.473 142.084 233.892 142.002 234.419H145.597ZM148.682 236.186H141.932C141.949 236.877 142.122 237.404 142.45 237.768C142.79 238.143 143.282 238.33 143.927 238.33C144.396 238.33 144.797 238.239 145.131 238.058C145.471 237.864 145.717 237.601 145.869 237.267L148.225 238.216C147.949 238.89 147.451 239.411 146.73 239.78C146.016 240.155 145.14 240.343 144.103 240.343C142.556 240.343 141.313 239.909 140.376 239.042C139.444 238.198 138.979 237.07 138.979 235.658C138.979 234.281 139.444 233.13 140.376 232.204C141.308 231.296 142.491 230.842 143.927 230.842C145.392 230.842 146.549 231.302 147.398 232.222C147.832 232.696 148.154 233.25 148.365 233.883C148.576 234.51 148.682 235.228 148.682 236.036V236.186ZM150.571 240V226.377H153.709V240H150.571ZM161.839 240V226.377H164.977V240H161.839ZM176.481 231.123V235.658C176.481 236.672 176.405 237.41 176.253 237.873C176.089 238.354 175.813 238.787 175.427 239.174C175.058 239.561 174.571 239.854 173.968 240.053C173.394 240.246 172.702 240.343 171.894 240.343C171.091 240.343 170.408 240.246 169.846 240.053C169.266 239.865 168.768 239.572 168.352 239.174C167.971 238.811 167.701 238.383 167.543 237.891C167.385 237.434 167.306 236.689 167.306 235.658V231.123H170.294V235.86C170.294 236.604 170.42 237.138 170.672 237.46C170.9 237.8 171.296 237.97 171.858 237.97C172.415 237.97 172.813 237.806 173.054 237.478C173.3 237.149 173.423 236.61 173.423 235.86V231.123H176.481ZM185.499 235.535C185.499 234.85 185.32 234.311 184.963 233.918C184.576 233.531 184.066 233.338 183.434 233.338C182.801 233.338 182.291 233.531 181.904 233.918C181.529 234.311 181.342 234.85 181.342 235.535C181.342 236.227 181.529 236.76 181.904 237.135C182.285 237.533 182.795 237.732 183.434 237.732C184.061 237.732 184.564 237.533 184.945 237.135C185.314 236.766 185.499 236.232 185.499 235.535ZM188.25 231.123V239.982C188.25 241.324 187.843 242.314 187.028 242.953C186.636 243.27 186.12 243.51 185.481 243.674C184.843 243.838 184.093 243.92 183.231 243.92C181.831 243.92 180.744 243.662 179.971 243.146C179.197 242.625 178.784 241.901 178.731 240.976H181.975C182.033 241.257 182.188 241.471 182.44 241.617C182.698 241.775 183.041 241.854 183.469 241.854C184.137 241.854 184.603 241.693 184.866 241.371C185.118 241.049 185.244 240.363 185.244 239.314V238.506C184.91 239.068 184.491 239.481 183.987 239.745C183.466 240.021 182.859 240.158 182.168 240.158C180.996 240.158 180.056 239.733 179.347 238.884C179.001 238.468 178.737 237.979 178.556 237.416C178.374 236.848 178.283 236.209 178.283 235.5C178.283 234.082 178.655 232.948 179.399 232.099C179.769 231.677 180.202 231.363 180.7 231.158C181.204 230.947 181.767 230.842 182.388 230.842C183.05 230.842 183.624 230.979 184.11 231.255C184.591 231.513 185.007 231.943 185.358 232.547V231.123H188.25ZM197.382 235.553C197.382 234.85 197.197 234.305 196.828 233.918C196.453 233.508 195.949 233.303 195.316 233.303C194.684 233.303 194.186 233.502 193.822 233.9C193.447 234.311 193.26 234.861 193.26 235.553C193.26 236.25 193.447 236.798 193.822 237.196C194.18 237.589 194.678 237.785 195.316 237.785C195.949 237.785 196.45 237.589 196.819 237.196C197.194 236.804 197.382 236.256 197.382 235.553ZM200.133 231.123V240H197.259V238.559C196.843 239.174 196.377 239.625 195.861 239.912C195.352 240.199 194.754 240.343 194.068 240.343C192.879 240.343 191.933 239.909 191.229 239.042C190.884 238.614 190.62 238.11 190.438 237.53C190.257 236.95 190.166 236.297 190.166 235.57C190.166 234.117 190.538 232.966 191.282 232.116C192.026 231.267 193.022 230.842 194.271 230.842C194.938 230.842 195.513 230.985 195.993 231.272C196.479 231.548 196.896 231.984 197.241 232.582V231.123H200.133ZM202.515 240V231.123H205.468V233.215C205.778 232.447 206.191 231.876 206.707 231.501C207.24 231.12 207.882 230.93 208.632 230.93C208.802 230.93 208.928 230.936 209.01 230.947C209.074 230.953 209.133 230.959 209.186 230.965C209.238 230.965 209.306 230.971 209.388 230.982L209.089 233.83C208.872 233.76 208.685 233.71 208.526 233.681C208.292 233.657 208.119 233.646 208.008 233.646C207.246 233.646 206.657 233.88 206.241 234.349C205.831 234.812 205.626 235.471 205.626 236.326V240H202.515ZM216.12 240V231.123H219.249V240H216.12ZM216.516 228.838H216.533C216.533 228.51 216.647 228.24 216.876 228.029C217.104 227.801 217.38 227.687 217.702 227.687C218.042 227.687 218.32 227.795 218.537 228.012C218.76 228.229 218.871 228.504 218.871 228.838C218.871 229.178 218.757 229.459 218.528 229.682C218.306 229.91 218.03 230.024 217.702 230.024C217.368 230.024 217.087 229.904 216.858 229.664C216.63 229.441 216.516 229.166 216.516 228.838ZM228.601 235.57C228.601 234.873 228.422 234.328 228.064 233.936C227.684 233.537 227.18 233.338 226.553 233.338C225.92 233.338 225.422 233.537 225.059 233.936C224.695 234.334 224.514 234.879 224.514 235.57C224.514 236.268 224.695 236.815 225.059 237.214C225.416 237.606 225.914 237.803 226.553 237.803C227.186 237.803 227.689 237.606 228.064 237.214C228.422 236.821 228.601 236.273 228.601 235.57ZM231.378 226.377V240H228.495V238.559C228.097 239.162 227.646 239.607 227.142 239.895C226.673 240.193 226.122 240.343 225.489 240.343C224.247 240.343 223.254 239.909 222.51 239.042C221.771 238.175 221.402 237.018 221.402 235.57C221.402 234.164 221.774 233.019 222.519 232.134C223.257 231.272 224.212 230.842 225.384 230.842C226.134 230.842 226.743 230.979 227.212 231.255C227.663 231.507 228.085 231.955 228.478 232.6C228.454 232.441 228.431 232.201 228.407 231.879C228.384 231.527 228.372 231.24 228.372 231.018V226.377H231.378ZM239.815 234.419C239.763 233.927 239.572 233.525 239.244 233.215C238.916 232.904 238.515 232.749 238.04 232.749C237.542 232.749 237.138 232.887 236.827 233.162C236.505 233.473 236.303 233.892 236.221 234.419H239.815ZM242.9 236.186H236.15C236.168 236.877 236.341 237.404 236.669 237.768C237.009 238.143 237.501 238.33 238.146 238.33C238.614 238.33 239.016 238.239 239.35 238.058C239.689 237.864 239.936 237.601 240.088 237.267L242.443 238.216C242.168 238.89 241.67 239.411 240.949 239.78C240.234 240.155 239.358 240.343 238.321 240.343C236.774 240.343 235.532 239.909 234.595 239.042C233.663 238.198 233.197 237.07 233.197 235.658C233.197 234.281 233.663 233.13 234.595 232.204C235.526 231.296 236.71 230.842 238.146 230.842C239.61 230.842 240.768 231.302 241.617 232.222C242.051 232.696 242.373 233.25 242.584 233.883C242.795 234.51 242.9 235.228 242.9 236.036V236.186ZM251.47 235.553C251.47 234.85 251.285 234.305 250.916 233.918C250.541 233.508 250.037 233.303 249.404 233.303C248.771 233.303 248.273 233.502 247.91 233.9C247.535 234.311 247.348 234.861 247.348 235.553C247.348 236.25 247.535 236.798 247.91 237.196C248.268 237.589 248.766 237.785 249.404 237.785C250.037 237.785 250.538 237.589 250.907 237.196C251.282 236.804 251.47 236.256 251.47 235.553ZM254.221 231.123V240H251.347V238.559C250.931 239.174 250.465 239.625 249.949 239.912C249.439 240.199 248.842 240.343 248.156 240.343C246.967 240.343 246.021 239.909 245.317 239.042C244.972 238.614 244.708 238.11 244.526 237.53C244.345 236.95 244.254 236.297 244.254 235.57C244.254 234.117 244.626 232.966 245.37 232.116C246.114 231.267 247.11 230.842 248.358 230.842C249.026 230.842 249.601 230.985 250.081 231.272C250.567 231.548 250.983 231.984 251.329 232.582V231.123H254.221ZM256.673 240V226.377H259.811V240H256.673ZM270.647 235.588C270.647 236.279 270.832 236.827 271.201 237.231C271.541 237.624 272.033 237.82 272.678 237.82C273.316 237.82 273.814 237.624 274.172 237.231C274.529 236.821 274.708 236.273 274.708 235.588C274.708 234.891 274.529 234.346 274.172 233.953C273.809 233.555 273.311 233.355 272.678 233.355C272.039 233.355 271.547 233.555 271.201 233.953C270.832 234.34 270.647 234.885 270.647 235.588ZM267.87 243.92V231.141H270.753V232.617C271.134 232.049 271.582 231.606 272.098 231.29C272.584 231.003 273.138 230.859 273.759 230.859C274.386 230.859 274.948 230.965 275.446 231.176C275.944 231.381 276.378 231.694 276.747 232.116C277.479 232.954 277.846 234.111 277.846 235.588C277.846 237.006 277.479 238.151 276.747 239.024C276.372 239.47 275.947 239.801 275.473 240.018C275.004 240.234 274.468 240.343 273.864 240.343C273.108 240.343 272.496 240.205 272.027 239.93C271.576 239.666 271.157 239.209 270.771 238.559C270.8 238.699 270.823 238.916 270.841 239.209C270.853 239.379 270.858 239.689 270.858 240.141V243.92H267.87ZM286.503 235.553C286.503 234.85 286.318 234.305 285.949 233.918C285.574 233.508 285.07 233.303 284.438 233.303C283.805 233.303 283.307 233.502 282.943 233.9C282.568 234.311 282.381 234.861 282.381 235.553C282.381 236.25 282.568 236.798 282.943 237.196C283.301 237.589 283.799 237.785 284.438 237.785C285.07 237.785 285.571 237.589 285.94 237.196C286.315 236.804 286.503 236.256 286.503 235.553ZM289.254 231.123V240H286.38V238.559C285.964 239.174 285.498 239.625 284.982 239.912C284.473 240.199 283.875 240.343 283.189 240.343C282 240.343 281.054 239.909 280.351 239.042C280.005 238.614 279.741 238.11 279.56 237.53C279.378 236.95 279.287 236.297 279.287 235.57C279.287 234.117 279.659 232.966 280.403 232.116C281.147 231.267 282.144 230.842 283.392 230.842C284.06 230.842 284.634 230.985 285.114 231.272C285.601 231.548 286.017 231.984 286.362 232.582V231.123H289.254ZM291.636 240V231.123H294.589V233.215C294.899 232.447 295.312 231.876 295.828 231.501C296.361 231.12 297.003 230.93 297.753 230.93C297.923 230.93 298.049 230.936 298.131 230.947C298.195 230.953 298.254 230.959 298.307 230.965C298.359 230.965 298.427 230.971 298.509 230.982L298.21 233.83C297.993 233.76 297.806 233.71 297.647 233.681C297.413 233.657 297.24 233.646 297.129 233.646C296.367 233.646 295.778 233.88 295.362 234.349C294.952 234.812 294.747 235.471 294.747 236.326V240H291.636ZM306.437 235.553C306.437 234.85 306.252 234.305 305.883 233.918C305.508 233.508 305.004 233.303 304.371 233.303C303.738 233.303 303.24 233.502 302.877 233.9C302.502 234.311 302.314 234.861 302.314 235.553C302.314 236.25 302.502 236.798 302.877 237.196C303.234 237.589 303.732 237.785 304.371 237.785C305.004 237.785 305.505 237.589 305.874 237.196C306.249 236.804 306.437 236.256 306.437 235.553ZM309.188 231.123V240H306.313V238.559C305.897 239.174 305.432 239.625 304.916 239.912C304.406 240.199 303.809 240.343 303.123 240.343C301.934 240.343 300.987 239.909 300.284 239.042C299.938 238.614 299.675 238.11 299.493 237.53C299.312 236.95 299.221 236.297 299.221 235.57C299.221 234.117 299.593 232.966 300.337 232.116C301.081 231.267 302.077 230.842 303.325 230.842C303.993 230.842 304.567 230.985 305.048 231.272C305.534 231.548 305.95 231.984 306.296 232.582V231.123H309.188ZM49.9365 255.57C49.9365 254.873 49.7578 254.328 49.4004 253.936C49.0195 253.537 48.5156 253.338 47.8887 253.338C47.2559 253.338 46.7578 253.537 46.3945 253.936C46.0312 254.334 45.8496 254.879 45.8496 255.57C45.8496 256.268 46.0312 256.815 46.3945 257.214C46.752 257.606 47.25 257.803 47.8887 257.803C48.5215 257.803 49.0254 257.606 49.4004 257.214C49.7578 256.821 49.9365 256.273 49.9365 255.57ZM52.7139 246.377V260H49.8311V258.559C49.4326 259.162 48.9814 259.607 48.4775 259.895C48.0088 260.193 47.458 260.343 46.8252 260.343C45.583 260.343 44.5898 259.909 43.8457 259.042C43.1074 258.175 42.7383 257.018 42.7383 255.57C42.7383 254.164 43.1104 253.019 43.8545 252.134C44.5928 251.272 45.5479 250.842 46.7197 250.842C47.4697 250.842 48.0791 250.979 48.5479 251.255C48.999 251.507 49.4209 251.955 49.8135 252.6C49.79 252.441 49.7666 252.201 49.7432 251.879C49.7197 251.527 49.708 251.24 49.708 251.018V246.377H52.7139ZM61.1514 254.419C61.0986 253.927 60.9082 253.525 60.5801 253.215C60.252 252.904 59.8506 252.749 59.376 252.749C58.8779 252.749 58.4736 252.887 58.1631 253.162C57.8408 253.473 57.6387 253.892 57.5566 254.419H61.1514ZM64.2363 256.186H57.4863C57.5039 256.877 57.6768 257.404 58.0049 257.768C58.3447 258.143 58.8369 258.33 59.4814 258.33C59.9502 258.33 60.3516 258.239 60.6855 258.058C61.0254 257.864 61.2715 257.601 61.4238 257.267L63.7793 258.216C63.5039 258.89 63.0059 259.411 62.2852 259.78C61.5703 260.155 60.6943 260.343 59.6572 260.343C58.1104 260.343 56.8682 259.909 55.9307 259.042C54.999 258.198 54.5332 257.07 54.5332 255.658C54.5332 254.281 54.999 253.13 55.9307 252.204C56.8623 251.296 58.0459 250.842 59.4814 250.842C60.9463 250.842 62.1035 251.302 62.9531 252.222C63.3867 252.696 63.709 253.25 63.9199 253.883C64.1309 254.51 64.2363 255.228 64.2363 256.036V256.186ZM65.2119 259.262L65.8623 256.871C66.3193 257.275 66.8232 257.58 67.374 257.785C67.9189 258.002 68.4697 258.11 69.0264 258.11C69.4248 258.11 69.7236 258.043 69.9229 257.908C70.1279 257.785 70.2305 257.606 70.2305 257.372C70.2305 256.979 69.8174 256.687 68.9912 256.493C68.7041 256.429 68.4873 256.373 68.3408 256.326C67.3857 256.045 66.709 255.702 66.3105 255.298C65.877 254.882 65.6602 254.343 65.6602 253.681C65.6602 252.825 65.9854 252.137 66.6357 251.615C67.2627 251.1 68.1387 250.842 69.2637 250.842C69.8086 250.842 70.3887 250.906 71.0039 251.035C71.5195 251.141 72.1201 251.346 72.8057 251.65L72.1553 253.804C71.7334 253.517 71.3086 253.303 70.8809 253.162C70.4766 253.016 70.0518 252.942 69.6064 252.942C69.2432 252.942 68.9707 252.998 68.7891 253.109C68.6133 253.215 68.5254 253.376 68.5254 253.593C68.5254 253.897 68.9385 254.161 69.7646 254.384C70.0342 254.466 70.1719 254.507 70.1777 254.507C71.2559 254.812 72.0117 255.172 72.4453 255.588C72.8672 256.027 73.0781 256.599 73.0781 257.302C73.0781 258.21 72.7295 258.942 72.0322 259.499C71.3174 260.062 70.3945 260.343 69.2637 260.343C68.4785 260.343 67.7549 260.252 67.0928 260.07C66.4365 259.895 65.8096 259.625 65.2119 259.262ZM81.5244 255.553C81.5244 254.85 81.3398 254.305 80.9707 253.918C80.5957 253.508 80.0918 253.303 79.459 253.303C78.8262 253.303 78.3281 253.502 77.9648 253.9C77.5898 254.311 77.4023 254.861 77.4023 255.553C77.4023 256.25 77.5898 256.798 77.9648 257.196C78.3223 257.589 78.8203 257.785 79.459 257.785C80.0918 257.785 80.5928 257.589 80.9619 257.196C81.3369 256.804 81.5244 256.256 81.5244 255.553ZM84.2754 251.123V260H81.4014V258.559C80.9854 259.174 80.5195 259.625 80.0039 259.912C79.4941 260.199 78.8965 260.343 78.2109 260.343C77.0215 260.343 76.0752 259.909 75.3721 259.042C75.0264 258.614 74.7627 258.11 74.5811 257.53C74.3994 256.95 74.3086 256.297 74.3086 255.57C74.3086 254.117 74.6807 252.966 75.4248 252.116C76.1689 251.267 77.165 250.842 78.4131 250.842C79.0811 250.842 79.6553 250.985 80.1357 251.272C80.6221 251.548 81.0381 251.984 81.3838 252.582V251.123H84.2754ZM86.6572 260V251.123H89.6104V253.215C89.9209 252.447 90.334 251.876 90.8496 251.501C91.3828 251.12 92.0244 250.93 92.7744 250.93C92.9443 250.93 93.0703 250.936 93.1523 250.947C93.2168 250.953 93.2754 250.959 93.3281 250.965C93.3809 250.965 93.4482 250.971 93.5303 250.982L93.2314 253.83C93.0146 253.76 92.8271 253.71 92.6689 253.681C92.4346 253.657 92.2617 253.646 92.1504 253.646C91.3887 253.646 90.7998 253.88 90.3838 254.349C89.9736 254.812 89.7686 255.471 89.7686 256.326V260H86.6572ZM94.708 260V251.123H97.6611V253.215C97.9717 252.447 98.3848 251.876 98.9004 251.501C99.4336 251.12 100.075 250.93 100.825 250.93C100.995 250.93 101.121 250.936 101.203 250.947C101.268 250.953 101.326 250.959 101.379 250.965C101.432 250.965 101.499 250.971 101.581 250.982L101.282 253.83C101.065 253.76 100.878 253.71 100.72 253.681C100.485 253.657 100.312 253.646 100.201 253.646C99.4395 253.646 98.8506 253.88 98.4346 254.349C98.0244 254.812 97.8193 255.471 97.8193 256.326V260H94.708ZM109.043 255.588C109.043 254.926 108.876 254.404 108.542 254.023C108.196 253.643 107.745 253.452 107.188 253.452C106.614 253.452 106.163 253.643 105.835 254.023C105.501 254.393 105.334 254.914 105.334 255.588C105.334 256.244 105.495 256.76 105.817 257.135C106.169 257.521 106.626 257.715 107.188 257.715C107.751 257.715 108.208 257.521 108.56 257.135C108.882 256.748 109.043 256.232 109.043 255.588ZM112.154 255.588C112.154 256.238 112.028 256.845 111.776 257.407C111.513 258.005 111.152 258.521 110.695 258.954C110.18 259.435 109.646 259.783 109.096 260C108.521 260.229 107.886 260.343 107.188 260.343C106.485 260.343 105.85 260.229 105.281 260C104.701 259.771 104.165 259.426 103.673 258.963C103.187 258.494 102.835 257.976 102.618 257.407C102.366 256.862 102.24 256.256 102.24 255.588C102.24 254.938 102.366 254.325 102.618 253.751C102.853 253.171 103.207 252.655 103.682 252.204C104.145 251.759 104.678 251.416 105.281 251.176C105.855 250.953 106.491 250.842 107.188 250.842C107.88 250.842 108.516 250.953 109.096 251.176C109.699 251.416 110.232 251.759 110.695 252.204C111.182 252.644 111.542 253.159 111.776 253.751C112.028 254.325 112.154 254.938 112.154 255.588ZM114.044 260V246.377H117.182V260H114.044ZM119.669 260V246.377H122.807V260H119.669ZM131.974 255.553C131.974 254.85 131.789 254.305 131.42 253.918C131.045 253.508 130.541 253.303 129.908 253.303C129.275 253.303 128.777 253.502 128.414 253.9C128.039 254.311 127.852 254.861 127.852 255.553C127.852 256.25 128.039 256.798 128.414 257.196C128.771 257.589 129.27 257.785 129.908 257.785C130.541 257.785 131.042 257.589 131.411 257.196C131.786 256.804 131.974 256.256 131.974 255.553ZM134.725 251.123V260H131.851V258.559C131.435 259.174 130.969 259.625 130.453 259.912C129.943 260.199 129.346 260.343 128.66 260.343C127.471 260.343 126.524 259.909 125.821 259.042C125.476 258.614 125.212 258.11 125.03 257.53C124.849 256.95 124.758 256.297 124.758 255.57C124.758 254.117 125.13 252.966 125.874 252.116C126.618 251.267 127.614 250.842 128.862 250.842C129.53 250.842 130.104 250.985 130.585 251.272C131.071 251.548 131.487 251.984 131.833 252.582V251.123H134.725ZM137.106 260V251.123H140.06V253.215C140.37 252.447 140.783 251.876 141.299 251.501C141.832 251.12 142.474 250.93 143.224 250.93C143.394 250.93 143.52 250.936 143.602 250.947C143.666 250.953 143.725 250.959 143.777 250.965C143.83 250.965 143.897 250.971 143.979 250.982L143.681 253.83C143.464 253.76 143.276 253.71 143.118 253.681C142.884 253.657 142.711 253.646 142.6 253.646C141.838 253.646 141.249 253.88 140.833 254.349C140.423 254.812 140.218 255.471 140.218 256.326V260H137.106ZM151.283 260L151.266 253.338H149.938V251.123H151.266V248.478H154.368V251.123H155.678V253.338H154.368V260H151.283ZM166.251 251.123V255.658C166.251 256.672 166.175 257.41 166.022 257.873C165.858 258.354 165.583 258.787 165.196 259.174C164.827 259.561 164.341 259.854 163.737 260.053C163.163 260.246 162.472 260.343 161.663 260.343C160.86 260.343 160.178 260.246 159.615 260.053C159.035 259.865 158.537 259.572 158.121 259.174C157.74 258.811 157.471 258.383 157.312 257.891C157.154 257.434 157.075 256.689 157.075 255.658V251.123H160.063V255.86C160.063 256.604 160.189 257.138 160.441 257.46C160.67 257.8 161.065 257.97 161.628 257.97C162.185 257.97 162.583 257.806 162.823 257.478C163.069 257.149 163.192 256.61 163.192 255.86V251.123H166.251ZM176.938 255.588C176.938 256.279 177.123 256.827 177.492 257.231C177.832 257.624 178.324 257.82 178.969 257.82C179.607 257.82 180.105 257.624 180.463 257.231C180.82 256.821 180.999 256.273 180.999 255.588C180.999 254.891 180.82 254.346 180.463 253.953C180.1 253.555 179.602 253.355 178.969 253.355C178.33 253.355 177.838 253.555 177.492 253.953C177.123 254.34 176.938 254.885 176.938 255.588ZM174.161 263.92V251.141H177.044V252.617C177.425 252.049 177.873 251.606 178.389 251.29C178.875 251.003 179.429 250.859 180.05 250.859C180.677 250.859 181.239 250.965 181.737 251.176C182.235 251.381 182.669 251.694 183.038 252.116C183.771 252.954 184.137 254.111 184.137 255.588C184.137 257.006 183.771 258.151 183.038 259.024C182.663 259.47 182.238 259.801 181.764 260.018C181.295 260.234 180.759 260.343 180.155 260.343C179.399 260.343 178.787 260.205 178.318 259.93C177.867 259.666 177.448 259.209 177.062 258.559C177.091 258.699 177.114 258.916 177.132 259.209C177.144 259.379 177.149 259.689 177.149 260.141V263.92H174.161ZM192.328 255.588C192.328 254.926 192.161 254.404 191.827 254.023C191.481 253.643 191.03 253.452 190.474 253.452C189.899 253.452 189.448 253.643 189.12 254.023C188.786 254.393 188.619 254.914 188.619 255.588C188.619 256.244 188.78 256.76 189.103 257.135C189.454 257.521 189.911 257.715 190.474 257.715C191.036 257.715 191.493 257.521 191.845 257.135C192.167 256.748 192.328 256.232 192.328 255.588ZM195.439 255.588C195.439 256.238 195.313 256.845 195.062 257.407C194.798 258.005 194.438 258.521 193.98 258.954C193.465 259.435 192.932 259.783 192.381 260C191.807 260.229 191.171 260.343 190.474 260.343C189.771 260.343 189.135 260.229 188.566 260C187.986 259.771 187.45 259.426 186.958 258.963C186.472 258.494 186.12 257.976 185.903 257.407C185.651 256.862 185.525 256.256 185.525 255.588C185.525 254.938 185.651 254.325 185.903 253.751C186.138 253.171 186.492 252.655 186.967 252.204C187.43 251.759 187.963 251.416 188.566 251.176C189.141 250.953 189.776 250.842 190.474 250.842C191.165 250.842 191.801 250.953 192.381 251.176C192.984 251.416 193.518 251.759 193.98 252.204C194.467 252.644 194.827 253.159 195.062 253.751C195.313 254.325 195.439 254.938 195.439 255.588ZM197.742 260L197.725 253.338H196.397V251.123H197.725V248.478H200.827V251.123H202.137V253.338H200.827V260H197.742ZM209.722 254.419C209.669 253.927 209.479 253.525 209.15 253.215C208.822 252.904 208.421 252.749 207.946 252.749C207.448 252.749 207.044 252.887 206.733 253.162C206.411 253.473 206.209 253.892 206.127 254.419H209.722ZM212.807 256.186H206.057C206.074 256.877 206.247 257.404 206.575 257.768C206.915 258.143 207.407 258.33 208.052 258.33C208.521 258.33 208.922 258.239 209.256 258.058C209.596 257.864 209.842 257.601 209.994 257.267L212.35 258.216C212.074 258.89 211.576 259.411 210.855 259.78C210.141 260.155 209.265 260.343 208.228 260.343C206.681 260.343 205.438 259.909 204.501 259.042C203.569 258.198 203.104 257.07 203.104 255.658C203.104 254.281 203.569 253.13 204.501 252.204C205.433 251.296 206.616 250.842 208.052 250.842C209.517 250.842 210.674 251.302 211.523 252.222C211.957 252.696 212.279 253.25 212.49 253.883C212.701 254.51 212.807 255.228 212.807 256.036V256.186ZM214.608 260V251.123H217.474V252.925C217.878 252.222 218.358 251.694 218.915 251.343C219.454 251.009 220.107 250.842 220.875 250.842C221.455 250.842 221.971 250.93 222.422 251.105C222.867 251.305 223.228 251.574 223.503 251.914C223.755 252.254 223.922 252.614 224.004 252.995C224.104 253.481 224.153 254.123 224.153 254.92V260H221.016V255.245C221.016 254.524 220.901 254.009 220.673 253.698C220.444 253.376 220.072 253.215 219.557 253.215C218.912 253.215 218.438 253.455 218.133 253.936C217.834 254.416 217.685 255.195 217.685 256.273V260H214.608ZM232.74 254.041C232.436 253.771 232.143 253.575 231.861 253.452C231.609 253.329 231.313 253.268 230.974 253.268C230.347 253.268 229.854 253.473 229.497 253.883C229.128 254.287 228.943 254.844 228.943 255.553C228.943 256.232 229.134 256.771 229.515 257.17C229.884 257.58 230.396 257.785 231.053 257.785C231.363 257.785 231.662 257.721 231.949 257.592C232.254 257.445 232.518 257.252 232.74 257.012V259.728C232.365 259.927 231.987 260.085 231.606 260.202C231.202 260.296 230.818 260.343 230.455 260.343C229.084 260.343 227.979 259.903 227.142 259.024C226.854 258.731 226.617 258.409 226.43 258.058C226.248 257.706 226.107 257.325 226.008 256.915C225.914 256.505 225.867 256.057 225.867 255.57C225.867 254.17 226.295 253.033 227.15 252.16C228.012 251.281 229.125 250.842 230.49 250.842C230.918 250.842 231.325 250.889 231.712 250.982C232.087 251.076 232.43 251.214 232.74 251.396V254.041ZM234.595 260V251.123H237.724V260H234.595ZM234.99 248.838H235.008C235.008 248.51 235.122 248.24 235.351 248.029C235.579 247.801 235.854 247.687 236.177 247.687C236.517 247.687 236.795 247.795 237.012 248.012C237.234 248.229 237.346 248.504 237.346 248.838C237.346 249.178 237.231 249.459 237.003 249.682C236.78 249.91 236.505 250.024 236.177 250.024C235.843 250.024 235.562 249.904 235.333 249.664C235.104 249.441 234.99 249.166 234.99 248.838ZM247.058 255.553C247.058 254.85 246.873 254.305 246.504 253.918C246.129 253.508 245.625 253.303 244.992 253.303C244.359 253.303 243.861 253.502 243.498 253.9C243.123 254.311 242.936 254.861 242.936 255.553C242.936 256.25 243.123 256.798 243.498 257.196C243.855 257.589 244.354 257.785 244.992 257.785C245.625 257.785 246.126 257.589 246.495 257.196C246.87 256.804 247.058 256.256 247.058 255.553ZM249.809 251.123V260H246.935V258.559C246.519 259.174 246.053 259.625 245.537 259.912C245.027 260.199 244.43 260.343 243.744 260.343C242.555 260.343 241.608 259.909 240.905 259.042C240.56 258.614 240.296 258.11 240.114 257.53C239.933 256.95 239.842 256.297 239.842 255.57C239.842 254.117 240.214 252.966 240.958 252.116C241.702 251.267 242.698 250.842 243.946 250.842C244.614 250.842 245.188 250.985 245.669 251.272C246.155 251.548 246.571 251.984 246.917 252.582V251.123H249.809ZM252.261 260V246.377H255.398V260H252.261ZM257.692 258.559C257.692 258.055 257.859 257.636 258.193 257.302C258.533 256.962 258.952 256.792 259.45 256.792C259.966 256.792 260.394 256.962 260.733 257.302C261.067 257.636 261.234 258.055 261.234 258.559C261.234 259.068 261.067 259.49 260.733 259.824C260.376 260.17 259.948 260.343 259.45 260.343C258.97 260.343 258.551 260.17 258.193 259.824C257.859 259.49 257.692 259.068 257.692 258.559Z" fill="white"/>
<path d="M31.6562 37V2.6875H52.6797V10.2109H40.7734V16.1641H52V23.5234H40.7734V37H31.6562ZM58 37V2.6875H67.4453V37H58ZM75.0156 37V2.6875H84.0391L97 20.3359C97.3281 20.8203 97.7422 21.5469 98.2422 22.5156C98.8828 23.7656 99.5078 25.0547 100.117 26.3828C99.8828 24.5859 99.75 23.3281 99.7188 22.6094C99.625 21.4844 99.5781 20.4922 99.5781 19.6328V2.6875H108.555V37H99.5781L86.6172 19.2812C86.4297 19.0312 86.0156 18.2969 85.375 17.0781C84.8125 16.0781 84.1875 14.8125 83.5 13.2812C83.6562 14.5 83.8047 15.7656 83.9453 17.0781C84.0078 18.5469 84.0391 19.5391 84.0391 20.0547V37H75.0156ZM125.008 24.1797H134.312L130.82 12.8594C130.742 12.6562 130.594 12.0937 130.375 11.1719C130.109 10.0938 129.867 9.11719 129.648 8.24219C129.43 9.03906 129.242 9.84375 129.086 10.6562C128.836 11.4375 128.625 12.1719 128.453 12.8594L125.008 24.1797ZM111.906 37L123.742 2.6875H135.461L147.32 37H138.016L136.281 30.8594H122.992L121.211 37H111.906ZM150.625 37V2.6875H159.648L172.609 20.3359C172.938 20.8203 173.352 21.5469 173.852 22.5156C174.492 23.7656 175.117 25.0547 175.727 26.3828C175.492 24.5859 175.359 23.3281 175.328 22.6094C175.234 21.4844 175.188 20.4922 175.188 19.6328V2.6875H184.164V37H175.188L162.227 19.2812C162.039 19.0312 161.625 18.2969 160.984 17.0781C160.422 16.0781 159.797 14.8125 159.109 13.2812C159.266 14.5 159.414 15.7656 159.555 17.0781C159.617 18.5469 159.648 19.5391 159.648 20.0547V37H150.625ZM216.414 4.02344V14.2422C215.07 12.7891 213.805 11.7344 212.617 11.0781C211.289 10.4375 209.914 10.1172 208.492 10.1172C205.82 10.1172 203.641 11.0312 201.953 12.8594C201.375 13.5156 200.906 14.2031 200.547 14.9219C200.188 15.625 199.914 16.4297 199.727 17.3359C199.555 18.2266 199.469 19.1328 199.469 20.0547C199.469 22.8047 200.312 25.0938 202 26.9219C203.703 28.7188 205.867 29.6172 208.492 29.6172C209.898 29.6172 211.273 29.2812 212.617 28.6094C213.805 28 215.07 26.9531 216.414 25.4688V35.7109C214.68 36.5234 213.203 37.0625 211.984 37.3281C210.469 37.6875 208.984 37.8672 207.531 37.8672C205.688 37.8672 203.953 37.6406 202.328 37.1875C200.703 36.75 199.25 36.0781 197.969 35.1719C195.406 33.4219 193.453 31.2656 192.109 28.7031C190.766 26.0469 190.094 23.1016 190.094 19.8672C190.094 17.2734 190.531 14.8906 191.406 12.7188C191.797 11.6719 192.289 10.6875 192.883 9.76562C193.492 8.82812 194.273 7.85938 195.227 6.85938C196.867 5.17188 198.711 3.92188 200.758 3.10938C202.789 2.28125 205.047 1.86719 207.531 1.86719C208.953 1.86719 210.438 2.03906 211.984 2.38281C213.516 2.78906 214.992 3.33594 216.414 4.02344ZM221.922 37V2.6875H231.367V37H221.922ZM248.008 24.1797H257.312L253.82 12.8594C253.742 12.6562 253.594 12.0937 253.375 11.1719C253.109 10.0938 252.867 9.11719 252.648 8.24219C252.43 9.03906 252.242 9.84375 252.086 10.6562C251.836 11.4375 251.625 12.1719 251.453 12.8594L248.008 24.1797ZM234.906 37L246.742 2.6875H258.461L270.32 37H261.016L259.281 30.8594H245.992L244.211 37H234.906ZM312.977 37H304.234L302.219 22.1641C302.047 20.8359 301.922 19.6719 301.844 18.6719C301.734 17.6875 301.625 16.2891 301.516 14.4766C301.234 16.1016 300.797 17.9141 300.203 19.9141C300.078 20.3047 299.984 20.6406 299.922 20.9219L295.258 37H289.023L284.359 20.9219C284.312 20.6562 284.219 20.3203 284.078 19.9141C283.422 17.8047 282.992 15.9922 282.789 14.4766C282.664 16.1953 282.547 17.4766 282.438 18.3203C282.391 18.7578 282.32 19.3984 282.227 20.2422C282.133 21.0859 282.062 21.7266 282.016 22.1641L280 37H271.305L276.602 2.6875H285.859L291.039 20.3828C291.133 20.7109 291.195 20.9219 291.227 21.0156C291.68 22.4844 291.984 23.8281 292.141 25.0469C292.172 24.625 292.289 23.9375 292.492 22.9844C292.555 22.75 292.789 21.8672 293.195 20.3359L298.422 2.6875H307.703L312.977 37ZM318.25 37V2.6875H327.695V37H318.25ZM335.266 37V2.6875H356.289V10.2109H344.383V16.1641H355.609V23.5234H344.383V29.3125H356.289V37H335.266ZM362.5 37V2.6875H371.523L384.484 20.3359C384.812 20.8203 385.227 21.5469 385.727 22.5156C386.367 23.7656 386.992 25.0547 387.602 26.3828C387.367 24.5859 387.234 23.3281 387.203 22.6094C387.109 21.4844 387.062 20.4922 387.062 19.6328V2.6875H396.039V37H387.062L374.102 19.2812C373.914 19.0312 373.5 18.2969 372.859 17.0781C372.297 16.0781 371.672 14.8125 370.984 13.2812C371.141 14.5 371.289 15.7656 371.43 17.0781C371.492 18.5469 371.523 19.5391 371.523 20.0547V37H362.5ZM408.367 37V10.7969H400.68V2.6875H425.406V10.7969H417.719V37H408.367ZM465.227 19.9141C465.227 22.3984 464.781 24.7188 463.891 26.875C463 28.9844 461.672 30.9062 459.906 32.6406C458.156 34.3281 456.156 35.625 453.906 36.5312C451.547 37.4531 449.211 37.9141 446.898 37.9141C444.555 37.9141 442.219 37.4531 439.891 36.5312C437.594 35.6094 435.609 34.3125 433.938 32.6406C432.25 31.0312 430.922 29.0938 429.953 26.8281C429.016 24.6094 428.547 22.3047 428.547 19.9141C428.547 17.5234 429.016 15.2188 429.953 13C430.922 10.7344 432.25 8.79688 433.938 7.1875C435.656 5.46875 437.641 4.15625 439.891 3.25C442.078 2.35938 444.414 1.91406 446.898 1.91406C449.383 1.91406 451.734 2.36719 453.953 3.27344C456.172 4.16406 458.148 5.46875 459.883 7.1875C461.633 8.90625 462.969 10.8438 463.891 13C464.781 15.1562 465.227 17.4609 465.227 19.9141ZM446.898 29.9922C449.477 29.9922 451.633 29.0312 453.367 27.1094C454.227 26.1562 454.859 25.0859 455.266 23.8984C455.672 22.7109 455.875 21.3828 455.875 19.9141C455.875 17.0547 455.023 14.6562 453.32 12.7188C451.586 10.7969 449.445 9.83594 446.898 9.83594C444.289 9.83594 442.141 10.7969 440.453 12.7188C438.766 14.6406 437.922 17.0391 437.922 19.9141C437.922 22.8984 438.75 25.3125 440.406 27.1562C442.109 29.0469 444.273 29.9922 446.898 29.9922ZM31.6562 85V50.6875H38.8047C44.2109 50.6875 47.9844 50.9375 50.125 51.4375C52.3438 51.9375 54.2812 52.7734 55.9375 53.9453C58.125 55.4453 59.7734 57.3828 60.8828 59.7578C62.0078 62.1484 62.5703 64.8516 62.5703 67.8672C62.5703 70.8828 62.0078 73.5859 60.8828 75.9766C59.7734 78.3203 58.125 80.2578 55.9375 81.7891C54.2188 82.9609 52.3281 83.7734 50.2656 84.2266C48.2031 84.7422 44.9062 85 40.375 85H38.8047H31.6562ZM40.9141 77.3125H42.4844C46.1719 77.3125 48.8516 76.5469 50.5234 75.0156C52.2109 73.5156 53.0547 71.1328 53.0547 67.8672C53.0547 64.6172 52.2109 62.2188 50.5234 60.6719C48.8359 59.125 46.1562 58.3516 42.4844 58.3516H40.9141V77.3125ZM68.4531 85V50.6875H89.4766V58.2109H77.5703V64.1641H88.7969V71.5234H77.5703V77.3125H89.4766V85H68.4531ZM119.805 72.1797H129.109L125.617 60.8594C125.539 60.6562 125.391 60.0938 125.172 59.1719C124.906 58.0938 124.664 57.1172 124.445 56.2422C124.227 57.0391 124.039 57.8438 123.883 58.6562C123.633 59.4375 123.422 60.1719 123.25 60.8594L119.805 72.1797ZM106.703 85L118.539 50.6875H130.258L142.117 85H132.812L131.078 78.8594H117.789L116.008 85H106.703ZM170.289 52.0234V62.2422C168.945 60.7891 167.68 59.7344 166.492 59.0781C165.164 58.4375 163.789 58.1172 162.367 58.1172C159.695 58.1172 157.516 59.0312 155.828 60.8594C155.25 61.5156 154.781 62.2031 154.422 62.9219C154.062 63.625 153.789 64.4297 153.602 65.3359C153.43 66.2266 153.344 67.1328 153.344 68.0547C153.344 70.8047 154.188 73.0938 155.875 74.9219C157.578 76.7188 159.742 77.6172 162.367 77.6172C163.773 77.6172 165.148 77.2812 166.492 76.6094C167.68 76 168.945 74.9531 170.289 73.4688V83.7109C168.555 84.5234 167.078 85.0625 165.859 85.3281C164.344 85.6875 162.859 85.8672 161.406 85.8672C159.562 85.8672 157.828 85.6406 156.203 85.1875C154.578 84.75 153.125 84.0781 151.844 83.1719C149.281 81.4219 147.328 79.2656 145.984 76.7031C144.641 74.0469 143.969 71.1016 143.969 67.8672C143.969 65.2734 144.406 62.8906 145.281 60.7188C145.672 59.6719 146.164 58.6875 146.758 57.7656C147.367 56.8281 148.148 55.8594 149.102 54.8594C150.742 53.1719 152.586 51.9219 154.633 51.1094C156.664 50.2812 158.922 49.8672 161.406 49.8672C162.828 49.8672 164.312 50.0391 165.859 50.3828C167.391 50.7891 168.867 51.3359 170.289 52.0234ZM180.508 85V58.7969H172.82V50.6875H197.547V58.7969H189.859V85H180.508ZM202.375 85V50.6875H211.82V85H202.375ZM229.211 85L214.82 50.6875H224.758L231.625 69.8828C231.625 69.8828 231.648 69.9922 231.695 70.2109C231.758 70.4141 231.859 70.7812 232 71.3125C232.188 72.125 232.445 73.1797 232.773 74.4766C232.977 73.5391 233.219 72.6016 233.5 71.6641C233.703 70.7422 233.859 70.1484 233.969 69.8828L240.789 50.6875H250.727L236.336 85H229.211ZM288.742 67.9141C288.742 70.3984 288.297 72.7188 287.406 74.875C286.516 76.9844 285.188 78.9062 283.422 80.6406C281.672 82.3281 279.672 83.625 277.422 84.5312C275.062 85.4531 272.727 85.9141 270.414 85.9141C268.07 85.9141 265.734 85.4531 263.406 84.5312C261.109 83.6094 259.125 82.3125 257.453 80.6406C255.766 79.0312 254.438 77.0938 253.469 74.8281C252.531 72.6094 252.062 70.3047 252.062 67.9141C252.062 65.5234 252.531 63.2188 253.469 61C254.438 58.7344 255.766 56.7969 257.453 55.1875C259.172 53.4688 261.156 52.1562 263.406 51.25C265.594 50.3594 267.93 49.9141 270.414 49.9141C272.898 49.9141 275.25 50.3672 277.469 51.2734C279.688 52.1641 281.664 53.4688 283.398 55.1875C285.148 56.9062 286.484 58.8438 287.406 61C288.297 63.1562 288.742 65.4609 288.742 67.9141ZM270.414 77.9922C272.992 77.9922 275.148 77.0312 276.883 75.1094C277.742 74.1562 278.375 73.0859 278.781 71.8984C279.188 70.7109 279.391 69.3828 279.391 67.9141C279.391 65.0547 278.539 62.6562 276.836 60.7188C275.102 58.7969 272.961 57.8359 270.414 57.8359C267.805 57.8359 265.656 58.7969 263.969 60.7188C262.281 62.6406 261.438 65.0391 261.438 67.9141C261.438 70.8984 262.266 73.3125 263.922 75.1562C265.625 77.0469 267.789 77.9922 270.414 77.9922ZM296.148 73.9141C297.586 75.5078 298.961 76.6875 300.273 77.4531C301.648 78.2344 302.992 78.625 304.305 78.625C305.539 78.625 306.562 78.2891 307.375 77.6172C308.188 76.9453 308.594 76.0938 308.594 75.0625C308.594 73.9375 308.258 73.0547 307.586 72.4141C306.867 71.8047 305.281 71.1719 302.828 70.5156C299.484 69.6094 297.117 68.4375 295.727 67C294.32 65.5312 293.617 63.5312 293.617 61C293.617 57.7188 294.719 55.0469 296.922 52.9844C299.094 50.9062 301.938 49.8672 305.453 49.8672C307.438 49.8672 309.234 50.125 310.844 50.6406C312.531 51.1562 314.133 51.9219 315.648 52.9375L312.719 59.6641C311.688 58.7734 310.594 58.0859 309.438 57.6016C308.312 57.1484 307.211 56.9219 306.133 56.9219C305.039 56.9219 304.125 57.1953 303.391 57.7422C302.688 58.2578 302.336 58.9453 302.336 59.8047C302.336 60.6328 302.641 61.3203 303.25 61.8672C303.891 62.3828 305.094 62.875 306.859 63.3438C306.922 63.3594 306.977 63.375 307.023 63.3906C307.07 63.3906 307.141 63.4062 307.234 63.4375C311.047 64.4531 313.562 65.5938 314.781 66.8594C315.578 67.6562 316.203 68.6641 316.656 69.8828C317.062 71.0391 317.266 72.3516 317.266 73.8203C317.266 77.4453 316.07 80.375 313.68 82.6094C311.273 84.8125 308.086 85.9141 304.117 85.9141C301.68 85.9141 299.5 85.5156 297.578 84.7188C295.672 83.9219 293.789 82.6406 291.93 80.875L296.148 73.9141ZM337.562 85V50.6875H358.586V58.2109H346.68V64.1641H357.906V71.5234H346.68V85H337.562ZM363.906 85V50.6875H373.352V85H363.906ZM387.625 50.6875H397V72.9531C397 75.4531 396.836 77.3125 396.508 78.5312C396.242 79.75 395.734 80.8984 394.984 81.9766C393.969 83.3359 392.797 84.3125 391.469 84.9062C390.109 85.5781 388.547 85.9141 386.781 85.9141C384.656 85.9141 382.734 85.4531 381.016 84.5312C379.391 83.6562 377.945 82.2891 376.68 80.4297L382.398 75.25C382.539 76.3125 382.859 77.1016 383.359 77.6172C383.922 78.1484 384.578 78.4141 385.328 78.4141C386.25 78.4141 386.875 77.9219 387.203 76.9375C387.484 75.9375 387.625 73.4766 387.625 69.5547V50.6875ZM439.164 67.9141C439.164 70.3984 438.719 72.7188 437.828 74.875C436.938 76.9844 435.609 78.9062 433.844 80.6406C432.094 82.3281 430.094 83.625 427.844 84.5312C425.484 85.4531 423.148 85.9141 420.836 85.9141C418.492 85.9141 416.156 85.4531 413.828 84.5312C411.531 83.6094 409.547 82.3125 407.875 80.6406C406.188 79.0312 404.859 77.0938 403.891 74.8281C402.953 72.6094 402.484 70.3047 402.484 67.9141C402.484 65.5234 402.953 63.2188 403.891 61C404.859 58.7344 406.188 56.7969 407.875 55.1875C409.594 53.4688 411.578 52.1562 413.828 51.25C416.016 50.3594 418.352 49.9141 420.836 49.9141C423.32 49.9141 425.672 50.3672 427.891 51.2734C430.109 52.1641 432.086 53.4688 433.82 55.1875C435.57 56.9062 436.906 58.8438 437.828 61C438.719 63.1562 439.164 65.4609 439.164 67.9141ZM420.836 77.9922C423.414 77.9922 425.57 77.0312 427.305 75.1094C428.164 74.1562 428.797 73.0859 429.203 71.8984C429.609 70.7109 429.812 69.3828 429.812 67.9141C429.812 65.0547 428.961 62.6562 427.258 60.7188C425.523 58.7969 423.383 57.8359 420.836 57.8359C418.227 57.8359 416.078 58.7969 414.391 60.7188C412.703 62.6406 411.859 65.0391 411.859 67.9141C411.859 70.8984 412.688 73.3125 414.344 75.1562C416.047 77.0469 418.211 77.9922 420.836 77.9922ZM446.57 73.9141C448.008 75.5078 449.383 76.6875 450.695 77.4531C452.07 78.2344 453.414 78.625 454.727 78.625C455.961 78.625 456.984 78.2891 457.797 77.6172C458.609 76.9453 459.016 76.0938 459.016 75.0625C459.016 73.9375 458.68 73.0547 458.008 72.4141C457.289 71.8047 455.703 71.1719 453.25 70.5156C449.906 69.6094 447.539 68.4375 446.148 67C444.742 65.5312 444.039 63.5312 444.039 61C444.039 57.7188 445.141 55.0469 447.344 52.9844C449.516 50.9062 452.359 49.8672 455.875 49.8672C457.859 49.8672 459.656 50.125 461.266 50.6406C462.953 51.1562 464.555 51.9219 466.07 52.9375L463.141 59.6641C462.109 58.7734 461.016 58.0859 459.859 57.6016C458.734 57.1484 457.633 56.9219 456.555 56.9219C455.461 56.9219 454.547 57.1953 453.812 57.7422C453.109 58.2578 452.758 58.9453 452.758 59.8047C452.758 60.6328 453.062 61.3203 453.672 61.8672C454.312 62.3828 455.516 62.875 457.281 63.3438C457.344 63.3594 457.398 63.375 457.445 63.3906C457.492 63.3906 457.562 63.4062 457.656 63.4375C461.469 64.4531 463.984 65.5938 465.203 66.8594C466 67.6562 466.625 68.6641 467.078 69.8828C467.484 71.0391 467.688 72.3516 467.688 73.8203C467.688 77.4453 466.492 80.375 464.102 82.6094C461.695 84.8125 458.508 85.9141 454.539 85.9141C452.102 85.9141 449.922 85.5156 448 84.7188C446.094 83.9219 444.211 82.6406 442.352 80.875L446.57 73.9141Z" fill="white"/>
<path d="M40.4219 133H31.6562V98.6875H41.4297C45.2266 98.6875 47.9219 98.875 49.5156 99.25C51.0781 99.6562 52.3828 100.297 53.4297 101.172C54.6797 102.219 55.6406 103.516 56.3125 105.062C56.9844 106.641 57.3203 108.398 57.3203 110.336C57.3203 112.398 56.9844 114.195 56.3125 115.727C55.7188 117.273 54.7578 118.555 53.4297 119.57C52.4766 120.32 51.3281 120.859 49.9844 121.188C48.7812 121.516 46.6875 121.68 43.7031 121.68H42.1094H40.4219V133ZM40.4219 114.133H42.2031C44.4219 114.133 45.9922 113.812 46.9141 113.172C47.8047 112.578 48.25 111.539 48.25 110.055C48.25 108.633 47.8125 107.617 46.9375 107.008C46.0781 106.383 44.5312 106.07 42.2969 106.07H40.4219V114.133ZM62.0781 133V98.6875H83.1016V106.211H71.1953V112.164H82.4219V119.523H71.1953V125.312H83.1016V133H62.0781ZM89.3125 133V98.6875H98.3359L111.297 116.336C111.625 116.82 112.039 117.547 112.539 118.516C113.18 119.766 113.805 121.055 114.414 122.383C114.18 120.586 114.047 119.328 114.016 118.609C113.922 117.484 113.875 116.492 113.875 115.633V98.6875H122.852V133H113.875L100.914 115.281C100.727 115.031 100.312 114.297 99.6719 113.078C99.1094 112.078 98.4844 110.812 97.7969 109.281C97.9531 110.5 98.1016 111.766 98.2422 113.078C98.3047 114.547 98.3359 115.539 98.3359 116.055V133H89.3125ZM131.758 121.914C133.195 123.508 134.57 124.688 135.883 125.453C137.258 126.234 138.602 126.625 139.914 126.625C141.148 126.625 142.172 126.289 142.984 125.617C143.797 124.945 144.203 124.094 144.203 123.062C144.203 121.938 143.867 121.055 143.195 120.414C142.477 119.805 140.891 119.172 138.438 118.516C135.094 117.609 132.727 116.438 131.336 115C129.93 113.531 129.227 111.531 129.227 109C129.227 105.719 130.328 103.047 132.531 100.984C134.703 98.9062 137.547 97.8672 141.062 97.8672C143.047 97.8672 144.844 98.125 146.453 98.6406C148.141 99.1562 149.742 99.9219 151.258 100.938L148.328 107.664C147.297 106.773 146.203 106.086 145.047 105.602C143.922 105.148 142.82 104.922 141.742 104.922C140.648 104.922 139.734 105.195 139 105.742C138.297 106.258 137.945 106.945 137.945 107.805C137.945 108.633 138.25 109.32 138.859 109.867C139.5 110.383 140.703 110.875 142.469 111.344C142.531 111.359 142.586 111.375 142.633 111.391C142.68 111.391 142.75 111.406 142.844 111.438C146.656 112.453 149.172 113.594 150.391 114.859C151.188 115.656 151.812 116.664 152.266 117.883C152.672 119.039 152.875 120.352 152.875 121.82C152.875 125.445 151.68 128.375 149.289 130.609C146.883 132.812 143.695 133.914 139.727 133.914C137.289 133.914 135.109 133.516 133.188 132.719C131.281 131.922 129.398 130.641 127.539 128.875L131.758 121.914ZM167.195 120.18H176.5L173.008 108.859C172.93 108.656 172.781 108.094 172.562 107.172C172.297 106.094 172.055 105.117 171.836 104.242C171.617 105.039 171.43 105.844 171.273 106.656C171.023 107.438 170.812 108.172 170.641 108.859L167.195 120.18ZM154.094 133L165.93 98.6875H177.648L189.508 133H180.203L178.469 126.859H165.18L163.398 133H154.094ZM192.812 133V98.6875H199.961C205.367 98.6875 209.141 98.9375 211.281 99.4375C213.5 99.9375 215.438 100.773 217.094 101.945C219.281 103.445 220.93 105.383 222.039 107.758C223.164 110.148 223.727 112.852 223.727 115.867C223.727 118.883 223.164 121.586 222.039 123.977C220.93 126.32 219.281 128.258 217.094 129.789C215.375 130.961 213.484 131.773 211.422 132.227C209.359 132.742 206.062 133 201.531 133H199.961H192.812ZM202.07 125.312H203.641C207.328 125.312 210.008 124.547 211.68 123.016C213.367 121.516 214.211 119.133 214.211 115.867C214.211 112.617 213.367 110.219 211.68 108.672C209.992 107.125 207.312 106.352 203.641 106.352H202.07V125.312ZM264.836 115.914C264.836 118.398 264.391 120.719 263.5 122.875C262.609 124.984 261.281 126.906 259.516 128.641C257.766 130.328 255.766 131.625 253.516 132.531C251.156 133.453 248.82 133.914 246.508 133.914C244.164 133.914 241.828 133.453 239.5 132.531C237.203 131.609 235.219 130.312 233.547 128.641C231.859 127.031 230.531 125.094 229.562 122.828C228.625 120.609 228.156 118.305 228.156 115.914C228.156 113.523 228.625 111.219 229.562 109C230.531 106.734 231.859 104.797 233.547 103.188C235.266 101.469 237.25 100.156 239.5 99.25C241.688 98.3594 244.023 97.9141 246.508 97.9141C248.992 97.9141 251.344 98.3672 253.562 99.2734C255.781 100.164 257.758 101.469 259.492 103.188C261.242 104.906 262.578 106.844 263.5 109C264.391 111.156 264.836 113.461 264.836 115.914ZM246.508 125.992C249.086 125.992 251.242 125.031 252.977 123.109C253.836 122.156 254.469 121.086 254.875 119.898C255.281 118.711 255.484 117.383 255.484 115.914C255.484 113.055 254.633 110.656 252.93 108.719C251.195 106.797 249.055 105.836 246.508 105.836C243.898 105.836 241.75 106.797 240.062 108.719C238.375 110.641 237.531 113.039 237.531 115.914C237.531 118.898 238.359 121.312 240.016 123.156C241.719 125.047 243.883 125.992 246.508 125.992ZM272.242 121.914C273.68 123.508 275.055 124.688 276.367 125.453C277.742 126.234 279.086 126.625 280.398 126.625C281.633 126.625 282.656 126.289 283.469 125.617C284.281 124.945 284.688 124.094 284.688 123.062C284.688 121.938 284.352 121.055 283.68 120.414C282.961 119.805 281.375 119.172 278.922 118.516C275.578 117.609 273.211 116.438 271.82 115C270.414 113.531 269.711 111.531 269.711 109C269.711 105.719 270.812 103.047 273.016 100.984C275.188 98.9062 278.031 97.8672 281.547 97.8672C283.531 97.8672 285.328 98.125 286.938 98.6406C288.625 99.1562 290.227 99.9219 291.742 100.938L288.812 107.664C287.781 106.773 286.688 106.086 285.531 105.602C284.406 105.148 283.305 104.922 282.227 104.922C281.133 104.922 280.219 105.195 279.484 105.742C278.781 106.258 278.43 106.945 278.43 107.805C278.43 108.633 278.734 109.32 279.344 109.867C279.984 110.383 281.188 110.875 282.953 111.344C283.016 111.359 283.07 111.375 283.117 111.391C283.164 111.391 283.234 111.406 283.328 111.438C287.141 112.453 289.656 113.594 290.875 114.859C291.672 115.656 292.297 116.664 292.75 117.883C293.156 119.039 293.359 120.352 293.359 121.82C293.359 125.445 292.164 128.375 289.773 130.609C287.367 132.812 284.18 133.914 280.211 133.914C277.773 133.914 275.594 133.516 273.672 132.719C271.766 131.922 269.883 130.641 268.023 128.875L272.242 121.914ZM322.422 133H313.656V98.6875H323.43C327.227 98.6875 329.922 98.875 331.516 99.25C333.078 99.6562 334.383 100.297 335.43 101.172C336.68 102.219 337.641 103.516 338.312 105.062C338.984 106.641 339.32 108.398 339.32 110.336C339.32 112.398 338.984 114.195 338.312 115.727C337.719 117.273 336.758 118.555 335.43 119.57C334.477 120.32 333.328 120.859 331.984 121.188C330.781 121.516 328.688 121.68 325.703 121.68H324.109H322.422V133ZM322.422 114.133H324.203C326.422 114.133 327.992 113.812 328.914 113.172C329.805 112.578 330.25 111.539 330.25 110.055C330.25 108.633 329.812 107.617 328.938 107.008C328.078 106.383 326.531 106.07 324.297 106.07H322.422V114.133ZM353.148 120.18H362.453L358.961 108.859C358.883 108.656 358.734 108.094 358.516 107.172C358.25 106.094 358.008 105.117 357.789 104.242C357.57 105.039 357.383 105.844 357.227 106.656C356.977 107.438 356.766 108.172 356.594 108.859L353.148 120.18ZM340.047 133L351.883 98.6875H363.602L375.461 133H366.156L364.422 126.859H351.133L349.352 133H340.047ZM378.766 133V98.6875H388.539C390.43 98.6875 392.023 98.7266 393.32 98.8047C394.633 98.8828 395.711 99.0156 396.555 99.2031C398.008 99.5469 399.305 100.141 400.445 100.984C401.695 101.922 402.641 103.125 403.281 104.594C403.953 106 404.289 107.594 404.289 109.375C404.289 112.016 403.633 114.18 402.32 115.867C401.039 117.555 399.141 118.656 396.625 119.172L405.977 133H395.406L387.531 119.57V133H378.766ZM387.531 114.906H389.266C391.312 114.906 392.789 114.57 393.695 113.898C394.617 113.148 395.078 112.062 395.078 110.641C395.078 108.922 394.648 107.703 393.789 106.984C392.914 106.25 391.453 105.883 389.406 105.883H387.531V114.906ZM418.633 120.18H427.938L424.445 108.859C424.367 108.656 424.219 108.094 424 107.172C423.734 106.094 423.492 105.117 423.273 104.242C423.055 105.039 422.867 105.844 422.711 106.656C422.461 107.438 422.25 108.172 422.078 108.859L418.633 120.18ZM405.531 133L417.367 98.6875H429.086L440.945 133H431.641L429.906 126.859H416.617L414.836 133H405.531ZM36.6016 181V154.797H28.9141V146.688H53.6406V154.797H45.9531V181H36.6016ZM57.9766 146.688H67.3516V163.375C67.3516 165.922 67.4141 167.688 67.5391 168.672C67.6953 169.844 67.9062 170.734 68.1719 171.344C68.5 172.234 69.1172 172.891 70.0234 173.312C70.9297 173.797 72.0234 174.039 73.3047 174.039C74.5703 174.039 75.6562 173.797 76.5625 173.312C77.3906 172.906 78.0156 172.25 78.4375 171.344C78.6875 170.719 78.8906 169.828 79.0469 168.672C79.1875 167.734 79.2578 165.969 79.2578 163.375V161.031V146.688H88.5625V164.828C88.5625 168.547 88.3359 171.312 87.8828 173.125C87.4609 174.922 86.6953 176.461 85.5859 177.742C84.3672 179.164 82.75 180.203 80.7344 180.859C78.7344 181.562 76.2578 181.914 73.3047 181.914C70.2891 181.914 67.8047 181.562 65.8516 180.859C63.8672 180.203 62.25 179.164 61 177.742C59.9219 176.492 59.1562 174.953 58.7031 173.125C58.2188 171.281 57.9766 168.516 57.9766 164.828V161.266V146.688ZM110.734 181V146.688H131.758V154.211H119.852V160.164H131.078V167.523H119.852V173.312H131.758V181H110.734ZM177.32 181H168.578L166.562 166.164C166.391 164.836 166.266 163.672 166.188 162.672C166.078 161.688 165.969 160.289 165.859 158.477C165.578 160.102 165.141 161.914 164.547 163.914C164.422 164.305 164.328 164.641 164.266 164.922L159.602 181H153.367L148.703 164.922C148.656 164.656 148.562 164.32 148.422 163.914C147.766 161.805 147.336 159.992 147.133 158.477C147.008 160.195 146.891 161.477 146.781 162.32C146.734 162.758 146.664 163.398 146.57 164.242C146.477 165.086 146.406 165.727 146.359 166.164L144.344 181H135.648L140.945 146.688H150.203L155.383 164.383C155.477 164.711 155.539 164.922 155.57 165.016C156.023 166.484 156.328 167.828 156.484 169.047C156.516 168.625 156.633 167.938 156.836 166.984C156.898 166.75 157.133 165.867 157.539 164.336L162.766 146.688H172.047L177.32 181ZM191.125 181H182.359V146.688H192.133C195.93 146.688 198.625 146.875 200.219 147.25C201.781 147.656 203.086 148.297 204.133 149.172C205.383 150.219 206.344 151.516 207.016 153.062C207.688 154.641 208.023 156.398 208.023 158.336C208.023 160.398 207.688 162.195 207.016 163.727C206.422 165.273 205.461 166.555 204.133 167.57C203.18 168.32 202.031 168.859 200.688 169.188C199.484 169.516 197.391 169.68 194.406 169.68H192.812H191.125V181ZM191.125 162.133H192.906C195.125 162.133 196.695 161.812 197.617 161.172C198.508 160.578 198.953 159.539 198.953 158.055C198.953 156.633 198.516 155.617 197.641 155.008C196.781 154.383 195.234 154.07 193 154.07H191.125V162.133ZM212.781 181V146.688H222.555C224.445 146.688 226.039 146.727 227.336 146.805C228.648 146.883 229.727 147.016 230.57 147.203C232.023 147.547 233.32 148.141 234.461 148.984C235.711 149.922 236.656 151.125 237.297 152.594C237.969 154 238.305 155.594 238.305 157.375C238.305 160.016 237.648 162.18 236.336 163.867C235.055 165.555 233.156 166.656 230.641 167.172L239.992 181H229.422L221.547 167.57V181H212.781ZM221.547 162.906H223.281C225.328 162.906 226.805 162.57 227.711 161.898C228.633 161.148 229.094 160.062 229.094 158.641C229.094 156.922 228.664 155.703 227.805 154.984C226.93 154.25 225.469 153.883 223.422 153.883H221.547V162.906ZM243.578 181V146.688H264.602V154.211H252.695V160.164H263.922V167.523H252.695V173.312H264.602V181H243.578ZM272.336 169.914C273.773 171.508 275.148 172.688 276.461 173.453C277.836 174.234 279.18 174.625 280.492 174.625C281.727 174.625 282.75 174.289 283.562 173.617C284.375 172.945 284.781 172.094 284.781 171.062C284.781 169.938 284.445 169.055 283.773 168.414C283.055 167.805 281.469 167.172 279.016 166.516C275.672 165.609 273.305 164.438 271.914 163C270.508 161.531 269.805 159.531 269.805 157C269.805 153.719 270.906 151.047 273.109 148.984C275.281 146.906 278.125 145.867 281.641 145.867C283.625 145.867 285.422 146.125 287.031 146.641C288.719 147.156 290.32 147.922 291.836 148.938L288.906 155.664C287.875 154.773 286.781 154.086 285.625 153.602C284.5 153.148 283.398 152.922 282.32 152.922C281.227 152.922 280.312 153.195 279.578 153.742C278.875 154.258 278.523 154.945 278.523 155.805C278.523 156.633 278.828 157.32 279.438 157.867C280.078 158.383 281.281 158.875 283.047 159.344C283.109 159.359 283.164 159.375 283.211 159.391C283.258 159.391 283.328 159.406 283.422 159.438C287.234 160.453 289.75 161.594 290.969 162.859C291.766 163.656 292.391 164.664 292.844 165.883C293.25 167.039 293.453 168.352 293.453 169.82C293.453 173.445 292.258 176.375 289.867 178.609C287.461 180.812 284.273 181.914 280.305 181.914C277.867 181.914 275.688 181.516 273.766 180.719C271.859 179.922 269.977 178.641 268.117 176.875L272.336 169.914ZM307.773 168.18H317.078L313.586 156.859C313.508 156.656 313.359 156.094 313.141 155.172C312.875 154.094 312.633 153.117 312.414 152.242C312.195 153.039 312.008 153.844 311.852 154.656C311.602 155.438 311.391 156.172 311.219 156.859L307.773 168.18ZM294.672 181L306.508 146.688H318.227L330.086 181H320.781L319.047 174.859H305.758L303.977 181H294.672Z" fill="#FFBE12"/>
</svg>
