<svg width="506" height="219" viewBox="0 0 506 219" fill="none" xmlns="http://www.w3.org/2000/svg">
<path d="M31.6562 37V2.6875H52.6797V10.2109H40.7734V16.1641H52V23.5234H40.7734V29.3125H52.6797V37H31.6562ZM58.8906 37V2.6875H68.2422V28.9844H79.8672V37H58.8906ZM99.4844 37V2.6875H106.633C112.039 2.6875 115.812 2.9375 117.953 3.4375C120.172 3.9375 122.109 4.77344 123.766 5.94531C125.953 7.44531 127.602 9.38281 128.711 11.7578C129.836 14.1484 130.398 16.8516 130.398 19.8672C130.398 22.8828 129.836 25.5859 128.711 27.9766C127.602 30.3203 125.953 32.2578 123.766 33.7891C122.047 34.9609 120.156 35.7734 118.094 36.2266C116.031 36.7422 112.734 37 108.203 37H106.633H99.4844ZM108.742 29.3125H110.312C114 29.3125 116.68 28.5469 118.352 27.0156C120.039 25.5156 120.883 23.1328 120.883 19.8672C120.883 16.6172 120.039 14.2188 118.352 12.6719C116.664 11.125 113.984 10.3516 110.312 10.3516H108.742V29.3125ZM136.516 37V2.6875H145.961V37H136.516ZM153.531 37V2.6875H162.555L175.516 20.3359C175.844 20.8203 176.258 21.5469 176.758 22.5156C177.398 23.7656 178.023 25.0547 178.633 26.3828C178.398 24.5859 178.266 23.3281 178.234 22.6094C178.141 21.4844 178.094 20.4922 178.094 19.6328V2.6875H187.07V37H178.094L165.133 19.2812C164.945 19.0312 164.531 18.2969 163.891 17.0781C163.328 16.0781 162.703 14.8125 162.016 13.2812C162.172 14.5 162.32 15.7656 162.461 17.0781C162.523 18.5469 162.555 19.5391 162.555 20.0547V37H153.531ZM194.453 37V2.6875H215.477V10.2109H203.57V16.1641H214.797V23.5234H203.57V29.3125H215.477V37H194.453ZM221.688 37V2.6875H231.461C233.352 2.6875 234.945 2.72656 236.242 2.80469C237.555 2.88281 238.633 3.01562 239.477 3.20312C240.93 3.54688 242.227 4.14062 243.367 4.98438C244.617 5.92188 245.562 7.125 246.203 8.59375C246.875 10 247.211 11.5938 247.211 13.375C247.211 16.0156 246.555 18.1797 245.242 19.8672C243.961 21.5547 242.062 22.6562 239.547 23.1719L248.898 37H238.328L230.453 23.5703V37H221.688ZM230.453 18.9062H232.188C234.234 18.9062 235.711 18.5703 236.617 17.8984C237.539 17.1484 238 16.0625 238 14.6406C238 12.9219 237.57 11.7031 236.711 10.9844C235.836 10.25 234.375 9.88281 232.328 9.88281H230.453V18.9062ZM287.711 19.9141C287.711 22.3984 287.266 24.7188 286.375 26.875C285.484 28.9844 284.156 30.9062 282.391 32.6406C280.641 34.3281 278.641 35.625 276.391 36.5312C274.031 37.4531 271.695 37.9141 269.383 37.9141C267.039 37.9141 264.703 37.4531 262.375 36.5312C260.078 35.6094 258.094 34.3125 256.422 32.6406C254.734 31.0312 253.406 29.0938 252.438 26.8281C251.5 24.6094 251.031 22.3047 251.031 19.9141C251.031 17.5234 251.5 15.2188 252.438 13C253.406 10.7344 254.734 8.79688 256.422 7.1875C258.141 5.46875 260.125 4.15625 262.375 3.25C264.562 2.35938 266.898 1.91406 269.383 1.91406C271.867 1.91406 274.219 2.36719 276.438 3.27344C278.656 4.16406 280.633 5.46875 282.367 7.1875C284.117 8.90625 285.453 10.8438 286.375 13C287.266 15.1562 287.711 17.4609 287.711 19.9141ZM269.383 29.9922C271.961 29.9922 274.117 29.0312 275.852 27.1094C276.711 26.1562 277.344 25.0859 277.75 23.8984C278.156 22.7109 278.359 21.3828 278.359 19.9141C278.359 17.0547 277.508 14.6562 275.805 12.7188C274.07 10.7969 271.93 9.83594 269.383 9.83594C266.773 9.83594 264.625 10.7969 262.938 12.7188C261.25 14.6406 260.406 17.0391 260.406 19.9141C260.406 22.8984 261.234 25.3125 262.891 27.1562C264.594 29.0469 266.758 29.9922 269.383 29.9922ZM308.641 37V2.6875H315.789C321.195 2.6875 324.969 2.9375 327.109 3.4375C329.328 3.9375 331.266 4.77344 332.922 5.94531C335.109 7.44531 336.758 9.38281 337.867 11.7578C338.992 14.1484 339.555 16.8516 339.555 19.8672C339.555 22.8828 338.992 25.5859 337.867 27.9766C336.758 30.3203 335.109 32.2578 332.922 33.7891C331.203 34.9609 329.312 35.7734 327.25 36.2266C325.188 36.7422 321.891 37 317.359 37H315.789H308.641ZM317.898 29.3125H319.469C323.156 29.3125 325.836 28.5469 327.508 27.0156C329.195 25.5156 330.039 23.1328 330.039 19.8672C330.039 16.6172 329.195 14.2188 327.508 12.6719C325.82 11.125 323.141 10.3516 319.469 10.3516H317.898V29.3125ZM345.438 37V2.6875H366.461V10.2109H354.555V16.1641H365.781V23.5234H354.555V29.3125H366.461V37H345.438ZM392.664 37V10.7969H384.977V2.6875H409.703V10.7969H402.016V37H392.664ZM414.039 2.6875H423.414V19.375C423.414 21.9219 423.477 23.6875 423.602 24.6719C423.758 25.8438 423.969 26.7344 424.234 27.3438C424.562 28.2344 425.18 28.8906 426.086 29.3125C426.992 29.7969 428.086 30.0391 429.367 30.0391C430.633 30.0391 431.719 29.7969 432.625 29.3125C433.453 28.9062 434.078 28.25 434.5 27.3438C434.75 26.7188 434.953 25.8281 435.109 24.6719C435.25 23.7344 435.32 21.9688 435.32 19.375V17.0312V2.6875H444.625V20.8281C444.625 24.5469 444.398 27.3125 443.945 29.125C443.523 30.9219 442.758 32.4609 441.648 33.7422C440.43 35.1641 438.812 36.2031 436.797 36.8594C434.797 37.5625 432.32 37.9141 429.367 37.9141C426.352 37.9141 423.867 37.5625 421.914 36.8594C419.93 36.2031 418.312 35.1641 417.062 33.7422C415.984 32.4922 415.219 30.9531 414.766 29.125C414.281 27.2812 414.039 24.5156 414.039 20.8281V17.2656V2.6875ZM453.273 25.9141C454.711 27.5078 456.086 28.6875 457.398 29.4531C458.773 30.2344 460.117 30.625 461.43 30.625C462.664 30.625 463.688 30.2891 464.5 29.6172C465.312 28.9453 465.719 28.0938 465.719 27.0625C465.719 25.9375 465.383 25.0547 464.711 24.4141C463.992 23.8047 462.406 23.1719 459.953 22.5156C456.609 21.6094 454.242 20.4375 452.852 19C451.445 17.5312 450.742 15.5312 450.742 13C450.742 9.71875 451.844 7.04688 454.047 4.98438C456.219 2.90625 459.062 1.86719 462.578 1.86719C464.562 1.86719 466.359 2.125 467.969 2.64062C469.656 3.15625 471.258 3.92188 472.773 4.9375L469.844 11.6641C468.812 10.7734 467.719 10.0859 466.562 9.60156C465.438 9.14844 464.336 8.92188 463.258 8.92188C462.164 8.92188 461.25 9.19531 460.516 9.74219C459.812 10.2578 459.461 10.9453 459.461 11.8047C459.461 12.6328 459.766 13.3203 460.375 13.8672C461.016 14.3828 462.219 14.875 463.984 15.3438C464.047 15.3594 464.102 15.375 464.148 15.3906C464.195 15.3906 464.266 15.4062 464.359 15.4375C468.172 16.4531 470.688 17.5938 471.906 18.8594C472.703 19.6562 473.328 20.6641 473.781 21.8828C474.188 23.0391 474.391 24.3516 474.391 25.8203C474.391 29.4453 473.195 32.375 470.805 34.6094C468.398 36.8125 465.211 37.9141 461.242 37.9141C458.805 37.9141 456.625 37.5156 454.703 36.7188C452.797 35.9219 450.914 34.6406 449.055 32.875L453.273 25.9141ZM36.6016 85V58.7969H28.9141V50.6875H53.6406V58.7969H45.9531V85H36.6016ZM58.2344 85V50.6875H68.0078C69.8984 50.6875 71.4922 50.7266 72.7891 50.8047C74.1016 50.8828 75.1797 51.0156 76.0234 51.2031C77.4766 51.5469 78.7734 52.1406 79.9141 52.9844C81.1641 53.9219 82.1094 55.125 82.75 56.5938C83.4219 58 83.7578 59.5938 83.7578 61.375C83.7578 64.0156 83.1016 66.1797 81.7891 67.8672C80.5078 69.5547 78.6094 70.6562 76.0938 71.1719L85.4453 85H74.875L67 71.5703V85H58.2344ZM67 66.9062H68.7344C70.7812 66.9062 72.2578 66.5703 73.1641 65.8984C74.0859 65.1484 74.5469 64.0625 74.5469 62.6406C74.5469 60.9219 74.1172 59.7031 73.2578 58.9844C72.3828 58.25 70.9219 57.8828 68.875 57.8828H67V66.9062ZM98.1016 72.1797H107.406L103.914 60.8594C103.836 60.6562 103.688 60.0938 103.469 59.1719C103.203 58.0938 102.961 57.1172 102.742 56.2422C102.523 57.0391 102.336 57.8438 102.18 58.6562C101.93 59.4375 101.719 60.1719 101.547 60.8594L98.1016 72.1797ZM85 85L96.8359 50.6875H108.555L120.414 85H111.109L109.375 78.8594H96.0859L94.3047 85H85ZM132.391 64.3984H134.266C136.594 64.3984 138.18 64.1484 139.023 63.6484C139.883 63.1172 140.312 62.2344 140.312 61C140.312 59.7031 139.914 58.7891 139.117 58.2578C138.242 57.7109 136.672 57.4375 134.406 57.4375H132.391V64.3984ZM123.719 85V50.6875H133.117C136.898 50.6875 139.602 50.8125 141.227 51.0625C142.742 51.2969 144.07 51.7266 145.211 52.3516C146.461 53.0859 147.422 54.0156 148.094 55.1406C148.766 56.3281 149.102 57.7031 149.102 59.2656C149.102 61.25 148.602 62.8125 147.602 63.9531C146.617 65.0781 145.039 65.9375 142.867 66.5312C145.242 66.7188 147.148 67.5625 148.586 69.0625C149.961 70.5938 150.648 72.6406 150.648 75.2031C150.648 77.0156 150.258 78.6172 149.477 80.0078C148.695 81.4453 147.594 82.5312 146.172 83.2656C145.078 83.8438 143.641 84.2969 141.859 84.625C140.016 84.875 137.195 85 133.398 85H123.719ZM132.391 77.9922H135.672C137.891 77.9922 139.453 77.7031 140.359 77.125C141.297 76.5938 141.766 75.6797 141.766 74.3828C141.766 72.9766 141.344 71.9688 140.5 71.3594C139.656 70.7969 138.094 70.5156 135.812 70.5156H132.391V77.9922ZM165.367 72.1797H174.672L171.18 60.8594C171.102 60.6562 170.953 60.0938 170.734 59.1719C170.469 58.0938 170.227 57.1172 170.008 56.2422C169.789 57.0391 169.602 57.8438 169.445 58.6562C169.195 59.4375 168.984 60.1719 168.812 60.8594L165.367 72.1797ZM152.266 85L164.102 50.6875H175.82L187.68 85H178.375L176.641 78.8594H163.352L161.57 85H152.266ZM197.688 50.6875H207.062V72.9531C207.062 75.4531 206.898 77.3125 206.57 78.5312C206.305 79.75 205.797 80.8984 205.047 81.9766C204.031 83.3359 202.859 84.3125 201.531 84.9062C200.172 85.5781 198.609 85.9141 196.844 85.9141C194.719 85.9141 192.797 85.4531 191.078 84.5312C189.453 83.6562 188.008 82.2891 186.742 80.4297L192.461 75.25C192.602 76.3125 192.922 77.1016 193.422 77.6172C193.984 78.1484 194.641 78.4141 195.391 78.4141C196.312 78.4141 196.938 77.9219 197.266 76.9375C197.547 75.9375 197.688 73.4766 197.688 69.5547V50.6875ZM223.07 72.1797H232.375L228.883 60.8594C228.805 60.6562 228.656 60.0938 228.438 59.1719C228.172 58.0938 227.93 57.1172 227.711 56.2422C227.492 57.0391 227.305 57.8438 227.148 58.6562C226.898 59.4375 226.688 60.1719 226.516 60.8594L223.07 72.1797ZM209.969 85L221.805 50.6875H233.523L245.383 85H236.078L234.344 78.8594H221.055L219.273 85H209.969ZM248.688 85V50.6875H255.836C261.242 50.6875 265.016 50.9375 267.156 51.4375C269.375 51.9375 271.312 52.7734 272.969 53.9453C275.156 55.4453 276.805 57.3828 277.914 59.7578C279.039 62.1484 279.602 64.8516 279.602 67.8672C279.602 70.8828 279.039 73.5859 277.914 75.9766C276.805 78.3203 275.156 80.2578 272.969 81.7891C271.25 82.9609 269.359 83.7734 267.297 84.2266C265.234 84.7422 261.938 85 257.406 85H255.836H248.688ZM257.945 77.3125H259.516C263.203 77.3125 265.883 76.5469 267.555 75.0156C269.242 73.5156 270.086 71.1328 270.086 67.8672C270.086 64.6172 269.242 62.2188 267.555 60.6719C265.867 59.125 263.188 58.3516 259.516 58.3516H257.945V77.3125ZM320.711 67.9141C320.711 70.3984 320.266 72.7188 319.375 74.875C318.484 76.9844 317.156 78.9062 315.391 80.6406C313.641 82.3281 311.641 83.625 309.391 84.5312C307.031 85.4531 304.695 85.9141 302.383 85.9141C300.039 85.9141 297.703 85.4531 295.375 84.5312C293.078 83.6094 291.094 82.3125 289.422 80.6406C287.734 79.0312 286.406 77.0938 285.438 74.8281C284.5 72.6094 284.031 70.3047 284.031 67.9141C284.031 65.5234 284.5 63.2188 285.438 61C286.406 58.7344 287.734 56.7969 289.422 55.1875C291.141 53.4688 293.125 52.1562 295.375 51.25C297.562 50.3594 299.898 49.9141 302.383 49.9141C304.867 49.9141 307.219 50.3672 309.438 51.2734C311.656 52.1641 313.633 53.4688 315.367 55.1875C317.117 56.9062 318.453 58.8438 319.375 61C320.266 63.1562 320.711 65.4609 320.711 67.9141ZM302.383 77.9922C304.961 77.9922 307.117 77.0312 308.852 75.1094C309.711 74.1562 310.344 73.0859 310.75 71.8984C311.156 70.7109 311.359 69.3828 311.359 67.9141C311.359 65.0547 310.508 62.6562 308.805 60.7188C307.07 58.7969 304.93 57.8359 302.383 57.8359C299.773 57.8359 297.625 58.7969 295.938 60.7188C294.25 62.6406 293.406 65.0391 293.406 67.9141C293.406 70.8984 294.234 73.3125 295.891 75.1562C297.594 77.0469 299.758 77.9922 302.383 77.9922ZM326.594 85V50.6875H336.367C338.258 50.6875 339.852 50.7266 341.148 50.8047C342.461 50.8828 343.539 51.0156 344.383 51.2031C345.836 51.5469 347.133 52.1406 348.273 52.9844C349.523 53.9219 350.469 55.125 351.109 56.5938C351.781 58 352.117 59.5938 352.117 61.375C352.117 64.0156 351.461 66.1797 350.148 67.8672C348.867 69.5547 346.969 70.6562 344.453 71.1719L353.805 85H343.234L335.359 71.5703V85H326.594ZM335.359 66.9062H337.094C339.141 66.9062 340.617 66.5703 341.523 65.8984C342.445 65.1484 342.906 64.0625 342.906 62.6406C342.906 60.9219 342.477 59.7031 341.617 58.9844C340.742 58.25 339.281 57.8828 337.234 57.8828H335.359V66.9062ZM357.391 85V50.6875H378.414V58.2109H366.508V64.1641H377.734V71.5234H366.508V77.3125H378.414V85H357.391ZM386.148 73.9141C387.586 75.5078 388.961 76.6875 390.273 77.4531C391.648 78.2344 392.992 78.625 394.305 78.625C395.539 78.625 396.562 78.2891 397.375 77.6172C398.188 76.9453 398.594 76.0938 398.594 75.0625C398.594 73.9375 398.258 73.0547 397.586 72.4141C396.867 71.8047 395.281 71.1719 392.828 70.5156C389.484 69.6094 387.117 68.4375 385.727 67C384.32 65.5312 383.617 63.5312 383.617 61C383.617 57.7188 384.719 55.0469 386.922 52.9844C389.094 50.9062 391.938 49.8672 395.453 49.8672C397.438 49.8672 399.234 50.125 400.844 50.6406C402.531 51.1562 404.133 51.9219 405.648 52.9375L402.719 59.6641C401.688 58.7734 400.594 58.0859 399.438 57.6016C398.312 57.1484 397.211 56.9219 396.133 56.9219C395.039 56.9219 394.125 57.1953 393.391 57.7422C392.688 58.2578 392.336 58.9453 392.336 59.8047C392.336 60.6328 392.641 61.3203 393.25 61.8672C393.891 62.3828 395.094 62.875 396.859 63.3438C396.922 63.3594 396.977 63.375 397.023 63.3906C397.07 63.3906 397.141 63.4062 397.234 63.4375C401.047 64.4531 403.562 65.5938 404.781 66.8594C405.578 67.6562 406.203 68.6641 406.656 69.8828C407.062 71.0391 407.266 72.3516 407.266 73.8203C407.266 77.4453 406.07 80.375 403.68 82.6094C401.273 84.8125 398.086 85.9141 394.117 85.9141C391.68 85.9141 389.5 85.5156 387.578 84.7188C385.672 83.9219 383.789 82.6406 381.93 80.875L386.148 73.9141ZM427.562 85V50.6875H448.586V58.2109H436.68V64.1641H447.906V71.5234H436.68V77.3125H448.586V85H427.562ZM454.797 85V50.6875H463.82L476.781 68.3359C477.109 68.8203 477.523 69.5469 478.023 70.5156C478.664 71.7656 479.289 73.0547 479.898 74.3828C479.664 72.5859 479.531 71.3281 479.5 70.6094C479.406 69.4844 479.359 68.4922 479.359 67.6328V50.6875H488.336V85H479.359L466.398 67.2812C466.211 67.0312 465.797 66.2969 465.156 65.0781C464.594 64.0781 463.969 62.8125 463.281 61.2812C463.438 62.5 463.586 63.7656 463.727 65.0781C463.789 66.5469 463.82 67.5391 463.82 68.0547V85H454.797ZM40.3281 112.398H42.2031C44.5312 112.398 46.1172 112.148 46.9609 111.648C47.8203 111.117 48.25 110.234 48.25 109C48.25 107.703 47.8516 106.789 47.0547 106.258C46.1797 105.711 44.6094 105.438 42.3438 105.438H40.3281V112.398ZM31.6562 133V98.6875H41.0547C44.8359 98.6875 47.5391 98.8125 49.1641 99.0625C50.6797 99.2969 52.0078 99.7266 53.1484 100.352C54.3984 101.086 55.3594 102.016 56.0312 103.141C56.7031 104.328 57.0391 105.703 57.0391 107.266C57.0391 109.25 56.5391 110.812 55.5391 111.953C54.5547 113.078 52.9766 113.938 50.8047 114.531C53.1797 114.719 55.0859 115.562 56.5234 117.062C57.8984 118.594 58.5859 120.641 58.5859 123.203C58.5859 125.016 58.1953 126.617 57.4141 128.008C56.6328 129.445 55.5312 130.531 54.1094 131.266C53.0156 131.844 51.5781 132.297 49.7969 132.625C47.9531 132.875 45.1328 133 41.3359 133H31.6562ZM40.3281 125.992H43.6094C45.8281 125.992 47.3906 125.703 48.2969 125.125C49.2344 124.594 49.7031 123.68 49.7031 122.383C49.7031 120.977 49.2812 119.969 48.4375 119.359C47.5938 118.797 46.0312 118.516 43.75 118.516H40.3281V125.992ZM63.9766 98.6875H73.3516V115.375C73.3516 117.922 73.4141 119.688 73.5391 120.672C73.6953 121.844 73.9062 122.734 74.1719 123.344C74.5 124.234 75.1172 124.891 76.0234 125.312C76.9297 125.797 78.0234 126.039 79.3047 126.039C80.5703 126.039 81.6562 125.797 82.5625 125.312C83.3906 124.906 84.0156 124.25 84.4375 123.344C84.6875 122.719 84.8906 121.828 85.0469 120.672C85.1875 119.734 85.2578 117.969 85.2578 115.375V113.031V98.6875H94.5625V116.828C94.5625 120.547 94.3359 123.312 93.8828 125.125C93.4609 126.922 92.6953 128.461 91.5859 129.742C90.3672 131.164 88.75 132.203 86.7344 132.859C84.7344 133.562 82.2578 133.914 79.3047 133.914C76.2891 133.914 73.8047 133.562 71.8516 132.859C69.8672 132.203 68.25 131.164 67 129.742C65.9219 128.492 65.1562 126.953 64.7031 125.125C64.2188 123.281 63.9766 120.516 63.9766 116.828V113.266V98.6875ZM101.688 133V98.6875H122.711V106.211H110.805V112.164H122.031V119.523H110.805V125.312H122.711V133H101.688ZM128.922 133V98.6875H137.945L150.906 116.336C151.234 116.82 151.648 117.547 152.148 118.516C152.789 119.766 153.414 121.055 154.023 122.383C153.789 120.586 153.656 119.328 153.625 118.609C153.531 117.484 153.484 116.492 153.484 115.633V98.6875H162.461V133H153.484L140.523 115.281C140.336 115.031 139.922 114.297 139.281 113.078C138.719 112.078 138.094 110.812 137.406 109.281C137.562 110.5 137.711 111.766 137.852 113.078C137.914 114.547 137.945 115.539 137.945 116.055V133H128.922ZM178.914 120.18H188.219L184.727 108.859C184.648 108.656 184.5 108.094 184.281 107.172C184.016 106.094 183.773 105.117 183.555 104.242C183.336 105.039 183.148 105.844 182.992 106.656C182.742 107.438 182.531 108.172 182.359 108.859L178.914 120.18ZM165.812 133L177.648 98.6875H189.367L201.227 133H191.922L190.188 126.859H176.898L175.117 133H165.812ZM206.055 121.914C207.492 123.508 208.867 124.688 210.18 125.453C211.555 126.234 212.898 126.625 214.211 126.625C215.445 126.625 216.469 126.289 217.281 125.617C218.094 124.945 218.5 124.094 218.5 123.062C218.5 121.938 218.164 121.055 217.492 120.414C216.773 119.805 215.188 119.172 212.734 118.516C209.391 117.609 207.023 116.438 205.633 115C204.227 113.531 203.523 111.531 203.523 109C203.523 105.719 204.625 103.047 206.828 100.984C209 98.9062 211.844 97.8672 215.359 97.8672C217.344 97.8672 219.141 98.125 220.75 98.6406C222.438 99.1562 224.039 99.9219 225.555 100.938L222.625 107.664C221.594 106.773 220.5 106.086 219.344 105.602C218.219 105.148 217.117 104.922 216.039 104.922C214.945 104.922 214.031 105.195 213.297 105.742C212.594 106.258 212.242 106.945 212.242 107.805C212.242 108.633 212.547 109.32 213.156 109.867C213.797 110.383 215 110.875 216.766 111.344C216.828 111.359 216.883 111.375 216.93 111.391C216.977 111.391 217.047 111.406 217.141 111.438C220.953 112.453 223.469 113.594 224.688 114.859C225.484 115.656 226.109 116.664 226.562 117.883C226.969 119.039 227.172 120.352 227.172 121.82C227.172 125.445 225.977 128.375 223.586 130.609C221.18 132.812 217.992 133.914 214.023 133.914C211.586 133.914 209.406 133.516 207.484 132.719C205.578 131.922 203.695 130.641 201.836 128.875L206.055 121.914ZM286.82 133H278.078L276.062 118.164C275.891 116.836 275.766 115.672 275.688 114.672C275.578 113.688 275.469 112.289 275.359 110.477C275.078 112.102 274.641 113.914 274.047 115.914C273.922 116.305 273.828 116.641 273.766 116.922L269.102 133H262.867L258.203 116.922C258.156 116.656 258.062 116.32 257.922 115.914C257.266 113.805 256.836 111.992 256.633 110.477C256.508 112.195 256.391 113.477 256.281 114.32C256.234 114.758 256.164 115.398 256.07 116.242C255.977 117.086 255.906 117.727 255.859 118.164L253.844 133H245.148L250.445 98.6875H259.703L264.883 116.383C264.977 116.711 265.039 116.922 265.07 117.016C265.523 118.484 265.828 119.828 265.984 121.047C266.016 120.625 266.133 119.938 266.336 118.984C266.398 118.75 266.633 117.867 267.039 116.336L272.266 98.6875H281.547L286.82 133ZM300.93 120.18H310.234L306.742 108.859C306.664 108.656 306.516 108.094 306.297 107.172C306.031 106.094 305.789 105.117 305.57 104.242C305.352 105.039 305.164 105.844 305.008 106.656C304.758 107.438 304.547 108.172 304.375 108.859L300.93 120.18ZM287.828 133L299.664 98.6875H311.383L323.242 133H313.938L312.203 126.859H298.914L297.133 133H287.828ZM326.547 133V98.6875H335.57L348.531 116.336C348.859 116.82 349.273 117.547 349.773 118.516C350.414 119.766 351.039 121.055 351.648 122.383C351.414 120.586 351.281 119.328 351.25 118.609C351.156 117.484 351.109 116.492 351.109 115.633V98.6875H360.086V133H351.109L338.148 115.281C337.961 115.031 337.547 114.297 336.906 113.078C336.344 112.078 335.719 110.812 335.031 109.281C335.188 110.5 335.336 111.766 335.477 113.078C335.539 114.547 335.57 115.539 335.57 116.055V133H326.547ZM402.695 115.914C402.695 118.398 402.25 120.719 401.359 122.875C400.469 124.984 399.141 126.906 397.375 128.641C395.625 130.328 393.625 131.625 391.375 132.531C389.016 133.453 386.68 133.914 384.367 133.914C382.023 133.914 379.688 133.453 377.359 132.531C375.062 131.609 373.078 130.312 371.406 128.641C369.719 127.031 368.391 125.094 367.422 122.828C366.484 120.609 366.016 118.305 366.016 115.914C366.016 113.523 366.484 111.219 367.422 109C368.391 106.734 369.719 104.797 371.406 103.188C373.125 101.469 375.109 100.156 377.359 99.25C379.547 98.3594 381.883 97.9141 384.367 97.9141C386.852 97.9141 389.203 98.3672 391.422 99.2734C393.641 100.164 395.617 101.469 397.352 103.188C399.102 104.906 400.438 106.844 401.359 109C402.25 111.156 402.695 113.461 402.695 115.914ZM384.367 125.992C386.945 125.992 389.102 125.031 390.836 123.109C391.695 122.156 392.328 121.086 392.734 119.898C393.141 118.711 393.344 117.383 393.344 115.914C393.344 113.055 392.492 110.656 390.789 108.719C389.055 106.797 386.914 105.836 384.367 105.836C381.758 105.836 379.609 106.797 377.922 108.719C376.234 110.641 375.391 113.039 375.391 115.914C375.391 118.898 376.219 121.312 377.875 123.156C379.578 125.047 381.742 125.992 384.367 125.992ZM410.102 121.914C411.539 123.508 412.914 124.688 414.227 125.453C415.602 126.234 416.945 126.625 418.258 126.625C419.492 126.625 420.516 126.289 421.328 125.617C422.141 124.945 422.547 124.094 422.547 123.062C422.547 121.938 422.211 121.055 421.539 120.414C420.82 119.805 419.234 119.172 416.781 118.516C413.438 117.609 411.07 116.438 409.68 115C408.273 113.531 407.57 111.531 407.57 109C407.57 105.719 408.672 103.047 410.875 100.984C413.047 98.9062 415.891 97.8672 419.406 97.8672C421.391 97.8672 423.188 98.125 424.797 98.6406C426.484 99.1562 428.086 99.9219 429.602 100.938L426.672 107.664C425.641 106.773 424.547 106.086 423.391 105.602C422.266 105.148 421.164 104.922 420.086 104.922C418.992 104.922 418.078 105.195 417.344 105.742C416.641 106.258 416.289 106.945 416.289 107.805C416.289 108.633 416.594 109.32 417.203 109.867C417.844 110.383 419.047 110.875 420.812 111.344C420.875 111.359 420.93 111.375 420.977 111.391C421.023 111.391 421.094 111.406 421.188 111.438C425 112.453 427.516 113.594 428.734 114.859C429.531 115.656 430.156 116.664 430.609 117.883C431.016 119.039 431.219 120.352 431.219 121.82C431.219 125.445 430.023 128.375 427.633 130.609C425.227 132.812 422.039 133.914 418.07 133.914C415.633 133.914 413.453 133.516 411.531 132.719C409.625 131.922 407.742 130.641 405.883 128.875L410.102 121.914Z" fill="white"/>
<path d="M27 179H15C10.5817 179 7 175.418 7 171V13.5" stroke="white" stroke-width="1.5"/>
<path d="M12.622 7.0784C12.622 10.6144 9.92461 13.4068 6.68598 13.4068C3.44736 13.4068 0.75 10.6144 0.75 7.0784C0.75 3.54244 3.44736 0.75 6.68598 0.75C9.92461 0.75 12.622 3.54244 12.622 7.0784Z" stroke="white" stroke-width="1.5"/>
<rect x="25" y="157" width="377" height="62" rx="16" fill="#002A61"/>
<path d="M45.2256 192V182.174H42.3428V179.133H51.6152V182.174H48.7324V192H45.2256ZM53.1357 192V183.123H56.0889V185.215C56.3994 184.447 56.8125 183.876 57.3281 183.501C57.8613 183.12 58.5029 182.93 59.2529 182.93C59.4229 182.93 59.5488 182.936 59.6309 182.947C59.6953 182.953 59.7539 182.959 59.8066 182.965C59.8594 182.965 59.9268 182.971 60.0088 182.982L59.71 185.83C59.4932 185.76 59.3057 185.71 59.1475 185.681C58.9131 185.657 58.7402 185.646 58.6289 185.646C57.8672 185.646 57.2783 185.88 56.8623 186.349C56.4521 186.812 56.2471 187.471 56.2471 188.326V192H53.1357ZM67.9365 187.553C67.9365 186.85 67.752 186.305 67.3828 185.918C67.0078 185.508 66.5039 185.303 65.8711 185.303C65.2383 185.303 64.7402 185.502 64.377 185.9C64.002 186.311 63.8145 186.861 63.8145 187.553C63.8145 188.25 64.002 188.798 64.377 189.196C64.7344 189.589 65.2324 189.785 65.8711 189.785C66.5039 189.785 67.0049 189.589 67.374 189.196C67.749 188.804 67.9365 188.256 67.9365 187.553ZM70.6875 183.123V192H67.8135V190.559C67.3975 191.174 66.9316 191.625 66.416 191.912C65.9062 192.199 65.3086 192.343 64.623 192.343C63.4336 192.343 62.4873 191.909 61.7842 191.042C61.4385 190.614 61.1748 190.11 60.9932 189.53C60.8115 188.95 60.7207 188.297 60.7207 187.57C60.7207 186.117 61.0928 184.966 61.8369 184.116C62.5811 183.267 63.5771 182.842 64.8252 182.842C65.4932 182.842 66.0674 182.985 66.5479 183.272C67.0342 183.548 67.4502 183.984 67.7959 184.582V183.123H70.6875ZM73.0518 192V183.123H75.917V184.925C76.3213 184.222 76.8018 183.694 77.3584 183.343C77.8975 183.009 78.5508 182.842 79.3184 182.842C79.8984 182.842 80.4141 182.93 80.8652 183.105C81.3105 183.305 81.6709 183.574 81.9463 183.914C82.1982 184.254 82.3652 184.614 82.4473 184.995C82.5469 185.481 82.5967 186.123 82.5967 186.92V192H79.459V187.245C79.459 186.524 79.3447 186.009 79.1162 185.698C78.8877 185.376 78.5156 185.215 78 185.215C77.3555 185.215 76.8809 185.455 76.5762 185.936C76.2773 186.416 76.1279 187.195 76.1279 188.273V192H73.0518ZM83.9854 191.262L84.6357 188.871C85.0928 189.275 85.5967 189.58 86.1475 189.785C86.6924 190.002 87.2432 190.11 87.7998 190.11C88.1982 190.11 88.4971 190.043 88.6963 189.908C88.9014 189.785 89.0039 189.606 89.0039 189.372C89.0039 188.979 88.5908 188.687 87.7646 188.493C87.4775 188.429 87.2607 188.373 87.1143 188.326C86.1592 188.045 85.4824 187.702 85.084 187.298C84.6504 186.882 84.4336 186.343 84.4336 185.681C84.4336 184.825 84.7588 184.137 85.4092 183.615C86.0361 183.1 86.9121 182.842 88.0371 182.842C88.582 182.842 89.1621 182.906 89.7773 183.035C90.293 183.141 90.8936 183.346 91.5791 183.65L90.9287 185.804C90.5068 185.517 90.082 185.303 89.6543 185.162C89.25 185.016 88.8252 184.942 88.3799 184.942C88.0166 184.942 87.7441 184.998 87.5625 185.109C87.3867 185.215 87.2988 185.376 87.2988 185.593C87.2988 185.897 87.7119 186.161 88.5381 186.384C88.8076 186.466 88.9453 186.507 88.9512 186.507C90.0293 186.812 90.7852 187.172 91.2188 187.588C91.6406 188.027 91.8516 188.599 91.8516 189.302C91.8516 190.21 91.5029 190.942 90.8057 191.499C90.0908 192.062 89.168 192.343 88.0371 192.343C87.252 192.343 86.5283 192.252 85.8662 192.07C85.21 191.895 84.583 191.625 83.9854 191.262ZM93.8379 192V185.338H92.502V183.123H93.8379V181.304C93.8379 180.278 94.1191 179.499 94.6816 178.966C95.2383 178.45 96.0791 178.192 97.2041 178.192C97.2803 178.192 97.4707 178.204 97.7754 178.228C98.1035 178.28 98.3379 178.324 98.4785 178.359V180.75C98.373 180.709 98.2412 180.668 98.083 180.627C97.9189 180.604 97.8105 180.592 97.7578 180.592C97.4531 180.592 97.2393 180.68 97.1162 180.855C96.9814 181.043 96.9141 181.327 96.9141 181.708V183.123H98.4785V185.338H96.9141V192H93.8379ZM99.7881 192V183.123H102.917V192H99.7881ZM100.184 180.838H100.201C100.201 180.51 100.315 180.24 100.544 180.029C100.772 179.801 101.048 179.687 101.37 179.687C101.71 179.687 101.988 179.795 102.205 180.012C102.428 180.229 102.539 180.504 102.539 180.838C102.539 181.178 102.425 181.459 102.196 181.682C101.974 181.91 101.698 182.024 101.37 182.024C101.036 182.024 100.755 181.904 100.526 181.664C100.298 181.441 100.184 181.166 100.184 180.838ZM111.601 186.419C111.548 185.927 111.357 185.525 111.029 185.215C110.701 184.904 110.3 184.749 109.825 184.749C109.327 184.749 108.923 184.887 108.612 185.162C108.29 185.473 108.088 185.892 108.006 186.419H111.601ZM114.686 188.186H107.936C107.953 188.877 108.126 189.404 108.454 189.768C108.794 190.143 109.286 190.33 109.931 190.33C110.399 190.33 110.801 190.239 111.135 190.058C111.475 189.864 111.721 189.601 111.873 189.267L114.229 190.216C113.953 190.89 113.455 191.411 112.734 191.78C112.02 192.155 111.144 192.343 110.106 192.343C108.56 192.343 107.317 191.909 106.38 191.042C105.448 190.198 104.982 189.07 104.982 187.658C104.982 186.281 105.448 185.13 106.38 184.204C107.312 183.296 108.495 182.842 109.931 182.842C111.396 182.842 112.553 183.302 113.402 184.222C113.836 184.696 114.158 185.25 114.369 185.883C114.58 186.51 114.686 187.228 114.686 188.036V188.186ZM116.505 192V183.123H119.458V185.215C119.769 184.447 120.182 183.876 120.697 183.501C121.23 183.12 121.872 182.93 122.622 182.93C122.792 182.93 122.918 182.936 123 182.947C123.064 182.953 123.123 182.959 123.176 182.965C123.229 182.965 123.296 182.971 123.378 182.982L123.079 185.83C122.862 185.76 122.675 185.71 122.517 185.681C122.282 185.657 122.109 185.646 121.998 185.646C121.236 185.646 120.647 185.88 120.231 186.349C119.821 186.812 119.616 187.471 119.616 188.326V192H116.505ZM130.655 186.419C130.603 185.927 130.412 185.525 130.084 185.215C129.756 184.904 129.354 184.749 128.88 184.749C128.382 184.749 127.978 184.887 127.667 185.162C127.345 185.473 127.143 185.892 127.061 186.419H130.655ZM133.74 188.186H126.99C127.008 188.877 127.181 189.404 127.509 189.768C127.849 190.143 128.341 190.33 128.985 190.33C129.454 190.33 129.855 190.239 130.189 190.058C130.529 189.864 130.775 189.601 130.928 189.267L133.283 190.216C133.008 190.89 132.51 191.411 131.789 191.78C131.074 192.155 130.198 192.343 129.161 192.343C127.614 192.343 126.372 191.909 125.435 191.042C124.503 190.198 124.037 189.07 124.037 187.658C124.037 186.281 124.503 185.13 125.435 184.204C126.366 183.296 127.55 182.842 128.985 182.842C130.45 182.842 131.607 183.302 132.457 184.222C132.891 184.696 133.213 185.25 133.424 185.883C133.635 186.51 133.74 187.228 133.74 188.036V188.186ZM141.686 192L141.668 185.338H140.341V183.123H141.668V180.478H144.771V183.123H146.08V185.338H144.771V192H141.686ZM156.653 183.123V187.658C156.653 188.672 156.577 189.41 156.425 189.873C156.261 190.354 155.985 190.787 155.599 191.174C155.229 191.561 154.743 191.854 154.14 192.053C153.565 192.246 152.874 192.343 152.065 192.343C151.263 192.343 150.58 192.246 150.018 192.053C149.438 191.865 148.939 191.572 148.523 191.174C148.143 190.811 147.873 190.383 147.715 189.891C147.557 189.434 147.478 188.689 147.478 187.658V183.123H150.466V187.86C150.466 188.604 150.592 189.138 150.844 189.46C151.072 189.8 151.468 189.97 152.03 189.97C152.587 189.97 152.985 189.806 153.226 189.478C153.472 189.149 153.595 188.61 153.595 187.86V183.123H156.653ZM158.077 191.262L158.728 188.871C159.185 189.275 159.688 189.58 160.239 189.785C160.784 190.002 161.335 190.11 161.892 190.11C162.29 190.11 162.589 190.043 162.788 189.908C162.993 189.785 163.096 189.606 163.096 189.372C163.096 188.979 162.683 188.687 161.856 188.493C161.569 188.429 161.353 188.373 161.206 188.326C160.251 188.045 159.574 187.702 159.176 187.298C158.742 186.882 158.525 186.343 158.525 185.681C158.525 184.825 158.851 184.137 159.501 183.615C160.128 183.1 161.004 182.842 162.129 182.842C162.674 182.842 163.254 182.906 163.869 183.035C164.385 183.141 164.985 183.346 165.671 183.65L165.021 185.804C164.599 185.517 164.174 185.303 163.746 185.162C163.342 185.016 162.917 184.942 162.472 184.942C162.108 184.942 161.836 184.998 161.654 185.109C161.479 185.215 161.391 185.376 161.391 185.593C161.391 185.897 161.804 186.161 162.63 186.384C162.899 186.466 163.037 186.507 163.043 186.507C164.121 186.812 164.877 187.172 165.311 187.588C165.732 188.027 165.943 188.599 165.943 189.302C165.943 190.21 165.595 190.942 164.897 191.499C164.183 192.062 163.26 192.343 162.129 192.343C161.344 192.343 160.62 192.252 159.958 192.07C159.302 191.895 158.675 191.625 158.077 191.262ZM173.572 192V185.338H172.236V183.123H173.572V181.304C173.572 180.278 173.854 179.499 174.416 178.966C174.973 178.45 175.813 178.192 176.938 178.192C177.015 178.192 177.205 178.204 177.51 178.228C177.838 178.28 178.072 178.324 178.213 178.359V180.75C178.107 180.709 177.976 180.668 177.817 180.627C177.653 180.604 177.545 180.592 177.492 180.592C177.188 180.592 176.974 180.68 176.851 180.855C176.716 181.043 176.648 181.327 176.648 181.708V183.123H178.213V185.338H176.648V192H173.572ZM185.895 187.588C185.895 186.926 185.728 186.404 185.394 186.023C185.048 185.643 184.597 185.452 184.04 185.452C183.466 185.452 183.015 185.643 182.687 186.023C182.353 186.393 182.186 186.914 182.186 187.588C182.186 188.244 182.347 188.76 182.669 189.135C183.021 189.521 183.478 189.715 184.04 189.715C184.603 189.715 185.06 189.521 185.411 189.135C185.733 188.748 185.895 188.232 185.895 187.588ZM189.006 187.588C189.006 188.238 188.88 188.845 188.628 189.407C188.364 190.005 188.004 190.521 187.547 190.954C187.031 191.435 186.498 191.783 185.947 192C185.373 192.229 184.737 192.343 184.04 192.343C183.337 192.343 182.701 192.229 182.133 192C181.553 191.771 181.017 191.426 180.524 190.963C180.038 190.494 179.687 189.976 179.47 189.407C179.218 188.862 179.092 188.256 179.092 187.588C179.092 186.938 179.218 186.325 179.47 185.751C179.704 185.171 180.059 184.655 180.533 184.204C180.996 183.759 181.529 183.416 182.133 183.176C182.707 182.953 183.343 182.842 184.04 182.842C184.731 182.842 185.367 182.953 185.947 183.176C186.551 183.416 187.084 183.759 187.547 184.204C188.033 184.644 188.394 185.159 188.628 185.751C188.88 186.325 189.006 186.938 189.006 187.588ZM190.808 192V183.123H193.673V184.925C194.077 184.222 194.558 183.694 195.114 183.343C195.653 183.009 196.307 182.842 197.074 182.842C197.654 182.842 198.17 182.93 198.621 183.105C199.066 183.305 199.427 183.574 199.702 183.914C199.954 184.254 200.121 184.614 200.203 184.995C200.303 185.481 200.353 186.123 200.353 186.92V192H197.215V187.245C197.215 186.524 197.101 186.009 196.872 185.698C196.644 185.376 196.271 185.215 195.756 185.215C195.111 185.215 194.637 185.455 194.332 185.936C194.033 186.416 193.884 187.195 193.884 188.273V192H190.808ZM209.353 187.57C209.353 186.873 209.174 186.328 208.816 185.936C208.436 185.537 207.932 185.338 207.305 185.338C206.672 185.338 206.174 185.537 205.811 185.936C205.447 186.334 205.266 186.879 205.266 187.57C205.266 188.268 205.447 188.815 205.811 189.214C206.168 189.606 206.666 189.803 207.305 189.803C207.938 189.803 208.441 189.606 208.816 189.214C209.174 188.821 209.353 188.273 209.353 187.57ZM212.13 178.377V192H209.247V190.559C208.849 191.162 208.397 191.607 207.894 191.895C207.425 192.193 206.874 192.343 206.241 192.343C204.999 192.343 204.006 191.909 203.262 191.042C202.523 190.175 202.154 189.018 202.154 187.57C202.154 186.164 202.526 185.019 203.271 184.134C204.009 183.272 204.964 182.842 206.136 182.842C206.886 182.842 207.495 182.979 207.964 183.255C208.415 183.507 208.837 183.955 209.229 184.6C209.206 184.441 209.183 184.201 209.159 183.879C209.136 183.527 209.124 183.24 209.124 183.018V178.377H212.13ZM220.752 187.588C220.752 186.926 220.585 186.404 220.251 186.023C219.905 185.643 219.454 185.452 218.897 185.452C218.323 185.452 217.872 185.643 217.544 186.023C217.21 186.393 217.043 186.914 217.043 187.588C217.043 188.244 217.204 188.76 217.526 189.135C217.878 189.521 218.335 189.715 218.897 189.715C219.46 189.715 219.917 189.521 220.269 189.135C220.591 188.748 220.752 188.232 220.752 187.588ZM223.863 187.588C223.863 188.238 223.737 188.845 223.485 189.407C223.222 190.005 222.861 190.521 222.404 190.954C221.889 191.435 221.355 191.783 220.805 192C220.23 192.229 219.595 192.343 218.897 192.343C218.194 192.343 217.559 192.229 216.99 192C216.41 191.771 215.874 191.426 215.382 190.963C214.896 190.494 214.544 189.976 214.327 189.407C214.075 188.862 213.949 188.256 213.949 187.588C213.949 186.938 214.075 186.325 214.327 185.751C214.562 185.171 214.916 184.655 215.391 184.204C215.854 183.759 216.387 183.416 216.99 183.176C217.564 182.953 218.2 182.842 218.897 182.842C219.589 182.842 220.225 182.953 220.805 183.176C221.408 183.416 221.941 183.759 222.404 184.204C222.891 184.644 223.251 185.159 223.485 185.751C223.737 186.325 223.863 186.938 223.863 187.588ZM224.839 191.262L225.489 188.871C225.946 189.275 226.45 189.58 227.001 189.785C227.546 190.002 228.097 190.11 228.653 190.11C229.052 190.11 229.351 190.043 229.55 189.908C229.755 189.785 229.857 189.606 229.857 189.372C229.857 188.979 229.444 188.687 228.618 188.493C228.331 188.429 228.114 188.373 227.968 188.326C227.013 188.045 226.336 187.702 225.938 187.298C225.504 186.882 225.287 186.343 225.287 185.681C225.287 184.825 225.612 184.137 226.263 183.615C226.89 183.1 227.766 182.842 228.891 182.842C229.436 182.842 230.016 182.906 230.631 183.035C231.146 183.141 231.747 183.346 232.433 183.65L231.782 185.804C231.36 185.517 230.936 185.303 230.508 185.162C230.104 185.016 229.679 184.942 229.233 184.942C228.87 184.942 228.598 184.998 228.416 185.109C228.24 185.215 228.152 185.376 228.152 185.593C228.152 185.897 228.565 186.161 229.392 186.384C229.661 186.466 229.799 186.507 229.805 186.507C230.883 186.812 231.639 187.172 232.072 187.588C232.494 188.027 232.705 188.599 232.705 189.302C232.705 190.21 232.356 190.942 231.659 191.499C230.944 192.062 230.021 192.343 228.891 192.343C228.105 192.343 227.382 192.252 226.72 192.07C226.063 191.895 225.437 191.625 224.839 191.262ZM246.398 186.041C246.094 185.771 245.801 185.575 245.52 185.452C245.268 185.329 244.972 185.268 244.632 185.268C244.005 185.268 243.513 185.473 243.155 185.883C242.786 186.287 242.602 186.844 242.602 187.553C242.602 188.232 242.792 188.771 243.173 189.17C243.542 189.58 244.055 189.785 244.711 189.785C245.021 189.785 245.32 189.721 245.607 189.592C245.912 189.445 246.176 189.252 246.398 189.012V191.728C246.023 191.927 245.646 192.085 245.265 192.202C244.86 192.296 244.477 192.343 244.113 192.343C242.742 192.343 241.638 191.903 240.8 191.024C240.513 190.731 240.275 190.409 240.088 190.058C239.906 189.706 239.766 189.325 239.666 188.915C239.572 188.505 239.525 188.057 239.525 187.57C239.525 186.17 239.953 185.033 240.809 184.16C241.67 183.281 242.783 182.842 244.148 182.842C244.576 182.842 244.983 182.889 245.37 182.982C245.745 183.076 246.088 183.214 246.398 183.396V186.041ZM257.429 183.123V187.658C257.429 188.672 257.353 189.41 257.2 189.873C257.036 190.354 256.761 190.787 256.374 191.174C256.005 191.561 255.519 191.854 254.915 192.053C254.341 192.246 253.649 192.343 252.841 192.343C252.038 192.343 251.355 192.246 250.793 192.053C250.213 191.865 249.715 191.572 249.299 191.174C248.918 190.811 248.648 190.383 248.49 189.891C248.332 189.434 248.253 188.689 248.253 187.658V183.123H251.241V187.86C251.241 188.604 251.367 189.138 251.619 189.46C251.848 189.8 252.243 189.97 252.806 189.97C253.362 189.97 253.761 189.806 254.001 189.478C254.247 189.149 254.37 188.61 254.37 187.86V183.123H257.429ZM266.446 187.553C266.446 186.85 266.262 186.305 265.893 185.918C265.518 185.508 265.014 185.303 264.381 185.303C263.748 185.303 263.25 185.502 262.887 185.9C262.512 186.311 262.324 186.861 262.324 187.553C262.324 188.25 262.512 188.798 262.887 189.196C263.244 189.589 263.742 189.785 264.381 189.785C265.014 189.785 265.515 189.589 265.884 189.196C266.259 188.804 266.446 188.256 266.446 187.553ZM269.197 183.123V192H266.323V190.559C265.907 191.174 265.441 191.625 264.926 191.912C264.416 192.199 263.818 192.343 263.133 192.343C261.943 192.343 260.997 191.909 260.294 191.042C259.948 190.614 259.685 190.11 259.503 189.53C259.321 188.95 259.23 188.297 259.23 187.57C259.23 186.117 259.603 184.966 260.347 184.116C261.091 183.267 262.087 182.842 263.335 182.842C264.003 182.842 264.577 182.985 265.058 183.272C265.544 183.548 265.96 183.984 266.306 184.582V183.123H269.197ZM271.562 192V183.123H274.427V184.925C274.831 184.222 275.312 183.694 275.868 183.343C276.407 183.009 277.061 182.842 277.828 182.842C278.408 182.842 278.924 182.93 279.375 183.105C279.82 183.305 280.181 183.574 280.456 183.914C280.708 184.254 280.875 184.614 280.957 184.995C281.057 185.481 281.106 186.123 281.106 186.92V192H277.969V187.245C277.969 186.524 277.854 186.009 277.626 185.698C277.397 185.376 277.025 185.215 276.51 185.215C275.865 185.215 275.391 185.455 275.086 185.936C274.787 186.416 274.638 187.195 274.638 188.273V192H271.562ZM290.106 187.57C290.106 186.873 289.928 186.328 289.57 185.936C289.189 185.537 288.686 185.338 288.059 185.338C287.426 185.338 286.928 185.537 286.564 185.936C286.201 186.334 286.02 186.879 286.02 187.57C286.02 188.268 286.201 188.815 286.564 189.214C286.922 189.606 287.42 189.803 288.059 189.803C288.691 189.803 289.195 189.606 289.57 189.214C289.928 188.821 290.106 188.273 290.106 187.57ZM292.884 178.377V192H290.001V190.559C289.603 191.162 289.151 191.607 288.647 191.895C288.179 192.193 287.628 192.343 286.995 192.343C285.753 192.343 284.76 191.909 284.016 191.042C283.277 190.175 282.908 189.018 282.908 187.57C282.908 186.164 283.28 185.019 284.024 184.134C284.763 183.272 285.718 182.842 286.89 182.842C287.64 182.842 288.249 182.979 288.718 183.255C289.169 183.507 289.591 183.955 289.983 184.6C289.96 184.441 289.937 184.201 289.913 183.879C289.89 183.527 289.878 183.24 289.878 183.018V178.377H292.884ZM301.506 187.588C301.506 186.926 301.339 186.404 301.005 186.023C300.659 185.643 300.208 185.452 299.651 185.452C299.077 185.452 298.626 185.643 298.298 186.023C297.964 186.393 297.797 186.914 297.797 187.588C297.797 188.244 297.958 188.76 298.28 189.135C298.632 189.521 299.089 189.715 299.651 189.715C300.214 189.715 300.671 189.521 301.022 189.135C301.345 188.748 301.506 188.232 301.506 187.588ZM304.617 187.588C304.617 188.238 304.491 188.845 304.239 189.407C303.976 190.005 303.615 190.521 303.158 190.954C302.643 191.435 302.109 191.783 301.559 192C300.984 192.229 300.349 192.343 299.651 192.343C298.948 192.343 298.312 192.229 297.744 192C297.164 191.771 296.628 191.426 296.136 190.963C295.649 190.494 295.298 189.976 295.081 189.407C294.829 188.862 294.703 188.256 294.703 187.588C294.703 186.938 294.829 186.325 295.081 185.751C295.315 185.171 295.67 184.655 296.145 184.204C296.607 183.759 297.141 183.416 297.744 183.176C298.318 182.953 298.954 182.842 299.651 182.842C300.343 182.842 300.979 182.953 301.559 183.176C302.162 183.416 302.695 183.759 303.158 184.204C303.645 184.644 304.005 185.159 304.239 185.751C304.491 186.325 304.617 186.938 304.617 187.588ZM318.847 187.588C318.847 186.908 318.668 186.363 318.311 185.953C317.93 185.555 317.426 185.355 316.799 185.355C316.166 185.355 315.668 185.555 315.305 185.953C314.941 186.352 314.76 186.896 314.76 187.588C314.76 188.268 314.941 188.815 315.305 189.231C315.662 189.624 316.16 189.82 316.799 189.82C317.432 189.82 317.936 189.624 318.311 189.231C318.668 188.821 318.847 188.273 318.847 187.588ZM321.624 195.92H318.618V192.141C318.618 191.93 318.63 191.643 318.653 191.279C318.671 190.963 318.694 190.723 318.724 190.559C318.331 191.215 317.909 191.672 317.458 191.93C316.972 192.205 316.362 192.343 315.63 192.343C314.452 192.343 313.497 191.903 312.765 191.024C312.021 190.14 311.648 188.994 311.648 187.588C311.648 186.123 312.021 184.966 312.765 184.116C313.14 183.688 313.573 183.372 314.065 183.167C314.558 182.962 315.114 182.859 315.735 182.859C316.356 182.859 316.907 183.003 317.388 183.29C317.903 183.601 318.354 184.043 318.741 184.617V183.141L321.624 183.123V195.92ZM333.05 183.123V187.658C333.05 188.672 332.974 189.41 332.821 189.873C332.657 190.354 332.382 190.787 331.995 191.174C331.626 191.561 331.14 191.854 330.536 192.053C329.962 192.246 329.271 192.343 328.462 192.343C327.659 192.343 326.977 192.246 326.414 192.053C325.834 191.865 325.336 191.572 324.92 191.174C324.539 190.811 324.27 190.383 324.111 189.891C323.953 189.434 323.874 188.689 323.874 187.658V183.123H326.862V187.86C326.862 188.604 326.988 189.138 327.24 189.46C327.469 189.8 327.864 189.97 328.427 189.97C328.983 189.97 329.382 189.806 329.622 189.478C329.868 189.149 329.991 188.61 329.991 187.86V183.123H333.05ZM335.229 192V183.123H338.358V192H335.229ZM335.625 180.838H335.643C335.643 180.51 335.757 180.24 335.985 180.029C336.214 179.801 336.489 179.687 336.812 179.687C337.151 179.687 337.43 179.795 337.646 180.012C337.869 180.229 337.98 180.504 337.98 180.838C337.98 181.178 337.866 181.459 337.638 181.682C337.415 181.91 337.14 182.024 336.812 182.024C336.478 182.024 336.196 181.904 335.968 181.664C335.739 181.441 335.625 181.166 335.625 180.838ZM347.042 186.419C346.989 185.927 346.799 185.525 346.471 185.215C346.143 184.904 345.741 184.749 345.267 184.749C344.769 184.749 344.364 184.887 344.054 185.162C343.731 185.473 343.529 185.892 343.447 186.419H347.042ZM350.127 188.186H343.377C343.395 188.877 343.567 189.404 343.896 189.768C344.235 190.143 344.728 190.33 345.372 190.33C345.841 190.33 346.242 190.239 346.576 190.058C346.916 189.864 347.162 189.601 347.314 189.267L349.67 190.216C349.395 190.89 348.896 191.411 348.176 191.78C347.461 192.155 346.585 192.343 345.548 192.343C344.001 192.343 342.759 191.909 341.821 191.042C340.89 190.198 340.424 189.07 340.424 187.658C340.424 186.281 340.89 185.13 341.821 184.204C342.753 183.296 343.937 182.842 345.372 182.842C346.837 182.842 347.994 183.302 348.844 184.222C349.277 184.696 349.6 185.25 349.811 185.883C350.021 186.51 350.127 187.228 350.127 188.036V188.186ZM351.946 192V183.123H354.899V185.215C355.21 184.447 355.623 183.876 356.139 183.501C356.672 183.12 357.313 182.93 358.063 182.93C358.233 182.93 358.359 182.936 358.441 182.947C358.506 182.953 358.564 182.959 358.617 182.965C358.67 182.965 358.737 182.971 358.819 182.982L358.521 185.83C358.304 185.76 358.116 185.71 357.958 185.681C357.724 185.657 357.551 185.646 357.439 185.646C356.678 185.646 356.089 185.88 355.673 186.349C355.263 186.812 355.058 187.471 355.058 188.326V192H351.946ZM366.747 187.553C366.747 186.85 366.562 186.305 366.193 185.918C365.818 185.508 365.314 185.303 364.682 185.303C364.049 185.303 363.551 185.502 363.188 185.9C362.812 186.311 362.625 186.861 362.625 187.553C362.625 188.25 362.812 188.798 363.188 189.196C363.545 189.589 364.043 189.785 364.682 189.785C365.314 189.785 365.815 189.589 366.185 189.196C366.56 188.804 366.747 188.256 366.747 187.553ZM369.498 183.123V192H366.624V190.559C366.208 191.174 365.742 191.625 365.227 191.912C364.717 192.199 364.119 192.343 363.434 192.343C362.244 192.343 361.298 191.909 360.595 191.042C360.249 190.614 359.985 190.11 359.804 189.53C359.622 188.95 359.531 188.297 359.531 187.57C359.531 186.117 359.903 184.966 360.647 184.116C361.392 183.267 362.388 182.842 363.636 182.842C364.304 182.842 364.878 182.985 365.358 183.272C365.845 183.548 366.261 183.984 366.606 184.582V183.123H369.498ZM371.036 191.262L371.687 188.871C372.144 189.275 372.647 189.58 373.198 189.785C373.743 190.002 374.294 190.11 374.851 190.11C375.249 190.11 375.548 190.043 375.747 189.908C375.952 189.785 376.055 189.606 376.055 189.372C376.055 188.979 375.642 188.687 374.815 188.493C374.528 188.429 374.312 188.373 374.165 188.326C373.21 188.045 372.533 187.702 372.135 187.298C371.701 186.882 371.484 186.343 371.484 185.681C371.484 184.825 371.81 184.137 372.46 183.615C373.087 183.1 373.963 182.842 375.088 182.842C375.633 182.842 376.213 182.906 376.828 183.035C377.344 183.141 377.944 183.346 378.63 183.65L377.979 185.804C377.558 185.517 377.133 185.303 376.705 185.162C376.301 185.016 375.876 184.942 375.431 184.942C375.067 184.942 374.795 184.998 374.613 185.109C374.438 185.215 374.35 185.376 374.35 185.593C374.35 185.897 374.763 186.161 375.589 186.384C375.858 186.466 375.996 186.507 376.002 186.507C377.08 186.812 377.836 187.172 378.27 187.588C378.691 188.027 378.902 188.599 378.902 189.302C378.902 190.21 378.554 190.942 377.856 191.499C377.142 192.062 376.219 192.343 375.088 192.343C374.303 192.343 373.579 192.252 372.917 192.07C372.261 191.895 371.634 191.625 371.036 191.262Z" fill="white"/>
</svg>
