<svg width="550" height="246" viewBox="0 0 550 246" fill="none" xmlns="http://www.w3.org/2000/svg">
<path d="M26.744 183H14.686C10.2678 183 6.68604 179.418 6.68604 175V14" stroke="white" stroke-width="1.5"/>
<path d="M12.622 7.0784C12.622 10.6144 9.92461 13.4068 6.68598 13.4068C3.44736 13.4068 0.75 10.6144 0.75 7.0784C0.75 3.54244 3.44736 0.75 6.68598 0.75C9.92461 0.75 12.622 3.54244 12.622 7.0784Z" stroke="white" stroke-width="1.5"/>
<rect x="25" y="161" width="353" height="85" rx="16" fill="#002A61"/>
<path d="M46.7725 190.192H50.2617L48.9521 185.947C48.9229 185.871 48.8672 185.66 48.7852 185.314C48.6855 184.91 48.5947 184.544 48.5127 184.216C48.4307 184.515 48.3604 184.816 48.3018 185.121C48.208 185.414 48.1289 185.689 48.0645 185.947L46.7725 190.192ZM41.8594 195L46.2979 182.133H50.6924L55.1396 195H51.6504L51 192.697H46.0166L45.3486 195H41.8594ZM58.9541 190.588C58.9541 191.279 59.1387 191.827 59.5078 192.231C59.8477 192.624 60.3398 192.82 60.9844 192.82C61.623 192.82 62.1211 192.624 62.4785 192.231C62.8359 191.821 63.0146 191.273 63.0146 190.588C63.0146 189.891 62.8359 189.346 62.4785 188.953C62.1152 188.555 61.6172 188.355 60.9844 188.355C60.3457 188.355 59.8535 188.555 59.5078 188.953C59.1387 189.34 58.9541 189.885 58.9541 190.588ZM56.1768 198.92V186.141H59.0596V187.617C59.4404 187.049 59.8887 186.606 60.4043 186.29C60.8906 186.003 61.4443 185.859 62.0654 185.859C62.6924 185.859 63.2549 185.965 63.7529 186.176C64.251 186.381 64.6846 186.694 65.0537 187.116C65.7861 187.954 66.1523 189.111 66.1523 190.588C66.1523 192.006 65.7861 193.151 65.0537 194.024C64.6787 194.47 64.2539 194.801 63.7793 195.018C63.3105 195.234 62.7744 195.343 62.1709 195.343C61.415 195.343 60.8027 195.205 60.334 194.93C59.8828 194.666 59.4639 194.209 59.0771 193.559C59.1064 193.699 59.1299 193.916 59.1475 194.209C59.1592 194.379 59.165 194.689 59.165 195.141V198.92H56.1768ZM74.3438 190.588C74.3438 189.926 74.1768 189.404 73.8428 189.023C73.4971 188.643 73.0459 188.452 72.4893 188.452C71.915 188.452 71.4639 188.643 71.1357 189.023C70.8018 189.393 70.6348 189.914 70.6348 190.588C70.6348 191.244 70.7959 191.76 71.1182 192.135C71.4697 192.521 71.9268 192.715 72.4893 192.715C73.0518 192.715 73.5088 192.521 73.8604 192.135C74.1826 191.748 74.3438 191.232 74.3438 190.588ZM77.4551 190.588C77.4551 191.238 77.3291 191.845 77.0771 192.407C76.8135 193.005 76.4531 193.521 75.9961 193.954C75.4805 194.435 74.9473 194.783 74.3965 195C73.8223 195.229 73.1865 195.343 72.4893 195.343C71.7861 195.343 71.1504 195.229 70.582 195C70.002 194.771 69.4658 194.426 68.9736 193.963C68.4873 193.494 68.1357 192.976 67.9189 192.407C67.667 191.862 67.541 191.256 67.541 190.588C67.541 189.938 67.667 189.325 67.9189 188.751C68.1533 188.171 68.5078 187.655 68.9824 187.204C69.4453 186.759 69.9785 186.416 70.582 186.176C71.1562 185.953 71.792 185.842 72.4893 185.842C73.1807 185.842 73.8164 185.953 74.3965 186.176C75 186.416 75.5332 186.759 75.9961 187.204C76.4824 187.644 76.8428 188.159 77.0771 188.751C77.3291 189.325 77.4551 189.938 77.4551 190.588ZM78.7734 198.92L81.2695 193.646L77.6924 186.123H81.1641L82.4033 189.331C82.5264 189.624 82.6113 189.876 82.6582 190.087C82.7227 190.304 82.7783 190.521 82.8252 190.737C82.8604 190.526 82.9131 190.304 82.9834 190.069C83.0303 189.864 83.1152 189.618 83.2383 189.331L84.4951 186.123H87.8438L82.2627 198.92H78.7734ZM95.6045 190.553C95.6045 189.85 95.4199 189.305 95.0508 188.918C94.6758 188.508 94.1719 188.303 93.5391 188.303C92.9062 188.303 92.4082 188.502 92.0449 188.9C91.6699 189.311 91.4824 189.861 91.4824 190.553C91.4824 191.25 91.6699 191.798 92.0449 192.196C92.4023 192.589 92.9004 192.785 93.5391 192.785C94.1719 192.785 94.6729 192.589 95.042 192.196C95.417 191.804 95.6045 191.256 95.6045 190.553ZM98.3555 186.123V195H95.4814V193.559C95.0654 194.174 94.5996 194.625 94.084 194.912C93.5742 195.199 92.9766 195.343 92.291 195.343C91.1016 195.343 90.1553 194.909 89.4521 194.042C89.1064 193.614 88.8428 193.11 88.6611 192.53C88.4795 191.95 88.3887 191.297 88.3887 190.57C88.3887 189.117 88.7607 187.966 89.5049 187.116C90.249 186.267 91.2451 185.842 92.4932 185.842C93.1611 185.842 93.7354 185.985 94.2158 186.272C94.7021 186.548 95.1182 186.984 95.4639 187.582V186.123H98.3555ZM112.453 195V190.157C112.453 189.396 112.365 188.868 112.189 188.575C111.99 188.276 111.659 188.127 111.196 188.127C110.604 188.127 110.197 188.329 109.975 188.733C109.746 189.132 109.632 189.967 109.632 191.238V195H106.608V190.157C106.608 189.366 106.512 188.833 106.318 188.558C106.143 188.271 105.817 188.127 105.343 188.127C104.751 188.127 104.338 188.323 104.104 188.716C103.875 189.114 103.761 189.955 103.761 191.238V195H100.72V186.123H103.796V187.67C104.171 187.049 104.599 186.589 105.079 186.29C105.548 185.991 106.116 185.842 106.784 185.842C107.505 185.842 108.1 185.979 108.568 186.255C109.014 186.536 109.339 186.955 109.544 187.512C109.901 186.932 110.326 186.513 110.818 186.255C111.305 185.979 111.888 185.842 112.567 185.842C113.101 185.842 113.566 185.93 113.965 186.105C114.375 186.299 114.712 186.568 114.976 186.914C115.198 187.189 115.354 187.515 115.441 187.89C115.529 188.235 115.573 188.848 115.573 189.727V189.92V195H112.453ZM124.09 190.588C124.09 189.926 123.923 189.404 123.589 189.023C123.243 188.643 122.792 188.452 122.235 188.452C121.661 188.452 121.21 188.643 120.882 189.023C120.548 189.393 120.381 189.914 120.381 190.588C120.381 191.244 120.542 191.76 120.864 192.135C121.216 192.521 121.673 192.715 122.235 192.715C122.798 192.715 123.255 192.521 123.606 192.135C123.929 191.748 124.09 191.232 124.09 190.588ZM127.201 190.588C127.201 191.238 127.075 191.845 126.823 192.407C126.56 193.005 126.199 193.521 125.742 193.954C125.227 194.435 124.693 194.783 124.143 195C123.568 195.229 122.933 195.343 122.235 195.343C121.532 195.343 120.896 195.229 120.328 195C119.748 194.771 119.212 194.426 118.72 193.963C118.233 193.494 117.882 192.976 117.665 192.407C117.413 191.862 117.287 191.256 117.287 190.588C117.287 189.938 117.413 189.325 117.665 188.751C117.899 188.171 118.254 187.655 118.729 187.204C119.191 186.759 119.725 186.416 120.328 186.176C120.902 185.953 121.538 185.842 122.235 185.842C122.927 185.842 123.562 185.953 124.143 186.176C124.746 186.416 125.279 186.759 125.742 187.204C126.229 187.644 126.589 188.159 126.823 188.751C127.075 189.325 127.201 189.938 127.201 190.588ZM128.177 194.262L128.827 191.871C129.284 192.275 129.788 192.58 130.339 192.785C130.884 193.002 131.435 193.11 131.991 193.11C132.39 193.11 132.688 193.043 132.888 192.908C133.093 192.785 133.195 192.606 133.195 192.372C133.195 191.979 132.782 191.687 131.956 191.493C131.669 191.429 131.452 191.373 131.306 191.326C130.351 191.045 129.674 190.702 129.275 190.298C128.842 189.882 128.625 189.343 128.625 188.681C128.625 187.825 128.95 187.137 129.601 186.615C130.228 186.1 131.104 185.842 132.229 185.842C132.773 185.842 133.354 185.906 133.969 186.035C134.484 186.141 135.085 186.346 135.771 186.65L135.12 188.804C134.698 188.517 134.273 188.303 133.846 188.162C133.441 188.016 133.017 187.942 132.571 187.942C132.208 187.942 131.936 187.998 131.754 188.109C131.578 188.215 131.49 188.376 131.49 188.593C131.49 188.897 131.903 189.161 132.729 189.384C132.999 189.466 133.137 189.507 133.143 189.507C134.221 189.812 134.977 190.172 135.41 190.588C135.832 191.027 136.043 191.599 136.043 192.302C136.043 193.21 135.694 193.942 134.997 194.499C134.282 195.062 133.359 195.343 132.229 195.343C131.443 195.343 130.72 195.252 130.058 195.07C129.401 194.895 128.774 194.625 128.177 194.262ZM143.452 195V181.377H146.59V195H143.452ZM155.757 190.553C155.757 189.85 155.572 189.305 155.203 188.918C154.828 188.508 154.324 188.303 153.691 188.303C153.059 188.303 152.561 188.502 152.197 188.9C151.822 189.311 151.635 189.861 151.635 190.553C151.635 191.25 151.822 191.798 152.197 192.196C152.555 192.589 153.053 192.785 153.691 192.785C154.324 192.785 154.825 192.589 155.194 192.196C155.569 191.804 155.757 191.256 155.757 190.553ZM158.508 186.123V195H155.634V193.559C155.218 194.174 154.752 194.625 154.236 194.912C153.727 195.199 153.129 195.343 152.443 195.343C151.254 195.343 150.308 194.909 149.604 194.042C149.259 193.614 148.995 193.11 148.813 192.53C148.632 191.95 148.541 191.297 148.541 190.57C148.541 189.117 148.913 187.966 149.657 187.116C150.401 186.267 151.397 185.842 152.646 185.842C153.313 185.842 153.888 185.985 154.368 186.272C154.854 186.548 155.271 186.984 155.616 187.582V186.123H158.508ZM160.046 194.262L160.696 191.871C161.153 192.275 161.657 192.58 162.208 192.785C162.753 193.002 163.304 193.11 163.86 193.11C164.259 193.11 164.558 193.043 164.757 192.908C164.962 192.785 165.064 192.606 165.064 192.372C165.064 191.979 164.651 191.687 163.825 191.493C163.538 191.429 163.321 191.373 163.175 191.326C162.22 191.045 161.543 190.702 161.145 190.298C160.711 189.882 160.494 189.343 160.494 188.681C160.494 187.825 160.819 187.137 161.47 186.615C162.097 186.1 162.973 185.842 164.098 185.842C164.643 185.842 165.223 185.906 165.838 186.035C166.354 186.141 166.954 186.346 167.64 186.65L166.989 188.804C166.567 188.517 166.143 188.303 165.715 188.162C165.311 188.016 164.886 187.942 164.44 187.942C164.077 187.942 163.805 187.998 163.623 188.109C163.447 188.215 163.359 188.376 163.359 188.593C163.359 188.897 163.772 189.161 164.599 189.384C164.868 189.466 165.006 189.507 165.012 189.507C166.09 189.812 166.846 190.172 167.279 190.588C167.701 191.027 167.912 191.599 167.912 192.302C167.912 193.21 167.563 193.942 166.866 194.499C166.151 195.062 165.229 195.343 164.098 195.343C163.312 195.343 162.589 195.252 161.927 195.07C161.271 194.895 160.644 194.625 160.046 194.262ZM175.233 195V186.123H178.099V187.925C178.503 187.222 178.983 186.694 179.54 186.343C180.079 186.009 180.732 185.842 181.5 185.842C182.08 185.842 182.596 185.93 183.047 186.105C183.492 186.305 183.853 186.574 184.128 186.914C184.38 187.254 184.547 187.614 184.629 187.995C184.729 188.481 184.778 189.123 184.778 189.92V195H181.641V190.245C181.641 189.524 181.526 189.009 181.298 188.698C181.069 188.376 180.697 188.215 180.182 188.215C179.537 188.215 179.062 188.455 178.758 188.936C178.459 189.416 178.31 190.195 178.31 191.273V195H175.233ZM193.11 189.419C193.058 188.927 192.867 188.525 192.539 188.215C192.211 187.904 191.81 187.749 191.335 187.749C190.837 187.749 190.433 187.887 190.122 188.162C189.8 188.473 189.598 188.892 189.516 189.419H193.11ZM196.195 191.186H189.445C189.463 191.877 189.636 192.404 189.964 192.768C190.304 193.143 190.796 193.33 191.44 193.33C191.909 193.33 192.311 193.239 192.645 193.058C192.984 192.864 193.23 192.601 193.383 192.267L195.738 193.216C195.463 193.89 194.965 194.411 194.244 194.78C193.529 195.155 192.653 195.343 191.616 195.343C190.069 195.343 188.827 194.909 187.89 194.042C186.958 193.198 186.492 192.07 186.492 190.658C186.492 189.281 186.958 188.13 187.89 187.204C188.821 186.296 190.005 185.842 191.44 185.842C192.905 185.842 194.062 186.302 194.912 187.222C195.346 187.696 195.668 188.25 195.879 188.883C196.09 189.51 196.195 190.228 196.195 191.036V191.186ZM204.369 189.041C204.064 188.771 203.771 188.575 203.49 188.452C203.238 188.329 202.942 188.268 202.603 188.268C201.976 188.268 201.483 188.473 201.126 188.883C200.757 189.287 200.572 189.844 200.572 190.553C200.572 191.232 200.763 191.771 201.144 192.17C201.513 192.58 202.025 192.785 202.682 192.785C202.992 192.785 203.291 192.721 203.578 192.592C203.883 192.445 204.146 192.252 204.369 192.012V194.728C203.994 194.927 203.616 195.085 203.235 195.202C202.831 195.296 202.447 195.343 202.084 195.343C200.713 195.343 199.608 194.903 198.771 194.024C198.483 193.731 198.246 193.409 198.059 193.058C197.877 192.706 197.736 192.325 197.637 191.915C197.543 191.505 197.496 191.057 197.496 190.57C197.496 189.17 197.924 188.033 198.779 187.16C199.641 186.281 200.754 185.842 202.119 185.842C202.547 185.842 202.954 185.889 203.341 185.982C203.716 186.076 204.059 186.214 204.369 186.396V189.041ZM212.411 189.419C212.358 188.927 212.168 188.525 211.84 188.215C211.512 187.904 211.11 187.749 210.636 187.749C210.138 187.749 209.733 187.887 209.423 188.162C209.101 188.473 208.898 188.892 208.816 189.419H212.411ZM215.496 191.186H208.746C208.764 191.877 208.937 192.404 209.265 192.768C209.604 193.143 210.097 193.33 210.741 193.33C211.21 193.33 211.611 193.239 211.945 193.058C212.285 192.864 212.531 192.601 212.684 192.267L215.039 193.216C214.764 193.89 214.266 194.411 213.545 194.78C212.83 195.155 211.954 195.343 210.917 195.343C209.37 195.343 208.128 194.909 207.19 194.042C206.259 193.198 205.793 192.07 205.793 190.658C205.793 189.281 206.259 188.13 207.19 187.204C208.122 186.296 209.306 185.842 210.741 185.842C212.206 185.842 213.363 186.302 214.213 187.222C214.646 187.696 214.969 188.25 215.18 188.883C215.391 189.51 215.496 190.228 215.496 191.036V191.186ZM216.472 194.262L217.122 191.871C217.579 192.275 218.083 192.58 218.634 192.785C219.179 193.002 219.729 193.11 220.286 193.11C220.685 193.11 220.983 193.043 221.183 192.908C221.388 192.785 221.49 192.606 221.49 192.372C221.49 191.979 221.077 191.687 220.251 191.493C219.964 191.429 219.747 191.373 219.601 191.326C218.646 191.045 217.969 190.702 217.57 190.298C217.137 189.882 216.92 189.343 216.92 188.681C216.92 187.825 217.245 187.137 217.896 186.615C218.522 186.1 219.398 185.842 220.523 185.842C221.068 185.842 221.648 185.906 222.264 186.035C222.779 186.141 223.38 186.346 224.065 186.65L223.415 188.804C222.993 188.517 222.568 188.303 222.141 188.162C221.736 188.016 221.312 187.942 220.866 187.942C220.503 187.942 220.23 187.998 220.049 188.109C219.873 188.215 219.785 188.376 219.785 188.593C219.785 188.897 220.198 189.161 221.024 189.384C221.294 189.466 221.432 189.507 221.438 189.507C222.516 189.812 223.271 190.172 223.705 190.588C224.127 191.027 224.338 191.599 224.338 192.302C224.338 193.21 223.989 193.942 223.292 194.499C222.577 195.062 221.654 195.343 220.523 195.343C219.738 195.343 219.015 195.252 218.353 195.07C217.696 194.895 217.069 194.625 216.472 194.262ZM225.946 195V186.123H229.075V195H225.946ZM226.342 183.838H226.359C226.359 183.51 226.474 183.24 226.702 183.029C226.931 182.801 227.206 182.687 227.528 182.687C227.868 182.687 228.146 182.795 228.363 183.012C228.586 183.229 228.697 183.504 228.697 183.838C228.697 184.178 228.583 184.459 228.354 184.682C228.132 184.91 227.856 185.024 227.528 185.024C227.194 185.024 226.913 184.904 226.685 184.664C226.456 184.441 226.342 184.166 226.342 183.838ZM238.427 190.57C238.427 189.873 238.248 189.328 237.891 188.936C237.51 188.537 237.006 188.338 236.379 188.338C235.746 188.338 235.248 188.537 234.885 188.936C234.521 189.334 234.34 189.879 234.34 190.57C234.34 191.268 234.521 191.815 234.885 192.214C235.242 192.606 235.74 192.803 236.379 192.803C237.012 192.803 237.516 192.606 237.891 192.214C238.248 191.821 238.427 191.273 238.427 190.57ZM241.204 181.377V195H238.321V193.559C237.923 194.162 237.472 194.607 236.968 194.895C236.499 195.193 235.948 195.343 235.315 195.343C234.073 195.343 233.08 194.909 232.336 194.042C231.598 193.175 231.229 192.018 231.229 190.57C231.229 189.164 231.601 188.019 232.345 187.134C233.083 186.272 234.038 185.842 235.21 185.842C235.96 185.842 236.569 185.979 237.038 186.255C237.489 186.507 237.911 186.955 238.304 187.6C238.28 187.441 238.257 187.201 238.233 186.879C238.21 186.527 238.198 186.24 238.198 186.018V181.377H241.204ZM250.292 190.553C250.292 189.85 250.107 189.305 249.738 188.918C249.363 188.508 248.859 188.303 248.227 188.303C247.594 188.303 247.096 188.502 246.732 188.9C246.357 189.311 246.17 189.861 246.17 190.553C246.17 191.25 246.357 191.798 246.732 192.196C247.09 192.589 247.588 192.785 248.227 192.785C248.859 192.785 249.36 192.589 249.729 192.196C250.104 191.804 250.292 191.256 250.292 190.553ZM253.043 186.123V195H250.169V193.559C249.753 194.174 249.287 194.625 248.771 194.912C248.262 195.199 247.664 195.343 246.979 195.343C245.789 195.343 244.843 194.909 244.14 194.042C243.794 193.614 243.53 193.11 243.349 192.53C243.167 191.95 243.076 191.297 243.076 190.57C243.076 189.117 243.448 187.966 244.192 187.116C244.937 186.267 245.933 185.842 247.181 185.842C247.849 185.842 248.423 185.985 248.903 186.272C249.39 186.548 249.806 186.984 250.151 187.582V186.123H253.043ZM262.192 190.57C262.192 189.873 262.014 189.328 261.656 188.936C261.275 188.537 260.771 188.338 260.145 188.338C259.512 188.338 259.014 188.537 258.65 188.936C258.287 189.334 258.105 189.879 258.105 190.57C258.105 191.268 258.287 191.815 258.65 192.214C259.008 192.606 259.506 192.803 260.145 192.803C260.777 192.803 261.281 192.606 261.656 192.214C262.014 191.821 262.192 191.273 262.192 190.57ZM264.97 181.377V195H262.087V193.559C261.688 194.162 261.237 194.607 260.733 194.895C260.265 195.193 259.714 195.343 259.081 195.343C257.839 195.343 256.846 194.909 256.102 194.042C255.363 193.175 254.994 192.018 254.994 190.57C254.994 189.164 255.366 188.019 256.11 187.134C256.849 186.272 257.804 185.842 258.976 185.842C259.726 185.842 260.335 185.979 260.804 186.255C261.255 186.507 261.677 186.955 262.069 187.6C262.046 187.441 262.022 187.201 261.999 186.879C261.976 186.527 261.964 186.24 261.964 186.018V181.377H264.97ZM273.407 189.419C273.354 188.927 273.164 188.525 272.836 188.215C272.508 187.904 272.106 187.749 271.632 187.749C271.134 187.749 270.729 187.887 270.419 188.162C270.097 188.473 269.895 188.892 269.812 189.419H273.407ZM276.492 191.186H269.742C269.76 191.877 269.933 192.404 270.261 192.768C270.601 193.143 271.093 193.33 271.737 193.33C272.206 193.33 272.607 193.239 272.941 193.058C273.281 192.864 273.527 192.601 273.68 192.267L276.035 193.216C275.76 193.89 275.262 194.411 274.541 194.78C273.826 195.155 272.95 195.343 271.913 195.343C270.366 195.343 269.124 194.909 268.187 194.042C267.255 193.198 266.789 192.07 266.789 190.658C266.789 189.281 267.255 188.13 268.187 187.204C269.118 186.296 270.302 185.842 271.737 185.842C273.202 185.842 274.359 186.302 275.209 187.222C275.643 187.696 275.965 188.25 276.176 188.883C276.387 189.51 276.492 190.228 276.492 191.036V191.186ZM277.468 194.262L278.118 191.871C278.575 192.275 279.079 192.58 279.63 192.785C280.175 193.002 280.726 193.11 281.282 193.11C281.681 193.11 281.979 193.043 282.179 192.908C282.384 192.785 282.486 192.606 282.486 192.372C282.486 191.979 282.073 191.687 281.247 191.493C280.96 191.429 280.743 191.373 280.597 191.326C279.642 191.045 278.965 190.702 278.566 190.298C278.133 189.882 277.916 189.343 277.916 188.681C277.916 187.825 278.241 187.137 278.892 186.615C279.519 186.1 280.395 185.842 281.52 185.842C282.064 185.842 282.645 185.906 283.26 186.035C283.775 186.141 284.376 186.346 285.062 186.65L284.411 188.804C283.989 188.517 283.564 188.303 283.137 188.162C282.732 188.016 282.308 187.942 281.862 187.942C281.499 187.942 281.227 187.998 281.045 188.109C280.869 188.215 280.781 188.376 280.781 188.593C280.781 188.897 281.194 189.161 282.021 189.384C282.29 189.466 282.428 189.507 282.434 189.507C283.512 189.812 284.268 190.172 284.701 190.588C285.123 191.027 285.334 191.599 285.334 192.302C285.334 193.21 284.985 193.942 284.288 194.499C283.573 195.062 282.65 195.343 281.52 195.343C280.734 195.343 280.011 195.252 279.349 195.07C278.692 194.895 278.065 194.625 277.468 194.262ZM299.44 190.57C299.44 189.873 299.262 189.328 298.904 188.936C298.523 188.537 298.02 188.338 297.393 188.338C296.76 188.338 296.262 188.537 295.898 188.936C295.535 189.334 295.354 189.879 295.354 190.57C295.354 191.268 295.535 191.815 295.898 192.214C296.256 192.606 296.754 192.803 297.393 192.803C298.025 192.803 298.529 192.606 298.904 192.214C299.262 191.821 299.44 191.273 299.44 190.57ZM302.218 181.377V195H299.335V193.559C298.937 194.162 298.485 194.607 297.981 194.895C297.513 195.193 296.962 195.343 296.329 195.343C295.087 195.343 294.094 194.909 293.35 194.042C292.611 193.175 292.242 192.018 292.242 190.57C292.242 189.164 292.614 188.019 293.358 187.134C294.097 186.272 295.052 185.842 296.224 185.842C296.974 185.842 297.583 185.979 298.052 186.255C298.503 186.507 298.925 186.955 299.317 187.6C299.294 187.441 299.271 187.201 299.247 186.879C299.224 186.527 299.212 186.24 299.212 186.018V181.377H302.218ZM310.655 189.419C310.603 188.927 310.412 188.525 310.084 188.215C309.756 187.904 309.354 187.749 308.88 187.749C308.382 187.749 307.978 187.887 307.667 188.162C307.345 188.473 307.143 188.892 307.061 189.419H310.655ZM313.74 191.186H306.99C307.008 191.877 307.181 192.404 307.509 192.768C307.849 193.143 308.341 193.33 308.985 193.33C309.454 193.33 309.855 193.239 310.189 193.058C310.529 192.864 310.775 192.601 310.928 192.267L313.283 193.216C313.008 193.89 312.51 194.411 311.789 194.78C311.074 195.155 310.198 195.343 309.161 195.343C307.614 195.343 306.372 194.909 305.435 194.042C304.503 193.198 304.037 192.07 304.037 190.658C304.037 189.281 304.503 188.13 305.435 187.204C306.366 186.296 307.55 185.842 308.985 185.842C310.45 185.842 311.607 186.302 312.457 187.222C312.891 187.696 313.213 188.25 313.424 188.883C313.635 189.51 313.74 190.228 313.74 191.036V191.186ZM321.686 195L321.668 188.338H320.341V186.123H321.668V183.478H324.771V186.123H326.08V188.338H324.771V195H321.686ZM336.653 186.123V190.658C336.653 191.672 336.577 192.41 336.425 192.873C336.261 193.354 335.985 193.787 335.599 194.174C335.229 194.561 334.743 194.854 334.14 195.053C333.565 195.246 332.874 195.343 332.065 195.343C331.263 195.343 330.58 195.246 330.018 195.053C329.438 194.865 328.939 194.572 328.523 194.174C328.143 193.811 327.873 193.383 327.715 192.891C327.557 192.434 327.478 191.689 327.478 190.658V186.123H330.466V190.86C330.466 191.604 330.592 192.138 330.844 192.46C331.072 192.8 331.468 192.97 332.03 192.97C332.587 192.97 332.985 192.806 333.226 192.478C333.472 192.149 333.595 191.61 333.595 190.86V186.123H336.653ZM49.5234 209.041C49.2188 208.771 48.9258 208.575 48.6445 208.452C48.3926 208.329 48.0967 208.268 47.7568 208.268C47.1299 208.268 46.6377 208.473 46.2803 208.883C45.9111 209.287 45.7266 209.844 45.7266 210.553C45.7266 211.232 45.917 211.771 46.2979 212.17C46.667 212.58 47.1797 212.785 47.8359 212.785C48.1465 212.785 48.4453 212.721 48.7324 212.592C49.0371 212.445 49.3008 212.252 49.5234 212.012V214.728C49.1484 214.927 48.7705 215.085 48.3896 215.202C47.9854 215.296 47.6016 215.343 47.2383 215.343C45.8672 215.343 44.7627 214.903 43.9248 214.024C43.6377 213.731 43.4004 213.409 43.2129 213.058C43.0312 212.706 42.8906 212.325 42.791 211.915C42.6973 211.505 42.6504 211.057 42.6504 210.57C42.6504 209.17 43.0781 208.033 43.9336 207.16C44.7949 206.281 45.9082 205.842 47.2734 205.842C47.7012 205.842 48.1084 205.889 48.4951 205.982C48.8701 206.076 49.2129 206.214 49.5234 206.396V209.041ZM58.2158 210.553C58.2158 209.85 58.0312 209.305 57.6621 208.918C57.2871 208.508 56.7832 208.303 56.1504 208.303C55.5176 208.303 55.0195 208.502 54.6562 208.9C54.2812 209.311 54.0938 209.861 54.0938 210.553C54.0938 211.25 54.2812 211.798 54.6562 212.196C55.0137 212.589 55.5117 212.785 56.1504 212.785C56.7832 212.785 57.2842 212.589 57.6533 212.196C58.0283 211.804 58.2158 211.256 58.2158 210.553ZM60.9668 206.123V215H58.0928V213.559C57.6768 214.174 57.2109 214.625 56.6953 214.912C56.1855 215.199 55.5879 215.343 54.9023 215.343C53.7129 215.343 52.7666 214.909 52.0635 214.042C51.7178 213.614 51.4541 213.11 51.2725 212.53C51.0908 211.95 51 211.297 51 210.57C51 209.117 51.3721 207.966 52.1162 207.116C52.8604 206.267 53.8564 205.842 55.1045 205.842C55.7725 205.842 56.3467 205.985 56.8271 206.272C57.3135 206.548 57.7295 206.984 58.0752 207.582V206.123H60.9668ZM66.126 210.588C66.126 211.279 66.3105 211.827 66.6797 212.231C67.0195 212.624 67.5117 212.82 68.1562 212.82C68.7949 212.82 69.293 212.624 69.6504 212.231C70.0078 211.821 70.1865 211.273 70.1865 210.588C70.1865 209.891 70.0078 209.346 69.6504 208.953C69.2871 208.555 68.7891 208.355 68.1562 208.355C67.5176 208.355 67.0254 208.555 66.6797 208.953C66.3105 209.34 66.126 209.885 66.126 210.588ZM63.3486 218.92V206.141H66.2314V207.617C66.6123 207.049 67.0605 206.606 67.5762 206.29C68.0625 206.003 68.6162 205.859 69.2373 205.859C69.8643 205.859 70.4268 205.965 70.9248 206.176C71.4229 206.381 71.8564 206.694 72.2256 207.116C72.958 207.954 73.3242 209.111 73.3242 210.588C73.3242 212.006 72.958 213.151 72.2256 214.024C71.8506 214.47 71.4258 214.801 70.9512 215.018C70.4824 215.234 69.9463 215.343 69.3428 215.343C68.5869 215.343 67.9746 215.205 67.5059 214.93C67.0547 214.666 66.6357 214.209 66.249 213.559C66.2783 213.699 66.3018 213.916 66.3193 214.209C66.3311 214.379 66.3369 214.689 66.3369 215.141V218.92H63.3486ZM75.1436 215V206.123H78.2725V215H75.1436ZM75.5391 203.838H75.5566C75.5566 203.51 75.6709 203.24 75.8994 203.029C76.1279 202.801 76.4033 202.687 76.7256 202.687C77.0654 202.687 77.3438 202.795 77.5605 203.012C77.7832 203.229 77.8945 203.504 77.8945 203.838C77.8945 204.178 77.7803 204.459 77.5518 204.682C77.3291 204.91 77.0537 205.024 76.7256 205.024C76.3916 205.024 76.1104 204.904 75.8818 204.664C75.6533 204.441 75.5391 204.166 75.5391 203.838ZM81.3398 215L81.3223 208.338H79.9951V206.123H81.3223V203.478H84.4248V206.123H85.7344V208.338H84.4248V215H81.3398ZM93.9697 210.553C93.9697 209.85 93.7852 209.305 93.416 208.918C93.041 208.508 92.5371 208.303 91.9043 208.303C91.2715 208.303 90.7734 208.502 90.4102 208.9C90.0352 209.311 89.8477 209.861 89.8477 210.553C89.8477 211.25 90.0352 211.798 90.4102 212.196C90.7676 212.589 91.2656 212.785 91.9043 212.785C92.5371 212.785 93.0381 212.589 93.4072 212.196C93.7822 211.804 93.9697 211.256 93.9697 210.553ZM96.7207 206.123V215H93.8467V213.559C93.4307 214.174 92.9648 214.625 92.4492 214.912C91.9395 215.199 91.3418 215.343 90.6562 215.343C89.4668 215.343 88.5205 214.909 87.8174 214.042C87.4717 213.614 87.208 213.11 87.0264 212.53C86.8447 211.95 86.7539 211.297 86.7539 210.57C86.7539 209.117 87.126 207.966 87.8701 207.116C88.6143 206.267 89.6104 205.842 90.8584 205.842C91.5264 205.842 92.1006 205.985 92.5811 206.272C93.0674 206.548 93.4834 206.984 93.8291 207.582V206.123H96.7207ZM99.1729 215V201.377H102.311V215H99.1729ZM117.138 210.57C117.138 209.873 116.959 209.328 116.602 208.936C116.221 208.537 115.717 208.338 115.09 208.338C114.457 208.338 113.959 208.537 113.596 208.936C113.232 209.334 113.051 209.879 113.051 210.57C113.051 211.268 113.232 211.815 113.596 212.214C113.953 212.606 114.451 212.803 115.09 212.803C115.723 212.803 116.227 212.606 116.602 212.214C116.959 211.821 117.138 211.273 117.138 210.57ZM119.915 201.377V215H117.032V213.559C116.634 214.162 116.183 214.607 115.679 214.895C115.21 215.193 114.659 215.343 114.026 215.343C112.784 215.343 111.791 214.909 111.047 214.042C110.309 213.175 109.939 212.018 109.939 210.57C109.939 209.164 110.312 208.019 111.056 207.134C111.794 206.272 112.749 205.842 113.921 205.842C114.671 205.842 115.28 205.979 115.749 206.255C116.2 206.507 116.622 206.955 117.015 207.6C116.991 207.441 116.968 207.201 116.944 206.879C116.921 206.527 116.909 206.24 116.909 206.018V201.377H119.915ZM128.353 209.419C128.3 208.927 128.109 208.525 127.781 208.215C127.453 207.904 127.052 207.749 126.577 207.749C126.079 207.749 125.675 207.887 125.364 208.162C125.042 208.473 124.84 208.892 124.758 209.419H128.353ZM131.438 211.186H124.688C124.705 211.877 124.878 212.404 125.206 212.768C125.546 213.143 126.038 213.33 126.683 213.33C127.151 213.33 127.553 213.239 127.887 213.058C128.227 212.864 128.473 212.601 128.625 212.267L130.98 213.216C130.705 213.89 130.207 214.411 129.486 214.78C128.771 215.155 127.896 215.343 126.858 215.343C125.312 215.343 124.069 214.909 123.132 214.042C122.2 213.198 121.734 212.07 121.734 210.658C121.734 209.281 122.2 208.13 123.132 207.204C124.063 206.296 125.247 205.842 126.683 205.842C128.147 205.842 129.305 206.302 130.154 207.222C130.588 207.696 130.91 208.25 131.121 208.883C131.332 209.51 131.438 210.228 131.438 211.036V211.186ZM139.383 215L139.365 208.338H138.038V206.123H139.365V203.478H142.468V206.123H143.777V208.338H142.468V215H139.383ZM145.263 215V206.123H148.216V208.215C148.526 207.447 148.939 206.876 149.455 206.501C149.988 206.12 150.63 205.93 151.38 205.93C151.55 205.93 151.676 205.936 151.758 205.947C151.822 205.953 151.881 205.959 151.934 205.965C151.986 205.965 152.054 205.971 152.136 205.982L151.837 208.83C151.62 208.76 151.433 208.71 151.274 208.681C151.04 208.657 150.867 208.646 150.756 208.646C149.994 208.646 149.405 208.88 148.989 209.349C148.579 209.812 148.374 210.471 148.374 211.326V215H145.263ZM160.063 210.553C160.063 209.85 159.879 209.305 159.51 208.918C159.135 208.508 158.631 208.303 157.998 208.303C157.365 208.303 156.867 208.502 156.504 208.9C156.129 209.311 155.941 209.861 155.941 210.553C155.941 211.25 156.129 211.798 156.504 212.196C156.861 212.589 157.359 212.785 157.998 212.785C158.631 212.785 159.132 212.589 159.501 212.196C159.876 211.804 160.063 211.256 160.063 210.553ZM162.814 206.123V215H159.94V213.559C159.524 214.174 159.059 214.625 158.543 214.912C158.033 215.199 157.436 215.343 156.75 215.343C155.561 215.343 154.614 214.909 153.911 214.042C153.565 213.614 153.302 213.11 153.12 212.53C152.938 211.95 152.848 211.297 152.848 210.57C152.848 209.117 153.22 207.966 153.964 207.116C154.708 206.267 155.704 205.842 156.952 205.842C157.62 205.842 158.194 205.985 158.675 206.272C159.161 206.548 159.577 206.984 159.923 207.582V206.123H162.814ZM167.974 210.57C167.974 211.279 168.158 211.827 168.527 212.214C168.867 212.606 169.359 212.803 170.004 212.803C170.643 212.803 171.141 212.606 171.498 212.214C171.855 211.821 172.034 211.273 172.034 210.57C172.034 209.873 171.855 209.328 171.498 208.936C171.135 208.537 170.637 208.338 170.004 208.338C169.365 208.338 168.873 208.537 168.527 208.936C168.158 209.322 167.974 209.867 167.974 210.57ZM165.196 201.377H168.185V206.018C168.185 206.475 168.179 206.788 168.167 206.958C168.144 207.257 168.12 207.471 168.097 207.6C168.466 206.961 168.885 206.513 169.354 206.255C169.822 205.979 170.435 205.842 171.19 205.842C172.374 205.842 173.335 206.272 174.073 207.134C174.806 208.007 175.172 209.152 175.172 210.57C175.172 212.029 174.806 213.187 174.073 214.042C173.335 214.909 172.339 215.343 171.085 215.343C170.458 215.343 169.904 215.193 169.424 214.895C168.926 214.607 168.478 214.162 168.079 213.559V215H165.196V201.377ZM183.829 210.553C183.829 209.85 183.645 209.305 183.275 208.918C182.9 208.508 182.396 208.303 181.764 208.303C181.131 208.303 180.633 208.502 180.27 208.9C179.895 209.311 179.707 209.861 179.707 210.553C179.707 211.25 179.895 211.798 180.27 212.196C180.627 212.589 181.125 212.785 181.764 212.785C182.396 212.785 182.897 212.589 183.267 212.196C183.642 211.804 183.829 211.256 183.829 210.553ZM186.58 206.123V215H183.706V213.559C183.29 214.174 182.824 214.625 182.309 214.912C181.799 215.199 181.201 215.343 180.516 215.343C179.326 215.343 178.38 214.909 177.677 214.042C177.331 213.614 177.067 213.11 176.886 212.53C176.704 211.95 176.613 211.297 176.613 210.57C176.613 209.117 176.985 207.966 177.729 207.116C178.474 206.267 179.47 205.842 180.718 205.842C181.386 205.842 181.96 205.985 182.44 206.272C182.927 206.548 183.343 206.984 183.688 207.582V206.123H186.58ZM188.874 203.354C188.874 202.868 189.041 202.467 189.375 202.15C189.715 201.811 190.122 201.641 190.597 201.641C191.083 201.641 191.499 201.805 191.845 202.133C192.167 202.455 192.328 202.862 192.328 203.354C192.328 203.847 192.158 204.263 191.818 204.603C191.484 204.937 191.077 205.104 190.597 205.104C190.134 205.104 189.727 204.928 189.375 204.576C189.041 204.242 188.874 203.835 188.874 203.354ZM189.032 218.92V206.123H192.17V218.92H189.032ZM200.871 210.588C200.871 209.926 200.704 209.404 200.37 209.023C200.024 208.643 199.573 208.452 199.017 208.452C198.442 208.452 197.991 208.643 197.663 209.023C197.329 209.393 197.162 209.914 197.162 210.588C197.162 211.244 197.323 211.76 197.646 212.135C197.997 212.521 198.454 212.715 199.017 212.715C199.579 212.715 200.036 212.521 200.388 212.135C200.71 211.748 200.871 211.232 200.871 210.588ZM203.982 210.588C203.982 211.238 203.856 211.845 203.604 212.407C203.341 213.005 202.98 213.521 202.523 213.954C202.008 214.435 201.475 214.783 200.924 215C200.35 215.229 199.714 215.343 199.017 215.343C198.313 215.343 197.678 215.229 197.109 215C196.529 214.771 195.993 214.426 195.501 213.963C195.015 213.494 194.663 212.976 194.446 212.407C194.194 211.862 194.068 211.256 194.068 210.588C194.068 209.938 194.194 209.325 194.446 208.751C194.681 208.171 195.035 207.655 195.51 207.204C195.973 206.759 196.506 206.416 197.109 206.176C197.684 205.953 198.319 205.842 199.017 205.842C199.708 205.842 200.344 205.953 200.924 206.176C201.527 206.416 202.061 206.759 202.523 207.204C203.01 207.644 203.37 208.159 203.604 208.751C203.856 209.325 203.982 209.938 203.982 210.588Z" fill="white"/>
<path d="M31.6562 37V2.6875H52.6797V10.2109H40.7734V16.1641H52V23.5234H40.7734V29.3125H52.6797V37H31.6562ZM58.8906 37V2.6875H68.2422V28.9844H79.8672V37H58.8906ZM99.4844 37V2.6875H109.258C111.148 2.6875 112.742 2.72656 114.039 2.80469C115.352 2.88281 116.43 3.01562 117.273 3.20312C118.727 3.54688 120.023 4.14062 121.164 4.98438C122.414 5.92188 123.359 7.125 124 8.59375C124.672 10 125.008 11.5938 125.008 13.375C125.008 16.0156 124.352 18.1797 123.039 19.8672C121.758 21.5547 119.859 22.6562 117.344 23.1719L126.695 37H116.125L108.25 23.5703V37H99.4844ZM108.25 18.9062H109.984C112.031 18.9062 113.508 18.5703 114.414 17.8984C115.336 17.1484 115.797 16.0625 115.797 14.6406C115.797 12.9219 115.367 11.7031 114.508 10.9844C113.633 10.25 112.172 9.88281 110.125 9.88281H108.25V18.9062ZM130.281 37V2.6875H151.305V10.2109H139.398V16.1641H150.625V23.5234H139.398V29.3125H151.305V37H130.281ZM159.039 25.9141C160.477 27.5078 161.852 28.6875 163.164 29.4531C164.539 30.2344 165.883 30.625 167.195 30.625C168.43 30.625 169.453 30.2891 170.266 29.6172C171.078 28.9453 171.484 28.0938 171.484 27.0625C171.484 25.9375 171.148 25.0547 170.477 24.4141C169.758 23.8047 168.172 23.1719 165.719 22.5156C162.375 21.6094 160.008 20.4375 158.617 19C157.211 17.5312 156.508 15.5312 156.508 13C156.508 9.71875 157.609 7.04688 159.812 4.98438C161.984 2.90625 164.828 1.86719 168.344 1.86719C170.328 1.86719 172.125 2.125 173.734 2.64062C175.422 3.15625 177.023 3.92188 178.539 4.9375L175.609 11.6641C174.578 10.7734 173.484 10.0859 172.328 9.60156C171.203 9.14844 170.102 8.92188 169.023 8.92188C167.93 8.92188 167.016 9.19531 166.281 9.74219C165.578 10.2578 165.227 10.9453 165.227 11.8047C165.227 12.6328 165.531 13.3203 166.141 13.8672C166.781 14.3828 167.984 14.875 169.75 15.3438C169.812 15.3594 169.867 15.375 169.914 15.3906C169.961 15.3906 170.031 15.4062 170.125 15.4375C173.938 16.4531 176.453 17.5938 177.672 18.8594C178.469 19.6562 179.094 20.6641 179.547 21.8828C179.953 23.0391 180.156 24.3516 180.156 25.8203C180.156 29.4453 178.961 32.375 176.57 34.6094C174.164 36.8125 170.977 37.9141 167.008 37.9141C164.57 37.9141 162.391 37.5156 160.469 36.7188C158.562 35.9219 156.68 34.6406 154.82 32.875L159.039 25.9141ZM194.172 37H185.406V2.6875H195.18C198.977 2.6875 201.672 2.875 203.266 3.25C204.828 3.65625 206.133 4.29688 207.18 5.17188C208.43 6.21875 209.391 7.51562 210.062 9.0625C210.734 10.6406 211.07 12.3984 211.07 14.3359C211.07 16.3984 210.734 18.1953 210.062 19.7266C209.469 21.2734 208.508 22.5547 207.18 23.5703C206.227 24.3203 205.078 24.8594 203.734 25.1875C202.531 25.5156 200.438 25.6797 197.453 25.6797H195.859H194.172V37ZM194.172 18.1328H195.953C198.172 18.1328 199.742 17.8125 200.664 17.1719C201.555 16.5781 202 15.5391 202 14.0547C202 12.6328 201.562 11.6172 200.688 11.0078C199.828 10.3828 198.281 10.0703 196.047 10.0703H194.172V18.1328ZM224.898 24.1797H234.203L230.711 12.8594C230.633 12.6562 230.484 12.0937 230.266 11.1719C230 10.0938 229.758 9.11719 229.539 8.24219C229.32 9.03906 229.133 9.84375 228.977 10.6562C228.727 11.4375 228.516 12.1719 228.344 12.8594L224.898 24.1797ZM211.797 37L223.633 2.6875H235.352L247.211 37H237.906L236.172 30.8594H222.883L221.102 37H211.797ZM250.516 37V2.6875H259.867V28.9844H271.492V37H250.516ZM276.062 37V2.6875H283.211C288.617 2.6875 292.391 2.9375 294.531 3.4375C296.75 3.9375 298.688 4.77344 300.344 5.94531C302.531 7.44531 304.18 9.38281 305.289 11.7578C306.414 14.1484 306.977 16.8516 306.977 19.8672C306.977 22.8828 306.414 25.5859 305.289 27.9766C304.18 30.3203 302.531 32.2578 300.344 33.7891C298.625 34.9609 296.734 35.7734 294.672 36.2266C292.609 36.7422 289.312 37 284.781 37H283.211H276.062ZM285.32 29.3125H286.891C290.578 29.3125 293.258 28.5469 294.93 27.0156C296.617 25.5156 297.461 23.1328 297.461 19.8672C297.461 16.6172 296.617 14.2188 294.93 12.6719C293.242 11.125 290.562 10.3516 286.891 10.3516H285.32V29.3125ZM348.086 19.9141C348.086 22.3984 347.641 24.7188 346.75 26.875C345.859 28.9844 344.531 30.9062 342.766 32.6406C341.016 34.3281 339.016 35.625 336.766 36.5312C334.406 37.4531 332.07 37.9141 329.758 37.9141C327.414 37.9141 325.078 37.4531 322.75 36.5312C320.453 35.6094 318.469 34.3125 316.797 32.6406C315.109 31.0312 313.781 29.0938 312.812 26.8281C311.875 24.6094 311.406 22.3047 311.406 19.9141C311.406 17.5234 311.875 15.2188 312.812 13C313.781 10.7344 315.109 8.79688 316.797 7.1875C318.516 5.46875 320.5 4.15625 322.75 3.25C324.938 2.35938 327.273 1.91406 329.758 1.91406C332.242 1.91406 334.594 2.36719 336.812 3.27344C339.031 4.16406 341.008 5.46875 342.742 7.1875C344.492 8.90625 345.828 10.8438 346.75 13C347.641 15.1562 348.086 17.4609 348.086 19.9141ZM329.758 29.9922C332.336 29.9922 334.492 29.0312 336.227 27.1094C337.086 26.1562 337.719 25.0859 338.125 23.8984C338.531 22.7109 338.734 21.3828 338.734 19.9141C338.734 17.0547 337.883 14.6562 336.18 12.7188C334.445 10.7969 332.305 9.83594 329.758 9.83594C327.148 9.83594 325 10.7969 323.312 12.7188C321.625 14.6406 320.781 17.0391 320.781 19.9141C320.781 22.8984 321.609 25.3125 323.266 27.1562C324.969 29.0469 327.133 29.9922 329.758 29.9922ZM391.562 23.3125L393.344 25.6797C393.875 24.9297 394.258 24.0625 394.492 23.0781C394.758 22.0469 394.891 21.0703 394.891 20.1484C394.891 17.1484 394.055 14.6719 392.383 12.7188C390.664 10.7656 388.508 9.78906 385.914 9.78906C383.367 9.78906 381.234 10.7656 379.516 12.7188C377.797 14.625 376.938 17.0234 376.938 19.9141C376.938 22.8516 377.781 25.2812 379.469 27.2031C381.203 29.125 383.367 30.0859 385.961 30.0859C386.273 30.0859 386.656 30.0391 387.109 29.9453C387.453 29.8984 387.852 29.7734 388.305 29.5703L383.453 23.3125H391.562ZM404.969 41.0312H397L393.344 36.2266C392.422 36.7266 391.32 37.125 390.039 37.4219C388.789 37.6875 387.461 37.8203 386.055 37.8203C384.008 37.8203 382.133 37.5625 380.43 37.0469C378.664 36.5312 377 35.7656 375.438 34.75C373 33.1094 371.078 30.9609 369.672 28.3047C368.266 25.6328 367.562 22.8203 367.562 19.8672C367.562 17.4766 368.031 15.1797 368.969 12.9766C369.906 10.7578 371.234 8.8125 372.953 7.14062C374.641 5.46875 376.602 4.17187 378.836 3.25C381.055 2.35938 383.414 1.91406 385.914 1.91406C388.398 1.91406 390.75 2.35938 392.969 3.25C395.188 4.17187 397.156 5.46875 398.875 7.14062C400.625 8.875 401.945 10.8125 402.836 12.9531C403.773 15.1719 404.242 17.4766 404.242 19.8672C404.242 22.3672 403.773 24.75 402.836 27.0156C401.914 29.1562 400.539 31.0625 398.711 32.7344L404.969 41.0312ZM409.867 2.6875H419.242V19.375C419.242 21.9219 419.305 23.6875 419.43 24.6719C419.586 25.8438 419.797 26.7344 420.062 27.3438C420.391 28.2344 421.008 28.8906 421.914 29.3125C422.82 29.7969 423.914 30.0391 425.195 30.0391C426.461 30.0391 427.547 29.7969 428.453 29.3125C429.281 28.9062 429.906 28.25 430.328 27.3438C430.578 26.7188 430.781 25.8281 430.938 24.6719C431.078 23.7344 431.148 21.9688 431.148 19.375V17.0312V2.6875H440.453V20.8281C440.453 24.5469 440.227 27.3125 439.773 29.125C439.352 30.9219 438.586 32.4609 437.477 33.7422C436.258 35.1641 434.641 36.2031 432.625 36.8594C430.625 37.5625 428.148 37.9141 425.195 37.9141C422.18 37.9141 419.695 37.5625 417.742 36.8594C415.758 36.2031 414.141 35.1641 412.891 33.7422C411.812 32.4922 411.047 30.9531 410.594 29.125C410.109 27.2812 409.867 24.5156 409.867 20.8281V17.2656V2.6875ZM447.578 37V2.6875H468.602V10.2109H456.695V16.1641H467.922V23.5234H456.695V29.3125H468.602V37H447.578ZM31.6562 85V50.6875H41.0078V76.9844H52.6328V85H31.6562ZM57.2031 85V50.6875H78.2266V58.2109H66.3203V64.1641H77.5469V71.5234H66.3203V77.3125H78.2266V85H57.2031ZM99.4844 85V50.6875H108.836V64.0234H121.305V50.6875H130.68V85H121.305V71.0312H108.836V85H99.4844ZM147.039 72.1797H156.344L152.852 60.8594C152.773 60.6562 152.625 60.0938 152.406 59.1719C152.141 58.0938 151.898 57.1172 151.68 56.2422C151.461 57.0391 151.273 57.8438 151.117 58.6562C150.867 59.4375 150.656 60.1719 150.484 60.8594L147.039 72.1797ZM133.938 85L145.773 50.6875H157.492L169.352 85H160.047L158.312 78.8594H145.023L143.242 85H133.938ZM197.523 52.0234V62.2422C196.18 60.7891 194.914 59.7344 193.727 59.0781C192.398 58.4375 191.023 58.1172 189.602 58.1172C186.93 58.1172 184.75 59.0312 183.062 60.8594C182.484 61.5156 182.016 62.2031 181.656 62.9219C181.297 63.625 181.023 64.4297 180.836 65.3359C180.664 66.2266 180.578 67.1328 180.578 68.0547C180.578 70.8047 181.422 73.0938 183.109 74.9219C184.812 76.7188 186.977 77.6172 189.602 77.6172C191.008 77.6172 192.383 77.2812 193.727 76.6094C194.914 76 196.18 74.9531 197.523 73.4688V83.7109C195.789 84.5234 194.312 85.0625 193.094 85.3281C191.578 85.6875 190.094 85.8672 188.641 85.8672C186.797 85.8672 185.062 85.6406 183.438 85.1875C181.812 84.75 180.359 84.0781 179.078 83.1719C176.516 81.4219 174.562 79.2656 173.219 76.7031C171.875 74.0469 171.203 71.1016 171.203 67.8672C171.203 65.2734 171.641 62.8906 172.516 60.7188C172.906 59.6719 173.398 58.6875 173.992 57.7656C174.602 56.8281 175.383 55.8594 176.336 54.8594C177.977 53.1719 179.82 51.9219 181.867 51.1094C183.898 50.2812 186.156 49.8672 188.641 49.8672C190.062 49.8672 191.547 50.0391 193.094 50.3828C194.625 50.7891 196.102 51.3359 197.523 52.0234ZM203.031 85V50.6875H212.477V85H203.031ZM213.016 41.5234L207.25 48.0391H204.367L207.789 41.5234H213.016ZM229.117 72.1797H238.422L234.93 60.8594C234.852 60.6562 234.703 60.0938 234.484 59.1719C234.219 58.0938 233.977 57.1172 233.758 56.2422C233.539 57.0391 233.352 57.8438 233.195 58.6562C232.945 59.4375 232.734 60.1719 232.562 60.8594L229.117 72.1797ZM216.016 85L227.852 50.6875H239.57L251.43 85H242.125L240.391 78.8594H227.102L225.32 85H216.016ZM269.781 85V50.6875H290.805V58.2109H278.898V64.1641H290.125V71.5234H278.898V85H269.781ZM304.961 72.1797H314.266L310.773 60.8594C310.695 60.6562 310.547 60.0938 310.328 59.1719C310.062 58.0938 309.82 57.1172 309.602 56.2422C309.383 57.0391 309.195 57.8438 309.039 58.6562C308.789 59.4375 308.578 60.1719 308.406 60.8594L304.961 72.1797ZM291.859 85L303.695 50.6875H315.414L327.273 85H317.969L316.234 78.8594H302.945L301.164 85H291.859ZM330.578 85V50.6875H339.93V76.9844H351.555V85H330.578ZM361.07 85V58.7969H353.383V50.6875H378.109V58.7969H370.422V85H361.07ZM391.773 72.1797H401.078L397.586 60.8594C397.508 60.6562 397.359 60.0938 397.141 59.1719C396.875 58.0938 396.633 57.1172 396.414 56.2422C396.195 57.0391 396.008 57.8438 395.852 58.6562C395.602 59.4375 395.391 60.1719 395.219 60.8594L391.773 72.1797ZM378.672 85L390.508 50.6875H402.227L414.086 85H404.781L403.047 78.8594H389.758L387.977 85H378.672ZM40.7266 120.18H50.0312L46.5391 108.859C46.4609 108.656 46.3125 108.094 46.0938 107.172C45.8281 106.094 45.5859 105.117 45.3672 104.242C45.1484 105.039 44.9609 105.844 44.8047 106.656C44.5547 107.438 44.3438 108.172 44.1719 108.859L40.7266 120.18ZM27.625 133L39.4609 98.6875H51.1797L63.0391 133H53.7344L52 126.859H38.7109L36.9297 133H27.625ZM86.3359 133V106.797H78.6484V98.6875H103.375V106.797H95.6875V133H86.3359ZM107.711 98.6875H117.086V115.375C117.086 117.922 117.148 119.688 117.273 120.672C117.43 121.844 117.641 122.734 117.906 123.344C118.234 124.234 118.852 124.891 119.758 125.312C120.664 125.797 121.758 126.039 123.039 126.039C124.305 126.039 125.391 125.797 126.297 125.312C127.125 124.906 127.75 124.25 128.172 123.344C128.422 122.719 128.625 121.828 128.781 120.672C128.922 119.734 128.992 117.969 128.992 115.375V113.031V98.6875H138.297V116.828C138.297 120.547 138.07 123.312 137.617 125.125C137.195 126.922 136.43 128.461 135.32 129.742C134.102 131.164 132.484 132.203 130.469 132.859C128.469 133.562 125.992 133.914 123.039 133.914C120.023 133.914 117.539 133.562 115.586 132.859C113.602 132.203 111.984 131.164 110.734 129.742C109.656 128.492 108.891 126.953 108.438 125.125C107.953 123.281 107.711 120.516 107.711 116.828V113.266V98.6875ZM160.469 133V98.6875H169.492L182.453 116.336C182.781 116.82 183.195 117.547 183.695 118.516C184.336 119.766 184.961 121.055 185.57 122.383C185.336 120.586 185.203 119.328 185.172 118.609C185.078 117.484 185.031 116.492 185.031 115.633V98.6875H194.008V133H185.031L172.07 115.281C171.883 115.031 171.469 114.297 170.828 113.078C170.266 112.078 169.641 110.812 168.953 109.281C169.109 110.5 169.258 111.766 169.398 113.078C169.461 114.547 169.492 115.539 169.492 116.055V133H160.469ZM201.391 133V98.6875H222.414V106.211H210.508V112.164H221.734V119.523H210.508V125.312H222.414V133H201.391ZM244.938 120.367V113.172H263.312C263.312 113.5 263.328 113.758 263.359 113.945V115.188C263.359 121.109 261.812 125.688 258.719 128.922C255.594 132.188 251.195 133.82 245.523 133.82C242.82 133.82 240.352 133.406 238.117 132.578C235.961 131.75 234.023 130.469 232.305 128.734C230.664 127.062 229.406 125.125 228.531 122.922C228.062 121.75 227.719 120.578 227.5 119.406C227.281 118.219 227.172 117.039 227.172 115.867C227.172 113.336 227.609 110.984 228.484 108.812C229.359 106.703 230.664 104.766 232.398 103C234.055 101.344 236.023 100.078 238.305 99.2031C240.555 98.3438 242.961 97.9141 245.523 97.9141C248.867 97.9141 251.836 98.5859 254.43 99.9297C255.258 100.336 256.07 100.844 256.867 101.453C257.68 102.047 258.422 102.711 259.094 103.445C259.781 104.18 260.406 104.977 260.969 105.836L252.859 109.727C251.891 108.398 250.805 107.406 249.602 106.75C248.367 106.109 247.008 105.789 245.523 105.789C242.711 105.789 240.516 106.719 238.938 108.578C237.344 110.422 236.547 112.977 236.547 116.242C236.547 119.523 237.344 122.102 238.938 123.977C240.516 125.836 242.711 126.766 245.523 126.766C247.914 126.766 249.891 126.172 251.453 124.984C253.078 123.812 254.008 122.273 254.242 120.367H244.938ZM304.305 115.914C304.305 118.398 303.859 120.719 302.969 122.875C302.078 124.984 300.75 126.906 298.984 128.641C297.234 130.328 295.234 131.625 292.984 132.531C290.625 133.453 288.289 133.914 285.977 133.914C283.633 133.914 281.297 133.453 278.969 132.531C276.672 131.609 274.688 130.312 273.016 128.641C271.328 127.031 270 125.094 269.031 122.828C268.094 120.609 267.625 118.305 267.625 115.914C267.625 113.523 268.094 111.219 269.031 109C270 106.734 271.328 104.797 273.016 103.188C274.734 101.469 276.719 100.156 278.969 99.25C281.156 98.3594 283.492 97.9141 285.977 97.9141C288.461 97.9141 290.812 98.3672 293.031 99.2734C295.25 100.164 297.227 101.469 298.961 103.188C300.711 104.906 302.047 106.844 302.969 109C303.859 111.156 304.305 113.461 304.305 115.914ZM285.977 125.992C288.555 125.992 290.711 125.031 292.445 123.109C293.305 122.156 293.938 121.086 294.344 119.898C294.75 118.711 294.953 117.383 294.953 115.914C294.953 113.055 294.102 110.656 292.398 108.719C290.664 106.797 288.523 105.836 285.977 105.836C283.367 105.836 281.219 106.797 279.531 108.719C277.844 110.641 277 113.039 277 115.914C277 118.898 277.828 121.312 279.484 123.156C281.188 125.047 283.352 125.992 285.977 125.992ZM335.055 100.023V110.242C333.711 108.789 332.445 107.734 331.258 107.078C329.93 106.438 328.555 106.117 327.133 106.117C324.461 106.117 322.281 107.031 320.594 108.859C320.016 109.516 319.547 110.203 319.188 110.922C318.828 111.625 318.555 112.43 318.367 113.336C318.195 114.227 318.109 115.133 318.109 116.055C318.109 118.805 318.953 121.094 320.641 122.922C322.344 124.719 324.508 125.617 327.133 125.617C328.539 125.617 329.914 125.281 331.258 124.609C332.445 124 333.711 122.953 335.055 121.469V131.711C333.32 132.523 331.844 133.062 330.625 133.328C329.109 133.688 327.625 133.867 326.172 133.867C324.328 133.867 322.594 133.641 320.969 133.188C319.344 132.75 317.891 132.078 316.609 131.172C314.047 129.422 312.094 127.266 310.75 124.703C309.406 122.047 308.734 119.102 308.734 115.867C308.734 113.273 309.172 110.891 310.047 108.719C310.438 107.672 310.93 106.688 311.523 105.766C312.133 104.828 312.914 103.859 313.867 102.859C315.508 101.172 317.352 99.9219 319.398 99.1094C321.43 98.2812 323.688 97.8672 326.172 97.8672C327.594 97.8672 329.078 98.0391 330.625 98.3828C332.156 98.7891 333.633 99.3359 335.055 100.023ZM340.562 133V98.6875H350.008V133H340.562ZM392.805 115.914C392.805 118.398 392.359 120.719 391.469 122.875C390.578 124.984 389.25 126.906 387.484 128.641C385.734 130.328 383.734 131.625 381.484 132.531C379.125 133.453 376.789 133.914 374.477 133.914C372.133 133.914 369.797 133.453 367.469 132.531C365.172 131.609 363.188 130.312 361.516 128.641C359.828 127.031 358.5 125.094 357.531 122.828C356.594 120.609 356.125 118.305 356.125 115.914C356.125 113.523 356.594 111.219 357.531 109C358.5 106.734 359.828 104.797 361.516 103.188C363.234 101.469 365.219 100.156 367.469 99.25C369.656 98.3594 371.992 97.9141 374.477 97.9141C376.961 97.9141 379.312 98.3672 381.531 99.2734C383.75 100.164 385.727 101.469 387.461 103.188C389.211 104.906 390.547 106.844 391.469 109C392.359 111.156 392.805 113.461 392.805 115.914ZM374.477 125.992C377.055 125.992 379.211 125.031 380.945 123.109C381.805 122.156 382.438 121.086 382.844 119.898C383.25 118.711 383.453 117.383 383.453 115.914C383.453 113.055 382.602 110.656 380.898 108.719C379.164 106.797 377.023 105.836 374.477 105.836C371.867 105.836 369.719 106.797 368.031 108.719C366.344 110.641 365.5 113.039 365.5 115.914C365.5 118.898 366.328 121.312 367.984 123.156C369.688 125.047 371.852 125.992 374.477 125.992Z" fill="white"/>
</svg>
