<svg width="29" height="41" viewBox="0 0 29 41" fill="none" xmlns="http://www.w3.org/2000/svg">
<path d="M19.0784 0H19.8416L29 10.6296V37.9766C29 39.6364 27.6354 41 25.9518 41H3.04821C1.35849 41 0 39.6349 0 37.9523V3.04919C0 1.36515 1.36918 0.00151841 3.05737 0.00151841H19.08L19.0784 0ZM18.3152 1.51852H3.04516C2.20564 1.51852 1.52487 2.20944 1.52487 3.02944V37.969C1.52487 38.8042 2.21938 39.48 3.05127 39.48H25.9472C26.7898 39.48 27.4736 38.8042 27.4736 37.9721V12.1466H21.365C19.6814 12.1466 18.3152 10.7997 18.3152 9.10048V1.517V1.51852ZM19.8416 2.27778V9.09744C19.8416 9.94326 20.53 10.6296 21.3634 10.6296H27.0157L19.8416 2.27778ZM12.2096 16.7037V18.2222H24.4208V16.7037H12.2096ZM4.57766 15.1852H9.15685V19.7407H4.57766V15.1852ZM6.10406 16.7037V18.2222H7.63045V16.7037H6.10406ZM4.57766 22.7778H9.15685V27.3333H4.57766V22.7778ZM6.10406 24.2963V25.8148H7.63045V24.2963H6.10406ZM12.2096 24.2963V25.8148H24.4208V24.2963H12.2096ZM4.57766 30.3704H9.15685V34.9259H4.57766V30.3704ZM6.10406 31.8889V33.4074H7.63045V31.8889H6.10406ZM12.2096 31.8889V33.4074H24.4208V31.8889H12.2096Z" fill="#002A61"/>
</svg>
