<svg width="20" height="21" viewBox="0 0 20 21" fill="none" xmlns="http://www.w3.org/2000/svg">
<path fill-rule="evenodd" clip-rule="evenodd" d="M9.99978 18.3114C5.40975 18.3114 1.68962 14.592 1.68962 10.0012C1.68962 5.41047 5.40903 1.68962 9.99978 1.68962C14.5905 1.68962 18.3099 5.41119 18.3099 10.0027C18.3099 14.5942 14.5887 18.3114 9.99978 18.3114ZM9.99978 0C15.5222 0 19.9999 4.47773 19.9999 10.0027C19.9999 15.5276 15.5222 20.0014 9.99978 20.0014C4.47737 20.0014 0 15.5236 0 10.0027C0 4.4817 4.47773 0 9.99978 0ZM9.99978 3.37996C9.77574 3.38006 9.56091 3.46913 9.40252 3.62758C9.24413 3.78604 9.15515 4.00091 9.15515 4.22496V9.99184C9.15369 10.1043 9.17473 10.216 9.21702 10.3202C9.25931 10.4245 9.32201 10.5192 9.40143 10.5989L13.4848 14.6794C13.5632 14.7579 13.6563 14.8202 13.7587 14.8627C13.8612 14.9052 13.971 14.9271 14.0819 14.9271C14.1928 14.9271 14.3027 14.9052 14.4051 14.8627C14.5076 14.8202 14.6007 14.7579 14.679 14.6794C14.8372 14.521 14.9261 14.3063 14.9261 14.0825C14.9261 13.8586 14.8372 13.6439 14.679 13.4856L10.8448 9.65276V4.22496C10.8449 4.11388 10.8232 4.00387 10.7808 3.9012C10.7384 3.79854 10.6762 3.70524 10.5977 3.62663C10.5192 3.54802 10.426 3.48565 10.3234 3.44308C10.2208 3.4005 10.1109 3.37857 9.99978 3.37852V3.37996Z" fill="#006FB9"/>
</svg>
