<svg width="22" height="23" viewBox="0 0 22 23" fill="none" xmlns="http://www.w3.org/2000/svg">
<mask id="path-1-outside-1_9_260" maskUnits="userSpaceOnUse" x="0" y="0" width="22" height="23" fill="black">
<rect fill="white" width="22" height="23"/>
<path d="M15.7336 1C15.8567 1.00001 15.9755 1.04467 16.0681 1.12568C16.1607 1.20669 16.2208 1.31855 16.2371 1.44048L16.2417 1.50907V2.69386H19.7981C20.0957 2.69387 20.3824 2.80578 20.6013 3.00738C20.8202 3.20898 20.9553 3.48552 20.9798 3.78212L20.9839 3.87915V20.8142C20.9839 21.1119 20.8719 21.3987 20.6702 21.6176C20.4685 21.8365 20.1918 21.9716 19.8951 21.9959L19.7981 22H2.1858C1.88816 21.9999 1.60144 21.8878 1.38253 21.6862C1.16363 21.4845 1.02854 21.2079 1.00406 20.9112L1 20.8142V3.87915C1.00014 3.58151 1.11216 3.29479 1.31384 3.07588C1.51552 2.85698 1.79212 2.72189 2.08876 2.69742L2.1858 2.69386H5.7422V1.50806C5.74231 1.37925 5.79134 1.25529 5.87937 1.16126C5.96741 1.06723 6.08787 1.01015 6.21639 1.00157C6.34491 0.992981 6.4719 1.03353 6.57165 1.11502C6.67141 1.1965 6.73649 1.31284 6.75374 1.44048L6.75831 1.50907V2.69386H15.2256V1.50806C15.2256 1.37331 15.2791 1.24409 15.3744 1.14881C15.4697 1.05353 15.5989 1 15.7336 1ZM19.9678 8.45166H2.01611V20.8142C2.01608 20.8446 2.02422 20.8745 2.03968 20.9007C2.05514 20.9268 2.07736 20.9484 2.10401 20.9631L2.14668 20.9793L2.1853 20.9839H19.7976C19.8358 20.9838 19.8728 20.9709 19.9027 20.9472C19.9327 20.9235 19.9538 20.8904 19.9627 20.8533L19.9673 20.8142L19.9678 8.45166ZM6.58862 15.5644C6.79846 15.5646 7.00077 15.6427 7.15638 15.7835C7.312 15.9242 7.40984 16.1178 7.43098 16.3265L7.43504 16.4134V18.4456C7.43508 18.6555 7.35711 18.858 7.21629 19.0136C7.07546 19.1693 6.88182 19.2671 6.67296 19.288L6.58659 19.2921H4.55436C4.34445 19.2921 4.14202 19.2141 3.98636 19.0733C3.8307 18.9325 3.73292 18.7388 3.712 18.53L3.70743 18.4436V16.4114C3.70751 16.2015 3.78551 15.9991 3.92631 15.8435C4.06712 15.6879 4.26069 15.59 4.46952 15.569L4.55639 15.5644H6.58862ZM12.0081 15.5644C12.2179 15.5646 12.4202 15.6427 12.5758 15.7835C12.7314 15.9242 12.8293 16.1178 12.8504 16.3265L12.8545 16.4134V18.4456C12.8545 18.6555 12.7766 18.858 12.6357 19.0136C12.4949 19.1693 12.3013 19.2671 12.0924 19.288L12.006 19.2921H9.97583C9.7659 19.292 9.56346 19.214 9.40774 19.0732C9.25203 18.9324 9.15411 18.7388 9.13296 18.53L9.1289 18.4436V16.4114C9.12898 16.2015 9.20698 15.9991 9.34778 15.8435C9.48859 15.6879 9.68216 15.59 9.89098 15.569L9.97583 15.5644H12.0081ZM6.41944 16.5806H4.72558V18.2739H6.41944V16.5806ZM11.8389 16.5806H10.145V18.2739H11.8389V16.5806ZM6.58862 10.145C6.79846 10.1452 7.00077 10.2232 7.15638 10.364C7.312 10.5048 7.40984 10.6983 7.43098 10.9071L7.43555 10.9919V13.0242C7.43559 13.2341 7.35762 13.4365 7.2168 13.5922C7.07597 13.7478 6.88233 13.8456 6.67346 13.8665L6.58709 13.8711H4.55487C4.34499 13.871 4.14262 13.793 3.98698 13.6522C3.83135 13.5114 3.73354 13.3178 3.71251 13.109L3.70794 13.0226V10.9919C3.70802 10.7821 3.78602 10.5797 3.92682 10.4241C4.06763 10.2684 4.2612 10.1706 4.47002 10.1496L4.5569 10.145H6.58862ZM12.0081 10.145C12.2179 10.1452 12.4202 10.2232 12.5758 10.364C12.7314 10.5048 12.8293 10.6983 12.8504 10.9071L12.8545 10.9935V13.0257C12.8545 13.2356 12.7766 13.438 12.6357 13.5937C12.4949 13.7494 12.3013 13.8471 12.0924 13.868L12.006 13.8726H9.97583C9.7659 13.8726 9.56346 13.7946 9.40774 13.6538C9.25203 13.513 9.15411 13.3194 9.13296 13.1105L9.1289 13.0242V10.9919C9.12898 10.7821 9.20698 10.5797 9.34778 10.4241C9.48859 10.2684 9.68216 10.1706 9.89098 10.1496L9.97786 10.145H12.0081ZM17.4275 10.145C17.6373 10.1451 17.8396 10.2231 17.9952 10.3639C18.1507 10.5047 18.2484 10.6983 18.2693 10.9071L18.2739 10.9935V13.0257C18.2738 13.2356 18.1958 13.4379 18.055 13.5936C17.9142 13.7492 17.7206 13.847 17.5118 13.868L17.4255 13.8726H15.3932C15.1833 13.8726 14.9809 13.7946 14.8251 13.6538C14.6694 13.513 14.5715 13.3194 14.5504 13.1105L14.5483 13.0242V10.9919C14.5484 10.7821 14.6264 10.5797 14.7672 10.4241C14.908 10.2684 15.1016 10.1706 15.3104 10.1496L15.3973 10.145H17.4275ZM6.41944 11.1611H4.72558V12.855H6.41944V11.1611ZM11.8389 11.1611H10.145V12.855H11.8389V11.1611ZM17.2578 11.1611H15.5644V12.855H17.2583L17.2578 11.1611ZM5.7422 3.70997H2.1858C2.1476 3.70997 2.11052 3.72286 2.08055 3.74656C2.05059 3.77026 2.02949 3.80337 2.02068 3.84054L2.01611 3.87915V7.43555H19.9678V3.87915C19.9678 3.84874 19.9596 3.81889 19.9441 3.79276C19.9285 3.76664 19.9061 3.74523 19.8794 3.7308L19.8372 3.71454L19.7981 3.70997H16.2417V4.89527C16.241 5.02358 16.1919 5.14689 16.1041 5.24045C16.0163 5.334 15.8963 5.39086 15.7683 5.39961C15.6403 5.40836 15.5137 5.36835 15.414 5.28761C15.3142 5.20687 15.2487 5.09139 15.2307 4.96436L15.2256 4.89527V3.70997H6.75831V4.89527C6.75859 5.02421 6.70983 5.14843 6.62192 5.24276C6.53401 5.33708 6.41352 5.39445 6.28488 5.40324C6.15624 5.41202 6.02907 5.37157 5.92915 5.29008C5.82923 5.20858 5.76403 5.09214 5.74677 4.96436L5.7422 4.89527V3.70997Z"/>
</mask>
<path d="M15.7336 1C15.8567 1.00001 15.9755 1.04467 16.0681 1.12568C16.1607 1.20669 16.2208 1.31855 16.2371 1.44048L16.2417 1.50907V2.69386H19.7981C20.0957 2.69387 20.3824 2.80578 20.6013 3.00738C20.8202 3.20898 20.9553 3.48552 20.9798 3.78212L20.9839 3.87915V20.8142C20.9839 21.1119 20.8719 21.3987 20.6702 21.6176C20.4685 21.8365 20.1918 21.9716 19.8951 21.9959L19.7981 22H2.1858C1.88816 21.9999 1.60144 21.8878 1.38253 21.6862C1.16363 21.4845 1.02854 21.2079 1.00406 20.9112L1 20.8142V3.87915C1.00014 3.58151 1.11216 3.29479 1.31384 3.07588C1.51552 2.85698 1.79212 2.72189 2.08876 2.69742L2.1858 2.69386H5.7422V1.50806C5.74231 1.37925 5.79134 1.25529 5.87937 1.16126C5.96741 1.06723 6.08787 1.01015 6.21639 1.00157C6.34491 0.992981 6.4719 1.03353 6.57165 1.11502C6.67141 1.1965 6.73649 1.31284 6.75374 1.44048L6.75831 1.50907V2.69386H15.2256V1.50806C15.2256 1.37331 15.2791 1.24409 15.3744 1.14881C15.4697 1.05353 15.5989 1 15.7336 1ZM19.9678 8.45166H2.01611V20.8142C2.01608 20.8446 2.02422 20.8745 2.03968 20.9007C2.05514 20.9268 2.07736 20.9484 2.10401 20.9631L2.14668 20.9793L2.1853 20.9839H19.7976C19.8358 20.9838 19.8728 20.9709 19.9027 20.9472C19.9327 20.9235 19.9538 20.8904 19.9627 20.8533L19.9673 20.8142L19.9678 8.45166ZM6.58862 15.5644C6.79846 15.5646 7.00077 15.6427 7.15638 15.7835C7.312 15.9242 7.40984 16.1178 7.43098 16.3265L7.43504 16.4134V18.4456C7.43508 18.6555 7.35711 18.858 7.21629 19.0136C7.07546 19.1693 6.88182 19.2671 6.67296 19.288L6.58659 19.2921H4.55436C4.34445 19.2921 4.14202 19.2141 3.98636 19.0733C3.8307 18.9325 3.73292 18.7388 3.712 18.53L3.70743 18.4436V16.4114C3.70751 16.2015 3.78551 15.9991 3.92631 15.8435C4.06712 15.6879 4.26069 15.59 4.46952 15.569L4.55639 15.5644H6.58862ZM12.0081 15.5644C12.2179 15.5646 12.4202 15.6427 12.5758 15.7835C12.7314 15.9242 12.8293 16.1178 12.8504 16.3265L12.8545 16.4134V18.4456C12.8545 18.6555 12.7766 18.858 12.6357 19.0136C12.4949 19.1693 12.3013 19.2671 12.0924 19.288L12.006 19.2921H9.97583C9.7659 19.292 9.56346 19.214 9.40774 19.0732C9.25203 18.9324 9.15411 18.7388 9.13296 18.53L9.1289 18.4436V16.4114C9.12898 16.2015 9.20698 15.9991 9.34778 15.8435C9.48859 15.6879 9.68216 15.59 9.89098 15.569L9.97583 15.5644H12.0081ZM6.41944 16.5806H4.72558V18.2739H6.41944V16.5806ZM11.8389 16.5806H10.145V18.2739H11.8389V16.5806ZM6.58862 10.145C6.79846 10.1452 7.00077 10.2232 7.15638 10.364C7.312 10.5048 7.40984 10.6983 7.43098 10.9071L7.43555 10.9919V13.0242C7.43559 13.2341 7.35762 13.4365 7.2168 13.5922C7.07597 13.7478 6.88233 13.8456 6.67346 13.8665L6.58709 13.8711H4.55487C4.34499 13.871 4.14262 13.793 3.98698 13.6522C3.83135 13.5114 3.73354 13.3178 3.71251 13.109L3.70794 13.0226V10.9919C3.70802 10.7821 3.78602 10.5797 3.92682 10.4241C4.06763 10.2684 4.2612 10.1706 4.47002 10.1496L4.5569 10.145H6.58862ZM12.0081 10.145C12.2179 10.1452 12.4202 10.2232 12.5758 10.364C12.7314 10.5048 12.8293 10.6983 12.8504 10.9071L12.8545 10.9935V13.0257C12.8545 13.2356 12.7766 13.438 12.6357 13.5937C12.4949 13.7494 12.3013 13.8471 12.0924 13.868L12.006 13.8726H9.97583C9.7659 13.8726 9.56346 13.7946 9.40774 13.6538C9.25203 13.513 9.15411 13.3194 9.13296 13.1105L9.1289 13.0242V10.9919C9.12898 10.7821 9.20698 10.5797 9.34778 10.4241C9.48859 10.2684 9.68216 10.1706 9.89098 10.1496L9.97786 10.145H12.0081ZM17.4275 10.145C17.6373 10.1451 17.8396 10.2231 17.9952 10.3639C18.1507 10.5047 18.2484 10.6983 18.2693 10.9071L18.2739 10.9935V13.0257C18.2738 13.2356 18.1958 13.4379 18.055 13.5936C17.9142 13.7492 17.7206 13.847 17.5118 13.868L17.4255 13.8726H15.3932C15.1833 13.8726 14.9809 13.7946 14.8251 13.6538C14.6694 13.513 14.5715 13.3194 14.5504 13.1105L14.5483 13.0242V10.9919C14.5484 10.7821 14.6264 10.5797 14.7672 10.4241C14.908 10.2684 15.1016 10.1706 15.3104 10.1496L15.3973 10.145H17.4275ZM6.41944 11.1611H4.72558V12.855H6.41944V11.1611ZM11.8389 11.1611H10.145V12.855H11.8389V11.1611ZM17.2578 11.1611H15.5644V12.855H17.2583L17.2578 11.1611ZM5.7422 3.70997H2.1858C2.1476 3.70997 2.11052 3.72286 2.08055 3.74656C2.05059 3.77026 2.02949 3.80337 2.02068 3.84054L2.01611 3.87915V7.43555H19.9678V3.87915C19.9678 3.84874 19.9596 3.81889 19.9441 3.79276C19.9285 3.76664 19.9061 3.74523 19.8794 3.7308L19.8372 3.71454L19.7981 3.70997H16.2417V4.89527C16.241 5.02358 16.1919 5.14689 16.1041 5.24045C16.0163 5.334 15.8963 5.39086 15.7683 5.39961C15.6403 5.40836 15.5137 5.36835 15.414 5.28761C15.3142 5.20687 15.2487 5.09139 15.2307 4.96436L15.2256 4.89527V3.70997H6.75831V4.89527C6.75859 5.02421 6.70983 5.14843 6.62192 5.24276C6.53401 5.33708 6.41352 5.39445 6.28488 5.40324C6.15624 5.41202 6.02907 5.37157 5.92915 5.29008C5.82923 5.20858 5.76403 5.09214 5.74677 4.96436L5.7422 4.89527V3.70997Z" fill="#006EB5"/>
<path d="M15.7336 1C15.8567 1.00001 15.9755 1.04467 16.0681 1.12568C16.1607 1.20669 16.2208 1.31855 16.2371 1.44048L16.2417 1.50907V2.69386H19.7981C20.0957 2.69387 20.3824 2.80578 20.6013 3.00738C20.8202 3.20898 20.9553 3.48552 20.9798 3.78212L20.9839 3.87915V20.8142C20.9839 21.1119 20.8719 21.3987 20.6702 21.6176C20.4685 21.8365 20.1918 21.9716 19.8951 21.9959L19.7981 22H2.1858C1.88816 21.9999 1.60144 21.8878 1.38253 21.6862C1.16363 21.4845 1.02854 21.2079 1.00406 20.9112L1 20.8142V3.87915C1.00014 3.58151 1.11216 3.29479 1.31384 3.07588C1.51552 2.85698 1.79212 2.72189 2.08876 2.69742L2.1858 2.69386H5.7422V1.50806C5.74231 1.37925 5.79134 1.25529 5.87937 1.16126C5.96741 1.06723 6.08787 1.01015 6.21639 1.00157C6.34491 0.992981 6.4719 1.03353 6.57165 1.11502C6.67141 1.1965 6.73649 1.31284 6.75374 1.44048L6.75831 1.50907V2.69386H15.2256V1.50806C15.2256 1.37331 15.2791 1.24409 15.3744 1.14881C15.4697 1.05353 15.5989 1 15.7336 1ZM19.9678 8.45166H2.01611V20.8142C2.01608 20.8446 2.02422 20.8745 2.03968 20.9007C2.05514 20.9268 2.07736 20.9484 2.10401 20.9631L2.14668 20.9793L2.1853 20.9839H19.7976C19.8358 20.9838 19.8728 20.9709 19.9027 20.9472C19.9327 20.9235 19.9538 20.8904 19.9627 20.8533L19.9673 20.8142L19.9678 8.45166ZM6.58862 15.5644C6.79846 15.5646 7.00077 15.6427 7.15638 15.7835C7.312 15.9242 7.40984 16.1178 7.43098 16.3265L7.43504 16.4134V18.4456C7.43508 18.6555 7.35711 18.858 7.21629 19.0136C7.07546 19.1693 6.88182 19.2671 6.67296 19.288L6.58659 19.2921H4.55436C4.34445 19.2921 4.14202 19.2141 3.98636 19.0733C3.8307 18.9325 3.73292 18.7388 3.712 18.53L3.70743 18.4436V16.4114C3.70751 16.2015 3.78551 15.9991 3.92631 15.8435C4.06712 15.6879 4.26069 15.59 4.46952 15.569L4.55639 15.5644H6.58862ZM12.0081 15.5644C12.2179 15.5646 12.4202 15.6427 12.5758 15.7835C12.7314 15.9242 12.8293 16.1178 12.8504 16.3265L12.8545 16.4134V18.4456C12.8545 18.6555 12.7766 18.858 12.6357 19.0136C12.4949 19.1693 12.3013 19.2671 12.0924 19.288L12.006 19.2921H9.97583C9.7659 19.292 9.56346 19.214 9.40774 19.0732C9.25203 18.9324 9.15411 18.7388 9.13296 18.53L9.1289 18.4436V16.4114C9.12898 16.2015 9.20698 15.9991 9.34778 15.8435C9.48859 15.6879 9.68216 15.59 9.89098 15.569L9.97583 15.5644H12.0081ZM6.41944 16.5806H4.72558V18.2739H6.41944V16.5806ZM11.8389 16.5806H10.145V18.2739H11.8389V16.5806ZM6.58862 10.145C6.79846 10.1452 7.00077 10.2232 7.15638 10.364C7.312 10.5048 7.40984 10.6983 7.43098 10.9071L7.43555 10.9919V13.0242C7.43559 13.2341 7.35762 13.4365 7.2168 13.5922C7.07597 13.7478 6.88233 13.8456 6.67346 13.8665L6.58709 13.8711H4.55487C4.34499 13.871 4.14262 13.793 3.98698 13.6522C3.83135 13.5114 3.73354 13.3178 3.71251 13.109L3.70794 13.0226V10.9919C3.70802 10.7821 3.78602 10.5797 3.92682 10.4241C4.06763 10.2684 4.2612 10.1706 4.47002 10.1496L4.5569 10.145H6.58862ZM12.0081 10.145C12.2179 10.1452 12.4202 10.2232 12.5758 10.364C12.7314 10.5048 12.8293 10.6983 12.8504 10.9071L12.8545 10.9935V13.0257C12.8545 13.2356 12.7766 13.438 12.6357 13.5937C12.4949 13.7494 12.3013 13.8471 12.0924 13.868L12.006 13.8726H9.97583C9.7659 13.8726 9.56346 13.7946 9.40774 13.6538C9.25203 13.513 9.15411 13.3194 9.13296 13.1105L9.1289 13.0242V10.9919C9.12898 10.7821 9.20698 10.5797 9.34778 10.4241C9.48859 10.2684 9.68216 10.1706 9.89098 10.1496L9.97786 10.145H12.0081ZM17.4275 10.145C17.6373 10.1451 17.8396 10.2231 17.9952 10.3639C18.1507 10.5047 18.2484 10.6983 18.2693 10.9071L18.2739 10.9935V13.0257C18.2738 13.2356 18.1958 13.4379 18.055 13.5936C17.9142 13.7492 17.7206 13.847 17.5118 13.868L17.4255 13.8726H15.3932C15.1833 13.8726 14.9809 13.7946 14.8251 13.6538C14.6694 13.513 14.5715 13.3194 14.5504 13.1105L14.5483 13.0242V10.9919C14.5484 10.7821 14.6264 10.5797 14.7672 10.4241C14.908 10.2684 15.1016 10.1706 15.3104 10.1496L15.3973 10.145H17.4275ZM6.41944 11.1611H4.72558V12.855H6.41944V11.1611ZM11.8389 11.1611H10.145V12.855H11.8389V11.1611ZM17.2578 11.1611H15.5644V12.855H17.2583L17.2578 11.1611ZM5.7422 3.70997H2.1858C2.1476 3.70997 2.11052 3.72286 2.08055 3.74656C2.05059 3.77026 2.02949 3.80337 2.02068 3.84054L2.01611 3.87915V7.43555H19.9678V3.87915C19.9678 3.84874 19.9596 3.81889 19.9441 3.79276C19.9285 3.76664 19.9061 3.74523 19.8794 3.7308L19.8372 3.71454L19.7981 3.70997H16.2417V4.89527C16.241 5.02358 16.1919 5.14689 16.1041 5.24045C16.0163 5.334 15.8963 5.39086 15.7683 5.39961C15.6403 5.40836 15.5137 5.36835 15.414 5.28761C15.3142 5.20687 15.2487 5.09139 15.2307 4.96436L15.2256 4.89527V3.70997H6.75831V4.89527C6.75859 5.02421 6.70983 5.14843 6.62192 5.24276C6.53401 5.33708 6.41352 5.39445 6.28488 5.40324C6.15624 5.41202 6.02907 5.37157 5.92915 5.29008C5.82923 5.20858 5.76403 5.09214 5.74677 4.96436L5.7422 4.89527V3.70997Z" stroke="#006EB5" stroke-width="0.6" mask="url(#path-1-outside-1_9_260)"/>
</svg>
