<svg width="14" height="15" viewBox="0 0 14 15" fill="none" xmlns="http://www.w3.org/2000/svg">
<path d="M12.5401 2.63818C10.7133 2.22972 8.99629 1.49507 7.49093 0.477807L6.98164 0.130745C6.8557 0.0458708 6.70261 0 6.54529 0C6.38797 0 6.23488 0.0458708 6.10894 0.130745L5.59996 0.475843C4.09461 1.4931 2.37756 2.22776 0.550744 2.63622C0.39303 2.67162 0.25306 2.7536 0.153218 2.86906C0.0533757 2.98452 -0.000571204 3.12679 4.56139e-06 3.2731V6.29763C0.00310886 7.49239 0.313666 8.67026 0.907319 9.73885C1.50097 10.8074 2.36158 11.7377 3.42163 12.4567L6.10894 14.2714C6.2348 14.3564 6.38792 14.4024 6.54529 14.4024C6.70266 14.4024 6.85578 14.3564 6.98164 14.2714L9.67238 12.4567C10.7318 11.7373 11.5917 10.8069 12.1847 9.73838C12.7778 8.66981 13.0878 7.49212 13.0906 6.29763V3.2731C13.0905 3.12716 13.0363 2.98542 12.9365 2.87039C12.8367 2.75536 12.6971 2.67363 12.5398 2.63818H12.5401ZM9.24132 6.35458L6.33241 8.97312C6.26489 9.03393 6.18471 9.08217 6.09647 9.11508C6.00823 9.14799 5.91366 9.16493 5.81814 9.16493C5.72263 9.16493 5.62805 9.14799 5.53981 9.11508C5.45157 9.08217 5.37139 9.03393 5.30387 8.97312L3.84926 7.66371C3.71286 7.54093 3.63624 7.37441 3.63624 7.20077C3.63624 7.02714 3.71286 6.86061 3.84926 6.73784C3.98565 6.61506 4.17064 6.54608 4.36353 6.54608C4.55642 6.54608 4.74141 6.61506 4.8778 6.73784L5.81814 7.58431L8.21309 5.42843C8.34949 5.30565 8.53447 5.23667 8.72736 5.23667C8.92025 5.23667 9.10524 5.30565 9.24164 5.42843C9.37803 5.55121 9.45465 5.71773 9.45465 5.89136C9.45465 6.065 9.37803 6.23152 9.24164 6.3543L9.24132 6.35458Z" fill="#FFBE12"/>
</svg>
