<svg width="80" height="51" viewBox="0 0 80 51" fill="none" xmlns="http://www.w3.org/2000/svg">
<path d="M10.3282 36.0276V33.6271H10.6564V36.0276H10.3282Z" fill="white"/>
<path d="M11.2333 36.0276V33.6271H11.57L12.8727 35.5118V33.6271H13.1873V36.0276H12.8507L11.548 34.1413V36.0276H11.2333Z" fill="white"/>
<path d="M13.6289 35.2564L13.9385 35.2302C13.9532 35.3502 13.987 35.449 14.04 35.5265C14.0941 35.6029 14.1776 35.6652 14.2904 35.7132C14.4032 35.7601 14.5301 35.7836 14.671 35.7836C14.7962 35.7836 14.9068 35.7656 15.0026 35.7296C15.0985 35.6935 15.1696 35.6444 15.2158 35.5822C15.2632 35.5189 15.2869 35.4501 15.2869 35.3759C15.2869 35.3006 15.2643 35.2351 15.2192 35.1794C15.1741 35.1226 15.0996 35.0751 14.9959 35.0369C14.9293 35.0118 14.7821 34.9731 14.5543 34.9207C14.3265 34.8672 14.1669 34.817 14.0755 34.77C13.9571 34.71 13.8686 34.6358 13.8099 34.5474C13.7524 34.4578 13.7236 34.358 13.7236 34.2477C13.7236 34.1265 13.7592 34.0136 13.8302 33.9088C13.9013 33.8029 14.005 33.7226 14.1415 33.6681C14.278 33.6135 14.4297 33.5862 14.5966 33.5862C14.7805 33.5862 14.9423 33.6151 15.0822 33.673C15.2231 33.7297 15.3314 33.8138 15.407 33.9251C15.4825 34.0365 15.5232 34.1626 15.5288 34.3034L15.2141 34.3263C15.1972 34.1746 15.1397 34.06 15.0416 33.9824C14.9446 33.9049 14.8008 33.8662 14.6101 33.8662C14.4116 33.8662 14.2667 33.9017 14.1754 33.9726C14.0851 34.0425 14.04 34.1271 14.04 34.2264C14.04 34.3127 14.0722 34.3836 14.1364 34.4393C14.1996 34.495 14.3643 34.5523 14.6304 34.6112C14.8978 34.6691 15.081 34.7198 15.1803 34.7635C15.3246 34.8279 15.4312 34.9098 15.5 35.0091C15.5688 35.1073 15.6032 35.2209 15.6032 35.3497C15.6032 35.4774 15.5654 35.598 15.4899 35.7116C15.4143 35.824 15.3055 35.9119 15.1634 35.9752C15.0224 36.0374 14.8634 36.0685 14.6863 36.0685C14.4618 36.0685 14.2735 36.0368 14.1212 35.9735C13.9701 35.9102 13.8511 35.8153 13.7642 35.6886C13.6785 35.5609 13.6334 35.4168 13.6289 35.2564Z" fill="white"/>
<path d="M16.6826 36.0276V33.9104H15.8655V33.6271H17.8313V33.9104H17.0108V36.0276H16.6826Z" fill="white"/>
<path d="M18.2255 36.0276V33.6271H18.5537V36.0276H18.2255Z" fill="white"/>
<path d="M19.765 36.0276V33.9104H18.9479V33.6271H20.9138V33.9104H20.0933V36.0276H19.765Z" fill="white"/>
<path d="M22.8796 33.6271H23.2079V35.014C23.2079 35.2553 23.1797 35.4468 23.1233 35.5887C23.0669 35.7307 22.9648 35.8464 22.817 35.9359C22.6704 36.0243 22.4776 36.0685 22.2385 36.0685C22.0061 36.0685 21.8161 36.0298 21.6683 35.9523C21.5206 35.8747 21.4151 35.7629 21.352 35.6166C21.2888 35.4692 21.2572 35.2684 21.2572 35.014V33.6271H21.5854V35.0124C21.5854 35.2209 21.6052 35.3748 21.6446 35.4741C21.6852 35.5724 21.754 35.6482 21.851 35.7017C21.9492 35.7552 22.0687 35.782 22.2097 35.782C22.4511 35.782 22.6231 35.729 22.7257 35.6231C22.8283 35.5172 22.8796 35.3137 22.8796 35.0124V33.6271Z" fill="white"/>
<path d="M24.387 36.0276V33.9104H23.5699V33.6271H25.5358V33.9104H24.7152V36.0276H24.387Z" fill="white"/>
<path d="M25.71 34.8585C25.71 34.46 25.8206 34.1484 26.0416 33.9235C26.2627 33.6975 26.548 33.5846 26.8977 33.5846C27.1266 33.5846 27.333 33.6375 27.5169 33.7434C27.7007 33.8493 27.8406 33.9972 27.9364 34.1871C28.0334 34.376 28.0819 34.5905 28.0819 34.8306C28.0819 35.0741 28.0312 35.2918 27.9297 35.484C27.8281 35.6761 27.6843 35.8218 27.4982 35.9211C27.3122 36.0194 27.1114 36.0685 26.896 36.0685C26.6625 36.0685 26.4538 36.0139 26.27 35.9048C26.0862 35.7956 25.9469 35.6466 25.8521 35.4578C25.7574 35.2689 25.71 35.0691 25.71 34.8585ZM26.0484 34.8634C26.0484 35.1526 26.1285 35.3808 26.2886 35.5478C26.4499 35.7137 26.6518 35.7967 26.8943 35.7967C27.1413 35.7967 27.3443 35.7126 27.5033 35.5445C27.6635 35.3764 27.7436 35.1379 27.7436 34.829C27.7436 34.6336 27.7092 34.4633 27.6404 34.3181C27.5727 34.1718 27.4729 34.0589 27.3409 33.9792C27.2101 33.8984 27.0629 33.858 26.8994 33.858C26.667 33.858 26.4668 33.9355 26.2988 34.0905C26.1318 34.2444 26.0484 34.5021 26.0484 34.8634Z" fill="white"/>
<path d="M29.4709 36.0276V33.6271H30.4064C30.5711 33.6271 30.6969 33.6348 30.7837 33.6501C30.9055 33.6697 31.0076 33.7074 31.0899 33.763C31.1723 33.8176 31.2382 33.8946 31.2879 33.9939C31.3386 34.0932 31.364 34.2024 31.364 34.3214C31.364 34.5255 31.2969 34.6985 31.1627 34.8404C31.0285 34.9813 30.786 35.0517 30.4352 35.0517H29.7991V36.0276H29.4709ZM29.7991 34.7684H30.4403C30.6523 34.7684 30.8029 34.7302 30.892 34.6538C30.9811 34.5774 31.0256 34.4698 31.0256 34.3312C31.0256 34.2308 30.9991 34.1451 30.9461 34.0741C30.8942 34.0021 30.8254 33.9546 30.7397 33.9317C30.6845 33.9175 30.5824 33.9104 30.4335 33.9104H29.7991V34.7684Z" fill="white"/>
<path d="M31.2523 36.0276L32.2048 33.6271H32.5584L33.5735 36.0276H33.1996L32.9103 35.3006H31.8732L31.6009 36.0276H31.2523ZM31.968 35.0419H32.8088L32.55 34.3771C32.471 34.1751 32.4124 34.0092 32.374 33.8793C32.3424 34.0332 32.2979 34.186 32.2404 34.3378L31.968 35.0419Z" fill="white"/>
<path d="M33.8408 36.0276V33.6271H34.9405C35.1615 33.6271 35.3296 33.649 35.4446 33.6926C35.5597 33.7352 35.6516 33.8111 35.7204 33.9202C35.7892 34.0294 35.8236 34.15 35.8236 34.2821C35.8236 34.4524 35.7666 34.5959 35.6527 34.7127C35.5388 34.8295 35.3628 34.9038 35.1249 34.9354C35.2117 34.9758 35.2777 35.0157 35.3228 35.0549C35.4187 35.1401 35.5095 35.2465 35.5952 35.3742L36.0266 36.0276H35.6138L35.2856 35.5282C35.1897 35.3841 35.1108 35.2738 35.0487 35.1974C34.9867 35.121 34.9309 35.0675 34.8812 35.0369C34.8327 35.0064 34.7831 34.9851 34.7324 34.9731C34.6951 34.9654 34.6342 34.9616 34.5497 34.9616H34.169V36.0276H33.8408ZM34.169 34.6865H34.8745C35.0245 34.6865 35.1418 34.6718 35.2264 34.6423C35.311 34.6118 35.3753 34.5637 35.4192 34.4982C35.4632 34.4316 35.4852 34.3596 35.4852 34.2821C35.4852 34.1686 35.4424 34.0752 35.3566 34.0021C35.2721 33.929 35.1378 33.8924 34.954 33.8924H34.169V34.6865Z" fill="white"/>
<path d="M36.0672 36.0276L37.0197 33.6271H37.3733L38.3883 36.0276H38.0145L37.7252 35.3006H36.6881L36.4157 36.0276H36.0672ZM36.7828 35.0419H37.6236L37.3648 34.3771C37.2859 34.1751 37.2272 34.0092 37.1889 33.8793C37.1573 34.0332 37.1127 34.186 37.0552 34.3378L36.7828 35.0419Z" fill="white"/>
<path d="M39.4085 36.0276V33.6271H39.7367V35.7443H40.9582V36.0276H39.4085Z" fill="white"/>
<path d="M41.0783 36.0276L42.0308 33.6271H42.3844L43.3994 36.0276H43.0256L42.7363 35.3006H41.6992L41.4268 36.0276H41.0783ZM41.7939 35.0419H42.6348L42.3759 34.3771C42.297 34.1751 42.2383 34.0092 42.2 33.8793C42.1684 34.0332 42.1238 34.186 42.0663 34.3378L41.7939 35.0419Z" fill="white"/>
<path d="M44.4179 36.0276V33.6271H45.2215C45.526 33.6271 45.7245 33.6391 45.817 33.6632C45.9591 33.6992 46.0781 33.7778 46.174 33.8989C46.2699 34.019 46.3178 34.1746 46.3178 34.3656C46.3178 34.513 46.2902 34.6369 46.2349 34.7373C46.1796 34.8377 46.1091 34.9169 46.0234 34.9747C45.9388 35.0315 45.8526 35.0691 45.7646 35.0877C45.645 35.1106 45.4719 35.1221 45.2452 35.1221H44.9187V36.0276H44.4179ZM44.9187 34.0332V34.7144H45.1927C45.3901 34.7144 45.5221 34.7018 45.5886 34.6767C45.6552 34.6516 45.7071 34.6123 45.7443 34.5588C45.7826 34.5053 45.8018 34.4431 45.8018 34.3721C45.8018 34.2848 45.7753 34.2128 45.7223 34.156C45.6693 34.0992 45.6022 34.0638 45.521 34.0496C45.4612 34.0387 45.3411 34.0332 45.1606 34.0332H44.9187Z" fill="white"/>
<path d="M46.7306 36.0276V33.6271H47.7846C48.0496 33.6271 48.2419 33.649 48.3615 33.6926C48.4822 33.7352 48.5786 33.8116 48.6508 33.9219C48.723 34.0321 48.7591 34.1582 48.7591 34.3001C48.7591 34.4802 48.7044 34.6292 48.595 34.7471C48.4855 34.8639 48.322 34.9376 48.1043 34.9682C48.2126 35.0293 48.3017 35.0964 48.3716 35.1696C48.4427 35.2427 48.538 35.3726 48.6576 35.5593L48.9604 36.0276H48.3615L47.9994 35.5052C47.8709 35.3186 47.7829 35.2012 47.7355 35.1532C47.6881 35.1041 47.638 35.0708 47.5849 35.0533C47.5319 35.0348 47.4479 35.0255 47.3329 35.0255H47.2314V36.0276H46.7306ZM47.2314 34.6423H47.6019C47.8421 34.6423 47.9921 34.6325 48.0519 34.6128C48.1117 34.5932 48.1585 34.5594 48.1923 34.5113C48.2261 34.4633 48.2431 34.4033 48.2431 34.3312C48.2431 34.2504 48.2205 34.1855 48.1754 34.1364C48.1314 34.0861 48.0688 34.0545 47.9876 34.0414C47.947 34.0359 47.8252 34.0332 47.6222 34.0332H47.2314V34.6423Z" fill="white"/>
<path d="M49.1313 34.8421C49.1313 34.5976 49.169 34.3923 49.2446 34.2264C49.301 34.1042 49.3777 33.9945 49.4747 33.8973C49.5728 33.8001 49.68 33.7281 49.7961 33.6812C49.9506 33.6178 50.1288 33.5862 50.3307 33.5862C50.6962 33.5862 50.9883 33.6959 51.2071 33.9153C51.427 34.1347 51.537 34.4398 51.537 34.8306C51.537 35.2181 51.4281 35.5216 51.2105 35.741C50.9928 35.9593 50.7018 36.0685 50.3375 36.0685C49.9687 36.0685 49.6754 35.9599 49.4578 35.7427C49.2401 35.5243 49.1313 35.2241 49.1313 34.8421ZM49.6473 34.8257C49.6473 35.0975 49.7121 35.3038 49.8418 35.4447C49.9715 35.5844 50.1362 35.6542 50.3358 35.6542C50.5354 35.6542 50.699 35.5849 50.8264 35.4463C50.955 35.3066 51.0193 35.0975 51.0193 34.8192C51.0193 34.5441 50.9567 34.3389 50.8315 34.2035C50.7074 34.0681 50.5422 34.0005 50.3358 34.0005C50.1294 34.0005 49.9631 34.0692 49.8367 34.2068C49.7104 34.3432 49.6473 34.5495 49.6473 34.8257Z" fill="white"/>
<path d="M52.4878 36.0276V34.0332H51.7518V33.6271H53.7228V34.0332H52.9885V36.0276H52.4878Z" fill="white"/>
<path d="M54.0476 36.0276V33.6271H55.8866V34.0332H54.5484V34.5654H55.7935V34.9698H54.5484V35.6231H55.934V36.0276H54.0476Z" fill="white"/>
<path d="M57.9455 35.145L58.4311 35.294C58.3566 35.556 58.2326 35.7508 58.0589 35.8786C57.8863 36.0052 57.6669 36.0685 57.4007 36.0685C57.0714 36.0685 56.8007 35.9599 56.5887 35.7427C56.3766 35.5243 56.2706 35.2263 56.2706 34.8486C56.2706 34.4491 56.3772 34.1391 56.5904 33.9186C56.8035 33.697 57.0838 33.5862 57.4312 33.5862C57.7346 33.5862 57.981 33.673 58.1705 33.8465C58.2833 33.9492 58.3679 34.0965 58.4243 34.2886L57.9286 34.4033C57.8993 34.2788 57.8378 34.1806 57.7442 34.1085C57.6517 34.0365 57.5389 34.0005 57.4058 34.0005C57.222 34.0005 57.0725 34.0643 56.9575 34.192C56.8436 34.3198 56.7866 34.5266 56.7866 34.8126C56.7866 35.1161 56.843 35.3322 56.9558 35.461C57.0686 35.5898 57.2152 35.6542 57.3957 35.6542C57.5288 35.6542 57.6432 35.6133 57.7391 35.5314C57.835 35.4496 57.9038 35.3208 57.9455 35.145Z" fill="white"/>
<path d="M60.4494 35.145L60.9349 35.294C60.8605 35.556 60.7364 35.7508 60.5627 35.8786C60.3902 36.0052 60.1708 36.0685 59.9046 36.0685C59.5753 36.0685 59.3046 35.9599 59.0925 35.7427C58.8805 35.5243 58.7745 35.2263 58.7745 34.8486C58.7745 34.4491 58.8811 34.1391 59.0942 33.9186C59.3074 33.697 59.5877 33.5862 59.9351 33.5862C60.2385 33.5862 60.4849 33.673 60.6744 33.8465C60.7872 33.9492 60.8718 34.0965 60.9281 34.2886L60.4324 34.4033C60.4031 34.2788 60.3417 34.1806 60.248 34.1085C60.1556 34.0365 60.0428 34.0005 59.9097 34.0005C59.7258 34.0005 59.5764 34.0643 59.4614 34.192C59.3474 34.3198 59.2905 34.5266 59.2905 34.8126C59.2905 35.1161 59.3469 35.3322 59.4597 35.461C59.5725 35.5898 59.7191 35.6542 59.8995 35.6542C60.0326 35.6542 60.1471 35.6133 60.243 35.5314C60.3388 35.4496 60.4076 35.3208 60.4494 35.145Z" fill="white"/>
<path d="M61.3511 36.0276V33.6271H61.8519V36.0276H61.3511Z" fill="white"/>
<path d="M62.2291 34.8421C62.2291 34.5976 62.2669 34.3923 62.3425 34.2264C62.3989 34.1042 62.4756 33.9945 62.5726 33.8973C62.6707 33.8001 62.7778 33.7281 62.894 33.6812C63.0485 33.6178 63.2267 33.5862 63.4286 33.5862C63.794 33.5862 64.0862 33.6959 64.305 33.9153C64.5249 34.1347 64.6349 34.4398 64.6349 34.8306C64.6349 35.2181 64.526 35.5216 64.3084 35.741C64.0907 35.9593 63.7997 36.0685 63.4354 36.0685C63.0666 36.0685 62.7733 35.9599 62.5557 35.7427C62.338 35.5243 62.2291 35.2241 62.2291 34.8421ZM62.7451 34.8257C62.7451 35.0975 62.81 35.3038 62.9397 35.4447C63.0694 35.5844 63.2341 35.6542 63.4337 35.6542C63.6333 35.6542 63.7969 35.5849 63.9243 35.4463C64.0529 35.3066 64.1172 35.0975 64.1172 34.8192C64.1172 34.5441 64.0546 34.3389 63.9294 34.2035C63.8053 34.0681 63.6401 34.0005 63.4337 34.0005C63.2273 34.0005 63.0609 34.0692 62.9346 34.2068C62.8083 34.3432 62.7451 34.5495 62.7451 34.8257ZM63.1241 33.4896L63.3576 33H63.8905L63.4252 33.4896H63.1241Z" fill="white"/>
<path d="M65.0324 36.0276V33.6271H65.5197L66.5348 35.2302V33.6271H67V36.0276H66.4975L65.4977 34.4622V36.0276H65.0324Z" fill="white"/>
<path d="M10 40.9591L10.9525 38.5586H11.3061L12.3211 40.9591H11.9473L11.658 40.2321H10.6209L10.3485 40.9591H10ZM10.7156 39.9733H11.5565L11.2976 39.3086C11.2187 39.1066 11.16 38.9407 11.1217 38.8108C11.0901 38.9647 11.0455 39.1175 10.988 39.2693L10.7156 39.9733Z" fill="white"/>
<path d="M12.5698 40.9591V38.5586H12.898V40.6758H14.1195V40.9591H12.5698Z" fill="white"/>
<path d="M14.8825 40.9591L15.835 38.5586H16.1886L17.2037 40.9591H16.8298L16.5405 40.2321H15.5034L15.231 40.9591H14.8825ZM15.5982 39.9733H16.439L16.1801 39.3086C16.1012 39.1066 16.0425 38.9407 16.0042 38.8108C15.9726 38.9647 15.9281 39.1175 15.8705 39.2693L15.5982 39.9733Z" fill="white"/>
<path d="M17.476 40.9591V38.5586H17.8043V39.5443H19.0934V38.5586H19.4216V40.9591H19.0934V39.8276H17.8043V40.9591H17.476Z" fill="white"/>
<path d="M19.8699 39.79C19.8699 39.3915 19.9805 39.0799 20.2015 38.855C20.4226 38.629 20.7079 38.516 21.0576 38.516C21.2865 38.516 21.4929 38.569 21.6768 38.6749C21.8606 38.7808 22.0005 38.9287 22.0963 39.1186C22.1933 39.3075 22.2418 39.522 22.2418 39.7621C22.2418 40.0055 22.1911 40.2233 22.0896 40.4154C21.9881 40.6076 21.8443 40.7533 21.6582 40.8526C21.4721 40.9509 21.2713 41 21.0559 41C20.8224 41 20.6138 40.9454 20.4299 40.8363C20.2461 40.7271 20.1068 40.5781 20.012 40.3892C19.9173 40.2004 19.8699 40.0006 19.8699 39.79ZM20.2083 39.7949C20.2083 40.0841 20.2884 40.3123 20.4485 40.4793C20.6098 40.6452 20.8117 40.7282 21.0542 40.7282C21.3012 40.7282 21.5042 40.6441 21.6632 40.476C21.8234 40.3079 21.9035 40.0694 21.9035 39.7605C21.9035 39.5651 21.8691 39.3948 21.8003 39.2496C21.7326 39.1033 21.6328 38.9904 21.5008 38.9107C21.37 38.8299 21.2228 38.7895 21.0593 38.7895C20.8269 38.7895 20.6267 38.867 20.4587 39.022C20.2918 39.1759 20.2083 39.4335 20.2083 39.7949Z" fill="white"/>
<path d="M22.6716 40.9591V38.5586H23.7712C23.9923 38.5586 24.1603 38.5805 24.2754 38.6241C24.3904 38.6667 24.4823 38.7426 24.5511 38.8517C24.6199 38.9609 24.6543 39.0815 24.6543 39.2136C24.6543 39.3839 24.5974 39.5274 24.4835 39.6442C24.3696 39.761 24.1936 39.8353 23.9556 39.8669C24.0425 39.9073 24.1085 39.9471 24.1536 39.9864C24.2494 40.0716 24.3402 40.178 24.4259 40.3057L24.8574 40.9591H24.4446L24.1163 40.4597C24.0205 40.3156 23.9415 40.2053 23.8795 40.1289C23.8175 40.0525 23.7616 39.999 23.712 39.9684C23.6635 39.9379 23.6139 39.9166 23.5631 39.9046C23.5259 39.8969 23.465 39.8931 23.3804 39.8931H22.9998V40.9591H22.6716ZM22.9998 39.618H23.7052C23.8552 39.618 23.9725 39.6033 24.0571 39.5738C24.1417 39.5433 24.206 39.4952 24.25 39.4297C24.294 39.3631 24.316 39.2911 24.316 39.2136C24.316 39.1001 24.2731 39.0067 24.1874 38.9336C24.1028 38.8605 23.9686 38.8239 23.7848 38.8239H22.9998V39.618Z" fill="white"/>
<path d="M25.1754 40.9591V38.5586H26.2751C26.4961 38.5586 26.6642 38.5805 26.7792 38.6241C26.8943 38.6667 26.9862 38.7426 27.055 38.8517C27.1238 38.9609 27.1582 39.0815 27.1582 39.2136C27.1582 39.3839 27.1012 39.5274 26.9873 39.6442C26.8734 39.761 26.6975 39.8353 26.4595 39.8669C26.5463 39.9073 26.6123 39.9471 26.6574 39.9864C26.7533 40.0716 26.8441 40.178 26.9298 40.3057L27.3612 40.9591H26.9484L26.6202 40.4597C26.5243 40.3156 26.4454 40.2053 26.3834 40.1289C26.3213 40.0525 26.2655 39.999 26.2159 39.9684C26.1674 39.9379 26.1177 39.9166 26.067 39.9046C26.0298 39.8969 25.9689 39.8931 25.8843 39.8931H25.5036V40.9591H25.1754ZM25.5036 39.618H26.2091C26.3591 39.618 26.4764 39.6033 26.561 39.5738C26.6456 39.5433 26.7099 39.4952 26.7539 39.4297C26.7978 39.3631 26.8198 39.2911 26.8198 39.2136C26.8198 39.1001 26.777 39.0067 26.6913 38.9336C26.6067 38.8605 26.4725 38.8239 26.2886 38.8239H25.5036V39.618Z" fill="white"/>
<path d="M27.5744 39.79C27.5744 39.3915 27.6849 39.0799 27.906 38.855C28.127 38.629 28.4124 38.516 28.762 38.516C28.991 38.516 29.1974 38.569 29.3812 38.6749C29.5651 38.7808 29.7049 38.9287 29.8008 39.1186C29.8978 39.3075 29.9463 39.522 29.9463 39.7621C29.9463 40.0055 29.8955 40.2233 29.794 40.4154C29.6925 40.6076 29.5487 40.7533 29.3626 40.8526C29.1765 40.9509 28.9757 41 28.7603 41C28.5269 41 28.3182 40.9454 28.1344 40.8363C27.9505 40.7271 27.8112 40.5781 27.7165 40.3892C27.6217 40.2004 27.5744 40.0006 27.5744 39.79ZM27.9127 39.7949C27.9127 40.0841 27.9928 40.3123 28.153 40.4793C28.3143 40.6452 28.5161 40.7282 28.7586 40.7282C29.0056 40.7282 29.2087 40.6441 29.3677 40.476C29.5278 40.3079 29.6079 40.0694 29.6079 39.7605C29.6079 39.5651 29.5735 39.3948 29.5047 39.2496C29.437 39.1033 29.3372 38.9904 29.2053 38.9107C29.0744 38.8299 28.9273 38.7895 28.7637 38.7895C28.5314 38.7895 28.3312 38.867 28.1631 39.022C27.9962 39.1759 27.9127 39.4335 27.9127 39.7949Z" fill="white"/>
<path d="M31.3217 40.9591V38.5586H32.2522C32.4417 38.5586 32.5934 38.5832 32.7073 38.6323C32.8223 38.6803 32.912 38.7551 32.9763 38.8566C33.0417 38.9571 33.0744 39.0624 33.0744 39.1727C33.0744 39.2753 33.0456 39.3719 32.9881 39.4625C32.9306 39.5531 32.8438 39.6262 32.7276 39.6819C32.8776 39.7245 32.9926 39.797 33.0727 39.8997C33.1539 40.0023 33.1945 40.1234 33.1945 40.2632C33.1945 40.3756 33.1697 40.4804 33.1201 40.5775C33.0716 40.6736 33.0112 40.7478 32.9391 40.8002C32.8669 40.8526 32.7761 40.8925 32.6667 40.9198C32.5584 40.946 32.4253 40.9591 32.2674 40.9591H31.3217ZM31.6499 39.5673H32.1862C32.3317 39.5673 32.436 39.558 32.4992 39.5394C32.5827 39.5154 32.6453 39.4756 32.687 39.4199C32.7298 39.3642 32.7513 39.2944 32.7513 39.2103C32.7513 39.1306 32.7315 39.0608 32.6921 39.0007C32.6526 38.9396 32.5962 38.8981 32.5229 38.8763C32.4496 38.8534 32.3238 38.8419 32.1456 38.8419H31.6499V39.5673ZM31.6499 40.6758H32.2674C32.3734 40.6758 32.4479 40.672 32.4907 40.6643C32.5663 40.6512 32.6295 40.6294 32.6802 40.5988C32.731 40.5683 32.7727 40.5241 32.8054 40.4662C32.8381 40.4073 32.8545 40.3396 32.8545 40.2632C32.8545 40.1737 32.8308 40.0961 32.7834 40.0307C32.7361 39.9641 32.6701 39.9177 32.5855 39.8915C32.502 39.8642 32.3813 39.8505 32.2234 39.8505H31.6499V40.6758Z" fill="white"/>
<path d="M33.3739 40.9591L34.3263 38.5586H34.6799L35.695 40.9591H35.3211L35.0318 40.2321H33.9947L33.7224 40.9591H33.3739ZM34.0895 39.9733H34.9303L34.6715 39.3086C34.5925 39.1066 34.5339 38.9407 34.4955 38.8108C34.4639 38.9647 34.4194 39.1175 34.3619 39.2693L34.0895 39.9733Z" fill="white"/>
<path d="M35.9538 40.9591V38.5586H36.2905L37.5932 40.4433V38.5586H37.9079V40.9591H37.5712L36.2685 39.0728V40.9591H35.9538Z" fill="white"/>
<path d="M40.2307 40.1174L40.5589 40.1977C40.4901 40.4586 40.3661 40.6578 40.1867 40.7953C40.0085 40.9318 39.7903 41 39.532 41C39.2647 41 39.047 40.9476 38.879 40.8428C38.712 40.7369 38.5846 40.5841 38.4966 40.3843C38.4098 40.1846 38.3663 39.9701 38.3663 39.7408C38.3663 39.4909 38.4154 39.2731 38.5135 39.0875C38.6128 38.9008 38.7532 38.7595 38.9348 38.6634C39.1175 38.5663 39.3183 38.5177 39.5371 38.5177C39.7852 38.5177 39.9939 38.5788 40.163 38.7011C40.3322 38.8233 40.4501 38.9953 40.5166 39.2169L40.1935 39.2905C40.136 39.1159 40.0525 38.9887 39.9431 38.909C39.8337 38.8293 39.6961 38.7895 39.5303 38.7895C39.3397 38.7895 39.1801 38.8337 39.0515 38.9221C38.9241 39.0105 38.8344 39.1295 38.7825 39.2791C38.7306 39.4275 38.7047 39.5809 38.7047 39.7392C38.7047 39.9433 38.7352 40.1218 38.7961 40.2746C38.8581 40.4264 38.954 40.5399 39.0837 40.6152C39.2134 40.6905 39.3538 40.7282 39.5049 40.7282C39.6888 40.7282 39.8444 40.6769 39.9719 40.5743C40.0993 40.4717 40.1856 40.3194 40.2307 40.1174Z" fill="white"/>
<path d="M40.6926 40.9591L41.6451 38.5586H41.9986L43.0137 40.9591H42.6398L42.3505 40.2321H41.3135L41.0411 40.9591H40.6926ZM41.4082 39.9733H42.249L41.9902 39.3086C41.9112 39.1066 41.8526 38.9407 41.8142 38.8108C41.7826 38.9647 41.7381 39.1175 41.6806 39.2693L41.4082 39.9733Z" fill="white"/>
<path d="M43.281 40.9591V38.5586H44.3807C44.6017 38.5586 44.7698 38.5805 44.8848 38.6241C44.9999 38.6667 45.0918 38.7426 45.1606 38.8517C45.2294 38.9609 45.2638 39.0815 45.2638 39.2136C45.2638 39.3839 45.2068 39.5274 45.0929 39.6442C44.979 39.761 44.8031 39.8353 44.5651 39.8669C44.6519 39.9073 44.7179 39.9471 44.763 39.9864C44.8589 40.0716 44.9497 40.178 45.0354 40.3057L45.4668 40.9591H45.054L44.7258 40.4597C44.6299 40.3156 44.551 40.2053 44.489 40.1289C44.4269 40.0525 44.3711 39.999 44.3215 39.9684C44.273 39.9379 44.2234 39.9166 44.1726 39.9046C44.1354 39.8969 44.0745 39.8931 43.9899 39.8931H43.6092V40.9591H43.281ZM43.6092 39.618H44.3147C44.4647 39.618 44.582 39.6033 44.6666 39.5738C44.7512 39.5433 44.8155 39.4952 44.8595 39.4297C44.9035 39.3631 44.9254 39.2911 44.9254 39.2136C44.9254 39.1001 44.8826 39.0067 44.7969 38.9336C44.7123 38.8605 44.5781 38.8239 44.3942 38.8239H43.6092V39.618Z" fill="white"/>
<path d="M45.8356 40.9591V38.5586H46.1638V40.9591H45.8356Z" fill="white"/>
<path d="M46.6443 39.79C46.6443 39.3915 46.7548 39.0799 46.9759 38.855C47.197 38.629 47.4823 38.516 47.832 38.516C48.0609 38.516 48.2673 38.569 48.4511 38.6749C48.635 38.7808 48.7748 38.9287 48.8707 39.1186C48.9677 39.3075 49.0162 39.522 49.0162 39.7621C49.0162 40.0055 48.9655 40.2233 48.8639 40.4154C48.7624 40.6076 48.6186 40.7533 48.4325 40.8526C48.2464 40.9509 48.0457 41 47.8303 41C47.5968 41 47.3881 40.9454 47.2043 40.8363C47.0205 40.7271 46.8812 40.5781 46.7864 40.3892C46.6917 40.2004 46.6443 40.0006 46.6443 39.79ZM46.9827 39.7949C46.9827 40.0841 47.0627 40.3123 47.2229 40.4793C47.3842 40.6452 47.5861 40.7282 47.8286 40.7282C48.0756 40.7282 48.2786 40.6441 48.4376 40.476C48.5978 40.3079 48.6778 40.0694 48.6778 39.7605C48.6778 39.5651 48.6435 39.3948 48.5746 39.2496C48.507 39.1033 48.4072 38.9904 48.2752 38.9107C48.1444 38.8299 47.9972 38.7895 47.8336 38.7895C47.6013 38.7895 47.4011 38.867 47.2331 39.022C47.0661 39.1759 46.9827 39.4335 46.9827 39.7949Z" fill="white"/>
<path d="M28 10.5887C21.0596 7.22269 16.9236 7.05259 9 10.5887V12.9725C16.4576 9.56609 20.6161 9.64873 28 12.632V10.5887Z" fill="#E5E5E5"/>
<path d="M28 14.505C20.6183 12.2718 16.4572 12.3356 9 14.505V16.8888C16.3821 14.8732 20.5424 14.8468 28 16.8888V14.505Z" fill="#E5E5E5"/>
<path d="M28 18.9321C20.4656 17.3146 16.3077 17.3454 9 18.9321V20.9755C16.4209 19.8691 20.5792 19.8641 28 20.9755V18.9321Z" fill="#E5E5E5"/>
<path d="M28 22.6782C20.5046 22.352 16.344 22.3497 9 22.6782V24.8918C16.2303 25.3296 20.3917 25.3266 28 24.8918V22.6782Z" fill="#E5E5E5"/>
<path d="M28 26.7648C20.5798 27.496 16.4203 27.4839 9 26.7648V29.1487C16.3816 30.2505 20.543 30.2384 28 29.1487V26.7648Z" fill="#E5E5E5"/>
<rect x="17.5306" y="8.03448" width="2.32653" height="2.38386" fill="white"/>
<rect x="17.5306" y="12.9725" width="2.32653" height="2.38386" fill="white"/>
<rect x="17.5306" y="17.7402" width="2.32653" height="2.38386" fill="white"/>
<rect x="17.5306" y="22.5079" width="2.32653" height="2.72441" fill="white"/>
<rect x="17.5306" y="27.2756" width="2.32653" height="2.72441" fill="white"/>
<rect x="4.5" y="3.5" width="71" height="43" rx="1.5" stroke="white"/>
<path d="M67.8407 13.6563C67.445 13.0379 66.8929 12.5827 66.1891 12.2915C65.4926 11.9942 64.5771 11.85 63.4511 11.85H57.972H57.822V12V25.2311L52.1479 11.9411L52.109 11.85H52.01H49.9279H49.8264L49.7886 11.9442L44.18 25.9442L44.0976 26.15H44.3193H46.3714H46.4751L46.5117 26.0531L48.079 21.9099H53.9807L55.6464 26.0559L55.6842 26.15H55.7856H57.822H57.972H57.9872H58.2143H63.5408C64.4779 26.15 65.2741 26.0731 65.9268 25.9167L65.9278 25.9164C66.5858 25.7539 67.1392 25.5148 67.5833 25.1955C68.0312 24.8735 68.4008 24.4206 68.6951 23.8435M67.8407 13.6563C68.2402 14.264 68.4427 14.9065 68.4427 15.5812C68.4427 16.2098 68.2643 16.8011 67.9109 17.3524C67.6114 17.8197 67.1859 18.2074 66.6403 18.5175C67.3815 18.781 67.9708 19.1831 68.4002 19.728C68.9009 20.3548 69.15 21.0949 69.15 21.9413C69.15 22.6202 68.9985 23.255 68.6951 23.8435M67.8407 13.6563C67.8409 13.6567 67.8411 13.657 67.8413 13.6573L67.7149 13.7381L67.8402 13.6556C67.8404 13.6559 67.8405 13.6561 67.8407 13.6563ZM68.6951 23.8435C68.695 23.8435 68.695 23.8436 68.695 23.8437L68.5617 23.7749L68.6953 23.843C68.6952 23.8432 68.6951 23.8433 68.6951 23.8435ZM53.2642 20.101H48.7528L50.2768 16.1992L50.2772 16.1982C50.5498 15.4859 50.7735 14.7693 50.9481 14.0483C51.1665 14.7152 51.4575 15.5088 51.8205 16.4287L53.2642 20.101ZM53.2642 20.101L51.8206 16.4289L53.2642 20.101ZM30.85 26V26.15H31H32.9326H33.0826V26V12V11.85H32.9326H31H30.85V12V26ZM35.0141 26V26.15H35.1641H37.0968H37.2468V26V20.4583H40.8425C42.9184 20.4583 44.3999 20.0474 45.2343 19.1804L45.2347 19.18C46.0528 18.3232 46.4617 17.2765 46.4617 16.0491C46.4617 15.3331 46.3073 14.6728 45.997 14.071C45.6945 13.4715 45.2896 13.0019 44.7807 12.6676C44.2744 12.3287 43.6522 12.1029 42.9194 11.9857C42.3952 11.8945 41.6447 11.85 40.6732 11.85H35.1641H35.0141V12V26ZM43.7297 14.6953L43.7297 14.6953L43.7313 14.6974C44.0213 15.0819 44.1693 15.5488 44.1693 16.1064C44.1693 16.8794 43.9203 17.4613 43.4351 17.8734C42.9523 18.2836 42.1111 18.5062 40.8724 18.5062H37.2468V13.8021H40.8325C41.7098 13.8021 42.2929 13.844 42.598 13.9215C43.0692 14.0464 43.4448 14.3034 43.7297 14.6953ZM60.0547 17.8827V17.7327H59.9047V17.8827H60.0547ZM59.9047 13.8021H60.0547V13.6521H59.9047V13.8021ZM64.8304 24.1332L64.8297 24.1333C64.5917 24.1754 64.1652 24.1979 63.5408 24.1979H60.0547V19.6848H63.2818C64.2063 19.6848 64.8984 19.7643 65.3674 19.9163L65.3697 19.9169C65.8394 20.061 66.1993 20.3135 66.4574 20.6728L66.4581 20.6737C66.7163 21.0274 66.8476 21.4476 66.8476 21.9413C66.8476 22.3645 66.7564 22.7332 66.5781 23.0517C66.3969 23.3691 66.1687 23.6068 65.8947 23.7702C65.6156 23.9367 65.2623 24.059 64.8304 24.1332Z" fill="white" stroke="white" stroke-width="0.3"/>
</svg>
