<svg width="42" height="35" viewBox="0 0 42 35" fill="none" xmlns="http://www.w3.org/2000/svg">
<path d="M40.9909 30.1511C40.9899 30.146 40.9905 30.1406 40.9893 30.1355C40.9785 30.0872 40.9617 30.0399 40.9378 29.995L37.5434 23.6115V1.65171C37.5434 1.34223 37.2925 1.09131 36.983 1.09131H5.01701C4.70753 1.09131 4.4566 1.34223 4.4566 1.65171V23.6115L1.06217 29.995C1.03829 30.0399 1.02153 30.0872 1.01066 30.1355C1.00949 30.1406 1.01007 30.146 1.00908 30.1511C0.997111 30.2123 0.99776 30.2744 1.00645 30.3359C1.00765 30.3445 1.00446 30.3526 1.00607 30.3612L1.56648 33.3588C1.616 33.6243 1.8475 33.8164 2.1173 33.8164H39.8827C40.1525 33.8164 40.384 33.6243 40.4335 33.3588L40.9939 30.3612C40.9955 30.3526 40.9923 30.3445 40.9935 30.3359C41.0022 30.2744 41.0029 30.2123 40.9909 30.1511ZM5.57741 2.21212H36.4226V23.1909H5.57741V2.21212ZM5.35371 24.3117H36.6463L39.5103 29.6979H2.48972L5.35371 24.3117ZM39.4172 32.6955H2.58275L2.23175 30.8187H39.7682L39.4172 32.6955Z" fill="#002A61" stroke="#002A61" stroke-width="0.7"/>
<path d="M23.6286 26.6519H18.371C18.0615 26.6519 17.8105 26.9028 17.8105 27.2123C17.8105 27.5217 18.0615 27.7727 18.371 27.7727H23.6286C23.938 27.7727 24.189 27.5217 24.189 27.2123C24.189 26.9028 23.938 26.6519 23.6286 26.6519Z" fill="#002A61" stroke="#002A61" stroke-width="0.7"/>
<path d="M28.5336 7.40479H25.656V6.30943C25.656 5.99995 25.4051 5.74902 25.0956 5.74902C24.7862 5.74902 24.5352 5.99995 24.5352 6.30943V7.40479H17.4645V6.30943C17.4645 5.99995 17.2136 5.74902 16.9041 5.74902C16.5946 5.74902 16.3437 5.99995 16.3437 6.30943V7.40479H13.4662C13.1567 7.40479 12.9058 7.65571 12.9058 7.96519V19.0712C12.9058 19.3807 13.1567 19.6316 13.4662 19.6316H28.5336C28.8431 19.6316 29.094 19.3807 29.094 19.0712V7.96519C29.094 7.65571 28.8431 7.40479 28.5336 7.40479ZM27.9732 18.5108H14.0266V12.056H27.9732V18.5108ZM27.9732 10.9352H14.0266V8.52559H16.3437V9.63929C16.3437 9.94877 16.5946 10.1997 16.9041 10.1997C17.2136 10.1997 17.4645 9.94877 17.4645 9.63929V8.52559H24.5352V9.63929C24.5352 9.94877 24.7862 10.1997 25.0956 10.1997C25.4051 10.1997 25.656 9.94877 25.656 9.63929V8.52559H27.9732V10.9352Z" fill="#002A61" stroke="#002A61" stroke-width="0.7"/>
</svg>
