<svg width="37" height="48" viewBox="0 0 37 48" fill="none" xmlns="http://www.w3.org/2000/svg">
<path d="M6.2539 34.5299C5.4812 34.524 4.70948 34.5859 3.94762 34.715C3.85105 34.7338 3.75923 34.7718 3.67761 34.8267C3.596 34.8817 3.52625 34.9524 3.47252 35.0349C3.41878 35.1173 3.38215 35.2096 3.36479 35.3065C3.34744 35.4033 3.34971 35.5027 3.37148 35.5986C5.04388 42.9788 10.4234 44.0808 13.4813 44.0808C14.3346 44.0877 15.1861 43.9997 16.02 43.8186C16.1976 43.7744 16.3523 43.6656 16.4539 43.5134C16.5555 43.3612 16.5966 43.1766 16.5692 42.9956C15.4127 35.3546 8.97021 34.5299 6.2539 34.5299ZM9.16931 39.6042L13.746 42.6064C13.6585 42.6086 13.5727 42.6114 13.4813 42.6114C10.4241 42.6114 6.54267 41.4495 5.00406 36.0563C5.33768 36.0255 5.76387 35.9993 6.2539 35.9993C9.42615 35.9993 13.294 37.003 14.7192 41.4875L9.97503 38.3759C9.89438 38.3227 9.80403 38.286 9.70917 38.2678C9.6143 38.2496 9.51677 38.2502 9.42217 38.2698C9.32756 38.2893 9.23775 38.3273 9.15785 38.3816C9.07796 38.4359 9.00956 38.5055 8.95658 38.5862C8.9036 38.667 8.86707 38.7574 8.84908 38.8524C8.8311 38.9473 8.83201 39.0448 8.85177 39.1393C8.87153 39.2339 8.90975 39.3236 8.96424 39.4034C9.01873 39.4832 9.08842 39.5514 9.16931 39.6042Z" fill="#002A61"/>
<path d="M33.6155 34.715C32.8536 34.5859 32.0819 34.524 31.3092 34.5299C28.5929 34.5299 22.1504 35.3546 20.9939 42.9956C20.9665 43.1766 21.0076 43.3612 21.1092 43.5134C21.2108 43.6656 21.3655 43.7744 21.5431 43.8186C22.377 43.9997 23.2285 44.0877 24.0818 44.0808C27.1396 44.0808 32.5192 42.9788 34.1916 35.5986C34.2134 35.5027 34.2156 35.4033 34.1983 35.3065C34.1809 35.2096 34.1443 35.1173 34.0906 35.0349C34.0368 34.9524 33.9671 34.8817 33.8855 34.8267C33.8038 34.7718 33.712 34.7338 33.6155 34.715ZM24.0818 42.6114C23.9903 42.6114 23.9046 42.6086 23.8171 42.6064L28.3938 39.6042C28.5567 39.4974 28.6704 39.3302 28.7101 39.1394C28.7497 38.9487 28.7119 38.7501 28.6051 38.5872C28.4982 38.4243 28.331 38.3105 28.1403 38.2709C27.9496 38.2313 27.7509 38.269 27.588 38.3759L22.8438 41.4875C24.2691 37.003 28.1369 35.9993 31.3092 35.9993C31.7967 35.9993 32.224 36.0255 32.559 36.0567C31.02 41.4491 27.1386 42.6114 24.0818 42.6114Z" fill="#002A61"/>
<path d="M18.7816 35.9995C18.5867 35.9995 18.3998 36.0769 18.2621 36.2147C18.1243 36.3525 18.0469 36.5393 18.0469 36.7342V46.2851C18.0469 46.4799 18.1243 46.6668 18.2621 46.8046C18.3998 46.9423 18.5867 47.0198 18.7816 47.0198C18.9764 47.0198 19.1633 46.9423 19.3011 46.8046C19.4388 46.6668 19.5162 46.4799 19.5162 46.2851V36.7342C19.5162 36.5393 19.4388 36.3525 19.301 36.2147C19.1633 36.0769 18.9764 35.9995 18.7816 35.9995Z" fill="#002A61"/>
<path d="M13.3787 27.8369C13.552 27.9258 13.7536 27.9422 13.939 27.8824C14.1244 27.8227 14.2785 27.6917 14.3673 27.5184C14.4562 27.345 14.4726 27.1435 14.4128 26.9581C14.3531 26.7727 14.2221 26.6186 14.0488 26.5297C12.3798 25.6858 10.9773 24.3958 9.99714 22.803C9.01693 21.2102 8.49731 19.3769 8.49598 17.5067C8.52928 14.8007 9.62759 12.2169 11.5529 10.3151C13.4782 8.41339 16.0754 7.34695 18.7815 7.34695C21.4877 7.34695 24.0849 8.41339 26.0102 10.3151C27.9355 12.2169 29.0338 14.8007 29.0671 17.5067C29.0649 19.3685 28.5495 21.1936 27.5776 22.7815C26.6056 24.3694 25.2147 25.6586 23.5577 26.5075C23.4716 26.5516 23.395 26.6124 23.3324 26.6862C23.2699 26.76 23.2225 26.8455 23.193 26.9376C23.1635 27.0298 23.1526 27.1269 23.1608 27.2234C23.1689 27.3198 23.1961 27.4137 23.2407 27.4996C23.2852 27.5855 23.3463 27.6617 23.4204 27.724C23.4946 27.7862 23.5802 27.8332 23.6726 27.8622C23.7649 27.8912 23.8621 27.9017 23.9584 27.893C24.0548 27.8844 24.1486 27.8568 24.2343 27.8118C26.0477 26.8332 27.5696 25.3918 28.6452 23.6342C29.7208 21.8765 30.3117 19.8654 30.3578 17.8053C30.4039 15.7451 29.9035 13.7096 28.9076 11.9056C27.9117 10.1016 26.4558 8.59355 24.688 7.53484C22.9201 6.47613 20.9034 5.90452 18.8429 5.87815C16.7825 5.85179 14.7518 6.3716 12.9574 7.38473C11.163 8.39786 9.66899 9.86816 8.62725 11.6461C7.58552 13.424 7.03325 15.4461 7.02661 17.5067C7.02732 19.6474 7.6213 21.7461 8.7426 23.5696C9.8639 25.3932 11.4687 26.8703 13.3787 27.8369Z" fill="#002A61"/>
<path d="M23.557 29.3873C23.557 29.1924 23.4796 29.0056 23.3418 28.8678C23.204 28.73 23.0171 28.6526 22.8223 28.6526H14.7408C14.5459 28.6526 14.3591 28.73 14.2213 28.8678C14.0835 29.0056 14.0061 29.1924 14.0061 29.3873C14.0061 29.5821 14.0835 29.769 14.2213 29.9068C14.3591 30.0445 14.5459 30.122 14.7408 30.122H22.8223C23.0171 30.1219 23.204 30.0445 23.3418 29.9068C23.4796 29.769 23.557 29.5821 23.557 29.3873Z" fill="#002A61"/>
<path d="M16.2103 30.8567C16.0154 30.8567 15.8285 30.9341 15.6908 31.0719C15.553 31.2097 15.4756 31.3965 15.4756 31.5914C15.4756 31.7862 15.553 31.9731 15.6908 32.1109C15.8285 32.2487 16.0154 32.3261 16.2103 32.3261H21.353C21.5479 32.3261 21.7348 32.2487 21.8725 32.1109C22.0103 31.9731 22.0877 31.7862 22.0877 31.5914C22.0877 31.3965 22.0103 31.2097 21.8725 31.0719C21.7348 30.9341 21.5479 30.8567 21.353 30.8567H16.2103Z" fill="#002A61"/>
<path d="M20.2508 33.0608H17.3121C17.1172 33.0608 16.9304 33.1382 16.7926 33.276C16.6548 33.4138 16.5774 33.6006 16.5774 33.7955C16.5774 33.9903 16.6548 34.1772 16.7926 34.315C16.9304 34.4528 17.1172 34.5302 17.3121 34.5302H20.2508C20.4457 34.5302 20.6325 34.4528 20.7703 34.315C20.9081 34.1772 20.9855 33.9903 20.9855 33.7955C20.9855 33.6006 20.9081 33.4138 20.7703 33.276C20.6325 33.1382 20.4457 33.0608 20.2508 33.0608Z" fill="#002A61"/>
<path d="M18.8255 4.38745C19.0204 4.38744 19.2072 4.31004 19.345 4.17226C19.4828 4.03448 19.5602 3.84762 19.5602 3.65277V0.734683C19.5602 0.539833 19.4828 0.352963 19.345 0.215184C19.2072 0.0774038 19.0204 0 18.8255 0C18.6307 0 18.4438 0.0774038 18.306 0.215184C18.1682 0.352963 18.0908 0.539833 18.0908 0.734683V3.65277C18.0908 3.84762 18.1682 4.03448 18.306 4.17226C18.4438 4.31004 18.6307 4.38744 18.8255 4.38745Z" fill="#002A61"/>
<path d="M24.0702 5.28176C24.1591 5.31933 24.2546 5.33901 24.351 5.33967C24.4475 5.34033 24.5432 5.32196 24.6326 5.28561C24.722 5.24926 24.8034 5.19565 24.872 5.12783C24.9407 5.06002 24.9953 4.97933 25.0327 4.89039L26.1688 2.19774C26.2446 2.01821 26.2459 1.81594 26.1725 1.63544C26.0991 1.45494 25.957 1.31099 25.7774 1.23525C25.5979 1.15952 25.3956 1.15821 25.2151 1.23161C25.0346 1.30501 24.8907 1.4471 24.815 1.62664L23.6789 4.31929C23.6414 4.40818 23.6217 4.50359 23.6211 4.60007C23.6205 4.69655 23.6389 4.79221 23.6752 4.88158C23.7116 4.97096 23.7652 5.0523 23.8329 5.12096C23.9007 5.18962 23.9814 5.24426 24.0702 5.28176Z" fill="#002A61"/>
<path d="M29.0876 8.32938C29.2797 8.32973 29.4643 8.25448 29.6013 8.11989L31.6978 6.06921C31.767 6.0018 31.8222 5.9214 31.8603 5.83263C31.8983 5.74385 31.9185 5.64844 31.9197 5.55185C31.9209 5.45526 31.903 5.35938 31.867 5.26972C31.8311 5.18005 31.7778 5.09835 31.7103 5.0293C31.6427 4.96024 31.5622 4.90518 31.4734 4.86728C31.3845 4.82937 31.2891 4.80936 31.1925 4.80839C31.0959 4.80741 31.0001 4.8255 30.9105 4.86161C30.8209 4.89772 30.7393 4.95115 30.6703 5.01883L28.5739 7.06951C28.4696 7.17161 28.398 7.30247 28.3684 7.44541C28.3387 7.58835 28.3523 7.73689 28.4074 7.87207C28.4625 8.00725 28.5567 8.12295 28.6778 8.2044C28.799 8.28585 28.9416 8.32936 29.0876 8.32938Z" fill="#002A61"/>
<path d="M31.6083 12.4332C31.644 12.5228 31.6971 12.6045 31.7645 12.6736C31.8318 12.7427 31.9121 12.7979 32.0008 12.8359C32.0895 12.874 32.1848 12.8942 32.2813 12.8954C32.3778 12.8965 32.4736 12.8787 32.5632 12.8428L35.296 11.751C35.3856 11.7152 35.4673 11.6621 35.5364 11.5948C35.6054 11.5274 35.6606 11.4471 35.6986 11.3584C35.7367 11.2697 35.7569 11.1744 35.7581 11.078C35.7593 10.9815 35.7415 10.8857 35.7057 10.7961C35.6699 10.7065 35.6168 10.6248 35.5494 10.5558C35.482 10.4867 35.4017 10.4315 35.3131 10.3935C35.2244 10.3555 35.1291 10.3353 35.0326 10.334C34.9361 10.3328 34.8403 10.3506 34.7507 10.3864L32.0179 11.4782C31.837 11.5506 31.6923 11.6919 31.6154 11.8709C31.5386 12.05 31.536 12.2522 31.6083 12.4332Z" fill="#002A61"/>
<path d="M36.0554 16.8976L33.1092 16.8616H33.0998C32.9057 16.8616 32.7196 16.9384 32.5819 17.0753C32.4443 17.2121 32.3664 17.3979 32.3652 17.592C32.3641 17.7861 32.4398 17.9727 32.5759 18.1112C32.7119 18.2496 32.8972 18.3286 33.0912 18.3309L36.0375 18.367H36.0468C36.2409 18.3669 36.4271 18.2901 36.5648 18.1533C36.7024 18.0164 36.7803 17.8307 36.7814 17.6366C36.7826 17.4425 36.7069 17.2558 36.5708 17.1174C36.4348 16.9789 36.2495 16.8999 36.0554 16.8976Z" fill="#002A61"/>
<path d="M12.5303 4.89039C12.606 5.06993 12.75 5.21202 12.9305 5.28542C13.111 5.35882 13.3133 5.35751 13.4928 5.28178C13.6723 5.20605 13.8144 5.06209 13.8878 4.88159C13.9612 4.70109 13.9599 4.49882 13.8842 4.31929L12.7481 1.62664C12.6723 1.4471 12.5284 1.30501 12.3479 1.23161C12.1674 1.15821 11.9651 1.15952 11.7856 1.23525C11.606 1.31099 11.4639 1.45494 11.3905 1.63544C11.3171 1.81594 11.3185 2.01821 11.3942 2.19774L12.5303 4.89039Z" fill="#002A61"/>
<path d="M7.96147 8.11989C8.10084 8.25568 8.2884 8.33063 8.48298 8.32829C8.67756 8.32595 8.86326 8.24651 8.99933 8.1074C9.1354 7.96829 9.21072 7.78088 9.20876 7.5863C9.2068 7.39171 9.12772 7.20586 8.98888 7.06951L6.89247 5.01883C6.82354 4.95115 6.74195 4.89772 6.65235 4.86161C6.56276 4.8255 6.46692 4.80741 6.37033 4.80839C6.27374 4.80936 6.17828 4.82937 6.08943 4.86728C6.00058 4.90518 5.92008 4.96024 5.85253 5.0293C5.78499 5.09835 5.73172 5.18005 5.69579 5.26972C5.65986 5.35938 5.64196 5.45526 5.64312 5.55185C5.64428 5.64844 5.66448 5.74385 5.70256 5.83263C5.74065 5.9214 5.79586 6.0018 5.86505 6.06921L7.96147 8.11989Z" fill="#002A61"/>
<path d="M2.26685 11.751L4.99964 12.8429C5.08926 12.8788 5.18509 12.8967 5.28164 12.8955C5.37819 12.8944 5.47356 12.8743 5.56232 12.8362C5.65107 12.7982 5.73146 12.7431 5.79889 12.674C5.86632 12.6049 5.91947 12.5231 5.9553 12.4335C5.99113 12.3438 6.00893 12.248 6.0077 12.1514C6.00646 12.0549 5.98621 11.9595 5.94809 11.8708C5.90998 11.7821 5.85476 11.7018 5.78558 11.6344C5.7164 11.5671 5.63462 11.514 5.54492 11.4783L2.81209 10.3864C2.72245 10.3504 2.62659 10.3325 2.52999 10.3335C2.43339 10.3346 2.33796 10.3547 2.24915 10.3927C2.16034 10.4308 2.07989 10.4859 2.01241 10.555C1.94494 10.6242 1.89176 10.7059 1.85591 10.7956C1.82007 10.8853 1.80227 10.9812 1.80353 11.0778C1.80479 11.1744 1.82508 11.2698 1.86325 11.3586C1.90142 11.4473 1.95671 11.5276 2.02597 11.595C2.09522 11.6623 2.17708 11.7154 2.26685 11.751Z" fill="#002A61"/>
<path d="M5.19742 17.5873C5.19504 17.394 5.11664 17.2095 4.97919 17.0737C4.84175 16.9379 4.65634 16.8617 4.4631 16.8616H4.45377L1.50751 16.8976C1.31343 16.8999 1.12814 16.9789 0.992111 17.1174C0.856084 17.2558 0.78037 17.4425 0.781507 17.6366C0.782643 17.8307 0.860537 18.0164 0.998177 18.1533C1.13582 18.2901 1.32202 18.3669 1.51611 18.367H1.52544L4.4717 18.3309C4.66655 18.3285 4.85247 18.2488 4.98856 18.1094C5.12466 17.9699 5.19979 17.7821 5.19742 17.5873Z" fill="#002A61"/>
<path d="M15.8428 14.6937H12.9041C12.7093 14.6937 12.5224 14.7712 12.3846 14.9089C12.2468 15.0467 12.1694 15.2336 12.1694 15.4284V22.7752C12.1694 22.9701 12.2468 23.157 12.3846 23.2947C12.5224 23.4325 12.7093 23.5099 12.9041 23.5099H15.8428C15.9944 23.5097 16.1422 23.4623 16.2658 23.3745C16.3894 23.2867 16.4826 23.1626 16.5327 23.0195C16.7167 23.0797 16.9088 23.1113 17.1023 23.1132C17.1242 23.1132 17.1454 23.1128 17.1659 23.1123C17.375 23.2582 17.6055 23.3708 17.8492 23.4459C17.9841 23.4858 18.124 23.5062 18.2646 23.5063L18.5244 23.5067C18.5423 23.5072 18.5599 23.5076 18.5778 23.5076H19.7483L21.2669 23.5099H21.269C21.2966 23.5099 21.3243 23.5092 21.3519 23.5076H23.2409C23.8256 23.5023 24.3843 23.2654 24.7944 22.8487C25.2046 22.4321 25.4327 21.8697 25.4289 21.2851C25.4289 21.2327 25.4271 21.1807 25.4235 21.129C25.7168 20.7403 25.8751 20.2663 25.874 19.7793C25.8741 19.6806 25.8677 19.5821 25.8551 19.4842C26.0868 19.1231 26.2096 18.7029 26.2088 18.2739C26.2087 18.1562 26.1997 18.0387 26.1818 17.9223C26.3879 17.5756 26.4964 17.1797 26.4957 16.7763C26.4967 16.4925 26.4401 16.2113 26.3293 15.9499C26.2186 15.6885 26.0561 15.4522 25.8516 15.2554C25.647 15.0585 25.4047 14.9051 25.1393 14.8045C24.8739 14.7038 24.5908 14.658 24.3071 14.6697L22.4916 14.6681C22.5573 14.3482 22.5885 14.0221 22.5845 13.6956C22.5095 12.9455 22.3352 11.1968 20.9555 10.5244C20.645 10.3687 20.3027 10.287 19.9553 10.2856C19.9181 10.2856 19.8807 10.2867 19.8434 10.2887C19.3455 10.3203 18.873 10.5197 18.5028 10.8543C18.2086 11.1407 17.9857 11.4922 17.8521 11.8805C17.7185 12.2688 17.6779 12.683 17.7337 13.0899C17.737 13.1589 17.7405 13.2274 17.7405 13.2943V13.5901C17.5612 14.0245 16.9223 15.1273 16.7016 15.5082C16.6536 15.5913 16.6137 15.6602 16.5775 15.723V15.4284C16.5775 15.2336 16.5001 15.0467 16.3623 14.9089C16.2246 14.7712 16.0377 14.6937 15.8428 14.6937ZM15.1082 22.0406H13.6388V16.1631H15.1082V22.0406ZM16.9449 17.2845C17.1967 17.1266 17.4405 16.9561 17.6752 16.7737C17.7671 16.5581 19.2099 14.2299 19.2099 13.7707V13.2943C19.2099 12.8249 19.093 12.2929 19.4725 11.9584C19.5953 11.8425 19.7534 11.7712 19.9216 11.7559C19.9327 11.7554 19.9442 11.755 19.9553 11.755C20.0794 11.7575 20.2013 11.7884 20.3116 11.8452C20.9228 12.1431 21.0602 13.2199 21.1219 13.8382C21.0337 14.6191 20.8658 15.3891 20.6208 16.1358L24.3071 16.1391C24.3973 16.1282 24.4887 16.1365 24.5754 16.1636C24.6621 16.1906 24.7421 16.2357 24.8101 16.2959C24.878 16.3562 24.9325 16.4301 24.9698 16.5129C25.007 16.5958 25.0263 16.6855 25.0264 16.7763C25.0309 16.9716 24.9577 17.1607 24.8228 17.302C24.6879 17.4433 24.5024 17.5253 24.3071 17.5299H24.1288C24.3101 17.5655 24.4721 17.6662 24.5843 17.8131C24.6964 17.96 24.7509 18.1428 24.7374 18.3271C24.7239 18.5114 24.6435 18.6844 24.5112 18.8134C24.3789 18.9424 24.204 19.0185 24.0194 19.0274H23.7174C23.9078 19.0445 24.0846 19.1332 24.2121 19.2756C24.3397 19.418 24.4084 19.6035 24.4045 19.7946C24.4006 19.9857 24.3243 20.1683 24.191 20.3053C24.0578 20.4424 23.8774 20.5237 23.6865 20.533H23.2736C23.4639 20.5504 23.6405 20.6393 23.7677 20.7818C23.895 20.9243 23.9635 21.1098 23.9593 21.3009C23.9552 21.4919 23.8787 21.6742 23.7454 21.8111C23.6121 21.9479 23.4318 22.0291 23.2409 22.0383H21.269V22.0406L19.7483 22.0383H18.5778L18.5807 22.0373L18.2664 22.037C18.0157 21.9627 17.8313 21.7437 17.5916 21.6499C17.5377 21.6306 17.4807 21.6215 17.4234 21.6232C17.3176 21.6232 17.2046 21.6438 17.1023 21.6438C17.0486 21.6456 16.9951 21.6366 16.9449 21.6174V17.2845Z" fill="#002A61"/>
</svg>
