<svg width="258" height="28" viewBox="0 0 258 28" fill="none" xmlns="http://www.w3.org/2000/svg">
<g clip-path="url(#clip0_2415:293)">
<path d="M10.7616 16.1904C10.3954 16.1904 10.0442 16.3371 9.78528 16.5981C9.52634 16.8591 9.38086 17.2131 9.38086 17.5822C9.38086 17.9513 9.52634 18.3053 9.78528 18.5663C10.0442 18.8273 10.3954 18.9739 10.7616 18.9739C11.128 18.9739 11.4794 18.8274 11.7387 18.5664C11.998 18.3055 12.1441 17.9515 12.1447 17.5822C12.1447 17.3992 12.1089 17.218 12.0394 17.049C11.9698 16.88 11.8679 16.7265 11.7394 16.5972C11.611 16.4679 11.4585 16.3655 11.2907 16.2957C11.1229 16.2259 10.9431 16.1901 10.7616 16.1904Z" fill="#006FB9"/>
<path d="M34.1405 0.546633H1.10362C0.958799 0.546317 0.81535 0.574794 0.681467 0.630436C0.547584 0.686079 0.425895 0.767793 0.323383 0.8709C0.220872 0.974007 0.139559 1.09648 0.084068 1.23131C0.0285769 1.36614 -3.40708e-07 1.51069 0 1.65666V26.4216C-3.40708e-07 26.5675 0.0285769 26.7121 0.084068 26.8469C0.139559 26.9818 0.220872 27.1042 0.323383 27.2073C0.425895 27.3104 0.547584 27.3922 0.681467 27.4478C0.81535 27.5034 0.958799 27.5319 1.10362 27.5316H34.1405C34.285 27.5316 34.4281 27.5029 34.5615 27.4471C34.695 27.3913 34.8162 27.3094 34.9183 27.2063C35.0204 27.1032 35.1013 26.9808 35.1563 26.8462C35.2114 26.7115 35.2396 26.5672 35.2393 26.4216V1.65666C35.2396 1.511 35.2114 1.36671 35.1563 1.23205C35.1013 1.09739 35.0204 0.975006 34.9183 0.871899C34.8162 0.768792 34.695 0.686988 34.5615 0.631175C34.4281 0.575361 34.285 0.546633 34.1405 0.546633ZM31.4865 16.6793H30.0533V20.4284H28.62V18.5551H27.2273V20.4308H25.7941V16.6818H13.757C13.8467 16.9734 13.8918 17.277 13.8908 17.5823C13.8908 18.4125 13.5636 19.2087 12.9812 19.7957C12.3988 20.3827 11.609 20.7125 10.7853 20.7125C10.0892 20.7116 9.41348 20.4749 8.86677 20.0404C8.32007 19.6059 7.93405 18.9989 7.77071 18.3167C7.4803 18.4057 7.17846 18.4512 6.87492 18.4515C6.05131 18.4515 5.26144 18.1217 4.67906 17.5347C4.09668 16.9477 3.7695 16.1515 3.7695 15.3213C3.7695 14.4911 4.09668 13.6949 4.67906 13.1079C5.26144 12.5209 6.05131 12.1911 6.87492 12.1911C7.17826 12.1918 7.47993 12.2364 7.77071 12.3235C7.93451 11.6418 8.32072 11.0353 8.86738 10.6013C9.41405 10.1672 10.0895 9.93089 10.7853 9.93009C11.609 9.93009 12.3988 10.2599 12.9812 10.8469C13.5636 11.4339 13.8908 12.2301 13.8908 13.0603C13.8916 13.3656 13.8465 13.6692 13.757 13.9609H31.5032L31.4865 16.6793Z" fill="#006FB9"/>
<path d="M6.86065 13.9246C6.49383 13.9246 6.14201 14.0714 5.88263 14.3329C5.62325 14.5944 5.47754 14.949 5.47754 15.3187C5.47754 15.6887 5.62317 16.0435 5.88248 16.3054C6.1418 16.5672 6.49361 16.7146 6.86065 16.7153C7.22708 16.7134 7.57788 16.5655 7.83655 16.3038C8.09521 16.0422 8.24072 15.6881 8.24134 15.3187C8.24072 14.9496 8.09513 14.5957 7.8364 14.3344C7.57767 14.0732 7.22687 13.9258 6.86065 13.9246Z" fill="#006FB9"/>
<path d="M10.7616 11.666C10.5801 11.666 10.4003 11.7021 10.2327 11.7722C10.065 11.8423 9.91268 11.945 9.78443 12.0745C9.65619 12.204 9.55453 12.3577 9.48528 12.5268C9.41604 12.696 9.38055 12.8772 9.38086 13.0602C9.38149 13.4291 9.52718 13.7827 9.78598 14.0436C10.0448 14.3044 10.3956 14.4513 10.7616 14.4519C11.1278 14.4513 11.4789 14.3045 11.7381 14.0437C11.9972 13.7829 12.1434 13.4293 12.1447 13.0602C12.1447 12.6904 11.999 12.3358 11.7396 12.0744C11.4802 11.8129 11.1284 11.666 10.7616 11.666Z" fill="#006FB9"/>
<path d="M58.8641 9.95898C55.5628 9.95898 52.8301 12.3524 52.8301 15.8462C52.8301 19.34 55.5628 21.7335 58.8641 21.7335C60.0799 21.7424 61.2726 21.398 62.2992 20.7414V21.7335H64.903V15.8462C64.903 12.3765 62.1654 9.95898 58.8641 9.95898ZM58.8952 19.3136H58.8331C58.3809 19.3216 57.9319 19.237 57.5131 19.0651C57.0943 18.8932 56.7144 18.6375 56.3964 18.3134C56.0785 17.9893 55.829 17.6035 55.6631 17.1795C55.4973 16.7554 55.4185 16.3019 55.4315 15.8462C55.4315 13.944 56.8217 12.3765 58.8355 12.3765H58.888C59.3414 12.3668 59.7919 12.4502 60.2123 12.6215C60.6327 12.7928 61.0141 13.0485 61.3334 13.3731C61.6527 13.6976 61.9032 14.0842 62.0696 14.5094C62.236 14.9345 62.315 15.3894 62.3016 15.8462C62.3146 16.3021 62.2357 16.7558 62.0697 17.18C61.9037 17.6043 61.654 17.9901 61.3358 18.3143C61.0176 18.6384 60.6374 18.8941 60.2183 19.0659C59.7992 19.2376 59.3499 19.3219 58.8976 19.3136" fill="#006FB9"/>
<path d="M71.7733 10.0384C70.8013 10.0383 69.8476 10.3046 69.0143 10.809V9.95898H66.3604V21.7335H69.0143V15.4947C69.0149 14.7571 69.3057 14.0498 69.8229 13.528C70.3402 13.0062 71.0416 12.7125 71.7733 12.7112C72.1366 12.7102 72.4964 12.7815 72.8323 12.921C73.1681 13.0604 73.4734 13.2653 73.7306 13.5239C73.9878 13.7825 74.1918 14.0896 74.331 14.4278C74.4703 14.766 74.5419 15.1285 74.5419 15.4947V21.7335H77.1982V15.4947C77.1963 14.0482 76.6254 12.6615 75.6107 11.6386C74.596 10.6158 73.2203 10.0404 71.7853 10.0384" fill="#006FB9"/>
<path d="M46.1153 5.88232C49.1395 5.88232 50.9191 7.67619 50.9191 10.1635C50.939 10.9105 50.7236 11.6447 50.3039 12.2607C49.8842 12.8766 49.2817 13.3428 48.5829 13.5923C49.4095 13.8092 50.1389 14.3019 50.6521 14.9901C51.1653 15.6784 51.432 16.5216 51.4088 17.3823C51.4088 19.937 49.45 21.7743 46.5142 21.7743H40.688V5.88232H46.1153ZM45.7594 12.6075C47.3145 12.6075 48.2485 11.7094 48.2485 10.3874C48.2485 9.06552 47.3145 8.16739 45.6925 8.16739H43.3347V12.6075H45.7594ZM46.0484 19.4868C47.6537 19.4868 48.6952 18.6127 48.6952 17.2017C48.6952 15.834 47.7827 14.8709 46.1392 14.8709H43.3347V19.4868H46.0484Z" fill="#006FB9"/>
<path d="M152.251 20.6137C152.251 20.7735 152.22 20.9316 152.158 21.0789C152.097 21.2263 152.008 21.3599 151.895 21.4719C151.782 21.584 151.648 21.6722 151.501 21.7316C151.353 21.791 151.196 21.8202 151.038 21.8177C150.879 21.8205 150.721 21.7915 150.574 21.7323C150.427 21.6731 150.292 21.5849 150.179 21.4728C150.066 21.3607 149.976 21.227 149.915 21.0795C149.853 20.932 149.822 20.7737 149.822 20.6137C149.823 20.4548 149.856 20.2978 149.918 20.1517C149.98 20.0056 150.07 19.8733 150.183 19.7625C150.296 19.6517 150.43 19.5645 150.577 19.5061C150.723 19.4476 150.88 19.419 151.038 19.4218C151.195 19.4193 151.352 19.4481 151.498 19.5068C151.644 19.5654 151.778 19.6526 151.89 19.7633C152.003 19.8741 152.093 20.0063 152.155 20.1522C152.217 20.2982 152.25 20.455 152.251 20.6137ZM150.123 20.6137C150.118 20.739 150.138 20.864 150.182 20.9811C150.226 21.0983 150.294 21.2051 150.38 21.2952C150.466 21.3853 150.57 21.4567 150.685 21.5051C150.8 21.5536 150.923 21.578 151.047 21.5769C151.169 21.5755 151.29 21.5491 151.402 21.4993C151.513 21.4496 151.614 21.3775 151.697 21.2875C151.78 21.1975 151.845 21.0913 151.886 20.9755C151.928 20.8597 151.945 20.7366 151.938 20.6137C151.944 20.4895 151.925 20.3655 151.882 20.249C151.839 20.1325 151.773 20.026 151.687 19.936C151.602 19.846 151.5 19.7743 151.387 19.7252C151.273 19.6762 151.151 19.6508 151.028 19.6506C150.905 19.6524 150.784 19.679 150.672 19.7286C150.56 19.7783 150.458 19.8502 150.374 19.9399C150.29 20.0296 150.224 20.1355 150.181 20.2512C150.138 20.3669 150.118 20.4902 150.123 20.6137ZM150.854 21.2422H150.579V20.0382C150.729 20.0117 150.881 19.9996 151.033 20.0021C151.176 19.9898 151.319 20.0208 151.444 20.0912C151.481 20.1231 151.511 20.163 151.531 20.208C151.55 20.2531 151.56 20.302 151.558 20.3513C151.554 20.4172 151.529 20.4799 151.485 20.5296C151.442 20.5793 151.384 20.6131 151.32 20.6258V20.6426C151.378 20.6665 151.429 20.7064 151.467 20.7579C151.504 20.8093 151.527 20.8703 151.532 20.934C151.547 21.0377 151.577 21.1384 151.623 21.2325H151.327C151.281 21.1396 151.249 21.0407 151.231 20.9388C151.21 20.8088 151.138 20.751 150.992 20.751H150.863L150.854 21.2422ZM150.854 20.5656H150.983C151.136 20.5656 151.257 20.515 151.257 20.3898C151.257 20.2646 151.179 20.2092 151.004 20.2092C150.954 20.2089 150.903 20.2129 150.854 20.2212V20.5656Z" fill="#006FB9"/>
<path d="M98.7952 10.019C95.5417 10.019 92.8376 12.3836 92.8233 15.8316C92.809 19.2797 95.5346 21.6418 98.7952 21.6418C102.056 21.6418 104.753 19.2773 104.767 15.8316C104.782 12.386 102.049 10.019 98.7952 10.019ZM98.8263 19.2556H98.7737C98.3266 19.2643 97.8824 19.1814 97.468 19.012C97.0536 18.8426 96.6776 18.5902 96.3627 18.2702C96.0479 17.9501 95.8007 17.5689 95.6362 17.1498C95.4717 16.7307 95.3932 16.2822 95.4056 15.8316C95.4056 13.9535 96.7743 12.4052 98.7642 12.4052H98.8263C100.816 12.4052 102.185 13.9535 102.185 15.8316C102.185 17.7098 100.819 19.2653 98.8263 19.2653V19.2556Z" fill="#006FB9"/>
<path d="M90.308 17.2161C89.8073 17.8269 89.179 18.3186 88.4679 18.6562C87.7568 18.9938 86.9805 19.1689 86.1945 19.1689C84.7714 19.1689 83.4064 18.5992 82.3999 17.5851C81.3933 16.5709 80.8276 15.1954 80.8269 13.7608C80.8244 13.0488 80.9614 12.3433 81.2301 11.6848C81.4987 11.0263 81.8937 10.4277 82.3924 9.92344C82.8911 9.41918 83.4837 9.01916 84.1362 8.74631C84.7886 8.47347 85.4881 8.33318 86.1945 8.3335C86.9732 8.33475 87.7422 8.50785 88.4475 8.84063C89.1528 9.17341 89.7772 9.65781 90.2769 10.2598L92.145 8.61041C91.3911 7.74387 90.462 7.05011 89.4199 6.5758C88.3779 6.10149 87.2471 5.85763 86.1037 5.86062C81.7036 5.86062 78.1348 9.40019 78.1348 13.7608C78.1348 18.1215 81.7036 21.6611 86.1037 21.6611C87.2542 21.6643 88.3918 21.4173 89.4389 20.9369C90.486 20.4565 91.418 19.7541 92.1712 18.8776L90.308 17.2161Z" fill="#006FB9"/>
<path d="M124.589 10.019C121.331 10.019 118.617 12.4077 118.617 15.8389V26.3925H121.195V20.6715C122.208 21.3222 123.387 21.6634 124.589 21.6539C127.85 21.6539 130.561 19.2845 130.561 15.834C130.561 12.3836 127.85 10.019 124.589 10.019ZM124.62 19.2677H124.558C122.566 19.2677 121.195 17.717 121.195 15.8389C121.195 13.9607 122.566 12.4076 124.558 12.4076H124.62C126.61 12.4076 127.984 13.9559 127.984 15.8389C127.984 17.7218 126.617 19.2629 124.62 19.2629V19.2677Z" fill="#006FB9"/>
<path d="M111.687 10.019C108.427 10.019 105.715 12.4077 105.715 15.8389V26.3925H108.288V20.6715C109.302 21.3222 110.481 21.6634 111.683 21.6539C114.943 21.6539 117.654 19.2845 117.654 15.834C117.654 12.3836 114.948 10.019 111.687 10.019ZM111.716 19.2677H111.656C109.664 19.2677 108.293 17.717 108.293 15.8389C108.293 13.9607 109.664 12.4076 111.656 12.4076H111.709C112.157 12.399 112.602 12.4821 113.017 12.6518C113.433 12.8216 113.809 13.0745 114.125 13.3952C114.44 13.716 114.688 14.0979 114.853 14.5179C115.018 14.938 115.096 15.3873 115.084 15.8389C115.095 16.2892 115.016 16.7372 114.851 17.1558C114.687 17.5745 114.439 17.9552 114.125 18.2751C113.81 18.595 113.434 18.8474 113.02 19.0171C112.607 19.1869 112.163 19.2705 111.716 19.2629V19.2677Z" fill="#006FB9"/>
<path d="M136.732 10.019C133.707 10.019 131.202 12.386 131.199 15.8389C131.197 19.2917 133.707 21.6587 136.732 21.6587C138.552 21.6587 140.465 21.088 141.478 19.6481L139.964 18.1239C139.597 18.5345 139.146 18.859 138.642 19.0745C138.137 19.29 137.592 19.3913 137.045 19.3712C135.062 19.3712 133.736 18.1938 133.736 16.5227H142.226C142.247 16.3012 142.262 16.07 142.262 15.8389C142.259 12.3812 140.109 10.019 136.732 10.019ZM133.784 14.6759C133.784 13.6453 135.117 12.2367 136.889 12.2367C138.062 12.2367 139.617 13.13 139.617 14.6759H133.784Z" fill="#006FB9"/>
<path d="M145.799 15.8341V6.02686H143.222V15.8341C143.222 19.246 145.873 21.613 149.089 21.6515V19.2605C147.139 19.2244 145.799 17.6906 145.799 15.8341Z" fill="#006FB9"/>
<path d="M171.856 4.60132H180.618V6.47705H173.891V11.0785H180.425V12.9542H173.891V19.1689H180.618V21.0422H171.856V4.60132Z" fill="#006FB9"/>
<path d="M184.88 12.1236H184.923C185.486 11.2303 186.502 10.532 187.605 10.532C188.926 10.532 189.877 11.2086 190.527 12.3427C190.846 11.7971 191.3 11.3437 191.844 11.0265C192.388 10.7093 193.004 10.539 193.632 10.532C196.293 10.532 196.976 12.6268 196.976 14.9384V21.0423H195.027V15.2634C195.027 13.956 194.855 12.2777 193.147 12.2777C191.069 12.2777 190.918 14.4568 190.918 16.0267V21.0423H188.972V15.6343C188.972 14.3051 188.907 12.2777 187.111 12.2777C185.032 12.2777 184.86 14.4448 184.86 16.0267V21.0423H182.914V10.8378H184.86L184.88 12.1236Z" fill="#006FB9"/>
<path d="M201.472 12.5377H201.515C202.315 11.3169 203.527 10.532 205.041 10.532C207.963 10.532 209.802 13.0843 209.802 15.875C209.802 18.7982 208.07 21.3915 204.955 21.3915C204.268 21.3783 203.594 21.1943 202.994 20.8557C202.394 20.5172 201.886 20.0346 201.515 19.4507H201.472V26.8862H199.525V10.8378H201.472V12.5377ZM207.855 15.9401C207.855 13.956 206.661 12.2777 204.566 12.2777C202.554 12.2777 201.365 14.0427 201.365 15.9401C201.365 17.8375 202.511 19.6482 204.566 19.6482C206.685 19.6506 207.855 17.9458 207.855 15.9401Z" fill="#006FB9"/>
<path d="M213.868 12.4944H213.932C214.41 11.2905 215.404 10.532 216.701 10.532C217.271 10.5447 217.827 10.7191 218.304 11.0352L217.415 12.8219C217.084 12.5344 216.657 12.3861 216.221 12.4077C214.123 12.4077 213.863 14.3701 213.863 16.0195V21.0351H211.916V10.8378H213.863L213.868 12.4944Z" fill="#006FB9"/>
<path d="M220.64 16.2796C220.661 18.0253 221.834 19.6506 223.69 19.6506C225.181 19.6506 225.981 18.8873 226.717 17.6665L228.363 18.6032C227.908 19.4568 227.23 20.1683 226.402 20.6604C225.574 21.1524 224.627 21.4061 223.666 21.3939C220.573 21.3939 218.693 19.039 218.693 16.0292C218.693 12.8989 220.365 10.5344 223.623 10.5344C226.848 10.5344 228.363 12.9423 228.363 15.9642V16.2796H220.64ZM226.416 14.7963C226.177 13.2698 225.181 12.2464 223.623 12.2464C222.109 12.2464 220.996 13.3348 220.757 14.7963H226.416Z" fill="#006FB9"/>
<path d="M234.182 13.1711C234.068 12.9155 233.887 12.6967 233.657 12.539C233.428 12.3812 233.16 12.2908 232.882 12.2777C232.612 12.2749 232.351 12.3775 232.153 12.5642C231.956 12.7508 231.838 13.0071 231.824 13.2794C231.824 14.1751 232.99 14.5676 234.182 15.1118C235.374 15.656 236.518 16.3976 236.518 18.0012C236.518 19.9396 234.917 21.3723 233.035 21.3723C231.564 21.3723 230.071 20.5223 229.531 19.0824L231.203 18.3191C231.614 19.0824 232.111 19.629 233.042 19.629C233.864 19.629 234.578 19.0607 234.578 18.1842C234.578 17.6401 234.318 17.3776 233.862 17.0718L231.951 16.0485C230.825 15.4369 230.004 14.871 230.004 13.4744C230.005 13.0819 230.084 12.6935 230.235 12.3316C230.386 11.9697 230.606 11.6415 230.884 11.3658C231.161 11.0901 231.489 10.8724 231.85 10.7252C232.212 10.578 232.598 10.5041 232.987 10.508C233.572 10.5035 234.144 10.6701 234.636 10.9878C235.128 11.3054 235.518 11.7602 235.758 12.297L234.182 13.1711Z" fill="#006FB9"/>
<path d="M248.003 21.0423H246.056V19.4507H246.013C245.235 20.6065 244.023 21.3915 242.573 21.3915C239.48 21.3915 237.729 18.7982 237.729 15.875C237.729 13.0843 239.566 10.532 242.507 10.532C244 10.532 245.211 11.3169 246.011 12.5377H246.054V10.8378H248.001L248.003 21.0423ZM246.166 15.9401C246.166 13.956 244.972 12.2777 242.877 12.2777C240.865 12.2777 239.676 14.0427 239.676 15.9401C239.676 17.8375 240.822 19.6482 242.877 19.6482C244.996 19.6506 246.166 17.9458 246.166 15.9401Z" fill="#006FB9"/>
<path d="M254.69 13.1711C254.576 12.9155 254.395 12.6967 254.165 12.539C253.936 12.3812 253.667 12.2908 253.39 12.2777C253.119 12.2749 252.858 12.3774 252.66 12.564C252.463 12.7506 252.344 13.0069 252.329 13.2794C252.329 14.1751 253.498 14.5676 254.69 15.1118C255.882 15.656 257.026 16.3976 257.026 18.0012C257.026 19.9396 255.423 21.3723 253.543 21.3723C252.071 21.3723 250.578 20.5223 250.039 19.0824L251.711 18.3191C252.122 19.0824 252.618 19.629 253.55 19.629C254.372 19.629 255.086 19.0607 255.086 18.1842C255.086 17.6401 254.826 17.3776 254.369 17.0718L252.458 16.0485C251.333 15.4369 250.512 14.871 250.512 13.4744C250.513 13.0819 250.592 12.6935 250.743 12.3316C250.894 11.9697 251.114 11.6415 251.391 11.3658C251.669 11.0901 251.997 10.8724 252.358 10.7252C252.719 10.578 253.106 10.5041 253.495 10.508C254.079 10.5035 254.652 10.6701 255.144 10.9878C255.636 11.3054 256.026 11.7602 256.266 12.297L254.69 13.1711Z" fill="#006FB9"/>
<path d="M160.105 0V27.6784" stroke="#006FB9" stroke-width="2.10508" stroke-miterlimit="10"/>
</g>
<defs>
<clipPath id="clip0_2415:293">
<rect width="257.023" height="27.6784" fill="white"/>
</clipPath>
</defs>
</svg>
