<svg width="242" height="26" viewBox="0 0 242 26" fill="none" xmlns="http://www.w3.org/2000/svg">
<path d="M151.178 0H149.919V26H151.178V0Z" fill="#FCDA47"/>
<path d="M161.543 4.45715H169.446V6.00001H163.261V10.5143H169.274V12.0572H163.261V18H169.446V19.5429H161.543V4.45715Z" fill="#225AA7"/>
<path d="M173.912 11.2C174.485 10.4 175.287 9.88574 176.203 9.88574C177.291 9.88574 178.322 10.4572 178.837 11.4286C179.41 10.4 180.555 9.88574 181.7 9.88574C184.106 9.88574 184.735 11.8286 184.735 13.8286V19.6H183.132V14.1143C183.132 12.9143 183.075 11.3715 181.414 11.3715C179.582 11.3715 179.353 13.1429 179.353 14.5715V19.6H177.749V14.2857C177.749 13.1429 177.635 11.4286 176.031 11.4286C174.142 11.4286 173.912 13.3143 173.912 14.7429V19.6H172.309V10.1715H173.912V11.2Z" fill="#225AA7"/>
<path d="M189.317 11.5429C190.118 10.5143 191.321 9.94287 192.638 9.94287C195.444 9.94287 197.162 12.3429 197.162 14.9714C197.162 17.6572 195.444 19.9429 192.638 19.9429C191.321 19.9429 190.176 19.3714 189.374 18.3429H189.317V24.9714H187.713V10.1714H189.317V11.5429ZM189.202 14.8C189.202 16.6286 190.29 18.4 192.294 18.4C194.356 18.4 195.444 16.7429 195.444 14.8C195.444 12.9143 194.241 11.3714 192.237 11.3714C190.462 11.4286 189.202 13.0286 189.202 14.8Z" fill="#225AA7"/>
<path d="M200.941 11.2C201.571 10.4572 202.029 9.88574 203.06 9.88574C203.576 9.88574 204.034 10.0572 204.492 10.3429L203.747 11.8286C203.404 11.6 203.175 11.4286 202.774 11.4286C200.999 11.4286 200.941 13.7143 200.941 14.9143V19.6572H199.338V10.1715H200.941V11.2Z" fill="#225AA7"/>
<path d="M206.954 15.2572C206.954 17.0286 208.214 18.4 210.046 18.4C211.421 18.4 212.28 17.6 212.91 16.4572L214.284 17.2572C213.368 18.9714 211.822 19.8857 209.932 19.8857C207.126 19.8857 205.293 17.7143 205.293 15.0286C205.293 12.2286 206.897 9.94287 209.875 9.94287C212.91 9.94287 214.513 12.4572 214.341 15.2572H206.954V15.2572ZM212.681 13.8857C212.452 12.5143 211.306 11.4286 209.875 11.4286C208.5 11.4286 207.183 12.5143 207.011 13.8857H212.681Z" fill="#225AA7"/>
<path d="M220.411 12.4C220.182 11.8857 219.724 11.4286 219.094 11.4286C218.522 11.4286 217.949 11.8857 217.949 12.4572C217.949 13.3143 219.037 13.6572 220.125 14.1143C221.213 14.5715 222.301 15.2572 222.301 16.8C222.301 18.5715 220.869 19.8857 219.094 19.8857C217.491 19.8857 216.231 18.9715 215.773 17.4857L217.204 16.8572C217.605 17.7143 218.063 18.3429 219.151 18.3429C220.01 18.3429 220.698 17.7715 220.698 16.9143C220.698 14.8 216.403 15.5429 216.403 12.5715C216.403 10.9715 217.72 9.88574 219.209 9.88574C220.297 9.88574 221.328 10.6286 221.728 11.6572L220.411 12.4Z" fill="#225AA7"/>
<path d="M233.296 19.6572H231.692V18.3429H231.635C230.833 19.3715 229.688 19.8857 228.371 19.8857C225.565 19.8857 223.847 17.5429 223.847 14.9143C223.847 12.2286 225.565 9.88574 228.371 9.88574C229.688 9.88574 230.833 10.5143 231.635 11.4857H231.692V10.1143H233.296V19.6572ZM225.508 14.8C225.508 16.6286 226.596 18.4 228.6 18.4C230.662 18.4 231.75 16.7429 231.75 14.8C231.75 12.9143 230.547 11.3715 228.543 11.3715C226.71 11.4286 225.508 13.0286 225.508 14.8Z" fill="#225AA7"/>
<path d="M240.11 12.4C239.881 11.8857 239.423 11.4286 238.793 11.4286C238.221 11.4286 237.648 11.8857 237.648 12.4572C237.648 13.3143 238.736 13.6572 239.824 14.1143C240.912 14.5715 242 15.2572 242 16.8C242 18.5715 240.568 19.8857 238.793 19.8857C237.19 19.8857 235.93 18.9715 235.472 17.4857L236.903 16.8572C237.304 17.7143 237.762 18.3429 238.85 18.3429C239.709 18.3429 240.397 17.7715 240.397 16.9143C240.397 14.8 236.102 15.5429 236.102 12.5715C236.102 10.9715 237.419 9.88574 238.908 9.88574C239.996 9.88574 241.027 10.6286 241.427 11.6572L240.11 12.4Z" fill="#225AA7"/>
<path d="M32.1827 0.571411H1.03076C0.458116 0.571411 0 1.02855 0 1.59998V24.7428C0 25.3143 0.458116 25.7714 1.03076 25.7714H32.1827C32.7553 25.7714 33.2134 25.3143 33.2134 24.7428V1.59998C33.2707 1.02855 32.7553 0.571411 32.1827 0.571411Z" fill="#225AA7"/>
<path d="M10.1358 17.7714C9.39138 17.7714 8.81874 17.2 8.81874 16.4571C8.81874 15.7143 9.39138 15.1428 10.1358 15.1428C10.8803 15.1428 11.4529 15.7143 11.4529 16.4571C11.4529 17.2 10.8803 17.7714 10.1358 17.7714ZM5.15381 14.3428C5.15381 13.6 5.72645 13.0286 6.47089 13.0286C7.21533 13.0286 7.78797 13.6 7.78797 14.3428C7.78797 15.0857 7.21533 15.6571 6.47089 15.6571C5.72645 15.6571 5.15381 15.0857 5.15381 14.3428ZM10.1358 10.9143C10.8803 10.9143 11.4529 11.4857 11.4529 12.2286C11.4529 12.9714 10.8803 13.5428 10.1358 13.5428C9.39138 13.5428 8.81874 12.9714 8.81874 12.2286C8.81874 11.4857 9.44865 10.9143 10.1358 10.9143ZM29.7203 13.0857H12.9418C12.999 12.8 13.0563 12.5143 13.0563 12.2286C13.0563 10.6286 11.7392 9.31427 10.1358 9.31427C8.76147 9.31427 7.61618 10.2857 7.27259 11.5428C6.98627 11.4857 6.69995 11.4286 6.41363 11.4286C4.81022 11.4286 3.49313 12.7428 3.49313 14.3428C3.49313 15.9428 4.81022 17.2571 6.41363 17.2571C6.69995 17.2571 6.98627 17.2 7.27259 17.1428C7.55892 18.4 8.76147 19.3714 10.1358 19.3714C11.7392 19.3714 13.0563 18.0571 13.0563 16.4571C13.0563 16.1714 12.999 15.8857 12.9418 15.6H24.2802V19.0857H25.6545V17.3143H26.9716V19.0857H28.3459V15.6H29.7203V13.0857Z" fill="#FCDA47"/>
<path d="M55.7757 18.1142C55.7184 18.1142 55.7184 18.1142 55.7757 18.1142C55.7184 18.1142 55.7184 18.1142 55.7184 18.1142C53.8287 18.1142 52.5116 16.6857 52.5116 14.9142C52.5116 13.1428 53.8287 11.7142 55.7184 11.7142C55.7184 11.7142 55.7184 11.7142 55.7757 11.7142C57.6654 11.7142 58.9825 13.1428 58.9825 14.9142C58.9252 16.6285 57.6081 18.1142 55.7757 18.1142ZM55.7184 9.42853C52.6261 9.42853 50.0492 11.6571 50.0492 14.8571C50.0492 18.1142 52.6261 20.3428 55.7184 20.3428C56.9209 20.3428 58.009 20 58.9252 19.4285V20.3428H61.3876V14.8571C61.3876 11.6571 58.8107 9.42853 55.7184 9.42853Z" fill="#225AA7"/>
<path d="M67.8012 9.48569C66.885 9.48569 65.9688 9.7714 65.2243 10.1714V9.3714H62.762V14.5143V15.8857V20.3428H65.2243V15.8857V14.5143C65.2243 13.0857 66.3696 11.9428 67.8012 11.9428C69.2329 11.9428 70.3781 13.0857 70.3781 14.5143V20.2857H72.8405V14.5714C72.8978 11.7714 70.6072 9.48569 67.8012 9.48569Z" fill="#225AA7"/>
<path d="M43.6929 18.2857C45.1817 18.2857 46.1552 17.4857 46.1552 16.1714C46.1552 14.9142 45.2963 14 43.7501 14H41.116V18.2857H43.6929ZM43.4638 11.8857C44.8954 11.8857 45.8117 11.0285 45.8117 9.82853C45.8117 8.57139 44.9527 7.77139 43.4065 7.77139H41.1732V11.8857H43.4638ZM43.7501 5.6571C46.5561 5.6571 48.274 7.31425 48.274 9.59996C48.274 11.1428 47.3578 12.3428 46.098 12.8C47.6441 13.2 48.7321 14.5714 48.7321 16.2857C48.7321 18.6285 46.8997 20.3428 44.151 20.3428H38.7108V5.6571H43.7501Z" fill="#225AA7"/>
<path d="M141.844 19.2571H141.959C142.073 19.2571 142.188 19.2 142.188 19.0857C142.188 18.9714 142.131 18.9142 141.959 18.9142C141.902 18.9142 141.844 18.9142 141.844 18.9142V19.2571ZM141.844 19.8857H141.615V18.8C141.73 18.8 141.844 18.7428 142.016 18.7428C142.245 18.7428 142.302 18.8 142.417 18.8C142.474 18.8571 142.531 18.9142 142.531 19.0285C142.531 19.1428 142.417 19.2571 142.302 19.2571C142.417 19.3142 142.474 19.3714 142.531 19.5428C142.589 19.7142 142.589 19.7714 142.589 19.8285H142.302C142.245 19.7714 142.245 19.7142 142.188 19.5428C142.188 19.4285 142.073 19.3714 141.959 19.3714H141.844V19.8857V19.8857ZM141.157 19.3142C141.157 19.8285 141.501 20.1714 142.016 20.1714C142.474 20.1714 142.875 19.7714 142.875 19.3142C142.875 18.8 142.531 18.4 142.016 18.4C141.501 18.4 141.157 18.8 141.157 19.3142ZM143.161 19.3142C143.161 19.9428 142.646 20.4571 142.016 20.4571C141.386 20.4571 140.871 19.9428 140.871 19.3142C140.871 18.6857 141.386 18.2285 142.016 18.2285C142.646 18.1714 143.161 18.6857 143.161 19.3142Z" fill="#225AA7"/>
<path d="M93.1122 18.0571H93.0549C91.1652 18.0571 89.9053 16.6286 89.9053 14.8571C89.9053 13.1429 91.1652 11.6571 93.0549 11.6571C93.0549 11.6571 93.0549 11.6571 93.1122 11.6571C95.0019 11.6571 96.2617 13.0857 96.2617 14.8571C96.2617 16.6286 95.0019 18.0571 93.1122 18.0571ZM93.1122 9.48572C90.0771 9.48572 87.5575 11.6571 87.5575 14.8571C87.5575 18.0571 90.0771 20.2286 93.1122 20.2286C96.1472 20.2286 98.6668 18.0571 98.6668 14.8571C98.6668 11.6571 96.1472 9.48572 93.1122 9.48572Z" fill="#225AA7"/>
<path d="M85.1524 16.1714C84.2361 17.2571 82.8618 18 81.3156 18C78.5669 18 76.2763 15.7714 76.2763 12.9714C76.2763 10.2285 78.5097 7.94283 81.3156 7.94283C82.8618 7.94283 84.2361 8.62855 85.1524 9.71426L86.9276 8.1714C85.5532 6.62855 83.5489 5.59998 81.2584 5.59998C77.1353 5.59998 73.814 8.85712 73.814 12.9143C73.814 16.9714 77.1353 20.2285 81.2584 20.2285C83.5489 20.2285 85.5532 19.2 86.9276 17.6571L85.1524 16.1714Z" fill="#225AA7"/>
<path d="M117.278 18.0571C117.221 18.0571 117.221 18.0571 117.221 18.0571C115.331 18.0571 114.071 16.6286 114.071 14.8571C114.071 13.0857 115.331 11.6571 117.221 11.6571C117.221 11.6571 117.221 11.6571 117.278 11.6571C119.168 11.6571 120.427 13.0857 120.427 14.8571C120.427 16.6286 119.168 18.0571 117.278 18.0571ZM117.278 9.48572C114.243 9.48572 111.666 11.7143 111.666 14.8571V24.6286H114.071V19.3143C114.987 19.8857 116.075 20.2286 117.278 20.2286C120.313 20.2286 122.89 18.0571 122.89 14.8571C122.832 11.6571 120.313 9.48572 117.278 9.48572Z" fill="#225AA7"/>
<path d="M105.195 18.0571C105.138 18.0571 105.138 18.0571 105.138 18.0571C103.248 18.0571 101.988 16.6286 101.988 14.8571C101.988 13.0857 103.248 11.6571 105.138 11.6571C105.138 11.6571 105.138 11.6571 105.195 11.6571C107.085 11.6571 108.344 13.0857 108.344 14.8571C108.344 16.6286 107.085 18.0571 105.195 18.0571ZM105.195 9.48572C102.16 9.48572 99.583 11.7143 99.583 14.8571V24.6286H101.988V19.3143C102.904 19.8857 103.992 20.2286 105.195 20.2286C108.23 20.2286 110.807 18.0571 110.807 14.8571C110.75 11.6571 108.23 9.48572 105.195 9.48572Z" fill="#225AA7"/>
<path d="M125.868 13.8286C125.868 12.8571 127.127 11.5429 128.788 11.5429C129.876 11.5429 131.365 12.4 131.365 13.8286H125.868ZM128.616 9.48572C125.81 9.48572 123.462 11.6571 123.462 14.8571C123.462 18.0571 125.81 20.2286 128.616 20.2286C130.334 20.2286 132.109 19.7143 133.083 18.3429L131.651 16.9143C131.021 17.6 130.105 18.0571 128.903 18.0571C127.07 18.0571 125.81 16.9714 125.81 15.4286H133.77C133.77 15.2 133.827 15.0286 133.827 14.8C133.77 11.6571 131.766 9.48572 128.616 9.48572Z" fill="#225AA7"/>
<path d="M137.091 14.8571V5.77142H134.686V14.8571C134.686 18 137.149 20.2286 140.184 20.2286V18C138.351 18 137.091 16.5714 137.091 14.8571Z" fill="#225AA7"/>
</svg>
