<svg width="172" height="34" viewBox="0 0 172 34" fill="none" xmlns="http://www.w3.org/2000/svg">
<path fill-rule="evenodd" clip-rule="evenodd" d="M96.5041 22.6143C98.2468 22.6143 99.8085 21.8227 100.844 20.5844L102.807 22.309C101.268 24.0844 98.9767 25.2153 96.4136 25.2153C91.7795 25.2153 88.0168 21.5174 88.0168 16.96C88.0168 12.4083 91.7739 8.71045 96.4136 8.71045C98.9597 8.71045 101.24 9.82434 102.779 11.5828L100.81 13.3074C99.7689 12.0917 98.2298 11.3171 96.5041 11.3171C93.3808 11.3171 90.8516 13.8445 90.8516 16.9657C90.8516 20.0869 93.3808 22.6143 96.5041 22.6143ZM54.1923 22.9593C55.8784 22.9593 56.9818 22.0433 56.9818 20.5676C56.9818 19.137 56.0199 18.1306 54.2885 18.1306H51.3349V22.9537H54.1923V22.9593ZM53.8868 15.7671C55.5276 15.7671 56.5122 14.8285 56.5122 13.4488C56.5122 12.0409 55.5276 11.1306 53.8189 11.1306H51.3349V15.7671H53.8868ZM54.2659 8.74447C57.4514 8.74447 59.3243 10.616 59.3243 13.217C59.3243 14.9755 58.2945 16.2816 56.863 16.7962C58.6227 17.2655 59.8392 18.7865 59.8392 20.7542C59.8392 23.423 57.7739 25.3454 54.6846 25.3454H48.5454V8.74447H54.2659ZM67.7095 22.7784H67.7435C69.8653 22.7784 71.3307 21.1387 71.3307 19.154C71.3307 17.1694 69.8653 15.5296 67.7435 15.5296H67.7095H67.6756C65.5537 15.5296 64.0883 17.1694 64.0883 19.154C64.0883 21.1443 65.5537 22.7784 67.6756 22.7784H67.7095ZM61.3497 19.154C61.3497 15.507 64.2297 13.0022 67.7095 13.0022C71.1893 13.0022 74.075 15.5296 74.075 19.154V25.3059H71.3307V24.2711C70.2953 24.9327 69.0448 25.3059 67.7095 25.3059C64.2354 25.3059 61.3497 22.801 61.3497 19.154ZM78.4036 13.8899C79.258 13.3866 80.2482 13.087 81.3119 13.087C84.4578 13.087 87.0153 15.6427 87.0153 18.7865V25.3002H84.2202V18.7865C84.2202 17.1807 82.9132 15.8802 81.3119 15.8802C79.705 15.8802 78.4036 17.1863 78.4036 18.7865V20.3018V25.3059H75.6084V20.3018V18.7865V13.0022H78.4036V13.8899ZM164.781 24.0731H164.646V23.7169C164.674 23.7056 164.731 23.6999 164.804 23.6999C164.985 23.6999 165.07 23.7791 165.07 23.8922C165.07 24.0222 164.94 24.0731 164.781 24.0731ZM164.351 24.7799H164.64V24.2767H164.776C164.934 24.2767 165.013 24.3388 165.036 24.4746C165.047 24.5141 165.056 24.5511 165.064 24.5851C165.086 24.6774 165.103 24.7468 165.132 24.7799H165.443C165.415 24.7346 165.393 24.6611 165.353 24.4689C165.319 24.2993 165.251 24.2088 165.127 24.1636V24.1466C165.279 24.1014 165.387 23.9939 165.387 23.8582C165.387 23.7395 165.336 23.6377 165.268 23.5868C165.172 23.5359 165.07 23.4964 164.832 23.4964C164.623 23.4964 164.465 23.5133 164.351 23.5359V24.7799ZM164.844 25.1191C164.284 25.1191 163.87 24.6781 163.87 24.124C163.87 23.5812 164.284 23.1288 164.838 23.1288C165.393 23.1288 165.794 23.5755 165.794 24.1296C165.794 24.6781 165.393 25.1191 164.844 25.1191ZM164.832 25.3849C165.557 25.3849 166.111 24.8308 166.111 24.124C166.111 23.4342 165.557 22.88 164.832 22.88C164.119 22.88 163.548 23.4342 163.548 24.124C163.548 24.8308 164.119 25.3849 164.832 25.3849ZM109.818 22.7217H109.784H109.75C107.656 22.7217 106.208 21.1046 106.208 19.1426C106.208 17.1805 107.651 15.5634 109.75 15.5634H109.784H109.818C111.911 15.5634 113.36 17.1805 113.36 19.1426C113.36 21.1102 111.911 22.7217 109.818 22.7217ZM109.784 13.0755C106.355 13.0755 103.509 15.5464 103.503 19.1482C103.503 22.75 106.349 25.2209 109.784 25.2209C113.218 25.2209 116.065 22.75 116.065 19.1482C116.065 15.5464 113.218 13.0755 109.784 13.0755ZM136.994 22.722H136.966H136.932C134.833 22.722 133.384 21.1048 133.384 19.1371C133.384 17.1751 134.833 15.5523 136.932 15.5523H136.966H136.994C139.093 15.5523 140.542 17.1695 140.542 19.1371C140.542 21.1048 139.093 22.722 136.994 22.722ZM136.966 13.0588C133.531 13.0588 130.674 15.558 130.674 19.1371V30.1686H133.384V24.1977C134.402 24.8536 135.636 25.2211 136.96 25.2211C140.395 25.2211 143.246 22.7502 143.246 19.1428C143.252 15.5354 140.4 13.0588 136.966 13.0588ZM123.369 22.722H123.403C125.502 22.722 126.951 21.1048 126.951 19.1371C126.951 17.1695 125.502 15.5523 123.403 15.5523H123.369H123.335C121.236 15.5523 119.788 17.1751 119.788 19.1371C119.788 21.1048 121.236 22.722 123.335 22.722H123.369ZM117.077 19.1371C117.077 15.558 119.935 13.0588 123.369 13.0588C126.809 13.0588 129.655 15.5354 129.65 19.1428C129.65 22.7502 126.798 25.2211 123.364 25.2211C122.045 25.2211 120.806 24.8536 119.788 24.1977V30.1686H117.077V19.1371ZM146.653 17.9328C146.653 16.8528 148.056 15.3827 149.929 15.3827C151.162 15.3827 152.797 16.3157 152.797 17.9328H146.653ZM149.759 13.0588C146.573 13.0588 143.937 15.5297 143.931 19.1371C143.931 22.7446 146.573 25.2155 149.759 25.2155C151.677 25.2155 153.697 24.6218 154.761 23.1178L153.165 21.5232C152.469 22.3262 151.405 22.8237 150.087 22.8237C147.999 22.8237 146.596 21.5911 146.596 19.8496H155.542C155.564 19.6178 155.581 19.3803 155.581 19.1315C155.581 15.5354 153.318 13.0588 149.759 13.0588ZM159.31 8.89709V19.137C159.31 21.082 160.724 22.6822 162.778 22.7161V25.2153C159.389 25.1644 156.605 22.7048 156.6 19.137V8.89709H159.31Z" fill="white"/>
<path fill-rule="evenodd" clip-rule="evenodd" d="M6.158 3H40.842C41.4797 3 41.9944 3.53672 42 4.19463V30.8054C42 31.4633 41.4797 32 40.842 32H6.158C5.52026 32 5 31.4633 5 30.8054V4.19463C5 3.53672 5.52026 3 6.158 3ZM14.2965 20.5184C14.2965 21.3739 14.9875 22.0678 15.8394 22.0678C16.6912 22.0678 17.3882 21.3739 17.3822 20.5184C17.3822 19.657 16.6912 18.9631 15.8394 18.9631C14.9875 18.9631 14.2965 19.663 14.2965 20.5184ZM11.4669 16.4447C10.6151 16.4447 9.9241 17.1446 9.9241 18C9.9241 18.8554 10.6151 19.5494 11.4669 19.5553C12.3188 19.5553 13.0098 18.8554 13.0098 18C13.0098 17.1386 12.3188 16.4447 11.4669 16.4447ZM17.3822 15.4756C17.3822 14.6201 16.6912 13.9262 15.8394 13.9262C14.9875 13.9262 14.2965 14.6261 14.2965 15.4756C14.2965 16.331 14.9875 17.0249 15.8394 17.0249C16.6912 17.0249 17.3822 16.331 17.3822 15.4756ZM19.1633 16.4865H38.994V19.5135H37.3857V23.6949H35.7773V21.6072H34.2225V23.6949H32.6141V19.5135H19.1633C19.2586 19.8305 19.3123 20.1655 19.3123 20.5184C19.3123 22.4387 17.7575 24 15.8453 24C14.2071 24 12.843 22.8574 12.4737 21.332C12.152 21.4277 11.8184 21.4816 11.4669 21.4816C9.55477 21.4816 8 19.9202 8 18C8 16.0798 9.55477 14.5184 11.4669 14.5184C11.8184 14.5184 12.158 14.5723 12.4737 14.668C12.843 13.1426 14.2131 12 15.8453 12C17.7575 12 19.3123 13.5613 19.3123 15.4816C19.3123 15.8345 19.2586 16.1695 19.1633 16.4865Z" fill="white"/>
</svg>
