<svg width="258" height="28" viewBox="0 0 258 28" fill="none" xmlns="http://www.w3.org/2000/svg">
<path d="M161.174 0H159.831V28H161.174V0Z" fill="#FFBE12"/>
<path d="M172.224 4.79999H180.649V6.46153H174.055V11.3231H180.466V12.9846H174.055V19.3846H180.649V21.0461H172.224V4.79999Z" fill="#225AA7"/>
<path d="M185.411 12.0615C186.021 11.2 186.876 10.6461 187.853 10.6461C189.013 10.6461 190.112 11.2615 190.661 12.3077C191.272 11.2 192.493 10.6461 193.714 10.6461C196.278 10.6461 196.949 12.7384 196.949 14.8923V21.1077H195.24V15.2C195.24 13.9077 195.179 12.2461 193.408 12.2461C191.455 12.2461 191.211 14.1538 191.211 15.6923V21.1077H189.501V15.3846C189.501 14.1538 189.379 12.3077 187.67 12.3077C185.655 12.3077 185.411 14.3384 185.411 15.8769V21.1077H183.701V10.9538H185.411V12.0615Z" fill="#225AA7"/>
<path d="M201.833 12.4308C202.688 11.3231 203.97 10.7077 205.374 10.7077C208.366 10.7077 210.197 13.2923 210.197 16.1231C210.197 19.0154 208.366 21.4769 205.374 21.4769C203.97 21.4769 202.749 20.8615 201.895 19.7539H201.833V26.8923H200.124V10.9539H201.833V12.4308ZM201.711 15.9385C201.711 17.9077 202.871 19.8154 205.008 19.8154C207.206 19.8154 208.366 18.0308 208.366 15.9385C208.366 13.9077 207.084 12.2462 204.947 12.2462C203.054 12.3077 201.711 14.0308 201.711 15.9385Z" fill="#225AA7"/>
<path d="M214.227 12.0615C214.898 11.2615 215.387 10.6461 216.486 10.6461C217.035 10.6461 217.523 10.8307 218.012 11.1384L217.218 12.7384C216.852 12.4923 216.608 12.3077 216.18 12.3077C214.288 12.3077 214.227 14.7692 214.227 16.0615V21.1692H212.517V10.9538H214.227V12.0615Z" fill="#225AA7"/>
<path d="M220.637 16.4308C220.637 18.3385 221.98 19.8154 223.934 19.8154C225.399 19.8154 226.315 18.9539 226.986 17.7231L228.452 18.5846C227.475 20.4308 225.826 21.4154 223.812 21.4154C220.82 21.4154 218.867 19.0769 218.867 16.1846C218.867 13.1692 220.576 10.7077 223.751 10.7077C226.986 10.7077 228.696 13.4154 228.513 16.4308H220.637ZM226.742 14.9539C226.498 13.4769 225.277 12.3077 223.751 12.3077C222.285 12.3077 220.881 13.4769 220.698 14.9539H226.742Z" fill="#225AA7"/>
<path d="M234.984 13.3538C234.74 12.8 234.251 12.3077 233.58 12.3077C232.969 12.3077 232.359 12.8 232.359 13.4153C232.359 14.3384 233.519 14.7077 234.679 15.2C235.839 15.6923 236.999 16.4307 236.999 18.0923C236.999 20 235.472 21.4153 233.58 21.4153C231.87 21.4153 230.527 20.4307 230.039 18.8307L231.565 18.1538C231.992 19.0769 232.481 19.7538 233.641 19.7538C234.557 19.7538 235.289 19.1384 235.289 18.2153C235.289 15.9384 230.71 16.7384 230.71 13.5384C230.71 11.8153 232.115 10.6461 233.702 10.6461C234.862 10.6461 235.961 11.4461 236.388 12.5538L234.984 13.3538Z" fill="#225AA7"/>
<path d="M248.72 21.1692H247.011V19.7538H246.95C246.095 20.8615 244.874 21.4153 243.47 21.4153C240.478 21.4153 238.647 18.8923 238.647 16.0615C238.647 13.1692 240.478 10.6461 243.47 10.6461C244.874 10.6461 246.095 11.323 246.95 12.3692H247.011V10.8923H248.72V21.1692ZM240.417 15.9384C240.417 17.9077 241.577 19.8153 243.714 19.8153C245.912 19.8153 247.072 18.0307 247.072 15.9384C247.072 13.9077 245.79 12.2461 243.653 12.2461C241.7 12.3077 240.417 14.0307 240.417 15.9384Z" fill="#225AA7"/>
<path d="M255.985 13.3538C255.741 12.8 255.253 12.3077 254.581 12.3077C253.971 12.3077 253.36 12.8 253.36 13.4153C253.36 14.3384 254.52 14.7077 255.68 15.2C256.84 15.6923 258 16.4307 258 18.0923C258 20 256.474 21.4153 254.581 21.4153C252.872 21.4153 251.529 20.4307 251.04 18.8307L252.567 18.1538C252.994 19.0769 253.482 19.7538 254.642 19.7538C255.558 19.7538 256.291 19.1384 256.291 18.2153C256.291 15.9384 251.712 16.7384 251.712 13.5384C251.712 11.8153 253.116 10.6461 254.703 10.6461C255.863 10.6461 256.962 11.4461 257.39 12.5538L255.985 13.3538Z" fill="#225AA7"/>
<path d="M34.3105 0.615356H1.09891C0.488405 0.615356 0 1.10766 0 1.72305V26.6461C0 27.2615 0.488405 27.7538 1.09891 27.7538H34.3105C34.921 27.7538 35.4094 27.2615 35.4094 26.6461V1.72305C35.4704 1.10766 34.921 0.615356 34.3105 0.615356Z" fill="#225AA7"/>
<path d="M10.806 19.1385C10.0123 19.1385 9.40183 18.5231 9.40183 17.7231C9.40183 16.9231 10.0123 16.3077 10.806 16.3077C11.5997 16.3077 12.2102 16.9231 12.2102 17.7231C12.2102 18.5231 11.5997 19.1385 10.806 19.1385ZM5.49459 15.4461C5.49459 14.6461 6.1051 14.0308 6.89875 14.0308C7.69241 14.0308 8.30292 14.6461 8.30292 15.4461C8.30292 16.2461 7.69241 16.8615 6.89875 16.8615C6.1051 16.8615 5.49459 16.2461 5.49459 15.4461ZM10.806 11.7538C11.5997 11.7538 12.2102 12.3692 12.2102 13.1692C12.2102 13.9692 11.5997 14.5846 10.806 14.5846C10.0123 14.5846 9.40183 13.9692 9.40183 13.1692C9.40183 12.3692 10.0734 11.7538 10.806 11.7538ZM31.6853 14.0923H13.7975C13.8585 13.7846 13.9196 13.4769 13.9196 13.1692C13.9196 11.4461 12.5154 10.0308 10.806 10.0308C9.34078 10.0308 8.11977 11.0769 7.75346 12.4308C7.44821 12.3692 7.14296 12.3077 6.8377 12.3077C5.12829 12.3077 3.72412 13.7231 3.72412 15.4461C3.72412 17.1692 5.12829 18.5846 6.8377 18.5846C7.14296 18.5846 7.44821 18.5231 7.75346 18.4615C8.05872 19.8154 9.34078 20.8615 10.806 20.8615C12.5154 20.8615 13.9196 19.4461 13.9196 17.7231C13.9196 17.4154 13.8585 17.1077 13.7975 16.8H25.8855V20.5538H27.3507V18.6461H28.7549V20.5538H30.2201V16.8H31.6853V14.0923Z" fill="#FFBE12"/>
<path d="M59.4633 19.5077C59.4023 19.5077 59.4023 19.5077 59.4633 19.5077C59.4023 19.5077 59.4023 19.5077 59.4023 19.5077C57.3876 19.5077 55.9835 17.9692 55.9835 16.0615C55.9835 14.1538 57.3876 12.6153 59.4023 12.6153C59.4023 12.6153 59.4023 12.6153 59.4633 12.6153C61.478 12.6153 62.8822 14.1538 62.8822 16.0615C62.8211 17.9077 61.417 19.5077 59.4633 19.5077ZM59.4023 10.1538C56.1056 10.1538 53.3583 12.5538 53.3583 16C53.3583 19.5077 56.1056 21.9077 59.4023 21.9077C60.6844 21.9077 61.8443 21.5384 62.8211 20.923V21.9077H65.4463V16C65.4463 12.5538 62.699 10.1538 59.4023 10.1538Z" fill="#225AA7"/>
<path d="M72.284 10.2154C71.3072 10.2154 70.3303 10.5231 69.5367 10.9538V10.0923H66.9115V15.6307V17.1077V21.9077H69.5367V17.1077V15.6307C69.5367 14.0923 70.7577 12.8615 72.284 12.8615C73.8102 12.8615 75.0312 14.0923 75.0312 15.6307V21.8461H77.6564V15.6923C77.7175 12.6769 75.2754 10.2154 72.284 10.2154Z" fill="#225AA7"/>
<path d="M46.5817 19.6923C48.169 19.6923 49.2068 18.8307 49.2068 17.4154C49.2068 16.0615 48.2911 15.0769 46.6427 15.0769H43.8344V19.6923H46.5817ZM46.3375 12.8C47.8637 12.8 48.8405 11.8769 48.8405 10.5846C48.8405 9.23075 47.9248 8.36921 46.2764 8.36921H43.8954V12.8H46.3375ZM46.6427 6.09229C49.6342 6.09229 51.4657 7.8769 51.4657 10.3384C51.4657 12 50.4889 13.2923 49.1458 13.7846C50.7942 14.2154 51.9541 15.6923 51.9541 17.5384C51.9541 20.0615 50.0005 21.9077 47.0701 21.9077H41.2703V6.09229H46.6427Z" fill="#225AA7"/>
<path d="M151.222 20.7384H151.345C151.467 20.7384 151.589 20.6769 151.589 20.5538C151.589 20.4307 151.528 20.3692 151.345 20.3692C151.283 20.3692 151.222 20.3692 151.222 20.3692V20.7384ZM151.222 21.4153H150.978V20.2461C151.1 20.2461 151.222 20.1846 151.406 20.1846C151.65 20.1846 151.711 20.2461 151.833 20.2461C151.894 20.3076 151.955 20.3692 151.955 20.4923C151.955 20.6153 151.833 20.7384 151.711 20.7384C151.833 20.7999 151.894 20.8615 151.955 21.0461C152.016 21.2307 152.016 21.2923 152.016 21.3538H151.711C151.65 21.2923 151.65 21.2307 151.589 21.0461C151.589 20.923 151.467 20.8615 151.345 20.8615H151.222V21.4153ZM150.49 20.7999C150.49 21.3538 150.856 21.723 151.406 21.723C151.894 21.723 152.321 21.2923 152.321 20.7999C152.321 20.2461 151.955 19.8153 151.406 19.8153C150.856 19.8153 150.49 20.2461 150.49 20.7999ZM152.627 20.7999C152.627 21.4769 152.077 22.0307 151.406 22.0307C150.734 22.0307 150.185 21.4769 150.185 20.7999C150.185 20.123 150.734 19.6307 151.406 19.6307C152.077 19.5692 152.627 20.123 152.627 20.7999Z" fill="#225AA7"/>
<path d="M99.2684 19.4462H99.2073C97.1926 19.4462 95.8495 17.9077 95.8495 16C95.8495 14.1539 97.1926 12.5539 99.2073 12.5539C99.2073 12.5539 99.2073 12.5539 99.2684 12.5539C101.283 12.5539 102.626 14.0923 102.626 16C102.626 17.9077 101.283 19.4462 99.2684 19.4462ZM99.2684 10.2154C96.0327 10.2154 93.3464 12.5539 93.3464 16C93.3464 19.4462 96.0327 21.7846 99.2684 21.7846C102.504 21.7846 105.19 19.4462 105.19 16C105.19 12.5539 102.504 10.2154 99.2684 10.2154Z" fill="#225AA7"/>
<path d="M90.7823 17.4154C89.8055 18.5846 88.3403 19.3846 86.6919 19.3846C83.7615 19.3846 81.3195 16.9846 81.3195 13.9692C81.3195 11.0154 83.7004 8.55384 86.6919 8.55384C88.3403 8.55384 89.8055 9.2923 90.7823 10.4615L92.6749 8.79999C91.2097 7.13845 89.0729 6.03076 86.6309 6.03076C82.2352 6.03076 78.6943 9.53845 78.6943 13.9077C78.6943 18.2769 82.2352 21.7846 86.6309 21.7846C89.0729 21.7846 91.2097 20.6769 92.6749 19.0154L90.7823 17.4154Z" fill="#225AA7"/>
<path d="M125.032 19.4462C124.971 19.4462 124.971 19.4462 124.971 19.4462C122.956 19.4462 121.613 17.9077 121.613 16C121.613 14.0923 122.956 12.5539 124.971 12.5539C124.971 12.5539 124.971 12.5539 125.032 12.5539C127.046 12.5539 128.39 14.0923 128.39 16C128.39 17.9077 127.046 19.4462 125.032 19.4462ZM125.032 10.2154C121.796 10.2154 119.049 12.6154 119.049 16V26.5231H121.613V20.8C122.59 21.4154 123.75 21.7846 125.032 21.7846C128.267 21.7846 131.015 19.4462 131.015 16C130.954 12.5539 128.267 10.2154 125.032 10.2154Z" fill="#225AA7"/>
<path d="M112.15 19.4462C112.089 19.4462 112.089 19.4462 112.089 19.4462C110.074 19.4462 108.731 17.9077 108.731 16C108.731 14.0923 110.074 12.5539 112.089 12.5539C112.089 12.5539 112.089 12.5539 112.15 12.5539C114.165 12.5539 115.508 14.0923 115.508 16C115.508 17.9077 114.165 19.4462 112.15 19.4462ZM112.15 10.2154C108.914 10.2154 106.167 12.6154 106.167 16V26.5231H108.731V20.8C109.708 21.4154 110.868 21.7846 112.15 21.7846C115.386 21.7846 118.133 19.4462 118.133 16C118.072 12.5539 115.386 10.2154 112.15 10.2154Z" fill="#225AA7"/>
<path d="M134.189 14.8923C134.189 13.8462 135.532 12.4308 137.303 12.4308C138.463 12.4308 140.05 13.3539 140.05 14.8923H134.189ZM137.12 10.2154C134.128 10.2154 131.625 12.5539 131.625 16C131.625 19.4462 134.128 21.7846 137.12 21.7846C138.951 21.7846 140.844 21.2308 141.882 19.7539L140.355 18.2154C139.684 18.9539 138.707 19.4462 137.425 19.4462C135.471 19.4462 134.128 18.2769 134.128 16.6154H142.614C142.614 16.3692 142.675 16.1846 142.675 15.9385C142.614 12.5539 140.478 10.2154 137.12 10.2154Z" fill="#225AA7"/>
<path d="M146.155 16V6.21539H143.591V16C143.591 19.3846 146.216 21.7846 149.452 21.7846V19.3846C147.498 19.3846 146.155 17.8462 146.155 16Z" fill="#225AA7"/>
</svg>
