<svg width="314" height="34" viewBox="0 0 314 34" fill="none" xmlns="http://www.w3.org/2000/svg">
<g clip-path="url(#clip0)">
<path d="M195.711 0H194.08V34H195.711V0Z" fill="white"/>
<path d="M209.129 5.82861H219.359V7.8462H211.353V13.7495H219.137V15.7671H211.353V23.5385H219.359V25.5561H209.129V5.82861Z" fill="white"/>
<path d="M225.142 14.6463C225.883 13.6001 226.921 12.9276 228.107 12.9276C229.516 12.9276 230.85 13.6749 231.517 14.9452C232.258 13.6001 233.741 12.9276 235.224 12.9276C238.337 12.9276 239.153 15.4683 239.153 18.0837V25.6309H237.077V18.4573C237.077 16.8881 237.003 14.8705 234.853 14.8705C232.481 14.8705 232.184 17.187 232.184 19.0551V25.6309H230.109V18.6815C230.109 17.187 229.96 14.9452 227.885 14.9452C225.438 14.9452 225.142 17.4111 225.142 19.2793V25.6309H223.066V13.3012H225.142V14.6463Z" fill="white"/>
<path d="M245.083 15.0946C246.121 13.7496 247.678 13.0023 249.383 13.0023C253.016 13.0023 255.24 16.1408 255.24 19.5781C255.24 23.0902 253.016 26.0792 249.383 26.0792C247.678 26.0792 246.195 25.332 245.158 23.9869H245.083V32.6551H243.008V13.3012H245.083V15.0946ZM244.935 19.354C244.935 21.7452 246.344 24.0617 248.938 24.0617C251.607 24.0617 253.016 21.8946 253.016 19.354C253.016 16.888 251.459 14.8705 248.864 14.8705C246.566 14.9452 244.935 17.0375 244.935 19.354Z" fill="white"/>
<path d="M260.132 14.6463C260.948 13.6749 261.541 12.9276 262.875 12.9276C263.543 12.9276 264.136 13.1518 264.729 13.5254L263.765 15.4683C263.32 15.1694 263.024 14.9452 262.505 14.9452C260.207 14.9452 260.132 17.9342 260.132 19.5034V25.7056H258.057V13.3012H260.132V14.6463Z" fill="white"/>
<path d="M267.916 19.9518C267.916 22.2683 269.547 24.0617 271.92 24.0617C273.699 24.0617 274.811 23.0155 275.626 21.521L277.405 22.5672C276.219 24.8089 274.218 26.0045 271.771 26.0045C268.139 26.0045 265.767 23.165 265.767 19.6529C265.767 15.9913 267.842 13.0023 271.697 13.0023C275.626 13.0023 277.702 16.2902 277.48 19.9518H267.916ZM275.33 18.1584C275.033 16.365 273.55 14.9452 271.697 14.9452C269.918 14.9452 268.213 16.365 267.991 18.1584H275.33Z" fill="white"/>
<path d="M285.338 16.2155C285.041 15.543 284.448 14.9452 283.633 14.9452C282.891 14.9452 282.15 15.543 282.15 16.2902C282.15 17.4111 283.558 17.8595 284.967 18.4573C286.376 19.0551 287.784 19.9518 287.784 21.9694C287.784 24.2859 285.931 26.0045 283.633 26.0045C281.557 26.0045 279.926 24.8089 279.333 22.8661L281.186 22.0441C281.705 23.165 282.298 23.987 283.707 23.987C284.819 23.987 285.708 23.2397 285.708 22.1188C285.708 19.354 280.148 20.3254 280.148 16.4397C280.148 14.3474 281.853 12.9276 283.781 12.9276C285.189 12.9276 286.524 13.899 287.043 15.2441L285.338 16.2155Z" fill="white"/>
<path d="M302.018 25.7056H299.942V23.987H299.868C298.83 25.332 297.347 26.0045 295.642 26.0045C292.01 26.0045 289.786 22.9408 289.786 19.5034C289.786 15.9913 292.01 12.9276 295.642 12.9276C297.347 12.9276 298.83 13.7496 299.868 15.0199H299.942V13.2265H302.018V25.7056ZM291.935 19.354C291.935 21.7452 293.344 24.0617 295.939 24.0617C298.607 24.0617 300.016 21.8946 300.016 19.354C300.016 16.8881 298.459 14.8705 295.865 14.8705C293.492 14.9452 291.935 17.0375 291.935 19.354Z" fill="white"/>
<path d="M310.839 16.2155C310.543 15.543 309.95 14.9452 309.134 14.9452C308.393 14.9452 307.652 15.543 307.652 16.2902C307.652 17.4111 309.06 17.8595 310.469 18.4573C311.877 19.0551 313.286 19.9518 313.286 21.9694C313.286 24.2859 311.432 26.0045 309.134 26.0045C307.059 26.0045 305.428 24.8089 304.835 22.8661L306.688 22.0441C307.207 23.165 307.8 23.987 309.208 23.987C310.32 23.987 311.21 23.2397 311.21 22.1188C311.21 19.354 305.65 20.3254 305.65 16.4397C305.65 14.3474 307.355 12.9276 309.283 12.9276C310.691 12.9276 312.026 13.899 312.544 15.2441L310.839 16.2155Z" fill="white"/>
<path d="M41.6627 0.747192H1.33439C0.593063 0.747192 0 1.34499 0 2.09225V32.356C0 33.1032 0.593063 33.701 1.33439 33.701H41.6627C42.404 33.701 42.9971 33.1032 42.9971 32.356V2.09225C43.0712 1.34499 42.404 0.747192 41.6627 0.747192Z" fill="white"/>
<path d="M13.1215 23.2395C12.1578 23.2395 11.4165 22.4923 11.4165 21.5208C11.4165 20.5494 12.1578 19.8022 13.1215 19.8022C14.0852 19.8022 14.8266 20.5494 14.8266 21.5208C14.8266 22.4923 14.0852 23.2395 13.1215 23.2395ZM6.67195 18.756C6.67195 17.7846 7.41328 17.0373 8.37701 17.0373C9.34073 17.0373 10.0821 17.7846 10.0821 18.756C10.0821 19.7274 9.34073 20.4747 8.37701 20.4747C7.41328 20.4747 6.67195 19.7274 6.67195 18.756ZM13.1215 14.2725C14.0852 14.2725 14.8266 15.0197 14.8266 15.9912C14.8266 16.9626 14.0852 17.7098 13.1215 17.7098C12.1578 17.7098 11.4165 16.9626 11.4165 15.9912C11.4165 15.0197 12.2319 14.2725 13.1215 14.2725ZM38.475 17.112H16.754C16.8282 16.7384 16.9023 16.3648 16.9023 15.9912C16.9023 13.8989 15.1972 12.1802 13.1215 12.1802C11.3423 12.1802 9.85967 13.4505 9.41487 15.0945C9.0442 15.0197 8.67354 14.945 8.30287 14.945C6.22715 14.945 4.52209 16.6637 4.52209 18.756C4.52209 20.8483 6.22715 22.567 8.30287 22.567C8.67354 22.567 9.0442 22.4923 9.41487 22.4175C9.78553 24.0615 11.3423 25.3318 13.1215 25.3318C15.1972 25.3318 16.9023 23.6131 16.9023 21.5208C16.9023 21.1472 16.8282 20.7736 16.754 20.4H31.4323V24.9582H33.2115V22.6417H34.9166V24.9582H36.6958V20.4H38.475V17.112Z" fill="#002A61"/>
<path d="M72.2055 23.6878C72.1313 23.6878 72.1313 23.6878 72.2055 23.6878C72.1313 23.6878 72.1313 23.6878 72.1313 23.6878C69.6849 23.6878 67.9799 21.8197 67.9799 19.5032C67.9799 17.1867 69.6849 15.3186 72.1313 15.3186C72.1313 15.3186 72.1313 15.3186 72.2055 15.3186C74.6519 15.3186 76.3569 17.1867 76.3569 19.5032C76.2828 21.745 74.5777 23.6878 72.2055 23.6878ZM72.1313 12.3296C68.1282 12.3296 64.7922 15.2439 64.7922 19.4285C64.7922 23.6878 68.1282 26.6021 72.1313 26.6021C73.6881 26.6021 75.0967 26.1538 76.2828 25.4065V26.6021H79.4705V19.4285C79.4705 15.2439 76.1345 12.3296 72.1313 12.3296Z" fill="white"/>
<path d="M87.7734 12.4043C86.5873 12.4043 85.4011 12.778 84.4374 13.301V12.2549H81.2497V18.9802V20.7736V26.6021H84.4374V20.7736V18.9802C84.4374 17.112 85.9201 15.6175 87.7734 15.6175C89.6267 15.6175 91.1094 17.112 91.1094 18.9802V26.5274H94.2971V19.0549C94.3712 15.3933 91.4059 12.4043 87.7734 12.4043Z" fill="white"/>
<path d="M56.5635 23.9121C58.4909 23.9121 59.7512 22.866 59.7512 21.1473C59.7512 19.5033 58.6392 18.3077 56.6376 18.3077H53.2275V23.9121H56.5635ZM56.2669 15.5429C58.1203 15.5429 59.3064 14.422 59.3064 12.8528C59.3064 11.2088 58.1944 10.1627 56.1928 10.1627H53.3016V15.5429H56.2669ZM56.6376 7.39783C60.2701 7.39783 62.4941 9.56486 62.4941 12.5539C62.4941 14.5715 61.308 16.1407 59.677 16.7385C61.6786 17.2616 63.0872 19.055 63.0872 21.2967C63.0872 24.3605 60.7149 26.6022 57.1565 26.6022H50.1139V7.39783H56.6376Z" fill="white"/>
<path d="M183.627 25.1824H183.775C183.924 25.1824 184.072 25.1077 184.072 24.9582C184.072 24.8088 183.998 24.734 183.775 24.734C183.701 24.734 183.627 24.734 183.627 24.734V25.1824ZM183.627 26.0044H183.331V24.5846C183.479 24.5846 183.627 24.5099 183.85 24.5099C184.146 24.5099 184.22 24.5846 184.369 24.5846C184.443 24.6593 184.517 24.734 184.517 24.8835C184.517 25.0329 184.369 25.1824 184.22 25.1824C184.369 25.2571 184.443 25.3319 184.517 25.556C184.591 25.7802 184.591 25.8549 184.591 25.9297H184.22C184.146 25.8549 184.146 25.7802 184.072 25.556C184.072 25.4066 183.924 25.3319 183.775 25.3319H183.627V26.0044ZM182.738 25.2571C182.738 25.9297 183.182 26.378 183.85 26.378C184.443 26.378 184.962 25.8549 184.962 25.2571C184.962 24.5846 184.517 24.0615 183.85 24.0615C183.182 24.0615 182.738 24.5846 182.738 25.2571ZM185.332 25.2571C185.332 26.0791 184.665 26.7516 183.85 26.7516C183.034 26.7516 182.367 26.0791 182.367 25.2571C182.367 24.4351 183.034 23.8373 183.85 23.8373C184.665 23.7626 185.332 24.4351 185.332 25.2571Z" fill="white"/>
<path d="M120.54 23.6131H120.466C118.02 23.6131 116.389 21.745 116.389 19.4285C116.389 17.1867 118.02 15.2439 120.466 15.2439C120.466 15.2439 120.466 15.2439 120.54 15.2439C122.987 15.2439 124.617 17.112 124.617 19.4285C124.617 21.745 122.987 23.6131 120.54 23.6131ZM120.54 12.4043C116.611 12.4043 113.349 15.2439 113.349 19.4285C113.349 23.6131 116.611 26.4527 120.54 26.4527C124.469 26.4527 127.731 23.6131 127.731 19.4285C127.731 15.2439 124.469 12.4043 120.54 12.4043Z" fill="white"/>
<path d="M110.236 21.1473C109.05 22.5671 107.27 23.5385 105.269 23.5385C101.71 23.5385 98.745 20.6242 98.745 16.9627C98.745 13.3759 101.636 10.3869 105.269 10.3869C107.27 10.3869 109.05 11.2836 110.236 12.7033L112.534 10.6858C110.755 8.66818 108.16 7.32312 105.195 7.32312C99.857 7.32312 95.5573 11.5825 95.5573 16.888C95.5573 22.1934 99.857 26.4528 105.195 26.4528C108.16 26.4528 110.755 25.1077 112.534 23.0902L110.236 21.1473Z" fill="white"/>
<path d="M151.824 23.6131C151.75 23.6131 151.75 23.6131 151.75 23.6131C149.304 23.6131 147.673 21.745 147.673 19.4285C147.673 17.112 149.304 15.2439 151.75 15.2439C151.75 15.2439 151.75 15.2439 151.824 15.2439C154.271 15.2439 155.902 17.112 155.902 19.4285C155.902 21.745 154.271 23.6131 151.824 23.6131ZM151.824 12.4043C147.895 12.4043 144.559 15.3186 144.559 19.4285V32.2065H147.673V25.257C148.859 26.0043 150.267 26.4527 151.824 26.4527C155.753 26.4527 159.089 23.6131 159.089 19.4285C159.015 15.2439 155.753 12.4043 151.824 12.4043Z" fill="white"/>
<path d="M136.182 23.6131C136.108 23.6131 136.108 23.6131 136.108 23.6131C133.662 23.6131 132.031 21.745 132.031 19.4285C132.031 17.112 133.662 15.2439 136.108 15.2439C136.108 15.2439 136.108 15.2439 136.182 15.2439C138.629 15.2439 140.259 17.112 140.259 19.4285C140.259 21.745 138.629 23.6131 136.182 23.6131ZM136.182 12.4043C132.253 12.4043 128.917 15.3186 128.917 19.4285V32.2065H132.031V25.257C133.217 26.0043 134.625 26.4527 136.182 26.4527C140.111 26.4527 143.447 23.6131 143.447 19.4285C143.373 15.2439 140.111 12.4043 136.182 12.4043Z" fill="white"/>
<path d="M162.944 18.0834C162.944 16.8131 164.575 15.0944 166.725 15.0944C168.133 15.0944 170.061 16.2153 170.061 18.0834H162.944ZM166.503 12.4043C162.87 12.4043 159.831 15.2439 159.831 19.4285C159.831 23.6131 162.87 26.4527 166.503 26.4527C168.727 26.4527 171.025 25.7801 172.285 23.9867L170.432 22.1186C169.616 23.0153 168.43 23.6131 166.873 23.6131C164.501 23.6131 162.87 22.1933 162.87 20.1757H173.174C173.174 19.8768 173.249 19.6526 173.249 19.3537C173.174 15.2439 170.58 12.4043 166.503 12.4043Z" fill="white"/>
<path d="M177.474 19.4286V7.54724H174.361V19.4286C174.361 23.5385 177.548 26.4527 181.477 26.4527V23.5385C179.105 23.5385 177.474 21.6703 177.474 19.4286Z" fill="white"/>
</g>
<defs>
<clipPath id="clip0">
<rect width="313.286" height="34" fill="white"/>
</clipPath>
</defs>
</svg>
