<svg width="172" height="34" viewBox="0 0 172 34" fill="none" xmlns="http://www.w3.org/2000/svg">
<path fill-rule="evenodd" clip-rule="evenodd" d="M96.5041 22.6138C98.2468 22.6138 99.8084 21.8222 100.844 20.5839L102.807 22.3085C101.268 24.0839 98.9767 25.2148 96.4135 25.2148C91.7795 25.2148 88.0168 21.5169 88.0168 16.9595C88.0168 12.4079 91.7738 8.70996 96.4135 8.70996C98.9597 8.70996 101.24 9.82385 102.779 11.5823L100.81 13.3069C99.7688 12.0912 98.2298 11.3166 96.5041 11.3166C93.3808 11.3166 90.8515 13.844 90.8515 16.9652C90.8515 20.0864 93.3808 22.6138 96.5041 22.6138ZM54.1923 22.9588C55.8784 22.9588 56.9818 22.0428 56.9818 20.5671C56.9818 19.1365 56.0199 18.1301 54.2885 18.1301H51.3349V22.9532H54.1923V22.9588ZM53.8867 15.7666C55.5276 15.7666 56.5121 14.828 56.5121 13.4483C56.5121 12.0404 55.5276 11.1301 53.8188 11.1301H51.3349V15.7666H53.8867ZM54.2658 8.74398C57.4514 8.74398 59.3242 10.6156 59.3242 13.2165C59.3242 14.975 58.2945 16.2811 56.8629 16.7957C58.6226 17.265 59.8391 18.786 59.8391 20.7537C59.8391 23.4225 57.7739 25.3449 54.6845 25.3449H48.5454V8.74398H54.2658ZM67.7095 22.7779H67.7434C69.8652 22.7779 71.3307 21.1382 71.3307 19.1535C71.3307 17.1689 69.8652 15.5291 67.7434 15.5291H67.7095H67.6755C65.5537 15.5291 64.0882 17.1689 64.0882 19.1535C64.0882 21.1438 65.5537 22.7779 67.6755 22.7779H67.7095ZM61.3497 19.1535C61.3497 15.5065 64.2297 13.0017 67.7095 13.0017C71.1893 13.0017 74.0749 15.5291 74.0749 19.1535V25.3054H71.3307V24.2706C70.2953 24.9322 69.0448 25.3054 67.7095 25.3054C64.2354 25.3054 61.3497 22.8005 61.3497 19.1535ZM78.4036 13.8894C79.2579 13.3862 80.2481 13.0865 81.3119 13.0865C84.4578 13.0865 87.0153 15.6422 87.0153 18.786V25.2997H84.2202V18.786C84.2202 17.1802 82.9131 15.8797 81.3119 15.8797C79.7049 15.8797 78.4036 17.1858 78.4036 18.786V20.3013V25.3054H75.6084V20.3013V18.786V13.0017H78.4036V13.8894ZM164.781 24.0726H164.646V23.7164C164.674 23.7051 164.731 23.6994 164.804 23.6994C164.985 23.6994 165.07 23.7786 165.07 23.8917C165.07 24.0217 164.94 24.0726 164.781 24.0726ZM164.351 24.7794H164.64V24.2762H164.776C164.934 24.2762 165.013 24.3384 165.036 24.4741C165.047 24.5136 165.056 24.5506 165.064 24.5846C165.086 24.6769 165.103 24.7463 165.132 24.7794H165.443C165.415 24.7342 165.393 24.6607 165.353 24.4684C165.319 24.2988 165.251 24.2083 165.127 24.1631V24.1461C165.279 24.1009 165.387 23.9934 165.387 23.8577C165.387 23.739 165.336 23.6372 165.268 23.5863C165.172 23.5355 165.07 23.4959 164.832 23.4959C164.623 23.4959 164.465 23.5128 164.351 23.5355V24.7794ZM164.844 25.1187C164.284 25.1187 163.87 24.6776 163.87 24.1235C163.87 23.5807 164.284 23.1283 164.838 23.1283C165.393 23.1283 165.794 23.575 165.794 24.1292C165.794 24.6776 165.393 25.1187 164.844 25.1187ZM164.832 25.3844C165.557 25.3844 166.111 24.8303 166.111 24.1235C166.111 23.4337 165.557 22.8796 164.832 22.8796C164.119 22.8796 163.548 23.4337 163.548 24.1235C163.548 24.8303 164.119 25.3844 164.832 25.3844ZM109.818 22.7212H109.784H109.75C107.656 22.7212 106.208 21.1041 106.208 19.1421C106.208 17.18 107.651 15.5629 109.75 15.5629H109.784H109.818C111.911 15.5629 113.36 17.18 113.36 19.1421C113.36 21.1098 111.911 22.7212 109.818 22.7212ZM109.784 13.075C106.355 13.075 103.509 15.5459 103.503 19.1477C103.503 22.7495 106.349 25.2204 109.784 25.2204C113.218 25.2204 116.064 22.7495 116.064 19.1477C116.064 15.5459 113.218 13.075 109.784 13.075ZM136.994 22.7215H136.966H136.932C134.832 22.7215 133.384 21.1043 133.384 19.1367C133.384 17.1746 134.832 15.5518 136.932 15.5518H136.966H136.994C139.093 15.5518 140.542 17.169 140.542 19.1367C140.542 21.1043 139.093 22.7215 136.994 22.7215ZM136.966 13.0583C133.531 13.0583 130.674 15.5575 130.674 19.1367V30.1681H133.384V24.1972C134.402 24.8531 135.636 25.2207 136.96 25.2207C140.394 25.2207 143.246 22.7497 143.246 19.1423C143.252 15.5349 140.4 13.0583 136.966 13.0583ZM123.369 22.7215H123.403C125.502 22.7215 126.951 21.1043 126.951 19.1367C126.951 17.169 125.502 15.5518 123.403 15.5518H123.369H123.335C121.236 15.5518 119.788 17.1746 119.788 19.1367C119.788 21.1043 121.236 22.7215 123.335 22.7215H123.369ZM117.077 19.1367C117.077 15.5575 119.935 13.0583 123.369 13.0583C126.809 13.0583 129.655 15.5349 129.65 19.1423C129.65 22.7497 126.798 25.2207 123.364 25.2207C122.045 25.2207 120.806 24.8531 119.788 24.1972V30.1681H117.077V19.1367ZM146.653 17.9323C146.653 16.8523 148.056 15.3822 149.929 15.3822C151.162 15.3822 152.797 16.3152 152.797 17.9323H146.653ZM149.759 13.0583C146.573 13.0583 143.937 15.5292 143.931 19.1367C143.931 22.7441 146.573 25.215 149.759 25.215C151.677 25.215 153.697 24.6213 154.761 23.1173L153.165 21.5228C152.469 22.3257 151.405 22.8232 150.087 22.8232C147.999 22.8232 146.596 21.5906 146.596 19.8491H155.542C155.564 19.6173 155.581 19.3798 155.581 19.131C155.581 15.5349 153.318 13.0583 149.759 13.0583ZM159.31 8.8966V19.1365C159.31 21.0816 160.724 22.6817 162.778 22.7156V25.2148C159.389 25.1639 156.605 22.7043 156.6 19.1365V8.8966H159.31Z" fill="white"/>
<path fill-rule="evenodd" clip-rule="evenodd" d="M6.158 3H40.842C41.4797 3 41.9944 3.53672 42 4.19463V30.8054C42 31.4633 41.4797 32 40.842 32H6.158C5.52026 32 5 31.4633 5 30.8054V4.19463C5 3.53672 5.52026 3 6.158 3ZM14.2965 20.5184C14.2965 21.3739 14.9875 22.0678 15.8394 22.0678C16.6912 22.0678 17.3882 21.3739 17.3822 20.5184C17.3822 19.657 16.6912 18.9631 15.8394 18.9631C14.9875 18.9631 14.2965 19.663 14.2965 20.5184ZM11.4669 16.4447C10.6151 16.4447 9.9241 17.1446 9.9241 18C9.9241 18.8554 10.6151 19.5494 11.4669 19.5553C12.3188 19.5553 13.0098 18.8554 13.0098 18C13.0098 17.1386 12.3188 16.4447 11.4669 16.4447ZM17.3822 15.4756C17.3822 14.6201 16.6912 13.9262 15.8394 13.9262C14.9875 13.9262 14.2965 14.6261 14.2965 15.4756C14.2965 16.331 14.9875 17.0249 15.8394 17.0249C16.6912 17.0249 17.3822 16.331 17.3822 15.4756ZM19.1633 16.4865H38.994V19.5135H37.3857V23.6949H35.7773V21.6072H34.2225V23.6949H32.6141V19.5135H19.1633C19.2586 19.8305 19.3123 20.1655 19.3123 20.5184C19.3123 22.4387 17.7575 24 15.8453 24C14.2071 24 12.843 22.8574 12.4737 21.332C12.152 21.4277 11.8184 21.4816 11.4669 21.4816C9.55477 21.4816 8 19.9202 8 18C8 16.0798 9.55477 14.5184 11.4669 14.5184C11.8184 14.5184 12.158 14.5723 12.4737 14.668C12.843 13.1426 14.2131 12 15.8453 12C17.7575 12 19.3123 13.5613 19.3123 15.4816C19.3123 15.8345 19.2586 16.1695 19.1633 16.4865Z" fill="white"/>
</svg>
