<svg width="191" height="35" viewBox="0 0 191 35" fill="none" xmlns="http://www.w3.org/2000/svg">
<path fill-rule="evenodd" clip-rule="evenodd" d="M108.336 23.6049C110.383 23.6049 112.217 22.6736 113.433 21.2168L115.739 23.2457C113.931 25.3345 111.24 26.6649 108.23 26.6649C102.788 26.6649 98.3685 22.3144 98.3685 16.9528C98.3685 11.5979 102.781 7.24744 108.23 7.24744C111.22 7.24744 113.898 8.5579 115.706 10.6267L113.393 12.6556C112.17 11.2254 110.363 10.314 108.336 10.314C104.668 10.314 101.698 13.2875 101.698 16.9595C101.698 20.6314 104.668 23.6049 108.336 23.6049ZM58.6444 24.0108C60.6246 24.0108 61.9204 22.9332 61.9204 21.197C61.9204 19.514 60.7908 18.3299 58.7574 18.3299H55.2887V24.0042H58.6444V24.0108ZM58.2856 15.5494C60.2126 15.5494 61.3689 14.4451 61.3689 12.822C61.3689 11.1656 60.2126 10.0946 58.2058 10.0946H55.2887V15.5494H58.2856ZM58.7308 7.28746C62.472 7.28746 64.6715 9.48931 64.6715 12.5493C64.6715 14.6181 63.4621 16.1547 61.7809 16.76C63.8475 17.3122 65.2762 19.1016 65.2762 21.4165C65.2762 24.5563 62.8507 26.818 59.2225 26.818H52.0126V7.28746H58.7308ZM74.5193 23.798H74.5591C77.051 23.798 78.7721 21.8689 78.7721 19.534C78.7721 17.1991 77.051 15.27 74.5591 15.27H74.5193H74.4794C71.9875 15.27 70.2664 17.1991 70.2664 19.534C70.2664 21.8755 71.9875 23.798 74.4794 23.798H74.5193ZM67.0502 19.534C67.0502 15.2434 70.4326 12.2965 74.5193 12.2965C78.606 12.2965 81.995 15.27 81.995 19.534V26.7714H78.7721V25.5541C77.5561 26.3324 76.0875 26.7714 74.5193 26.7714C70.4392 26.7714 67.0502 23.8246 67.0502 19.534ZM87.0786 13.3409C88.082 12.7488 89.2449 12.3963 90.4941 12.3963C94.1888 12.3963 97.1924 15.403 97.1924 19.1016V26.7648H93.9097V19.1016C93.9097 17.2124 92.3747 15.6824 90.4941 15.6824C88.6069 15.6824 87.0786 17.219 87.0786 19.1016V20.8843V26.7714H83.7959V20.8843V19.1016V12.2965H87.0786V13.3409ZM188.522 25.3211H188.363V24.9021C188.396 24.8888 188.463 24.8821 188.549 24.8821C188.762 24.8821 188.861 24.9752 188.861 25.1083C188.861 25.2613 188.708 25.3211 188.522 25.3211ZM188.017 26.1527H188.356V25.5606H188.516C188.702 25.5606 188.795 25.6338 188.821 25.7934C188.834 25.8399 188.844 25.8835 188.854 25.9234C188.881 26.0321 188.9 26.1137 188.934 26.1527H189.3C189.267 26.0994 189.24 26.013 189.193 25.7868C189.154 25.5872 189.074 25.4808 188.928 25.4276V25.4076C189.107 25.3544 189.233 25.228 189.233 25.0684C189.233 24.9287 189.174 24.8089 189.094 24.7491C188.981 24.6892 188.861 24.6426 188.582 24.6426C188.336 24.6426 188.15 24.6626 188.017 24.6892V26.1527ZM188.595 26.5518C187.938 26.5518 187.452 26.0329 187.452 25.381C187.452 24.7424 187.938 24.2102 188.589 24.2102C189.24 24.2102 189.712 24.7358 189.712 25.3877C189.712 26.0329 189.24 26.5518 188.595 26.5518ZM188.582 26.8644C189.433 26.8644 190.084 26.2125 190.084 25.381C190.084 24.5695 189.433 23.9175 188.582 23.9175C187.745 23.9175 187.074 24.5695 187.074 25.381C187.074 26.2125 187.745 26.8644 188.582 26.8644ZM123.972 23.7313H123.932H123.892C121.434 23.7313 119.733 21.8288 119.733 19.5205C119.733 17.2122 121.427 15.3097 123.892 15.3097H123.932H123.972C126.431 15.3097 128.132 17.2122 128.132 19.5205C128.132 21.8354 126.431 23.7313 123.972 23.7313ZM123.932 12.3828C119.905 12.3828 116.563 15.2898 116.556 19.5272C116.556 23.7645 119.899 26.6715 123.932 26.6715C127.966 26.6715 131.308 23.7645 131.308 19.5272C131.308 15.2898 127.966 12.3828 123.932 12.3828ZM155.888 23.7316H155.855H155.815C153.35 23.7316 151.649 21.8291 151.649 19.5141C151.649 17.2059 153.35 15.2967 155.815 15.2967H155.855H155.888C158.353 15.2967 160.055 17.1992 160.055 19.5141C160.055 21.8291 158.353 23.7316 155.888 23.7316ZM155.855 12.3631C151.821 12.3631 148.466 15.3034 148.466 19.5141V32.4924H151.649V25.4678C152.845 26.2394 154.293 26.6718 155.848 26.6718C159.882 26.6718 163.231 23.7648 163.231 19.5208C163.238 15.2768 159.888 12.3631 155.855 12.3631ZM139.887 23.7316H139.927C142.392 23.7316 144.093 21.8291 144.093 19.5141C144.093 17.1992 142.392 15.2967 139.927 15.2967H139.887H139.847C137.382 15.2967 135.681 17.2059 135.681 19.5141C135.681 21.8291 137.382 23.7316 139.847 23.7316H139.887ZM132.498 19.5141C132.498 15.3034 135.853 12.3631 139.887 12.3631C143.927 12.3631 147.27 15.2768 147.263 19.5208C147.263 23.7648 143.914 26.6718 139.88 26.6718C138.332 26.6718 136.877 26.2394 135.681 25.4678V32.4924H132.498V19.5141ZM167.231 18.0972C167.231 16.8267 168.879 15.0971 171.079 15.0971C172.528 15.0971 174.448 16.1947 174.448 18.0972H167.231ZM170.88 12.3631C167.138 12.3631 164.042 15.2701 164.035 19.5141C164.035 23.7582 167.138 26.6651 170.88 26.6651C173.132 26.6651 175.505 25.9667 176.754 24.1972L174.88 22.3213C174.063 23.2659 172.813 23.8513 171.265 23.8513C168.813 23.8513 167.165 22.4011 167.165 20.3523H177.671C177.697 20.0796 177.717 19.8002 177.717 19.5075C177.717 15.2768 175.059 12.3631 170.88 12.3631ZM182.096 7.46701V19.5139C182.096 21.8023 183.758 23.6848 186.17 23.7247V26.6649C182.189 26.6051 178.92 23.7114 178.913 19.5139V7.46701H182.096Z" fill="white"/>
<path fill-rule="evenodd" clip-rule="evenodd" d="M2.23204 0.529419H42.9656C43.7145 0.529419 44.319 1.16085 44.3255 1.93486V33.2416C44.3255 34.0156 43.7145 34.6471 42.9656 34.6471H2.23204C1.48307 34.6471 0.87207 34.0156 0.87207 33.2416V1.93486C0.87207 1.16085 1.48307 0.529419 2.23204 0.529419ZM11.7901 21.1394C11.7901 22.1457 12.6016 22.9621 13.602 22.9621C14.6024 22.9621 15.421 22.1457 15.414 21.1394C15.414 20.1259 14.6024 19.3095 13.602 19.3095C12.6016 19.3095 11.7901 20.133 11.7901 21.1394ZM8.46697 16.3467C7.46655 16.3467 6.65502 17.1701 6.65502 18.1765C6.65502 19.1829 7.46655 19.9992 8.46697 20.0063C9.46739 20.0063 10.2789 19.1829 10.2789 18.1765C10.2789 17.163 9.46739 16.3467 8.46697 16.3467ZM15.414 15.2066C15.414 14.2002 14.6024 13.3838 13.602 13.3838C12.6016 13.3838 11.7901 14.2072 11.7901 15.2066C11.7901 16.213 12.6016 17.0293 13.602 17.0293C14.6024 17.0293 15.414 16.213 15.414 15.2066ZM17.5058 16.3959H40.7953V19.957H38.9064V24.8764H37.0175V22.4202H35.1915V24.8764H33.3026V19.957H17.5058C17.6177 20.33 17.6807 20.7241 17.6807 21.1394C17.6807 23.3985 15.8547 25.2353 13.609 25.2353C11.6851 25.2353 10.083 23.8911 9.64929 22.0965C9.27151 22.2091 8.87973 22.2724 8.46697 22.2724C6.22127 22.2724 4.39533 20.4356 4.39533 18.1765C4.39533 15.9174 6.22127 14.0805 8.46697 14.0805C8.87973 14.0805 9.27851 14.1439 9.64929 14.2565C10.083 12.4619 11.6921 11.1177 13.609 11.1177C15.8547 11.1177 17.6807 12.9545 17.6807 15.2136C17.6807 15.6288 17.6177 16.0229 17.5058 16.3959Z" fill="white"/>
</svg>
