<svg width="40" height="42" viewBox="0 0 40 42" fill="none" xmlns="http://www.w3.org/2000/svg">
<path d="M11.155 31.7673L10.9542 31.5951L10.7671 31.7822L2.10013 40.4492C1.88116 40.6681 1.6146 40.7717 1.35421 40.7717C1.09382 40.7717 0.827264 40.6681 0.608294 40.4492C0.178187 40.0191 0.178188 39.3874 0.6083 38.9573L0.609866 38.9557L9.2091 30.2211L9.39283 30.0345L9.22288 29.8352C3.42754 23.0407 3.69442 12.7824 10.155 6.32136C16.9506 -0.40709 27.942 -0.405631 34.6685 6.32048C41.397 13.1162 41.3953 24.1078 34.6689 30.8343C31.2718 34.2314 26.8767 35.8966 22.4122 35.8966C18.4134 35.8966 14.4179 34.564 11.155 31.7673ZM22.4799 3.46324C18.5494 3.46324 14.6834 4.91199 11.715 7.88039C5.78033 13.8151 5.78015 23.4082 11.7833 29.343C17.718 35.2771 27.3103 35.2769 33.2448 29.3424C39.1795 23.4077 39.1795 13.8151 33.2448 7.88039C30.2759 4.91153 26.342 3.46324 22.4799 3.46324Z" fill="#002A61" stroke="white" stroke-width="0.571429"/>
<path d="M21.8295 12.0848L21.6242 12.145C20.0041 12.6205 18.857 13.9936 18.857 15.5813C18.857 17.5482 20.6259 19.1948 22.8567 19.1948C23.3623 19.1948 23.8368 19.349 24.1914 19.606C24.5441 19.8617 24.8019 20.2398 24.8019 20.6836C24.8019 21.1274 24.5441 21.5055 24.1914 21.7612C23.8368 22.0182 23.3623 22.1724 22.8567 22.1724C21.9298 22.1724 21.2005 21.6639 20.9831 21.0783C20.7781 20.5264 20.1823 20.2599 19.6609 20.4643L19.6607 20.4644C19.1332 20.6706 18.8593 21.2835 19.065 21.8387C19.4719 22.9361 20.4301 23.7734 21.6243 24.1211L21.8301 24.181V24.3954V25.3559C21.8301 25.9493 22.2975 26.4182 22.8573 26.4182C23.4172 26.4182 23.8845 25.9493 23.8845 25.3559V24.394V24.1801L24.0898 24.1199C25.71 23.6444 26.857 22.2713 26.857 20.6843C26.857 18.7174 25.0881 17.0708 22.8573 17.0708C22.3517 17.0708 21.8772 16.9166 21.5226 16.6596C21.1699 16.4039 20.9121 16.0258 20.9121 15.582C20.9121 15.1382 21.1699 14.7601 21.5226 14.5044C21.8772 14.2474 22.3517 14.0932 22.8573 14.0932C23.8515 14.0932 24.6079 14.6657 24.7684 15.309L21.8295 12.0848ZM21.8295 12.0848V11.8709M21.8295 12.0848V11.8709M21.8295 11.8709V10.9091C21.8295 10.3158 22.2973 9.84675 22.8573 9.84675C23.4172 9.84675 23.8845 10.3156 23.8845 10.9091V11.8742V12.089L24.0908 12.1487C25.4188 12.5333 26.4411 13.5113 26.7579 14.7765C26.9019 15.3519 26.5623 15.9282 26.0174 16.0721L26.0173 16.0722M21.8295 11.8709L26.0173 16.0722M26.0173 16.0722C25.4731 16.2163 24.9122 15.882 24.7685 15.3093L26.0173 16.0722Z" fill="#002A61" stroke="white" stroke-width="0.571429"/>
</svg>
