<svg width="40" height="40" viewBox="0 0 40 40" fill="none" xmlns="http://www.w3.org/2000/svg">
<path d="M39.6237 27.1988C39.2723 26.5807 38.7346 26.0893 38.0875 25.7947C37.4403 25.5001 36.7166 25.4174 36.0197 25.5583V13.6946L36.4757 14.0683C36.6505 14.2057 36.8679 14.2774 37.0901 14.271H37.1661H37.2168C37.4169 14.2794 37.6146 14.2244 37.7815 14.1137C37.9485 14.0031 38.0762 13.8425 38.1464 13.655C38.2167 13.4674 38.2259 13.2624 38.1727 13.0693C38.1195 12.8763 38.0066 12.7049 37.8502 12.5798L35.7157 10.8443L22.5536 0.203035C22.3571 0.0706932 22.1255 0 21.8886 0C21.6516 0 21.42 0.0706932 21.2235 0.203035L5.99027 12.5925C5.796 12.7522 5.67245 12.982 5.64637 13.2321C5.62028 13.4823 5.69378 13.7326 5.85092 13.929C5.9502 14.0518 6.07889 14.1475 6.22505 14.2073C6.37122 14.2671 6.53012 14.289 6.68701 14.271C6.91655 14.2807 7.14176 14.2064 7.32041 14.062L7.78279 13.6883V24.2598C6.48584 24.833 5.27839 25.5903 4.19776 26.5084L0.517712 28.4086C0.291283 28.5266 0.120568 28.7292 0.0426631 28.9724C0.00538068 29.0934 -0.00765601 29.2206 0.00429981 29.3467C0.0162556 29.4728 0.052969 29.5953 0.112337 29.7071L5.09085 39.0182C5.15002 39.1338 5.23318 39.2353 5.33477 39.3162C5.43635 39.397 5.55402 39.4552 5.67991 39.4869C5.75988 39.5119 5.84315 39.5247 5.92693 39.5249C6.10414 39.5246 6.27765 39.4741 6.42732 39.3792L10.1454 37.0736H10.177H10.2214C10.3752 36.991 10.5471 36.9478 10.7218 36.9478C10.8964 36.9478 11.0683 36.991 11.2221 37.0736C15.7256 39.4679 18.4936 40 20.0897 40C20.3993 40.0007 20.7085 39.9774 21.0145 39.9303C21.8886 39.8226 30.0467 39.1892 38.4519 31.373L39.136 30.6889C39.5901 30.2419 39.884 29.6576 39.9721 29.0266C40.0603 28.3956 39.9378 27.7532 39.6237 27.1988ZM9.67665 12.1491L21.8886 2.23627L34.1005 12.1491V26.4577L32.137 27.5725C30.7435 28.3516 29.4893 29.1244 28.3366 29.9225C28.1465 30.0492 27.9692 30.1822 27.7855 30.3089C27.848 30.1857 27.8968 30.0562 27.9312 29.9225C28.0419 29.5656 28.0419 29.1836 27.9312 28.8267C27.8481 28.5546 27.7095 28.3027 27.5242 28.0868C27.3389 27.8709 27.1108 27.6958 26.8544 27.5725V19.2179C26.8531 17.9007 26.3318 16.6374 25.4039 15.7025C24.9094 15.2056 24.3147 14.8198 23.6594 14.5708C23.0041 14.3218 22.3032 14.2153 21.6035 14.2583C20.3235 14.3642 19.1313 14.9522 18.2683 15.9034C17.4052 16.8547 16.9356 18.0983 16.9544 19.3826V24.2028C14.7069 23.0799 12.1165 22.8534 9.70832 23.5694L9.67665 12.1491ZM24.9542 27.0912H24.6692C19.9377 26.7745 19.0509 25.894 18.9686 25.8243L18.8293 25.6723V19.3826C18.8144 18.5852 19.101 17.8115 19.6317 17.2161C20.1625 16.6208 20.8983 16.2477 21.6922 16.1712C22.126 16.1417 22.561 16.2049 22.9684 16.3567C23.3758 16.5086 23.7462 16.7455 24.0548 17.0517C24.6301 17.631 24.9533 18.4141 24.9542 19.2306V27.0912ZM6.28797 37.2257L2.25322 29.6438L4.37511 28.5543L8.39719 35.9272L6.28797 37.2257ZM37.7742 29.3588L37.1408 29.9922C36.613 30.4904 36.0894 30.9507 35.57 31.373L35.3039 31.5883C27.8172 37.65 20.9385 37.9731 20.8625 37.9731H20.7168C19.9187 38.1251 17.4738 38.1694 12.1216 35.3254C11.6933 35.0944 11.2147 34.9726 10.7281 34.9707C10.526 34.973 10.3245 34.9942 10.1264 35.0341L8.03615 31.1386C7.98356 31.0577 7.93698 30.973 7.8968 30.8853L6.05361 27.4649C6.60465 27.0634 7.18475 26.7035 7.78912 26.3881C8.39768 26.0647 9.03353 25.7955 9.68932 25.5836C10.7846 25.1837 11.9523 25.0209 13.1152 25.1061C14.2781 25.1912 15.4097 25.5224 16.435 26.0777C16.6119 26.1786 16.7793 26.2952 16.9354 26.4261C17.1639 26.6052 17.3759 26.8045 17.5688 27.0215C17.9209 27.4033 18.3536 27.7019 18.8356 27.8956C20.0644 28.4403 21.9582 28.7887 24.5362 28.966L24.9479 29.004C25.358 29.0173 25.7576 29.1373 26.107 29.3524C26.0353 29.5736 25.8984 29.7679 25.7143 29.9098C25.6382 29.9861 25.5578 30.058 25.4736 30.1252C25.3093 30.2608 25.1334 30.3816 24.9479 30.4862C23.0171 31.5468 20.7726 31.888 18.6139 31.449C18.1367 31.3562 17.6667 31.2292 17.2078 31.0689C17.1223 31.0388 17.0323 31.0238 16.9417 31.0246C16.7644 31.0132 16.5876 31.0524 16.4317 31.1376C16.2758 31.2228 16.1474 31.3506 16.0613 31.506C16.0078 31.6002 15.9713 31.7031 15.9536 31.81C15.9274 31.9768 15.9451 32.1474 16.0051 32.3052C16.0651 32.463 16.1653 32.6023 16.2957 32.7095C16.4447 32.8052 16.6041 32.8838 16.7707 32.9438C17.3818 33.1747 18.0207 33.3237 18.6709 33.3872C25.5116 33.9826 28.7166 31.9177 28.7166 31.9177L28.8876 31.81L31.9343 29.9098L33.049 29.2131L34.0815 28.6303L35.7093 27.7182L35.798 27.6676C35.8554 27.6237 35.9169 27.5855 35.9817 27.5535C36.3152 27.3832 36.701 27.346 37.0608 27.4495C37.4207 27.553 37.7278 27.7895 37.9199 28.1109C38.0265 28.3088 38.0697 28.5346 38.0436 28.7578C38.0175 28.981 37.9235 29.1908 37.7742 29.3588Z" fill="#002A61"/>
</svg>
