<svg width="40" height="40" viewBox="0 0 40 40" fill="none" xmlns="http://www.w3.org/2000/svg">
<circle cx="20" cy="20" r="19" stroke="#002A61" stroke-width="2"/>
<path d="M20.25 26.5C18.2175 26.5 16.5 25.355 16.5 24C16.5 23.6685 16.3683 23.3505 16.1339 23.1161C15.8995 22.8817 15.5815 22.75 15.25 22.75C14.9185 22.75 14.6005 22.8817 14.3661 23.1161C14.1317 23.3505 14 23.6685 14 24C14 26.415 16.1512 28.4337 19 28.8987V30.25C19 30.5815 19.1317 30.8995 19.3661 31.1339C19.6005 31.3683 19.9185 31.5 20.25 31.5C20.5815 31.5 20.8995 31.3683 21.1339 31.1339C21.3683 30.8995 21.5 30.5815 21.5 30.25V28.8987C24.3487 28.4337 26.5 26.415 26.5 24C26.5 21.2425 23.6962 19 20.25 19C18.2175 19 16.5 17.855 16.5 16.5C16.5 15.145 18.2175 14 20.25 14C22.2825 14 24 15.145 24 16.5C24 16.8315 24.1317 17.1495 24.3661 17.3839C24.6005 17.6183 24.9185 17.75 25.25 17.75C25.5815 17.75 25.8995 17.6183 26.1339 17.3839C26.3683 17.1495 26.5 16.8315 26.5 16.5C26.5 14.085 24.3487 12.0662 21.5 11.6012V10.25C21.5 9.91848 21.3683 9.60054 21.1339 9.36612C20.8995 9.1317 20.5815 9 20.25 9C19.9185 9 19.6005 9.1317 19.3661 9.36612C19.1317 9.60054 19 9.91848 19 10.25V11.6012C16.1512 12.0662 14 14.085 14 16.5C14 19.2575 16.8037 21.5 20.25 21.5C22.2825 21.5 24 22.645 24 24C24 25.355 22.2825 26.5 20.25 26.5Z" fill="#002A61"/>
</svg>
