<svg width="34" height="44" viewBox="0 0 34 44" fill="none" xmlns="http://www.w3.org/2000/svg">
<path d="M20.3874 16.2399C20.3969 16.2255 20.4016 16.2111 20.4112 16.2015C21.7087 16.9871 23.2297 17.4421 24.8504 17.4421C29.6224 17.4421 33.5009 13.5288 33.5009 8.72451C33.5009 3.91545 29.6177 0.00689697 24.8504 0.00689697C20.0784 0.00689697 16.2 3.92024 16.2 8.72451C16.2 11.2153 17.2457 13.4665 18.914 15.0568C18.8807 15.0951 18.8474 15.1286 18.8189 15.1717C18.7191 15.3202 16.7514 18.2947 16.0859 23.4391C15.9433 22.8643 15.7437 22.256 15.468 21.6668C15.6059 21.4369 15.7342 21.1926 15.8435 20.9435C16.1192 20.3161 16.2998 19.6503 16.3759 18.9653C16.528 17.5906 16.2666 16.2255 15.6154 15.0041C14.9215 13.7108 13.8045 12.6762 12.4737 12.0918C11.7417 11.7661 10.967 11.5601 10.178 11.4739C5.62937 10.971 4.00385 8.27905 3.83274 7.9725C3.83274 7.96771 3.82799 7.96771 3.82799 7.96292C3.59985 7.5462 3.17208 7.28754 2.69678 7.28754C2.4924 7.28754 2.28327 7.34023 2.10266 7.43603C1.78896 7.59889 1.55131 7.89107 1.45625 8.23594C-0.193034 13.8784 0.306029 18.7019 2.86313 21.8153C3.74244 22.8978 4.88791 23.7552 6.16646 24.2965C7.1931 24.7371 8.28154 24.9575 9.39849 24.9575C9.5791 24.9575 9.75971 24.9527 9.94033 24.9383C11.5373 24.8234 12.968 24.2438 14.0754 23.305C14.5935 24.9144 14.565 26.4759 14.565 26.5142C14.5602 26.6196 14.5745 26.7202 14.603 26.816H4.69779C4.17496 26.816 3.75194 27.2423 3.75194 27.7692V33.1578C3.75194 33.6847 4.17496 34.111 4.69779 34.111H7.06002L9.67416 43.3124C9.79298 43.7195 10.1637 44.0021 10.5867 44.0021H23.9236C24.3466 44.0021 24.7174 43.7195 24.8362 43.3124L27.4503 34.1206H29.8126C30.3354 34.1206 30.7584 33.6943 30.7584 33.1674V27.7787C30.7584 27.2518 30.3354 26.8255 29.8126 26.8255H17.759C17.7637 23.3912 18.4767 20.7088 19.0708 19.0563C19.722 17.2505 20.3779 16.2494 20.3874 16.2399ZM18.0917 8.71972C18.0917 4.96444 21.1241 1.90849 24.8504 1.90849C28.5768 1.90849 31.6092 4.96444 31.6092 8.71972C31.6092 12.475 28.5768 15.531 24.8504 15.531C21.1241 15.531 18.0917 12.475 18.0917 8.71972ZM9.812 23.0367C9.67416 23.0463 9.53632 23.0511 9.39849 23.0511C8.5382 23.0511 7.70167 22.8787 6.90792 22.5386C5.9098 22.1123 5.02099 21.4465 4.33181 20.5987C2.35457 18.2037 1.87927 14.4628 2.95344 9.97947C3.9991 11.1865 6.14745 12.9444 9.9736 13.3707C10.5725 13.433 11.1571 13.5911 11.7132 13.8401C12.6638 14.2568 13.4575 14.9945 13.9471 15.9094C14.4129 16.7859 14.603 17.7678 14.4937 18.7546C14.4557 19.1138 14.3749 19.4635 14.256 19.8035C13.9518 19.473 13.6096 19.1665 13.2199 18.8983C13.2627 18.1223 13.1961 16.853 12.4927 15.8567C12.1885 15.4256 11.5944 15.3298 11.1714 15.6363C10.7436 15.9429 10.6485 16.5368 10.9527 16.9679C11.1333 17.2218 11.2331 17.5427 11.2854 17.8732C11.0525 17.7583 10.8244 17.6529 10.6057 17.5523C10.0877 17.308 9.61712 17.0877 9.1846 16.8626C9.46028 16.2399 9.79298 15.1909 9.4983 14.1563C9.35571 13.6485 8.82813 13.3563 8.32907 13.5C7.82525 13.6437 7.53532 14.1754 7.67791 14.6784C7.77772 15.028 7.68266 15.4639 7.55908 15.8184C6.81762 15.2052 6.20924 14.4101 5.65789 13.1887C5.43925 12.7097 4.8784 12.4942 4.4031 12.7145C3.9278 12.9348 3.71392 13.5 3.93256 13.979C5.26814 16.9536 7.03625 17.9642 9.24639 19.018C8.98022 19.1904 8.54295 19.3293 7.82525 19.2815C7.30242 19.2479 6.85089 19.6455 6.81762 20.1724C6.78435 20.6993 7.17884 21.1543 7.70167 21.1878C7.83951 21.1974 7.96784 21.2022 8.09617 21.2022C9.64089 21.2022 10.563 20.5556 11.0573 19.885C11.2902 19.9999 11.5326 20.1197 11.775 20.2538C11.775 20.2538 11.7797 20.2538 11.7797 20.2586C12.3739 20.5699 12.8396 21.0202 13.2056 21.5327C12.3548 22.3997 11.1666 22.9409 9.812 23.0367ZM23.2059 42.0957H11.2997L9.02775 34.1206H25.4778L23.2059 42.0957ZM28.862 32.2142H5.64363V28.7319H28.862V32.2142Z" fill="#002A61"/>
<path d="M24.8507 11.0598C23.9429 11.0598 23.4581 10.6143 23.4581 10.4323C23.4581 9.90542 23.0351 9.47912 22.5122 9.47912C21.9894 9.47912 21.5664 9.90542 21.5664 10.4323C21.5664 11.5819 22.5122 12.5351 23.8526 12.8512V13.5266C23.8526 14.0535 24.2756 14.4798 24.7984 14.4798C25.3213 14.4798 25.7443 14.0535 25.7443 13.5266V12.8752C27.1417 12.583 28.1398 11.6154 28.1398 10.4323C28.1398 9.18693 26.9515 8.1619 24.9648 7.69249C24.922 7.68291 24.884 7.67812 24.846 7.67333C23.9144 7.39551 23.4819 7.01232 23.4628 6.88299C23.4628 6.66745 24.0047 6.25552 24.8555 6.25552C25.7063 6.25552 26.2481 6.66745 26.2481 6.88299C26.2481 7.40988 26.6711 7.83618 27.1939 7.83618C27.7168 7.83618 28.1398 7.40988 28.1398 6.88299C28.1398 5.69989 27.1417 4.73233 25.7443 4.44014V3.85578C25.7443 3.32889 25.3213 2.90259 24.7984 2.90259C24.2756 2.90259 23.8526 3.32889 23.8526 3.85578V4.46409C22.5122 4.78502 21.5664 5.73342 21.5664 6.88299C21.5664 8.12837 22.7547 9.14861 24.7414 9.62281C24.7842 9.63239 24.8222 9.63718 24.865 9.64197C25.7966 9.91979 26.2243 10.303 26.2481 10.4323C26.2433 10.6143 25.7585 11.0598 24.8507 11.0598Z" fill="#002A61"/>
</svg>
