<svg width="52" height="67" viewBox="0 0 52 67" fill="none" xmlns="http://www.w3.org/2000/svg">
<path d="M30.8825 24.7292C30.8971 24.7073 30.9044 24.6854 30.919 24.6708C32.9109 25.867 35.2457 26.5599 37.7338 26.5599C45.0593 26.5599 51.0131 20.6009 51.0131 13.2853C51.0131 5.96242 45.052 0.0107422 37.7338 0.0107422C30.4083 0.0107422 24.4544 5.96971 24.4544 13.2853C24.4544 17.078 26.0596 20.5061 28.6207 22.9276C28.5696 22.986 28.5185 23.037 28.4747 23.1027C28.3215 23.3288 25.3008 27.8582 24.2793 35.6916C24.0604 34.8164 23.754 33.8901 23.3308 32.9929C23.5424 32.6428 23.7394 32.2709 23.9072 31.8916C24.3304 30.9361 24.6077 29.9223 24.7244 28.8793C24.9579 26.786 24.5566 24.7073 23.557 22.8474C22.4917 20.8781 20.7771 19.3026 18.7341 18.4128C17.6105 17.9168 16.4212 17.6032 15.21 17.4719C8.22736 16.7061 5.73201 12.607 5.46934 12.1402C5.46934 12.1329 5.46205 12.1329 5.46205 12.1256C5.11182 11.4911 4.45515 11.0972 3.72552 11.0972C3.41177 11.0972 3.09073 11.1774 2.81347 11.3233C2.33191 11.5713 1.9671 12.0162 1.82117 12.5413C-0.710663 21.1333 0.0554539 28.4781 3.98089 33.219C5.33071 34.8674 7.08913 36.173 9.05185 36.9972C10.6279 37.6682 12.2987 38.0037 14.0134 38.0037C14.2906 38.0037 14.5679 37.9964 14.8451 37.9745C17.2967 37.7995 19.4929 36.917 21.193 35.4874C21.9883 37.9381 21.9445 40.3158 21.9445 40.3742C21.9372 40.5346 21.9591 40.6878 22.0029 40.8337H6.79728C5.99468 40.8337 5.34531 41.4828 5.34531 42.2851V50.4906C5.34531 51.2929 5.99468 51.942 6.79728 51.942H10.4236L14.4366 65.9532C14.619 66.5732 15.1881 67.0035 15.8375 67.0035H36.311C36.9604 67.0035 37.5295 66.5732 37.7119 65.9532L41.7249 51.9566H45.3512C46.1538 51.9566 46.8031 51.3075 46.8031 50.5052V42.2997C46.8031 41.4974 46.1538 40.8483 45.3512 40.8483H26.8476C26.8549 35.6187 27.9494 31.5342 28.8614 29.0179C29.861 26.2681 30.8679 24.7437 30.8825 24.7292ZM27.3584 13.278C27.3584 7.55974 32.0135 2.90635 37.7338 2.90635C43.4541 2.90635 48.1092 7.55974 48.1092 13.278C48.1092 18.9963 43.4541 23.6497 37.7338 23.6497C32.0135 23.6497 27.3584 18.9963 27.3584 13.278ZM14.6481 35.0789C14.4366 35.0935 14.225 35.1008 14.0134 35.1008C12.6927 35.1008 11.4086 34.8382 10.1901 34.3204C8.65785 33.6712 7.29343 32.6574 6.23546 31.3664C3.20018 27.7196 2.47054 22.0232 4.11952 15.1963C5.72472 17.0343 9.02266 19.7111 14.8962 20.3602C15.8156 20.455 16.713 20.6957 17.5667 21.075C19.026 21.7096 20.2444 22.8328 20.996 24.2259C21.711 25.5606 22.0029 27.0558 21.835 28.5584C21.7767 29.1054 21.6526 29.6378 21.4702 30.1557C21.0033 29.6524 20.4779 29.1856 19.8796 28.7772C19.9453 27.5956 19.8431 25.6627 18.7633 24.1457C18.2963 23.4892 17.3843 23.3433 16.7349 23.8101C16.0782 24.2769 15.9323 25.1814 16.3993 25.8378C16.6765 26.2244 16.8298 26.713 16.91 27.2163C16.5525 27.0413 16.2023 26.8808 15.8666 26.7276C15.0713 26.3556 14.349 26.0201 13.685 25.6773C14.1082 24.7292 14.619 23.1318 14.1666 21.5564C13.9477 20.7832 13.1378 20.3383 12.3717 20.5571C11.5983 20.776 11.1532 21.5856 11.3721 22.3514C11.5253 22.8838 11.3794 23.5476 11.1897 24.0873C10.0514 23.1537 9.11752 21.9429 8.27114 20.0831C7.93551 19.3537 7.07454 19.0255 6.3449 19.361C5.61527 19.6965 5.28693 20.5571 5.62257 21.2865C7.67284 25.8159 10.3871 27.3549 13.7799 28.9595C13.3713 29.2221 12.7 29.4336 11.5983 29.3607C10.7957 29.3096 10.1025 29.915 10.0514 30.7173C10.0004 31.5196 10.606 32.2125 11.4086 32.2636C11.6202 32.2781 11.8172 32.2854 12.0142 32.2854C14.3855 32.2854 15.801 31.3008 16.5598 30.2797C16.9173 30.4547 17.2894 30.6371 17.6615 30.8413C17.6615 30.8413 17.6688 30.8413 17.6688 30.8486C18.5809 31.3227 19.2959 32.0083 19.8577 32.7887C18.5517 34.1089 16.7276 34.9331 14.6481 35.0789ZM35.2093 64.1006H16.9319L13.4442 51.9566H38.6969L35.2093 64.1006ZM43.8919 49.0537H8.24925V43.7512H43.8919V49.0537Z" fill="white"/>
<path d="M37.734 16.8411C36.3404 16.8411 35.5962 16.1628 35.5962 15.8856C35.5962 15.0833 34.9468 14.4342 34.1442 14.4342C33.3416 14.4342 32.6923 15.0833 32.6923 15.8856C32.6923 17.6361 34.1442 19.0876 36.2018 19.569V20.5974C36.2018 21.3997 36.8512 22.0488 37.6538 22.0488C38.4564 22.0488 39.1057 21.3997 39.1057 20.5974V19.6054C41.2509 19.1605 42.7831 17.6872 42.7831 15.8856C42.7831 13.9893 40.959 12.4284 37.9091 11.7136C37.8435 11.699 37.7851 11.6918 37.7267 11.6845C36.2967 11.2614 35.6327 10.6779 35.6035 10.481C35.6035 10.1528 36.4353 9.52552 37.7413 9.52552C39.0474 9.52552 39.8792 10.1528 39.8792 10.481C39.8792 11.2833 40.5285 11.9324 41.3311 11.9324C42.1337 11.9324 42.7831 11.2833 42.7831 10.481C42.7831 8.67945 41.2509 7.20612 39.1057 6.7612V5.87137C39.1057 5.06906 38.4564 4.41992 37.6538 4.41992C36.8512 4.41992 36.2018 5.06906 36.2018 5.87137V6.79767C34.1442 7.28635 32.6923 8.73051 32.6923 10.481C32.6923 12.3774 34.5163 13.9309 37.5662 14.653C37.6319 14.6676 37.6903 14.6749 37.7559 14.6822C39.186 15.1052 39.8427 15.6887 39.8792 15.8856C39.8719 16.1628 39.1276 16.8411 37.734 16.8411Z" fill="white"/>
</svg>
