<svg width="594" height="211" viewBox="0 0 594 211" fill="none" xmlns="http://www.w3.org/2000/svg">
<path d="M39.7266 36.1797H49.0312L45.5391 24.8594C45.4609 24.6562 45.3125 24.0938 45.0938 23.1719C44.8281 22.0938 44.5859 21.1172 44.3672 20.2422C44.1484 21.0391 43.9609 21.8438 43.8047 22.6562C43.5547 23.4375 43.3438 24.1719 43.1719 24.8594L39.7266 36.1797ZM26.625 49L38.4609 14.6875H50.1797L62.0391 49H52.7344L51 42.8594H37.7109L35.9297 49H26.625ZM65.3438 49V14.6875H75.1172C77.0078 14.6875 78.6016 14.7266 79.8984 14.8047C81.2109 14.8828 82.2891 15.0156 83.1328 15.2031C84.5859 15.5469 85.8828 16.1406 87.0234 16.9844C88.2734 17.9219 89.2188 19.125 89.8594 20.5938C90.5312 22 90.8672 23.5938 90.8672 25.375C90.8672 28.0156 90.2109 30.1797 88.8984 31.8672C87.6172 33.5547 85.7188 34.6562 83.2031 35.1719L92.5547 49H81.9844L74.1094 35.5703V49H65.3438ZM74.1094 30.9062H75.8438C77.8906 30.9062 79.3672 30.5703 80.2734 29.8984C81.1953 29.1484 81.6562 28.0625 81.6562 26.6406C81.6562 24.9219 81.2266 23.7031 80.3672 22.9844C79.4922 22.25 78.0312 21.8828 75.9844 21.8828H74.1094V30.9062ZM96.1406 49V14.6875H105.914C107.805 14.6875 109.398 14.7266 110.695 14.8047C112.008 14.8828 113.086 15.0156 113.93 15.2031C115.383 15.5469 116.68 16.1406 117.82 16.9844C119.07 17.9219 120.016 19.125 120.656 20.5938C121.328 22 121.664 23.5938 121.664 25.375C121.664 28.0156 121.008 30.1797 119.695 31.8672C118.414 33.5547 116.516 34.6562 114 35.1719L123.352 49H112.781L104.906 35.5703V49H96.1406ZM104.906 30.9062H106.641C108.688 30.9062 110.164 30.5703 111.07 29.8984C111.992 29.1484 112.453 28.0625 112.453 26.6406C112.453 24.9219 112.023 23.7031 111.164 22.9844C110.289 22.25 108.828 21.8828 106.781 21.8828H104.906V30.9062ZM126.938 49V14.6875H147.961V22.2109H136.055V28.1641H147.281V35.5234H136.055V41.3125H147.961V49H126.938ZM154.172 49V14.6875H163.195L176.156 32.3359C176.484 32.8203 176.898 33.5469 177.398 34.5156C178.039 35.7656 178.664 37.0547 179.273 38.3828C179.039 36.5859 178.906 35.3281 178.875 34.6094C178.781 33.4844 178.734 32.4922 178.734 31.6328V14.6875H187.711V49H178.734L165.773 31.2812C165.586 31.0312 165.172 30.2969 164.531 29.0781C163.969 28.0781 163.344 26.8125 162.656 25.2812C162.812 26.5 162.961 27.7656 163.102 29.0781C163.164 30.5469 163.195 31.5391 163.195 32.0547V49H154.172ZM195.094 49V14.6875H202.242C207.648 14.6875 211.422 14.9375 213.562 15.4375C215.781 15.9375 217.719 16.7734 219.375 17.9453C221.562 19.4453 223.211 21.3828 224.32 23.7578C225.445 26.1484 226.008 28.8516 226.008 31.8672C226.008 34.8828 225.445 37.5859 224.32 39.9766C223.211 42.3203 221.562 44.2578 219.375 45.7891C217.656 46.9609 215.766 47.7734 213.703 48.2266C211.641 48.7422 208.344 49 203.812 49H202.242H195.094ZM204.352 41.3125H205.922C209.609 41.3125 212.289 40.5469 213.961 39.0156C215.648 37.5156 216.492 35.1328 216.492 31.8672C216.492 28.6172 215.648 26.2188 213.961 24.6719C212.273 23.125 209.594 22.3516 205.922 22.3516H204.352V41.3125ZM240.961 36.1797H250.266L246.773 24.8594C246.695 24.6562 246.547 24.0938 246.328 23.1719C246.062 22.0938 245.82 21.1172 245.602 20.2422C245.383 21.0391 245.195 21.8438 245.039 22.6562C244.789 23.4375 244.578 24.1719 244.406 24.8594L240.961 36.1797ZM227.859 49L239.695 14.6875H251.414L263.273 49H253.969L252.234 42.8594H238.945L237.164 49H227.859ZM305.93 49H297.188L295.172 34.1641C295 32.8359 294.875 31.6719 294.797 30.6719C294.688 29.6875 294.578 28.2891 294.469 26.4766C294.188 28.1016 293.75 29.9141 293.156 31.9141C293.031 32.3047 292.938 32.6406 292.875 32.9219L288.211 49H281.977L277.312 32.9219C277.266 32.6562 277.172 32.3203 277.031 31.9141C276.375 29.8047 275.945 27.9922 275.742 26.4766C275.617 28.1953 275.5 29.4766 275.391 30.3203C275.344 30.7578 275.273 31.3984 275.18 32.2422C275.086 33.0859 275.016 33.7266 274.969 34.1641L272.953 49H264.258L269.555 14.6875H278.812L283.992 32.3828C284.086 32.7109 284.148 32.9219 284.18 33.0156C284.633 34.4844 284.938 35.8281 285.094 37.0469C285.125 36.625 285.242 35.9375 285.445 34.9844C285.508 34.75 285.742 33.8672 286.148 32.3359L291.375 14.6875H300.656L305.93 49ZM311.203 49V14.6875H320.648V49H311.203ZM328.219 49V14.6875H349.242V22.2109H337.336V28.1641H348.562V35.5234H337.336V41.3125H349.242V49H328.219ZM355.453 49V14.6875H364.477L377.438 32.3359C377.766 32.8203 378.18 33.5469 378.68 34.5156C379.32 35.7656 379.945 37.0547 380.555 38.3828C380.32 36.5859 380.188 35.3281 380.156 34.6094C380.062 33.4844 380.016 32.4922 380.016 31.6328V14.6875H388.992V49H380.016L367.055 31.2812C366.867 31.0312 366.453 30.2969 365.812 29.0781C365.25 28.0781 364.625 26.8125 363.938 25.2812C364.094 26.5 364.242 27.7656 364.383 29.0781C364.445 30.5469 364.477 31.5391 364.477 32.0547V49H355.453ZM401.32 49V22.7969H393.633V14.6875H418.359V22.7969H410.672V49H401.32ZM458.18 31.9141C458.18 34.3984 457.734 36.7188 456.844 38.875C455.953 40.9844 454.625 42.9062 452.859 44.6406C451.109 46.3281 449.109 47.625 446.859 48.5312C444.5 49.4531 442.164 49.9141 439.852 49.9141C437.508 49.9141 435.172 49.4531 432.844 48.5312C430.547 47.6094 428.562 46.3125 426.891 44.6406C425.203 43.0312 423.875 41.0938 422.906 38.8281C421.969 36.6094 421.5 34.3047 421.5 31.9141C421.5 29.5234 421.969 27.2188 422.906 25C423.875 22.7344 425.203 20.7969 426.891 19.1875C428.609 17.4688 430.594 16.1562 432.844 15.25C435.031 14.3594 437.367 13.9141 439.852 13.9141C442.336 13.9141 444.688 14.3672 446.906 15.2734C449.125 16.1641 451.102 17.4688 452.836 19.1875C454.586 20.9062 455.922 22.8438 456.844 25C457.734 27.1562 458.18 29.4609 458.18 31.9141ZM439.852 41.9922C442.43 41.9922 444.586 41.0312 446.32 39.1094C447.18 38.1562 447.812 37.0859 448.219 35.8984C448.625 34.7109 448.828 33.3828 448.828 31.9141C448.828 29.0547 447.977 26.6562 446.273 24.7188C444.539 22.7969 442.398 21.8359 439.852 21.8359C437.242 21.8359 435.094 22.7969 433.406 24.7188C431.719 26.6406 430.875 29.0391 430.875 31.9141C430.875 34.8984 431.703 37.3125 433.359 39.1562C435.062 41.0469 437.227 41.9922 439.852 41.9922ZM39.7266 84.1797H49.0312L45.5391 72.8594C45.4609 72.6562 45.3125 72.0938 45.0938 71.1719C44.8281 70.0938 44.5859 69.1172 44.3672 68.2422C44.1484 69.0391 43.9609 69.8438 43.8047 70.6562C43.5547 71.4375 43.3438 72.1719 43.1719 72.8594L39.7266 84.1797ZM26.625 97L38.4609 62.6875H50.1797L62.0391 97H52.7344L51 90.8594H37.7109L35.9297 97H26.625ZM80.3906 97V62.6875H89.7422V88.9844H101.367V97H80.3906ZM115.008 84.1797H124.312L120.82 72.8594C120.742 72.6562 120.594 72.0938 120.375 71.1719C120.109 70.0938 119.867 69.1172 119.648 68.2422C119.43 69.0391 119.242 69.8438 119.086 70.6562C118.836 71.4375 118.625 72.1719 118.453 72.8594L115.008 84.1797ZM101.906 97L113.742 62.6875H125.461L137.32 97H128.016L126.281 90.8594H112.992L111.211 97H101.906ZM140.625 97V62.6875H150.398C152.289 62.6875 153.883 62.7266 155.18 62.8047C156.492 62.8828 157.57 63.0156 158.414 63.2031C159.867 63.5469 161.164 64.1406 162.305 64.9844C163.555 65.9219 164.5 67.125 165.141 68.5938C165.812 70 166.148 71.5938 166.148 73.375C166.148 76.0156 165.492 78.1797 164.18 79.8672C162.898 81.5547 161 82.6562 158.484 83.1719L167.836 97H157.266L149.391 83.5703V97H140.625ZM149.391 78.9062H151.125C153.172 78.9062 154.648 78.5703 155.555 77.8984C156.477 77.1484 156.938 76.0625 156.938 74.6406C156.938 72.9219 156.508 71.7031 155.648 70.9844C154.773 70.25 153.312 69.8828 151.266 69.8828H149.391V78.9062ZM187.734 84.3672V77.1719H206.109C206.109 77.5 206.125 77.7578 206.156 77.9453V79.1875C206.156 85.1094 204.609 89.6875 201.516 92.9219C198.391 96.1875 193.992 97.8203 188.32 97.8203C185.617 97.8203 183.148 97.4062 180.914 96.5781C178.758 95.75 176.82 94.4688 175.102 92.7344C173.461 91.0625 172.203 89.125 171.328 86.9219C170.859 85.75 170.516 84.5781 170.297 83.4062C170.078 82.2188 169.969 81.0391 169.969 79.8672C169.969 77.3359 170.406 74.9844 171.281 72.8125C172.156 70.7031 173.461 68.7656 175.195 67C176.852 65.3438 178.82 64.0781 181.102 63.2031C183.352 62.3438 185.758 61.9141 188.32 61.9141C191.664 61.9141 194.633 62.5859 197.227 63.9297C198.055 64.3359 198.867 64.8438 199.664 65.4531C200.477 66.0469 201.219 66.7109 201.891 67.4453C202.578 68.1797 203.203 68.9766 203.766 69.8359L195.656 73.7266C194.688 72.3984 193.602 71.4062 192.398 70.75C191.164 70.1094 189.805 69.7891 188.32 69.7891C185.508 69.7891 183.312 70.7188 181.734 72.5781C180.141 74.4219 179.344 76.9766 179.344 80.2422C179.344 83.5234 180.141 86.1016 181.734 87.9766C183.312 89.8359 185.508 90.7656 188.32 90.7656C190.711 90.7656 192.688 90.1719 194.25 88.9844C195.875 87.8125 196.805 86.2734 197.039 84.3672H187.734ZM247.102 79.9141C247.102 82.3984 246.656 84.7188 245.766 86.875C244.875 88.9844 243.547 90.9062 241.781 92.6406C240.031 94.3281 238.031 95.625 235.781 96.5312C233.422 97.4531 231.086 97.9141 228.773 97.9141C226.43 97.9141 224.094 97.4531 221.766 96.5312C219.469 95.6094 217.484 94.3125 215.812 92.6406C214.125 91.0312 212.797 89.0938 211.828 86.8281C210.891 84.6094 210.422 82.3047 210.422 79.9141C210.422 77.5234 210.891 75.2188 211.828 73C212.797 70.7344 214.125 68.7969 215.812 67.1875C217.531 65.4688 219.516 64.1562 221.766 63.25C223.953 62.3594 226.289 61.9141 228.773 61.9141C231.258 61.9141 233.609 62.3672 235.828 63.2734C238.047 64.1641 240.023 65.4688 241.758 67.1875C243.508 68.9062 244.844 70.8438 245.766 73C246.656 75.1562 247.102 77.4609 247.102 79.9141ZM228.773 89.9922C231.352 89.9922 233.508 89.0312 235.242 87.1094C236.102 86.1562 236.734 85.0859 237.141 83.8984C237.547 82.7109 237.75 81.3828 237.75 79.9141C237.75 77.0547 236.898 74.6562 235.195 72.7188C233.461 70.7969 231.32 69.8359 228.773 69.8359C226.164 69.8359 224.016 70.7969 222.328 72.7188C220.641 74.6406 219.797 77.0391 219.797 79.9141C219.797 82.8984 220.625 85.3125 222.281 87.1562C223.984 89.0469 226.148 89.9922 228.773 89.9922ZM276.797 97H268.031V62.6875H277.805C281.602 62.6875 284.297 62.875 285.891 63.25C287.453 63.6562 288.758 64.2969 289.805 65.1719C291.055 66.2188 292.016 67.5156 292.688 69.0625C293.359 70.6406 293.695 72.3984 293.695 74.3359C293.695 76.3984 293.359 78.1953 292.688 79.7266C292.094 81.2734 291.133 82.5547 289.805 83.5703C288.852 84.3203 287.703 84.8594 286.359 85.1875C285.156 85.5156 283.062 85.6797 280.078 85.6797H278.484H276.797V97ZM276.797 78.1328H278.578C280.797 78.1328 282.367 77.8125 283.289 77.1719C284.18 76.5781 284.625 75.5391 284.625 74.0547C284.625 72.6328 284.188 71.6172 283.312 71.0078C282.453 70.3828 280.906 70.0703 278.672 70.0703H276.797V78.1328ZM298.453 97V62.6875H307.805V88.9844H319.43V97H298.453ZM333.07 84.1797H342.375L338.883 72.8594C338.805 72.6562 338.656 72.0938 338.438 71.1719C338.172 70.0938 337.93 69.1172 337.711 68.2422C337.492 69.0391 337.305 69.8438 337.148 70.6562C336.898 71.4375 336.688 72.1719 336.516 72.8594L333.07 84.1797ZM319.969 97L331.805 62.6875H343.523L355.383 97H346.078L344.344 90.8594H331.055L329.273 97H319.969ZM385.453 97H355.125L372.445 70.1172H358.547V62.6875H387.422L370.148 89.5234H385.453V97ZM426.398 79.9141C426.398 82.3984 425.953 84.7188 425.062 86.875C424.172 88.9844 422.844 90.9062 421.078 92.6406C419.328 94.3281 417.328 95.625 415.078 96.5312C412.719 97.4531 410.383 97.9141 408.07 97.9141C405.727 97.9141 403.391 97.4531 401.062 96.5312C398.766 95.6094 396.781 94.3125 395.109 92.6406C393.422 91.0312 392.094 89.0938 391.125 86.8281C390.188 84.6094 389.719 82.3047 389.719 79.9141C389.719 77.5234 390.188 75.2188 391.125 73C392.094 70.7344 393.422 68.7969 395.109 67.1875C396.828 65.4688 398.812 64.1562 401.062 63.25C403.25 62.3594 405.586 61.9141 408.07 61.9141C410.555 61.9141 412.906 62.3672 415.125 63.2734C417.344 64.1641 419.32 65.4688 421.055 67.1875C422.805 68.9062 424.141 70.8438 425.062 73C425.953 75.1562 426.398 77.4609 426.398 79.9141ZM408.07 89.9922C410.648 89.9922 412.805 89.0312 414.539 87.1094C415.398 86.1562 416.031 85.0859 416.438 83.8984C416.844 82.7109 417.047 81.3828 417.047 79.9141C417.047 77.0547 416.195 74.6562 414.492 72.7188C412.758 70.7969 410.617 69.8359 408.07 69.8359C405.461 69.8359 403.312 70.7969 401.625 72.7188C399.938 74.6406 399.094 77.0391 399.094 79.9141C399.094 82.8984 399.922 85.3125 401.578 87.1562C403.281 89.0469 405.445 89.9922 408.07 89.9922Z" fill="white"/>
<path d="M26 169H14C9.58172 169 6 165.418 6 161V13.5" stroke="white" stroke-width="1.5"/>
<path d="M12.622 7.0784C12.622 10.6144 9.92461 13.4068 6.68598 13.4068C3.44736 13.4068 0.75 10.6144 0.75 7.0784C0.75 3.54244 3.44736 0.75 6.68598 0.75C9.92461 0.75 12.622 3.54244 12.622 7.0784Z" stroke="white" stroke-width="1.5"/>
<rect x="24" y="147" width="413" height="64" rx="16" fill="#002A61"/>
<path d="M42.3711 184V171.133H50.2549V173.954H45.79V176.187H50V178.946H45.79V181.117H50.2549V184H42.3711ZM52.4521 184V170.377H55.5898V184H52.4521ZM63.9395 184V177.338H62.6035V175.123H63.9395V173.304C63.9395 172.278 64.2207 171.499 64.7832 170.966C65.3398 170.45 66.1807 170.192 67.3057 170.192C67.3818 170.192 67.5723 170.204 67.877 170.228C68.2051 170.28 68.4395 170.324 68.5801 170.359V172.75C68.4746 172.709 68.3428 172.668 68.1846 172.627C68.0205 172.604 67.9121 172.592 67.8594 172.592C67.5547 172.592 67.3408 172.68 67.2178 172.855C67.083 173.043 67.0156 173.327 67.0156 173.708V175.123H68.5801V177.338H67.0156V184H63.9395ZM69.8896 184V175.123H73.0186V184H69.8896ZM70.2852 172.838H70.3027C70.3027 172.51 70.417 172.24 70.6455 172.029C70.874 171.801 71.1494 171.687 71.4717 171.687C71.8115 171.687 72.0898 171.795 72.3066 172.012C72.5293 172.229 72.6406 172.504 72.6406 172.838C72.6406 173.178 72.5264 173.459 72.2979 173.682C72.0752 173.91 71.7998 174.024 71.4717 174.024C71.1377 174.024 70.8564 173.904 70.6279 173.664C70.3994 173.441 70.2852 173.166 70.2852 172.838ZM75.585 184V175.123H78.4502V176.925C78.8545 176.222 79.335 175.694 79.8916 175.343C80.4307 175.009 81.084 174.842 81.8516 174.842C82.4316 174.842 82.9473 174.93 83.3984 175.105C83.8438 175.305 84.2041 175.574 84.4795 175.914C84.7314 176.254 84.8984 176.614 84.9805 176.995C85.0801 177.481 85.1299 178.123 85.1299 178.92V184H81.9922V179.245C81.9922 178.524 81.8779 178.009 81.6494 177.698C81.4209 177.376 81.0488 177.215 80.5332 177.215C79.8887 177.215 79.4141 177.455 79.1094 177.936C78.8105 178.416 78.6611 179.195 78.6611 180.273V184H75.585ZM94.1123 179.553C94.1123 178.85 93.9277 178.305 93.5586 177.918C93.1836 177.508 92.6797 177.303 92.0469 177.303C91.4141 177.303 90.916 177.502 90.5527 177.9C90.1777 178.311 89.9902 178.861 89.9902 179.553C89.9902 180.25 90.1777 180.798 90.5527 181.196C90.9102 181.589 91.4082 181.785 92.0469 181.785C92.6797 181.785 93.1807 181.589 93.5498 181.196C93.9248 180.804 94.1123 180.256 94.1123 179.553ZM96.8633 175.123V184H93.9893V182.559C93.5732 183.174 93.1074 183.625 92.5918 183.912C92.082 184.199 91.4844 184.343 90.7988 184.343C89.6094 184.343 88.6631 183.909 87.96 183.042C87.6143 182.614 87.3506 182.11 87.1689 181.53C86.9873 180.95 86.8965 180.297 86.8965 179.57C86.8965 178.117 87.2686 176.966 88.0127 176.116C88.7568 175.267 89.7529 174.842 91.001 174.842C91.6689 174.842 92.2432 174.985 92.7236 175.272C93.21 175.548 93.626 175.984 93.9717 176.582V175.123H96.8633ZM99.2275 184V175.123H102.093V176.925C102.497 176.222 102.978 175.694 103.534 175.343C104.073 175.009 104.727 174.842 105.494 174.842C106.074 174.842 106.59 174.93 107.041 175.105C107.486 175.305 107.847 175.574 108.122 175.914C108.374 176.254 108.541 176.614 108.623 176.995C108.723 177.481 108.772 178.123 108.772 178.92V184H105.635V179.245C105.635 178.524 105.521 178.009 105.292 177.698C105.063 177.376 104.691 177.215 104.176 177.215C103.531 177.215 103.057 177.455 102.752 177.936C102.453 178.416 102.304 179.195 102.304 180.273V184H99.2275ZM117.359 178.041C117.055 177.771 116.762 177.575 116.48 177.452C116.229 177.329 115.933 177.268 115.593 177.268C114.966 177.268 114.474 177.473 114.116 177.883C113.747 178.287 113.562 178.844 113.562 179.553C113.562 180.232 113.753 180.771 114.134 181.17C114.503 181.58 115.016 181.785 115.672 181.785C115.982 181.785 116.281 181.721 116.568 181.592C116.873 181.445 117.137 181.252 117.359 181.012V183.728C116.984 183.927 116.606 184.085 116.226 184.202C115.821 184.296 115.438 184.343 115.074 184.343C113.703 184.343 112.599 183.903 111.761 183.024C111.474 182.731 111.236 182.409 111.049 182.058C110.867 181.706 110.727 181.325 110.627 180.915C110.533 180.505 110.486 180.057 110.486 179.57C110.486 178.17 110.914 177.033 111.77 176.16C112.631 175.281 113.744 174.842 115.109 174.842C115.537 174.842 115.944 174.889 116.331 174.982C116.706 175.076 117.049 175.214 117.359 175.396V178.041ZM119.214 184V175.123H122.343V184H119.214ZM119.609 172.838H119.627C119.627 172.51 119.741 172.24 119.97 172.029C120.198 171.801 120.474 171.687 120.796 171.687C121.136 171.687 121.414 171.795 121.631 172.012C121.854 172.229 121.965 172.504 121.965 172.838C121.965 173.178 121.851 173.459 121.622 173.682C121.399 173.91 121.124 174.024 120.796 174.024C120.462 174.024 120.181 173.904 119.952 173.664C119.724 173.441 119.609 173.166 119.609 172.838ZM131.677 179.553C131.677 178.85 131.492 178.305 131.123 177.918C130.748 177.508 130.244 177.303 129.611 177.303C128.979 177.303 128.48 177.502 128.117 177.9C127.742 178.311 127.555 178.861 127.555 179.553C127.555 180.25 127.742 180.798 128.117 181.196C128.475 181.589 128.973 181.785 129.611 181.785C130.244 181.785 130.745 181.589 131.114 181.196C131.489 180.804 131.677 180.256 131.677 179.553ZM134.428 175.123V184H131.554V182.559C131.138 183.174 130.672 183.625 130.156 183.912C129.646 184.199 129.049 184.343 128.363 184.343C127.174 184.343 126.228 183.909 125.524 183.042C125.179 182.614 124.915 182.11 124.733 181.53C124.552 180.95 124.461 180.297 124.461 179.57C124.461 178.117 124.833 176.966 125.577 176.116C126.321 175.267 127.317 174.842 128.565 174.842C129.233 174.842 129.808 174.985 130.288 175.272C130.774 175.548 131.19 175.984 131.536 176.582V175.123H134.428ZM148.525 184V179.157C148.525 178.396 148.438 177.868 148.262 177.575C148.062 177.276 147.731 177.127 147.269 177.127C146.677 177.127 146.27 177.329 146.047 177.733C145.818 178.132 145.704 178.967 145.704 180.238V184H142.681V179.157C142.681 178.366 142.584 177.833 142.391 177.558C142.215 177.271 141.89 177.127 141.415 177.127C140.823 177.127 140.41 177.323 140.176 177.716C139.947 178.114 139.833 178.955 139.833 180.238V184H136.792V175.123H139.868V176.67C140.243 176.049 140.671 175.589 141.151 175.29C141.62 174.991 142.188 174.842 142.856 174.842C143.577 174.842 144.172 174.979 144.641 175.255C145.086 175.536 145.411 175.955 145.616 176.512C145.974 175.932 146.398 175.513 146.891 175.255C147.377 174.979 147.96 174.842 148.64 174.842C149.173 174.842 149.639 174.93 150.037 175.105C150.447 175.299 150.784 175.568 151.048 175.914C151.271 176.189 151.426 176.515 151.514 176.89C151.602 177.235 151.646 177.848 151.646 178.727V178.92V184H148.525ZM153.79 184V175.123H156.919V184H153.79ZM154.186 172.838H154.203C154.203 172.51 154.317 172.24 154.546 172.029C154.774 171.801 155.05 171.687 155.372 171.687C155.712 171.687 155.99 171.795 156.207 172.012C156.43 172.229 156.541 172.504 156.541 172.838C156.541 173.178 156.427 173.459 156.198 173.682C155.976 173.91 155.7 174.024 155.372 174.024C155.038 174.024 154.757 173.904 154.528 173.664C154.3 173.441 154.186 173.166 154.186 172.838ZM165.603 178.419C165.55 177.927 165.359 177.525 165.031 177.215C164.703 176.904 164.302 176.749 163.827 176.749C163.329 176.749 162.925 176.887 162.614 177.162C162.292 177.473 162.09 177.892 162.008 178.419H165.603ZM168.688 180.186H161.938C161.955 180.877 162.128 181.404 162.456 181.768C162.796 182.143 163.288 182.33 163.933 182.33C164.401 182.33 164.803 182.239 165.137 182.058C165.477 181.864 165.723 181.601 165.875 181.267L168.23 182.216C167.955 182.89 167.457 183.411 166.736 183.78C166.021 184.155 165.146 184.343 164.108 184.343C162.562 184.343 161.319 183.909 160.382 183.042C159.45 182.198 158.984 181.07 158.984 179.658C158.984 178.281 159.45 177.13 160.382 176.204C161.313 175.296 162.497 174.842 163.933 174.842C165.397 174.842 166.555 175.302 167.404 176.222C167.838 176.696 168.16 177.25 168.371 177.883C168.582 178.51 168.688 179.228 168.688 180.036V180.186ZM170.489 184V175.123H173.354V176.925C173.759 176.222 174.239 175.694 174.796 175.343C175.335 175.009 175.988 174.842 176.756 174.842C177.336 174.842 177.852 174.93 178.303 175.105C178.748 175.305 179.108 175.574 179.384 175.914C179.636 176.254 179.803 176.614 179.885 176.995C179.984 177.481 180.034 178.123 180.034 178.92V184H176.896V179.245C176.896 178.524 176.782 178.009 176.554 177.698C176.325 177.376 175.953 177.215 175.438 177.215C174.793 177.215 174.318 177.455 174.014 177.936C173.715 178.416 173.565 179.195 173.565 180.273V184H170.489ZM182.75 184L182.732 177.338H181.405V175.123H182.732V172.478H185.835V175.123H187.145V177.338H185.835V184H182.75ZM194.914 179.588C194.914 178.926 194.747 178.404 194.413 178.023C194.067 177.643 193.616 177.452 193.06 177.452C192.485 177.452 192.034 177.643 191.706 178.023C191.372 178.393 191.205 178.914 191.205 179.588C191.205 180.244 191.366 180.76 191.688 181.135C192.04 181.521 192.497 181.715 193.06 181.715C193.622 181.715 194.079 181.521 194.431 181.135C194.753 180.748 194.914 180.232 194.914 179.588ZM198.025 179.588C198.025 180.238 197.899 180.845 197.647 181.407C197.384 182.005 197.023 182.521 196.566 182.954C196.051 183.435 195.518 183.783 194.967 184C194.393 184.229 193.757 184.343 193.06 184.343C192.356 184.343 191.721 184.229 191.152 184C190.572 183.771 190.036 183.426 189.544 182.963C189.058 182.494 188.706 181.976 188.489 181.407C188.237 180.862 188.111 180.256 188.111 179.588C188.111 178.938 188.237 178.325 188.489 177.751C188.724 177.171 189.078 176.655 189.553 176.204C190.016 175.759 190.549 175.416 191.152 175.176C191.727 174.953 192.362 174.842 193.06 174.842C193.751 174.842 194.387 174.953 194.967 175.176C195.57 175.416 196.104 175.759 196.566 176.204C197.053 176.644 197.413 177.159 197.647 177.751C197.899 178.325 198.025 178.938 198.025 179.588ZM212.255 179.588C212.255 178.908 212.076 178.363 211.719 177.953C211.338 177.555 210.834 177.355 210.207 177.355C209.574 177.355 209.076 177.555 208.713 177.953C208.35 178.352 208.168 178.896 208.168 179.588C208.168 180.268 208.35 180.815 208.713 181.231C209.07 181.624 209.568 181.82 210.207 181.82C210.84 181.82 211.344 181.624 211.719 181.231C212.076 180.821 212.255 180.273 212.255 179.588ZM215.032 187.92H212.026V184.141C212.026 183.93 212.038 183.643 212.062 183.279C212.079 182.963 212.103 182.723 212.132 182.559C211.739 183.215 211.317 183.672 210.866 183.93C210.38 184.205 209.771 184.343 209.038 184.343C207.86 184.343 206.905 183.903 206.173 183.024C205.429 182.14 205.057 180.994 205.057 179.588C205.057 178.123 205.429 176.966 206.173 176.116C206.548 175.688 206.981 175.372 207.474 175.167C207.966 174.962 208.522 174.859 209.144 174.859C209.765 174.859 210.315 175.003 210.796 175.29C211.312 175.601 211.763 176.043 212.149 176.617V175.141L215.032 175.123V187.92ZM226.458 175.123V179.658C226.458 180.672 226.382 181.41 226.229 181.873C226.065 182.354 225.79 182.787 225.403 183.174C225.034 183.561 224.548 183.854 223.944 184.053C223.37 184.246 222.679 184.343 221.87 184.343C221.067 184.343 220.385 184.246 219.822 184.053C219.242 183.865 218.744 183.572 218.328 183.174C217.947 182.811 217.678 182.383 217.52 181.891C217.361 181.434 217.282 180.689 217.282 179.658V175.123H220.271V179.86C220.271 180.604 220.396 181.138 220.648 181.46C220.877 181.8 221.272 181.97 221.835 181.97C222.392 181.97 222.79 181.806 223.03 181.478C223.276 181.149 223.399 180.61 223.399 179.86V175.123H226.458ZM234.825 178.419C234.772 177.927 234.582 177.525 234.254 177.215C233.926 176.904 233.524 176.749 233.05 176.749C232.552 176.749 232.147 176.887 231.837 177.162C231.515 177.473 231.312 177.892 231.23 178.419H234.825ZM237.91 180.186H231.16C231.178 180.877 231.351 181.404 231.679 181.768C232.019 182.143 232.511 182.33 233.155 182.33C233.624 182.33 234.025 182.239 234.359 182.058C234.699 181.864 234.945 181.601 235.098 181.267L237.453 182.216C237.178 182.89 236.68 183.411 235.959 183.78C235.244 184.155 234.368 184.343 233.331 184.343C231.784 184.343 230.542 183.909 229.604 183.042C228.673 182.198 228.207 181.07 228.207 179.658C228.207 178.281 228.673 177.13 229.604 176.204C230.536 175.296 231.72 174.842 233.155 174.842C234.62 174.842 235.777 175.302 236.627 176.222C237.061 176.696 237.383 177.25 237.594 177.883C237.805 178.51 237.91 179.228 237.91 180.036V180.186ZM251.472 178.419C251.419 177.927 251.229 177.525 250.9 177.215C250.572 176.904 250.171 176.749 249.696 176.749C249.198 176.749 248.794 176.887 248.483 177.162C248.161 177.473 247.959 177.892 247.877 178.419H251.472ZM254.557 180.186H247.807C247.824 180.877 247.997 181.404 248.325 181.768C248.665 182.143 249.157 182.33 249.802 182.33C250.271 182.33 250.672 182.239 251.006 182.058C251.346 181.864 251.592 181.601 251.744 181.267L254.1 182.216C253.824 182.89 253.326 183.411 252.605 183.78C251.891 184.155 251.015 184.343 249.978 184.343C248.431 184.343 247.188 183.909 246.251 183.042C245.319 182.198 244.854 181.07 244.854 179.658C244.854 178.281 245.319 177.13 246.251 176.204C247.183 175.296 248.366 174.842 249.802 174.842C251.267 174.842 252.424 175.302 253.273 176.222C253.707 176.696 254.029 177.25 254.24 177.883C254.451 178.51 254.557 179.228 254.557 180.036V180.186ZM255.532 183.262L256.183 180.871C256.64 181.275 257.144 181.58 257.694 181.785C258.239 182.002 258.79 182.11 259.347 182.11C259.745 182.11 260.044 182.043 260.243 181.908C260.448 181.785 260.551 181.606 260.551 181.372C260.551 180.979 260.138 180.687 259.312 180.493C259.024 180.429 258.808 180.373 258.661 180.326C257.706 180.045 257.029 179.702 256.631 179.298C256.197 178.882 255.98 178.343 255.98 177.681C255.98 176.825 256.306 176.137 256.956 175.615C257.583 175.1 258.459 174.842 259.584 174.842C260.129 174.842 260.709 174.906 261.324 175.035C261.84 175.141 262.44 175.346 263.126 175.65L262.476 177.804C262.054 177.517 261.629 177.303 261.201 177.162C260.797 177.016 260.372 176.942 259.927 176.942C259.563 176.942 259.291 176.998 259.109 177.109C258.934 177.215 258.846 177.376 258.846 177.593C258.846 177.897 259.259 178.161 260.085 178.384C260.354 178.466 260.492 178.507 260.498 178.507C261.576 178.812 262.332 179.172 262.766 179.588C263.188 180.027 263.398 180.599 263.398 181.302C263.398 182.21 263.05 182.942 262.353 183.499C261.638 184.062 260.715 184.343 259.584 184.343C258.799 184.343 258.075 184.252 257.413 184.07C256.757 183.895 256.13 183.625 255.532 183.262ZM265.578 184L265.561 177.338H264.233V175.123H265.561V172.478H268.663V175.123H269.973V177.338H268.663V184H265.578ZM278.208 179.553C278.208 178.85 278.023 178.305 277.654 177.918C277.279 177.508 276.775 177.303 276.143 177.303C275.51 177.303 275.012 177.502 274.648 177.9C274.273 178.311 274.086 178.861 274.086 179.553C274.086 180.25 274.273 180.798 274.648 181.196C275.006 181.589 275.504 181.785 276.143 181.785C276.775 181.785 277.276 181.589 277.646 181.196C278.021 180.804 278.208 180.256 278.208 179.553ZM280.959 175.123V184H278.085V182.559C277.669 183.174 277.203 183.625 276.688 183.912C276.178 184.199 275.58 184.343 274.895 184.343C273.705 184.343 272.759 183.909 272.056 183.042C271.71 182.614 271.446 182.11 271.265 181.53C271.083 180.95 270.992 180.297 270.992 179.57C270.992 178.117 271.364 176.966 272.108 176.116C272.853 175.267 273.849 174.842 275.097 174.842C275.765 174.842 276.339 174.985 276.819 175.272C277.306 175.548 277.722 175.984 278.067 176.582V175.123H280.959ZM286.118 179.57C286.118 180.279 286.303 180.827 286.672 181.214C287.012 181.606 287.504 181.803 288.148 181.803C288.787 181.803 289.285 181.606 289.643 181.214C290 180.821 290.179 180.273 290.179 179.57C290.179 178.873 290 178.328 289.643 177.936C289.279 177.537 288.781 177.338 288.148 177.338C287.51 177.338 287.018 177.537 286.672 177.936C286.303 178.322 286.118 178.867 286.118 179.57ZM283.341 170.377H286.329V175.018C286.329 175.475 286.323 175.788 286.312 175.958C286.288 176.257 286.265 176.471 286.241 176.6C286.61 175.961 287.029 175.513 287.498 175.255C287.967 174.979 288.579 174.842 289.335 174.842C290.519 174.842 291.479 175.272 292.218 176.134C292.95 177.007 293.316 178.152 293.316 179.57C293.316 181.029 292.95 182.187 292.218 183.042C291.479 183.909 290.483 184.343 289.229 184.343C288.603 184.343 288.049 184.193 287.568 183.895C287.07 183.607 286.622 183.162 286.224 182.559V184H283.341V170.377ZM301.974 179.553C301.974 178.85 301.789 178.305 301.42 177.918C301.045 177.508 300.541 177.303 299.908 177.303C299.275 177.303 298.777 177.502 298.414 177.9C298.039 178.311 297.852 178.861 297.852 179.553C297.852 180.25 298.039 180.798 298.414 181.196C298.771 181.589 299.27 181.785 299.908 181.785C300.541 181.785 301.042 181.589 301.411 181.196C301.786 180.804 301.974 180.256 301.974 179.553ZM304.725 175.123V184H301.851V182.559C301.435 183.174 300.969 183.625 300.453 183.912C299.943 184.199 299.346 184.343 298.66 184.343C297.471 184.343 296.524 183.909 295.821 183.042C295.476 182.614 295.212 182.11 295.03 181.53C294.849 180.95 294.758 180.297 294.758 179.57C294.758 178.117 295.13 176.966 295.874 176.116C296.618 175.267 297.614 174.842 298.862 174.842C299.53 174.842 300.104 174.985 300.585 175.272C301.071 175.548 301.487 175.984 301.833 176.582V175.123H304.725ZM306.263 183.262L306.913 180.871C307.37 181.275 307.874 181.58 308.425 181.785C308.97 182.002 309.521 182.11 310.077 182.11C310.476 182.11 310.774 182.043 310.974 181.908C311.179 181.785 311.281 181.606 311.281 181.372C311.281 180.979 310.868 180.687 310.042 180.493C309.755 180.429 309.538 180.373 309.392 180.326C308.437 180.045 307.76 179.702 307.361 179.298C306.928 178.882 306.711 178.343 306.711 177.681C306.711 176.825 307.036 176.137 307.687 175.615C308.313 175.1 309.189 174.842 310.314 174.842C310.859 174.842 311.439 174.906 312.055 175.035C312.57 175.141 313.171 175.346 313.856 175.65L313.206 177.804C312.784 177.517 312.359 177.303 311.932 177.162C311.527 177.016 311.103 176.942 310.657 176.942C310.294 176.942 310.021 176.998 309.84 177.109C309.664 177.215 309.576 177.376 309.576 177.593C309.576 177.897 309.989 178.161 310.815 178.384C311.085 178.466 311.223 178.507 311.229 178.507C312.307 178.812 313.062 179.172 313.496 179.588C313.918 180.027 314.129 180.599 314.129 181.302C314.129 182.21 313.78 182.942 313.083 183.499C312.368 184.062 311.445 184.343 310.314 184.343C309.529 184.343 308.806 184.252 308.144 184.07C307.487 183.895 306.86 183.625 306.263 183.262ZM324.245 179.57C324.245 180.279 324.43 180.827 324.799 181.214C325.139 181.606 325.631 181.803 326.275 181.803C326.914 181.803 327.412 181.606 327.77 181.214C328.127 180.821 328.306 180.273 328.306 179.57C328.306 178.873 328.127 178.328 327.77 177.936C327.406 177.537 326.908 177.338 326.275 177.338C325.637 177.338 325.145 177.537 324.799 177.936C324.43 178.322 324.245 178.867 324.245 179.57ZM321.468 170.377H324.456V175.018C324.456 175.475 324.45 175.788 324.438 175.958C324.415 176.257 324.392 176.471 324.368 176.6C324.737 175.961 325.156 175.513 325.625 175.255C326.094 174.979 326.706 174.842 327.462 174.842C328.646 174.842 329.606 175.272 330.345 176.134C331.077 177.007 331.443 178.152 331.443 179.57C331.443 181.029 331.077 182.187 330.345 183.042C329.606 183.909 328.61 184.343 327.356 184.343C326.729 184.343 326.176 184.193 325.695 183.895C325.197 183.607 324.749 183.162 324.351 182.559V184H321.468V170.377ZM342.438 175.123V179.658C342.438 180.672 342.362 181.41 342.21 181.873C342.046 182.354 341.771 182.787 341.384 183.174C341.015 183.561 340.528 183.854 339.925 184.053C339.351 184.246 338.659 184.343 337.851 184.343C337.048 184.343 336.365 184.246 335.803 184.053C335.223 183.865 334.725 183.572 334.309 183.174C333.928 182.811 333.658 182.383 333.5 181.891C333.342 181.434 333.263 180.689 333.263 179.658V175.123H336.251V179.86C336.251 180.604 336.377 181.138 336.629 181.46C336.857 181.8 337.253 181.97 337.815 181.97C338.372 181.97 338.771 181.806 339.011 181.478C339.257 181.149 339.38 180.61 339.38 179.86V175.123H342.438ZM343.862 183.262L344.513 180.871C344.97 181.275 345.474 181.58 346.024 181.785C346.569 182.002 347.12 182.11 347.677 182.11C348.075 182.11 348.374 182.043 348.573 181.908C348.778 181.785 348.881 181.606 348.881 181.372C348.881 180.979 348.468 180.687 347.642 180.493C347.354 180.429 347.138 180.373 346.991 180.326C346.036 180.045 345.359 179.702 344.961 179.298C344.527 178.882 344.311 178.343 344.311 177.681C344.311 176.825 344.636 176.137 345.286 175.615C345.913 175.1 346.789 174.842 347.914 174.842C348.459 174.842 349.039 174.906 349.654 175.035C350.17 175.141 350.771 175.346 351.456 175.65L350.806 177.804C350.384 177.517 349.959 177.303 349.531 177.162C349.127 177.016 348.702 176.942 348.257 176.942C347.894 176.942 347.621 176.998 347.439 177.109C347.264 177.215 347.176 177.376 347.176 177.593C347.176 177.897 347.589 178.161 348.415 178.384C348.685 178.466 348.822 178.507 348.828 178.507C349.906 178.812 350.662 179.172 351.096 179.588C351.518 180.027 351.729 180.599 351.729 181.302C351.729 182.21 351.38 182.942 350.683 183.499C349.968 184.062 349.045 184.343 347.914 184.343C347.129 184.343 346.405 184.252 345.743 184.07C345.087 183.895 344.46 183.625 343.862 183.262ZM359.779 178.041C359.475 177.771 359.182 177.575 358.9 177.452C358.648 177.329 358.353 177.268 358.013 177.268C357.386 177.268 356.894 177.473 356.536 177.883C356.167 178.287 355.982 178.844 355.982 179.553C355.982 180.232 356.173 180.771 356.554 181.17C356.923 181.58 357.436 181.785 358.092 181.785C358.402 181.785 358.701 181.721 358.988 181.592C359.293 181.445 359.557 181.252 359.779 181.012V183.728C359.404 183.927 359.026 184.085 358.646 184.202C358.241 184.296 357.857 184.343 357.494 184.343C356.123 184.343 355.019 183.903 354.181 183.024C353.894 182.731 353.656 182.409 353.469 182.058C353.287 181.706 353.146 181.325 353.047 180.915C352.953 180.505 352.906 180.057 352.906 179.57C352.906 178.17 353.334 177.033 354.189 176.16C355.051 175.281 356.164 174.842 357.529 174.842C357.957 174.842 358.364 174.889 358.751 174.982C359.126 175.076 359.469 175.214 359.779 175.396V178.041ZM368.472 179.553C368.472 178.85 368.287 178.305 367.918 177.918C367.543 177.508 367.039 177.303 366.406 177.303C365.773 177.303 365.275 177.502 364.912 177.9C364.537 178.311 364.35 178.861 364.35 179.553C364.35 180.25 364.537 180.798 364.912 181.196C365.27 181.589 365.768 181.785 366.406 181.785C367.039 181.785 367.54 181.589 367.909 181.196C368.284 180.804 368.472 180.256 368.472 179.553ZM371.223 175.123V184H368.349V182.559C367.933 183.174 367.467 183.625 366.951 183.912C366.441 184.199 365.844 184.343 365.158 184.343C363.969 184.343 363.022 183.909 362.319 183.042C361.974 182.614 361.71 182.11 361.528 181.53C361.347 180.95 361.256 180.297 361.256 179.57C361.256 178.117 361.628 176.966 362.372 176.116C363.116 175.267 364.112 174.842 365.36 174.842C366.028 174.842 366.603 174.985 367.083 175.272C367.569 175.548 367.985 175.984 368.331 176.582V175.123H371.223ZM373.587 184V175.123H376.452V176.925C376.856 176.222 377.337 175.694 377.894 175.343C378.433 175.009 379.086 174.842 379.854 174.842C380.434 174.842 380.949 174.93 381.4 175.105C381.846 175.305 382.206 175.574 382.481 175.914C382.733 176.254 382.9 176.614 382.982 176.995C383.082 177.481 383.132 178.123 383.132 178.92V184H379.994V179.245C379.994 178.524 379.88 178.009 379.651 177.698C379.423 177.376 379.051 177.215 378.535 177.215C377.891 177.215 377.416 177.455 377.111 177.936C376.812 178.416 376.663 179.195 376.663 180.273V184H373.587ZM392.132 179.57C392.132 178.873 391.953 178.328 391.596 177.936C391.215 177.537 390.711 177.338 390.084 177.338C389.451 177.338 388.953 177.537 388.59 177.936C388.227 178.334 388.045 178.879 388.045 179.57C388.045 180.268 388.227 180.815 388.59 181.214C388.947 181.606 389.445 181.803 390.084 181.803C390.717 181.803 391.221 181.606 391.596 181.214C391.953 180.821 392.132 180.273 392.132 179.57ZM394.909 170.377V184H392.026V182.559C391.628 183.162 391.177 183.607 390.673 183.895C390.204 184.193 389.653 184.343 389.021 184.343C387.778 184.343 386.785 183.909 386.041 183.042C385.303 182.175 384.934 181.018 384.934 179.57C384.934 178.164 385.306 177.019 386.05 176.134C386.788 175.272 387.743 174.842 388.915 174.842C389.665 174.842 390.274 174.979 390.743 175.255C391.194 175.507 391.616 175.955 392.009 176.6C391.985 176.441 391.962 176.201 391.938 175.879C391.915 175.527 391.903 175.24 391.903 175.018V170.377H394.909ZM403.531 179.588C403.531 178.926 403.364 178.404 403.03 178.023C402.685 177.643 402.233 177.452 401.677 177.452C401.103 177.452 400.651 177.643 400.323 178.023C399.989 178.393 399.822 178.914 399.822 179.588C399.822 180.244 399.983 180.76 400.306 181.135C400.657 181.521 401.114 181.715 401.677 181.715C402.239 181.715 402.696 181.521 403.048 181.135C403.37 180.748 403.531 180.232 403.531 179.588ZM406.643 179.588C406.643 180.238 406.517 180.845 406.265 181.407C406.001 182.005 405.641 182.521 405.184 182.954C404.668 183.435 404.135 183.783 403.584 184C403.01 184.229 402.374 184.343 401.677 184.343C400.974 184.343 400.338 184.229 399.77 184C399.189 183.771 398.653 183.426 398.161 182.963C397.675 182.494 397.323 181.976 397.106 181.407C396.854 180.862 396.729 180.256 396.729 179.588C396.729 178.938 396.854 178.325 397.106 177.751C397.341 177.171 397.695 176.655 398.17 176.204C398.633 175.759 399.166 175.416 399.77 175.176C400.344 174.953 400.979 174.842 401.677 174.842C402.368 174.842 403.004 174.953 403.584 175.176C404.188 175.416 404.721 175.759 405.184 176.204C405.67 176.644 406.03 177.159 406.265 177.751C406.517 178.325 406.643 178.938 406.643 179.588ZM408.339 182.559C408.339 182.055 408.506 181.636 408.84 181.302C409.18 180.962 409.599 180.792 410.097 180.792C410.612 180.792 411.04 180.962 411.38 181.302C411.714 181.636 411.881 182.055 411.881 182.559C411.881 183.068 411.714 183.49 411.38 183.824C411.022 184.17 410.595 184.343 410.097 184.343C409.616 184.343 409.197 184.17 408.84 183.824C408.506 183.49 408.339 183.068 408.339 182.559Z" fill="white"/>
</svg>
