<svg width="40" height="40" viewBox="0 0 40 40" fill="none" xmlns="http://www.w3.org/2000/svg">
<path d="M20 6.1157C12.3967 6.1157 6.1157 12.3967 6.1157 20C6.1157 27.6033 12.3967 33.8843 20 33.8843C27.6033 33.8843 33.8843 27.6033 33.8843 20C33.8843 12.3967 27.6033 6.1157 20 6.1157ZM30.3306 13.4711H27.2727C26.6942 11.5702 25.8678 10 24.7934 8.76033C27.0248 9.75206 28.9256 11.405 30.3306 13.4711ZM26.5289 20C26.5289 21.7355 26.281 23.3884 25.9504 24.876H14.0496C13.719 23.3884 13.4711 21.7355 13.4711 20C13.4711 18.2645 13.719 16.6116 14.0496 15.124H25.8678C26.281 16.6116 26.5289 18.2645 26.5289 20ZM20 32.1488C17.7686 32.1488 15.7851 29.9174 14.5455 26.6116H25.3719C24.2149 29.8347 22.2314 32.1488 20 32.1488ZM14.5455 13.4711C15.7025 10.1653 17.7686 7.93388 20 7.93388C22.2314 7.93388 24.2149 10.1653 25.4545 13.4711H14.5455ZM15.2893 8.76033C14.2975 10 13.3884 11.5702 12.8099 13.4711H9.75207C11.0744 11.405 12.9752 9.75206 15.2893 8.76033ZM8.84297 15.124H12.3967C12.0661 16.6116 11.9008 18.2645 11.9008 20C11.9008 21.7355 12.0661 23.3884 12.3967 24.876H8.84297C8.18182 23.3884 7.85124 21.7355 7.85124 20C7.76859 18.2645 8.18182 16.6116 8.84297 15.124ZM9.66942 26.5289H12.7273C13.3058 28.4298 14.1322 30 15.2066 31.2397C12.9752 30.2479 11.0744 28.595 9.66942 26.5289ZM24.7107 31.2397C25.7025 30 26.6116 28.4298 27.1901 26.5289H30.2479C28.9256 28.595 27.0248 30.2479 24.7107 31.2397ZM31.157 24.876H27.6033C27.9339 23.3884 28.0992 21.7355 28.0992 20C28.0992 18.2645 27.9339 16.6116 27.6033 15.124H31.157C31.8182 16.6116 32.1488 18.2645 32.1488 20C32.2314 21.7355 31.8182 23.3884 31.157 24.876ZM20 4.95868C21.405 4.95868 22.4793 3.80165 22.4793 2.47934C22.4793 1.07438 21.3223 0 20 0C18.6777 0 17.5207 1.15702 17.5207 2.47934C17.5207 3.8843 18.595 4.95868 20 4.95868ZM20 1.65289C20.4959 1.65289 20.8264 2.06612 20.8264 2.47934C20.8264 2.89256 20.4132 3.30578 20 3.30578C19.5868 3.30578 19.1736 2.89256 19.1736 2.47934C19.1736 2.06612 19.5041 1.65289 20 1.65289ZM20 35.0413C18.595 35.0413 17.5207 36.1983 17.5207 37.5207C17.5207 38.9256 18.6777 40 20 40C21.3223 40 22.4793 38.843 22.4793 37.5207C22.4793 36.1157 21.405 35.0413 20 35.0413ZM20 38.3471C19.5041 38.3471 19.1736 37.9339 19.1736 37.5207C19.1736 37.1074 19.5868 36.6942 20 36.6942C20.4132 36.6942 20.8264 37.1074 20.8264 37.5207C20.8264 37.9339 20.4959 38.3471 20 38.3471ZM37.5207 17.5207C36.1157 17.5207 35.0413 18.6777 35.0413 20C35.0413 21.3223 36.1983 22.4793 37.5207 22.4793C38.9256 22.4793 40 21.3223 40 20C40 18.6777 38.9256 17.5207 37.5207 17.5207ZM37.5207 20.8264C37.0248 20.8264 36.6942 20.4132 36.6942 20C36.6942 19.5868 37.1074 19.1736 37.5207 19.1736C37.9339 19.1736 38.3471 19.5868 38.3471 20C38.3471 20.4132 38.0165 20.8264 37.5207 20.8264ZM4.95868 20C4.95868 18.595 3.80165 17.5207 2.47934 17.5207C1.07438 17.5207 0 18.6777 0 20C0 21.3223 1.15702 22.4793 2.47934 22.4793C3.8843 22.4793 4.95868 21.405 4.95868 20ZM1.65289 20C1.65289 19.5041 2.06612 19.1736 2.47934 19.1736C2.89256 19.1736 3.30578 19.5868 3.30578 20C3.30578 20.4132 2.89256 20.8264 2.47934 20.8264C2.06612 20.8264 1.65289 20.4959 1.65289 20ZM24.6281 2.97521C24.7934 2.56198 25.2066 2.31405 25.7025 2.47934C31.2397 4.29752 35.7025 8.67769 37.438 14.2975C37.6033 14.7107 37.3554 15.2066 36.9421 15.3719C36.8595 15.3719 36.7769 15.3719 36.6942 15.3719C36.3636 15.3719 36.0331 15.124 35.8678 14.7934C34.2149 9.75207 30.2479 5.70248 25.124 4.04959C24.7107 3.8843 24.5455 3.47107 24.6281 2.97521ZM2.39669 14.2975C4.21488 8.67769 8.67769 4.29752 14.2149 2.47934C14.6281 2.31405 15.124 2.56198 15.2893 2.97521C15.4545 3.38843 15.2066 3.8843 14.7934 4.04959C9.66942 5.70248 5.70248 9.75207 4.04959 14.7934C3.96694 15.124 3.63636 15.3719 3.22314 15.3719C3.1405 15.3719 3.05785 15.3719 2.97521 15.3719C2.47934 15.2066 2.23141 14.7107 2.39669 14.2975ZM15.2893 37.0248C15.2066 37.3554 14.876 37.6033 14.4628 37.6033C14.3802 37.6033 14.2975 37.6033 14.2149 37.6033C8.67769 35.7851 4.21488 31.3223 2.39669 25.7851C2.23141 25.3719 2.47934 24.876 2.89256 24.7107C3.30579 24.5455 3.80165 24.7934 3.96694 25.2066C5.61983 30.3306 9.66942 34.2975 14.7107 35.9504C15.2066 36.1157 15.3719 36.6116 15.2893 37.0248ZM37.438 25.7851C35.6198 31.3223 31.2397 35.7851 25.7025 37.6033C25.6198 37.6033 25.5372 37.6033 25.4545 37.6033C25.124 37.6033 24.7934 37.3554 24.6281 37.0248C24.4628 36.6116 24.7107 36.1157 25.124 35.9504C30.1653 34.2975 34.2149 30.2479 35.8678 25.2066C36.0331 24.7934 36.4463 24.5455 36.9421 24.7107C37.3554 24.876 37.6033 25.2893 37.438 25.7851Z" fill="#002A61"/>
</svg>
