<svg width="47" height="48" viewBox="0 0 47 48" fill="none" xmlns="http://www.w3.org/2000/svg">
<path fill-rule="evenodd" clip-rule="evenodd" d="M24.4783 36.7552C15.7685 36.7552 8.68311 29.6697 8.68311 20.96C8.68311 12.2503 15.7685 5.16479 24.4783 5.16479C33.1881 5.16479 40.2735 12.2503 40.2735 20.96C40.2735 29.6698 33.1881 36.7552 24.4783 36.7552ZM24.4783 6.43261C16.4682 6.43261 9.95092 12.9483 9.95092 20.96C9.95092 28.9718 16.4666 35.4874 24.4783 35.4874C32.49 35.4874 39.0057 28.9718 39.0057 20.96C39.0057 12.9483 32.4883 6.43261 24.4783 6.43261Z" fill="white"/>
<path fill-rule="evenodd" clip-rule="evenodd" d="M24.475 41.3697C23.4424 41.3697 22.4084 41.1046 21.4846 40.5729L20.6599 40.0957C19.9147 39.6658 19.0635 39.437 18.2012 39.437H17.2509C15.1229 39.437 13.1385 38.2927 12.0738 36.4466L11.5966 35.6219C11.1669 34.8768 10.543 34.253 9.79934 33.8246L8.97459 33.3501C7.1326 32.2854 5.98424 30.3039 5.98424 28.1731V27.2214C5.98424 26.3605 5.75539 25.5107 5.32551 24.7627L4.84831 23.938C3.78364 22.096 3.78364 19.8034 4.84831 17.9614L5.32551 17.1367C5.75538 16.3915 5.98424 15.5403 5.98424 14.6779V13.7262C5.98424 11.5983 7.12849 9.61396 8.97459 8.5492L9.79934 8.07474C10.5445 7.64223 11.1682 7.02124 11.5966 6.27745L12.0738 5.45281C13.1385 3.61082 15.1201 2.46235 17.2509 2.46235L18.2025 2.46519C19.0635 2.46519 19.9134 2.23634 20.6613 1.80647L21.486 1.32926C23.328 0.264594 25.6206 0.264594 27.4626 1.32926L28.2873 1.80647C29.0324 2.23634 29.8836 2.46519 30.746 2.46519H31.6963C33.8244 2.46519 35.8087 3.60945 36.8734 5.45554L37.3507 6.28029C37.7804 7.02546 38.4042 7.64919 39.148 8.07758L39.9726 8.55205C41.8146 9.61672 42.9631 11.5983 42.9631 13.7291V14.6807C42.9631 15.5416 43.1919 16.3915 43.6217 17.1395L44.0989 17.9641C45.1637 19.8061 45.1637 22.0989 44.0989 23.9407L43.6217 24.7655C43.1919 25.5107 42.9631 26.3619 42.9631 27.2243V28.1759C42.9631 30.3039 41.8188 32.2883 39.9726 33.3529L39.148 33.8274C38.4028 34.2599 37.7791 34.8809 37.3507 35.6247L36.8734 36.4493C35.8087 38.2913 33.8271 39.4398 31.6963 39.4398L30.7447 39.437C29.8836 39.437 29.0339 39.6658 28.2859 40.0957L27.4613 40.5729C26.543 41.1031 25.5076 41.3697 24.475 41.3697H24.475ZM17.2537 3.52985C15.5024 3.52985 13.8711 4.47034 12.9975 5.98861L12.5203 6.81325C11.9971 7.72033 11.2394 8.47667 10.3323 9.00131L9.50763 9.47577C7.99222 10.3493 7.04888 11.982 7.04888 13.7318V14.6835C7.04888 15.7315 6.77122 16.7641 6.24647 17.6739L5.76927 18.4986C4.89572 20.014 4.89572 21.8978 5.76927 23.4134L6.24647 24.238C6.76974 25.1451 7.04888 26.1804 7.04888 27.2284V28.1801C7.04888 29.9313 7.98937 31.5626 9.50763 32.4362L10.3323 32.9106C11.2407 33.4339 11.9957 34.1916 12.5203 35.0986L12.9975 35.9233C13.8711 37.4388 15.5037 38.3821 17.2537 38.3821L18.2054 38.3765C19.2533 38.3765 20.2859 38.6528 21.1957 39.1788L22.0205 39.6561C23.5359 40.5297 25.4197 40.5297 26.9351 39.6561L27.7599 39.1788C28.6668 38.6555 29.7023 38.3765 30.7502 38.3765H31.6991C33.4504 38.3765 35.0816 37.436 35.9552 35.9178L36.4324 35.093C36.9557 34.186 37.7134 33.4297 38.6205 32.9051L39.4452 32.4306C40.9606 31.557 41.9039 29.9244 41.9039 28.1745V27.2229C41.9039 26.1749 42.1816 25.1422 42.7063 24.2324L43.1835 23.4078C44.057 21.8922 44.057 20.0084 43.1835 18.493L42.7063 17.6684C42.183 16.7613 41.9039 15.7259 41.9039 14.6779V13.7262C41.9039 11.975 40.9634 10.3437 39.4452 9.47018L38.6205 8.99572C37.712 8.47245 36.9571 7.71474 36.4324 6.80766L35.9552 5.98302C35.0816 4.4676 33.449 3.52426 31.6991 3.52426L30.7475 3.52985C29.6995 3.52985 28.6668 3.25356 27.757 2.72745L26.9324 2.25024C25.4169 1.37669 23.533 1.37669 22.0176 2.25024L21.193 2.72745C20.2859 3.25082 19.2505 3.52985 18.2025 3.52985H17.2537L17.2537 3.52985Z" fill="white"/>
<path d="M28.0466 21.2111C25.8692 21.2111 24.098 22.9825 24.098 25.1598C24.098 27.337 25.8692 29.108 28.0466 29.108C30.2239 29.108 31.995 27.337 31.995 25.1598C31.995 22.9827 30.2239 21.2111 28.0466 21.2111ZM28.0466 27.5652C26.7202 27.5652 25.6412 26.4862 25.6412 25.16C25.6412 23.8336 26.7202 22.7545 28.0466 22.7545C29.373 22.7545 30.4519 23.8334 30.4519 25.16C30.4519 26.4862 29.373 27.5652 28.0466 27.5652ZM20.3307 19.5774C22.508 19.5774 24.2793 17.806 24.2793 15.6286C24.2793 13.4515 22.508 11.6804 20.3307 11.6804C18.1536 11.6803 16.3823 13.4515 16.3823 15.6286C16.3823 17.806 18.1536 19.5774 20.3307 19.5774ZM20.3307 13.2235C21.6571 13.2235 22.7361 14.3024 22.7361 15.6284C22.7361 16.9548 21.6571 18.0342 20.3307 18.0342C19.0045 18.0342 17.9253 16.955 17.9253 15.6284C17.9253 14.3024 19.0045 13.2235 20.3307 13.2235ZM30.5798 11.2612C30.2319 11.0152 29.7505 11.098 29.5045 11.446L17.1592 28.9053C16.9133 29.2532 16.9959 29.7347 17.3439 29.9808C17.479 30.0764 17.6346 30.1224 17.7885 30.1224C18.0304 30.1224 18.2685 30.0088 18.4188 29.7961L30.7643 12.3368C31.0104 11.9889 30.9278 11.5073 30.5798 11.2612Z" fill="white"/>
</svg>
