<svg width="40" height="31" viewBox="0 0 40 31" fill="none" xmlns="http://www.w3.org/2000/svg">
<path d="M36.25 22.1663H3.75C3.23242 22.1663 2.8125 21.7463 2.8125 21.2288V6.22876C2.8125 3.06958 5.38269 0.5 8.54187 0.5H31.4581C34.6173 0.5 37.1875 3.06958 37.1875 6.22876V21.2288C37.1875 21.7463 36.7676 22.1663 36.25 22.1663ZM4.6875 20.2913H35.3125V6.22876C35.3125 4.10352 33.5834 2.375 31.4581 2.375H8.54187C6.41663 2.375 4.6875 4.10352 4.6875 6.22876V20.2913Z" fill="#002A61"/>
<path d="M30.7294 30.5002H9.27063C4.15894 30.5002 0 26.3413 0 21.229C0 20.7114 0.419922 20.2915 0.9375 20.2915H39.0625C39.5801 20.2915 40 20.7114 40 21.229C40 26.3413 35.8411 30.5002 30.7294 30.5002ZM1.9342 22.1665C2.39624 25.8042 5.51025 28.6252 9.27063 28.6252H30.7294C34.4897 28.6252 37.6038 25.8042 38.0658 22.1665H1.9342Z" fill="#002A61"/>
<path d="M22.9753 26.334H17.0244C15.6426 26.334 14.5183 25.2097 14.5183 23.8267V21.229C14.5183 20.7114 14.9382 20.2915 15.4558 20.2915H24.5439C25.0615 20.2915 25.4814 20.7114 25.4814 21.229V23.8267C25.4814 25.2097 24.3572 26.334 22.9753 26.334ZM16.3933 22.1665V23.8267C16.3933 24.1758 16.6765 24.459 17.0244 24.459H22.9753C23.3232 24.459 23.6064 24.1758 23.6064 23.8267V22.1665H16.3933Z" fill="#002A61"/>
<path d="M19.5099 7.28168V7.91588C18.3437 8.2492 17.4976 9.21938 17.4976 10.3625C17.4976 11.7797 18.7993 12.9335 20.3988 12.9335C21.0077 12.9335 21.5223 13.2966 21.5223 13.7268C21.5223 14.157 21.0077 14.5201 20.3988 14.5201C19.8344 14.5201 19.425 14.2188 19.3117 13.9214C19.1366 13.4623 18.622 13.2321 18.1646 13.4068C17.706 13.5814 17.4758 14.0948 17.6504 14.5539C17.9495 15.3396 18.65 15.9302 19.5104 16.1742V16.8075C19.5104 17.2982 19.9086 17.6964 20.3992 17.6964C20.8899 17.6964 21.2881 17.2982 21.2881 16.8075V16.1734C22.4543 15.84 23.3005 14.8698 23.3005 13.7272C23.3005 12.3099 21.9987 11.1562 20.3992 11.1562C19.7904 11.1562 19.2757 10.7931 19.2757 10.3629C19.2757 9.93269 19.7904 9.56959 20.3992 9.56959C21.0077 9.56959 21.4236 9.90914 21.5054 10.2287C21.6276 10.7038 22.1107 10.9913 22.588 10.8682C23.0631 10.746 23.3498 10.2616 23.2276 9.78603C22.9942 8.87851 22.2445 8.18787 21.2881 7.9181V7.28168C21.2881 6.79103 20.8899 6.39282 20.3992 6.39282C19.9086 6.39282 19.5099 6.79103 19.5099 7.28168Z" fill="#002A61"/>
</svg>
