<svg width="40" height="27" viewBox="0 0 40 27" fill="none" xmlns="http://www.w3.org/2000/svg">
<path d="M14.2827 6.17427C14.2827 7.30503 14.618 8.4104 15.2462 9.35059C15.8745 10.2908 16.7674 11.0236 17.8121 11.4563C18.8567 11.889 20.0063 12.0023 21.1153 11.7817C22.2244 11.561 23.2431 11.0165 24.0427 10.217C24.8422 9.41739 25.3867 8.39868 25.6073 7.28964C25.8279 6.18061 25.7147 5.03106 25.282 3.98638C24.8493 2.94169 24.1165 2.04878 23.1763 1.42056C22.2361 0.792341 21.1307 0.457031 20 0.457031C18.4842 0.458856 17.0311 1.06179 15.9593 2.13359C14.8875 3.20538 14.2845 4.65852 14.2827 6.17427ZM24.3379 6.17427C24.3379 7.03223 24.0835 7.87092 23.6068 8.58429C23.1301 9.29766 22.4527 9.85366 21.66 10.182C20.8674 10.5103 19.9951 10.5962 19.1537 10.4288C18.3122 10.2615 17.5392 9.84832 16.9326 9.24165C16.3259 8.63498 15.9128 7.86203 15.7454 7.02056C15.578 6.17908 15.6639 5.30687 15.9922 4.51421C16.3206 3.72156 16.8766 3.04407 17.5899 2.56741C18.3033 2.09076 19.142 1.83634 20 1.83634C21.1504 1.83634 22.2538 2.29337 23.0673 3.10689C23.8808 3.92041 24.3379 5.02378 24.3379 6.17427Z" fill="#002A61"/>
<path d="M31.669 12.4777C29.6811 12.477 27.7593 13.1918 26.2552 14.4915C24.4464 13.1479 22.2532 12.4224 20 12.4224C17.7468 12.4224 15.5536 13.1479 13.7448 14.4915C12.5373 13.4516 11.0565 12.7804 9.4785 12.5579C7.90052 12.3355 6.29183 12.571 4.84386 13.2365C3.39588 13.902 2.16957 14.9694 1.31085 16.3119C0.452121 17.6543 -0.00286925 19.2152 1.3615e-05 20.8088V22.8226C1.3615e-05 23.0055 0.0726734 23.1809 0.202009 23.3102C0.331344 23.4395 0.50676 23.5122 0.689668 23.5122H9.45518V25.5812C9.45518 25.7641 9.52784 25.9395 9.65717 26.0688C9.78651 26.1982 9.96192 26.2708 10.1448 26.2708H29.8552C30.0381 26.2708 30.2135 26.1982 30.3428 26.0688C30.4722 25.9395 30.5448 25.7641 30.5448 25.5812V23.5122H39.3103C39.4932 23.5122 39.6686 23.4395 39.798 23.3102C39.9273 23.1809 40 23.0055 40 22.8226V20.8088C39.9982 18.5998 39.1198 16.4818 37.5579 14.9199C35.9959 13.3579 33.8779 12.4796 31.669 12.4777ZM1.37932 20.8088C1.37915 19.499 1.74901 18.2158 2.44628 17.1071C3.14355 15.9983 4.13987 15.1091 5.32045 14.5419C6.50103 13.9746 7.81784 13.7525 9.11918 13.901C10.4205 14.0495 11.6534 14.5626 12.6759 15.3812L12.5379 15.5329L12.269 15.8157C12.1172 15.9812 11.9655 16.1536 11.8207 16.326L11.5793 16.6364C11.4345 16.8226 11.3035 17.0157 11.1793 17.2088C11.0552 17.4019 11.0414 17.4088 10.9793 17.5122C10.8414 17.7467 10.7035 17.995 10.5793 18.2432C10.5793 18.3053 10.5104 18.3674 10.4828 18.4295C10.331 18.7467 10.2 19.0708 10.0759 19.4019C10.0759 19.4846 10.0276 19.5674 10 19.6501C9.91725 19.8984 9.84138 20.1536 9.77932 20.4088C9.74483 20.526 9.72414 20.6501 9.69656 20.7674C9.64828 20.995 9.6069 21.2226 9.57932 21.457C9.55173 21.6915 9.54483 21.7191 9.53104 21.8501C9.51725 21.9812 9.49656 22.0432 9.48966 22.1398H1.37932V20.8088ZM10.8345 24.8708V22.926C10.8379 22.8939 10.8379 22.8615 10.8345 22.8295C10.8639 21.1045 11.38 19.423 12.3232 17.9785C13.2664 16.5339 14.5985 15.3852 16.1659 14.6645C17.7334 13.9439 19.4725 13.6806 21.183 13.905C22.8936 14.1294 24.5059 14.8323 25.8345 15.9329C26.0552 16.126 26.269 16.3191 26.469 16.5191C28.161 18.2002 29.1246 20.4789 29.1517 22.8639C29.1517 22.8639 29.1517 22.926 29.1517 22.9398V24.8708H10.8345ZM38.6207 22.1122H30.5103C30.5103 22.0432 30.5103 21.9812 30.5103 21.9122C30.5103 21.8432 30.4758 21.6295 30.4621 21.4846C30.4483 21.3398 30.3793 21.1467 30.3448 20.9398C30.3103 20.7329 30.2896 20.657 30.2552 20.5191C30.2207 20.3812 30.1655 20.1674 30.1172 19.9881L29.9931 19.5812C29.931 19.4088 29.869 19.2432 29.8 19.0708C29.731 18.8984 29.6965 18.8088 29.6414 18.6846C29.5862 18.5605 29.4827 18.3467 29.4 18.1812C29.3172 18.0157 29.2827 17.9329 29.2138 17.8157C29.1448 17.6984 29.0138 17.4846 28.9103 17.3191C28.8069 17.1536 28.7793 17.0984 28.7034 16.995C28.6276 16.8915 28.4483 16.6432 28.3103 16.4708C28.1724 16.2984 28.1862 16.2984 28.1172 16.2157C27.9103 15.9674 27.6896 15.7191 27.4276 15.4846L27.3241 15.4226C28.3438 14.6061 29.5729 14.0935 30.8706 13.9434C32.1682 13.7934 33.4819 14.012 34.661 14.5742C35.8401 15.1364 36.8369 16.0195 37.5373 17.1221C38.2376 18.2248 38.6131 19.5025 38.6207 20.8088V22.1122Z" fill="#002A61"/>
<path d="M31.6688 2.90534C30.7598 2.90398 29.8708 3.17237 29.1145 3.67654C28.3581 4.18071 27.7683 4.89799 27.4198 5.73755C27.0713 6.57711 26.9798 7.5012 27.1568 8.39281C27.3338 9.28443 27.7714 10.1035 28.4141 10.7462C29.0569 11.389 29.876 11.8266 30.7676 12.0036C31.6592 12.1806 32.5833 12.0891 33.4228 11.7406C34.2624 11.3921 34.9797 10.8023 35.4838 10.0459C35.988 9.28954 36.2564 8.40056 36.255 7.49154C36.255 6.27521 35.7719 5.10869 34.9118 4.24861C34.0517 3.38853 32.8852 2.90534 31.6688 2.90534ZM31.6688 10.7053C31.0329 10.7067 30.4109 10.5194 29.8815 10.1671C29.3521 9.81476 28.9391 9.31331 28.6948 8.72619C28.4505 8.13907 28.3858 7.49267 28.5091 6.8688C28.6323 6.24493 28.9378 5.67165 29.387 5.2215C29.8362 4.77135 30.4088 4.46458 31.0324 4.34002C31.656 4.21545 32.3026 4.27869 32.8902 4.52173C33.4779 4.76477 33.9802 5.17669 34.3336 5.70534C34.6871 6.23399 34.8757 6.85562 34.8757 7.49154C34.8757 8.3427 34.5381 9.1591 33.9369 9.7616C33.3357 10.3641 32.52 10.7035 31.6688 10.7053Z" fill="#002A61"/>
<path d="M3.74487 7.49154C3.74487 8.3986 4.01385 9.2853 4.51779 10.0395C5.02173 10.7937 5.73799 11.3815 6.57601 11.7286C7.41403 12.0758 8.33616 12.1666 9.2258 11.9896C10.1154 11.8127 10.9326 11.3759 11.574 10.7345C12.2154 10.0931 12.6522 9.2759 12.8292 8.38626C13.0061 7.49662 12.9153 6.57449 12.5682 5.73647C12.2211 4.89845 11.6332 4.18219 10.879 3.67825C10.1248 3.17431 9.23814 2.90533 8.33108 2.90533C7.1153 2.90716 5.94984 3.39093 5.09016 4.25062C4.23047 5.1103 3.7467 6.27576 3.74487 7.49154ZM11.538 7.49154C11.538 8.1258 11.3499 8.74582 10.9975 9.27319C10.6451 9.80056 10.1443 10.2116 9.5583 10.4543C8.97232 10.697 8.32752 10.7606 7.70544 10.6368C7.08337 10.5131 6.51195 10.2076 6.06346 9.75915C5.61497 9.31066 5.30954 8.73925 5.1858 8.11717C5.06206 7.49509 5.12557 6.8503 5.36829 6.26431C5.61101 5.67833 6.02205 5.17748 6.54942 4.8251C7.07679 4.47272 7.69681 4.28464 8.33108 4.28464C9.18104 4.28647 9.99566 4.62492 10.5967 5.22593C11.1977 5.82695 11.5361 6.64158 11.538 7.49154Z" fill="#002A61"/>
</svg>
