<svg width="651" height="234" viewBox="0 0 651 234" fill="none" xmlns="http://www.w3.org/2000/svg">
<path d="M55.5234 4.02344V14.2422C54.1797 12.7891 52.9141 11.7344 51.7266 11.0781C50.3984 10.4375 49.0234 10.1172 47.6016 10.1172C44.9297 10.1172 42.75 11.0312 41.0625 12.8594C40.4844 13.5156 40.0156 14.2031 39.6562 14.9219C39.2969 15.625 39.0234 16.4297 38.8359 17.3359C38.6641 18.2266 38.5781 19.1328 38.5781 20.0547C38.5781 22.8047 39.4219 25.0938 41.1094 26.9219C42.8125 28.7188 44.9766 29.6172 47.6016 29.6172C49.0078 29.6172 50.3828 29.2812 51.7266 28.6094C52.9141 28 54.1797 26.9531 55.5234 25.4688V35.7109C53.7891 36.5234 52.3125 37.0625 51.0938 37.3281C49.5781 37.6875 48.0938 37.8672 46.6406 37.8672C44.7969 37.8672 43.0625 37.6406 41.4375 37.1875C39.8125 36.75 38.3594 36.0781 37.0781 35.1719C34.5156 33.4219 32.5625 31.2656 31.2188 28.7031C29.875 26.0469 29.2031 23.1016 29.2031 19.8672C29.2031 17.2734 29.6406 14.8906 30.5156 12.7188C30.9062 11.6719 31.3984 10.6875 31.9922 9.76562C32.6016 8.82812 33.3828 7.85938 34.3359 6.85938C35.9766 5.17188 37.8203 3.92188 39.8672 3.10938C41.8984 2.28125 44.1562 1.86719 46.6406 1.86719C48.0625 1.86719 49.5469 2.03906 51.0938 2.38281C52.625 2.78906 54.1016 3.33594 55.5234 4.02344ZM96.0234 19.9141C96.0234 22.3984 95.5781 24.7188 94.6875 26.875C93.7969 28.9844 92.4688 30.9062 90.7031 32.6406C88.9531 34.3281 86.9531 35.625 84.7031 36.5312C82.3438 37.4531 80.0078 37.9141 77.6953 37.9141C75.3516 37.9141 73.0156 37.4531 70.6875 36.5312C68.3906 35.6094 66.4062 34.3125 64.7344 32.6406C63.0469 31.0312 61.7188 29.0938 60.75 26.8281C59.8125 24.6094 59.3438 22.3047 59.3438 19.9141C59.3438 17.5234 59.8125 15.2188 60.75 13C61.7188 10.7344 63.0469 8.79688 64.7344 7.1875C66.4531 5.46875 68.4375 4.15625 70.6875 3.25C72.875 2.35938 75.2109 1.91406 77.6953 1.91406C80.1797 1.91406 82.5312 2.36719 84.75 3.27344C86.9688 4.16406 88.9453 5.46875 90.6797 7.1875C92.4297 8.90625 93.7656 10.8438 94.6875 13C95.5781 15.1562 96.0234 17.4609 96.0234 19.9141ZM77.6953 29.9922C80.2734 29.9922 82.4297 29.0312 84.1641 27.1094C85.0234 26.1562 85.6562 25.0859 86.0625 23.8984C86.4688 22.7109 86.6719 21.3828 86.6719 19.9141C86.6719 17.0547 85.8203 14.6562 84.1172 12.7188C82.3828 10.7969 80.2422 9.83594 77.6953 9.83594C75.0859 9.83594 72.9375 10.7969 71.25 12.7188C69.5625 14.6406 68.7188 17.0391 68.7188 19.9141C68.7188 22.8984 69.5469 25.3125 71.2031 27.1562C72.9062 29.0469 75.0703 29.9922 77.6953 29.9922ZM101.906 37V2.6875H110.93L123.891 20.3359C124.219 20.8203 124.633 21.5469 125.133 22.5156C125.773 23.7656 126.398 25.0547 127.008 26.3828C126.773 24.5859 126.641 23.3281 126.609 22.6094C126.516 21.4844 126.469 20.4922 126.469 19.6328V2.6875H135.445V37H126.469L113.508 19.2812C113.32 19.0312 112.906 18.2969 112.266 17.0781C111.703 16.0781 111.078 14.8125 110.391 13.2812C110.547 14.5 110.695 15.7656 110.836 17.0781C110.898 18.5469 110.93 19.5391 110.93 20.0547V37H101.906ZM144.352 25.9141C145.789 27.5078 147.164 28.6875 148.477 29.4531C149.852 30.2344 151.195 30.625 152.508 30.625C153.742 30.625 154.766 30.2891 155.578 29.6172C156.391 28.9453 156.797 28.0938 156.797 27.0625C156.797 25.9375 156.461 25.0547 155.789 24.4141C155.07 23.8047 153.484 23.1719 151.031 22.5156C147.688 21.6094 145.32 20.4375 143.93 19C142.523 17.5312 141.82 15.5312 141.82 13C141.82 9.71875 142.922 7.04688 145.125 4.98438C147.297 2.90625 150.141 1.86719 153.656 1.86719C155.641 1.86719 157.438 2.125 159.047 2.64062C160.734 3.15625 162.336 3.92188 163.852 4.9375L160.922 11.6641C159.891 10.7734 158.797 10.0859 157.641 9.60156C156.516 9.14844 155.414 8.92188 154.336 8.92188C153.242 8.92188 152.328 9.19531 151.594 9.74219C150.891 10.2578 150.539 10.9453 150.539 11.8047C150.539 12.6328 150.844 13.3203 151.453 13.8672C152.094 14.3828 153.297 14.875 155.062 15.3438C155.125 15.3594 155.18 15.375 155.227 15.3906C155.273 15.3906 155.344 15.4062 155.438 15.4375C159.25 16.4531 161.766 17.5938 162.984 18.8594C163.781 19.6562 164.406 20.6641 164.859 21.8828C165.266 23.0391 165.469 24.3516 165.469 25.8203C165.469 29.4453 164.273 32.375 161.883 34.6094C159.477 36.8125 156.289 37.9141 152.32 37.9141C149.883 37.9141 147.703 37.5156 145.781 36.7188C143.875 35.9219 141.992 34.6406 140.133 32.875L144.352 25.9141ZM175.664 37V10.7969H167.977V2.6875H192.703V10.7969H185.016V37H175.664ZM197.297 37V2.6875H207.07C208.961 2.6875 210.555 2.72656 211.852 2.80469C213.164 2.88281 214.242 3.01562 215.086 3.20312C216.539 3.54688 217.836 4.14062 218.977 4.98438C220.227 5.92188 221.172 7.125 221.812 8.59375C222.484 10 222.82 11.5938 222.82 13.375C222.82 16.0156 222.164 18.1797 220.852 19.8672C219.57 21.5547 217.672 22.6562 215.156 23.1719L224.508 37H213.938L206.062 23.5703V37H197.297ZM206.062 18.9062H207.797C209.844 18.9062 211.32 18.5703 212.227 17.8984C213.148 17.1484 213.609 16.0625 213.609 14.6406C213.609 12.9219 213.18 11.7031 212.32 10.9844C211.445 10.25 209.984 9.88281 207.938 9.88281H206.062V18.9062ZM227.836 2.6875H237.211V19.375C237.211 21.9219 237.273 23.6875 237.398 24.6719C237.555 25.8438 237.766 26.7344 238.031 27.3438C238.359 28.2344 238.977 28.8906 239.883 29.3125C240.789 29.7969 241.883 30.0391 243.164 30.0391C244.43 30.0391 245.516 29.7969 246.422 29.3125C247.25 28.9062 247.875 28.25 248.297 27.3438C248.547 26.7188 248.75 25.8281 248.906 24.6719C249.047 23.7344 249.117 21.9688 249.117 19.375V17.0312V2.6875H258.422V20.8281C258.422 24.5469 258.195 27.3125 257.742 29.125C257.32 30.9219 256.555 32.4609 255.445 33.7422C254.227 35.1641 252.609 36.2031 250.594 36.8594C248.594 37.5625 246.117 37.9141 243.164 37.9141C240.148 37.9141 237.664 37.5625 235.711 36.8594C233.727 36.2031 232.109 35.1641 230.859 33.7422C229.781 32.4922 229.016 30.9531 228.562 29.125C228.078 27.2812 227.836 24.5156 227.836 20.8281V17.2656V2.6875ZM265.781 37V2.6875H275.227V37H265.781ZM322.148 37H313.406L311.391 22.1641C311.219 20.8359 311.094 19.6719 311.016 18.6719C310.906 17.6875 310.797 16.2891 310.688 14.4766C310.406 16.1016 309.969 17.9141 309.375 19.9141C309.25 20.3047 309.156 20.6406 309.094 20.9219L304.43 37H298.195L293.531 20.9219C293.484 20.6562 293.391 20.3203 293.25 19.9141C292.594 17.8047 292.164 15.9922 291.961 14.4766C291.836 16.1953 291.719 17.4766 291.609 18.3203C291.562 18.7578 291.492 19.3984 291.398 20.2422C291.305 21.0859 291.234 21.7266 291.188 22.1641L289.172 37H280.477L285.773 2.6875H295.031L300.211 20.3828C300.305 20.7109 300.367 20.9219 300.398 21.0156C300.852 22.4844 301.156 23.8281 301.312 25.0469C301.344 24.625 301.461 23.9375 301.664 22.9844C301.727 22.75 301.961 21.8672 302.367 20.3359L307.594 2.6875H316.875L322.148 37ZM362.414 19.9141C362.414 22.3984 361.969 24.7188 361.078 26.875C360.188 28.9844 358.859 30.9062 357.094 32.6406C355.344 34.3281 353.344 35.625 351.094 36.5312C348.734 37.4531 346.398 37.9141 344.086 37.9141C341.742 37.9141 339.406 37.4531 337.078 36.5312C334.781 35.6094 332.797 34.3125 331.125 32.6406C329.438 31.0312 328.109 29.0938 327.141 26.8281C326.203 24.6094 325.734 22.3047 325.734 19.9141C325.734 17.5234 326.203 15.2188 327.141 13C328.109 10.7344 329.438 8.79688 331.125 7.1875C332.844 5.46875 334.828 4.15625 337.078 3.25C339.266 2.35938 341.602 1.91406 344.086 1.91406C346.57 1.91406 348.922 2.36719 351.141 3.27344C353.359 4.16406 355.336 5.46875 357.07 7.1875C358.82 8.90625 360.156 10.8438 361.078 13C361.969 15.1562 362.414 17.4609 362.414 19.9141ZM344.086 29.9922C346.664 29.9922 348.82 29.0312 350.555 27.1094C351.414 26.1562 352.047 25.0859 352.453 23.8984C352.859 22.7109 353.062 21.3828 353.062 19.9141C353.062 17.0547 352.211 14.6562 350.508 12.7188C348.773 10.7969 346.633 9.83594 344.086 9.83594C341.477 9.83594 339.328 10.7969 337.641 12.7188C335.953 14.6406 335.109 17.0391 335.109 19.9141C335.109 22.8984 335.938 25.3125 337.594 27.1562C339.297 29.0469 341.461 29.9922 344.086 29.9922ZM369.82 25.9141C371.258 27.5078 372.633 28.6875 373.945 29.4531C375.32 30.2344 376.664 30.625 377.977 30.625C379.211 30.625 380.234 30.2891 381.047 29.6172C381.859 28.9453 382.266 28.0938 382.266 27.0625C382.266 25.9375 381.93 25.0547 381.258 24.4141C380.539 23.8047 378.953 23.1719 376.5 22.5156C373.156 21.6094 370.789 20.4375 369.398 19C367.992 17.5312 367.289 15.5312 367.289 13C367.289 9.71875 368.391 7.04688 370.594 4.98438C372.766 2.90625 375.609 1.86719 379.125 1.86719C381.109 1.86719 382.906 2.125 384.516 2.64062C386.203 3.15625 387.805 3.92188 389.32 4.9375L386.391 11.6641C385.359 10.7734 384.266 10.0859 383.109 9.60156C381.984 9.14844 380.883 8.92188 379.805 8.92188C378.711 8.92188 377.797 9.19531 377.062 9.74219C376.359 10.2578 376.008 10.9453 376.008 11.8047C376.008 12.6328 376.312 13.3203 376.922 13.8672C377.562 14.3828 378.766 14.875 380.531 15.3438C380.594 15.3594 380.648 15.375 380.695 15.3906C380.742 15.3906 380.812 15.4062 380.906 15.4375C384.719 16.4531 387.234 17.5938 388.453 18.8594C389.25 19.6562 389.875 20.6641 390.328 21.8828C390.734 23.0391 390.938 24.3516 390.938 25.8203C390.938 29.4453 389.742 32.375 387.352 34.6094C384.945 36.8125 381.758 37.9141 377.789 37.9141C375.352 37.9141 373.172 37.5156 371.25 36.7188C369.344 35.9219 367.461 34.6406 365.602 32.875L369.82 25.9141ZM32.1797 73.9141C33.6172 75.5078 34.9922 76.6875 36.3047 77.4531C37.6797 78.2344 39.0234 78.625 40.3359 78.625C41.5703 78.625 42.5938 78.2891 43.4062 77.6172C44.2188 76.9453 44.625 76.0938 44.625 75.0625C44.625 73.9375 44.2891 73.0547 43.6172 72.4141C42.8984 71.8047 41.3125 71.1719 38.8594 70.5156C35.5156 69.6094 33.1484 68.4375 31.7578 67C30.3516 65.5312 29.6484 63.5312 29.6484 61C29.6484 57.7188 30.75 55.0469 32.9531 52.9844C35.125 50.9062 37.9688 49.8672 41.4844 49.8672C43.4688 49.8672 45.2656 50.125 46.875 50.6406C48.5625 51.1562 50.1641 51.9219 51.6797 52.9375L48.75 59.6641C47.7188 58.7734 46.625 58.0859 45.4688 57.6016C44.3438 57.1484 43.2422 56.9219 42.1641 56.9219C41.0703 56.9219 40.1562 57.1953 39.4219 57.7422C38.7188 58.2578 38.3672 58.9453 38.3672 59.8047C38.3672 60.6328 38.6719 61.3203 39.2812 61.8672C39.9219 62.3828 41.125 62.875 42.8906 63.3438C42.9531 63.3594 43.0078 63.375 43.0547 63.3906C43.1016 63.3906 43.1719 63.4062 43.2656 63.4375C47.0781 64.4531 49.5938 65.5938 50.8125 66.8594C51.6094 67.6562 52.2344 68.6641 52.6875 69.8828C53.0938 71.0391 53.2969 72.3516 53.2969 73.8203C53.2969 77.4453 52.1016 80.375 49.7109 82.6094C47.3047 84.8125 44.1172 85.9141 40.1484 85.9141C37.7109 85.9141 35.5312 85.5156 33.6094 84.7188C31.7031 83.9219 29.8203 82.6406 27.9609 80.875L32.1797 73.9141ZM93.7734 67.9141C93.7734 70.3984 93.3281 72.7188 92.4375 74.875C91.5469 76.9844 90.2188 78.9062 88.4531 80.6406C86.7031 82.3281 84.7031 83.625 82.4531 84.5312C80.0938 85.4531 77.7578 85.9141 75.4453 85.9141C73.1016 85.9141 70.7656 85.4531 68.4375 84.5312C66.1406 83.6094 64.1562 82.3125 62.4844 80.6406C60.7969 79.0312 59.4688 77.0938 58.5 74.8281C57.5625 72.6094 57.0938 70.3047 57.0938 67.9141C57.0938 65.5234 57.5625 63.2188 58.5 61C59.4688 58.7344 60.7969 56.7969 62.4844 55.1875C64.2031 53.4688 66.1875 52.1562 68.4375 51.25C70.625 50.3594 72.9609 49.9141 75.4453 49.9141C77.9297 49.9141 80.2812 50.3672 82.5 51.2734C84.7188 52.1641 86.6953 53.4688 88.4297 55.1875C90.1797 56.9062 91.5156 58.8438 92.4375 61C93.3281 63.1562 93.7734 65.4609 93.7734 67.9141ZM75.4453 77.9922C78.0234 77.9922 80.1797 77.0312 81.9141 75.1094C82.7734 74.1562 83.4062 73.0859 83.8125 71.8984C84.2188 70.7109 84.4219 69.3828 84.4219 67.9141C84.4219 65.0547 83.5703 62.6562 81.8672 60.7188C80.1328 58.7969 77.9922 57.8359 75.4453 57.8359C72.8359 57.8359 70.6875 58.7969 69 60.7188C67.3125 62.6406 66.4688 65.0391 66.4688 67.9141C66.4688 70.8984 67.2969 73.3125 68.9531 75.1562C70.6562 77.0469 72.8203 77.9922 75.4453 77.9922ZM99.6562 85V50.6875H109.008V76.9844H120.633V85H99.6562ZM124.945 50.6875H134.32V67.375C134.32 69.9219 134.383 71.6875 134.508 72.6719C134.664 73.8438 134.875 74.7344 135.141 75.3438C135.469 76.2344 136.086 76.8906 136.992 77.3125C137.898 77.7969 138.992 78.0391 140.273 78.0391C141.539 78.0391 142.625 77.7969 143.531 77.3125C144.359 76.9062 144.984 76.25 145.406 75.3438C145.656 74.7188 145.859 73.8281 146.016 72.6719C146.156 71.7344 146.227 69.9688 146.227 67.375V65.0312V50.6875H155.531V68.8281C155.531 72.5469 155.305 75.3125 154.852 77.125C154.43 78.9219 153.664 80.4609 152.555 81.7422C151.336 83.1641 149.719 84.2031 147.703 84.8594C145.703 85.5625 143.227 85.9141 140.273 85.9141C137.258 85.9141 134.773 85.5625 132.82 84.8594C130.836 84.2031 129.219 83.1641 127.969 81.7422C126.891 80.4922 126.125 78.9531 125.672 77.125C125.188 75.2812 124.945 72.5156 124.945 68.8281V65.2656V50.6875ZM187.523 52.0234V62.2422C186.18 60.7891 184.914 59.7344 183.727 59.0781C182.398 58.4375 181.023 58.1172 179.602 58.1172C176.93 58.1172 174.75 59.0312 173.062 60.8594C172.484 61.5156 172.016 62.2031 171.656 62.9219C171.297 63.625 171.023 64.4297 170.836 65.3359C170.664 66.2266 170.578 67.1328 170.578 68.0547C170.578 70.8047 171.422 73.0938 173.109 74.9219C174.812 76.7188 176.977 77.6172 179.602 77.6172C181.008 77.6172 182.383 77.2812 183.727 76.6094C184.914 76 186.18 74.9531 187.523 73.4688V83.7109C185.789 84.5234 184.312 85.0625 183.094 85.3281C181.578 85.6875 180.094 85.8672 178.641 85.8672C176.797 85.8672 175.062 85.6406 173.438 85.1875C171.812 84.75 170.359 84.0781 169.078 83.1719C166.516 81.4219 164.562 79.2656 163.219 76.7031C161.875 74.0469 161.203 71.1016 161.203 67.8672C161.203 65.2734 161.641 62.8906 162.516 60.7188C162.906 59.6719 163.398 58.6875 163.992 57.7656C164.602 56.8281 165.383 55.8594 166.336 54.8594C167.977 53.1719 169.82 51.9219 171.867 51.1094C173.898 50.2812 176.156 49.8672 178.641 49.8672C180.062 49.8672 181.547 50.0391 183.094 50.3828C184.625 50.7891 186.102 51.3359 187.523 52.0234ZM193.031 85V50.6875H202.477V85H193.031ZM245.273 67.9141C245.273 70.3984 244.828 72.7188 243.938 74.875C243.047 76.9844 241.719 78.9062 239.953 80.6406C238.203 82.3281 236.203 83.625 233.953 84.5312C231.594 85.4531 229.258 85.9141 226.945 85.9141C224.602 85.9141 222.266 85.4531 219.938 84.5312C217.641 83.6094 215.656 82.3125 213.984 80.6406C212.297 79.0312 210.969 77.0938 210 74.8281C209.062 72.6094 208.594 70.3047 208.594 67.9141C208.594 65.5234 209.062 63.2188 210 61C210.969 58.7344 212.297 56.7969 213.984 55.1875C215.703 53.4688 217.688 52.1562 219.938 51.25C222.125 50.3594 224.461 49.9141 226.945 49.9141C229.43 49.9141 231.781 50.3672 234 51.2734C236.219 52.1641 238.195 53.4688 239.93 55.1875C241.68 56.9062 243.016 58.8438 243.938 61C244.828 63.1562 245.273 65.4609 245.273 67.9141ZM226.945 77.9922C229.523 77.9922 231.68 77.0312 233.414 75.1094C234.273 74.1562 234.906 73.0859 235.312 71.8984C235.719 70.7109 235.922 69.3828 235.922 67.9141C235.922 65.0547 235.07 62.6562 233.367 60.7188C231.633 58.7969 229.492 57.8359 226.945 57.8359C224.336 57.8359 222.188 58.7969 220.5 60.7188C218.812 62.6406 217.969 65.0391 217.969 67.9141C217.969 70.8984 218.797 73.3125 220.453 75.1562C222.156 77.0469 224.32 77.9922 226.945 77.9922ZM251.156 85V50.6875H260.18L273.141 68.3359C273.469 68.8203 273.883 69.5469 274.383 70.5156C275.023 71.7656 275.648 73.0547 276.258 74.3828C276.023 72.5859 275.891 71.3281 275.859 70.6094C275.766 69.4844 275.719 68.4922 275.719 67.6328V50.6875H284.695V85H275.719L262.758 67.2812C262.57 67.0312 262.156 66.2969 261.516 65.0781C260.953 64.0781 260.328 62.8125 259.641 61.2812C259.797 62.5 259.945 63.7656 260.086 65.0781C260.148 66.5469 260.18 67.5391 260.18 68.0547V85H251.156ZM292.078 85V50.6875H313.102V58.2109H301.195V64.1641H312.422V71.5234H301.195V77.3125H313.102V85H292.078ZM320.836 73.9141C322.273 75.5078 323.648 76.6875 324.961 77.4531C326.336 78.2344 327.68 78.625 328.992 78.625C330.227 78.625 331.25 78.2891 332.062 77.6172C332.875 76.9453 333.281 76.0938 333.281 75.0625C333.281 73.9375 332.945 73.0547 332.273 72.4141C331.555 71.8047 329.969 71.1719 327.516 70.5156C324.172 69.6094 321.805 68.4375 320.414 67C319.008 65.5312 318.305 63.5312 318.305 61C318.305 57.7188 319.406 55.0469 321.609 52.9844C323.781 50.9062 326.625 49.8672 330.141 49.8672C332.125 49.8672 333.922 50.125 335.531 50.6406C337.219 51.1562 338.82 51.9219 340.336 52.9375L337.406 59.6641C336.375 58.7734 335.281 58.0859 334.125 57.6016C333 57.1484 331.898 56.9219 330.82 56.9219C329.727 56.9219 328.812 57.1953 328.078 57.7422C327.375 58.2578 327.023 58.9453 327.023 59.8047C327.023 60.6328 327.328 61.3203 327.938 61.8672C328.578 62.3828 329.781 62.875 331.547 63.3438C331.609 63.3594 331.664 63.375 331.711 63.3906C331.758 63.3906 331.828 63.4062 331.922 63.4375C335.734 64.4531 338.25 65.5938 339.469 66.8594C340.266 67.6562 340.891 68.6641 341.344 69.8828C341.75 71.0391 341.953 72.3516 341.953 73.8203C341.953 77.4453 340.758 80.375 338.367 82.6094C335.961 84.8125 332.773 85.9141 328.805 85.9141C326.367 85.9141 324.188 85.5156 322.266 84.7188C320.359 83.9219 318.477 82.6406 316.617 80.875L320.836 73.9141ZM371.32 72.1797H380.625L377.133 60.8594C377.055 60.6562 376.906 60.0938 376.688 59.1719C376.422 58.0938 376.18 57.1172 375.961 56.2422C375.742 57.0391 375.555 57.8438 375.398 58.6562C375.148 59.4375 374.938 60.1719 374.766 60.8594L371.32 72.1797ZM358.219 85L370.055 50.6875H381.773L393.633 85H384.328L382.594 78.8594H369.305L367.523 85H358.219ZM411.984 85V50.6875H421.336V76.9844H432.961V85H411.984ZM446.602 72.1797H455.906L452.414 60.8594C452.336 60.6562 452.188 60.0938 451.969 59.1719C451.703 58.0938 451.461 57.1172 451.242 56.2422C451.023 57.0391 450.836 57.8438 450.68 58.6562C450.43 59.4375 450.219 60.1719 450.047 60.8594L446.602 72.1797ZM433.5 85L445.336 50.6875H457.055L468.914 85H459.609L457.875 78.8594H444.586L442.805 85H433.5ZM70.0078 133H61.2656L59.25 118.164C59.0781 116.836 58.9531 115.672 58.875 114.672C58.7656 113.688 58.6562 112.289 58.5469 110.477C58.2656 112.102 57.8281 113.914 57.2344 115.914C57.1094 116.305 57.0156 116.641 56.9531 116.922L52.2891 133H46.0547L41.3906 116.922C41.3438 116.656 41.25 116.32 41.1094 115.914C40.4531 113.805 40.0234 111.992 39.8203 110.477C39.6953 112.195 39.5781 113.477 39.4688 114.32C39.4219 114.758 39.3516 115.398 39.2578 116.242C39.1641 117.086 39.0938 117.727 39.0469 118.164L37.0312 133H28.3359L33.6328 98.6875H42.8906L48.0703 116.383C48.1641 116.711 48.2266 116.922 48.2578 117.016C48.7109 118.484 49.0156 119.828 49.1719 121.047C49.2031 120.625 49.3203 119.938 49.5234 118.984C49.5859 118.75 49.8203 117.867 50.2266 116.336L55.4531 98.6875H64.7344L70.0078 133ZM75.0469 133V98.6875H96.0703V106.211H84.1641V112.164H95.3906V119.523H84.1641V125.312H96.0703V133H75.0469ZM102.281 133V98.6875H109.43C114.836 98.6875 118.609 98.9375 120.75 99.4375C122.969 99.9375 124.906 100.773 126.562 101.945C128.75 103.445 130.398 105.383 131.508 107.758C132.633 110.148 133.195 112.852 133.195 115.867C133.195 118.883 132.633 121.586 131.508 123.977C130.398 126.32 128.75 128.258 126.562 129.789C124.844 130.961 122.953 131.773 120.891 132.227C118.828 132.742 115.531 133 111 133H109.43H102.281ZM111.539 125.312H113.109C116.797 125.312 119.477 124.547 121.148 123.016C122.836 121.516 123.68 119.133 123.68 115.867C123.68 112.617 122.836 110.219 121.148 108.672C119.461 107.125 116.781 106.352 113.109 106.352H111.539V125.312ZM139.312 133V98.6875H148.758V133H139.312ZM156.328 133V98.6875H163.477C168.883 98.6875 172.656 98.9375 174.797 99.4375C177.016 99.9375 178.953 100.773 180.609 101.945C182.797 103.445 184.445 105.383 185.555 107.758C186.68 110.148 187.242 112.852 187.242 115.867C187.242 118.883 186.68 121.586 185.555 123.977C184.445 126.32 182.797 128.258 180.609 129.789C178.891 130.961 177 131.773 174.938 132.227C172.875 132.742 169.578 133 165.047 133H163.477H156.328ZM165.586 125.312H167.156C170.844 125.312 173.523 124.547 175.195 123.016C176.883 121.516 177.727 119.133 177.727 115.867C177.727 112.617 176.883 110.219 175.195 108.672C173.508 107.125 170.828 106.352 167.156 106.352H165.586V125.312ZM202.195 120.18H211.5L208.008 108.859C207.93 108.656 207.781 108.094 207.562 107.172C207.297 106.094 207.055 105.117 206.836 104.242C206.617 105.039 206.43 105.844 206.273 106.656C206.023 107.438 205.812 108.172 205.641 108.859L202.195 120.18ZM189.094 133L200.93 98.6875H212.648L224.508 133H215.203L213.469 126.859H200.18L198.398 133H189.094ZM242.859 133V98.6875H250.008C255.414 98.6875 259.188 98.9375 261.328 99.4375C263.547 99.9375 265.484 100.773 267.141 101.945C269.328 103.445 270.977 105.383 272.086 107.758C273.211 110.148 273.773 112.852 273.773 115.867C273.773 118.883 273.211 121.586 272.086 123.977C270.977 126.32 269.328 128.258 267.141 129.789C265.422 130.961 263.531 131.773 261.469 132.227C259.406 132.742 256.109 133 251.578 133H250.008H242.859ZM252.117 125.312H253.688C257.375 125.312 260.055 124.547 261.727 123.016C263.414 121.516 264.258 119.133 264.258 115.867C264.258 112.617 263.414 110.219 261.727 108.672C260.039 107.125 257.359 106.352 253.688 106.352H252.117V125.312ZM279.656 133V98.6875H300.68V106.211H288.773V112.164H300V119.523H288.773V125.312H300.68V133H279.656ZM326.883 133V106.797H319.195V98.6875H343.922V106.797H336.234V133H326.883ZM348.258 98.6875H357.633V115.375C357.633 117.922 357.695 119.688 357.82 120.672C357.977 121.844 358.188 122.734 358.453 123.344C358.781 124.234 359.398 124.891 360.305 125.312C361.211 125.797 362.305 126.039 363.586 126.039C364.852 126.039 365.938 125.797 366.844 125.312C367.672 124.906 368.297 124.25 368.719 123.344C368.969 122.719 369.172 121.828 369.328 120.672C369.469 119.734 369.539 117.969 369.539 115.375V113.031V98.6875H378.844V116.828C378.844 120.547 378.617 123.312 378.164 125.125C377.742 126.922 376.977 128.461 375.867 129.742C374.648 131.164 373.031 132.203 371.016 132.859C369.016 133.562 366.539 133.914 363.586 133.914C360.57 133.914 358.086 133.562 356.133 132.859C354.148 132.203 352.531 131.164 351.281 129.742C350.203 128.492 349.438 126.953 348.984 125.125C348.5 123.281 348.258 120.516 348.258 116.828V113.266V98.6875ZM401.016 133V98.6875H410.039L423 116.336C423.328 116.82 423.742 117.547 424.242 118.516C424.883 119.766 425.508 121.055 426.117 122.383C425.883 120.586 425.75 119.328 425.719 118.609C425.625 117.484 425.578 116.492 425.578 115.633V98.6875H434.555V133H425.578L412.617 115.281C412.43 115.031 412.016 114.297 411.375 113.078C410.812 112.078 410.188 110.812 409.5 109.281C409.656 110.5 409.805 111.766 409.945 113.078C410.008 114.547 410.039 115.539 410.039 116.055V133H401.016ZM441.938 133V98.6875H462.961V106.211H451.055V112.164H462.281V119.523H451.055V125.312H462.961V133H441.938ZM485.484 120.367V113.172H503.859C503.859 113.5 503.875 113.758 503.906 113.945V115.188C503.906 121.109 502.359 125.688 499.266 128.922C496.141 132.188 491.742 133.82 486.07 133.82C483.367 133.82 480.898 133.406 478.664 132.578C476.508 131.75 474.57 130.469 472.852 128.734C471.211 127.062 469.953 125.125 469.078 122.922C468.609 121.75 468.266 120.578 468.047 119.406C467.828 118.219 467.719 117.039 467.719 115.867C467.719 113.336 468.156 110.984 469.031 108.812C469.906 106.703 471.211 104.766 472.945 103C474.602 101.344 476.57 100.078 478.852 99.2031C481.102 98.3438 483.508 97.9141 486.07 97.9141C489.414 97.9141 492.383 98.5859 494.977 99.9297C495.805 100.336 496.617 100.844 497.414 101.453C498.227 102.047 498.969 102.711 499.641 103.445C500.328 104.18 500.953 104.977 501.516 105.836L493.406 109.727C492.438 108.398 491.352 107.406 490.148 106.75C488.914 106.109 487.555 105.789 486.07 105.789C483.258 105.789 481.062 106.719 479.484 108.578C477.891 110.422 477.094 112.977 477.094 116.242C477.094 119.523 477.891 122.102 479.484 123.977C481.062 125.836 483.258 126.766 486.07 126.766C488.461 126.766 490.438 126.172 492 124.984C493.625 123.812 494.555 122.273 494.789 120.367H485.484ZM544.852 115.914C544.852 118.398 544.406 120.719 543.516 122.875C542.625 124.984 541.297 126.906 539.531 128.641C537.781 130.328 535.781 131.625 533.531 132.531C531.172 133.453 528.836 133.914 526.523 133.914C524.18 133.914 521.844 133.453 519.516 132.531C517.219 131.609 515.234 130.312 513.562 128.641C511.875 127.031 510.547 125.094 509.578 122.828C508.641 120.609 508.172 118.305 508.172 115.914C508.172 113.523 508.641 111.219 509.578 109C510.547 106.734 511.875 104.797 513.562 103.188C515.281 101.469 517.266 100.156 519.516 99.25C521.703 98.3594 524.039 97.9141 526.523 97.9141C529.008 97.9141 531.359 98.3672 533.578 99.2734C535.797 100.164 537.773 101.469 539.508 103.188C541.258 104.906 542.594 106.844 543.516 109C544.406 111.156 544.852 113.461 544.852 115.914ZM526.523 125.992C529.102 125.992 531.258 125.031 532.992 123.109C533.852 122.156 534.484 121.086 534.891 119.898C535.297 118.711 535.5 117.383 535.5 115.914C535.5 113.055 534.648 110.656 532.945 108.719C531.211 106.797 529.07 105.836 526.523 105.836C523.914 105.836 521.766 106.797 520.078 108.719C518.391 110.641 517.547 113.039 517.547 115.914C517.547 118.898 518.375 121.312 520.031 123.156C521.734 125.047 523.898 125.992 526.523 125.992ZM575.602 100.023V110.242C574.258 108.789 572.992 107.734 571.805 107.078C570.477 106.438 569.102 106.117 567.68 106.117C565.008 106.117 562.828 107.031 561.141 108.859C560.562 109.516 560.094 110.203 559.734 110.922C559.375 111.625 559.102 112.43 558.914 113.336C558.742 114.227 558.656 115.133 558.656 116.055C558.656 118.805 559.5 121.094 561.188 122.922C562.891 124.719 565.055 125.617 567.68 125.617C569.086 125.617 570.461 125.281 571.805 124.609C572.992 124 574.258 122.953 575.602 121.469V131.711C573.867 132.523 572.391 133.062 571.172 133.328C569.656 133.688 568.172 133.867 566.719 133.867C564.875 133.867 563.141 133.641 561.516 133.188C559.891 132.75 558.438 132.078 557.156 131.172C554.594 129.422 552.641 127.266 551.297 124.703C549.953 122.047 549.281 119.102 549.281 115.867C549.281 113.273 549.719 110.891 550.594 108.719C550.984 107.672 551.477 106.688 552.07 105.766C552.68 104.828 553.461 103.859 554.414 102.859C556.055 101.172 557.898 99.9219 559.945 99.1094C561.977 98.2812 564.234 97.8672 566.719 97.8672C568.141 97.8672 569.625 98.0391 571.172 98.3828C572.703 98.7891 574.18 99.3359 575.602 100.023ZM581.109 133V98.6875H590.555V133H581.109ZM633.352 115.914C633.352 118.398 632.906 120.719 632.016 122.875C631.125 124.984 629.797 126.906 628.031 128.641C626.281 130.328 624.281 131.625 622.031 132.531C619.672 133.453 617.336 133.914 615.023 133.914C612.68 133.914 610.344 133.453 608.016 132.531C605.719 131.609 603.734 130.312 602.062 128.641C600.375 127.031 599.047 125.094 598.078 122.828C597.141 120.609 596.672 118.305 596.672 115.914C596.672 113.523 597.141 111.219 598.078 109C599.047 106.734 600.375 104.797 602.062 103.188C603.781 101.469 605.766 100.156 608.016 99.25C610.203 98.3594 612.539 97.9141 615.023 97.9141C617.508 97.9141 619.859 98.3672 622.078 99.2734C624.297 100.164 626.273 101.469 628.008 103.188C629.758 104.906 631.094 106.844 632.016 109C632.906 111.156 633.352 113.461 633.352 115.914ZM615.023 125.992C617.602 125.992 619.758 125.031 621.492 123.109C622.352 122.156 622.984 121.086 623.391 119.898C623.797 118.711 624 117.383 624 115.914C624 113.055 623.148 110.656 621.445 108.719C619.711 106.797 617.57 105.836 615.023 105.836C612.414 105.836 610.266 106.797 608.578 108.719C606.891 110.641 606.047 113.039 606.047 115.914C606.047 118.898 606.875 121.312 608.531 123.156C610.234 125.047 612.398 125.992 615.023 125.992Z" fill="white"/>
<path d="M26 192H14C9.58172 192 6 188.418 6 184V13.5" stroke="white" stroke-width="1.5"/>
<path d="M12.622 7.0784C12.622 10.6144 9.92461 13.4068 6.68598 13.4068C3.44736 13.4068 0.75 10.6144 0.75 7.0784C0.75 3.54244 3.44736 0.75 6.68598 0.75C9.92461 0.75 12.622 3.54244 12.622 7.0784Z" stroke="white" stroke-width="1.5"/>
<rect x="24" y="170" width="347" height="64" rx="16" fill="#002A61"/>
<path d="M42.3711 198V185.133H50.2549V187.954H45.79V190.187H50V192.946H45.79V195.117H50.2549V198H42.3711ZM52.4521 198V184.377H55.5898V198H52.4521ZM63.8516 198V185.133H71.7354V187.954H67.2705V190.187H71.4805V192.946H67.2705V198H63.8516ZM73.3525 198V189.123H76.4814V198H73.3525ZM73.748 186.838H73.7656C73.7656 186.51 73.8799 186.24 74.1084 186.029C74.3369 185.801 74.6123 185.687 74.9346 185.687C75.2744 185.687 75.5527 185.795 75.7695 186.012C75.9922 186.229 76.1035 186.504 76.1035 186.838C76.1035 187.178 75.9893 187.459 75.7607 187.682C75.5381 187.91 75.2627 188.024 74.9346 188.024C74.6006 188.024 74.3193 187.904 74.0908 187.664C73.8623 187.441 73.748 187.166 73.748 186.838ZM79.0479 198V189.123H81.9131V190.925C82.3174 190.222 82.7979 189.694 83.3545 189.343C83.8936 189.009 84.5469 188.842 85.3145 188.842C85.8945 188.842 86.4102 188.93 86.8613 189.105C87.3066 189.305 87.667 189.574 87.9424 189.914C88.1943 190.254 88.3613 190.614 88.4434 190.995C88.543 191.481 88.5928 192.123 88.5928 192.92V198H85.4551V193.245C85.4551 192.524 85.3408 192.009 85.1123 191.698C84.8838 191.376 84.5117 191.215 83.9961 191.215C83.3516 191.215 82.877 191.455 82.5723 191.936C82.2734 192.416 82.124 193.195 82.124 194.273V198H79.0479ZM97.5752 193.553C97.5752 192.85 97.3906 192.305 97.0215 191.918C96.6465 191.508 96.1426 191.303 95.5098 191.303C94.877 191.303 94.3789 191.502 94.0156 191.9C93.6406 192.311 93.4531 192.861 93.4531 193.553C93.4531 194.25 93.6406 194.798 94.0156 195.196C94.373 195.589 94.8711 195.785 95.5098 195.785C96.1426 195.785 96.6436 195.589 97.0127 195.196C97.3877 194.804 97.5752 194.256 97.5752 193.553ZM100.326 189.123V198H97.4521V196.559C97.0361 197.174 96.5703 197.625 96.0547 197.912C95.5449 198.199 94.9473 198.343 94.2617 198.343C93.0723 198.343 92.126 197.909 91.4229 197.042C91.0771 196.614 90.8135 196.11 90.6318 195.53C90.4502 194.95 90.3594 194.297 90.3594 193.57C90.3594 192.117 90.7314 190.966 91.4756 190.116C92.2197 189.267 93.2158 188.842 94.4639 188.842C95.1318 188.842 95.7061 188.985 96.1865 189.272C96.6729 189.548 97.0889 189.984 97.4346 190.582V189.123H100.326ZM102.69 198V189.123H105.556V190.925C105.96 190.222 106.44 189.694 106.997 189.343C107.536 189.009 108.189 188.842 108.957 188.842C109.537 188.842 110.053 188.93 110.504 189.105C110.949 189.305 111.31 189.574 111.585 189.914C111.837 190.254 112.004 190.614 112.086 190.995C112.186 191.481 112.235 192.123 112.235 192.92V198H109.098V193.245C109.098 192.524 108.983 192.009 108.755 191.698C108.526 191.376 108.154 191.215 107.639 191.215C106.994 191.215 106.52 191.455 106.215 191.936C105.916 192.416 105.767 193.195 105.767 194.273V198H102.69ZM120.822 192.041C120.518 191.771 120.225 191.575 119.943 191.452C119.691 191.329 119.396 191.268 119.056 191.268C118.429 191.268 117.937 191.473 117.579 191.883C117.21 192.287 117.025 192.844 117.025 193.553C117.025 194.232 117.216 194.771 117.597 195.17C117.966 195.58 118.479 195.785 119.135 195.785C119.445 195.785 119.744 195.721 120.031 195.592C120.336 195.445 120.6 195.252 120.822 195.012V197.728C120.447 197.927 120.069 198.085 119.688 198.202C119.284 198.296 118.9 198.343 118.537 198.343C117.166 198.343 116.062 197.903 115.224 197.024C114.937 196.731 114.699 196.409 114.512 196.058C114.33 195.706 114.189 195.325 114.09 194.915C113.996 194.505 113.949 194.057 113.949 193.57C113.949 192.17 114.377 191.033 115.232 190.16C116.094 189.281 117.207 188.842 118.572 188.842C119 188.842 119.407 188.889 119.794 188.982C120.169 189.076 120.512 189.214 120.822 189.396V192.041ZM122.677 198V189.123H125.806V198H122.677ZM123.072 186.838H123.09C123.09 186.51 123.204 186.24 123.433 186.029C123.661 185.801 123.937 185.687 124.259 185.687C124.599 185.687 124.877 185.795 125.094 186.012C125.316 186.229 125.428 186.504 125.428 186.838C125.428 187.178 125.313 187.459 125.085 187.682C124.862 187.91 124.587 188.024 124.259 188.024C123.925 188.024 123.644 187.904 123.415 187.664C123.187 187.441 123.072 187.166 123.072 186.838ZM135.14 193.553C135.14 192.85 134.955 192.305 134.586 191.918C134.211 191.508 133.707 191.303 133.074 191.303C132.441 191.303 131.943 191.502 131.58 191.9C131.205 192.311 131.018 192.861 131.018 193.553C131.018 194.25 131.205 194.798 131.58 195.196C131.938 195.589 132.436 195.785 133.074 195.785C133.707 195.785 134.208 195.589 134.577 195.196C134.952 194.804 135.14 194.256 135.14 193.553ZM137.891 189.123V198H135.017V196.559C134.601 197.174 134.135 197.625 133.619 197.912C133.109 198.199 132.512 198.343 131.826 198.343C130.637 198.343 129.69 197.909 128.987 197.042C128.642 196.614 128.378 196.11 128.196 195.53C128.015 194.95 127.924 194.297 127.924 193.57C127.924 192.117 128.296 190.966 129.04 190.116C129.784 189.267 130.78 188.842 132.028 188.842C132.696 188.842 133.271 188.985 133.751 189.272C134.237 189.548 134.653 189.984 134.999 190.582V189.123H137.891ZM151.988 198V193.157C151.988 192.396 151.9 191.868 151.725 191.575C151.525 191.276 151.194 191.127 150.731 191.127C150.14 191.127 149.732 191.329 149.51 191.733C149.281 192.132 149.167 192.967 149.167 194.238V198H146.144V193.157C146.144 192.366 146.047 191.833 145.854 191.558C145.678 191.271 145.353 191.127 144.878 191.127C144.286 191.127 143.873 191.323 143.639 191.716C143.41 192.114 143.296 192.955 143.296 194.238V198H140.255V189.123H143.331V190.67C143.706 190.049 144.134 189.589 144.614 189.29C145.083 188.991 145.651 188.842 146.319 188.842C147.04 188.842 147.635 188.979 148.104 189.255C148.549 189.536 148.874 189.955 149.079 190.512C149.437 189.932 149.861 189.513 150.354 189.255C150.84 188.979 151.423 188.842 152.103 188.842C152.636 188.842 153.102 188.93 153.5 189.105C153.91 189.299 154.247 189.568 154.511 189.914C154.733 190.189 154.889 190.515 154.977 190.89C155.064 191.235 155.108 191.848 155.108 192.727V192.92V198H151.988ZM157.253 198V189.123H160.382V198H157.253ZM157.648 186.838H157.666C157.666 186.51 157.78 186.24 158.009 186.029C158.237 185.801 158.513 185.687 158.835 185.687C159.175 185.687 159.453 185.795 159.67 186.012C159.893 186.229 160.004 186.504 160.004 186.838C160.004 187.178 159.89 187.459 159.661 187.682C159.438 187.91 159.163 188.024 158.835 188.024C158.501 188.024 158.22 187.904 157.991 187.664C157.763 187.441 157.648 187.166 157.648 186.838ZM169.065 192.419C169.013 191.927 168.822 191.525 168.494 191.215C168.166 190.904 167.765 190.749 167.29 190.749C166.792 190.749 166.388 190.887 166.077 191.162C165.755 191.473 165.553 191.892 165.471 192.419H169.065ZM172.15 194.186H165.4C165.418 194.877 165.591 195.404 165.919 195.768C166.259 196.143 166.751 196.33 167.396 196.33C167.864 196.33 168.266 196.239 168.6 196.058C168.939 195.864 169.186 195.601 169.338 195.267L171.693 196.216C171.418 196.89 170.92 197.411 170.199 197.78C169.484 198.155 168.608 198.343 167.571 198.343C166.024 198.343 164.782 197.909 163.845 197.042C162.913 196.198 162.447 195.07 162.447 193.658C162.447 192.281 162.913 191.13 163.845 190.204C164.776 189.296 165.96 188.842 167.396 188.842C168.86 188.842 170.018 189.302 170.867 190.222C171.301 190.696 171.623 191.25 171.834 191.883C172.045 192.51 172.15 193.228 172.15 194.036V194.186ZM173.952 198V189.123H176.817V190.925C177.222 190.222 177.702 189.694 178.259 189.343C178.798 189.009 179.451 188.842 180.219 188.842C180.799 188.842 181.314 188.93 181.766 189.105C182.211 189.305 182.571 189.574 182.847 189.914C183.099 190.254 183.266 190.614 183.348 190.995C183.447 191.481 183.497 192.123 183.497 192.92V198H180.359V193.245C180.359 192.524 180.245 192.009 180.017 191.698C179.788 191.376 179.416 191.215 178.9 191.215C178.256 191.215 177.781 191.455 177.477 191.936C177.178 192.416 177.028 193.195 177.028 194.273V198H173.952ZM186.213 198L186.195 191.338H184.868V189.123H186.195V186.478H189.298V189.123H190.607V191.338H189.298V198H186.213ZM198.377 193.588C198.377 192.926 198.21 192.404 197.876 192.023C197.53 191.643 197.079 191.452 196.522 191.452C195.948 191.452 195.497 191.643 195.169 192.023C194.835 192.393 194.668 192.914 194.668 193.588C194.668 194.244 194.829 194.76 195.151 195.135C195.503 195.521 195.96 195.715 196.522 195.715C197.085 195.715 197.542 195.521 197.894 195.135C198.216 194.748 198.377 194.232 198.377 193.588ZM201.488 193.588C201.488 194.238 201.362 194.845 201.11 195.407C200.847 196.005 200.486 196.521 200.029 196.954C199.514 197.435 198.98 197.783 198.43 198C197.855 198.229 197.22 198.343 196.522 198.343C195.819 198.343 195.184 198.229 194.615 198C194.035 197.771 193.499 197.426 193.007 196.963C192.521 196.494 192.169 195.976 191.952 195.407C191.7 194.862 191.574 194.256 191.574 193.588C191.574 192.938 191.7 192.325 191.952 191.751C192.187 191.171 192.541 190.655 193.016 190.204C193.479 189.759 194.012 189.416 194.615 189.176C195.189 188.953 195.825 188.842 196.522 188.842C197.214 188.842 197.85 188.953 198.43 189.176C199.033 189.416 199.566 189.759 200.029 190.204C200.516 190.644 200.876 191.159 201.11 191.751C201.362 192.325 201.488 192.938 201.488 193.588ZM215.718 193.588C215.718 192.908 215.539 192.363 215.182 191.953C214.801 191.555 214.297 191.355 213.67 191.355C213.037 191.355 212.539 191.555 212.176 191.953C211.812 192.352 211.631 192.896 211.631 193.588C211.631 194.268 211.812 194.815 212.176 195.231C212.533 195.624 213.031 195.82 213.67 195.82C214.303 195.82 214.807 195.624 215.182 195.231C215.539 194.821 215.718 194.273 215.718 193.588ZM218.495 201.92H215.489V198.141C215.489 197.93 215.501 197.643 215.524 197.279C215.542 196.963 215.565 196.723 215.595 196.559C215.202 197.215 214.78 197.672 214.329 197.93C213.843 198.205 213.233 198.343 212.501 198.343C211.323 198.343 210.368 197.903 209.636 197.024C208.892 196.14 208.52 194.994 208.52 193.588C208.52 192.123 208.892 190.966 209.636 190.116C210.011 189.688 210.444 189.372 210.937 189.167C211.429 188.962 211.985 188.859 212.606 188.859C213.228 188.859 213.778 189.003 214.259 189.29C214.774 189.601 215.226 190.043 215.612 190.617V189.141L218.495 189.123V201.92ZM229.921 189.123V193.658C229.921 194.672 229.845 195.41 229.692 195.873C229.528 196.354 229.253 196.787 228.866 197.174C228.497 197.561 228.011 197.854 227.407 198.053C226.833 198.246 226.142 198.343 225.333 198.343C224.53 198.343 223.848 198.246 223.285 198.053C222.705 197.865 222.207 197.572 221.791 197.174C221.41 196.811 221.141 196.383 220.982 195.891C220.824 195.434 220.745 194.689 220.745 193.658V189.123H223.733V193.86C223.733 194.604 223.859 195.138 224.111 195.46C224.34 195.8 224.735 195.97 225.298 195.97C225.854 195.97 226.253 195.806 226.493 195.478C226.739 195.149 226.862 194.61 226.862 193.86V189.123H229.921ZM238.288 192.419C238.235 191.927 238.045 191.525 237.717 191.215C237.389 190.904 236.987 190.749 236.513 190.749C236.015 190.749 235.61 190.887 235.3 191.162C234.978 191.473 234.775 191.892 234.693 192.419H238.288ZM241.373 194.186H234.623C234.641 194.877 234.813 195.404 235.142 195.768C235.481 196.143 235.974 196.33 236.618 196.33C237.087 196.33 237.488 196.239 237.822 196.058C238.162 195.864 238.408 195.601 238.561 195.267L240.916 196.216C240.641 196.89 240.143 197.411 239.422 197.78C238.707 198.155 237.831 198.343 236.794 198.343C235.247 198.343 234.005 197.909 233.067 197.042C232.136 196.198 231.67 195.07 231.67 193.658C231.67 192.281 232.136 191.13 233.067 190.204C233.999 189.296 235.183 188.842 236.618 188.842C238.083 188.842 239.24 189.302 240.09 190.222C240.523 190.696 240.846 191.25 241.057 191.883C241.268 192.51 241.373 193.228 241.373 194.036V194.186ZM248.817 198V189.123H251.683V190.925C252.087 190.222 252.567 189.694 253.124 189.343C253.663 189.009 254.316 188.842 255.084 188.842C255.664 188.842 256.18 188.93 256.631 189.105C257.076 189.305 257.437 189.574 257.712 189.914C257.964 190.254 258.131 190.614 258.213 190.995C258.312 191.481 258.362 192.123 258.362 192.92V198H255.225V193.245C255.225 192.524 255.11 192.009 254.882 191.698C254.653 191.376 254.281 191.215 253.766 191.215C253.121 191.215 252.646 191.455 252.342 191.936C252.043 192.416 251.894 193.195 251.894 194.273V198H248.817ZM266.694 192.419C266.642 191.927 266.451 191.525 266.123 191.215C265.795 190.904 265.394 190.749 264.919 190.749C264.421 190.749 264.017 190.887 263.706 191.162C263.384 191.473 263.182 191.892 263.1 192.419H266.694ZM269.779 194.186H263.029C263.047 194.877 263.22 195.404 263.548 195.768C263.888 196.143 264.38 196.33 265.024 196.33C265.493 196.33 265.895 196.239 266.229 196.058C266.568 195.864 266.814 195.601 266.967 195.267L269.322 196.216C269.047 196.89 268.549 197.411 267.828 197.78C267.113 198.155 266.237 198.343 265.2 198.343C263.653 198.343 262.411 197.909 261.474 197.042C260.542 196.198 260.076 195.07 260.076 193.658C260.076 192.281 260.542 191.13 261.474 190.204C262.405 189.296 263.589 188.842 265.024 188.842C266.489 188.842 267.646 189.302 268.496 190.222C268.93 190.696 269.252 191.25 269.463 191.883C269.674 192.51 269.779 193.228 269.779 194.036V194.186ZM277.953 192.041C277.648 191.771 277.355 191.575 277.074 191.452C276.822 191.329 276.526 191.268 276.187 191.268C275.56 191.268 275.067 191.473 274.71 191.883C274.341 192.287 274.156 192.844 274.156 193.553C274.156 194.232 274.347 194.771 274.728 195.17C275.097 195.58 275.609 195.785 276.266 195.785C276.576 195.785 276.875 195.721 277.162 195.592C277.467 195.445 277.73 195.252 277.953 195.012V197.728C277.578 197.927 277.2 198.085 276.819 198.202C276.415 198.296 276.031 198.343 275.668 198.343C274.297 198.343 273.192 197.903 272.354 197.024C272.067 196.731 271.83 196.409 271.643 196.058C271.461 195.706 271.32 195.325 271.221 194.915C271.127 194.505 271.08 194.057 271.08 193.57C271.08 192.17 271.508 191.033 272.363 190.16C273.225 189.281 274.338 188.842 275.703 188.842C276.131 188.842 276.538 188.889 276.925 188.982C277.3 189.076 277.643 189.214 277.953 189.396V192.041ZM285.995 192.419C285.942 191.927 285.752 191.525 285.424 191.215C285.096 190.904 284.694 190.749 284.22 190.749C283.722 190.749 283.317 190.887 283.007 191.162C282.685 191.473 282.482 191.892 282.4 192.419H285.995ZM289.08 194.186H282.33C282.348 194.877 282.521 195.404 282.849 195.768C283.188 196.143 283.681 196.33 284.325 196.33C284.794 196.33 285.195 196.239 285.529 196.058C285.869 195.864 286.115 195.601 286.268 195.267L288.623 196.216C288.348 196.89 287.85 197.411 287.129 197.78C286.414 198.155 285.538 198.343 284.501 198.343C282.954 198.343 281.712 197.909 280.774 197.042C279.843 196.198 279.377 195.07 279.377 193.658C279.377 192.281 279.843 191.13 280.774 190.204C281.706 189.296 282.89 188.842 284.325 188.842C285.79 188.842 286.947 189.302 287.797 190.222C288.23 190.696 288.553 191.25 288.764 191.883C288.975 192.51 289.08 193.228 289.08 194.036V194.186ZM290.056 197.262L290.706 194.871C291.163 195.275 291.667 195.58 292.218 195.785C292.763 196.002 293.313 196.11 293.87 196.11C294.269 196.11 294.567 196.043 294.767 195.908C294.972 195.785 295.074 195.606 295.074 195.372C295.074 194.979 294.661 194.687 293.835 194.493C293.548 194.429 293.331 194.373 293.185 194.326C292.229 194.045 291.553 193.702 291.154 193.298C290.721 192.882 290.504 192.343 290.504 191.681C290.504 190.825 290.829 190.137 291.479 189.615C292.106 189.1 292.982 188.842 294.107 188.842C294.652 188.842 295.232 188.906 295.848 189.035C296.363 189.141 296.964 189.346 297.649 189.65L296.999 191.804C296.577 191.517 296.152 191.303 295.725 191.162C295.32 191.016 294.896 190.942 294.45 190.942C294.087 190.942 293.814 190.998 293.633 191.109C293.457 191.215 293.369 191.376 293.369 191.593C293.369 191.897 293.782 192.161 294.608 192.384C294.878 192.466 295.016 192.507 295.021 192.507C296.1 192.812 296.855 193.172 297.289 193.588C297.711 194.027 297.922 194.599 297.922 195.302C297.922 196.21 297.573 196.942 296.876 197.499C296.161 198.062 295.238 198.343 294.107 198.343C293.322 198.343 292.599 198.252 291.937 198.07C291.28 197.895 290.653 197.625 290.056 197.262ZM299.53 198V189.123H302.659V198H299.53ZM299.926 186.838H299.943C299.943 186.51 300.058 186.24 300.286 186.029C300.515 185.801 300.79 185.687 301.112 185.687C301.452 185.687 301.73 185.795 301.947 186.012C302.17 186.229 302.281 186.504 302.281 186.838C302.281 187.178 302.167 187.459 301.938 187.682C301.716 187.91 301.44 188.024 301.112 188.024C300.778 188.024 300.497 187.904 300.269 187.664C300.04 187.441 299.926 187.166 299.926 186.838ZM305.727 198L305.709 191.338H304.382V189.123H305.709V186.478H308.812V189.123H310.121V191.338H308.812V198H305.727ZM318.356 193.553C318.356 192.85 318.172 192.305 317.803 191.918C317.428 191.508 316.924 191.303 316.291 191.303C315.658 191.303 315.16 191.502 314.797 191.9C314.422 192.311 314.234 192.861 314.234 193.553C314.234 194.25 314.422 194.798 314.797 195.196C315.154 195.589 315.652 195.785 316.291 195.785C316.924 195.785 317.425 195.589 317.794 195.196C318.169 194.804 318.356 194.256 318.356 193.553ZM321.107 189.123V198H318.233V196.559C317.817 197.174 317.352 197.625 316.836 197.912C316.326 198.199 315.729 198.343 315.043 198.343C313.854 198.343 312.907 197.909 312.204 197.042C311.858 196.614 311.595 196.11 311.413 195.53C311.231 194.95 311.141 194.297 311.141 193.57C311.141 192.117 311.513 190.966 312.257 190.116C313.001 189.267 313.997 188.842 315.245 188.842C315.913 188.842 316.487 188.985 316.968 189.272C317.454 189.548 317.87 189.984 318.216 190.582V189.123H321.107ZM322.646 197.262L323.296 194.871C323.753 195.275 324.257 195.58 324.808 195.785C325.353 196.002 325.903 196.11 326.46 196.11C326.858 196.11 327.157 196.043 327.356 195.908C327.562 195.785 327.664 195.606 327.664 195.372C327.664 194.979 327.251 194.687 326.425 194.493C326.138 194.429 325.921 194.373 325.774 194.326C324.819 194.045 324.143 193.702 323.744 193.298C323.311 192.882 323.094 192.343 323.094 191.681C323.094 190.825 323.419 190.137 324.069 189.615C324.696 189.1 325.572 188.842 326.697 188.842C327.242 188.842 327.822 188.906 328.438 189.035C328.953 189.141 329.554 189.346 330.239 189.65L329.589 191.804C329.167 191.517 328.742 191.303 328.314 191.162C327.91 191.016 327.485 190.942 327.04 190.942C326.677 190.942 326.404 190.998 326.223 191.109C326.047 191.215 325.959 191.376 325.959 191.593C325.959 191.897 326.372 192.161 327.198 192.384C327.468 192.466 327.605 192.507 327.611 192.507C328.689 192.812 329.445 193.172 329.879 193.588C330.301 194.027 330.512 194.599 330.512 195.302C330.512 196.21 330.163 196.942 329.466 197.499C328.751 198.062 327.828 198.343 326.697 198.343C325.912 198.343 325.188 198.252 324.526 198.07C323.87 197.895 323.243 197.625 322.646 197.262ZM44.9463 213.588C44.9463 214.279 45.1309 214.827 45.5 215.231C45.8398 215.624 46.332 215.82 46.9766 215.82C47.6152 215.82 48.1133 215.624 48.4707 215.231C48.8281 214.821 49.0068 214.273 49.0068 213.588C49.0068 212.891 48.8281 212.346 48.4707 211.953C48.1074 211.555 47.6094 211.355 46.9766 211.355C46.3379 211.355 45.8457 211.555 45.5 211.953C45.1309 212.34 44.9463 212.885 44.9463 213.588ZM42.1689 221.92V209.141H45.0518V210.617C45.4326 210.049 45.8809 209.606 46.3965 209.29C46.8828 209.003 47.4365 208.859 48.0576 208.859C48.6846 208.859 49.2471 208.965 49.7451 209.176C50.2432 209.381 50.6768 209.694 51.0459 210.116C51.7783 210.954 52.1445 212.111 52.1445 213.588C52.1445 215.006 51.7783 216.151 51.0459 217.024C50.6709 217.47 50.2461 217.801 49.7715 218.018C49.3027 218.234 48.7666 218.343 48.1631 218.343C47.4072 218.343 46.7949 218.205 46.3262 217.93C45.875 217.666 45.4561 217.209 45.0693 216.559C45.0986 216.699 45.1221 216.916 45.1396 217.209C45.1514 217.379 45.1572 217.689 45.1572 218.141V221.92H42.1689ZM60.8018 213.553C60.8018 212.85 60.6172 212.305 60.248 211.918C59.873 211.508 59.3691 211.303 58.7363 211.303C58.1035 211.303 57.6055 211.502 57.2422 211.9C56.8672 212.311 56.6797 212.861 56.6797 213.553C56.6797 214.25 56.8672 214.798 57.2422 215.196C57.5996 215.589 58.0977 215.785 58.7363 215.785C59.3691 215.785 59.8701 215.589 60.2393 215.196C60.6143 214.804 60.8018 214.256 60.8018 213.553ZM63.5527 209.123V218H60.6787V216.559C60.2627 217.174 59.7969 217.625 59.2812 217.912C58.7715 218.199 58.1738 218.343 57.4883 218.343C56.2988 218.343 55.3525 217.909 54.6494 217.042C54.3037 216.614 54.04 216.11 53.8584 215.53C53.6768 214.95 53.5859 214.297 53.5859 213.57C53.5859 212.117 53.958 210.966 54.7021 210.116C55.4463 209.267 56.4424 208.842 57.6904 208.842C58.3584 208.842 58.9326 208.985 59.4131 209.272C59.8994 209.548 60.3154 209.984 60.6611 210.582V209.123H63.5527ZM65.9346 218V209.123H68.8877V211.215C69.1982 210.447 69.6113 209.876 70.127 209.501C70.6602 209.12 71.3018 208.93 72.0518 208.93C72.2217 208.93 72.3477 208.936 72.4297 208.947C72.4941 208.953 72.5527 208.959 72.6055 208.965C72.6582 208.965 72.7256 208.971 72.8076 208.982L72.5088 211.83C72.292 211.76 72.1045 211.71 71.9463 211.681C71.7119 211.657 71.5391 211.646 71.4277 211.646C70.666 211.646 70.0771 211.88 69.6611 212.349C69.251 212.812 69.0459 213.471 69.0459 214.326V218H65.9346ZM80.7354 213.553C80.7354 212.85 80.5508 212.305 80.1816 211.918C79.8066 211.508 79.3027 211.303 78.6699 211.303C78.0371 211.303 77.5391 211.502 77.1758 211.9C76.8008 212.311 76.6133 212.861 76.6133 213.553C76.6133 214.25 76.8008 214.798 77.1758 215.196C77.5332 215.589 78.0312 215.785 78.6699 215.785C79.3027 215.785 79.8037 215.589 80.1729 215.196C80.5479 214.804 80.7354 214.256 80.7354 213.553ZM83.4863 209.123V218H80.6123V216.559C80.1963 217.174 79.7305 217.625 79.2148 217.912C78.7051 218.199 78.1074 218.343 77.4219 218.343C76.2324 218.343 75.2861 217.909 74.583 217.042C74.2373 216.614 73.9736 216.11 73.792 215.53C73.6104 214.95 73.5195 214.297 73.5195 213.57C73.5195 212.117 73.8916 210.966 74.6357 210.116C75.3799 209.267 76.376 208.842 77.624 208.842C78.292 208.842 78.8662 208.985 79.3467 209.272C79.833 209.548 80.249 209.984 80.5947 210.582V209.123H83.4863ZM98.2783 213.57C98.2783 212.873 98.0996 212.328 97.7422 211.936C97.3613 211.537 96.8574 211.338 96.2305 211.338C95.5977 211.338 95.0996 211.537 94.7363 211.936C94.373 212.334 94.1914 212.879 94.1914 213.57C94.1914 214.268 94.373 214.815 94.7363 215.214C95.0938 215.606 95.5918 215.803 96.2305 215.803C96.8633 215.803 97.3672 215.606 97.7422 215.214C98.0996 214.821 98.2783 214.273 98.2783 213.57ZM101.056 204.377V218H98.1729V216.559C97.7744 217.162 97.3232 217.607 96.8193 217.895C96.3506 218.193 95.7998 218.343 95.167 218.343C93.9248 218.343 92.9316 217.909 92.1875 217.042C91.4492 216.175 91.0801 215.018 91.0801 213.57C91.0801 212.164 91.4521 211.019 92.1963 210.134C92.9346 209.272 93.8896 208.842 95.0615 208.842C95.8115 208.842 96.4209 208.979 96.8896 209.255C97.3408 209.507 97.7627 209.955 98.1553 210.6C98.1318 210.441 98.1084 210.201 98.085 209.879C98.0615 209.527 98.0498 209.24 98.0498 209.018V204.377H101.056ZM110.144 213.553C110.144 212.85 109.959 212.305 109.59 211.918C109.215 211.508 108.711 211.303 108.078 211.303C107.445 211.303 106.947 211.502 106.584 211.9C106.209 212.311 106.021 212.861 106.021 213.553C106.021 214.25 106.209 214.798 106.584 215.196C106.941 215.589 107.439 215.785 108.078 215.785C108.711 215.785 109.212 215.589 109.581 215.196C109.956 214.804 110.144 214.256 110.144 213.553ZM112.895 209.123V218H110.021V216.559C109.604 217.174 109.139 217.625 108.623 217.912C108.113 218.199 107.516 218.343 106.83 218.343C105.641 218.343 104.694 217.909 103.991 217.042C103.646 216.614 103.382 216.11 103.2 215.53C103.019 214.95 102.928 214.297 102.928 213.57C102.928 212.117 103.3 210.966 104.044 210.116C104.788 209.267 105.784 208.842 107.032 208.842C107.7 208.842 108.274 208.985 108.755 209.272C109.241 209.548 109.657 209.984 110.003 210.582V209.123H112.895ZM115.276 218V209.123H118.229V211.215C118.54 210.447 118.953 209.876 119.469 209.501C120.002 209.12 120.644 208.93 121.394 208.93C121.563 208.93 121.689 208.936 121.771 208.947C121.836 208.953 121.895 208.959 121.947 208.965C122 208.965 122.067 208.971 122.149 208.982L121.851 211.83C121.634 211.76 121.446 211.71 121.288 211.681C121.054 211.657 120.881 211.646 120.77 211.646C120.008 211.646 119.419 211.88 119.003 212.349C118.593 212.812 118.388 213.471 118.388 214.326V218H115.276ZM123.397 218V204.377H126.535V218H123.397ZM135.052 212.419C134.999 211.927 134.809 211.525 134.48 211.215C134.152 210.904 133.751 210.749 133.276 210.749C132.778 210.749 132.374 210.887 132.063 211.162C131.741 211.473 131.539 211.892 131.457 212.419H135.052ZM138.137 214.186H131.387C131.404 214.877 131.577 215.404 131.905 215.768C132.245 216.143 132.737 216.33 133.382 216.33C133.851 216.33 134.252 216.239 134.586 216.058C134.926 215.864 135.172 215.601 135.324 215.267L137.68 216.216C137.404 216.89 136.906 217.411 136.186 217.78C135.471 218.155 134.595 218.343 133.558 218.343C132.011 218.343 130.769 217.909 129.831 217.042C128.899 216.198 128.434 215.07 128.434 213.658C128.434 212.281 128.899 211.13 129.831 210.204C130.763 209.296 131.946 208.842 133.382 208.842C134.847 208.842 136.004 209.302 136.854 210.222C137.287 210.696 137.609 211.25 137.82 211.883C138.031 212.51 138.137 213.228 138.137 214.036V214.186ZM148.262 218L144.271 209.123H147.611L149.132 213.052C149.144 213.075 149.161 213.122 149.185 213.192C149.343 213.626 149.463 214.039 149.545 214.432C149.604 214.115 149.718 213.731 149.888 213.28C149.911 213.233 149.94 213.157 149.976 213.052L151.487 209.123H154.748L150.714 218H148.262ZM155.671 218V209.123H158.8V218H155.671ZM156.066 206.838H156.084C156.084 206.51 156.198 206.24 156.427 206.029C156.655 205.801 156.931 205.687 157.253 205.687C157.593 205.687 157.871 205.795 158.088 206.012C158.311 206.229 158.422 206.504 158.422 206.838C158.422 207.178 158.308 207.459 158.079 207.682C157.856 207.91 157.581 208.024 157.253 208.024C156.919 208.024 156.638 207.904 156.409 207.664C156.181 207.441 156.066 207.166 156.066 206.838ZM168.151 213.57C168.151 212.873 167.973 212.328 167.615 211.936C167.234 211.537 166.73 211.338 166.104 211.338C165.471 211.338 164.973 211.537 164.609 211.936C164.246 212.334 164.064 212.879 164.064 213.57C164.064 214.268 164.246 214.815 164.609 215.214C164.967 215.606 165.465 215.803 166.104 215.803C166.736 215.803 167.24 215.606 167.615 215.214C167.973 214.821 168.151 214.273 168.151 213.57ZM170.929 204.377V218H168.046V216.559C167.647 217.162 167.196 217.607 166.692 217.895C166.224 218.193 165.673 218.343 165.04 218.343C163.798 218.343 162.805 217.909 162.061 217.042C161.322 216.175 160.953 215.018 160.953 213.57C160.953 212.164 161.325 211.019 162.069 210.134C162.808 209.272 163.763 208.842 164.935 208.842C165.685 208.842 166.294 208.979 166.763 209.255C167.214 209.507 167.636 209.955 168.028 210.6C168.005 210.441 167.981 210.201 167.958 209.879C167.935 209.527 167.923 209.24 167.923 209.018V204.377H170.929ZM180.017 213.553C180.017 212.85 179.832 212.305 179.463 211.918C179.088 211.508 178.584 211.303 177.951 211.303C177.318 211.303 176.82 211.502 176.457 211.9C176.082 212.311 175.895 212.861 175.895 213.553C175.895 214.25 176.082 214.798 176.457 215.196C176.814 215.589 177.312 215.785 177.951 215.785C178.584 215.785 179.085 215.589 179.454 215.196C179.829 214.804 180.017 214.256 180.017 213.553ZM182.768 209.123V218H179.894V216.559C179.478 217.174 179.012 217.625 178.496 217.912C177.986 218.199 177.389 218.343 176.703 218.343C175.514 218.343 174.567 217.909 173.864 217.042C173.519 216.614 173.255 216.11 173.073 215.53C172.892 214.95 172.801 214.297 172.801 213.57C172.801 212.117 173.173 210.966 173.917 210.116C174.661 209.267 175.657 208.842 176.905 208.842C177.573 208.842 178.147 208.985 178.628 209.272C179.114 209.548 179.53 209.984 179.876 210.582V209.123H182.768ZM197.542 213.553C197.542 212.85 197.357 212.305 196.988 211.918C196.613 211.508 196.109 211.303 195.477 211.303C194.844 211.303 194.346 211.502 193.982 211.9C193.607 212.311 193.42 212.861 193.42 213.553C193.42 214.25 193.607 214.798 193.982 215.196C194.34 215.589 194.838 215.785 195.477 215.785C196.109 215.785 196.61 215.589 196.979 215.196C197.354 214.804 197.542 214.256 197.542 213.553ZM200.293 209.123V218H197.419V216.559C197.003 217.174 196.537 217.625 196.021 217.912C195.512 218.199 194.914 218.343 194.229 218.343C193.039 218.343 192.093 217.909 191.39 217.042C191.044 216.614 190.78 216.11 190.599 215.53C190.417 214.95 190.326 214.297 190.326 213.57C190.326 212.117 190.698 210.966 191.442 210.116C192.187 209.267 193.183 208.842 194.431 208.842C195.099 208.842 195.673 208.985 196.153 209.272C196.64 209.548 197.056 209.984 197.401 210.582V209.123H200.293ZM208.801 218L208.783 211.338H207.456V209.123H208.783V206.478H211.886V209.123H213.195V211.338H211.886V218H208.801ZM223.769 209.123V213.658C223.769 214.672 223.692 215.41 223.54 215.873C223.376 216.354 223.101 216.787 222.714 217.174C222.345 217.561 221.858 217.854 221.255 218.053C220.681 218.246 219.989 218.343 219.181 218.343C218.378 218.343 217.695 218.246 217.133 218.053C216.553 217.865 216.055 217.572 215.639 217.174C215.258 216.811 214.988 216.383 214.83 215.891C214.672 215.434 214.593 214.689 214.593 213.658V209.123H217.581V213.86C217.581 214.604 217.707 215.138 217.959 215.46C218.188 215.8 218.583 215.97 219.146 215.97C219.702 215.97 220.101 215.806 220.341 215.478C220.587 215.149 220.71 214.61 220.71 213.86V209.123H223.769ZM225.192 217.262L225.843 214.871C226.3 215.275 226.804 215.58 227.354 215.785C227.899 216.002 228.45 216.11 229.007 216.11C229.405 216.11 229.704 216.043 229.903 215.908C230.108 215.785 230.211 215.606 230.211 215.372C230.211 214.979 229.798 214.687 228.972 214.493C228.685 214.429 228.468 214.373 228.321 214.326C227.366 214.045 226.689 213.702 226.291 213.298C225.857 212.882 225.641 212.343 225.641 211.681C225.641 210.825 225.966 210.137 226.616 209.615C227.243 209.1 228.119 208.842 229.244 208.842C229.789 208.842 230.369 208.906 230.984 209.035C231.5 209.141 232.101 209.346 232.786 209.65L232.136 211.804C231.714 211.517 231.289 211.303 230.861 211.162C230.457 211.016 230.032 210.942 229.587 210.942C229.224 210.942 228.951 210.998 228.77 211.109C228.594 211.215 228.506 211.376 228.506 211.593C228.506 211.897 228.919 212.161 229.745 212.384C230.015 212.466 230.152 212.507 230.158 212.507C231.236 212.812 231.992 213.172 232.426 213.588C232.848 214.027 233.059 214.599 233.059 215.302C233.059 216.21 232.71 216.942 232.013 217.499C231.298 218.062 230.375 218.343 229.244 218.343C228.459 218.343 227.735 218.252 227.073 218.07C226.417 217.895 225.79 217.625 225.192 217.262ZM243.175 213.588C243.175 214.279 243.359 214.827 243.729 215.231C244.068 215.624 244.561 215.82 245.205 215.82C245.844 215.82 246.342 215.624 246.699 215.231C247.057 214.821 247.235 214.273 247.235 213.588C247.235 212.891 247.057 212.346 246.699 211.953C246.336 211.555 245.838 211.355 245.205 211.355C244.566 211.355 244.074 211.555 243.729 211.953C243.359 212.34 243.175 212.885 243.175 213.588ZM240.397 221.92V209.141H243.28V210.617C243.661 210.049 244.109 209.606 244.625 209.29C245.111 209.003 245.665 208.859 246.286 208.859C246.913 208.859 247.476 208.965 247.974 209.176C248.472 209.381 248.905 209.694 249.274 210.116C250.007 210.954 250.373 212.111 250.373 213.588C250.373 215.006 250.007 216.151 249.274 217.024C248.899 217.47 248.475 217.801 248 218.018C247.531 218.234 246.995 218.343 246.392 218.343C245.636 218.343 245.023 218.205 244.555 217.93C244.104 217.666 243.685 217.209 243.298 216.559C243.327 216.699 243.351 216.916 243.368 217.209C243.38 217.379 243.386 217.689 243.386 218.141V221.92H240.397ZM252.28 218V209.123H255.233V211.215C255.544 210.447 255.957 209.876 256.473 209.501C257.006 209.12 257.647 208.93 258.397 208.93C258.567 208.93 258.693 208.936 258.775 208.947C258.84 208.953 258.898 208.959 258.951 208.965C259.004 208.965 259.071 208.971 259.153 208.982L258.854 211.83C258.638 211.76 258.45 211.71 258.292 211.681C258.058 211.657 257.885 211.646 257.773 211.646C257.012 211.646 256.423 211.88 256.007 212.349C255.597 212.812 255.392 213.471 255.392 214.326V218H252.28ZM266.615 213.588C266.615 212.926 266.448 212.404 266.114 212.023C265.769 211.643 265.317 211.452 264.761 211.452C264.187 211.452 263.735 211.643 263.407 212.023C263.073 212.393 262.906 212.914 262.906 213.588C262.906 214.244 263.067 214.76 263.39 215.135C263.741 215.521 264.198 215.715 264.761 215.715C265.323 215.715 265.78 215.521 266.132 215.135C266.454 214.748 266.615 214.232 266.615 213.588ZM269.727 213.588C269.727 214.238 269.601 214.845 269.349 215.407C269.085 216.005 268.725 216.521 268.268 216.954C267.752 217.435 267.219 217.783 266.668 218C266.094 218.229 265.458 218.343 264.761 218.343C264.058 218.343 263.422 218.229 262.854 218C262.273 217.771 261.737 217.426 261.245 216.963C260.759 216.494 260.407 215.976 260.19 215.407C259.938 214.862 259.812 214.256 259.812 213.588C259.812 212.938 259.938 212.325 260.19 211.751C260.425 211.171 260.779 210.655 261.254 210.204C261.717 209.759 262.25 209.416 262.854 209.176C263.428 208.953 264.063 208.842 264.761 208.842C265.452 208.842 266.088 208.953 266.668 209.176C267.271 209.416 267.805 209.759 268.268 210.204C268.754 210.644 269.114 211.159 269.349 211.751C269.601 212.325 269.727 212.938 269.727 213.588ZM271.045 221.92L273.541 216.646L269.964 209.123H273.436L274.675 212.331C274.798 212.624 274.883 212.876 274.93 213.087C274.994 213.304 275.05 213.521 275.097 213.737C275.132 213.526 275.185 213.304 275.255 213.069C275.302 212.864 275.387 212.618 275.51 212.331L276.767 209.123H280.115L274.534 221.92H271.045ZM287.226 212.419C287.173 211.927 286.982 211.525 286.654 211.215C286.326 210.904 285.925 210.749 285.45 210.749C284.952 210.749 284.548 210.887 284.237 211.162C283.915 211.473 283.713 211.892 283.631 212.419H287.226ZM290.311 214.186H283.561C283.578 214.877 283.751 215.404 284.079 215.768C284.419 216.143 284.911 216.33 285.556 216.33C286.024 216.33 286.426 216.239 286.76 216.058C287.1 215.864 287.346 215.601 287.498 215.267L289.854 216.216C289.578 216.89 289.08 217.411 288.359 217.78C287.645 218.155 286.769 218.343 285.731 218.343C284.185 218.343 282.942 217.909 282.005 217.042C281.073 216.198 280.607 215.07 280.607 213.658C280.607 212.281 281.073 211.13 282.005 210.204C282.937 209.296 284.12 208.842 285.556 208.842C287.021 208.842 288.178 209.302 289.027 210.222C289.461 210.696 289.783 211.25 289.994 211.883C290.205 212.51 290.311 213.228 290.311 214.036V214.186ZM298.484 212.041C298.18 211.771 297.887 211.575 297.605 211.452C297.354 211.329 297.058 211.268 296.718 211.268C296.091 211.268 295.599 211.473 295.241 211.883C294.872 212.287 294.688 212.844 294.688 213.553C294.688 214.232 294.878 214.771 295.259 215.17C295.628 215.58 296.141 215.785 296.797 215.785C297.107 215.785 297.406 215.721 297.693 215.592C297.998 215.445 298.262 215.252 298.484 215.012V217.728C298.109 217.927 297.731 218.085 297.351 218.202C296.946 218.296 296.562 218.343 296.199 218.343C294.828 218.343 293.724 217.903 292.886 217.024C292.599 216.731 292.361 216.409 292.174 216.058C291.992 215.706 291.852 215.325 291.752 214.915C291.658 214.505 291.611 214.057 291.611 213.57C291.611 212.17 292.039 211.033 292.895 210.16C293.756 209.281 294.869 208.842 296.234 208.842C296.662 208.842 297.069 208.889 297.456 208.982C297.831 209.076 298.174 209.214 298.484 209.396V212.041ZM300.91 218L300.893 211.338H299.565V209.123H300.893V206.478H303.995V209.123H305.305V211.338H303.995V218H300.91ZM313.074 213.588C313.074 212.926 312.907 212.404 312.573 212.023C312.228 211.643 311.776 211.452 311.22 211.452C310.646 211.452 310.194 211.643 309.866 212.023C309.532 212.393 309.365 212.914 309.365 213.588C309.365 214.244 309.526 214.76 309.849 215.135C310.2 215.521 310.657 215.715 311.22 215.715C311.782 215.715 312.239 215.521 312.591 215.135C312.913 214.748 313.074 214.232 313.074 213.588ZM316.186 213.588C316.186 214.238 316.06 214.845 315.808 215.407C315.544 216.005 315.184 216.521 314.727 216.954C314.211 217.435 313.678 217.783 313.127 218C312.553 218.229 311.917 218.343 311.22 218.343C310.517 218.343 309.881 218.229 309.312 218C308.732 217.771 308.196 217.426 307.704 216.963C307.218 216.494 306.866 215.976 306.649 215.407C306.397 214.862 306.271 214.256 306.271 213.588C306.271 212.938 306.397 212.325 306.649 211.751C306.884 211.171 307.238 210.655 307.713 210.204C308.176 209.759 308.709 209.416 309.312 209.176C309.887 208.953 310.522 208.842 311.22 208.842C311.911 208.842 312.547 208.953 313.127 209.176C313.73 209.416 314.264 209.759 314.727 210.204C315.213 210.644 315.573 211.159 315.808 211.751C316.06 212.325 316.186 212.938 316.186 213.588ZM317.161 217.262L317.812 214.871C318.269 215.275 318.772 215.58 319.323 215.785C319.868 216.002 320.419 216.11 320.976 216.11C321.374 216.11 321.673 216.043 321.872 215.908C322.077 215.785 322.18 215.606 322.18 215.372C322.18 214.979 321.767 214.687 320.94 214.493C320.653 214.429 320.437 214.373 320.29 214.326C319.335 214.045 318.658 213.702 318.26 213.298C317.826 212.882 317.609 212.343 317.609 211.681C317.609 210.825 317.935 210.137 318.585 209.615C319.212 209.1 320.088 208.842 321.213 208.842C321.758 208.842 322.338 208.906 322.953 209.035C323.469 209.141 324.069 209.346 324.755 209.65L324.104 211.804C323.683 211.517 323.258 211.303 322.83 211.162C322.426 211.016 322.001 210.942 321.556 210.942C321.192 210.942 320.92 210.998 320.738 211.109C320.562 211.215 320.475 211.376 320.475 211.593C320.475 211.897 320.888 212.161 321.714 212.384C321.983 212.466 322.121 212.507 322.127 212.507C323.205 212.812 323.961 213.172 324.395 213.588C324.816 214.027 325.027 214.599 325.027 215.302C325.027 216.21 324.679 216.942 323.981 217.499C323.267 218.062 322.344 218.343 321.213 218.343C320.428 218.343 319.704 218.252 319.042 218.07C318.386 217.895 317.759 217.625 317.161 217.262Z" fill="white"/>
</svg>
