<svg width="40" height="33" viewBox="0 0 40 33" fill="none" xmlns="http://www.w3.org/2000/svg">
<path d="M30.7119 14.3438L30.6455 14.4861H30.8025H36.9481C38.5233 14.4861 39.8163 15.7791 39.8163 17.3544C39.8163 18.1232 39.5332 18.7716 39.1674 19.2593L39.1176 19.3257L39.1737 19.3868C39.6168 19.8702 39.9 20.5569 39.9 21.2842C39.9 22.2934 39.3754 23.1825 38.5658 23.7087L38.485 23.7613L38.5346 23.844C38.7747 24.2443 38.8966 24.7276 38.8966 25.2558C38.8966 26.265 38.372 27.1542 37.5625 27.6804L37.4816 27.733L37.5312 27.8157C37.7714 28.2159 37.8932 28.6992 37.8932 29.2275C37.8932 30.8027 36.6002 32.0957 35.025 32.0957H28.2523C25.5869 32.0957 23.1294 31.721 20.4615 30.9707L20.3789 30.9475L20.3434 31.0256C19.9409 31.9111 19.014 32.5556 17.9678 32.5556H13.6617C12.2537 32.5556 11.0861 31.388 11.0861 29.98V21.8695V21.6857L10.9318 21.7855C10.2228 22.2442 9.76633 22.493 9.68716 22.5326C9.52757 22.6124 9.41798 22.6474 9.27201 22.6474C9.11962 22.6474 8.97294 22.609 8.86761 22.5388L8.86804 22.5381L8.85686 22.5326C8.69458 22.4514 6.55062 21.3277 4.44885 19.3664C2.34538 17.4035 0.299951 14.6167 0.299951 11.2088V5.43943C0.299951 4.98867 0.637427 4.61493 1.0862 4.57753L1.0862 4.57756L1.08828 4.57734C3.90834 4.28271 5.73454 3.32421 6.86784 2.41863C7.43407 1.96618 7.82633 1.52774 8.08277 1.19357C8.21099 1.02648 8.3052 0.885541 8.37016 0.782087C8.40264 0.730359 8.42774 0.688117 8.44599 0.656904L8.46801 0.619074L8.47474 0.607654C8.47641 0.604869 8.47715 0.603711 8.47726 0.603537L8.47727 0.603516L8.47792 0.603948L8.48351 0.592767C8.63829 0.283217 8.93877 0.0681468 9.26097 0.103947L9.2609 0.104559H9.27201C9.61009 0.104559 9.91009 0.291922 10.0605 0.592767C10.1547 0.78108 11.8103 3.98752 17.4557 4.57734L17.4557 4.57736L17.4578 4.57753C17.9066 4.61493 18.2441 4.98867 18.2441 5.43943V11.167C18.2441 11.9544 18.1612 12.697 17.9555 13.3963L17.9194 13.5189L18.0471 13.5244C18.9716 13.5646 19.7373 14.087 20.1819 14.8145L20.2361 14.9032L20.3227 14.8455C20.4498 14.7608 20.5662 14.6761 20.6807 14.5928L20.6814 14.5924C20.7965 14.5086 20.9099 14.4262 21.0334 14.3439L21.0336 14.3442L21.0404 14.3387C22.9401 12.8189 24.3725 10.542 25.0463 7.93117C25.0463 7.93112 25.0463 7.93107 25.0464 7.93102L25.4221 6.51137C25.4222 6.51118 25.4223 6.51099 25.4223 6.5108C25.624 5.78519 26.1487 5.14058 26.8316 4.8192C27.5145 4.49785 28.32 4.49679 29.0473 4.8199C30.9379 5.68317 31.9567 7.19643 31.9567 9.11843C31.9567 11.1888 31.2937 13.097 30.7119 14.3438ZM9.22121 20.7432L9.27201 20.7732L9.32281 20.7432C10.1415 20.2604 11.9374 19.1159 13.5245 17.4762C15.1101 15.8381 16.5002 13.6923 16.4792 11.2084V6.27557V6.19041L16.3951 6.17684C12.5329 5.55392 10.4211 3.81157 9.34758 2.57289L9.27052 2.48397L9.19519 2.57436C8.16411 3.81166 6.01144 5.59539 2.14998 6.17668L2.06487 6.1895V6.27557V11.2088C2.06487 13.6923 3.4546 15.8378 5.03505 17.476C6.61692 19.1157 8.40232 20.2603 9.22121 20.7432ZM12.8475 20.4112L12.8092 20.4412V20.4899V30.0218C12.8092 30.4951 13.1884 30.8743 13.6617 30.8743H17.926C18.3655 30.8743 18.7238 30.5474 18.7728 30.1218H18.8203V30.0218V16.142C18.8203 15.6687 18.4411 15.2894 17.9678 15.2894H17.2571H17.1958L17.168 15.344C16.0896 17.4593 14.387 19.2045 12.8475 20.4112ZM20.5434 29.102V29.1783L20.617 29.1985C23.216 29.9111 25.6079 30.289 28.2105 30.289H35.025C35.6237 30.289 36.1283 29.7844 36.1283 29.1857C36.1283 28.5869 35.6237 28.0823 35.025 28.0823H34.0634C33.5751 28.0823 33.2018 27.709 33.2018 27.2207C33.2018 26.7325 33.5751 26.3592 34.0634 26.3592H36.0283C36.627 26.3592 37.1317 25.8545 37.1317 25.2558C37.1317 24.6571 36.627 24.1525 36.0283 24.1525H34.7741C34.2859 24.1525 33.9126 23.7792 33.9126 23.2909C33.9126 22.8026 34.2859 22.4294 34.7741 22.4294H36.9899C37.5886 22.4294 38.0932 21.9247 38.0932 21.326C38.0932 20.7273 37.5886 20.2226 36.9899 20.2226H35.1086C34.6126 20.2226 34.2102 19.844 34.2467 19.3687L34.247 19.3688V19.3611C34.247 18.8728 34.6203 18.4995 35.1086 18.4995H36.9481C37.5468 18.4995 38.0514 17.9949 38.0514 17.3962C38.0514 16.7974 37.5468 16.2928 36.9481 16.2928H29.2138C28.9192 16.2928 28.6173 16.1068 28.4659 15.8439C28.313 15.5363 28.318 15.2019 28.5009 14.9459L28.5195 14.9198V14.91C28.5214 14.9064 28.5237 14.9021 28.5265 14.8972C28.535 14.8816 28.5463 14.8613 28.5604 14.8361C28.5666 14.8251 28.5733 14.8131 28.5805 14.8001C28.6276 14.7156 28.695 14.5936 28.7759 14.439C28.9377 14.1298 29.1534 13.6905 29.3692 13.159C29.8002 12.0973 30.2336 10.6623 30.2336 9.16023C30.2336 8.5574 30.0825 8.02482 29.7664 7.56702C29.4509 7.10997 28.9753 6.73395 28.3364 6.43579L28.3364 6.43574L28.3335 6.43449C28.0058 6.29408 27.7244 6.38793 27.5957 6.43084L27.5935 6.43154L27.5808 6.43578L27.5697 6.4432C27.563 6.44767 27.556 6.45231 27.5486 6.45716C27.4208 6.54141 27.2007 6.6866 27.1109 7.00061L27.1104 7.0025L26.7342 8.42393L26.7338 8.42526C25.9864 11.4151 24.3259 14.0289 22.1292 15.7701C21.6324 16.1426 21.0932 16.4745 20.5931 16.7663L20.5434 16.7952V16.8527V29.102Z" fill="#002A61" stroke="white" stroke-width="0.2"/>
<path d="M16.9482 28.0988C16.9482 28.7363 16.4314 29.253 15.794 29.253C15.1565 29.253 14.6398 28.7363 14.6398 28.0988C14.6398 27.4614 15.1565 26.9446 15.794 26.9446C16.4314 26.9446 16.9482 27.4614 16.9482 28.0988Z" fill="#002A61" stroke="white" stroke-width="0.2"/>
<path d="M8.23989 12.1157L8.3106 12.1864L8.38131 12.1157L11.8095 8.6875C12.1467 8.35029 12.7105 8.35029 13.0477 8.6875C13.3849 9.02471 13.3849 9.58849 13.0477 9.9257L8.9088 14.0646L8.90836 14.0641L8.90142 14.0728C8.75834 14.2517 8.54044 14.3279 8.3106 14.3279C8.09098 14.3279 7.86448 14.2166 7.7124 14.0646L5.53845 11.8906C5.20124 11.5534 5.20124 10.9896 5.53845 10.6524C5.87566 10.3152 6.43945 10.3152 6.77665 10.6524L8.23989 12.1157Z" fill="#002A61" stroke="white" stroke-width="0.2"/>
</svg>
