<svg width="77" height="34" viewBox="0 0 77 34" fill="none" xmlns="http://www.w3.org/2000/svg">
<g clip-path="url(#clip0_3_19)">
<path d="M26.5 13.5V5.5V5L9.5 21.5L5 17L1 21L10 30.5L26.5 13.5Z" stroke="#EEEEEE" stroke-width="2" stroke-linejoin="round"/>
<path d="M26.5 9.5V1.5V1L9.5 17.5L5 13L1 17L10 26.5L26.5 9.5Z" stroke="white" stroke-width="2" stroke-linejoin="round"/>
<path d="M35.3088 2.54507V5.14102C35.3124 5.17036 35.3098 5.20016 35.3011 5.22834C35.2924 5.25652 35.2779 5.28241 35.2586 5.30421C35.2393 5.32601 35.2156 5.34319 35.1892 5.35457C35.1627 5.36594 35.1343 5.37124 35.1057 5.37008C34.9826 5.37008 34.9087 5.28736 34.9087 5.14102V3.70307H31.3939V5.14102C31.3939 5.28736 31.3201 5.37008 31.197 5.37008C31.0739 5.37008 31 5.28736 31 5.14102V2.54507C31 1.03712 31.7756 0.229065 33.1606 0.229065C34.5455 0.229065 35.3088 1.03712 35.3088 2.54507ZM34.9087 2.54507C34.9087 1.27254 34.2932 0.636274 33.1544 0.636274C32.0156 0.636274 31.3939 1.27254 31.3939 2.54507V3.32767H34.9087V2.54507Z" fill="white"/>
<path d="M37.6048 3.32765C38.7497 3.32765 39.1559 3.63306 39.1559 4.32022C39.1559 5.00739 38.5835 5.4146 37.6048 5.4146C37.0472 5.45732 36.496 5.26968 36.0721 4.89286C36.0357 4.85046 36.014 4.79672 36.0105 4.74016C36.0088 4.716 36.012 4.69174 36.0199 4.66896C36.0279 4.64618 36.0404 4.62539 36.0567 4.60797C36.073 4.59054 36.0926 4.57687 36.1144 4.56786C36.1361 4.55884 36.1594 4.55467 36.1829 4.55564C36.2076 4.55393 36.2324 4.55757 36.2558 4.56634C36.2791 4.5751 36.3004 4.58879 36.3183 4.60654C36.4888 4.77464 36.6911 4.9044 36.9125 4.98763C37.1339 5.07086 37.3696 5.10575 37.6048 5.0901C38.3434 5.0901 38.7743 4.81651 38.7743 4.33931C38.7743 3.86211 38.485 3.70305 37.5432 3.70305C36.4414 3.70305 36.0659 3.42309 36.0659 2.78683C36.0659 2.15056 36.6445 1.69245 37.5555 1.69245C38.0458 1.67152 38.5261 1.83928 38.9036 2.16329C38.9231 2.1819 38.9387 2.20454 38.9493 2.22974C38.9599 2.25494 38.9653 2.28215 38.9651 2.30963C38.9668 2.33354 38.9638 2.35756 38.9562 2.38025C38.9487 2.40293 38.9368 2.42381 38.9213 2.44163C38.9058 2.45945 38.887 2.47385 38.8659 2.48397C38.8449 2.49409 38.8221 2.49971 38.7989 2.50051C38.7453 2.50257 38.6928 2.48449 38.6512 2.44961C38.3641 2.18235 37.9911 2.03494 37.6048 2.03603C36.9154 2.03603 36.466 2.32872 36.466 2.7741C36.466 3.21949 36.7245 3.31492 37.6048 3.32765Z" fill="white"/>
<path d="M41.4888 1.67973C41.7292 1.66701 41.9695 1.70647 42.1942 1.79557C42.419 1.88467 42.6231 2.02143 42.7936 2.19706C42.9641 2.37268 43.0971 2.58326 43.1841 2.81525C43.271 3.04723 43.31 3.29547 43.2985 3.54398C43.3109 3.79301 43.2726 4.04195 43.186 4.2747C43.0995 4.50745 42.9666 4.71882 42.796 4.89515C42.6254 5.07147 42.4209 5.20881 42.1958 5.29829C41.9706 5.38777 41.7298 5.4274 41.4888 5.4146C41.2479 5.4274 41.0071 5.38777 40.7819 5.29829C40.5568 5.20881 40.3523 5.07147 40.1817 4.89515C40.0111 4.71882 39.8782 4.50745 39.7917 4.2747C39.7051 4.04195 39.6668 3.79301 39.6792 3.54398C39.6686 3.29572 39.7083 3.04792 39.7956 2.81638C39.8829 2.58485 40.0159 2.37466 40.1862 2.19925C40.3565 2.02383 40.5603 1.88703 40.7845 1.79758C41.0088 1.70813 41.2487 1.66799 41.4888 1.67973V1.67973ZM41.4888 5.05193C41.6812 5.06036 41.8731 5.02688 42.0521 4.95365C42.2312 4.88042 42.3933 4.76909 42.5279 4.62687C42.6626 4.48466 42.7668 4.31476 42.8339 4.1282C42.9009 3.94163 42.9292 3.74259 42.9169 3.54398C42.9282 3.34562 42.8992 3.147 42.8319 2.96089C42.7645 2.77478 42.6603 2.60528 42.5258 2.46328C42.3913 2.32128 42.2296 2.20992 42.051 2.13634C41.8724 2.06276 41.6809 2.0286 41.4888 2.03604C41.2972 2.02951 41.1064 2.06434 40.9286 2.13832C40.7508 2.2123 40.5898 2.32381 40.456 2.46571C40.3222 2.60761 40.2185 2.77679 40.1515 2.96245C40.0845 3.14811 40.0557 3.34617 40.0669 3.54398C40.0548 3.74203 40.0829 3.94052 40.1495 4.12662C40.2162 4.31273 40.3199 4.48232 40.4539 4.62443C40.5879 4.76654 40.7492 4.87801 40.9275 4.95165C41.1058 5.02529 41.297 5.05945 41.4888 5.05193V5.05193Z" fill="white"/>
<path d="M47.1826 4.74017C47.0142 4.96094 46.7975 5.13721 46.5503 5.25447C46.3031 5.37172 46.0325 5.42661 45.7607 5.41461C45.5195 5.42733 45.2784 5.3877 45.053 5.29828C44.8275 5.20886 44.6226 5.07162 44.4516 4.89541C44.2805 4.7192 44.1471 4.50791 44.0598 4.27516C43.9725 4.0424 43.9334 3.79333 43.9449 3.54399C43.9343 3.29517 43.9741 3.0468 44.0617 2.81481C44.1494 2.58281 44.283 2.37232 44.454 2.1968C44.6249 2.02129 44.8295 1.88463 45.0545 1.79559C45.2795 1.70655 45.5201 1.66709 45.7607 1.67974C46.0127 1.67301 46.2632 1.72172 46.4956 1.82264C46.728 1.92356 46.937 2.07437 47.1087 2.2651C47.1251 2.28286 47.1379 2.30383 47.1464 2.32678C47.1549 2.34972 47.1588 2.37418 47.158 2.39872C47.1589 2.42235 47.155 2.44592 47.1466 2.46793C47.1383 2.48995 47.1256 2.50995 47.1094 2.52667C47.0933 2.5434 47.0739 2.55649 47.0526 2.56513C47.0313 2.57376 47.0085 2.57776 46.9856 2.57687C46.9575 2.57716 46.9297 2.57104 46.9042 2.55894C46.8787 2.54684 46.856 2.52907 46.8379 2.50688C46.7005 2.35279 46.5326 2.23101 46.3457 2.14978C46.1588 2.06855 45.9572 2.02976 45.7546 2.03604C45.5614 2.02677 45.3686 2.05958 45.1885 2.13235C45.0085 2.20511 44.8453 2.31619 44.7094 2.45839C44.5736 2.60059 44.4682 2.77072 44.4001 2.95775C44.332 3.14477 44.3028 3.34451 44.3142 3.54399C44.3137 3.8549 44.4061 4.15837 44.5789 4.41285C44.7517 4.66733 44.9964 4.86038 45.2795 4.96557C45.5625 5.07075 45.8701 5.08294 46.1601 5.00044C46.4501 4.91795 46.7083 4.74482 46.8995 4.50475C46.919 4.48565 46.9424 4.47121 46.9679 4.46241C46.9934 4.45362 47.0205 4.4507 47.0472 4.45385C47.0704 4.45383 47.0933 4.45864 47.1146 4.46799C47.1359 4.47734 47.1552 4.49103 47.1713 4.50826C47.1874 4.52548 47.1999 4.54588 47.2082 4.56823C47.2165 4.59059 47.2204 4.61444 47.2195 4.63836C47.2147 4.6747 47.2021 4.70947 47.1826 4.74017V4.74017Z" fill="white"/>
<path d="M47.9213 0.63625C47.9166 0.602513 47.9193 0.56813 47.9291 0.535605C47.939 0.50308 47.9557 0.473233 47.9781 0.44824C48.0005 0.423247 48.0281 0.403738 48.0587 0.391133C48.0893 0.378529 48.1223 0.373148 48.1552 0.375381C48.1888 0.372335 48.2226 0.377045 48.2543 0.389171C48.2859 0.401298 48.3145 0.420538 48.3381 0.445501C48.3617 0.470464 48.3796 0.500526 48.3905 0.533515C48.4014 0.566503 48.4052 0.601594 48.4014 0.63625C48.4044 0.670158 48.4 0.704323 48.3886 0.736258C48.3771 0.768194 48.359 0.797097 48.3354 0.820865C48.3118 0.844633 48.2834 0.862667 48.2522 0.873657C48.221 0.884646 48.1879 0.888314 48.1552 0.884392C48.1232 0.887474 48.0909 0.883117 48.0608 0.871642C48.0306 0.860166 48.0033 0.841861 47.9809 0.81807C47.9585 0.794278 47.9415 0.765601 47.9311 0.734141C47.9208 0.70268 47.9175 0.669233 47.9213 0.63625V0.63625ZM48.346 1.90878V5.16009C48.3498 5.18747 48.3475 5.21538 48.3395 5.24175C48.3314 5.26813 48.3177 5.29229 48.2994 5.31245C48.2811 5.33261 48.2586 5.34825 48.2336 5.35822C48.2087 5.36819 48.1818 5.37224 48.1552 5.37005C48.1295 5.37031 48.1041 5.36484 48.0807 5.35401C48.0572 5.34319 48.0363 5.32728 48.0194 5.30735C48.0024 5.28742 47.9898 5.26395 47.9825 5.23853C47.9751 5.21312 47.9731 5.18636 47.9767 5.16009V1.94059C47.9767 1.80698 48.0444 1.72426 48.1552 1.72426C48.1822 1.72308 48.2091 1.72803 48.234 1.73876C48.2589 1.74949 48.2813 1.76574 48.2995 1.78636C48.3177 1.80699 48.3312 1.83149 48.3393 1.85814C48.3473 1.88478 48.3496 1.91293 48.346 1.94059V1.90878Z" fill="white"/>
<path d="M52.7779 1.94061V5.1601C52.7779 5.28735 52.7163 5.37007 52.5932 5.37007C52.4701 5.37007 52.4147 5.28735 52.4147 5.1601V4.63836C52.259 4.89186 52.0404 5.09758 51.7817 5.2341C51.5229 5.37062 51.2335 5.43295 50.9436 5.41461C50.706 5.42414 50.4691 5.38183 50.2483 5.29042C50.0276 5.199 49.828 5.06055 49.6625 4.88406C49.497 4.70758 49.3693 4.49703 49.2878 4.26614C49.2062 4.03524 49.1727 3.78918 49.1893 3.54399C49.1736 3.29931 49.2078 3.05395 49.2897 2.82382C49.3717 2.59369 49.4995 2.38394 49.6649 2.20816C49.8303 2.03238 50.0296 1.8945 50.2499 1.80347C50.4702 1.71244 50.7065 1.67028 50.9436 1.67974C51.2274 1.66827 51.5092 1.7339 51.7609 1.8701C52.0125 2.0063 52.2252 2.20831 52.3778 2.45598V2.45598V1.94061C52.3778 1.80699 52.4393 1.72428 52.5563 1.72428C52.6733 1.72428 52.7779 1.80699 52.7779 1.94061ZM52.4147 3.54399C52.4147 3.15081 52.2636 2.77373 51.9947 2.49571C51.7257 2.21769 51.3609 2.0615 50.9805 2.0615C50.6001 2.0615 50.2353 2.21769 49.9664 2.49571C49.6974 2.77373 49.5463 3.15081 49.5463 3.54399C49.534 3.74259 49.5623 3.94164 49.6293 4.1282C49.6964 4.31477 49.8006 4.48467 49.9353 4.62688C50.0699 4.76909 50.2321 4.88043 50.4111 4.95366C50.5901 5.02689 50.782 5.06037 50.9744 5.05194C51.167 5.05923 51.359 5.02507 51.5382 4.95161C51.7173 4.87816 51.8798 4.76702 52.0152 4.62524C52.1506 4.48345 52.2561 4.31413 52.3249 4.128C52.3936 3.94187 52.4242 3.74299 52.4147 3.54399Z" fill="white"/>
<path d="M56.8405 4.74017C56.5961 5.02712 56.274 5.2316 55.9158 5.32713C55.5577 5.42265 55.1801 5.40481 54.8319 5.27593C54.4837 5.14704 54.1809 4.91304 53.9629 4.60424C53.7448 4.29544 53.6215 3.92608 53.6089 3.54399C53.5983 3.29517 53.6381 3.0468 53.7258 2.81481C53.8134 2.58281 53.947 2.37232 54.118 2.1968C54.2889 2.02129 54.4935 1.88463 54.7185 1.79559C54.9435 1.70655 55.1841 1.66709 55.4247 1.67974C55.6767 1.67301 55.9272 1.72172 56.1596 1.82264C56.392 1.92356 56.601 2.07437 56.7728 2.2651C56.7892 2.28286 56.802 2.30383 56.8104 2.32678C56.8189 2.34972 56.8228 2.37418 56.822 2.39871C56.8229 2.42235 56.819 2.44592 56.8107 2.46793C56.8023 2.48995 56.7896 2.50995 56.7735 2.52667C56.7573 2.5434 56.7379 2.55649 56.7166 2.56513C56.6953 2.57376 56.6725 2.57776 56.6497 2.57687C56.6226 2.57624 56.596 2.56968 56.5716 2.55761C56.5472 2.54555 56.5255 2.52825 56.5081 2.50688C56.3707 2.35279 56.2028 2.23101 56.0159 2.14978C55.829 2.06855 55.6274 2.02976 55.4247 2.03604C55.2311 2.02585 55.0376 2.05798 54.8568 2.13033C54.676 2.20267 54.512 2.31362 54.3755 2.45592C54.239 2.59822 54.1331 2.76868 54.0646 2.95616C53.9961 3.14365 53.9667 3.34395 53.9782 3.54399C53.9792 3.85339 54.0723 4.15498 54.2448 4.40785C54.4173 4.66071 54.6608 4.85261 54.9424 4.95751C55.224 5.06241 55.53 5.07523 55.8189 4.99423C56.1078 4.91324 56.3656 4.74235 56.5573 4.50475C56.5924 4.47111 56.6388 4.45286 56.6866 4.45385C56.7098 4.45383 56.7327 4.45864 56.754 4.46799C56.7753 4.47734 56.7946 4.49103 56.8107 4.50826C56.8268 4.52548 56.8393 4.54588 56.8476 4.56823C56.8559 4.59059 56.8598 4.61444 56.8589 4.63836C56.8617 4.67339 56.8553 4.70854 56.8405 4.74017V4.74017Z" fill="white"/>
<path d="M57.5791 0.636265C57.5791 0.570454 57.6044 0.507338 57.6494 0.460802C57.6945 0.414266 57.7555 0.388123 57.8192 0.388123C57.8829 0.388123 57.9439 0.414266 57.9889 0.460802C58.034 0.507338 58.0593 0.570454 58.0593 0.636265C58.0593 0.702077 58.034 0.765193 57.9889 0.811729C57.9439 0.858265 57.8829 0.884408 57.8192 0.884408C57.7555 0.884408 57.6945 0.858265 57.6494 0.811729C57.6044 0.765193 57.5791 0.702077 57.5791 0.636265ZM58.0039 1.90879V5.1601C58.0039 5.21073 57.9844 5.25928 57.9498 5.29507C57.9151 5.33087 57.8682 5.35098 57.8192 5.35098C57.7702 5.35098 57.7232 5.33087 57.6886 5.29507C57.654 5.25928 57.6345 5.21073 57.6345 5.1601V1.94061C57.6345 1.80699 57.7022 1.72428 57.8192 1.72428C57.9361 1.72428 58.0039 1.80699 58.0039 1.94061V1.90879Z" fill="white"/>
<path d="M60.6384 1.67974C60.8788 1.66701 61.119 1.70647 61.3438 1.79557C61.5685 1.88467 61.7727 2.02144 61.9432 2.19706C62.1136 2.37268 62.2466 2.58327 62.3336 2.81526C62.4206 3.04724 62.4596 3.29548 62.4481 3.54399C62.4481 4.04011 62.2574 4.51591 61.918 4.86672C61.5786 5.21752 61.1183 5.41461 60.6384 5.41461C60.1584 5.41461 59.6981 5.21752 59.3587 4.86672C59.0194 4.51591 58.8287 4.04011 58.8287 3.54399C58.8182 3.29573 58.8578 3.04792 58.9451 2.81639C59.0324 2.58485 59.1654 2.37467 59.3357 2.19925C59.506 2.02384 59.7098 1.88704 59.9341 1.79759C60.1584 1.70814 60.3982 1.668 60.6384 1.67974V1.67974ZM60.6384 5.05194C60.831 5.06029 61.0232 5.0268 61.2025 4.95363C61.3818 4.88046 61.5443 4.76923 61.6794 4.62713C61.8146 4.48504 61.9194 4.31522 61.9871 4.12865C62.0548 3.94209 62.084 3.74291 62.0726 3.54399C62.0726 3.15081 61.9215 2.77373 61.6525 2.49571C61.3836 2.21769 61.0188 2.0615 60.6384 2.0615C60.258 2.0615 59.8932 2.21769 59.6242 2.49571C59.3553 2.77373 59.2042 3.15081 59.2042 3.54399C59.1918 3.74315 59.2203 3.94276 59.2877 4.12978C59.355 4.31681 59.4598 4.48703 59.5952 4.62934C59.7305 4.77166 59.8934 4.88285 60.0732 4.95567C60.2529 5.02849 60.4455 5.06129 60.6384 5.05194V5.05194ZM61.4324 0.299044L60.5522 1.17073C60.5392 1.18587 60.523 1.19774 60.5049 1.20546C60.4867 1.21318 60.4671 1.21653 60.4476 1.21526C60.4287 1.21617 60.4099 1.21301 60.3924 1.20597C60.3748 1.19894 60.3588 1.18819 60.3455 1.17442C60.3322 1.16064 60.3218 1.14415 60.315 1.12598C60.3082 1.10782 60.3051 1.08838 60.306 1.06892C60.3064 1.04339 60.3121 1.01825 60.3227 0.995196C60.3333 0.972143 60.3486 0.951719 60.3675 0.935308L61.217 0.0509011C61.253 0.0188248 61.2987 0.000812704 61.3463 0C61.3871 0 61.4262 0.0167587 61.4551 0.0465893C61.4839 0.07642 61.5001 0.116879 61.5001 0.159066C61.4995 0.186101 61.4931 0.212654 61.4814 0.236843C61.4697 0.261032 61.453 0.282267 61.4324 0.299044V0.299044Z" fill="white"/>
<path d="M66.5353 3.34676V5.16011C66.5379 5.18728 66.5349 5.21472 66.5264 5.24058C66.518 5.26644 66.5042 5.29012 66.4861 5.31003C66.468 5.32993 66.446 5.34559 66.4216 5.35595C66.3972 5.36631 66.3708 5.37112 66.3444 5.37007C66.3188 5.37033 66.2934 5.36486 66.2699 5.35404C66.2465 5.34322 66.2256 5.3273 66.2087 5.30737C66.1917 5.28744 66.1791 5.26397 66.1718 5.23856C66.1644 5.21314 66.1624 5.18638 66.1659 5.16011V3.37221C66.1659 2.49416 65.7535 2.03605 64.9349 2.03605C64.7496 2.03208 64.5656 2.06914 64.3953 2.14474C64.2251 2.22034 64.0724 2.33273 63.9476 2.47437C63.8229 2.616 63.7289 2.78359 63.6719 2.96589C63.615 3.14818 63.5965 3.34096 63.6176 3.53127V5.16011C63.6176 5.28736 63.556 5.37007 63.4329 5.37007C63.3098 5.37007 63.2544 5.28736 63.2544 5.16011V1.9088C63.2544 1.78155 63.316 1.69883 63.4329 1.69883C63.5499 1.69883 63.6176 1.78155 63.6176 1.9088V2.41781C63.758 2.17564 63.9607 1.97846 64.203 1.84817C64.4453 1.71787 64.7178 1.65957 64.9903 1.67974C66.0059 1.67974 66.5353 2.26511 66.5353 3.34676Z" fill="white"/>
<path d="M72.5676 0.267221V5.16009C72.5714 5.18747 72.5691 5.21539 72.5611 5.24176C72.553 5.26813 72.5393 5.29229 72.521 5.31245C72.5026 5.33261 72.4802 5.34826 72.4552 5.35823C72.4302 5.3682 72.4034 5.37224 72.3768 5.37006C72.3511 5.37031 72.3257 5.36484 72.3022 5.35402C72.2788 5.3432 72.2579 5.32728 72.241 5.30735C72.224 5.28742 72.2114 5.26395 72.2041 5.23854C72.1967 5.21313 72.1947 5.18637 72.1983 5.16009V4.63835C72.0411 4.89189 71.8213 5.09748 71.5616 5.23393C71.3019 5.37039 71.0117 5.43275 70.721 5.4146C70.4833 5.42413 70.2465 5.38182 70.0257 5.29041C69.805 5.19899 69.6054 5.06054 69.4399 4.88405C69.2743 4.70757 69.1467 4.49702 69.0651 4.26613C68.9836 4.03523 68.9501 3.78917 68.9667 3.54398C68.951 3.2993 68.9852 3.05394 69.0671 2.82381C69.1491 2.59368 69.2769 2.38393 69.4423 2.20815C69.6077 2.03237 69.807 1.89449 70.0273 1.80346C70.2476 1.71243 70.4839 1.67027 70.721 1.67973C71.0117 1.66157 71.3019 1.72394 71.5616 1.86039C71.8213 1.99684 72.0411 2.20244 72.1983 2.45597V2.45597V0.267221C72.1983 0.133606 72.266 0.0508917 72.3768 0.0508917C72.4037 0.0497087 72.4306 0.0546565 72.4556 0.0653864C72.4805 0.0761163 72.5029 0.0923672 72.521 0.112994C72.5392 0.13362 72.5528 0.158121 72.5609 0.184768C72.5689 0.211415 72.5712 0.239561 72.5676 0.267221V0.267221ZM72.1983 3.54398C72.1983 3.1508 72.0471 2.77372 71.7782 2.4957C71.5092 2.21768 71.1444 2.06149 70.764 2.06149C70.3837 2.06149 70.0189 2.21768 69.7499 2.4957C69.4809 2.77372 69.3298 3.1508 69.3298 3.54398C69.3298 3.93716 69.4809 4.31424 69.7499 4.59226C70.0189 4.87028 70.3837 5.02648 70.764 5.02648C71.1444 5.02648 71.5092 4.87028 71.7782 4.59226C72.0471 4.31424 72.1983 3.93716 72.1983 3.54398Z" fill="white"/>
<path d="M76.7471 3.67759H73.7741C73.7786 3.86874 73.8206 4.05695 73.8975 4.23081C73.9745 4.40468 74.0848 4.56059 74.2218 4.68909C74.3588 4.81758 74.5196 4.916 74.6944 4.97837C74.8693 5.04074 75.0546 5.06576 75.239 5.05192C75.4573 5.05462 75.6733 5.00689 75.8714 4.91222C76.0695 4.81755 76.2446 4.67833 76.384 4.50474C76.4048 4.48183 76.4312 4.46506 76.4604 4.45612C76.4896 4.44718 76.5206 4.44639 76.5501 4.45383C76.5752 4.45288 76.6001 4.45738 76.6234 4.46704C76.6466 4.4767 76.6676 4.49131 76.685 4.50991C76.7024 4.52851 76.7159 4.55069 76.7244 4.57502C76.733 4.59934 76.7366 4.62525 76.7348 4.65108C76.7351 4.6746 76.731 4.69795 76.7225 4.71979C76.7141 4.74163 76.7015 4.76153 76.6856 4.77833C76.5046 4.98787 76.2811 5.15353 76.0311 5.26352C75.781 5.3735 75.5106 5.42509 75.239 5.41459C74.9956 5.43094 74.7515 5.39406 74.5228 5.30636C74.2941 5.21865 74.0858 5.08209 73.9116 4.90559C73.7373 4.72908 73.601 4.5166 73.5116 4.28198C73.4221 4.04737 73.3815 3.7959 73.3924 3.54398C73.3819 3.29572 73.4215 3.04791 73.5088 2.81638C73.5961 2.58484 73.7292 2.37466 73.8995 2.19924C74.0697 2.02383 74.2735 1.88703 74.4978 1.79758C74.7221 1.70813 74.962 1.66799 75.2021 1.67972C75.4356 1.66282 75.6699 1.6965 75.89 1.77862C76.1101 1.86074 76.3112 1.98948 76.4805 2.15659C76.6497 2.32371 76.7832 2.52552 76.8726 2.74909C76.962 2.97266 77.0052 3.21306 76.9995 3.4549C77.0011 3.488 76.9954 3.52105 76.9827 3.5515C76.97 3.58194 76.9508 3.60897 76.9264 3.63049C76.902 3.65201 76.8731 3.66745 76.8421 3.67562C76.811 3.68378 76.7785 3.68446 76.7471 3.67759V3.67759ZM73.7802 3.32765H76.6179C76.578 2.96752 76.4114 2.63511 76.1498 2.39379C75.8881 2.15247 75.5497 2.0191 75.199 2.0191C74.8484 2.0191 74.51 2.15247 74.2483 2.39379C73.9866 2.63511 73.82 2.96752 73.7802 3.32765V3.32765Z" fill="white"/>
<path d="M31.4941 6.91417V12.6823C31.4941 12.8583 31.4058 12.9625 31.2545 12.9625C31.2191 12.9648 31.1838 12.9589 31.1509 12.9453C31.118 12.9318 31.0884 12.9108 31.0643 12.884C31.0402 12.8572 31.0221 12.8252 31.0114 12.7903C31.0007 12.7555 30.9975 12.7186 31.0023 12.6823V6.91417C30.9974 6.87817 31.0004 6.84149 31.0112 6.80687C31.0219 6.77226 31.0401 6.7406 31.0644 6.71427C31.0886 6.68795 31.1183 6.66763 31.1512 6.65484C31.1842 6.64206 31.2195 6.63713 31.2545 6.64043C31.4058 6.64043 31.4941 6.71213 31.4941 6.91417Z" fill="white"/>
<path d="M36.8032 10.4467V12.7018C36.8058 12.7351 36.8017 12.7686 36.7912 12.8001C36.7807 12.8317 36.7639 12.8606 36.742 12.8851C36.72 12.9097 36.6934 12.9292 36.6638 12.9425C36.6342 12.9558 36.6022 12.9627 36.5699 12.9625C36.5376 12.9638 36.5053 12.9578 36.4755 12.9448C36.4456 12.9317 36.419 12.9121 36.3973 12.8872C36.3756 12.8623 36.3595 12.8328 36.3501 12.8008C36.3407 12.7687 36.3383 12.735 36.3429 12.7018V10.4858C36.3429 9.39088 35.8322 8.82385 34.8359 8.82385C34.6058 8.81845 34.3772 8.86421 34.1656 8.95803C33.954 9.05185 33.7644 9.19154 33.6096 9.36765C33.4548 9.54376 33.3383 9.75219 33.2681 9.97884C33.198 10.2055 33.1757 10.4451 33.2028 10.6814V12.7018C33.2076 12.7355 33.2051 12.7699 33.1953 12.8024C33.1856 12.835 33.1689 12.8648 33.1465 12.8899C33.1241 12.9149 33.0966 12.9344 33.066 12.9469C33.0354 12.9595 33.0024 12.9649 32.9696 12.9625C32.8308 12.9625 32.7489 12.8583 32.7489 12.7018V8.66742C32.7442 8.63515 32.7465 8.60222 32.7555 8.57097C32.7646 8.53972 32.7803 8.51093 32.8013 8.48664C32.8224 8.46236 32.8484 8.44319 32.8775 8.4305C32.9066 8.41781 32.938 8.41192 32.9696 8.41323C33.0021 8.40986 33.035 8.41423 33.0656 8.42601C33.0963 8.43779 33.124 8.45667 33.1465 8.48121C33.169 8.50574 33.1858 8.53528 33.1956 8.56756C33.2053 8.59984 33.2078 8.634 33.2028 8.66742V9.31919C33.3773 9.0189 33.6286 8.7742 33.929 8.61205C34.2293 8.44991 34.5672 8.3766 34.9053 8.4002C36.1475 8.38065 36.8032 9.1041 36.8032 10.4467Z" fill="white"/>
<path d="M40.7252 12.213C40.5958 12.4728 40.3952 12.6874 40.1485 12.83C39.9017 12.9726 39.6198 13.0368 39.338 13.0147C39.1233 13.0266 38.9086 12.99 38.7091 12.9072C38.5095 12.8244 38.3299 12.6976 38.1827 12.5356C38.0356 12.3735 37.9245 12.1802 37.8572 11.9691C37.7899 11.758 37.768 11.5343 37.7932 11.3136V7.27916C37.7932 7.1097 37.8751 7.01193 38.0265 7.01193C38.1778 7.01193 38.2534 7.1097 38.2534 7.27916V8.49143H40.2712C40.3011 8.48764 40.3314 8.4906 40.3601 8.50011C40.3888 8.50963 40.4151 8.52547 40.4373 8.54654C40.4595 8.56761 40.477 8.59342 40.4886 8.62216C40.5002 8.65091 40.5056 8.68191 40.5045 8.71303C40.5056 8.74416 40.5002 8.77516 40.4886 8.80391C40.477 8.83265 40.4595 8.85846 40.4373 8.87953C40.4151 8.9006 40.3888 8.91644 40.3601 8.92596C40.3314 8.93547 40.3011 8.93843 40.2712 8.93463H38.2534V11.3201C38.232 11.481 38.2451 11.6448 38.2917 11.7999C38.3384 11.955 38.4174 12.0977 38.5233 12.2177C38.6292 12.3377 38.7593 12.4322 38.9045 12.4945C39.0496 12.5567 39.2062 12.5852 39.3632 12.578C39.5627 12.5883 39.7608 12.5383 39.9332 12.4342C40.1057 12.33 40.245 12.1761 40.3342 11.9914C40.351 11.9391 40.386 11.8952 40.4324 11.8681C40.4788 11.8411 40.5333 11.8328 40.5852 11.845C40.6372 11.8572 40.6829 11.889 40.7134 11.9341C40.7439 11.9793 40.7571 12.0345 40.7504 12.0892C40.7508 12.1319 40.7422 12.1741 40.7252 12.213Z" fill="white"/>
<path d="M45.4037 10.8639H41.7088C41.7142 11.1019 41.7663 11.3363 41.8619 11.5529C41.9574 11.7696 42.0946 11.9639 42.2649 12.1241C42.4353 12.2844 42.6353 12.4072 42.853 12.4852C43.0706 12.5633 43.3013 12.5948 43.531 12.578C43.8049 12.5909 44.0779 12.5388 44.3293 12.4259C44.5806 12.3129 44.8036 12.142 44.9813 11.9262C45.0015 11.8985 45.027 11.8755 45.0564 11.8587C45.0857 11.8418 45.1181 11.8315 45.1515 11.8285C45.1835 11.8274 45.2154 11.8334 45.245 11.846C45.2746 11.8586 45.3013 11.8775 45.3233 11.9015C45.3453 11.9255 45.3622 11.9541 45.3728 11.9853C45.3834 12.0165 45.3875 12.0497 45.3848 12.0827C45.3817 12.1407 45.3595 12.1959 45.3218 12.2391C45.1021 12.5058 44.8269 12.7176 44.5168 12.8587C44.2067 12.9998 43.8697 13.0665 43.531 13.0538C43.2289 13.0762 42.9256 13.0322 42.6411 12.9247C42.3566 12.8172 42.0974 12.6485 41.8806 12.4299C41.6637 12.2113 41.4941 11.9477 41.383 11.6564C41.2719 11.3651 41.2217 11.0528 41.2359 10.74C41.2214 10.4308 41.2698 10.1219 41.3778 9.83314C41.4859 9.54441 41.6513 9.2823 41.8634 9.06369C42.0755 8.84509 42.3295 8.67484 42.6092 8.56393C42.8888 8.45302 43.1878 8.4039 43.4869 8.41974C43.7736 8.40443 44.0603 8.45042 44.3291 8.55485C44.5978 8.65928 44.8428 8.8199 45.0487 9.02666C45.2547 9.23343 45.4172 9.48189 45.526 9.75651C45.6348 10.0311 45.6876 10.326 45.6812 10.6227C45.6748 10.6925 45.6421 10.7569 45.5902 10.802C45.5383 10.8471 45.4713 10.8693 45.4037 10.8639V10.8639ZM41.7214 10.4272H45.2461C45.2091 9.97716 45.0055 9.55925 44.6778 9.26056C44.3501 8.96187 43.9235 8.80542 43.4869 8.82384C43.0489 8.80205 42.6198 8.95714 42.2904 9.25632C41.9609 9.55551 41.7569 9.97536 41.7214 10.4272V10.4272Z" fill="white"/>
<path d="M48.96 8.6674C48.9629 8.69897 48.959 8.73081 48.9487 8.76065C48.9383 8.7905 48.9217 8.8176 48.9 8.84002C48.8783 8.86245 48.8521 8.87963 48.8232 8.89035C48.7943 8.90108 48.7635 8.90506 48.733 8.90204C47.6611 8.90204 47.062 9.61898 47.062 10.9942V12.7279C47.0657 12.7614 47.0623 12.7953 47.0521 12.8273C47.042 12.8593 47.0252 12.8887 47.0031 12.9134C46.981 12.9382 46.9539 12.9577 46.9239 12.9706C46.8938 12.9836 46.8613 12.9897 46.8288 12.9886C46.6837 12.9886 46.6081 12.8843 46.6081 12.7279V8.70651C46.6081 8.53705 46.6837 8.43928 46.8288 8.43928C46.9738 8.43928 47.062 8.53705 47.062 8.70651V9.41693C47.2039 9.08949 47.4412 8.81608 47.7408 8.63494C48.0404 8.45381 48.3873 8.374 48.733 8.4067C48.766 8.40274 48.7994 8.40701 48.8305 8.41915C48.8616 8.43129 48.8894 8.45094 48.9116 8.47647C48.9338 8.50199 48.9498 8.53264 48.9582 8.56586C48.9666 8.59908 48.9672 8.6339 48.96 8.6674Z" fill="white"/>
<path d="M53.7521 10.4467V12.7018C53.7547 12.7351 53.7506 12.7686 53.74 12.8001C53.7295 12.8317 53.7127 12.8606 53.6908 12.8851C53.6689 12.9097 53.6422 12.9292 53.6126 12.9425C53.583 12.9558 53.5511 12.9627 53.5188 12.9625C53.4864 12.9638 53.4542 12.9578 53.4243 12.9448C53.3945 12.9317 53.3678 12.9121 53.3461 12.8872C53.3245 12.8623 53.3084 12.8328 53.299 12.8008C53.2896 12.7687 53.2871 12.735 53.2918 12.7018V10.4858C53.2918 9.39088 52.781 8.82385 51.7848 8.82385C51.5573 8.82313 51.3322 8.87235 51.1244 8.96822C50.9167 9.0641 50.731 9.20447 50.5796 9.38004C50.4282 9.55562 50.3146 9.7624 50.2463 9.98673C50.1779 10.2111 50.1565 10.4478 50.1832 10.6814V12.7018C50.188 12.7355 50.1854 12.7699 50.1757 12.8024C50.1659 12.835 50.1492 12.8648 50.1269 12.8899C50.1045 12.9149 50.077 12.9344 50.0464 12.9469C50.0158 12.9595 49.9828 12.9649 49.9499 12.9625C49.8112 12.9625 49.7292 12.8583 49.7292 12.7018V8.66742C49.7292 8.60519 49.7531 8.54551 49.7957 8.50151C49.8383 8.45751 49.896 8.43279 49.9562 8.43279C50.0164 8.43279 50.0742 8.45751 50.1167 8.50151C50.1593 8.54551 50.1832 8.60519 50.1832 8.66742V9.31919C50.3577 9.0189 50.609 8.7742 50.9093 8.61205C51.2097 8.44991 51.5476 8.3766 51.8857 8.4002C53.0963 8.38065 53.7521 9.1041 53.7521 10.4467Z" fill="white"/>
<path d="M58.8153 10.8639H55.1203C55.1257 11.1019 55.1778 11.3363 55.2734 11.553C55.369 11.7696 55.5061 11.9639 55.6765 12.1241C55.8468 12.2844 56.0469 12.4073 56.2645 12.4853C56.4821 12.5633 56.7128 12.5948 56.9426 12.578C57.2163 12.5899 57.489 12.5374 57.7402 12.4245C57.9914 12.3116 58.2146 12.1413 58.3928 11.9262C58.4124 11.8979 58.4378 11.8744 58.4673 11.8575C58.4967 11.8406 58.5294 11.8307 58.5631 11.8285C58.5951 11.8274 58.6269 11.8334 58.6565 11.846C58.6861 11.8586 58.7128 11.8775 58.7348 11.9015C58.7569 11.9255 58.7737 11.9541 58.7843 11.9853C58.7949 12.0165 58.799 12.0497 58.7964 12.0827C58.7933 12.1407 58.771 12.1959 58.7333 12.2391C58.5134 12.5054 58.2381 12.717 57.928 12.8581C57.618 12.9991 57.2811 13.066 56.9426 13.0538C56.6404 13.0762 56.3371 13.0322 56.0526 12.9247C55.7682 12.8172 55.5089 12.6485 55.2921 12.4299C55.0752 12.2113 54.9057 11.9477 54.7945 11.6564C54.6834 11.3651 54.6333 11.0528 54.6474 10.74C54.633 10.4314 54.6812 10.123 54.7889 9.83477C54.8966 9.54652 55.0615 9.28473 55.2728 9.06623C55.4842 8.84773 55.7375 8.67734 56.0164 8.566C56.2952 8.45467 56.5935 8.40486 56.8921 8.41976C57.1794 8.40351 57.4667 8.44882 57.7362 8.55283C58.0057 8.65684 58.2515 8.81732 58.4581 9.02418C58.6648 9.23104 58.8278 9.47982 58.937 9.75491C59.0462 10.03 59.0992 10.3254 59.0927 10.6227C59.0848 10.6918 59.0517 10.7552 59.0002 10.8C58.9486 10.8448 58.8825 10.8677 58.8153 10.8639V10.8639ZM55.1266 10.4272H58.6513C58.5941 9.98597 58.3839 9.58122 58.0598 9.2881C57.7357 8.99497 57.3196 8.83341 56.889 8.83341C56.4583 8.83341 56.0423 8.99497 55.7182 9.2881C55.394 9.58122 55.1838 9.98597 55.1266 10.4272V10.4272Z" fill="white"/>
<path d="M62.8318 12.213C62.7007 12.4728 62.4989 12.6871 62.2512 12.8296C62.0036 12.9721 61.721 13.0364 61.4383 13.0147C61.2238 13.0268 61.0094 12.9902 60.8101 12.9074C60.6108 12.8246 60.4315 12.6976 60.2848 12.5354C60.1381 12.3732 60.0276 12.1798 59.9611 11.9687C59.8946 11.7576 59.8737 11.5339 59.8998 11.3136V7.27916C59.8998 7.1097 59.9755 7.01193 60.1268 7.01193C60.2781 7.01193 60.3538 7.1097 60.3538 7.27916V8.49143H62.3715C62.4014 8.48764 62.4318 8.4906 62.4604 8.50011C62.4891 8.50963 62.5155 8.52547 62.5377 8.54654C62.5599 8.56761 62.5773 8.59342 62.5889 8.62216C62.6005 8.65091 62.6059 8.68191 62.6048 8.71303C62.6071 8.74447 62.6025 8.77603 62.5913 8.80534C62.5801 8.83466 62.5626 8.86097 62.5401 8.8823C62.5177 8.90363 62.4908 8.91941 62.4616 8.92848C62.4324 8.93754 62.4016 8.93965 62.3715 8.93463H60.3538V11.3201C60.3324 11.481 60.3454 11.6448 60.3921 11.7999C60.4387 11.955 60.5178 12.0977 60.6237 12.2177C60.7295 12.3377 60.8597 12.4322 61.0048 12.4945C61.1499 12.5567 61.3065 12.5852 61.4635 12.578C61.6632 12.5892 61.8616 12.5395 62.0342 12.4353C62.2068 12.331 62.346 12.1767 62.4346 11.9914C62.4521 11.9498 62.4813 11.9145 62.5184 11.8901C62.5554 11.8657 62.5987 11.8533 62.6426 11.8545C62.6719 11.8545 62.7008 11.8606 62.7277 11.8726C62.7546 11.8845 62.7788 11.902 62.7989 11.924C62.8189 11.946 62.8345 11.9719 62.8445 12.0004C62.8545 12.0288 62.8587 12.059 62.857 12.0892C62.8547 12.1315 62.8462 12.1733 62.8318 12.213V12.213Z" fill="white"/>
<path d="M63.6452 12.6171C63.6433 12.5724 63.6506 12.5278 63.6665 12.4861C63.6824 12.4445 63.7066 12.4068 63.7375 12.3754C63.7685 12.3441 63.8054 12.3198 63.846 12.3042C63.8865 12.2886 63.9299 12.2819 63.9731 12.2847C64.0163 12.2819 64.0596 12.2886 64.1002 12.3042C64.1408 12.3198 64.1777 12.3441 64.2086 12.3754C64.2395 12.4068 64.2637 12.4445 64.2796 12.4861C64.2955 12.5278 64.3028 12.5724 64.301 12.6171C64.3036 12.6626 64.297 12.7082 64.2816 12.751C64.2662 12.7937 64.2422 12.8326 64.2113 12.8652C64.1804 12.8977 64.1432 12.9232 64.1022 12.94C64.0612 12.9568 64.0172 12.9644 63.9731 12.9625C63.929 12.9644 63.885 12.9568 63.844 12.94C63.8029 12.9232 63.7657 12.8977 63.7348 12.8652C63.7039 12.8326 63.68 12.7937 63.6645 12.751C63.6491 12.7082 63.6425 12.6626 63.6452 12.6171Z" fill="white"/>
<path d="M72.1259 10.362V12.7018C72.1315 12.7364 72.1297 12.7718 72.1207 12.8055C72.1116 12.8393 72.0956 12.8706 72.0737 12.8973C72.0518 12.924 72.0246 12.9455 71.9938 12.9602C71.9631 12.9749 71.9296 12.9825 71.8958 12.9825C71.8619 12.9825 71.8284 12.9749 71.7977 12.9602C71.767 12.9455 71.7397 12.924 71.7178 12.8973C71.6959 12.8706 71.6799 12.8393 71.6709 12.8055C71.6619 12.7718 71.6601 12.7364 71.6656 12.7018V10.4142C71.6656 9.37134 71.2369 8.82385 70.4045 8.82385C69.5722 8.82385 69.0993 9.50169 69.0993 10.6227V12.7344C69.0993 12.8909 69.0237 12.9951 68.8786 12.9951C68.8461 12.9963 68.8136 12.9902 68.7835 12.9772C68.7535 12.9642 68.7264 12.9447 68.7043 12.92C68.6821 12.8952 68.6654 12.8659 68.6553 12.8338C68.6451 12.8018 68.6417 12.7679 68.6453 12.7344V10.4142C68.6453 9.37134 68.2166 8.82385 67.3843 8.82385C66.552 8.82385 66.0286 9.47562 66.0286 10.5901V12.7018C66.0342 12.7364 66.0324 12.7718 66.0234 12.8055C66.0144 12.8393 65.9983 12.8706 65.9764 12.8973C65.9545 12.924 65.9273 12.9455 65.8965 12.9602C65.8658 12.9749 65.8323 12.9825 65.7985 12.9825C65.7646 12.9825 65.7311 12.9749 65.7004 12.9602C65.6697 12.9455 65.6424 12.924 65.6205 12.8973C65.5986 12.8706 65.5826 12.8393 65.5736 12.8055C65.5646 12.7718 65.5628 12.7364 65.5683 12.7018V8.70654C65.5683 8.53708 65.6503 8.43931 65.7953 8.43931C65.9403 8.43931 66.0286 8.53708 66.0286 8.70654V9.18884C66.1679 8.9316 66.374 8.71966 66.6235 8.57688C66.873 8.43409 67.1562 8.36614 67.441 8.38066C67.7503 8.35186 68.0603 8.42785 68.3242 8.59715C68.5881 8.76645 68.7916 9.01988 68.9039 9.3192V9.3192C69.0451 9.01733 69.2695 8.76533 69.5488 8.59487C69.8281 8.42441 70.15 8.34308 70.4739 8.3611C71.5773 8.38066 72.1259 9.07804 72.1259 10.362Z" fill="white"/>
<path d="M76.918 12.5259C76.9444 12.5519 76.9653 12.5833 76.9794 12.618C76.9935 12.6528 77.0005 12.6902 77 12.7279C77 12.7598 76.9938 12.7915 76.9816 12.8208C76.9694 12.8502 76.9515 12.8766 76.9291 12.8986C76.9067 12.9206 76.8801 12.9376 76.8511 12.9486C76.8221 12.9596 76.7912 12.9643 76.7604 12.9625C76.7233 12.961 76.687 12.9509 76.6542 12.9328C76.6214 12.9148 76.5931 12.8893 76.5712 12.8583L74.9444 10.9877L73.305 12.8648C73.2848 12.8939 73.2583 12.9179 73.2277 12.9349C73.1971 12.9518 73.1632 12.9613 73.1285 12.9625C73.0979 12.9635 73.0674 12.9579 73.039 12.946C73.0107 12.9341 72.985 12.9163 72.9636 12.8936C72.9423 12.8709 72.9257 12.8439 72.915 12.8143C72.9043 12.7846 72.8997 12.753 72.9015 12.7214C72.9016 12.6588 72.924 12.5985 72.9645 12.5519L74.6291 10.6814L73.0276 8.87598C73.001 8.84873 72.9801 8.8162 72.966 8.78036C72.9519 8.74452 72.945 8.7061 72.9456 8.66742C72.9464 8.63544 72.9534 8.60396 72.9664 8.57491C72.9793 8.54586 72.9979 8.51985 73.0209 8.49849C73.044 8.47712 73.071 8.46085 73.1003 8.45067C73.1296 8.44049 73.1607 8.43662 73.1915 8.4393C73.2271 8.44052 73.262 8.44993 73.2936 8.46685C73.3253 8.48376 73.3528 8.50775 73.3744 8.53706L74.957 10.375L76.5397 8.53055C76.5609 8.50132 76.5885 8.47777 76.6203 8.46189C76.6522 8.44601 76.6872 8.43827 76.7225 8.4393C76.7529 8.43825 76.7831 8.44388 76.8112 8.45581C76.8393 8.46774 76.8646 8.48569 76.8854 8.50849C76.9063 8.53129 76.9222 8.55841 76.9322 8.58805C76.9422 8.6177 76.9459 8.64919 76.9432 8.68045C76.9452 8.71076 76.9406 8.74116 76.9297 8.76937C76.9188 8.79758 76.9018 8.82288 76.8802 8.84339L75.266 10.6683L76.918 12.5259Z" fill="white"/>
<ellipse cx="67.6667" cy="17.6429" rx="1.33333" ry="1.26796" fill="white"/>
<ellipse cx="71.6667" cy="17.6429" rx="1.33333" ry="1.26796" fill="white"/>
<ellipse cx="75.6667" cy="17.6429" rx="1.33333" ry="1.26796" fill="white"/>
<path d="M33.1116 17.0934C34.623 17.0934 35.1397 17.4792 35.1397 18.3563C35.1397 19.2334 34.3841 19.7724 33.1061 19.7724C32.7341 19.8091 32.3583 19.7649 32.0069 19.6432C31.6556 19.5214 31.3379 19.3253 31.078 19.0696C31.0275 19.0056 31.0002 18.9277 31.0002 18.8477C30.9987 18.8075 31.0058 18.7675 31.0211 18.73C31.0364 18.6925 31.0596 18.6584 31.0892 18.6297C31.1189 18.601 31.1543 18.5784 31.1935 18.5632C31.2326 18.548 31.2746 18.5405 31.3169 18.5412C31.3624 18.5376 31.4081 18.5449 31.4499 18.5624C31.4916 18.58 31.5281 18.6072 31.5558 18.6416C31.7683 18.8289 32.019 18.9725 32.2925 19.0634C32.5659 19.1543 32.8561 19.1906 33.145 19.17C33.9618 19.17 34.4674 18.853 34.4674 18.351C34.4674 17.849 34.1451 17.7169 33.0394 17.7064C31.5558 17.7064 31.0724 17.3576 31.0724 16.528C31.0724 15.6985 31.8559 15.1119 33.0783 15.1119C33.3992 15.0915 33.7212 15.134 34.0241 15.2367C34.3271 15.3394 34.6047 15.5002 34.8397 15.709C34.8714 15.7395 34.8962 15.7759 34.9124 15.8159C34.9287 15.8559 34.9361 15.8987 34.9341 15.9415C34.9356 15.9826 34.9284 16.0236 34.9129 16.0621C34.8974 16.1005 34.8739 16.1355 34.8438 16.1651C34.8137 16.1947 34.7777 16.2182 34.7378 16.2343C34.698 16.2503 34.6551 16.2586 34.6119 16.2586C34.512 16.2572 34.4165 16.2194 34.3452 16.1529C34.169 15.9991 33.9622 15.8805 33.7369 15.8043C33.5116 15.728 33.2726 15.6956 33.0339 15.709C32.256 15.709 31.7503 16.0313 31.7503 16.528C31.7503 16.9191 32.067 17.0881 33.1116 17.0934Z" fill="white"/>
<path d="M39.446 19.1119C39.489 19.1073 39.5326 19.1116 39.5738 19.1245C39.6149 19.1375 39.6526 19.1587 39.6843 19.1869C39.716 19.215 39.7409 19.2493 39.7573 19.2874C39.7737 19.3256 39.7812 19.3667 39.7794 19.4078C39.7805 19.4484 39.7724 19.4887 39.7556 19.526C39.7388 19.5632 39.7137 19.5966 39.682 19.6237C39.6503 19.6509 39.6128 19.6711 39.572 19.6831C39.5313 19.6951 39.4882 19.6985 39.446 19.6932H36.2066C36.1576 19.698 36.1082 19.6925 36.0617 19.6771C36.0153 19.6616 35.973 19.6366 35.938 19.6037C35.9029 19.5709 35.876 19.5311 35.859 19.4872C35.842 19.4433 35.8355 19.3963 35.8399 19.3497V15.5347C35.8337 15.4872 35.8389 15.4391 35.8551 15.3938C35.8712 15.3486 35.898 15.3074 35.9332 15.2733C35.9685 15.2393 36.0114 15.2133 36.0587 15.1972C36.1061 15.1812 36.1566 15.1755 36.2066 15.1806H39.446C39.4882 15.1753 39.5313 15.1787 39.572 15.1907C39.6128 15.2027 39.6503 15.2229 39.682 15.2501C39.7137 15.2772 39.7388 15.3105 39.7556 15.3478C39.7724 15.3851 39.7805 15.4254 39.7794 15.466C39.7812 15.5071 39.7737 15.5482 39.7573 15.5864C39.7409 15.6245 39.716 15.6588 39.6843 15.6869C39.6526 15.715 39.6149 15.7363 39.5738 15.7492C39.5326 15.7622 39.489 15.7665 39.446 15.7619H36.5122V17.1357H38.9181C39.1293 17.1357 39.2571 17.2414 39.2571 17.4263C39.2571 17.6113 39.1293 17.7169 38.9181 17.7169H36.5122V19.1119H39.446Z" fill="white"/>
<path d="M43.9578 19.1119C44.0006 19.1072 44.044 19.1115 44.0849 19.1244C44.1258 19.1374 44.1632 19.1587 44.1944 19.187C44.2257 19.2152 44.2501 19.2496 44.2658 19.2878C44.2816 19.3259 44.2883 19.3669 44.2856 19.4078C44.2876 19.4481 44.2803 19.4883 44.2641 19.5256C44.248 19.5629 44.2234 19.5964 44.1921 19.6236C44.1608 19.6508 44.1236 19.6712 44.0831 19.6832C44.0426 19.6952 43.9998 19.6986 43.9578 19.6931H40.8184C40.7697 19.6971 40.7206 19.6909 40.6746 19.6751C40.6287 19.6593 40.5868 19.6342 40.552 19.6016C40.5171 19.569 40.4901 19.5296 40.4728 19.4861C40.4555 19.4426 40.4483 19.3961 40.4517 19.3497V15.4976C40.4459 15.453 40.4505 15.4078 40.4652 15.365C40.4798 15.3223 40.5042 15.2832 40.5365 15.2504C40.5689 15.2176 40.6084 15.192 40.6523 15.1754C40.6962 15.1588 40.7434 15.1515 40.7906 15.1542C40.8376 15.1514 40.8847 15.1586 40.9284 15.1752C40.9721 15.1919 41.0113 15.2176 41.0432 15.2505C41.0752 15.2834 41.099 15.3226 41.113 15.3654C41.1269 15.4082 41.1307 15.4533 41.124 15.4976V19.1119H43.9578Z" fill="white"/>
<path d="M48.2696 19.1119C48.3126 19.1073 48.3562 19.1116 48.3974 19.1245C48.4385 19.1375 48.4762 19.1587 48.5079 19.1868C48.5396 19.215 48.5645 19.2493 48.5809 19.2874C48.5973 19.3256 48.6048 19.3666 48.603 19.4078C48.6041 19.4484 48.596 19.4887 48.5792 19.5259C48.5624 19.5632 48.5373 19.5966 48.5056 19.6237C48.4739 19.6509 48.4364 19.6711 48.3956 19.6831C48.3549 19.6951 48.3119 19.6985 48.2696 19.6931H45.1358C45.0868 19.698 45.0374 19.6925 44.9909 19.677C44.9445 19.6616 44.9022 19.6365 44.8672 19.6037C44.8321 19.5709 44.8051 19.5311 44.7882 19.4872C44.7712 19.4432 44.7647 19.3963 44.769 19.3497V15.4976C44.7632 15.453 44.7678 15.4078 44.7825 15.365C44.7972 15.3223 44.8215 15.2832 44.8539 15.2504C44.8862 15.2176 44.9257 15.192 44.9697 15.1754C45.0136 15.1588 45.0608 15.1515 45.108 15.1542C45.155 15.1514 45.202 15.1586 45.2457 15.1752C45.2894 15.1919 45.3287 15.2176 45.3606 15.2505C45.3925 15.2834 45.4163 15.3226 45.4303 15.3654C45.4443 15.4082 45.4481 15.4533 45.4414 15.4976V19.1119H48.2696Z" fill="white"/>
<path d="M51.0755 15.1119C51.4018 15.096 51.7279 15.1454 52.0327 15.2568C52.3376 15.3683 52.6145 15.5394 52.8455 15.759C53.0765 15.9787 53.2564 16.242 53.3736 16.5319C53.4908 16.8218 53.5427 17.132 53.5259 17.4422C53.5436 17.7526 53.4923 18.0631 53.3754 18.3534C53.2585 18.6437 53.0786 18.9074 52.8474 19.1272C52.6163 19.347 52.339 19.5181 52.0337 19.6292C51.7285 19.7404 51.402 19.7892 51.0755 19.7724C50.7489 19.7891 50.4222 19.7403 50.1166 19.6292C49.8111 19.5181 49.5335 19.3471 49.3019 19.1274C49.0703 18.9077 48.8899 18.6441 48.7724 18.3538C48.6548 18.0634 48.6028 17.7529 48.6196 17.4422C48.6037 17.1317 48.6563 16.8215 48.7742 16.5315C48.892 16.2416 49.0724 15.9784 49.3038 15.7588C49.5352 15.5393 49.8125 15.3683 50.1176 15.2568C50.4228 15.1454 50.7491 15.0961 51.0755 15.1119V15.1119ZM51.0755 19.1912C51.3156 19.1976 51.5545 19.1562 51.7767 19.0697C51.999 18.9831 52.1997 18.8533 52.3661 18.6886C52.5325 18.5239 52.6609 18.328 52.7429 18.1133C52.8249 17.8986 52.8589 17.67 52.8425 17.4422C52.856 17.2132 52.8202 16.9841 52.7374 16.7687C52.6545 16.5534 52.5264 16.3564 52.3607 16.1898C52.195 16.0232 51.9954 15.8904 51.7739 15.7997C51.5525 15.709 51.3139 15.6622 51.0728 15.6622C50.8316 15.6622 50.5931 15.709 50.3716 15.7997C50.1501 15.8904 49.9505 16.0232 49.7848 16.1898C49.6192 16.3564 49.491 16.5534 49.4082 16.7687C49.3253 16.9841 49.2896 17.2132 49.303 17.4422C49.2866 17.6705 49.3207 17.8996 49.4031 18.1146C49.4854 18.3296 49.6143 18.5259 49.7813 18.6906C49.9483 18.8554 50.1497 18.9851 50.3726 19.0713C50.5956 19.1575 50.835 19.1984 51.0755 19.1912V19.1912Z" fill="white"/>
<path d="M57.771 15.1806C59.3713 15.1806 60.3159 16.0155 60.3159 17.4263C60.3159 18.8372 59.3713 19.6773 57.771 19.6773H56.2986C56.2497 19.6822 56.2002 19.6767 56.1538 19.6612C56.1073 19.6458 56.0651 19.6207 56.03 19.5879C55.995 19.555 55.968 19.5152 55.951 19.4713C55.934 19.4274 55.9275 19.3805 55.9319 19.3339V15.5347C55.9284 15.4885 55.9355 15.4421 55.9529 15.3989C55.9703 15.3556 55.9974 15.3165 56.0323 15.2842C56.0673 15.252 56.1092 15.2275 56.1552 15.2123C56.2012 15.1971 56.2502 15.1917 56.2986 15.1965L57.771 15.1806ZM57.8099 19.0961C58.0492 19.1178 58.2907 19.09 58.5176 19.0147C58.7446 18.9394 58.9517 18.8182 59.1248 18.6596C59.298 18.501 59.433 18.3087 59.5206 18.0958C59.6082 17.8829 59.6464 17.6546 59.6325 17.4263C59.6455 17.1985 59.6067 16.9707 59.5188 16.7585C59.4308 16.5463 59.2957 16.3546 59.1226 16.1966C58.9496 16.0386 58.7428 15.9179 58.5162 15.8429C58.2897 15.7679 58.0488 15.7402 57.8099 15.7619H56.5986V19.0961H57.8099Z" fill="white"/>
<path d="M64.6666 19.1119C64.7096 19.1073 64.7532 19.1116 64.7944 19.1245C64.8355 19.1375 64.8732 19.1587 64.9049 19.1869C64.9366 19.215 64.9615 19.2493 64.9779 19.2874C64.9943 19.3256 65.0018 19.3666 65 19.4078C65.0011 19.4484 64.993 19.4887 64.9762 19.5259C64.9594 19.5632 64.9343 19.5966 64.9026 19.6237C64.8709 19.6509 64.8334 19.6711 64.7926 19.6831C64.7519 19.6951 64.7089 19.6985 64.6666 19.6931H61.4272C61.3782 19.698 61.3288 19.6925 61.2824 19.6771C61.2359 19.6616 61.1937 19.6365 61.1586 19.6037C61.1235 19.5709 61.0966 19.5311 61.0796 19.4872C61.0626 19.4432 61.0561 19.3963 61.0605 19.3497V15.5346C61.057 15.4885 61.0641 15.4421 61.0815 15.3988C61.0988 15.3556 61.1259 15.3165 61.1609 15.2842C61.1959 15.252 61.2378 15.2274 61.2838 15.2123C61.3298 15.1971 61.3788 15.1917 61.4272 15.1965H64.6666C64.7089 15.1911 64.7519 15.1945 64.7926 15.2065C64.8334 15.2185 64.8709 15.2388 64.9026 15.2659C64.9343 15.293 64.9594 15.3264 64.9762 15.3637C64.993 15.4009 65.0011 15.4413 65 15.4818C65.0018 15.523 64.9943 15.564 64.9779 15.6022C64.9615 15.6403 64.9366 15.6746 64.9049 15.7028C64.8732 15.7309 64.8355 15.7521 64.7944 15.7651C64.7532 15.778 64.7096 15.7823 64.6666 15.7777H61.7272V17.1357H64.1387C64.3499 17.1357 64.4777 17.2414 64.4777 17.4263C64.4777 17.6113 64.3499 17.7169 64.1387 17.7169H61.7272V19.1119H64.6666Z" fill="white"/>
<path d="M36.0265 26.131C35.7653 26.4846 35.4226 26.7682 35.0283 26.9572C34.6339 27.1461 34.1999 27.2347 33.7639 27.2151C33.0309 27.2151 32.3279 26.9206 31.8095 26.3962C31.2912 25.8719 31 25.1608 31 24.4193C31 23.6778 31.2912 22.9666 31.8095 22.4423C32.3279 21.918 33.0309 21.6234 33.7639 21.6234C34.1808 21.6037 34.5965 21.6823 34.9783 21.8528C35.36 22.0233 35.6974 22.2812 35.9638 22.6061C36.0175 22.6745 36.0463 22.7596 36.0453 22.847C36.0462 22.8961 36.0372 22.9448 36.0188 22.9902C36.0005 23.0357 35.9732 23.0769 35.9386 23.1113C35.904 23.1457 35.8628 23.1726 35.8176 23.1904C35.7723 23.2082 35.724 23.2164 35.6755 23.2147C35.6109 23.2217 35.5455 23.2113 35.4861 23.1846C35.4267 23.1579 35.3753 23.1158 35.3371 23.0625C35.1537 22.8211 34.9157 22.6276 34.643 22.4986C34.3703 22.3695 34.071 22.3085 33.7702 22.3208C33.2405 22.3503 32.7422 22.5839 32.3775 22.9736C32.0129 23.3633 31.8097 23.8795 31.8097 24.4161C31.8097 24.9527 32.0129 25.4689 32.3775 25.8586C32.7422 26.2483 33.2405 26.4819 33.7702 26.5114C34.0896 26.5243 34.4071 26.4563 34.6939 26.3134C34.9807 26.1706 35.2276 25.9575 35.4123 25.6936C35.4452 25.6422 35.4909 25.6005 35.5448 25.5727C35.5988 25.5449 35.659 25.5319 35.7194 25.5351C35.7679 25.5342 35.8161 25.5433 35.861 25.5619C35.9059 25.5804 35.9466 25.608 35.9806 25.643C36.0147 25.678 36.0413 25.7197 36.0589 25.7654C36.0764 25.8112 36.0846 25.8601 36.0829 25.9091C36.0852 25.987 36.0657 26.0639 36.0265 26.131V26.131Z" fill="white"/>
<path d="M39.3984 21.6234C40.1314 21.6234 40.8345 21.918 41.3528 22.4423C41.8711 22.9667 42.1623 23.6778 42.1623 24.4193C42.1623 25.1608 41.8711 25.8719 41.3528 26.3963C40.8345 26.9206 40.1314 27.2151 39.3984 27.2151C39.0354 27.2151 38.676 27.1428 38.3407 27.0023C38.0053 26.8618 37.7006 26.6559 37.444 26.3963C37.1873 26.1366 36.9837 25.8284 36.8448 25.4892C36.7059 25.15 36.6344 24.7865 36.6344 24.4193C36.6344 24.0521 36.7059 23.6886 36.8448 23.3494C36.9837 23.0102 37.1873 22.7019 37.444 22.4423C37.7006 22.1827 38.0053 21.9768 38.3407 21.8363C38.676 21.6958 39.0354 21.6234 39.3984 21.6234V21.6234ZM39.3984 26.5114C39.9281 26.4819 40.4264 26.2483 40.7911 25.8586C41.1557 25.4689 41.3589 24.9527 41.3589 24.4161C41.3589 23.8795 41.1557 23.3633 40.7911 22.9736C40.4264 22.5839 39.9281 22.3503 39.3984 22.3208C38.8687 22.3503 38.3703 22.5839 38.0057 22.9736C37.6411 23.3633 37.4378 23.8795 37.4378 24.4161C37.4378 24.9527 37.6411 25.4689 38.0057 25.8586C38.3703 26.2483 38.8687 26.4819 39.3984 26.5114V26.5114Z" fill="white"/>
<path d="M47.778 22.0727V26.7071C47.7842 26.7653 47.7781 26.8243 47.7601 26.8799C47.742 26.9356 47.7124 26.9868 47.6733 27.03C47.6341 27.0732 47.5863 27.1074 47.533 27.1305C47.4798 27.1535 47.4223 27.1648 47.3643 27.1635C47.2814 27.1675 47.1988 27.1512 47.1234 27.1159C47.0481 27.0805 46.9824 27.0273 46.9319 26.9606L43.7543 22.9285V26.7324C43.7607 26.7837 43.756 26.8358 43.7405 26.8851C43.7249 26.9343 43.6989 26.9796 43.6643 27.0176C43.6297 27.0556 43.5873 27.0856 43.54 27.1053C43.4928 27.125 43.4418 27.1341 43.3908 27.1318C43.339 27.1349 43.2871 27.1265 43.2388 27.1072C43.1906 27.088 43.147 27.0583 43.1112 27.0203C43.0754 26.9823 43.0483 26.9368 43.0316 26.8871C43.0149 26.8374 43.0092 26.7846 43.0147 26.7324V22.1044C43.0095 22.0446 43.0166 21.9845 43.0357 21.9277C43.0548 21.8709 43.0853 21.8188 43.1254 21.7746C43.1655 21.7305 43.2143 21.6953 43.2686 21.6713C43.323 21.6473 43.3816 21.635 43.4409 21.6352C43.5248 21.6307 43.6085 21.6468 43.6849 21.6821C43.7613 21.7174 43.8281 21.7709 43.8796 21.8381L47.0134 25.8702V22.0663C47.0059 22.0145 47.0099 21.9617 47.025 21.9117C47.04 21.8616 47.0659 21.8156 47.1006 21.7768C47.1353 21.738 47.1781 21.7075 47.2259 21.6874C47.2736 21.6673 47.3252 21.6582 47.3769 21.6606C47.4318 21.653 47.4878 21.6586 47.5403 21.6767C47.5928 21.6949 47.6404 21.7252 47.6793 21.7651C47.7182 21.8051 47.7474 21.8537 47.7645 21.9071C47.7817 21.9605 47.7863 22.0172 47.778 22.0727Z" fill="white"/>
<path d="M52.8045 21.7312C52.8959 21.7312 52.9836 21.7679 53.0482 21.8333C53.1129 21.8987 53.1492 21.9874 53.1492 22.0799C53.1492 22.1724 53.1129 22.2611 53.0482 22.3265C52.9836 22.3918 52.8959 22.4286 52.8045 22.4286H49.5705V24.1784H52.2216C52.2702 24.1728 52.3194 24.178 52.3658 24.1935C52.4122 24.209 52.4547 24.2345 52.4905 24.2683C52.5262 24.302 52.5543 24.3432 52.5728 24.389C52.5913 24.4347 52.5998 24.484 52.5977 24.5334C52.5999 24.5826 52.5915 24.6316 52.5729 24.6772C52.5544 24.7227 52.5262 24.7635 52.4903 24.7968C52.4544 24.83 52.4118 24.8549 52.3653 24.8697C52.3189 24.8844 52.2698 24.8886 52.2216 24.8821H49.5705V26.784C49.578 26.8372 49.5738 26.8914 49.558 26.9427C49.5423 26.994 49.5154 27.0411 49.4794 27.0806C49.4433 27.12 49.3991 27.1509 49.3498 27.1709C49.3005 27.1909 49.2474 27.1995 49.1944 27.1961C49.1412 27.1993 49.0879 27.1906 49.0384 27.1707C48.9889 27.1507 48.9443 27.12 48.9078 27.0807C48.8713 27.0414 48.8438 26.9944 48.8273 26.9431C48.8108 26.8919 48.8056 26.8375 48.8121 26.784V22.1306C48.8082 22.0744 48.8164 22.0179 48.8363 21.9653C48.8562 21.9126 48.8873 21.865 48.9273 21.8257C48.9673 21.7865 49.0153 21.7565 49.0679 21.738C49.1206 21.7195 49.1766 21.7128 49.232 21.7185L52.8045 21.7312Z" fill="white"/>
<path d="M54.5594 22.0799V26.7523C54.5669 26.8055 54.5627 26.8597 54.5469 26.911C54.5312 26.9623 54.5043 27.0094 54.4683 27.0489C54.4323 27.0883 54.388 27.1192 54.3387 27.1392C54.2894 27.1592 54.2363 27.1678 54.1833 27.1644C54.1301 27.1676 54.0768 27.1589 54.0273 27.139C53.9778 27.119 53.9332 27.0883 53.8967 27.049C53.8602 27.0096 53.8328 26.9627 53.8162 26.9114C53.7997 26.8602 53.7945 26.8058 53.801 26.7523V22.0799C53.7945 22.0264 53.7997 21.972 53.8162 21.9208C53.8328 21.8695 53.8602 21.8226 53.8967 21.7832C53.9332 21.7439 53.9778 21.7132 54.0273 21.6932C54.0768 21.6733 54.1301 21.6646 54.1833 21.6678C54.2363 21.6644 54.2894 21.673 54.3387 21.693C54.388 21.713 54.4323 21.7439 54.4683 21.7833C54.5043 21.8228 54.5312 21.8699 54.5469 21.9212C54.5627 21.9725 54.5669 22.0267 54.5594 22.0799V22.0799Z" fill="white"/>
<path d="M60.3568 24.1594V26.7523C60.3568 27.0123 60.2252 27.1644 59.987 27.1644C59.9335 27.1688 59.8797 27.1609 59.8296 27.1414C59.7795 27.1218 59.7345 27.0911 59.6977 27.0515C59.661 27.0119 59.6336 26.9645 59.6174 26.9127C59.6013 26.8609 59.597 26.8061 59.6047 26.7523V25.4844H56.2579V26.7523C56.2634 26.8045 56.2577 26.8573 56.241 26.907C56.2243 26.9568 56.1971 27.0022 56.1614 27.0402C56.1256 27.0782 56.082 27.1079 56.0337 27.1272C55.9855 27.1464 55.9336 27.1548 55.8818 27.1517C55.8307 27.154 55.7798 27.145 55.7326 27.1252C55.6853 27.1055 55.6429 27.0756 55.6083 27.0375C55.5736 26.9995 55.5477 26.9543 55.5321 26.905C55.5166 26.8557 55.5119 26.8036 55.5183 26.7523V24.1594C55.5183 22.5174 56.3895 21.6234 57.9375 21.6234C59.4856 21.6234 60.3568 22.5174 60.3568 24.1594ZM59.6047 24.1594C59.6047 22.9675 59.0155 22.3525 57.9313 22.3525C56.847 22.3525 56.2579 22.9865 56.2579 24.1594V24.7933H59.6047V24.1594Z" fill="white"/>
<path d="M66.0978 22.0727V26.7071C66.104 26.7653 66.0979 26.8243 66.0799 26.88C66.0618 26.9356 66.0322 26.9868 65.9931 27.03C65.9539 27.0732 65.9061 27.1075 65.8528 27.1305C65.7995 27.1535 65.742 27.1648 65.6841 27.1635C65.6012 27.1676 65.5185 27.1512 65.4432 27.1159C65.3679 27.0805 65.3022 27.0273 65.2517 26.9607L62.0741 22.9285V26.7324C62.0805 26.7837 62.0758 26.8358 62.0602 26.8851C62.0447 26.9343 62.0187 26.9796 61.9841 27.0176C61.9495 27.0556 61.907 27.0856 61.8598 27.1053C61.8125 27.125 61.7616 27.1341 61.7105 27.1318C61.6587 27.1349 61.6069 27.1265 61.5586 27.1072C61.5103 27.088 61.4668 27.0583 61.431 27.0203C61.3952 26.9823 61.368 26.9368 61.3514 26.8871C61.3347 26.8374 61.3289 26.7846 61.3345 26.7324V22.1044C61.3283 22.0444 61.3347 21.9838 61.3534 21.9266C61.3721 21.8694 61.4026 21.8169 61.4429 21.7725C61.4832 21.7281 61.5324 21.6929 61.5872 21.6693C61.642 21.6456 61.7011 21.634 61.7607 21.6352C61.8437 21.6306 61.9265 21.6468 62.0019 21.6821C62.0773 21.7175 62.143 21.7711 62.1931 21.8381L65.3269 25.8702V22.0663C65.3194 22.0146 65.3234 21.9617 65.3385 21.9117C65.3535 21.8617 65.3794 21.8156 65.4141 21.7768C65.4488 21.7381 65.4916 21.7075 65.5394 21.6874C65.5871 21.6673 65.6387 21.6582 65.6904 21.6606C65.7458 21.652 65.8025 21.6567 65.8558 21.6743C65.9091 21.692 65.9576 21.7221 65.9973 21.7622C66.0369 21.8024 66.0667 21.8514 66.0842 21.9053C66.1016 21.9592 66.1063 22.0166 66.0978 22.0727V22.0727Z" fill="white"/>
<path d="M71.0992 26.4163C71.1478 26.4108 71.1969 26.4159 71.2433 26.4315C71.2898 26.447 71.3323 26.4725 71.368 26.5062C71.4038 26.54 71.4319 26.5811 71.4504 26.6269C71.4689 26.6727 71.4773 26.7219 71.4752 26.7713C71.4775 26.8205 71.4691 26.8696 71.4505 26.9151C71.432 26.9606 71.4037 27.0014 71.3679 27.0347C71.332 27.068 71.2893 27.0928 71.2429 27.1076C71.1965 27.1223 71.1474 27.1266 71.0992 27.12H67.2635C67.2117 27.1264 67.1591 27.1214 67.1094 27.1054C67.0596 27.0894 67.0139 27.0628 66.9752 27.0273C66.9365 26.9918 66.9059 26.9483 66.8854 26.8998C66.8648 26.8512 66.8548 26.7988 66.8561 26.746C66.8573 26.6114 66.9088 26.4823 67.0003 26.3846L70.3283 22.4159H67.3512C67.2598 22.4159 67.1721 22.3792 67.1075 22.3138C67.0428 22.2484 67.0065 22.1597 67.0065 22.0672C67.0065 21.9747 67.0428 21.886 67.1075 21.8206C67.1721 21.7552 67.2598 21.7185 67.3512 21.7185H71.0616C71.1129 21.7122 71.1649 21.717 71.2142 21.7327C71.2635 21.7483 71.3089 21.7744 71.3475 21.8092C71.386 21.844 71.4168 21.8867 71.4378 21.9344C71.4587 21.9822 71.4693 22.034 71.469 22.0862C71.4637 22.2218 71.4128 22.3515 71.3248 22.4539L67.9905 26.4163H71.0992Z" fill="white"/>
<path d="M76.9969 24.1594V26.7523C77.0038 26.8068 76.9992 26.8622 76.9833 26.9148C76.9674 26.9673 76.9406 27.0159 76.9048 27.0571C76.8689 27.0984 76.8247 27.1315 76.7752 27.1541C76.7257 27.1768 76.672 27.1885 76.6177 27.1885C76.5633 27.1885 76.5096 27.1768 76.4601 27.1541C76.4106 27.1315 76.3665 27.0984 76.3306 27.0571C76.2947 27.0159 76.2679 26.9673 76.2521 26.9148C76.2362 26.8622 76.2316 26.8068 76.2385 26.7523V25.4844H72.8917V26.7523C72.8917 26.8515 72.8527 26.9467 72.7834 27.0168C72.714 27.087 72.62 27.1264 72.5219 27.1264C72.4238 27.1264 72.3298 27.087 72.2604 27.0168C72.1911 26.9467 72.1521 26.8515 72.1521 26.7523V24.1594C72.1521 22.5174 73.0296 21.6234 74.5776 21.6234C76.1257 21.6234 76.9969 22.5174 76.9969 24.1594ZM76.2385 24.1594C76.2385 22.9675 75.6494 22.3525 74.5651 22.3525C73.4808 22.3525 72.8917 22.9865 72.8917 24.1594V24.7933H76.2385V24.1594Z" fill="white"/>
<path d="M31.838 33.9681C31.63 33.9711 31.4222 33.9542 31.2179 33.9178C31 33.8676 31 33.7593 31 33.6163V30.9953C31 30.8639 31 30.7402 31.2305 30.69C31.4405 30.6543 31.6538 30.6374 31.8674 30.6397C33.1244 30.6397 33.8326 31.235 33.8326 32.2981C33.8326 33.3612 33.0951 33.9681 31.838 33.9681ZM31.838 33.5815C32.806 33.5815 33.3172 33.1176 33.3172 32.2826C33.3172 31.4476 32.8018 30.9876 31.838 30.9876C31.6976 30.9857 31.5573 30.996 31.419 31.0185V33.5815C31.5675 33.6009 31.7175 33.6087 31.8674 33.6047L31.838 33.5815Z" fill="white"/>
<path d="M37.1428 33.8452C37.1428 33.9148 37.0967 33.965 36.9333 33.965C36.7699 33.965 36.6987 33.9225 36.661 33.8065L36.3634 33.072H34.8382L34.5407 33.8065C34.503 33.9109 34.4443 33.965 34.2809 33.965C34.1175 33.965 34.0714 33.9148 34.0714 33.8452C34.075 33.7934 34.0878 33.7425 34.1091 33.6944L35.2908 30.8763C35.362 30.7023 35.4332 30.6482 35.6176 30.6482C35.802 30.6482 35.8816 30.7139 35.9444 30.8763L37.1051 33.6944C37.1265 33.7425 37.1392 33.7934 37.1428 33.8452V33.8452ZM36.2168 32.7048L35.6092 31.1817L34.9891 32.7048H36.2168Z" fill="white"/>
<path d="M38.5926 33.7911C38.5926 33.907 38.5214 33.965 38.3664 33.965C38.2113 33.965 38.1317 33.907 38.1317 33.7911V31.0541H37.1554C37.0297 31.0541 36.9626 30.9961 36.9626 30.8647C36.9626 30.7333 37.0297 30.6753 37.1554 30.6753H39.569C39.6947 30.6753 39.7575 30.7333 39.7575 30.8647C39.7575 30.9961 39.6947 31.0541 39.569 31.0541H38.5926V33.7911Z" fill="white"/>
<path d="M41.6054 30.6134C42.6362 30.6134 43.3066 31.2822 43.3066 32.3066C43.3066 33.331 42.6362 33.9998 41.6054 33.9998C40.5746 33.9998 39.9 33.331 39.9 32.3066C39.9 31.2822 40.5704 30.6134 41.6054 30.6134ZM41.6054 33.6287C42.3429 33.6287 42.8247 33.1146 42.8247 32.3066C42.8247 31.4987 42.3429 30.9845 41.6054 30.9845C40.8679 30.9845 40.3819 31.4987 40.3819 32.3066C40.3819 33.1146 40.8637 33.6287 41.6054 33.6287Z" fill="white"/>
<path d="M43.7634 31.4832C43.7634 30.9536 44.2201 30.6134 44.9031 30.6134C45.1987 30.6128 45.4888 30.6877 45.7411 30.8299C45.8668 30.9034 45.9255 30.9652 45.9255 31.0348C45.9252 31.087 45.9048 31.1375 45.868 31.1771C45.8312 31.2167 45.7803 31.243 45.7244 31.2513C45.6783 31.2513 45.628 31.2165 45.5232 31.1624C45.337 31.0519 45.1203 30.9929 44.8989 30.9923C44.4799 30.9923 44.2201 31.1856 44.2201 31.4562C44.2201 32.152 45.9967 31.9858 45.9967 33.0604C45.9967 33.6558 45.4688 33.9998 44.7816 33.9998C44.4551 34.0046 44.1353 33.914 43.8681 33.7408C43.755 33.6635 43.6879 33.5939 43.6879 33.5166C43.6901 33.4657 43.7114 33.4171 43.7481 33.3791C43.7847 33.341 43.8346 33.3159 43.8891 33.3079C43.9561 33.3079 43.998 33.3426 44.1111 33.4122C44.3064 33.5491 44.5447 33.6237 44.7899 33.6248C45.209 33.6248 45.5358 33.4122 45.5358 33.0875C45.54 32.3221 43.7634 32.5038 43.7634 31.4832Z" fill="white"/>
<path d="M48.6491 32.9244C48.5085 32.9262 48.3681 32.9145 48.2301 32.8896V33.7903C48.2301 33.9062 48.1589 33.9642 47.9996 33.9642C47.8404 33.9642 47.765 33.9062 47.765 33.7903V30.9954C47.765 30.8639 47.765 30.7402 47.9954 30.69C48.1887 30.6551 48.3852 30.6383 48.5821 30.6397C49.4201 30.6397 50.0361 30.9915 50.0361 31.7685C50.0361 32.5455 49.4369 32.9244 48.6491 32.9244ZM48.5988 32.5571C49.1938 32.5571 49.5458 32.2865 49.5458 31.784C49.5458 31.2814 49.1268 31.0108 48.5737 31.0108C48.4569 31.0103 48.3404 31.0207 48.2259 31.0417V32.5223C48.3485 32.5465 48.4735 32.5582 48.5988 32.5571V32.5571Z" fill="white"/>
<path d="M52.2485 32.0554C52.2752 32.0527 52.3023 32.0558 52.3276 32.0643C52.3528 32.0728 52.3757 32.0865 52.3943 32.1045C52.4129 32.1224 52.4268 32.144 52.4349 32.1677C52.4431 32.1913 52.4452 32.2164 52.4412 32.2409C52.4412 32.3685 52.3742 32.4342 52.2485 32.4342H51.0417V33.5591H52.5041C52.6298 33.5591 52.6968 33.6171 52.6968 33.7486C52.6968 33.88 52.6298 33.9418 52.5041 33.9418H50.828C50.6604 33.9418 50.5892 33.8761 50.5892 33.7176V30.8956C50.5892 30.741 50.6604 30.6753 50.828 30.6753H52.458C52.5837 30.6753 52.6466 30.7333 52.6466 30.8647C52.6466 30.9961 52.5837 31.0541 52.458 31.0541H51.0417V32.0554H52.2485Z" fill="white"/>
<path d="M55.6803 33.8483C55.6803 33.9256 55.6216 33.9642 55.4624 33.9642C55.3892 33.97 55.3159 33.9539 55.2533 33.9185C55.1907 33.883 55.1421 33.8299 55.1146 33.7671L54.331 32.7272C54.2173 32.743 54.1024 32.7508 53.9874 32.7504H53.7193V33.8057C53.7193 33.9217 53.648 33.9797 53.4972 33.9797C53.3463 33.9797 53.2751 33.9217 53.2751 33.8057V30.9953C53.2751 30.8523 53.2751 30.7441 53.5098 30.6938C53.6982 30.6555 53.8908 30.6374 54.0838 30.6397C54.9218 30.6397 55.5001 30.9953 55.5001 31.668C55.5077 31.8791 55.4406 32.0868 55.3091 32.2597C55.1776 32.4326 54.9888 32.5614 54.771 32.6267L55.5378 33.6047C55.6551 33.7555 55.6803 33.8057 55.6803 33.8483ZM54.0042 32.3831C54.6788 32.3831 55.0224 32.1203 55.0224 31.6873C55.0224 31.2543 54.6537 31.0108 54.0796 31.0108C53.9614 31.009 53.8434 31.0194 53.7276 31.0417V32.3677C53.8114 32.3754 53.912 32.3831 54.0042 32.3831V32.3831Z" fill="white"/>
<path d="M56.0951 31.4832C56.0951 30.9536 56.5518 30.6134 57.2348 30.6134C57.5305 30.6128 57.8206 30.6877 58.0729 30.8299C58.1986 30.9034 58.2572 30.9652 58.2572 31.0348C58.257 31.087 58.2366 31.1375 58.1997 31.1771C58.1629 31.2167 58.112 31.243 58.0561 31.2513C58.01 31.2513 57.9597 31.2165 57.855 31.1624C57.6687 31.0519 57.4521 30.9929 57.2306 30.9923C56.8116 30.9923 56.556 31.1856 56.556 31.4562C56.556 32.152 58.3285 31.9858 58.3285 33.0604C58.3285 33.6558 57.8005 33.9998 57.1133 33.9998C56.7868 34.0046 56.4671 33.914 56.1998 33.7408C56.0867 33.6635 56.0197 33.5939 56.0197 33.5166C56.0227 33.4659 56.0442 33.4177 56.0807 33.3798C56.1172 33.3419 56.1666 33.3165 56.2208 33.3079C56.2878 33.3079 56.3297 33.3426 56.4471 33.4122C56.6405 33.5496 56.8776 33.6243 57.1217 33.6248C57.5407 33.6248 57.8675 33.4122 57.8675 33.0875C57.8717 32.3221 56.0951 32.5038 56.0951 31.4832Z" fill="white"/>
<path d="M60.4739 30.6134C61.5046 30.6134 62.1751 31.2822 62.1751 32.3066C62.1751 33.331 61.5046 33.9998 60.4739 33.9998C59.4431 33.9998 58.7684 33.331 58.7684 32.3066C58.7684 31.2822 59.4389 30.6134 60.4739 30.6134ZM60.4739 33.6287C61.2113 33.6287 61.6932 33.1146 61.6932 32.3066C61.6932 31.4987 61.2113 30.9845 60.4739 30.9845C59.7364 30.9845 59.2503 31.4987 59.2503 32.3066C59.2503 33.1146 59.7322 33.6287 60.4739 33.6287Z" fill="white"/>
<path d="M63.2645 33.7911C63.2645 33.907 63.1933 33.965 63.0466 33.965C62.9 33.965 62.8246 33.907 62.8246 33.7911V30.8763C62.8246 30.7178 62.9251 30.6405 63.1221 30.6405C63.2075 30.6326 63.2936 30.6491 63.3685 30.6879C63.4435 30.7266 63.5037 30.7856 63.5411 30.857L65.2465 33.3349V30.8261C65.2465 30.7101 65.3177 30.6482 65.4644 30.6482C65.611 30.6482 65.6907 30.7101 65.6907 30.8261V33.7292C65.6907 33.8916 65.5943 33.965 65.4183 33.965C65.3381 33.9652 65.2596 33.9442 65.192 33.9045C65.1245 33.8647 65.0706 33.8079 65.037 33.7408L63.2645 31.2281V33.7911Z" fill="white"/>
<path d="M69.2733 33.8452C69.2733 33.9148 69.223 33.965 69.0596 33.965C68.8962 33.965 68.8249 33.9225 68.7872 33.8065L68.4939 33.072H66.9687L66.667 33.8065C66.6293 33.9109 66.5706 33.965 66.4072 33.965C66.2438 33.965 66.1977 33.9148 66.1977 33.8452C66.2026 33.7932 66.2168 33.7422 66.2396 33.6944L67.4212 30.8763C67.4924 30.7023 67.5595 30.6482 67.748 30.6482C67.9366 30.6482 68.0078 30.7139 68.0749 30.8763L69.2356 33.6944C69.2569 33.7425 69.2696 33.7934 69.2733 33.8452V33.8452ZM68.3472 32.7048L67.7355 31.1817L67.1153 32.7048H68.3472Z" fill="white"/>
<path d="M71.5527 33.5591C71.6784 33.5591 71.7455 33.6171 71.7455 33.7485C71.7455 33.88 71.6784 33.9418 71.5527 33.9418H70.0526C69.8808 33.9418 69.8096 33.8761 69.8096 33.7176V30.826C69.8096 30.7101 69.8808 30.6482 70.0401 30.6482C70.1993 30.6482 70.2747 30.7101 70.2747 30.826V33.5591H71.5527Z" fill="white"/>
<path d="M73.9118 32.0554C73.9386 32.0527 73.9656 32.0558 73.9909 32.0643C74.0162 32.0728 74.039 32.0865 74.0576 32.1045C74.0762 32.1224 74.0901 32.144 74.0983 32.1677C74.1064 32.1913 74.1086 32.2164 74.1046 32.2409C74.1046 32.3685 74.0375 32.4342 73.9118 32.4342H72.705V33.5591H74.159C74.2848 33.5591 74.3518 33.6171 74.3518 33.7486C74.3518 33.88 74.2848 33.9418 74.159 33.9418H72.483C72.3154 33.9418 72.2441 33.8761 72.2441 33.7176V30.8956C72.2441 30.741 72.3154 30.6753 72.483 30.6753H74.113C74.2387 30.6753 74.3057 30.7333 74.3057 30.8647C74.3057 30.9961 74.2387 31.0541 74.113 31.0541H72.705V32.0554H73.9118Z" fill="white"/>
<path d="M74.7666 31.4832C74.7666 30.9536 75.2276 30.6134 75.9064 30.6134C76.202 30.613 76.492 30.6879 76.7444 30.8299C76.8701 30.9034 76.9288 30.9652 76.9288 31.0348C76.9285 31.087 76.9081 31.1375 76.8713 31.1771C76.8344 31.2167 76.7835 31.243 76.7276 31.2513C76.6774 31.2513 76.6271 31.2165 76.5265 31.1624C76.3388 31.0518 76.1208 30.9928 75.898 30.9923C75.479 30.9923 75.2234 31.1856 75.2234 31.4562C75.2234 32.152 77 31.9858 77 33.0604C77 33.6558 76.472 33.9998 75.7849 33.9998C75.4572 34.0039 75.1363 33.9133 74.8672 33.7408C74.7541 33.6635 74.6912 33.5939 74.6912 33.5166C74.6934 33.4657 74.7147 33.4171 74.7513 33.3791C74.788 33.341 74.8378 33.3159 74.8923 33.3079C74.9552 33.3079 75.0013 33.3426 75.1144 33.4122C75.3081 33.5491 75.5451 33.6237 75.789 33.6248C76.2081 33.6248 76.5349 33.4122 76.5349 33.0875C76.5433 32.3221 74.7666 32.5038 74.7666 31.4832Z" fill="white"/>
<path fill-rule="evenodd" clip-rule="evenodd" d="M31 28.861C31 28.7229 31.1119 28.611 31.25 28.611L76.75 28.611C76.8881 28.611 77 28.7229 77 28.861C77 28.9991 76.8881 29.111 76.75 29.111L31.25 29.111C31.1119 29.111 31 28.9991 31 28.861Z" fill="white"/>
</g>
<defs>
<clipPath id="clip0_3_19">
<rect width="77" height="34" fill="white"/>
</clipPath>
</defs>
</svg>
