<svg width="39" height="47" viewBox="0 0 39 47" fill="none" xmlns="http://www.w3.org/2000/svg">
<path d="M36.3941 0.172546H9.84558C8.41983 0.172546 7.23989 1.35248 7.23989 2.77824V7.05551H2.96263C1.53687 7.05551 0.356934 8.23544 0.356934 9.6612V44.3218C0.356934 45.7476 1.53687 46.9275 2.96263 46.9275H29.5112C30.9369 46.9275 32.1169 45.7476 32.1169 44.3218V40.0445H36.3941C37.8199 40.0445 38.9998 38.8646 38.9998 37.4389V2.77824C38.9507 1.35248 37.8199 0.172546 36.3941 0.172546ZM30.0028 44.2726C30.0028 44.5185 29.8062 44.7151 29.5112 44.7151H2.96263C2.71681 44.7151 2.52015 44.5185 2.52015 44.2726V9.61203C2.52015 9.36621 2.71681 9.16956 2.96263 9.16956H7.23989V37.4389C7.23989 38.8646 8.41983 40.0445 9.84558 40.0445H30.0028V44.2726ZM36.8366 37.4389C36.8366 37.6847 36.64 37.9305 36.345 37.9305H9.84558C9.59976 37.9305 9.35394 37.7338 9.35394 37.4389V2.77824C9.35394 2.53242 9.5506 2.2866 9.84558 2.2866H36.3941C36.64 2.2866 36.8858 2.48325 36.8858 2.77824V37.4389H36.8366Z" fill="#002A61"/>
<path d="M30.9863 25.0986H15.2047C14.6147 25.0986 14.123 25.5903 14.123 26.1802C14.123 26.7702 14.6147 27.2618 15.2047 27.2618H30.9863C31.5763 27.2618 32.0679 26.7702 32.0679 26.1802C32.0679 25.5903 31.5763 25.0986 30.9863 25.0986Z" fill="#002A61"/>
<path d="M30.9863 31.49H15.2047C14.6147 31.49 14.123 31.9816 14.123 32.5716C14.123 33.1616 14.6147 33.6532 15.2047 33.6532H30.9863C31.5763 33.6532 32.0679 33.1616 32.0679 32.5716C32.0679 31.9816 31.5763 31.49 30.9863 31.49Z" fill="#002A61"/>
<path d="M30.9863 18.7565H15.2047C14.6147 18.7565 14.123 19.2482 14.123 19.8381C14.123 20.4281 14.6147 20.9197 15.2047 20.9197H30.9863C31.5763 20.9197 32.0679 20.4281 32.0679 19.8381C32.0679 19.199 31.5763 18.7565 30.9863 18.7565Z" fill="#002A61"/>
<path d="M17.0725 14.6759H18.9899C19.2357 14.6759 19.3832 14.4792 19.3832 14.2825V11.2344C19.3832 10.9886 19.1866 10.8411 18.9899 10.8411H17.0725C16.8267 10.8411 16.6792 11.0377 16.6792 11.2344V14.2825C16.6792 14.4792 16.8759 14.6759 17.0725 14.6759Z" fill="#002A61"/>
<path d="M21.8416 14.676H23.759C24.0048 14.676 24.1523 14.4793 24.1523 14.2826V9.0221C24.1523 8.77628 23.9556 8.62878 23.759 8.62878H21.8416C21.5957 8.62878 21.4482 8.82544 21.4482 9.0221V14.2335C21.4482 14.4793 21.6449 14.676 21.8416 14.676Z" fill="#002A61"/>
<path d="M26.6101 14.6759H28.5275C28.7733 14.6759 28.9208 14.4793 28.9208 14.2826V6.90802C28.9208 6.71137 28.7242 6.51471 28.5275 6.51471H26.6101C26.3643 6.51471 26.2168 6.71137 26.2168 6.90802V14.2826C26.2168 14.4793 26.4135 14.6759 26.6101 14.6759Z" fill="#002A61"/>
</svg>
