<svg width="40" height="46" viewBox="0 0 40 46" fill="none" xmlns="http://www.w3.org/2000/svg">
<path d="M38.8599 6.49059L38.86 6.49061C39.2696 6.61424 39.55 6.98927 39.55 7.41668V27.5833C39.55 31.6613 36.4431 35.5033 32.5234 38.5782C28.6012 41.6552 23.8511 43.9753 20.5362 45.0074L38.8599 6.49059ZM38.8599 6.49059L20.5266 0.990587L20.5265 0.990558M38.8599 6.49059L20.5265 0.990558M20.5265 0.990558C20.3449 0.93648 20.1534 0.936482 19.9717 0.990556L19.9716 0.990587M20.5265 0.990558L19.9716 0.990587M19.9716 0.990587L1.63839 6.49057M19.9716 0.990587L1.63839 6.49057M1.63839 6.49057C1.23023 6.61242 0.95 6.98947 0.95 7.41668V27.5834C0.95 31.6614 4.05693 35.5038 7.97659 38.579C11.8988 41.6561 16.649 43.9763 19.9639 45.0074C20.057 45.0366 20.1538 45.05 20.25 45.05C20.3462 45.05 20.443 45.0366 20.5362 45.0074L1.63839 6.49057ZM37.6167 27.5833C37.6167 29.1792 36.9844 30.7995 35.919 32.3706C34.8536 33.9415 33.3571 35.4605 31.6336 36.8527C28.1915 39.6333 23.8502 41.9035 20.25 43.0701C16.6499 41.9035 12.3086 39.6333 8.8664 36.8527C7.14295 35.4605 5.64639 33.9415 4.58104 32.3706C3.51558 30.7995 2.88331 29.1792 2.88331 27.5833V8.13588L20.25 2.92588L37.6167 8.13588V27.5833Z" fill="#002A61" stroke="#002A61" stroke-width="0.1"/>
<path d="M20.25 11.95C14.6619 11.95 10.1167 16.4952 10.1167 22.0833C10.1167 27.6714 14.6619 32.2167 20.25 32.2167C25.8382 32.2167 30.3833 27.6715 30.3833 22.0834C30.3833 16.4953 25.8382 11.95 20.25 11.95ZM20.25 30.2833C15.7292 30.2833 12.0501 26.6042 12.0501 22.0833C12.0501 17.5624 15.7292 13.8833 20.25 13.8833C24.7709 13.8833 28.45 17.5624 28.45 22.0833C28.45 26.6042 24.7709 30.2833 20.25 30.2833Z" fill="#002A61" stroke="#002A61" stroke-width="0.1"/>
<path d="M17.7322 26.4344L17.7324 26.4346C17.9218 26.6219 18.1691 26.7168 18.4166 26.7168C18.664 26.7168 18.9115 26.6221 19.0991 26.4344L26.4325 19.1011C26.8095 18.7241 26.8095 18.1112 26.4325 17.7342C26.0554 17.3572 25.4426 17.3572 25.0656 17.7342L18.4166 24.3832L15.4324 21.4008C15.4324 21.4008 15.4324 21.4008 15.4324 21.4008C15.0554 21.0238 14.4426 21.0238 14.0655 21.4008C13.6885 21.7778 13.6885 22.3907 14.0655 22.7677L17.7322 26.4344Z" fill="#002A61" stroke="#002A61" stroke-width="0.1"/>
</svg>