<svg width="40" height="50" viewBox="0 0 40 50" fill="none" xmlns="http://www.w3.org/2000/svg">
<path d="M18.5772 10.7016H19.3156V12.8447H15.8006C15.4224 12.8447 15.1163 13.1589 15.1163 13.5464C15.1163 13.934 15.4224 14.2481 15.8006 14.2481H19.3156V14.2982C19.3156 14.6857 19.6217 14.9999 19.9999 14.9999C20.3782 14.9999 20.6842 14.6857 20.6842 14.2982V14.2481H21.4227C23.8692 14.2481 25.7142 13.1843 25.7142 11.7733C25.7142 10.3624 23.8692 9.29817 21.4227 9.29817H20.6842V7.15502H24.1993C24.5775 7.15502 24.8836 6.84083 24.8836 6.45331C24.8836 6.0658 24.5775 5.75161 24.1993 5.75161H20.6842V5.70158C20.6842 5.31407 20.3782 4.99988 19.9999 4.99988C19.6217 4.99988 19.3156 5.31407 19.3156 5.70158V5.75161H18.5772C16.1307 5.75161 14.2856 6.81547 14.2856 8.22642C14.2856 9.63738 16.1307 10.7016 18.5772 10.7016ZM20.6842 10.7016H21.4227C23.2076 10.7016 24.3456 11.4053 24.3456 11.7733C24.3456 12.1413 23.2076 12.8447 21.4227 12.8447H20.6842V10.7016ZM18.5772 7.15502H19.3156V9.29817H18.5772C16.7923 9.29817 15.6542 8.59441 15.6542 8.22642C15.6542 7.85844 16.7923 7.15502 18.5772 7.15502Z" fill="#002A61"/>
<path d="M20 49.2857C31.215 49.2857 40 45.2768 40 40.1592V9.84069C40 4.72307 31.215 0.714233 20 0.714233C8.78496 0.714233 0 4.72307 0 9.84069V40.1592C0 45.2768 8.78496 49.2857 20 49.2857ZM20 2.26903C30.0145 2.26903 38.4748 5.73657 38.4748 9.84069C38.4748 13.9448 30.0145 17.4123 20 17.4123C9.98548 17.4123 1.52523 13.9448 1.52523 9.84069C1.52523 5.73657 9.98548 2.26903 20 2.26903ZM1.52523 13.399C4.50796 16.6997 11.5662 18.9671 20 18.9671C28.4338 18.9671 35.492 16.6997 38.4748 13.399V16.8373C38.4748 20.9414 30.0145 24.4089 20 24.4089C9.98548 24.4089 1.52523 20.9414 1.52523 16.8373V13.399ZM1.52523 20.3955C4.50796 23.6963 11.5662 25.9637 20 25.9637C28.4338 25.9637 35.492 23.6963 38.4748 20.3955V24.6112C38.4748 28.7154 30.0145 32.1829 20 32.1829C9.98548 32.1829 1.52523 28.7154 1.52523 24.6112V20.3955ZM1.52523 28.1695C4.50796 31.4703 11.5662 33.7377 20 33.7377C28.4338 33.7377 35.492 31.4703 38.4748 28.1695V32.3852C38.4748 36.4893 30.0145 39.9569 20 39.9569C9.98548 39.9569 1.52523 36.4893 1.52523 32.3852V28.1695ZM1.52523 35.9435C4.50796 39.2443 11.5662 41.5117 20 41.5117C28.4338 41.5117 35.492 39.2443 38.4748 35.9435V40.1592C38.4748 44.2633 30.0145 47.7309 20 47.7309C9.98548 47.7309 1.52523 44.2633 1.52523 40.1592V35.9435Z" fill="#002A61"/>
</svg>
