<svg width="40" height="38" viewBox="0 0 40 38" fill="none" xmlns="http://www.w3.org/2000/svg">
<path d="M39.3103 8.36639H37.1241L32.4966 0.352595C32.4501 0.273142 32.3893 0.202991 32.3172 0.145698C32.2095 0.0616973 32.0792 0.0116075 31.9429 0.00178459C31.8066 -0.00803834 31.6704 0.0228485 31.5517 0.0905256L27.9655 2.15949L17.2414 8.36639H0.689655C0.506747 8.36639 0.331331 8.43905 0.201995 8.56838C0.0726599 8.69772 0 8.87313 0 9.05604V28.3664C0 28.5493 0.0726599 28.7247 0.201995 28.854C0.331331 28.9834 0.506747 29.056 0.689655 29.056H2.87586L7.51034 37.0698C7.60132 37.2276 7.751 37.3429 7.92671 37.3907C8.10243 37.4386 8.28992 37.4149 8.44828 37.325L22.7586 29.056H39.3103C39.4933 29.056 39.6687 28.9834 39.798 28.854C39.9273 28.7247 40 28.5493 40 28.3664V9.05604C40 8.87313 39.9273 8.69772 39.798 8.56838C39.6687 8.43905 39.4933 8.36639 39.3103 8.36639ZM34.5379 27.6767H5.46207C5.31237 26.6471 4.83404 25.6934 4.09833 24.9577C3.36263 24.222 2.40893 23.7437 1.37931 23.594V13.8285C2.40893 13.6788 3.36263 13.2004 4.09833 12.4647C4.83404 11.729 5.31237 10.7753 5.46207 9.7457H34.5379C34.6876 10.7753 35.166 11.729 35.9017 12.4647C36.6374 13.2004 37.5911 13.6788 38.6207 13.8285V23.594C37.5911 23.7437 36.6374 24.222 35.9017 24.9577C35.166 25.6934 34.6876 26.6471 34.5379 27.6767ZM38.6207 12.4354C37.958 12.3002 37.3497 11.9732 36.8715 11.4949C36.3932 11.0167 36.0662 10.4084 35.931 9.7457H38.6207V12.4354ZM31.6414 1.63535L32.9862 3.96639C32.3453 4.17938 31.6559 4.19946 31.0037 4.02414C30.3514 3.84882 29.765 3.48581 29.3172 2.98018L31.6414 1.63535ZM28.1034 3.70432C28.7482 4.52345 29.6407 5.11188 30.6477 5.38164C31.6546 5.6514 32.7218 5.58798 33.6897 5.20087L35.531 8.36639H20L28.1034 3.70432ZM1.37931 9.7457H4.06897C3.93382 10.4084 3.60677 11.0167 3.12854 11.4949C2.65031 11.9732 2.04199 12.3002 1.37931 12.4354V9.7457ZM1.37931 24.9871C2.04199 25.1222 2.65031 25.4493 3.12854 25.9275C3.60677 26.4057 3.93382 27.014 4.06897 27.6767H1.37931V24.9871ZM7.01379 33.456C7.65473 33.243 8.3441 33.223 8.99634 33.3983C9.64859 33.5736 10.235 33.9366 10.6828 34.4422L8.35862 35.7871L7.01379 33.456ZM11.8897 33.7457C11.2458 32.9295 10.3556 32.343 9.35163 32.0733C8.34762 31.8037 7.28339 31.8654 6.31724 32.2491L4.46897 29.056H20L11.8897 33.7457ZM38.6207 27.6767H35.931C36.0662 27.014 36.3932 26.4057 36.8715 25.9275C37.3497 25.4493 37.958 25.1222 38.6207 24.9871V27.6767Z" fill="#002A61"/>
<path d="M36.8275 14.7457C35.3923 14.1195 34.2468 12.974 33.6206 11.5388C33.5668 11.4154 33.478 11.3105 33.3653 11.237C33.2525 11.1635 33.1207 11.1245 32.9861 11.125H7.01372C6.87912 11.1245 6.74733 11.1635 6.63458 11.237C6.52184 11.3105 6.43308 11.4154 6.37924 11.5388C5.75306 12.974 4.60755 14.1195 3.17234 14.7457C3.04898 14.7995 2.94407 14.8883 2.87054 15.001C2.79701 15.1138 2.75808 15.2456 2.75855 15.3802V22.0422C2.75808 22.1768 2.79701 22.3086 2.87054 22.4214C2.94407 22.5341 3.04898 22.6229 3.17234 22.6767C4.60755 23.3029 5.75306 24.4484 6.37924 25.8836C6.43308 26.007 6.52184 26.1119 6.63458 26.1854C6.74733 26.259 6.87912 26.2979 7.01372 26.2974H32.9861C33.1207 26.2979 33.2525 26.259 33.3653 26.1854C33.478 26.1119 33.5668 26.007 33.6206 25.8836C34.2468 24.4484 35.3923 23.3029 36.8275 22.6767C36.9509 22.6229 37.0558 22.5341 37.1293 22.4214C37.2028 22.3086 37.2418 22.1768 37.2413 22.0422V15.3802C37.2418 15.2456 37.2028 15.1138 37.1293 15.001C37.0558 14.8883 36.9509 14.7995 36.8275 14.7457ZM25.2827 21.9526C25.0438 21.1634 24.6312 20.4379 24.075 19.8292C23.5189 19.2205 22.8333 18.7442 22.0689 18.4353C22.42 18.0372 22.6488 17.5461 22.7278 17.0212C22.8068 16.4962 22.7327 15.9596 22.5142 15.4757C22.2958 14.9918 21.9424 14.5813 21.4964 14.2933C21.0504 14.0053 20.5308 13.8521 19.9999 13.8521C19.469 13.8521 18.9494 14.0053 18.5034 14.2933C18.0575 14.5813 17.704 14.9918 17.4856 15.4757C17.2672 15.9596 17.193 16.4962 17.272 17.0212C17.351 17.5461 17.5798 18.0372 17.931 18.4353C17.1683 18.7466 16.4851 19.2247 15.9313 19.8346C15.3776 20.4444 14.9674 21.1704 14.731 21.9595C12.1379 17.9733 15.2413 12.4147 19.9999 12.5043C24.7585 12.4147 27.862 17.9733 25.2827 21.9526ZM19.4068 24.9181C18.0844 24.7831 16.841 24.2243 15.862 23.325C16.262 18.1388 23.731 18.1388 24.1379 23.325C23.5025 23.9036 22.7539 24.3439 21.9396 24.6181C21.1252 24.8924 20.2627 24.9945 19.4068 24.9181ZM18.6206 16.6422C18.6206 16.2764 18.7659 15.9256 19.0246 15.6669C19.2833 15.4083 19.6341 15.2629 19.9999 15.2629C20.3657 15.2629 20.7166 15.4083 20.9752 15.6669C21.2339 15.9256 21.3792 16.2764 21.3792 16.6422C21.3792 17.0081 21.2339 17.3589 20.9752 17.6176C20.7166 17.8762 20.3657 18.0216 19.9999 18.0216C19.6341 18.0216 19.2833 17.8762 19.0246 17.6176C18.7659 17.3589 18.6206 17.0081 18.6206 16.6422ZM7.4482 24.9181C6.72134 23.4933 5.5627 22.3346 4.13786 21.6078V15.8147C5.5627 15.0878 6.72134 13.9292 7.4482 12.5043H15.6551C11.4206 15.3112 11.331 22.056 15.6551 24.9181H7.4482ZM35.862 21.6078C34.4372 22.3346 33.2785 23.4933 32.5517 24.9181H24.3448C28.6689 22.056 28.5792 15.3043 24.3448 12.5043H32.5517C33.2785 13.9292 34.4372 15.0878 35.862 15.8147V21.6078Z" fill="#002A61"/>
</svg>
