<svg width="70" height="73" viewBox="0 0 70 73" fill="none" xmlns="http://www.w3.org/2000/svg">
<path d="M22.1667 30.75H5.83352C4.28701 30.7519 2.80437 31.367 1.71082 32.4606C0.617267 33.5541 0.00209662 35.0368 0.000244141 36.5833V66.9163C0.00209662 68.4628 0.617267 69.9455 1.71082 71.039C2.80437 72.1326 4.28701 72.7478 5.83352 72.7496H22.1667C23.7132 72.7478 25.1959 72.1326 26.2894 71.039C27.383 69.9455 27.9981 68.4628 28 66.9163V36.5833C27.9981 35.0368 27.383 33.5541 26.2894 32.4606C25.1959 31.367 23.7132 30.7519 22.1667 30.75ZM25.6667 66.9163C25.6667 67.8446 25.2979 68.7348 24.6416 69.3912C23.9852 70.0476 23.095 70.4163 22.1667 70.4163H5.83352C4.90527 70.4163 4.01504 70.0476 3.35867 69.3912C2.7023 68.7348 2.33356 67.8446 2.33356 66.9163V36.5833C2.33356 35.655 2.7023 34.7648 3.35867 34.1084C4.01504 33.4521 4.90527 33.0833 5.83352 33.0833H22.1667C23.095 33.0833 23.9852 33.4521 24.6416 34.1084C25.2979 34.7648 25.6667 35.655 25.6667 36.5833V66.9163Z" fill="white"/>
<path d="M16.3331 65.75H11.6665V68.0833H16.3331V65.75Z" fill="white"/>
<path d="M8.16705 35.416H5.83374V37.7493H8.16705V35.416Z" fill="white"/>
<path d="M17.5002 35.416H10.5002V37.7493H17.5002V35.416Z" fill="white"/>
<path d="M9.33356 45.917H7.00024V48.2503H9.33356V45.917Z" fill="white"/>
<path d="M20.9998 45.917H11.6665V48.2503H20.9998V45.917Z" fill="white"/>
<path d="M21.0001 50.583H7.00024V52.9163H21.0001V50.583Z" fill="white"/>
<path d="M21.0001 55.25H7.00024V57.5833H21.0001V55.25Z" fill="white"/>
<path d="M64.1667 30.75H47.8335C46.287 30.7519 44.8044 31.367 43.7108 32.4606C42.6173 33.5541 42.0021 35.0368 42.0002 36.5833V66.9163C42.0021 68.4628 42.6173 69.9455 43.7108 71.039C44.8044 72.1326 46.287 72.7478 47.8335 72.7496H64.1667C65.7132 72.7478 67.1959 72.1326 68.2894 71.039C69.383 69.9455 69.9981 68.4628 70 66.9163V36.5833C69.9981 35.0368 69.383 33.5541 68.2894 32.4606C67.1959 31.367 65.7132 30.7519 64.1667 30.75ZM67.6667 66.9163C67.6667 67.8446 67.2979 68.7348 66.6416 69.3912C65.9852 70.0476 65.095 70.4163 64.1667 70.4163H47.8335C46.9053 70.4163 46.015 70.0476 45.3587 69.3912C44.7023 68.7348 44.3336 67.8446 44.3336 66.9163V36.5833C44.3336 35.655 44.7023 34.7648 45.3587 34.1084C46.015 33.4521 46.9053 33.0833 47.8335 33.0833H64.1667C65.095 33.0833 65.9852 33.4521 66.6416 34.1084C67.2979 34.7648 67.6667 35.655 67.6667 36.5833V66.9163Z" fill="white"/>
<path d="M58.3336 65.75H53.667V68.0833H58.3336V65.75Z" fill="white"/>
<path d="M50.1661 35.416H47.8328V37.7493H50.1661V35.416Z" fill="white"/>
<path d="M59.4997 35.416H52.4998V37.7493H59.4997V35.416Z" fill="white"/>
<path d="M51.3326 45.917H48.9993V48.2503H51.3326V45.917Z" fill="white"/>
<path d="M63.0002 45.917H53.667V48.2503H63.0002V45.917Z" fill="white"/>
<path d="M62.9991 50.583H48.9993V52.9163H62.9991V50.583Z" fill="white"/>
<path d="M62.9991 55.25H48.9993V57.5833H62.9991V55.25Z" fill="white"/>
<path d="M47.5 12.7499C47.5 10.2776 46.7669 7.86092 45.3934 5.80533C44.0199 3.74973 42.0677 2.14759 39.7836 1.2015C37.4996 0.255416 34.9863 0.00787663 32.5615 0.490187C30.1368 0.972498 27.9095 2.163 26.1614 3.91114C24.4132 5.65928 23.2227 7.88654 22.7404 10.3113C22.2581 12.736 22.5057 15.2493 23.4517 17.5334C24.3978 19.8174 26 21.7697 28.0556 23.1432C30.1112 24.5167 32.5279 25.2498 35.0001 25.2498C38.3142 25.2461 41.4915 23.928 43.8349 21.5846C46.1783 19.2412 47.4964 16.0639 47.5 12.7499ZM35.0001 22.7498C33.0223 22.7498 31.089 22.1633 29.4445 21.0645C27.8 19.9657 26.5183 18.4039 25.7614 16.5767C25.0046 14.7494 24.8065 12.7388 25.1924 10.799C25.5782 8.85921 26.5306 7.0774 27.9291 5.67889C29.3276 4.28038 31.1095 3.32798 33.0492 2.94213C34.989 2.55628 36.9997 2.75431 38.8269 3.51118C40.6542 4.26805 42.2159 5.54976 43.3148 7.19424C44.4136 8.83871 45 10.7721 45 12.7499C44.9971 15.4011 43.9425 17.9429 42.0678 19.8176C40.1931 21.6923 37.6514 22.7468 35.0001 22.7498Z" fill="white"/>
<path d="M34.2339 8.53732V9.09837C33.2291 9.39325 32.5 10.2515 32.5 11.2628C32.5 12.5166 33.6216 13.5373 34.9998 13.5373C35.5244 13.5373 35.9678 13.8585 35.9678 14.2391C35.9678 14.6197 35.5244 14.9409 34.9998 14.9409C34.5135 14.9409 34.1608 14.6743 34.0631 14.4113C33.9123 14.0051 33.4688 13.8015 33.0748 13.956C32.6796 14.1105 32.4812 14.5646 32.6317 14.9708C32.8894 15.6659 33.4929 16.1884 34.2343 16.4043V16.9645C34.2343 17.3986 34.5774 17.7509 35.0002 17.7509C35.4229 17.7509 35.766 17.3986 35.766 16.9645V16.4035C36.7709 16.1086 37.5 15.2503 37.5 14.2395C37.5 12.9857 36.3783 11.965 35.0002 11.965C34.4756 11.965 34.0321 11.6438 34.0321 11.2632C34.0321 10.8826 34.4756 10.5614 35.0002 10.5614C35.5244 10.5614 35.8828 10.8617 35.9533 11.1444C36.0586 11.5647 36.4748 11.8191 36.8861 11.7102C37.2955 11.6021 37.5425 11.1735 37.4372 10.7528C37.2361 9.94998 36.5901 9.33899 35.766 9.10034V8.53732C35.766 8.10326 35.4229 7.75098 35.0002 7.75098C34.5774 7.75098 34.2339 8.10326 34.2339 8.53732Z" fill="white"/>
<path d="M52.8415 18.7414L54.4912 17.0917L52.9827 15.5832H57.1663C57.4758 15.5832 57.7725 15.7062 57.9913 15.925C58.2101 16.1437 58.333 16.4405 58.333 16.7499V28.4165H60.6663V16.7499C60.6663 15.8217 60.2976 14.9314 59.6412 14.2751C58.9848 13.6187 58.0946 13.2499 57.1663 13.2499H52.9827L54.4912 11.7414L52.8415 10.0918L49.3416 13.5918C49.1229 13.8105 49 14.1072 49 14.4166C49 14.7259 49.1229 15.0226 49.3416 15.2414L52.8415 18.7414Z" fill="white"/>
<path d="M65.3331 26.083H62.9998V28.4163H65.3331V26.083Z" fill="white"/>
<path d="M65.3331 21.416H62.9998V23.7493H65.3331V21.416Z" fill="white"/>
<path d="M65.3331 16.75H62.9998V19.0833H65.3331V16.75Z" fill="white"/>
<path d="M11.6663 16.7499C11.6663 16.4405 11.7892 16.1437 12.008 15.925C12.2268 15.7062 12.5236 15.5832 12.833 15.5832H17.0166L15.5081 17.0917L17.1589 18.7414L20.6589 15.2414C20.8776 15.0226 21.0005 14.7259 21.0005 14.4166C21.0005 14.1072 20.8776 13.8105 20.6589 13.5918L17.1589 10.0918L15.5081 11.7414L17.0166 13.2499H12.833C11.9047 13.2499 11.0145 13.6187 10.3581 14.2751C9.70175 14.9314 9.33301 15.8217 9.33301 16.7499V28.4165H11.6663V16.7499Z" fill="white"/>
<path d="M7.0003 26.083H4.66699V28.4163H7.0003V26.083Z" fill="white"/>
<path d="M7.0003 21.416H4.66699V23.7493H7.0003V21.416Z" fill="white"/>
<path d="M7.0003 16.75H4.66699V19.0833H7.0003V16.75Z" fill="white"/>
</svg>
