<svg width="55" height="57" viewBox="0 0 55 57" fill="none" xmlns="http://www.w3.org/2000/svg">
<g clip-path="url(#clip0)">
<path d="M31.9672 20.7232C31.9794 20.7049 31.9855 20.6866 31.9978 20.6743C33.6671 21.6768 35.6238 22.2575 37.7089 22.2575C43.8481 22.2575 48.8378 17.2635 48.8378 11.1326C48.8378 4.99565 43.842 0.0078125 37.7089 0.0078125C31.5697 0.0078125 26.5801 5.00176 26.5801 11.1326C26.5801 14.3112 27.9253 17.1841 30.0716 19.2134C30.0288 19.2623 29.986 19.3051 29.9493 19.3601C29.8209 19.5496 27.2894 23.3455 26.4333 29.9104C26.2499 29.1769 25.9931 28.4006 25.6384 27.6488C25.8157 27.3553 25.9808 27.0436 26.1215 26.7258C26.4761 25.925 26.7085 25.0754 26.8063 24.2013C27.002 22.447 26.6657 20.7049 25.828 19.1462C24.9352 17.4958 23.4982 16.1755 21.7861 15.4298C20.8444 15.0141 19.8477 14.7513 18.8327 14.6413C12.9809 13.9994 10.8896 10.5642 10.6695 10.173C10.6695 10.1669 10.6634 10.1669 10.6634 10.1608C10.3699 9.62896 9.81955 9.29888 9.20808 9.29888C8.94514 9.29888 8.6761 9.36612 8.44374 9.48837C8.04016 9.6962 7.73442 10.0691 7.61213 10.5092C5.49031 17.7097 6.13236 23.8651 9.4221 27.8382C10.5533 29.2197 12.027 30.3138 13.6718 31.0045C14.9926 31.5669 16.3929 31.8481 17.8299 31.8481C18.0622 31.8481 18.2946 31.842 18.527 31.8236C20.5815 31.6769 22.4221 30.9373 23.8468 29.7392C24.5133 31.7931 24.4766 33.7858 24.4766 33.8347C24.4705 33.9691 24.4888 34.0975 24.5255 34.2197H11.7824C11.1098 34.2197 10.5656 34.7638 10.5656 35.4361V42.3128C10.5656 42.9851 11.1098 43.5291 11.7824 43.5291H14.8214L18.1845 55.2714C18.3374 55.7909 18.8144 56.1516 19.3586 56.1516H36.5166C37.0608 56.1516 37.5377 55.7909 37.6906 55.2714L41.0537 43.5414H44.0927C44.7654 43.5414 45.3096 42.9974 45.3096 42.325V35.4484C45.3096 34.776 44.7654 34.232 44.0927 34.232H28.5857C28.5918 29.8493 29.5091 26.4262 30.2734 24.3174C31.1111 22.013 31.9549 20.7355 31.9672 20.7232ZM29.0138 11.1265C29.0138 6.3343 32.915 2.43449 37.7089 2.43449C42.5029 2.43449 46.4041 6.3343 46.4041 11.1265C46.4041 15.9188 42.5029 19.8186 37.7089 19.8186C32.915 19.8186 29.0138 15.9188 29.0138 11.1265ZM18.3619 29.3969C18.1845 29.4092 18.0072 29.4153 17.8299 29.4153C16.7231 29.4153 15.6469 29.1952 14.6257 28.7612C13.3416 28.2172 12.1982 27.3676 11.3116 26.2857C8.76782 23.2294 8.15634 18.4555 9.53828 12.7341C10.8835 14.2745 13.6474 16.5178 18.5698 17.0618C19.3402 17.1413 20.0923 17.343 20.8078 17.6608C22.0307 18.1926 23.0519 19.134 23.6817 20.3015C24.2809 21.4201 24.5255 22.6731 24.3849 23.9323C24.336 24.3908 24.232 24.837 24.0792 25.271C23.6878 24.8492 23.2475 24.458 22.7461 24.1157C22.8012 23.1255 22.7156 21.5056 21.8106 20.2342C21.4192 19.6841 20.6549 19.5618 20.1107 19.9531C19.5604 20.3443 19.4381 21.1022 19.8294 21.6523C20.0618 21.9763 20.1902 22.3858 20.2574 22.8076C19.9578 22.6609 19.6643 22.5264 19.383 22.3981C18.7165 22.0863 18.1112 21.8052 17.5547 21.5179C17.9094 20.7232 18.3374 19.3846 17.9583 18.0643C17.7748 17.4163 17.0961 17.0435 16.4541 17.2269C15.8059 17.4102 15.4329 18.0887 15.6163 18.7305C15.7447 19.1768 15.6225 19.733 15.4635 20.1853C14.5096 19.4029 13.7269 18.3882 13.0176 16.8295C12.7363 16.2183 12.0147 15.9432 11.4033 16.2244C10.7918 16.5056 10.5166 17.2269 10.7979 17.8381C12.5162 21.634 14.7908 22.9238 17.6342 24.2685C17.2918 24.4886 16.7292 24.6658 15.8059 24.6047C15.1333 24.5619 14.5524 25.0693 14.5096 25.7416C14.4668 26.414 14.9743 26.9947 15.6469 27.0375C15.8242 27.0497 15.9893 27.0558 16.1544 27.0558C18.1417 27.0558 19.328 26.2306 19.9639 25.3749C20.2635 25.5216 20.5754 25.6744 20.8873 25.8455C20.8873 25.8455 20.8934 25.8455 20.8934 25.8517C21.6577 26.249 22.257 26.8236 22.7278 27.4776C21.6333 28.584 20.1046 29.2747 18.3619 29.3969ZM35.5932 53.7188H20.2758L17.3529 43.5414H38.5161L35.5932 53.7188ZM42.8698 41.1086H12.9992V36.6648H42.8698V41.1086Z" fill="white"/>
<path d="M37.7093 14.1138C36.5414 14.1138 35.9177 13.5453 35.9177 13.313C35.9177 12.6406 35.3735 12.0966 34.7008 12.0966C34.0282 12.0966 33.484 12.6406 33.484 13.313C33.484 14.78 34.7008 15.9964 36.4252 16.3999V17.2617C36.4252 17.9341 36.9694 18.4781 37.642 18.4781C38.3147 18.4781 38.8589 17.9341 38.8589 17.2617V16.4304C40.6566 16.0575 41.9407 14.8228 41.9407 13.313C41.9407 11.7238 40.412 10.4157 37.8561 9.81664C37.801 9.80442 37.7521 9.79831 37.7032 9.79219C36.5047 9.43767 35.9483 8.94866 35.9238 8.78362C35.9238 8.50856 36.6209 7.98288 37.7154 7.98288C38.81 7.98288 39.507 8.50856 39.507 8.78362C39.507 9.456 40.0512 10 40.7239 10C41.3965 10 41.9407 9.456 41.9407 8.78362C41.9407 7.27383 40.6566 6.03909 38.8589 5.66623V4.9205C38.8589 4.24812 38.3147 3.7041 37.642 3.7041C36.9694 3.7041 36.4252 4.24812 36.4252 4.9205V5.69679C34.7008 6.10633 33.484 7.31661 33.484 8.78362C33.484 10.3729 35.0127 11.6749 37.5687 12.28C37.6237 12.2922 37.6726 12.2983 37.7276 12.3045C38.9261 12.659 39.4765 13.148 39.507 13.313C39.5009 13.5453 38.8772 14.1138 37.7093 14.1138Z" fill="white"/>
</g>
<defs>
<clipPath id="clip0">
<rect width="42.4547" height="56.1498" fill="white" transform="translate(6.38245)"/>
</clipPath>
</defs>
</svg>
