<svg width="48" height="48" viewBox="0 0 48 48" fill="none" xmlns="http://www.w3.org/2000/svg">
<path d="M23.2389 6.46753H21.6416V8.06483H23.2389V6.46753Z" fill="white"/>
<path d="M11.7116 10.5812L10.5818 11.7103L11.7108 12.8402L12.8406 11.7111L11.7116 10.5812Z" fill="white"/>
<path d="M8.06471 21.6418H6.46741V23.2391H8.06471V21.6418Z" fill="white"/>
<path d="M11.7101 32.0409L10.5811 33.1708L11.7109 34.2999L12.84 33.17L11.7101 32.0409Z" fill="white"/>
<path d="M23.2389 36.8162H21.6416V38.4135H23.2389V36.8162Z" fill="white"/>
<path d="M38.4133 21.6418H36.816V23.2391H38.4133V21.6418Z" fill="white"/>
<path d="M33.1701 10.5813L32.041 11.7112L33.1709 12.8402L34.3 11.7104L33.1701 10.5813Z" fill="white"/>
<path d="M23.2394 19.8512V10.4607H21.6421V19.8512L19.8508 21.6418H12.0583V23.2391H19.8508L21.8761 25.2636C22.0259 25.4134 22.229 25.4975 22.4408 25.4975C22.6526 25.4975 22.8557 25.4134 23.0054 25.2636L25.2648 23.0051C25.4145 22.8553 25.4986 22.6522 25.4986 22.4404C25.4986 22.2287 25.4145 22.0255 25.2648 21.8758L23.2394 19.8512ZM22.4408 23.5697L21.3115 22.4404L22.4408 21.3111L23.5701 22.4404L22.4408 23.5697Z" fill="white"/>
<path d="M44.0183 28.277C45.3136 23.5117 44.9979 18.4519 43.1205 13.8846C41.243 9.31719 37.909 5.49818 33.6368 3.0214C29.3647 0.544626 24.3939 -0.451103 19.4973 0.189059C14.6008 0.829221 10.053 3.0694 6.56122 6.56122C3.0694 10.053 0.829221 14.6008 0.189059 19.4973C-0.451103 24.3939 0.544626 29.3647 3.0214 33.6368C5.49818 37.909 9.31719 41.243 13.8846 43.1205C18.4519 44.9979 23.5117 45.3136 28.277 44.0183C29.2734 45.2033 30.5053 46.1682 31.8944 46.8518C33.2836 47.5355 34.7996 47.9229 36.3464 47.9896C37.8932 48.0563 39.437 47.8008 40.8798 47.2393C42.3226 46.6778 43.6329 45.8225 44.7277 44.7277C45.8225 43.6329 46.6778 42.3226 47.2393 40.8798C47.8008 39.437 48.0563 37.8932 47.9896 36.3464C47.9229 34.7996 47.5355 33.2836 46.8518 31.8944C46.1682 30.5053 45.2033 29.2734 44.0183 28.277ZM22.4405 43.2053C18.116 43.2121 13.8969 41.8707 10.3704 39.3678C6.84386 36.8649 4.18525 33.3249 2.76451 29.2404C1.34378 25.156 1.23159 20.7303 2.44355 16.5791C3.65551 12.4279 6.13135 8.75775 9.52654 6.07935C12.9217 3.40094 17.0674 1.8475 21.3867 1.6352C25.7059 1.42289 29.9839 2.56227 33.6254 4.89479C37.2669 7.22731 40.0908 10.637 41.704 14.6493C43.3172 18.6616 43.6396 23.077 42.6263 27.2811C42.1584 26.99 41.6697 26.734 41.164 26.5152C42.0514 22.4612 41.6014 18.2287 39.8812 14.452C38.161 10.6754 35.2633 7.55777 31.6223 5.5664C27.9813 3.57502 23.793 2.8171 19.685 3.40619C15.5771 3.99528 11.7706 5.89966 8.83592 8.83399C5.90127 11.7683 3.99647 15.5746 3.40694 19.6825C2.8174 23.7904 3.57487 27.9788 5.56584 31.62C7.55682 35.2612 10.6741 38.1592 14.4506 39.8798C18.2271 41.6005 22.4595 42.051 26.5136 41.164C26.7324 41.6697 26.9884 42.1584 27.2795 42.6263C25.6947 43.0082 24.0706 43.2026 22.4405 43.2053ZM25.635 36.8161C25.6387 37.7699 25.7648 38.7193 26.0104 39.641C22.3032 40.4134 18.4456 39.9687 15.0114 38.3729C11.5772 36.7771 8.74978 34.1156 6.94954 30.784C5.14931 27.4524 4.47244 23.6288 5.01959 19.8817C5.56674 16.1346 7.30869 12.6641 9.9864 9.9864C12.6641 7.30869 16.1346 5.56674 19.8817 5.01959C23.6288 4.47244 27.4524 5.14931 30.784 6.94954C34.1156 8.74978 36.7771 11.5772 38.3729 15.0114C39.9687 18.4456 40.4134 22.3032 39.641 26.0104C37.9879 25.57 36.2555 25.5164 34.5783 25.8536C32.9011 26.1907 31.3242 26.9097 29.9697 27.9547C28.6152 28.9997 27.5196 30.3427 26.7679 31.8794C26.0162 33.4161 25.6285 35.1054 25.635 36.8161ZM36.8161 46.3999C34.9206 46.3999 33.0677 45.8378 31.4917 44.7848C29.9156 43.7317 28.6872 42.2349 27.9619 40.4837C27.2365 38.7325 27.0467 36.8055 27.4165 34.9464C27.7863 33.0874 28.6991 31.3797 30.0394 30.0394C31.3797 28.6991 33.0874 27.7863 34.9464 27.4165C36.8055 27.0467 38.7325 27.2365 40.4837 27.9619C42.2349 28.6872 43.7317 29.9156 44.7848 31.4917C45.8378 33.0677 46.3999 34.9206 46.3999 36.8161C46.3972 39.3571 45.3866 41.7931 43.5899 43.5899C41.7931 45.3866 39.3571 46.3972 36.8161 46.3999Z" fill="white"/>
<path d="M36.8572 39.2916C35.5734 39.2916 34.5792 38.7223 34.5792 38.2301C34.5792 37.7379 34.1304 37.3398 33.5754 37.3398C33.0204 37.3398 32.5715 37.7379 32.5715 38.2301C32.5715 39.6127 33.9856 40.7298 35.9258 41.0081V41.9669C35.9258 42.4591 36.3746 42.8572 36.9296 42.8572C37.4846 42.8572 37.9335 42.4591 37.9335 41.9669V40.9867C39.8012 40.6785 41.1429 39.5784 41.1429 38.2344C41.1429 36.8433 39.5696 35.6833 36.9393 35.1354C36.8862 35.1268 36.8379 35.1183 36.7897 35.114C35.4142 34.7587 34.5792 34.2066 34.5792 33.8513C34.5792 33.3591 35.5734 32.7898 36.8572 32.7898C38.141 32.7898 39.1352 33.3591 39.1352 33.8513C39.1352 34.3435 39.5841 34.7416 40.1391 34.7416C40.6941 34.7416 41.1429 34.3435 41.1429 33.8513C41.1429 32.5073 39.8012 31.4072 37.9335 31.099V30.0332C37.9335 29.541 37.4846 29.1429 36.9296 29.1429C36.3746 29.1429 35.9258 29.541 35.9258 30.0332V31.0776C33.9856 31.3516 32.5715 32.473 32.5715 33.8556C32.5715 35.2467 34.1449 36.4067 36.7752 36.9546C36.8283 36.9631 36.8765 36.9717 36.9248 36.976C38.3003 37.3312 39.1352 37.8834 39.1352 38.2387C39.1352 38.7181 38.141 39.2916 36.8572 39.2916Z" fill="white"/>
</svg>
