<svg width="40" height="41" viewBox="0 0 40 41" fill="none" xmlns="http://www.w3.org/2000/svg">
<path d="M39.1667 20.9404H29.4496C30.1762 19.142 30.5489 17.2422 30.5489 15.2741C30.5489 12.9254 29.9965 10.6476 28.9897 8.58556C28.9805 8.56221 28.9665 8.54278 28.9553 8.52056C28.0471 6.68292 26.7815 5.01647 25.1809 3.64776C22.4169 1.29515 18.899 -0.000366211 15.2744 -0.000366211C11.6503 -0.000366211 8.13199 1.29515 5.36681 3.64857C3.7767 5.00757 2.50193 6.6465 1.57912 8.5198C1.57159 8.53485 1.56549 8.55036 1.55801 8.56547C1.55801 8.56552 1.55796 8.56552 1.55796 8.56557C0.525135 10.6581 0 12.9141 0 15.2741C0 17.6389 0.530984 19.9134 1.5779 22.0341C1.59417 22.0682 1.6133 22.1 1.63405 22.1309C2.54384 23.9529 3.79867 25.5593 5.36762 26.9085C7.06285 28.3521 9.07541 29.4097 11.2207 29.9998V39.1688C11.2207 39.6294 11.5938 40.0021 12.054 40.0021H39.1667C39.6269 40.0021 40 39.6294 40 39.1688V21.7737C40 21.3131 39.6269 20.9404 39.1667 20.9404ZM2.87047 20.8297C2.19646 19.3284 1.81196 17.746 1.71303 16.109H7.31477C7.35942 17.7443 7.53352 19.3245 7.83736 20.8297H2.87047ZM2.87383 9.72336H7.83817C7.53377 11.2299 7.35937 12.8096 7.31477 14.4424H1.71344C1.81175 12.7978 2.19835 11.2167 2.87383 9.72336ZM28.8369 14.4424H23.2257C23.1814 12.8164 23.0086 11.2371 22.7074 9.72336H27.6895C28.3513 11.2019 28.7361 12.7982 28.8369 14.4424ZM16.1077 20.8297V16.109H21.5614C21.5145 17.7341 21.3368 19.3119 21.0152 20.8297H16.1077ZM27.6835 20.8297H22.7079C23.0087 19.3175 23.1813 17.7374 23.2257 16.109H28.8379C28.7387 17.7493 28.3608 19.3333 27.6835 20.8297ZM21.5592 14.4424H16.1077V9.72336H21.0056C21.3268 11.2286 21.5121 12.8089 21.5592 14.4424ZM16.1077 8.05676V1.80696C17.2074 2.14686 18.2776 3.13763 19.1862 4.69996C19.7354 5.64867 20.21 6.79761 20.5876 8.05676H16.1077ZM14.4411 1.80696V8.05676H9.95779C10.3284 6.81286 10.8037 5.66525 11.3614 4.70159C12.271 3.13793 13.3414 2.14686 14.4411 1.80696ZM14.4411 9.72336V14.4424H8.98126C9.02866 12.8026 9.21578 11.2233 9.54124 9.72336H14.4411ZM8.98131 16.109H14.4411V20.8297H9.54027C9.21573 19.3334 9.02882 17.7528 8.98131 16.109ZM11.2207 22.4963V25.6015C10.7309 24.7 10.3039 23.6432 9.95906 22.4963H11.2207ZM26.7945 8.05676H22.3164C21.8823 6.47607 21.3211 5.06138 20.6278 3.86341C20.3071 3.31188 19.961 2.82484 19.5998 2.38576C21.2343 2.93475 22.767 3.78203 24.099 4.91561C25.1675 5.82932 26.0657 6.89444 26.7945 8.05676ZM6.4479 4.91724C7.78095 3.78279 9.3142 2.93505 10.949 2.38591C10.5873 2.8254 10.241 3.31289 9.91984 3.86504C9.22555 5.06468 8.65301 6.50902 8.23127 8.05676H3.74232C4.47695 6.87964 5.38308 5.82688 6.4479 4.91724ZM3.74639 22.4963H8.23244C8.66618 24.0709 9.22753 25.4865 9.92391 26.6978C10.2448 27.2406 10.5872 27.7292 10.9443 28.1668C9.30428 27.6157 7.76768 26.7626 6.45115 25.6423C5.38171 24.7227 4.47593 23.6681 3.74639 22.4963ZM38.3334 38.3355H12.8873V29.375C12.8874 29.3687 12.8913 29.3634 12.8913 29.3572V28.1739V22.607H21.6491H28.1658H38.3334V38.3355Z" fill="#002A61"/>
<path d="M21.7854 24.1291C21.1344 24.1291 20.5315 24.3225 20.0146 24.642C19.4864 24.3125 18.8771 24.1299 18.2374 24.1299C16.3657 24.1299 14.8428 25.6492 14.8428 27.5168C14.8428 29.3885 16.3657 30.911 18.2374 30.911C18.8786 30.911 19.4893 30.7278 20.0183 30.3969C20.5344 30.715 21.136 30.9078 21.7854 30.9078C23.6543 30.9078 25.1748 29.3877 25.1748 27.5184C25.1748 25.6492 23.6543 24.1291 21.7854 24.1291ZM16.5094 27.5168C16.5094 26.568 17.2845 25.7965 18.2374 25.7965C18.4417 25.7965 18.6386 25.8363 18.8242 25.904C18.5602 26.3862 18.3965 26.9309 18.3965 27.5184C18.3965 28.1074 18.5609 28.6533 18.8261 29.1364C18.64 29.2045 18.4424 29.2444 18.2374 29.2444C17.2845 29.2444 16.5094 28.4697 16.5094 27.5168ZM21.7854 29.2412C20.8358 29.2412 20.0631 28.4681 20.0631 27.5184C20.0631 27.0271 20.2725 26.5859 20.6036 26.2716C20.6043 26.271 20.6052 26.2708 20.6059 26.2701C20.6061 26.2699 20.6061 26.2696 20.6063 26.2694C20.915 25.9778 21.3284 25.7957 21.7854 25.7957C22.7355 25.7957 23.5082 26.5688 23.5082 27.5184C23.5082 28.4681 22.7355 29.2412 21.7854 29.2412Z" fill="#002A61"/>
<path d="M18.3171 33.8935H15.1214C14.6612 33.8935 14.2881 34.2662 14.2881 34.7268C14.2881 35.1874 14.6612 35.5601 15.1214 35.5601H18.3171C18.7772 35.5601 19.1504 35.1874 19.1504 34.7268C19.1504 34.2662 18.7772 33.8935 18.3171 33.8935Z" fill="#002A61"/>
<path d="M24.2445 33.8935H21.0484C20.5882 33.8935 20.2151 34.2662 20.2151 34.7268C20.2151 35.1874 20.5882 35.5601 21.0484 35.5601H24.2445C24.7047 35.5601 25.0778 35.1874 25.0778 34.7268C25.0778 34.2662 24.7047 33.8935 24.2445 33.8935Z" fill="#002A61"/>
<path d="M26.1426 34.7268C26.1426 35.1874 26.5157 35.5601 26.9759 35.5601H30.172C30.6321 35.5601 31.0053 35.1874 31.0053 34.7268C31.0053 34.2662 30.6321 33.8935 30.172 33.8935H26.9759C26.5157 33.8935 26.1426 34.2662 26.1426 34.7268Z" fill="#002A61"/>
<path d="M32.9036 35.5601H36.0993C36.5595 35.5601 36.9326 35.1874 36.9326 34.7268C36.9326 34.2662 36.5595 33.8935 36.0993 33.8935H32.9036C32.4434 33.8935 32.0703 34.2662 32.0703 34.7268C32.0703 35.1874 32.4434 35.5601 32.9036 35.5601Z" fill="#002A61"/>
</svg>
