<svg width="23" height="22" viewBox="0 0 23 22" fill="none" xmlns="http://www.w3.org/2000/svg">
<circle cx="11.2397" cy="10.8679" r="10.8679" fill="#225AA7"/>
<path d="M5.74616 13.7657C5.97059 14.5839 6.65716 14.7337 6.70296 14.7624C7.83289 15.0787 14.1663 15.0797 15.3132 14.7624C16.0987 14.5289 16.243 13.8128 16.27 13.7657C16.5691 12.1302 16.5888 9.99803 16.2563 8.1422L16.27 8.23448C16.0456 7.41625 15.359 7.26654 15.3132 7.23783C14.1984 6.92664 7.84846 6.91487 6.70296 7.23783C5.91746 7.47181 5.77319 8.1874 5.74616 8.23448C5.42601 9.95331 5.40998 11.9254 5.74616 13.7657ZM9.9077 12.7192V9.28574L12.7776 11.005L9.9077 12.7192Z" fill="white"/>
</svg>
